<?xml version="1.0" encoding="iso-8859-1"?>
<!-- Generator: Adobe Illustrator 16.0.4, SVG Export Plug-In . SVG Version: 6.00 Build 0)  -->
<!DOCTYPE svg PUBLIC "-//W3C//DTD SVG 1.1//EN" "http://www.w3.org/Graphics/SVG/1.1/DTD/svg11.dtd">
<svg version="1.1" id="Capa_1" xmlns="http://www.w3.org/2000/svg" xmlns:xlink="http://www.w3.org/1999/xlink" x="0px" y="0px"
	 width="64px" height="64px" viewBox="0 0 64 64" style="enable-background:new 0 0 64 64;" xml:space="preserve">
<g>
	<g id="circle_copy">
		<g>
			<path d="M32,0C14.327,0,0,14.327,0,32s14.327,32,32,32s32-14.327,32-32S49.673,0,32,0z M32,62.001c-16.568,0-30-13.432-30-30
				C2,15.432,15.432,2,32,2s30,13.432,30,30.001C62,48.569,48.568,62.001,32,62.001z"/>
		</g>
	</g>
	<g id="_x40_">
		<g>
			<path d="M42.569,24.474c-0.955-1.754-2.306-3.106-4.052-4.06c-1.747-0.953-3.742-1.43-5.984-1.43
				c-2.67,0-5.038,0.587-7.103,1.762c-2.065,1.174-3.656,2.83-4.771,4.967c-1.116,2.139-1.674,4.576-1.674,7.314
				c0,3.77,1.046,6.705,3.137,8.806c2.091,2.101,5.03,3.151,8.815,3.151c2.545,0,4.819-0.442,6.821-1.327v-2.101
				c-2.357,0.905-4.63,1.358-6.821,1.358c-3.16,0-5.58-0.863-7.259-2.591c-1.679-1.727-2.519-4.196-2.519-7.408
				c0-2.369,0.454-4.457,1.361-6.263c0.908-1.806,2.222-3.196,3.942-4.17c1.721-0.975,3.745-1.462,6.07-1.462
				c1.846,0,3.481,0.388,4.905,1.161c1.423,0.774,2.521,1.878,3.293,3.31c0.771,1.433,1.158,3.102,1.158,5.008
				c0,1.811-0.297,3.282-0.892,4.414c-0.595,1.133-1.367,1.698-2.315,1.698c-1.388,0-2.081-0.937-2.081-2.812v-0.348l0.391-7.424
				c-0.72-0.231-1.528-0.413-2.425-0.545s-1.7-0.197-2.409-0.197c-2.002,0-3.619,0.671-4.85,2.014
				c-1.231,1.343-1.846,3.088-1.846,5.236c0,1.854,0.44,3.32,1.322,4.399s2.104,1.619,3.669,1.619c1.063,0,1.984-0.258,2.761-0.774
				c0.777-0.516,1.375-1.231,1.792-2.148h0.125c0.115,0.854,0.479,1.554,1.095,2.102c0.615,0.547,1.371,0.821,2.268,0.821
				c1.085,0,2.044-0.343,2.879-1.027c0.834-0.685,1.48-1.647,1.939-2.891C43.771,33.396,44,32.026,44,30.531
				C44,28.246,43.523,26.227,42.569,24.474z M34.395,31.668c-0.188,3.297-1.361,4.944-3.521,4.944c-2.034,0-3.05-1.337-3.05-4.012
				c0-1.685,0.383-3.002,1.15-3.949c0.767-0.948,1.828-1.422,3.184-1.422c0.886,0,1.706,0.105,2.456,0.316L34.395,31.668z"/>
		</g>
	</g>
</g>
<g>
</g>
<g>
</g>
<g>
</g>
<g>
</g>
<g>
</g>
<g>
</g>
<g>
</g>
<g>
</g>
<g>
</g>
<g>
</g>
<g>
</g>
<g>
</g>
<g>
</g>
<g>
</g>
<g>
</g>
</svg>
