<?xml version="1.0" encoding="iso-8859-1"?>
<!-- Generator: Adobe Illustrator 16.0.4, SVG Export Plug-In . SVG Version: 6.00 Build 0)  -->
<!DOCTYPE svg PUBLIC "-//W3C//DTD SVG 1.1//EN" "http://www.w3.org/Graphics/SVG/1.1/DTD/svg11.dtd">
<svg version="1.1" id="Capa_1" xmlns="http://www.w3.org/2000/svg" xmlns:xlink="http://www.w3.org/1999/xlink" x="0px" y="0px"
	 width="44.237px" height="44.236px" viewBox="0 0 44.237 44.236" style="enable-background:new 0 0 44.237 44.236;"
	 xml:space="preserve">
<g>
	<path d="M22.119,44.236C9.922,44.236,0,34.314,0,22.118S9.922,0,22.119,0s22.119,9.922,22.119,22.118S34.315,44.236,22.119,44.236z
		 M22.119,1.5C10.75,1.5,1.5,10.749,1.5,22.118s9.25,20.618,20.619,20.618s20.619-9.249,20.619-20.618S33.488,1.5,22.119,1.5z"/>
	<path d="M24.667,29.883c-0.192,0-0.384-0.073-0.531-0.22l-7.327-7.334c-0.292-0.293-0.292-0.768,0-1.061l7.327-7.333
		c0.293-0.293,0.768-0.293,1.061,0s0.293,0.768,0,1.061L18.4,21.799l6.798,6.804c0.292,0.293,0.292,0.769,0,1.061
		C25.051,29.81,24.859,29.883,24.667,29.883z"/>
</g>
<g>
</g>
<g>
</g>
<g>
</g>
<g>
</g>
<g>
</g>
<g>
</g>
<g>
</g>
<g>
</g>
<g>
</g>
<g>
</g>
<g>
</g>
<g>
</g>
<g>
</g>
<g>
</g>
<g>
</g>
</svg>
