<?xml version="1.0" encoding="iso-8859-1"?>
<!-- Generator: Adobe Illustrator 16.0.4, SVG Export Plug-In . SVG Version: 6.00 Build 0)  -->
<!DOCTYPE svg PUBLIC "-//W3C//DTD SVG 1.1//EN" "http://www.w3.org/Graphics/SVG/1.1/DTD/svg11.dtd">
<svg version="1.1" id="Capa_1" xmlns="http://www.w3.org/2000/svg" xmlns:xlink="http://www.w3.org/1999/xlink" x="0px" y="0px"
	 width="64px" height="64px" viewBox="0 0 64 64" style="enable-background:new 0 0 64 64;" xml:space="preserve">
<g>
	<g id="circle_39_">
		<g>
			<path d="M32,0C14.328,0,0,14.327,0,32s14.328,32,32,32c17.673,0,32-14.327,32-32S49.673,0,32,0z M32,62C15.432,62,2,48.569,2,32
				C2,15.432,15.432,2,32,2c16.569,0,30,13.432,30,30C62,48.569,48.569,62,32,62z"/>
		</g>
	</g>
	<g id="Rounded_Rectangle_18">
		<g>
			<path d="M39,18H25c-1.104,0-2,0.896-2,2v25.101c0.422,0.151,0.748,0.478,0.899,0.899H26l6-7.457L38,46h2.101
				c0.151-0.422,0.477-0.748,0.899-0.899V20C41,18.896,40.105,18,39,18z M39,20v4H25v-4H39z M32,35.992L25,44V26h14v18L32,35.992z"
				/>
		</g>
	</g>
</g>
<g>
</g>
<g>
</g>
<g>
</g>
<g>
</g>
<g>
</g>
<g>
</g>
<g>
</g>
<g>
</g>
<g>
</g>
<g>
</g>
<g>
</g>
<g>
</g>
<g>
</g>
<g>
</g>
<g>
</g>
</svg>
