<?xml version="1.0" encoding="iso-8859-1"?>
<!-- Generator: Adobe Illustrator 16.0.4, SVG Export Plug-In . SVG Version: 6.00 Build 0)  -->
<!DOCTYPE svg PUBLIC "-//W3C//DTD SVG 1.1//EN" "http://www.w3.org/Graphics/SVG/1.1/DTD/svg11.dtd">
<svg version="1.1" id="Capa_1" xmlns="http://www.w3.org/2000/svg" xmlns:xlink="http://www.w3.org/1999/xlink" x="0px" y="0px"
	 width="64px" height="64px" viewBox="0 0 64 64" style="enable-background:new 0 0 64 64;" xml:space="preserve">
<g>
	<g id="circle_19_">
		<g>
			<path d="M32,0C14.327,0,0,14.327,0,32s14.327,32,32,32s32-14.327,32-32S49.673,0,32,0z M32,62C15.432,62,2,48.569,2,32
				C2,15.432,15.432,2,32,2c16.568,0,30,13.432,30,30C62,48.569,48.568,62,32,62z"/>
		</g>
	</g>
	<g id="Rounded_Rectangle_5">
		<g>
			<path d="M63,31h-2c-0.552,0-1,0.447-1,1s0.448,1,1,1h2c0.552,0,1-0.447,1-1S63.552,31,63,31z M3,31H1c-0.552,0-1,0.447-1,1
				s0.448,1,1,1h2c0.552,0,1-0.447,1-1S3.552,31,3,31z M32,60c-0.552,0-1,0.447-1,1v2c0,0.553,0.448,1,1,1s1-0.447,1-1v-2
				C33,60.447,32.552,60,32,60z M32,0c-0.552,0-1,0.447-1,1v2c0,0.553,0.448,1,1,1s1-0.447,1-1V1C33,0.447,32.552,0,32,0z"/>
		</g>
	</g>
	<g id="Ellipse_10">
		<g>
			<path d="M33,12c0-0.552-0.448-1-1-1s-1,0.448-1,1v14h2V12z M32,28c-2.209,0-4,1.791-4,4s1.791,4,4,4s4-1.791,4-4S34.209,28,32,28
				z M32,34c-1.104,0-2-0.896-2-2s0.896-2,2-2s2,0.896,2,2S33.104,34,32,34z M46,31h-8v2h8c0.552,0,1-0.447,1-1
				C47,31.448,46.552,31,46,31z"/>
		</g>
	</g>
</g>
<g>
</g>
<g>
</g>
<g>
</g>
<g>
</g>
<g>
</g>
<g>
</g>
<g>
</g>
<g>
</g>
<g>
</g>
<g>
</g>
<g>
</g>
<g>
</g>
<g>
</g>
<g>
</g>
<g>
</g>
</svg>
