<?xml version="1.0" encoding="iso-8859-1"?>
<!-- Generator: Adobe Illustrator 16.0.4, SVG Export Plug-In . SVG Version: 6.00 Build 0)  -->
<!DOCTYPE svg PUBLIC "-//W3C//DTD SVG 1.1//EN" "http://www.w3.org/Graphics/SVG/1.1/DTD/svg11.dtd">
<svg version="1.1" id="Capa_1" xmlns="http://www.w3.org/2000/svg" xmlns:xlink="http://www.w3.org/1999/xlink" x="0px" y="0px"
	 width="64px" height="64px" viewBox="0 0 64 64" style="enable-background:new 0 0 64 64;" xml:space="preserve">
<g>
	<g id="circle_24_">
		<g>
			<path d="M32,0C14.328,0,0,14.327,0,32c0,17.674,14.328,32,32,32s32-14.326,32-32C64,14.327,49.673,0,32,0z M32,62
				C15.432,62,2,48.569,2,32C2,15.432,15.432,2,32,2c16.568,0,30,13.432,30,30C62,48.569,48.568,62,32,62z"/>
		</g>
	</g>
	<g id="Ellipse_11">
		<g>
			<path d="M25,22c0.552,0,1-0.447,1-1v-2c0-0.553-0.448-1-1-1s-1,0.447-1,1v2C24,21.553,24.448,22,25,22z M29,22
				c0.552,0,1-0.447,1-1v-6c0-0.553-0.448-1-1-1s-1,0.447-1,1v6C28,21.553,28.448,22,29,22z M33,22c0.552,0,1-0.447,1-1v-4
				c0-0.553-0.448-1-1-1s-1,0.447-1,1v4C32,21.553,32.448,22,33,22z M37,22c0.552,0,1-0.447,1-1v-2c0-0.553-0.448-1-1-1
				s-1,0.447-1,1v2C36,21.553,36.448,22,37,22z M42,27.101V23H20v20c0,2.209,1.791,4,4,4h14c2.209,0,4-1.791,4-4v-2.101
				c3.388-0.489,6-3.376,6-6.899S45.389,27.59,42,27.101z M40,43c0,1.104-0.896,2-2,2H24c-1.104,0-2-0.896-2-2V25h18V43z M42,38.899
				v-9.799c2.282,0.464,4,2.48,4,4.899S44.283,38.436,42,38.899z"/>
		</g>
	</g>
</g>
<g>
</g>
<g>
</g>
<g>
</g>
<g>
</g>
<g>
</g>
<g>
</g>
<g>
</g>
<g>
</g>
<g>
</g>
<g>
</g>
<g>
</g>
<g>
</g>
<g>
</g>
<g>
</g>
<g>
</g>
</svg>
