<?xml version="1.0" encoding="iso-8859-1"?>
<!-- Generator: Adobe Illustrator 16.0.4, SVG Export Plug-In . SVG Version: 6.00 Build 0)  -->
<!DOCTYPE svg PUBLIC "-//W3C//DTD SVG 1.1//EN" "http://www.w3.org/Graphics/SVG/1.1/DTD/svg11.dtd">
<svg version="1.1" id="Capa_1" xmlns="http://www.w3.org/2000/svg" xmlns:xlink="http://www.w3.org/1999/xlink" x="0px" y="0px"
	 width="64px" height="64px" viewBox="0 0 64 64" style="enable-background:new 0 0 64 64;" xml:space="preserve">
<g>
	<g id="circle_8_">
		<g>
			<path d="M32,0C14.327,0,0,14.327,0,32c0,17.674,14.327,32,32,32s32-14.326,32-32C64,14.327,49.673,0,32,0z M32,62
				C15.432,62,2,48.569,2,32C2,15.432,15.432,2,32,2s30,13.432,30,30C62,48.569,48.568,62,32,62z"/>
		</g>
	</g>
	<g id="bag">
		<g>
			<path d="M44,23c-0.755-0.755-2.896-4-4-4H24c-1.104,0-3.143,3.143-4,4c-1.104,0-2,0.896-2,2l2,19c0,1.104,0.896,2,2,2h20
				c1.104,0,2-0.896,2-2l2-19C46,23.896,45.104,23,44,23z M25.167,21h13.666c0.875,0,2.569,1.435,3.167,2H22
				C22.68,22.356,24.292,21,25.167,21z M42,44H22l-2-19h24L42,44z M32,38c3.313,0,6-2.687,6-6v-2h-2v2c0,2.209-1.791,4-4,4
				s-4-1.791-4-4v-2h-2v2C26,35.313,28.687,38,32,38z"/>
		</g>
	</g>
</g>
<g>
</g>
<g>
</g>
<g>
</g>
<g>
</g>
<g>
</g>
<g>
</g>
<g>
</g>
<g>
</g>
<g>
</g>
<g>
</g>
<g>
</g>
<g>
</g>
<g>
</g>
<g>
</g>
<g>
</g>
</svg>
