<?xml version="1.0" encoding="iso-8859-1"?>
<!-- Generator: Adobe Illustrator 16.0.4, SVG Export Plug-In . SVG Version: 6.00 Build 0)  -->
<!DOCTYPE svg PUBLIC "-//W3C//DTD SVG 1.1//EN" "http://www.w3.org/Graphics/SVG/1.1/DTD/svg11.dtd">
<svg version="1.1" id="Capa_1" xmlns="http://www.w3.org/2000/svg" xmlns:xlink="http://www.w3.org/1999/xlink" x="0px" y="0px"
	 width="64px" height="64px" viewBox="0 0 64 64" style="enable-background:new 0 0 64 64;" xml:space="preserve">
<g>
	<g id="circle_31_">
		<g>
			<path d="M32,0C14.327,0,0,14.327,0,32s14.327,32,32,32s32-14.327,32-32S49.673,0,32,0z M32,62.001c-16.568,0-30-13.432-30-30
				C2,15.432,15.432,2,32,2s30,13.432,30,30.001C62,48.569,48.568,62.001,32,62.001z"/>
		</g>
	</g>
	<g id="STAR">
		<g>
			<path d="M47,28H36l-2.76-10.043C33.087,17.404,32.593,17,32,17c-0.594,0-1.086,0.404-1.24,0.957L27,28H17
				c-0.714,0-1,0.41-1,1.137c0,0.445,0.22,0.843,0.554,1.079c0.206,0.142,8.347,6.152,8.347,6.152s-3.127,9.705-3.188,9.859
				c-0.046,0.142-0.079,0.297-0.079,0.458c0,0.729,0.579,1.314,1.293,1.314c0.273,0,0.526-0.088,0.74-0.235L32,41.631
				c0,0,8.146,5.999,8.334,6.134C40.546,47.912,40.8,48,41.073,48c0.714,0,1.293-0.593,1.293-1.314c0-0.161-0.032-0.316-0.079-0.458
				c-0.061-0.154-3.187-9.859-3.187-9.859s8.14-6.011,8.346-6.152C47.78,29.979,48,29.582,48,29.131C48,28.41,47.714,28,47,28z
				 M42.338,31.144c-0.123,0.084-6.122,3.653-6.122,3.653s2.939,7.512,2.976,7.604c0.027,0.084,0.047,0.177,0.047,0.272
				c0,0.428-0.345,0.78-0.768,0.78c-0.162,0-0.312-0.052-0.439-0.141C37.92,43.232,32,38.962,32,38.962l-5.76,4.227
				c-0.127,0.088-0.277,0.14-0.439,0.14c-0.424,0-0.769-0.349-0.769-0.78c0-0.096,0.021-0.188,0.048-0.272
				c0.036-0.092,2.704-7.479,2.704-7.479s-5.896-3.569-6.018-3.653c-0.198-0.14-0.329-0.376-0.329-0.641
				c0-0.432,0.201-0.519,0.625-0.519H29l2.264-6.119c0.091-0.328,0.384-0.568,0.736-0.568s0.646,0.24,0.736,0.568l1.857,6.119
				l7.448,0.031c0.424,0,0.625,0.056,0.625,0.483C42.667,30.768,42.536,31.004,42.338,31.144z"/>
		</g>
	</g>
</g>
<g>
</g>
<g>
</g>
<g>
</g>
<g>
</g>
<g>
</g>
<g>
</g>
<g>
</g>
<g>
</g>
<g>
</g>
<g>
</g>
<g>
</g>
<g>
</g>
<g>
</g>
<g>
</g>
<g>
</g>
</svg>
