<?xml version="1.0" encoding="iso-8859-1"?>
<!-- Generator: Adobe Illustrator 16.0.4, SVG Export Plug-In . SVG Version: 6.00 Build 0)  -->
<!DOCTYPE svg PUBLIC "-//W3C//DTD SVG 1.1//EN" "http://www.w3.org/Graphics/SVG/1.1/DTD/svg11.dtd">
<svg version="1.1" id="Capa_1" xmlns="http://www.w3.org/2000/svg" xmlns:xlink="http://www.w3.org/1999/xlink" x="0px" y="0px"
	 width="64px" height="64px" viewBox="0 0 64 64" style="enable-background:new 0 0 64 64;" xml:space="preserve">
<g>
	<g id="circle_28_">
		<g>
			<path d="M32,0C14.327,0,0,14.327,0,32s14.327,32,32,32s32-14.327,32-32S49.673,0,32,0z M32,62C15.432,62,2,48.569,2,32
				C2,15.432,15.432,2,32,2s30,13.432,30,30C62,48.569,48.568,62,32,62z"/>
		</g>
	</g>
	<g id="back_copy_2">
		<g>
			<path d="M39,29h-6.111c0.095,0,2.865-10.314,3.08-12.013c0-1.453-1.024-1.952-1.714-1.987c-0.665-0.034-1.531,0.334-1.901,0.891
				L25.053,26.7C23.684,28.86,22,30.896,22,32.031c0,1.955,1.091,3,3,3h5c0.464,0,0.913-0.016,0.913-0.016
				s-2.881,9.484-2.881,11.872c0,1.855,1.016,2.077,1.705,2.112c0.665,0.034,1.352-0.334,1.722-0.891l6.73-10.124
				C39.89,35.844,42,32.729,42,32C42,30.343,40.657,29,39,29z M37.087,36.786l-5.995,9.201c-0.303,0.457-0.438,0.919-0.982,0.919
				c-0.546,0-0.765-0.156-0.765-0.888l3.634-10.985c0,0,0.021-0.449,0.021-1.002c0-0.823-0.58-1-1.214-1H25
				c-0.553,0-1-0.604-1-1.156c0-0.552,2.484-3.782,2.819-4.286l5.901-9.576c0.303-0.457,0.438-0.919,0.982-0.919
				c0.546,0,0.733,0.156,0.733,0.888l-3.444,10.972c0,0-0.009-0.253-0.009,1.064c0,0.933,0.641,0.998,1.106,0.982H39
				c0.553,0,1,0.447,1,1S37.422,36.282,37.087,36.786z"/>
		</g>
	</g>
</g>
<g>
</g>
<g>
</g>
<g>
</g>
<g>
</g>
<g>
</g>
<g>
</g>
<g>
</g>
<g>
</g>
<g>
</g>
<g>
</g>
<g>
</g>
<g>
</g>
<g>
</g>
<g>
</g>
<g>
</g>
</svg>
