<?xml version="1.0" encoding="iso-8859-1"?>
<!-- Generator: Adobe Illustrator 16.0.4, SVG Export Plug-In . SVG Version: 6.00 Build 0)  -->
<!DOCTYPE svg PUBLIC "-//W3C//DTD SVG 1.1//EN" "http://www.w3.org/Graphics/SVG/1.1/DTD/svg11.dtd">
<svg version="1.1" id="Capa_1" xmlns="http://www.w3.org/2000/svg" xmlns:xlink="http://www.w3.org/1999/xlink" x="0px" y="0px"
	 width="64px" height="64px" viewBox="0 0 64 64" style="enable-background:new 0 0 64 64;" xml:space="preserve">
<g>
	<g id="circle_7_">
		<g>
			<path d="M32,0C14.327,0,0,14.327,0,32c0,17.674,14.327,32,32,32s32-14.326,32-32C64,14.327,49.673,0,32,0z M32,62
				C15.432,62,2,48.569,2,32.001C2,15.432,15.432,2,32,2s30,13.432,30,30.001C62,48.569,48.568,62,32,62z"/>
		</g>
	</g>
	<g id="Rounded_Rectangle_8">
		<g>
			<path d="M46,28H18c-1.104,0-2,0.896-2,2l4,11c0,1.104,0.896,2,2,2h20c1.104,0,2-0.896,2-2l4-11C48,28.896,47.104,28,46,28z
				 M42,41H22l-4-11h28L42,41z"/>
		</g>
	</g>
	<g id="Rounded_Rectangle_9">
		<g>
			<path d="M44,24H31v-1c0-1.104-0.896-2-2-2h-9c-1.104,0-2,0.896-2,2v5c0,1.104,0.896,2,2,2h7c0.174,0,0.339-0.029,0.5-0.07
				C27.661,29.971,27.826,30,28,30h16c1.104,0,2-0.896,2-2v-2C46,24.896,45.104,24,44,24z M44,29H20v-6h9v3h15V29z"/>
		</g>
	</g>
</g>
<g>
</g>
<g>
</g>
<g>
</g>
<g>
</g>
<g>
</g>
<g>
</g>
<g>
</g>
<g>
</g>
<g>
</g>
<g>
</g>
<g>
</g>
<g>
</g>
<g>
</g>
<g>
</g>
<g>
</g>
</svg>
