<?xml version="1.0" encoding="iso-8859-1"?>
<!-- Generator: Adobe Illustrator 16.0.4, SVG Export Plug-In . SVG Version: 6.00 Build 0)  -->
<!DOCTYPE svg PUBLIC "-//W3C//DTD SVG 1.1//EN" "http://www.w3.org/Graphics/SVG/1.1/DTD/svg11.dtd">
<svg version="1.1" id="Capa_1" xmlns="http://www.w3.org/2000/svg" xmlns:xlink="http://www.w3.org/1999/xlink" x="0px" y="0px"
	 width="64px" height="64px" viewBox="0 0 64 64" style="enable-background:new 0 0 64 64;" xml:space="preserve">
<g>
	<g id="circle_1_">
		<g>
			<path d="M32,0C14.327,0,0,14.327,0,32s14.327,32,32,32s32-14.327,32-32S49.673,0,32,0z M32,62C15.432,62,2,48.569,2,32
				C2,15.432,15.432,2,32,2s30,13.432,30,30C62,48.569,48.568,62,32,62z"/>
		</g>
	</g>
	<g id="headphones">
		<g>
			<path d="M32,16c-8.836,0-16,7.163-16,16v9c0,2.209,1.791,4,4,4s4-1.791,4-4v-6c0-2.209-1.791-4-4-4
				c-0.723,0-1.392,0.207-1.977,0.542C18.267,24.024,24.423,18,32,18s13.733,6.024,13.977,13.542C45.392,31.207,44.723,31,44,31
				c-2.209,0-4,1.791-4,4v6c0,2.209,1.791,4,4,4s4-1.791,4-4v-9C48,23.163,40.837,16,32,16z M20,33c1.104,0,2,0.896,2,2v6
				c0,1.104-0.896,2-2,2s-2-0.896-2-2v-6C18,33.896,18.896,33,20,33z M46,41c0,1.104-0.896,2-2,2s-2-0.896-2-2v-6
				c0-1.104,0.896-2,2-2s2,0.896,2,2V41z"/>
		</g>
	</g>
</g>
<g>
</g>
<g>
</g>
<g>
</g>
<g>
</g>
<g>
</g>
<g>
</g>
<g>
</g>
<g>
</g>
<g>
</g>
<g>
</g>
<g>
</g>
<g>
</g>
<g>
</g>
<g>
</g>
<g>
</g>
</svg>
