<?xml version="1.0" encoding="iso-8859-1"?>
<!-- Generator: Adobe Illustrator 16.0.4, SVG Export Plug-In . SVG Version: 6.00 Build 0)  -->
<!DOCTYPE svg PUBLIC "-//W3C//DTD SVG 1.1//EN" "http://www.w3.org/Graphics/SVG/1.1/DTD/svg11.dtd">
<svg version="1.1" id="Capa_1" xmlns="http://www.w3.org/2000/svg" xmlns:xlink="http://www.w3.org/1999/xlink" x="0px" y="0px"
	 width="64px" height="64px" viewBox="0 0 64 64" style="enable-background:new 0 0 64 64;" xml:space="preserve">
<g>
	<g id="circle_1_">
		<g>
			<path d="M32,0C14.327,0,0,14.327,0,32s14.327,32,32,32s32-14.327,32-32S49.673,0,32,0z M32,62C15.432,62,2,48.569,2,32.001
				C2,15.432,15.432,2,32,2s30,13.432,30,30.001C62,48.569,48.568,62,32,62z"/>
		</g>
	</g>
	<g id="back">
		<g>
			<path d="M33,26.999V23.01c0-0.735-0.406-1.411-1.057-1.759c-0.65-0.347-1.439-0.308-2.053,0.1l-12,7.978
				C17.334,29.698,17,30.32,17,30.987c0,0.666,0.334,1.289,0.891,1.659l12,7.978c0.613,0.409,1.402,0.446,2.053,0.1
				C32.594,40.375,33,39.701,33,38.965v-3.989c5.171,0.005,9.069,3.393,10.996,8.012C44.809,41.704,45,40.365,45,38.965
				C45,32.356,39.628,26.999,33,26.999z M31,33v4c0,0.603,0,1.531,0,1.531s-0.907-0.016-1.411-0.351L20.2,32.404
				c-0.457-0.303-0.731-0.812-0.731-1.357c0-0.546,0.274-0.931,0.731-1.233l9.389-6.183C30.093,23.298,31,23.344,31,23.344
				s0,1.054,0,1.656v4c6.003,0,13.021,2.604,13.021,11.674C44.021,40.674,42.468,33,31,33z"/>
		</g>
	</g>
</g>
<g>
</g>
<g>
</g>
<g>
</g>
<g>
</g>
<g>
</g>
<g>
</g>
<g>
</g>
<g>
</g>
<g>
</g>
<g>
</g>
<g>
</g>
<g>
</g>
<g>
</g>
<g>
</g>
<g>
</g>
</svg>
