<?xml version="1.0" encoding="iso-8859-1"?>
<!-- Generator: Adobe Illustrator 16.0.4, SVG Export Plug-In . SVG Version: 6.00 Build 0)  -->
<!DOCTYPE svg PUBLIC "-//W3C//DTD SVG 1.1//EN" "http://www.w3.org/Graphics/SVG/1.1/DTD/svg11.dtd">
<svg version="1.1" id="Capa_1" xmlns="http://www.w3.org/2000/svg" xmlns:xlink="http://www.w3.org/1999/xlink" x="0px" y="0px"
	 width="64px" height="64px" viewBox="0 0 64 64" style="enable-background:new 0 0 64 64;" xml:space="preserve">
<g>
	<g id="circle_40_">
		<g>
			<path d="M32,0C14.328,0,0,14.327,0,32s14.328,32,32,32c17.673,0,32-14.327,32-32S49.673,0,32,0z M32,62C15.432,62,2,48.569,2,32
				C2,15.432,15.432,2,32,2c16.568,0,30,13.432,30,30C62,48.569,48.568,62,32,62z"/>
		</g>
	</g>
	<g id="Shape_2_copy">
		<g>
			<path d="M32,16c-8.836,0-16,7.163-16,16s7.164,16,16,16s16-7.163,16-16S40.837,16,32,16z M44.387,25.511l-4.79,3.992
				c-0.792-2.407-2.692-4.31-5.099-5.102l3.994-4.792C41.005,20.932,43.067,22.996,44.387,25.511z M25.508,19.609l3.994,4.792
				c-2.406,0.792-4.307,2.694-5.099,5.102l-4.79-3.992C20.934,22.996,22.996,20.932,25.508,19.609z M25.508,44.391
				c-2.513-1.322-4.574-3.387-5.895-5.901l4.79-3.992c0.792,2.407,2.692,4.31,5.099,5.102L25.508,44.391z M26,32
				c0-3.313,2.687-6,6-6c3.314,0,6,2.687,6,6s-2.686,6-6,6C28.687,38,26,35.313,26,32z M38.493,44.391l-3.994-4.792
				c2.406-0.792,4.307-2.694,5.099-5.102l4.79,3.992C43.067,41.004,41.005,43.068,38.493,44.391z"/>
		</g>
	</g>
</g>
<g>
</g>
<g>
</g>
<g>
</g>
<g>
</g>
<g>
</g>
<g>
</g>
<g>
</g>
<g>
</g>
<g>
</g>
<g>
</g>
<g>
</g>
<g>
</g>
<g>
</g>
<g>
</g>
<g>
</g>
</svg>
