<?xml version="1.0" encoding="iso-8859-1"?>
<!-- Generator: Adobe Illustrator 16.0.4, SVG Export Plug-In . SVG Version: 6.00 Build 0)  -->
<!DOCTYPE svg PUBLIC "-//W3C//DTD SVG 1.1//EN" "http://www.w3.org/Graphics/SVG/1.1/DTD/svg11.dtd">
<svg version="1.1" id="Capa_1" xmlns="http://www.w3.org/2000/svg" xmlns:xlink="http://www.w3.org/1999/xlink" x="0px" y="0px"
	 width="64px" height="64px" viewBox="0 0 64 64" style="enable-background:new 0 0 64 64;" xml:space="preserve">
<g>
	<g id="circle_22_">
		<g>
			<path d="M32,0C14.328,0,0,14.327,0,32s14.328,32,32,32s32-14.327,32-32S49.673,0,32,0z M32,62C15.432,62,2,48.569,2,32.001
				C2,15.432,15.432,2,32,2c16.568,0,30,13.432,30,30.001C62,48.569,48.568,62,32,62z"/>
		</g>
	</g>
	<g id="search">
		<g>
			<path d="M45.714,43.358l-5.712-5.713C41.254,35.916,42,33.798,42,31.5C42,25.701,37.3,21,31.5,21C25.702,21,21,25.701,21,31.5
				S25.702,42,31.5,42c2.809,0,5.354-1.109,7.238-2.906l5.62,5.62c0.375,0.375,0.981,0.375,1.356,0
				C46.089,44.34,46.089,43.732,45.714,43.358z M31.5,40c-4.694,0-8.5-3.806-8.5-8.5s3.806-8.5,8.5-8.5s8.5,3.806,8.5,8.5
				S36.195,40,31.5,40z"/>
		</g>
	</g>
</g>
<g>
</g>
<g>
</g>
<g>
</g>
<g>
</g>
<g>
</g>
<g>
</g>
<g>
</g>
<g>
</g>
<g>
</g>
<g>
</g>
<g>
</g>
<g>
</g>
<g>
</g>
<g>
</g>
<g>
</g>
</svg>
