<?xml version="1.0" encoding="iso-8859-1"?>
<!-- Generator: Adobe Illustrator 16.0.4, SVG Export Plug-In . SVG Version: 6.00 Build 0)  -->
<!DOCTYPE svg PUBLIC "-//W3C//DTD SVG 1.1//EN" "http://www.w3.org/Graphics/SVG/1.1/DTD/svg11.dtd">
<svg version="1.1" id="Capa_1" xmlns="http://www.w3.org/2000/svg" xmlns:xlink="http://www.w3.org/1999/xlink" x="0px" y="0px"
	 width="64px" height="64px" viewBox="0 0 64 64" style="enable-background:new 0 0 64 64;" xml:space="preserve">
<g>
	<g id="circle_5_">
		<g>
			<path d="M32,0C14.327,0,0,14.327,0,32s14.327,32,32,32s32-14.327,32-32S49.673,0,32,0z M32,62C15.432,62,2,48.569,2,32
				C2,15.432,15.432,2,32,2s30,13.432,30,30C62,48.569,48.568,62,32,62z"/>
		</g>
	</g>
	<g id="mouse_1_">
		<g>
			<path d="M32,37c3.313,0,6-2.687,6-6v-9c0-3.313-2.687-6-6-6s-6,2.687-6,6v9C26,34.313,28.687,37,32,37z M28,22
				c0-2.209,1.791-4,4-4s4,1.791,4,4v9c0,2.209-1.791,4-4,4s-4-1.791-4-4V22z M42,31c0-0.553-0.447-1-1-1s-1,0.447-1,1
				c0,4.418-3.582,8-8,8s-8-3.582-8-8c0-0.553-0.447-1-1-1s-1,0.447-1,1c0,5.186,3.947,9.447,9,9.949V46h-3c-0.553,0-1,0.447-1,1
				s0.447,1,1,1h8c0.553,0,1-0.447,1-1s-0.447-1-1-1h-3v-5.051C38.053,40.447,42,36.186,42,31z"/>
		</g>
	</g>
</g>
<g>
</g>
<g>
</g>
<g>
</g>
<g>
</g>
<g>
</g>
<g>
</g>
<g>
</g>
<g>
</g>
<g>
</g>
<g>
</g>
<g>
</g>
<g>
</g>
<g>
</g>
<g>
</g>
<g>
</g>
</svg>
