<?xml version="1.0" encoding="iso-8859-1"?>
<!-- Generator: Adobe Illustrator 16.0.4, SVG Export Plug-In . SVG Version: 6.00 Build 0)  -->
<!DOCTYPE svg PUBLIC "-//W3C//DTD SVG 1.1//EN" "http://www.w3.org/Graphics/SVG/1.1/DTD/svg11.dtd">
<svg version="1.1" id="Capa_1" xmlns="http://www.w3.org/2000/svg" xmlns:xlink="http://www.w3.org/1999/xlink" x="0px" y="0px"
	 width="64px" height="64px" viewBox="0 0 64 64" style="enable-background:new 0 0 64 64;" xml:space="preserve">
<g>
	<g id="circle_37_">
		<g>
			<path d="M32,0C14.327,0,0,14.327,0,32s14.327,32,32,32s32-14.327,32-32S49.673,0,32,0z M32,62C15.432,62,2,48.569,2,32
				C2,15.432,15.432,2,32,2s30,13.432,30,30C62,48.569,48.568,62,32,62z"/>
		</g>
	</g>
	<g id="Shape_2_copy_2">
		<g>
			<path d="M39.777,38.363l-2.898-2.898c1.475-2.074,1.479-4.865,0.007-6.937l2.892-2.892l2.829,2.828l1.414-8.485l-8.485,1.414
				l2.828,2.829l-2.898,2.898c-2.074-1.475-4.865-1.479-6.936-0.006l-2.893-2.893l2.828-2.829l-8.485-1.414l1.414,8.485l2.829-2.828
				l2.893,2.893c-1.474,2.07-1.469,4.861,0.006,6.936l-2.898,2.898l-2.829-2.828l-1.414,8.485l8.485-1.414l-2.828-2.829l2.892-2.892
				c2.071,1.473,4.862,1.468,6.937-0.007l2.898,2.898l-2.828,2.829l8.485,1.414l-1.414-8.485L39.777,38.363z M34.867,34.789
				l-0.078,0.078c-1.553,1.512-4.024,1.511-5.578,0l-0.078-0.078c-1.512-1.554-1.511-4.024,0-5.578l0.078-0.078
				c1.554-1.511,4.025-1.512,5.578,0l0.078,0.078C36.378,30.765,36.379,33.235,34.867,34.789z"/>
		</g>
	</g>
</g>
<g>
</g>
<g>
</g>
<g>
</g>
<g>
</g>
<g>
</g>
<g>
</g>
<g>
</g>
<g>
</g>
<g>
</g>
<g>
</g>
<g>
</g>
<g>
</g>
<g>
</g>
<g>
</g>
<g>
</g>
</svg>
