<?xml version="1.0" encoding="iso-8859-1"?>
<!-- Generator: Adobe Illustrator 16.0.4, SVG Export Plug-In . SVG Version: 6.00 Build 0)  -->
<!DOCTYPE svg PUBLIC "-//W3C//DTD SVG 1.1//EN" "http://www.w3.org/Graphics/SVG/1.1/DTD/svg11.dtd">
<svg version="1.1" id="Capa_1" xmlns="http://www.w3.org/2000/svg" xmlns:xlink="http://www.w3.org/1999/xlink" x="0px" y="0px"
	 width="64px" height="64px" viewBox="0 0 64 64" style="enable-background:new 0 0 64 64;" xml:space="preserve">
<g>
	<g id="circle_16_">
		<g>
			<path d="M32,0C14.327,0,0,14.327,0,32s14.327,32,32,32s32-14.327,32-32S49.673,0,32,0z M32,62C15.432,62,2,48.569,2,32
				C2,15.432,15.432,2,32,2s30,13.432,30,30C62,48.569,48.568,62,32,62z"/>
		</g>
	</g>
	<g id="music">
		<g>
			<path d="M43,18l-14,4c-1.104,0-2,0.896-2,2v13.022C26.162,36.39,25.131,36,24,36c-2.762,0-5,2.238-5,5s2.238,5,5,5
				c2.419,0,4.436-1.718,4.899-4H29V30l14-4v7.022C42.162,32.39,41.131,32,40,32c-2.762,0-5,2.238-5,5s2.238,5,5,5
				c2.419,0,4.436-1.718,4.899-4H45V20C45,18.896,44.104,18,43,18z M24,44c-1.657,0-3-1.343-3-3s1.343-3,3-3s3,1.343,3,3
				S25.657,44,24,44z M40,40c-1.657,0-3-1.343-3-3s1.343-3,3-3s3,1.343,3,3S41.657,40,40,40z M43,24l-14,4v-4l14-4V24z"/>
		</g>
	</g>
</g>
<g>
</g>
<g>
</g>
<g>
</g>
<g>
</g>
<g>
</g>
<g>
</g>
<g>
</g>
<g>
</g>
<g>
</g>
<g>
</g>
<g>
</g>
<g>
</g>
<g>
</g>
<g>
</g>
<g>
</g>
</svg>
