<?xml version="1.0" encoding="iso-8859-1"?>
<!-- Generator: Adobe Illustrator 16.0.4, SVG Export Plug-In . SVG Version: 6.00 Build 0)  -->
<!DOCTYPE svg PUBLIC "-//W3C//DTD SVG 1.1//EN" "http://www.w3.org/Graphics/SVG/1.1/DTD/svg11.dtd">
<svg version="1.1" id="Capa_1" xmlns="http://www.w3.org/2000/svg" xmlns:xlink="http://www.w3.org/1999/xlink" x="0px" y="0px"
	 width="64px" height="64px" viewBox="0 0 64 64" style="enable-background:new 0 0 64 64;" xml:space="preserve">
<g>
	<g id="circle_copy_3">
		<g>
			<path d="M32,0C14.327,0,0,14.327,0,32c0,17.674,14.327,32,32,32c17.673,0,32-14.326,32-32C64,14.327,49.673,0,32,0z M32,62.001
				c-16.568,0-30-13.432-30-30C2,15.432,15.432,2,32,2s30,13.432,30,30.001C62,48.569,48.568,62.001,32,62.001z"/>
		</g>
	</g>
	<g id="_x23_">
		<g>
			<path d="M43.005,29.208v-1.89h-4.499l1.329-9.322h-2.143l-1.329,9.322h-6.041l1.328-9.322h-2.143l-1.328,9.322h-4.97v1.89h4.713
				l-0.943,6.55h-4.97v1.89h4.713l-1.329,9.364h2.143l1.328-9.364h6.042l-1.328,9.364h2.142l1.329-9.364h4.756v-1.89h-4.499
				l0.942-6.55H43.005z M35.165,35.758h-6.042l0.942-6.55h6.042L35.165,35.758z"/>
		</g>
	</g>
</g>
<g>
</g>
<g>
</g>
<g>
</g>
<g>
</g>
<g>
</g>
<g>
</g>
<g>
</g>
<g>
</g>
<g>
</g>
<g>
</g>
<g>
</g>
<g>
</g>
<g>
</g>
<g>
</g>
<g>
</g>
</svg>
