<?xml version="1.0" encoding="iso-8859-1"?>
<!-- Generator: Adobe Illustrator 16.0.4, SVG Export Plug-In . SVG Version: 6.00 Build 0)  -->
<!DOCTYPE svg PUBLIC "-//W3C//DTD SVG 1.1//EN" "http://www.w3.org/Graphics/SVG/1.1/DTD/svg11.dtd">
<svg version="1.1" id="Capa_1" xmlns="http://www.w3.org/2000/svg" xmlns:xlink="http://www.w3.org/1999/xlink" x="0px" y="0px"
	 width="64px" height="64px" viewBox="0 0 64 64" style="enable-background:new 0 0 64 64;" xml:space="preserve">
<g>
	<g id="Rewind_copy_6_2_">
		<g>
			<path d="M32,0C14.327,0,0,14.327,0,32s14.327,32,32,32c17.673,0,32-14.327,32-32S49.673,0,32,0z M32,62.001
				c-16.568,0-30-13.432-30-30C2,15.432,15.432,2,32,2s30,13.432,30,30.001C62,48.569,48.568,62.001,32,62.001z"/>
		</g>
	</g>
	<g id="Reply_copy_4_2_">
		<g>
			<path d="M46.012,20.307l-6.79-4.033c-0.938-0.557-2.136-0.227-2.678,0.738l-7.29,13.338l-0.98,1.746
				c-0.319,0.568-0.781,1.278-0.735,2.02L27.012,43H18v2h11v-0.013c0.282-0.007,0.565-0.066,0.826-0.199l7.306-4.975
				c0.648-0.328,1.008-1.099,1.327-1.667l0.979-1.747l0.49-0.873l6.8-12.465C47.27,22.097,46.949,20.863,46.012,20.307z
				 M38.231,34.519l-0.49,0.873c0,0-0.35,0.624-0.98,1.746s-1.966,2.186-2.452,2.432l-3.718,3.01
				c-0.439,0.225-0.959,0.207-1.382-0.045c-0.425-0.252-0.698-0.705-0.729-1.209l0.674-4.818c-0.034-0.555,0.182-2.27,0.817-3.402
				c0.636-1.133,1.96-3.493,1.96-3.493l1.96-3.493l1.429-2.661l6.792,4.031l-1.431,2.664L38.231,34.519z M43.041,25.759
				l-6.791-4.031l1.992-3.708l6.79,4.033L43.041,25.759z"/>
		</g>
	</g>
</g>
<g>
</g>
<g>
</g>
<g>
</g>
<g>
</g>
<g>
</g>
<g>
</g>
<g>
</g>
<g>
</g>
<g>
</g>
<g>
</g>
<g>
</g>
<g>
</g>
<g>
</g>
<g>
</g>
<g>
</g>
</svg>
