<?xml version="1.0" encoding="iso-8859-1"?>
<!-- Generator: Adobe Illustrator 16.0.4, SVG Export Plug-In . SVG Version: 6.00 Build 0)  -->
<!DOCTYPE svg PUBLIC "-//W3C//DTD SVG 1.1//EN" "http://www.w3.org/Graphics/SVG/1.1/DTD/svg11.dtd">
<svg version="1.1" id="Capa_1" xmlns="http://www.w3.org/2000/svg" xmlns:xlink="http://www.w3.org/1999/xlink" x="0px" y="0px"
	 width="64px" height="64px" viewBox="0 0 64 64" style="enable-background:new 0 0 64 64;" xml:space="preserve">
<g>
	<g id="circle_12_">
		<g>
			<path d="M32,0C14.328,0,0,14.327,0,32c0,17.674,14.328,32,32,32c17.673,0,32-14.326,32-32C64,14.327,49.673,0,32,0z M32,62
				C15.432,62,2,48.569,2,32C2,15.432,15.432,2,32,2c16.569,0,30,13.432,30,30C62,48.569,48.569,62,32,62z"/>
		</g>
	</g>
	<g id="Printer_1_">
		<g>
			<path d="M43,28c-0.552,0-1,0.448-1,1c0,0.553,0.448,1,1,1s1-0.447,1-1C44,28.448,43.553,28,43,28z M44,24h-5v-1
				c0-2.209-1.791-4-4-4h-6c-2.209,0-4,1.791-4,4v1h-5c-2.209,0-4,1.791-4,4v12c0,2.209,1.791,4,4,4h24c2.209,0,4-1.791,4-4V28
				C48,25.791,46.209,24,44,24z M27,23c0-1.104,0.896-2,2-2h6c1.104,0,2,0.896,2,2v1H27V23z M46,40c0,1.104-0.896,2-2,2H20
				c-1.104,0-2-0.896-2-2V28c0-1.104,0.896-2,2-2h24c1.104,0,2,0.896,2,2V40z M32,28c-3.313,0-6,2.687-6,6s2.687,6,6,6
				c3.314,0,6-2.687,6-6S35.314,28,32,28z M32,38c-2.209,0-4-1.791-4-4s1.791-4,4-4s4,1.791,4,4S34.209,38,32,38z"/>
		</g>
	</g>
</g>
<g>
</g>
<g>
</g>
<g>
</g>
<g>
</g>
<g>
</g>
<g>
</g>
<g>
</g>
<g>
</g>
<g>
</g>
<g>
</g>
<g>
</g>
<g>
</g>
<g>
</g>
<g>
</g>
<g>
</g>
</svg>
