<?xml version="1.0" encoding="iso-8859-1"?>
<!-- Generator: Adobe Illustrator 16.0.4, SVG Export Plug-In . SVG Version: 6.00 Build 0)  -->
<!DOCTYPE svg PUBLIC "-//W3C//DTD SVG 1.1//EN" "http://www.w3.org/Graphics/SVG/1.1/DTD/svg11.dtd">
<svg version="1.1" id="Capa_1" xmlns="http://www.w3.org/2000/svg" xmlns:xlink="http://www.w3.org/1999/xlink" x="0px" y="0px"
	 width="64px" height="64px" viewBox="0 0 64 64" style="enable-background:new 0 0 64 64;" xml:space="preserve">
<g>
	<g id="circle_18_">
		<g>
			<path d="M32,0C14.327,0,0,14.327,0,32s14.327,32,32,32s32-14.327,32-32S49.673,0,32,0z M32,62C15.432,62,2,48.569,2,32.001
				C2,15.432,15.432,2,32,2s30,13.432,30,30.001C62,48.569,48.568,62,32,62z"/>
		</g>
	</g>
	<g id="play">
		<g>
			<path d="M41.109,30.341l-12-7.989c-0.613-0.408-1.402-0.447-2.053-0.1C26.406,22.599,26,23.275,26,24.013v15.98
				c0,0.737,0.406,1.412,1.057,1.761c0.65,0.348,1.439,0.311,2.053-0.1l12-7.989C41.666,33.294,42,32.67,42,32.003
				C42,31.335,41.666,30.712,41.109,30.341z M38.8,33.422l-9.389,5.786C28.907,39.543,28,39.559,28,39.559s0-0.93,0-1.533V26.007
				c0-0.604,0-1.659,0-1.659s0.907-0.046,1.411,0.287l9.389,6.193c0.457,0.303,0.731,0.688,0.731,1.234
				C39.531,32.608,39.257,33.119,38.8,33.422z"/>
		</g>
	</g>
</g>
<g>
</g>
<g>
</g>
<g>
</g>
<g>
</g>
<g>
</g>
<g>
</g>
<g>
</g>
<g>
</g>
<g>
</g>
<g>
</g>
<g>
</g>
<g>
</g>
<g>
</g>
<g>
</g>
<g>
</g>
</svg>
