<?xml version="1.0" encoding="iso-8859-1"?>
<!-- Generator: Adobe Illustrator 16.0.4, SVG Export Plug-In . SVG Version: 6.00 Build 0)  -->
<!DOCTYPE svg PUBLIC "-//W3C//DTD SVG 1.1//EN" "http://www.w3.org/Graphics/SVG/1.1/DTD/svg11.dtd">
<svg version="1.1" id="Capa_1" xmlns="http://www.w3.org/2000/svg" xmlns:xlink="http://www.w3.org/1999/xlink" x="0px" y="0px"
	 width="64px" height="64px" viewBox="0 0 64 64" style="enable-background:new 0 0 64 64;" xml:space="preserve">
<g>
	<g id="circle_49_">
		<g>
			<path d="M32,0C14.327,0,0,14.327,0,32s14.327,32,32,32s32-14.327,32-32S49.673,0,32,0z M32,62.001C15.432,62.001,2,48.568,2,32
				S15.432,2,32,2c16.569,0,30,13.432,30,30S48.569,62.001,32,62.001z"/>
		</g>
	</g>
	<g id="Rectangle_4">
		<g>
			<rect x="31" y="22" width="2" height="9"/>
		</g>
	</g>
	<g id="Rectangle_3_copy_3">
		<g>
			<path d="M37.666,22.936l-1.065,1.329c2.627,1.571,4.393,4.437,4.393,7.722c0,4.971-4.026,8.999-8.993,8.999
				s-8.993-4.028-8.993-8.999c0-3.285,1.766-6.15,4.393-7.722l-1.065-1.329C23.142,24.828,21,28.259,21,32.189
				C21,38.16,25.925,43,32,43s11-4.84,11-10.811C43,28.259,40.858,24.828,37.666,22.936z"/>
		</g>
	</g>
</g>
<g>
</g>
<g>
</g>
<g>
</g>
<g>
</g>
<g>
</g>
<g>
</g>
<g>
</g>
<g>
</g>
<g>
</g>
<g>
</g>
<g>
</g>
<g>
</g>
<g>
</g>
<g>
</g>
<g>
</g>
</svg>
