<?xml version="1.0" encoding="iso-8859-1"?>
<!-- Generator: Adobe Illustrator 16.0.4, SVG Export Plug-In . SVG Version: 6.00 Build 0)  -->
<!DOCTYPE svg PUBLIC "-//W3C//DTD SVG 1.1//EN" "http://www.w3.org/Graphics/SVG/1.1/DTD/svg11.dtd">
<svg version="1.1" id="Capa_1" xmlns="http://www.w3.org/2000/svg" xmlns:xlink="http://www.w3.org/1999/xlink" x="0px" y="0px"
	 width="64px" height="64px" viewBox="0 0 64 64" style="enable-background:new 0 0 64 64;" xml:space="preserve">
<g>
	<g id="circle_11_">
		<g>
			<path d="M32,0C14.327,0,0,14.327,0,32s14.327,32,32,32s32-14.327,32-32S49.673,0,32,0z M32,62C15.432,62,2,48.569,2,32.001
				C2,15.432,15.432,2,32,2s30,13.432,30,30.001C62,48.569,48.568,62,32,62z"/>
		</g>
	</g>
	<g id="Printer">
		<g>
			<path d="M37,35H26c-1.104,0-2,0.896-2,2v9c0,1.104,0.896,2,2,2h11c1.104,0,2-0.896,2-2v-9C39,35.896,38.104,35,37,35z M37,46H26
				v-9h11V46z M41,31c1.657,0,3-1.343,3-3s-1.343-3-3-3s-3,1.343-3,3S39.343,31,41,31z M41,27c0.553,0,1,0.448,1,1
				c0,0.553-0.447,1-1,1s-1-0.447-1-1C40,27.448,40.447,27,41,27z M44,21h-2v-1c0-2.209-1.791-4-4-4H26c-2.209,0-4,1.791-4,4v1h-2
				c-2.209,0-4,1.791-4,4v12c0,2.209,1.791,4,4,4h2v-2h-2c-1.104,0-2-0.896-2-2V25c0-1.104,0.896-2,2-2h24c1.104,0,2,0.896,2,2v12
				c0,1.104-0.896,2-2,2h-3v2h3c2.209,0,4-1.791,4-4V25C48,22.791,46.209,21,44,21z M40,21H24v-1c0-1.104,0.896-2,2-2h12
				c1.104,0,2,0.896,2,2V21z"/>
		</g>
	</g>
</g>
<g>
</g>
<g>
</g>
<g>
</g>
<g>
</g>
<g>
</g>
<g>
</g>
<g>
</g>
<g>
</g>
<g>
</g>
<g>
</g>
<g>
</g>
<g>
</g>
<g>
</g>
<g>
</g>
<g>
</g>
</svg>
