<?xml version="1.0" encoding="iso-8859-1"?>
<!-- Generator: Adobe Illustrator 16.0.4, SVG Export Plug-In . SVG Version: 6.00 Build 0)  -->
<!DOCTYPE svg PUBLIC "-//W3C//DTD SVG 1.1//EN" "http://www.w3.org/Graphics/SVG/1.1/DTD/svg11.dtd">
<svg version="1.1" id="Capa_1" xmlns="http://www.w3.org/2000/svg" xmlns:xlink="http://www.w3.org/1999/xlink" x="0px" y="0px"
	 width="64px" height="64px" viewBox="0 0 64 64" style="enable-background:new 0 0 64 64;" xml:space="preserve">
<g>
	<g id="circle_32_">
		<g>
			<path d="M32,0C14.327,0,0,14.327,0,32c0,17.674,14.327,32,32,32c17.673,0,32-14.326,32-32C64,14.327,49.673,0,32,0z M32,62.001
				c-16.568,0-30-13.432-30-30C2,15.432,15.432,2,32,2c16.568,0,30,13.432,30,30.001C62,48.569,48.568,62.001,32,62.001z"/>
		</g>
	</g>
	<g id="back_2_">
		<g>
			<path d="M48.109,30.328l-12-7.978c-0.613-0.406-1.402-0.445-2.053-0.099C33.406,22.599,33,23.274,33,24.011V31h-5v-2h-2v6h2v-2h5
				v6.965c0,0.736,0.406,1.41,1.057,1.759c0.65,0.347,1.439,0.31,2.053-0.1l12-7.978C48.666,33.277,49,32.653,49,31.987
				C49,31.32,48.666,30.698,48.109,30.328z M45.8,33.404l-9.389,5.776C35.907,39.516,35,39.531,35,39.531s0-0.929,0-1.531V26
				c0-0.603,0-1.656,0-1.656s0.907-0.046,1.411,0.287l9.389,6.184c0.457,0.303,0.731,0.687,0.731,1.232
				C46.531,32.592,46.257,33.102,45.8,33.404z"/>
		</g>
	</g>
	<g id="Rounded_Rectangle_15">
		<g>
			<path d="M29,26v-2h-9c-1.104,0-2,0.896-2,2v12c0,1.104,0.896,2,2,2h9v-2h-9V26H29z"/>
		</g>
	</g>
</g>
<g>
</g>
<g>
</g>
<g>
</g>
<g>
</g>
<g>
</g>
<g>
</g>
<g>
</g>
<g>
</g>
<g>
</g>
<g>
</g>
<g>
</g>
<g>
</g>
<g>
</g>
<g>
</g>
<g>
</g>
</svg>
