<?xml version="1.0" encoding="iso-8859-1"?>
<!-- Generator: Adobe Illustrator 16.0.4, SVG Export Plug-In . SVG Version: 6.00 Build 0)  -->
<!DOCTYPE svg PUBLIC "-//W3C//DTD SVG 1.1//EN" "http://www.w3.org/Graphics/SVG/1.1/DTD/svg11.dtd">
<svg version="1.1" id="Capa_1" xmlns="http://www.w3.org/2000/svg" xmlns:xlink="http://www.w3.org/1999/xlink" x="0px" y="0px"
	 width="44.237px" height="44.237px" viewBox="0 0 44.237 44.237" style="enable-background:new 0 0 44.237 44.237;"
	 xml:space="preserve">
<g>
	<path d="M22.118,44.237C9.922,44.237,0,34.314,0,22.118S9.922,0,22.118,0s22.119,9.922,22.119,22.118S34.314,44.237,22.118,44.237z
		 M22.118,1.5C10.75,1.5,1.5,10.749,1.5,22.118s9.25,20.619,20.618,20.619c11.37,0,20.619-9.25,20.619-20.619S33.488,1.5,22.118,1.5
		z"/>
	<path d="M19.341,29.884c-0.192,0-0.384-0.073-0.53-0.22c-0.293-0.292-0.293-0.768,0-1.061l6.796-6.803l-6.796-6.803
		c-0.292-0.293-0.292-0.769,0-1.061c0.293-0.293,0.768-0.293,1.061,0l7.325,7.333c0.293,0.293,0.293,0.768,0,1.061l-7.325,7.333
		C19.725,29.811,19.533,29.884,19.341,29.884z"/>
</g>
<g>
</g>
<g>
</g>
<g>
</g>
<g>
</g>
<g>
</g>
<g>
</g>
<g>
</g>
<g>
</g>
<g>
</g>
<g>
</g>
<g>
</g>
<g>
</g>
<g>
</g>
<g>
</g>
<g>
</g>
</svg>
