<?xml version="1.0" encoding="iso-8859-1"?>
<!-- Generator: Adobe Illustrator 16.0.4, SVG Export Plug-In . SVG Version: 6.00 Build 0)  -->
<!DOCTYPE svg PUBLIC "-//W3C//DTD SVG 1.1//EN" "http://www.w3.org/Graphics/SVG/1.1/DTD/svg11.dtd">
<svg version="1.1" id="Capa_1" xmlns="http://www.w3.org/2000/svg" xmlns:xlink="http://www.w3.org/1999/xlink" x="0px" y="0px"
	 width="64px" height="64px" viewBox="0 0 64 64" style="enable-background:new 0 0 64 64;" xml:space="preserve">
<g>
	<g id="circle_9_">
		<g>
			<path d="M32,0C14.327,0,0,14.327,0,32c0,17.674,14.327,32,32,32s32-14.326,32-32C64,14.327,49.673,0,32,0z M32,62
				C15.432,62,2,48.569,2,32C2,15.432,15.432,2,32,2s30,13.432,30,30C62,48.569,48.568,62,32,62z"/>
		</g>
	</g>
	<g id="Ellipse_13">
		<g>
			<path d="M32,42c-1.657,0-3,1.343-3,3s1.343,3,3,3s3-1.343,3-3S33.657,42,32,42z M32,46c-0.553,0-1-0.447-1-1c0-0.552,0.447-1,1-1
				s1,0.448,1,1C33,45.553,32.553,46,32,46z M32,22c1.657,0,3-1.343,3-3s-1.343-3-3-3s-3,1.343-3,3S30.343,22,32,22z M32,18
				c0.553,0,1,0.447,1,1s-0.447,1-1,1s-1-0.447-1-1S31.447,18,32,18z M45,29c-1.657,0-3,1.343-3,3s1.343,3,3,3s3-1.343,3-3
				S46.657,29,45,29z M45,33c-0.553,0-1-0.447-1-1s0.447-1,1-1s1,0.447,1,1S45.553,33,45,33z M41,26c1.657,0,3-1.343,3-3
				s-1.343-3-3-3s-3,1.343-3,3S39.343,26,41,26z M41,22c0.553,0,1,0.447,1,1s-0.447,1-1,1s-1-0.447-1-1S40.447,22,41,22z M23,38
				c-1.656,0-3,1.344-3,3c0,1.657,1.344,3,3,3c1.657,0,3-1.343,3-3C26,39.344,24.657,38,23,38z M23,42c-0.552,0-1-0.447-1-1
				s0.448-1,1-1c0.553,0,1,0.447,1,1S23.553,42,23,42z M23,26c1.657,0,3-1.343,3-3s-1.343-3-3-3c-1.656,0-3,1.343-3,3
				S21.344,26,23,26z M23,22c0.553,0,1,0.447,1,1s-0.447,1-1,1c-0.552,0-1-0.447-1-1S22.448,22,23,22z M41,38c-1.657,0-3,1.344-3,3
				c0,1.657,1.343,3,3,3s3-1.343,3-3C44,39.344,42.657,38,41,38z M41,42c-0.553,0-1-0.447-1-1s0.447-1,1-1s1,0.447,1,1
				S41.553,42,41,42z M22,32c0-1.657-1.343-3-3-3s-3,1.343-3,3s1.343,3,3,3S22,33.657,22,32z M19,33c-0.553,0-1-0.447-1-1
				s0.447-1,1-1s1,0.447,1,1S19.553,33,19,33z M32,26c-3.313,0-6,2.687-6,6s2.687,6,6,6s6-2.687,6-6S35.313,26,32,26z M32,36.005
				c-2.212,0-4.005-1.793-4.005-4.005s1.793-4.005,4.005-4.005s4.005,1.793,4.005,4.005S34.212,36.005,32,36.005z"/>
		</g>
	</g>
</g>
<g>
</g>
<g>
</g>
<g>
</g>
<g>
</g>
<g>
</g>
<g>
</g>
<g>
</g>
<g>
</g>
<g>
</g>
<g>
</g>
<g>
</g>
<g>
</g>
<g>
</g>
<g>
</g>
<g>
</g>
</svg>
