<?xml version="1.0" encoding="iso-8859-1"?>
<!-- Generator: Adobe Illustrator 16.0.4, SVG Export Plug-In . SVG Version: 6.00 Build 0)  -->
<!DOCTYPE svg PUBLIC "-//W3C//DTD SVG 1.1//EN" "http://www.w3.org/Graphics/SVG/1.1/DTD/svg11.dtd">
<svg version="1.1" id="Capa_1" xmlns="http://www.w3.org/2000/svg" xmlns:xlink="http://www.w3.org/1999/xlink" x="0px" y="0px"
	 width="64px" height="64px" viewBox="0 0 64 64" style="enable-background:new 0 0 64 64;" xml:space="preserve">
<g>
	<g id="circle">
		<g>
			<path d="M32,0C14.327,0,0,14.327,0,32s14.327,32,32,32s32-14.327,32-32S49.673,0,32,0z M32,62C15.432,62,2,48.569,2,32.001
				C2,15.432,15.432,2,32,2s30,13.432,30,30.001C62,48.569,48.568,62,32,62z"/>
		</g>
	</g>
	<g id="Home">
		<g>
			<path d="M20.007,36.002c0.003,0,0.006-0.002,0.008-0.002h-0.008V36.002z M46.383,30.074L32.467,16.186
				c-0.321-0.32-0.643-0.32-0.964,0L17.57,30.09c-0.788,0.186-1.374,0.812-1.496,1.623c-0.036,0.095-0.092,0.186-0.096,0.287h0.038
				c0,1.104,0.896,2,2,2h2v2v10c0,1.104,0.896,2,2,2h4c0,0,0,0,0.001,0h15.999c1.104,0,2-0.896,2-2V34h2c1.104,0,2-0.896,2-2
				C48.016,31.025,47.306,30.252,46.383,30.074z M42,32v14H22V32h-3.562L32,18.406L45.562,32H42z"/>
		</g>
	</g>
</g>
<g>
</g>
<g>
</g>
<g>
</g>
<g>
</g>
<g>
</g>
<g>
</g>
<g>
</g>
<g>
</g>
<g>
</g>
<g>
</g>
<g>
</g>
<g>
</g>
<g>
</g>
<g>
</g>
<g>
</g>
</svg>
