<?xml version="1.0" encoding="iso-8859-1"?>
<!-- Generator: Adobe Illustrator 16.0.4, SVG Export Plug-In . SVG Version: 6.00 Build 0)  -->
<!DOCTYPE svg PUBLIC "-//W3C//DTD SVG 1.1//EN" "http://www.w3.org/Graphics/SVG/1.1/DTD/svg11.dtd">
<svg version="1.1" id="Capa_1" xmlns="http://www.w3.org/2000/svg" xmlns:xlink="http://www.w3.org/1999/xlink" x="0px" y="0px"
	 width="64px" height="64px" viewBox="0 0 64 64" style="enable-background:new 0 0 64 64;" xml:space="preserve">
<g>
	<g id="circle_27_">
		<g>
			<path d="M32,0C14.327,0,0,14.327,0,32s14.327,32,32,32s32-14.327,32-32S49.673,0,32,0z M32,62C15.432,62,2,48.568,2,32
				S15.432,2,32,2s30,13.432,30,30S48.568,62,32,62z"/>
		</g>
	</g>
	<g id="Ellipse_6">
		<g>
			<path d="M32,16c-6.075,0-11,4.925-11,11c0,0.341,0.048,0.668,0.079,1H21v9c0,6.075,4.925,11,11,11
				c5.737,0,10.443-4.394,10.949-10H43V27C43,20.925,38.075,16,32,16z M32,46c-4.971,0-9-4.029-9-9s4.029-9,9-9s9,4.029,9,9
				S36.971,46,32,46z M41,30.688C39.01,27.855,35.725,26,32,26c-3.724,0-7.01,1.855-9,4.688V27c0-4.971,4.029-9,9-9s9,4.029,9,9
				V30.688z M32,33c-2.209,0-4,1.791-4,4c0,1.861,1.278,3.412,3,3.858V42c0,0.553,0.448,1,1,1c0.553,0,1-0.447,1-1v-1.142
				c1.723-0.446,3-1.997,3-3.858C36,34.791,34.209,33,32,33z M32,39c-1.104,0-2-0.896-2-2s0.896-2,2-2s2,0.896,2,2S33.104,39,32,39z
				"/>
		</g>
	</g>
</g>
<g>
</g>
<g>
</g>
<g>
</g>
<g>
</g>
<g>
</g>
<g>
</g>
<g>
</g>
<g>
</g>
<g>
</g>
<g>
</g>
<g>
</g>
<g>
</g>
<g>
</g>
<g>
</g>
<g>
</g>
</svg>
