<?xml version="1.0" encoding="iso-8859-1"?>
<!-- Generator: Adobe Illustrator 16.0.4, SVG Export Plug-In . SVG Version: 6.00 Build 0)  -->
<!DOCTYPE svg PUBLIC "-//W3C//DTD SVG 1.1//EN" "http://www.w3.org/Graphics/SVG/1.1/DTD/svg11.dtd">
<svg version="1.1" id="Capa_1" xmlns="http://www.w3.org/2000/svg" xmlns:xlink="http://www.w3.org/1999/xlink" x="0px" y="0px"
	 width="64px" height="64px" viewBox="0 0 64 64" style="enable-background:new 0 0 64 64;" xml:space="preserve">
<g>
	<g id="circle_35_">
		<g>
			<path d="M32,0C14.328,0,0,14.327,0,32s14.328,32,32,32c17.673,0,32-14.327,32-32S49.673,0,32,0z M32,62C15.432,62,2,48.569,2,32
				C2,15.432,15.432,2,32,2c16.569,0,30,13.432,30,30C62,48.569,48.569,62,32,62z"/>
		</g>
	</g>
	<g id="Calendar">
		<g>
			<path d="M26,18h-2v6h2V18z M36,20h-8v2h8V20z M44,20h-2v2h2c1.104,0,2,0.896,2,2v19c0,1.104-0.896,2-2,2H20c-1.104,0-2-0.896-2-2
				V24c0-1.104,0.896-2,2-2h2v-2h-2c-2.209,0-4,1.791-4,4v19c0,2.209,1.791,4,4,4h24c2.209,0,4-1.791,4-4V24
				C48,21.791,46.209,20,44,20z M40,18h-2v6h2V18z"/>
		</g>
	</g>
	<g id="Ellipse_15_copy_3">
		<g>
			<path d="M24,28c-1.104,0-2,0.896-2,2s0.896,2,2,2s2-0.896,2-2S25.105,28,24,28z M32,28c-1.104,0-2,0.896-2,2s0.896,2,2,2
				s2-0.896,2-2S33.105,28,32,28z M40,32c1.104,0,2-0.896,2-2s-0.896-2-2-2s-2,0.896-2,2S38.896,32,40,32z M24,36
				c-1.104,0-2,0.896-2,2s0.896,2,2,2s2-0.896,2-2S25.105,36,24,36z M32,36c-1.104,0-2,0.896-2,2s0.896,2,2,2s2-0.896,2-2
				S33.105,36,32,36z M40,36c-1.104,0-2,0.896-2,2s0.896,2,2,2s2-0.896,2-2S41.105,36,40,36z"/>
		</g>
	</g>
</g>
<g>
</g>
<g>
</g>
<g>
</g>
<g>
</g>
<g>
</g>
<g>
</g>
<g>
</g>
<g>
</g>
<g>
</g>
<g>
</g>
<g>
</g>
<g>
</g>
<g>
</g>
<g>
</g>
<g>
</g>
</svg>
