<?xml version="1.0" encoding="utf-8"?>
<!-- Generator: Adobe Illustrator 16.0.0, SVG Export Plug-In . SVG Version: 6.00 Build 0)  -->
<!DOCTYPE svg PUBLIC "-//W3C//DTD SVG 1.1//EN" "http://www.w3.org/Graphics/SVG/1.1/DTD/svg11.dtd">
<svg version="1.1" id="Layer_3" xmlns="http://www.w3.org/2000/svg" xmlns:xlink="http://www.w3.org/1999/xlink" x="0px" y="0px"
	 width="126px" height="126px" viewBox="0 0 126 126" enable-background="new 0 0 126 126" xml:space="preserve">
<g>
	<circle cx="103.739" cy="20.667" r="11.003"/>
	<path d="M110.84,34.04c-0.377-0.23-0.778-0.376-1.187-0.479c-1.001-0.56-2.079-0.982-3.172-1.25l-2.741,2.759l-2.658-2.79
		c-0.01,0.002-0.019,0.003-0.026,0.005c-1.402,0.336-2.778,0.929-4.005,1.737c-0.231,0.091-0.459,0.193-0.679,0.328
		c-8.347,5.12-13.244,15.723-19.444,29.146c-0.726,1.568-0.414,3.348,0.644,4.578c-3.367,2.938-4.85,2.001-8.431-0.264
		c-0.389-0.246-0.785-0.497-1.194-0.748c-0.24-0.147-0.496-0.24-0.757-0.307c-0.641-0.357-1.329-0.627-2.027-0.799l-1.752,1.764
		l-1.698-1.784c-0.006,0.002-0.013,0.004-0.019,0.005c-1.328,0.317-2.617,0.997-3.612,1.955c-3.223,2.036-4.742,2.934-7.588,0.756
		c1.188-1.053,1.743-2.725,1.284-4.354C46.455,45.391,38.392,39.135,30.588,34.35c-0.218-0.134-0.446-0.236-0.678-0.327
		c-1.226-0.809-2.602-1.402-4.004-1.738c-0.009-0.002-0.018-0.003-0.028-0.005l-2.657,2.79l-2.74-2.759
		c-1.525,0.373-3.017,1.055-4.318,1.983c-0.037,0.021-0.078,0.033-0.114,0.056C8.311,39.096,0.778,45.428,1.062,65.735
		c0.033,2.34,1.939,4.213,4.271,4.213c0.02,0,0.04,0,0.062,0c2.358-0.033,4.244-1.973,4.211-4.332
		c-0.1-7.166,0.834-11.939,2.354-15.319v7.77c-1.204,5.215-6.229,27.16-6.243,30.437c-0.008,1.678,3.021,3.116,7.29,4.023
		l0.002,18.43c0,2.789,2.259,5.048,5.049,5.048c2.787,0,5.047-2.26,5.047-5.048V93.547c0.239,0.001,0.478,0.001,0.718-0.001
		l-0.001,17.41c-0.001,2.788,2.26,5.048,5.048,5.048h0.001c2.787,0,5.048-2.259,5.049-5.048l0.001-18.729
		c3.009-0.916,5.292-2.345,6.135-4.403c0.028-6.072-4.405-24.885-5.569-29.723v-9.857c3.438,3.803,6.508,9.271,9.068,18.37
		c0.203,0.719,0.578,1.34,1.067,1.837c-0.362,0.987-0.135,2.14,0.675,2.914c3.122,2.981,5.83,4.008,8.223,4.008
		c0.945,0,1.842-0.161,2.695-0.424v3.218c0,0-2.714,18.5-5.88,19.5h6.24l0.002,15.443c0,1.782,1.444,3.228,3.226,3.227
		c1.782,0,3.226-1.444,3.226-3.227l-0.001-15.443h0.46l-0.001,15.443c0,1.782,1.444,3.227,3.226,3.227
		c1.783,0,3.228-1.444,3.228-3.227l0.001-15.443h6.64c-3.166-1-5.88-19.5-5.88-19.5l-0.09-0.006v-3.394
		c1.011,0.37,2.085,0.605,3.231,0.605c2.394,0,5.102-1.026,8.223-4.008c0.658-0.63,0.928-1.511,0.811-2.35
		c0.768-0.425,1.416-1.078,1.811-1.937c2.769-5.993,5.25-11.359,7.794-15.713v14.799c0,1.149,0.224,2.222,0.613,3.208
		c-0.029,0.222-0.05,0.446-0.05,0.676l0.003,40.908c0,2.789,2.261,5.049,5.049,5.048c2.788,0,5.049-2.26,5.048-5.048l-0.002-35.108
		c0.2,0.009,0.4,0.025,0.602,0.025c0.039,0,0.078-0.004,0.116-0.004v35.087c0,2.788,2.26,5.048,5.049,5.048h0.001
		c2.787,0,5.048-2.26,5.048-5.048l0.001-40.657c0.662-1.227,1.048-2.613,1.048-4.135V50.653c1.263,3.341,1.773,7.825,1.134,14.21
		c-0.234,2.348,1.479,4.44,3.826,4.676c0.145,0.014,0.286,0.021,0.43,0.021c2.168,0,4.025-1.644,4.247-3.847
		C126.562,46.495,119.143,39.133,110.84,34.04z"/>
	<circle cx="63.41" cy="58.517" r="7.032"/>
	<circle cx="23.222" cy="20.667" r="11.003"/>
</g>
</svg>
