<?xml version="1.0" encoding="utf-8"?>
<!-- Generator: Adobe Illustrator 16.0.0, SVG Export Plug-In . SVG Version: 6.00 Build 0)  -->
<!DOCTYPE svg PUBLIC "-//W3C//DTD SVG 1.1//EN" "http://www.w3.org/Graphics/SVG/1.1/DTD/svg11.dtd">
<svg version="1.1" id="Layer_2" xmlns="http://www.w3.org/2000/svg" xmlns:xlink="http://www.w3.org/1999/xlink" x="0px" y="0px"
	 width="126px" height="126px" viewBox="0 0 126 126" enable-background="new 0 0 126 126" xml:space="preserve">
<g>
	<path d="M68.234,45.244c0,5.01,4.058,9.069,9.066,9.069c5.012,0,9.07-4.06,9.07-9.069c0-5.007-4.059-9.068-9.07-9.068
		C72.292,36.176,68.234,40.237,68.234,45.244z"/>
	<path d="M96.455,81.833c-2.105-14.361-5.293-20.513-13.121-25.31c-0.152-0.094-0.313-0.16-0.472-0.229
		c-1.009-0.675-2.144-1.169-3.302-1.454l-2.26,2.275l-2.19-2.302c-0.005,0.002-0.013,0.004-0.021,0.006
		c-1.677,0.4-3.306,1.252-4.579,2.444c-6.992,4.703-9.972,10.934-11.971,24.568c-0.281,1.923,1.049,3.711,2.973,3.994
		c0.176,0.023,0.346,0.038,0.518,0.038c1.717,0,3.222-1.26,3.479-3.012c0.718-4.903,1.551-8.488,2.51-11.196v11.089
		c0,0.946,0.185,1.831,0.508,2.644c-0.026,0.183-0.042,0.367-0.042,0.556l0.001,33.721c0,2.298,1.864,4.16,4.162,4.16
		c2.299,0,4.161-1.864,4.161-4.16l-0.002-28.938c0.165,0.009,0.329,0.022,0.494,0.022c0.034,0,0.065-0.006,0.099-0.006
		l-0.002,28.922c0,2.296,1.863,4.16,4.162,4.16c0.001,0,0.001,0,0.001,0c2.298,0,4.16-1.864,4.16-4.16l0.002-33.514
		c0.544-1.011,0.863-2.153,0.863-3.406V70.617c1.126,2.812,2.086,6.677,2.901,12.236c0.258,1.752,1.761,3.012,3.479,3.012
		c0.17,0,0.341-0.015,0.516-0.038C95.406,85.544,96.738,83.756,96.455,81.833z"/>
	<path d="M56.292,81.255c-0.093,0.638-0.073,1.262,0.034,1.86v-2.079C56.314,81.113,56.303,81.181,56.292,81.255z"/>
	<circle cx="56.188" cy="13.677" r="12.871"/>
	<path d="M84.048,54.091c0.169,0.081,0.328,0.157,0.476,0.247c2.025,1.241,3.766,2.584,5.278,4.107
		c0.146-0.073,0.294-0.145,0.434-0.234c2.325-1.484,3.007-4.573,1.521-6.899c-1.052-1.649-2.15-3.136-3.275-4.508
		C87.999,49.776,86.367,52.367,84.048,54.091z"/>
	<path d="M66.213,86.084c-1.244,1.304-3.086,2.009-5.01,1.746c-2.54-0.374-4.445-2.333-4.877-4.715l-0.002,36.173
		c0,3.263,2.645,5.906,5.907,5.906c2.016,0,3.793-1.011,4.858-2.553c-0.554-0.948-0.875-2.05-0.875-3.225L66.213,86.084z"/>
	<path d="M69.097,55.229c0.084-0.076,0.177-0.145,0.267-0.219V53.05c-2.091-2.054-3.4-4.896-3.4-8.054
		c0-4.785,2.983-8.88,7.185-10.542c-1.04-0.596-2.07-1.165-3.078-1.726c-1.852-1.024-3.601-1.991-5.321-3.048
		c-0.215-0.132-0.442-0.227-0.667-0.323c-1.435-0.956-3.044-1.659-4.687-2.063l-3.207,3.229l-3.108-3.262
		c-0.011,0.002-0.022,0.002-0.032,0.004c-2.378,0.568-4.69,1.775-6.499,3.469c-9.923,6.676-14.148,15.52-16.986,34.865
		c-0.401,2.73,1.488,5.27,4.22,5.669c0.245,0.036,0.489,0.054,0.731,0.054c2.438,0,4.573-1.787,4.938-4.271
		c1.021-6.961,2.201-12.045,3.563-15.889v15.733c0,1.347,0.262,2.6,0.72,3.753c-0.037,0.262-0.062,0.521-0.062,0.791l0.004,47.85
		c0,3.263,2.646,5.906,5.907,5.906c3.263,0,5.904-2.644,5.904-5.906l-0.003-41.063c0.235,0.01,0.47,0.027,0.703,0.027
		c0.047,0,0.093-0.004,0.139-0.005v2.789C58.434,66.841,61.676,60.276,69.097,55.229z"/>
</g>
</svg>
