<?xml version="1.0" encoding="utf-8"?>
<!-- Generator: Adobe Illustrator 16.0.0, SVG Export Plug-In . SVG Version: 6.00 Build 0)  -->
<!DOCTYPE svg PUBLIC "-//W3C//DTD SVG 1.1//EN" "http://www.w3.org/Graphics/SVG/1.1/DTD/svg11.dtd">
<svg version="1.1" id="Layer_12" xmlns="http://www.w3.org/2000/svg" xmlns:xlink="http://www.w3.org/1999/xlink" x="0px" y="0px"
	 width="100px" height="100px" viewBox="0 0 100 100" enable-background="new 0 0 100 100" xml:space="preserve">
<path d="M35.314,37.046c0-8.158,6.612-14.771,14.771-14.771c8.157,0,14.771,6.613,14.771,14.771c0,8.159-6.614,14.771-14.771,14.771
	C41.927,51.817,35.314,45.205,35.314,37.046z M78.477,55.857c0.249-3.277,7.964-7.3,7.964-7.3c10.682-4.833,9.624-5.642,9.624-5.642
	c-1.659-17.919-29.866,9.625-29.866,9.625c8.462,4.138,7.038,22.518,7.052,22.399c0,0-1.126,5.199,10.785-5.227
	c13.367-11.7,4.396-8.877-2.24-6.886c-6.637,1.991-0.435-1.162-0.435-1.162c7.197-2.655,10.888-2.821,14.705-10.951
	C99.881,42.583,78.477,55.857,78.477,55.857z M33.802,52.54c0,0-28.207-27.543-29.866-9.625c0,0-1.058,0.81,9.624,5.642
	c0,0,7.715,4.023,7.964,7.3c0,0-21.404-13.274-17.588-5.144c3.816,8.13,7.508,8.296,14.705,10.951c0,0,6.202,3.153-0.435,1.162
	c-6.637-1.991-15.607-4.813-2.24,6.886c11.912,10.425,11.515,5.227,11.515,5.227C27.494,75.057,25.339,56.678,33.802,52.54z
	 M38.637,18.359c0-1.774,10.277-1.826,11.449-1.826c1.171,0,11.448,0.051,11.448,1.826c0,1.774-10.277,1.825-11.448,1.825
	C48.914,20.184,38.637,20.133,38.637,18.359z M39.332,18.359c0.538,0.492,4.508,1.161,10.754,1.161
	c6.245,0,10.215-0.669,10.753-1.161c-0.538-0.492-4.508-1.162-10.753-1.162C43.84,17.197,39.87,17.867,39.332,18.359z"/>
<path d="M69.364,61.791c-1.532-4.924-5.523-8.77-10.536-10.095c-2.318,2.162-5.416,3.497-8.827,3.497
	c-3.413,0-6.512-1.334-8.828-3.497c-6.448,1.705-11.224,7.572-11.224,14.546v12.211l0.031,0.189l0.842,0.264
	c2.624,0.82,5.124,1.443,7.514,1.932l3.226,0.589c3.553,0.555,6.811,0.781,9.736,0.781c11.07,0,17.487-3.157,17.882-3.356
	l0.788-0.399l0.083,0.001V66.242c0-0.446-0.021-0.89-0.06-1.327L69.364,61.791z"/>
</svg>
