<?xml version="1.0" encoding="utf-8"?>
<!-- Generator: Adobe Illustrator 16.0.0, SVG Export Plug-In . SVG Version: 6.00 Build 0)  -->
<!DOCTYPE svg PUBLIC "-//W3C//DTD SVG 1.1//EN" "http://www.w3.org/Graphics/SVG/1.1/DTD/svg11.dtd">
<svg version="1.1" id="Layer_1" xmlns="http://www.w3.org/2000/svg" xmlns:xlink="http://www.w3.org/1999/xlink" x="0px" y="0px"
	 width="126px" height="126px" viewBox="0 0 126 126" enable-background="new 0 0 126 126" xml:space="preserve">
<g>
	<path d="M14.915,50.096c3.922,0,7.104-3.182,7.104-7.108c0-3.923-3.181-7.102-7.104-7.102c-3.925,0-7.105,3.179-7.105,7.102
		C7.809,46.914,10.99,50.096,14.915,50.096z"/>
	<path d="M19.639,51.823c-0.119-0.073-0.243-0.126-0.367-0.178c-0.793-0.527-1.682-0.915-2.589-1.142l-1.769,1.784l-1.717-1.8
		c-0.006,0-0.01,0-0.018,0.001c-0.909,0.218-1.802,0.604-2.598,1.131c-0.141,0.058-0.282,0.118-0.419,0.203
		c-5.515,3.382-8.684,6.06-9.661,21.714c-0.096,1.518,1.062,2.829,2.58,2.926c0.061,0.004,0.119,0.005,0.175,0.005
		c1.445,0,2.659-1.124,2.75-2.589c0.33-5.284,0.866-8.71,1.633-11.072v9.559c0,0.741,0.146,1.433,0.397,2.068
		c-0.02,0.144-0.033,0.29-0.033,0.438l0.004,26.413c0,1.802,1.458,3.26,3.259,3.26c1.8,0,3.258-1.459,3.258-3.262l-0.002-22.665
		c0.13,0.005,0.261,0.015,0.39,0.015c0.025,0,0.05-0.003,0.076-0.003v22.653c0,1.803,1.458,3.262,3.259,3.262
		c1.8,0,3.259-1.459,3.259-3.262l0.002-26.247c0.427-0.793,0.676-1.688,0.676-2.67V62.89c0.756,2.357,1.281,5.765,1.607,10.989
		c0.091,1.465,1.306,2.589,2.75,2.589c0.058,0,0.116-0.001,0.172-0.005c1.522-0.097,2.678-1.408,2.583-2.926
		C28.321,57.883,25.154,55.205,19.639,51.823z M14.931,66.348h-0.035l-1.711-2.344l1.711-11.452h0.035l1.712,11.452L14.931,66.348z"
		/>
	<path d="M47.588,50.096c3.923,0,7.104-3.182,7.104-7.108c0-3.923-3.182-7.102-7.104-7.102c-3.925,0-7.104,3.179-7.104,7.102
		C40.483,46.914,43.663,50.096,47.588,50.096z"/>
	<path d="M52.313,51.823c-0.119-0.073-0.243-0.126-0.366-0.178c-0.794-0.527-1.683-0.915-2.589-1.142l-1.77,1.784l-1.716-1.8
		c-0.006,0-0.011,0-0.017,0.001c-0.91,0.218-1.803,0.604-2.599,1.131c-0.14,0.058-0.282,0.118-0.418,0.203
		c-5.516,3.382-8.684,6.06-9.662,21.714c-0.096,1.518,1.062,2.829,2.581,2.926c0.061,0.004,0.119,0.005,0.175,0.005
		c1.446,0,2.659-1.124,2.751-2.589c0.33-5.284,0.865-8.71,1.632-11.072v9.559c0,0.741,0.145,1.433,0.397,2.068
		c-0.021,0.144-0.034,0.29-0.034,0.438l0.004,26.413c0,1.802,1.459,3.26,3.259,3.26c1.801,0,3.259-1.459,3.259-3.262l-0.003-22.665
		c0.131,0.005,0.261,0.015,0.39,0.015c0.026,0,0.05-0.003,0.076-0.003v22.653c0,1.803,1.458,3.262,3.258,3.262
		c1.801,0,3.259-1.459,3.259-3.262l0.002-26.247c0.427-0.793,0.676-1.688,0.676-2.67V62.89c0.756,2.357,1.281,5.765,1.606,10.989
		c0.092,1.465,1.306,2.589,2.751,2.589c0.057,0,0.115-0.001,0.172-0.005c1.521-0.097,2.677-1.408,2.583-2.926
		C60.995,57.883,57.828,55.205,52.313,51.823z M47.604,66.348H47.57l-1.712-2.344l1.712-11.452h0.034l1.713,11.452L47.604,66.348z"
		/>
	<path d="M111.113,50.096c3.922,0,7.104-3.182,7.104-7.108c0-3.923-3.181-7.102-7.104-7.102c-3.925,0-7.105,3.179-7.105,7.102
		C104.008,46.914,107.188,50.096,111.113,50.096z"/>
	<path d="M115.837,51.823c-0.119-0.073-0.243-0.126-0.367-0.178c-0.793-0.527-1.682-0.915-2.589-1.142l-1.769,1.784l-1.717-1.8
		c-0.006,0-0.01,0-0.017,0.001c-0.909,0.218-1.803,0.604-2.598,1.131c-0.141,0.058-0.282,0.118-0.419,0.203
		c-5.515,3.382-8.684,6.06-9.661,21.714c-0.096,1.518,1.062,2.829,2.581,2.926c0.061,0.004,0.119,0.005,0.175,0.005
		c1.445,0,2.659-1.124,2.75-2.589c0.33-5.284,0.865-8.71,1.633-11.072v9.559c0,0.741,0.146,1.433,0.397,2.068
		c-0.02,0.144-0.033,0.29-0.033,0.438l0.003,26.413c0,1.802,1.459,3.26,3.26,3.26s3.258-1.459,3.258-3.262l-0.002-22.665
		c0.13,0.005,0.26,0.015,0.39,0.015c0.025,0,0.05-0.003,0.076-0.003v22.653c0,1.803,1.458,3.262,3.258,3.262s3.26-1.459,3.26-3.262
		l0.001-26.247c0.428-0.793,0.676-1.688,0.676-2.67V62.89c0.756,2.357,1.281,5.765,1.606,10.989
		c0.092,1.465,1.306,2.589,2.751,2.589c0.058,0,0.116-0.001,0.172-0.005c1.521-0.097,2.678-1.408,2.583-2.926
		C124.52,57.883,121.353,55.205,115.837,51.823z M111.129,66.348h-0.035l-1.711-2.344l1.711-11.452h0.035l1.712,11.452
		L111.129,66.348z"/>
	<polygon points="90.479,20.972 67.222,20.972 78.851,32.601 	"/>
	<path d="M71.802,43.953c0,3.895,3.156,7.05,7.049,7.05s7.049-3.155,7.049-7.05c0-3.891-3.156-7.048-7.049-7.048
		S71.802,40.063,71.802,43.953z"/>
	<path d="M83.54,52.719c-0.106-0.064-0.218-0.109-0.328-0.156c-0.794-0.531-1.69-0.926-2.604-1.15l-1.756,1.768l-1.703-1.786
		c-0.006,0-0.012,0-0.018,0.001c-0.917,0.221-1.816,0.613-2.616,1.149c-0.121,0.054-0.244,0.104-0.36,0.175
		c-2.905,1.782-9.583,8.476-9.266,12.375c0.189,2.324,2.801,6.687,4.341,9.081c0.523,0.813,1.404,1.256,2.304,1.256
		c0.158,0,0.315-0.02,0.473-0.047c-0.004,0.067-0.01,0.136-0.01,0.204l0.002,26.206c0,1.786,1.448,3.234,3.234,3.234
		c1.787,0,3.235-1.448,3.235-3.234l-0.002-22.491c0.129,0.007,0.256,0.018,0.385,0.018c0.025,0,0.05-0.003,0.075-0.004
		l-0.001,22.478c0,1.786,1.448,3.234,3.235,3.234l0,0c1.786,0,3.235-1.448,3.235-3.234l0-26.146c0.05-0.097,0.096-0.196,0.141-0.296
		c0.207,0.049,0.417,0.079,0.625,0.079c0.9,0,1.781-0.443,2.303-1.256c1.54-2.395,4.151-6.757,4.341-9.081
		C93.123,61.194,86.444,54.501,83.54,52.719z M71.637,67.493c-0.644-1.193-1.116-2.19-1.257-2.694
		c0.164-0.477,0.623-1.227,1.257-2.081V67.493z M78.868,67.133h-0.033l-1.7-2.327l1.7-11.364h0.033l1.7,11.364L78.868,67.133z
		 M86.066,67.476v-4.747c0.624,0.844,1.08,1.586,1.245,2.063C87.161,65.313,86.696,66.303,86.066,67.476z"/>
</g>
</svg>
