<?xml version="1.0" encoding="utf-8"?>
<!-- Generator: Adobe Illustrator 16.0.0, SVG Export Plug-In . SVG Version: 6.00 Build 0)  -->
<!DOCTYPE svg PUBLIC "-//W3C//DTD SVG 1.1//EN" "http://www.w3.org/Graphics/SVG/1.1/DTD/svg11.dtd">
<svg version="1.1" id="Layer_3" xmlns="http://www.w3.org/2000/svg" xmlns:xlink="http://www.w3.org/1999/xlink" x="0px" y="0px"
	 width="126px" height="126px" viewBox="0 0 126 126" enable-background="new 0 0 126 126" xml:space="preserve">
<g>
	<path d="M57.573,59.906c-0.512-0.303-1.095-0.463-1.687-0.463c-1.167,0-2.261,0.623-2.854,1.625
		c-0.452,0.761-0.58,1.653-0.36,2.511c0.219,0.857,0.76,1.579,1.522,2.03c0.511,0.302,1.094,0.462,1.685,0.462c0,0,0,0,0,0
		c1.166,0,2.26-0.622,2.854-1.625C59.666,62.875,59.145,60.837,57.573,59.906z"/>
	<path d="M58.488,69.419l5.484,3.249c0.376,0.222,0.786,0.335,1.22,0.335c1.023,0,2.061-0.637,2.645-1.622
		c0.042-0.07,0.073-0.134,0.092-0.196c0.171-0.273,0.312-0.304,0.408-0.326c0.072-0.015,0.156-0.023,0.249-0.023
		c0.974,0,2.529,0.882,3.145,1.354c0.833,0.637,2.106,0.467,2.742-0.363c0.65-0.878,0.479-2.096-0.363-2.742
		c-0.288-0.221-2.892-2.157-5.539-2.157c-0.37,0-0.731,0.038-1.071,0.112c-0.176,0.038-0.347,0.089-0.513,0.147l-0.119,0.063
		l-0.294,0.224c-2.618-1.012-2.455-2.995-2.367-4.073l0.015-0.188c0.005-0.662-0.152-1.453-0.525-2.669
		c-0.245-0.801-1.128-1.272-1.933-1.027c-0.815,0.248-1.277,1.114-1.029,1.932c0.437,1.426,0.409,1.486,0.229,1.871l-0.054,0.118
		c-0.071,0.158-0.202,0.324-0.401,0.511c-1.813,1.122-2.88,2.556-2.865,3.885C57.65,68.518,57.966,69.111,58.488,69.419z"/>
	<path d="M72.575,30.709c-1.656-1.361-3.652-2.344-5.702-2.846l-3.155,3.176l-3.06-3.211c-0.01,0.002-0.021,0.003-0.031,0.005
		c-2.341,0.56-4.615,1.746-6.394,3.414c-9.766,6.568-13.925,15.271-16.717,34.31c-0.395,2.687,1.464,5.185,4.151,5.579
		c0.242,0.035,0.482,0.052,0.72,0.052c2.4,0,4.5-1.759,4.859-4.204c1.004-6.849,2.167-11.853,3.507-15.635v5.466l-0.247,1.573
		c-1.671,3.41-2.646,7.489-2.646,11.875c0,1.217,0.079,2.409,0.223,3.571l-3.538,22.543c0,0,2.636,0.923,6.859,1.75l0.002,20.263
		c0,3.209,2.602,5.812,5.812,5.811c3.209,0,5.812-2.603,5.811-5.812l-0.001-18.997c0.272,0.006,0.55,0.005,0.826,0.007
		l-0.001,18.989c0,3.21,2.602,5.812,5.811,5.812h0c3.209,0,5.812-2.602,5.812-5.812l0-20.115c2.625-0.555,5.274-1.335,7.887-2.42
		l-3.601-21.042c0.234-1.468,0.36-2.989,0.36-4.551c0-0.138-0.011-0.271-0.013-0.408c-0.119,0.064-0.231,0.131-0.354,0.195
		c-0.896,0.471-1.902,0.72-2.908,0.72c-0.394,0-0.777-0.049-1.155-0.12c-1.79,5.012-6.565,8.605-12.191,8.605
		c-7.155,0-12.956-5.801-12.956-12.956s5.801-12.956,12.956-12.956c4.389,0,8.262,2.188,10.605,5.528
		c1.475-0.806,2.21-1.598,2.576-2.278v-7.607c1.288,2.274,2.08,4.545,2.017,6.454c-0.048,1.443-0.528,3.324-3.847,5.068
		c-2.404,1.264-3.329,4.237-2.065,6.641c0.88,1.674,2.589,2.63,4.357,2.63c0.771,0,1.554-0.182,2.283-0.565
		c7.281-3.827,8.968-9.426,9.101-13.449C88.868,45.507,79.451,34.987,72.575,30.709z"/>
	<circle cx="63.717" cy="14.462" r="12.666"/>
</g>
</svg>
