<?xml version="1.0" encoding="iso-8859-1"?>
<!-- Generator: Adobe Illustrator 17.1.0, SVG Export Plug-In . SVG Version: 6.00 Build 0)  -->
<!DOCTYPE svg PUBLIC "-//W3C//DTD SVG 1.1//EN" "http://www.w3.org/Graphics/SVG/1.1/DTD/svg11.dtd">
<svg version="1.1" id="Layer_1" xmlns="http://www.w3.org/2000/svg" xmlns:xlink="http://www.w3.org/1999/xlink" x="0px" y="0px"
	 viewBox="0 0 128 128" style="enable-background:new 0 0 128 128;" xml:space="preserve">
<g>
	<ellipse cx="66.882" cy="24.945" rx="15.6" ry="15.95"/>
	<path d="M33.504,58.645L18.39,71.394c-2.955,2.492-3.33,6.908-0.837,9.864c1.385,1.642,3.362,2.486,5.354,2.486
		c1.593,0,3.196-0.541,4.51-1.649l23.865-20.116C46.261,56.033,40.386,53.344,33.504,58.645z"/>
	<path d="M29.178,84.919l0.023,0.027h-0.023v6.327c-5.255,1.847-9.029,6.84-9.029,12.726c0,7.456,6.044,13.5,13.5,13.5
		c7.456,0,13.5-6.044,13.5-13.5c0-6.205-4.192-11.419-9.894-12.998v-3.5l8.078-6.647c8.022,3.383,12.482,8.041,27.819,6.847
		c2.909-0.227,5.443-1.189,7.642-2.697l9.103,10.31c-1.976,2.348-3.171,5.375-3.171,8.684c0,7.456,6.044,13.5,13.5,13.5
		c7.456,0,13.5-6.044,13.5-13.5c0-7.456-6.044-13.5-13.5-13.5c-0.994,0-1.959,0.115-2.892,0.318L86.607,78.666
		c6.321-10.268,7.353-26.938,5.24-37.639c-0.059-0.297,0.244-0.716,0.457-0.931c3.022-3.049,5.712-6.44,8.751-9.474
		c1.888-1.884,3.919-3.536,6.275-4.765c2.637-1.375,4.743-0.496,6.816,1.119c0.239,0.186,0.441,0.361,0.458,0.384
		c0.01,0.014,0.02,0.027,0.031,0.041c3.187,3.858,0.906,7.747-2.235,10.69c-2.78,2.603,1.356,6.807,4.122,4.216
		c5.043-4.725,7.024-10.995,3.836-16.782c-0.146-0.265-1.066-1.874-2.802-3.354c-2.283-1.774-4.712-3.099-7.761-3.039
		c-3.117,0.061-6.137,1.78-8.597,3.583c-5.523,4.046-9.394,9.834-14.362,14.483c-0.055,0.051-0.106,0.104-0.155,0.156
		c-0.082,0.089-0.334,0.322-0.568,0.513c0,0-28.4,23.455-44.87,37.126L29.178,84.919z"/>
</g>
</svg>
