<?xml version="1.0" encoding="utf-8"?>
<!-- Generator: Adobe Illustrator 16.0.0, SVG Export Plug-In . SVG Version: 6.00 Build 0)  -->
<!DOCTYPE svg PUBLIC "-//W3C//DTD SVG 1.1//EN" "http://www.w3.org/Graphics/SVG/1.1/DTD/svg11.dtd">
<svg version="1.1" id="Layer_11" xmlns="http://www.w3.org/2000/svg" xmlns:xlink="http://www.w3.org/1999/xlink" x="0px" y="0px"
	 width="100px" height="100px" viewBox="0 0 100 100" enable-background="new 0 0 100 100" xml:space="preserve">
<path d="M65.778,25.924c3.531-2.941,4.746-9.032-0.713-10.072c-1.89-0.36-2.697,2.531-0.798,2.893
	c1.963,0.375,1.874,1.801,1.021,3.338c-0.577,1.04-1.689,2.145-2.914,2.424c-2.709-0.972-5.564-1.636-8.525-1.946
	c2.724-2.898,5.023-6.604,5.125-10.61c0.127-5.015-5.375-7.732-9.763-7.578c-3.614,0.128-6.688,3.09-7.065,6.656
	c-0.401,3.787,2.521,6.257,6.187,5.768c1.889-0.252,1.913-3.255,0-3c-2.241,0.299-3.655-0.689-3.102-3.055
	c0.598-2.554,3.178-3.682,5.594-3.286c8.939,1.463,3.838,10.251-0.219,14.114c-0.259,0.246-0.396,0.52-0.442,0.792
	c-0.055,0-0.109-0.004-0.164-0.004c-20.233,0-36.636,16.402-36.636,36.636S29.767,95.632,50,95.632s36.636-16.402,36.636-36.636
	C86.636,44.412,78.113,31.82,65.778,25.924z M29,51.965c0-4.971,4.029-9,9-9s9,4.029,9,9s-4.029,9-9,9S29,56.936,29,51.965z
	 M50.536,85.882c-6.903,0-12.5-4.365-12.5-9.75s5.597-6.75,12.5-6.75s12.5,1.365,12.5,6.75S57.439,85.882,50.536,85.882z
	 M63.699,60.965c-4.971,0-9-4.029-9-9s4.029-9,9-9s9,4.029,9,9S68.67,60.965,63.699,60.965z"/>
</svg>
