<?xml version="1.0" encoding="utf-8"?>
<!-- Generator: Adobe Illustrator 16.0.0, SVG Export Plug-In . SVG Version: 6.00 Build 0)  -->
<!DOCTYPE svg PUBLIC "-//W3C//DTD SVG 1.1//EN" "http://www.w3.org/Graphics/SVG/1.1/DTD/svg11.dtd">
<svg version="1.1" id="Layer_3" xmlns="http://www.w3.org/2000/svg" xmlns:xlink="http://www.w3.org/1999/xlink" x="0px" y="0px"
	 width="126px" height="126px" viewBox="0 0 126 126" enable-background="new 0 0 126 126" xml:space="preserve">
<g>
	<path d="M101.406,67.209H76.633V39.248l25.514,0.02c0.001,0,0.003,0,0.004,0c2.805,0,5.079-2.272,5.081-5.077
		c0.003-2.807-2.271-5.083-5.076-5.085l-31.569-0.024c-1.281-0.758-2.672-1.331-4.089-1.678l-3.26,3.282l-3.161-3.318
		c-0.011,0.003-0.022,0.003-0.032,0.006c-1.464,0.351-2.901,0.942-4.218,1.732L23.675,29.08c-0.002,0-0.003,0-0.005,0
		c-2.804,0-5.078,2.272-5.081,5.077c-0.002,2.806,2.271,5.083,5.078,5.085l26.174,0.021V67.67c0,1.368,0.266,2.644,0.731,3.815
		c-0.036,0.267-0.06,0.535-0.06,0.811l0.049,47.238c0.004,3.314,2.69,5.999,6.005,5.999c0.001,0,0.004,0,0.006,0
		c3.317-0.004,6.002-2.695,5.999-6.012L62.53,79.189c0.235,0.011,0.47,0.03,0.708,0.03c0.293,0,0.583-0.02,0.875-0.037
		c0.214,0.023,0.432,0.037,0.651,0.037h36.643c3.316,0,6.005-2.688,6.005-6.005S104.722,67.209,101.406,67.209z"/>
	<circle cx="63.236" cy="13.555" r="13.088"/>
</g>
</svg>
