<?xml version="1.0" encoding="utf-8"?>
<!-- Generator: Adobe Illustrator 16.0.0, SVG Export Plug-In . SVG Version: 6.00 Build 0)  -->
<!DOCTYPE svg PUBLIC "-//W3C//DTD SVG 1.1//EN" "http://www.w3.org/Graphics/SVG/1.1/DTD/svg11.dtd">
<svg version="1.1" id="Layer_1" xmlns="http://www.w3.org/2000/svg" xmlns:xlink="http://www.w3.org/1999/xlink" x="0px" y="0px"
	 width="50px" height="50px" viewBox="0 0 50 50" enable-background="new 0 0 50 50" xml:space="preserve">
<g>
	<polygon points="29.634,35.837 20.368,35.837 25,26.572 	"/>
	<g>
		<path d="M40.55,26.961H9.45c-0.214,0-0.389-0.174-0.389-0.389s0.175-0.389,0.389-0.389h31.1c0.214,0,0.389,0.174,0.389,0.389
			S40.764,26.961,40.55,26.961z"/>
	</g>
	<g>
		<path d="M34.699,12.564c0.919,0,1.664-1.065,1.664-1.984c0-0.919-0.745-1.664-1.664-1.664s-1.666,0.745-1.666,1.664
			C33.033,11.5,33.78,12.564,34.699,12.564z"/>
		<path d="M37.958,13.723c-0.014-0.047-0.024-0.095-0.048-0.14c-0.017-0.033-0.039-0.059-0.062-0.088
			c-0.029-0.039-0.058-0.078-0.093-0.11c-0.031-0.025-0.065-0.039-0.1-0.059c-0.035-0.02-0.061-0.047-0.101-0.061
			c-0.061-0.021-1.382-0.497-2.602-0.558l-0.169,0.334h-0.003l0.444,3.451l-0.526,0.92l-0.527-0.92l0.443-3.451h-0.007l-0.165-0.334
			c-1.22,0.062-2.539,0.537-2.601,0.558c-0.039,0.014-0.067,0.042-0.101,0.062s-0.068,0.033-0.098,0.058
			c-0.037,0.033-0.065,0.073-0.095,0.113c-0.023,0.028-0.046,0.053-0.062,0.084c-0.024,0.045-0.034,0.093-0.048,0.143
			c-0.008,0.029-0.024,0.054-0.028,0.086l-0.524,4.737c-0.041,0.362,0.216,0.688,0.579,0.727c0.025,0.003,0.049,0.005,0.075,0.005
			c0.329,0,0.615-0.249,0.65-0.584l0.48-4.317c0.058-0.017,0.118-0.035,0.184-0.053v4.492l-0.523,6.512
			c-0.035,0.435,0.288,0.816,0.725,0.851c0.02,0.002,0.041,0.003,0.062,0.003c0.408,0,0.753-0.312,0.786-0.727l0.475-5.887
			c0.098,0.044,0.203,0.068,0.318,0.068s0.22-0.024,0.318-0.068l0.474,5.887c0.034,0.414,0.378,0.727,0.787,0.727
			c0.019,0,0.042,0,0.062-0.003c0.435-0.034,0.76-0.416,0.724-0.851l-0.523-6.512v-4.492c0.065,0.018,0.126,0.036,0.185,0.053
			l0.479,4.317c0.036,0.335,0.321,0.584,0.65,0.584c0.026,0,0.05-0.001,0.074-0.005c0.363-0.039,0.622-0.364,0.581-0.727
			l-0.525-4.737C37.981,13.78,37.965,13.754,37.958,13.723z"/>
	</g>
	<polygon points="23.201,41.083 23.202,41.082 23.199,41.082 	"/>
	<path d="M18.576,21.287c0.02-0.54-0.071-1.09-0.273-1.614l0.841-0.522l-0.823-1.315l-0.838,0.523
		c-0.384-0.411-0.835-0.732-1.329-0.952l0.222-0.961l-1.511-0.348l-0.224,0.962c-0.539-0.021-1.089,0.069-1.613,0.271l-0.524-0.839
		l-1.311,0.821l0.523,0.839c-0.412,0.381-0.735,0.836-0.953,1.332l-0.962-0.223L9.45,20.772l0.962,0.221
		c-0.019,0.542,0.07,1.089,0.272,1.615L9.846,23.13l0.823,1.315l0.839-0.524c0.381,0.413,0.835,0.733,1.328,0.952l-0.22,0.96
		l1.509,0.35l0.224-0.963c0.539,0.023,1.088-0.067,1.613-0.271l0.522,0.839l1.314-0.822l-0.525-0.838
		c0.412-0.381,0.735-0.836,0.952-1.331l0.961,0.222l0.35-1.512L18.576,21.287z M15.969,23.502c-1.303,0.814-3.02,0.417-3.836-0.887
		c-0.814-1.302-0.417-3.021,0.885-3.835c1.307-0.815,3.023-0.419,3.837,0.886C17.67,20.97,17.272,22.689,15.969,23.502z"/>
</g>
</svg>
