<?xml version="1.0" encoding="utf-8"?>
<!-- Generator: Adobe Illustrator 16.0.0, SVG Export Plug-In . SVG Version: 6.00 Build 0)  -->
<!DOCTYPE svg PUBLIC "-//W3C//DTD SVG 1.1//EN" "http://www.w3.org/Graphics/SVG/1.1/DTD/svg11.dtd">
<svg version="1.1" id="Layer_11" xmlns="http://www.w3.org/2000/svg" xmlns:xlink="http://www.w3.org/1999/xlink" x="0px" y="0px"
	 width="100px" height="100px" viewBox="0 0 100 100" enable-background="new 0 0 100 100" xml:space="preserve">
<path d="M39.932,44.709c2.98,1.823,6.443,2.854,10.043,2.854v45.39c-5.563-0.122-11.831-0.773-18.725-2.218V67.816
	c0-0.899-0.729-1.628-1.628-1.628s-1.628,0.729-1.628,1.628V90.01c-0.002,0-0.004-0.001-0.006-0.001v0.009
	c0,2.533-2.053,4.587-4.586,4.587s-4.587-2.054-4.587-4.587v-2.868v-2.708V68.164c0-4.427,1.247-8.562,3.391-12.095l0.508,0.764
	c0.889,1.34,2.381,2.139,3.99,2.139c0.942,0,1.856-0.276,2.643-0.8l8.623-5.727c1.065-0.708,1.791-1.788,2.044-3.04
	c0.252-1.253,0.002-2.529-0.706-3.594l-0.521-0.784c0.446-0.066,0.889-0.144,1.343-0.185C40.062,44.8,39.998,44.754,39.932,44.709z
	 M23.181,56.522l-0.948-1.427l0.188-0.277c3.564-5.272,8.933-8.857,15.117-10.094l0.329-0.066l0.972,1.463
	c0.624,0.941,0.845,2.067,0.622,3.173c-0.222,1.104-0.863,2.058-1.803,2.683l-8.622,5.728c-0.696,0.462-1.502,0.705-2.333,0.705
	C25.282,58.409,23.965,57.704,23.181,56.522z M23.438,55.103l0.576,0.866c0.599,0.902,1.604,1.44,2.689,1.44
	c0.633,0,1.249-0.186,1.779-0.538l8.622-5.728c0.718-0.478,1.207-1.204,1.376-2.048c0.17-0.843,0.002-1.703-0.474-2.421l-0.6-0.902
	C31.728,46.994,26.789,50.293,23.438,55.103z M62.788,44.805c6.181,1.332,11.5,4.99,14.979,10.302l0.181,0.276l-1.145,1.72
	c-0.784,1.182-2.1,1.887-3.521,1.887c-0.83,0-1.637-0.243-2.332-0.705l-8.623-5.729c-0.94-0.624-1.581-1.577-1.803-2.683
	c-0.223-1.104-0.002-2.23,0.622-3.171l1.308-1.97L62.788,44.805z M62.909,45.856l-0.93,1.398c-0.476,0.718-0.645,1.578-0.474,2.421
	c0.169,0.844,0.658,1.57,1.376,2.047l8.623,5.729c0.53,0.353,1.146,0.538,1.779,0.538c1.085,0,2.089-0.538,2.688-1.439l0.778-1.169
	C73.476,50.533,68.583,47.166,62.909,45.856z M32.794,20.829H28.75c0-6.462,4.929-12.043,12.067-14.663v6.189
	c0,0.833,0.675,1.509,1.51,1.509c0.833,0,1.508-0.676,1.508-1.509V5.271c1.357-0.313,2.771-0.525,4.229-0.625v9.721
	c0,1.258,1.02,2.277,2.277,2.277c1.258,0,2.278-1.02,2.278-2.277V4.703c1.458,0.139,2.869,0.389,4.22,0.74v6.912
	c0,0.833,0.675,1.509,1.509,1.509c0.833,0,1.509-0.676,1.509-1.509V6.435c6.763,2.72,11.378,8.144,11.378,14.395H67.19
	c0.695,1.934,1.094,4.009,1.094,6.181c0,3.282-0.871,6.354-2.387,9.013c-0.059,0.106-0.125,0.208-0.185,0.312
	c-0.104,0.173-0.207,0.347-0.315,0.517c-3.233,5.119-8.919,8.533-15.423,8.533c-7.283,0-13.552-4.274-16.484-10.44h0.026
	c-1.161-2.397-1.814-5.087-1.814-7.934C31.701,24.838,32.099,22.763,32.794,20.829z M50.813,24.627c0,2.039,1.653,3.691,3.691,3.691
	h7.138c2.039,0,3.69-1.652,3.69-3.691v-3.69c0-0.037-0.009-0.071-0.01-0.107H50.823c-0.001,0.036-0.01,0.07-0.01,0.107V24.627z
	 M34.649,24.627c0,2.039,1.653,3.691,3.692,3.691h7.137c2.039,0,3.691-1.652,3.691-3.691v-3.69c0-0.037-0.009-0.071-0.011-0.107
	H34.66c-0.001,0.036-0.01,0.07-0.01,0.107V24.627z M81.172,84.194v-16.03c0-4.299-1.184-8.317-3.213-11.783l-0.687,1.032
	c-0.888,1.34-2.38,2.139-3.989,2.139c-0.942,0-1.856-0.276-2.643-0.8l-8.623-5.728c-1.065-0.707-1.791-1.787-2.044-3.039
	c-0.252-1.254-0.002-2.529,0.706-3.595l0.874-1.314c-0.559-0.092-1.121-0.182-1.692-0.233c0.047-0.03,0.092-0.062,0.138-0.094
	c-2.97,1.813-6.414,2.814-10.024,2.814h1.789v45.423c0.082,0,0.169,0.005,0.251,0.005c6.342,0,11.693-0.669,15.964-1.526V68.441
	c0-0.899,0.729-1.628,1.628-1.628s1.628,0.729,1.628,1.628V84.33v6.049v0.346c0.012-0.003,0.022-0.006,0.034-0.009
	c0.177,2.588,2.309,4.639,4.942,4.639c2.748,0,4.975-2.228,4.975-4.976V84.33C81.186,84.284,81.174,84.241,81.172,84.194z"/>
</svg>
