<?xml version="1.0" encoding="utf-8"?>
<!-- Generator: Adobe Illustrator 16.0.0, SVG Export Plug-In . SVG Version: 6.00 Build 0)  -->
<!DOCTYPE svg PUBLIC "-//W3C//DTD SVG 1.1//EN" "http://www.w3.org/Graphics/SVG/1.1/DTD/svg11.dtd">
<svg version="1.1" id="Layer_1" xmlns="http://www.w3.org/2000/svg" xmlns:xlink="http://www.w3.org/1999/xlink" x="0px" y="0px"
	 width="50px" height="50px" viewBox="0 0 50 50" enable-background="new 0 0 50 50" xml:space="preserve">
<g>
	<path d="M15.391,34.684h5.104V15.292h-5.104V34.684z M16.209,16.518h3.467v0.496h-3.467V16.518z M16.209,17.709h3.467v0.496h-3.467
		V17.709z M16.209,32.964h3.467v0.496h-3.467V32.964z"/>
	<path d="M9.288,34.707h5.103V15.315H9.288V34.707z M10.105,16.541h3.468v0.496h-3.468V16.541z M10.105,17.732h3.468v0.496h-3.468
		V17.732z M10.105,32.987h3.468v0.496h-3.468V32.987z"/>
	<path d="M21.494,15.292v19.392h5.104V17.892v-2.6H21.494z M25.779,33.46h-3.468v-0.496h3.468V33.46z M25.779,18.205h-3.468v-0.496
		h3.468V18.205z M25.779,17.014h-3.468v-0.496h3.468V17.014z"/>
	<path d="M31.017,15.339l-4.419,2.553l9.695,16.792l4.42-2.552L31.017,15.339z M27.918,18.542l3.003-1.734l0.249,0.433l-3.004,1.733
		L27.918,18.542z M31.516,17.839l0.249,0.431l-3.003,1.733 M36.141,32.785l3.004-1.733l0.248,0.431l-3.003,1.733L36.141,32.785z"/>
</g>
</svg>
