<?xml version="1.0" encoding="utf-8"?>
<!-- Generator: Adobe Illustrator 16.0.0, SVG Export Plug-In . SVG Version: 6.00 Build 0)  -->
<!DOCTYPE svg PUBLIC "-//W3C//DTD SVG 1.1//EN" "http://www.w3.org/Graphics/SVG/1.1/DTD/svg11.dtd">
<svg version="1.1" id="Layer_11" xmlns="http://www.w3.org/2000/svg" xmlns:xlink="http://www.w3.org/1999/xlink" x="0px" y="0px"
	 width="100px" height="100px" viewBox="0 0 100 100" enable-background="new 0 0 100 100" xml:space="preserve">
<path d="M27.554,33.318c0-11.445,8.571-20.871,19.642-22.253c1.448-3.441,4.75-7.907,11.561-3.779c0,0-5.725-2.284-8.354,3.606
	c0.946,0.017,1.874,0.103,2.788,0.233c1.915-1.982,4.877-2.983,9.354-0.27c0,0-3.597-1.434-6.4,0.89
	c9.405,2.676,16.3,11.311,16.3,21.573c0,12.396-10.05,22.446-22.446,22.446C37.603,55.764,27.554,45.714,27.554,33.318z
	 M75.296,72.49l-0.794-3.953c-1.938-6.23-6.989-11.097-13.333-12.773c-2.933,2.735-6.853,4.423-11.17,4.423
	s-8.238-1.688-11.17-4.423c-8.159,2.156-14.202,9.579-14.202,18.405v15.451l0.04,0.239l1.066,0.333
	c3.32,1.038,6.483,1.827,9.507,2.444l4.083,0.746c4.495,0.701,8.618,0.988,12.32,0.988c14.007,0,22.125-3.994,22.625-4.248
	l0.997-0.505l0.106,0.002V74.169C75.372,73.604,75.345,73.043,75.296,72.49z"/>
</svg>
