<?xml version="1.0" encoding="iso-8859-1"?>
<!-- Generator: Adobe Illustrator 17.1.0, SVG Export Plug-In . SVG Version: 6.00 Build 0)  -->
<!DOCTYPE svg PUBLIC "-//W3C//DTD SVG 1.1//EN" "http://www.w3.org/Graphics/SVG/1.1/DTD/svg11.dtd">
<svg version="1.1" id="Layer_1" xmlns="http://www.w3.org/2000/svg" xmlns:xlink="http://www.w3.org/1999/xlink" x="0px" y="0px"
	 viewBox="0 0 128 128" style="enable-background:new 0 0 128 128;" xml:space="preserve">
<g>
	<circle cx="40.887" cy="27.924" r="11.253"/>
	<path d="M9.296,99.392h18.383c0.293,0,0.53,0.237,0.53,0.53v11.385c0,2.696,1.983,5.052,4.678,5.052h2.847
		c2.696,0,4.935-2.356,4.935-5.052V99.922c0-0.293,0.237-0.53,0.53-0.53h45.865c0.293,0,0.53,0.237,0.53,0.53v11.385
		c0,2.696,1.983,5.052,4.678,5.052h2.847c2.696,0,4.935-2.356,4.935-5.052V99.922c0-0.293,0.237-0.53,0.53-0.53h17.719
		c2.696,0,5.08-2.472,5.08-5.168V57.21c0-2.696-2.385-4.743-5.08-4.743h-17.381c-0.293,0-0.521-0.238-0.54-0.53
		c-0.034-0.55-0.149-0.995-0.383-1.302c-0.061-0.08-0.155-0.143-0.248-0.192c-0.155-0.08-0.058-0.143,0.23-0.192
		c1.186-0.2,3.962-0.808,3.814-2.109c-0.509-4.474-8.948-7.737-14.101-5.703c0,0-0.098,0.045-0.219,0.1
		c-0.121,0.055-0.103-0.108,0.015-0.376c0.347-0.789,0.539-1.661,0.539-2.578c0-3.537-2.867-6.405-6.404-6.405
		c-3.233,0-5.899,2.397-6.334,5.51c-0.041,0.29-0.233,0.681-0.458,0.868c-0.738,0.613-1.561,1.268-2.131,1.634
		c-0.246,0.159-0.278,0.404-0.026,0.554c0.525,0.313,1.484,0.752,2.668,0.691c0.292-0.015,0.629,0.155,0.777,0.408
		c0.59,1.006,1.44,1.87,2.459,2.434c0.256,0.142,0.295,0.39,0.08,0.589c-1.026,0.95-2.856,2.903-4.013,6.095
		c-0.1,0.275-0.41,0.501-0.703,0.501H48.53c-0.293,0-0.508-0.236-0.487-0.528c0.019-0.269,0.029-0.502,0.029-0.761
		c0-5.99-5.038-10.881-11.253-10.881s-11.253,4.908-11.253,10.899c0,0.257,0.01,0.482,0.029,0.744
		c0.021,0.292-0.194,0.528-0.486,0.528H9.296c-2.696,0-4.682,2.047-4.682,4.743v37.014C4.615,96.92,6.6,99.392,9.296,99.392z"/>
	<circle cx="108.302" cy="35.275" r="4.003"/>
	<circle cx="97.426" cy="14.708" r="3.068"/>
	<circle cx="109.757" cy="19.723" r="2.515"/>
</g>
</svg>
