<?xml version="1.0" encoding="iso-8859-1"?>
<!-- Generator: Adobe Illustrator 17.1.0, SVG Export Plug-In . SVG Version: 6.00 Build 0)  -->
<!DOCTYPE svg PUBLIC "-//W3C//DTD SVG 1.1//EN" "http://www.w3.org/Graphics/SVG/1.1/DTD/svg11.dtd">
<svg version="1.1" id="Layer_1" xmlns="http://www.w3.org/2000/svg" xmlns:xlink="http://www.w3.org/1999/xlink" x="0px" y="0px"
	 viewBox="0 0 128 128" style="enable-background:new 0 0 128 128;" xml:space="preserve">
<g>
	<path d="M80.723,113.131c0.04-0.357,0.064-58.856,0.064-58.856s0.142-0.904,0.316-1.218c0,0,14.137-25.309,14.314-25.622
		c1.078-1.906,1.125-4.322-0.081-6.335c-1.785-2.981-5.649-3.949-8.629-2.164c-1.092,0.654-1.911,1.656-2.427,2.723l-7.874,14.194
		c-0.362,0.628-0.774,0.874-1.542,0.874H52.955c-0.359,0-0.795-0.253-0.974-0.564c0,0-8.274-14.496-8.45-14.809
		c-1.08-1.911-3.125-3.226-5.473-3.226c-3.474,0-6.291,2.799-6.291,6.274c0,1.273,0.419,2.447,1.069,3.438l14.135,24.46
		c0.18,0.311,0.326,0.854,0.326,1.213v59.079c0.062,3.901,3.46,7.589,7.736,7.589c4.276,0,8.13-3.666,8.193-7.567l0.003-24.516
		c0-0.359,0.291-0.65,0.65-0.65h0.975c0.359,0,0.65,0.291,0.65,0.65l0.007,24.617c0.062,3.901,3.169,7.466,7.445,7.466
		C76.996,120.181,80.315,116.795,80.723,113.131z"/>
	<path d="M59.308,13.092c-3.189,1.686-5.363,5.035-5.363,8.894C53.944,27.54,58.446,32.042,64,32.042
		c5.554,0,10.056-4.502,10.056-10.056c0-3.433-1.722-6.464-4.348-8.278V7.819l-2.71,4.565c-0.296-0.092-0.598-0.17-0.905-0.235
		v-4.33l-2.472,4.12c-0.4,0.015-0.795,0.051-1.182,0.112V7.819L59.308,13.092z"/>
</g>
</svg>
