<?xml version="1.0" encoding="iso-8859-1"?>
<!-- Generator: Adobe Illustrator 17.1.0, SVG Export Plug-In . SVG Version: 6.00 Build 0)  -->
<!DOCTYPE svg PUBLIC "-//W3C//DTD SVG 1.1//EN" "http://www.w3.org/Graphics/SVG/1.1/DTD/svg11.dtd">
<svg version="1.1" id="Layer_1" xmlns="http://www.w3.org/2000/svg" xmlns:xlink="http://www.w3.org/1999/xlink" x="0px" y="0px"
	 viewBox="0 0 128 128" style="enable-background:new 0 0 128 128;" xml:space="preserve">
<g>
	<path d="M43.357,73.892c2.509,0,4.558-1.923,4.56-4.432L47.91,41.826c0-0.261,0.205-0.473,0.467-0.473h1.965
		c0.261,0,0.5,0.211,0.5,0.473c0,0-0.006,77.734-0.006,77.743c0,3.237,2.613,5.873,5.85,5.873c3.236,0,5.85-2.605,5.85-5.842
		c0-0.009,0-45.966,0-45.966c0-0.334,0.154-0.474,0.484-0.474h1.935c0.33,0,0.506,0.139,0.506,0.474c0,0,0.008,45.853,0.008,45.966
		c0,3.237,2.641,5.842,5.878,5.842s5.814-2.637,5.814-5.873c0-0.009,0-77.743,0-77.743c0-0.261,0.211-0.473,0.473-0.473h1.995
		c0.261,0,0.465,0.211,0.465,0.473c0,0-0.01,27.633-0.008,27.635c0.002,2.508,2.076,4.432,4.585,4.432
		c2.51,0,4.555-1.925,4.555-4.435c0-0.014,0-31.202,0-31.574c0.001-6.219-5.845-11.154-11.825-11.154c-0.152,0-26.671,0-26.823,0
		c-5.98,0-11.798,4.934-11.798,11.154c0,0.372,0,31.56,0,31.574C38.776,71.967,40.847,73.892,43.357,73.892z"/>
	<path d="M64,25.292c5.212,0,9.438-4.226,9.438-9.438c0-3.223-1.616-6.067-4.081-7.769V2.558l-2.544,4.284
		c-0.278-0.087-0.562-0.159-0.85-0.221V2.558l-2.32,3.867c-0.376,0.014-0.746,0.048-1.109,0.105V2.558l-2.938,4.949
		c-2.993,1.583-5.034,4.726-5.034,8.347C54.562,21.066,58.788,25.292,64,25.292z"/>
</g>
</svg>
