<?xml version="1.0" encoding="utf-8"?>
<!-- Generator: Adobe Illustrator 16.0.0, SVG Export Plug-In . SVG Version: 6.00 Build 0)  -->
<!DOCTYPE svg PUBLIC "-//W3C//DTD SVG 1.1//EN" "http://www.w3.org/Graphics/SVG/1.1/DTD/svg11.dtd">
<svg version="1.1" id="Layer_3" xmlns="http://www.w3.org/2000/svg" xmlns:xlink="http://www.w3.org/1999/xlink" x="0px" y="0px"
	 width="126px" height="126px" viewBox="0 0 126 126" enable-background="new 0 0 126 126" xml:space="preserve">
<g>
	<circle cx="63.258" cy="42.269" r="11.585"/>
	<path d="M101.896,56.92V40.281c0-21.305-17.334-38.639-38.637-38.639c-21.305,0-38.639,17.334-38.639,38.639V57.15
		c-0.127,0.229-0.205,0.488-0.205,0.768v0.221c-0.092,0.146-0.176,0.297-0.25,0.459c-0.67,1.426-0.52,3.025,0.25,4.271v3.932
		c0,0.877,0.711,1.588,1.59,1.588s1.59-0.711,1.59-1.588v-1.637c4.453,2.043,12.686,5.574,16.35,5.574
		c1.904,0,4.68-0.912,7.457-2.08v21.508c0,1.209,0.234,2.336,0.646,3.375c-0.031,0.234-0.055,0.475-0.055,0.717l-1.518,14.041
		l-0.66-0.506c-2.336-1.777-5.67-1.326-7.449,1.008s-1.33,5.67,1.004,7.449l9.209,7.018c0.945,0.719,2.08,1.09,3.223,1.09
		c0.807,0,1.613-0.184,2.363-0.555c1.811-0.896,2.955-2.746,2.951-4.77l1.514-18.674c0.211,0.012,0.418,0.027,0.629,0.027
		c0.076,0,0.152-0.008,0.227-0.01L65,119.033c-0.002,2.023,1.143,3.873,2.953,4.77c0.748,0.371,1.557,0.555,2.361,0.555
		c1.143,0,2.279-0.371,3.223-1.09l9.209-7.018c2.334-1.779,2.785-5.115,1.006-7.449s-5.115-2.785-7.451-1.008l-0.66,0.506
		L74.123,94.33c0.635-1.244,0.992-2.643,0.992-4.164v-21.51c2.949,1.156,5.961,2.08,8.076,2.08c0.002,0,0.004,0,0.006,0
		c4.473,0,12.525-4.043,15.881-5.84v1.904c0,0.877,0.713,1.588,1.592,1.588c0.877,0,1.59-0.711,1.59-1.588v-8.883
		C102.26,57.537,102.119,57.191,101.896,56.92z M95.539,56.586c-4.998,2.736-10.766,5.148-12.34,5.156
		c-1.514-0.01-6.971-2.184-12.012-4.758c-1.48-1.17-3.24-2.02-5.043-2.461l-2.885,2.904l-2.799-2.934
		c-0.01,0.002-0.018,0.002-0.029,0.004c-1.441,0.346-2.855,0.945-4.125,1.77c-0.254,0.086-0.508,0.191-0.752,0.326
		c-4.699,2.602-10.086,4.988-11.617,5.146c-1.818-0.158-8.559-2.854-13.791-5.307c-1-0.471-2.082-0.537-3.072-0.271V40.281
		c0-19.953,16.232-36.184,36.186-36.184c19.951,0,36.184,16.23,36.184,36.184v16.104C98.223,55.873,96.789,55.898,95.539,56.586z"/>
</g>
</svg>
