<?xml version="1.0" encoding="utf-8"?>
<!-- Generator: Adobe Illustrator 16.0.0, SVG Export Plug-In . SVG Version: 6.00 Build 0)  -->
<!DOCTYPE svg PUBLIC "-//W3C//DTD SVG 1.1//EN" "http://www.w3.org/Graphics/SVG/1.1/DTD/svg11.dtd">
<svg version="1.1" id="Layer_2" xmlns="http://www.w3.org/2000/svg" xmlns:xlink="http://www.w3.org/1999/xlink" x="0px" y="0px"
	 width="126px" height="126px" viewBox="0 0 126 126" enable-background="new 0 0 126 126" xml:space="preserve">
<g>
	<circle cx="23.235" cy="21.938" r="10.716"/>
	<path d="M30.362,35.262c-0.179-0.11-0.367-0.188-0.556-0.269c-1.194-0.796-2.534-1.382-3.901-1.718l-2.67,2.687l-2.587-2.716
		c-0.009,0.002-0.02,0.002-0.028,0.005c-1.98,0.473-3.902,1.477-5.409,2.888C6.949,41.695,3.433,49.058,1.069,65.164
		c-0.334,2.272,1.238,4.386,3.511,4.719c0.207,0.03,0.41,0.044,0.611,0.044c2.029,0,3.807-1.488,4.108-3.557
		c0.852-5.795,1.836-10.029,2.97-13.229v13.101c0,1.119,0.217,2.162,0.598,3.122c-0.03,0.217-0.051,0.436-0.051,0.66l0.004,39.835
		c0,2.715,2.201,4.917,4.916,4.917c2.717-0.001,4.916-2.203,4.916-4.918l-0.003-34.187c0.197,0.009,0.39,0.024,0.586,0.024
		c0.039,0,0.077-0.004,0.116-0.004l-0.001,34.167c0,2.716,2.2,4.918,4.916,4.918c2.715,0,4.916-2.202,4.916-4.917l0.002-39.592
		c0.644-1.193,1.019-2.544,1.019-4.025V51.916c1.331,3.322,2.467,7.888,3.429,14.456c0.303,2.068,2.079,3.557,4.111,3.557
		c0.2,0,0.403-0.015,0.607-0.044c2.273-0.333,3.846-2.446,3.513-4.719C43.377,48.199,39.609,40.934,30.362,35.262z M23.212,57.17
		l-2.585-3.536l2.001-13.38c0.2-0.538,0.286-1.11,0.251-1.687l0.333-2.207h0.049l2.585,17.274l-2.585,3.536H23.212z"/>
	<circle cx="102.304" cy="21.938" r="10.716"/>
	<path d="M124.931,65.164c-2.487-16.965-6.255-24.23-15.5-29.902c-0.179-0.11-0.369-0.188-0.558-0.269
		c-1.192-0.796-2.533-1.382-3.9-1.718l-2.669,2.687l-2.589-2.716c-0.009,0.002-0.017,0.002-0.026,0.005
		c-1.981,0.473-3.905,1.477-5.409,2.888C86.019,41.695,82.5,49.058,80.137,65.164c-0.333,2.272,1.239,4.386,3.512,4.719
		c0.205,0.03,0.408,0.044,0.608,0.044c2.032,0,3.809-1.488,4.111-3.557c0.85-5.795,1.833-10.029,2.968-13.229v13.101
		c0,1.119,0.217,2.162,0.599,3.122c-0.03,0.217-0.051,0.436-0.051,0.66l0.003,39.835c0,2.715,2.201,4.917,4.917,4.917
		c2.716-0.001,4.916-2.203,4.916-4.918l-0.004-34.187c0.196,0.009,0.391,0.024,0.588,0.024c0.038,0,0.077-0.004,0.114-0.004
		l-0.002,34.167c0,2.716,2.202,4.918,4.917,4.918c2.716,0,4.917-2.202,4.917-4.917l0.001-39.592c0.644-1.193,1.02-2.544,1.02-4.025
		V51.916c1.331,3.322,2.465,7.888,3.429,14.456c0.303,2.068,2.08,3.557,4.109,3.557c0.201,0,0.404-0.015,0.61-0.044
		C123.691,69.55,125.264,67.437,124.931,65.164z M102.277,57.17l-2.584-3.536l2.003-13.38c0.199-0.538,0.285-1.11,0.252-1.687
		l0.329-2.207h0.051l2.583,17.274l-2.583,3.536H102.277z"/>
	<polygon points="65.73,44.282 50.633,44.282 50.633,50.044 65.73,50.044 65.73,55.517 75.481,47.162 65.73,38.809 	"/>
	<polygon points="60.381,52.916 50.632,61.27 60.381,69.625 60.381,64.15 75.48,64.15 75.48,58.389 60.381,58.389 	"/>
</g>
</svg>
