<?xml version="1.0" encoding="utf-8"?>
<!-- Generator: Adobe Illustrator 16.0.0, SVG Export Plug-In . SVG Version: 6.00 Build 0)  -->
<!DOCTYPE svg PUBLIC "-//W3C//DTD SVG 1.1//EN" "http://www.w3.org/Graphics/SVG/1.1/DTD/svg11.dtd">
<svg version="1.1" id="Layer_2" xmlns="http://www.w3.org/2000/svg" xmlns:xlink="http://www.w3.org/1999/xlink" x="0px" y="0px"
	 width="126px" height="126px" viewBox="0 0 126 126" enable-background="new 0 0 126 126" xml:space="preserve">
<g>
	<circle cx="62.863" cy="13.867" r="12.821"/>
	<path d="M71.392,29.81c-0.214-0.132-0.44-0.226-0.665-0.321c-1.428-0.952-3.033-1.655-4.669-2.057l-3.194,3.216l-3.097-3.251
		c-0.011,0.004-0.021,0.004-0.032,0.006c-1.996,0.478-3.946,1.405-5.589,2.694c-6.661,4.157-17.119,12.259-16.195,21.7
		c0.528,5.394,4.496,9.688,11.789,12.791v2.291c0,1.34,0.26,2.589,0.715,3.738c-0.035,0.258-0.059,0.52-0.059,0.787l0.003,47.668
		c0,3.249,2.634,5.882,5.883,5.882s5.883-2.634,5.882-5.883l-0.003-40.908c0.233,0.011,0.466,0.029,0.7,0.029
		c0.046,0,0.092-0.006,0.138-0.007L63,119.071c0,3.249,2.633,5.883,5.882,5.883c0,0,0,0,0,0c3.249,0,5.883-2.634,5.883-5.883
		l0.002-47.374c0.771-1.429,1.22-3.045,1.22-4.818v-2.172c7.471-3.11,11.528-7.447,12.063-12.91
		C88.995,42.136,78.019,33.874,71.392,29.81z M62.834,31.124h0.06l3.092,20.668l-3.092,4.231h-0.06l-3.092-4.231L62.834,31.124z
		 M47.859,50.827c-0.095-0.973,0.548-2.422,1.881-4.129v6.588C48.492,52.343,47.924,51.48,47.859,50.827z M74.942,63.851
		c-2.261,1.528-5.328,1.724-6.858-0.538c-0.778-1.148-1.344-2.28-1.411-3.317L63,62.45l-3.674-2.455
		c-0.066,1.037-0.633,2.169-1.411,3.317c-1.53,2.262-4.598,2.066-6.858,0.538c-2.261-1.531-2.003-5.082-0.473-7.342
		c0.467-0.69,1.118-1.024,1.86-1.117l-1.694-1.131l1.241-1.858L63,59.764l11.009-7.361l1.241,1.858l-1.694,1.131
		c0.742,0.093,1.392,0.427,1.859,1.117C76.946,58.769,77.203,62.319,74.942,63.851z M75.987,53.489v-7.144
		c1.527,1.862,2.256,3.441,2.154,4.481C78.072,51.527,77.43,52.467,75.987,53.489z"/>
</g>
</svg>
