<?xml version="1.0" encoding="utf-8"?>
<!-- Generator: Adobe Illustrator 16.0.0, SVG Export Plug-In . SVG Version: 6.00 Build 0)  -->
<!DOCTYPE svg PUBLIC "-//W3C//DTD SVG 1.1//EN" "http://www.w3.org/Graphics/SVG/1.1/DTD/svg11.dtd">
<svg version="1.1" id="Layer_2" xmlns="http://www.w3.org/2000/svg" xmlns:xlink="http://www.w3.org/1999/xlink" x="0px" y="0px"
	 width="126px" height="126px" viewBox="0 0 126 126" enable-background="new 0 0 126 126" xml:space="preserve">
<g>
	<path d="M76.94,58.406c-3.837-1.12-7.844,1.072-8.977,4.902c-0.975,3.331,0.562,6.796,3.487,8.384L70.229,72.4l-1.211-2.243
		c-0.833-0.04-1.678,0.052-2.497,0.266c-0.154-0.005-0.365-0.214-0.441-0.306c-1.691-1.841-2.993-7.994-1.836-17.163
		c0.182-1.483-0.818-2.842-2.276-3.108V35.886c4.45-0.148,8.618-1.931,11.785-5.092c6.836-6.825,6.846-17.939,0.021-24.776
		c-3.312-3.315-7.714-5.142-12.399-5.142c-4.673,0-9.069,1.818-12.377,5.121c-6.837,6.825-6.846,17.939-0.022,24.776
		c3.212,3.215,7.453,5.015,11.979,5.121v13.953c-1.172,0.215-2.121,1.164-2.275,2.406c-1.264,9.977-0.043,18.073,3.277,21.663
		c0.037,0.046,0.078,0.086,0.117,0.131c-0.08,0.182-0.144,0.369-0.196,0.559l-4.485,15.31c-0.105,0.344-0.159,0.689-0.196,1.033
		c-0.157,0.377-0.248,0.795-0.248,1.223l-0.301,24.764c-0.01,1.836,1.447,3.331,3.28,3.357h0.039c1.819,0,3.288-1.463,3.314-3.277
		l0.225-18.712c0.154,0.034,0.324,0.06,0.494,0.079l-0.185,23.4c-0.013,1.833,1.455,3.331,3.291,3.342c0.014,0,0.014,0,0.026,0
		c1.82,0,3.305-1.469,3.315-3.29l0.195-25.897c0.415-0.534,0.743-1.158,0.938-1.86l2.16-7.369
		c-0.027,3.207-0.508,7.076-1.575,11.492c-0.361,1.502,0.574,3.024,2.07,3.383c0.22,0.059,0.439,0.085,0.662,0.085
		c1.273,0,2.418-0.866,2.73-2.155c3.124-12.954,1.9-23.235-3.173-26.963c3.303,0.203,6.413-1.873,7.388-5.177
		C82.963,63.542,80.764,59.531,76.94,58.406z M51.211,8.211c2.715-2.711,6.325-4.206,10.164-4.206c3.849,0,7.465,1.5,10.184,4.223
		c5.605,5.616,5.598,14.744-0.018,20.349c-2.717,2.712-6.326,4.206-10.166,4.206c-3.849,0-7.464-1.499-10.182-4.223
		C45.587,22.946,45.595,13.818,51.211,8.211z M70.006,73.903c-0.09,0.292-0.143,0.598-0.127,0.904l-1.314,9.521l-2.342,1.803
		l-0.026-0.013l-1.003-2.778l4.945-10.685l0.038,0.006L70.006,73.903z"/>
	<rect x="48.947" y="17.75" width="3.386" height="1.289"/>
	<rect x="70.711" y="17.75" width="3.386" height="1.289"/>
	<rect x="60.73" y="5.82" width="1.289" height="3.385"/>
	<rect x="60.73" y="27.584" width="1.289" height="3.386"/>
	<path d="M62.744,19.039h6.76V17.75h-6.76c-0.151-0.317-0.406-0.574-0.725-0.724v-5.675H60.73v5.675
		c-0.515,0.243-0.873,0.761-0.873,1.368c0,0.837,0.681,1.517,1.518,1.517C61.982,19.912,62.501,19.554,62.744,19.039z"/>
</g>
</svg>
