<?xml version="1.0" encoding="utf-8"?>
<!-- Generator: Adobe Illustrator 16.0.0, SVG Export Plug-In . SVG Version: 6.00 Build 0)  -->
<!DOCTYPE svg PUBLIC "-//W3C//DTD SVG 1.1//EN" "http://www.w3.org/Graphics/SVG/1.1/DTD/svg11.dtd">
<svg version="1.1" id="Layer_2" xmlns="http://www.w3.org/2000/svg" xmlns:xlink="http://www.w3.org/1999/xlink" x="0px" y="0px"
	 width="126px" height="126px" viewBox="0 0 126 126" enable-background="new 0 0 126 126" xml:space="preserve">
<g>
	<rect x="16.88" y="73.837" width="16.592" height="48.307"/>
	<rect x="45.722" y="58.944" width="16.592" height="63.199"/>
	<circle cx="93.041" cy="27.911" r="11.066"/>
	<path d="M116.409,72.55c-2.57-17.52-6.459-25.022-16.009-30.881c-0.186-0.112-0.38-0.194-0.576-0.276
		c-1.231-0.822-2.616-1.428-4.027-1.773l-2.757,2.774l-2.673-2.806c-0.009,0.002-0.019,0.003-0.027,0.004
		c-2.045,0.49-4.032,1.527-5.586,2.982c-8.533,5.74-12.166,13.343-14.605,29.976c-0.345,2.348,1.28,4.529,3.627,4.875
		c0.212,0.03,0.421,0.045,0.629,0.045c2.096,0,3.932-1.537,4.245-3.674c0.878-5.983,1.894-10.355,3.064-13.659v13.527
		c0,1.157,0.224,2.233,0.618,3.226c-0.031,0.224-0.051,0.449-0.051,0.681l0.003,41.139c0,2.806,2.274,5.077,5.078,5.077
		s5.077-2.272,5.077-5.077l-0.002-35.307c0.201,0.009,0.401,0.026,0.604,0.026c0.04,0,0.079-0.005,0.119-0.006l-0.001,35.286
		c0,2.805,2.273,5.077,5.077,5.077s5.078-2.272,5.078-5.077l0.001-40.888c0.665-1.231,1.053-2.627,1.053-4.157V58.867
		c1.375,3.432,2.547,8.146,3.542,14.929c0.313,2.137,2.148,3.674,4.245,3.674c0.208,0,0.417-0.015,0.629-0.045
		C115.13,77.079,116.754,74.897,116.409,72.55z M93.066,64.296h-0.052l-2.668-3.653l2.067-13.818
		c0.207-0.555,0.295-1.146,0.26-1.741l0.341-2.279h0.052l2.668,17.839L93.066,64.296z"/>
	<path d="M72.198,16.107l10.705,2.304L72.554,2.214l-16.923,10.89l10.256,1.77c-0.102,0.297-0.208,0.603-0.315,0.922
		c-0.261,0.703-0.591,1.432-0.911,2.213c-0.162,0.391-0.33,0.791-0.5,1.199c-0.179,0.408-0.394,0.807-0.596,1.225
		c-0.207,0.418-0.417,0.84-0.63,1.273c-0.215,0.434-0.424,0.881-0.687,1.308c-0.505,0.867-1.008,1.776-1.559,2.692
		c-0.589,0.893-1.195,1.813-1.813,2.75c-0.674,0.903-1.364,1.828-2.064,2.768c-0.759,0.895-1.501,1.835-2.307,2.74
		c-0.411,0.446-0.826,0.895-1.243,1.347c-0.415,0.451-0.832,0.907-1.284,1.332c-0.892,0.864-1.766,1.768-2.725,2.587
		c-0.472,0.42-0.943,0.842-1.416,1.263l-1.473,1.206c-1.96,1.617-4.045,3.09-6.126,4.503c-2.115,1.364-4.227,2.676-6.35,3.813
		c-2.106,1.17-4.208,2.186-6.216,3.12c-2.021,0.907-3.951,1.731-5.765,2.414c-1.808,0.699-3.49,1.282-4.991,1.77
		c-1.5,0.488-2.822,0.872-3.914,1.177c-2.189,0.603-3.459,0.854-3.459,0.854l0.048,0.298c0,0,5.204-0.608,12.739-2.85
		c1.886-0.547,3.905-1.229,6.029-1.989c2.112-0.786,4.332-1.656,6.578-2.683c2.262-0.992,4.534-2.167,6.827-3.404
		c2.261-1.289,4.545-2.649,6.723-4.178l1.64-1.141c0.53-0.403,1.061-0.805,1.589-1.208c1.074-0.786,2.072-1.661,3.086-2.503
		c0.514-0.414,0.997-0.862,1.474-1.31c0.482-0.445,0.959-0.889,1.436-1.327c0.935-0.897,1.809-1.84,2.698-2.742
		c0.842-0.94,1.654-1.887,2.458-2.806c0.75-0.965,1.484-1.91,2.198-2.83c0.68-0.947,1.309-1.896,1.933-2.801
		c0.322-0.449,0.591-0.919,0.864-1.374c0.272-0.457,0.541-0.905,0.802-1.343c0.258-0.443,0.528-0.865,0.759-1.297
		c0.225-0.436,0.444-0.86,0.657-1.276c0.421-0.833,0.847-1.614,1.197-2.369C71.6,17.462,71.913,16.761,72.198,16.107z"/>
</g>
</svg>
