<?xml version="1.0" encoding="utf-8"?>
<!-- Generator: Adobe Illustrator 16.0.0, SVG Export Plug-In . SVG Version: 6.00 Build 0)  -->
<!DOCTYPE svg PUBLIC "-//W3C//DTD SVG 1.1//EN" "http://www.w3.org/Graphics/SVG/1.1/DTD/svg11.dtd">
<svg version="1.1" id="Layer_2" xmlns="http://www.w3.org/2000/svg" xmlns:xlink="http://www.w3.org/1999/xlink" x="0px" y="0px"
	 width="126px" height="126px" viewBox="0 0 126 126" enable-background="new 0 0 126 126" xml:space="preserve">
<g>
	<path d="M30.978,32.036c7.571,0,13.708-6.138,13.708-13.71c0-7.567-6.137-13.705-13.708-13.705
		c-7.572,0-13.708,6.138-13.708,13.707C17.272,25.9,23.406,32.036,30.978,32.036z"/>
	<path d="M57.641,77.206c-0.37-3.172-3.056-5.566-6.25-5.566h-0.003L40.485,71.65V56.665c3.657,3.206,7.794,5.232,13.195,5.232
		c3.294,0,7.064-0.757,11.476-2.446c2.747-1.051,4.12-4.127,3.067-6.872c-1.049-2.745-4.127-4.116-6.871-3.067
		C50.608,53.628,48.49,51.331,39.05,38.43c-0.02-0.028-0.045-0.048-0.068-0.078c-1.808-2.82-4.979-4.723-8.007-5.466
		c0,0-1.441-0.434-2.977-0.399c-1.471,0.031-3.107,0.375-3.107,0.375l-0.042,0.005c-4.611,1.131-9.522,4.886-9.522,10.522
		l0.003,30.258c0,6.577,6.531,10.648,12.578,10.644c0.338,0,0.675-0.028,1.012-0.052l16.873-0.013l3.599,31.069
		c0.373,3.205,3.094,5.564,6.241,5.564c0.241,0,0.486-0.014,0.735-0.044c3.447-0.398,5.922-3.521,5.521-6.972L57.641,77.206z"/>
	<path d="M44.132,91.359c0-2.936-2.383-5.32-5.323-5.32H12.523V43.826c0-2.936-2.384-5.318-5.324-5.318
		c-2.939,0-5.32,2.383-5.32,5.318v47.533c0,1.95,1.052,3.648,2.614,4.578C3.479,97.749,2.9,99.828,2.9,102.045v14.877
		c0,2.462,1.994,4.457,4.452,4.457c2.461,0,4.458-1.995,4.458-4.457v-14.877c0-2.013,1.635-3.646,3.646-3.646h14.878
		c2.008,0,3.645,1.634,3.645,3.646v14.877c0,2.462,1.995,4.457,4.457,4.457c2.461,0,4.456-1.995,4.456-4.457v-14.877
		c0-2.178-0.556-4.225-1.536-6.012C43.007,95.129,44.132,93.375,44.132,91.359z"/>
	<path d="M119.022,63H59.874c-2.815,0-5.098,2.281-5.098,5.098s2.283,5.1,5.098,5.1h6.996v45.278h45.155V73.197h6.997
		c2.816,0,5.099-2.283,5.099-5.1S121.838,63,119.022,63z"/>
	<path d="M101.601,27.714l-4.595,10.453l13.158,5.785L106.13,56.93H74.803c-1.223,0-2.213,0.992-2.213,2.214s0.99,2.214,2.213,2.214
		h32.957c0.968,0,1.826-0.633,2.114-1.558l10.329-33.236c0.363-1.168-0.289-2.407-1.457-2.769c-1.169-0.364-2.407,0.286-2.771,1.453
		l-2.401,7.73L101.601,27.714z M100.558,38.674l-2.28-1.003l1.003-2.278C100.367,36.096,100.884,37.42,100.558,38.674z
		 M101.095,31.268l1.001-2.279l2.28,1.003C103.673,31.074,102.346,31.592,101.095,31.268z M106.781,40.709
		c-2.074-0.91-3.017-3.332-2.104-5.403c0.911-2.076,3.332-3.016,5.405-2.104c1.378,0.604,2.239,1.878,2.406,3.271l-0.984,3.17
		C110.354,40.953,108.46,41.447,106.781,40.709z"/>
	<path d="M109.732,34.792l0.24-0.544l-0.604-0.269l-0.247,0.562c-0.406-0.117-0.772-0.133-1.091-0.041
		c-0.347,0.097-0.596,0.312-0.741,0.643c-0.133,0.304-0.156,0.601-0.068,0.887c0.086,0.277,0.285,0.574,0.595,0.879l0.187,0.183
		l-0.479,1.087c-0.168-0.086-0.349-0.201-0.536-0.344c-0.22-0.172-0.403-0.343-0.546-0.512l-0.093-0.112l-0.388,0.882l0.04,0.043
		c0.273,0.306,0.668,0.583,1.179,0.825l-0.307,0.698l0.604,0.264l0.318-0.726c0.445,0.126,0.83,0.144,1.155,0.037
		c0.345-0.108,0.598-0.34,0.748-0.683c0.122-0.275,0.139-0.55,0.052-0.821c-0.089-0.262-0.307-0.565-0.667-0.925l-0.165-0.158
		l0.464-1.06c0.288,0.171,0.561,0.382,0.814,0.637l0.062,0.063l0.632-0.624l-0.061-0.065
		C110.515,35.273,110.146,35.002,109.732,34.792z M108.735,38.185c-0.035,0.08-0.133,0.306-0.592,0.219l0.366-0.832
		c0.114,0.124,0.191,0.224,0.231,0.313C108.782,37.985,108.781,38.085,108.735,38.185z M108.416,36.146
		c-0.105-0.115-0.172-0.219-0.203-0.3c-0.032-0.097-0.027-0.192,0.019-0.299c0.043-0.098,0.113-0.16,0.218-0.192
		c0.085-0.03,0.194-0.03,0.319-0.011L108.416,36.146z"/>
	<path d="M114.36,17.978l-21.293-3.455l-4.293,9.998l21.292,3.456L114.36,17.978z M110.307,18.223l2.66,0.434l-0.937,2.177
		C110.742,20.433,110.047,19.379,110.307,18.223z M92.826,24.271l-2.659-0.432l0.937-2.179
		C92.392,22.062,93.087,23.119,92.826,24.271z M92.797,17.716l0.937-2.182l2.658,0.431C95.695,17.051,94.241,17.757,92.797,17.716z
		 M105.946,21.957c-0.853,1.987-3.502,3.276-5.92,2.884c-2.419-0.396-3.69-2.32-2.838-4.305c0.852-1.982,3.503-3.273,5.922-2.879
		C105.528,18.049,106.796,19.978,105.946,21.957z M106.739,26.531c0.701-1.084,2.154-1.79,3.597-1.748l-0.937,2.182L106.739,26.531z
		"/>
	<path d="M102.85,19.113l0.226-0.524l-0.703-0.113l-0.23,0.54c-0.469-0.028-0.885,0.03-1.235,0.169
		c-0.384,0.155-0.646,0.392-0.781,0.704c-0.125,0.29-0.125,0.555-0.002,0.786c0.121,0.226,0.373,0.444,0.746,0.652l0.228,0.121
		l-0.45,1.042c-0.195-0.039-0.41-0.108-0.634-0.197c-0.261-0.105-0.483-0.221-0.66-0.338l-0.116-0.078l-0.36,0.841l0.048,0.03
		c0.333,0.213,0.804,0.375,1.402,0.49l-0.287,0.667l0.704,0.112l0.298-0.695c0.511,0.028,0.95-0.034,1.304-0.187
		c0.381-0.167,0.646-0.413,0.789-0.743c0.114-0.264,0.108-0.507-0.014-0.726c-0.123-0.21-0.394-0.433-0.832-0.678l-0.198-0.106
		l0.432-1.01c0.339,0.092,0.666,0.224,0.973,0.395l0.076,0.046l0.661-0.668l-0.072-0.043
		C103.777,19.382,103.337,19.215,102.85,19.113z M101.223,20.062c0.04-0.095,0.113-0.162,0.228-0.21
		c0.095-0.041,0.218-0.067,0.361-0.069l-0.33,0.77c-0.13-0.083-0.214-0.158-0.254-0.228
		C101.181,20.248,101.179,20.161,101.223,20.062z M101.368,22.566l0.342-0.795c0.138,0.082,0.235,0.158,0.285,0.228
		c0.058,0.077,0.064,0.164,0.021,0.262C101.984,22.339,101.89,22.556,101.368,22.566z"/>
	<path d="M94.304,35.203L76.459,20.056l-4.888,11.019l17.842,15.148L94.304,35.203z M90.797,33.51l2.229,1.891l-1.066,2.403
		C90.906,36.634,90.435,34.898,90.797,33.51z M75.077,32.767l-2.228-1.892l1.066-2.402C74.969,29.643,75.44,31.378,75.077,32.767z
		 M75.845,24.122l1.066-2.403l2.229,1.892C78.408,24.688,77.076,24.894,75.845,24.122z M81.18,37.095
		c-2.024-1.72-2.882-4.886-1.913-7.069c0.97-2.184,3.399-2.563,5.425-0.845c2.027,1.72,2.885,4.888,1.914,7.073
		C85.636,38.44,83.207,38.819,81.18,37.095z M86.734,42.667c0.732-1.079,2.063-1.282,3.296-0.513l-1.065,2.402L86.734,42.667z"/>
	<path d="M84.296,30.968l0.257-0.576l-0.589-0.503l-0.265,0.594c-0.398-0.269-0.761-0.396-1.079-0.385
		c-0.348,0.008-0.603,0.19-0.756,0.534c-0.141,0.319-0.173,0.668-0.095,1.034c0.076,0.357,0.266,0.769,0.56,1.23l0.18,0.271
		l-0.509,1.148c-0.165-0.154-0.339-0.345-0.521-0.574c-0.211-0.272-0.388-0.53-0.524-0.778l-0.09-0.155l-0.412,0.927l0.038,0.061
		c0.26,0.447,0.645,0.899,1.144,1.344l-0.327,0.734l0.588,0.503l0.341-0.765c0.436,0.288,0.818,0.42,1.141,0.396
		c0.349-0.024,0.606-0.222,0.766-0.581c0.129-0.292,0.154-0.615,0.075-0.964c-0.079-0.34-0.285-0.765-0.63-1.305l-0.158-0.242
		l0.494-1.109c0.279,0.288,0.543,0.622,0.785,1.003l0.062,0.096l0.648-0.549l-0.061-0.093C85.056,31.78,84.7,31.345,84.296,30.968z
		 M83.201,34.694c-0.038,0.087-0.143,0.323-0.593,0.078l0.388-0.875c0.11,0.178,0.182,0.327,0.217,0.439
		C83.254,34.472,83.248,34.588,83.201,34.694z M82.949,32.175c-0.101-0.173-0.166-0.314-0.192-0.423
		c-0.03-0.125-0.021-0.235,0.028-0.347c0.044-0.104,0.117-0.155,0.22-0.164c0.087-0.005,0.194,0.023,0.317,0.089L82.949,32.175z"/>
</g>
</svg>
