<?xml version="1.0" encoding="utf-8"?>
<!-- Generator: Adobe Illustrator 16.0.0, SVG Export Plug-In . SVG Version: 6.00 Build 0)  -->
<!DOCTYPE svg PUBLIC "-//W3C//DTD SVG 1.1//EN" "http://www.w3.org/Graphics/SVG/1.1/DTD/svg11.dtd">
<svg version="1.1" id="Layer_1" xmlns="http://www.w3.org/2000/svg" xmlns:xlink="http://www.w3.org/1999/xlink" x="0px" y="0px"
	 width="50px" height="50px" viewBox="0 0 50 50" enable-background="new 0 0 50 50" xml:space="preserve">
<g>
	<path d="M18.783,24.682c0.027,0.02,0.055,0.036,0.083,0.052c0.56,0.323,1.283,0.166,1.654-0.376l2.596-3.786l2.943-0.299
		l-3.321,5.752c-0.167,0.289-0.244,0.604-0.257,0.915l-7.911,8.316c-0.571,0.602-0.547,1.55,0.053,2.12
		c0.088,0.085,0.184,0.156,0.284,0.214c0.587,0.339,1.35,0.246,1.836-0.266l7.54-7.926l1.83,2.661l-2.187,3.296
		c-0.458,0.69-0.269,1.622,0.421,2.079c0.026,0.017,0.054,0.035,0.08,0.051c0.681,0.393,1.559,0.192,1.999-0.472l2.746-4.14
		c0.339-0.51,0.333-1.175-0.014-1.679l-2.603-3.785l2.195-3.801l0.39,2.225c0.056,0.315,0.23,0.597,0.488,0.789l3.568,2.638
		c0.038,0.027,0.078,0.054,0.119,0.077c0.544,0.314,1.247,0.176,1.63-0.34c0.409-0.556,0.292-1.338-0.263-1.748l-3.166-2.341
		l-0.858-4.889c0.039-0.257,0.026-0.515-0.033-0.765c0.179-0.643-0.086-1.35-0.69-1.698c-0.45-0.26-0.978-0.26-1.411-0.047
		l-6.237,0.631c-0.366,0.037-0.696,0.234-0.905,0.537l-2.924,4.266C18.068,23.514,18.214,24.292,18.783,24.682z"/>
	<circle cx="32.738" cy="15.315" r="3.105"/>
</g>
<g>
	<path d="M15.429,25.92c-0.129,0.06-0.281,0.003-0.341-0.126l-0.106-0.232c-0.06-0.128-0.003-0.281,0.126-0.341l0.201-0.092
		l-0.933-3.944l-2.441,1.119c-0.514,0.235-0.74,0.849-0.506,1.36l2.781,6.06c0.235,0.513,0.848,0.739,1.361,0.504l2.441-1.119
		l-2.384-3.279L15.429,25.92z"/>
	<path d="M19.612,27.246l-0.674-1.468c0.016-0.006,0.029-0.009,0.045-0.016l0.466-0.215c0.354-0.161,0.509-0.58,0.347-0.935
		l-0.85-1.852c-0.162-0.354-0.582-0.509-0.935-0.347l-0.466,0.215c-0.016,0.007-0.027,0.015-0.041,0.022l-0.674-1.467
		c-0.266-0.578-0.951-0.834-1.531-0.567l-0.736,0.337l0.963,4.073l0.28-0.128c0.128-0.06,0.279-0.002,0.339,0.127l0.106,0.232
		c0.06,0.129,0.004,0.28-0.125,0.34l-0.278,0.128l2.459,3.386l0.737-0.338C19.624,28.511,19.877,27.823,19.612,27.246z
		 M18.823,25.413c-0.016,0.007-0.031,0.006-0.047,0.011l-1.109-2.417c0.014-0.01,0.023-0.021,0.039-0.028l0.466-0.215
		c0.16-0.073,0.351-0.003,0.424,0.158l0.851,1.852c0.074,0.162,0.003,0.353-0.157,0.427L18.823,25.413z"/>
</g>
</svg>
