<?xml version="1.0" encoding="utf-8"?>
<!-- Generator: Adobe Illustrator 16.0.0, SVG Export Plug-In . SVG Version: 6.00 Build 0)  -->
<!DOCTYPE svg PUBLIC "-//W3C//DTD SVG 1.1//EN" "http://www.w3.org/Graphics/SVG/1.1/DTD/svg11.dtd">
<svg version="1.1" id="Layer_2" xmlns="http://www.w3.org/2000/svg" xmlns:xlink="http://www.w3.org/1999/xlink" x="0px" y="0px"
	 width="126px" height="126px" viewBox="0 0 126 126" enable-background="new 0 0 126 126" xml:space="preserve">
<g>
	<path d="M66.098,49.381l-0.014-0.015l-0.016,0.015h-0.005v0.004l-9.889,8.816l0.013,0.014v66.468h54.84V49.381H66.098z
		 M106.676,120.332H60.54V106.59h46.136V120.332z M106.676,105.145H60.54V62.579l9.808,0.042l0.047-8.888h36.281V105.145z"/>
	<path d="M64.507,100.863c0.832,0.833,2.184,0.833,3.017,0l6.142-6.142c0.526-0.526,0.72-1.257,0.582-1.935l1.429-1.43
		c3.228,2.416,7.834,2.16,10.766-0.772c3.213-3.213,3.213-8.444,0-11.657c-3.215-3.214-8.445-3.214-11.658,0
		c-2.932,2.931-3.189,7.538-0.772,10.764l-1.43,1.43c-0.678-0.138-1.408,0.056-1.934,0.582l-6.141,6.141
		C63.673,98.678,63.673,100.029,64.507,100.863z M76.449,80.594c2.294-2.296,6.029-2.296,8.327,0c2.294,2.295,2.294,6.03,0,8.326
		c-2.298,2.296-6.033,2.296-8.327,0C74.152,86.623,74.152,82.889,76.449,80.594z"/>
	<rect x="96.726" y="73.823" width="3.131" height="30.358"/>
	<path d="M93.351,78.777h-3.13v3.652c0.201,0.797,0.315,1.621,0.315,2.466s-0.114,1.668-0.315,2.465v16.821h3.13V78.777z"/>
	<path d="M83.424,104.181h3.133V92.834c-0.948,0.713-2.003,1.25-3.133,1.581V104.181z"/>
	<path d="M76.367,94.423v9.758h3.131v-9.425c-0.568-0.063-1.124-0.176-1.667-0.333H76.367z"/>
	<polygon points="69.209,101.7 69.209,104.181 72.34,104.181 72.34,99.302 71.608,99.302 	"/>
	<circle cx="39.461" cy="13.586" r="12.823"/>
	<path d="M65.388,47.658h10.979c-0.02-0.815-0.218-1.638-0.661-2.392c-1.391-2.372-4.44-3.166-6.813-1.777
		c-6.778,3.976-8.169,1.863-12.29-4.411c-2.09-3.181-4.459-6.786-8.06-8.995c-0.216-0.133-0.442-0.228-0.669-0.324
		c-1.428-0.952-3.03-1.653-4.666-2.054l-3.194,3.216l-3.098-3.251c-0.011,0.002-0.021,0.003-0.032,0.006
		c-1.669,0.399-3.307,1.115-4.76,2.092c-0.222,0.094-0.443,0.186-0.652,0.315c-0.46,0.28-0.916,0.554-1.369,0.827
		c-10.035,6.03-16.964,12.332-14.7,38.648c0.223,2.594,2.396,4.552,4.954,4.552c0.142,0,0.287-0.006,0.433-0.018
		c2.738-0.236,4.769-2.647,4.532-5.387c-0.936-10.872-0.216-17.121,1.567-21.159v19.611c0,1.34,0.26,2.59,0.716,3.74
		c-0.033,0.258-0.059,0.519-0.059,0.786l0.004,47.671c0,3.25,2.635,5.884,5.883,5.884c3.251-0.001,5.884-2.635,5.884-5.884
		l-0.003-40.912c0.232,0.012,0.466,0.03,0.7,0.03c0.045,0,0.091-0.005,0.137-0.005l-0.002,40.887c0,3.25,2.635,5.884,5.884,5.884
		c3.25,0,5.884-2.634,5.884-5.884l0.002-47.379c0.771-1.428,1.22-3.045,1.22-4.817V50.9c1.757,1.773,4.783,3.437,4.783,3.437
		L65.388,47.658z M40.045,56.3h-0.06l-3.093-4.231l3.093-20.672h0.06l3.092,20.672L40.045,56.3z"/>
</g>
</svg>
