<?xml version="1.0" encoding="utf-8"?>
<!-- Generator: Adobe Illustrator 16.0.0, SVG Export Plug-In . SVG Version: 6.00 Build 0)  -->
<!DOCTYPE svg PUBLIC "-//W3C//DTD SVG 1.1//EN" "http://www.w3.org/Graphics/SVG/1.1/DTD/svg11.dtd">
<svg version="1.1" id="Layer_1" xmlns="http://www.w3.org/2000/svg" xmlns:xlink="http://www.w3.org/1999/xlink" x="0px" y="0px"
	 width="50px" height="50px" viewBox="0 0 50 50" enable-background="new 0 0 50 50" xml:space="preserve">
<g>
	<path d="M25.004,19.111c1.252,0,2.269-1.453,2.269-2.706c0-1.253-1.017-2.27-2.269-2.27c-1.253,0-2.269,1.016-2.269,2.27
		C22.735,17.658,23.751,19.111,25.004,19.111z"/>
	<path d="M22.309,23.405l0.002-1.841c0.058-0.017,0.118-0.035,0.181-0.053v1.894h1.928l0.472-3.675h-0.007l-0.213-0.428
		c-1.664,0.082-3.479,0.733-3.562,0.764c-0.009,0.002-0.012,0.009-0.02,0.011c-0.064,0.026-0.117,0.067-0.173,0.106
		c-0.041,0.028-0.088,0.048-0.122,0.082c-0.042,0.041-0.069,0.093-0.104,0.142c-0.031,0.046-0.07,0.086-0.092,0.137
		c-0.021,0.047-0.025,0.1-0.039,0.15c-0.016,0.063-0.037,0.125-0.038,0.191c0,0.008-0.005,0.015-0.005,0.023l-0.005,2.524
		c0.086-0.014,0.172-0.027,0.261-0.027H22.309z"/>
	<path d="M27.918,20.21l0.171-0.068l0.153-0.289c-0.693-0.207-1.827-0.498-2.906-0.551l-0.212,0.428h-0.006l0.471,3.675h0.769
		l0.712-1.343l-0.039-0.179C26.877,21.178,27.25,20.475,27.918,20.21z"/>
	<path d="M36.914,18.104c1.343,0,2.431-1.557,2.431-2.898c0-1.342-1.088-2.431-2.431-2.431c-1.341,0-2.43,1.088-2.43,2.431
		C34.484,16.547,35.573,18.104,36.914,18.104z"/>
	<path d="M41.534,24.226c-0.048,0-0.089,0.02-0.134,0.027l0.08-0.089c0.159-0.177,0.247-0.406,0.246-0.644l-0.007-3.491
		c0-0.009-0.005-0.016-0.005-0.024c-0.002-0.071-0.024-0.137-0.041-0.205c-0.015-0.054-0.019-0.11-0.042-0.161
		c-0.023-0.055-0.064-0.098-0.099-0.147c-0.036-0.052-0.065-0.108-0.11-0.152c-0.037-0.036-0.087-0.058-0.131-0.087
		c-0.06-0.042-0.116-0.086-0.186-0.113c-0.008-0.003-0.012-0.01-0.021-0.012c-0.088-0.032-2.032-0.73-3.814-0.818l-0.229,0.458
		h-0.007l0.647,5.041l-0.77,1.343l-0.769-1.343l0.646-5.041h-0.006l-0.228-0.457c-1.719,0.084-3.584,0.734-3.794,0.809l-3.806,1.269
		l0.229-0.429c0.05-0.094,0.015-0.21-0.079-0.259c-0.093-0.05-0.21-0.015-0.261,0.079l-0.417,0.786l-0.278,0.092
		c-0.503,0.168-0.775,0.712-0.607,1.216c0.023,0.068,0.061,0.124,0.096,0.183L26.926,23.4c-0.049,0.094-0.015,0.21,0.08,0.26
		c0.028,0.015,0.059,0.022,0.09,0.022c0.067,0,0.135-0.037,0.17-0.102l0.648-1.222c0.158,0.109,0.347,0.171,0.543,0.171
		c0.101,0,0.203-0.016,0.304-0.049l4.613-1.538c0.004-0.001,0.007-0.005,0.01-0.007c0.006-0.001,0.009,0,0.013-0.001
		c0.009-0.003,0.339-0.12,0.827-0.259v6.281l-2.511,0.505c-0.515,0.104-0.896,0.543-0.924,1.068l-0.408,7.479
		c-0.035,0.636,0.453,1.18,1.089,1.214c0.021,0.001,0.042,0.002,0.063,0.002c0.608,0,1.117-0.476,1.151-1.09l0.359-6.588
		l0.987-0.199v6.723c0,0.531,0.43,0.961,0.961,0.961h6.542c0.53,0,0.961-0.431,0.961-0.961v-7.584v-0.769v-2.531
		C42.495,24.656,42.064,24.226,41.534,24.226z M39.605,20.675c0.067,0.02,0.132,0.039,0.193,0.057l0.004,2.422l-0.197,0.22V20.675z
		 M40.573,35.11h-4.62v-5.093l4.62-1.086V35.11z M40.573,25.187v1.77l-0.968,0.227V26.25l0.972-1.081
		C40.577,25.175,40.573,25.18,40.573,25.187z"/>
	<path d="M13.086,18.104c1.341,0,2.43-1.557,2.43-2.898c0-1.342-1.089-2.431-2.43-2.431c-1.343,0-2.431,1.088-2.431,2.431
		C10.655,16.547,11.743,18.104,13.086,18.104z"/>
	<path d="M18.287,27.461l-2.511-0.505v-6.281c0.068,0.02,0.132,0.038,0.192,0.056v3.912c0,0.364,0.206,0.697,0.531,0.86l1.538,0.769
		c0.138,0.068,0.285,0.102,0.429,0.102c0.353,0,0.692-0.194,0.86-0.532c0.237-0.475,0.046-1.052-0.431-1.29l-1.005-0.502v-4.02
		c0-0.009-0.005-0.016-0.005-0.026c-0.002-0.071-0.025-0.138-0.042-0.206c-0.014-0.053-0.019-0.109-0.04-0.159
		c-0.024-0.056-0.067-0.101-0.101-0.15c-0.036-0.051-0.065-0.106-0.11-0.149c-0.038-0.037-0.087-0.059-0.133-0.09
		c-0.059-0.04-0.114-0.084-0.183-0.111c-0.007-0.003-0.013-0.01-0.021-0.012c-0.088-0.032-2.033-0.73-3.816-0.818l-0.228,0.458
		h-0.006l0.646,5.041l-0.769,1.343l-0.77-1.343l0.647-5.041h-0.007l-0.229-0.458c-1.782,0.088-3.727,0.786-3.814,0.818
		c-0.009,0.002-0.013,0.009-0.021,0.012c-0.069,0.027-0.126,0.072-0.186,0.113c-0.044,0.03-0.094,0.051-0.131,0.087
		c-0.045,0.044-0.074,0.1-0.11,0.152c-0.034,0.049-0.075,0.092-0.099,0.147c-0.023,0.05-0.027,0.106-0.042,0.161
		c-0.017,0.068-0.039,0.133-0.041,0.205c0,0.008-0.005,0.016-0.005,0.024L8.273,23.52c-0.001,0.238,0.087,0.467,0.246,0.644
		l0.08,0.089c-0.045-0.007-0.086-0.027-0.134-0.027c-0.53,0-0.961,0.431-0.961,0.961v2.531v0.769v7.584
		c0,0.531,0.431,0.961,0.961,0.961h6.542c0.531,0,0.961-0.431,0.961-0.961v-6.723l0.987,0.199l0.359,6.588
		c0.034,0.614,0.543,1.09,1.151,1.09c0.021,0,0.042,0,0.063-0.002c0.636-0.035,1.124-0.578,1.089-1.214l-0.408-7.479
		C19.183,28.004,18.802,27.565,18.287,27.461z M10.201,20.732c0.062-0.018,0.126-0.037,0.193-0.057v2.699l-0.197-0.22L10.201,20.732
		z M10.395,26.25v0.934l-0.968-0.227v-1.77c0-0.006-0.004-0.011-0.004-0.018L10.395,26.25z M14.047,35.11h-4.62v-6.179l4.62,1.086
		V35.11z"/>
	<path d="M29.23,23.905h-8.457c-0.637,0-1.153,0.516-1.153,1.153c0,0.637,0.517,1.153,1.153,1.153h0.214v9.859
		c0,0.531,0.43,0.961,0.961,0.961h6.108c0.531,0,0.962-0.431,0.962-0.961v-9.859h0.212c0.637,0,1.153-0.516,1.153-1.153
		C30.384,24.421,29.867,23.905,29.23,23.905z"/>
</g>
</svg>
