<?xml version="1.0" encoding="utf-8"?>
<!-- Generator: Adobe Illustrator 16.0.0, SVG Export Plug-In . SVG Version: 6.00 Build 0)  -->
<!DOCTYPE svg PUBLIC "-//W3C//DTD SVG 1.1//EN" "http://www.w3.org/Graphics/SVG/1.1/DTD/svg11.dtd">
<svg version="1.1" id="Layer_3" xmlns="http://www.w3.org/2000/svg" xmlns:xlink="http://www.w3.org/1999/xlink" x="0px" y="0px"
	 width="126px" height="126px" viewBox="0 0 126 126" enable-background="new 0 0 126 126" xml:space="preserve">
<g>
	<path d="M14.293,95.197v-0.129c0.895-0.217,1.615-0.703,2.162-1.457c0.545-0.756,0.82-1.668,0.82-2.734
		c0-1.621-0.627-2.816-1.883-3.584c-1.252-0.768-3.172-1.152-5.758-1.152H2.998v19.025h7.404c2.24,0,4.006-0.496,5.303-1.49
		s1.945-2.354,1.945-4.078c0-1.164-0.264-2.109-0.793-2.838S15.475,95.51,14.293,95.197z M8.139,90.031h1.443
		c1.615,0,2.422,0.533,2.422,1.6c0,0.6-0.201,1.051-0.605,1.354c-0.404,0.305-0.975,0.457-1.711,0.457H8.139V90.031z M9.947,101.197
		H8.139v-3.996h1.705c0.814,0,1.438,0.17,1.867,0.508s0.645,0.824,0.645,1.459C12.355,100.521,11.553,101.197,9.947,101.197z"/>
	<path d="M30.926,97.281c0,1.369-0.236,2.355-0.711,2.959c-0.471,0.604-1.232,0.904-2.283,0.904c-0.979,0-1.721-0.305-2.225-0.91
		c-0.504-0.607-0.756-1.584-0.756-2.928V86.141h-5.166v11.568c0,2.49,0.695,4.398,2.09,5.727c1.391,1.328,3.385,1.99,5.979,1.99
		c2.656,0,4.688-0.682,6.098-2.049s2.115-3.295,2.115-5.785V86.141h-5.141V97.281z"/>
	<path d="M43.797,90.332c0.305-0.236,0.791-0.352,1.459-0.352c1.291,0,2.826,0.408,4.605,1.223l1.574-3.969
		c-2.047-0.912-4.055-1.367-6.023-1.367c-2.23,0-3.982,0.49-5.258,1.471s-1.914,2.346-1.914,4.1c0,0.936,0.15,1.748,0.449,2.434
		s0.76,1.293,1.381,1.82c0.619,0.531,1.549,1.076,2.791,1.641c1.369,0.617,2.215,1.023,2.529,1.223
		c0.318,0.199,0.547,0.396,0.691,0.594c0.143,0.193,0.215,0.422,0.215,0.682c0,0.418-0.18,0.758-0.535,1.021
		c-0.354,0.266-0.914,0.396-1.678,0.396c-0.885,0-1.857-0.141-2.916-0.422c-1.057-0.283-2.078-0.674-3.059-1.178v4.58
		c0.93,0.443,1.822,0.754,2.682,0.93c0.859,0.18,1.922,0.268,3.189,0.268c1.518,0,2.842-0.254,3.967-0.762
		c1.129-0.506,1.992-1.219,2.592-2.133c0.598-0.916,0.896-1.963,0.896-3.143c0-1.285-0.318-2.35-0.955-3.195
		c-0.639-0.846-1.777-1.637-3.416-2.375c-1.711-0.779-2.758-1.318-3.143-1.613c-0.387-0.295-0.58-0.629-0.58-1.002
		C43.342,90.855,43.494,90.564,43.797,90.332z"/>
	<rect x="53.311" y="86.141" width="5.166" height="19.025"/>
	<path d="M75.059,94.742c0,1.162,0.059,2.703,0.182,4.619h-0.078l-6.924-13.221h-6.715v19.025h4.555V96.59
		c0-1.109-0.082-2.719-0.246-4.828h0.115l6.949,13.404h6.742V86.141h-4.58V94.742z"/>
	<polygon points="82.684,105.166 93.98,105.166 93.98,100.975 87.824,100.975 87.824,97.385 93.525,97.385 93.525,93.26 
		87.824,93.26 87.824,90.266 93.98,90.266 93.98,86.141 82.684,86.141 	"/>
	<path d="M101.049,90.332c0.303-0.236,0.789-0.352,1.457-0.352c1.291,0,2.828,0.408,4.605,1.223l1.574-3.969
		c-2.047-0.912-4.055-1.367-6.025-1.367c-2.229,0-3.98,0.49-5.256,1.471s-1.914,2.346-1.914,4.1c0,0.936,0.15,1.748,0.449,2.434
		c0.301,0.686,0.76,1.293,1.381,1.82c0.619,0.531,1.551,1.076,2.791,1.641c1.371,0.617,2.213,1.023,2.531,1.223
		c0.316,0.199,0.547,0.396,0.689,0.594c0.143,0.193,0.215,0.422,0.215,0.682c0,0.418-0.178,0.758-0.533,1.021
		c-0.355,0.266-0.916,0.396-1.68,0.396c-0.885,0-1.857-0.141-2.916-0.422c-1.059-0.283-2.076-0.674-3.057-1.178v4.58
		c0.928,0.443,1.822,0.754,2.682,0.93c0.857,0.18,1.92,0.268,3.188,0.268c1.518,0,2.84-0.254,3.969-0.762
		c1.127-0.506,1.99-1.219,2.59-2.133c0.6-0.916,0.896-1.963,0.896-3.143c0-1.285-0.318-2.35-0.955-3.195
		c-0.639-0.846-1.775-1.637-3.416-2.375c-1.709-0.779-2.758-1.318-3.143-1.613c-0.387-0.295-0.58-0.629-0.58-1.002
		C100.592,90.855,100.744,90.564,101.049,90.332z"/>
	<path d="M118.629,93.818c-1.709-0.779-2.756-1.318-3.143-1.613s-0.578-0.629-0.578-1.002c0-0.348,0.15-0.639,0.455-0.871
		c0.303-0.236,0.789-0.352,1.457-0.352c1.293,0,2.828,0.408,4.607,1.223l1.574-3.969c-2.047-0.912-4.057-1.367-6.025-1.367
		c-2.23,0-3.982,0.49-5.258,1.471s-1.912,2.346-1.912,4.1c0,0.936,0.148,1.748,0.449,2.434c0.297,0.686,0.758,1.293,1.379,1.82
		c0.619,0.531,1.549,1.076,2.791,1.641c1.371,0.617,2.215,1.023,2.531,1.223s0.547,0.396,0.689,0.594
		c0.143,0.193,0.215,0.422,0.215,0.682c0,0.418-0.178,0.758-0.533,1.021c-0.357,0.266-0.916,0.396-1.68,0.396
		c-0.885,0-1.855-0.141-2.914-0.422c-1.059-0.283-2.078-0.674-3.059-1.178v4.58c0.928,0.443,1.822,0.754,2.68,0.93
		c0.859,0.18,1.924,0.268,3.189,0.268c1.518,0,2.842-0.254,3.969-0.762c1.127-0.506,1.992-1.219,2.59-2.133
		c0.598-0.916,0.898-1.963,0.898-3.143c0-1.285-0.32-2.35-0.957-3.195S120.268,94.557,118.629,93.818z"/>
	<circle cx="76.587" cy="27.446" r="6.871"/>
	<circle cx="99.298" cy="27.449" r="6.871"/>
	<path d="M103.622,80.789c0.001,2.009,1.63,3.635,3.638,3.635h0.003c2.008-0.001,3.637-1.631,3.635-3.64l-0.003-4.959h-7.275
		L103.622,80.789z"/>
	<path d="M65.001,57.895l-0.014,22.888c-0.002,2.01,1.627,3.64,3.636,3.641c0,0,0.001,0,0.002,0c2.008,0,3.637-1.628,3.638-3.636
		l0.013-21.657c1.503-0.598,2.774-1.758,3.162-3.569l1.203-5.614c1.914,2.234,5.075,3.516,10.711,4.287
		c0.122,0.017,0.244,0.025,0.365,0.025c1.124,0,2.12-0.715,2.499-1.761c4.412-0.233,7.149-1.142,8.929-3.014l1.303,6.079
		c0.338,1.573,1.343,2.654,2.587,3.305h1.731c0.372-1.049,1.125-1.914,2.116-2.429c-0.902-4.306-2.156-8.538-3.232-11.11
		c-0.734-1.351,0.291-1.816,0.837-0.415c0.547,1.402,2.59,7.79,3.426,11.967c-1.261,0.388-2.227,1.454-2.45,2.778h-5.137v15.177
		h20.552V59.659h-5.136c-0.226-1.335-1.207-2.407-2.482-2.787c0.014-0.221,0.009-0.443-0.035-0.67
		c-0.34-1.738-4.513-18.112-4.513-18.112c-0.592-2.763-2.504-4.09-4.883-4.158l-0.021,0.001c0,0-0.839,0.004-1.562,0.143
		c-0.757,0.145-1.419,0.508-1.419,0.508c-1.754,0.851-3.431,2.608-3.637,4.742c-0.027,0.103-0.061,0.202-0.076,0.311
		c-0.463,3.26-0.928,5.326-1.926,6.235c-1.029,0.938-3.344,1.355-7.502,1.355c-0.963,0-1.798,0.515-2.268,1.279
		c-2.51-0.512-3.99-1.162-4.772-2.067c-1.015-1.173-1.386-3.354-1.876-6.804c-0.016-0.108-0.049-0.209-0.076-0.312
		c-0.206-2.133-1.883-3.892-3.638-4.742c0,0-0.662-0.363-1.418-0.508c-0.724-0.139-1.562-0.143-1.562-0.143l-0.021-0.002
		c-2.38,0.069-5.181,1.396-5.773,4.158l-3.177,14.831C62.683,54.899,63.568,56.672,65.001,57.895z M110.6,59.385
		c0.169,0,0.342-0.018,0.515-0.051c0.578-0.113,1.07-0.411,1.442-0.813c0.626,0.109,1.136,0.553,1.348,1.139h-6.606
		c0.211-0.586,0.72-1.028,1.346-1.137C109.14,59.058,109.844,59.385,110.6,59.385z"/>
</g>
</svg>
