<?xml version="1.0" encoding="utf-8"?>
<!-- Generator: Adobe Illustrator 16.0.0, SVG Export Plug-In . SVG Version: 6.00 Build 0)  -->
<!DOCTYPE svg PUBLIC "-//W3C//DTD SVG 1.1//EN" "http://www.w3.org/Graphics/SVG/1.1/DTD/svg11.dtd">
<svg version="1.1" id="Layer_1" xmlns="http://www.w3.org/2000/svg" xmlns:xlink="http://www.w3.org/1999/xlink" x="0px" y="0px"
	 width="50px" height="50px" viewBox="0 0 50 50" enable-background="new 0 0 50 50" xml:space="preserve">
<path d="M37.908,21.429l-5.317-1.21l-1.302,7.445c-1.252-0.858-2.692-1.549-4.258-1.946c2.168-1.459,3.662-4.335,3.662-6.925
	c0-3.655-2.964-6.619-6.618-6.619c-3.655,0-6.619,2.963-6.619,6.619c0,2.59,1.493,5.466,3.662,6.925
	c-5.185,1.315-9.027,5.816-9.027,9.151c0,3.943,23.967,3.943,23.967,0c0-1.014-0.359-2.135-0.999-3.242L37.908,21.429z
	 M33.396,21.427l3.267,0.744l-2.571,9.206l-2.343-0.533L33.396,21.427z M24.075,37.825l-3.357-3.357l2.826-6.832h-0.029
	l-1.098-1.259c0.532,0.191,1.085,0.305,1.659,0.305c0.573,0,1.125-0.114,1.655-0.304l-1.097,1.257h-0.028l2.826,6.832L24.075,37.825
	z M34.09,34.423c-0.243,1.068-1.144,1.707-2.254,1.454c-1.109-0.252-1.666-1.222-1.423-2.291c0.248-1.089,1.186-1.696,2.274-1.449
	C33.776,32.385,34.318,33.329,34.09,34.423z"/>
</svg>
