<?xml version="1.0" encoding="utf-8"?>
<!-- Generator: Adobe Illustrator 16.0.0, SVG Export Plug-In . SVG Version: 6.00 Build 0)  -->
<!DOCTYPE svg PUBLIC "-//W3C//DTD SVG 1.1//EN" "http://www.w3.org/Graphics/SVG/1.1/DTD/svg11.dtd">
<svg version="1.1" id="Layer_2" xmlns="http://www.w3.org/2000/svg" xmlns:xlink="http://www.w3.org/1999/xlink" x="0px" y="0px"
	 width="126px" height="126px" viewBox="0 0 126 126" enable-background="new 0 0 126 126" xml:space="preserve">
<g>
	<circle cx="62.07" cy="20.132" r="11.705"/>
	<path d="M36.311,13.298c-3.862-3.869-9-6-14.467-6c-5.454,0-10.582,2.122-14.442,5.975c-7.977,7.963-7.986,20.932-0.025,28.909
		c3.864,3.869,9.002,6,14.468,6c0,0,0,0,0.002,0c5.451,0,10.581-2.123,14.441-5.975C44.262,34.244,44.273,21.275,36.311,13.298z
		 M21.844,44.529c-4.49,0-8.71-1.75-11.881-4.927c-6.542-6.551-6.532-17.203,0.02-23.744c3.169-3.164,7.383-4.908,11.861-4.908
		c4.489,0,8.709,1.75,11.882,4.928c6.54,6.552,6.532,17.203-0.02,23.743C30.535,42.787,26.323,44.529,21.844,44.529z"/>
	<rect x="7.343" y="26.987" width="3.951" height="1.505"/>
	<rect x="32.736" y="26.987" width="3.951" height="1.505"/>
	<rect x="21.091" y="13.067" width="1.505" height="3.95"/>
	<rect x="21.091" y="38.462" width="1.505" height="3.95"/>
	<path d="M22.596,26.144v-6.622h-1.505v6.622c-0.6,0.283-1.017,0.888-1.017,1.596c0,0.978,0.792,1.77,1.77,1.77
		c0.708,0,1.313-0.417,1.597-1.018h7.889v-1.505H23.44C23.265,26.617,22.967,26.318,22.596,26.144z"/>
	<rect x="87.311" y="26.299" width="3.951" height="1.504"/>
	<rect x="112.704" y="26.299" width="3.951" height="1.504"/>
	<rect x="101.059" y="12.378" width="1.505" height="3.95"/>
	<rect x="101.059" y="37.773" width="1.505" height="3.95"/>
	<path d="M102.563,25.455v-6.622h-1.505v6.622c-0.6,0.284-1.017,0.889-1.017,1.597c0,0.977,0.792,1.77,1.769,1.77
		c0.709,0,1.313-0.417,1.598-1.018h7.889v-1.504h-7.889C103.232,25.929,102.935,25.629,102.563,25.455z"/>
	<path d="M123.074,30.584l-2.959-1.093l0.055-0.515c0.191-1.766,0.123-3.544-0.201-5.283l-0.095-0.508l2.86-1.317
		c0.562-0.258,0.988-0.72,1.203-1.301c0.215-0.582,0.191-1.212-0.067-1.774l-1.396-3.026c-0.516-1.122-1.939-1.661-3.072-1.137
		l-2.861,1.321l-0.324-0.403c-1.111-1.375-2.418-2.583-3.884-3.587l-0.427-0.293l1.092-2.957c0.443-1.2-0.172-2.535-1.368-2.977
		l-3.132-1.156c-1.129-0.419-2.563,0.254-2.977,1.37l-1.09,2.96l-0.516-0.056c-1.752-0.188-3.543-0.12-5.282,0.201l-0.507,0.094
		l-1.315-2.857c-0.518-1.122-1.94-1.657-3.074-1.137L90.706,6.55c-1.159,0.535-1.668,1.913-1.133,3.073l1.318,2.859l-0.402,0.326
		c-1.38,1.118-2.589,2.425-3.59,3.886l-0.29,0.426l-2.954-1.093c-1.133-0.417-2.564,0.252-2.978,1.369l-1.157,3.131
		c-0.215,0.582-0.189,1.21,0.069,1.77c0.263,0.564,0.723,0.992,1.297,1.202l2.964,1.098l-0.055,0.515
		c-0.191,1.759-0.123,3.535,0.199,5.278l0.095,0.508l-2.859,1.318c-1.159,0.535-1.668,1.913-1.135,3.072l1.396,3.032
		c0.518,1.119,1.938,1.657,3.072,1.133l2.861-1.318l0.323,0.402c1.114,1.379,2.421,2.584,3.885,3.585l0.428,0.292l-1.094,2.958
		c-0.215,0.581-0.191,1.21,0.069,1.771c0.257,0.564,0.719,0.992,1.302,1.208l1.668,0.616c-9.47-0.455-14.918-5.681-19.324-9.928
		c-1.46-1.407-2.769-2.66-4.115-3.637c-1.588-1.394-3.559-2.389-5.58-2.885l-2.916,2.935l-2.828-2.968
		c-0.01,0.002-0.018,0.003-0.027,0.005c-1.826,0.437-3.607,1.286-5.108,2.464c-1.597,1.025-3.098,2.443-4.802,4.084
		c-4.61,4.443-10.349,9.972-20.651,9.972c-2.51,0-4.545,2.035-4.545,4.544s2.035,4.544,4.545,4.544
		c9.651,0,16.513-3.74,21.438-7.595v18.025c0,1.449,0.332,2.782,0.904,3.982c-0.002,0.049-0.016,0.095-0.016,0.144l-0.038,43.516
		c-0.002,2.966,2.399,5.373,5.365,5.375c0.002,0,0.004,0,0.004,0c2.966,0,5.37-2.401,5.372-5.366l0.032-37.338
		c0.118,0.003,0.236,0.015,0.355,0.015c0.14,0,0.276-0.014,0.414-0.018v37.336c0,2.966,2.405,5.371,5.371,5.371
		s5.37-2.405,5.37-5.371l0.002-43.515c0-0.093-0.023-0.179-0.027-0.271c0.537-1.169,0.852-2.459,0.852-3.86V50.623
		c4.912,3.813,11.73,7.476,21.282,7.476c2.51,0,4.544-2.034,4.544-4.544c0-1.83-1.086-3.396-2.644-4.117
		c0.002-0.001,0.004-0.001,0.006-0.002c0.561-0.26,0.987-0.721,1.198-1.299l1.096-2.963l0.516,0.056
		c1.753,0.19,3.542,0.122,5.28-0.202l0.509-0.094l1.313,2.862c0.518,1.117,1.944,1.653,3.074,1.134l3.031-1.396
		c0.561-0.259,0.988-0.721,1.202-1.302c0.215-0.581,0.191-1.21-0.069-1.771l-1.315-2.859l0.401-0.325
		c1.384-1.12,2.588-2.427,3.584-3.884l0.292-0.429l2.96,1.095c0.262,0.097,0.531,0.145,0.805,0.145c0.334,0,0.66-0.072,0.97-0.215
		c0.562-0.258,0.987-0.72,1.2-1.299l1.158-3.131C124.887,32.36,124.271,31.026,123.074,30.584z M62.098,58.619h-0.054l-2.823-3.863
		l2.823-18.869h0.054l0.44,2.938c0.01,0.147,0.041,0.29,0.065,0.435l2.317,15.496L62.098,58.619z M108.666,41.546
		c-2.114,0.975-4.359,1.47-6.678,1.47c-6.215,0-11.912-3.647-14.513-9.291c-3.68-8-0.169-17.506,7.823-21.189
		c2.115-0.973,4.359-1.466,6.674-1.466c6.218,0,11.916,3.646,14.517,9.288C120.17,28.359,116.659,37.864,108.666,41.546z"/>
</g>
</svg>
