<?xml version="1.0" encoding="utf-8"?>
<!-- Generator: Adobe Illustrator 16.0.0, SVG Export Plug-In . SVG Version: 6.00 Build 0)  -->
<!DOCTYPE svg PUBLIC "-//W3C//DTD SVG 1.1//EN" "http://www.w3.org/Graphics/SVG/1.1/DTD/svg11.dtd">
<svg version="1.1" id="Layer_1" xmlns="http://www.w3.org/2000/svg" xmlns:xlink="http://www.w3.org/1999/xlink" x="0px" y="0px"
	 width="126px" height="126px" viewBox="0 0 126 126" enable-background="new 0 0 126 126" xml:space="preserve">
<g>
	<circle cx="61.618" cy="16.037" r="8.048"/>
	<path d="M50.634,50.538c0.597,0.927,1.602,1.432,2.63,1.432c0.18,0,0.361-0.021,0.54-0.053c-0.005,0.078-0.012,0.156-0.012,0.234
		l0.003,29.918c0,2.039,1.652,3.693,3.692,3.693c2.04,0,3.692-1.654,3.692-3.693l-0.002-25.677c0.146,0.008,0.292,0.02,0.439,0.02
		c0.029,0,0.058-0.005,0.087-0.006l-0.001,25.663c0,2.039,1.653,3.693,3.692,3.693h0c2.039,0,3.692-1.654,3.692-3.693l0.001-29.85
		c0.057-0.112,0.109-0.225,0.16-0.339c0.236,0.056,0.475,0.089,0.713,0.089c1.027,0,2.034-0.505,2.63-1.432
		c1.758-2.732,4.739-7.714,4.956-10.367c0.363-4.452-7.262-12.093-10.578-14.128c-0.12-0.072-0.248-0.124-0.375-0.179
		c-0.908-0.605-1.93-1.057-2.974-1.313l-2.005,2.019l-1.944-2.038c-0.006,0-0.013,0-0.02,0.001c-1.047,0.252-2.074,0.7-2.987,1.313
		c-0.139,0.059-0.278,0.117-0.411,0.198c-3.315,2.035-10.94,9.676-10.578,14.128C45.895,42.824,48.875,47.806,50.634,50.538z
		 M69.855,37.471c0.713,0.963,1.232,1.81,1.422,2.354c-0.173,0.598-0.703,1.728-1.422,3.064V37.471z M61.599,26.869h0.038
		l1.941,12.974l-1.941,2.655h-0.038l-1.94-2.655L61.599,26.869z M53.381,37.458v5.452c-0.734-1.363-1.272-2.502-1.435-3.075
		C52.133,39.29,52.658,38.434,53.381,37.458z"/>
	<circle cx="109.693" cy="43.681" r="8.048"/>
	<path d="M115.046,53.687c-0.12-0.074-0.248-0.124-0.374-0.181c-0.907-0.604-1.931-1.055-2.974-1.312l-2.005,2.019l-1.944-2.039
		c-0.006,0-0.013,0-0.021,0.001c-1.047,0.252-2.074,0.701-2.986,1.313c-0.139,0.059-0.279,0.117-0.411,0.198
		c-3.315,2.035-10.941,9.676-10.578,14.128c0.216,2.653,3.197,7.635,4.955,10.367c0.597,0.927,1.602,1.432,2.63,1.432
		c0.18,0,0.361-0.021,0.541-0.053c-0.005,0.078-0.012,0.156-0.012,0.234l0.003,29.918c0,2.038,1.653,3.69,3.693,3.69
		c2.039,0,3.692-1.652,3.692-3.69l-0.002-25.677c0.146,0.008,0.292,0.02,0.439,0.02c0.029,0,0.058-0.005,0.087-0.006l-0.001,25.663
		c0,2.038,1.653,3.69,3.692,3.69h0c2.039,0,3.692-1.652,3.692-3.69l0.002-29.852c0.056-0.11,0.109-0.223,0.161-0.338
		c0.235,0.057,0.475,0.09,0.712,0.09c1.027,0,2.033-0.505,2.63-1.432c1.757-2.732,4.739-7.714,4.955-10.367
		C125.987,63.362,118.362,55.722,115.046,53.687z M101.456,70.554c-0.733-1.363-1.272-2.502-1.434-3.075
		c0.187-0.545,0.711-1.402,1.434-2.377V70.554z M109.712,70.142h-0.037l-1.94-2.655l1.94-12.976h0.037l1.941,12.976L109.712,70.142z
		 M117.93,70.532v-5.418c0.713,0.962,1.232,1.81,1.422,2.354C119.18,68.064,118.649,69.195,117.93,70.532z"/>
	<circle cx="16.315" cy="43.681" r="8.048"/>
	<path d="M21.667,53.687c-0.12-0.074-0.248-0.124-0.373-0.181c-0.908-0.604-1.931-1.055-2.975-1.312l-2.004,2.019l-1.944-2.039
		c-0.006,0-0.013,0-0.02,0.001c-1.047,0.252-2.074,0.701-2.986,1.313c-0.139,0.059-0.279,0.117-0.411,0.198
		c-3.316,2.035-10.94,9.676-10.578,14.128c0.216,2.653,3.197,7.635,4.955,10.367c0.597,0.927,1.604,1.432,2.63,1.432
		c0.18,0,0.362-0.021,0.541-0.053c-0.004,0.078-0.012,0.156-0.012,0.234l0.002,29.918c0,2.038,1.654,3.69,3.693,3.69
		s3.692-1.652,3.692-3.69l-0.001-25.677c0.146,0.008,0.292,0.02,0.439,0.02c0.029,0,0.058-0.005,0.086-0.006L16.4,109.713
		c0,2.038,1.653,3.69,3.692,3.69h0c2.04,0,3.692-1.652,3.692-3.69l0.002-29.852c0.056-0.11,0.109-0.223,0.161-0.338
		c0.235,0.057,0.474,0.09,0.712,0.09c1.028,0,2.033-0.505,2.63-1.432c1.757-2.732,4.739-7.714,4.955-10.367
		C32.609,63.362,24.983,55.722,21.667,53.687z M8.079,70.554c-0.734-1.363-1.273-2.502-1.435-3.075
		c0.187-0.545,0.711-1.402,1.435-2.377V70.554z M16.334,70.142h-0.038l-1.94-2.655l1.94-12.976h0.038l1.941,12.976L16.334,70.142z
		 M24.552,70.532v-5.418c0.713,0.962,1.233,1.81,1.422,2.354C25.802,68.064,25.272,69.195,24.552,70.532z"/>
	<path d="M62.469,95.617c-9.99,0-18.116,3.483-18.116,7.764c0,4.279,8.126,7.763,18.116,7.763s18.117-3.483,18.117-7.763
		C80.586,99.101,72.459,95.617,62.469,95.617z M62.469,109.938c-8.438,0-15.301-2.941-15.301-6.557
		c0-3.614,6.864-6.557,15.301-6.557c8.438,0,15.301,2.942,15.301,6.557C77.77,106.996,70.907,109.938,62.469,109.938z"/>
	<path d="M62.469,91.953c-14.706,0-26.672,5.126-26.672,11.428s11.966,11.428,26.672,11.428c14.707,0,26.672-5.126,26.672-11.428
		S77.176,91.953,62.469,91.953z M62.469,113.603c-13.154,0-23.855-4.586-23.855-10.222c0-5.635,10.702-10.223,23.855-10.223
		c13.156,0,23.857,4.588,23.857,10.223C86.327,109.017,75.625,113.603,62.469,113.603z"/>
	<path d="M62.469,88.751c-18.828,0-34.146,6.562-34.146,14.63c0,8.066,15.318,14.63,34.146,14.63s34.146-6.563,34.146-14.63
		C96.615,95.313,81.297,88.751,62.469,88.751z M62.469,116.806c-17.275,0-31.331-6.022-31.331-13.425
		c0-7.403,14.056-13.425,31.331-13.425c17.276,0,31.331,6.021,31.331,13.425C93.8,110.783,79.745,116.806,62.469,116.806z"/>
</g>
</svg>
