<?xml version="1.0" encoding="utf-8"?>
<!-- Generator: Adobe Illustrator 16.0.0, SVG Export Plug-In . SVG Version: 6.00 Build 0)  -->
<!DOCTYPE svg PUBLIC "-//W3C//DTD SVG 1.1//EN" "http://www.w3.org/Graphics/SVG/1.1/DTD/svg11.dtd">
<svg version="1.1" id="Layer_1" xmlns="http://www.w3.org/2000/svg" xmlns:xlink="http://www.w3.org/1999/xlink" x="0px" y="0px"
	 width="50px" height="50px" viewBox="0 0 50 50" enable-background="new 0 0 50 50" xml:space="preserve">
<g>
	<path d="M18.564,15.531c1.744,0,3.16-2.024,3.16-3.769c0-1.746-1.416-3.161-3.16-3.161c-1.746,0-3.162,1.416-3.162,3.161
		C15.402,13.507,16.818,15.531,18.564,15.531z"/>
	<path d="M24.753,17.732c-0.023-0.091-0.043-0.182-0.086-0.265c-0.033-0.063-0.081-0.113-0.124-0.17
		c-0.055-0.073-0.105-0.146-0.176-0.206c-0.058-0.048-0.125-0.078-0.19-0.115c-0.063-0.037-0.115-0.088-0.187-0.114
		c-0.113-0.041-2.629-0.943-4.941-1.062l-0.318,0.636h-0.008l0.842,6.556l-1,1.747l-1-1.747l0.842-6.556h-0.01L18.079,15.8
		c-2.312,0.119-4.827,1.021-4.94,1.062c-0.074,0.027-0.128,0.079-0.193,0.118c-0.062,0.036-0.126,0.064-0.18,0.109
		c-0.075,0.063-0.129,0.139-0.187,0.217c-0.04,0.053-0.084,0.1-0.115,0.159c-0.045,0.085-0.065,0.178-0.089,0.272
		c-0.015,0.056-0.046,0.104-0.053,0.163l-1,9c-0.076,0.686,0.418,1.304,1.104,1.38c0.047,0.005,0.093,0.008,0.14,0.008
		c0.628,0,1.169-0.473,1.24-1.112l0.911-8.198c0.106-0.032,0.223-0.066,0.347-0.101v8.532l-0.995,12.371
		c-0.066,0.826,0.549,1.549,1.375,1.615c0.041,0.003,0.081,0.005,0.122,0.005c0.773,0,1.43-0.595,1.493-1.38l0.899-11.181
		c0.186,0.082,0.39,0.129,0.605,0.129s0.42-0.047,0.605-0.129l0.899,11.181c0.063,0.785,0.72,1.38,1.493,1.38
		c0.041,0,0.081-0.001,0.122-0.005c0.826-0.066,1.441-0.79,1.375-1.615l-0.995-12.371v-8.532c0.124,0.035,0.24,0.069,0.347,0.101
		l0.911,8.198c0.071,0.639,0.612,1.112,1.24,1.112c0.047,0,0.093-0.002,0.14-0.008c0.687-0.076,1.181-0.694,1.104-1.38l-1-9
		C24.8,17.838,24.768,17.789,24.753,17.732z"/>
	<polygon points="28.688,29.498 35.963,22.223 36.444,22.705 37.191,20.463 34.95,21.21 35.432,21.692 28.156,28.968 	"/>
	<rect x="26.93" y="33.124" width="2.936" height="8.275"/>
	<rect x="31.34" y="29.413" width="2.936" height="11.987"/>
	<rect x="35.75" y="24.848" width="2.936" height="16.551"/>
</g>
</svg>
