<?xml version="1.0" encoding="utf-8"?>
<!-- Generator: Adobe Illustrator 16.0.0, SVG Export Plug-In . SVG Version: 6.00 Build 0)  -->
<!DOCTYPE svg PUBLIC "-//W3C//DTD SVG 1.1//EN" "http://www.w3.org/Graphics/SVG/1.1/DTD/svg11.dtd">
<svg version="1.1" id="Layer_1" xmlns="http://www.w3.org/2000/svg" xmlns:xlink="http://www.w3.org/1999/xlink" x="0px" y="0px"
	 width="126px" height="126px" viewBox="0 0 126 126" enable-background="new 0 0 126 126" xml:space="preserve">
<g>
	<g>
		<g>
			<path d="M105.01,26.681c-0.147-0.09-0.302-0.148-0.455-0.219c-1.245-0.816-2.637-1.417-4.054-1.765l-2.827,2.845l-2.74-2.876
				c-0.01,0.002-0.02,0.002-0.028,0.006c-1.359,0.324-2.693,0.888-3.898,1.646c-0.302,0.092-0.599,0.211-0.885,0.372
				c-1.756,0.987-3.428,1.18-5.257,0.61c-6.059-1.888-11.702-11.133-13.364-14.531c-0.443-0.913-1.167-1.586-2.01-2.005
				l-1.208-0.402c-0.877-0.151-1.806-0.049-2.667,0.37c-2.189,1.063-3.101,3.698-2.038,5.886c0.257,0.531,1.22,2.447,2.778,4.889
				l1.039,1.57c3.252,4.732,8.389,10.611,14.829,12.627c1.274,0.399,2.559,0.621,3.837,0.688v23.214
				c0,1.199,0.236,2.315,0.648,3.341c-0.028,0.219-0.067,0.436-0.067,0.664l0.003,42.183c0,2.876,2.332,5.206,5.207,5.206
				c2.875-0.001,5.206-2.331,5.206-5.206l-0.003-36.202c0.207,0.01,0.412,0.025,0.62,0.025c0.041,0,0.081-0.004,0.123-0.005
				l-0.002,36.182c0,2.875,2.331,5.206,5.207,5.206l0,0c2.875,0,5.206-2.331,5.206-5.206l0.001-41.383
				c0.274,0.262,0.572,0.502,0.92,0.692c0.668,0.363,1.39,0.536,2.102,0.536c1.562,0,3.074-0.832,3.873-2.301
				C127.533,40.496,110.581,30.099,105.01,26.681z M97.702,50h-0.052l-2.736-3.745l2.736-18.291h0.052l2.737,18.291L97.702,50z
				 M109.289,54.996V42.399C110.971,45.581,111.348,49.61,109.289,54.996z"/>
		</g>
		<g>
			<circle cx="97.675" cy="12.692" r="11.347"/>
		</g>
	</g>
	<g>
		<path d="M72.621,64.679H17.025c-3.531,0-6.404-2.873-6.404-6.404V7.316c0-3.531,2.873-6.404,6.404-6.404h55.596
			c3.531,0,6.404,2.873,6.404,6.404v50.958C79.024,61.806,76.152,64.679,72.621,64.679z M17.025,5.182
			c-1.178,0-2.135,0.957-2.135,2.135v50.958c0,1.177,0.957,2.135,2.135,2.135h55.596c1.177,0,2.135-0.958,2.135-2.135V7.316
			c0-1.178-0.958-2.135-2.135-2.135H17.025z"/>
	</g>
	<g>
		<circle cx="27.342" cy="80.003" r="8.984"/>
	</g>
	<g>
		<path d="M16.934,109.488c-0.267-2.463,0.231-4.483,1.213-6.188v6.188h9.134l-2.126-2.91l2.166-14.483h0.042l2.166,14.483
			l-2.126,2.91h9.134v-6.171c0.975,1.701,1.47,3.717,1.204,6.171h7.031c0.808-10.78-8.032-16.214-11.455-18.314
			c-0.151-0.092-0.31-0.159-0.468-0.226c-1.001-0.667-2.124-1.159-3.27-1.44l-2.238,2.252l-2.17-2.277
			c-0.007,0.001-0.015,0.001-0.023,0.003c-1.168,0.28-2.314,0.782-3.332,1.464c-0.156,0.066-0.313,0.131-0.461,0.223
			c-3.423,2.1-12.263,7.534-11.455,18.314H16.934z"/>
	</g>
	<g>
		<circle cx="62.316" cy="80.003" r="8.984"/>
	</g>
	<g>
		<path d="M51.908,109.488c-0.268-2.463,0.232-4.483,1.214-6.188v6.188h9.134l-2.126-2.91l2.166-14.483h0.042l2.167,14.483
			l-2.127,2.91h9.134v-6.171c0.976,1.701,1.47,3.717,1.205,6.171h7.03c0.808-10.78-8.031-16.214-11.455-18.314
			c-0.15-0.092-0.309-0.159-0.468-0.226c-1-0.667-2.124-1.159-3.27-1.44l-2.238,2.252l-2.17-2.277
			c-0.006,0.001-0.014,0.001-0.022,0.003c-1.169,0.28-2.315,0.782-3.333,1.464c-0.155,0.066-0.312,0.131-0.46,0.223
			c-3.424,2.1-12.263,7.534-11.455,18.314H51.908z"/>
	</g>
	<g>
		<rect x="6.443" y="112.285" width="102.723" height="12.803"/>
	</g>
	<g>
		<path d="M67.934,26.77l-17.823,5.942l-9.376-7.133l-6.777,6.291L20.134,18.046v37.778h-1.828v1.519h52.053v-1.519h-2.425V26.77z
			 M66.469,36.133l-16.341,5.448l-9.43-4.668l-7.018,4.01L21.6,27.262v-5.676L33.92,33.906l6.908-6.414l9.01,6.856l16.631-5.542
			V36.133z"/>
	</g>
</g>
</svg>
