<?xml version="1.0" encoding="utf-8"?>
<!-- Generator: Adobe Illustrator 16.0.0, SVG Export Plug-In . SVG Version: 6.00 Build 0)  -->
<!DOCTYPE svg PUBLIC "-//W3C//DTD SVG 1.1//EN" "http://www.w3.org/Graphics/SVG/1.1/DTD/svg11.dtd">
<svg version="1.1" id="Layer_1" xmlns="http://www.w3.org/2000/svg" xmlns:xlink="http://www.w3.org/1999/xlink" x="0px" y="0px"
	 width="50px" height="50px" viewBox="0 0 50 50" enable-background="new 0 0 50 50" xml:space="preserve">
<g>
	<polygon points="24.055,37.826 24.06,37.821 24.05,37.821 	"/>
	<path d="M27.626,28.365c0-0.838,0.333-1.597,0.867-2.164c-0.481-0.187-0.973-0.354-1.481-0.483
		c2.168-1.459,3.661-4.335,3.661-6.925c0-3.655-2.964-6.619-6.618-6.619s-6.618,2.963-6.618,6.619c0,2.59,1.493,5.466,3.661,6.925
		c-5.184,1.315-9.026,5.816-9.026,9.151c0,1.971,5.988,2.952,11.979,2.952l-3.353-3.352l2.826-6.832h-0.029l-1.098-1.259
		c0.531,0.191,1.084,0.305,1.658,0.305s1.126-0.114,1.656-0.304l-1.098,1.257h-0.027l2.826,6.832l-3.353,3.352
		c1.562,0,3.125-0.064,4.581-0.198c-0.62-0.578-1.015-1.396-1.015-2.309V28.365z"/>
	<path d="M35.762,26.198h-4.969c-1.195,0-2.167,0.973-2.167,2.167v6.948c0,1.195,0.972,2.167,2.167,2.167h4.969
		c1.195,0,2.167-0.972,2.167-2.167v-6.948C37.929,27.17,36.957,26.198,35.762,26.198z M37.31,35.313
		c0,0.853-0.694,1.547-1.548,1.547h-4.969c-0.854,0-1.548-0.694-1.548-1.547v-6.948c0-0.854,0.694-1.548,1.548-1.548h4.969
		c0.854,0,1.548,0.694,1.548,1.548V35.313z"/>
	<path d="M31.175,33.181h-0.703c-0.159,0-0.289,0.082-0.289,0.182v0.443c0,0.1,0.13,0.182,0.289,0.182h0.703
		c0.159,0,0.289-0.082,0.289-0.182v-0.443C31.464,33.263,31.334,33.181,31.175,33.181z"/>
	<path d="M35.895,27.99h-5.235c-0.343,0-0.624,0.251-0.624,0.559v1.359c0,0.307,0.281,0.558,0.624,0.558h5.235
		c0.344,0,0.625-0.251,0.625-0.558v-1.359C36.52,28.242,36.238,27.99,35.895,27.99z"/>
	<path d="M32.812,33.181h-0.704c-0.16,0-0.288,0.082-0.288,0.182v0.443c0,0.1,0.128,0.182,0.288,0.182h0.704
		c0.159,0,0.289-0.082,0.289-0.182v-0.443C33.101,33.263,32.971,33.181,32.812,33.181z"/>
	<path d="M34.447,33.181h-0.704c-0.159,0-0.289,0.082-0.289,0.182v0.443c0,0.1,0.13,0.182,0.289,0.182h0.704
		c0.159,0,0.289-0.082,0.289-0.182v-0.443C34.736,33.263,34.606,33.181,34.447,33.181z"/>
	<path d="M36.084,33.181H35.38c-0.159,0-0.289,0.082-0.289,0.182v0.443c0,0.1,0.13,0.182,0.289,0.182h0.704
		c0.158,0,0.289-0.082,0.289-0.182v-0.443C36.373,33.263,36.242,33.181,36.084,33.181z"/>
	<path d="M30.471,32.562h0.703c0.159,0,0.289-0.082,0.289-0.182v-0.443c0-0.1-0.13-0.182-0.289-0.182h-0.703
		c-0.159,0-0.289,0.082-0.289,0.182v0.443C30.182,32.48,30.312,32.562,30.471,32.562z"/>
	<path d="M32.107,32.562h0.703c0.159,0,0.289-0.082,0.289-0.182v-0.443c0-0.1-0.13-0.182-0.289-0.182h-0.703
		c-0.16,0-0.289,0.082-0.289,0.182v0.443C31.818,32.48,31.947,32.562,32.107,32.562z"/>
	<path d="M33.742,32.562h0.704c0.159,0,0.289-0.082,0.289-0.182v-0.443c0-0.1-0.13-0.182-0.289-0.182h-0.704
		c-0.159,0-0.289,0.082-0.289,0.182v0.443C33.453,32.48,33.583,32.562,33.742,32.562z"/>
	<path d="M35.379,32.562h0.704c0.158,0,0.289-0.082,0.289-0.182v-0.443c0-0.1-0.131-0.182-0.289-0.182h-0.704
		c-0.159,0-0.289,0.082-0.289,0.182v0.443C35.09,32.48,35.22,32.562,35.379,32.562z"/>
	<path d="M31.174,34.212h-0.702c-0.16,0-0.291,0.082-0.291,0.182v0.443c0,0.1,0.131,0.182,0.291,0.182h0.702
		c0.16,0,0.289-0.083,0.289-0.182v-0.443C31.463,34.294,31.334,34.212,31.174,34.212z"/>
	<path d="M32.811,34.212h-0.705c-0.158,0-0.286,0.082-0.286,0.182v0.443c0,0.1,0.128,0.182,0.286,0.182h0.705
		c0.159,0,0.289-0.083,0.289-0.182v-0.443C33.1,34.294,32.97,34.212,32.811,34.212z"/>
	<path d="M34.447,34.212h-0.704c-0.159,0-0.289,0.082-0.289,0.182v0.443c0,0.1,0.13,0.182,0.289,0.182h0.704
		c0.159,0,0.289-0.083,0.289-0.182v-0.443C34.736,34.294,34.606,34.212,34.447,34.212z"/>
	<path d="M36.082,34.212H35.38c-0.16,0-0.29,0.082-0.29,0.182v0.443c0,0.1,0.13,0.182,0.29,0.182h0.702
		c0.16,0,0.29-0.083,0.29-0.182v-0.443C36.372,34.294,36.242,34.212,36.082,34.212z"/>
	<path d="M31.174,35.242H30.47c-0.158,0-0.289,0.082-0.289,0.182v0.443c0,0.1,0.131,0.182,0.289,0.182h0.704
		c0.159,0,0.288-0.082,0.288-0.182v-0.443C31.462,35.324,31.333,35.242,31.174,35.242z"/>
	<path d="M32.811,35.242h-0.705c-0.158,0-0.288,0.082-0.288,0.182v0.443c0,0.1,0.13,0.182,0.288,0.182h0.705
		c0.159,0,0.289-0.082,0.289-0.182v-0.443C33.1,35.324,32.97,35.242,32.811,35.242z"/>
	<path d="M34.446,35.242h-0.704c-0.159,0-0.289,0.082-0.289,0.182v0.443c0,0.1,0.13,0.182,0.289,0.182h0.704
		c0.159,0,0.289-0.082,0.289-0.182v-0.443C34.735,35.324,34.605,35.242,34.446,35.242z"/>
	<path d="M36.082,35.242h-0.703c-0.159,0-0.289,0.082-0.289,0.182v0.443c0,0.1,0.13,0.182,0.289,0.182h0.703
		c0.158,0,0.289-0.082,0.289-0.182v-0.443C36.371,35.324,36.24,35.242,36.082,35.242z"/>
</g>
</svg>
