<?xml version="1.0" encoding="utf-8"?>
<!-- Generator: Adobe Illustrator 16.0.0, SVG Export Plug-In . SVG Version: 6.00 Build 0)  -->
<!DOCTYPE svg PUBLIC "-//W3C//DTD SVG 1.1//EN" "http://www.w3.org/Graphics/SVG/1.1/DTD/svg11.dtd">
<svg version="1.1" id="Layer_1" xmlns="http://www.w3.org/2000/svg" xmlns:xlink="http://www.w3.org/1999/xlink" x="0px" y="0px"
	 width="126px" height="126px" viewBox="0 0 126 126" enable-background="new 0 0 126 126" xml:space="preserve">
<g>
	<path d="M14.882,47.613v32.908h25.27v-37.25H19.28L14.882,47.613z M37.727,78.098h-20.42v-9.995
		c0.105-0.002,0.209-0.036,0.295-0.107l3.284-2.698l2.773,2.675c0.102,0.097,0.237,0.142,0.377,0.129
		c0.139-0.015,0.264-0.091,0.341-0.204l3.104-4.612l2.87,0.841c0.179,0.052,0.37-0.007,0.491-0.146l6.885-8.072V78.098z
		 M21.146,45.695h16.58v9.013c-0.131,0.002-0.261,0.054-0.354,0.161l-7.051,8.267l-2.909-0.852c-0.196-0.058-0.407,0.02-0.521,0.19
		l-2.982,4.43l-2.67-2.577c-0.172-0.166-0.441-0.177-0.627-0.023l-3.306,2.715V49.133h3.84V45.695z"/>
	<path d="M36.367,53.062c0-0.157-0.127-0.282-0.282-0.282h-3.829c-0.155,0-0.283,0.125-0.283,0.282v2.756v4.056l4.395-5.15V53.062z"
		/>
	<path d="M32.256,72.449h3.829c0.155,0,0.282-0.127,0.282-0.282v-5.213v-0.866v-7.053l-4.395,5.15v5.226v2.756
		C31.973,72.322,32.101,72.449,32.256,72.449z"/>
	<path d="M25.134,68.413v1.78v1.974c0,0.155,0.124,0.282,0.282,0.282h3.827c0.157,0,0.282-0.127,0.282-0.282v-1.375v-5.54
		l-1.895-0.554L25.134,68.413z"/>
	<path d="M27.499,61.287l2.026,0.593v-3.02v-1.375c0-0.155-0.125-0.282-0.282-0.282h-3.827c-0.158,0-0.282,0.127-0.282,0.282v1.974
		v4.168l1.32-1.963C26.683,61.323,27.105,61.171,27.499,61.287z"/>
	<path d="M21.518,63.441l1.543,1.489v-1.829V60.78c0-0.155-0.125-0.282-0.282-0.282h-3.827c-0.157,0-0.282,0.127-0.282,0.282v2.95
		v0.977l1.599-1.314C20.636,63.088,21.175,63.11,21.518,63.441z"/>
	<path d="M18.669,68.556v0.661v2.95c0,0.155,0.125,0.282,0.282,0.282h3.827c0.157,0,0.282-0.127,0.282-0.282v-3.209l-2.246-2.165
		L18.669,68.556z"/>
	<path d="M90.247,43.271l-4.398,4.342v32.908h25.27v-37.25H90.247z M108.693,78.098h-20.42v-9.995
		c0.105-0.002,0.209-0.036,0.295-0.107l3.284-2.698l2.773,2.675c0.102,0.097,0.237,0.142,0.377,0.129
		c0.138-0.015,0.263-0.091,0.341-0.204l3.103-4.612l2.871,0.841c0.179,0.052,0.37-0.007,0.491-0.146l6.885-8.072V78.098z
		 M108.693,54.708c-0.132,0.002-0.261,0.054-0.354,0.161l-7.051,8.267l-2.909-0.852c-0.196-0.058-0.407,0.02-0.521,0.19l-2.982,4.43
		l-2.67-2.577c-0.173-0.166-0.442-0.177-0.627-0.023l-3.306,2.715V49.133h3.84v-3.438h16.58V54.708z"/>
	<path d="M107.334,53.062c0-0.157-0.128-0.282-0.282-0.282h-3.83c-0.155,0-0.282,0.125-0.282,0.282v2.756v4.056l4.395-5.15V53.062z"
		/>
	<path d="M103.222,72.449h3.83c0.154,0,0.282-0.127,0.282-0.282v-5.213v-0.866v-7.053l-4.395,5.15v5.226v2.756
		C102.939,72.322,103.066,72.449,103.222,72.449z"/>
	<path d="M96.1,68.413v1.78v1.974c0,0.155,0.125,0.282,0.282,0.282h3.827c0.158,0,0.283-0.127,0.283-0.282v-1.375v-5.54
		l-1.895-0.554L96.1,68.413z"/>
	<path d="M98.466,61.287l2.026,0.593v-3.02v-1.375c0-0.155-0.125-0.282-0.283-0.282h-3.827c-0.157,0-0.282,0.127-0.282,0.282v1.974
		v4.168l1.321-1.963C97.649,61.323,98.071,61.171,98.466,61.287z"/>
	<path d="M89.635,60.78v2.95v0.977l1.6-1.314c0.368-0.305,0.907-0.282,1.25,0.049l1.543,1.489v-1.829V60.78
		c0-0.155-0.125-0.282-0.283-0.282h-3.827C89.76,60.498,89.635,60.625,89.635,60.78z"/>
	<path d="M89.635,68.556v0.661v2.95c0,0.155,0.125,0.282,0.282,0.282h3.827c0.158,0,0.283-0.127,0.283-0.282v-3.209l-2.246-2.165
		L89.635,68.556z"/>
	<path d="M50.365,91.488v32.908h25.27v-37.25H54.764L50.365,91.488z M73.21,121.973H52.79v-9.995
		c0.105-0.002,0.209-0.036,0.295-0.107l3.284-2.698l2.773,2.674c0.102,0.098,0.237,0.143,0.377,0.13
		c0.138-0.016,0.263-0.091,0.341-0.205l3.103-4.611L65.834,108c0.179,0.051,0.37-0.007,0.491-0.147l6.885-8.072V121.973z
		 M56.63,89.57h16.58v9.012c-0.131,0.003-0.261,0.055-0.354,0.162l-7.051,8.267l-2.909-0.852c-0.196-0.059-0.407,0.02-0.521,0.189
		l-2.982,4.431l-2.67-2.577c-0.173-0.166-0.441-0.177-0.627-0.023l-3.306,2.715V93.008h3.84V89.57z"/>
	<path d="M71.851,96.936c0-0.157-0.127-0.282-0.282-0.282h-3.83c-0.154,0-0.282,0.125-0.282,0.282v2.757v4.056l4.395-5.15V96.936z"
		/>
	<path d="M67.738,116.324h3.83c0.155,0,0.282-0.127,0.282-0.282v-5.213v-0.866v-7.054l-4.395,5.15v5.226v2.757
		C67.456,116.197,67.584,116.324,67.738,116.324z"/>
	<path d="M60.616,112.288v1.779v1.975c0,0.155,0.125,0.282,0.282,0.282h3.828c0.157,0,0.282-0.127,0.282-0.282v-1.375v-5.54
		l-1.895-0.555L60.616,112.288z"/>
	<path d="M62.982,105.161l2.026,0.593v-3.019v-1.375c0-0.155-0.125-0.282-0.282-0.282h-3.828c-0.157,0-0.282,0.127-0.282,0.282
		v1.974v4.168l1.321-1.963C62.166,105.198,62.588,105.045,62.982,105.161z"/>
	<path d="M57.001,107.316l1.543,1.489v-1.83v-2.32c0-0.155-0.125-0.282-0.282-0.282h-3.828c-0.157,0-0.282,0.127-0.282,0.282v2.95
		v0.976l1.6-1.314C56.119,106.963,56.658,106.984,57.001,107.316z"/>
	<path d="M54.151,112.43v0.662v2.95c0,0.155,0.125,0.282,0.282,0.282h3.828c0.157,0,0.282-0.127,0.282-0.282v-3.209l-2.246-2.166
		L54.151,112.43z"/>
	<path d="M75.635,1.604H54.764l-4.398,4.342v32.908h25.27V1.604z M73.21,36.43H52.79v-9.995c0.105-0.002,0.209-0.036,0.295-0.107
		l3.284-2.698l2.773,2.675c0.102,0.097,0.237,0.142,0.377,0.129c0.138-0.015,0.263-0.091,0.341-0.204l3.103-4.612l2.871,0.841
		c0.179,0.052,0.37-0.007,0.491-0.146l6.885-8.072V36.43z M73.21,13.04c-0.131,0.002-0.261,0.054-0.354,0.161l-7.051,8.267
		l-2.909-0.852c-0.196-0.058-0.407,0.02-0.521,0.19l-2.982,4.43l-2.67-2.577c-0.173-0.166-0.441-0.177-0.627-0.023l-3.306,2.715
		V7.465h3.84V4.027h16.58V13.04z"/>
	<path d="M71.851,11.394c0-0.157-0.127-0.282-0.282-0.282h-3.83c-0.154,0-0.282,0.125-0.282,0.282v2.756v4.056l4.395-5.15V11.394z"
		/>
	<path d="M67.738,30.781h3.83c0.155,0,0.282-0.127,0.282-0.282v-5.213V24.42v-7.053l-4.395,5.15v5.226v2.756
		C67.456,30.654,67.584,30.781,67.738,30.781z"/>
	<path d="M60.616,26.745v1.78v1.974c0,0.155,0.125,0.282,0.282,0.282h3.828c0.157,0,0.282-0.127,0.282-0.282v-1.375v-5.54
		l-1.895-0.554L60.616,26.745z"/>
	<path d="M62.982,19.619l2.026,0.592v-3.019v-1.375c0-0.155-0.125-0.282-0.282-0.282h-3.828c-0.157,0-0.282,0.127-0.282,0.282v1.974
		v4.168l1.321-1.963C62.166,19.655,62.588,19.502,62.982,19.619z"/>
	<path d="M54.151,19.112v2.95v0.977l1.6-1.314c0.368-0.305,0.907-0.283,1.25,0.049l1.543,1.489v-1.829v-2.321
		c0-0.155-0.125-0.282-0.282-0.282h-3.828C54.276,18.83,54.151,18.957,54.151,19.112z"/>
	<path d="M54.151,26.888v0.661v2.95c0,0.155,0.125,0.282,0.282,0.282h3.828c0.157,0,0.282-0.127,0.282-0.282V27.29l-2.246-2.165
		L54.151,26.888z"/>
	<path d="M64.655,54.572V41.634h-3.311v12.938c-2.978,0.604-5.383,2.807-6.277,5.67H43.352v3.31h11.382
		c0.366,3.638,3.086,6.59,6.611,7.306v12.299h3.311V70.857c3.523-0.716,6.245-3.668,6.611-7.306h11.869v-3.31H70.933
		C70.038,57.379,67.633,55.177,64.655,54.572z M63,67.713c-2.756,0-4.999-2.242-4.999-4.998c0-2.757,2.243-4.999,4.999-4.999
		s4.997,2.242,4.997,4.999C67.997,65.471,65.756,67.713,63,67.713z"/>
</g>
</svg>
