<?xml version="1.0" encoding="utf-8"?>
<!-- Generator: Adobe Illustrator 16.0.0, SVG Export Plug-In . SVG Version: 6.00 Build 0)  -->
<!DOCTYPE svg PUBLIC "-//W3C//DTD SVG 1.1//EN" "http://www.w3.org/Graphics/SVG/1.1/DTD/svg11.dtd">
<svg version="1.1" id="Layer_1" xmlns="http://www.w3.org/2000/svg" xmlns:xlink="http://www.w3.org/1999/xlink" x="0px" y="0px"
	 width="50px" height="50px" viewBox="0 0 50 50" enable-background="new 0 0 50 50" xml:space="preserve">
<g>
	<path d="M27.957,25.718c0.875-0.589,1.632-1.414,2.233-2.353l-3.914,3.119c0.126-0.036,0.256-0.06,0.38-0.104l-1.098,1.257h-0.027
		l2.826,5.832L25,36.825l-3.357-3.357l2.826-5.832h-0.029l-1.098-1.259c0.157,0.057,0.32,0.091,0.482,0.133l-4.288-3.604
		c0.635,1.129,1.492,2.128,2.507,2.811c-5.184,1.315-9.026,5.816-9.026,9.151c0,3.943,23.967,3.943,23.967,0
		C36.983,31.534,33.142,27.033,27.957,25.718z"/>
	<polygon points="26.795,23.371 26.795,23.141 23.206,23.146 23.206,23.371 23.209,23.381 26.794,23.375 	"/>
	<path d="M25.001,25.167c0.863,0,1.552-0.623,1.722-1.438l-3.443,0.006C23.451,24.545,24.139,25.167,25.001,25.167z"/>
	<path d="M26.824,22.787c0.156-1.658,2.328-2.041,2.328-5.135c0-2.292-1.856-4.152-4.151-4.152c-2.294,0-4.153,1.86-4.153,4.152
		c0,3.099,2.183,3.479,2.326,5.14L26.824,22.787z M25.135,14.94c0.544-0.313,1.689,0.121,2.275,1.136
		c0.584,1.015,0.389,2.225-0.154,2.538c-0.539,0.313-0.255-0.949-0.841-1.964C25.828,15.636,24.595,15.253,25.135,14.94z"/>
</g>
</svg>
