<?xml version="1.0" encoding="utf-8"?>
<!-- Generator: Adobe Illustrator 16.0.0, SVG Export Plug-In . SVG Version: 6.00 Build 0)  -->
<!DOCTYPE svg PUBLIC "-//W3C//DTD SVG 1.1//EN" "http://www.w3.org/Graphics/SVG/1.1/DTD/svg11.dtd">
<svg version="1.1" id="Layer_1" xmlns="http://www.w3.org/2000/svg" xmlns:xlink="http://www.w3.org/1999/xlink" x="0px" y="0px"
	 width="50px" height="50px" viewBox="0 0 50 50" enable-background="new 0 0 50 50" xml:space="preserve">
<g>
	<path d="M21.257,18.359c1.604,0,2.905-1.86,2.905-3.464c0-1.604-1.302-2.905-2.905-2.905c-1.605,0-2.905,1.301-2.905,2.905
		C18.352,16.499,19.651,18.359,21.257,18.359z"/>
	<path d="M26.942,20.378c-0.02-0.081-0.037-0.164-0.076-0.238c-0.032-0.062-0.077-0.11-0.119-0.164
		c-0.049-0.064-0.094-0.127-0.154-0.182c-0.058-0.047-0.123-0.077-0.186-0.112c-0.058-0.032-0.101-0.077-0.163-0.1
		c-0.105-0.037-2.418-0.866-4.541-0.976l-0.294,0.585h-0.006l0.772,6.024l-0.919,1.606l-0.918-1.606l0.772-6.024h-0.008
		l-0.293-0.585c-2.123,0.11-4.436,0.939-4.539,0.976c-0.064,0.024-0.113,0.071-0.171,0.103c-0.06,0.036-0.122,0.063-0.177,0.107
		c-0.064,0.057-0.111,0.124-0.161,0.19c-0.038,0.051-0.084,0.097-0.113,0.156c-0.04,0.077-0.059,0.161-0.079,0.245
		c-0.014,0.052-0.044,0.097-0.049,0.153l-0.919,8.271c-0.07,0.63,0.384,1.197,1.014,1.267c0.043,0.005,0.087,0.009,0.129,0.009
		c0.578,0,1.073-0.436,1.14-1.024l0.837-7.534c0.098-0.028,0.204-0.06,0.318-0.093v7.842l-0.913,11.368
		c-0.061,0.759,0.504,1.424,1.263,1.485c0.038,0.003,0.075,0.004,0.113,0.004c0.709,0,1.313-0.547,1.372-1.267l0.827-10.275
		c0.168,0.076,0.357,0.118,0.555,0.118c0.198,0,0.388-0.042,0.556-0.118l0.827,10.275c0.059,0.72,0.662,1.267,1.372,1.267
		c0.038,0,0.075-0.001,0.113-0.004c0.759-0.061,1.323-0.726,1.263-1.485l-0.913-11.368v-7.842c0.114,0.033,0.22,0.064,0.318,0.093
		l0.837,7.534c0.066,0.588,0.562,1.024,1.14,1.024c0.042,0,0.086-0.003,0.129-0.009c0.63-0.07,1.084-0.637,1.014-1.267l-0.919-8.271
		C26.988,20.479,26.958,20.433,26.942,20.378z"/>
	<path d="M34.304,7.869h-7.897c-0.604,0-1.1,0.496-1.1,1.101v4.546c0,0.605,0.495,1.1,1.1,1.1h0.54l-1.532,2.321l4.359-2.321h4.53
		c0.605,0,1.101-0.495,1.101-1.1V8.969C35.404,8.364,34.909,7.869,34.304,7.869z M28.313,11.99c-0.345,0-0.625-0.28-0.625-0.625
		s0.28-0.625,0.625-0.625s0.625,0.28,0.625,0.625S28.658,11.99,28.313,11.99z M30.355,11.99c-0.345,0-0.625-0.28-0.625-0.625
		s0.28-0.625,0.625-0.625s0.625,0.28,0.625,0.625S30.7,11.99,30.355,11.99z M32.397,11.99c-0.345,0-0.625-0.28-0.625-0.625
		s0.28-0.625,0.625-0.625s0.625,0.28,0.625,0.625S32.742,11.99,32.397,11.99z"/>
</g>
</svg>
