<?xml version="1.0" encoding="utf-8"?>
<!-- Generator: Adobe Illustrator 17.0.0, SVG Export Plug-In . SVG Version: 6.00 Build 0)  -->
<!DOCTYPE svg PUBLIC "-//W3C//DTD SVG 1.1//EN" "http://www.w3.org/Graphics/SVG/1.1/DTD/svg11.dtd">
<svg version="1.1" id="Layer_1" xmlns="http://www.w3.org/2000/svg" xmlns:xlink="http://www.w3.org/1999/xlink" x="0px" y="0px"
	 width="126px" height="126px" viewBox="0 0 126 126" enable-background="new 0 0 126 126" xml:space="preserve">
<path fill="#010101" d="M80.605,35.141c9.304,0,16.868-7.569,16.868-16.871c0-9.301-7.564-16.868-16.868-16.868
	c-9.305,0-16.868,7.567-16.868,16.868C63.737,27.571,71.301,35.141,80.605,35.141z M80.605,4.5c7.592,0,13.768,6.179,13.768,13.77
	c0,7.592-6.176,13.768-13.768,13.768c-7.592,0-13.768-6.177-13.768-13.768S73.014,4.5,80.605,4.5z M44.863,35.141
	c9.3,0,16.87-7.569,16.87-16.87c0-9.3-7.57-16.869-16.87-16.869c-9.302,0-16.868,7.569-16.868,16.869S35.562,35.141,44.863,35.141z
	 M44.863,4.502c7.592,0,13.769,6.177,13.769,13.769c0,7.591-6.177,13.767-13.769,13.767c-7.592,0-13.768-6.176-13.768-13.767
	C31.096,10.679,37.271,4.502,44.863,4.502z M28.569,35.285c-9.303,0-16.87,7.566-16.87,16.868c0,9.301,7.567,16.868,16.87,16.868
	c9.302,0,16.868-7.567,16.868-16.868C45.438,42.852,37.871,35.285,28.569,35.285z M28.569,65.923
	c-7.592,0-13.769-6.177-13.769-13.77c0-7.593,6.177-13.769,13.769-13.769c7.591,0,13.768,6.176,13.768,13.769
	C42.337,59.746,36.16,65.923,28.569,65.923z M97.431,35.285c-9.3,0-16.868,7.566-16.868,16.868c0,9.301,7.568,16.87,16.868,16.87
	c9.302,0,16.87-7.569,16.87-16.87C114.301,42.852,106.732,35.285,97.431,35.285z M97.431,65.923c-7.589,0-13.768-6.177-13.768-13.77
	c0-7.591,6.179-13.769,13.768-13.769c7.592,0,13.769,6.178,13.769,13.769C111.199,59.746,105.022,65.923,97.431,65.923z
	 M26.376,42.641L20.6,59.081h3.739l1.188-3.897h5.969l1.188,3.897h3.741l-5.801-16.44H26.376z M26.399,52.272
	c1.167-3.77,1.872-6.134,2.118-7.089c0.058,0.269,0.157,0.636,0.296,1.096c0.138,0.463,0.756,2.462,1.854,5.993H26.399z
	 M49.956,24.84c1.079-0.837,1.617-2.002,1.617-3.495c0-1.052-0.228-1.896-0.688-2.53c-0.457-0.637-1.205-1.068-2.246-1.302v-0.111
	c0.766-0.127,1.373-0.503,1.834-1.129c0.457-0.629,0.687-1.433,0.687-2.408c0-1.443-0.522-2.494-1.57-3.153
	c-1.052-0.662-2.736-0.991-5.057-0.991h-5.096v16.373h6.126C47.411,26.093,48.877,25.673,49.956,24.84z M42.906,12.563h1.825
	c0.995,0,1.719,0.137,2.181,0.409c0.456,0.272,0.686,0.723,0.686,1.35c0,0.672-0.21,1.154-0.631,1.444
	c-0.423,0.291-1.103,0.438-2.044,0.438h-2.017V12.563z M42.906,23.226v-4.267h2.15c1.942,0,2.913,0.68,2.913,2.039
	c0,0.754-0.229,1.313-0.685,1.678c-0.454,0.367-1.16,0.55-2.118,0.55H42.906z M76.001,24.155c-1.262-1.446-1.894-3.519-1.894-6.222
	c0-1.703,0.311-3.194,0.932-4.474c0.618-1.281,1.51-2.263,2.67-2.944c1.162-0.684,2.522-1.025,4.082-1.025
	c1.592,0,3.189,0.384,4.795,1.154l-1.121,2.821c-0.611-0.29-1.229-0.546-1.847-0.762c-0.62-0.217-1.227-0.324-1.827-0.324
	c-1.306,0-2.318,0.491-3.034,1.472c-0.718,0.981-1.073,2.349-1.073,4.105c0,3.652,1.368,5.476,4.107,5.476
	c1.152,0,2.543-0.288,4.177-0.861v2.91c-1.343,0.562-2.843,0.841-4.502,0.841C79.084,26.322,77.264,25.6,76.001,24.155z
	 M97.59,43.966h-5.142v16.375h4.637c2.897,0,5.114-0.718,6.647-2.151c1.532-1.433,2.302-3.498,2.302-6.193
	c0-2.53-0.739-4.502-2.219-5.913C102.339,44.672,100.264,43.966,97.59,43.966z M97.412,57.474H95.92V46.812h1.849
	c3.106,0,4.659,1.757,4.659,5.273C102.428,55.677,100.754,57.474,97.412,57.474z M50.139,59.194l-3.616-2.149l1.058-1.779
	l3.616,2.149L50.139,59.194z M78.745,56.427l1.055,1.776l-3.617,2.149l-1.055-1.776L78.745,56.427z M69.281,45.611l5.985-9.804
	l1.762,1.076l-5.985,9.804L69.281,45.611z M50.181,35.291l5.985,9.803l-1.765,1.078l-5.985-9.803L50.181,35.291z M63.399,48.698
	c4.334,0,7.851,3.517,7.851,7.854c0,4.336-3.517,7.854-7.851,7.854c-4.34,0-7.857-3.518-7.857-7.854
	C55.542,52.215,59.059,48.697,63.399,48.698z M68.62,66.316c-0.13-0.079-0.271-0.138-0.406-0.195
	c-0.875-0.584-1.859-1.014-2.862-1.261L63.4,66.831l-1.9-1.992c-0.007,0.001-0.013,0.003-0.02,0.003
	c-1.005,0.241-1.992,0.668-2.872,1.25c-0.155,0.063-0.313,0.134-0.464,0.225c-6.098,3.74-9.599,6.697-10.681,24.004
	c-0.104,1.682,1.177,3.13,2.854,3.235c0.068,0.003,0.132,0.005,0.193,0.005c1.598,0,2.94-1.242,3.043-2.858
	c0.365-5.843,0.956-9.63,1.806-12.24v10.562c0,0.822,0.157,1.587,0.438,2.289c-0.021,0.16-0.038,0.321-0.038,0.483l0.007,29.198
	c0,1.99,1.61,3.604,3.602,3.604c1.99,0,3.604-1.614,3.604-3.604l-0.003-25.058c0.143,0.007,0.287,0.018,0.432,0.018
	c0.025,0,0.053-0.003,0.081-0.004v25.044c0,1.99,1.612,3.604,3.604,3.604c1.99,0,3.604-1.614,3.604-3.604l0.002-29.019
	c0.472-0.875,0.748-1.866,0.748-2.952V78.55c0.832,2.608,1.415,6.374,1.776,12.152c0.1,1.616,1.444,2.858,3.04,2.858
	c0.063,0,0.13-0.002,0.191-0.005c1.681-0.105,2.957-1.554,2.854-3.235C78.219,73.014,74.718,70.057,68.62,66.316z M63.414,82.375
	h-0.036l-1.893-2.592l1.893-12.661h0.036l1.896,12.661L63.414,82.375z"/>
</svg>
