<?xml version="1.0" encoding="utf-8"?>
<!-- Generator: Adobe Illustrator 16.0.0, SVG Export Plug-In . SVG Version: 6.00 Build 0)  -->
<!DOCTYPE svg PUBLIC "-//W3C//DTD SVG 1.1//EN" "http://www.w3.org/Graphics/SVG/1.1/DTD/svg11.dtd">
<svg version="1.1" id="Layer_1" xmlns="http://www.w3.org/2000/svg" xmlns:xlink="http://www.w3.org/1999/xlink" x="0px" y="0px"
	 width="50px" height="50px" viewBox="0 0 50 50" enable-background="new 0 0 50 50" xml:space="preserve">
<g>
	<g>
		<path d="M15.469,18.447c1.206,0,2.187-1.4,2.187-2.607c0-1.208-0.98-2.188-2.187-2.188c-1.208,0-2.188,0.979-2.188,2.188
			C13.28,17.047,14.261,18.447,15.469,18.447z"/>
		<path d="M19.75,19.971c-0.017-0.063-0.029-0.126-0.06-0.184c-0.022-0.044-0.056-0.078-0.084-0.116
			c-0.039-0.052-0.074-0.103-0.124-0.145c-0.039-0.032-0.085-0.053-0.129-0.079c-0.045-0.025-0.081-0.061-0.131-0.079
			c-0.079-0.028-1.819-0.652-3.419-0.734l-0.221,0.439h-0.005l0.582,4.536l-0.691,1.209l-0.692-1.209l0.582-4.536h-0.006
			l-0.22-0.439c-1.6,0.082-3.34,0.706-3.419,0.734c-0.05,0.019-0.088,0.055-0.132,0.081c-0.043,0.025-0.089,0.045-0.126,0.077
			c-0.052,0.043-0.088,0.095-0.128,0.147c-0.028,0.037-0.06,0.07-0.081,0.111c-0.031,0.06-0.044,0.123-0.062,0.188
			c-0.01,0.038-0.031,0.071-0.036,0.112l-0.691,6.227c-0.053,0.475,0.289,0.902,0.764,0.955c0.032,0.004,0.064,0.006,0.097,0.006
			c0.435,0,0.809-0.327,0.858-0.77l0.63-5.673c0.074-0.021,0.154-0.045,0.24-0.069v5.903l-0.688,8.56
			c-0.046,0.571,0.38,1.071,0.951,1.117c0.028,0.003,0.056,0.004,0.084,0.004c0.535,0,0.989-0.412,1.033-0.955l0.623-7.735
			c0.128,0.057,0.27,0.09,0.419,0.09s0.29-0.033,0.419-0.09l0.622,7.735c0.044,0.543,0.498,0.955,1.033,0.955
			c0.028,0,0.056-0.001,0.084-0.004c0.571-0.046,0.997-0.546,0.951-1.117l-0.688-8.56v-5.903c0.086,0.024,0.166,0.048,0.24,0.069
			l0.63,5.673c0.05,0.442,0.424,0.77,0.858,0.77c0.032,0,0.064-0.002,0.097-0.006c0.475-0.053,0.817-0.48,0.765-0.955l-0.692-6.227
			C19.782,20.044,19.76,20.01,19.75,19.971z"/>
	</g>
	<g>
		<g>
			<path d="M36.535,15.524c0.724-0.485,1.223-1.447,1.223-2.311c0-1.221-0.99-2.21-2.21-2.21s-2.21,0.989-2.21,2.21
				c0,0.863,0.499,1.825,1.223,2.311c-1.73,0.439-3.014,1.942-3.014,3.057c0,1.315,8.001,1.315,8.001,0
				C39.548,17.467,38.266,15.964,36.535,15.524z M35.548,19.566l-1.121-1.119l0.943-2.282h-0.01l-0.366-0.419
				c0.178,0.063,0.362,0.102,0.554,0.102s0.376-0.038,0.553-0.102l-0.366,0.419h-0.009l0.943,2.282L35.548,19.566z"/>
			<path d="M36.535,25.238c0.724-0.485,1.223-1.447,1.223-2.311c0-1.221-0.99-2.21-2.21-2.21s-2.21,0.989-2.21,2.21
				c0,0.863,0.499,1.825,1.223,2.311c-1.73,0.439-3.014,1.942-3.014,3.057c0,1.315,8.001,1.315,8.001,0
				C39.548,27.181,38.266,25.678,36.535,25.238z M35.548,29.28l-1.121-1.119l0.943-2.282h-0.01l-0.366-0.419
				c0.178,0.063,0.362,0.102,0.554,0.102s0.376-0.038,0.553-0.102l-0.366,0.419h-0.009l0.943,2.282L35.548,29.28z"/>
			<path d="M36.535,34.952c0.724-0.485,1.223-1.447,1.223-2.311c0-1.221-0.99-2.21-2.21-2.21s-2.21,0.989-2.21,2.21
				c0,0.863,0.499,1.825,1.223,2.311c-1.73,0.439-3.014,1.942-3.014,3.057c0,1.315,8.001,1.315,8.001,0
				C39.548,36.895,38.266,35.392,36.535,34.952z M35.548,38.994l-1.121-1.119l0.943-2.282h-0.01l-0.366-0.419
				c0.178,0.063,0.362,0.102,0.554,0.102s0.376-0.038,0.553-0.102l-0.366,0.419h-0.009l0.943,2.282L35.548,38.994z"/>
		</g>
		<polygon points="30.962,15.747 30.962,14.819 24.158,14.819 24.158,24.538 21.171,24.538 21.171,25.463 24.158,25.463 
			24.158,35.182 30.962,35.182 30.962,34.254 25.084,34.254 25.084,25.464 30.962,25.464 30.962,24.538 25.084,24.538 
			25.084,15.747 		"/>
	</g>
</g>
</svg>
