<?xml version="1.0" encoding="utf-8"?>
<!-- Generator: Adobe Illustrator 16.0.0, SVG Export Plug-In . SVG Version: 6.00 Build 0)  -->
<!DOCTYPE svg PUBLIC "-//W3C//DTD SVG 1.1//EN" "http://www.w3.org/Graphics/SVG/1.1/DTD/svg11.dtd">
<svg version="1.1" id="Layer_1" xmlns="http://www.w3.org/2000/svg" xmlns:xlink="http://www.w3.org/1999/xlink" x="0px" y="0px"
	 width="126px" height="126px" viewBox="0 0 126 126" enable-background="new 0 0 126 126" xml:space="preserve">
<g>
	<circle cx="62.787" cy="13.914" r="12.809"/>
	<path d="M71.309,29.841c-0.217-0.132-0.443-0.228-0.67-0.323c-1.427-0.951-3.027-1.651-4.661-2.051l-3.189,3.212l-3.094-3.248
		c-0.011,0.003-0.021,0.003-0.032,0.007c-1.666,0.398-3.301,1.113-4.752,2.086c-0.222,0.095-0.445,0.188-0.656,0.318
		C35.752,41.189,36.74,47.532,37.065,49.616c0.78,4.998,4.316,14.292,8.052,21.157c0.901,1.657,2.609,2.597,4.373,2.597
		c0.28,0,0.563-0.033,0.844-0.082l0.003,45.728c0,3.247,2.631,5.877,5.877,5.877c3.247-0.001,5.878-2.632,5.878-5.877l-0.004-40.868
		c0.233,0.011,0.466,0.029,0.7,0.029c0.849,0,1.69-0.073,2.515-0.212c2.728,4.963,6.604,12.431,7.814,16.48
		c1.184,3.962-0.082,16.169-1.358,23.571c-0.552,3.198,1.593,6.239,4.79,6.791c0.34,0.058,0.676,0.086,1.008,0.086
		c2.806,0,5.29-2.016,5.785-4.875c0.592-3.429,3.429-20.939,1.037-28.94c-1.442-4.827-5.169-12.135-7.892-17.164
		c0.601,0.241,1.226,0.359,1.843,0.359c1.765,0,3.472-0.94,4.374-2.599c4.171-7.666,5.236-14.931,5.942-19.737
		c0.104-0.702,0.2-1.36,0.299-1.966C89.541,46.339,88.359,40.3,71.309,29.841z M49.677,56.998c-1.339-3.385-2.322-6.475-2.701-8.444
		c0.328-0.664,1.235-1.738,2.701-3.088V56.998z M62.818,56.03h-0.06l-3.089-4.227l3.089-20.648h0.06l3.089,20.648L62.818,56.03z
		 M78.806,50.495c-0.491,3.347-1.134,7.646-2.907,12.229V45.338c1.806,1.596,2.828,2.804,3.158,3.493
		C78.975,49.355,78.893,49.91,78.806,50.495z"/>
</g>
</svg>
