<?xml version="1.0" encoding="utf-8"?>
<!-- Generator: Adobe Illustrator 16.0.0, SVG Export Plug-In . SVG Version: 6.00 Build 0)  -->
<!DOCTYPE svg PUBLIC "-//W3C//DTD SVG 1.1//EN" "http://www.w3.org/Graphics/SVG/1.1/DTD/svg11.dtd">
<svg version="1.1" id="Layer_1" xmlns="http://www.w3.org/2000/svg" xmlns:xlink="http://www.w3.org/1999/xlink" x="0px" y="0px"
	 width="50px" height="50px" viewBox="0 0 50 50" enable-background="new 0 0 50 50" xml:space="preserve">
<g>
	<path d="M25,7.879c-6.593,0-11.956,5.363-11.956,11.955c0,5.32,1.935,9.051,5.6,10.803c0.227,0.364,0.46,0.76,0.572,1.126
		c0.128,0.419,0.229,0.829,0.324,1.221c0.36,1.476,0.714,2.893,2.241,3.667c-0.376,0.094-0.661,0.419-0.661,0.821v1.316
		c0,0.474,0.318,1.084,0.707,1.354l2.557,1.78c0.389,0.271,1.021,0.264,1.403-0.016l2.396-1.749c0.383-0.279,0.696-0.896,0.696-1.37
		v-1.316c0-0.402-0.285-0.727-0.659-0.821c1.525-0.773,1.877-2.188,2.237-3.662c0.097-0.394,0.197-0.805,0.326-1.228
		c0.11-0.363,0.337-0.748,0.571-1.126c3.666-1.751,5.601-5.481,5.601-10.802C36.956,13.242,31.593,7.879,25,7.879z M25.002,35.963
		c-0.402,0-0.758-0.018-1.079-0.05c0.025-0.076,0.058-0.148,0.064-0.232l0.605-7.524c0.124,0.055,0.263,0.087,0.407,0.087
		s0.283-0.032,0.407-0.087l0.605,7.524c0.007,0.083,0.039,0.157,0.064,0.232C25.758,35.946,25.402,35.963,25.002,35.963z
		 M30.643,29.542l-0.179,0.082l-0.104,0.165c-0.299,0.478-0.638,1.019-0.814,1.597c-0.136,0.446-0.242,0.88-0.344,1.297
		c-0.284,1.161-0.501,2.033-1.197,2.586l-0.649-8.074v-5.742c0.083,0.024,0.161,0.046,0.233,0.068l0.613,5.518
		c0.048,0.43,0.412,0.748,0.835,0.748c0.031,0,0.062-0.001,0.093-0.005c0.463-0.051,0.795-0.467,0.744-0.929l-0.673-6.057
		c-0.005-0.041-0.026-0.073-0.036-0.112c-0.017-0.062-0.029-0.123-0.059-0.179c-0.021-0.042-0.054-0.075-0.081-0.112
		c-0.038-0.05-0.073-0.1-0.121-0.141c-0.037-0.032-0.082-0.051-0.125-0.077c-0.044-0.025-0.079-0.06-0.128-0.077
		c-0.076-0.027-1.77-0.635-3.325-0.714l-0.214,0.428h-0.006l0.566,4.412L25,25.398l-0.673-1.176l0.566-4.412h-0.007l-0.214-0.428
		c-1.555,0.08-3.248,0.687-3.324,0.714c-0.05,0.018-0.086,0.053-0.129,0.079c-0.042,0.024-0.087,0.043-0.123,0.075
		c-0.05,0.042-0.085,0.093-0.124,0.144c-0.027,0.036-0.058,0.068-0.078,0.108c-0.03,0.057-0.043,0.119-0.061,0.182
		c-0.009,0.038-0.03,0.07-0.035,0.11l-0.673,6.057c-0.051,0.461,0.281,0.877,0.744,0.929c0.03,0.004,0.062,0.005,0.093,0.005
		c0.423,0,0.787-0.318,0.836-0.748l0.612-5.518c0.072-0.021,0.15-0.044,0.233-0.068v5.742l-0.649,8.073
		c-0.697-0.554-0.915-1.428-1.198-2.59c-0.103-0.414-0.208-0.847-0.344-1.292c-0.182-0.586-0.518-1.124-0.816-1.597l-0.104-0.164
		l-0.177-0.081c-4.148-1.883-5.02-6.319-5.02-9.709c0-5.879,4.784-10.661,10.663-10.661s10.663,4.782,10.663,10.661
		C35.663,23.224,34.792,27.66,30.643,29.542z"/>
	<path d="M25,14.537c-1.176,0-2.128,0.953-2.128,2.127c0,1.174,0.952,2.536,2.128,2.536c1.174,0,2.127-1.362,2.127-2.536
		C27.127,15.49,26.174,14.537,25,14.537z"/>
</g>
</svg>
