<?xml version="1.0" encoding="utf-8"?>
<!-- Generator: Adobe Illustrator 16.0.0, SVG Export Plug-In . SVG Version: 6.00 Build 0)  -->
<!DOCTYPE svg PUBLIC "-//W3C//DTD SVG 1.1//EN" "http://www.w3.org/Graphics/SVG/1.1/DTD/svg11.dtd">
<svg version="1.1" id="Layer_1" xmlns="http://www.w3.org/2000/svg" xmlns:xlink="http://www.w3.org/1999/xlink" x="0px" y="0px"
	 width="50px" height="50px" viewBox="0 0 50 50" enable-background="new 0 0 50 50" xml:space="preserve">
<g>
	<path d="M32.225,30.949c0-2.01-2.316-4.724-5.441-5.517c1.307-0.879,2.207-2.612,2.207-4.174c0-2.204-1.787-3.99-3.99-3.99
		s-3.988,1.786-3.988,3.99c0,1.562,0.898,3.295,2.207,4.174c-3.125,0.793-5.441,3.506-5.441,5.517
		C17.777,33.326,32.225,33.326,32.225,30.949z M25,32.731l-2.023-2.023l1.703-4.118h-0.018L24,25.831
		c0.32,0.115,0.654,0.185,1,0.185s0.68-0.069,0.998-0.184l-0.66,0.758H25.32l1.703,4.118L25,32.731z"/>
	<polygon points="14.395,15.55 16.851,18.006 18.006,16.85 15.551,14.394 16.429,13.516 12.463,12.463 13.515,16.43 	"/>
	<polygon points="35.605,34.452 33.15,31.996 31.994,33.152 34.45,35.607 33.571,36.486 37.538,37.538 36.485,33.572 	"/>
	<polygon points="16.849,31.994 14.394,34.45 13.515,33.571 12.463,37.538 16.429,36.485 15.549,35.605 18.005,33.15 	"/>
	<polygon points="33.151,18.006 35.607,15.551 36.485,16.429 37.538,12.463 33.571,13.515 34.451,14.395 31.995,16.851 	"/>
</g>
</svg>
