<?xml version="1.0" encoding="utf-8"?>
<!-- Generator: Adobe Illustrator 16.0.0, SVG Export Plug-In . SVG Version: 6.00 Build 0)  -->
<!DOCTYPE svg PUBLIC "-//W3C//DTD SVG 1.1//EN" "http://www.w3.org/Graphics/SVG/1.1/DTD/svg11.dtd">
<svg version="1.1" id="Layer_1" xmlns="http://www.w3.org/2000/svg" xmlns:xlink="http://www.w3.org/1999/xlink" x="0px" y="0px"
	 width="126px" height="126px" viewBox="0 0 126 126" enable-background="new 0 0 126 126" xml:space="preserve">
<g>
	<path d="M104.997,44.621c5.007,0,9.069-4.063,9.069-9.073s-4.063-9.073-9.069-9.073c-5.015,0-9.077,4.063-9.077,9.073
		S99.982,44.621,104.997,44.621z"/>
	<path d="M111.028,46.829c-0.15-0.092-0.312-0.159-0.469-0.226c-1.012-0.676-2.148-1.171-3.307-1.457l-2.256,2.276l-2.194-2.301
		c-0.008,0.001-0.015,0.004-0.022,0.004c-1.161,0.278-2.302,0.771-3.318,1.442c-0.179,0.074-0.36,0.155-0.535,0.261
		c-7.045,4.32-11.09,7.737-12.339,27.73c-0.121,1.943,1.359,3.616,3.296,3.737c0.079,0.004,0.152,0.006,0.224,0.006
		c1.846,0,3.397-1.436,3.515-3.303c0.423-6.75,1.104-11.124,2.087-14.141v12.202c0,0.95,0.182,1.833,0.506,2.645
		c-0.025,0.185-0.045,0.371-0.045,0.559l0.008,33.731c0,2.3,1.86,4.164,4.16,4.164c2.301,0,4.163-1.864,4.163-4.164l-0.002-28.948
		c0.164,0.008,0.331,0.021,0.498,0.021c0.029,0,0.062-0.004,0.093-0.005v28.933c0,2.3,1.863,4.164,4.163,4.164
		c2.301,0,4.163-1.864,4.163-4.164l0.003-33.524c0.545-1.011,0.864-2.156,0.864-3.41V60.961c0.962,3.014,1.635,7.364,2.052,14.039
		c0.115,1.867,1.669,3.303,3.513,3.303c0.073,0,0.149-0.002,0.221-0.006c1.941-0.121,3.417-1.794,3.297-3.737
		C122.118,54.566,118.072,51.149,111.028,46.829z M105.015,65.381h-0.042l-2.188-2.994l2.188-14.627h0.042l2.189,14.627
		L105.015,65.381z"/>
	<path d="M8.891,52.311c0,3.558,2.883,6.441,6.445,6.441c3.554,0,6.439-2.884,6.439-6.441c0-3.557-2.886-6.442-6.439-6.442
		C11.773,45.868,8.891,48.754,8.891,52.311z"/>
	<path d="M19.617,60.32c-0.106-0.064-0.222-0.113-0.332-0.16c-0.72-0.48-1.525-0.832-2.35-1.035l-1.6,1.617l-1.56-1.634
		c-0.005,0.001-0.01,0.002-0.016,0.002c-0.823,0.198-1.634,0.548-2.355,1.025c-0.127,0.053-0.256,0.108-0.379,0.185
		c-4.456,2.732-7.222,4.964-8.398,15.453h5.029c0.278-2.349,0.637-4.121,1.084-5.492v5.492h13.187v-5.42
		c0.436,1.361,0.785,3.111,1.06,5.42h5.024C26.838,65.284,24.074,63.053,19.617,60.32z M15.348,73.492h-0.029l-1.553-2.127
		l1.553-10.384h0.029l1.554,10.384L15.348,73.492z"/>
	<path d="M34.276,52.311c0,3.558,2.884,6.441,6.444,6.441c3.556,0,6.438-2.884,6.438-6.441c0-3.557-2.883-6.442-6.438-6.442
		C37.16,45.868,34.276,48.754,34.276,52.311z"/>
	<path d="M45.002,60.32c-0.105-0.064-0.221-0.113-0.333-0.16c-0.718-0.48-1.524-0.832-2.347-1.035l-1.602,1.617l-1.559-1.634
		c-0.005,0.001-0.01,0.002-0.016,0.002c-0.825,0.198-1.635,0.548-2.355,1.025c-0.128,0.053-0.257,0.108-0.381,0.185
		c-4.456,2.732-7.22,4.964-8.398,15.453h5.031c0.278-2.349,0.637-4.121,1.084-5.492v5.492h13.186v-5.42
		c0.436,1.361,0.785,3.111,1.061,5.42h5.025C52.222,65.284,49.458,63.053,45.002,60.32z M40.732,73.492h-0.03l-1.552-2.127
		l1.552-10.384h0.03l1.555,10.384L40.732,73.492z"/>
	<path d="M27.93,44.077c11.965,0,21.697-9.732,21.697-21.696c0-11.965-9.732-21.697-21.697-21.697
		c-11.964,0-21.696,9.732-21.696,21.697C6.233,34.345,15.966,44.077,27.93,44.077z M27.93,6.444c8.789,0,15.938,7.148,15.938,15.937
		S36.719,38.317,27.93,38.317c-8.787,0-15.937-7.148-15.937-15.937S19.143,6.444,27.93,6.444z"/>
	<polygon points="39.117,20.076 30.234,20.076 30.234,10.765 25.626,10.765 25.626,24.685 39.117,24.685 	"/>
	<path d="M47.576,105.769l-2.377-0.877c0.187-1.733,0.127-3.499-0.2-5.257l2.295-1.058c1.435-0.658,2.063-2.364,1.402-3.799
		l-1.341-2.908c-0.66-1.433-2.362-2.064-3.795-1.403l-2.297,1.061c-1.123-1.392-2.428-2.586-3.865-3.571l0.878-2.374
		c0.545-1.479-0.214-3.131-1.694-3.678l-3.005-1.111c-1.435-0.527-3.148,0.262-3.676,1.694l-0.878,2.376
		c-1.731-0.185-3.499-0.124-5.257,0.2l-1.058-2.296c-0.66-1.433-2.365-2.062-3.797-1.402l-2.91,1.34
		c-1.434,0.662-2.063,2.367-1.403,3.799l1.059,2.295c-1.389,1.126-2.585,2.428-3.57,3.867l-2.372-0.877
		c-1.433-0.533-3.148,0.256-3.68,1.692l-1.108,3.007c-0.266,0.717-0.234,1.494,0.085,2.189c0.321,0.692,0.893,1.221,1.607,1.483
		l2.377,0.88c-0.188,1.73-0.126,3.501,0.2,5.257l-2.298,1.058c-1.432,0.66-2.061,2.363-1.401,3.795l1.342,2.912
		c0.66,1.432,2.362,2.063,3.796,1.4l2.298-1.058c1.123,1.391,2.425,2.586,3.866,3.57l-0.878,2.375
		c-0.268,0.717-0.237,1.493,0.085,2.188c0.317,0.694,0.89,1.224,1.606,1.491l3.007,1.108c0.715,0.264,1.493,0.232,2.188-0.085
		c0.694-0.32,1.222-0.893,1.485-1.609l0.879-2.377c1.732,0.188,3.501,0.126,5.257-0.198l1.057,2.296
		c0.66,1.431,2.365,2.062,3.798,1.4l2.909-1.341c1.437-0.66,2.063-2.362,1.401-3.797l-1.058-2.295
		c1.391-1.126,2.587-2.427,3.569-3.866l2.376,0.879c0.719,0.267,1.496,0.234,2.191-0.086c0.694-0.32,1.221-0.892,1.485-1.606
		l1.109-3.007C49.815,107.966,49.057,106.316,47.576,105.769z M31.834,113.247c-1.5,0.69-3.093,1.039-4.732,1.039
		c-4.406,0-8.442-2.586-10.285-6.584c-2.61-5.67-0.122-12.405,5.545-15.015c1.5-0.692,3.091-1.041,4.729-1.041
		c4.405,0,8.444,2.583,10.287,6.583C39.988,103.899,37.5,110.635,31.834,113.247z"/>
	<polygon points="71.873,61.155 71.873,12.604 57.162,12.604 57.162,15.793 68.684,15.793 68.684,61.155 57.162,61.155 
		57.162,65.081 68.684,65.081 68.684,114.545 57.162,114.545 57.162,117.735 71.873,117.735 71.873,65.081 85.248,65.081 
		85.021,61.155 	"/>
</g>
</svg>
