<?xml version="1.0" encoding="utf-8"?>
<!-- Generator: Adobe Illustrator 16.0.0, SVG Export Plug-In . SVG Version: 6.00 Build 0)  -->
<!DOCTYPE svg PUBLIC "-//W3C//DTD SVG 1.1//EN" "http://www.w3.org/Graphics/SVG/1.1/DTD/svg11.dtd">
<svg version="1.1" id="Layer_1" xmlns="http://www.w3.org/2000/svg" xmlns:xlink="http://www.w3.org/1999/xlink" x="0px" y="0px"
	 width="126px" height="126px" viewBox="0 0 126 126" enable-background="new 0 0 126 126" xml:space="preserve">
<g>
	<circle cx="50.795" cy="89.627" r="4.053"/>
	<path d="M53.49,94.667c-0.066-0.042-0.138-0.071-0.209-0.103c-0.452-0.301-0.959-0.522-1.478-0.649l-1.009,1.017l-0.979-1.028
		c-0.003,0-0.006,0.001-0.01,0.001c-0.52,0.125-1.029,0.345-1.482,0.646c-0.081,0.032-0.161,0.068-0.238,0.116
		c-3.147,1.93-4.954,3.456-5.512,12.386c-0.055,0.869,0.605,1.615,1.472,1.669c0.035,0.002,0.067,0.003,0.1,0.003
		c0.824,0,1.518-0.641,1.569-1.476c0.188-3.016,0.494-4.969,0.933-6.317v5.452c0,0.424,0.082,0.819,0.227,1.181
		c-0.013,0.082-0.02,0.165-0.02,0.25l0.002,15.068c0,1.027,0.832,1.859,1.859,1.859c1.026,0,1.859-0.832,1.859-1.859l-0.001-12.931
		c0.074,0.004,0.148,0.009,0.221,0.009c0.015,0,0.03-0.001,0.044-0.002v12.924c0,1.027,0.832,1.859,1.86,1.859
		c1.026,0,1.858-0.832,1.858-1.859l0.001-14.975c0.243-0.452,0.387-0.962,0.387-1.523v-5.406c0.43,1.346,0.729,3.29,0.916,6.271
		c0.052,0.834,0.745,1.476,1.568,1.476c0.034,0,0.067-0.001,0.1-0.003c0.867-0.054,1.525-0.801,1.474-1.669
		C58.444,98.123,56.638,96.597,53.49,94.667z M50.806,102.954h-0.02l-0.977-1.337l0.977-6.535h0.02l0.978,6.535L50.806,102.954z"/>
	<circle cx="67.258" cy="89.627" r="4.053"/>
	<path d="M69.953,94.667c-0.068-0.042-0.139-0.071-0.21-0.103c-0.453-0.301-0.959-0.522-1.477-0.649l-1.01,1.017l-0.978-1.028
		c-0.005,0-0.007,0.001-0.011,0.001c-0.52,0.125-1.028,0.345-1.481,0.646c-0.082,0.032-0.162,0.068-0.239,0.116
		c-3.147,1.93-4.954,3.456-5.512,12.386c-0.055,0.869,0.605,1.615,1.472,1.669c0.035,0.002,0.067,0.003,0.101,0.003
		c0.823,0,1.517-0.641,1.568-1.476c0.188-3.016,0.494-4.969,0.933-6.317v5.452c0,0.424,0.082,0.819,0.227,1.181
		c-0.012,0.082-0.02,0.165-0.02,0.25l0.002,15.068c0,1.027,0.832,1.859,1.859,1.859s1.859-0.832,1.859-1.859l-0.001-12.931
		c0.073,0.004,0.148,0.009,0.221,0.009c0.015,0,0.029-0.001,0.043-0.002v12.924c0,1.027,0.834,1.859,1.86,1.859
		c1.027,0,1.859-0.832,1.859-1.859l0.001-14.975c0.242-0.452,0.387-0.962,0.387-1.523v-5.406c0.43,1.346,0.729,3.29,0.915,6.271
		c0.053,0.834,0.746,1.476,1.57,1.476c0.033,0,0.065-0.001,0.098-0.003c0.868-0.054,1.526-0.801,1.475-1.669
		C74.906,98.123,73.1,96.597,69.953,94.667z M67.268,102.954h-0.02l-0.977-1.337l0.977-6.535h0.02l0.978,6.535L67.268,102.954z"/>
	<circle cx="83.866" cy="89.627" r="4.053"/>
	<path d="M86.562,94.667c-0.067-0.042-0.14-0.071-0.209-0.103c-0.453-0.301-0.959-0.522-1.478-0.649l-1.009,1.017l-0.979-1.028
		c-0.004,0-0.007,0.001-0.011,0.001c-0.519,0.125-1.027,0.345-1.482,0.646c-0.08,0.032-0.16,0.068-0.238,0.116
		c-3.146,1.93-4.954,3.456-5.512,12.386c-0.055,0.869,0.605,1.615,1.473,1.669c0.034,0.002,0.066,0.003,0.099,0.003
		c0.825,0,1.519-0.641,1.569-1.476c0.189-3.016,0.495-4.969,0.933-6.317v5.452c0,0.424,0.081,0.819,0.226,1.181
		c-0.011,0.082-0.018,0.165-0.018,0.25l0.001,15.068c0,1.027,0.832,1.859,1.859,1.859c1.026,0,1.86-0.832,1.86-1.859l-0.001-12.931
		c0.073,0.004,0.146,0.009,0.221,0.009c0.015,0,0.028-0.001,0.043-0.002v12.924c0,1.027,0.832,1.859,1.858,1.859
		c1.028,0,1.86-0.832,1.86-1.859l0.001-14.975c0.243-0.452,0.387-0.962,0.387-1.523v-5.406c0.43,1.346,0.73,3.29,0.916,6.271
		c0.053,0.834,0.746,1.476,1.568,1.476c0.034,0,0.067-0.001,0.1-0.003c0.868-0.054,1.526-0.801,1.474-1.669
		C91.516,98.123,89.709,96.597,86.562,94.667z M83.876,102.954h-0.02l-0.977-1.337l0.977-6.535h0.02l0.978,6.535L83.876,102.954z"/>
	<circle cx="67.258" cy="47.96" r="4.053"/>
	<path d="M69.953,52.999c-0.068-0.041-0.139-0.07-0.21-0.1c-0.453-0.301-0.959-0.523-1.477-0.651l-1.01,1.017l-0.978-1.027
		c-0.005,0-0.007,0.001-0.011,0.001c-0.52,0.125-1.028,0.345-1.481,0.646c-0.082,0.032-0.162,0.068-0.239,0.115
		c-3.147,1.931-4.954,3.458-5.512,12.388c-0.055,0.869,0.605,1.615,1.472,1.669c0.035,0.002,0.067,0.003,0.101,0.003
		c0.823,0,1.517-0.642,1.568-1.475c0.188-3.016,0.494-4.97,0.933-6.318v5.452c0,0.424,0.082,0.818,0.227,1.181
		c-0.012,0.081-0.02,0.165-0.02,0.25l0.002,15.068c0,1.026,0.832,1.86,1.859,1.86s1.859-0.833,1.859-1.86l-0.001-12.932
		c0.073,0.003,0.148,0.009,0.221,0.009c0.015,0,0.029-0.002,0.043-0.002v12.924c0,1.026,0.834,1.86,1.86,1.86
		c1.027,0,1.859-0.833,1.859-1.86l0.001-14.975c0.242-0.452,0.387-0.963,0.387-1.523v-5.406c0.43,1.346,0.729,3.29,0.915,6.271
		c0.053,0.833,0.746,1.475,1.57,1.475c0.033,0,0.065-0.001,0.098-0.003c0.868-0.054,1.526-0.801,1.475-1.669
		C74.906,56.456,73.1,54.929,69.953,52.999z M67.268,61.287h-0.02l-0.977-1.338l0.977-6.534h0.02l0.978,6.534L67.268,61.287z"/>
	<circle cx="83.866" cy="47.96" r="4.053"/>
	<path d="M86.562,52.999c-0.067-0.041-0.14-0.07-0.209-0.1c-0.453-0.301-0.959-0.523-1.478-0.651l-1.009,1.017l-0.979-1.027
		c-0.004,0-0.007,0.001-0.011,0.001c-0.519,0.125-1.027,0.345-1.482,0.646c-0.08,0.032-0.16,0.068-0.238,0.115
		c-3.146,1.931-4.954,3.458-5.512,12.388c-0.055,0.869,0.605,1.615,1.473,1.669c0.034,0.002,0.066,0.003,0.099,0.003
		c0.825,0,1.519-0.642,1.569-1.475c0.189-3.016,0.495-4.97,0.933-6.318v5.452c0,0.424,0.081,0.818,0.226,1.181
		c-0.011,0.081-0.018,0.165-0.018,0.25l0.001,15.068c0,1.026,0.832,1.86,1.859,1.86c1.026,0,1.86-0.833,1.86-1.86l-0.001-12.932
		c0.073,0.003,0.146,0.009,0.221,0.009c0.015,0,0.028-0.002,0.043-0.002v12.924c0,1.026,0.832,1.86,1.858,1.86
		c1.028,0,1.86-0.833,1.86-1.86l0.001-14.975c0.243-0.452,0.387-0.963,0.387-1.523v-5.406c0.43,1.346,0.73,3.29,0.916,6.271
		c0.053,0.833,0.746,1.475,1.568,1.475c0.034,0,0.067-0.001,0.1-0.003c0.868-0.054,1.526-0.801,1.474-1.669
		C91.516,56.456,89.709,54.929,86.562,52.999z M83.876,61.287h-0.02l-0.977-1.338l0.977-6.534h0.02l0.978,6.534L83.876,61.287z"/>
	<circle cx="83.866" cy="5.311" r="4.053"/>
	<path d="M77.117,24.406c0.034,0.003,0.066,0.003,0.099,0.003c0.825,0,1.519-0.641,1.569-1.476c0.189-3.015,0.495-4.969,0.933-6.316
		v5.452c0,0.424,0.081,0.819,0.226,1.181c-0.011,0.082-0.018,0.165-0.018,0.25l0.001,15.067c0,1.027,0.832,1.86,1.859,1.86
		c1.026,0,1.86-0.833,1.86-1.86l-0.001-12.932c0.073,0.004,0.146,0.01,0.221,0.01c0.015,0,0.028-0.001,0.043-0.002v12.924
		c0,1.027,0.832,1.86,1.858,1.86c1.028,0,1.86-0.833,1.86-1.86l0.001-14.975c0.243-0.451,0.387-0.962,0.387-1.522v-5.406
		c0.43,1.346,0.73,3.289,0.916,6.271c0.053,0.834,0.746,1.476,1.568,1.476c0.034,0,0.067,0,0.1-0.003
		c0.868-0.053,1.526-0.801,1.474-1.668c-0.558-8.93-2.364-10.457-5.512-12.387c-0.067-0.042-0.14-0.072-0.209-0.102
		c-0.453-0.301-0.959-0.522-1.478-0.649l-1.009,1.017l-0.979-1.029c-0.004,0.001-0.007,0.002-0.011,0.002
		c-0.519,0.124-1.027,0.344-1.482,0.644c-0.08,0.033-0.16,0.069-0.238,0.117c-3.146,1.93-4.954,3.457-5.512,12.387
		C75.59,23.605,76.25,24.353,77.117,24.406z M83.856,10.766h0.02l0.978,6.534l-0.978,1.337h-0.02L82.88,17.3L83.856,10.766z"/>
	<path d="M76.21,14.125L64.964,2.696L53.537,13.94l9.382-1.438c-0.354,4.515-3.965,41.535-28.995,71.673l3.29,2.731
		c26.568-31.988,29.731-70.363,29.99-74.353L76.21,14.125z"/>
</g>
</svg>
