<?xml version="1.0" encoding="utf-8"?>
<!-- Generator: Adobe Illustrator 16.0.0, SVG Export Plug-In . SVG Version: 6.00 Build 0)  -->
<!DOCTYPE svg PUBLIC "-//W3C//DTD SVG 1.1//EN" "http://www.w3.org/Graphics/SVG/1.1/DTD/svg11.dtd">
<svg version="1.1" id="Layer_2" xmlns="http://www.w3.org/2000/svg" xmlns:xlink="http://www.w3.org/1999/xlink" x="0px" y="0px"
	 width="126px" height="126px" viewBox="0 0 126 126" enable-background="new 0 0 126 126" xml:space="preserve">
<g>
	<circle cx="18.237" cy="21.685" r="8.355"/>
	<path d="M23.793,32.074c-0.14-0.087-0.287-0.147-0.433-0.209c-0.93-0.621-1.977-1.079-3.042-1.34l-2.081,2.096l-2.018-2.119
		c-0.008,0.003-0.015,0.003-0.021,0.004c-1.545,0.37-3.045,1.151-4.219,2.251C5.537,37.09,2.794,42.831,0.953,55.388
		c-0.261,1.773,0.967,3.42,2.739,3.681c0.158,0.023,0.318,0.035,0.474,0.035c1.584,0,2.969-1.161,3.204-2.773
		c0.665-4.518,1.431-7.819,2.315-10.313V56.23c0,0.873,0.17,1.687,0.467,2.436c-0.023,0.168-0.039,0.339-0.039,0.514l0.002,31.061
		c0,2.117,1.717,3.833,3.834,3.833c2.118,0,3.832-1.716,3.832-3.833L17.78,63.583c0.153,0.007,0.304,0.02,0.457,0.02
		c0.029,0,0.06-0.004,0.09-0.005L18.325,90.24c0,2.117,1.717,3.833,3.835,3.833c2.116,0,3.832-1.716,3.832-3.833l0.002-30.871
		c0.501-0.93,0.794-1.984,0.794-3.139V45.058c1.038,2.59,1.923,6.151,2.674,11.272c0.236,1.613,1.623,2.773,3.206,2.773
		c0.157,0,0.314-0.012,0.475-0.035c1.772-0.26,2.998-1.908,2.738-3.681C33.941,42.16,31.004,36.495,23.793,32.074z M18.257,49.156
		h-0.04l-2.015-2.757l1.562-10.433c0.155-0.42,0.223-0.865,0.196-1.315l0.257-1.721h0.04l2.016,13.469L18.257,49.156z"/>
	<path d="M76.48,29.726v-18.54c0-1.628-1.319-2.949-2.948-2.949H35.621c-1.629,0-2.949,1.321-2.949,2.949v21.293
		c0,1.629,1.32,2.949,2.949,2.949h0.939l-2.322,5.603l6.609-5.603h6.471v-2.753c0-1.628,1.32-2.949,2.949-2.949H76.48z
		 M37.78,29.362l-1.241-1.945l2.213-1.411l1.24,1.946L37.78,29.362z M42.193,26.549l-1.242-1.946l2.65-1.69l1.242,1.947
		L42.193,26.549z M46.46,23.829l-1.242-1.947l8.765-5.587l4.439,8.441l9.254-7.687l-3.601,0.511l-0.323-2.286l8.951-1.269
		l-2.134,9.456l-2.251-0.509l0.954-4.229l-11.565,9.608l-4.6-8.742L46.46,23.829z"/>
	<circle cx="107.763" cy="45.374" r="8.355"/>
	<path d="M125.047,79.078c-1.842-12.558-4.584-18.299-11.026-22.632c-1.175-1.1-2.674-1.882-4.219-2.251
		c-0.008-0.002-0.015-0.002-0.021-0.004l-2.018,2.118l-2.081-2.095c-1.065,0.261-2.111,0.719-3.042,1.339
		c-0.146,0.063-0.294,0.124-0.434,0.209c-7.21,4.422-10.147,10.087-12.088,23.316c-0.26,1.772,0.967,3.419,2.739,3.68
		c0.16,0.024,0.318,0.035,0.475,0.035c1.584,0,2.97-1.16,3.205-2.773c0.752-5.122,1.636-8.682,2.674-11.272v11.172
		c0,1.154,0.294,2.208,0.796,3.139l0.001,30.871c0,2.117,1.717,3.833,3.832,3.833c2.117,0,3.834-1.717,3.834-3.834l-0.001-26.642
		c0.03,0,0.061,0.005,0.09,0.005c0.153,0,0.304-0.013,0.456-0.02l-0.001,26.657c0,2.117,1.715,3.834,3.833,3.834
		c2.117,0,3.834-1.716,3.834-3.833l0.002-31.061c0-0.174-0.015-0.345-0.038-0.514c0.296-0.749,0.466-1.563,0.466-2.436V69.705
		c0.885,2.495,1.652,5.796,2.314,10.313c0.235,1.613,1.621,2.773,3.204,2.773c0.157,0,0.315-0.011,0.476-0.035
		C124.079,82.497,125.308,80.85,125.047,79.078z M107.784,72.845h-0.041l-2.016-2.757l2.016-13.469h0.041l0.256,1.721
		c-0.027,0.451,0.041,0.896,0.196,1.314l1.562,10.434L107.784,72.845z"/>
	<path d="M89.438,59.117h0.94c1.631,0,2.95-1.32,2.95-2.948V34.875c0-1.628-1.319-2.948-2.95-2.948H52.467
		c-1.627,0-2.949,1.32-2.949,2.948v21.294c0,1.628,1.322,2.948,2.949,2.948h32.685l6.61,5.603L89.438,59.117z M72.019,50.763
		l-4.442-8.442l-9.252,7.687l3.6-0.511l0.324,2.286l-8.951,1.268l2.134-9.455l2.251,0.509l-0.955,4.229l11.567-9.608l4.599,8.742
		l6.646-4.238l1.242,1.945L72.019,50.763z M82.398,44.145l-1.242-1.947l2.65-1.689l1.241,1.947L82.398,44.145z M86.009,39.105
		l2.212-1.41l1.239,1.945l-2.212,1.411L86.009,39.105z"/>
</g>
</svg>
