<?xml version="1.0" encoding="utf-8"?>
<!-- Generator: Adobe Illustrator 16.0.0, SVG Export Plug-In . SVG Version: 6.00 Build 0)  -->
<!DOCTYPE svg PUBLIC "-//W3C//DTD SVG 1.1//EN" "http://www.w3.org/Graphics/SVG/1.1/DTD/svg11.dtd">
<svg version="1.1" id="Layer_1" xmlns="http://www.w3.org/2000/svg" xmlns:xlink="http://www.w3.org/1999/xlink" x="0px" y="0px"
	 width="50px" height="50px" viewBox="0 0 50 50" enable-background="new 0 0 50 50" xml:space="preserve">
<g>
	<path d="M31.247,15.102c0,1.104,0.895,2,2,2c0.978,0,1.788-0.701,1.962-1.628l-3.012,0.297l1.805-2.519
		c-0.233-0.096-0.488-0.15-0.756-0.15C32.142,13.102,31.247,13.997,31.247,15.102z"/>
	<path d="M37.673,14.37c-0.038-0.233-0.101-0.456-0.173-0.677l-0.536,0.256L37.673,14.37z"/>
	<path d="M35.466,11.211c-0.657-0.377-1.408-0.609-2.219-0.609c-2.481,0-4.5,2.019-4.5,4.5s2.019,4.5,4.5,4.5
		c2.439,0,4.42-1.953,4.487-4.376l-1.01,0.099c-0.118,1.824-1.624,3.277-3.478,3.277c-1.93,0-3.5-1.57-3.5-3.5s1.57-3.5,3.5-3.5
		c0.593,0,1.145,0.162,1.635,0.424L35.466,11.211z"/>
	<path d="M36.148,11.69l0.01,0.863l0.505-0.348C36.505,12.021,36.334,11.849,36.148,11.69z"/>
	<path d="M38.421,13.255c0.196,0.548,0.31,1.136,0.321,1.748l0.178,0.105l-0.174,0.018c-0.013,3.021-2.475,5.476-5.499,5.476
		c-2.036,0-3.813-1.115-4.764-2.764c0.231-0.271,0.356-0.627,0.293-1.006c-0.087-0.523-0.487-0.904-0.977-1.009
		c-0.031-0.237-0.053-0.477-0.053-0.722c0-3.033,2.467-5.501,5.5-5.501c1.028,0,1.988,0.289,2.812,0.782l0.073-0.103l0.001,0.148
		c0.521,0.322,0.986,0.726,1.372,1.198l0.823-0.566c-1.192-1.496-3.025-2.46-5.083-2.46c-3.584,0-6.5,2.916-6.5,6.501
		c0,0.269,0.021,0.531,0.053,0.792l-5.152,0.858c-0.768-0.255-2.774-0.855-4.644-0.946l-0.294,0.589h-0.008l0.842,6.557l-1,1.746
		l-1-1.746l0.842-6.557h-0.009l-0.297-0.596c-2.318,0.114-4.849,1.022-4.962,1.063c-0.045,0.017-0.076,0.051-0.118,0.071
		c-0.075,0.037-0.143,0.077-0.209,0.128c-0.065,0.05-0.121,0.103-0.173,0.164c-0.052,0.059-0.097,0.119-0.137,0.188
		c-0.043,0.074-0.075,0.149-0.103,0.231c-0.015,0.042-0.044,0.076-0.054,0.121l-2,9c-0.15,0.674,0.275,1.342,0.949,1.492
		c0.091,0.02,0.182,0.029,0.272,0.029c0.573,0,1.09-0.396,1.219-0.979l1.846-8.305c0.129-0.04,0.276-0.083,0.434-0.128v8.532
		l-0.995,12.371c-0.066,0.825,0.549,1.549,1.375,1.615c0.041,0.003,0.082,0.005,0.122,0.005c0.774,0,1.431-0.595,1.494-1.38
		l0.899-11.181c0.186,0.082,0.39,0.13,0.605,0.13s0.42-0.048,0.605-0.13l0.899,11.181c0.063,0.785,0.72,1.38,1.494,1.38
		c0.04,0,0.081-0.002,0.122-0.005c0.826-0.066,1.441-0.79,1.375-1.615l-0.995-12.371v-8.532c0.635,0.18,1.064,0.333,1.075,0.337
		c0.125,0.046,0.254,0.062,0.381,0.066c0.015,0.001,0.027,0.008,0.042,0.008c0,0,0,0,0,0h0c0,0,0,0,0,0
		c0.068,0,0.136-0.006,0.206-0.017l5.844-0.974c1.118,1.97,3.231,3.305,5.654,3.305c3.584,0,6.5-2.916,6.5-6.5
		c0-0.803-0.153-1.568-0.42-2.278L38.421,13.255z"/>
	<polygon points="35.65,11.812 33.247,15.165 37.352,14.761 35.902,13.901 41.707,11.135 40.967,9.854 35.668,13.497 	"/>
	<path d="M16.543,15.531c1.744,0,3.16-2.024,3.16-3.77c0-1.746-1.416-3.161-3.16-3.161c-1.746,0-3.162,1.415-3.162,3.161
		C13.381,13.507,14.797,15.531,16.543,15.531z"/>
</g>
</svg>
