<?xml version="1.0" encoding="utf-8"?>
<!-- Generator: Adobe Illustrator 16.0.0, SVG Export Plug-In . SVG Version: 6.00 Build 0)  -->
<!DOCTYPE svg PUBLIC "-//W3C//DTD SVG 1.1//EN" "http://www.w3.org/Graphics/SVG/1.1/DTD/svg11.dtd">
<svg version="1.1" id="Layer_2" xmlns="http://www.w3.org/2000/svg" xmlns:xlink="http://www.w3.org/1999/xlink" x="0px" y="0px"
	 width="126px" height="126px" viewBox="0 0 126 126" enable-background="new 0 0 126 126" xml:space="preserve">
<g>
	<circle cx="84.085" cy="21.571" r="11.944"/>
	<path d="M92.03,36.422c-0.2-0.123-0.411-0.21-0.622-0.3c-1.33-0.888-2.824-1.541-4.348-1.915l-2.975,2.996l-2.885-3.028
		c-0.01,0.002-0.02,0.003-0.029,0.005c-1.555,0.372-3.079,1.038-4.432,1.946c-0.207,0.089-0.414,0.175-0.612,0.296
		c-3.115,1.911-5.716,4.919-8.23,7.828c-5.753,6.658-8.298,8.577-12.03,6.833c-2.321-1.085-5.081-0.083-6.164,2.237
		c-1.085,2.32-0.083,5.08,2.237,6.164c2.276,1.063,4.399,1.517,6.382,1.517c5.584,0,10.035-3.598,13.539-7.276v17.229
		c0,1.248,0.242,2.412,0.666,3.481c-0.032,0.241-0.055,0.485-0.055,0.734l0.004,44.404c0,3.027,2.453,5.479,5.48,5.479
		c3.026,0,5.479-2.454,5.479-5.48l-0.002-38.108c0.217,0.01,0.434,0.028,0.652,0.028c0.043,0,0.085-0.005,0.128-0.006l-0.001,38.086
		c0,3.026,2.453,5.48,5.479,5.48h0c3.026,0,5.48-2.454,5.48-5.48l0.001-44.131c0.718-1.331,1.136-2.836,1.136-4.488v-14.9
		c1.08,3.923,1.518,9.163,0.953,16.378c-0.2,2.553,1.708,4.785,4.261,4.984c0.124,0.009,0.245,0.015,0.367,0.015
		c2.397,0,4.428-1.846,4.618-4.276C108.337,49.798,100.631,41.697,92.03,36.422z M84.114,60.842h-0.056l-2.88-3.942l2.88-19.254
		h0.056l2.88,19.254L84.114,60.842z"/>
	<path d="M49.114,2.623c-2.566-1.079-5.386-1.677-8.346-1.677c-11.902,0-21.55,9.649-21.55,21.55h22.473L49.114,2.623z"/>
	<path d="M66.18,26.812c0-8.941-5.447-16.611-13.204-19.873l-7.422,19.873H23.081c0,11.901,9.648,21.55,21.55,21.55
		C56.532,48.362,66.18,38.713,66.18,26.812z"/>
</g>
</svg>
