<?xml version="1.0" encoding="utf-8"?>
<!-- Generator: Adobe Illustrator 16.0.0, SVG Export Plug-In . SVG Version: 6.00 Build 0)  -->
<!DOCTYPE svg PUBLIC "-//W3C//DTD SVG 1.1//EN" "http://www.w3.org/Graphics/SVG/1.1/DTD/svg11.dtd">
<svg version="1.1" id="Layer_1" xmlns="http://www.w3.org/2000/svg" xmlns:xlink="http://www.w3.org/1999/xlink" x="0px" y="0px"
	 width="50px" height="50px" viewBox="0 0 50 50" enable-background="new 0 0 50 50" xml:space="preserve">
<polygon points="14.443,41.083 14.443,41.083 14.443,41.083 "/>
<polygon points="25,41.083 25,41.083 25,41.083 "/>
<polygon points="35.557,41.083 35.557,41.083 35.557,41.083 "/>
<g>
	<path d="M15.436,36.212c0.729-0.49,1.229-1.455,1.229-2.325c0-1.227-0.994-2.222-2.221-2.222s-2.221,0.995-2.221,2.222
		c0,0.87,0.5,1.834,1.229,2.325c-1.74,0.44-3.03,1.952-3.03,3.071c0,0.662,2.011,0.992,4.022,0.992l-1.127-1.126l0.949-2.293h-0.01
		l-0.369-0.422c0.178,0.064,0.364,0.103,0.557,0.103s0.378-0.038,0.556-0.102l-0.368,0.422h-0.01l0.949,2.293l-1.127,1.126
		c2.012,0,4.022-0.331,4.022-0.992C18.466,38.164,17.176,36.653,15.436,36.212z"/>
	<path d="M25.992,36.212c0.729-0.49,1.229-1.455,1.229-2.325c0-1.227-0.994-2.222-2.221-2.222s-2.221,0.995-2.221,2.222
		c0,0.87,0.5,1.834,1.229,2.325c-1.74,0.44-3.03,1.952-3.03,3.071c0,0.662,2.011,0.992,4.022,0.992l-1.127-1.126l0.949-2.293h-0.01
		l-0.369-0.422c0.178,0.064,0.364,0.103,0.557,0.103s0.378-0.038,0.556-0.102l-0.368,0.422h-0.01l0.949,2.293L25,40.275
		c2.012,0,4.022-0.331,4.022-0.992C29.022,38.164,27.732,36.653,25.992,36.212z"/>
	<path d="M36.549,36.212c0.729-0.49,1.229-1.455,1.229-2.325c0-1.227-0.994-2.222-2.221-2.222s-2.221,0.995-2.221,2.222
		c0,0.87,0.5,1.834,1.229,2.325c-1.74,0.44-3.03,1.952-3.03,3.071c0,0.662,2.011,0.992,4.022,0.992l-1.127-1.126l0.949-2.293h-0.01
		L35,36.433c0.178,0.064,0.364,0.103,0.557,0.103s0.378-0.038,0.556-0.102l-0.368,0.422h-0.01l0.949,2.293l-1.127,1.126
		c2.012,0,4.022-0.331,4.022-0.992C39.579,38.164,38.289,36.653,36.549,36.212z"/>
	<path d="M14.5,30.234c0.276,0,0.5-0.224,0.5-0.5v-5.25h9.5v5.25c0,0.276,0.224,0.5,0.5,0.5s0.5-0.224,0.5-0.5v-5.25H35v5.25
		c0,0.276,0.224,0.5,0.5,0.5s0.5-0.224,0.5-0.5v-5.75c0-0.276-0.224-0.5-0.5-0.5h-10v-2.25c0-0.276-0.224-0.5-0.5-0.5
		s-0.5,0.224-0.5,0.5v2.25h-10c-0.276,0-0.5,0.224-0.5,0.5v5.75C14,30.011,14.224,30.234,14.5,30.234z"/>
	<path d="M25,19.734c2.759,0,5.005-2.245,5.005-5.006c0-2.759-2.246-5.004-5.005-5.004c-2.76,0-5.004,2.245-5.004,5.004
		C19.995,17.489,22.239,19.734,25,19.734z M20.901,14.843h0.398v-0.225h-0.398c0.019-0.665,0.203-1.284,0.502-1.835l0.334,0.194
		l0.113-0.194l-0.339-0.196c0.337-0.548,0.794-1.006,1.343-1.345l0.197,0.339l0.194-0.112l-0.193-0.334
		c0.551-0.3,1.17-0.483,1.834-0.502v0.396h0.094l-0.605,1.212h0.41v2.489c0,0.02,0.016,0.033,0.022,0.052
		c0.004,0.018-0.003,0.037,0.007,0.055l0.818,1.416l-0.355,0.206l1.166,0.769l-0.084-1.394l-0.355,0.206l-0.789-1.367v-2.431h0.41
		l-0.605-1.212h0.092l0.001-0.396c0.664,0.019,1.284,0.202,1.834,0.502l-0.194,0.334l0.196,0.112l0.195-0.34
		c0.548,0.337,1.007,0.796,1.345,1.345l-0.339,0.197l0.113,0.193l0.333-0.193c0.3,0.551,0.483,1.17,0.503,1.834H28.7v0.225h0.397
		c-0.02,0.665-0.204,1.284-0.503,1.835l-0.333-0.194l-0.111,0.194l0.338,0.196c-0.338,0.548-0.797,1.006-1.346,1.345l-0.195-0.339
		l-0.194,0.111l0.192,0.334c-0.551,0.3-1.169,0.483-1.833,0.502V18.43h-0.225v0.396c-0.665-0.019-1.285-0.202-1.834-0.502
		l0.194-0.334l-0.195-0.111l-0.195,0.339c-0.549-0.337-1.008-0.797-1.346-1.345l0.34-0.197l-0.112-0.193l-0.335,0.193
		C21.104,16.125,20.92,15.507,20.901,14.843z"/>
</g>
</svg>
