<?xml version="1.0" encoding="utf-8"?>
<!-- Generator: Adobe Illustrator 16.0.0, SVG Export Plug-In . SVG Version: 6.00 Build 0)  -->
<!DOCTYPE svg PUBLIC "-//W3C//DTD SVG 1.1//EN" "http://www.w3.org/Graphics/SVG/1.1/DTD/svg11.dtd">
<svg version="1.1" id="Layer_1" xmlns="http://www.w3.org/2000/svg" xmlns:xlink="http://www.w3.org/1999/xlink" x="0px" y="0px"
	 width="126px" height="126px" viewBox="0 0 126 126" enable-background="new 0 0 126 126" xml:space="preserve">
<g>
	<path d="M20.785,94.89c-0.511-0.357-0.974-0.757-1.434-1.141c-0.461-0.385-0.914-0.763-1.357-1.134
		c-0.439-0.374-0.886-0.726-1.293-1.098c-0.402-0.381-0.794-0.752-1.177-1.116c-0.759-0.731-1.505-1.405-2.16-2.08
		c-0.625-0.684-1.22-1.313-1.767-1.903L1.042,92.873l4.987-21.137l22.11,5.295l-10.275,5.715c0.222,0.279,0.447,0.565,0.68,0.865
		c0.54,0.653,1.166,1.307,1.798,2.021c0.319,0.355,0.646,0.719,0.982,1.093c0.342,0.366,0.721,0.711,1.093,1.082
		c0.375,0.367,0.757,0.741,1.146,1.122c0.392,0.383,0.781,0.782,1.22,1.139c0.861,0.735,1.737,1.517,2.668,2.289
		c0.962,0.733,1.95,1.486,2.96,2.256c1.056,0.711,2.137,1.439,3.234,2.18c1.144,0.671,2.286,1.396,3.482,2.061
		c0.605,0.322,1.215,0.644,1.829,0.971c0.61,0.327,1.226,0.658,1.867,0.941c1.272,0.588,2.541,1.226,3.87,1.741
		c0.661,0.272,1.32,0.545,1.98,0.818l2.021,0.735c2.695,0.994,5.469,1.785,8.215,2.514c2.765,0.665,5.506,1.275,8.194,1.695
		c2.682,0.46,5.302,0.76,7.793,1.005c2.492,0.213,4.859,0.371,7.049,0.422c2.188,0.071,4.199,0.065,5.982,0.023
		c1.781-0.038,3.335-0.122,4.613-0.206c2.559-0.176,4.007-0.381,4.007-0.381l0.06,0.335c0,0-5.775,1.293-14.647,1.718
		c-2.217,0.12-4.622,0.148-7.17,0.129c-2.547-0.05-5.238-0.147-8.017-0.403c-2.783-0.213-5.645-0.618-8.552-1.081
		c-2.893-0.53-5.835-1.126-8.728-1.943l-2.175-0.604c-0.716-0.232-1.432-0.463-2.146-0.694c-1.439-0.437-2.83-0.999-4.227-1.517
		c-0.702-0.25-1.384-0.546-2.06-0.846c-0.68-0.295-1.354-0.588-2.026-0.879c-1.332-0.608-2.615-1.286-3.899-1.916
		c-1.251-0.688-2.469-1.395-3.669-2.075c-1.161-0.75-2.298-1.483-3.402-2.197C22.814,96.4,21.79,95.624,20.785,94.89z"/>
	<circle cx="106.38" cy="24.054" r="9.372"/>
	<path d="M87.827,52.16c0.252,3.091,3.724,8.892,5.771,12.073c0.695,1.08,1.866,1.669,3.063,1.669c0.277,0,0.556-0.04,0.831-0.104
		c0.059,0.133,0.12,0.267,0.187,0.396l0.001,34.762c0,2.375,1.926,4.3,4.301,4.3l0,0c2.375,0,4.3-1.925,4.3-4.3l-0.001-29.886
		c0.034,0.001,0.066,0.005,0.1,0.005c0.173,0,0.343-0.014,0.513-0.022l-0.002,29.903c0,2.375,1.925,4.3,4.3,4.3
		s4.301-1.924,4.301-4.299l0.003-34.844c0-0.091-0.009-0.181-0.015-0.272c0.211,0.037,0.42,0.063,0.631,0.063
		c1.195,0,2.366-0.59,3.063-1.669c2.046-3.181,5.519-8.981,5.771-12.073c0.422-5.185-8.458-14.084-12.319-16.452
		c-0.154-0.095-0.317-0.164-0.479-0.233c-1.063-0.712-2.259-1.235-3.479-1.527c-0.007-0.002-0.015-0.002-0.023-0.004l-2.265,2.376
		l-2.333-2.35c-1.216,0.297-2.407,0.823-3.464,1.527c-0.147,0.065-0.295,0.124-0.437,0.211
		C96.285,38.076,87.404,46.976,87.827,52.16z M115.973,49.001c0.842,1.136,1.452,2.133,1.671,2.768
		c-0.188,0.667-0.815,1.995-1.671,3.581V49.001z M104.098,51.777l2.26-15.109h0.044l2.26,15.109l-2.26,3.093h-0.044L104.098,51.777z
		 M95.131,51.757c0.221-0.633,0.827-1.619,1.656-2.741v6.311C95.949,53.769,95.332,52.453,95.131,51.757z"/>
	<circle cx="68.86" cy="30.396" r="7.813"/>
	<path d="M53.393,53.827c0.211,2.578,3.104,7.414,4.812,10.065c0.579,0.902,1.557,1.392,2.554,1.392c0.23,0,0.463-0.033,0.692-0.087
		c0.049,0.111,0.1,0.222,0.155,0.329l0.002,28.981c0,1.979,1.604,3.584,3.584,3.584h0.001c1.979,0,3.585-1.605,3.585-3.584
		l-0.001-24.914c0.026,0,0.056,0.003,0.083,0.003c0.143,0,0.284-0.012,0.427-0.018l-0.002,24.929c0,1.979,1.605,3.584,3.585,3.584
		c1.979,0.001,3.586-1.604,3.586-3.584l0.002-29.047c0-0.077-0.008-0.152-0.013-0.228c0.176,0.03,0.351,0.051,0.525,0.051
		c0.998,0,1.975-0.49,2.554-1.392c1.708-2.652,4.602-7.487,4.812-10.065c0.353-4.322-7.05-11.74-10.271-13.715
		c-0.128-0.079-0.264-0.136-0.398-0.194c-0.885-0.594-1.883-1.031-2.899-1.274c-0.007-0.001-0.013-0.002-0.019-0.003l-1.889,1.981
		l-1.946-1.96c-1.013,0.249-2.007,0.688-2.888,1.274c-0.122,0.055-0.246,0.103-0.363,0.176
		C60.443,42.087,53.041,49.505,53.393,53.827z M76.857,51.194c0.701,0.946,1.211,1.778,1.393,2.308
		c-0.157,0.556-0.68,1.662-1.393,2.985V51.194z M66.957,53.508l1.884-12.595h0.036l1.885,12.595l-1.885,2.579h-0.036L66.957,53.508z
		 M59.481,53.491c0.183-0.527,0.688-1.35,1.381-2.284v5.261C60.165,55.168,59.648,54.073,59.481,53.491z"/>
	<circle cx="38.341" cy="37.821" r="5.876"/>
	<path d="M26.709,55.441c0.159,1.939,2.336,5.574,3.618,7.568c0.436,0.679,1.171,1.047,1.921,1.047c0.174,0,0.348-0.023,0.52-0.064
		c0.037,0.083,0.075,0.166,0.117,0.247l0.002,21.795c0,1.488,1.206,2.695,2.695,2.695l0,0c1.489,0,2.696-1.207,2.696-2.695V67.297
		c0.02,0,0.041,0.003,0.063,0.003c0.107,0,0.214-0.008,0.32-0.013L38.66,86.035c0,1.488,1.206,2.695,2.695,2.695
		c1.489,0.001,2.697-1.206,2.697-2.695V64.19c0-0.057-0.004-0.114-0.008-0.171c0.132,0.023,0.264,0.038,0.395,0.038
		c0.751,0,1.485-0.368,1.921-1.047c1.283-1.994,3.46-5.629,3.618-7.568c0.266-3.25-5.302-8.829-7.724-10.314
		c-0.097-0.059-0.199-0.102-0.3-0.145c-0.667-0.447-1.415-0.775-2.181-0.958c-0.004-0.001-0.009-0.001-0.015-0.003l-1.419,1.49
		l-1.464-1.473c-0.763,0.188-1.509,0.516-2.172,0.958c-0.092,0.04-0.185,0.077-0.272,0.131
		C32.012,46.612,26.444,52.191,26.709,55.441z M44.354,53.462c0.527,0.712,0.911,1.337,1.048,1.735
		c-0.118,0.417-0.512,1.251-1.048,2.244V53.462z M36.91,55.201l1.416-9.472h0.028l1.417,9.472l-1.417,1.939h-0.028L36.91,55.201z
		 M31.288,55.188c0.138-0.396,0.519-1.015,1.039-1.718v3.957C31.802,56.45,31.414,55.626,31.288,55.188z"/>
</g>
</svg>
