<?xml version="1.0" encoding="utf-8"?>
<!-- Generator: Adobe Illustrator 16.0.0, SVG Export Plug-In . SVG Version: 6.00 Build 0)  -->
<!DOCTYPE svg PUBLIC "-//W3C//DTD SVG 1.1//EN" "http://www.w3.org/Graphics/SVG/1.1/DTD/svg11.dtd">
<svg version="1.1" id="Layer_2" xmlns="http://www.w3.org/2000/svg" xmlns:xlink="http://www.w3.org/1999/xlink" x="0px" y="0px"
	 width="126px" height="126px" viewBox="0 0 126 126" enable-background="new 0 0 126 126" xml:space="preserve">
<g>
	<path d="M92.594,58.683h-6.952c-1.758-6.238-7.984-26.039-17.163-30.255c-0.044-0.021-0.09-0.035-0.135-0.054
		c-1.354-0.888-2.873-1.553-4.421-1.933l-3.026,3.046l-2.936-3.08c-0.01,0.002-0.02,0.003-0.03,0.005
		c-1.833,0.439-3.627,1.275-5.154,2.437c-8.73,4.971-14.642,23.782-16.347,29.833h-9.147v19.946h65.312V58.683z M45.467,61.387
		c0.065-0.232,0.14-0.469,0.207-0.703h30.721c0.068,0.234,0.144,0.472,0.208,0.704c0.449,1.597,1.668,2.763,3.142,3.224H42.33
		C43.802,64.15,45.021,62.983,45.467,61.387z M75.796,58.683H73.33v-6.989C74.228,53.974,75.063,56.346,75.796,58.683z
		 M60.868,29.938h0.056l2.93,19.584l-2.93,4.01h-0.056l-2.929-4.01L60.868,29.938z M48.461,58.683h-2.185
		c0.655-2.096,1.392-4.22,2.185-6.282V58.683z M90.592,76.626H29.284V60.685h6.96c0.218,1.789,1.46,3.359,3.274,3.927H31.62v2.003
		h56.401v-2.003h-5.469c1.816-0.567,3.058-2.138,3.276-3.927h4.764V76.626z"/>
	<rect x="31.62" y="70.286" width="56.401" height="2.002"/>
	<path d="M48.133,113.091c-0.19-0.636-0.382-1.432-0.54-2.069H47.56c-0.159,0.637-0.318,1.449-0.494,2.069l-0.636,2.276h2.37
		L48.133,113.091z"/>
	<path d="M27.163,124.561h65.313v-19.946H27.163V124.561z M81.471,108.483h6.897v12.21h-6.897V108.483z M65.012,109.21h2.402v4.742
		h0.047c0.239-0.414,0.495-0.796,0.734-1.178l2.435-3.564h2.976l-3.55,4.566l3.74,6.159h-2.833l-2.625-4.631l-0.923,1.129v3.502
		h-2.402V109.21z M54.026,109.21h2.832l2.229,3.93c0.637,1.129,1.274,2.466,1.751,3.676h0.047c-0.16-1.416-0.207-2.864-0.207-4.472
		v-3.134h2.228v10.725h-2.545l-2.292-4.138c-0.636-1.146-1.336-2.531-1.862-3.787l-0.047,0.015c0.064,1.418,0.096,2.93,0.096,4.68
		v3.23h-2.229V109.21z M46.08,109.21h3.183l3.327,10.725h-2.61l-0.828-2.753H46.08l-0.765,2.753h-2.513L46.08,109.21z
		 M34.029,109.353c0.638-0.128,1.925-0.224,3.135-0.224c1.479,0,2.387,0.144,3.167,0.605c0.748,0.397,1.288,1.129,1.288,2.101
		c0,0.954-0.557,1.846-1.766,2.291v0.032c1.226,0.334,2.133,1.256,2.133,2.64c0,0.971-0.445,1.736-1.114,2.276
		c-0.78,0.621-2.085,0.972-4.216,0.972c-1.194,0-2.086-0.081-2.627-0.161V109.353z"/>
	<path d="M39.185,112.137c0-0.811-0.621-1.24-1.718-1.24c-0.527,0-0.828,0.031-1.035,0.063v2.498h0.795
		C38.501,113.458,39.185,112.934,39.185,112.137z"/>
	<path d="M39.439,116.705c0-1.082-0.971-1.512-2.18-1.512h-0.828v3.023c0.239,0.032,0.526,0.032,0.939,0.032
		C38.469,118.248,39.439,117.834,39.439,116.705z"/>
	<path d="M78.714,90.893c-0.82,0-1.153,0.744-1.204,1.268h2.306C79.816,91.688,79.612,90.893,78.714,90.893z"/>
	<path d="M33.524,81.711v19.946h65.313V81.711H33.524z M43.932,88.97h-3.319v1.973h3.102v1.589h-3.102v3.473h-1.958V87.37h5.277
		V88.97z M47.036,96.005h-1.949V89.74h1.949V96.005z M46.049,88.97c-0.616,0-1.025-0.435-1.014-0.973
		c-0.011-0.563,0.398-0.986,1.026-0.986c0.628,0,1.024,0.424,1.038,0.986C47.1,88.535,46.689,88.97,46.049,88.97z M54.544,96.005
		h-1.948v-3.473c0-0.806-0.282-1.357-0.986-1.357c-0.538,0-0.858,0.371-0.986,0.73c-0.051,0.116-0.078,0.308-0.078,0.487v3.614
		h-1.947v-4.267c0-0.781-0.025-1.447-0.051-1.999h1.691l0.089,0.858h0.038c0.258-0.397,0.898-0.999,1.936-0.999
		c1.282,0,2.243,0.845,2.243,2.691V96.005z M59.67,96.005l-0.115-0.628h-0.039c-0.41,0.5-1.05,0.769-1.794,0.769
		c-1.269,0-2.023-0.922-2.023-1.922c0-1.626,1.459-2.408,3.677-2.396v-0.09c0-0.333-0.181-0.807-1.142-0.807
		c-0.64,0-1.319,0.218-1.729,0.474l-0.359-1.255c0.437-0.244,1.295-0.551,2.435-0.551c2.088,0,2.756,1.23,2.756,2.703v2.178
		c0,0.602,0.024,1.178,0.089,1.525H59.67z M68.819,96.005h-1.947v-3.473c0-0.806-0.282-1.357-0.986-1.357
		c-0.539,0-0.858,0.371-0.986,0.73c-0.051,0.116-0.076,0.308-0.076,0.487v3.614h-1.948v-4.267c0-0.781-0.026-1.447-0.052-1.999
		h1.691l0.089,0.858h0.039c0.257-0.397,0.896-0.999,1.935-0.999c1.28,0,2.241,0.845,2.241,2.691V96.005z M73.742,94.609
		c0.462,0,0.82-0.077,1.114-0.192l0.232,1.435c-0.347,0.154-1.002,0.282-1.743,0.282c-2.026,0-3.319-1.229-3.319-3.202
		c0-1.833,1.255-3.332,3.588-3.332c0.513,0,1.076,0.089,1.485,0.244l-0.307,1.448c-0.23-0.102-0.577-0.192-1.089-0.192
		c-1.025,0-1.691,0.73-1.678,1.755C72.025,94.006,72.793,94.609,73.742,94.609z M81.559,93.494h-4.036
		c0.064,0.807,0.859,1.192,1.769,1.192c0.666,0,1.202-0.089,1.729-0.256l0.255,1.32c-0.64,0.256-1.421,0.384-2.267,0.384
		c-2.127,0-3.345-1.229-3.345-3.19c0-1.588,0.987-3.344,3.165-3.344c2.024,0,2.793,1.576,2.793,3.125
		C81.624,93.059,81.584,93.353,81.559,93.494z M87.993,98.454c-0.188-0.097-0.261-0.329-0.163-0.516l1.627-3.121l-2.851-3.543
		c-0.096-0.121-0.112-0.288-0.037-0.424l2.808-5.09l-1.021-0.626c-0.051-0.031-0.076-0.089-0.067-0.146
		c0.009-0.059,0.051-0.105,0.108-0.118l2.175-0.522c0.079-0.019,0.157,0.029,0.175,0.106l0.521,2.175
		c0.014,0.058-0.008,0.117-0.055,0.151c-0.016,0.011-0.032,0.021-0.051,0.024c-0.038,0.008-0.076,0.004-0.11-0.019l-1.023-0.626
		l-2.666,4.838l2.845,3.537c0.094,0.119,0.111,0.282,0.041,0.417l-1.742,3.343C88.411,98.479,88.179,98.552,87.993,98.454z
		 M95.88,96.834c0,0.106-0.084,0.191-0.19,0.191h-5.644l0.873-1.675c0.147-0.284,0.112-0.65-0.089-0.901l-0.318-0.396h5.178
		c0.106,0,0.19,0.086,0.19,0.191V96.834z M95.88,92.46c0,0.105-0.084,0.191-0.19,0.191h-6.306l-1.212-1.507l0.808-1.465h6.71
		c0.106,0,0.19,0.084,0.19,0.191V92.46z M95.88,87.832c0,0.105-0.084,0.191-0.19,0.191h-5.777c-0.006,0-0.013-0.001-0.019-0.002
		l0.575-1.044l0.623,0.383c0.132,0.083,0.295,0.109,0.45,0.072c0.075-0.018,0.143-0.05,0.208-0.096
		c0.152-0.111,0.242-0.289,0.242-0.478c0-0.045-0.005-0.092-0.017-0.138l-0.4-1.669h4.114c0.106,0,0.19,0.085,0.19,0.19V87.832z"/>
	<path d="M57.621,94.032c0,0.5,0.333,0.743,0.768,0.743c0.488,0,0.884-0.32,1.012-0.717c0.026-0.103,0.039-0.218,0.039-0.333v-0.679
		C58.415,93.033,57.621,93.276,57.621,94.032z"/>
	<circle cx="60.895" cy="13.588" r="12.149"/>
</g>
</svg>
