<?xml version="1.0" encoding="utf-8"?>
<!-- Generator: Adobe Illustrator 16.0.0, SVG Export Plug-In . SVG Version: 6.00 Build 0)  -->
<!DOCTYPE svg PUBLIC "-//W3C//DTD SVG 1.1//EN" "http://www.w3.org/Graphics/SVG/1.1/DTD/svg11.dtd">
<svg version="1.1" id="Layer_2" xmlns="http://www.w3.org/2000/svg" xmlns:xlink="http://www.w3.org/1999/xlink" x="0px" y="0px"
	 width="126px" height="126px" viewBox="0 0 126 126" enable-background="new 0 0 126 126" xml:space="preserve">
<g>
	<circle cx="81.429" cy="13.649" r="12.411"/>
	<path d="M107.637,63.711c-2.883-19.648-7.245-28.064-17.955-34.633c-0.207-0.126-0.425-0.217-0.646-0.311
		c-1.381-0.921-2.934-1.602-4.516-1.988l-3.092,3.111l-2.997-3.147c-0.011,0.002-0.021,0.006-0.031,0.006
		c-2.293,0.55-4.522,1.712-6.265,3.345c-9.569,6.438-13.645,14.965-16.38,33.617c-0.387,2.632,1.436,5.08,4.067,5.467
		c0.237,0.033,0.473,0.052,0.706,0.052c2.351,0,4.408-1.724,4.761-4.12c0.984-6.711,2.123-11.614,3.436-15.319v15.17
		c0,1.299,0.252,2.505,0.692,3.618c-0.033,0.251-0.056,0.504-0.056,0.763l0.002,46.138c0.001,3.146,2.55,5.695,5.695,5.695
		c3.145,0,5.694-2.552,5.693-5.695l-0.002-39.594c0.225,0.01,0.45,0.024,0.678,0.024c0.045,0,0.089-0.004,0.133-0.006l-0.002,39.575
		c0,3.144,2.55,5.695,5.695,5.695c3.144,0,5.694-2.552,5.694-5.695l0.002-45.856c0.746-1.381,1.18-2.944,1.18-4.662V48.366
		c1.541,3.849,2.855,9.136,3.972,16.743c0.351,2.396,2.41,4.12,4.761,4.12c0.233,0,0.469-0.019,0.707-0.052
		C106.202,68.791,108.023,66.343,107.637,63.711z M81.458,54.454h-0.059l-2.993-4.095l2.318-15.498
		c0.231-0.624,0.331-1.285,0.292-1.956l0.383-2.553h0.059l2.992,20.007L81.458,54.454z"/>
	<path d="M65.932,111.729c-4.328,3.833-10.013,6.166-16.234,6.166c-13.521,0-24.521-10.999-24.521-24.52s11-24.52,24.521-24.52
		c2.013,0,3.969,0.249,5.843,0.708c-0.696-0.459-1.318-1.034-1.831-1.722c-1.158-1.56-1.643-3.475-1.359-5.396
		c0.016-0.113,0.033-0.22,0.051-0.331c-0.893-0.077-1.793-0.125-2.703-0.125c-17.306,0-31.386,14.08-31.386,31.386
		s14.08,31.386,31.386,31.386c6.574,0,12.68-2.037,17.729-5.506c-0.938-1.325-1.494-2.94-1.494-4.684V111.729z"/>
	<polygon points="46.265,89.943 32.822,89.943 32.822,96.809 53.13,96.809 53.13,75.427 46.265,75.427 	"/>
</g>
</svg>
