<?xml version="1.0" encoding="utf-8"?>
<!-- Generator: Adobe Illustrator 16.0.0, SVG Export Plug-In . SVG Version: 6.00 Build 0)  -->
<!DOCTYPE svg PUBLIC "-//W3C//DTD SVG 1.1//EN" "http://www.w3.org/Graphics/SVG/1.1/DTD/svg11.dtd">
<svg version="1.1" id="Layer_3" xmlns="http://www.w3.org/2000/svg" xmlns:xlink="http://www.w3.org/1999/xlink" x="0px" y="0px"
	 width="126px" height="126px" viewBox="0 0 126 126" enable-background="new 0 0 126 126" xml:space="preserve">
<g>
	<circle cx="68.187" cy="13.58" r="12.896"/>
	<path d="M76.784,29.627l-0.065,0.107c-0.008-0.006-0.013-0.01-0.019-0.014l0.065-0.105L76.7,29.721
		c-1.579-1.18-3.42-2.035-5.302-2.496l-3.212,3.234l-3.114-3.27c-0.011,0.002-0.022,0.004-0.033,0.006
		c-1.678,0.4-3.323,1.121-4.784,2.1c-0.224,0.096-0.448,0.189-0.662,0.32c-3.362,2.064-6.17,5.313-8.885,8.453
		c-6.215,7.188-8.963,9.262-12.99,7.377c-2.504-1.17-5.484-0.088-6.654,2.416c-1.172,2.506-0.091,5.484,2.415,6.656
		c2.457,1.148,4.749,1.637,6.891,1.637c1.767,0,3.425-0.348,4.987-0.92v44.719c0,1.006,0.814,1.82,1.82,1.82h8.472l0.002,17.625
		c0,3.27,2.65,5.918,5.917,5.918c3.27,0,5.917-2.648,5.917-5.918l-0.001-17.625h0.841l-0.001,17.625c0,3.27,2.649,5.918,5.918,5.918
		c3.268,0,5.916-2.648,5.916-5.918l0.001-17.625h7.528c1.005,0,1.821-0.814,1.821-1.82V65.617c2.124-0.041,4.07-1.436,4.703-3.58
		C99.644,43.65,85.334,34.871,76.784,29.627z M81.387,45.404c1.176,1.221,2.126,2.508,2.801,3.906h-2.801V45.404z M68.218,30.938
		l2.748,18.373h-5.558l2.748-18.373H68.218z M54.986,48.299v1.012h-0.989C54.335,48.977,54.664,48.639,54.986,48.299z
		 M48.997,98.133V53.408c0.234-0.15,0.47-0.297,0.697-0.455H85.26c0.226,1.855,0.039,3.912-0.65,6.246
		c-0.538,1.818,0.006,3.701,1.257,4.957v33.977H48.997z"/>
</g>
</svg>
