<?xml version="1.0" encoding="utf-8"?>
<!-- Generator: Adobe Illustrator 16.0.0, SVG Export Plug-In . SVG Version: 6.00 Build 0)  -->
<!DOCTYPE svg PUBLIC "-//W3C//DTD SVG 1.1//EN" "http://www.w3.org/Graphics/SVG/1.1/DTD/svg11.dtd">
<svg version="1.1" id="Layer_2" xmlns="http://www.w3.org/2000/svg" xmlns:xlink="http://www.w3.org/1999/xlink" x="0px" y="0px"
	 width="126px" height="126px" viewBox="0 0 126 126" enable-background="new 0 0 126 126" xml:space="preserve">
<g>
	<circle cx="82.888" cy="13.935" r="12.804"/>
	<path d="M91.405,29.855c-0.214-0.13-0.438-0.223-0.663-0.319c-1.427-0.951-3.03-1.654-4.664-2.055l-3.189,3.211l-3.093-3.246
		c-0.01,0.002-0.021,0.002-0.032,0.007c-1.667,0.398-3.302,1.111-4.753,2.088c-0.22,0.094-0.442,0.187-0.653,0.314
		c-3.339,2.048-6.127,5.272-8.823,8.393c-5.598,6.478-8.364,8.759-11.818,7.73l-6.398-8.931c2.092-2.087,3.671-4.741,4.424-7.815
		c2.195-8.955-3.304-18.026-12.259-20.222c-8.955-2.193-18.025,3.306-20.22,12.26c-2.195,8.955,3.304,18.026,12.259,20.22
		c3.983,0.976,7.984,0.425,11.397-1.271l4.367,6.096c-0.515,0.444-0.95,0.998-1.257,1.656c-1.163,2.486-0.089,5.444,2.398,6.606
		c2.439,1.141,4.716,1.628,6.842,1.628c5.985,0,10.757-3.858,14.513-7.801v18.471c0,1.337,0.26,2.583,0.714,3.73
		c-0.034,0.261-0.059,0.521-0.059,0.789l0.004,47.601c0,3.243,2.63,5.873,5.875,5.873c3.245,0,5.875-2.63,5.875-5.873l-0.003-40.854
		c0.234,0.012,0.466,0.029,0.701,0.029c0.045,0,0.091-0.005,0.137-0.005l-0.001,40.829c0,3.243,2.63,5.873,5.875,5.873l0,0
		c3.244,0,5.875-2.63,5.875-5.873l0.001-47.311c0.77-1.427,1.218-3.041,1.218-4.81V50.902c1.157,4.205,1.627,9.822,1.022,17.558
		c-0.214,2.737,1.831,5.129,4.568,5.343c0.132,0.011,0.264,0.015,0.394,0.015c2.569,0,4.747-1.978,4.951-4.583
		C108.887,44.194,100.625,35.509,91.405,29.855z M33.76,36.405h0.673l0.123-0.681l1.135-7.596h0.022l1.137,7.596l0.136,0.681h0.311
		C36.148,36.592,34.958,36.595,33.76,36.405z M46.477,27.941c-0.483,1.969-1.463,3.685-2.768,5.062
		c-1.096-2.868-2.712-4.033-4.872-5.358c-0.079-0.049-0.162-0.082-0.244-0.117c-0.526-0.352-1.116-0.609-1.717-0.755l-1.173,1.183
		l-1.139-1.196c-0.004,0-0.007,0-0.012,0c-0.604,0.144-1.196,0.403-1.723,0.751c-0.094,0.038-0.187,0.08-0.279,0.135
		c-2.228,1.367-3.874,2.567-4.971,5.638c-2.73-2.704-4.028-6.724-3.048-10.721c1.483-6.05,7.612-9.765,13.663-8.283
		C44.244,15.761,47.959,21.89,46.477,27.941z M82.86,56.034l-3.088-4.227l3.088-20.64h0.06l3.087,20.64l-3.087,4.227H82.86z"/>
	<circle cx="35.703" cy="21.785" r="4.712"/>
</g>
</svg>
