<?xml version="1.0" encoding="utf-8"?>
<!-- Generator: Adobe Illustrator 16.0.0, SVG Export Plug-In . SVG Version: 6.00 Build 0)  -->
<!DOCTYPE svg PUBLIC "-//W3C//DTD SVG 1.1//EN" "http://www.w3.org/Graphics/SVG/1.1/DTD/svg11.dtd">
<svg version="1.1" id="Layer_2" xmlns="http://www.w3.org/2000/svg" xmlns:xlink="http://www.w3.org/1999/xlink" x="0px" y="0px"
	 width="126px" height="126px" viewBox="0 0 126 126" enable-background="new 0 0 126 126" xml:space="preserve">
<g>
	<circle cx="44.018" cy="28.004" r="11.264"/>
	<path d="M51.509,42.009c-0.188-0.115-0.386-0.197-0.583-0.282c-1.255-0.837-2.664-1.454-4.102-1.807l-2.806,2.825l-2.721-2.855
		c-0.01,0.002-0.019,0.002-0.028,0.004c-2.081,0.499-4.104,1.553-5.686,3.036c-8.685,5.841-12.383,13.581-14.867,30.511
		c-0.351,2.39,1.303,4.611,3.692,4.962c0.215,0.031,0.429,0.047,0.64,0.047c2.134,0,4.002-1.565,4.321-3.739
		c0.894-6.09,1.927-10.541,3.119-13.904v13.77c0,1.177,0.229,2.274,0.628,3.283c-0.031,0.227-0.052,0.457-0.052,0.692l0.003,41.876
		c0,2.854,2.314,5.167,5.168,5.167c2.854,0,5.168-2.314,5.168-5.168l-0.003-35.938c0.205,0.01,0.41,0.026,0.616,0.026
		c0.04,0,0.08-0.005,0.12-0.005l-0.001,35.917c0,2.854,2.313,5.168,5.168,5.168h0c2.854,0,5.168-2.314,5.168-5.168l0.001-41.62
		c0.678-1.254,1.071-2.675,1.071-4.231V59.515c1.4,3.493,2.593,8.292,3.605,15.197c0.319,2.175,2.188,3.739,4.322,3.739
		c0.211,0,0.425-0.016,0.64-0.047c2.389-0.351,4.042-2.572,3.692-4.962C65.188,55.607,61.229,47.97,51.509,42.009z M43.991,65.04
		l-2.716-3.717l2.104-14.065c0.21-0.565,0.3-1.167,0.266-1.773l0.347-2.319h0.053l2.716,18.158l-2.716,3.717H43.991z"/>
	<path d="M99.027,6.744c-4.082-4.088-9.511-6.34-15.288-6.34c-5.763,0-11.182,2.242-15.261,6.313
		c-8.429,8.415-8.44,22.119-0.026,30.548c4.082,4.088,9.51,6.34,15.287,6.34c0,0,0,0,0.001,0c5.762,0,11.182-2.243,15.26-6.313
		C107.43,28.877,107.442,15.173,99.027,6.744z M96.274,34.56c-3.35,3.345-7.801,5.186-12.534,5.186
		c-4.745,0-9.204-1.849-12.556-5.207c-6.911-6.923-6.901-18.178,0.021-25.089c3.35-3.344,7.801-5.186,12.534-5.186
		c4.745,0,9.204,1.85,12.556,5.207C103.207,16.394,103.197,27.648,96.274,34.56z"/>
	<rect x="68.417" y="21.209" width="4.174" height="1.59"/>
	<rect x="95.251" y="21.209" width="4.174" height="1.59"/>
	<rect x="82.945" y="6.5" width="1.59" height="4.174"/>
	<rect x="82.945" y="33.335" width="1.59" height="4.174"/>
	<path d="M84.535,20.317V13.32h-1.59v6.997c-0.634,0.299-1.076,0.939-1.076,1.687c0,1.033,0.838,1.871,1.871,1.871
		c0.748,0,1.388-0.441,1.688-1.076h8.335v-1.59h-8.335C85.242,20.818,84.927,20.502,84.535,20.317z"/>
</g>
</svg>
