<?xml version="1.0" encoding="utf-8"?>
<!-- Generator: Adobe Illustrator 16.0.0, SVG Export Plug-In . SVG Version: 6.00 Build 0)  -->
<!DOCTYPE svg PUBLIC "-//W3C//DTD SVG 1.1//EN" "http://www.w3.org/Graphics/SVG/1.1/DTD/svg11.dtd">
<svg version="1.1" id="Layer_1" xmlns="http://www.w3.org/2000/svg" xmlns:xlink="http://www.w3.org/1999/xlink" x="0px" y="0px"
	 width="50px" height="50px" viewBox="0 0 50 50" enable-background="new 0 0 50 50" xml:space="preserve">
<g>
	<polygon points="23.782,37.825 23.785,37.822 23.779,37.822 	"/>
	<path d="M28.6,31.641c-0.393-0.092-0.712-0.319-0.905-0.655c-0.712-1.233-0.288-2.817,0.944-3.531
		c0.473-0.272,1.017-0.362,1.544-0.308c-1.05-0.617-2.207-1.116-3.443-1.43c2.168-1.459,3.661-4.335,3.661-6.925
		c0-3.655-2.964-6.619-6.618-6.619s-6.618,2.963-6.618,6.619c0,2.59,1.493,5.466,3.661,6.925c-5.184,1.315-9.026,5.816-9.026,9.151
		c0,1.971,5.99,2.955,11.98,2.954l-3.354-3.354l2.826-6.832h-0.029l-1.098-1.259c0.531,0.191,1.084,0.305,1.658,0.305
		s1.126-0.114,1.656-0.304l-1.098,1.257h-0.027l2.826,6.832l-3.354,3.354c2.099,0,4.196-0.121,6.037-0.363
		c-1.016-0.936-1.663-2.265-1.663-3.751C28.159,32.989,28.312,32.286,28.6,31.641z"/>
	<path d="M37.486,28.375l0.002-0.003l-0.155-0.103l-0.009,0.013c-0.745-0.373-1.659-0.112-2.08,0.619
		c-0.198,0.343,0.257,0.854,0.853,1.242l-0.24,0.364c-0.642-0.518-1.441-0.844-2.315-0.9v-0.454
		c0.159,0.043,0.267,0.043,0.267-0.354c0-0.594-0.238-0.763-0.531-0.763c-0.295,0-0.532,0.169-0.532,0.763
		c0,0.397,0.108,0.397,0.266,0.354v0.454c-0.873,0.056-1.673,0.382-2.314,0.9l-0.24-0.364c0.597-0.388,1.05-0.899,0.853-1.242
		c-0.438-0.758-1.408-1.018-2.168-0.58c-0.757,0.438-1.017,1.408-0.579,2.166c0.223,0.386,1.041,0.165,1.736-0.245l0.257,0.389
		c-0.854,0.754-1.395,1.853-1.395,3.078c0,2.271,1.847,4.118,4.116,4.118c2.271,0,4.117-1.847,4.117-4.118
		c0-1.225-0.541-2.323-1.394-3.078l0.256-0.388c0.693,0.41,1.513,0.63,1.735,0.245C38.413,29.755,38.183,28.834,37.486,28.375z
		 M36.144,31.945l-0.277,0.161l0.093,0.16l0.273-0.16c0.246,0.454,0.398,0.963,0.413,1.509h-0.326V33.8h0.326
		c-0.015,0.546-0.167,1.056-0.413,1.509l-0.273-0.159l-0.093,0.16l0.28,0.162c-0.28,0.451-0.657,0.828-1.107,1.105L34.878,36.3
		l-0.159,0.09l0.158,0.276c-0.454,0.246-0.961,0.398-1.508,0.414v-0.327h-0.185v0.327c-0.547-0.016-1.058-0.167-1.51-0.414
		l0.16-0.276l-0.161-0.09l-0.16,0.279c-0.452-0.278-0.828-0.656-1.106-1.106l0.279-0.162l-0.093-0.159l-0.275,0.158
		c-0.247-0.453-0.397-0.96-0.413-1.508h0.327v-0.185h-0.327c0.016-0.546,0.166-1.056,0.413-1.509l0.274,0.16l0.093-0.161
		l-0.278-0.161c0.278-0.451,0.653-0.827,1.104-1.105l0.161,0.278l0.159-0.091l-0.158-0.275c0.453-0.247,0.962-0.397,1.509-0.413
		v0.327h0.075l-0.5,1h0.334v1.937l-1.039,0.6l-0.167-0.289l-0.637,0.966l1.155-0.069l-0.168-0.288l1.132-0.654
		c0.006-0.004,0.008-0.016,0.015-0.02c0.021-0.016,0.028-0.033,0.043-0.054c0.012-0.02,0.022-0.038,0.025-0.063
		c0-0.009,0.009-0.015,0.009-0.023v-2.042h0.333l-0.499-1h0.073l0.001-0.327c0.546,0.016,1.055,0.166,1.509,0.413l-0.16,0.275
		l0.161,0.091l0.161-0.279C35.489,31.116,35.866,31.494,36.144,31.945z"/>
</g>
</svg>
