<?xml version="1.0" encoding="utf-8"?>
<!-- Generator: Adobe Illustrator 16.0.0, SVG Export Plug-In . SVG Version: 6.00 Build 0)  -->
<!DOCTYPE svg PUBLIC "-//W3C//DTD SVG 1.1//EN" "http://www.w3.org/Graphics/SVG/1.1/DTD/svg11.dtd">
<svg version="1.1" id="Layer_2" xmlns="http://www.w3.org/2000/svg" xmlns:xlink="http://www.w3.org/1999/xlink" x="0px" y="0px"
	 width="126px" height="126px" viewBox="0 0 126 126" enable-background="new 0 0 126 126" xml:space="preserve">
<g>
	<circle cx="62.607" cy="14.527" r="7.245"/>
	<path d="M78.435,90.439c0-5.333,4.144-9.688,9.384-10.049c-0.472-0.353-0.964-0.681-1.499-0.951
		c-0.9-5.471-5.14-9.813-10.558-10.864c-1.196-2.951-3.518-5.319-6.43-6.587l0.001-14.786c0.436-0.806,0.69-1.72,0.69-2.722v-9.688
		c0.898,2.246,1.666,5.333,2.317,9.774c0.206,1.399,1.407,2.405,2.78,2.405c0.135,0,0.273-0.01,0.412-0.03
		c1.537-0.225,2.6-1.653,2.374-3.19c-1.682-11.471-4.229-16.383-10.48-20.216c-0.121-0.075-0.249-0.127-0.375-0.182
		c-0.807-0.538-1.714-0.935-2.638-1.162l-1.805,1.817l-1.749-1.837c-0.007,0.001-0.013,0.001-0.019,0.003
		c-1.339,0.32-2.64,0.998-3.657,1.952c-5.585,3.757-7.964,8.735-9.562,19.624c-0.225,1.537,0.839,2.966,2.375,3.19
		c0.138,0.021,0.276,0.03,0.411,0.03c1.373,0,2.575-1.006,2.78-2.405c0.575-3.917,1.239-6.78,2.005-8.943v8.856
		c0,0.757,0.147,1.463,0.405,2.112c-0.02,0.146-0.033,0.294-0.033,0.445l0.001,16.451c-1.035-0.288-2.125-0.445-3.252-0.445
		c-6.721,0-12.17,5.449-12.17,12.17c0,1.009,0.125,1.987,0.356,2.925c-4.204,1.769-7.157,5.927-7.157,10.775
		c0,6.454,5.232,11.686,11.687,11.686l27.832,0.172c0.375-3.573,2.686-6.569,5.871-7.908C78.539,92.086,78.435,91.276,78.435,90.439
		z M62.212,50.856c0.132,0.006,0.264,0.017,0.395,0.017c0.026,0,0.053-0.003,0.079-0.003v10.247
		c-0.158,0.023-0.317,0.043-0.474,0.072V50.856z M62.197,26.91c0.135-0.364,0.193-0.75,0.17-1.141l0.223-1.491h0.034l1.748,11.678
		l-1.748,2.391H62.59l-1.747-2.391L62.197,26.91z"/>
	<path d="M125.529,104.026c-0.166-3.431-1.974-6.402-4.844-7.851c-0.746-4.533-4.26-8.132-8.75-9.003
		c-1.498-3.693-5.117-6.3-9.347-6.3c-2.478,0-4.744,0.895-6.499,2.376c-1.115-0.424-2.323-0.659-3.587-0.659
		c-5.569,0-10.085,4.515-10.085,10.085c0,0.835,0.104,1.646,0.296,2.423c-3.485,1.466-5.931,4.912-5.931,8.93
		c0,5.348,4.335,9.684,9.684,9.684l30.265,0.187C121.59,113.897,125.833,110.341,125.529,104.026z"/>
	<path d="M36.954,103.985c-0.62-3.769-3.542-6.76-7.274-7.484c-1.245-3.071-4.255-5.238-7.771-5.238
		c-2.06,0-3.944,0.744-5.403,1.976c-0.926-0.353-1.931-0.548-2.981-0.548c-4.63,0-8.384,3.754-8.384,8.384
		c0,0.695,0.086,1.369,0.247,2.015c-2.897,1.219-4.931,4.083-4.931,7.422c0,4.446,3.604,8.052,8.051,8.052l25.16,0.155
		c4.04,0,7.567-2.957,7.315-8.207C40.843,107.659,39.34,105.189,36.954,103.985z"/>
</g>
</svg>
