<?xml version="1.0" encoding="utf-8"?>
<!-- Generator: Adobe Illustrator 16.0.0, SVG Export Plug-In . SVG Version: 6.00 Build 0)  -->
<!DOCTYPE svg PUBLIC "-//W3C//DTD SVG 1.1//EN" "http://www.w3.org/Graphics/SVG/1.1/DTD/svg11.dtd">
<svg version="1.1" id="Layer_1" xmlns="http://www.w3.org/2000/svg" xmlns:xlink="http://www.w3.org/1999/xlink" x="0px" y="0px"
	 width="50px" height="50px" viewBox="0 0 50 50" enable-background="new 0 0 50 50" xml:space="preserve">
<g>
	<polygon points="25,37.825 25.002,37.823 24.997,37.823 	"/>
	<path d="M30.041,36.299c-0.735-0.101-1.031-0.562-1.131-0.773c-0.127-0.273-0.198-0.669,0.01-1.173
		c-0.479-0.366-0.601-0.791-0.601-1.125c0-0.335,0.12-0.76,0.601-1.126c-0.208-0.504-0.137-0.9-0.01-1.173
		c0.099-0.212,0.396-0.673,1.131-0.774c0.042-0.314,0.152-0.576,0.332-0.792c0.378-0.451,0.995-0.59,1.618-0.333
		c0.366-0.478,0.79-0.599,1.124-0.599c0.04,0,0.086,0.009,0.128,0.013c-1.463-1.219-3.271-2.214-5.286-2.726
		c2.168-1.459,3.661-4.335,3.661-6.925c0-3.655-2.964-6.619-6.618-6.619s-6.618,2.963-6.618,6.619c0,2.59,1.493,5.466,3.661,6.925
		c-5.184,1.315-9.026,5.816-9.026,9.151c0,1.972,5.99,2.955,11.98,2.954l-3.354-3.354l2.826-6.832h-0.029l-1.098-1.259
		c0.531,0.191,1.084,0.305,1.658,0.305s1.126-0.114,1.656-0.304l-1.098,1.257h-0.027l2.826,6.832l-3.355,3.354
		c1.72,0,3.439-0.082,5.018-0.244l0.199-0.743C30.134,36.675,30.067,36.502,30.041,36.299z"/>
	<path d="M32.218,36.67c-0.016-0.004-0.03-0.009-0.046-0.014c-0.354,0.256-0.678,0.333-0.945,0.282l-1.147,4.284l1.111-0.756
		l0.493,1.187l1.146-4.275C32.591,37.275,32.385,37.042,32.218,36.67z"/>
	<path d="M34.059,36.656c-0.016,0.005-0.031,0.009-0.046,0.014c-0.193,0.431-0.441,0.672-0.731,0.741l1.265,4.718l0.428-1.617
		l1.178,1.186l-1.27-4.738C34.639,36.965,34.358,36.873,34.059,36.656z"/>
	<path d="M36.201,32.637c-0.028-0.151-0.076-0.293-0.125-0.436c0.655-0.78,0.41-1.205-0.594-1.027
		c-0.099-0.113-0.203-0.217-0.315-0.315c0.178-1.004-0.247-1.25-1.027-0.593c-0.143-0.049-0.284-0.097-0.435-0.126
		c-0.348-0.946-0.832-0.946-1.18,0c-0.15,0.029-0.293,0.077-0.436,0.126c-0.78-0.657-1.205-0.412-1.026,0.593
		c-0.113,0.099-0.218,0.203-0.315,0.315c-1.005-0.178-1.25,0.247-0.594,1.027c-0.049,0.143-0.098,0.285-0.126,0.435
		c-0.945,0.347-0.945,0.833,0.001,1.18c0.028,0.15,0.076,0.293,0.125,0.435c-0.656,0.781-0.411,1.206,0.594,1.027
		c0.098,0.113,0.202,0.217,0.314,0.315c-0.178,1.005,0.247,1.25,1.027,0.594c0.143,0.049,0.285,0.097,0.437,0.125
		c0.347,0.945,0.831,0.945,1.178,0c0.151-0.029,0.294-0.077,0.437-0.126c0.78,0.656,1.205,0.411,1.027-0.594
		c0.112-0.098,0.217-0.203,0.314-0.316c1.005,0.178,1.25-0.246,0.594-1.027c0.049-0.142,0.098-0.285,0.126-0.435
		C37.146,33.469,37.146,32.984,36.201,32.637z M33.115,35.744c-1.388,0-2.517-1.127-2.517-2.517c0-1.39,1.129-2.517,2.517-2.517
		s2.517,1.127,2.517,2.517C35.632,34.616,34.503,35.744,33.115,35.744z"/>
</g>
</svg>
