<?xml version="1.0" encoding="utf-8"?>
<!-- Generator: Adobe Illustrator 16.0.0, SVG Export Plug-In . SVG Version: 6.00 Build 0)  -->
<!DOCTYPE svg PUBLIC "-//W3C//DTD SVG 1.1//EN" "http://www.w3.org/Graphics/SVG/1.1/DTD/svg11.dtd">
<svg version="1.1" id="Layer_2" xmlns="http://www.w3.org/2000/svg" xmlns:xlink="http://www.w3.org/1999/xlink" x="0px" y="0px"
	 width="126px" height="126px" viewBox="0 0 126 126" enable-background="new 0 0 126 126" xml:space="preserve">
<g>
	<circle cx="86.551" cy="12.06" r="10.319"/>
	<path d="M58.427,50.034l-4.218-4.497l1.038-0.974c0.457-0.429,0.519-1.119,0.177-1.622c1.468-0.27,2.729-1.35,3.146-2.888
		c0.811-2.981,3.411-5.905,7.135-8.022c0.807-0.457,1.641-0.863,2.488-1.219l-5.537,17.33c-0.336,1.058-0.398,2.097-0.261,3.092
		l-3.892,10.385l-12.122,0.603c-2.612,0.13-4.623,2.352-4.493,4.963c0.125,2.532,2.217,4.5,4.725,4.5
		c0.078,0,0.158-0.002,0.238-0.006l15.229-0.757c1.887-0.095,3.536-1.299,4.2-3.068l3.402-9.08c0.408,0.112,0.82,0.199,1.24,0.264
		l6.21,8.961l-5.317,19.71c-0.679,2.524,0.813,5.124,3.339,5.804c0.414,0.112,0.828,0.164,1.235,0.164
		c2.088,0,3.999-1.391,4.569-3.502l5.888-21.833c0.364-1.347,0.115-2.783-0.678-3.93l-6.194-8.937
		c0.291-0.475,0.536-0.992,0.721-1.569l5.129-16.058c1.516,0.977,3.258,1.752,5.189,2.279c1.819,0.498,3.68,0.739,5.497,0.739
		c4.099,0,7.976-1.229,10.679-3.521c1.686-1.433,1.896-3.96,0.463-5.647c-1.434-1.686-3.959-1.895-5.647-0.463
		c-1.883,1.599-5.535,2.075-8.881,1.162c-2.711-0.74-4.701-2.25-5.32-4.036c-0.056-0.162-0.123-0.314-0.199-0.465
		c-0.693-2.189-2.342-4.064-4.153-5.244c-0.416-0.368-0.915-0.654-1.479-0.826c-0.249-0.11-0.52-0.214-0.804-0.297
		c-1.06-0.314-2.312-0.443-2.312-0.443l-0.031-0.005c-0.515-0.036-1.048-0.03-1.584,0.013c-5.012-0.2-10.609,1.195-15.494,3.972
		c-5.65,3.21-9.523,7.787-10.909,12.888c-0.024,0.087-0.04,0.175-0.059,0.263c-0.413-0.122-0.88-0.035-1.219,0.281l-1.038,0.976
		l-4.217-4.5L33.184,45.4l14.121,15.061L58.427,50.034z M50.279,39.264c0.084-0.079,0.216-0.074,0.293,0.01l0.15,0.162
		c0.175,1.59,1.293,2.988,2.931,3.434c0.12,0.031,0.239,0.052,0.356,0.072l0.075,0.08l0.454,0.482
		c0.08,0.083,0.074,0.215-0.01,0.293l-1.039,0.974l-4.249-4.534L50.279,39.264z"/>
	<polygon points="60.572,97.935 60.572,77.455 17.396,77.455 17.396,84.214 53.814,84.214 53.814,104.694 90.904,104.694 
		90.904,124.262 97.663,124.12 97.663,97.935 	"/>
</g>
</svg>
