<?xml version="1.0" encoding="utf-8"?>
<!-- Generator: Adobe Illustrator 16.0.0, SVG Export Plug-In . SVG Version: 6.00 Build 0)  -->
<!DOCTYPE svg PUBLIC "-//W3C//DTD SVG 1.1//EN" "http://www.w3.org/Graphics/SVG/1.1/DTD/svg11.dtd">
<svg version="1.1" id="Layer_2" xmlns="http://www.w3.org/2000/svg" xmlns:xlink="http://www.w3.org/1999/xlink" x="0px" y="0px"
	 width="126px" height="126px" viewBox="0 0 126 126" enable-background="new 0 0 126 126" xml:space="preserve">
<g>
	<path d="M102.146,70.446c-8.133-4.411-18.324-7.276-29.373-8.343v5.407c3.234,1.633,6.102,4.043,8.41,7.031
		c-3.265-0.37-6.61-0.63-9.976-0.796c-1.187,1.381-2.942,2.26-4.903,2.26c-1.341,0-2.587-0.411-3.621-1.111
		c-1.063,0.723-2.315,1.111-3.628,1.111c-1.948,0-3.693-0.868-4.881-2.234c-3.155,0.169-6.291,0.423-9.356,0.771
		c2.154-2.788,4.796-5.075,7.769-6.695l-0.001-5.683c-10.801,1.114-20.755,3.957-28.729,8.282
		C13.029,76.316,7.066,84.242,7.066,92.765c0,8.521,5.963,16.448,16.789,22.318C34.34,120.77,48.242,123.9,63,123.9
		s28.66-3.131,39.146-8.817c10.825-5.87,16.788-13.797,16.788-22.318C118.934,84.242,112.971,76.316,102.146,70.446z
		 M115.003,91.003h-8.792c-0.206-2.646-0.873-5.204-1.944-7.635C110.077,85.658,113.83,88.338,115.003,91.003z M112.207,83.256
		c-2.857-1.8-6.496-3.359-10.69-4.671c-2.34-3.275-5.458-6.218-9.188-8.693C101.356,73.114,108.384,77.781,112.207,83.256z
		 M90.707,91.003c-0.213-4.273-1.199-8.316-2.802-11.962c4.263,0.731,8.124,1.631,11.512,2.656c1.822,2.88,2.955,6.015,3.255,9.306
		H90.707z M102.672,94.526c-0.3,3.291-1.433,6.426-3.255,9.306c-3.388,1.023-7.249,1.925-11.512,2.654
		c1.603-3.644,2.589-7.688,2.802-11.96H102.672z M79.305,67.59c6.573,2.062,12.199,5.326,16.292,9.391
		c-3.074-0.722-6.338-1.336-9.729-1.833C84.076,72.231,81.854,69.675,79.305,67.59z M63,77.053c7.508,0,14.455,0.491,20.682,1.34
		c1.997,3.718,3.238,8.014,3.495,12.61H38.823c0.257-4.597,1.499-8.893,3.495-12.61C48.545,77.544,55.492,77.053,63,77.053z
		 M87.177,94.526c-0.257,4.597-1.498,8.893-3.495,12.61c-6.227,0.847-13.174,1.339-20.682,1.339s-14.455-0.492-20.682-1.339
		c-1.996-3.718-3.238-8.014-3.495-12.61H87.177z M40.132,75.147c-3.391,0.497-6.653,1.111-9.729,1.833
		c4.093-4.064,9.719-7.329,16.292-9.391C44.146,69.675,41.924,72.231,40.132,75.147z M35.293,91.003H23.328
		c0.3-3.291,1.433-6.426,3.255-9.306c3.388-1.025,7.249-1.925,11.512-2.656C36.492,82.687,35.506,86.729,35.293,91.003z
		 M38.095,106.486c-4.263-0.729-8.124-1.631-11.512-2.654c-1.822-2.88-2.955-6.015-3.255-9.306h11.965
		C35.506,98.798,36.492,102.843,38.095,106.486z M33.671,69.892c-3.729,2.476-6.848,5.418-9.188,8.693
		c-4.194,1.312-7.833,2.871-10.69,4.671C17.616,77.781,24.644,73.114,33.671,69.892z M21.733,83.368
		c-1.071,2.431-1.738,4.989-1.944,7.635h-8.791C12.17,88.338,15.923,85.658,21.733,83.368z M10.998,94.526h8.791
		c0.206,2.646,0.873,5.204,1.944,7.634C15.923,99.87,12.17,97.191,10.998,94.526z M13.793,102.271
		c2.857,1.801,6.496,3.361,10.69,4.673c2.34,3.275,5.458,6.218,9.188,8.693C24.644,112.413,17.616,107.748,13.793,102.271z
		 M30.403,108.548c3.075,0.723,6.338,1.335,9.729,1.834c1.792,2.916,4.014,5.473,6.563,7.556
		C40.122,115.877,34.496,112.613,30.403,108.548z M44.817,110.987c5.917,0.669,12.092,1.012,18.183,1.012s12.266-0.343,18.183-1.012
		c-4.443,5.751-10.946,9.39-18.183,9.39S49.261,116.738,44.817,110.987z M85.868,110.382c3.391-0.499,6.654-1.111,9.729-1.834
		c-4.093,4.065-9.719,7.329-16.292,9.39C81.854,115.854,84.076,113.298,85.868,110.382z M92.329,115.638
		c3.729-2.476,6.848-5.418,9.188-8.693c4.194-1.312,7.833-2.872,10.69-4.673C108.384,107.748,101.356,112.413,92.329,115.638z
		 M104.267,102.16c1.071-2.43,1.738-4.988,1.944-7.634h8.792C113.83,97.191,110.077,99.87,104.267,102.16z"/>
	<circle cx="62.841" cy="9.479" r="7.379"/>
	<path d="M49.995,42.491c0.143,0.021,0.282,0.031,0.42,0.031c1.398,0,2.621-1.024,2.831-2.45c0.585-3.988,1.262-6.904,2.042-9.107
		v9.02c0,0.771,0.149,1.488,0.412,2.15c-0.02,0.15-0.033,0.3-0.033,0.453l0.002,27.43c0,1.87,1.516,3.386,3.386,3.386
		c1.869,0,3.386-1.516,3.385-3.386l-0.001-23.539c0.132,0.006,0.268,0.015,0.402,0.015c0.026,0,0.053-0.002,0.079-0.004
		l-0.002,23.528c0,1.87,1.516,3.386,3.386,3.386c1.869,0,3.386-1.516,3.386-3.386l0.001-27.262c0.444-0.82,0.702-1.751,0.702-2.771
		v-9.866c0.916,2.288,1.697,5.431,2.361,9.954c0.208,1.426,1.433,2.45,2.83,2.45c0.14,0,0.278-0.011,0.42-0.031
		c1.565-0.23,2.648-1.685,2.418-3.25c-1.714-11.682-4.308-16.685-10.675-20.59c-0.123-0.075-0.253-0.129-0.384-0.184
		c-0.821-0.548-1.744-0.952-2.686-1.183l-1.837,1.85l-1.782-1.871c-0.006,0.001-0.012,0.003-0.018,0.003
		c-1.364,0.327-2.689,1.019-3.726,1.989c-5.688,3.827-8.111,8.896-9.738,19.985C47.348,40.807,48.431,42.261,49.995,42.491z
		 M62.422,22.091c0.138-0.372,0.197-0.766,0.174-1.163l0.229-1.52h0.034l1.778,11.896l-1.778,2.435h-0.034l-1.78-2.435
		L62.422,22.091z"/>
</g>
</svg>
