<?xml version="1.0" encoding="utf-8"?>
<!-- Generator: Adobe Illustrator 16.0.0, SVG Export Plug-In . SVG Version: 6.00 Build 0)  -->
<!DOCTYPE svg PUBLIC "-//W3C//DTD SVG 1.1//EN" "http://www.w3.org/Graphics/SVG/1.1/DTD/svg11.dtd">
<svg version="1.1" id="Layer_1" xmlns="http://www.w3.org/2000/svg" xmlns:xlink="http://www.w3.org/1999/xlink" x="0px" y="0px"
	 width="126px" height="126px" viewBox="0 0 126 126" enable-background="new 0 0 126 126" xml:space="preserve">
<g>
	<circle cx="27.513" cy="18.235" r="10.272"/>
	<path d="M37.049,95.063l0-30.07c0.289,0.313,0.63,0.587,1.026,0.802c0.606,0.329,1.258,0.487,1.903,0.487
		c1.413,0,2.783-0.754,3.506-2.084c11.251-20.682-4.095-30.095-9.139-33.188c-0.174-0.106-0.355-0.182-0.537-0.259
		c-1.143-0.763-2.428-1.323-3.737-1.646l-2.559,2.575l-2.481-2.604c-0.009,0.003-0.018,0.005-0.026,0.005
		c-1.337,0.321-2.647,0.895-3.811,1.674c-0.178,0.075-0.357,0.149-0.527,0.255c-5.043,3.094-20.391,12.507-9.139,33.188
		c0.723,1.33,2.092,2.084,3.506,2.084c0.644,0,1.297-0.158,1.902-0.487c0.212-0.115,0.406-0.247,0.587-0.393l0.001,29.732
		c-10.683,1.694-17.22,5.851-17.22,11.066c0,7.771,13.7,11.837,27.234,11.837c13.535,0,27.235-4.066,27.235-11.837
		C54.776,100.931,47.908,96.689,37.049,95.063z M38.027,44.895c1.735,3.028,2.161,6.916,0,12.238V44.895z M16.999,57.16
		c-2.179-5.348-1.749-9.25,0-12.285V57.16z M27.49,32.062h0.047l2.478,16.561l-2.478,3.391H27.49l-2.478-3.391L27.49,32.062z
		 M27.541,113.463c-13.833,0-22.661-4.302-22.661-7.263c0-1.82,4.048-4.914,12.647-6.421v2.747c0,2.603,2.111,4.712,4.714,4.712
		c2.604,0,4.713-2.109,4.713-4.713L26.952,69.75c0.187,0.009,0.373,0.023,0.562,0.023c0.037,0,0.073-0.004,0.11-0.004l-0.001,32.756
		c0,2.604,2.11,4.713,4.713,4.713c0,0,0,0,0,0c2.603,0,4.713-2.109,4.713-4.713v-2.837c8.943,1.459,13.154,4.605,13.154,6.512
		C50.203,109.161,41.374,113.463,27.541,113.463z"/>
	<circle cx="98.429" cy="18.235" r="10.272"/>
	<path d="M107.966,95.063l0-30.07c0.289,0.313,0.63,0.587,1.027,0.802c0.605,0.329,1.257,0.487,1.902,0.487
		c1.414,0,2.784-0.754,3.506-2.084c11.252-20.682-4.095-30.095-9.139-33.188c-0.173-0.106-0.355-0.182-0.536-0.259
		c-1.144-0.763-2.429-1.323-3.738-1.646L98.43,31.68l-2.481-2.604c-0.009,0.003-0.017,0.005-0.025,0.005
		c-1.337,0.321-2.647,0.895-3.812,1.674c-0.178,0.075-0.356,0.149-0.527,0.255c-5.043,3.094-20.39,12.507-9.139,33.188
		c0.723,1.33,2.092,2.084,3.506,2.084c0.644,0,1.297-0.158,1.903-0.487c0.211-0.115,0.405-0.247,0.586-0.393l0.001,29.732
		c-10.682,1.694-17.22,5.851-17.22,11.066c0,7.771,13.701,11.837,27.235,11.837c13.534,0,27.234-4.066,27.234-11.837
		C125.693,100.931,118.825,96.689,107.966,95.063z M108.944,44.895c1.734,3.028,2.161,6.916,0,12.238V44.895z M87.916,57.16
		c-2.178-5.348-1.749-9.25,0-12.285V57.16z M98.406,32.062h0.048l2.477,16.561l-2.477,3.391h-0.048l-2.477-3.391L98.406,32.062z
		 M98.458,113.463c-13.833,0-22.662-4.302-22.662-7.263c0-1.82,4.048-4.914,12.648-6.421v2.747c0,2.603,2.11,4.712,4.714,4.712
		c2.603,0,4.712-2.109,4.712-4.713L97.869,69.75c0.187,0.009,0.373,0.023,0.561,0.023c0.038,0,0.073-0.004,0.11-0.004l-0.001,32.756
		c0,2.604,2.11,4.713,4.713,4.713h0.001c2.603,0,4.712-2.109,4.712-4.713v-2.837c8.943,1.459,13.155,4.605,13.155,6.512
		C121.12,109.161,112.292,113.463,98.458,113.463z"/>
	<polygon points="76.844,40.804 69.394,33.354 69.394,38.436 56.344,38.436 56.344,33.354 48.896,40.804 56.344,48.252 
		56.344,42.279 69.394,42.279 69.394,48.252 	"/>
</g>
</svg>
