<?xml version="1.0" encoding="utf-8"?>
<!-- Generator: Adobe Illustrator 16.0.0, SVG Export Plug-In . SVG Version: 6.00 Build 0)  -->
<!DOCTYPE svg PUBLIC "-//W3C//DTD SVG 1.1//EN" "http://www.w3.org/Graphics/SVG/1.1/DTD/svg11.dtd">
<svg version="1.1" id="Layer_1" xmlns="http://www.w3.org/2000/svg" xmlns:xlink="http://www.w3.org/1999/xlink" x="0px" y="0px"
	 width="126px" height="126px" viewBox="0 0 126 126" enable-background="new 0 0 126 126" xml:space="preserve">
<g>
	<g>
		<g>
			<path d="M104.811,26.854c-0.146-0.09-0.301-0.148-0.453-0.218c-1.237-0.813-2.623-1.41-4.034-1.757L97.51,27.71l-2.728-2.863
				c-0.009,0.003-0.019,0.003-0.028,0.006c-1.352,0.323-2.679,0.883-3.88,1.639c-0.3,0.091-0.596,0.209-0.88,0.37
				c-1.749,0.982-3.413,1.174-5.232,0.607c-6.03-1.879-11.647-11.08-13.3-14.462c-0.44-0.909-1.162-1.579-2.001-1.996l-1.202-0.4
				c-0.873-0.15-1.797-0.049-2.656,0.369c-2.178,1.057-3.085,3.681-2.028,5.858c0.257,0.529,1.214,2.436,2.765,4.866l1.034,1.563
				c3.236,4.71,8.349,10.561,14.758,12.567c1.271,0.397,2.547,0.618,3.82,0.685v23.104c0,1.193,0.235,2.304,0.645,3.325
				c-0.029,0.219-0.067,0.435-0.067,0.661l0.003,41.983c0.001,2.863,2.32,5.182,5.182,5.182c2.862-0.001,5.182-2.32,5.182-5.182
				l-0.003-36.031c0.206,0.01,0.41,0.025,0.617,0.025c0.041,0,0.081-0.004,0.122-0.005l-0.001,36.01c0,2.861,2.319,5.182,5.18,5.182
				c0.001,0,0.001,0,0.001,0c2.861,0,5.181-2.32,5.181-5.182l0.001-41.187c0.273,0.26,0.571,0.5,0.916,0.689
				c0.666,0.362,1.384,0.533,2.091,0.533c1.555,0,3.061-0.828,3.855-2.29C127.228,40.603,110.355,30.255,104.811,26.854z
				 M97.537,50.062h-0.052l-2.724-3.727l2.724-18.204h0.052l2.724,18.204L97.537,50.062z M109.07,55.034V42.496
				C110.744,45.663,111.119,49.673,109.07,55.034z"/>
		</g>
		<g>
			<circle cx="97.51" cy="12.931" r="11.293"/>
		</g>
	</g>
	<g>
		<path d="M72.574,64.67H17.242c-3.514,0-6.374-2.859-6.374-6.374V7.58c0-3.514,2.859-6.374,6.374-6.374h55.332
			c3.515,0,6.375,2.86,6.375,6.374v50.717C78.948,61.812,76.088,64.67,72.574,64.67z M17.242,5.455
			c-1.172,0-2.124,0.953-2.124,2.125v50.717c0,1.171,0.952,2.125,2.124,2.125h55.332c1.172,0,2.125-0.953,2.125-2.125V7.58
			c0-1.172-0.953-2.125-2.125-2.125H17.242z"/>
	</g>
	<g>
		<circle cx="27.51" cy="79.923" r="8.942"/>
	</g>
	<g>
		<path d="M17.151,109.269c-0.266-2.452,0.231-4.462,1.208-6.159v6.159h9.092l-2.117-2.896l2.157-14.415h0.042l2.155,14.415
			l-2.117,2.896h9.092v-6.142c0.97,1.693,1.462,3.699,1.197,6.142h6.999c0.804-10.729-7.994-16.138-11.4-18.228
			c-0.151-0.091-0.308-0.158-0.466-0.225c-0.996-0.665-2.114-1.153-3.254-1.433l-2.228,2.242l-2.159-2.266
			c-0.008,0.001-0.015,0.001-0.022,0.003c-1.163,0.279-2.303,0.778-3.316,1.457c-0.155,0.066-0.312,0.131-0.459,0.222
			c-3.406,2.09-12.205,7.498-11.4,18.228H17.151z"/>
	</g>
	<g>
		<circle cx="62.32" cy="79.923" r="8.942"/>
	</g>
	<g>
		<path d="M51.96,109.269c-0.267-2.452,0.231-4.462,1.208-6.159v6.159h9.09l-2.116-2.896l2.156-14.415h0.042l2.157,14.415
			l-2.117,2.896h9.09v-6.142c0.971,1.693,1.464,3.699,1.199,6.142h6.998c0.804-10.729-7.993-16.138-11.4-18.228
			c-0.15-0.091-0.309-0.158-0.466-0.225c-0.995-0.665-2.113-1.153-3.253-1.433l-2.228,2.242l-2.159-2.266
			c-0.008,0.001-0.015,0.001-0.022,0.003c-1.164,0.279-2.305,0.778-3.318,1.457c-0.154,0.066-0.311,0.131-0.458,0.222
			c-3.407,2.09-12.204,7.498-11.4,18.228H51.96z"/>
	</g>
	<g>
		<rect x="6.711" y="112.051" width="102.236" height="12.743"/>
	</g>
	<g>
		<path fill="#010101" d="M60.257,35.034l-1.782-0.657c0.14-1.299,0.093-2.623-0.151-3.94l1.721-0.793
			c1.074-0.493,1.544-1.771,1.049-2.845l-1.003-2.179c-0.494-1.075-1.77-1.547-2.844-1.052l-1.722,0.794
			c-0.841-1.043-1.818-1.938-2.895-2.676l0.657-1.779c0.409-1.109-0.16-2.346-1.269-2.755l-2.252-0.832
			c-1.075-0.396-2.358,0.195-2.755,1.269l-0.657,1.781c-1.298-0.14-2.623-0.094-3.938,0.149L41.622,17.8
			c-0.494-1.074-1.771-1.546-2.845-1.052l-2.181,1.004c-1.074,0.495-1.545,1.772-1.05,2.846l0.793,1.72
			c-1.042,0.843-1.938,1.82-2.676,2.896l-1.778-0.656c-1.072-0.399-2.358,0.191-2.756,1.267l-0.832,2.253
			c-0.198,0.538-0.175,1.121,0.063,1.64c0.242,0.521,0.67,0.917,1.206,1.113l1.781,0.659c-0.141,1.298-0.095,2.623,0.15,3.938
			l-1.721,0.792c-1.075,0.495-1.545,1.771-1.05,2.844l1.004,2.183c0.496,1.073,1.771,1.544,2.844,1.049l1.722-0.792
			c0.841,1.041,1.818,1.938,2.896,2.673l-0.656,1.78c-0.2,0.538-0.178,1.119,0.063,1.639c0.238,0.521,0.667,0.918,1.205,1.117
			l2.251,0.832c0.537,0.198,1.12,0.175,1.64-0.063c0.521-0.24,0.916-0.669,1.115-1.205l0.656-1.781
			c1.3,0.141,2.624,0.095,3.939-0.15l0.793,1.721c0.494,1.073,1.771,1.544,2.845,1.049l2.18-1.004
			c1.075-0.494,1.545-1.771,1.05-2.845l-0.793-1.721c1.042-0.842,1.938-1.817,2.675-2.895l1.781,0.658
			c0.538,0.199,1.121,0.175,1.642-0.065c0.519-0.239,0.915-0.667,1.113-1.204l0.831-2.253
			C61.933,36.679,61.364,35.444,60.257,35.034z M48.459,40.636c-1.124,0.518-2.315,0.779-3.544,0.779
			c-3.302,0-6.326-1.937-7.708-4.934c-1.956-4.248-0.092-9.295,4.156-11.251c1.123-0.518,2.315-0.779,3.543-0.779
			c3.301,0,6.327,1.936,7.708,4.932C54.569,33.632,52.706,38.679,48.459,40.636z"/>
	</g>
</g>
</svg>
