<?xml version="1.0" encoding="utf-8"?>
<!-- Generator: Adobe Illustrator 16.0.0, SVG Export Plug-In . SVG Version: 6.00 Build 0)  -->
<!DOCTYPE svg PUBLIC "-//W3C//DTD SVG 1.1//EN" "http://www.w3.org/Graphics/SVG/1.1/DTD/svg11.dtd">
<svg version="1.1" id="Layer_2" xmlns="http://www.w3.org/2000/svg" xmlns:xlink="http://www.w3.org/1999/xlink" x="0px" y="0px"
	 width="126px" height="126px" viewBox="0 0 126 126" enable-background="new 0 0 126 126" xml:space="preserve">
<g>
	<path d="M124.248,66.151H87.037V32.038c0-6.841-1.992-11.584-6.664-15.853c-0.975-0.891-2.49-0.824-3.38,0.15
		c-0.892,0.976-0.824,2.489,0.151,3.381c3.676,3.36,5.107,6.813,5.107,12.321v9.407c-2.521-3.948-6.292-7.566-11.472-9.938
		c-0.129-0.06-0.258-0.108-0.39-0.155c-1.36-0.824-2.846-1.442-4.359-1.815l-3.379,3.4l-3.273-3.438
		c-0.011,0.005-0.021,0.005-0.035,0.007c-1.772,0.425-3.512,1.187-5.055,2.226c-0.276,0.105-0.555,0.221-0.817,0.377
		c-4.94,2.91-8.815,5.911-11.639,8.983v-9.054c0-5.619,1.496-9.131,5.337-12.528c0.988-0.873,1.082-2.385,0.207-3.376
		c-0.875-0.989-2.39-1.082-3.378-0.207c-4.871,4.312-6.949,9.13-6.949,16.111v16.757c-0.339,1.019-0.581,2.04-0.696,3.067
		c-0.232,2.068,0.025,4.108,0.696,6.054v8.235H1.752v6.699h10.826c-1.021,1.847-1.604,3.967-1.604,6.22v31.104
		c0,7.122,5.797,12.919,12.919,12.919v-6.7c-3.429,0-6.219-2.79-6.219-6.219V79.07c0-3.43,2.79-6.22,6.219-6.22h12.078l4.026,1.779
		h8.653c-0.391,0.813-0.615,1.72-0.615,2.679l0.002,40.836c0,3.435,2.786,6.22,6.222,6.22c3.437,0,6.22-2.785,6.22-6.222
		l-0.003-29.201v-9.985v-1.647c0-0.961-0.225-1.868-0.617-2.679h4.033c-0.389,0.813-0.614,1.72-0.614,2.679l-0.002,40.834
		c0,3.437,2.783,6.222,6.219,6.222s6.222-2.785,6.222-6.222l0.003-32.608v-8.226c0-0.959-0.226-1.865-0.617-2.679h8.987l4.025-1.779
		h12.338c3.433,0,6.222,2.79,6.222,6.22v31.104c0,3.429-2.789,6.219-6.222,6.219v6.7c7.126,0,12.92-5.797,12.92-12.919V79.07
		c0-2.253-0.581-4.373-1.602-6.22h12.477V66.151z M48.775,66.151h-6.942v-1.323c0.935,0.701,2.035,1.07,3.144,1.07
		c1.385,0,2.768-0.547,3.799-1.625V66.151z M52.741,61.459c0.274,0.452,0.132,1.042-0.318,1.316
		c-0.445,0.271-1.051,0.117-1.315-0.318l-0.205-0.361c-0.83,0.379-1.769,0.595-2.764,0.595c-3.362,0-6.088-2.427-6.088-5.423
		c0-2.119,1.367-3.947,3.356-4.84l-3.574-6.287v-2.342c0.093-0.029,0.187-0.047,0.285-0.047c0.339,0,0.646,0.172,0.819,0.459
		l4.373,7.69c0.271-0.033,0.545-0.056,0.828-0.056c3.362,0,6.091,2.428,6.091,5.422c0,1.468-0.66,2.798-1.724,3.775L52.741,61.459z
		 M62.687,59.77h-0.065l-3.269-4.475l3.269-21.854h0.065l3.268,21.854L62.687,59.77z M82.252,66.151h-2.729
		c1.013-0.56,1.931-1.243,2.729-2.045V66.151z"/>
	<circle cx="62.652" cy="15.193" r="13.558"/>
</g>
</svg>
