<?xml version="1.0" encoding="utf-8"?>
<!-- Generator: Adobe Illustrator 16.0.0, SVG Export Plug-In . SVG Version: 6.00 Build 0)  -->
<!DOCTYPE svg PUBLIC "-//W3C//DTD SVG 1.1//EN" "http://www.w3.org/Graphics/SVG/1.1/DTD/svg11.dtd">
<svg version="1.1" id="Layer_1" xmlns="http://www.w3.org/2000/svg" xmlns:xlink="http://www.w3.org/1999/xlink" x="0px" y="0px"
	 width="50px" height="50px" viewBox="0 0 50 50" enable-background="new 0 0 50 50" xml:space="preserve">
<g>
	<path d="M17.188,25.306l-1.522-1.521l1.284-3.104h-0.013l-0.498-0.572c0.242,0.087,0.491,0.14,0.752,0.14
		c0.261,0,0.511-0.052,0.753-0.139l-0.5,0.571h-0.012l1.285,3.104l-1.524,1.521c0.935-0.001,1.869-0.053,2.693-0.158
		c-0.002-0.051-0.014-0.101-0.014-0.151c0-1.391,0.561-2.651,1.463-3.577c-0.721-0.718-1.689-1.328-2.801-1.611
		c0.984-0.663,1.663-1.968,1.663-3.146c0-1.662-1.344-3.008-3.007-3.008c-1.66,0-3.007,1.346-3.007,3.008
		c0,1.178,0.68,2.482,1.664,3.146c-2.356,0.599-4.101,2.643-4.101,4.159C11.746,24.864,14.466,25.308,17.188,25.306z"/>
	<polygon points="17.19,25.309 17.192,25.306 17.188,25.306 	"/>
	<path d="M30.129,24.996c0,0.051-0.011,0.101-0.013,0.151c0.824,0.105,1.757,0.157,2.692,0.158l-1.525-1.521l1.285-3.104h-0.013
		l-0.499-0.572c0.241,0.087,0.491,0.14,0.753,0.14c0.261,0,0.511-0.052,0.752-0.139l-0.499,0.571h-0.012l1.286,3.104l-1.525,1.521
		c2.722,0.002,5.442-0.441,5.442-1.339c0-1.517-1.747-3.561-4.101-4.159c0.985-0.663,1.663-1.968,1.663-3.146
		c0-1.662-1.346-3.008-3.006-3.008c-1.661,0-3.007,1.346-3.007,3.008c0,1.178,0.679,2.482,1.663,3.146
		c-1.112,0.283-2.079,0.893-2.8,1.611C29.568,22.345,30.129,23.605,30.129,24.996z"/>
	<polygon points="32.81,25.309 32.812,25.306 32.808,25.306 	"/>
	<path d="M40.271,25.309l2.652,2.433H29.447c-0.162,0.324-0.345,0.639-0.558,0.932c0.52,0.263,1.002,0.583,1.458,0.929h13.683v-1.86
		L40.271,25.309z"/>
	<path d="M21.112,28.673c-0.212-0.293-0.396-0.606-0.558-0.932H7.076l2.653-2.433l-3.758,2.433v1.86h13.683
		C20.109,29.256,20.592,28.936,21.112,28.673z"/>
	<path d="M26.765,29.125c1.292-0.871,2.182-2.584,2.182-4.129c0-2.182-1.767-3.948-3.946-3.948c-2.181,0-3.946,1.767-3.946,3.948
		c0,1.545,0.89,3.258,2.183,4.129c-3.092,0.784-5.383,3.468-5.383,5.46c0,2.348,14.292,2.348,14.292,0
		C32.146,32.593,29.856,29.909,26.765,29.125z"/>
</g>
</svg>
