<?xml version="1.0" encoding="utf-8"?>
<!-- Generator: Adobe Illustrator 17.0.0, SVG Export Plug-In . SVG Version: 6.00 Build 0)  -->
<!DOCTYPE svg PUBLIC "-//W3C//DTD SVG 1.1//EN" "http://www.w3.org/Graphics/SVG/1.1/DTD/svg11.dtd">
<svg version="1.1" id="Layer_1" xmlns="http://www.w3.org/2000/svg" xmlns:xlink="http://www.w3.org/1999/xlink" x="0px" y="0px"
	 width="126px" height="126px" viewBox="0 0 126 126" enable-background="new 0 0 126 126" xml:space="preserve">
<path d="M56.462,7.315c0-3.363,2.726-6.089,6.089-6.089c3.363,0,6.089,2.726,6.089,6.089s-2.726,6.089-6.089,6.089
	C59.188,13.404,56.462,10.678,56.462,7.315z M50.197,33.493c0.838-13.417,3.552-15.71,8.279-18.609
	c0.117-0.071,0.238-0.125,0.359-0.174c0.682-0.451,1.448-0.782,2.227-0.968c0.006-0.002,0.01-0.002,0.016-0.003l1.471,1.544
	l1.516-1.527c0.778,0.191,1.539,0.524,2.219,0.977c0.105,0.045,0.212,0.089,0.314,0.152c4.726,2.899,7.441,5.192,8.279,18.609
	c0.08,1.303-0.91,2.425-2.213,2.507c-0.048,0.003-0.099,0.004-0.148,0.004c-1.238,0-2.279-0.964-2.357-2.216
	c-0.279-4.478-0.731-7.398-1.377-9.421v8.122c0,0.842-0.215,1.609-0.58,2.288L68.2,57.275c0,1.543-1.25,2.794-2.793,2.794
	c-1.543,0-2.793-1.251-2.793-2.794V37.859c-0.021,0.001-0.043,0.003-0.064,0.003c-0.111,0-0.223-0.009-0.334-0.014l0.002,19.426
	c0,1.543-1.25,2.794-2.793,2.794c-1.543,0.001-2.793-1.25-2.793-2.793l-0.004-22.636c0-0.127,0.011-0.252,0.029-0.375
	c-0.217-0.545-0.34-1.138-0.34-1.774V24.3c-0.658,2.025-1.117,4.96-1.4,9.49c-0.078,1.252-1.119,2.216-2.357,2.216
	c-0.048,0-0.097-0.001-0.15-0.004C51.109,35.921,50.117,34.799,50.197,33.493z M61.068,25.326l1.467,2.009h0.029l1.469-2.009
	l-1.469-9.816h-0.029L61.068,25.326z M36.906,78.108c3.363,0,6.089-2.726,6.089-6.089s-2.726-6.089-6.089-6.089
	s-6.089,2.726-6.089,6.089S33.543,78.108,36.906,78.108z M49.232,98.199c0.08,1.303-0.91,2.426-2.213,2.507
	c-0.048,0.003-0.099,0.004-0.148,0.004c-1.238,0-2.279-0.964-2.357-2.217c-0.279-4.478-0.732-7.398-1.377-9.421v8.122
	c0,0.841-0.215,1.609-0.58,2.287l-0.002,22.498c0,1.543-1.25,2.794-2.793,2.794c-1.543,0-2.793-1.251-2.793-2.794v-19.415
	c-0.021,0-0.043,0.003-0.064,0.003c-0.111,0-0.223-0.009-0.334-0.014l0.002,19.426c0,1.543-1.25,2.794-2.793,2.794
	c-1.543,0-2.793-1.251-2.793-2.794l-0.004-22.636c0-0.127,0.011-0.251,0.029-0.374c-0.217-0.546-0.34-1.139-0.34-1.775v-8.19
	c-0.658,2.025-1.117,4.96-1.4,9.489c-0.078,1.254-1.119,2.217-2.357,2.217c-0.048,0-0.097-0.001-0.15-0.004
	c-1.301-0.081-2.293-1.204-2.211-2.507c0.838-13.417,3.552-15.711,8.279-18.609c0.117-0.071,0.238-0.125,0.361-0.174
	c0.68-0.452,1.446-0.782,2.225-0.969c0.004-0.001,0.01-0.001,0.016-0.003l1.471,1.544l1.516-1.527
	c0.778,0.19,1.539,0.523,2.217,0.976c0.107,0.046,0.214,0.09,0.316,0.153C45.682,82.489,48.396,84.782,49.232,98.199z M38.389,90.03
	l-1.469-9.815h-0.029l-1.467,9.815l1.467,2.01h0.029L38.389,90.03z M56.752,72.02c0,3.363,2.726,6.089,6.089,6.089
	s6.089-2.726,6.089-6.089c0-3.363-2.726-6.089-6.089-6.089S56.752,68.657,56.752,72.02z M75.168,98.2
	c0.08,1.303-0.91,2.426-2.213,2.507c-0.05,0.003-0.099,0.004-0.148,0.004c-1.24,0-2.279-0.964-2.359-2.217
	c-0.279-4.478-0.731-7.398-1.377-9.421v8.122c0,0.841-0.213,1.609-0.58,2.287v22.497c0,1.543-1.25,2.794-2.795,2.794
	c-1.541,0-2.791-1.251-2.791-2.794v-19.415c-0.023,0-0.045,0.003-0.066,0.003c-0.109,0-0.221-0.009-0.332-0.014l0.002,19.426
	c0,1.543-1.25,2.794-2.795,2.794c-1.543,0-2.793-1.251-2.793-2.794l-0.002-22.636c0-0.127,0.011-0.251,0.027-0.374
	c-0.215-0.546-0.34-1.139-0.34-1.775v-8.19c-0.656,2.025-1.115,4.96-1.398,9.489c-0.08,1.254-1.119,2.217-2.359,2.217
	c-0.048,0-0.097-0.001-0.148-0.004c-1.303-0.081-2.293-1.204-2.213-2.507c0.838-13.417,3.552-15.711,8.279-18.609
	c0.117-0.071,0.238-0.125,0.361-0.174c0.682-0.452,1.448-0.782,2.225-0.969c0.006-0.001,0.01-0.001,0.016-0.003l1.471,1.544
	l1.518-1.527c0.776,0.19,1.537,0.523,2.217,0.976c0.105,0.046,0.212,0.09,0.314,0.153C71.617,82.489,74.332,84.782,75.168,98.2z
	 M64.322,90.03l-1.467-9.815h-0.029l-1.469,9.815l1.469,2.01h0.029L64.322,90.03z M89.117,78.108c3.363,0,6.089-2.726,6.089-6.089
	s-2.726-6.089-6.089-6.089s-6.089,2.726-6.089,6.089S85.754,78.108,89.117,78.108z M101.443,98.199
	c0.08,1.303-0.91,2.426-2.211,2.507c-0.052,0.003-0.099,0.004-0.15,0.004c-1.238,0-2.279-0.964-2.357-2.217
	c-0.279-4.478-0.732-7.398-1.377-9.421v8.122c0,0.841-0.215,1.609-0.58,2.287l-0.002,22.498c0,1.543-1.25,2.794-2.793,2.794
	c-1.543,0-2.793-1.251-2.793-2.794v-19.415c-0.021,0-0.043,0.003-0.064,0.003c-0.111,0-0.223-0.009-0.334-0.014l0.002,19.426
	c0,1.543-1.25,2.794-2.793,2.794c-1.543,0-2.795-1.251-2.795-2.794l-0.002-22.636c0-0.127,0.013-0.251,0.029-0.374
	c-0.217-0.546-0.34-1.139-0.34-1.775v-8.19c-0.658,2.025-1.117,4.96-1.4,9.489c-0.078,1.254-1.119,2.217-2.357,2.217
	c-0.048,0-0.099-0.001-0.15-0.004c-1.301-0.081-2.291-1.204-2.211-2.507c0.838-13.417,3.552-15.711,8.279-18.609
	c0.115-0.071,0.238-0.125,0.361-0.174c0.682-0.452,1.446-0.782,2.225-0.969c0.006-0.001,0.01-0.001,0.016-0.003l1.471,1.544
	l1.516-1.527c0.778,0.19,1.539,0.523,2.217,0.976c0.107,0.046,0.214,0.09,0.316,0.153C97.893,82.489,100.607,84.782,101.443,98.199z
	 M90.6,90.03l-1.469-9.815h-0.029l-1.467,9.815l1.467,2.01h0.029L90.6,90.03z M54.526,61.604l-0.955-1.168L43.374,68.77l0.955,1.168
	L54.526,61.604z M70.555,61.595l10.189,8.338l0.956-1.169l-10.189-8.338L70.555,61.595z M63.401,61.17h-1.51v3.9h1.51V61.17z"/>
</svg>
