<?xml version="1.0" encoding="utf-8"?>
<!-- Generator: Adobe Illustrator 16.0.0, SVG Export Plug-In . SVG Version: 6.00 Build 0)  -->
<!DOCTYPE svg PUBLIC "-//W3C//DTD SVG 1.1//EN" "http://www.w3.org/Graphics/SVG/1.1/DTD/svg11.dtd">
<svg version="1.1" id="Layer_2" xmlns="http://www.w3.org/2000/svg" xmlns:xlink="http://www.w3.org/1999/xlink" x="0px" y="0px"
	 width="126px" height="126px" viewBox="0 0 126 126" enable-background="new 0 0 126 126" xml:space="preserve">
<g>
	<path d="M60.893,76.211c-1.893,2.35-4.651,3.834-7.73,3.834c-4.523,0-8.359-3.197-9.764-7.644
		c-4.85,0.948-8.929,2.608-11.025,4.913c0.702,3.6,1.231,7.203,1.598,10.803c-0.522-0.081-1.053-0.136-1.598-0.136
		c-5.713,0-10.344,4.632-10.344,10.344c0,5.715,4.631,10.345,10.344,10.345c0.545,0,1.077-0.054,1.599-0.136
		c-0.367,3.605-0.896,7.209-1.599,10.814c2.088,2.296,6.144,3.948,10.968,4.899c1.359-4.535,5.24-7.815,9.821-7.815
		c3.182,0,6.025,1.583,7.921,4.066c-0.119-0.639-0.188-1.294-0.188-1.966L60.893,76.211z"/>
	<circle cx="77.196" cy="14.405" r="12.653"/>
	<path d="M103.918,65.447c-2.939-20.032-7.386-28.612-18.306-35.31c-0.212-0.13-0.435-0.222-0.658-0.316
		c-1.408-0.939-2.992-1.633-4.605-2.028l-3.152,3.172l-3.056-3.208c-0.01,0.002-0.021,0.005-0.031,0.005
		c-2.338,0.561-4.611,1.746-6.388,3.41c-9.756,6.565-13.911,15.258-16.701,34.275c-0.394,2.685,1.463,5.18,4.147,5.575
		c0.242,0.033,0.481,0.052,0.719,0.052c2.397,0,4.496-1.757,4.854-4.201c1.004-6.841,2.165-11.841,3.503-15.619v15.468
		c0,1.323,0.257,2.554,0.707,3.688c-0.035,0.256-0.058,0.514-0.058,0.777l0.003,47.041c0,3.207,2.6,5.807,5.806,5.807
		c3.206,0,5.806-2.602,5.805-5.807l-0.002-40.369c0.229,0.01,0.459,0.025,0.691,0.025c0.045,0,0.09-0.004,0.136-0.006l-0.002,40.35
		c0,3.205,2.599,5.807,5.806,5.807c3.206,0,5.806-2.602,5.806-5.807l0.002-46.753c0.76-1.408,1.203-3.003,1.203-4.754V49.803
		c1.572,3.924,2.912,9.314,4.049,17.07c0.358,2.444,2.457,4.201,4.854,4.201c0.237,0,0.478-0.019,0.72-0.052
		C102.455,70.627,104.312,68.132,103.918,65.447z M77.226,56.01h-0.059l-3.052-4.175l2.364-15.801
		c0.236-0.637,0.337-1.312,0.297-1.995l0.391-2.604h0.059l3.051,20.399L77.226,56.01z"/>
</g>
</svg>
