<?xml version="1.0" encoding="utf-8"?>
<!-- Generator: Adobe Illustrator 16.0.0, SVG Export Plug-In . SVG Version: 6.00 Build 0)  -->
<!DOCTYPE svg PUBLIC "-//W3C//DTD SVG 1.1//EN" "http://www.w3.org/Graphics/SVG/1.1/DTD/svg11.dtd">
<svg version="1.1" id="Layer_1" xmlns="http://www.w3.org/2000/svg" xmlns:xlink="http://www.w3.org/1999/xlink" x="0px" y="0px"
	 width="126px" height="126px" viewBox="0 0 126 126" enable-background="new 0 0 126 126" xml:space="preserve">
<g>
	<polygon fill="#010101" points="59.01,63.496 47.627,63.496 47.627,67.018 59.01,67.018 59.01,121.525 80.42,121.525 
		80.42,118.004 62.531,118.004 62.531,67.018 77.261,67.018 77.261,63.496 62.531,63.496 62.531,14.855 80.42,14.855 80.42,11.334 
		59.01,11.334 	"/>
	<circle fill="#010101" cx="23.125" cy="20.303" r="10.663"/>
	<path fill="#010101" d="M30.216,33.561c-0.179-0.11-0.365-0.187-0.551-0.266c-1.19-0.792-2.523-1.376-3.886-1.71l-2.654,2.674
		l-2.574-2.704c-0.012,0-0.018,0.003-0.029,0.006c-1.364,0.327-2.705,0.905-3.899,1.695c-0.211,0.087-0.422,0.181-0.628,0.305
		C7.716,38.638,2.963,42.654,1.493,66.15c-0.143,2.282,1.595,4.248,3.874,4.391c0.091,0.006,0.179,0.008,0.264,0.008
		c2.168,0,3.99-1.688,4.128-3.883c0.496-7.934,1.299-13.073,2.451-16.619v14.346c0,1.113,0.217,2.15,0.596,3.105
		c-0.03,0.216-0.051,0.434-0.051,0.655l0.007,39.644c0,2.703,2.189,4.89,4.891,4.89c2.703,0,4.892-2.189,4.892-4.893L22.54,73.775
		c0.195,0.008,0.39,0.023,0.585,0.023c0.036,0,0.076-0.005,0.114-0.005v34c0,2.703,2.188,4.893,4.89,4.893
		c2.703,0,4.892-2.189,4.892-4.893l0.005-39.396c0.639-1.189,1.013-2.532,1.013-4.006V50.169c1.134,3.54,1.924,8.653,2.414,16.497
		c0.136,2.195,1.958,3.883,4.128,3.883c0.085,0,0.174-0.002,0.26-0.008c2.28-0.143,4.016-2.108,3.875-4.391
		C43.246,42.654,38.492,38.638,30.216,33.561z M23.149,55.362h-0.052l-2.568-3.517l2.568-17.191h0.052l2.569,17.191L23.149,55.362z"
		/>
	<path fill="#010101" d="M122.779,23.805l-2.208-0.814c0.176-1.609,0.117-3.251-0.185-4.885l2.131-0.979
		c1.331-0.612,1.914-2.197,1.302-3.528l-1.245-2.701c-0.611-1.332-2.193-1.917-3.523-1.303l-2.136,0.983
		c-1.043-1.292-2.254-2.401-3.588-3.317l0.813-2.203c0.506-1.375-0.197-2.909-1.571-3.416l-2.793-1.032
		c-1.333-0.489-2.923,0.242-3.415,1.573l-0.813,2.208c-1.606-0.175-3.251-0.116-4.882,0.185l-0.984-2.131
		c-0.612-1.331-2.193-1.917-3.525-1.302l-2.702,1.243c-1.331,0.614-1.915,2.197-1.303,3.527l0.983,2.132
		c-1.29,1.044-2.4,2.255-3.316,3.591l-2.203-0.813c-1.33-0.496-2.925,0.237-3.417,1.569l-1.028,2.794
		c-0.246,0.665-0.22,1.388,0.077,2.033c0.3,0.644,0.83,1.135,1.493,1.377l2.208,0.819c-0.174,1.608-0.118,3.25,0.187,4.881
		l-2.134,0.982c-1.331,0.614-1.915,2.193-1.301,3.524l1.243,2.705c0.615,1.328,2.195,1.915,3.527,1.301l2.131-0.982
		c1.043,1.292,2.254,2.402,3.594,3.315l-0.817,2.206c-0.248,0.666-0.218,1.388,0.079,2.033c0.296,0.644,0.828,1.137,1.492,1.384
		l2.793,1.028c0.665,0.248,1.387,0.218,2.031-0.078c0.646-0.298,1.138-0.827,1.381-1.494l0.816-2.207
		c1.607,0.174,3.25,0.118,4.883-0.184l0.98,2.131c0.614,1.329,2.197,1.914,3.528,1.302l2.701-1.243
		c1.334-0.615,1.915-2.195,1.302-3.528l-0.982-2.131c1.292-1.046,2.404-2.254,3.315-3.591l2.207,0.815
		c0.667,0.247,1.39,0.219,2.036-0.081c0.641-0.296,1.132-0.825,1.377-1.492l1.031-2.792
		C124.857,25.845,124.153,24.313,122.779,23.805z M108.158,30.749c-1.394,0.643-2.872,0.966-4.395,0.966
		c-4.092,0-7.841-2.4-9.553-6.116c-2.424-5.265-0.113-11.521,5.149-13.944c1.394-0.643,2.872-0.966,4.393-0.966
		c4.093,0,7.842,2.399,9.555,6.113C115.731,22.068,113.42,28.325,108.158,30.749z"/>
	<path fill="#010101" d="M118.99,69.83l-1.639-0.603c0.13-1.193,0.088-2.413-0.135-3.622l1.578-0.729
		c0.99-0.455,1.422-1.629,0.968-2.617l-0.925-2.005c-0.454-0.986-1.627-1.421-2.614-0.966l-1.584,0.729
		c-0.772-0.956-1.671-1.779-2.66-2.459l0.604-1.635c0.374-1.021-0.147-2.158-1.167-2.533l-2.069-0.767
		c-0.988-0.364-2.169,0.179-2.535,1.167l-0.603,1.637c-1.193-0.129-2.411-0.086-3.622,0.138l-0.729-1.581
		c-0.455-0.988-1.628-1.421-2.616-0.966l-2.004,0.923c-0.987,0.456-1.422,1.63-0.967,2.615l0.729,1.583
		c-0.956,0.773-1.781,1.672-2.46,2.663l-1.634-0.603c-0.987-0.369-2.169,0.177-2.535,1.164l-0.763,2.071
		c-0.183,0.494-0.161,1.03,0.058,1.509c0.222,0.478,0.615,0.843,1.107,1.022l1.638,0.606c-0.129,1.191-0.088,2.411,0.138,3.622
		l-1.582,0.729c-0.988,0.453-1.42,1.625-0.966,2.612l0.923,2.006c0.455,0.987,1.629,1.422,2.616,0.966l1.581-0.728
		c0.773,0.959,1.671,1.78,2.665,2.459l-0.604,1.637c-0.184,0.493-0.163,1.028,0.059,1.508c0.219,0.478,0.612,0.843,1.107,1.026
		l2.07,0.763c0.493,0.182,1.028,0.161,1.507-0.059c0.479-0.219,0.844-0.615,1.024-1.108l0.605-1.637
		c1.193,0.129,2.411,0.087,3.622-0.139l0.727,1.583c0.455,0.986,1.631,1.419,2.616,0.966l2.005-0.924
		c0.99-0.454,1.42-1.627,0.966-2.615l-0.728-1.582c0.958-0.774,1.781-1.671,2.458-2.663l1.637,0.605
		c0.495,0.182,1.03,0.16,1.509-0.06c0.478-0.219,0.841-0.614,1.023-1.106l0.765-2.072C120.531,71.344,120.01,70.207,118.99,69.83z
		 M108.146,74.982c-1.035,0.476-2.133,0.716-3.261,0.716c-3.037,0-5.816-1.78-7.086-4.537c-1.797-3.904-0.085-8.544,3.819-10.342
		c1.033-0.479,2.129-0.717,3.26-0.717c3.033,0,5.814,1.778,7.086,4.534C113.761,68.543,112.05,73.184,108.146,74.982z"/>
	<path fill="#010101" d="M116.692,114.271l-1.371-0.506c0.108-0.998,0.071-2.019-0.115-3.032l1.324-0.61
		c0.827-0.38,1.188-1.362,0.808-2.189l-0.773-1.679c-0.38-0.826-1.362-1.188-2.188-0.808l-1.325,0.61
		c-0.648-0.803-1.4-1.489-2.227-2.059l0.505-1.369c0.314-0.855-0.124-1.807-0.977-2.12l-1.735-0.643
		c-0.826-0.304-1.814,0.15-2.12,0.977l-0.506,1.373c-1-0.108-2.019-0.073-3.031,0.114l-0.611-1.323
		c-0.379-0.827-1.361-1.189-2.188-0.809l-1.679,0.772c-0.827,0.38-1.189,1.363-0.81,2.188l0.61,1.325
		c-0.799,0.647-1.491,1.4-2.058,2.23l-1.37-0.507c-0.824-0.308-1.814,0.149-2.12,0.975l-0.64,1.734
		c-0.153,0.415-0.135,0.863,0.048,1.264c0.188,0.4,0.516,0.704,0.928,0.856l1.372,0.508c-0.109,0.997-0.075,2.017,0.112,3.031
		l-1.321,0.609c-0.827,0.381-1.191,1.362-0.811,2.188l0.774,1.681c0.38,0.825,1.363,1.189,2.188,0.808l1.326-0.608
		c0.646,0.801,1.399,1.491,2.231,2.057l-0.508,1.37c-0.154,0.412-0.138,0.861,0.049,1.263c0.185,0.399,0.513,0.706,0.926,0.858
		l1.734,0.64c0.413,0.152,0.86,0.134,1.264-0.05c0.399-0.183,0.704-0.513,0.855-0.927l0.508-1.372
		c0.997,0.11,2.017,0.074,3.031-0.113l0.61,1.323c0.38,0.827,1.362,1.189,2.19,0.809l1.676-0.774c0.828-0.38,1.19-1.359,0.809-2.188
		l-0.608-1.324c0.801-0.649,1.489-1.4,2.057-2.229l1.371,0.506c0.414,0.153,0.862,0.135,1.263-0.05
		c0.399-0.183,0.702-0.513,0.858-0.927l0.64-1.734C117.984,115.539,117.546,114.588,116.692,114.271z M107.613,118.584
		c-0.866,0.398-1.782,0.6-2.728,0.6c-2.541,0-4.871-1.49-5.933-3.799c-1.505-3.268-0.071-7.154,3.196-8.659
		c0.865-0.397,1.785-0.598,2.729-0.598c2.541,0,4.868,1.489,5.932,3.794C112.315,113.193,110.881,117.078,107.613,118.584z"/>
</g>
</svg>
