<?xml version="1.0" encoding="utf-8"?>
<!-- Generator: Adobe Illustrator 16.0.0, SVG Export Plug-In . SVG Version: 6.00 Build 0)  -->
<!DOCTYPE svg PUBLIC "-//W3C//DTD SVG 1.1//EN" "http://www.w3.org/Graphics/SVG/1.1/DTD/svg11.dtd">
<svg version="1.1" id="Layer_3" xmlns="http://www.w3.org/2000/svg" xmlns:xlink="http://www.w3.org/1999/xlink" x="0px" y="0px"
	 width="126px" height="126px" viewBox="0 0 126 126" enable-background="new 0 0 126 126" xml:space="preserve">
<g>
	<path d="M113.47,74.677H91.837c0.248-0.761,0.349-1.58,0.225-2.426c-3.229-22.015-8.116-31.442-20.115-38.799
		c-0.233-0.144-0.478-0.244-0.721-0.35c-1.549-1.033-3.289-1.792-5.062-2.228L62.7,34.362l-3.358-3.525
		c-0.012,0.002-0.023,0.002-0.035,0.007c-2.569,0.612-5.067,1.914-7.02,3.747c-10.719,7.208-15.283,16.762-18.349,37.66
		c-0.124,0.846-0.023,1.665,0.225,2.426H12.53c-1.107,0-2.004,0.896-2.004,2.004v45.056c0,1.107,0.897,2.004,2.004,2.004H113.47
		c1.107,0,2.004-0.896,2.004-2.004V76.681C115.474,75.573,114.577,74.677,113.47,74.677z M76.931,55.06
		c1.727,4.31,3.199,10.233,4.449,18.758c0.044,0.298,0.115,0.582,0.204,0.859h-4.711c0.032-0.338,0.058-0.676,0.058-1.025V55.06z
		 M61.912,39.929c0.259-0.698,0.37-1.438,0.328-2.188l0.428-2.864h0.065l3.353,22.413l-3.353,4.589h-0.065l-3.352-4.589
		L61.912,39.929z M44.62,73.817c1.103-7.518,2.379-13.01,3.849-17.162v16.996c0,0.347,0.019,0.688,0.05,1.025h-4.103
		C44.505,74.399,44.576,74.115,44.62,73.817z M111.465,119.731h-96.93V78.686h96.93V119.731z"/>
	<circle cx="62.7" cy="16.165" r="13.905"/>
</g>
</svg>
