<?xml version="1.0" encoding="utf-8"?>
<!-- Generator: Adobe Illustrator 16.0.0, SVG Export Plug-In . SVG Version: 6.00 Build 0)  -->
<!DOCTYPE svg PUBLIC "-//W3C//DTD SVG 1.1//EN" "http://www.w3.org/Graphics/SVG/1.1/DTD/svg11.dtd">
<svg version="1.1" id="Layer_1" xmlns="http://www.w3.org/2000/svg" xmlns:xlink="http://www.w3.org/1999/xlink" x="0px" y="0px"
	 width="50px" height="50px" viewBox="0 0 50 50" enable-background="new 0 0 50 50" xml:space="preserve">
<g>
	<path d="M15,15.463c1.744,0,3.16-2.024,3.16-3.769c0-1.746-1.416-3.161-3.16-3.161c-1.746,0-3.162,1.416-3.162,3.161
		C11.838,13.439,13.254,15.463,15,15.463z"/>
	<path d="M35,15.463c1.744,0,3.16-2.024,3.16-3.769c0-1.746-1.416-3.161-3.16-3.161c-1.746,0-3.162,1.416-3.162,3.161
		C31.838,13.439,33.254,15.463,35,15.463z"/>
	<path d="M18.634,34.25c-0.042-0.055-0.083-0.111-0.123-0.167c-0.158-0.221-0.308-0.448-0.443-0.685
		c-0.025-0.044-0.049-0.088-0.074-0.133c-0.125-0.228-0.235-0.463-0.337-0.703c-0.037-0.087-0.072-0.174-0.106-0.262
		c-0.097-0.253-0.185-0.51-0.256-0.774c-0.011-0.041-0.02-0.081-0.03-0.122c-0.066-0.262-0.116-0.529-0.155-0.8
		c-0.011-0.081-0.022-0.161-0.031-0.242c-0.034-0.3-0.058-0.603-0.058-0.911s0.024-0.611,0.058-0.911
		c0.009-0.081,0.02-0.161,0.031-0.242c0.04-0.271,0.089-0.539,0.155-0.8c0.01-0.041,0.02-0.081,0.03-0.122
		c0.071-0.264,0.159-0.521,0.256-0.774c0.034-0.088,0.069-0.175,0.106-0.262c0.102-0.24,0.212-0.476,0.337-0.703
		c0.024-0.044,0.049-0.089,0.074-0.133c0.132-0.231,0.279-0.453,0.432-0.668v-6.029c0.124,0.035,0.24,0.069,0.347,0.101l0.544,4.892
		c0.465-0.462,0.981-0.874,1.552-1.211l0.405-0.25l0.02,0.012c0.116-0.06,0.24-0.104,0.36-0.158l-0.485-4.362
		c-0.007-0.061-0.039-0.109-0.054-0.167c-0.023-0.092-0.043-0.182-0.086-0.266c-0.033-0.063-0.08-0.112-0.122-0.167
		c-0.056-0.074-0.107-0.147-0.179-0.208c-0.057-0.047-0.123-0.076-0.187-0.113c-0.064-0.038-0.117-0.089-0.189-0.115
		c-0.113-0.041-2.629-0.943-4.941-1.062l-0.318,0.636h-0.008L16,22.924l-1,1.747l-1-1.747l0.842-6.556h-0.01l-0.317-0.636
		c-2.312,0.119-4.827,1.021-4.94,1.062c-0.073,0.026-0.127,0.079-0.191,0.117C9.32,16.947,9.255,16.975,9.2,17.021
		c-0.074,0.062-0.127,0.138-0.185,0.214c-0.04,0.054-0.085,0.101-0.117,0.161c-0.044,0.085-0.063,0.177-0.088,0.271
		c-0.015,0.056-0.046,0.104-0.053,0.163l-1,9c-0.076,0.686,0.418,1.304,1.104,1.38c0.047,0.005,0.093,0.008,0.14,0.008
		c0.628,0,1.169-0.473,1.24-1.112l0.911-8.198c0.106-0.032,0.223-0.066,0.347-0.101v8.532l-0.995,12.371
		c-0.066,0.826,0.549,1.549,1.375,1.615c0.041,0.003,0.081,0.005,0.122,0.005c0.773,0,1.43-0.595,1.493-1.38l0.899-11.181
		C14.58,28.853,14.784,28.9,15,28.9s0.42-0.047,0.605-0.129l0.899,11.181c0.063,0.785,0.72,1.38,1.493,1.38
		c0.041,0,0.081-0.001,0.122-0.005c0.826-0.066,1.441-0.79,1.375-1.615l-0.394-4.901C18.938,34.63,18.78,34.445,18.634,34.25z"/>
	<path d="M41.242,17.831c-0.007-0.061-0.039-0.109-0.054-0.167c-0.023-0.092-0.043-0.182-0.086-0.266
		c-0.033-0.063-0.08-0.112-0.122-0.167c-0.056-0.074-0.107-0.147-0.179-0.208c-0.057-0.047-0.123-0.076-0.187-0.113
		c-0.064-0.038-0.117-0.089-0.189-0.115c-0.113-0.041-2.629-0.943-4.941-1.062l-0.318,0.636h-0.008L36,22.924l-1,1.747l-1-1.747
		l0.842-6.556h-0.01l-0.317-0.636c-2.312,0.119-4.827,1.021-4.94,1.062c-0.073,0.026-0.127,0.079-0.191,0.117
		c-0.062,0.037-0.128,0.064-0.183,0.111c-0.074,0.062-0.127,0.138-0.185,0.214c-0.04,0.054-0.085,0.101-0.117,0.161
		c-0.044,0.085-0.063,0.177-0.088,0.271c-0.015,0.056-0.046,0.104-0.053,0.163l-0.485,4.362c0.12,0.054,0.244,0.099,0.36,0.158
		l0.02-0.012l0.405,0.25c0.57,0.337,1.086,0.75,1.552,1.211l0.544-4.892c0.106-0.032,0.223-0.066,0.347-0.101v6.029
		c0.153,0.216,0.3,0.438,0.432,0.668c0.025,0.044,0.049,0.088,0.074,0.133c0.125,0.228,0.235,0.463,0.337,0.703
		c0.037,0.087,0.072,0.174,0.106,0.262c0.097,0.253,0.185,0.51,0.256,0.774c0.011,0.041,0.02,0.081,0.03,0.122
		c0.066,0.262,0.116,0.529,0.155,0.8c0.011,0.081,0.022,0.161,0.031,0.242c0.034,0.3,0.058,0.603,0.058,0.911
		s-0.024,0.611-0.058,0.911c-0.009,0.081-0.02,0.161-0.031,0.242c-0.04,0.271-0.089,0.539-0.155,0.8
		c-0.01,0.041-0.02,0.081-0.03,0.122c-0.071,0.264-0.159,0.521-0.256,0.774c-0.034,0.088-0.069,0.175-0.106,0.262
		c-0.102,0.24-0.212,0.476-0.337,0.703c-0.024,0.044-0.049,0.089-0.074,0.133c-0.135,0.237-0.285,0.464-0.443,0.685
		c-0.041,0.057-0.081,0.112-0.123,0.167c-0.146,0.194-0.304,0.38-0.467,0.56l-0.394,4.901c-0.066,0.826,0.549,1.549,1.375,1.615
		c0.041,0.003,0.081,0.005,0.122,0.005c0.773,0,1.43-0.595,1.493-1.38l0.899-11.181C34.58,28.853,34.784,28.9,35,28.9
		s0.42-0.047,0.605-0.129l0.899,11.181c0.063,0.785,0.72,1.38,1.493,1.38c0.041,0,0.081-0.001,0.122-0.005
		c0.826-0.066,1.441-0.79,1.375-1.615L38.5,27.34v-8.532c0.124,0.035,0.24,0.069,0.347,0.101l0.911,8.198
		c0.071,0.639,0.612,1.112,1.24,1.112c0.047,0,0.093-0.002,0.14-0.008c0.687-0.076,1.181-0.694,1.104-1.38L41.242,17.831z"/>
	<path d="M19.662,29.452c0-2.663,1.963-4.871,4.517-5.268v1.162l3.285-2.053l-3.285-2.053v1.284
		c-3.463,0.409-6.159,3.357-6.159,6.928c0,2.508,1.333,4.705,3.325,5.935l1.61-1.006C21.024,33.577,19.662,31.67,19.662,29.452z"/>
	<path d="M28.655,23.517l-1.61,1.006c1.931,0.804,3.293,2.71,3.293,4.929c0,2.663-1.963,4.871-4.517,5.268v-1.162l-3.285,2.053
		l3.285,2.053v-1.284c3.463-0.409,6.159-3.357,6.159-6.928C31.98,26.943,30.646,24.747,28.655,23.517z"/>
</g>
</svg>
