<?xml version="1.0" encoding="utf-8"?>
<!-- Generator: Adobe Illustrator 16.0.0, SVG Export Plug-In . SVG Version: 6.00 Build 0)  -->
<!DOCTYPE svg PUBLIC "-//W3C//DTD SVG 1.1//EN" "http://www.w3.org/Graphics/SVG/1.1/DTD/svg11.dtd">
<svg version="1.1" id="Layer_1" xmlns="http://www.w3.org/2000/svg" xmlns:xlink="http://www.w3.org/1999/xlink" x="0px" y="0px"
	 width="50px" height="50px" viewBox="0 0 50 50" enable-background="new 0 0 50 50" xml:space="preserve">
<g>
	<g>
		<path d="M35.241,26.578c3.624,0,6.562-2.938,6.562-6.562s-2.938-6.562-6.562-6.562s-6.562,2.938-6.562,6.562
			S31.617,26.578,35.241,26.578z M34.819,20.562c-1.219-0.41-2.05-0.979-2.05-2.084c0-1.002,0.706-1.788,1.925-2.027v-1.082h1.116
			v1.002c0.763,0.035,1.276,0.194,1.652,0.376l-0.331,1.287c-0.296-0.125-0.82-0.388-1.64-0.388c-0.741,0-0.979,0.319-0.979,0.638
			c0,0.375,0.398,0.615,1.367,0.979c1.355,0.479,1.902,1.105,1.902,2.13c0,1.013-0.718,1.878-2.027,2.106v1.162h-1.116v-1.082
			c-0.763-0.034-1.504-0.239-1.936-0.49l0.341-1.332c0.478,0.261,1.15,0.501,1.89,0.501c0.649,0,1.093-0.25,1.093-0.706
			C36.026,21.12,35.662,20.847,34.819,20.562z"/>
		<path d="M27.443,31.291c-2.249,0-4.072-0.729-4.072-1.628v1.628c0,0.9,1.823,1.629,4.072,1.629s4.072-0.729,4.072-1.629v-1.628
			C31.516,30.562,29.692,31.291,27.443,31.291z"/>
		<path d="M27.443,33.411c-2.249,0-4.072-0.729-4.072-1.629v1.629c0,0.9,1.823,1.629,4.072,1.629s4.072-0.729,4.072-1.629v-1.629
			C31.516,32.682,29.692,33.411,27.443,33.411z"/>
		<path d="M27.443,35.531c-2.249,0-4.072-0.729-4.072-1.629v1.629c0,0.9,1.823,1.629,4.072,1.629s4.072-0.729,4.072-1.629v-1.629
			C31.516,34.802,29.692,35.531,27.443,35.531z"/>
		<path d="M27.443,37.651c-2.249,0-4.072-0.729-4.072-1.629v1.629c0,0.9,1.823,1.628,4.072,1.628s4.072-0.729,4.072-1.628v-1.629
			C31.516,36.922,29.692,37.651,27.443,37.651z"/>
		<path d="M27.443,39.771c-2.249,0-4.072-0.729-4.072-1.629v1.629c0,0.9,1.823,1.629,4.072,1.629s4.072-0.729,4.072-1.629v-1.629
			C31.516,39.042,29.692,39.771,27.443,39.771z"/>
		<path d="M27.443,25.926c-2.249,0-4.072,0.729-4.072,1.629v1.629c0,0.9,1.823,1.629,4.072,1.629s4.072-0.729,4.072-1.629v-1.629
			C31.516,26.655,29.692,25.926,27.443,25.926z M27.443,28.776c-2.237,0-3.665-0.724-3.665-1.222c0-0.499,1.427-1.222,3.665-1.222
			s3.665,0.723,3.665,1.222C31.108,28.053,29.681,28.776,27.443,28.776z"/>
		<path d="M27.753,27.368c-0.471-0.076-0.665-0.125-0.665-0.203c0-0.066,0.116-0.132,0.476-0.132c0.398,0,0.653,0.055,0.797,0.081
			l0.161-0.267c-0.183-0.038-0.432-0.071-0.803-0.078V26.56h-0.543v0.224c-0.592,0.05-0.936,0.213-0.936,0.421
			c0,0.229,0.404,0.347,0.997,0.432c0.409,0.059,0.586,0.116,0.586,0.206c0,0.095-0.216,0.146-0.532,0.146
			c-0.359,0-0.687-0.049-0.919-0.104l-0.166,0.276c0.21,0.052,0.57,0.095,0.941,0.102v0.224h0.542v-0.241
			c0.637-0.047,0.986-0.227,0.986-0.438C28.678,27.597,28.412,27.467,27.753,27.368z"/>
		<path d="M36.443,35.53c-2.249,0-4.072-0.729-4.072-1.628v1.628c0,0.9,1.823,1.629,4.072,1.629s4.072-0.729,4.072-1.629v-1.628
			C40.516,34.801,38.692,35.53,36.443,35.53z"/>
		<path d="M36.443,37.65c-2.249,0-4.072-0.729-4.072-1.629v1.629c0,0.9,1.823,1.629,4.072,1.629s4.072-0.729,4.072-1.629v-1.629
			C40.516,36.921,38.692,37.65,36.443,37.65z"/>
		<path d="M36.443,39.771c-2.249,0-4.072-0.729-4.072-1.629v1.629c0,0.9,1.823,1.629,4.072,1.629s4.072-0.729,4.072-1.629v-1.629
			C40.516,39.042,38.692,39.771,36.443,39.771z"/>
		<path d="M36.443,30.166c-2.249,0-4.072,0.729-4.072,1.629v1.629c0,0.9,1.823,1.629,4.072,1.629s4.072-0.729,4.072-1.629v-1.629
			C40.516,30.895,38.692,30.166,36.443,30.166z M36.443,33.016c-2.237,0-3.665-0.724-3.665-1.222c0-0.499,1.427-1.222,3.665-1.222
			s3.665,0.723,3.665,1.222C40.108,32.292,38.681,33.016,36.443,33.016z"/>
		<path d="M36.753,31.607c-0.471-0.076-0.665-0.125-0.665-0.203c0-0.066,0.116-0.132,0.476-0.132c0.398,0,0.653,0.055,0.797,0.081
			l0.161-0.267c-0.183-0.038-0.432-0.071-0.803-0.078V30.8h-0.543v0.224c-0.592,0.05-0.936,0.213-0.936,0.421
			c0,0.229,0.404,0.347,0.997,0.432c0.409,0.059,0.586,0.116,0.586,0.206c0,0.095-0.216,0.146-0.532,0.146
			c-0.359,0-0.687-0.049-0.919-0.104l-0.166,0.276c0.21,0.052,0.57,0.095,0.941,0.102v0.224h0.542v-0.241
			c0.637-0.047,0.986-0.227,0.986-0.438C37.678,31.837,37.412,31.707,36.753,31.607z"/>
	</g>
	<g>
		<path d="M19.607,11.762c0,1.745-1.416,3.769-3.16,3.769c-1.746,0-3.162-2.024-3.162-3.769c0-1.746,1.416-3.161,3.162-3.161
			C18.191,8.601,19.607,10.016,19.607,11.762z"/>
		<path d="M27.331,22.153l-5-5c-0.005-0.005-0.013-0.007-0.019-0.012c-0.061-0.059-0.14-0.095-0.212-0.141
			c-0.069-0.043-0.133-0.098-0.208-0.126c-0.007-0.003-0.012-0.009-0.02-0.012c-0.113-0.041-2.644-0.949-4.962-1.063l-0.298,0.596
			h-0.008l0.842,6.556l-1,1.747l-1-1.747l0.842-6.556H16.28l-0.297-0.596c-2.318,0.114-4.849,1.022-4.962,1.063
			c-0.041,0.015-0.068,0.046-0.106,0.064c-0.082,0.04-0.157,0.083-0.228,0.139c-0.061,0.048-0.113,0.099-0.164,0.156
			c-0.054,0.061-0.1,0.123-0.141,0.194c-0.043,0.074-0.075,0.149-0.102,0.23c-0.014,0.043-0.043,0.076-0.054,0.122l-2,9
			c-0.15,0.674,0.275,1.341,0.949,1.491c0.091,0.021,0.182,0.03,0.272,0.03c0.573,0,1.09-0.397,1.219-0.979l1.845-8.304
			c0.129-0.04,0.276-0.083,0.435-0.128v8.532l-0.995,12.371c-0.066,0.826,0.549,1.549,1.375,1.615
			c0.041,0.003,0.082,0.005,0.122,0.005c0.774,0,1.431-0.595,1.494-1.38l0.899-11.181c0.186,0.082,0.39,0.129,0.605,0.129
			s0.42-0.047,0.605-0.129l0.899,11.181c0.063,0.785,0.72,1.38,1.494,1.38c0.04,0,0.081-0.001,0.122-0.005
			c0.826-0.066,1.441-0.79,1.375-1.615l-0.995-12.371v-8.532c0.347,0.099,0.633,0.188,0.822,0.25l4.794,4.794
			c0.244,0.244,0.564,0.366,0.884,0.366s0.64-0.122,0.884-0.366C27.819,23.433,27.819,22.642,27.331,22.153z"/>
	</g>
</g>
</svg>
