<?xml version="1.0" encoding="utf-8"?>
<!-- Generator: Adobe Illustrator 16.0.0, SVG Export Plug-In . SVG Version: 6.00 Build 0)  -->
<!DOCTYPE svg PUBLIC "-//W3C//DTD SVG 1.1//EN" "http://www.w3.org/Graphics/SVG/1.1/DTD/svg11.dtd">
<svg version="1.1" id="Layer_1" xmlns="http://www.w3.org/2000/svg" xmlns:xlink="http://www.w3.org/1999/xlink" x="0px" y="0px"
	 width="50px" height="50px" viewBox="0 0 50 50" enable-background="new 0 0 50 50" xml:space="preserve">
<g>
	<path d="M21.25,15.531c1.744,0,3.16-2.024,3.16-3.769c0-1.746-1.416-3.161-3.16-3.161c-1.746,0-3.162,1.416-3.162,3.161
		C18.088,13.507,19.504,15.531,21.25,15.531z"/>
	<path d="M35.452,13.16h-4.969c-0.854,0-1.548,0.694-1.548,1.548v3.828l-0.539,0.521L27.3,17.359
		c-0.027-0.042-0.07-0.066-0.103-0.104c-0.055-0.067-0.11-0.129-0.18-0.185c-0.066-0.053-0.138-0.092-0.213-0.129
		c-0.045-0.023-0.079-0.061-0.129-0.079c-0.113-0.041-2.644-0.949-4.962-1.063l-0.298,0.596h-0.008l0.842,6.556l-1,1.747l-1-1.747
		l0.842-6.556h-0.009l-0.297-0.596c-2.318,0.114-4.849,1.022-4.962,1.063c-0.039,0.014-0.065,0.044-0.102,0.062
		c-0.085,0.04-0.163,0.085-0.237,0.144c-0.058,0.045-0.107,0.094-0.155,0.149c-0.056,0.062-0.104,0.127-0.146,0.201
		c-0.042,0.072-0.072,0.145-0.099,0.224c-0.016,0.044-0.045,0.079-0.056,0.125l-2,9c-0.149,0.674,0.275,1.341,0.949,1.491
		c0.092,0.021,0.183,0.03,0.272,0.03c0.573,0,1.09-0.397,1.22-0.979l1.846-8.305c0.129-0.04,0.275-0.083,0.434-0.127v8.532
		l-0.995,12.371c-0.066,0.826,0.549,1.549,1.375,1.615c0.041,0.003,0.081,0.005,0.122,0.005c0.773,0,1.43-0.595,1.493-1.38
		l0.899-11.181c0.186,0.082,0.39,0.129,0.605,0.129s0.42-0.047,0.605-0.129l0.899,11.181c0.063,0.785,0.72,1.38,1.493,1.38
		c0.041,0,0.081-0.001,0.122-0.005c0.826-0.066,1.441-0.79,1.375-1.615L24.75,27.408v-8.532c0.274,0.078,0.508,0.149,0.688,0.207
		l1.684,2.606c0.203,0.314,0.535,0.521,0.907,0.563c0.048,0.005,0.095,0.008,0.143,0.008c0.293,0,0.569-0.115,0.795-0.304
		c-0.02-0.098-0.03-0.198-0.03-0.301c0,0.853,0.694,1.547,1.548,1.547h4.969c0.854,0,1.548-0.694,1.548-1.547v-6.948
		C37,13.854,36.306,13.16,35.452,13.16z M31.42,22.209c0,0.1-0.129,0.182-0.288,0.182h-0.704c-0.158,0-0.289-0.082-0.289-0.182
		v-0.443c0-0.1,0.131-0.182,0.289-0.182h0.704c0.159,0,0.288,0.082,0.288,0.182V22.209z M31.421,21.179
		c0,0.1-0.129,0.182-0.289,0.182H30.43c-0.16,0-0.291-0.083-0.291-0.182v-0.443c0-0.1,0.131-0.182,0.291-0.182h0.702
		c0.16,0,0.289,0.082,0.289,0.182V21.179z M31.422,20.148c0,0.1-0.13,0.182-0.289,0.182H30.43c-0.159,0-0.289-0.082-0.289-0.182
		v-0.443c0-0.1,0.13-0.182,0.289-0.182h0.703c0.159,0,0.289,0.082,0.289,0.182V20.148z M30.14,18.722v-0.443
		c0-0.1,0.13-0.182,0.289-0.182h0.703c0.159,0,0.289,0.082,0.289,0.182v0.443c0,0.1-0.13,0.182-0.289,0.182h-0.703
		C30.27,18.904,30.14,18.822,30.14,18.722z M33.607,22.209c0,0.1-0.129,0.182-0.288,0.182h-0.704c-0.158,0-0.289-0.082-0.289-0.182
		v-0.443c0-0.1,0.131-0.182,0.289-0.182h0.704c0.159,0,0.288,0.082,0.288,0.182V22.209z M33.608,21.179
		c0,0.1-0.129,0.182-0.289,0.182h-0.702c-0.16,0-0.291-0.083-0.291-0.182v-0.443c0-0.1,0.131-0.182,0.291-0.182h0.702
		c0.16,0,0.289,0.082,0.289,0.182V21.179z M33.609,20.148c0,0.1-0.13,0.182-0.289,0.182h-0.703c-0.159,0-0.289-0.082-0.289-0.182
		v-0.443c0-0.1,0.13-0.182,0.289-0.182h0.703c0.159,0,0.289,0.082,0.289,0.182V20.148z M32.327,18.722v-0.443
		c0-0.1,0.13-0.182,0.289-0.182h0.703c0.159,0,0.289,0.082,0.289,0.182v0.443c0,0.1-0.13,0.182-0.289,0.182h-0.703
		C32.457,18.904,32.327,18.822,32.327,18.722z M35.795,22.209c0,0.1-0.129,0.182-0.288,0.182h-0.704
		c-0.158,0-0.289-0.082-0.289-0.182v-0.443c0-0.1,0.131-0.182,0.289-0.182h0.704c0.159,0,0.288,0.082,0.288,0.182V22.209z
		 M35.796,21.179c0,0.1-0.129,0.182-0.289,0.182h-0.702c-0.16,0-0.291-0.083-0.291-0.182v-0.443c0-0.1,0.131-0.182,0.291-0.182
		h0.702c0.16,0,0.289,0.082,0.289,0.182V21.179z M35.797,20.148c0,0.1-0.13,0.182-0.289,0.182h-0.703
		c-0.159,0-0.289-0.082-0.289-0.182v-0.443c0-0.1,0.13-0.182,0.289-0.182h0.703c0.159,0,0.289,0.082,0.289,0.182V20.148z
		 M34.515,18.722v-0.443c0-0.1,0.13-0.182,0.289-0.182h0.703c0.159,0,0.289,0.082,0.289,0.182v0.443c0,0.1-0.13,0.182-0.289,0.182
		h-0.703C34.645,18.904,34.515,18.822,34.515,18.722z M36.21,16.251c0,0.307-0.281,0.558-0.625,0.558H30.35
		c-0.343,0-0.624-0.251-0.624-0.558v-1.359c0-0.308,0.281-0.559,0.624-0.559h5.235c0.344,0,0.625,0.251,0.625,0.559V16.251z"/>
</g>
</svg>
