<?xml version="1.0" encoding="utf-8"?>
<!-- Generator: Adobe Illustrator 16.0.0, SVG Export Plug-In . SVG Version: 6.00 Build 0)  -->
<!DOCTYPE svg PUBLIC "-//W3C//DTD SVG 1.1//EN" "http://www.w3.org/Graphics/SVG/1.1/DTD/svg11.dtd">
<svg version="1.1" id="Layer_1" xmlns="http://www.w3.org/2000/svg" xmlns:xlink="http://www.w3.org/1999/xlink" x="0px" y="0px"
	 width="126px" height="126px" viewBox="0 0 126 126" enable-background="new 0 0 126 126" xml:space="preserve">
<g>
	<path d="M88.727,46.853c-0.135-0.083-0.279-0.138-0.419-0.202c-1.144-0.751-2.423-1.303-3.726-1.623l-2.598,2.617L79.464,45
		c-0.009,0.002-0.018,0.002-0.025,0.004c-1.25,0.298-2.477,0.816-3.585,1.515c-0.277,0.084-0.55,0.193-0.812,0.341
		c-1.615,0.908-3.151,1.085-4.833,0.561c-5.569-1.735-10.757-10.232-12.284-13.356c-0.545-1.123-1.545-1.862-2.667-2.143
		L50.112,1.633l-3.075,0.456l0.189,1.274L23.899,19.377l26.86,7.806l0.604,3.399l0.374,2.107c-1.432,1.159-1.939,3.185-1.1,4.913
		c0.251,0.519,1.231,2.469,2.824,4.911l13.093,76.353l3.075-0.458L58.042,48.447c2.665,2.882,5.957,5.517,9.738,6.699
		c1.172,0.367,2.352,0.572,3.527,0.633V77.12c0,1.103,0.217,2.129,0.596,3.071c-0.027,0.204-0.062,0.405-0.062,0.615l0.04,38.779
		c0.003,2.642,2.145,4.781,4.786,4.781c0.001,0,0.003,0,0.005,0c2.644-0.002,4.784-2.147,4.781-4.792L81.419,86.3
		c0.188,0.009,0.376,0.025,0.565,0.025c0.039,0,0.078-0.005,0.117-0.005l0.03,33.266c0.003,2.642,2.145,4.781,4.786,4.781
		c0.002,0,0.003,0,0.004,0c2.644-0.002,4.785-2.146,4.782-4.79l-0.034-38.038c0.251,0.24,0.526,0.461,0.845,0.636
		c0.615,0.333,1.277,0.492,1.932,0.492c1.436,0,2.827-0.765,3.561-2.115C109.433,59.551,93.848,49.993,88.727,46.853z
		 M82.009,68.289h-0.049l-2.515-3.443l2.515-16.814h0.049l2.515,16.814L82.009,68.289z M92.661,72.881V61.302
		C94.207,64.227,94.553,67.931,92.661,72.881z"/>
	<circle cx="81.983" cy="33.991" r="10.431"/>
</g>
</svg>
