<?xml version="1.0" encoding="utf-8"?>
<!-- Generator: Adobe Illustrator 16.0.0, SVG Export Plug-In . SVG Version: 6.00 Build 0)  -->
<!DOCTYPE svg PUBLIC "-//W3C//DTD SVG 1.1//EN" "http://www.w3.org/Graphics/SVG/1.1/DTD/svg11.dtd">
<svg version="1.1" id="Layer_1" xmlns="http://www.w3.org/2000/svg" xmlns:xlink="http://www.w3.org/1999/xlink" x="0px" y="0px"
	 width="126px" height="126px" viewBox="0 0 126 126" enable-background="new 0 0 126 126" xml:space="preserve">
<g>
	<path d="M80.551,77.325l-9.217-0.026l-1.948,1.908l-0.041,14.535l11.159,0.031L80.551,77.325z M79.438,92.701l-9.02-0.025
		l0.013-4.414c0.047,0,0.095-0.018,0.131-0.048l1.454-1.189l1.222,1.185c0.045,0.046,0.104,0.065,0.167,0.061
		c0.061-0.008,0.116-0.041,0.148-0.092l1.378-2.032l1.266,0.373c0.08,0.024,0.165-0.001,0.217-0.061l3.053-3.558L79.438,92.701z
		 M79.467,82.371c-0.059-0.001-0.115,0.021-0.157,0.068l-3.126,3.644l-1.279-0.379c-0.089-0.025-0.182,0.008-0.232,0.083
		l-1.323,1.952l-1.176-1.141c-0.077-0.074-0.195-0.079-0.276-0.011l-1.465,1.194l0.022-7.899l1.697,0.004l0.005-1.517l7.322,0.021
		L79.467,82.371z"/>
	<path d="M78.867,81.643c0-0.07-0.056-0.126-0.123-0.127l-1.691-0.004c-0.068-0.001-0.123,0.055-0.124,0.125l-0.003,1.215
		l-0.005,1.794l1.944-2.27L78.867,81.643z"/>
	<path d="M77.028,90.199l1.691,0.005c0.067,0.001,0.124-0.057,0.124-0.124l0.007-2.302l0.001-0.384l0.009-3.115l-1.945,2.269
		l-0.007,2.309l-0.003,1.218C76.905,90.142,76.96,90.199,77.028,90.199z"/>
	<path d="M73.888,88.408l-0.003,0.785l-0.002,0.873c0,0.066,0.057,0.125,0.124,0.125l1.69,0.005c0.069,0,0.126-0.058,0.126-0.125
		l0.002-0.605l0.007-2.448l-0.838-0.247L73.888,88.408z"/>
	<path d="M74.941,85.265l0.895,0.265l0.004-1.334l0.002-0.607c0-0.068-0.057-0.126-0.126-0.126l-1.69-0.005
		c-0.067,0-0.124,0.057-0.124,0.125l-0.003,0.871l-0.005,1.842l0.586-0.865C74.582,85.276,74.769,85.21,74.941,85.265z"/>
	<path d="M71.042,85.028l-0.003,1.304l-0.002,0.431l0.708-0.579c0.163-0.133,0.399-0.125,0.551,0.024l0.68,0.66l0.003-0.811
		l0.002-1.023c0.001-0.068-0.054-0.125-0.123-0.126l-1.691-0.004C71.098,84.903,71.043,84.96,71.042,85.028z"/>
	<path d="M71.033,88.464l-0.001,0.291l-0.004,1.303c0,0.067,0.055,0.125,0.123,0.126l1.691,0.004c0.069,0,0.124-0.057,0.124-0.124
		l0.004-1.418l-0.99-0.958L71.033,88.464z"/>
	<path d="M111.894,77.413l-9.217-0.026l-1.949,1.909l-0.041,14.535l11.16,0.031L111.894,77.413z M110.78,92.789l-9.02-0.025
		l0.036-12.793l1.695,0.005l0.004-1.517l7.324,0.021L110.78,92.789z"/>
	<path d="M96.195,58.183l-9.219-0.026l-1.946,1.912l-0.041,14.534l11.159,0.032L96.195,58.183z M86.083,65.878l0.291-0.99
		l0.733,1.024l-1.025,0.305L86.083,65.878z M89.119,68.291l1.526-0.322l-0.116,1.142L89.119,68.291z M90.342,69.412l-1.185,0.783
		l-0.255-1.619L90.342,69.412z M88.889,67.978l0.315-1.079l1.232,0.752L88.889,67.978z M89.461,66.64l1.66-0.849l-0.386,1.626
		L89.461,66.64z M91.009,67.899l1.577,0.231l-1.699,0.949L91.009,67.899z M91.368,67.595l1.235-1.041l0.293,1.266L91.368,67.595z
		 M92.761,65.911l-0.848-1.947l2.011,0.638L92.761,65.911z M92.339,65.833l-0.778-0.425l0.134-1.064L92.339,65.833z M92.396,66.268
		l-1.277,1.071l0.37-1.566L92.396,66.268z M91.237,65.15l-1.06-0.718l1.206-0.479L91.237,65.15z M91.028,65.442l-1.647,0.841
		l0.465-1.634L91.028,65.442z M89.037,66.202l-0.569-1.507l1.028-0.098L89.037,66.202z M88.58,67.767l-0.786-1.409l1.075,0.424
		L88.58,67.767z M88.791,70.157l-1.843-1.074l1.577-0.635L88.791,70.157z M88.165,67.753l-2.012-1.188l1.159-0.346L88.165,67.753z
		 M88.471,64.34l0.008-0.018l-0.037-0.001l0.281-0.91l0.721,0.835L88.471,64.34z M88.709,66.338l-1.063-0.419l0.53-0.997
		L88.709,66.338z M88.07,64.32l-1.406-0.004l0.71-0.931l1.022-0.121L88.07,64.32z M87.906,64.675l-0.532,1.002l-0.722-1.006
		L87.906,64.675z M86.08,66.936l2.135,1.255l-1.561,0.629l-0.575-1.754L86.08,66.936z M95.078,73.562l-9.017-0.025l0.015-5.313
		l0.311,0.963l2.582,1.484l0.124-0.005l0.023-0.016l0.021,0.013l-0.004-0.025l1.615-1.07l2.436-1.363l1.911-0.613L95.078,73.562z
		 M92.952,66.507l2.105,0.72l-1.8,0.579L92.952,66.507z M95.098,66.867l-2.082-0.713l1.185-1.328l0.898,1.772L95.098,66.867z
		 M95.101,65.823l-0.715-1.411l-2.767-0.895l-0.069-0.16l-0.022,0.178l-0.045,0.019l-0.039-0.014l0.01,0.024l-1.597,0.617
		l-1.122-1.301l-0.125,0.002l-1.428,0.169l-1.021,1.341l-0.023,0.014l0.008,0.01l-0.06,0.197l0.012-3.869l1.696,0.004l0.004-1.52
		l7.321,0.021L95.101,65.823z"/>
	<path d="M84.922,98.341l-0.041,14.533l11.16,0.032l0.047-16.451l-9.219-0.025L84.922,98.341z M87.689,97.503l7.322,0.021
		l-0.041,14.311l-9.018-0.025l0.036-12.793l1.696,0.004L87.689,97.503z"/>
	<path d="M89.879,89.533l-0.016,5.432l1.46,0.004l0.015-5.432c1.559-0.313,2.764-1.612,2.931-3.219l5.241,0.015l0.004-1.463
		l-5.39-0.015c-0.391-1.266-1.45-2.24-2.766-2.512l0.017-5.713l-1.46-0.004l-0.017,5.713c-1.316,0.264-2.38,1.232-2.78,2.496
		l-5.174-0.015l-0.004,1.463l5.027,0.014C87.123,87.905,88.321,89.211,89.879,89.533z M90.623,83.73
		c1.219,0.003,2.207,0.996,2.203,2.214c-0.004,1.217-0.996,2.204-2.215,2.201c-1.217-0.004-2.203-0.997-2.199-2.214
		C88.415,84.714,89.406,83.727,90.623,83.73z"/>
	<path d="M102.43,86.343c-0.006,1.911,1.544,3.469,3.454,3.475c0.916,0.003,1.782-0.352,2.437-0.994
		c0.527-0.519,0.87-1.178,0.988-1.903h0.002c0-0.004-0.002-0.008-0.002-0.013c0-0.004,0-0.01,0-0.013s-0.004-0.008-0.006-0.011
		c-0.003-0.004-0.003-0.01-0.003-0.012c-0.006-0.003-0.006-0.006-0.01-0.008c-0.005-0.002-0.007-0.005-0.007-0.009
		c-0.006-0.001-0.01-0.001-0.012-0.003c-0.006-0.003-0.01-0.005-0.014-0.006l-1.133-0.18c-0.004,0-0.011,0-0.013,0.002
		c-0.007,0-0.009-0.002-0.013,0c-0.006,0-0.008,0.004-0.012,0.006c-0.004,0.001-0.007,0.003-0.011,0.003
		c-0.004,0.004-0.006,0.01-0.008,0.012c-0.005,0.003-0.005,0.005-0.009,0.008c-0.002,0.006-0.002,0.01-0.004,0.013
		c-0.003,0.004-0.005,0.009-0.005,0.011c-0.077,0.457-0.293,0.871-0.629,1.198c-0.413,0.404-0.958,0.626-1.536,0.625
		c-1.209-0.004-2.188-0.989-2.184-2.197c0.003-1.208,0.986-2.188,2.196-2.184c0.254,0.001,0.501,0.043,0.74,0.13
		c0.006,0.002,0.013,0.003,0.021,0.003h0.003c0.002,0,0.002,0,0.004-0.001c0.008,0,0.012,0,0.018-0.002
		c0-0.003,0.002-0.004,0.005-0.004c0.006-0.005,0.008-0.006,0.015-0.011c0,0,0.002-0.001,0.004-0.004
		c0.004-0.005,0.009-0.012,0.011-0.019h0.002l0.385-1.082c0-0.006,0-0.009,0-0.013c0-0.003,0.005-0.008,0.005-0.011
		c0-0.004-0.005-0.01-0.005-0.013c0-0.005-0.002-0.008-0.002-0.012c-0.002-0.005-0.006-0.009-0.01-0.013
		c0,0-0.005-0.005-0.007-0.006c-0.002-0.005-0.009-0.006-0.013-0.008s-0.004-0.005-0.006-0.005
		c-0.375-0.136-0.767-0.203-1.165-0.204C103.993,82.885,102.435,84.434,102.43,86.343z M108.164,86.8l1.012,0.16
		c-0.12,0.656-0.43,1.251-0.898,1.728l-0.722-0.725C107.866,87.641,108.077,87.242,108.164,86.8z"/>
	<path d="M107.397,83.573c0,0.003,0.005,0.006,0.009,0.01c0.002,0.003,0.004,0.008,0.008,0.011c0,0.002,0.007,0.003,0.011,0.006
		c0.002,0.002,0.007,0.005,0.007,0.007c0.867,0.313,1.449,1.143,1.446,2.063c-0.001,0.118-0.011,0.242-0.029,0.361
		c-0.003,0.006,0,0.01,0,0.014c0,0.005,0,0.009,0,0.013c0.002,0.005,0.004,0.007,0.006,0.011c-0.001,0.005,0.001,0.007,0.003,0.01
		c0,0.003,0.006,0.007,0.01,0.009c0.004,0.003,0.004,0.008,0.008,0.01c0.006,0.001,0.008,0.001,0.012,0.003s0.006,0.003,0.01,0.004
		s0.004,0.001,0.004,0.001l1.132,0.179c0.004,0,0.007,0,0.01,0c0.006,0,0.015-0.002,0.022-0.004
		c0.005-0.002,0.005-0.004,0.007-0.004c0.002-0.001,0.008-0.003,0.013-0.006c0.002-0.001,0.004-0.006,0.004-0.009
		c0.002-0.001,0.007-0.006,0.009-0.01c0.002-0.002,0.002-0.004,0.004-0.007c0.001-0.006,0.001-0.009,0.003-0.013
		c0.031-0.185,0.046-0.373,0.047-0.558c0.004-1.458-0.915-2.772-2.291-3.269c-0.014-0.004-0.028-0.003-0.041,0.002
		c-0.004,0-0.004,0-0.004,0c-0.004,0.004-0.009,0.008-0.013,0.01c-0.002,0.003-0.004,0.003-0.006,0.007
		c-0.003,0.004-0.007,0.008-0.009,0.011s-0.006,0.008-0.006,0.011l-0.386,1.08c-0.002,0.005-0.002,0.008-0.002,0.011
		c-0.002,0.007-0.002,0.01-0.002,0.015c0,0.002,0.002,0.004,0.002,0.01C107.396,83.565,107.396,83.569,107.397,83.573z"/>
	<path d="M90.265,108.767c2.182,0.006,3.96-1.761,3.966-3.94c0.001-0.138-0.008-0.28-0.021-0.425l-0.022-0.215l-3.033-0.009
		l0.009-3.22l-0.197-0.035c-0.225-0.04-0.454-0.06-0.678-0.061c-2.177-0.007-3.957,1.763-3.964,3.942
		C86.317,106.984,88.088,108.76,90.265,108.767z"/>
	<path d="M92.11,100.566l-0.008,2.726l2.544,0.007C94.404,101.98,93.406,100.908,92.11,100.566z"/>
	<path d="M69.7,47.347c1.996-1.533,2.57-4.339,1.226-6.532c-1.439-2.347-4.507-3.08-6.852-1.643
		c-2.354,1.444-6.347,3.474-8.511,4.012c-1.198-0.849-3.404-3.347-4.917-5.06c-2.789-3.16-5.675-6.426-8.874-8.401
		c-0.19-0.118-0.394-0.2-0.594-0.288c-1.442-0.968-3.072-1.692-4.736-2.106l-3.205,3.209l-3.091-3.263
		c-0.011,0.004-0.021,0.004-0.032,0.006c-1.673,0.396-3.311,1.108-4.769,2.08c-0.222,0.093-0.444,0.186-0.657,0.313
		C19.395,32.902,7.204,45.053,7.761,52.151c0.332,4.234,5.063,12.188,7.854,16.552c0.948,1.483,2.549,2.294,4.188,2.298
		c0.287,0.001,0.576-0.031,0.862-0.081c-0.008,0.123-0.019,0.247-0.019,0.373l-0.132,47.705c-0.009,3.252,2.619,5.894,5.871,5.902
		c3.253,0.01,5.896-2.619,5.904-5.871l0.112-40.939c0.231,0.01,0.465,0.029,0.7,0.03c0.045,0,0.091-0.005,0.138-0.006l-0.117,40.918
		c-0.009,3.252,2.619,5.896,5.871,5.904c3.251,0.009,5.896-2.619,5.904-5.871l0.135-47.595c0.776-1.492,1.23-3.195,1.235-5.089
		l0.052-18.203c2.82,2.931,5.57,5.067,8.82,5.076c0.268,0.001,0.539-0.013,0.814-0.041c1.906-0.2,4.13-0.954,6.222-1.851
		l-0.247,72.206l56.188,0.158l0.215-76.243L69.7,47.347z M17.756,51.645c0.301-0.868,1.141-2.23,2.297-3.782l-0.024,8.694
		C18.865,54.381,18.011,52.561,17.756,51.645z M33.136,55.935l-3.083-4.245l3.153-20.675h0.06l3.035,20.692l-3.105,4.228H33.136z
		 M112.293,117.869l-44.504-0.126l0.182-64.556l44.504,0.126L112.293,117.869z"/>
	<circle cx="33.284" cy="13.743" r="12.831"/>
</g>
</svg>
