<?xml version="1.0" encoding="utf-8"?>
<!-- Generator: Adobe Illustrator 16.0.0, SVG Export Plug-In . SVG Version: 6.00 Build 0)  -->
<!DOCTYPE svg PUBLIC "-//W3C//DTD SVG 1.1//EN" "http://www.w3.org/Graphics/SVG/1.1/DTD/svg11.dtd">
<svg version="1.1" id="Layer_2" xmlns="http://www.w3.org/2000/svg" xmlns:xlink="http://www.w3.org/1999/xlink" x="0px" y="0px"
	 width="126px" height="126px" viewBox="0 0 126 126" enable-background="new 0 0 126 126" xml:space="preserve">
<g>
	<path d="M83.063,73.918c0,7.243,5.873,13.109,13.115,13.109c7.239,0,13.112-5.866,13.112-13.109
		c0-7.246-5.873-13.114-13.112-13.114C88.936,60.804,83.063,66.672,83.063,73.918z"/>
	<path d="M104.896,90.221c-0.218-0.135-0.45-0.233-0.675-0.33c-1.466-0.975-3.105-1.69-4.778-2.102l-3.266,3.288l-3.166-3.324
		c-0.014,0-0.022,0-0.033,0.005c-1.68,0.4-3.328,1.115-4.797,2.087c-0.26,0.105-0.519,0.225-0.771,0.376
		c-7.966,4.885-13.279,8.975-16.079,24.377h21.314l0.341-1.897l3.156-21.136h0.067l3.161,21.136l0.376,1.897h21.229
		C118.176,99.195,112.863,95.105,104.896,90.221z"/>
	<path d="M40.281,33.456c7.24,0,13.113-5.865,13.113-13.109c0-7.245-5.873-13.114-13.113-13.114
		c-7.242,0-13.114,5.869-13.114,13.114C27.167,27.591,33.039,33.456,40.281,33.456z"/>
	<path d="M37.092,59.129l3.156-21.135h0.067l3.161,21.135l0.376,1.897h21.229c-2.801-15.402-8.114-19.491-16.08-24.377
		c-0.218-0.135-0.45-0.232-0.675-0.329c-1.466-0.975-3.105-1.691-4.778-2.103l-3.267,3.288l-3.165-3.323
		c-0.014,0-0.022,0-0.033,0.004c-1.68,0.401-3.328,1.115-4.797,2.088c-0.261,0.104-0.519,0.224-0.771,0.375
		c-7.967,4.886-13.279,8.975-16.08,24.377h21.315L37.092,59.129z"/>
	<path d="M99.127,44.071l-12.457,4.29l25.471,12.421l12.42-25.472l-13.569,4.674C103.556,18.879,82.608,4.516,59.264,6.37
		l1.001,12.508C77.785,17.473,93.511,28.243,99.127,44.071z"/>
	<path d="M26.857,81.99l12.451-4.313L13.814,65.301L1.439,90.794l13.56-4.697c7.475,21.094,28.446,35.421,51.786,33.525
		l-1.022-12.506C48.244,108.551,32.5,97.81,26.857,81.99z"/>
</g>
</svg>
