<?xml version="1.0" encoding="utf-8"?>
<!-- Generator: Adobe Illustrator 16.0.0, SVG Export Plug-In . SVG Version: 6.00 Build 0)  -->
<!DOCTYPE svg PUBLIC "-//W3C//DTD SVG 1.1//EN" "http://www.w3.org/Graphics/SVG/1.1/DTD/svg11.dtd">
<svg version="1.1" id="Layer_2" xmlns="http://www.w3.org/2000/svg" xmlns:xlink="http://www.w3.org/1999/xlink" x="0px" y="0px"
	 width="126px" height="126px" viewBox="0 0 126 126" enable-background="new 0 0 126 126" xml:space="preserve">
<g>
	<circle cx="78.25" cy="13.736" r="12.856"/>
	<path d="M86.801,29.721c-0.215-0.132-0.442-0.227-0.668-0.323c-1.432-0.955-3.04-1.659-4.68-2.061l-3.202,3.224l-3.105-3.259
		c-0.01,0.002-0.021,0.003-0.032,0.005c-1.673,0.401-3.313,1.118-4.77,2.096c-0.222,0.094-0.446,0.188-0.659,0.318
		c-3.353,2.057-6.151,5.294-8.858,8.425c-6.193,7.167-8.933,9.232-12.948,7.356c-2.498-1.169-5.468-0.09-6.635,2.408
		c-1.167,2.497-0.089,5.468,2.408,6.634c2.45,1.145,4.736,1.633,6.869,1.633c6.011,0,10.802-3.872,14.572-7.831V66.89
		c0,1.343,0.26,2.596,0.717,3.749c-0.035,0.258-0.059,0.521-0.059,0.789l0.004,47.794c0,3.257,2.641,5.898,5.899,5.898
		c3.258-0.001,5.898-2.642,5.898-5.899l-0.003-41.017c0.234,0.01,0.467,0.029,0.702,0.029c0.046,0,0.092-0.005,0.138-0.005
		l-0.001,40.993c0,3.258,2.641,5.899,5.898,5.899l0,0c3.257,0,5.898-2.641,5.898-5.899l0.002-47.501
		c0.772-1.432,1.223-3.052,1.223-4.83V50.853c1.162,4.223,1.634,9.862,1.026,17.628c-0.215,2.748,1.839,5.15,4.587,5.365
		c0.133,0.01,0.264,0.015,0.394,0.015c2.58,0,4.766-1.987,4.971-4.602C104.353,44.118,96.058,35.398,86.801,29.721z M78.221,56.006
		l-3.101-4.243l3.101-20.724h0.06l3.1,20.724l-3.1,4.243H78.221z"/>
	<path d="M51.056,42.401l-1.009-3.249c-2.241,1.177-5.266,1.792-8.124,1.792c-8.348,0-14.343-5.322-14.343-14.678
		c0-10.702,7.507-17.425,16.079-17.425c8.685,0,13.392,5.658,13.392,12.942c0,6.443-3.026,9.525-5.435,9.468
		c-1.569-0.056-1.961-1.568-1.4-4.875l1.68-10.365c-1.401-0.784-4.202-1.4-6.667-1.4c-8.069,0-13.11,6.22-13.11,13.055
		c0,4.595,2.632,7.284,6.275,7.284c2.969,0,5.492-1.457,7.228-4.314h0.112c0.28,2.969,2.185,4.314,4.818,4.314
		c6.052,0,10.646-5.155,10.646-13.334c0-9.413-7.06-16.193-16.921-16.193c-12.662,0-20.954,9.917-20.954,21.347
		c0,10.982,8.181,17.649,17.48,17.649C44.781,44.419,47.694,43.915,51.056,42.401z M45.285,24.585
		c-0.503,3.249-2.689,5.882-4.762,5.882c-1.849,0-2.801-1.344-2.801-3.473c0-4.315,2.913-7.957,6.611-7.957
		c0.729,0,1.289,0.112,1.736,0.225L45.285,24.585z"/>
</g>
</svg>
