<?xml version="1.0" encoding="utf-8"?>
<!-- Generator: Adobe Illustrator 16.0.0, SVG Export Plug-In . SVG Version: 6.00 Build 0)  -->
<!DOCTYPE svg PUBLIC "-//W3C//DTD SVG 1.1//EN" "http://www.w3.org/Graphics/SVG/1.1/DTD/svg11.dtd">
<svg version="1.1" id="Layer_1" xmlns="http://www.w3.org/2000/svg" xmlns:xlink="http://www.w3.org/1999/xlink" x="0px" y="0px"
	 width="50px" height="50px" viewBox="0 0 50 50" enable-background="new 0 0 50 50" xml:space="preserve">
<g>
	<path d="M35.089,23.781H23.132c-0.288,0-0.52,0.232-0.52,0.521c0,0.287,0.232,0.521,0.52,0.521h11.957
		c0.288,0,0.52-0.233,0.52-0.521C35.608,24.014,35.376,23.781,35.089,23.781z"/>
	<path d="M35.089,26.154H23.132c-0.288,0-0.52,0.232-0.52,0.521c0,0.289,0.232,0.521,0.52,0.521h11.957
		c0.288,0,0.52-0.232,0.52-0.521C35.608,26.387,35.376,26.154,35.089,26.154z"/>
	<path d="M35.089,28.528H29.11c-0.288,0-0.521,0.233-0.521,0.521s0.233,0.521,0.521,0.521h5.979c0.288,0,0.52-0.232,0.52-0.521
		S35.376,28.528,35.089,28.528z"/>
	<path d="M19.571,26.917c0.73-0.49,1.233-1.46,1.233-2.332c0-1.231-0.997-2.23-2.229-2.23c-1.231,0-2.229,0.999-2.229,2.23
		c0,0.872,0.503,1.842,1.231,2.332c-1.744,0.443-3.039,1.961-3.039,3.084c0,1.328,8.073,1.328,8.073,0
		C22.612,28.878,21.318,27.36,19.571,26.917z M18.575,30.996l-1.132-1.13l0.952-2.302h-0.01l-0.369-0.425
		c0.18,0.064,0.364,0.104,0.559,0.104c0.195,0,0.379-0.038,0.559-0.102l-0.37,0.423h-0.009l0.953,2.302L18.575,30.996z"/>
	<path d="M35.346,17.51h-4.46c-0.057-0.273-0.34-0.605-0.875-0.966L27.49,14.85c-1.37-0.921-3.61-0.921-4.979,0l-2.521,1.694
		c-0.535,0.36-0.818,0.692-0.875,0.966h-4.46c-1.784,0-3.234,1.449-3.234,3.232v11.867c0,1.783,1.45,3.232,3.234,3.232h20.691
		c1.784,0,3.234-1.449,3.234-3.232V20.742C38.58,18.959,37.13,17.51,35.346,17.51z M25,15.176c0.759,0,1.375,0.615,1.375,1.375
		S25.759,17.926,25,17.926s-1.375-0.615-1.375-1.375S24.241,15.176,25,15.176z M37.286,32.609c0,1.069-0.87,1.939-1.94,1.939H14.654
		c-1.07,0-1.94-0.87-1.94-1.939V20.742c0-1.069,0.87-1.939,1.94-1.939h20.691c1.07,0,1.94,0.87,1.94,1.939V32.609z"/>
</g>
</svg>
