<?xml version="1.0" encoding="utf-8"?>
<!-- Generator: Adobe Illustrator 16.0.0, SVG Export Plug-In . SVG Version: 6.00 Build 0)  -->
<!DOCTYPE svg PUBLIC "-//W3C//DTD SVG 1.1//EN" "http://www.w3.org/Graphics/SVG/1.1/DTD/svg11.dtd">
<svg version="1.1" id="Layer_1" xmlns="http://www.w3.org/2000/svg" xmlns:xlink="http://www.w3.org/1999/xlink" x="0px" y="0px"
	 width="50px" height="50px" viewBox="0 0 50 50" enable-background="new 0 0 50 50" xml:space="preserve">
<g>
	<path d="M13.317,19.971c0.926,0,1.678-1.075,1.678-2.002c0-0.926-0.752-1.678-1.678-1.678c-0.928,0-1.68,0.752-1.68,1.678
		C11.637,18.896,12.389,19.971,13.317,19.971z"/>
	<path d="M25,19.971c0.926,0,1.678-1.075,1.678-2.002c0-0.926-0.752-1.678-1.678-1.678c-0.927,0-1.679,0.752-1.679,1.678
		C23.321,18.896,24.073,19.971,25,19.971z"/>
	<path d="M36.683,19.971c0.927,0,1.679-1.075,1.679-2.002c0-0.926-0.752-1.678-1.679-1.678s-1.679,0.752-1.679,1.678
		C35.004,18.896,35.756,19.971,36.683,19.971z"/>
	<path d="M42.856,17.541c-0.318-0.183-0.724-0.074-0.906,0.244l-1.764,3.065l-0.645-0.181c-0.188-0.066-1.443-0.492-2.603-0.55
		l-0.167,0.333h-0.004l0.447,3.481l-0.532,0.928l-0.531-0.928l0.447-3.481h-0.005l-0.166-0.333c-1.16,0.059-2.414,0.484-2.602,0.55
		l-0.645,0.18l-1.765-3.065c-0.007-0.013-0.019-0.019-0.027-0.031c-0.024-0.037-0.055-0.067-0.087-0.099
		c-0.032-0.032-0.062-0.063-0.099-0.087c-0.012-0.008-0.019-0.021-0.031-0.027c-0.025-0.014-0.052-0.016-0.078-0.026
		c-0.042-0.018-0.083-0.034-0.128-0.042c-0.042-0.008-0.083-0.009-0.125-0.009c-0.042,0-0.083,0.001-0.125,0.009
		c-0.045,0.009-0.086,0.025-0.128,0.043c-0.025,0.01-0.053,0.012-0.077,0.026c-0.012,0.007-0.019,0.019-0.03,0.027
		c-0.038,0.024-0.068,0.056-0.1,0.088c-0.032,0.032-0.063,0.062-0.087,0.099c-0.007,0.012-0.02,0.018-0.027,0.031l-1.764,3.065
		l-0.646-0.181c-0.192-0.068-1.444-0.492-2.602-0.55l-0.167,0.333h-0.004l0.447,3.481L25,24.861l-0.531-0.928l0.447-3.481h-0.005
		l-0.166-0.333c-1.16,0.059-2.414,0.484-2.602,0.55l-0.645,0.18l-1.764-3.065c-0.007-0.013-0.02-0.019-0.027-0.031
		c-0.024-0.037-0.056-0.067-0.087-0.099s-0.062-0.063-0.099-0.087c-0.012-0.008-0.019-0.021-0.031-0.027
		c-0.025-0.014-0.053-0.016-0.079-0.026c-0.042-0.018-0.083-0.034-0.128-0.042c-0.042-0.009-0.083-0.009-0.125-0.009
		s-0.083,0.001-0.125,0.009c-0.045,0.009-0.086,0.025-0.128,0.043c-0.026,0.01-0.053,0.012-0.078,0.026
		c-0.012,0.007-0.019,0.019-0.03,0.027c-0.037,0.024-0.068,0.056-0.1,0.088c-0.032,0.032-0.062,0.062-0.087,0.099
		c-0.008,0.012-0.02,0.018-0.027,0.031l-1.765,3.065l-0.645-0.181c-0.192-0.068-1.444-0.492-2.602-0.55l-0.167,0.333H13.4
		l0.447,3.481l-0.531,0.928l-0.531-0.928l0.447-3.481h-0.005l-0.167-0.333c-1.16,0.059-2.414,0.484-2.602,0.55l-0.645,0.18
		L8.05,17.785c-0.183-0.318-0.59-0.427-0.907-0.244c-0.318,0.183-0.427,0.589-0.244,0.906l2.021,3.512
		c0.121,0.209,0.342,0.333,0.575,0.333c0.06,0,0.12-0.008,0.179-0.024l1.165-0.326c0.008-0.002,0.014-0.009,0.022-0.011
		c0.008-0.003,0.017-0.001,0.025-0.004c0.005-0.002,0.233-0.083,0.57-0.179v4.531l-0.528,6.57c-0.035,0.438,0.292,0.822,0.73,0.857
		c0.021,0.002,0.043,0.002,0.064,0.002c0.411,0,0.76-0.316,0.793-0.733l0.478-5.938c0.099,0.044,0.207,0.069,0.322,0.069
		c0.114,0,0.223-0.025,0.321-0.069l0.478,5.938c0.034,0.417,0.382,0.733,0.793,0.733c0.021,0,0.043,0,0.065-0.002
		c0.438-0.035,0.765-0.419,0.73-0.857l-0.529-6.57v-4.531c0.337,0.096,0.565,0.177,0.571,0.179c0.009,0.003,0.018,0.002,0.026,0.005
		c0.007,0.002,0.012,0.008,0.021,0.01l1.165,0.326c0.06,0.017,0.12,0.025,0.179,0.025c0.232,0,0.455-0.123,0.575-0.333l1.446-2.513
		l1.446,2.512c0.121,0.209,0.343,0.333,0.576,0.333c0.059,0,0.12-0.008,0.179-0.024l1.165-0.326
		c0.009-0.002,0.014-0.009,0.022-0.011c0.008-0.003,0.016-0.001,0.024-0.004c0.005-0.002,0.233-0.083,0.571-0.179v4.531l-0.529,6.57
		c-0.035,0.438,0.292,0.822,0.73,0.857c0.021,0.002,0.043,0.002,0.064,0.002c0.411,0,0.76-0.316,0.793-0.733l0.477-5.938
		c0.099,0.044,0.207,0.069,0.322,0.069s0.223-0.025,0.322-0.069l0.478,5.938c0.033,0.417,0.382,0.733,0.793,0.733
		c0.021,0,0.043,0,0.064-0.002c0.438-0.035,0.766-0.419,0.73-0.857l-0.528-6.57v-4.531c0.337,0.096,0.565,0.177,0.571,0.179
		c0.009,0.003,0.018,0.002,0.026,0.005c0.008,0.002,0.013,0.008,0.021,0.01l1.165,0.326c0.06,0.017,0.12,0.025,0.179,0.025
		c0.233,0,0.455-0.123,0.575-0.333l1.447-2.513l1.446,2.512c0.121,0.209,0.342,0.333,0.576,0.333c0.06,0,0.119-0.008,0.179-0.024
		l1.165-0.326c0.008-0.002,0.014-0.009,0.022-0.011c0.008-0.003,0.017-0.001,0.024-0.004c0.006-0.002,0.233-0.083,0.571-0.179v4.531
		l-0.528,6.57c-0.035,0.438,0.292,0.822,0.73,0.857c0.022,0.002,0.043,0.002,0.065,0.002c0.411,0,0.76-0.316,0.793-0.733
		l0.478-5.938c0.098,0.044,0.207,0.069,0.321,0.069c0.115,0,0.223-0.025,0.322-0.069l0.478,5.938
		c0.033,0.417,0.382,0.733,0.793,0.733c0.021,0,0.043,0,0.065-0.002c0.438-0.035,0.765-0.419,0.73-0.857l-0.528-6.57v-4.531
		c0.337,0.096,0.565,0.177,0.571,0.179c0.009,0.003,0.018,0.002,0.026,0.005c0.008,0.002,0.013,0.008,0.021,0.01l1.165,0.326
		c0.059,0.017,0.119,0.025,0.179,0.025c0.233,0,0.455-0.123,0.575-0.333l2.022-3.513C43.284,18.129,43.174,17.724,42.856,17.541z"/>
</g>
</svg>
