<?xml version="1.0" encoding="utf-8"?>
<!-- Generator: Adobe Illustrator 16.0.0, SVG Export Plug-In . SVG Version: 6.00 Build 0)  -->
<!DOCTYPE svg PUBLIC "-//W3C//DTD SVG 1.1//EN" "http://www.w3.org/Graphics/SVG/1.1/DTD/svg11.dtd">
<svg version="1.1" id="Layer_1" xmlns="http://www.w3.org/2000/svg" xmlns:xlink="http://www.w3.org/1999/xlink" x="0px" y="0px"
	 width="50px" height="50px" viewBox="0 0 50 50" enable-background="new 0 0 50 50" xml:space="preserve">
<g>
	<path d="M19.36,23.597c-0.224-0.209-0.356-0.457-0.356-0.752c0-1.52,1.437-3.499,3.656-4.401c-0.661-0.729-1.087-1.719-1.164-2.683
		c-0.888,0.284-1.684,0.968-1.958,1.764l-1.44,4.189C17.762,22.687,18.328,23.486,19.36,23.597z"/>
	<path d="M30.997,22.845c0,0.295-0.132,0.543-0.356,0.752c1.032-0.11,1.598-0.91,1.263-1.883l-1.44-4.189
		c-0.274-0.796-1.07-1.479-1.958-1.764c-0.076,0.964-0.502,1.953-1.164,2.683C29.56,19.346,30.997,21.325,30.997,22.845z"/>
	<path d="M23.644,18.646c-2.378,0.604-4.14,2.668-4.14,4.199c0,1.808,10.993,1.808,10.993,0c0-1.531-1.762-3.596-4.14-4.199
		c0.994-0.67,1.679-1.988,1.679-3.176c0-1.678-1.358-3.037-3.035-3.037s-3.035,1.359-3.035,3.037
		C21.965,16.657,22.65,17.976,23.644,18.646z M25,19.089c0.264,0,0.517-0.052,0.76-0.14l-0.504,0.576h-0.012l1.298,3.135L25,24.199
		l-1.542-1.539l1.298-3.135h-0.014l-0.503-0.577C24.483,19.036,24.736,19.089,25,19.089z"/>
	<polygon points="39.208,28.217 39.208,26.909 35.566,24.199 38.43,26.909 11.569,26.909 14.434,24.199 10.792,26.909 
		10.792,28.217 13.434,28.217 13.434,36.101 12.778,36.101 12.778,36.841 11.8,36.841 11.8,37.568 38.2,37.568 38.2,36.841 
		37.222,36.841 37.222,36.101 36.566,36.101 36.566,28.217 	"/>
</g>
</svg>
