<?xml version="1.0" encoding="utf-8"?>
<!-- Generator: Adobe Illustrator 16.0.0, SVG Export Plug-In . SVG Version: 6.00 Build 0)  -->
<!DOCTYPE svg PUBLIC "-//W3C//DTD SVG 1.1//EN" "http://www.w3.org/Graphics/SVG/1.1/DTD/svg11.dtd">
<svg version="1.1" id="Layer_11" xmlns="http://www.w3.org/2000/svg" xmlns:xlink="http://www.w3.org/1999/xlink" x="0px" y="0px"
	 width="100px" height="100px" viewBox="0 0 100 100" enable-background="new 0 0 100 100" xml:space="preserve">
<path d="M67.014,52.73c0.34-0.448,0.865-0.891,1.569-1.326c2.188-1.352,2.378-2.582,2.153-3.375
	c-0.357-1.258-1.986-2.009-4.355-2.009c-1.547,0-3.175,0.311-4.788,0.861c1.928-1.53,3.55-3.423,4.763-5.583
	c1.195,1.332,2.981,2.179,4.979,2.179c3.601,0,6.518-2.746,6.518-6.133v-9.966c0-3.157-2.535-5.755-5.795-6.094
	C70.015,11.496,60.969,4.096,50.147,4.096c-10.931,0-20.047,7.553-21.965,17.489c-2.553,0.831-4.39,3.107-4.39,5.792v9.966
	c0,3.388,2.918,6.133,6.518,6.133c1.357,0,2.617-0.391,3.661-1.059c1.157,1.763,2.603,3.312,4.265,4.6
	c-1.74-0.64-3.508-0.998-5.182-0.998c-2.371,0-3.999,0.751-4.355,2.009c-0.225,0.793-0.034,2.024,2.154,3.375
	c0.822,0.508,1.4,1.026,1.726,1.545C25.402,56.78,20.81,64.356,20.81,72.481v17.237l0.141,0.949l1.712,0.535
	c9.987,3.12,19.803,4.702,29.173,4.702c15.599,0,24.66-4.339,25.645-4.835l0.915-0.466l0.795,0.012V72.481
	C79.19,64.143,74.441,56.491,67.014,52.73z M50.147,6.271c9.602,0,17.643,6.511,19.583,15.168c-1.227,0.292-2.301,0.925-3.14,1.768
	c-3.177-6.019-9.489-10.126-16.768-10.126c-6.836,0-12.809,3.63-16.144,9.057c-0.904-0.514-1.949-0.831-3.07-0.878
	C32.619,12.692,40.614,6.271,50.147,6.271z M36.829,31.6v-4.222c0-0.625-0.1-1.227-0.285-1.794c0.93-1.459,2.559-2.431,4.417-2.431
	h3.561c0.165,0,0.321,0.034,0.482,0.049c0.021-0.001,0.04-0.013,0.061-0.013h10.417c0.121-0.008,0.237-0.036,0.36-0.036h3.562
	c2.892,0,5.236,2.345,5.236,5.237c0,2.893-2.345,5.238-5.236,5.238h-3.562c-2.892,0-5.237-2.345-5.237-5.238
	c0-0.835,0.214-1.615,0.562-2.316h-1.969c0.349,0.701,0.563,1.48,0.563,2.316c0,2.893-2.346,5.238-5.238,5.238h-3.561
	C39.28,33.628,37.787,32.832,36.829,31.6z M55.947,49.964c-0.161,0.125-0.327,0.241-0.484,0.372h-0.755
	C55.126,50.224,55.54,50.104,55.947,49.964z M44.938,50.336h-0.966c-0.219-0.182-0.45-0.347-0.675-0.519
	C43.833,50.014,44.379,50.187,44.938,50.336z M65.193,52.32c-2.79,1.275-13.956,8.478-14.158,41.8
	c-0.737-0.007-1.476-0.02-2.219-0.047C48.584,57.747,35.312,52.497,34.12,52.101c-0.473-0.789-1.25-1.526-2.338-2.199
	c-1.255-0.775-1.41-1.293-1.383-1.39c0.054-0.192,0.786-0.723,2.655-0.723c1.235,0,5.606,0.296,10.016,4.101l0.249,0.214h12.796
	l0.249-0.214c4.41-3.805,8.781-4.101,10.016-4.101c1.869,0,2.601,0.531,2.655,0.724c0.027,0.096-0.127,0.614-1.381,1.389
	C66.45,50.645,65.643,51.441,65.193,52.32z"/>
</svg>
