<?xml version="1.0" encoding="iso-8859-1"?>
<!-- Generator: Adobe Illustrator 17.1.0, SVG Export Plug-In . SVG Version: 6.00 Build 0)  -->
<!DOCTYPE svg PUBLIC "-//W3C//DTD SVG 1.1//EN" "http://www.w3.org/Graphics/SVG/1.1/DTD/svg11.dtd">
<svg version="1.1" id="Layer_1" xmlns="http://www.w3.org/2000/svg" xmlns:xlink="http://www.w3.org/1999/xlink" x="0px" y="0px"
	 viewBox="0 0 128 128" style="enable-background:new 0 0 128 128;" xml:space="preserve">
<g>
	<path d="M18.883,64.483c2.369,0.726,4.877-0.604,5.605-2.972c0.002,0,6.707-21.862,6.707-21.862
		c0.039-0.093,0.24-0.476,0.708-0.476c0.042,0,0.945,0,0.945,0h0.002c0.267-0.004,0.423,0.223,0.352,0.479L19.78,83.581
		c-0.072,0.256,0,0.704,0.467,0.704h9.417c0.267,0,0.462,0.216,0.462,0.483c0,0-0.002,32.004-0.002,32.015
		c0,3.196,2.591,5.787,5.787,5.787c3.196,0,5.787-2.591,5.787-5.787l0.002-32.016c0-0.267,0.216-0.482,0.482-0.482h0.008h0.925
		h0.008c0.267,0,0.482,0.215,0.482,0.482l0.002,32.016c0,3.196,2.591,5.787,5.787,5.787c3.196,0,5.787-2.591,5.787-5.787
		c0-0.011-0.002-32.015-0.002-32.015c0-0.267,0.195-0.483,0.462-0.483h9.417c0.467,0,0.54-0.447,0.467-0.704L52.1,39.652
		c-0.071-0.256,0.085-0.483,0.352-0.479h0.002c0,0,0.902,0,0.945,0c0.469,0,0.669,0.384,0.708,0.476c0,0,8.88,28.981,8.882,28.982
		c0.728,2.367,3.237,3.698,5.605,2.972c0.832-0.255,1.532-0.733,2.064-1.344c0.037-0.042,0.075-0.081,0.11-0.124
		c0.001,0,0.001-0.001,0.001-0.002c0.632-0.773,1.013-1.76,1.013-2.836c0.002-0.001,2.722-27.401,2.722-27.401
		c0-0.258,0.209-0.466,0.467-0.466h0.951c0.258,0,0.466,0.209,0.466,0.466c0,0,0,76.871,0,76.88c0,3.196,2.591,5.787,5.787,5.787
		c3.196,0,5.787-2.591,5.787-5.787c0-0.009,0-45.235,0-45.235c0-0.33,0.152-0.468,0.478-0.468h0.933
		c0.326,0,0.478,0.138,0.478,0.468c0,0,0,45.226,0,45.235c0,3.196,2.591,5.787,5.787,5.787c3.196,0,5.787-2.591,5.787-5.787
		c0-0.009,0-76.88,0-76.88c0-0.258,0.209-0.467,0.466-0.467h0.951c0.258,0,0.467,0.209,0.467,0.467c0,0,0.004,27.4,0.006,27.401
		c0.002,2.477,2.01,4.484,4.487,4.484c2.478,0,4.488-2.009,4.488-4.488c0-0.014,0-30.81,0-31.177
		c0.001-6.141-4.723-10.865-10.628-10.865c-0.15,0-8.087,0-11.81,0c0,0-0.746,0-1.889,0c-3.722,0-11.659,0-11.81,0
		c-5.905,0-10.077,4.506-10.629,10.865c-0.01,0.119-0.3,3.445-0.687,7.882c-1.247-4.075-2.166-7.078-2.166-7.078
		c-1.025-3.563-2.983-11.676-10.55-11.676H33.206c-7.051,0-9.548,8.113-10.574,11.676c-0.022,0.076-6.72,21.948-6.723,21.957
		C15.182,61.246,16.514,63.756,18.883,64.483z"/>
	<circle cx="88.908" cy="14.049" r="8.611"/>
	<circle cx="42.258" cy="14.041" r="8.611"/>
</g>
</svg>
