<?xml version="1.0" encoding="utf-8"?>
<!-- Generator: Adobe Illustrator 16.0.0, SVG Export Plug-In . SVG Version: 6.00 Build 0)  -->
<!DOCTYPE svg PUBLIC "-//W3C//DTD SVG 1.1//EN" "http://www.w3.org/Graphics/SVG/1.1/DTD/svg11.dtd">
<svg version="1.1" id="Layer_11" xmlns="http://www.w3.org/2000/svg" xmlns:xlink="http://www.w3.org/1999/xlink" x="0px" y="0px"
	 width="100px" height="100px" viewBox="0 0 100 100" enable-background="new 0 0 100 100" xml:space="preserve">
<path d="M54.689,30.159c0-8.1,6.566-14.666,14.666-14.666s14.666,6.566,14.666,14.666s-6.566,14.666-14.666,14.666
	S54.689,38.258,54.689,30.159z M75.577,45.825H63.133c-10.354,0-18.777,8.424-18.777,18.777v15.223l0.039,0.237l1.05,0.328
	c9.88,3.086,18.466,4.117,25.531,4.117c13.801,0,21.8-3.936,22.294-4.186l0.981-0.498l0.104,0.001V64.602
	C94.355,54.249,85.932,45.825,75.577,45.825z M30.645,44.825c8.1,0,14.666-6.566,14.666-14.666s-6.566-14.666-14.666-14.666
	s-14.666,6.566-14.666,14.666S22.545,44.825,30.645,44.825z M40.971,79.825V64.602c0-6.06,2.445-11.549,6.385-15.568
	c-2.997-2.025-6.607-3.209-10.488-3.209H24.423c-10.354,0-18.778,8.424-18.778,18.777v15.223l0.039,0.237l1.051,0.328
	c9.879,3.086,18.465,4.117,25.531,4.117c4.493,0,8.359-0.42,11.563-0.991l-2.422-0.757L40.971,79.825z"/>
</svg>
