<?xml version="1.0" encoding="iso-8859-1"?>
<!-- Generator: Adobe Illustrator 17.1.0, SVG Export Plug-In . SVG Version: 6.00 Build 0)  -->
<!DOCTYPE svg PUBLIC "-//W3C//DTD SVG 1.1//EN" "http://www.w3.org/Graphics/SVG/1.1/DTD/svg11.dtd">
<svg version="1.1" id="Layer_1" xmlns="http://www.w3.org/2000/svg" xmlns:xlink="http://www.w3.org/1999/xlink" x="0px" y="0px"
	 viewBox="0 0 128 128" style="enable-background:new 0 0 128 128;" xml:space="preserve">
<g>
	<path d="M98.233,78.33h-0.757c-0.264,0-0.388,0.112-0.388,0.379c0,0,0,8.469,0,17.267c0.516-0.464,1.026-0.933,1.532-1.408
		c0-8.272,0-15.86,0-15.86C98.62,78.442,98.497,78.33,98.233,78.33z"/>
	<path d="M109.152,52.677h-0.771c-0.209,0-0.378,0.169-0.378,0.378c0,0,0,15.709,0,31.354c1.472-1.842,2.866-3.728,4.173-5.646
		c-1.523-0.434-2.64-1.832-2.641-3.494c-0.002-0.001-0.005-22.214-0.005-22.214C109.53,52.846,109.361,52.677,109.152,52.677z"/>
	<path d="M12.432,50.636c0.831-2.889,2.856-9.466,8.572-9.466h15.336c6.135,0,7.722,6.577,8.553,9.466
		c0,0,5.448,17.794,5.451,17.801c0.589,1.921-0.491,3.956-2.411,4.545c-1.92,0.589-3.954-0.49-4.544-2.409
		c-0.002,0-5.438-17.724-5.438-17.724c-0.032-0.075-0.195-0.386-0.574-0.386c-0.034,0-0.766,0-0.766,0h-0.002
		c-0.216-0.003-0.343,0.181-0.286,0.388l10.883,35.614c0.059,0.208,0,0.57-0.379,0.57h-7.635c-0.216,0-0.374,0.175-0.374,0.391
		c0,0,0,6.453,0.001,12.923c5.933,4.265,12.284,7.726,18.777,10.052c0-4.047,0.001-8.171,0.001-8.171
		c0-0.133-0.097-0.241-0.231-0.241h-4.637c-0.234,0-0.27-0.224-0.234-0.351l6.68-21.979c0.035-0.128-0.042-0.241-0.176-0.239
		c0,0-1.033,0-1.054,0c-0.234,0-0.334,0.192-0.354,0.238c0,0-3.324,10.853-3.325,10.854c-0.364,1.183-1.617,1.847-2.8,1.485
		c-1.184-0.363-1.849-1.617-1.486-2.801c0.001-0.005,3.348-10.932,3.359-10.97c0.512-1.78,2.357-5.834,5.88-5.834h9.629
		c3.781,0,5.302,4.053,5.814,5.834c0.011,0.038,0.023,0.084,0.037,0.138c1.352,4.408,3.32,10.827,3.322,10.832
		c0.363,1.184-0.302,2.438-1.486,2.801c-1.183,0.363-2.437-0.302-2.8-1.485c-0.001,0-3.336-10.854-3.336-10.854
		c-0.02-0.046-0.12-0.238-0.354-0.238c-0.021,0-1.011,0-1.011,0c-0.133-0.002-0.196,0.111-0.161,0.239l6.691,21.979
		c0.036,0.128,0,0.351-0.233,0.351h-4.457c-0.133,0-0.231,0.108-0.231,0.241c0,0,0,4.067,0,8.086
		c5.875-2.131,11.631-5.189,17.063-8.928c0-18.107,0-50.335,0-50.335c0-0.209-0.169-0.378-0.378-0.378h-0.771
		c-0.209,0-0.378,0.169-0.378,0.378c0,0-0.003,22.214-0.005,22.214c-0.002,2.008-1.63,3.636-3.638,3.636
		c-2.009,0-3.638-1.629-3.638-3.638c0-0.011,0-24.978,0-25.276c0-4.979,3.83-8.808,8.617-8.808c0.122,0,11.106,0,11.106,0
		c3.018,0,9.452,0,9.574,0c4.787,0,8.617,3.83,8.617,8.808c0,0.221,0,14.042,0,21.149c9.541-17.775,11.09-36.958-2.097-49.514
		C92.687,1.433,67.66,25.772,64.443,29.083c-0.192,0.197-0.387,0.36-0.443,0.363c-0.056-0.003-0.251-0.166-0.443-0.363
		c-3.217-3.311-28.244-27.65-50.272-7.458C1.676,32.68,1.488,48.872,8.12,64.717C9.714,59.513,12.419,50.68,12.432,50.636z
		 M97.855,25.121c3.855,0,6.981,3.126,6.981,6.981c0,3.855-3.126,6.981-6.981,6.981s-6.981-3.126-6.981-6.981
		C90.874,28.246,93.999,25.121,97.855,25.121z M57.672,64.217c0.934-0.094,1.902,0.363,2.621,0.825
		c0.186,0.12,0.453,0.094,0.619-0.051c0.835-0.736,1.932-1.184,3.134-1.184c1.249,0,2.385,0.483,3.233,1.272
		c0.161,0.15,0.423,0.177,0.607,0.053c0.729-0.49,1.764-1.014,2.759-0.915c1.64,0.163,1.992,2.049,1.566,3.349
		c-0.069,0.211-0.23,0.531-0.326,0.729c-0.582,1.21-1.179,2.599-1.556,2.644c-0.38,0.048,0.835-2.87-0.037-3.78
		c-0.154-0.159-0.515-0.235-0.734-0.218c-0.159,0.014-0.359,0.048-0.586,0.124c-0.209,0.071-0.317,0.326-0.272,0.541
		c0.062,0.306,0.096,0.623,0.096,0.947c0,2.621-2.125,4.746-4.746,4.746c-2.62,0-4.746-2.125-4.746-4.746
		c0-0.357,0.039-0.704,0.113-1.039c0.048-0.216-0.062-0.457-0.276-0.51c-0.141-0.034-0.269-0.053-0.379-0.062
		c-0.221-0.019-0.582,0.058-0.734,0.218c-0.872,0.91,0.342,3.828-0.037,3.78c-0.38-0.046-0.977-1.435-1.559-2.645
		c-0.096-0.2-0.256-0.519-0.326-0.729C55.68,66.267,56.032,64.38,57.672,64.217z M28.662,25.107c3.855,0,6.981,3.126,6.981,6.981
		s-3.126,6.981-6.981,6.981s-6.981-3.126-6.981-6.981S24.807,25.107,28.662,25.107z"/>
	<path d="M64.021,114.306c0.28-0.066,0.56-0.136,0.84-0.207l-0.001-9.867c0-0.133-0.139-0.241-0.245-0.241c-0.106,0-0.998,0-0.998,0
		c-0.133,0-0.241,0.108-0.241,0.241l-0.001,9.926c0.201,0.05,0.402,0.101,0.603,0.148H64.021z"/>
	<path d="M21.002,52.851c0.057-0.207-0.069-0.391-0.286-0.388h-0.002c0,0-0.731,0-0.766,0c-0.38,0-0.542,0.311-0.574,0.386
		c0,0-5.436,17.724-5.438,17.724c-0.305,0.991-0.996,1.756-1.857,2.184c0.598,1.056,1.225,2.106,1.877,3.148L21.002,52.851z"/>
	<path d="M29.043,89.035h-0.006h-0.75h-0.006c-0.216,0-0.391,0.175-0.391,0.391l0,3.714c0.509,0.499,1.024,0.993,1.545,1.481
		l0-5.195C29.434,89.21,29.26,89.035,29.043,89.035z"/>
</g>
</svg>
