<?xml version="1.0" encoding="iso-8859-1"?>
<!-- Generator: Adobe Illustrator 17.1.0, SVG Export Plug-In . SVG Version: 6.00 Build 0)  -->
<!DOCTYPE svg PUBLIC "-//W3C//DTD SVG 1.1//EN" "http://www.w3.org/Graphics/SVG/1.1/DTD/svg11.dtd">
<svg version="1.1" id="Layer_1" xmlns="http://www.w3.org/2000/svg" xmlns:xlink="http://www.w3.org/1999/xlink" x="0px" y="0px"
	 viewBox="0 0 128 128" style="enable-background:new 0 0 128 128;" xml:space="preserve">
<g>
	<path d="M21.107,58.675c1.027-3.569,3.528-11.696,10.591-11.696h18.948c7.58,0,9.541,8.127,10.568,11.696
		c0,0,0.921,3.009,2.17,7.09c0.387-4.445,0.678-7.776,0.688-7.895c0.552-6.37,4.732-10.883,10.646-10.883c0.151,0,8.101,0,11.829,0
		c1.146,0,1.893,0,1.893,0c3.729,0,11.679,0,11.829,0c5.915,0,10.646,4.732,10.646,10.883c0,0.215,0,10.841,0,19.639
		c12.547-18.819,16.332-40.667,1.962-54.349c-21.23-19.461-45.352,3.997-48.452,7.188c-0.185,0.19-0.373,0.347-0.427,0.35
		c-0.054-0.003-0.242-0.16-0.427-0.35c-3.1-3.191-27.222-26.649-48.452-7.188C1.214,36.401,4.311,57.292,15.899,75.683
		C17.882,69.211,21.092,58.727,21.107,58.675z M87.495,27.141c4.764,0,8.625,3.862,8.625,8.625c0,4.764-3.862,8.625-8.625,8.625
		s-8.625-3.862-8.625-8.625C78.87,31.002,82.731,27.141,87.495,27.141z M40.767,27.133c4.764,0,8.625,3.862,8.625,8.625
		c0,4.764-3.862,8.625-8.625,8.625c-4.764,0-8.625-3.862-8.625-8.625C32.141,30.994,36.003,27.133,40.767,27.133z"/>
	<path d="M87.962,92.885h-0.935c-0.326,0-0.479,0.138-0.479,0.469c0,0,0,3.621,0,8.815c0.636-0.433,1.267-0.876,1.893-1.328
		c0-4.473,0-7.487,0-7.487C88.441,93.023,88.288,92.885,87.962,92.885z"/>
	<path d="M101.453,61.188h-0.952c-0.258,0-0.467,0.209-0.467,0.467c0,0,0,13.504,0,29.201c0.641-0.652,1.272-1.313,1.893-1.982
		c-0.002-2.612-0.006-27.219-0.006-27.219C101.92,61.397,101.711,61.188,101.453,61.188z"/>
	<path d="M74.488,61.188h-0.952c-0.258,0-0.467,0.209-0.467,0.467c0,0-2.724,27.446-2.727,27.447
		c-0.001,1.078-0.382,2.066-1.015,2.841c0,0-0.001,0.001-0.001,0.001c-0.036,0.044-0.074,0.083-0.111,0.125
		c-0.533,0.612-1.234,1.091-2.067,1.347c-2.372,0.728-4.885-0.605-5.615-2.977c-0.002,0-8.897-29.031-8.897-29.031
		c-0.04-0.092-0.24-0.477-0.71-0.477c-0.043,0-0.946,0-0.946,0h-0.002c-0.267-0.004-0.423,0.223-0.353,0.48l13.446,44.004
		c0.073,0.257,0,0.705-0.468,0.705H54.17c-0.267,0-0.463,0.217-0.463,0.484c0,0,0,0.905,0,2.406
		c3.38,1.481,6.819,2.657,10.272,3.475h0.041c3.679-0.871,7.342-2.148,10.935-3.768c0-21.633,0-47.061,0-47.061
		C74.955,61.397,74.746,61.188,74.488,61.188z"/>
	<path d="M31.344,60.932h-0.002c0,0-0.904,0-0.946,0c-0.469,0-0.67,0.384-0.71,0.477c0,0-6.716,21.899-6.719,21.899
		c-0.145,0.472-0.363,0.9-0.634,1.281c0.547,0.668,1.107,1.329,1.675,1.983l7.688-25.161C31.767,61.155,31.611,60.927,31.344,60.932
		z"/>
</g>
</svg>
