<?xml version="1.0" encoding="iso-8859-1"?>
<!-- Generator: Adobe Illustrator 17.1.0, SVG Export Plug-In . SVG Version: 6.00 Build 0)  -->
<!DOCTYPE svg PUBLIC "-//W3C//DTD SVG 1.1//EN" "http://www.w3.org/Graphics/SVG/1.1/DTD/svg11.dtd">
<svg version="1.1" id="Layer_1" xmlns="http://www.w3.org/2000/svg" xmlns:xlink="http://www.w3.org/1999/xlink" x="0px" y="0px"
	 viewBox="0 0 128 128" style="enable-background:new 0 0 128 128;" xml:space="preserve">
<g>
	<path d="M12.407,42.595c0.149,0,0.3-0.03,0.445-0.092l15.524-6.672c0.573-0.246,0.838-0.91,0.591-1.483
		c-0.246-0.573-0.911-0.837-1.483-0.591l-15.524,6.672c-0.573,0.246-0.838,0.91-0.591,1.483
		C11.553,42.339,11.97,42.595,12.407,42.595z"/>
	<path d="M30.827,48.348l-17.515,1.501c-0.621,0.053-1.082,0.6-1.028,1.221c0.05,0.588,0.543,1.032,1.124,1.032
		c0.032,0,0.065-0.001,0.098-0.004l17.515-1.501c0.621-0.053,1.082-0.6,1.029-1.221C31.995,48.755,31.443,48.295,30.827,48.348z"/>
	<path d="M13.311,63.564h17.385c0.624,0,1.129-0.505,1.129-1.129s-0.505-1.129-1.129-1.129H13.311c-0.624,0-1.129,0.505-1.129,1.129
		S12.687,63.564,13.311,63.564z"/>
	<path d="M30.841,76.458c0.557,0,1.042-0.412,1.118-0.979c0.083-0.618-0.351-1.186-0.969-1.269l-17.432-2.335
		c-0.62-0.085-1.186,0.351-1.269,0.969c-0.083,0.618,0.351,1.186,0.969,1.269l17.432,2.335
		C30.74,76.454,30.791,76.458,30.841,76.458z"/>
	<path d="M11.949,82.365l16.514,7.34c0.149,0.066,0.305,0.098,0.458,0.098c0.433,0,0.845-0.25,1.032-0.671
		c0.253-0.57-0.004-1.237-0.573-1.49l-16.514-7.34c-0.569-0.253-1.237,0.003-1.49,0.573C11.122,81.445,11.379,82.112,11.949,82.365z
		"/>
	<path d="M4.957,32.181V89.98c0,0.873,0.708,1.58,1.58,1.58c0.873,0,1.581-0.708,1.581-1.58V32.181c0-0.873-0.708-1.58-1.581-1.58
		C5.665,30.601,4.957,31.308,4.957,32.181z"/>
	<circle cx="66.842" cy="60.023" r="6.939"/>
	<circle cx="106.658" cy="60.023" r="6.939"/>
	<path d="M39.934,95.239c0.705,1.01,1.792,1.594,2.93,1.695c0.903,0.08,1.838-0.146,2.64-0.705l8.315-5.806
		c3.939,5.021,6.223,6.96,12.619,6.96c0.247,0.032,2.907-0.015,3.156,0c4.844-0.02,5.83-3.057,5.875-7.977
		c0.031-3.409,0.132-11.687,0-15.75c-0.125-4.454-3.769-4.399-5.406-4.453c-0.249,0.015-4.845-0.012-5.094,0
		c-0.616,0-1.588,0.054-2.538,0.718l-6.387,4.496c-0.95,0.655-1.902,1.323-2.805,1.974l-4.565,3.214
		c-1.76,1.229-2.213,3.611-1.08,5.407l-6.67,4.658C39.112,90.934,38.669,93.428,39.934,95.239z"/>
	<path d="M120.875,91.56l-5.753-19.06l-0.009,0.006c-0.677-3.284-3.789-3.256-5.27-3.305c-0.249,0.015-4.845-0.012-5.094,0
		c-0.616,0-1.588,0.054-2.538,0.718l-6.387,4.496c-0.95,0.655-1.902,1.323-2.805,1.974l-4.565,3.214
		c-1.76,1.229-2.213,3.611-1.08,5.407l-6.67,4.658c-1.812,1.265-2.254,3.758-0.989,5.569c0.705,1.01,1.792,1.594,2.93,1.695
		c0.903,0.08,1.838-0.146,2.64-0.705l8.315-5.806c3.939,5.021,6.223,6.96,12.619,6.96c0.247,0.032,2.907-0.015,3.156,0
		c3.568-0.015,5.04-1.671,5.587-4.507c2.168,0,3.796,0,4.289,0C121.25,92.875,120.875,91.56,120.875,91.56z"/>
</g>
</svg>
