<?xml version="1.0" encoding="iso-8859-1"?>
<!-- Generator: Adobe Illustrator 17.1.0, SVG Export Plug-In . SVG Version: 6.00 Build 0)  -->
<!DOCTYPE svg PUBLIC "-//W3C//DTD SVG 1.1//EN" "http://www.w3.org/Graphics/SVG/1.1/DTD/svg11.dtd">
<svg version="1.1" id="Layer_1" xmlns="http://www.w3.org/2000/svg" xmlns:xlink="http://www.w3.org/1999/xlink" x="0px" y="0px"
	 viewBox="0 0 128 128" style="enable-background:new 0 0 128 128;" xml:space="preserve">
<g>
	<path d="M66.432,2.448c-0.301-0.233-0.787-0.231-1.088,0.003l-12.671,9.852c-0.301,0.233-0.464,0.114-0.464-0.267V5.524
		c0-0.381-0.471-0.66-0.852-0.66h-8.946c-0.381,0-0.617,0.279-0.617,0.66v14.487c0,0.381-0.279,0.876-0.58,1.109L6.697,47.76
		c-0.301,0.233-0.255,0.405,0.126,0.405h15.632c0.381,0,0.707,0.338,0.707,0.716v76.05c0,0.381,0.289,0.794,0.67,0.794h84.309
		c0.381,0,0.804-0.415,0.804-0.794V48.884c0-0.381,0.192-0.716,0.57-0.716h15.142c0.379,0,0.444-0.175,0.144-0.408L66.432,2.448z
		 M81.499,41.644c3.147,0,5.698,2.551,5.698,5.698c0,3.147-2.551,5.698-5.698,5.698s-5.698-2.551-5.698-5.698
		C75.801,44.195,78.352,41.644,81.499,41.644z M49.99,41.644c3.147,0,5.698,2.551,5.698,5.698c0,3.147-2.551,5.698-5.698,5.698
		s-5.698-2.551-5.698-5.698C44.292,44.195,46.843,41.644,49.99,41.644z M97.227,80.721c-1.567,0.481-3.227-0.4-3.709-1.966
		c-0.001,0-4.438-14.467-4.438-14.467c-0.026-0.061-0.159-0.315-0.469-0.315c-0.028,0-0.625,0-0.625,0h-0.001
		c-0.177-0.003-0.28,0.147-0.233,0.317l8.883,29.07c0.048,0.169,0,0.465-0.309,0.465h-6.232c-0.177,0-0.306,0.143-0.306,0.319
		c0,0,0.001,21.178,0.001,21.185c0,2.115-1.714,3.829-3.829,3.829s-3.829-1.714-3.829-3.829L82.13,94.144
		c0-0.177-0.143-0.319-0.319-0.319h-0.005h-0.612h-0.005c-0.177,0-0.319,0.143-0.319,0.319l-0.001,21.186
		c0,2.115-1.714,3.829-3.829,3.829s-3.829-1.714-3.829-3.829c0-0.007,0.001-21.185,0.001-21.185c0-0.177-0.129-0.319-0.306-0.319
		h-6.232c-0.309,0-0.357-0.296-0.309-0.465l8.883-29.07c0.047-0.169-0.056-0.319-0.233-0.317h-0.001c0,0-0.597,0-0.625,0
		c-0.31,0-0.443,0.254-0.469,0.315c0,0-4.385,14.307-4.836,15.775c-0.04,0.139-0.224,0.59-0.272,0.678
		c-0.583,1.093-1.734,1.837-3.059,1.837c-1.134,0-2.137-0.547-2.769-1.388c-0.235-0.289-0.423-0.565-0.538-1.003
		c-0.001,0-4.874-15.898-4.874-15.898c-0.026-0.061-0.159-0.315-0.469-0.315c-0.028,0-0.625,0-0.625,0h-0.001
		c-0.177-0.003-0.28,0.147-0.233,0.317l8.883,29.07c0.048,0.169,0,0.466-0.309,0.466h-6.232c-0.177,0-0.306,0.143-0.306,0.319
		c0,0,0.001,21.178,0.001,21.185c0,2.115-1.714,3.829-3.829,3.829c-2.115,0-3.829-1.714-3.829-3.829l-0.001-21.186
		c0-0.177-0.143-0.319-0.319-0.319h-0.005h-0.612H49.68c-0.177,0-0.319,0.143-0.319,0.319l-0.001,21.186
		c0,2.115-1.714,3.829-3.829,3.829c-2.115,0-3.829-1.714-3.829-3.829c0-0.007,0.001-21.185,0.001-21.185
		c0-0.177-0.129-0.319-0.306-0.319h-6.232c-0.309,0-0.357-0.296-0.309-0.466l8.883-29.07c0.047-0.169-0.056-0.319-0.233-0.317
		h-0.001c0,0-0.597,0-0.625,0c-0.31,0-0.443,0.254-0.469,0.315c0,0-4.437,14.467-4.439,14.467c-0.482,1.567-2.142,2.447-3.709,1.966
		c-1.568-0.481-2.449-2.142-1.968-3.709c0.002-0.006,4.435-14.479,4.449-14.53c0.679-2.358,2.331-7.727,6.997-7.727h12.517
		c5.008,0,6.303,5.369,6.981,7.727c0,0,1.264,4.131,2.506,8.191c1.242-4.059,2.506-8.191,2.506-8.191
		c0.679-2.358,1.974-7.727,6.982-7.727H87.75c4.666,0,6.318,5.369,6.997,7.727c0.014,0.05,4.447,14.523,4.449,14.53
		C99.677,78.579,98.795,80.24,97.227,80.721z"/>
</g>
</svg>
