<?xml version="1.0" encoding="utf-8"?>
<!-- Generator: Adobe Illustrator 16.0.0, SVG Export Plug-In . SVG Version: 6.00 Build 0)  -->
<!DOCTYPE svg PUBLIC "-//W3C//DTD SVG 1.1//EN" "http://www.w3.org/Graphics/SVG/1.1/DTD/svg11.dtd">
<svg version="1.1" id="Layer_11" xmlns="http://www.w3.org/2000/svg" xmlns:xlink="http://www.w3.org/1999/xlink" x="0px" y="0px"
	 width="100px" height="100px" viewBox="0 0 100 100" enable-background="new 0 0 100 100" xml:space="preserve">
<path d="M60.506,66.241c1.478,2.774,1.731,5.873,0.971,8.691l-10.994-3.353l3.354-10.992C56.598,61.528,59.027,63.467,60.506,66.241
	z M39.496,77.432c1.542,2.896,4.12,4.895,7.035,5.785L50,71.836l-11.378-3.47C37.732,71.282,37.953,74.536,39.496,77.432z
	 M82.699,71.1v19.911l-0.137-0.001l-1.283,0.651c-0.646,0.327-11.109,5.475-29.16,5.475c-9.241,0-20.473-1.349-33.395-5.385
	l-1.372-0.429l-0.052-0.311V71.1c0-13.542,11.019-24.561,24.56-24.561h1.341c0.014-0.705,0.228-1.286,0.652-1.715
	c0.177-0.178,0.383-0.323,0.618-0.439c-0.013-0.061-0.022-0.123-0.023-0.188l-0.005-0.357c-0.003-0.184,0.057-0.361,0.161-0.509
	c-0.125-0.057-0.25-0.116-0.376-0.176c-0.273-0.13-0.554-0.264-0.849-0.378c-0.263-0.102-0.458-0.326-0.525-0.599
	c-0.024-0.104-0.024-0.208-0.012-0.31c-2.771,1.732-5.818,2.634-9.095,2.681l-0.089,0c-2.544,0-4.112-1.528-4.419-4.304
	c-0.077-0.699-0.263-1.398-0.46-2.139c-0.179-0.677-0.364-1.377-0.468-2.102c-0.223-1.539-0.27-2.889-0.142-4.128l0.021-0.195
	c0.1-0.92,0.074-0.931-0.377-1.107c-0.873-0.342-1.422-0.863-1.628-1.546c-0.216-0.706-0.03-1.485,0.548-2.315
	c0.234-0.337,0.439-0.706,0.658-1.097c0.262-0.472,0.535-0.96,0.877-1.42c1.602-2.155,2.416-4.414,2.564-7.11
	c0.243-4.436,2.609-8.288,6.666-10.847C41.046,4,44.968,2.865,49.157,2.865c2.54,0,5.259,0.418,8.077,1.242
	c0.929,0.271,1.572,0.728,1.957,1.397c0.188-0.052,0.391-0.044,0.573,0.038c4.651,2.052,7.265,4.922,7.988,8.772
	c0.665,3.526,0.901,7.028,0.703,10.41c-0.22,3.747-3.229,6.467-7.154,6.467c-0.692,0-1.396-0.086-2.091-0.257
	c-0.01-0.003-0.019-0.007-0.029-0.01c-0.146,0.115-0.328,0.186-0.526,0.186h-0.567l0.223,0.537c0.161,0.383,0.024,0.826-0.323,1.053
	c-0.001,0.001-0.003,0.002-0.005,0.003c0.102,0.004,0.204,0.008,0.305,0.012c0.733,0.031,1.378,0.699,1.62,0.985
	c0.311,0.365,0.667,0.919,0.598,1.483c-0.111,0.921-1.169,2.369-2.261,2.415c-0.109,0.004-0.22,0.009-0.33,0.013
	c0.084,0.28,0.026,0.595-0.182,0.826c-0.063,0.071-0.141,0.177-0.219,0.287c0.012,0,0.024,0,0.038,0h0.051
	c2.537,0,2.968,1.534,2.998,2.448c0.027,0.776-0.184,1.401-0.627,1.86c-0.654,0.677-1.608,0.781-2.304,0.788l0.003,0.218
	c2.489,0.019,2.907,1.557,2.932,2.478c0.002,0.055-0.013,0.094-0.013,0.147C72.986,47.898,82.699,58.386,82.699,71.1z
	 M45.247,19.287c1.777,3.337,5.939,4.606,9.276,2.829c3.335-1.778,4.604-5.938,2.827-9.276c-1.778-3.336-5.938-4.605-9.274-2.828
	C44.738,11.789,43.469,15.95,45.247,19.287z M61.652,65.631c-3.423-6.424-11.434-8.867-17.857-5.445s-8.866,11.432-5.445,17.856
	c3.422,6.425,11.435,8.868,17.858,5.445C62.631,80.066,65.075,72.055,61.652,65.631z M49.496,21.974l1.801-5.911l-5.909-1.802
	c-0.461,1.514-0.347,3.204,0.454,4.708C46.642,20.474,47.982,21.513,49.496,21.974z M56.756,13.157
	c-0.768-1.441-2.03-2.448-3.465-2.937l-1.742,5.709l5.71,1.742C57.655,16.207,57.522,14.598,56.756,13.157z"/>
</svg>
