<?xml version="1.0" encoding="iso-8859-1"?>
<!-- Generator: Adobe Illustrator 17.1.0, SVG Export Plug-In . SVG Version: 6.00 Build 0)  -->
<!DOCTYPE svg PUBLIC "-//W3C//DTD SVG 1.1//EN" "http://www.w3.org/Graphics/SVG/1.1/DTD/svg11.dtd">
<svg version="1.1" id="Layer_1" xmlns="http://www.w3.org/2000/svg" xmlns:xlink="http://www.w3.org/1999/xlink" x="0px" y="0px"
	 viewBox="0 0 128 128" style="enable-background:new 0 0 128 128;" xml:space="preserve">
<g>
	<path d="M34.747,81.928H24.091c0,0-5.425-0.008-5.425,8.258c0.258,5.339,4.423,6.192,5.166,6.192s21.698,0,21.698,0
		s5.435,0.007,5.675-6.515c0.009-0.249,0.029-0.007,0.032-0.257c0.011-0.963,0-5.94,0-5.94c0.013-0.708,0.554-1.512,1.283-1.512
		h16.99c0.25,0,0.466,0.202,0.489,0.45l4.013,9.077c1.497,3.712,4.408,6.436,9.271,4.686c4.604-1.657,4.842-5.305,4.029-7.867
		l-9.979-30.25c-1.5-3.583-5.283-5.673-10.018-5.673h-10.16H43.916c-12.666,0-23.291,14.756-8.905,28.941
		C35.113,81.745,34.996,81.928,34.747,81.928z"/>
	<circle cx="93.614" cy="46.846" r="15.72"/>
</g>
</svg>
