<?xml version="1.0" encoding="utf-8"?>
<!-- Generator: Adobe Illustrator 16.0.0, SVG Export Plug-In . SVG Version: 6.00 Build 0)  -->
<!DOCTYPE svg PUBLIC "-//W3C//DTD SVG 1.1//EN" "http://www.w3.org/Graphics/SVG/1.1/DTD/svg11.dtd">
<svg version="1.1" id="Layer_11" xmlns="http://www.w3.org/2000/svg" xmlns:xlink="http://www.w3.org/1999/xlink" x="0px" y="0px"
	 width="100px" height="100px" viewBox="0 0 100 100" enable-background="new 0 0 100 100" xml:space="preserve">
<g>
	<path d="M76.87,56.791c-3.279-5.075-8.369-8.873-14.363-10.458c-3.779,3.526-8.832,5.703-14.398,5.703
		c-5.564,0-10.619-2.177-14.398-5.703c-5.459,1.443-10.168,4.726-13.449,9.13c4.328,2.295,14.709,6.842,29.01,6.842
		C58.431,62.304,67.687,60.451,76.87,56.791z"/>
	<path d="M15.403,80.079v9.897l0.051,0.308l1.375,0.431c4.279,1.337,8.357,2.354,12.254,3.149l5.264,0.962
		c5.795,0.904,11.107,1.273,15.881,1.273c18.055,0,28.521-5.148,29.166-5.475l1.283-0.65l0.137,0.002V81.58
		c-10.455,3.044-20.928,4.588-31.273,4.588C34.323,86.167,22.491,82.801,15.403,80.079z"/>
	<path d="M80.813,73.502v-3.443c0-0.729-0.033-1.452-0.096-2.165l-0.803-3.993c-10.303,4.159-20.66,6.265-30.879,6.265
		c-15.703,0-27.193-5.034-32.369-7.833c-0.811,2.431-1.264,5.025-1.264,7.727v1.636c5.668,2.427,17.854,6.618,34.422,6.618
		C60.114,78.313,70.499,76.698,80.813,73.502z"/>
	<path d="M49.058,24.563c0,2.637,3.344,4.782,7.455,4.782c4.109,0,7.453-2.146,7.453-4.782s-3.344-4.782-7.453-4.782
		C52.401,19.781,49.058,21.926,49.058,24.563z M61.966,24.563c0,1.313-2.332,2.782-5.453,2.782s-5.455-1.469-5.455-2.782
		s2.334-2.782,5.455-2.782S61.966,23.25,61.966,24.563z"/>
	<path d="M39.698,19.781c-4.111,0-7.455,2.146-7.455,4.782s3.344,4.782,7.455,4.782c2.928,0,5.596-1.104,6.795-2.813l0.18-0.259
		V22.85l-0.182-0.258C45.294,20.884,42.626,19.781,39.698,19.781z M44.673,25.611c-0.787,0.873-2.584,1.734-4.975,1.734
		c-3.123,0-5.455-1.469-5.455-2.782s2.332-2.782,5.455-2.782c2.391,0,4.188,0.86,4.975,1.734V25.611z"/>
	<path d="M48.108,48.413c12.293,0,22.256-9.964,22.256-22.256c0-1.98-0.262-3.898-0.746-5.726l-4.088,5.72
		c-0.986,2.872-4.59,4.947-9.018,4.947c-2.809,0-5.281-0.838-6.973-2.18h-2.871c-1.689,1.342-4.164,2.18-6.971,2.18
		c-4.4,0-7.984-2.049-9-4.891l-4.105-5.748c-0.48,1.819-0.74,3.728-0.74,5.697C25.853,38.449,35.817,48.413,48.108,48.413z"/>
	<path d="M33.589,19.606c1.623-0.985,3.748-1.578,6.109-1.578c2.641,0,4.99,0.739,6.666,1.943h3.48
		c1.678-1.204,4.025-1.943,6.668-1.943c2.348,0,4.461,0.586,6.08,1.561l-0.002-0.005l5.432-2.625
		c0.33-0.058,0.678-0.118,1.037-0.181c2.664,2.955,7.566,8.454,10.896,12.567c3.369,4.161,0.912-8.373-4.566-13.625
		c2.709-0.433,5.504-0.85,7.885-1.144c6.25-0.77-11.355-6.932-17.313-1.696c-4.055-5.448-10.539-8.979-17.854-8.979
		c-8.959,0-16.678,5.298-20.207,12.93l5.697,2.753L33.589,19.606z"/>
</g>
</svg>
