<?xml version="1.0" encoding="utf-8"?>
<!-- Generator: Adobe Illustrator 16.0.0, SVG Export Plug-In . SVG Version: 6.00 Build 0)  -->
<!DOCTYPE svg PUBLIC "-//W3C//DTD SVG 1.1//EN" "http://www.w3.org/Graphics/SVG/1.1/DTD/svg11.dtd">
<svg version="1.1" id="Layer_1" xmlns="http://www.w3.org/2000/svg" xmlns:xlink="http://www.w3.org/1999/xlink" x="0px" y="0px"
	 width="50px" height="50px" viewBox="0 0 50 50" enable-background="new 0 0 50 50" xml:space="preserve">
<g>
	<path d="M28.108,20.761h-1.175c-0.348,0.204-0.726,0.393-1.134,0.567s-0.818,0.331-1.229,0.468
		c-0.411,0.138-0.806,0.253-1.184,0.341c-0.378,0.089-0.709,0.15-0.992,0.184l-0.227,1.617h3.108l-1.233,8.646h-3.069l-0.256,2.042
		h8.279l0.286-2.042h-2.832L28.108,20.761z"/>
	<path d="M35.346,10.834h-0.468v1.762c0,0.794-0.643,1.439-1.439,1.439s-1.441-0.646-1.441-1.439v-1.762h-2.745v1.762
		c0,0.794-0.643,1.439-1.439,1.439s-1.441-0.646-1.441-1.439v-1.762h-2.745v1.762c0,0.794-0.643,1.439-1.439,1.439
		s-1.441-0.646-1.441-1.439v-1.762h-2.745v1.762c0,0.794-0.643,1.439-1.439,1.439s-1.441-0.646-1.441-1.439v-1.762h-0.468
		c-1.784,0-3.234,1.449-3.234,3.232v21.867c0,1.783,1.45,3.232,3.234,3.232h20.691c1.784,0,3.234-1.449,3.234-3.232V14.066
		C38.58,12.283,37.13,10.834,35.346,10.834z M37.286,35.934c0,1.069-0.87,1.939-1.94,1.939H14.654c-1.07,0-1.94-0.87-1.94-1.939
		V19.066c0-1.069,0.87-1.939,1.94-1.939h20.691c1.07,0,1.94,0.87,1.94,1.939V35.934z"/>
</g>
</svg>
