<?xml version="1.0" encoding="utf-8"?>
<!-- Generator: Adobe Illustrator 17.0.0, SVG Export Plug-In . SVG Version: 6.00 Build 0)  -->
<!DOCTYPE svg PUBLIC "-//W3C//DTD SVG 1.1//EN" "http://www.w3.org/Graphics/SVG/1.1/DTD/svg11.dtd">
<svg version="1.1" id="Capa_1" xmlns="http://www.w3.org/2000/svg" xmlns:xlink="http://www.w3.org/1999/xlink" x="0px" y="0px"
	 width="64px" height="64px" viewBox="0 0 64 64" enable-background="new 0 0 64 64" xml:space="preserve">
<path fill="#0E0F0F" d="M44.622,26.475c-0.032-0.079-0.094-0.202-0.22-0.32c-0.459-0.425-0.963-0.764-1.517-1.056
	c-0.244-0.129-0.496-0.239-0.744-0.357c0,0.776,0,1.551,0,2.327c-0.078,0.043-0.161,0.089-0.224,0.125
	c-1.733,1.014-3.709,1.687-5.621,2.339c-1.907,0.65-2.516,2.416-2.274,3.874c0.274,1.662,1.545,2.82,3.087,2.82
	c0.367,0,0.743-0.064,1.12-0.193c0.246-0.082,0.513-0.172,0.797-0.266c0.903-0.303,1.985-0.665,3.115-1.104c0,0.693,0,1.389,0,2.082
	c0,0.133-0.012,0.26-0.019,0.387c0.001,0.002,0.01,0.004,0.01,0.004s0.003,3.051,0.034,7.086c-0.206-0.038-0.417-0.059-0.635-0.059
	l-4.542,0.006c-0.006-0.775-0.011-1.498-0.014-2.158c-0.956,0.043-1.923-0.125-2.79-0.51l-3.379,3.822l10.74-0.014h0.004
	c1.402,0,2.542,1.137,2.543,2.541c0.002,1.404-1.136,2.547-2.541,2.547l-16.393,0.021c-0.002,0-0.002,0-0.003,0
	c-1,0-1.908-0.586-2.319-1.498c-0.411-0.912-0.25-1.982,0.413-2.732l7.915-8.949c0.004-0.006,0.009-0.008,0.012-0.012
	c-0.015-0.184-0.027-0.37-0.027-0.561c0-4.382,0-8.764,0-13.145c0-0.158,0.011-0.308,0.022-0.458
	c-0.26-0.105-0.516-0.264-0.756-0.498c-5.894-5.76-6.571-13.359-2.615-20.452c1.421-2.548,5.327-0.267,3.905,2.282
	c-2.936,5.264-2.539,10.457,1.703,14.758c1.604-1.034,3.775-1.18,5.554-0.444c3.883,1.161,10.198,3.105,10.219,7.853
	c0.023,4.922-7.8,7.153-11.317,8.352c-2.767,0.943-3.946-3.426-1.202-4.362c1.983-0.676,4.009-1.37,5.827-2.432
	C43.06,27.786,44.307,27.2,44.622,26.475z M41.543,51.512l-4.468,0.004c0.049,2.922,0.115,5.83,0.211,8.137
	c0.137,3.322,5.309,3.336,5.171,0c-0.093-2.26-0.159-5.203-0.207-8.213C42.021,51.486,41.785,51.51,41.543,51.512z M36.647,17.44
	c2.499,0,4.525-2.026,4.525-4.525S39.146,8.39,36.647,8.39c-2.499,0-4.525,2.026-4.525,4.525S34.148,17.44,36.647,17.44z"/>
</svg>
