<?xml version="1.0" encoding="utf-8"?>
<!-- Generator: Adobe Illustrator 17.0.0, SVG Export Plug-In . SVG Version: 6.00 Build 0)  -->
<!DOCTYPE svg PUBLIC "-//W3C//DTD SVG 1.1//EN" "http://www.w3.org/Graphics/SVG/1.1/DTD/svg11.dtd">
<svg version="1.1" id="Capa_1" xmlns="http://www.w3.org/2000/svg" xmlns:xlink="http://www.w3.org/1999/xlink" x="0px" y="0px"
	 width="64px" height="64px" viewBox="0 0 64 64" enable-background="new 0 0 64 64" xml:space="preserve">
<path fill="#0E0F0F" d="M57.506,42.528c-2.767,3.461-7.597,7.212-12.048,3.974c-1.481-1.074-2.761-2.372-3.936-3.773
	c-1.084,5.617-1.646,11.421-1.393,17.086c0.203,4.5-6.776,4.48-6.976,0c-0.306-6.814,0.525-13.899,1.974-20.617
	c-4.271-4.861-6.955-10.65-9.947-16.367c-0.056-0.108-0.1-0.213-0.148-0.318c-6.217-1.87-12.048-4.633-17.446-8.272
	c-3.709-2.501-0.221-8.547,3.52-6.025c4.995,3.365,10.268,5.916,16.01,7.636c1.318-0.857,2.943-1.196,4.394-0.729
	c5.905-0.024,11.746-0.334,17.526-1.619c4.382-0.973,6.246,5.752,1.855,6.727c-4.761,1.057-9.579,1.561-14.429,1.761
	c1.953,3.88,4.013,7.721,7.027,10.865c0.902,0.941,1.353,1.978,1.462,3.004c0.79,1.062,1.602,2.101,2.482,3.076
	c0.376,0.423,1.365,1.873,2.084,1.779c1.057-0.139,2.468-2.386,3.054-3.118C55.385,34.085,60.284,39.057,57.506,42.528z
	 M27.483,13.505c3.504,0,6.344-2.84,6.344-6.344c0-3.504-2.84-6.344-6.344-6.344c-3.504,0-6.344,2.84-6.344,6.344
	C21.139,10.665,23.979,13.505,27.483,13.505z"/>
</svg>
