<?xml version="1.0" encoding="utf-8"?>
<!-- Generator: Adobe Illustrator 16.0.0, SVG Export Plug-In . SVG Version: 6.00 Build 0)  -->
<!DOCTYPE svg PUBLIC "-//W3C//DTD SVG 1.1//EN" "http://www.w3.org/Graphics/SVG/1.1/DTD/svg11.dtd">
<svg version="1.1" id="Layer_2" xmlns="http://www.w3.org/2000/svg" xmlns:xlink="http://www.w3.org/1999/xlink" x="0px" y="0px"
	 width="126px" height="126px" viewBox="0 0 126 126" enable-background="new 0 0 126 126" xml:space="preserve">
<g>
	<path d="M40.35,19.403c0.006-0.354-0.106-0.642-0.352-0.884c-0.217-0.209-0.572-0.419-1.052-0.642l-0.062,2.878
		C40.324,20.457,40.343,19.676,40.35,19.403z"/>
	<path d="M37.012,11.083c-0.396,0.085-0.711,0.219-0.927,0.408c-0.264,0.224-0.39,0.489-0.397,0.827
		c-0.009,0.361,0.092,0.651,0.305,0.891c0.189,0.203,0.506,0.419,0.96,0.639L37.012,11.083z"/>
	<path d="M42.547,116.16l0.055-48.271L32.543,66.21l20.82-13.116L32.238,35.083l3.385-3.782c0.754,0.117,1.522,0.197,2.311,0.197
		c8.251,0,14.94-6.69,14.94-14.94c0-8.253-6.689-14.942-14.94-14.942c-8.254,0-14.941,6.689-14.941,14.942
		c0,5.793,3.305,10.806,8.127,13.284l-5.065,5.661l20.019,17.067L20.61,68.613l17.657,2.942l-0.051,44.475l-8.544-8.543
		l-3.063,3.062l13.836,13.836l13.836-13.837l-3.062-3.061L42.547,116.16z M32.209,19.451l0.404,0.208
		c0.621,0.32,1.364,0.597,2.207,0.828c0.725,0.195,1.393,0.314,1.984,0.357l0.077-3.754l-0.761-0.301
		c-1.272-0.521-2.214-1.146-2.801-1.852c-0.603-0.727-0.895-1.618-0.871-2.661c0.025-1.137,0.487-2.07,1.382-2.778
		c0.817-0.648,1.907-1.047,3.235-1.195l0.041-1.936l2.08,0.043L39.151,8.3c1.462,0.112,2.865,0.453,4.179,1.023l0.253,0.116
		l-1.092,2.586l-0.26-0.116c-1.048-0.438-2.104-0.725-3.14-0.866l-0.077,3.64l0.673,0.273c1.488,0.608,2.491,1.229,3.062,1.892
		c0.585,0.678,0.87,1.503,0.85,2.456c-0.021,1.178-0.479,2.157-1.358,2.904c-0.815,0.692-1.959,1.118-3.413,1.282l-0.051,2.501
		l-2.084-0.044l0.053-2.402c-1.781-0.094-3.276-0.423-4.437-0.982l-0.166-0.073L32.209,19.451z"/>
	<circle cx="82.313" cy="21.758" r="11.648"/>
	<path d="M90.06,36.241c-0.174-0.106-0.355-0.179-0.536-0.259c-1.315-0.875-2.796-1.529-4.309-1.9l-2.901,2.921L79.5,34.05
		c-0.011,0.002-0.02,0.002-0.029,0.005c-1.517,0.363-3.002,1.013-4.322,1.898c-0.2,0.086-0.402,0.17-0.594,0.288
		c-5.893,3.614-15.066,22.987-18.736,31.149c-1.024,2.277-0.01,4.954,2.268,5.979c0.604,0.271,1.232,0.399,1.854,0.399
		c1.724,0,3.372-0.993,4.126-2.667c1.935-4.301,4.159-8.876,6.327-13.032v11.85c0,1.23,0.243,2.376,0.664,3.429
		c-0.028,0.226-0.068,0.448-0.068,0.682l0.003,43.302c0,2.952,2.393,5.345,5.346,5.344c2.95,0,5.343-2.393,5.343-5.345
		l-0.003-37.162c0.213,0.01,0.424,0.027,0.637,0.027c0.042,0,0.083-0.005,0.126-0.005l-0.003,37.14c0,2.952,2.394,5.345,5.345,5.345
		c2.952,0,5.345-2.393,5.345-5.344V74.129c0.083-0.161,0.16-0.326,0.234-0.493c0.342,0.08,0.687,0.13,1.032,0.13
		c1.486,0,2.942-0.732,3.805-2.075c2.546-3.954,6.86-11.16,7.174-15.004C105.896,50.244,94.859,39.185,90.06,36.241z M82.287,60.055
		l-2.809-3.844l2.809-18.776h0.054l2.81,18.776l-2.81,3.844H82.287z M94.235,60.624V52.78c1.031,1.393,1.785,2.62,2.059,3.406
		C96.044,57.053,95.276,58.687,94.235,60.624z"/>
</g>
</svg>
