<?xml version="1.0" encoding="utf-8"?>
<!-- Generator: Adobe Illustrator 16.0.0, SVG Export Plug-In . SVG Version: 6.00 Build 0)  -->
<!DOCTYPE svg PUBLIC "-//W3C//DTD SVG 1.1//EN" "http://www.w3.org/Graphics/SVG/1.1/DTD/svg11.dtd">
<svg version="1.1" id="Layer_12" xmlns="http://www.w3.org/2000/svg" xmlns:xlink="http://www.w3.org/1999/xlink" x="0px" y="0px"
	 width="100px" height="100px" viewBox="0 0 100 100" enable-background="new 0 0 100 100" xml:space="preserve">
<path d="M32.969,33.97c0-9.405,7.624-17.029,17.03-17.029c9.404,0,17.03,7.624,17.03,17.029C67.03,43.376,59.404,51,50,51
	C40.593,51,32.969,43.376,32.969,33.97z M32.224,29.114c1.343-4.804,3.841-6.726,3.841-6.726c-4.445,1.387-7.109-8.262-7.109-8.262
	C24.345,22.965,32.224,29.114,32.224,29.114z M66.899,27.288c0,0,7.879-6.149,3.268-14.988c0,0-3.241,9.649-7.686,8.262
	C62.481,20.563,65.556,22.484,66.899,27.288z M74.94,67.607v14.485c0,0.308-0.123,0.604-0.342,0.82
	c-0.165,0.163-0.374,0.271-0.599,0.313l-0.727,0.368c-0.831,0.42-8.506,4.106-21.733,4.106c-3.782,0-7.728-0.316-11.727-0.94
	l-3.856-0.705c-3.138-0.641-6.091-1.4-9.051-2.325l-0.999-0.313c-0.415-0.129-0.721-0.481-0.793-0.909l-0.038-0.225
	c-0.011-0.063-0.016-0.126-0.016-0.191V67.607c0-8.61,5.828-16.165,14.173-18.371c0.381-0.103,0.791,0,1.081,0.271
	c2.651,2.475,6.092,3.838,9.686,3.838c3.593,0,7.032-1.363,9.685-3.838c0.29-0.271,0.698-0.374,1.081-0.271
	c6.278,1.66,11.376,6.544,13.306,12.748c0.012,0.038,0.021,0.077,0.029,0.115l0.744,3.707c0.008,0.042,0.014,0.083,0.018,0.125
	C74.913,66.482,74.94,67.043,74.94,67.607z M72.634,67.607c0-0.474-0.022-0.946-0.062-1.41l-0.719-3.585
	c-1.647-5.229-5.859-9.384-11.085-10.979c-3.009,2.596-6.807,4.018-10.768,4.018c-3.962,0-7.761-1.422-10.769-4.018
	c-7.017,2.132-11.866,8.614-11.866,15.974v13.851l0.228,0.071c2.884,0.901,5.764,1.641,8.801,2.261l3.803,0.695
	c3.853,0.601,7.679,0.908,11.342,0.908c12.911,0,20.381-3.701,20.693-3.858l0.402-0.204V67.607z"/>
</svg>
