<?xml version="1.0" encoding="utf-8"?>
<!-- Generator: Adobe Illustrator 16.0.0, SVG Export Plug-In . SVG Version: 6.00 Build 0)  -->
<!DOCTYPE svg PUBLIC "-//W3C//DTD SVG 1.1//EN" "http://www.w3.org/Graphics/SVG/1.1/DTD/svg11.dtd">
<svg version="1.1" id="Layer_1" xmlns="http://www.w3.org/2000/svg" xmlns:xlink="http://www.w3.org/1999/xlink" x="0px" y="0px"
	 width="50px" height="50px" viewBox="0 0 50 50" enable-background="new 0 0 50 50" xml:space="preserve">
<path d="M42.891,28.104l-8.955-5.2v3.14H31.37c-0.66-1.561-2.118-2.685-4.583-3.554c-0.639-0.242-1.281-0.5-1.787-0.759v-1.533
	c0.209-0.03,0.419-0.042,0.595-0.042c1.606,0,2.671,0.462,3.376,0.769l1.04,0.44l1.164-4.54l-0.568-0.277
	c-1.007-0.489-2.152-0.791-3.48-0.917v-2.429h-4.2v2.726c-2.252,0.614-3.793,2.035-4.335,3.905h-2.526v-3.14l-8.955,5.2l8.955,5.2
	v-3.133h3.041c1.011,1.611,2.907,2.485,4.646,3.069c0.525,0.176,0.93,0.34,1.248,0.493v1.956c-0.318,0.057-0.613,0.064-0.73,0.064
	c-1.837,0-3.362-0.685-4.108-1.092l-0.877-0.479l-1.204,4.694l0.508,0.296c1.043,0.605,2.604,1.049,4.202,1.211v2.621h4.201v-2.903
	c2.217-0.559,3.82-1.919,4.478-3.722h2.467v3.134L42.891,28.104z M26.216,33.265v2.754h-2.648v-2.565
	c-1.808-0.082-3.566-0.568-4.592-1.163l0.813-3.158c1.132,0.62,2.729,1.188,4.48,1.188c1.54,0,2.592-0.594,2.592-1.674
	c0-1.027-0.861-1.675-2.86-2.351c-2.892-0.972-4.86-2.322-4.86-4.943c0-2.376,1.67-4.24,4.561-4.808V13.98h2.647v2.376
	c1.809,0.082,3.028,0.459,3.917,0.892L29.482,20.3c-0.703-0.297-1.946-0.919-3.888-0.919c-1.76,0-2.323,0.757-2.323,1.515
	c0,0.891,0.944,1.458,3.243,2.321c3.213,1.135,4.51,2.621,4.51,5.054C31.024,30.672,29.321,32.723,26.216,33.265z"/>
</svg>
