<?xml version="1.0" encoding="utf-8"?>
<!-- Generator: Adobe Illustrator 16.0.0, SVG Export Plug-In . SVG Version: 6.00 Build 0)  -->
<!DOCTYPE svg PUBLIC "-//W3C//DTD SVG 1.1//EN" "http://www.w3.org/Graphics/SVG/1.1/DTD/svg11.dtd">
<svg version="1.1" id="Layer_1" xmlns="http://www.w3.org/2000/svg" xmlns:xlink="http://www.w3.org/1999/xlink" x="0px" y="0px"
	 width="50px" height="50px" viewBox="0 0 50 50" enable-background="new 0 0 50 50" xml:space="preserve">
<g>
	<path d="M24.999,10.388c-8.061,0-14.612,6.554-14.612,14.609c0,8.06,6.552,14.614,14.612,14.614
		c8.055,0,14.614-6.554,14.614-14.614C39.613,16.942,33.054,10.388,24.999,10.388z M35.493,30.684l-0.975-0.566l-0.32,0.568
		l0.984,0.573c-0.984,1.6-2.326,2.938-3.928,3.925l-0.568-0.989l-0.565,0.325l0.562,0.977c-1.607,0.875-3.414,1.411-5.353,1.465
		v-1.158h-0.657v1.158c-1.941-0.054-3.752-0.59-5.356-1.465l0.567-0.977l-0.57-0.325l-0.568,0.991
		c-1.604-0.985-2.946-2.327-3.932-3.926l0.992-0.574l-0.327-0.564l-0.979,0.563c-0.873-1.608-1.411-3.414-1.467-5.353h1.164v-0.657
		h-1.164c0.056-1.941,0.594-3.751,1.467-5.357l0.979,0.565l0.327-0.568l-0.992-0.573c0.985-1.6,2.319-2.937,3.92-3.925l0.577,0.991
		l0.565-0.327l-0.562-0.976c1.607-0.875,3.418-1.412,5.356-1.466v1.158h0.652l0.004-1.158c1.939,0.054,3.749,0.591,5.356,1.466
		l-0.566,0.976l0.57,0.327l0.568-0.992c1.602,0.985,2.943,2.324,3.928,3.925l-0.992,0.574l0.328,0.564l0.975-0.564
		c0.877,1.609,1.411,3.416,1.471,5.354h-1.16v0.658h1.16C36.904,27.267,36.37,29.075,35.493,30.684z"/>
	<path d="M26.118,23.683c-1.7-0.639-2.397-1.06-2.397-1.717c0-0.56,0.42-1.12,1.719-1.12c1.434,0,2.353,0.46,2.872,0.681
		l0.577-2.256c-0.654-0.318-1.556-0.598-2.894-0.66v-1.756H24.04v1.896c-2.137,0.419-3.374,1.798-3.374,3.553
		c0,1.936,1.457,2.934,3.594,3.652c1.479,0.5,2.113,0.979,2.113,1.738c0,0.798-0.774,1.237-1.913,1.237
		c-1.297,0-2.475-0.419-3.312-0.878l-0.6,2.335c0.757,0.439,2.054,0.798,3.392,0.858v1.896h1.957v-2.036
		c2.295-0.4,3.553-1.917,3.553-3.692C29.45,25.618,28.491,24.52,26.118,23.683z"/>
</g>
</svg>
