<?xml version="1.0" encoding="utf-8"?>
<!-- Generator: Adobe Illustrator 16.0.0, SVG Export Plug-In . SVG Version: 6.00 Build 0)  -->
<!DOCTYPE svg PUBLIC "-//W3C//DTD SVG 1.1//EN" "http://www.w3.org/Graphics/SVG/1.1/DTD/svg11.dtd">
<svg version="1.1" id="Layer_1" xmlns="http://www.w3.org/2000/svg" xmlns:xlink="http://www.w3.org/1999/xlink" x="0px" y="0px"
	 width="50px" height="50px" viewBox="0 0 50 50" enable-background="new 0 0 50 50" xml:space="preserve">
<g>
	<path d="M25,17.653c0.497,0,0.99-0.038,1.48-0.093c0.113,1.092,0.194,2.327,0.236,3.679l4.589,2.915h0.416
		c-0.004,0.085-0.017,0.166-0.022,0.25l1.423,0.904c0.038-0.382,0.08-0.761,0.098-1.154h3.229c-0.086,0.998-0.307,1.957-0.632,2.866
		l1.726,1.096c0.611-1.538,0.957-3.209,0.957-4.962c0-7.444-6.056-13.5-13.5-13.5s-13.5,6.056-13.5,13.5
		c0,7.299,5.826,13.249,13.071,13.479l-0.125-2.936c-0.262-0.796-0.528-1.956-0.742-3.462c0.196-0.022,0.396-0.023,0.594-0.037
		l-0.064-1.516c-0.239,0.016-0.477,0.038-0.714,0.065c-0.138-1.335-0.232-2.875-0.26-4.593h0.781l-0.085-2H23.26
		c0.027-1.719,0.122-3.258,0.26-4.593C24.01,17.615,24.503,17.653,25,17.653z M28.239,22.153c-0.022-1.122-0.089-2.946-0.281-4.851
		c0.885-0.204,1.745-0.494,2.568-0.875c0.665,1.65,1.091,3.607,1.194,5.725H28.239z M33.018,14.925
		c1.92,1.872,3.187,4.404,3.432,7.228H33.22c-0.106-2.387-0.583-4.583-1.352-6.434C32.265,15.478,32.646,15.209,33.018,14.925z
		 M31.842,13.932c-0.207,0.149-0.416,0.295-0.632,0.431c-0.271-0.497-0.562-0.965-0.878-1.389
		C30.862,13.252,31.364,13.576,31.842,13.932z M29.887,15.072c-0.678,0.312-1.381,0.565-2.105,0.744
		c-0.203-1.459-0.493-2.866-0.907-3.942C28.039,12.461,29.073,13.581,29.887,15.072z M24.848,11.661
		c0.051-0.001,0.101-0.008,0.152-0.008s0.102,0.007,0.152,0.008c0.369,0.604,0.816,2.114,1.144,4.411
		c-0.429,0.048-0.86,0.081-1.296,0.081s-0.867-0.033-1.296-0.081C24.031,13.775,24.479,12.265,24.848,11.661z M19.668,12.974
		c-0.315,0.424-0.606,0.892-0.878,1.389c-0.216-0.135-0.425-0.281-0.632-0.431C18.636,13.576,19.138,13.252,19.668,12.974z
		 M21.761,22.153h-3.48c0.107-2.098,0.547-4.055,1.225-5.712c0.814,0.374,1.664,0.66,2.537,0.861
		C21.849,19.207,21.783,21.032,21.761,22.153z M22.042,29.004c-0.873,0.202-1.723,0.488-2.537,0.861
		c-0.678-1.657-1.117-3.614-1.225-5.712h3.48C21.783,25.275,21.849,27.1,22.042,29.004z M16.982,31.382
		c-1.92-1.872-3.187-4.404-3.432-7.229h3.229c0.106,2.387,0.583,4.584,1.352,6.435C17.735,30.83,17.354,31.098,16.982,31.382z
		 M16.78,22.153h-3.229c0.245-2.824,1.512-5.357,3.432-7.229c0.372,0.284,0.753,0.552,1.149,0.794
		C17.363,17.569,16.887,19.766,16.78,22.153z M18.158,32.375c0.207-0.149,0.416-0.296,0.632-0.431
		c0.271,0.497,0.562,0.964,0.878,1.389C19.138,33.054,18.636,32.73,18.158,32.375z M20.148,31.218
		c0.668-0.305,1.359-0.552,2.07-0.727c0.201,1.449,0.489,2.846,0.899,3.919C21.979,33.812,20.96,32.693,20.148,31.218z
		 M22.219,15.815c-0.711-0.175-1.402-0.422-2.07-0.727c0.812-1.475,1.831-2.594,2.97-3.192
		C22.708,12.969,22.42,14.366,22.219,15.815z"/>
	<polygon points="26,23.153 26.613,37.584 29.933,33.992 33.602,40.347 37.092,38.333 33.423,31.977 38.194,30.898 	"/>
</g>
</svg>
