<?xml version="1.0" encoding="utf-8"?>
<!-- Generator: Adobe Illustrator 16.0.0, SVG Export Plug-In . SVG Version: 6.00 Build 0)  -->
<!DOCTYPE svg PUBLIC "-//W3C//DTD SVG 1.1//EN" "http://www.w3.org/Graphics/SVG/1.1/DTD/svg11.dtd">
<svg version="1.1" id="Layer_1" xmlns="http://www.w3.org/2000/svg" xmlns:xlink="http://www.w3.org/1999/xlink" x="0px" y="0px"
	 width="50px" height="50px" viewBox="0 0 50 50" enable-background="new 0 0 50 50" xml:space="preserve">
<g>
	<path d="M25.367,19.223l-4.182-7.094c-0.333-0.564-1.059-0.751-1.62-0.42c-0.101,0.06-0.173,0.143-0.249,0.224
		c-0.253-1.396-1.469-2.457-2.937-2.457c-1.47,0-2.686,1.06-2.939,2.455c-0.075-0.079-0.147-0.162-0.247-0.222
		c-0.562-0.331-1.287-0.145-1.62,0.42l-4.182,7.094c-0.261,0.442-0.206,1.003,0.134,1.386c0.23,0.259,0.555,0.398,0.886,0.398
		c0.16,0,0.321-0.033,0.475-0.1l3.197-1.397c0.11-0.039,0.479-0.163,0.983-0.307v8.077l-0.942,11.711
		c-0.062,0.78,0.52,1.467,1.302,1.529c0.039,0.002,0.077,0.004,0.115,0.004c0.732,0,1.354-0.562,1.414-1.306l0.852-10.585
		c0.175,0.078,0.368,0.124,0.573,0.124c0.204,0,0.397-0.046,0.572-0.124l0.852,10.585c0.061,0.743,0.682,1.306,1.414,1.306
		c0.038,0,0.076-0.002,0.115-0.004c0.782-0.062,1.364-0.749,1.302-1.529L19.692,27.28v-8.077c0.505,0.144,0.873,0.268,0.983,0.307
		l3.197,1.397c0.153,0.066,0.314,0.1,0.475,0.1c0.331,0,0.655-0.14,0.886-0.398C25.573,20.226,25.628,19.665,25.367,19.223z
		 M16.833,16.3l-0.297,0.594h-0.007l0.797,6.207l-0.946,1.652l-0.947-1.652l0.797-6.207h-0.009L15.925,16.3
		c-2.079,0.105-4.327,0.871-4.643,0.983l2.262-3.838c0.39,1.348,1.504,2.592,2.836,2.592c1.33,0,2.444-1.246,2.834-2.594l2.262,3.84
		C21.155,17.169,18.91,16.405,16.833,16.3z"/>
	<path d="M27.143,23.925h4.173c0.298,0,0.54-0.242,0.54-0.538V23.32c0-0.298-0.242-0.542-0.54-0.542h-4.173
		c-0.297,0-0.54,0.244-0.54,0.542v0.066C26.603,23.683,26.846,23.925,27.143,23.925z"/>
	<path d="M27.143,25.308h4.173c0.298,0,0.54-0.242,0.54-0.54v-0.066c0-0.298-0.242-0.54-0.54-0.54h-4.173
		c-0.297,0-0.54,0.242-0.54,0.54v0.066C26.603,25.065,26.846,25.308,27.143,25.308z"/>
	<path d="M27.143,26.69h4.173c0.298,0,0.54-0.242,0.54-0.539v-0.068c0-0.296-0.242-0.538-0.54-0.538h-4.173
		c-0.297,0-0.54,0.242-0.54,0.538v0.068C26.603,26.448,26.846,26.69,27.143,26.69z"/>
	<path d="M27.143,28.072h4.173c0.298,0,0.54-0.242,0.54-0.538v-0.068c0-0.296-0.242-0.54-0.54-0.54h-4.173
		c-0.297,0-0.54,0.244-0.54,0.54v0.068C26.603,27.83,26.846,28.072,27.143,28.072z"/>
	<path d="M34.44,23.616l-2.087,3.614c-0.148,0.257-0.06,0.588,0.197,0.736l0.058,0.035c0.257,0.146,0.59,0.059,0.737-0.198
		l2.088-3.614c0.147-0.257,0.059-0.59-0.198-0.738l-0.059-0.033C34.921,23.271,34.589,23.359,34.44,23.616z"/>
	<path d="M35.365,24.768c0,0.298,0.242,0.54,0.538,0.54h4.175c0.296,0,0.538-0.242,0.538-0.54v-0.066c0-0.298-0.242-0.54-0.538-0.54
		h-4.175c-0.296,0-0.538,0.242-0.538,0.54V24.768z"/>
	<path d="M40.616,26.083c0-0.296-0.242-0.538-0.538-0.538h-4.175c-0.296,0-0.538,0.242-0.538,0.538v0.068
		c0,0.297,0.242,0.539,0.538,0.539h4.175c0.296,0,0.538-0.242,0.538-0.539V26.083z"/>
	<path d="M40.078,26.926h-4.175c-0.296,0-0.538,0.244-0.538,0.54v0.068c0,0.296,0.242,0.538,0.538,0.538h4.175
		c0.296,0,0.538-0.242,0.538-0.538v-0.068C40.616,27.17,40.374,26.926,40.078,26.926z"/>
	<path d="M29.454,20.297h4.44c0.383,0,0.694-0.311,0.694-0.693v-4.692c0-0.383-0.312-0.693-0.694-0.693h-0.102v0.378
		c0,0.172-0.138,0.311-0.309,0.311c-0.17,0-0.309-0.139-0.309-0.311v-0.378h-0.59v0.378c0,0.172-0.138,0.311-0.308,0.311
		c-0.171,0-0.31-0.139-0.31-0.311v-0.378H31.38v0.378c0,0.172-0.138,0.311-0.309,0.311c-0.172,0-0.311-0.139-0.311-0.311v-0.378
		h-0.589v0.378c0,0.172-0.138,0.311-0.309,0.311s-0.309-0.139-0.309-0.311v-0.378h-0.101c-0.383,0-0.694,0.311-0.694,0.693v4.692
		C28.76,19.986,29.071,20.297,29.454,20.297z M29.038,15.983c0-0.229,0.187-0.416,0.416-0.416h4.44c0.229,0,0.416,0.188,0.416,0.416
		v3.62c0,0.229-0.188,0.416-0.416,0.416h-4.44c-0.229,0-0.416-0.187-0.416-0.416V15.983z"/>
	<path d="M30.041,19.042c0.072,0.076,0.16,0.133,0.267,0.174c0.105,0.041,0.227,0.061,0.364,0.061c0.121,0,0.231-0.019,0.332-0.055
		c0.103-0.037,0.189-0.093,0.262-0.163c0.073-0.07,0.13-0.157,0.171-0.259c0.041-0.1,0.062-0.217,0.062-0.344
		c0-0.095-0.011-0.182-0.031-0.257c-0.022-0.076-0.051-0.145-0.089-0.202c-0.037-0.059-0.081-0.107-0.133-0.147
		c-0.052-0.041-0.107-0.072-0.168-0.097v-0.015c0.053-0.031,0.103-0.064,0.148-0.105c0.045-0.039,0.085-0.085,0.117-0.137
		s0.059-0.11,0.077-0.176c0.019-0.066,0.029-0.141,0.029-0.226c0-0.127-0.02-0.24-0.058-0.34c-0.038-0.097-0.092-0.18-0.162-0.246
		c-0.068-0.066-0.152-0.116-0.248-0.151c-0.098-0.033-0.204-0.05-0.323-0.05c-0.113,0-0.22,0.019-0.316,0.055
		c-0.096,0.037-0.179,0.091-0.249,0.159c-0.069,0.068-0.123,0.152-0.162,0.25c-0.038,0.095-0.058,0.203-0.058,0.323v0.117h0.522
		v-0.08c0-0.135,0.023-0.234,0.069-0.303c0.046-0.067,0.112-0.101,0.198-0.101c0.081,0,0.146,0.032,0.192,0.093
		c0.047,0.062,0.071,0.159,0.071,0.294c0,0.072-0.009,0.137-0.022,0.194c-0.016,0.056-0.036,0.102-0.061,0.139
		c-0.025,0.037-0.056,0.064-0.09,0.083c-0.034,0.017-0.072,0.026-0.111,0.026h-0.146v0.423h0.139c0.044,0,0.088,0.008,0.127,0.021
		c0.042,0.015,0.079,0.037,0.11,0.07c0.032,0.033,0.058,0.079,0.075,0.139c0.02,0.059,0.027,0.131,0.027,0.222
		c0,0.145-0.028,0.252-0.085,0.32c-0.058,0.068-0.133,0.104-0.227,0.104c-0.106,0-0.186-0.037-0.239-0.113
		c-0.053-0.074-0.078-0.179-0.078-0.314v-0.089h-0.523v0.076c0,0.131,0.019,0.25,0.056,0.355
		C29.915,18.877,29.97,18.968,30.041,19.042z"/>
	<path d="M32.435,18.804h-0.643v0.423h1.735v-0.423h-0.591v-2.446h-0.247c-0.066,0.042-0.14,0.081-0.22,0.118
		c-0.08,0.035-0.162,0.068-0.243,0.096c-0.081,0.03-0.161,0.053-0.236,0.07c-0.077,0.019-0.144,0.032-0.203,0.039v0.335h0.647
		V18.804z"/>
	<polygon points="42.771,29.753 42.771,28.907 41.069,27.806 42.271,28.907 24.95,28.907 26.152,27.806 24.447,28.907 
		24.447,29.753 26.152,29.753 26.152,34.835 25.729,34.835 25.729,35.312 25.098,35.312 25.098,35.782 42.123,35.782 42.123,35.312 
		41.49,35.312 41.49,34.835 41.069,34.835 41.069,29.753 	"/>
</g>
</svg>
