<?xml version="1.0" encoding="utf-8"?>
<!-- Generator: Adobe Illustrator 16.0.0, SVG Export Plug-In . SVG Version: 6.00 Build 0)  -->
<!DOCTYPE svg PUBLIC "-//W3C//DTD SVG 1.1//EN" "http://www.w3.org/Graphics/SVG/1.1/DTD/svg11.dtd">
<svg version="1.1" id="Layer_3" xmlns="http://www.w3.org/2000/svg" xmlns:xlink="http://www.w3.org/1999/xlink" x="0px" y="0px"
	 width="126px" height="126px" viewBox="0 0 126 126" enable-background="new 0 0 126 126" xml:space="preserve">
<g>
	<circle cx="93.898" cy="33.445" r="16.068"/>
	<path d="M123.182,98.9c-1.557-2.305-2.986-4.394-4.299-6.319c-6.9-10.097-10.361-15.176-13.004-23.378l0.51-1.267
		c2.441-6.113-1.283-12.358-5.779-15.573c0,0-1.385-1.099-3.072-1.73c-1.611-0.604-3.543-0.945-3.543-0.945l-0.045-0.011
		c-5.508-0.778-12.49,1.175-14.943,7.311L65.838,89.921c-0.18,0.447-0.326,0.895-0.443,1.342l-55.141,0.032
		c-4.697,0.002-8.502,3.813-8.5,8.511c0.002,4.697,3.809,8.501,8.506,8.501c0,0,0.002,0,0.004,0l68.977-0.041
		c0.395,0,0.781-0.037,1.16-0.089c5.107,0.245,10.621-1.817,12.818-7.309l6.18-15.455c2.4,4.272,5.35,8.595,9.184,14.207
		c1.301,1.905,2.715,3.973,4.252,6.255c1.207,1.787,3.172,2.751,5.178,2.751c1.201,0,2.412-0.345,3.482-1.067
		C124.352,105.633,125.105,101.757,123.182,98.9z"/>
</g>
</svg>
