<?xml version="1.0" encoding="iso-8859-1"?>
<!-- Generator: Adobe Illustrator 17.1.0, SVG Export Plug-In . SVG Version: 6.00 Build 0)  -->
<!DOCTYPE svg PUBLIC "-//W3C//DTD SVG 1.1//EN" "http://www.w3.org/Graphics/SVG/1.1/DTD/svg11.dtd">
<svg version="1.1" id="Layer_1" xmlns="http://www.w3.org/2000/svg" xmlns:xlink="http://www.w3.org/1999/xlink" x="0px" y="0px"
	 viewBox="0 0 128 128" style="enable-background:new 0 0 128 128;" xml:space="preserve">
<g>
	<path d="M125.266,53.068L64.53,20.838c-0.236-0.124-0.619-0.154-0.854-0.03l-14.487,7.633c-0.236,0.124-0.471,0.009-0.471-0.257
		v-5.17c0-0.268-0.126-0.364-0.394-0.364h-8.704c-0.268,0-0.574,0.098-0.574,0.364v10.283c0,0.268-0.146,0.585-0.383,0.709
		L2.725,53.07c-0.236,0.124-0.189,0.285,0.079,0.285h15.781c0.268,0,0.394,0.098,0.394,0.364v52.951
		c0,0.268,0.306,0.602,0.574,0.602h89.217c0.268,0,0.394-0.334,0.394-0.602V53.719c0-0.268,0.306-0.364,0.574-0.364h15.474
		C125.475,53.355,125.501,53.194,125.266,53.068z M89.198,51.98c1.99,0,3.604,1.613,3.604,3.604c0,1.99-1.614,3.604-3.604,3.604
		c-1.99,0-3.604-1.614-3.604-3.604S87.207,51.98,89.198,51.98z M67.558,69.578c0.499-0.05,1.016,0.194,1.4,0.44
		c0.099,0.064,0.242,0.05,0.331-0.027c0.446-0.393,1.033-0.633,1.675-0.633c0.668,0,1.275,0.258,1.728,0.68
		c0.086,0.08,0.226,0.094,0.324,0.028c0.39-0.262,0.943-0.542,1.474-0.489c0.877,0.087,1.065,1.095,0.837,1.79
		c-0.037,0.113-0.123,0.284-0.174,0.39c-0.311,0.647-0.63,1.389-0.831,1.413c-0.203,0.025,0.446-1.534-0.02-2.02
		c-0.082-0.085-0.275-0.126-0.392-0.116c-0.085,0.008-0.192,0.025-0.313,0.066c-0.112,0.038-0.169,0.174-0.146,0.289
		c0.033,0.164,0.051,0.333,0.051,0.506c0,1.401-1.136,2.536-2.536,2.536s-2.536-1.136-2.536-2.536c0-0.191,0.021-0.376,0.061-0.555
		c0.025-0.116-0.033-0.244-0.147-0.272c-0.076-0.018-0.144-0.029-0.202-0.033c-0.118-0.01-0.311,0.031-0.392,0.116
		c-0.466,0.486,0.182,2.046-0.02,2.02c-0.203-0.025-0.522-0.767-0.833-1.414c-0.051-0.107-0.137-0.277-0.174-0.39
		C66.494,70.673,66.682,69.665,67.558,69.578z M53.515,69.117l0.794-1.338v1.074c0.098-0.015,0.198-0.025,0.3-0.028l0.627-1.045
		v1.099c0.078,0.017,0.155,0.036,0.23,0.06l0.688-1.158v1.494c0.667,0.46,1.104,1.229,1.104,2.1c0,1.409-1.142,2.552-2.552,2.552
		c-1.409,0-2.552-1.143-2.552-2.552C52.154,70.395,52.706,69.545,53.515,69.117z M37.313,51.986c1.99,0,3.604,1.613,3.604,3.604
		s-1.614,3.604-3.604,3.604c-1.99,0-3.604-1.614-3.604-3.604S35.322,51.986,37.313,51.986z M47.098,77.873
		c0,1.037-0.841,1.878-1.878,1.878c-1.037,0-1.877-0.84-1.878-1.877c-0.001,0-0.002-11.468-0.002-11.468
		c0-0.108-0.087-0.195-0.195-0.195h-0.398c-0.108,0-0.195,0.087-0.195,0.195c0,0,0,32.171,0,32.175c0,1.338-1.084,2.422-2.422,2.422
		s-2.422-1.084-2.422-2.422c0-0.004,0-18.931,0-18.931c0-0.138-0.064-0.196-0.2-0.196h-0.391c-0.136,0-0.2,0.057-0.2,0.196
		c0,0,0,18.928,0,18.931c0,1.338-1.084,2.422-2.422,2.422s-2.422-1.084-2.422-2.422c0-0.004,0-32.175,0-32.175
		c0-0.108-0.087-0.195-0.195-0.195h-0.398c-0.108,0-0.195,0.087-0.195,0.195c0,0-0.002,11.467-0.002,11.468
		c-0.001,1.036-0.841,1.877-1.878,1.877c-1.037,0-1.878-0.841-1.878-1.878c0-0.006,0-12.894,0-13.048
		c0-2.57,1.977-4.547,4.448-4.547c0.063,0,5.733,0,5.733,0c1.558,0,4.879,0,4.942,0c2.471,0,4.448,1.977,4.448,4.547
		C47.098,64.979,47.098,77.867,47.098,77.873z M61.526,85.867c0,0.678-0.553,1.199-1.231,1.199c-0.678,0-1.239-0.52-1.24-1.198
		c0,0,0.002-7.471,0.002-7.471c0-0.071-0.055-0.128-0.126-0.128h-0.539c-0.071,0-0.128,0.057-0.128,0.128c0,0,0,21.017,0,21.019
		c0,0.875-0.697,1.588-1.572,1.588s-1.589-0.705-1.589-1.579c0-0.031-0.002-12.428-0.002-12.428c0-0.09-0.048-0.128-0.137-0.128
		h-0.523c-0.089,0-0.131,0.038-0.131,0.128c0,0,0,12.425,0,12.428c0,0.875-0.707,1.579-1.582,1.579
		c-0.875,0-1.582-0.713-1.582-1.588c0-0.002,0.002-21.019,0.002-21.019c0-0.071-0.065-0.128-0.135-0.128h-0.531
		c-0.071,0-0.126,0.057-0.126,0.128l0.001,7.471c-0.001,0.678-0.555,1.198-1.233,1.198c-0.679,0-1.238-0.521-1.238-1.199
		c0-0.004,0-8.436,0-8.537c0-1.681,1.573-3.016,3.19-3.016c0.041,0,7.211,0,7.252,0c1.617,0,3.197,1.334,3.197,3.016
		C61.526,77.431,61.526,85.863,61.526,85.867z M77.64,85.494c-0.632,0.194-1.302-0.161-1.497-0.793l-1.783-5.801
		c-0.01-0.025-0.064-0.127-0.189-0.127c-0.011,0-0.54,0-0.54,0c-0.071-0.001-0.105,0.059-0.086,0.128l3.576,11.746
		c0.019,0.068,0,0.188-0.125,0.188h-2.382c-0.071,0-0.123,0.058-0.123,0.129c0,0,0,8.491,0,8.495c0,0.853-0.692,1.545-1.545,1.545
		c-0.853,0-1.545-0.692-1.545-1.545v-8.495c0-0.071-0.074-0.129-0.131-0.129s-0.533,0-0.533,0c-0.071,0-0.129,0.058-0.129,0.129
		l0,8.495c0,0.853-0.692,1.545-1.545,1.545c-0.853,0-1.545-0.692-1.545-1.545c0-0.003,0.001-8.494,0.001-8.494
		c0-0.071-0.052-0.129-0.124-0.129h-2.478c-0.125,0-0.144-0.119-0.125-0.188l3.57-11.746c0.019-0.068-0.023-0.129-0.094-0.128
		c0,0-0.552,0-0.563,0c-0.125,0-0.179,0.102-0.189,0.127c0,0-1.776,5.8-1.777,5.801c-0.194,0.632-0.864,0.987-1.497,0.793
		c-0.633-0.194-0.988-0.864-0.794-1.497c0.001-0.002,1.789-5.842,1.795-5.863c0.274-0.951,1.26-3.118,3.142-3.118h5.146
		c2.021,0,2.833,2.166,3.107,3.118c0.006,0.02,0.012,0.045,0.02,0.074c0.722,2.356,1.774,5.786,1.775,5.789
		C78.628,84.63,78.272,85.3,77.64,85.494z M99.145,76.693c-0.991,0.304-2.041-0.253-2.346-1.244c-0.001,0-2.807-9.15-2.807-9.15
		c-0.016-0.039-0.1-0.199-0.296-0.199c-0.018,0-0.396,0-0.396,0h-0.001c-0.112-0.002-0.177,0.093-0.147,0.2l5.618,18.385
		c0.03,0.107,0,0.294-0.196,0.294h-3.941c-0.112,0-0.193,0.09-0.193,0.202c0,0,0.001,13.394,0.001,13.398
		c0,1.338-1.084,2.422-2.422,2.422c-1.337,0-2.422-1.084-2.422-2.422l-0.001-13.399c0-0.112-0.09-0.202-0.202-0.202h-0.003h-0.387
		h-0.003c-0.112,0-0.202,0.09-0.202,0.202l-0.001,13.399c0,1.338-1.084,2.422-2.422,2.422c-1.337,0-2.422-1.084-2.422-2.422
		c0-0.005,0.001-13.398,0.001-13.398c0-0.112-0.082-0.202-0.193-0.202h-3.941c-0.196,0-0.226-0.187-0.196-0.294l5.618-18.385
		c0.03-0.107-0.036-0.202-0.147-0.2h-0.001c0,0-0.378,0-0.395,0c-0.196,0-0.28,0.161-0.297,0.199c0,0-2.806,9.15-2.807,9.15
		c-0.304,0.991-1.354,1.548-2.346,1.244c-0.992-0.304-1.549-1.354-1.245-2.346c0.001-0.004,2.805-9.158,2.814-9.189
		c0.429-1.491,1.474-4.887,4.425-4.887h7.917c3.167,0,3.986,3.396,4.416,4.887c0,0,2.812,9.185,2.814,9.189
		C100.694,75.339,100.137,76.389,99.145,76.693z"/>
</g>
</svg>
