<?xml version="1.0" encoding="iso-8859-1"?>
<!-- Generator: Adobe Illustrator 17.1.0, SVG Export Plug-In . SVG Version: 6.00 Build 0)  -->
<!DOCTYPE svg PUBLIC "-//W3C//DTD SVG 1.1//EN" "http://www.w3.org/Graphics/SVG/1.1/DTD/svg11.dtd">
<svg version="1.1" id="Layer_1" xmlns="http://www.w3.org/2000/svg" xmlns:xlink="http://www.w3.org/1999/xlink" x="0px" y="0px"
	 viewBox="0 0 128 128" style="enable-background:new 0 0 128 128;" xml:space="preserve">
<g>
	<path d="M9.541,69.259c1.675,0,3.032-1.357,3.033-3.031c0.001-0.001,0.004-18.522,0.004-18.522c0-0.174,0.141-0.315,0.315-0.315
		h0.643c0.174,0,0.315,0.141,0.315,0.315c0,0,0,51.963,0,51.969c0,2.16,1.751,3.912,3.912,3.912c2.16,0,3.912-1.751,3.912-3.912
		c0-0.006,0-30.578,0-30.578c0-0.223,0.103-0.316,0.323-0.316h0.631c0.22,0,0.323,0.093,0.323,0.316c0,0,0,30.572,0,30.578
		c0,2.16,1.751,3.912,3.912,3.912s3.912-1.751,3.912-3.912c0-0.006,0-51.969,0-51.969c0-0.174,0.141-0.315,0.315-0.315h0.643
		c0.174,0,0.315,0.141,0.315,0.315c0,0,0.003,18.522,0.004,18.522c0.001,1.674,1.359,3.031,3.033,3.031
		c1.675,0,3.034-1.358,3.034-3.034c0-0.009,0-20.827,0-21.075c0-4.151-3.193-7.344-7.184-7.344c-0.102,0-5.467,0-7.983,0
		c0,0-9.159,0-9.26,0c-3.991,0-7.185,3.193-7.185,7.344c0,0.248,0,21.065,0,21.075C6.507,67.901,7.865,69.259,9.541,69.259z"/>
	<circle cx="22.313" cy="30.235" r="5.821"/>
	<path d="M97.066,37.807c-3.991,0-7.185,3.193-7.185,7.344c0,0.248,0,21.065,0,21.075c0,1.675,1.358,3.034,3.034,3.034
		c1.675,0,3.032-1.357,3.033-3.031c0.001-0.001,0.004-18.522,0.004-18.522c0-0.174,0.141-0.315,0.315-0.315h0.643
		c0.174,0,0.315,0.141,0.315,0.315c0,0,0,51.963,0,51.969c0,2.16,1.751,3.912,3.912,3.912c2.16,0,3.912-1.751,3.912-3.912
		c0-0.006,0-30.578,0-30.578c0-0.223,0.103-0.316,0.323-0.316h0.631c0.22,0,0.323,0.093,0.323,0.316c0,0,0,30.572,0,30.578
		c0,2.16,1.751,3.912,3.912,3.912c2.16,0,3.912-1.751,3.912-3.912c0-0.006,0-51.969,0-51.969c0-0.174,0.141-0.315,0.315-0.315h0.643
		c0.174,0,0.315,0.141,0.315,0.315c0,0,0.003,18.522,0.004,18.522c0.001,1.674,1.359,3.031,3.033,3.031
		c1.675,0,3.034-1.358,3.034-3.034c0-0.009,0-20.827,0-21.075c0-4.151-3.193-7.344-7.185-7.344c-0.102,0-5.467,0-7.983,0
		C106.326,37.807,97.167,37.807,97.066,37.807z"/>
	<circle cx="105.687" cy="30.235" r="5.821"/>
	<path d="M82.038,67.679c0,0,0.854,0,0.872,0c0.202,0,0.289,0.165,0.306,0.205l2.88,9.369c0.314,1.021,1.396,1.595,2.417,1.282
		c1.022-0.313,1.596-1.396,1.283-2.418c-0.001-0.004-1.7-5.545-2.867-9.35c-0.012-0.046-0.023-0.086-0.032-0.119
		c-0.442-1.537-1.755-5.036-5.019-5.036h-8.312c-3.041,0-4.634,3.499-5.076,5.036c-0.009,0.033-2.898,9.466-2.899,9.469
		c-0.313,1.022,0.261,2.104,1.283,2.418c1.021,0.313,2.103-0.26,2.417-1.282c0.001,0,2.87-9.369,2.87-9.369
		c0.017-0.04,0.103-0.205,0.306-0.205c0.018,0,0.91,0,0.91,0c0.115-0.002,0.182,0.096,0.152,0.207L67.76,86.858
		c-0.031,0.11,0,0.303,0.202,0.303h4.002c0.115,0,0.199,0.093,0.199,0.208c0,0-0.001,13.715-0.001,13.72
		c0,1.378,1.117,2.496,2.496,2.496s2.496-1.117,2.496-2.496l0.001-13.721c0-0.115,0.093-0.208,0.208-0.208c0,0,0.77,0,0.861,0
		s0.211,0.093,0.211,0.208l0.001,13.721c0,1.378,1.117,2.496,2.496,2.496c1.378,0,2.496-1.117,2.496-2.496
		c0-0.005-0.001-13.72-0.001-13.72c0-0.115,0.084-0.208,0.199-0.208h3.848c0.202,0,0.233-0.193,0.202-0.303l-5.776-18.973
		C81.868,67.775,81.923,67.677,82.038,67.679z"/>
	<path d="M83.156,58.631c0.325-0.038,0.84-1.237,1.343-2.282c0.082-0.171,0.221-0.448,0.281-0.629
		c0.368-1.123,0.064-2.751-1.352-2.891c-0.858-0.086-1.752,0.366-2.381,0.79c-0.159,0.107-0.385,0.084-0.524-0.046
		c-0.732-0.681-1.712-1.098-2.791-1.098c-1.037,0-1.984,0.387-2.705,1.022c-0.144,0.125-0.374,0.148-0.535,0.044
		c-0.62-0.399-1.456-0.793-2.262-0.712c-1.416,0.141-1.72,1.769-1.352,2.892c0.06,0.182,0.198,0.457,0.281,0.629
		c0.503,1.045,1.017,2.244,1.346,2.283c0.327,0.041-0.721-2.477,0.032-3.263c0.131-0.137,0.443-0.205,0.634-0.188
		c0.095,0.008,0.205,0.024,0.327,0.053c0.185,0.046,0.279,0.254,0.238,0.44c-0.064,0.289-0.098,0.588-0.098,0.897
		c0,2.262,1.835,4.097,4.097,4.097c2.262,0,4.097-1.835,4.097-4.097c0-0.279-0.029-0.553-0.082-0.817
		c-0.038-0.186,0.055-0.406,0.235-0.467c0.195-0.066,0.368-0.095,0.506-0.107c0.189-0.015,0.501,0.05,0.634,0.188
		C83.876,56.153,82.827,58.672,83.156,58.631z"/>
	<path d="M54.678,103.586c1.413,0,2.539-1.151,2.539-2.565c0-0.004,0-33.95,0-33.95c0-0.114,0.092-0.206,0.206-0.206h0.871
		c0.114,0,0.203,0.092,0.203,0.206c0,0-0.004,12.067-0.003,12.068c0.001,1.095,0.907,1.935,2.002,1.935
		c1.096,0,1.989-0.841,1.989-1.937c0-0.006,0-13.626,0-13.788c0-2.716-2.553-4.871-5.164-4.871c-0.066,0-11.647,0-11.714,0
		c-2.611,0-5.152,2.155-5.152,4.871c0,0.162,0,13.782,0,13.788c0,1.096,0.904,1.937,2,1.937c1.096,0,1.99-0.84,1.991-1.935
		l-0.003-12.068c0-0.114,0.09-0.206,0.204-0.206h0.858c0.114,0,0.218,0.092,0.218,0.206c0,0-0.003,33.946-0.003,33.95
		c0,1.413,1.141,2.565,2.555,2.565c1.413,0,2.555-1.138,2.555-2.551c0-0.004,0-20.073,0-20.073c0-0.146,0.068-0.207,0.212-0.207
		h0.845c0.144,0,0.221,0.061,0.221,0.207c0,0,0.003,20.024,0.003,20.073C52.111,102.448,53.265,103.586,54.678,103.586z"/>
	<path d="M49.547,52.084c-1.307,0.691-2.198,2.064-2.198,3.645c0,2.276,1.845,4.122,4.122,4.122s4.122-1.845,4.122-4.122
		c0-1.407-0.706-2.649-1.782-3.393v-2.413l-1.111,1.871c-0.121-0.038-0.245-0.07-0.371-0.096v-1.775l-1.013,1.689
		c-0.164,0.006-0.326,0.021-0.484,0.046v-1.734L49.547,52.084z"/>
</g>
</svg>
