<?xml version="1.0" encoding="iso-8859-1"?>
<!-- Generator: Adobe Illustrator 17.1.0, SVG Export Plug-In . SVG Version: 6.00 Build 0)  -->
<!DOCTYPE svg PUBLIC "-//W3C//DTD SVG 1.1//EN" "http://www.w3.org/Graphics/SVG/1.1/DTD/svg11.dtd">
<svg version="1.1" id="Layer_1" xmlns="http://www.w3.org/2000/svg" xmlns:xlink="http://www.w3.org/1999/xlink" x="0px" y="0px"
	 viewBox="0 0 128 128" style="enable-background:new 0 0 128 128;" xml:space="preserve">
<g>
	<path d="M83.375,40.333c0,0.312,0,26.458,0,26.47c0,2.104,1.706,3.81,3.81,3.81c2.103,0,3.808-1.704,3.81-3.807
		C90.997,66.805,91,43.541,91,43.541c0-0.219,0.177-0.396,0.396-0.396h0.807c0.219,0,0.396,0.177,0.396,0.396c0,0,0,65.265,0,65.272
		c0,2.713,2.2,4.913,4.913,4.913s4.913-2.2,4.913-4.913c0-0.007,0-38.406,0-38.406c0-0.28,0.13-0.397,0.406-0.397h0.792
		c0.277,0,0.406,0.117,0.406,0.397c0,0,0,38.398,0,38.406c0,2.713,2.2,4.913,4.913,4.913s4.913-2.2,4.913-4.913
		c0-0.008,0-65.272,0-65.272c0-0.219,0.177-0.396,0.396-0.396h0.807c0.219,0,0.396,0.177,0.396,0.396c0,0,0.003,23.263,0.005,23.264
		c0.002,2.103,1.707,3.807,3.81,3.807c2.104,0,3.81-1.706,3.81-3.81c0-0.012,0-26.158,0-26.47c0-5.214-4.011-9.224-9.024-9.224
		c-0.128,0-6.866,0-10.026,0c0,0-11.503,0-11.631,0C87.386,31.109,83.375,35.119,83.375,40.333z"/>
	<circle cx="103.228" cy="21.598" r="7.311"/>
	<path d="M7.614,64.41c2.011,0.617,4.141-0.513,4.759-2.523c0.002,0,5.695-18.561,5.695-18.561c0.033-0.079,0.204-0.404,0.602-0.404
		c0.036,0,0.802,0,0.802,0h0.002c0.227-0.004,0.359,0.189,0.299,0.407L8.375,80.625c-0.062,0.217,0,0.597,0.397,0.597h7.995
		c0.227,0,0.392,0.184,0.392,0.41c0,0-0.002,27.172-0.002,27.181c0,2.713,2.2,4.913,4.913,4.913c2.713,0,4.913-2.2,4.913-4.913
		l0.002-27.182c0-0.227,0.183-0.41,0.41-0.41h0.006h0.785h0.006c0.227,0,0.41,0.183,0.41,0.41l0.002,27.182
		c0,2.713,2.2,4.913,4.913,4.913c2.713,0,4.913-2.2,4.913-4.913c0-0.01-0.002-27.181-0.002-27.181c0-0.227,0.166-0.41,0.392-0.41
		h7.995c0.397,0,0.458-0.38,0.397-0.597L35.816,43.328c-0.06-0.217,0.072-0.41,0.299-0.407h0.002c0,0,0.766,0,0.802,0
		c0.398,0,0.568,0.326,0.602,0.404c0,0,5.693,18.561,5.695,18.561c0.618,2.01,2.748,3.14,4.759,2.523
		c2.012-0.617,3.143-2.748,2.526-4.76c-0.002-0.008-5.708-18.642-5.708-18.642c-0.871-3.025-2.532-9.914-8.958-9.914h-16.06
		c-5.987,0-8.107,6.888-8.977,9.914C10.778,41.073,5.09,59.643,5.088,59.65C4.471,61.662,5.602,63.793,7.614,64.41z"/>
	<circle cx="27.794" cy="21.584" r="7.311"/>
	<path d="M51.417,79.226c-0.393,1.283,0.328,2.643,1.611,3.037c1.283,0.393,2.642-0.327,3.036-1.61
		c0.001,0,3.605-11.768,3.605-11.768c0.021-0.05,0.13-0.258,0.384-0.258c0.023,0,1.143,0,1.143,0
		c0.145-0.002,0.229,0.121,0.191,0.259l-7.243,23.83c-0.039,0.139,0,0.381,0.253,0.381h5.027c0.145,0,0.25,0.117,0.25,0.262
		c0,0-0.001,17.226-0.001,17.233c0,1.731,1.403,3.135,3.135,3.135s3.135-1.403,3.135-3.135l0.001-17.233
		c0-0.145,0.117-0.261,0.261-0.261c0,0,0.967,0,1.081,0c0.115,0,0.266,0.117,0.266,0.261l0.001,17.233
		c0,1.731,1.403,3.135,3.135,3.135s3.135-1.403,3.135-3.135c0-0.006-0.001-17.233-0.001-17.233c0-0.145,0.106-0.262,0.25-0.262
		h4.833c0.253,0,0.293-0.242,0.253-0.381l-7.255-23.83c-0.038-0.139,0.03-0.262,0.174-0.259c0,0,1.073,0,1.096,0
		c0.254,0,0.362,0.208,0.384,0.258c0,0,3.616,11.767,3.617,11.768c0.394,1.283,1.753,2.003,3.036,1.61
		c1.283-0.393,2.005-1.753,1.611-3.037c-0.002-0.005-2.136-6.964-3.601-11.744c-0.015-0.058-0.029-0.109-0.041-0.15
		c-0.555-1.93-2.205-6.325-6.304-6.325h-10.44c-3.82,0-5.82,4.395-6.375,6.325C55.047,67.373,51.418,79.221,51.417,79.226z"/>
	<path d="M73.48,57.263c0.408-0.048,1.055-1.554,1.686-2.866c0.104-0.215,0.278-0.562,0.353-0.79
		c0.462-1.41,0.081-3.455-1.698-3.631c-1.078-0.107-2.201,0.46-2.991,0.992c-0.2,0.134-0.483,0.106-0.658-0.058
		c-0.919-0.856-2.151-1.38-3.505-1.38c-1.302,0-2.492,0.485-3.398,1.283c-0.18,0.157-0.47,0.186-0.672,0.056
		c-0.779-0.501-1.828-0.996-2.841-0.894c-1.779,0.177-2.16,2.222-1.698,3.632c0.075,0.228,0.249,0.574,0.353,0.791
		c0.631,1.312,1.278,2.818,1.69,2.868c0.411,0.052-0.906-3.112,0.04-4.098c0.165-0.173,0.556-0.257,0.796-0.236
		c0.119,0.01,0.257,0.031,0.411,0.067c0.232,0.058,0.351,0.318,0.299,0.552c-0.081,0.362-0.123,0.739-0.123,1.126
		c0,2.841,2.304,5.145,5.145,5.145c2.841,0,5.145-2.304,5.145-5.145c0-0.351-0.037-0.694-0.104-1.027
		c-0.048-0.234,0.069-0.51,0.295-0.587c0.246-0.082,0.462-0.119,0.635-0.134c0.238-0.019,0.629,0.063,0.796,0.236
		C74.386,54.151,73.068,57.315,73.48,57.263z"/>
</g>
</svg>
