<?xml version="1.0" encoding="iso-8859-1"?>
<!-- Generator: Adobe Illustrator 17.1.0, SVG Export Plug-In . SVG Version: 6.00 Build 0)  -->
<!DOCTYPE svg PUBLIC "-//W3C//DTD SVG 1.1//EN" "http://www.w3.org/Graphics/SVG/1.1/DTD/svg11.dtd">
<svg version="1.1" id="Layer_1" xmlns="http://www.w3.org/2000/svg" xmlns:xlink="http://www.w3.org/1999/xlink" x="0px" y="0px"
	 viewBox="0 0 128 128" style="enable-background:new 0 0 128 128;" xml:space="preserve">
<g>
	<path d="M18.012,64.492c2.414,0.74,4.971-0.616,5.713-3.029c0.002,0,6.837-22.284,6.837-22.284c0.04-0.094,0.245-0.485,0.722-0.485
		c0.043,0,0.963,0,0.963,0h0.002c0.272-0.004,0.431,0.227,0.359,0.488L18.926,83.959c-0.074,0.261,0,0.717,0.476,0.717h9.599
		c0.272,0,0.471,0.22,0.471,0.492c0,0-0.002,32.622-0.002,32.633c0,3.258,2.641,5.898,5.898,5.898s5.898-2.641,5.898-5.898
		l0.002-32.634c0-0.272,0.22-0.492,0.492-0.492h0.008h0.943h0.008c0.272,0,0.492,0.22,0.492,0.492l0.002,32.634
		c0,3.258,2.641,5.898,5.898,5.898c2.518,0,4.667-1.579,5.513-3.8c-0.013-0.159-0.021-0.32-0.021-0.482
		c0-0.003,0.001-14.83,0.002-28.229c-0.895,1.101-2.278,1.794-3.856,1.794c-2.723,0-4.939-2.168-4.939-4.833v-20.95
		c0-5.184,4.767-9.732,10.202-9.732h1.447l-5.588-18.288c-0.072-0.261,0.087-0.492,0.359-0.488h0.002c0,0,0.92,0,0.963,0
		c0.478,0,0.682,0.391,0.722,0.485c0,0,1.572,5.131,3.406,11.116c0.04-2.948,1.593-5.642,4.108-7.153l2.164-3.645
		c-0.583-1.907-0.949-3.1-0.949-3.1c-1.045-3.632-3.04-11.902-10.754-11.902H32.611c-7.187,0-9.733,8.27-10.778,11.902
		c-0.022,0.077-6.85,22.372-6.853,22.381C14.239,61.193,15.597,63.751,18.012,64.492z"/>
	<path d="M104.068,39.429c0,0,0.004,27.929,0.006,27.93c0.002,2.525,2.049,4.571,4.574,4.571c2.526,0,4.574-2.048,4.574-4.574
		c0-0.014,0-31.405,0-31.779c0.001-6.26-4.814-11.074-10.833-11.074c-0.153,0-8.243,0-12.038,0c0,0-0.76,0-1.926,0
		c-3.794,0-11.884,0-12.038,0c-4.827,0-9.23,2.011-9.71,7.244c-0.36,3.924-0.5,7.21-0.5,7.21l2.653-4.015v4.115l2.474-4.167v9.071
		c1.209,1.032,2.092,2.376,2.57,3.867c0.467-4.702,0.833-8.398,0.833-8.398c0-0.263,0.213-0.476,0.476-0.476h0.969
		c0.263,0,0.475,0.213,0.475,0.476c0,0,0,7.616,0,18.098c4.99,0.541,9.162,4.829,9.162,9.673v20.95c0,2.71-2.161,4.833-4.92,4.833
		c-1.569,0-2.97-0.719-3.876-1.838v28.273c0,0.129-0.005,0.257-0.014,0.384c0.822,2.268,2.995,3.89,5.547,3.89
		c3.258,0,5.898-2.641,5.898-5.898c0-0.009,0-46.109,0-46.109c0-0.336,0.155-0.477,0.488-0.477h0.951
		c0.332,0,0.488,0.141,0.488,0.477c0,0,0,46.1,0,46.109c0,3.258,2.641,5.898,5.898,5.898s5.898-2.641,5.898-5.898
		c0-0.009,0-78.364,0-78.364c0-0.263,0.213-0.476,0.476-0.476h0.969C103.855,38.954,104.068,39.167,104.068,39.429z"/>
	<circle cx="89.389" cy="13.085" r="8.777"/>
	<circle cx="41.838" cy="13.077" r="8.777"/>
	<path d="M54.409,69.731h1.432c0.19,0,0.364,0.154,0.364,0.345c0,0-0.004,49.336-0.004,49.343c0,2.36,1.905,4.282,4.265,4.282
		c2.36,0,4.265-1.9,4.265-4.259c0-0.006,0-28.057,0-28.057c0-0.243,0.113-0.345,0.353-0.345h1.411c0.24,0,0.369,0.102,0.369,0.345
		c0,0,0.006,27.974,0.006,28.057c0,2.36,1.926,4.259,4.286,4.259c2.36,0,4.239-1.922,4.239-4.282c0-0.006,0-49.343,0-49.343
		c0-0.19,0.154-0.345,0.345-0.345h1.455c0.19,0,0.339,0.154,0.339,0.345c0,0-0.007,18.077-0.006,18.078
		c0.001,1.829,1.514,3.231,3.343,3.231c1.83,0,3.321-1.404,3.321-3.234c0-0.01,0-20.679,0-20.95c0-4.535-4.262-8.132-8.622-8.132
		c-0.111,0-19.446,0-19.557,0c-4.36,0-8.602,3.598-8.602,8.132c0,0.271,0,20.94,0,20.95c0,1.83,1.509,3.234,3.34,3.234
		c1.829,0,3.323-1.402,3.324-3.231l-0.004-18.077C54.069,69.885,54.219,69.731,54.409,69.731z"/>
	<path d="M62.589,44.324c-2.182,1.154-3.67,3.446-3.67,6.086c0,3.8,3.081,6.881,6.881,6.881c3.801,0,6.881-3.081,6.881-6.881
		c0-2.35-1.179-4.423-2.976-5.665v-4.029l-1.855,3.124c-0.203-0.063-0.409-0.117-0.62-0.161v-2.963l-1.692,2.819
		c-0.274,0.01-0.544,0.035-0.808,0.077v-2.896L62.589,44.324z"/>
</g>
</svg>
