<?xml version="1.0" encoding="utf-8"?>
<!-- Generator: Adobe Illustrator 16.0.0, SVG Export Plug-In . SVG Version: 6.00 Build 0)  -->
<!DOCTYPE svg PUBLIC "-//W3C//DTD SVG 1.1//EN" "http://www.w3.org/Graphics/SVG/1.1/DTD/svg11.dtd">
<svg version="1.1" id="Layer_11" xmlns="http://www.w3.org/2000/svg" xmlns:xlink="http://www.w3.org/1999/xlink" x="0px" y="0px"
	 width="100px" height="100px" viewBox="0 0 100 100" enable-background="new 0 0 100 100" xml:space="preserve">
<g>
	<circle cx="50.42" cy="51.074" r="10.297"/>
	<path d="M54.788,62.072h-8.737c-7.269,0-13.183,5.916-13.183,13.184v10.688l0.027,0.165l0.735,0.23
		c6.937,2.168,12.965,2.891,17.926,2.891c9.688,0,15.303-2.763,15.651-2.938l0.688-0.351l0.071,0.002V75.256
		C67.971,67.988,62.058,62.072,54.788,62.072z"/>
	<circle cx="29.4" cy="21.08" r="16.611"/>
	<path d="M71.438,37.691c9.173,0,16.609-7.44,16.609-16.613c0-9.17-7.437-16.609-16.609-16.609c-9.176,0-16.611,7.436-16.611,16.609
		S62.262,37.691,71.438,37.691z"/>
	<path d="M42.346,60.452c-2.637-2.274-4.314-5.632-4.314-9.378c0-4.594,2.519-8.604,6.243-10.743
		c-2.425-0.965-5.061-1.511-7.826-1.511H22.354c-11.726,0-21.266,9.543-21.266,21.268v17.241l0.043,0.268l1.187,0.37
		C13.3,81.399,22.86,82.58,30.776,82.623v-7.367C30.776,68.112,35.711,62.115,42.346,60.452z"/>
	<path d="M78.486,38.82H64.392c-2.764,0-5.398,0.546-7.823,1.511c3.726,2.139,6.245,6.148,6.245,10.743
		c0,3.745-1.678,7.102-4.313,9.376c2.656,0.662,5.1,2.02,7.088,4.008c2.888,2.889,4.479,6.725,4.477,10.8v7.365
		c7.916-0.043,17.477-1.224,28.457-4.656l1.187-0.37l0.044-0.268V60.088C99.752,48.363,90.212,38.82,78.486,38.82z"/>
</g>
</svg>
