<?xml version="1.0" encoding="iso-8859-1"?>
<!-- Generator: Adobe Illustrator 17.1.0, SVG Export Plug-In . SVG Version: 6.00 Build 0)  -->
<!DOCTYPE svg PUBLIC "-//W3C//DTD SVG 1.1//EN" "http://www.w3.org/Graphics/SVG/1.1/DTD/svg11.dtd">
<svg version="1.1" id="Layer_1" xmlns="http://www.w3.org/2000/svg" xmlns:xlink="http://www.w3.org/1999/xlink" x="0px" y="0px"
	 viewBox="0 0 128 128" style="enable-background:new 0 0 128 128;" xml:space="preserve">
<g>
	<path d="M63.683,21.907l-14.119,7.439c-0.229,0.121-0.459,0.008-0.459-0.25v-5.039c0-0.261-0.123-0.355-0.384-0.355h-8.483
		c-0.261,0-0.559,0.096-0.559,0.355v10.021c0,0.261-0.142,0.57-0.374,0.691L4.283,53.348c-0.229,0.121-0.184,0.278,0.077,0.278
		H19.74c0.261,0,0.384,0.096,0.384,0.355v51.604c0,0.261,0.298,0.586,0.559,0.586h86.948c0.261,0,0.384-0.325,0.384-0.586V53.98
		c0-0.261,0.298-0.355,0.559-0.355h15.081c0.257,0,0.282-0.156,0.052-0.28L64.516,21.936C64.286,21.815,63.913,21.786,63.683,21.907
		z M36.821,50.79c1.991,0,3.604,1.614,3.604,3.604s-1.614,3.604-3.604,3.604c-1.991,0-3.605-1.614-3.605-3.604
		S34.83,50.79,36.821,50.79z M46.77,75.509c-0.991,0.304-2.042-0.253-2.346-1.244c-0.001,0-2.808-9.151-2.808-9.151
		c-0.017-0.039-0.1-0.199-0.297-0.199c-0.018,0-0.395,0-0.395,0h-0.001c-0.112-0.002-0.177,0.094-0.147,0.2l5.619,18.389
		c0.03,0.107,0,0.295-0.196,0.295h-3.942c-0.112,0-0.193,0.091-0.193,0.202c0,0,0.001,13.396,0.001,13.401
		c0,1.338-1.084,2.422-2.422,2.422c-1.338,0-2.422-1.084-2.422-2.422L37.219,84c0-0.112-0.09-0.202-0.202-0.202h-0.003h-0.387
		h-0.003c-0.112,0-0.202,0.09-0.202,0.202l-0.001,13.401c0,1.338-1.084,2.422-2.422,2.422s-2.422-1.084-2.422-2.422
		c0-0.005,0.001-13.401,0.001-13.401c0-0.112-0.081-0.202-0.193-0.202h-3.942c-0.196,0-0.226-0.187-0.196-0.295l5.619-18.389
		c0.03-0.107-0.036-0.202-0.147-0.2h-0.001c0,0-0.378,0-0.395,0c-0.196,0-0.28,0.161-0.297,0.199c0,0-2.807,9.151-2.808,9.151
		c-0.305,0.991-1.355,1.548-2.346,1.244c-0.992-0.304-1.549-1.355-1.245-2.347c0.001-0.004,2.805-9.159,2.814-9.191
		c0.429-1.492,1.474-4.888,4.426-4.888h7.918c3.168,0,3.987,3.396,4.416,4.888c0,0,2.813,9.187,2.814,9.191
		C48.319,74.154,47.762,75.204,46.77,75.509z M54.926,67.931l0.794-1.338v1.074c0.098-0.015,0.198-0.025,0.3-0.028l0.627-1.045
		v1.099c0.078,0.016,0.155,0.036,0.23,0.06l0.688-1.159v1.494c0.667,0.46,1.104,1.229,1.104,2.101c0,1.41-1.143,2.552-2.552,2.552
		c-1.409,0-2.552-1.143-2.552-2.552C53.564,69.209,54.116,68.359,54.926,67.931z M61.706,85.883c-0.679,0-1.24-0.52-1.24-1.198
		c0,0,0.002-7.473,0.002-7.473c0-0.071-0.055-0.128-0.126-0.128h-0.54c-0.071,0-0.128,0.057-0.128,0.128c0,0,0,21.021,0,21.023
		c0,0.875-0.697,1.588-1.572,1.588c-0.875,0-1.59-0.705-1.59-1.58c0-0.031-0.002-12.43-0.002-12.43c0-0.09-0.048-0.128-0.137-0.128
		h-0.523c-0.089,0-0.131,0.038-0.131,0.128c0,0,0,12.428,0,12.43c0,0.875-0.707,1.58-1.582,1.58s-1.582-0.713-1.582-1.588
		c0-0.002,0.002-21.023,0.002-21.023c0-0.071-0.064-0.128-0.135-0.128h-0.531c-0.071,0-0.126,0.057-0.126,0.128l0.001,7.473
		c-0.001,0.678-0.555,1.199-1.233,1.199c-0.679,0-1.239-0.521-1.239-1.199c0-0.004,0-8.438,0-8.538c0-1.682,1.573-3.016,3.19-3.016
		c0.041,0,7.213,0,7.254,0c1.617,0,3.198,1.334,3.198,3.016c0,0.1,0,8.534,0,8.538C62.938,85.363,62.385,85.883,61.706,85.883z
		 M91.179,50.79c1.991,0,3.604,1.614,3.604,3.604s-1.614,3.604-3.604,3.604s-3.604-1.614-3.604-3.604
		C87.575,52.404,89.189,50.79,91.179,50.79z M79.985,73.162c0.001-0.004,2.805-9.159,2.814-9.191
		c0.429-1.492,1.474-4.888,4.426-4.888h7.918c3.168,0,3.987,3.396,4.416,4.888c0,0,2.813,9.187,2.814,9.191
		c0.305,0.992-0.253,2.042-1.245,2.347c-0.991,0.304-2.041-0.253-2.346-1.244c-0.001,0-2.808-9.151-2.808-9.151
		c-0.016-0.039-0.1-0.199-0.297-0.199c-0.018,0-0.396,0-0.396,0h-0.001c-0.112-0.002-0.177,0.094-0.147,0.2l5.619,18.389
		c0.03,0.107,0,0.295-0.196,0.295h-3.942c-0.112,0-0.193,0.091-0.193,0.202c0,0,0.001,13.396,0.001,13.401
		c0,1.338-1.084,2.422-2.422,2.422s-2.422-1.084-2.422-2.422L91.578,84c0-0.112-0.09-0.202-0.202-0.202h-0.003h-0.387h-0.003
		c-0.112,0-0.202,0.09-0.202,0.202L90.78,97.401c0,1.338-1.084,2.422-2.422,2.422c-1.338,0-2.422-1.084-2.422-2.422
		c0-0.005,0.001-13.401,0.001-13.401c0-0.112-0.082-0.202-0.193-0.202h-3.942c-0.196,0-0.226-0.187-0.196-0.295l5.619-18.389
		c0.029-0.107-0.036-0.202-0.147-0.2h-0.001c0,0-0.378,0-0.396,0c-0.196,0-0.28,0.161-0.297,0.199c0,0-2.806,9.151-2.808,9.151
		c-0.305,0.991-1.354,1.548-2.346,1.244C80.238,75.204,79.68,74.154,79.985,73.162z M68.971,68.392
		c0.5-0.05,1.017,0.194,1.401,0.441c0.099,0.064,0.242,0.05,0.331-0.027c0.447-0.393,1.033-0.633,1.675-0.633
		c0.668,0,1.275,0.258,1.728,0.68c0.086,0.08,0.226,0.094,0.324,0.028c0.39-0.262,0.943-0.542,1.475-0.489
		c0.877,0.087,1.065,1.095,0.837,1.79c-0.037,0.112-0.123,0.284-0.174,0.39c-0.311,0.647-0.63,1.39-0.831,1.413
		c-0.203,0.026,0.446-1.534-0.02-2.02c-0.082-0.085-0.275-0.126-0.393-0.117c-0.085,0.008-0.192,0.026-0.313,0.066
		c-0.112,0.038-0.169,0.174-0.146,0.29c0.033,0.164,0.051,0.333,0.051,0.506c0,1.401-1.136,2.537-2.537,2.537
		c-1.401,0-2.537-1.136-2.537-2.537c0-0.191,0.021-0.376,0.06-0.555c0.026-0.115-0.033-0.244-0.147-0.272
		c-0.076-0.018-0.144-0.028-0.203-0.033c-0.118-0.01-0.311,0.031-0.393,0.116c-0.466,0.486,0.183,2.046-0.02,2.02
		c-0.203-0.025-0.522-0.767-0.833-1.414c-0.051-0.107-0.137-0.277-0.174-0.39C67.906,69.487,68.095,68.479,68.971,68.392z
		 M64.859,82.813c0.001-0.002,1.79-5.844,1.796-5.864c0.274-0.951,1.26-3.118,3.143-3.118h5.147c2.021,0,2.834,2.167,3.108,3.118
		c0.006,0.02,0.012,0.045,0.02,0.074c0.723,2.356,1.775,5.788,1.776,5.79c0.194,0.633-0.161,1.303-0.794,1.497
		c-0.633,0.194-1.302-0.161-1.497-0.794c0,0-1.783-5.802-1.783-5.802c-0.01-0.025-0.064-0.127-0.189-0.127c-0.011,0-0.54,0-0.54,0
		c-0.071-0.001-0.105,0.06-0.086,0.128l3.577,11.749c0.019,0.068,0,0.188-0.125,0.188h-2.383c-0.071,0-0.124,0.058-0.124,0.129
		c0,0,0.001,8.493,0.001,8.496c0,0.854-0.692,1.546-1.546,1.546s-1.546-0.692-1.546-1.546l0-8.496c0-0.071-0.074-0.129-0.131-0.129
		s-0.533,0-0.533,0c-0.071,0-0.129,0.057-0.129,0.129l0,8.496c0,0.854-0.692,1.546-1.545,1.546c-0.854,0-1.546-0.692-1.546-1.546
		c0-0.003,0.001-8.496,0.001-8.496c0-0.071-0.052-0.129-0.124-0.129h-2.479c-0.125,0-0.144-0.119-0.125-0.188l3.571-11.749
		c0.019-0.068-0.023-0.129-0.094-0.128c0,0-0.552,0-0.563,0c-0.125,0-0.179,0.102-0.189,0.127l-1.778,5.802
		c-0.194,0.632-0.864,0.988-1.497,0.794C65.021,84.116,64.665,83.446,64.859,82.813z"/>
</g>
</svg>
