<?xml version="1.0" encoding="iso-8859-1"?>
<!-- Generator: Adobe Illustrator 17.1.0, SVG Export Plug-In . SVG Version: 6.00 Build 0)  -->
<!DOCTYPE svg PUBLIC "-//W3C//DTD SVG 1.1//EN" "http://www.w3.org/Graphics/SVG/1.1/DTD/svg11.dtd">
<svg version="1.1" id="Layer_1" xmlns="http://www.w3.org/2000/svg" xmlns:xlink="http://www.w3.org/1999/xlink" x="0px" y="0px"
	 viewBox="0 0 128 128" style="enable-background:new 0 0 128 128;" xml:space="preserve">
<g>
	<path d="M64.193,8.154c-0.287-0.199-0.751-0.218-1.037-0.018l-14.114,9.949c-0.286,0.201-0.438,0.07-0.438-0.279v-6.891
		c0-0.349-0.443-0.534-0.792-0.534h-9.169c-0.349,0-0.491,0.185-0.491,0.534v14.212c0,0.349-0.302,0.795-0.588,0.995L2.942,50.471
		c-0.286,0.201-0.27,0.445,0.079,0.445h15.387c0.349,0,0.624,0.119,0.624,0.468v67.977c0,0.349,0.292,0.644,0.641,0.644h87.896
		c0.349,0,0.692-0.294,0.692-0.644V51.384c0-0.349,0.223-0.468,0.573-0.468h16.125c0.35,0,0.4-0.244,0.113-0.443L64.193,8.154z
		 M86.518,47.835c2.636,0,4.773,2.137,4.773,4.773s-2.137,4.773-4.773,4.773c-2.636,0-4.773-2.137-4.773-4.773
		S83.882,47.835,86.518,47.835z M59.582,76.698c0.638-0.063,1.301,0.251,1.79,0.566c0.123,0.079,0.3,0.063,0.408-0.034
		c0.57-0.504,1.318-0.81,2.139-0.81c0.854,0,1.629,0.331,2.206,0.871c0.106,0.099,0.28,0.116,0.4,0.035
		c0.495-0.335,1.204-0.695,1.883-0.627c1.227,0.122,1.395,1.662,0.963,2.531c-0.431,0.869-0.895,2.009-1.177,2.044
		c-0.26,0.033,0.574-1.965-0.031-2.577c-0.103-0.103-0.341-0.154-0.485-0.142c-0.112,0.01-0.254,0.033-0.415,0.088
		c-0.139,0.047-0.209,0.215-0.18,0.357c0.043,0.21,0.067,0.428,0.067,0.652c0,1.783-1.446,3.229-3.229,3.229
		s-3.229-1.446-3.229-3.229c0-0.246,0.027-0.485,0.079-0.715c0.031-0.141-0.041-0.301-0.182-0.336
		c-0.104-0.025-0.196-0.04-0.274-0.046c-0.146-0.011-0.383,0.038-0.485,0.142c-0.605,0.611,0.227,2.61-0.031,2.577
		c-0.285-0.035-0.748-1.176-1.179-2.044C58.187,78.36,58.354,76.82,59.582,76.698z M41.747,47.835c2.636,0,4.773,2.137,4.773,4.773
		s-2.137,4.773-4.773,4.773c-2.636,0-4.773-2.137-4.773-4.773S39.11,47.835,41.747,47.835z M99.392,80.568
		c-1.313,0.403-2.703-0.335-3.107-1.647c-0.001,0-3.718-12.118-3.718-12.118c-0.022-0.051-0.133-0.264-0.393-0.264
		c-0.023,0-0.524,0-0.524,0H91.65c-0.148-0.002-0.234,0.124-0.195,0.266l7.44,24.35c0.04,0.142,0,0.39-0.259,0.39h-5.22
		c-0.148,0-0.256,0.12-0.256,0.268c0,0,0.001,17.74,0.001,17.746c0,1.771-1.436,3.208-3.208,3.208s-3.208-1.436-3.208-3.208
		l-0.001-17.746c0-0.148-0.12-0.267-0.268-0.267h-0.004h-0.512h-0.004c-0.148,0-0.268,0.12-0.268,0.267l-0.001,17.746
		c0,1.771-1.436,3.208-3.208,3.208s-3.208-1.436-3.208-3.208c0-0.006,0.001-17.746,0.001-17.746c0-0.148-0.108-0.268-0.256-0.268
		h-5.22c-0.259,0-0.299-0.248-0.259-0.39l7.44-24.35c0.039-0.142-0.047-0.268-0.195-0.266h-0.001c0,0-0.5,0-0.524,0
		c-0.26,0-0.371,0.213-0.393,0.264c0,0-4.081,13.366-4.083,13.366c-0.033,0.109-0.076,0.213-0.123,0.314l0.008,0.003
		c-0.042,0.14-5.352,9.377-5.352,9.377c-0.074,0.125-0.111,0.342-0.082,0.485l2.161,10.647c0.029,0.142-0.065,0.258-0.211,0.258
		l-1.394,0v8.495c-0.025,1.552-1.376,3.018-3.077,3.018c-1.7,0-3.234-1.458-3.259-3.01l-0.001-7.822
		c0-0.143-0.116-0.259-0.259-0.259h-0.003h-0.385h-0.003c-0.143,0-0.259,0.116-0.259,0.259l-0.001,7.822
		c-0.025,1.552-1.558,3.01-3.259,3.01c-1.701,0-3.052-1.467-3.077-3.018v-8.495l-1.394,0c-0.146,0-0.24-0.115-0.211-0.258
		l2.16-10.647c0.029-0.144-0.007-0.36-0.082-0.485c0,0-5.311-9.237-5.353-9.377l0.008-0.003c-0.047-0.101-0.089-0.204-0.123-0.314
		c-0.001,0-4.083-13.366-4.083-13.366c-0.022-0.051-0.133-0.264-0.393-0.264c-0.023,0-0.524,0-0.524,0h-0.001
		c-0.148-0.002-0.234,0.124-0.195,0.266l7.44,24.35c0.04,0.142,0,0.39-0.259,0.39h-5.22c-0.148,0-0.256,0.12-0.256,0.268
		c0,0,0.001,17.74,0.001,17.746c0,1.771-1.436,3.208-3.208,3.208s-3.208-1.436-3.208-3.208l-0.001-17.746
		c0-0.148-0.12-0.267-0.268-0.267h-0.004h-0.512h-0.004c-0.148,0-0.268,0.12-0.268,0.267l-0.001,17.746
		c0,1.771-1.436,3.208-3.208,3.208s-3.208-1.436-3.208-3.208c0-0.006,0.001-17.746,0.001-17.746c0-0.148-0.108-0.268-0.256-0.268
		h-5.22c-0.259,0-0.299-0.248-0.259-0.39l7.44-24.35c0.039-0.142-0.047-0.268-0.195-0.266h-0.001c0,0-0.5,0-0.524,0
		c-0.26,0-0.371,0.213-0.393,0.264c0,0-3.717,12.118-3.718,12.118c-0.403,1.312-1.794,2.05-3.107,1.647
		c-1.313-0.403-2.052-1.794-1.649-3.107c0.001-0.005,3.715-12.129,3.727-12.171c0.569-1.975,1.952-6.472,5.861-6.472h10.485
		c4.195,0,5.28,4.497,5.848,6.472c0,0,4.398,14.427,4.4,14.432c0.069,0.226,2.686,4.462,2.686,4.462
		c0.076,0.124,0.255,0.224,0.401,0.224h7.267c0.146,0,0.325-0.1,0.401-0.224c0,0,2.616-4.235,2.686-4.462
		c0.001-0.005,4.4-14.432,4.4-14.432c0.569-1.975,1.653-6.472,5.848-6.472h10.485c3.908,0,5.293,4.497,5.861,6.472
		c0.012,0.042,3.725,12.166,3.727,12.171C101.444,78.774,100.706,80.165,99.392,80.568z"/>
</g>
</svg>
