<?xml version="1.0" encoding="iso-8859-1"?>
<!-- Generator: Adobe Illustrator 17.1.0, SVG Export Plug-In . SVG Version: 6.00 Build 0)  -->
<!DOCTYPE svg PUBLIC "-//W3C//DTD SVG 1.1//EN" "http://www.w3.org/Graphics/SVG/1.1/DTD/svg11.dtd">
<svg version="1.1" id="Layer_1" xmlns="http://www.w3.org/2000/svg" xmlns:xlink="http://www.w3.org/1999/xlink" x="0px" y="0px"
	 viewBox="0 0 128 128" style="enable-background:new 0 0 128 128;" xml:space="preserve">
<g>
	<path d="M35.863,122.669c1.895,0,3.577-0.909,4.635-2.315c-0.144-0.488-0.222-0.991-0.222-1.505l0.001-19.346h-4.717
		c-0.612,0-1.169-0.273-1.528-0.747c-0.369-0.489-0.488-1.142-0.316-1.747l3.331-10.959c-0.671,0.39-1.449,0.608-2.271,0.608
		c-0.448,0-0.893-0.067-1.324-0.199c-2.379-0.729-3.721-3.258-2.991-5.637c0.037-0.119,4.292-14.016,4.358-14.233
		c0.252-0.875,2.694-8.714,9.168-8.714h1.328c-0.64-0.53-1.195-1.159-1.638-1.866c-0.318,0.375-0.78,0.589-1.272,0.589h-0.101
		l-0.111-0.013c-1.292-0.156-1.914-1.472-2.944-3.651c-0.107-0.227-0.215-0.455-0.322-0.678l-0.066-0.136
		c-0.146-0.301-0.327-0.675-0.436-1.005c-0.523-1.597-0.335-3.436,0.48-4.687c0.658-1.011,1.694-1.634,2.917-1.755
		c0.157-0.016,0.321-0.024,0.483-0.024c1.058,0,2.185,0.332,3.358,0.988c1.323-0.974,2.932-1.505,4.592-1.505
		c1.215,0,2.394,0.287,3.458,0.818l-1.631-5.338c-0.071-0.257,0.085-0.484,0.353-0.48h0.002c0,0,0.904,0,0.947,0
		c0.47,0,0.67,0.384,0.71,0.477c0,0,0.715,2.333,1.739,5.676c0.924-0.422,1.816-0.636,2.666-0.636c0.162,0,0.324,0.008,0.482,0.023
		c1.222,0.121,2.258,0.745,2.916,1.755c0.815,1.251,1.003,3.09,0.48,4.686c-0.102,0.313-0.264,0.653-0.448,1.033l-0.054,0.111
		c-0.107,0.222-0.215,0.451-0.322,0.678c-0.846,1.791-1.418,2.997-2.316,3.456c0.237,0.774,0.472,1.54,0.701,2.287
		c0.993,0.492,1.896,1.206,2.698,2.137c1.642-2.722,4.74-4.645,8.121-4.645h2.15c0.043-0.429,0.086-0.862,0.129-1.296
		c-0.796-1.223-1.261-2.68-1.261-4.245c0-2.075,0.818-4.019,2.224-5.454c0.311-3.135,0.528-5.319,0.528-5.319
		c0-0.258,0.209-0.467,0.467-0.467h0.952c0.258,0,0.467,0.209,0.467,0.467c0,0,0,0.938,0,2.606l3.161-4.313v3.806l2.252-3.754v3.701
		l2.397-3.754l0.47,6.596c1.692,1.474,2.681,3.615,2.681,5.883c0,2.165-0.887,4.126-2.316,5.541h3.316
		c4.991,0,9.368,4.171,9.368,8.927v20.737c0,2.531-2.018,4.514-4.593,4.514c-1.268,0-2.415-0.506-3.25-1.32
		c0,12.758,0,27.832,0,27.837c0,3.201,2.595,5.796,5.796,5.796c3.201,0,5.796-2.595,5.796-5.796c0-0.009,0-77.009,0-77.009
		c0-0.258,0.209-0.467,0.467-0.467h0.952c0.258,0,0.467,0.209,0.467,0.467c0,0,0.004,27.446,0.006,27.447
		c0.002,2.481,2.014,4.492,4.495,4.492c2.482,0,4.495-2.013,4.495-4.495c0-0.014,0-30.862,0-31.23
		c0-6.152-4.732-10.883-10.647-10.883c-0.151,0-8.101,0-11.829,0c0,0-0.747,0-1.893,0c-3.729,0-11.679,0-11.829,0
		c-5.915,0-10.094,4.514-10.647,10.883c-0.01,0.119-0.301,3.45-0.688,7.895c-1.249-4.081-2.17-7.09-2.17-7.09
		c-1.027-3.569-2.988-11.696-10.568-11.696H33.153c-7.063,0-9.564,8.127-10.592,11.696c-0.022,0.076-6.732,21.985-6.735,21.994
		c-0.728,2.374,0.606,4.888,2.98,5.616c2.373,0.727,4.885-0.605,5.614-2.977c0.002,0,6.719-21.899,6.719-21.899
		c0.039-0.093,0.24-0.477,0.71-0.477c0.042,0,0.947,0,0.947,0h0.002c0.267-0.004,0.424,0.223,0.353,0.48L19.705,83.614
		c-0.073,0.257,0,0.705,0.468,0.705h9.433c0.267,0,0.463,0.217,0.463,0.484c0,0-0.002,32.058-0.002,32.069
		C30.067,120.074,32.662,122.669,35.863,122.669z"/>
	<circle cx="88.949" cy="13.965" r="8.626"/>
	<circle cx="42.22" cy="13.957" r="8.626"/>
	<path d="M59.116,97.901h5.787c0.303-0.001,0.35-0.291,0.303-0.457l-2.618-8.601c-0.734-0.8-1.185-1.853-1.185-3.011v-0.88
		L56.519,68.91c-0.046-0.166,0.036-0.313,0.209-0.311c0,0,1.285,0,1.312,0c0.304,0,0.434,0.249,0.46,0.309
		c0,0,1.641,5.342,2.904,9.448v-13.26c0-0.922,0.166-1.822,0.467-2.674c-0.859-1.166-1.998-2.18-3.491-2.656
		c-0.577-0.184-1.205-0.29-1.893-0.29H43.985c-4.573,0-6.969,5.262-7.634,7.574c-0.014,0.049-4.359,14.236-4.361,14.241
		c-0.471,1.537,0.393,3.165,1.929,3.636c1.536,0.471,3.164-0.392,3.635-1.928c0.001,0,4.317-14.091,4.317-14.091
		c0.026-0.06,0.156-0.309,0.46-0.309c0.027,0,1.368,0,1.368,0c0.173-0.003,0.274,0.144,0.229,0.311l-8.673,28.534
		c-0.047,0.166,0,0.456,0.303,0.456h6.019c0.173,0,0.3,0.14,0.3,0.313c0,0-0.001,20.627-0.001,20.635
		c0,0.541,0.117,1.055,0.323,1.52c0.495,0.794,1.174,1.461,1.977,1.942c0.447,0.188,0.937,0.292,1.453,0.292
		c2.073,0,3.753-1.68,3.753-3.753l0.001-20.635c0-0.173,0.14-0.313,0.313-0.313c0,0,1.157,0,1.295,0c0.137,0,0.318,0.14,0.318,0.313
		l0.001,20.635c0,0.724,0.208,1.398,0.564,1.971c0.662,1.068,1.841,1.782,3.19,1.782c2.073,0,3.753-1.68,3.753-3.753
		c0-0.007-0.001-20.635-0.001-20.635C58.817,98.042,58.943,97.901,59.116,97.901z"/>
	<path d="M58.409,54.991c0.49-0.057,1.264-1.861,2.02-3.432c0.124-0.257,0.333-0.673,0.423-0.947
		c0.554-1.688,0.097-4.137-2.033-4.348c-1.291-0.129-2.635,0.551-3.581,1.188c-0.239,0.161-0.579,0.127-0.788-0.069
		c-1.1-1.024-2.575-1.652-4.197-1.652c-1.56,0-2.984,0.581-4.068,1.537c-0.216,0.188-0.563,0.223-0.804,0.066
		c-0.933-0.599-2.189-1.192-3.402-1.07c-2.13,0.212-2.587,2.661-2.033,4.349c0.09,0.273,0.299,0.687,0.423,0.947
		c0.756,1.571,1.53,3.374,2.024,3.434c0.492,0.062-1.084-3.726,0.048-4.907c0.198-0.207,0.666-0.308,0.953-0.283
		c0.142,0.011,0.308,0.037,0.492,0.08c0.278,0.069,0.42,0.381,0.358,0.662c-0.097,0.434-0.147,0.884-0.147,1.348
		c0,3.402,2.759,6.161,6.161,6.161c3.402,0,6.161-2.759,6.161-6.161c0-0.42-0.044-0.831-0.124-1.229
		c-0.057-0.28,0.083-0.611,0.354-0.703c0.294-0.099,0.554-0.142,0.76-0.161c0.285-0.023,0.754,0.076,0.953,0.283
		C59.493,51.265,57.915,55.054,58.409,54.991z"/>
	<path d="M74.765,122.602c2.126,0,3.842-1.711,3.842-3.837c0-0.006,0-30.189,0-30.189c0-0.219,0.101-0.311,0.318-0.311h1.271
		c0.216,0,0.332,0.092,0.332,0.311c0,0,0.005,30.115,0.005,30.189c0,2.126,1.735,3.837,3.86,3.837s3.818-1.732,3.818-3.857
		c0-0.006,0-51.059,0-51.059c0-0.171,0.139-0.31,0.31-0.31h1.31c0.171,0,0.305,0.139,0.305,0.31c0,0-0.006,18.149-0.005,18.149
		c0.001,1.648,1.364,2.911,3.012,2.911c1.649,0,2.992-1.264,2.992-2.913c0-0.009,0-20.493,0-20.737c0-4.084-3.839-7.325-7.766-7.325
		c-0.1,0-17.517,0-17.617,0c-3.927,0-7.749,3.241-7.749,7.325c0,0.244,0,20.728,0,20.737c0,1.649,1.36,2.913,3.008,2.913
		c1.648,0,2.993-1.263,2.995-2.911l-0.004-18.149c0-0.171,0.135-0.31,0.306-0.31h1.29c0.171,0,0.328,0.139,0.328,0.31
		c0,0-0.004,51.054-0.004,51.059C70.924,120.87,72.64,122.602,74.765,122.602z"/>
	<path d="M76.678,45.145c-1.966,1.039-3.306,3.104-3.306,5.482c0,3.423,2.775,6.199,6.199,6.199c3.423,0,6.199-2.775,6.199-6.199
		c0-2.117-1.061-3.984-2.68-5.103v-3.63l-1.671,2.814c-0.183-0.057-0.369-0.105-0.558-0.145v-2.669l-1.524,2.54
		c-0.247,0.009-0.49,0.032-0.728,0.069v-2.609L76.678,45.145z"/>
</g>
</svg>
