<?xml version="1.0" encoding="iso-8859-1"?>
<!-- Generator: Adobe Illustrator 17.1.0, SVG Export Plug-In . SVG Version: 6.00 Build 0)  -->
<!DOCTYPE svg PUBLIC "-//W3C//DTD SVG 1.1//EN" "http://www.w3.org/Graphics/SVG/1.1/DTD/svg11.dtd">
<svg version="1.1" id="Layer_1" xmlns="http://www.w3.org/2000/svg" xmlns:xlink="http://www.w3.org/1999/xlink" x="0px" y="0px"
	 viewBox="0 0 128 128" style="enable-background:new 0 0 128 128;" xml:space="preserve">
<g>
	<path d="M63.007,65.752c0,0.244,0,20.701,0,20.71c0,1.646,1.358,2.909,3.004,2.909c1.646,0,2.99-1.262,2.991-2.907l-0.004-18.126
		c0-0.171,0.135-0.31,0.306-0.31h1.288c0.171,0,0.328,0.139,0.328,0.31c0,0-0.004,50.987-0.004,50.993
		c0,2.123,1.714,3.852,3.837,3.852s3.837-1.709,3.837-3.832c0-0.006,0-30.15,0-30.15c0-0.219,0.101-0.311,0.318-0.311h1.269
		c0.216,0,0.332,0.091,0.332,0.311c0,0,0.005,30.076,0.005,30.15c0,2.123,1.733,3.832,3.855,3.832c2.123,0,3.813-1.729,3.813-3.852
		c0-0.006,0-50.993,0-50.993c0-0.171,0.139-0.31,0.31-0.31h1.308c0.171,0,0.305,0.139,0.305,0.31c0,0-0.006,18.125-0.005,18.126
		c0.001,1.645,1.362,2.907,3.008,2.907c1.646,0,2.988-1.263,2.988-2.909c0-0.009,0-20.466,0-20.71c0-4.079-3.834-7.316-7.756-7.316
		c-0.1,0-17.494,0-17.594,0C66.823,58.436,63.007,61.672,63.007,65.752z"/>
	<circle cx="39.937" cy="13.508" r="8.703"/>
	<path d="M19.704,36.63c-0.022,0.076-6.792,22.183-6.795,22.191c-0.734,2.395,0.612,4.931,3.007,5.666
		c2.394,0.734,4.929-0.611,5.665-3.003c0.002,0,6.779-22.096,6.779-22.096c0.04-0.094,0.243-0.481,0.716-0.481
		c0.043,0,0.955,0,0.955,0h0.002c0.27-0.004,0.427,0.225,0.356,0.484L16.822,83.791c-0.073,0.259,0,0.711,0.473,0.711h9.518
		c0.27,0,0.467,0.219,0.467,0.488c0,0-0.002,32.346-0.002,32.357c0,3.23,2.618,5.849,5.849,5.849s5.849-2.618,5.849-5.849
		l0.001-17.233h-3.377c-0.611,0-1.167-0.272-1.526-0.746c-0.369-0.488-0.487-1.14-0.316-1.745l3.327-10.945
		c-0.67,0.389-1.447,0.607-2.268,0.607c-0.447,0-0.892-0.067-1.322-0.199c-1.151-0.353-2.095-1.133-2.66-2.196
		c-0.564-1.063-0.681-2.283-0.328-3.433c0,0,4.298-14.034,4.352-14.214c0.252-0.875,2.692-8.703,9.156-8.703h1.326
		c-0.639-0.529-1.194-1.158-1.636-1.864c-0.317,0.374-0.778,0.589-1.271,0.589h-0.1l-0.111-0.013
		c-1.291-0.156-1.912-1.47-2.941-3.647c-0.107-0.226-0.215-0.454-0.322-0.676l-0.067-0.139c-0.145-0.299-0.326-0.672-0.434-1.001
		c-0.523-1.595-0.335-3.432,0.479-4.682c0.657-1.009,1.692-1.632,2.913-1.753c0.157-0.016,0.32-0.024,0.483-0.024
		c1.056,0,2.182,0.332,3.353,0.987c1.322-0.973,2.928-1.503,4.586-1.503c0.3,0,0.596,0.023,0.891,0.057l-1.674-5.479
		c-0.071-0.259,0.086-0.488,0.356-0.484h0.002c0,0,0.912,0,0.955,0c0.473,0,0.676,0.388,0.716,0.481c0,0,0.793,2.588,1.862,6.074
		c0.568,0.249,1.108,0.565,1.606,0.948c1.229-0.717,2.411-1.08,3.52-1.08c0.162,0,0.323,0.008,0.481,0.023
		c1.22,0.121,2.255,0.743,2.912,1.753c0.814,1.249,1.002,3.086,0.479,4.68c-0.102,0.312-0.263,0.651-0.447,1.03l-0.054,0.111
		c-0.107,0.223-0.215,0.451-0.323,0.679c-1.029,2.177-1.65,3.491-2.949,3.643l-0.093,0.011l-0.105,0.001
		c-0.502,0-0.972-0.223-1.29-0.611c-0.051-0.063-0.097-0.126-0.137-0.19c-0.049,0.084-0.103,0.165-0.155,0.247
		c0.202,0.658,0.396,1.291,0.579,1.889c0.501,0.057,0.994,0.156,1.47,0.308c1.42,0.453,2.682,1.319,3.762,2.571
		c1.64-2.719,4.733-4.64,8.11-4.64h0.39c0.312-1.019,0.644-2.099,0.982-3.204c-0.231-0.736-0.356-1.518-0.356-2.33
		c0-2.404,1.098-4.631,2.938-6.094c1.029-3.356,1.784-5.82,1.784-5.82c0.04-0.094,0.242-0.481,0.716-0.481
		c0.043,0,1.796,0.014,1.796,0.014l0.556,3.715l2.249-3.662v3.61l2.226-3.663l0.479,6.423c1.69,1.471,2.837,3.693,2.837,5.958
		c0,2.162-0.886,4.121-2.313,5.534h3.31c4.984,0,9.356,4.166,9.356,8.916v20.71c0,2.528-2.015,4.509-4.587,4.509
		c-1.306,0-2.487-0.535-3.327-1.393v29.752c0,0.265-0.025,0.524-0.062,0.78c0.986,1.836,2.924,3.084,5.155,3.084
		c3.23,0,5.849-2.618,5.849-5.849c0-0.012-0.002-32.357-0.002-32.357c0-0.27,0.197-0.488,0.467-0.488h9.518
		c0.473,0,0.546-0.452,0.473-0.711L97.612,39.391c-0.071-0.259,0.086-0.488,0.356-0.484h0.002c0,0,0.912,0,0.955,0
		c0.473,0,0.676,0.388,0.716,0.481c0,0,6.777,22.095,6.779,22.096c0.736,2.393,3.271,3.737,5.665,3.003
		c2.394-0.734,3.741-3.271,3.006-5.666c-0.003-0.009-6.773-22.115-6.795-22.191c-1.036-3.601-3.56-11.801-10.687-11.801H78.491
		c-7.649,0-9.627,8.2-10.663,11.801c0,0-1.931,6.31-3.828,12.51c-1.897-6.2-3.828-12.51-3.828-12.51
		c-1.036-3.601-3.014-11.801-10.663-11.801H30.391C23.264,24.829,20.74,33.029,19.704,36.63z"/>
	<circle cx="88.062" cy="13.508" r="8.703"/>
	<path d="M35.597,98.514h6.012c0.173,0,0.299,0.14,0.299,0.313c0,0-0.001,20.601-0.001,20.608c0,0.541,0.117,1.053,0.323,1.518
		c0.495,0.793,1.172,1.459,1.975,1.939c0.446,0.187,0.936,0.292,1.451,0.292c2.07,0,3.748-1.678,3.748-3.748l0.001-20.608
		c0-0.173,0.14-0.312,0.312-0.312c0,0,1.156,0,1.294,0c0.137,0,0.318,0.14,0.318,0.312l0.001,20.608
		c0,0.723,0.208,1.396,0.563,1.969c0.661,1.067,1.838,1.78,3.185,1.78c2.07,0,3.748-1.678,3.748-3.748
		c0-0.007-0.001-20.608-0.001-20.608c0-0.173,0.126-0.313,0.299-0.313h5.779c0.302-0.001,0.349-0.291,0.302-0.457l-2.615-8.59
		c-0.733-0.799-1.183-1.851-1.183-3.007v-0.879L56.53,69.561c-0.046-0.166,0.036-0.313,0.209-0.31c0,0,1.283,0,1.31,0
		c0.304,0,0.433,0.248,0.459,0.308c0,0,1.639,5.335,2.9,9.435V65.752c0-0.921,0.166-1.82,0.467-2.671
		c-0.858-1.164-1.995-2.177-3.487-2.652c-0.576-0.184-1.204-0.29-1.89-0.29H44.012c-4.568,0-6.96,5.256-7.624,7.564
		c-0.014,0.049-4.353,14.217-4.355,14.223c-0.471,1.535,0.392,3.161,1.927,3.632c1.534,0.471,3.159-0.391,3.631-1.925
		c0.001,0,4.311-14.072,4.311-14.072c0.026-0.06,0.155-0.308,0.459-0.308c0.027,0,1.367,0,1.367,0
		c0.173-0.003,0.274,0.144,0.228,0.31l-8.662,28.497C35.247,98.224,35.294,98.514,35.597,98.514z"/>
	<path d="M44.122,52.568c0,3.398,2.755,6.153,6.153,6.153c3.398,0,6.153-2.755,6.153-6.153c0-0.42-0.044-0.83-0.124-1.228
		c-0.057-0.28,0.083-0.61,0.353-0.702c0.294-0.099,0.553-0.142,0.76-0.16c0.284-0.023,0.753,0.076,0.952,0.282
		c1.131,1.179-0.445,4.963,0.048,4.901c0.489-0.057,1.262-1.858,2.017-3.428c0.124-0.257,0.333-0.672,0.422-0.945
		c0.553-1.686,0.096-4.132-2.03-4.343c-1.289-0.128-2.632,0.551-3.577,1.186c-0.239,0.16-0.578,0.126-0.787-0.069
		c-1.099-1.023-2.572-1.65-4.192-1.65c-1.558,0-2.98,0.581-4.063,1.535c-0.216,0.188-0.562,0.223-0.803,0.066
		c-0.931-0.599-2.186-1.191-3.398-1.069c-2.127,0.211-2.583,2.657-2.03,4.343c0.09,0.273,0.298,0.686,0.422,0.945
		c0.755,1.569,1.528,3.37,2.021,3.43c0.491,0.062-1.083-3.721,0.048-4.9c0.197-0.207,0.665-0.308,0.952-0.282
		c0.142,0.011,0.308,0.037,0.491,0.08c0.278,0.069,0.42,0.381,0.358,0.661C44.172,51.655,44.122,52.105,44.122,52.568z"/>
	<path d="M76.663,45.827c-1.963,1.038-3.302,3.1-3.302,5.475c0,3.419,2.771,6.19,6.191,6.19s6.191-2.771,6.191-6.19
		c0-2.114-1.06-3.979-2.677-5.096v-3.625l-1.669,2.81c-0.182-0.057-0.368-0.105-0.557-0.145v-2.665l-1.522,2.536
		c-0.246,0.009-0.489,0.032-0.728,0.069v-2.605L76.663,45.827z"/>
</g>
</svg>
