<?xml version="1.0" encoding="iso-8859-1"?>
<!-- Generator: Adobe Illustrator 17.1.0, SVG Export Plug-In . SVG Version: 6.00 Build 0)  -->
<!DOCTYPE svg PUBLIC "-//W3C//DTD SVG 1.1//EN" "http://www.w3.org/Graphics/SVG/1.1/DTD/svg11.dtd">
<svg version="1.1" id="Layer_1" xmlns="http://www.w3.org/2000/svg" xmlns:xlink="http://www.w3.org/1999/xlink" x="0px" y="0px"
	 viewBox="0 0 128 128" style="enable-background:new 0 0 128 128;" xml:space="preserve">
<g>
	<path d="M7.339,69.246c1.669,0,3.021-1.352,3.022-3.02c0.001-0.001,0.004-18.456,0.004-18.456c0-0.174,0.141-0.314,0.314-0.314
		h0.64c0.174,0,0.314,0.141,0.314,0.314c0,0,0,51.776,0,51.782c0,2.153,1.745,3.898,3.898,3.898s3.898-1.745,3.898-3.898
		c0-0.006,0-30.468,0-30.468c0-0.222,0.103-0.315,0.322-0.315h0.628c0.219,0,0.322,0.093,0.322,0.315c0,0,0,30.462,0,30.468
		c0,2.153,1.745,3.898,3.898,3.898s3.897-1.745,3.897-3.898c0-0.006,0-51.782,0-51.782c0-0.174,0.141-0.314,0.314-0.314h0.64
		c0.174,0,0.314,0.141,0.314,0.314c0,0,0.003,18.455,0.004,18.456c0.001,1.668,1.354,3.02,3.023,3.02
		c1.669,0,3.023-1.353,3.023-3.023c0-0.009,0-20.752,0-20.999c0-4.136-3.181-7.318-7.159-7.318c-0.101,0-5.447,0-7.954,0
		c0,0-9.125,0-9.227,0c-3.977,0-7.159,3.182-7.159,7.318c0,0.247,0,20.99,0,20.999C4.317,67.893,5.67,69.246,7.339,69.246z"/>
	<circle cx="20.066" cy="30.362" r="5.8"/>
	<path d="M111.915,37.896H99.174c-4.749,0-6.431,5.465-7.122,7.865c-0.015,0.051-4.527,14.783-4.529,14.789
		c-0.489,1.596,0.408,3.286,2.004,3.776c1.595,0.489,3.285-0.407,3.775-2.002c0.001,0,4.518-14.725,4.518-14.725
		c0.027-0.062,0.162-0.321,0.477-0.321c0.029,0,0.636,0,0.636,0h0.001c0.18-0.003,0.285,0.15,0.237,0.323l-9.041,29.588
		c-0.049,0.172,0,0.474,0.315,0.474h6.343c0.18,0,0.311,0.146,0.311,0.325c0,0-0.001,21.556-0.001,21.564
		c0,2.153,1.745,3.897,3.898,3.897c2.153,0,3.897-1.745,3.897-3.897l0.001-21.564c0-0.18,0.145-0.325,0.325-0.325h0.005h0.623h0.005
		c0.18,0,0.325,0.145,0.325,0.325l0.001,21.564c0,2.153,1.745,3.897,3.897,3.897s3.897-1.745,3.897-3.897
		c0-0.008-0.001-21.564-0.001-21.564c0-0.18,0.131-0.325,0.311-0.325h6.343c0.315,0,0.364-0.301,0.315-0.474L111.901,47.6
		c-0.048-0.172,0.057-0.325,0.237-0.323h0.001c0,0,0.608,0,0.636,0c0.316,0,0.451,0.258,0.477,0.321c0,0,4.516,14.725,4.518,14.725
		c0.49,1.595,2.18,2.491,3.775,2.002c1.596-0.489,2.494-2.18,2.004-3.776c-0.002-0.006-4.528-14.789-4.528-14.789
		C118.331,43.36,117.012,37.896,111.915,37.896z"/>
	<circle cx="105.537" cy="30.351" r="5.8"/>
	<path d="M84.448,66.762c-0.012-0.046-0.023-0.086-0.032-0.119c-0.441-1.531-1.749-5.018-5.001-5.018h-8.282
		c-3.03,0-4.617,3.486-5.058,5.018c-0.009,0.032-2.888,9.431-2.889,9.435c-0.312,1.018,0.26,2.097,1.278,2.409
		c1.018,0.312,2.096-0.26,2.409-1.277c0.001,0,2.86-9.335,2.86-9.335c0.017-0.04,0.103-0.205,0.304-0.205c0.018,0,0.906,0,0.906,0
		c0.115-0.002,0.182,0.096,0.151,0.206l-5.746,18.905c-0.031,0.11,0,0.302,0.201,0.302h3.988c0.115,0,0.198,0.093,0.198,0.208
		c0,0-0.001,13.666-0.001,13.671c0,1.373,1.113,2.487,2.487,2.487c1.373,0,2.487-1.113,2.487-2.487l0.001-13.671
		c0-0.115,0.093-0.207,0.207-0.207c0,0,0.767,0,0.858,0s0.211,0.093,0.211,0.207l0.001,13.671c0,1.373,1.113,2.487,2.487,2.487
		c1.373,0,2.487-1.113,2.487-2.487c0-0.005-0.001-13.671-0.001-13.671c0-0.115,0.084-0.208,0.199-0.208h3.834
		c0.201,0,0.232-0.192,0.201-0.302l-5.755-18.905c-0.03-0.11,0.024-0.208,0.139-0.206c0,0,0.851,0,0.869,0
		c0.201,0,0.288,0.165,0.304,0.205c0,0,2.869,9.335,2.869,9.335c0.313,1.017,1.391,1.589,2.409,1.277
		c1.018-0.312,1.59-1.391,1.278-2.409C87.304,76.075,85.611,70.554,84.448,66.762z"/>
	<path d="M80.96,52.874c-0.855-0.085-1.746,0.365-2.373,0.787c-0.158,0.106-0.384,0.084-0.522-0.046
		c-0.729-0.679-1.706-1.094-2.781-1.094c-1.033,0-1.977,0.385-2.695,1.018c-0.143,0.125-0.373,0.148-0.533,0.044
		c-0.618-0.397-1.45-0.79-2.254-0.709c-1.411,0.14-1.714,1.763-1.347,2.881c0.06,0.181,0.198,0.455,0.28,0.627
		c0.501,1.041,1.014,2.236,1.341,2.275c0.326,0.041-0.718-2.469,0.032-3.251c0.131-0.137,0.441-0.204,0.632-0.187
		c0.094,0.008,0.204,0.024,0.326,0.053c0.184,0.046,0.278,0.253,0.237,0.438c-0.064,0.288-0.097,0.586-0.097,0.893
		c0,2.254,1.828,4.082,4.082,4.082c2.254,0,4.082-1.828,4.082-4.082c0-0.278-0.029-0.551-0.082-0.814
		c-0.038-0.186,0.055-0.405,0.234-0.466c0.195-0.065,0.367-0.094,0.504-0.107c0.188-0.015,0.499,0.05,0.632,0.187
		c0.75,0.782-0.295,3.292,0.032,3.251c0.324-0.038,0.837-1.233,1.338-2.274c0.082-0.171,0.221-0.446,0.28-0.627
		C82.674,54.636,82.371,53.014,80.96,52.874z"/>
	<path d="M38.143,65.35c0,0.162,0,13.732,0,13.739c0,1.092,0.901,1.93,1.993,1.93c1.092,0,1.983-0.837,1.984-1.928l-0.003-12.024
		c0-0.114,0.089-0.206,0.203-0.206h0.855c0.114,0,0.217,0.092,0.217,0.206c0,0-0.003,33.824-0.003,33.828
		c0,1.408,1.137,2.556,2.545,2.556c1.408,0,2.545-1.134,2.545-2.542c0-0.004,0-20.001,0-20.001c0-0.145,0.067-0.206,0.211-0.206
		h0.842c0.143,0,0.22,0.061,0.22,0.206c0,0,0.003,19.951,0.003,20.001c0,1.408,1.149,2.542,2.558,2.542
		c1.408,0,2.53-1.147,2.53-2.556c0-0.004,0-33.828,0-33.828c0-0.114,0.092-0.206,0.206-0.206h0.868c0.114,0,0.202,0.092,0.202,0.206
		c0,0-0.004,12.024-0.003,12.024c0.001,1.091,0.903,1.928,1.995,1.928c1.092,0,1.982-0.838,1.982-1.93c0-0.006,0-13.577,0-13.739
		c0-2.706-2.544-4.853-5.146-4.853c-0.066,0-11.605,0-11.671,0C40.675,60.496,38.143,62.644,38.143,65.35z"/>
	<path d="M47.202,52.132c-1.302,0.689-2.19,2.056-2.19,3.632c0,2.268,1.839,4.107,4.107,4.107s4.107-1.839,4.107-4.107
		c0-1.402-0.703-2.64-1.776-3.381v-2.405l-1.107,1.864c-0.121-0.038-0.244-0.069-0.37-0.096v-1.768l-1.01,1.682
		c-0.163,0.006-0.325,0.021-0.483,0.046v-1.728L47.202,52.132z"/>
</g>
</svg>
