<?xml version="1.0" encoding="iso-8859-1"?>
<!-- Generator: Adobe Illustrator 17.1.0, SVG Export Plug-In . SVG Version: 6.00 Build 0)  -->
<!DOCTYPE svg PUBLIC "-//W3C//DTD SVG 1.1//EN" "http://www.w3.org/Graphics/SVG/1.1/DTD/svg11.dtd">
<svg version="1.1" id="Layer_1" xmlns="http://www.w3.org/2000/svg" xmlns:xlink="http://www.w3.org/1999/xlink" x="0px" y="0px"
	 viewBox="0 0 128 128" style="enable-background:new 0 0 128 128;" xml:space="preserve">
<g>
	<path d="M64.193,8.154c-0.287-0.199-0.751-0.218-1.037-0.018l-14.114,9.949c-0.286,0.201-0.438,0.07-0.438-0.279v-6.891
		c0-0.349-0.443-0.534-0.793-0.534h-9.169c-0.349,0-0.491,0.185-0.491,0.534v14.212c0,0.349-0.302,0.795-0.589,0.995L2.942,50.471
		c-0.286,0.201-0.27,0.445,0.079,0.445h15.387c0.349,0,0.624,0.119,0.624,0.468v67.977c0,0.349,0.292,0.644,0.641,0.644h87.896
		c0.349,0,0.692-0.294,0.692-0.644V51.384c0-0.349,0.223-0.468,0.572-0.468h16.125c0.35,0,0.4-0.244,0.113-0.443L64.193,8.154z
		 M85.071,47.823c2.616,0,4.737,2.121,4.737,4.737c0,2.616-2.121,4.737-4.737,4.737c-2.616,0-4.737-2.121-4.737-4.737
		C80.334,49.944,82.455,47.823,85.071,47.823z M58.431,76.846c0.635-0.063,1.296,0.25,1.783,0.563
		c0.122,0.079,0.298,0.063,0.406-0.034c0.568-0.501,1.312-0.807,2.13-0.807c0.85,0,1.622,0.33,2.197,0.867
		c0.106,0.099,0.279,0.116,0.398,0.035c0.494-0.333,1.199-0.692,1.876-0.625c1.222,0.122,1.389,1.655,0.959,2.52
		c-0.43,0.865-0.892,2.001-1.173,2.036c-0.259,0.033,0.572-1.957-0.031-2.567c-0.102-0.102-0.339-0.153-0.483-0.142
		c-0.112,0.009-0.253,0.032-0.413,0.087c-0.138,0.046-0.208,0.214-0.179,0.355c0.043,0.209,0.066,0.426,0.066,0.649
		c0,1.776-1.44,3.216-3.216,3.216c-1.776,0-3.216-1.44-3.216-3.216c0-0.245,0.027-0.483,0.079-0.712
		c0.032-0.141-0.041-0.3-0.181-0.335c-0.103-0.025-0.195-0.039-0.273-0.045c-0.145-0.011-0.381,0.038-0.483,0.142
		c-0.603,0.608,0.226,2.599-0.031,2.567c-0.283-0.035-0.744-1.171-1.174-2.036C57.042,78.501,57.208,76.967,58.431,76.846z
		 M40.585,47.807c2.625,0,4.753,2.128,4.753,4.753c0,2.625-2.128,4.753-4.753,4.753c-2.625,0-4.753-2.128-4.753-4.753
		C35.832,49.935,37.96,47.807,40.585,47.807z M98.344,80.756c-1.303,0.399-2.683-0.332-3.083-1.635
		c-0.001,0-3.69-12.027-3.69-12.027c-0.022-0.051-0.132-0.262-0.39-0.262c-0.023,0-0.52,0-0.52,0H90.66
		c-0.147-0.002-0.232,0.123-0.194,0.263l7.385,24.167c0.04,0.141,0,0.387-0.257,0.387h-5.18c-0.147,0-0.254,0.119-0.254,0.266
		c0,0,0.001,17.606,0.001,17.612c0,1.758-1.425,3.183-3.183,3.183c-1.758,0-3.183-1.425-3.183-3.183l-0.001-17.613
		c0-0.147-0.119-0.266-0.265-0.266h-0.004h-0.509H85.01c-0.147,0-0.265,0.119-0.265,0.266l-0.001,17.613
		c0,1.758-1.425,3.183-3.183,3.183s-3.183-1.425-3.183-3.183c0-0.006,0.001-17.612,0.001-17.612c0-0.147-0.107-0.266-0.254-0.266
		h-5.181c-0.257,0-0.297-0.246-0.257-0.387l7.384-24.167c0.039-0.141-0.047-0.266-0.194-0.263h-0.001c0,0-0.496,0-0.52,0
		c-0.258,0-0.368,0.211-0.39,0.262c0,0-4,12.911-4.001,12.911c-0.275,0.624-0.859,1.613-1.263,2.199l-4.886,7.965
		c-0.076,0.123-0.117,0.339-0.092,0.482l2.155,10.391c0.025,0.142-0.072,0.258-0.217,0.258l-1.354,0c-0.004,3.656,0,8.673,0,8.673
		c-0.162,1.451-1.476,2.793-3.076,2.793c-1.694,0-2.925-1.412-2.949-2.957l-0.003-7.83c0-0.143-0.115-0.258-0.258-0.258h-0.386
		c-0.142,0-0.258,0.115-0.258,0.258l-0.001,7.79c-0.025,1.545-1.551,2.997-3.245,2.997s-3.04-1.461-3.064-3.006v-8.46l-1.388,0
		c-0.145,0-0.239-0.115-0.21-0.257l2.151-10.603c0.029-0.143-0.007-0.359-0.081-0.483c0,0-5.289-9.199-5.331-9.339l0.004-0.001
		c-0.2-0.355-0.339-0.765-0.412-1.203c-0.001,0-2.033-12.567-2.033-12.567c0-0.142-0.115-0.258-0.258-0.258h-0.525
		c-0.142,0-0.258,0.115-0.258,0.258c0,0,0,42.43,0,42.435c0,1.764-1.43,3.194-3.194,3.194s-3.194-1.43-3.194-3.194
		c0-0.005,0-24.969,0-24.969c0-0.182-0.084-0.258-0.264-0.258H40.56c-0.18,0-0.264,0.076-0.264,0.258c0,0,0,24.964,0,24.969
		c0,1.764-1.43,3.194-3.194,3.194c-1.764,0-3.194-1.43-3.194-3.194c0-0.005,0-42.435,0-42.435c0-0.142-0.115-0.258-0.258-0.258
		h-0.525c-0.142,0-0.258,0.115-0.258,0.258c0,0-0.002,15.124-0.003,15.125c-0.001,1.367-1.11,2.475-2.477,2.475
		c-1.368,0-2.477-1.109-2.477-2.477c0-0.008,0-17.006,0-17.209c0-3.39,2.607-5.997,5.867-5.997c0.083,0,4.464,0,6.519,0
		c0,0,7.479,0,7.562,0c3.259,0,5.386,2.628,5.867,5.997c0.026,0.185,1.728,12.492,1.996,14.402l3.093,5.139
		c0.076,0.123,0.255,0.223,0.4,0.223h7.123c0.145,0,0.328-0.099,0.406-0.219c0,0,2.913-4.504,3.375-5.262
		c0.67-2.179,4.137-13.45,4.137-13.45c0.564-1.96,1.641-6.423,5.804-6.423h10.406c3.879,0,5.253,4.463,5.817,6.423
		c0.012,0.042,3.697,12.074,3.699,12.079C100.38,78.976,99.648,80.356,98.344,80.756z"/>
</g>
</svg>
