<?xml version="1.0" encoding="iso-8859-1"?>
<!-- Generator: Adobe Illustrator 17.1.0, SVG Export Plug-In . SVG Version: 6.00 Build 0)  -->
<!DOCTYPE svg PUBLIC "-//W3C//DTD SVG 1.1//EN" "http://www.w3.org/Graphics/SVG/1.1/DTD/svg11.dtd">
<svg version="1.1" id="Layer_1" xmlns="http://www.w3.org/2000/svg" xmlns:xlink="http://www.w3.org/1999/xlink" x="0px" y="0px"
	 viewBox="0 0 128 128" style="enable-background:new 0 0 128 128;" xml:space="preserve">
<g>
	<path d="M11.442,40.047c-0.019,0.067-5.945,19.414-5.947,19.422c-0.643,2.096,0.535,4.316,2.631,4.959
		c2.095,0.642,4.314-0.534,4.958-2.629c0.002,0,5.933-19.338,5.933-19.338c0.035-0.082,0.212-0.421,0.627-0.421
		c0.038,0,0.836,0,0.836,0h0.002c0.236-0.004,0.374,0.197,0.312,0.424L8.919,81.32c-0.064,0.226,0,0.622,0.413,0.622h8.33
		c0.236,0,0.408,0.191,0.408,0.427c0,0-0.002,28.309-0.002,28.319c0,2.827,2.292,5.119,5.119,5.119c2.827,0,5.118-2.292,5.118-5.119
		l0.002-28.319c0-0.236,0.191-0.427,0.427-0.427h0.007h0.818h0.007c0.236,0,0.427,0.191,0.427,0.427l0.002,28.319
		c0,2.827,2.292,5.119,5.119,5.119s5.119-2.292,5.119-5.119c0-0.01-0.002-28.319-0.002-28.319c0-0.236,0.173-0.427,0.408-0.427h8.33
		c0.413,0,0.478-0.396,0.413-0.622L37.508,42.463c-0.062-0.226,0.075-0.427,0.311-0.424h0.002c0,0,0.798,0,0.836,0
		c0.414,0,0.592,0.339,0.627,0.421c0,0,5.964,19.423,5.979,19.466c0.202,0.78,0.334,1.081,0.637,1.642l8.972,16.843
		c0.114,0.197,0.207,0.542,0.207,0.77v29.809c0.039,2.476,2.196,4.817,4.91,4.817s5.161-2.327,5.2-4.803l0.002-12.482
		c0-0.228,0.185-0.413,0.413-0.413h0.619c0.228,0,0.413,0.185,0.413,0.413l0.004,12.547c0.039,2.476,2.012,4.739,4.726,4.739
		c2.563,0,4.67-2.149,4.929-4.474c0.025-0.227,0.04-29.668,0.04-29.668s0.09-0.574,0.201-0.773c0,0,8.142-15.894,9.011-17.448
		c0.184-0.329,0.337-0.617,0.454-1.063c0.006-0.021,3.257-19.696,3.257-19.696c0-0.228,0.185-0.413,0.413-0.413h0.841
		c0.228,0,0.413,0.185,0.413,0.413c0,0,0,67.995,0,68.003c0,2.827,2.292,5.119,5.119,5.119c2.827,0,5.119-2.292,5.119-5.119
		c0-0.008,0-40.012,0-40.012c0-0.292,0.135-0.413,0.423-0.413h0.825c0.288,0,0.423,0.122,0.423,0.413c0,0,0,40.005,0,40.012
		c0,2.827,2.292,5.119,5.119,5.119s5.119-2.292,5.119-5.119c0-0.008,0-68.003,0-68.003c0-0.228,0.185-0.413,0.413-0.413h0.841
		c0.228,0,0.413,0.185,0.413,0.413c0,0,0.003,24.237,0.005,24.238c0.001,2.191,1.778,3.966,3.969,3.966
		c2.192,0,3.969-1.777,3.969-3.969c0-0.012,0-27.253,0-27.577c-0.001-5.432-4.179-9.61-9.402-9.61c-0.133,0-7.153,0-10.446,0
		c0,0-11.984,0-12.117,0c-5.223,0-9.401,4.178-9.401,9.61c0,0.273-2.209,15.692-2.908,20.567l-4.852,10.063
		c-0.23,0.398-0.491,0.554-0.979,0.554H58.67c-0.228,0-0.505-0.16-0.618-0.358c0,0-4.176-8.634-5.159-10.358
		c-0.024-0.114-6.033-19.764-6.033-19.764c-0.907-3.152-2.638-10.328-9.332-10.328H20.795
		C14.558,29.718,12.349,36.895,11.442,40.047z"/>
	<circle cx="101.997" cy="19.824" r="7.617"/>
	<circle cx="29.15" cy="19.81" r="7.617"/>
	<path d="M63.371,57.916c-1.753,0.927-2.948,2.767-2.948,4.888c0,3.052,2.474,5.526,5.526,5.526c3.052,0,5.527-2.474,5.527-5.526
		c0-1.887-0.946-3.552-2.39-4.549v-3.236l-1.49,2.509c-0.163-0.051-0.329-0.093-0.497-0.129v-2.38l-1.359,2.264
		c-0.22,0.008-0.437,0.028-0.649,0.061v-2.326L63.371,57.916z"/>
</g>
</svg>
