<?xml version="1.0" encoding="iso-8859-1"?>
<!-- Generator: Adobe Illustrator 17.1.0, SVG Export Plug-In . SVG Version: 6.00 Build 0)  -->
<!DOCTYPE svg PUBLIC "-//W3C//DTD SVG 1.1//EN" "http://www.w3.org/Graphics/SVG/1.1/DTD/svg11.dtd">
<svg version="1.1" id="Layer_1" xmlns="http://www.w3.org/2000/svg" xmlns:xlink="http://www.w3.org/1999/xlink" x="0px" y="0px"
	 viewBox="0 0 128 128" style="enable-background:new 0 0 128 128;" xml:space="preserve">
<g>
	<path d="M109.497,55.26h-0.733c-0.199,0-0.36,0.161-0.36,0.36c0,0,0,12.714,0,26.37c0.765-1.011,1.505-2.033,2.219-3.065
		c-0.475-0.592-0.761-1.343-0.761-2.161c-0.001-0.001-0.005-21.144-0.005-21.144C109.857,55.421,109.696,55.26,109.497,55.26z"/>
	<path d="M98.384,79.678c-0.251,0-0.369,0.106-0.369,0.361c0,0,0,6.296,0,13.539c0.491-0.464,0.977-0.934,1.458-1.409
		c0-6.631,0-12.13,0-12.13c0-0.254-0.118-0.361-0.369-0.361H98.384z"/>
	<path d="M10.976,67.983c0-6.806,0-15.112,0-15.278c0-4.739,3.645-8.384,8.202-8.384c0.116,0,10.571,0,10.571,0
		c2.872,0,8.997,0,9.113,0c4.556,0,8.202,3.645,8.202,8.384c0,0.283,0,24.047,0,24.058c0,1.912-1.55,3.463-3.463,3.463
		c-1.912,0-3.461-1.549-3.463-3.46c-0.001-0.001-0.005-21.144-0.005-21.144c0-0.199-0.161-0.36-0.36-0.36h-0.733
		c-0.199,0-0.36,0.161-0.36,0.36c0,0,0,27.685,0,45.23c5.947,4.373,12.343,7.923,18.89,10.292c0-4.631,0.001-11.225,0.001-11.225
		c0-0.131-0.096-0.238-0.227-0.238h-4.569c-0.23,0-0.266-0.22-0.23-0.346l6.583-21.658c0.035-0.126-0.042-0.238-0.173-0.236
		c0,0-1.018,0-1.038,0c-0.231,0-0.329,0.189-0.349,0.234c0,0-3.275,10.695-3.277,10.695c-0.358,1.166-1.593,1.82-2.759,1.463
		c-1.167-0.358-1.822-1.594-1.464-2.76c0.001-0.004,3.299-10.772,3.31-10.81c0.505-1.754,2.323-5.749,5.794-5.749h9.489
		c3.726,0,5.225,3.994,5.729,5.749c0.011,0.037,0.023,0.083,0.037,0.136c1.332,4.344,3.272,10.669,3.273,10.674
		c0.358,1.167-0.298,2.402-1.464,2.76c-1.166,0.357-2.401-0.297-2.759-1.463c-0.001,0-3.287-10.695-3.287-10.695
		c-0.019-0.046-0.118-0.234-0.349-0.234c-0.021,0-0.996,0-0.996,0c-0.131-0.002-0.193,0.11-0.159,0.236l6.594,21.658
		c0.036,0.126,0,0.346-0.23,0.346h-4.392c-0.131,0-0.227,0.106-0.227,0.238c0,0,0,6.595,0.001,11.226
		c6.461-2.337,12.775-5.825,18.656-10.119c0-17.535,0-45.404,0-45.404c0-0.199-0.161-0.36-0.36-0.36h-0.733
		c-0.199,0-0.36,0.161-0.36,0.36c0,0-0.003,21.143-0.005,21.144c-0.001,1.911-1.551,3.46-3.463,3.46
		c-1.912,0-3.463-1.55-3.463-3.463c0-0.011,0-23.774,0-24.058c0-4.739,3.645-8.384,8.201-8.384c0.116,0,10.571,0,10.571,0
		c2.872,0,8.997,0,9.113,0c4.556,0,8.201,3.645,8.201,8.384c0,0.171,0,8.875,0,15.764c8.136-16.615,8.921-34.136-3.325-45.796
		c-21.484-19.693-45.893,4.045-49.03,7.274C64.245,30.138,64.055,30.297,64,30.3c-0.055-0.003-0.245-0.162-0.432-0.354
		c-3.137-3.229-27.547-26.967-49.03-7.273C2.412,34.219,3.062,51.513,10.976,67.983z M98.744,29.032c3.67,0,6.645,2.975,6.645,6.645
		s-2.975,6.645-6.645,6.645s-6.645-2.975-6.645-6.645S95.074,29.032,98.744,29.032z M57.646,60.486
		c0.921-0.092,1.874,0.357,2.582,0.812c0.183,0.118,0.447,0.092,0.61-0.051c0.823-0.725,1.904-1.167,3.088-1.167
		c1.231,0,2.351,0.476,3.186,1.254c0.159,0.148,0.417,0.174,0.598,0.052c0.718-0.483,1.738-0.999,2.718-0.902
		c1.616,0.161,1.963,2.019,1.543,3.301c-0.068,0.208-0.227,0.523-0.321,0.718c-0.574,1.193-1.161,2.562-1.533,2.605
		c-0.375,0.047,0.823-2.828-0.037-3.724c-0.152-0.157-0.507-0.232-0.724-0.214c-0.157,0.014-0.354,0.047-0.577,0.122
		c-0.206,0.07-0.312,0.321-0.268,0.533c0.061,0.302,0.094,0.614,0.094,0.933c0,2.582-2.094,4.676-4.676,4.676
		c-2.582,0-4.677-2.094-4.677-4.676c0-0.352,0.038-0.694,0.111-1.023c0.047-0.213-0.061-0.45-0.272-0.502
		c-0.139-0.033-0.265-0.052-0.373-0.061c-0.218-0.019-0.574,0.058-0.724,0.214c-0.86,0.896,0.337,3.771-0.037,3.724
		c-0.375-0.045-0.962-1.414-1.536-2.607c-0.094-0.197-0.253-0.511-0.321-0.719C55.683,62.506,56.03,60.647,57.646,60.486z
		 M29.02,29.032c3.67,0,6.645,2.975,6.645,6.645s-2.975,6.645-6.645,6.645s-6.645-2.975-6.645-6.645S25.35,29.032,29.02,29.032z"/>
	<path d="M28.66,79.678c-0.251,0-0.369,0.106-0.369,0.361c0,0,0,5.369,0,11.896c0.481,0.478,0.967,0.951,1.458,1.419
		c0-7.149,0-13.315,0-13.315c0-0.254-0.118-0.361-0.369-0.361H28.66z"/>
	<path d="M64.489,99.679c-0.104,0-0.983,0-0.983,0c-0.131,0-0.237,0.106-0.237,0.237l-0.001,12.971
		c0.237,0.06,0.475,0.119,0.713,0.175h0.041c0.237-0.056,0.473-0.115,0.71-0.174L64.73,99.917
		C64.73,99.785,64.593,99.679,64.489,99.679z"/>
	<path d="M18.267,55.26c-0.199,0-0.36,0.161-0.36,0.36c0,0-0.003,21.143-0.005,21.144c0,0.744-0.238,1.432-0.638,1.996
		c0.676,0.982,1.375,1.955,2.096,2.918c0-13.537,0-26.058,0-26.058c0-0.199-0.161-0.36-0.36-0.36H18.267z"/>
</g>
</svg>
