<?xml version="1.0" encoding="iso-8859-1"?>
<!-- Generator: Adobe Illustrator 17.1.0, SVG Export Plug-In . SVG Version: 6.00 Build 0)  -->
<!DOCTYPE svg PUBLIC "-//W3C//DTD SVG 1.1//EN" "http://www.w3.org/Graphics/SVG/1.1/DTD/svg11.dtd">
<svg version="1.1" id="Layer_1" xmlns="http://www.w3.org/2000/svg" xmlns:xlink="http://www.w3.org/1999/xlink" x="0px" y="0px"
	 viewBox="0 0 128 128" style="enable-background:new 0 0 128 128;" xml:space="preserve">
<g>
	<circle cx="17.692" cy="98.501" r="4.819"/>
	<circle cx="40.411" cy="98.501" r="4.819"/>
	<path d="M3.56,62.829l9.901,28.551c0.039,0.227,0.257,0.654,0.487,0.656h30.389c0.23,0.002,0.434-0.183,0.454-0.412
		c0,0,0.021-33.105,0.021-33.317s0.186-0.417,0.417-0.417h3.672c0.23,0,0.417-0.187,0.417-0.417v-2.369
		c0-0.23-0.187-0.417-0.417-0.417h-7.273c-0.23,0-0.417,0.187-0.417,0.417v6.824c0,0.23-0.187,0.417-0.417,0.418H3.907
		C3.677,62.347,3.521,62.603,3.56,62.829z M41.395,86.44c0,0.23-0.187,0.417-0.417,0.417H15.546c-0.23,0-0.417-0.187-0.417-0.417
		v-2.085c0-0.23,0.187-0.417,0.417-0.417h25.432c0.23,0,0.417,0.187,0.417,0.417V86.44z M41.395,80.884
		c0,0.23-0.187,0.417-0.417,0.417H13.29c-0.23,0-0.417-0.187-0.417-0.417v-2.085c0-0.23,0.187-0.417,0.417-0.417h27.688
		c0.23,0,0.417,0.187,0.417,0.417V80.884z M41.395,75.379c0,0.23-0.187,0.417-0.417,0.417H11.366c-0.23,0-0.417-0.187-0.417-0.417
		v-2.085c0-0.23,0.187-0.417,0.417-0.417h29.612c0.23,0,0.417,0.187,0.417,0.417V75.379z M9.076,67.899
		c0-0.23,0.187-0.417,0.417-0.417h31.485c0.23,0,0.417,0.187,0.417,0.417v2.085c0,0.23-0.187,0.417-0.417,0.417H9.493
		c-0.23,0-0.417-0.187-0.417-0.417V67.899z"/>
	<circle cx="67.281" cy="17.393" r="8.162"/>
	<path d="M91.221,109.834c0.327,0,0.659-0.039,0.989-0.122c2.185-0.545,3.516-2.757,2.971-4.943L84.947,63.707
		c1.078-0.354,2.986-1.615,2.439-5.55l-5.575-30.561c-0.176-0.966-1.055-1.615-1.962-1.449l-12.591,2.419
		c-0.102,0.014-0.201,0.033-0.301,0.055l-0.178,0.032c-0.127,0.023-0.245,0.064-0.358,0.114c-1.03,0.369-1.916,1.134-2.399,2.21
		L59.084,42.15c0,0-5.801,1.364-6.867,1.618l-2.261,0.527c-2.193,0.511-3.557,2.704-3.045,4.897
		c0.439,1.882,2.115,3.152,3.968,3.152c0.307,0,0.618-0.035,0.929-0.108l7.316-1.707c0.199-0.046,0.383-0.121,0.567-0.194
		l3.344-0.788c1.253-0.304,2.295-1.169,2.824-2.345l1.856-4.113l3.351,18.884L59.766,77.835c-0.436,0.613-0.695,1.334-0.747,2.085
		l-1.767,25.554c-0.155,2.247,1.54,4.194,3.787,4.349c0.096,0.006,0.19,0.01,0.285,0.01c2.124,0,3.915-1.646,4.064-3.797
		l1.688-24.407l10.322-14.487l9.869,39.598C87.729,108.595,89.393,109.834,91.221,109.834z"/>
	<circle cx="108.547" cy="48.619" r="7.054"/>
	<path d="M123.394,78.782c1.211-1.13,0.564-2.574,0.147-4.24l-4-14.208c-0.208-1.083-1.008-1.45-1.61-1.566
		c-0.152-0.037-0.31-0.062-0.473-0.062h-11.438c-0.009,0-0.018,0.003-0.027,0.003c-0.007,0-0.015,0.002-0.022,0.002
		c-0.148,0.004-0.291,0.025-0.429,0.059c-0.607,0.117-1.185,0.414-1.637,0.904L92.502,71.902c-1.123,1.219-1.044,3.116,0.174,4.238
		c0.577,0.531,1.305,0.794,2.032,0.794c0.81,0,1.616-0.325,2.208-0.968l7.106-7.62v6.728l-3.471,26.409
		c-0.249,1.917,1.103,3.672,3.02,3.921c0.153,0.02,0.305,0.029,0.455,0.029c1.732,0,3.237-1.285,3.466-3.05l2.457-18.929h2.732
		l0.654,18.602c0.067,1.89,1.62,3.377,3.496,3.377c0.042,0,0.083-0.001,0.125-0.002c1.932-0.068,3.443-1.689,3.375-3.621
		l-0.804-22.852c0.535,0.411,1.175,0.629,1.821,0.629C122.081,79.589,122.816,79.322,123.394,78.782z"/>
</g>
</svg>
