<?xml version="1.0" encoding="iso-8859-1"?>
<!-- Generator: Adobe Illustrator 17.1.0, SVG Export Plug-In . SVG Version: 6.00 Build 0)  -->
<!DOCTYPE svg PUBLIC "-//W3C//DTD SVG 1.1//EN" "http://www.w3.org/Graphics/SVG/1.1/DTD/svg11.dtd">
<svg version="1.1" id="Layer_1" xmlns="http://www.w3.org/2000/svg" xmlns:xlink="http://www.w3.org/1999/xlink" x="0px" y="0px"
	 viewBox="0 0 128 128" style="enable-background:new 0 0 128 128;" xml:space="preserve">
<g>
	<circle cx="45.391" cy="12.682" r="8.8"/>
	<path d="M93.883,66.048c0.52-0.064,1.376-2.167,2.172-3.769s0.486-4.441-1.776-4.666c-1.254-0.125-2.559,0.54-3.473,1.157
		c-0.221,0.15-0.542,0.118-0.737-0.065c-1.065-0.996-2.495-1.606-4.068-1.606c-1.514,0-2.892,0.566-3.944,1.495
		c-0.2,0.179-0.527,0.209-0.753,0.062c-0.901-0.581-2.125-1.159-3.301-1.043c-2.264,0.223-2.572,3.064-1.776,4.666
		c0.796,1.602,1.65,3.705,2.174,3.77c0.477,0.06-1.058-3.625,0.058-4.752c0.189-0.191,0.626-0.284,0.895-0.262
		c0.144,0.011,0.314,0.037,0.505,0.084c0.26,0.065,0.394,0.359,0.335,0.619c-0.097,0.424-0.146,0.864-0.146,1.318
		c0,3.288,2.667,5.954,5.954,5.954s5.954-2.666,5.954-5.954c0-0.413-0.043-0.815-0.123-1.202c-0.054-0.262,0.075-0.572,0.331-0.658
		c0.297-0.101,0.559-0.144,0.766-0.161c0.267-0.021,0.705,0.073,0.895,0.262C94.941,62.424,93.404,66.108,93.883,66.048z"/>
	<path d="M21.493,35.234c0,0.375,0,31.849,0,31.863c0,2.533,2.053,4.586,4.586,4.586c2.532,0,4.584-2.052,4.586-4.583
		c0.002-0.001,0.006-28.004,0.006-28.004c0-0.263,0.214-0.477,0.477-0.477h0.972c0.263,0,0.477,0.214,0.477,0.477
		c0,0,0,78.563,0,78.572c0,3.266,2.648,5.914,5.914,5.914s5.914-2.648,5.914-5.914c0-0.009,0-46.231,0-46.231
		c0-0.337,0.156-0.478,0.489-0.478h0.954c0.333,0,0.489,0.141,0.489,0.478c0,0,0,46.222,0,46.231c0,3.266,2.648,5.914,5.914,5.914
		s5.914-2.648,5.914-5.914c0-0.009,0-78.572,0-78.572c0-0.263,0.214-0.477,0.477-0.477h0.972c0.264,0,0.477,0.214,0.477,0.477
		c0,0,3.763,23.267,3.766,23.268c0.135,0.811,0.394,1.57,0.763,2.228l-0.007,0.002c0.078,0.258,9.87,17.291,9.87,17.291
		c0.137,0.23,0.204,0.63,0.15,0.895l-3.984,19.633c-0.054,0.262,0.12,0.475,0.389,0.475l2.571,0v15.665
		c0.046,2.862,2.537,5.566,5.674,5.566c3.136,0,5.963-2.688,6.009-5.55l0.002-14.423c0-0.264,0.214-0.477,0.477-0.477h0.715
		c0.263,0,0.477,0.214,0.477,0.477l0.005,14.498c0.046,2.861,2.324,5.475,5.461,5.475c2.962,0,5.396-2.484,5.695-5.17
		c0.018-0.164,0.032-9.29,0.04-16.059l2.468,0c0.269,0,0.447-0.215,0.402-0.477l-3.991-19.239c-0.047-0.265,0.03-0.664,0.17-0.892
		l8.44-13.754c0.946-1.342,1.148-3.082,0.295-4.509c-1.151-1.922-4.446-2.546-6.368-1.396c-0.555,0.333-1.002,0.778-1.329,1.29
		c-0.144,0.226-0.355,0.606-0.503,0.83l-4.374,6.679c-0.146,0.223-0.484,0.406-0.753,0.406H79.45c-0.269,0-0.6-0.185-0.74-0.413
		l-5.727-9.514c-0.495-3.537-3.695-26.321-3.695-26.667c0-6.276-4.828-11.104-10.863-11.104c-0.154,0-14,0-14,0
		c-3.804,0-11.916,0-12.069,0C26.321,24.13,21.493,28.958,21.493,35.234z"/>
</g>
</svg>
