<?xml version="1.0" encoding="utf-8"?>
<!-- Generator: Adobe Illustrator 16.0.0, SVG Export Plug-In . SVG Version: 6.00 Build 0)  -->
<!DOCTYPE svg PUBLIC "-//W3C//DTD SVG 1.1//EN" "http://www.w3.org/Graphics/SVG/1.1/DTD/svg11.dtd">
<svg version="1.1" id="Layer_2" xmlns="http://www.w3.org/2000/svg" xmlns:xlink="http://www.w3.org/1999/xlink" x="0px" y="0px"
	 width="126px" height="126px" viewBox="0 0 126 126" enable-background="new 0 0 126 126" xml:space="preserve">
<g>
	<path d="M119.457,89.519c-11.583-5.124-16.733-16.345-18.16-20.035c1.146-2.326,1.286-5.063-0.376-7.297L88.802,45.908
		c-2.259-3.031-6.404-3.087-9.338-1.847l-0.024,0.014c0,0-1.018,0.473-1.822,1.042c-0.84,0.596-1.441,1.409-1.441,1.409
		c-1.274,1.54-2.195,3.704-2.136,5.851c-1.644,1.136-4.188,1.993-7.155,1.797c-1.98-0.132-4.568-0.776-6.964-2.812
		c0.055-0.526,0.03-1.069-0.086-1.613c-0.604-2.806-3.37-4.586-6.169-3.988c-8.029,1.723-12.593,1.823-15.259,0.33
		c-2.636-1.475-4.759-5.221-7.941-11.215c-0.116-0.215-0.248-0.415-0.387-0.608c-1.814-3.714-6.017-5.79-9.762-6.182
		c0,0-1.454-0.226-2.933,0.011c-1.416,0.225-2.955,0.772-2.955,0.772l-0.038,0.013c-4.306,1.701-8.56,5.987-7.813,11.438
		l4.012,29.255c0.2,1.468,0.73,2.751,1.483,3.86c-0.197,4.837-0.807,19.175-1.175,23.931c-0.221,2.855-3.591,11.521-6.584,17.912
		c-1.658,3.542-0.133,7.758,3.407,9.419c0.973,0.455,1.994,0.67,3.002,0.67c2.661,0,5.212-1.507,6.417-4.077
		c1.222-2.607,7.348-15.964,7.88-22.827c0.163-2.101,0.365-5.837,0.559-9.837c1.68,4.063,3.278,7.975,4.057,10.03
		c1.005,2.651,1.555,11.474,1.49,18.124c-0.04,3.911,3.098,7.115,7.011,7.153c0.024,0,0.047,0,0.073,0
		c3.877,0,7.04-3.121,7.079-7.008c0.028-2.753,0.046-16.813-2.406-23.288c-1.695-4.472-6.793-16.635-8.964-21.795
		c0.866-1.625,1.281-3.512,0.994-5.603l-1.517-11.084c2.733,1.55,5.957,2.335,10.104,2.335c3.118,0,6.765-0.442,11.097-1.317
		c3.253,3.037,7.32,4.824,11.816,5.122c3.259,0.216,6.475-0.382,9.214-1.635c0.594-0.271,1.158-0.576,1.701-0.905l10.059,13.506
		c1.423,1.913,3.509,2.642,5.589,2.597c2.635,6.037,9.205,17.66,22.538,23.562c1.328,0.587,2.773,0.535,3.996-0.026
		c1.044-0.477,1.925-1.324,2.425-2.455C123.025,93.479,121.915,90.607,119.457,89.519z"/>
	<path d="M75.835,46.069c4.072-3.032,4.916-8.791,1.884-12.864c-3.035-4.072-8.793-4.915-12.866-1.885
		c-4.071,3.035-4.915,8.794-1.882,12.864C66.001,48.258,71.762,49.103,75.835,46.069z"/>
	<circle cx="18.393" cy="14.013" r="13.378"/>
</g>
</svg>
