<?xml version="1.0" encoding="utf-8"?>
<!-- Generator: Adobe Illustrator 16.0.4, SVG Export Plug-In . SVG Version: 6.00 Build 0)  -->
<!DOCTYPE svg PUBLIC "-//W3C//DTD SVG 1.1//EN" "http://www.w3.org/Graphics/SVG/1.1/DTD/svg11.dtd">
<svg version="1.1" id="Layer_1" xmlns="http://www.w3.org/2000/svg" xmlns:xlink="http://www.w3.org/1999/xlink" x="0px" y="0px"
	 width="50px" height="50px" viewBox="0 0 50 50" enable-background="new 0 0 50 50" xml:space="preserve">
<path d="M35.346,8.834H14.654c-1.784,0-3.234,1.449-3.234,3.232v25.868c0,1.782,1.45,3.231,3.234,3.231h20.692
	c1.783,0,3.233-1.449,3.233-3.231V12.066C38.58,10.283,37.13,8.834,35.346,8.834z M35.346,39.873H14.654
	c-1.07,0-1.94-0.87-1.94-1.939V12.066c0-1.069,0.87-1.939,1.94-1.939h20.692c1.069,0,1.939,0.87,1.939,1.939v25.868h0.001
	C37.286,39.003,36.416,39.873,35.346,39.873z M15.589,14.564c0-0.329,0.265-0.595,0.593-0.595h13.636
	c0.328,0,0.594,0.266,0.594,0.595c0,0.328-0.266,0.594-0.594,0.594H16.182C15.854,15.158,15.589,14.893,15.589,14.564z
	 M15.589,17.271c0-0.328,0.265-0.594,0.593-0.594h13.636c0.328,0,0.594,0.266,0.594,0.594s-0.266,0.594-0.594,0.594H16.182
	C15.854,17.865,15.589,17.599,15.589,17.271z M15.589,19.978c0-0.328,0.265-0.594,0.593-0.594h13.636
	c0.328,0,0.594,0.266,0.594,0.594c0,0.329-0.266,0.595-0.594,0.595H16.182C15.854,20.573,15.589,20.308,15.589,19.978z
	 M23.594,22.688c0,0.328-0.265,0.594-0.593,0.594h-6.818c-0.328,0-0.594-0.266-0.594-0.594c0-0.329,0.266-0.595,0.594-0.595h6.818
	C23.329,22.093,23.594,22.358,23.594,22.688z M21.549,28.034c0,0.327-0.265,0.594-0.593,0.594h-4.773
	c-0.329,0-0.594-0.267-0.594-0.594c0-0.329,0.265-0.595,0.594-0.595h4.773C21.284,27.439,21.549,27.705,21.549,28.034z
	 M34.792,25.02c-1.676-2.901-5.399-3.897-8.302-2.224c-2.9,1.676-3.899,5.399-2.223,8.297c1.674,2.906,5.397,3.899,8.297,2.226
	C35.469,31.645,36.467,27.92,34.792,25.02z M25.14,30.592c-1.4-2.422-0.567-5.527,1.854-6.926c2.42-1.396,5.525-0.563,6.926,1.857
	c1.396,2.422,0.564,5.526-1.855,6.927C29.641,33.85,26.537,33.014,25.14,30.592z M36.104,36.426l-2.611,1.51l-2.012-3.48l2.611-1.51
	L36.104,36.426z M36.377,36.902c0.418,0.723,0.17,1.646-0.552,2.062c-0.722,0.416-1.644,0.171-2.063-0.553L36.377,36.902z"/>
</svg>
