<?xml version="1.0" encoding="utf-8"?>
<!-- Generator: Adobe Illustrator 16.0.0, SVG Export Plug-In . SVG Version: 6.00 Build 0)  -->
<!DOCTYPE svg PUBLIC "-//W3C//DTD SVG 1.1//EN" "http://www.w3.org/Graphics/SVG/1.1/DTD/svg11.dtd">
<svg version="1.1" id="Layer_1" xmlns="http://www.w3.org/2000/svg" xmlns:xlink="http://www.w3.org/1999/xlink" x="0px" y="0px"
	 width="126px" height="126px" viewBox="0 0 126 126" enable-background="new 0 0 126 126" xml:space="preserve">
<g>
	<circle cx="62.525" cy="14.196" r="13.435"/>
	<path d="M77.111,11.271c0.195,0.961,0.3,1.955,0.3,2.973c0,2.915-0.856,5.629-2.313,7.926c2.302,1.429,4.295,2.917,5.385,4.049
		c-1.413,0.587-4.356,1.436-10.191,1.99c-0.385-0.235-0.781-0.451-1.184-0.652c-1.792,0.886-3.782,1.417-5.889,1.511l-0.665,0.669
		l-0.636-0.668c-2.126-0.09-4.134-0.625-5.939-1.521c-0.36,0.181-0.714,0.375-1.059,0.583c-5.315-0.553-8.055-1.352-9.404-1.912
		c0.988-1.025,2.717-2.344,4.743-3.645c-1.616-2.378-2.563-5.246-2.563-8.331c0-0.839,0.086-1.657,0.22-2.458
		c-6.675,3.615-14.689,9.503-13.458,16.504c1.033,5.87,7.43,8.339,14.354,9.538c-0.001,0.074-0.011,0.145-0.011,0.219v29.656
		c0,1.684,0.388,3.232,1.061,4.622l-12.001,45.166c-0.874,3.29,1.085,6.667,4.375,7.541c0.531,0.141,1.063,0.208,1.587,0.208
		c2.726,0,5.22-1.823,5.954-4.583l10.951-41.217c0.604,0.07,1.211,0.119,1.825,0.119c0.602,0,1.198-0.046,1.79-0.115l10.95,41.213
		c0.734,2.76,3.228,4.583,5.954,4.583c0.524,0,1.057-0.067,1.587-0.208c3.291-0.874,5.25-4.25,4.375-7.541L75.222,72.376
		c0.688-1.403,1.083-2.97,1.083-4.673V38.047c0-0.023-0.003-0.045-0.004-0.069c7.257-1.141,14.163-3.568,15.24-9.688
		C92.833,20.945,83.95,14.826,77.111,11.271z M62.585,56.328h-0.063l-3.24-4.434l3.24-21.658h0.063l3.24,21.658L62.585,56.328z"/>
</g>
</svg>
