<svg width="64" xmlns="http://www.w3.org/2000/svg" height="64" viewBox="0 0 64 64" xmlns:xlink="http://www.w3.org/1999/xlink" enable-background="new 0 0 64 64">
<g fill="#0e0f0f">
<ellipse cx="31.769" cy="31.85" rx="10.33" ry="13.919"/>
<path d="m34.932,25.712c4.953,1.823 8.389,5.863 8.778,11.199 .324,4.391 7.19,4.461 6.865,.049-.633-8.608-5.806-14.916-13.831-17.869-1.757-.648-3.752,.717-4.215,2.404-.527,1.922 .653,3.572 2.403,4.217z"/>
<path d="m27.465,18.687c-7.999,2.946-13.216,9.223-13.849,17.824-.326,4.427 6.542,4.434 6.866,.05 .392-5.342 3.783-9.412 8.759-11.245 1.756-.646 2.945-2.271 2.428-4.204-.453-1.681-2.446-3.071-4.204-2.425z"/>
<path d="m33.482,39.688c.019,5.207 .604,10.625-.458,15.765-.895,4.32 5.725,6.146 6.62,1.811 1.196-5.774 .726-11.676 .704-17.524-.015-4.435-6.88-4.475-6.866-.052z"/>
<path d="m23.796,39.688c-.021,5.856-.499,11.775 .698,17.559 .898,4.34 7.523,2.537 6.63-1.779-1.062-5.128-.48-10.529-.462-15.729 .014-4.436-6.85-4.474-6.866-.051z"/>
<path d="m38.578,7.313c0-1.677-1.285-3.037-2.87-3.037-.654,0-1.255,.233-1.736,.623-.806-.395-1.708-.623-2.666-.623-1.077,0-2.086,.284-2.964,.775-.506-.481-1.175-.775-1.91-.775-1.585,0-2.87,1.36-2.87,3.037 0,1.229 .691,2.285 1.684,2.762-.004,.092-.014,.182-.014,.274 0,3.354 2.72,6.074 6.074,6.074 3.354,0 6.072-2.72 6.072-6.074 0-.185-.01-.368-.025-.548 .74-.55 1.225-1.458 1.225-2.488z"/>
</g>
</svg>
