<?xml version="1.0" encoding="utf-8"?>
<!-- Generator: Adobe Illustrator 16.0.0, SVG Export Plug-In . SVG Version: 6.00 Build 0)  -->
<!DOCTYPE svg PUBLIC "-//W3C//DTD SVG 1.1//EN" "http://www.w3.org/Graphics/SVG/1.1/DTD/svg11.dtd">
<svg version="1.1" id="Layer_11" xmlns="http://www.w3.org/2000/svg" xmlns:xlink="http://www.w3.org/1999/xlink" x="0px" y="0px"
	 width="100px" height="100px" viewBox="0 0 100 100" enable-background="new 0 0 100 100" xml:space="preserve">
<path d="M62.114,48.564c3.322-3.19,5.403-7.663,5.403-12.622c0-0.175-0.021-0.345-0.026-0.519c0.051,0.029,0.1,0.06,0.151,0.089
	c0.425-2.377,0.831-4.638,1.295-7.228c2.326,1.396,4.729,2.839,7.177,4.308c0.478-3.207-0.603-6.161-1.917-9.469
	c1.839-0.177,3.493-0.337,5.201-0.501c-0.574-3.701-3.469-5.266-6.554-6.962c1.532-0.285,3.064-0.569,4.734-0.878
	c-0.622-3.93-3.628-5.067-7.207-5.786c1.136-1.556,2.132-2.92,3.127-4.284c-0.072-0.159-0.144-0.318-0.216-0.478
	c-2.51,0.752-5.02,1.505-7.607,2.28c-0.113-0.316-0.276-0.795-0.45-1.271c-0.954-2.604-1.255-2.868-3.849-1.979
	c-2.352,0.807-4.591,1.943-6.901,2.943c-0.301-0.68-0.681-1.535-1.238-2.791c-1.119,1.215-1.991,2.163-2.865,3.113
	c-0.734-0.624-1.433-1.218-2.223-1.89c-0.244,1.146-0.428,2.005-0.634,2.973c-4.991-4.595-11.002-6.106-15.774-3.665
	c1.019,0.689,1.882,1.273,2.746,1.857c-3.879-0.014-6.96,1.145-9.831,3.742c1.506,0.25,2.744,0.454,3.982,0.658
	c-3.368,1.526-6.338,3.305-8.036,6.622c1.816,0.396,3.507,0.762,5.735,1.247c-4.116,2.804-5.088,6.307-4.446,10.55
	c1.306-0.994,2.474-1.882,3.642-2.772c-0.432,2.605-0.684,4.853,1.237,6.882c1.297-1.721,2.567-3.341,4.826-3.702
	c0.229,2.376,0.444,4.626,0.669,6.957c0.075-0.048,0.148-0.096,0.223-0.144c0,0.033-0.004,0.064-0.004,0.097
	c0,4.959,2.08,9.432,5.403,12.622c-8.875,2.641-15.368,10.869-15.368,20.59v14.679l0.42,2.829l2.999,0.938
	c6.729,2.102,13.37,3.381,19.827,3.873l3.375,5.325c0.168,0.258,0.448,0.413,0.762,0.413c0.298,0,0.577-0.149,0.744-0.396
	l3.515-5.145c12.777-0.495,23.32-4.429,23.32-4.429V69.154C77.481,59.433,70.989,51.205,62.114,48.564z M49.901,96.196l-3.778-5.959
	c-0.017-0.04-0.034-0.079-0.033-0.124l1.784-27.288c0.01-0.145,0.128-0.254,0.273-0.254h3.702c0.145,0,0.264,0.109,0.276,0.254
	l1.917,27.285c0.001,0.014-0.009,0.024-0.01,0.038L49.901,96.196z M52.261,61.746h-4.4l-3.825-7.907c0-0.759,0.613-1.37,1.372-1.37
	h9.187c0.757,0,1.37,0.611,1.37,1.37L52.261,61.746z M39.869,43.196c0,0,9.161-11.571,20.731,0
	C60.6,43.196,50.958,39.339,39.869,43.196z"/>
</svg>
