<?xml version="1.0" encoding="utf-8"?>
<!-- Generator: Adobe Illustrator 16.0.0, SVG Export Plug-In . SVG Version: 6.00 Build 0)  -->
<!DOCTYPE svg PUBLIC "-//W3C//DTD SVG 1.1//EN" "http://www.w3.org/Graphics/SVG/1.1/DTD/svg11.dtd">
<svg version="1.1" id="Layer_11" xmlns="http://www.w3.org/2000/svg" xmlns:xlink="http://www.w3.org/1999/xlink" x="0px" y="0px"
	 width="100px" height="100px" viewBox="0 0 100 100" enable-background="new 0 0 100 100" xml:space="preserve">
<path d="M76.369,71.403c0.051,0.583,0.079,1.176,0.079,1.773v16.313l-0.112-0.002l-1.052,0.533c-0.528,0.268-9.1,4.485-23.888,4.485
	c-3.909,0-8.262-0.304-13.008-1.043l-4.31-0.788c-3.193-0.652-6.533-1.485-10.038-2.581l-1.125-0.352l-0.042-0.252V73.176
	c0-9.319,6.38-17.157,14.995-19.433c3.095,2.888,11.793,7.007,11.793,10.17c0-2.83,8.697-7.282,11.793-10.17
	c6.698,1.77,12.03,6.908,14.077,13.486L76.369,71.403z M77.089,16.736l-7.097,0.22c-0.394-0.139-0.795-0.19-1.19-0.194
	c-0.053-0.361-0.145-0.722-0.313-1.068l-0.581-7.076c-0.886-1.823-3.083-2.583-4.906-1.696c-1.824,0.886-2.583,3.083-1.696,4.906
	l0.479,0.985c-3.504-2.241-7.657-3.556-12.125-3.556c-4.369,0-8.434,1.262-11.89,3.412l0.923-1.897
	c0.887-1.824,0.128-4.02-1.696-4.906c-1.824-0.887-4.02-0.127-4.906,1.696l-0.581,7.076c-0.169,0.347-0.26,0.708-0.313,1.069
	c-0.396,0.004-0.796,0.055-1.19,0.194l-7.097-0.22c-1.911,0.676-2.914,2.772-2.238,4.684c0.676,1.912,2.772,2.914,4.684,2.238
	l4.494-1.588c-1.754,3.209-2.754,6.89-2.754,10.806c0,12.461,10.102,22.563,22.564,22.563c12.461,0,22.563-10.102,22.563-22.563
	c0-3.525-0.832-6.848-2.273-9.82l4.692,1.658c1.912,0.675,4.008-0.326,4.684-2.238C80.002,19.508,79,17.412,77.089,16.736z"/>
</svg>
