<?xml version="1.0" encoding="utf-8"?>
<!-- Generator: Adobe Illustrator 16.0.0, SVG Export Plug-In . SVG Version: 6.00 Build 0)  -->
<!DOCTYPE svg PUBLIC "-//W3C//DTD SVG 1.1//EN" "http://www.w3.org/Graphics/SVG/1.1/DTD/svg11.dtd">
<svg version="1.1" id="Layer_1" xmlns="http://www.w3.org/2000/svg" xmlns:xlink="http://www.w3.org/1999/xlink" x="0px" y="0px"
	 width="126px" height="126px" viewBox="0 0 126 126" enable-background="new 0 0 126 126" xml:space="preserve">
<path fill="#010101" d="M65.61,85.119V45.92l35.483-22.433L65.61,1.055V0.98h-8.635v84.251
	c-23.072,1.025-45.564,7.896-45.564,19.825c0,12.965,26.579,19.963,51.587,19.963c25.01,0,51.59-6.998,51.59-19.963
	C114.589,92.54,89.823,85.588,65.61,85.119z M65.61,101.091c7.967,0.626,12.312,2.881,12.932,3.966
	c-0.725,1.267-6.516,4.135-17.25,4.135s-16.524-2.868-17.25-4.135c0.622-1.085,4.965-3.34,12.932-3.966v3.966h8.635V101.091z
	 M62.999,119.139c-28.318,0-45.707-8.204-45.707-14.082c0-5.45,14.946-12.891,39.684-13.95v4.093
	c-9.728,0.709-18.848,3.859-18.848,9.857c0,6.883,12.007,10.016,23.165,10.016c11.156,0,23.165-3.133,23.165-10.016
	c0-5.998-9.12-9.148-18.847-9.857v-4.201c26.773,0.484,43.098,8.361,43.098,14.059C108.708,110.935,91.318,119.139,62.999,119.139z"
	/>
</svg>
