<?xml version="1.0" encoding="utf-8"?>
<!-- Generator: Adobe Illustrator 16.0.0, SVG Export Plug-In . SVG Version: 6.00 Build 0)  -->
<!DOCTYPE svg PUBLIC "-//W3C//DTD SVG 1.1//EN" "http://www.w3.org/Graphics/SVG/1.1/DTD/svg11.dtd">
<svg version="1.1" id="Layer_12" xmlns="http://www.w3.org/2000/svg" xmlns:xlink="http://www.w3.org/1999/xlink" x="0px" y="0px"
	 width="100px" height="100px" viewBox="0 0 100 100" enable-background="new 0 0 100 100" xml:space="preserve">
<path d="M67.091,21.345c0.484,1.62,0.752,3.333,0.752,5.109c0,9.854-7.988,17.842-17.842,17.842s-17.843-7.987-17.843-17.842
	c0-1.851,0.282-3.637,0.806-5.314c0.287,0.13,0.621,0.205,1.003,0.205l15.633,2.5L67.091,21.345z M54.348,55.61l2.787,31.296
	l-7.968,8.458L42.266,87l3.286-31.791l-5.078-9.428c0.78-0.158,1.49-0.269,1.958-0.269H57.57c0.786,0,1.725,0.169,2.771,0.424
	L54.348,55.61z M52.476,54.211l4.106-4.91c0-1.547-1.254-2.801-2.801-2.801c0,0-2.061,0.321-3.734,0.321S46.22,46.5,46.22,46.5
	c-1.547,0-2.801,1.254-2.801,2.801l3.736,4.765l-2.617,31.05l4.973,6.941l5.135-6.441L52.476,54.211z M38.43,46.257
	c-1.16,0.298-2.152,0.593-2.404,0.685c-9.48,2.78-16.439,11.52-16.439,21.888v18.519l0.048,0.289l1.278,0.398
	c6.712,2.097,12.932,3.413,18.615,4.167l3.964-36.55L38.43,46.257z M64.053,46.966h0.036c-0.115-0.032-0.226-0.063-0.339-0.096
	c-0.074-0.021-0.146-0.049-0.221-0.069h-0.025c-0.394-0.111-0.775-0.22-1.152-0.326l-4.943,9.177l3.998,36.858
	c10.956-1.253,17.211-4.315,17.688-4.557l1.194-0.606l0.125,0.001V68.829C80.414,58.489,73.493,49.771,64.053,46.966z
	 M32.466,18.364l17.034,2.5l18.003-2.5c0,0-0.253-2.962-2.357-10.153h12.621V4.636H24.064v3.575h10.759L32.466,18.364z"/>
</svg>
