<?xml version="1.0" encoding="utf-8"?>
<!-- Generator: Adobe Illustrator 16.0.0, SVG Export Plug-In . SVG Version: 6.00 Build 0)  -->
<!DOCTYPE svg PUBLIC "-//W3C//DTD SVG 1.1//EN" "http://www.w3.org/Graphics/SVG/1.1/DTD/svg11.dtd">
<svg version="1.1" id="Layer_1" xmlns="http://www.w3.org/2000/svg" xmlns:xlink="http://www.w3.org/1999/xlink" x="0px" y="0px"
	 width="50px" height="50px" viewBox="0 0 50 50" enable-background="new 0 0 50 50" xml:space="preserve">
<g>
	<path d="M27.957,25.718c2.024-1.362,3.444-3.957,3.625-6.404c0.278-0.242,0.437-0.48,0.437-0.693v-4.654l4.436-1.584L25,8.292
		l-11.455,4.091l4.436,1.584v4.654c0,0.213,0.159,0.451,0.437,0.693c0.182,2.447,1.601,5.042,3.625,6.404
		c-5.185,1.315-9.027,5.816-9.027,9.151c0,3.943,23.967,3.943,23.967,0C36.983,31.534,33.142,27.033,27.957,25.718z M25,37.825
		l-3.357-3.357l2.826-6.832h-0.029l-1.098-1.259c0.532,0.191,1.085,0.305,1.659,0.305c0.573,0,1.125-0.114,1.655-0.304l-1.097,1.257
		h-0.028l2.826,6.832L25,37.825z"/>
	<path d="M15.644,13.622v7.489c-0.241,0.142-0.409,0.394-0.409,0.693c0,0.453,0.366,0.818,0.818,0.818
		c0.452,0,0.818-0.366,0.818-0.818c0-0.299-0.168-0.551-0.41-0.693v-7.252L15.644,13.622z"/>
</g>
</svg>
