<?xml version="1.0" encoding="iso-8859-1"?>
<!-- Generator: Adobe Illustrator 17.1.0, SVG Export Plug-In . SVG Version: 6.00 Build 0)  -->
<!DOCTYPE svg PUBLIC "-//W3C//DTD SVG 1.1//EN" "http://www.w3.org/Graphics/SVG/1.1/DTD/svg11.dtd">
<svg version="1.1" id="Layer_1" xmlns="http://www.w3.org/2000/svg" xmlns:xlink="http://www.w3.org/1999/xlink" x="0px" y="0px"
	 viewBox="0 0 128 128" style="enable-background:new 0 0 128 128;" xml:space="preserve">
<g>
	<path d="M102.596,61.173l-4.618-18.345c0,0-0.282-1.481-1.688-2.317s-15.611-9.29-15.611-9.29c-0.611-0.364-1.269-0.577-1.932-0.66
		c-0.134-0.028-0.272-0.044-0.414-0.044H76.15c0.016-0.035,0.034-0.071,0.068-0.111c1.746-2.004,2.806-4.621,2.806-7.488
		c0-3.858-1.917-7.266-4.848-9.33c-0.215-0.151-0.354-0.476-0.326-0.737c0.024-0.219,0.036-0.441,0.036-0.666
		c0-3.463-2.807-6.269-6.269-6.269s-6.269,2.807-6.269,6.269c0,0.225,0.012,0.447,0.036,0.666c0.028,0.261-0.111,0.586-0.326,0.737
		c-2.932,2.064-4.848,5.472-4.848,9.33c0,2.867,1.059,5.484,2.806,7.488c0.035,0.04,0.052,0.076,0.068,0.111H56.07
		c-0.364,0-0.701,0.105-0.995,0.274c-0.316,0.109-0.625,0.252-0.924,0.429l-0.658,0.392l-10.201,6.07c0,0-4.225,2.469-5.088,3.028
		c-1.001,0.648-1.266,1.776-1.266,1.776l-3.749,14.894C30.776,58.476,29.67,60.3,29.67,60.3c-1.38,2.151-1.365,4.706-1.365,4.706
		v54.89c0,0,0.066,2.187,2.396,2.187s2.504-2.008,2.504-2.008s0.036-53.725,0.09-54.37c0.001-0.019,0.002-0.039,0.004-0.059
		c0.649,0.758,1.524,1.334,2.565,1.596c0.41,0.104,0.82,0.152,1.225,0.152c2.164,0,4.127-1.421,4.771-3.567
		c0.189,0.525,0.318,1.382,0.56,2.686c0.359,1.936,4.697,2.584,4.59-0.822c-0.108-3.406-1.326-4.8-2.867-6.861
		c-0.201-0.268-0.455-0.514-0.752-0.738c-0.019-0.014-0.034-0.036-0.052-0.053l2.43-9.654l0.159-0.632l0.33-0.196l5.942-3.536
		l-1.383,8.495l-2,12.285l-4.73,29.052c0,1.105,0.896,2,2,2h6.342h0.825v21.896c0,0.773,0.19,1.495,0.502,2.148
		c0.805,1.682,2.508,2.852,4.498,2.852c2.259,0,4.145-1.507,4.765-3.563c0.138-0.458,0.235-0.934,0.235-1.437V95.854h8.125v21.896
		c0,0.057,0.015,0.111,0.017,0.168c0.091,2.682,2.279,4.832,4.983,4.832c1.685,0,3.167-0.839,4.073-2.116
		c0.579-0.816,0.927-1.807,0.927-2.884V95.854h1.247h5.962c1.105,0,2-0.895,2-2l-2.901-17.359l-5.469-32.724l6.692,3.982
		l3.993,15.861c0.349,1.387,1.249,2.485,2.404,3.134c0.735,0.413,1.571,0.647,2.44,0.647c0.404,0,0.815-0.049,1.225-0.152
		C101.646,66.569,103.27,63.851,102.596,61.173z"/>
</g>
</svg>
