<?xml version="1.0" encoding="iso-8859-1"?>
<!-- Generator: Adobe Illustrator 17.1.0, SVG Export Plug-In . SVG Version: 6.00 Build 0)  -->
<!DOCTYPE svg PUBLIC "-//W3C//DTD SVG 1.1//EN" "http://www.w3.org/Graphics/SVG/1.1/DTD/svg11.dtd">
<svg version="1.1" id="Layer_1" xmlns="http://www.w3.org/2000/svg" xmlns:xlink="http://www.w3.org/1999/xlink" x="0px" y="0px"
	 viewBox="0 0 128 128" style="enable-background:new 0 0 128 128;" xml:space="preserve">
<g>
	<path d="M26.53,67.166c0.835,0.479,1.745,0.707,2.643,0.707c1.844,0,3.637-0.959,4.621-2.674l2.579-4.761l8.121-14.994l0.117-0.217
		v24.097l-3.751,44.473l-0.401,4.754c-0.247,2.928,1.927,5.503,4.856,5.75c0.103,0.008,0.206,0.01,0.308,0.013
		c0.048,0.001,0.097,0.006,0.145,0.006c2.737,0,5.063-2.097,5.297-4.875l5.434-47.81h5.588l3.632,47.461
		c0.053,2.905,2.425,5.224,5.319,5.224c0.033,0,0.067,0,0.1-0.001c2.938-0.054,5.277-2.48,5.223-5.418c0,0-1.57-60.147-1.595-60.2
		V38.127l0.068,0.05l5.278,3.846l3.235,10.2c-2.593,1.896-3.972,5.227-4.076,8.538c-0.12,3.842,4.775,3.113,5.179,0.929
		c0.359-1.942,0.497-3.019,0.865-3.49c0.909,1.808,2.766,2.926,4.749,2.925c0.532,0,1.075-0.08,1.61-0.25
		c1.164-0.369,2.095-1.114,2.741-2.045c0.316,0.823,0.288,1.423,0.331,1.947c0.06,0.729,0.101,61.345,0.101,61.345
		s0.168,2.266,2.797,2.266s2.674-2.468,2.674-2.468V59.985c0,0,0.045-2.883-1.512-5.308c0,0-1.553-2.501-4.659-3.6l-4.532-14.288
		c0,0-0.452-1.701-2.079-2.838l-11.978-8.368c-0.851-0.519-1.789-0.75-2.718-0.759c-0.069-0.007-3.674-0.021-3.674-0.021
		c-0.023-0.059,0.025-0.169,0.148-0.304c2.077-2.275,3.343-5.302,3.343-8.626c0-7.071-5.732-12.803-12.803-12.803
		c-7.071,0-12.803,5.732-12.803,12.803c0,3.324,1.268,6.351,3.345,8.628c0.121,0.133,0.123,0.242,0.036,0.301
		c0,0-3.821,0.013-3.883,0.019c-1.775,0.065-3.479,1.001-4.428,2.656L24.563,59.901C23.1,62.45,23.981,65.702,26.53,67.166z"/>
</g>
</svg>
