<?xml version="1.0" encoding="utf-8"?>
<!-- Generator: Adobe Illustrator 16.0.0, SVG Export Plug-In . SVG Version: 6.00 Build 0)  -->
<!DOCTYPE svg PUBLIC "-//W3C//DTD SVG 1.1//EN" "http://www.w3.org/Graphics/SVG/1.1/DTD/svg11.dtd">
<svg version="1.1" id="Layer_1" xmlns="http://www.w3.org/2000/svg" xmlns:xlink="http://www.w3.org/1999/xlink" x="0px" y="0px"
	 width="126px" height="126px" viewBox="0 0 126 126" enable-background="new 0 0 126 126" xml:space="preserve">
<g>
	<path d="M14.729,48.78v33.014h25.35V44.425H19.141L14.729,48.78z M37.646,79.361H17.161V69.335
		c0.105-0.002,0.209-0.036,0.296-0.107l3.295-2.707l2.782,2.683c0.102,0.098,0.237,0.143,0.378,0.13
		c0.139-0.015,0.264-0.091,0.342-0.205l3.113-4.627l2.879,0.844c0.18,0.052,0.372-0.007,0.493-0.147l6.907-8.098V79.361z
		 M21.013,46.856h16.634v9.041c-0.132,0.002-0.262,0.054-0.354,0.162l-7.074,8.293L27.3,63.498c-0.197-0.059-0.409,0.02-0.523,0.19
		l-2.992,4.444l-2.678-2.585c-0.173-0.167-0.443-0.178-0.63-0.024l-3.315,2.725V50.305h3.852V46.856z"/>
	<path d="M36.282,54.246c0-0.158-0.128-0.283-0.283-0.283h-3.842c-0.155,0-0.283,0.125-0.283,0.283v2.765v4.068l4.408-5.167V54.246z
		"/>
	<path d="M32.157,73.695h3.842c0.155,0,0.283-0.127,0.283-0.283v-5.229v-0.869v-7.075l-4.408,5.167v5.242v2.765
		C31.874,73.568,32.002,73.695,32.157,73.695z"/>
	<path d="M25.013,69.646v1.786v1.979c0,0.156,0.125,0.283,0.283,0.283h3.839c0.158,0,0.283-0.127,0.283-0.283v-1.379v-5.559
		l-1.9-0.555L25.013,69.646z"/>
	<path d="M27.386,62.497l2.032,0.595v-3.028v-1.38c0-0.155-0.125-0.283-0.283-0.283h-3.839c-0.158,0-0.283,0.128-0.283,0.283v1.98
		v4.181l1.325-1.969C26.566,62.534,26.99,62.381,27.386,62.497z"/>
	<path d="M21.385,64.659l1.548,1.494v-1.836v-2.328c0-0.155-0.125-0.283-0.283-0.283h-3.839c-0.158,0-0.283,0.128-0.283,0.283v2.96
		v0.979l1.604-1.318C20.501,64.305,21.041,64.326,21.385,64.659z"/>
	<path d="M18.527,69.789v0.664v2.959c0,0.156,0.125,0.283,0.283,0.283h3.839c0.158,0,0.283-0.127,0.283-0.283v-3.219l-2.253-2.173
		L18.527,69.789z"/>
	<path d="M90.334,44.425l-4.412,4.355v33.014h25.35V44.425H90.334z M108.84,79.361H88.354V50.305h3.853v-3.448h16.634V79.361z"/>
	<path d="M75.486,0.849H54.55l-4.413,4.356v33.013h25.35V0.849z M57.913,14.844l0.634-2.068l1.647,1.893l-2.21,0.215l0.018-0.039
		H57.913z M57.072,14.844h-3.195l1.606-2.119l2.324-0.285L57.072,14.844z M58.536,19.419l-2.417-0.941l1.197-2.27L58.536,19.419z
		 M56.703,15.648l-1.205,2.278l-1.645-2.278H56.703z M57.313,22.636l-4.583-2.681l2.635-0.791L57.313,22.636z M54.896,18.465
		l-2.326,0.699v-0.772l0.652-2.243L54.896,18.465z M52.569,20.794l4.855,2.839l-3.537,1.436l-1.318-3.976V20.794z M58.132,24.215
		l0.618,3.883l-4.196-2.432L58.132,24.215z M58.25,22.668l-1.789-3.195l2.442,0.952L58.25,22.668z M57.98,15.691l2.33-0.227
		l-1.031,3.646L57.98,15.691z M66.908,19.235l-2.893,2.448l0.833-3.563L66.908,19.235z M65.011,17.294l0.292-2.417l1.479,3.374
		L65.011,17.294z M64.271,16.71l-2.413-1.624l2.741-1.095L64.271,16.71z M63.8,17.369l-3.737,1.924l1.051-3.711L63.8,17.369z
		 M59.666,20.692l2.805,1.702l-3.518,0.753L59.666,20.692z M59.48,23.857l3.468-0.744l-0.26,2.596L59.48,23.857z M62.265,26.393
		l-2.685,1.793l-0.59-3.683L62.265,26.393z M60.246,20.103l3.768-1.939l-0.866,3.702L60.246,20.103z M63.77,22.954l3.589,0.518
		l-3.854,2.167L63.77,22.954z M64.58,22.258l2.798-2.367l0.681,2.87L64.58,22.258z M67.734,18.424l-1.933-4.411l4.572,1.433
		L67.734,18.424z M68.318,18.977l2.678-3.022l2.059,4.021v0.61L68.318,18.977z M72.964,21.403l-4.088,1.324l-0.7-2.951
		L72.964,21.403z M56.422,6.729V3.28h16.633v14.93l-1.639-3.199l-6.287-2.017l-0.155-0.359l-0.05,0.403l-0.107,0.042l-0.087-0.027
		l0.023,0.053l-3.627,1.41l-2.558-2.945l-0.279,0.003v-0.001l-3.242,0.396l-2.313,3.051l-0.048,0.031l0.014,0.021l-0.13,0.448V6.729
		H56.422z M52.569,35.786V23.72l0.711,2.19l5.876,3.351l0.276-0.01l0.055-0.036l0.052,0.028l-0.011-0.057l3.662-2.443l5.521-3.113
		l4.343-1.408v13.564H52.569z"/>
	<path d="M50.137,92.138v33.014h25.35V87.782H54.55L50.137,92.138z M56.422,90.214h16.633v32.506H52.569V93.662h3.853V90.214z"/>
	<path d="M64.66,55.761V42.781h-3.32v12.979c-2.987,0.606-5.4,2.816-6.298,5.688H43.289v3.32h11.418
		c0.368,3.649,3.096,6.61,6.633,7.328v12.339h3.32V72.098c3.535-0.718,6.266-3.679,6.633-7.328H83.2v-3.32H70.958
		C70.061,58.577,67.648,56.367,64.66,55.761z M63,68.944c-2.765,0-5.016-2.25-5.016-5.015s2.251-5.015,5.016-5.015
		s5.014,2.25,5.014,5.015S65.765,68.944,63,68.944z"/>
	<path d="M89.83,64.774c0,4.337,3.528,7.866,7.867,7.866c2.082,0,4.045-0.808,5.527-2.271c1.196-1.182,1.97-2.68,2.236-4.332
		c0-0.001,0-0.001,0-0.001l0,0c0.002-0.009,0-0.018,0-0.024c0-0.011,0-0.021-0.003-0.031c-0.002-0.009-0.006-0.016-0.011-0.023
		c-0.004-0.01-0.006-0.018-0.013-0.026c-0.005-0.007-0.013-0.013-0.02-0.018c-0.007-0.007-0.011-0.014-0.02-0.019
		c-0.009-0.004-0.018-0.006-0.026-0.01c-0.008-0.004-0.017-0.009-0.025-0.011h-0.002l-2.577-0.396c-0.009-0.002-0.018,0-0.026,0.001
		c-0.008,0.001-0.02-0.001-0.027,0.001c-0.011,0.002-0.02,0.009-0.028,0.012c-0.009,0.005-0.016,0.006-0.021,0.011
		c-0.009,0.007-0.016,0.017-0.024,0.024c-0.002,0.005-0.008,0.01-0.013,0.016c-0.007,0.009-0.009,0.02-0.013,0.03
		c-0.002,0.007-0.005,0.015-0.007,0.021c-0.173,1.043-0.666,1.987-1.423,2.73c-0.936,0.92-2.174,1.427-3.484,1.427
		c-2.745,0-4.977-2.232-4.977-4.976c0-2.745,2.231-4.976,4.977-4.976c0.575,0,1.142,0.098,1.68,0.29c0,0,0,0,0,0.001
		c0.018,0.006,0.032,0.009,0.048,0.009c0,0,0.004-0.001,0.007-0.001c0.002,0,0.006-0.001,0.013-0.002
		c0.011-0.002,0.023-0.005,0.034-0.009c0.005-0.003,0.011-0.004,0.016-0.008c0.011-0.005,0.02-0.012,0.027-0.021
		c0.005-0.004,0.007-0.006,0.012-0.011c0.01-0.012,0.019-0.025,0.025-0.042c0-0.001,0-0.001,0-0.002l0.871-2.458
		c0.005-0.01,0.005-0.019,0.005-0.029c0-0.009,0.004-0.018,0.004-0.026c-0.002-0.011-0.004-0.021-0.009-0.03
		c-0.002-0.007-0.002-0.015-0.006-0.022c-0.005-0.011-0.014-0.02-0.022-0.029c-0.002-0.004-0.006-0.01-0.011-0.014
		c-0.008-0.008-0.02-0.013-0.03-0.019c-0.006-0.003-0.011-0.009-0.017-0.011c-0.85-0.304-1.74-0.457-2.646-0.457
		C93.358,56.908,89.83,60.436,89.83,64.774z M102.855,65.778l2.3,0.354c-0.27,1.49-0.968,2.845-2.032,3.934l-1.643-1.645
		C102.189,67.686,102.663,66.777,102.855,65.778z"/>
	<path d="M101.098,58.45c0.005,0.009,0.011,0.016,0.016,0.022c0.006,0.007,0.011,0.016,0.017,0.022
		c0.007,0.006,0.018,0.011,0.026,0.016c0.009,0.004,0.013,0.01,0.02,0.013c1.972,0.707,3.297,2.589,3.297,4.683
		c0,0.271-0.023,0.547-0.069,0.822v0.001c-0.002,0.01,0,0.018,0.002,0.027c0,0.01-0.002,0.019,0,0.027
		c0.002,0.01,0.007,0.017,0.013,0.025c0.003,0.008,0.007,0.017,0.012,0.024c0.004,0.007,0.013,0.012,0.021,0.019
		c0.004,0.007,0.011,0.014,0.017,0.019c0.009,0.005,0.02,0.007,0.028,0.011c0.009,0.003,0.016,0.008,0.023,0.009l0,0h0.003
		l2.574,0.397h0.003c0.006,0.001,0.015,0.002,0.021,0.002c0.017,0,0.032-0.004,0.049-0.01c0.007-0.002,0.012-0.006,0.018-0.009
		c0.007-0.005,0.018-0.01,0.024-0.015c0.006-0.006,0.008-0.012,0.015-0.018s0.013-0.013,0.018-0.021
		c0.004-0.006,0.004-0.013,0.006-0.02c0.005-0.01,0.009-0.018,0.012-0.028c0,0,0,0,0-0.001c0.066-0.419,0.102-0.844,0.102-1.263
		c0-3.314-2.098-6.293-5.219-7.407h-0.003c-0.034-0.012-0.068-0.01-0.099,0.003c-0.003,0.002-0.005,0.002-0.009,0.003
		c-0.009,0.004-0.018,0.012-0.024,0.018c-0.006,0.006-0.013,0.008-0.02,0.015c-0.006,0.008-0.011,0.018-0.015,0.025
		c-0.005,0.008-0.011,0.015-0.013,0.022l-0.871,2.458c-0.003,0.008-0.003,0.017-0.005,0.026c0,0.01-0.004,0.019-0.004,0.029
		c0.002,0.008,0.004,0.016,0.006,0.023C101.092,58.432,101.092,58.441,101.098,58.45z"/>
	<path d="M62.345,115.787c4.951,0,8.979-4.027,8.979-8.978c0-0.312-0.018-0.638-0.052-0.968l-0.053-0.483h-6.885v-7.315
		l-0.447-0.078c-0.517-0.089-1.036-0.134-1.542-0.134c-4.95,0-8.978,4.027-8.978,8.979C53.367,111.76,57.395,115.787,62.345,115.787
		z"/>
	<path d="M66.482,97.147v6.191h5.774C71.699,100.344,69.43,97.912,66.482,97.147z"/>
</g>
</svg>
