<?xml version="1.0" encoding="utf-8"?>
<!-- Generator: Adobe Illustrator 16.0.0, SVG Export Plug-In . SVG Version: 6.00 Build 0)  -->
<!DOCTYPE svg PUBLIC "-//W3C//DTD SVG 1.1//EN" "http://www.w3.org/Graphics/SVG/1.1/DTD/svg11.dtd">
<svg version="1.1" id="Layer_11" xmlns="http://www.w3.org/2000/svg" xmlns:xlink="http://www.w3.org/1999/xlink" x="0px" y="0px"
	 width="100px" height="100px" viewBox="0 0 100 100" enable-background="new 0 0 100 100" xml:space="preserve">
<path d="M37.244,17.153c0-7.044,5.711-12.755,12.756-12.755c7.043,0,12.754,5.711,12.754,12.755S57.043,29.908,50,29.908
	C42.955,29.908,37.244,24.197,37.244,17.153z M56.129,38.598c0.129-2.777,1.084-5.348,2.623-7.474
	c-1.08-0.226-2.195-0.346-3.34-0.346H44.59c-1.141,0-2.256,0.119-3.33,0.343c1.637,2.271,2.617,5.043,2.633,8.045
	c1.988-1.095,4.271-1.718,6.697-1.718C52.557,37.448,54.43,37.858,56.129,38.598z M58.289,39.742
	c3.705,2.323,6.303,6.254,6.777,10.817c1.51,0.706,3.188,1.112,4.965,1.112c6.492,0,11.752-5.261,11.752-11.751
	c0-6.491-5.26-11.752-11.752-11.752C63.602,28.169,58.387,33.336,58.289,39.742z M50.59,63.805c6.49,0,11.752-5.262,11.752-11.752
	S57.08,40.301,50.59,40.301s-11.754,5.262-11.754,11.752S44.1,63.805,50.59,63.805z M55.574,64.605h-9.971
	c-8.297,0-15.047,6.751-15.047,15.047v12.196l0.031,0.191l0.84,0.263c7.918,2.473,14.797,3.299,20.459,3.299
	c11.059,0,17.469-3.153,17.865-3.354l0.785-0.398h0.084V79.652C70.621,71.356,63.871,64.605,55.574,64.605z M75.018,52.474h-9.895
	c-0.107,3.959-1.797,7.524-4.469,10.088c7.375,2.193,12.77,9.032,12.77,17.11v3.758c9.77-0.359,15.4-3.127,15.771-3.314l0.785-0.398
	h0.084V67.52C90.064,59.224,83.314,52.474,75.018,52.474z M29.969,51.672c2.299,0,4.438-0.671,6.25-1.814
	c0.576-3.757,2.59-7.04,5.467-9.276c0.012-0.22,0.033-0.438,0.033-0.66c0-6.491-5.262-11.752-11.75-11.752
	c-6.492,0-11.752,5.261-11.752,11.752C18.217,46.411,23.477,51.672,29.969,51.672z M40.523,62.562
	c-2.66-2.551-4.344-6.097-4.467-10.032c-0.367-0.027-0.73-0.056-1.104-0.056h-9.971c-8.297,0-15.047,6.75-15.047,15.046v12.197
	l0.031,0.189l0.84,0.264c6.352,1.984,12.021,2.897,16.945,3.185v-3.683C27.752,71.594,33.146,64.755,40.523,62.562z"/>
</svg>
