<?xml version="1.0" encoding="utf-8"?>
<!-- Generator: Adobe Illustrator 16.0.0, SVG Export Plug-In . SVG Version: 6.00 Build 0)  -->
<!DOCTYPE svg PUBLIC "-//W3C//DTD SVG 1.1//EN" "http://www.w3.org/Graphics/SVG/1.1/DTD/svg11.dtd">
<svg version="1.1" id="Layer_1" xmlns="http://www.w3.org/2000/svg" xmlns:xlink="http://www.w3.org/1999/xlink" x="0px" y="0px"
	 width="50px" height="50px" viewBox="0 0 50 50" enable-background="new 0 0 50 50" xml:space="preserve">
<g>
	<path d="M15.436,36.3c0.729-0.49,1.229-1.455,1.229-2.325c0-1.227-0.994-2.222-2.221-2.222s-2.221,0.995-2.221,2.222
		c0,0.87,0.5,1.834,1.229,2.325c-1.74,0.44-3.03,1.952-3.03,3.071c0,0.662,2.011,0.992,4.022,0.992l-1.127-1.126l0.949-2.293h-0.01
		l-0.369-0.422c0.178,0.064,0.364,0.103,0.557,0.103s0.378-0.038,0.556-0.102l-0.368,0.422h-0.01l0.949,2.293l-1.127,1.126
		c2.012,0,4.022-0.331,4.022-0.992C18.466,38.252,17.176,36.742,15.436,36.3z"/>
	<path d="M25.992,36.3c0.729-0.49,1.229-1.455,1.229-2.325c0-1.227-0.994-2.222-2.221-2.222s-2.221,0.995-2.221,2.222
		c0,0.87,0.5,1.834,1.229,2.325c-1.74,0.44-3.03,1.952-3.03,3.071c0,0.662,2.011,0.992,4.022,0.992l-1.127-1.126l0.949-2.293h-0.01
		l-0.369-0.422c0.178,0.064,0.364,0.103,0.557,0.103s0.378-0.038,0.556-0.102l-0.368,0.422h-0.01l0.949,2.293L25,40.364
		c2.012,0,4.022-0.331,4.022-0.992C29.022,38.252,27.732,36.742,25.992,36.3z"/>
	<path d="M36.549,36.3c0.729-0.49,1.229-1.455,1.229-2.325c0-1.227-0.994-2.222-2.221-2.222s-2.221,0.995-2.221,2.222
		c0,0.87,0.5,1.834,1.229,2.325c-1.74,0.44-3.03,1.952-3.03,3.071c0,0.662,2.011,0.992,4.022,0.992l-1.127-1.126l0.949-2.293h-0.01
		L35,36.521c0.178,0.064,0.364,0.103,0.557,0.103s0.378-0.038,0.556-0.102l-0.368,0.422h-0.01l0.949,2.293l-1.127,1.126
		c2.012,0,4.022-0.331,4.022-0.992C39.579,38.252,38.289,36.742,36.549,36.3z"/>
	<path d="M14.5,30.323c0.276,0,0.5-0.224,0.5-0.5v-5.25h9.5v5.25c0,0.276,0.224,0.5,0.5,0.5s0.5-0.224,0.5-0.5v-5.25H35v5.25
		c0,0.276,0.224,0.5,0.5,0.5s0.5-0.224,0.5-0.5v-5.75c0-0.276-0.224-0.5-0.5-0.5h-10v-2.25c0-0.276-0.224-0.5-0.5-0.5
		s-0.5,0.224-0.5,0.5v2.25h-10c-0.276,0-0.5,0.224-0.5,0.5v5.75C14,30.099,14.224,30.323,14.5,30.323z"/>
	<path d="M20.326,18.67c0,0.769,2.336,1.153,4.674,1.153s4.674-0.384,4.674-1.153c0-0.986-0.865-2.232-2.165-3.001
		c0.602-0.077,1.071-0.22,1.071-0.22s-1-0.467-1-3.048S25.792,9.297,25,9.818c-0.771-0.5-2.581,0-2.581,2.582s-1,3.048-1,3.048
		s0.469,0.144,1.07,0.22C21.191,16.437,20.326,17.684,20.326,18.67z M25,10.651c0.812,1.031,1.75,1.209,1.75,2.088
		s-0.672,2.738-1.75,2.738c0.171,0,0.336-0.032,0.498-0.078c0.024,0.016,0.045,0.035,0.07,0.049l-0.35,0.401h-0.011l0.007,0.017
		c-0.071-0.004-0.14-0.017-0.213-0.017s-0.142,0.012-0.213,0.017l0.007-0.017h-0.011l-0.351-0.401
		c0.025-0.014,0.046-0.033,0.07-0.049c0.162,0.046,0.327,0.078,0.499,0.078c-1.078,0-1.753-1.859-1.75-2.738
		C23.254,11.338,24.156,11.245,25,10.651z"/>
</g>
</svg>
