<?xml version="1.0" encoding="utf-8"?>
<!-- Generator: Adobe Illustrator 16.0.0, SVG Export Plug-In . SVG Version: 6.00 Build 0)  -->
<!DOCTYPE svg PUBLIC "-//W3C//DTD SVG 1.1//EN" "http://www.w3.org/Graphics/SVG/1.1/DTD/svg11.dtd">
<svg version="1.1" id="Layer_1" xmlns="http://www.w3.org/2000/svg" xmlns:xlink="http://www.w3.org/1999/xlink" x="0px" y="0px"
	 width="126px" height="126px" viewBox="0 0 126 126" enable-background="new 0 0 126 126" xml:space="preserve">
<g>
	<circle cx="28" cy="13.277" r="12.976"/>
	<circle cx="98" cy="13.277" r="12.976"/>
	<path d="M110.527,72.821c0.185,0.137,0.365,0.278,0.572,0.391c0.765,0.417,1.589,0.614,2.403,0.614c1.786,0,3.516-0.952,4.43-2.631
		c14.212-26.123-5.174-38.014-11.544-41.92c-0.167-0.103-0.344-0.169-0.518-0.25c-1.423-0.934-3.016-1.622-4.637-2.019L98,30.259
		l-3.134-3.29c-0.01,0.003-0.021,0.003-0.032,0.005c-1.555,0.372-3.08,1.016-4.459,1.885c-0.345,0.105-0.684,0.241-1.01,0.424
		c-1.89,1.062-3.562,1.247-5.419,0.599c-6.648-2.317-12.751-14.103-14.364-18.044c-1.047-2.578-3.984-3.816-6.563-2.77
		c-0.913,0.371-1.647,0.987-2.183,1.732c-1.228,0.418-2.296,1.306-2.908,2.565c-1.758,3.619-8.338,14.441-15.27,16.611
		c-2.099,0.657-4.013,0.436-6.023-0.694c-0.327-0.183-0.666-0.319-1.01-0.424c-1.38-0.869-2.905-1.513-4.46-1.885
		c-0.01-0.002-0.021-0.002-0.032-0.005l-3.134,3.29l-3.232-3.253c-1.621,0.397-3.213,1.084-4.636,2.018
		c-0.174,0.081-0.352,0.148-0.52,0.251c-6.37,3.907-25.755,15.797-11.544,41.92c0.914,1.679,2.644,2.631,4.43,2.631
		c0.813,0,1.638-0.197,2.403-0.614c0.207-0.113,0.387-0.254,0.572-0.391l-10.85,45.542c-0.762,3.199,1.213,6.409,4.412,7.171
		c0.463,0.11,0.928,0.163,1.384,0.163c2.694,0,5.135-1.841,5.787-4.576l10.207-42.841c0.526,0.056,1.054,0.093,1.587,0.093
		c0.914,0,1.819-0.089,2.705-0.249c1.494,4.354,3.611,10.998,4.477,15.995c1.083,6.254-0.961,19.825-1.84,24.526
		c-0.605,3.232,1.523,6.342,4.755,6.947c0.371,0.069,0.739,0.103,1.103,0.103c2.808,0,5.309-1.996,5.845-4.857
		c0.364-1.944,3.513-19.266,1.87-28.751c-1.338-7.722-5.025-18.167-6.272-21.579c0.412-1.107,0.638-2.307,0.638-3.584V40.38
		c1.462-0.076,2.931-0.33,4.389-0.787c8.327-2.607,14.748-10.86,18.301-16.481c3.451,5.966,9.146,13.657,16.642,16.277
		c1.36,0.476,2.734,0.767,4.109,0.88v26.656c0,1.277,0.226,2.478,0.638,3.584c-1.247,3.412-4.935,13.856-6.272,21.579
		c-1.643,9.486,1.506,26.808,1.87,28.751c0.536,2.862,3.036,4.857,5.845,4.857c0.364,0,0.733-0.033,1.104-0.103
		c3.231-0.605,5.36-3.716,4.754-6.948c-0.88-4.696-2.927-18.254-1.84-24.525c0.864-4.987,2.983-11.637,4.478-15.995
		c0.886,0.16,1.791,0.249,2.705,0.249c0.533,0,1.062-0.038,1.587-0.093l10.207,42.841c0.651,2.735,3.092,4.576,5.786,4.576
		c0.457,0,0.921-0.053,1.385-0.163c3.198-0.763,5.173-3.973,4.412-7.171L110.527,72.821z M111.281,47.248
		c1.923,3.639,2.354,8.246,0,14.403V47.248z M14.718,61.65c-2.354-6.157-1.923-10.764,0-14.402V61.65z M28.029,55.94h-0.061
		l-3.129-4.282l3.129-20.917h0.061l3.129,20.917L28.029,55.94z M98.031,55.94h-0.061l-3.128-4.282l3.128-20.917h0.061l3.129,20.917
		L98.031,55.94z"/>
</g>
</svg>
