<?xml version="1.0" encoding="utf-8"?>
<!-- Generator: Adobe Illustrator 16.0.0, SVG Export Plug-In . SVG Version: 6.00 Build 0)  -->
<!DOCTYPE svg PUBLIC "-//W3C//DTD SVG 1.1//EN" "http://www.w3.org/Graphics/SVG/1.1/DTD/svg11.dtd">
<svg version="1.1" id="Layer_1" xmlns="http://www.w3.org/2000/svg" xmlns:xlink="http://www.w3.org/1999/xlink" x="0px" y="0px"
	 width="50px" height="50px" viewBox="0 0 50 50" enable-background="new 0 0 50 50" xml:space="preserve">
<g>
	<path d="M15.062,20.368c1.053,0,1.908-1.222,1.908-2.276s-0.855-1.909-1.908-1.909c-1.054,0-1.908,0.854-1.908,1.909
		S14.008,20.368,15.062,20.368z"/>
	<path d="M14.155,35.153l0.542-6.75c0.112,0.049,0.236,0.078,0.365,0.078c0.13,0,0.253-0.029,0.366-0.078l0.543,6.75
		c0.038,0.475,0.435,0.833,0.901,0.833c0.026,0,0.05-0.001,0.074-0.003c0.5-0.039,0.871-0.476,0.83-0.975l-0.6-7.469v-5.152
		c0.074,0.022,0.145,0.042,0.209,0.061l0.55,4.95c0.042,0.386,0.37,0.671,0.748,0.671c0.029,0,0.057-0.001,0.084-0.004
		c0.415-0.046,0.713-0.42,0.667-0.834l-0.603-5.435c-0.004-0.036-0.023-0.065-0.033-0.1c-0.014-0.055-0.026-0.109-0.052-0.16
		c-0.021-0.04-0.049-0.068-0.074-0.102c-0.034-0.045-0.065-0.089-0.108-0.126c-0.034-0.029-0.075-0.046-0.112-0.067
		c-0.039-0.023-0.07-0.054-0.115-0.07c-0.068-0.025-1.587-0.569-2.983-0.641l-0.191,0.384h-0.005l0.508,3.958l-0.604,1.055
		l-0.604-1.055l0.508-3.958h-0.006l-0.192-0.384c-1.395,0.072-2.914,0.616-2.981,0.641c-0.045,0.016-0.078,0.047-0.116,0.071
		c-0.038,0.021-0.079,0.038-0.111,0.066c-0.045,0.039-0.077,0.084-0.112,0.131c-0.023,0.031-0.05,0.06-0.069,0.096
		c-0.027,0.052-0.038,0.108-0.054,0.165c-0.009,0.033-0.028,0.061-0.032,0.097l-0.604,5.435c-0.045,0.414,0.252,0.788,0.667,0.834
		c0.028,0.003,0.056,0.004,0.084,0.004c0.379,0,0.706-0.285,0.749-0.671l0.549-4.95c0.065-0.019,0.136-0.039,0.21-0.061v5.152
		l-0.601,7.469c-0.041,0.499,0.331,0.936,0.83,0.975c0.025,0.001,0.049,0.003,0.074,0.003C13.72,35.986,14.116,35.628,14.155,35.153
		z"/>
	<path d="M25,15.472c1.054,0,1.909-1.221,1.909-2.275c0-1.054-0.855-1.909-1.909-1.909c-1.054,0-1.909,0.855-1.909,1.909
		C23.091,14.25,23.946,15.472,25,15.472z"/>
	<path d="M24.091,30.257l0.544-6.75c0.112,0.049,0.235,0.078,0.365,0.078s0.253-0.029,0.366-0.078l0.543,6.75
		c0.038,0.474,0.435,0.834,0.901,0.834c0.025,0,0.049-0.002,0.074-0.004c0.5-0.04,0.871-0.477,0.831-0.974l-0.601-7.47v-5.151
		c0.074,0.021,0.145,0.042,0.209,0.062l0.55,4.949c0.043,0.386,0.37,0.672,0.75,0.672c0.028,0,0.056-0.001,0.083-0.004
		c0.415-0.047,0.713-0.42,0.668-0.834l-0.605-5.434c-0.004-0.037-0.023-0.066-0.032-0.1c-0.014-0.056-0.026-0.111-0.052-0.162
		c-0.021-0.038-0.049-0.067-0.074-0.101c-0.034-0.045-0.065-0.089-0.108-0.126c-0.034-0.028-0.074-0.045-0.113-0.068
		c-0.038-0.023-0.071-0.053-0.115-0.069c-0.068-0.026-1.586-0.569-2.982-0.642L25.1,16.018h-0.004l0.508,3.958L25,21.031
		l-0.604-1.055l0.509-3.958h-0.006l-0.192-0.384c-1.395,0.072-2.913,0.616-2.981,0.642c-0.045,0.016-0.078,0.046-0.116,0.07
		c-0.038,0.021-0.078,0.039-0.111,0.066c-0.045,0.038-0.077,0.084-0.111,0.13c-0.024,0.033-0.051,0.061-0.07,0.097
		c-0.027,0.051-0.039,0.107-0.054,0.164c-0.009,0.034-0.027,0.062-0.031,0.099l-0.604,5.434c-0.046,0.415,0.253,0.788,0.667,0.834
		c0.029,0.003,0.056,0.004,0.085,0.004c0.379,0,0.707-0.286,0.749-0.672l0.549-4.949c0.065-0.02,0.136-0.041,0.21-0.062v5.151
		l-0.6,7.47c-0.041,0.498,0.331,0.935,0.83,0.974c0.024,0.002,0.048,0.004,0.073,0.004C23.657,31.091,24.054,30.731,24.091,30.257z"
		/>
	<path d="M34.937,10.576c1.053,0,1.908-1.221,1.908-2.275s-0.855-1.909-1.908-1.909c-1.055,0-1.91,0.854-1.91,1.909
		S33.882,10.576,34.937,10.576z"/>
	<path d="M34.028,25.361l0.544-6.751c0.112,0.05,0.235,0.079,0.365,0.079c0.129,0,0.253-0.028,0.365-0.079l0.543,6.751
		c0.038,0.474,0.434,0.833,0.9,0.833c0.025,0,0.049-0.001,0.074-0.002c0.499-0.041,0.871-0.477,0.83-0.976l-0.601-7.469v-5.151
		c0.075,0.021,0.146,0.042,0.21,0.061l0.549,4.95c0.043,0.385,0.371,0.671,0.75,0.671c0.029,0,0.056-0.001,0.084-0.004
		c0.415-0.047,0.712-0.42,0.667-0.833l-0.604-5.434c-0.004-0.037-0.024-0.066-0.033-0.101c-0.014-0.055-0.025-0.11-0.052-0.16
		c-0.021-0.039-0.048-0.068-0.075-0.101c-0.033-0.045-0.064-0.089-0.107-0.126c-0.033-0.029-0.074-0.046-0.113-0.068
		c-0.038-0.023-0.07-0.054-0.115-0.069c-0.068-0.026-1.586-0.57-2.982-0.642l-0.193,0.384h-0.004l0.508,3.958l-0.604,1.055
		l-0.604-1.055l0.508-3.958h-0.006l-0.191-0.384c-1.396,0.072-2.915,0.616-2.983,0.642c-0.044,0.016-0.076,0.046-0.115,0.07
		c-0.038,0.022-0.077,0.039-0.109,0.066c-0.046,0.039-0.078,0.085-0.112,0.13c-0.024,0.032-0.051,0.061-0.071,0.098
		c-0.027,0.05-0.04,0.106-0.053,0.163c-0.009,0.034-0.028,0.063-0.033,0.098l-0.603,5.434c-0.046,0.413,0.252,0.787,0.667,0.833
		c0.027,0.003,0.055,0.004,0.084,0.004c0.378,0,0.706-0.286,0.749-0.671l0.55-4.95c0.065-0.018,0.135-0.039,0.209-0.061v5.151
		l-0.6,7.469c-0.041,0.5,0.331,0.935,0.831,0.976c0.024,0.001,0.047,0.002,0.073,0.002C33.594,26.194,33.99,25.835,34.028,25.361z"
		/>
	<path d="M36.746,26.194h-3.619h-3.159v4.896H26.81h-3.621h-3.158v4.895h-3.159h-3.619h-3.159v7.622h9.937h9.937h9.937V26.194
		H36.746z M15.361,41.915v0.678H14.71v-0.631c-0.445-0.02-0.878-0.14-1.13-0.286l0.2-0.777c0.278,0.152,0.671,0.292,1.103,0.292
		c0.379,0,0.638-0.146,0.638-0.412c0-0.253-0.212-0.412-0.704-0.579c-0.711-0.239-1.196-0.571-1.196-1.216
		c0-0.585,0.411-1.043,1.123-1.184v-0.631h0.652v0.585c0.444,0.02,0.745,0.113,0.963,0.219l-0.193,0.751
		c-0.173-0.073-0.479-0.227-0.957-0.227c-0.433,0-0.571,0.187-0.571,0.373c0,0.219,0.232,0.359,0.798,0.572
		c0.791,0.279,1.11,0.645,1.11,1.243C16.545,41.276,16.126,41.782,15.361,41.915z M25.299,39.607v0.678h-0.651v-0.632
		c-0.445-0.02-0.878-0.14-1.13-0.286l0.199-0.778c0.279,0.153,0.671,0.293,1.103,0.293c0.379,0,0.638-0.146,0.638-0.412
		c0-0.253-0.212-0.413-0.704-0.579c-0.711-0.239-1.196-0.571-1.196-1.216c0-0.585,0.411-1.044,1.123-1.183v-0.631h0.652v0.585
		c0.445,0.02,0.745,0.113,0.964,0.219l-0.192,0.751c-0.174-0.073-0.479-0.227-0.958-0.227c-0.433,0-0.572,0.187-0.572,0.372
		c0,0.219,0.233,0.359,0.798,0.572c0.79,0.28,1.11,0.646,1.11,1.243C26.483,38.969,26.063,39.474,25.299,39.607z M35.237,37.299
		v0.679h-0.651v-0.632c-0.446-0.02-0.878-0.14-1.13-0.286l0.2-0.778c0.279,0.152,0.671,0.292,1.103,0.292
		c0.379,0,0.638-0.146,0.638-0.413c0-0.253-0.212-0.412-0.704-0.578c-0.712-0.239-1.197-0.571-1.197-1.216
		c0-0.585,0.411-1.044,1.123-1.184v-0.632h0.652v0.586c0.445,0.019,0.745,0.112,0.964,0.219l-0.192,0.751
		c-0.173-0.074-0.479-0.227-0.957-0.227c-0.433,0-0.572,0.186-0.572,0.372c0,0.219,0.233,0.359,0.799,0.572
		c0.791,0.279,1.11,0.645,1.11,1.243C36.421,36.661,36.001,37.167,35.237,37.299z"/>
</g>
</svg>
