<?xml version="1.0" encoding="utf-8"?>
<!-- Generator: Adobe Illustrator 16.0.0, SVG Export Plug-In . SVG Version: 6.00 Build 0)  -->
<!DOCTYPE svg PUBLIC "-//W3C//DTD SVG 1.1//EN" "http://www.w3.org/Graphics/SVG/1.1/DTD/svg11.dtd">
<svg version="1.1" id="Layer_1" xmlns="http://www.w3.org/2000/svg" xmlns:xlink="http://www.w3.org/1999/xlink" x="0px" y="0px"
	 width="126px" height="126px" viewBox="0 0 126 126" enable-background="new 0 0 126 126" xml:space="preserve">
<g>
	<circle cx="70.363" cy="8.055" r="6.765"/>
	<path d="M74.861,16.467c-0.113-0.069-0.232-0.119-0.349-0.169c-0.755-0.503-1.602-0.872-2.465-1.085l-1.684,1.697l-1.634-1.715
		c-0.006,0-0.011,0-0.018,0.003c-0.866,0.206-1.716,0.574-2.474,1.076c-0.135,0.054-0.269,0.114-0.399,0.192
		c-4.11,2.522-6.851,4.632-8.295,12.578H68.54l0.176-0.979l1.63-10.904h0.033l1.632,10.904l0.195,0.979h10.951
		C81.712,21.099,78.972,18.989,74.861,16.467z"/>
	<circle cx="44.75" cy="8.055" r="6.765"/>
	<path d="M49.249,16.467c-0.113-0.069-0.232-0.119-0.35-0.169c-0.755-0.503-1.602-0.872-2.465-1.085L44.75,16.91l-1.634-1.715
		c-0.006,0-0.011,0-0.017,0.003c-0.866,0.206-1.717,0.574-2.474,1.076c-0.135,0.054-0.269,0.114-0.399,0.192
		c-4.11,2.522-6.851,4.632-8.295,12.578h10.997l0.176-0.979l1.63-10.904h0.033l1.632,10.904l0.195,0.979h10.951
		C56.099,21.099,53.358,18.989,49.249,16.467z"/>
	<circle cx="19.137" cy="8.055" r="6.765"/>
	<path d="M23.635,16.467c-0.113-0.069-0.232-0.119-0.35-0.169c-0.755-0.503-1.602-0.872-2.465-1.085l-1.684,1.697l-1.634-1.715
		c-0.006,0-0.011,0-0.017,0.003c-0.866,0.206-1.717,0.574-2.474,1.076c-0.134,0.054-0.269,0.114-0.399,0.192
		c-4.11,2.522-6.851,4.632-8.295,12.578h10.997l0.176-0.979l1.63-10.904h0.033l1.632,10.904l0.195,0.979H31.93
		C30.486,21.099,27.745,18.989,23.635,16.467z"/>
	<circle cx="70.362" cy="53.239" r="6.765"/>
	<path d="M74.861,61.65c-0.113-0.069-0.232-0.117-0.349-0.17c-0.755-0.501-1.602-0.872-2.465-1.085l-1.684,1.697l-1.634-1.714
		c-0.006,0-0.011,0.002-0.018,0.002c-0.866,0.208-1.716,0.575-2.474,1.076c-0.135,0.055-0.269,0.115-0.399,0.193
		c-4.11,2.521-6.851,4.633-8.295,12.577H68.54l0.176-0.977l1.63-10.906h0.033l1.632,10.906l0.195,0.977h10.951
		C81.712,66.283,78.972,64.172,74.861,61.65z"/>
	<circle cx="44.749" cy="53.239" r="6.765"/>
	<path d="M49.249,61.65c-0.113-0.069-0.232-0.117-0.35-0.17c-0.755-0.501-1.602-0.872-2.465-1.085l-1.684,1.697l-1.634-1.714
		c-0.006,0-0.011,0.002-0.017,0.002c-0.866,0.208-1.717,0.575-2.474,1.076c-0.135,0.055-0.269,0.115-0.399,0.193
		c-4.11,2.521-6.851,4.633-8.295,12.577h10.997l0.176-0.977l1.63-10.906h0.033l1.632,10.906l0.195,0.977h10.951
		C56.099,66.283,53.358,64.172,49.249,61.65z"/>
	<circle cx="70.362" cy="103.721" r="6.765"/>
	<path d="M74.861,112.133c-0.113-0.07-0.232-0.12-0.349-0.17c-0.755-0.503-1.602-0.872-2.465-1.085l-1.684,1.697l-1.634-1.715
		c-0.006,0-0.011,0-0.018,0.003c-0.866,0.206-1.716,0.574-2.474,1.076c-0.135,0.054-0.269,0.115-0.399,0.193
		c-4.11,2.521-6.851,4.631-8.295,12.577H68.54l0.176-0.979l1.63-10.904h0.033l1.632,10.904l0.195,0.979h10.951
		C81.712,116.764,78.972,114.654,74.861,112.133z"/>
	<path d="M112.501,53.849c-3.408,0-6.256,2.378-6.992,5.563h-3.732V9.618H86.689v3.272h11.815v46.521H86.689v4.025h11.815v50.727
		H86.689v3.271h15.087V63.438h3.966c0.99,2.779,3.639,4.772,6.759,4.772c3.966,0,7.182-3.213,7.182-7.18
		S116.467,53.849,112.501,53.849z"/>
</g>
</svg>
