<?xml version="1.0" encoding="utf-8"?>
<!-- Generator: Adobe Illustrator 16.0.0, SVG Export Plug-In . SVG Version: 6.00 Build 0)  -->
<!DOCTYPE svg PUBLIC "-//W3C//DTD SVG 1.1//EN" "http://www.w3.org/Graphics/SVG/1.1/DTD/svg11.dtd">
<svg version="1.1" id="Layer_1" xmlns="http://www.w3.org/2000/svg" xmlns:xlink="http://www.w3.org/1999/xlink" x="0px" y="0px"
	 width="50px" height="50px" viewBox="0 0 50 50" enable-background="new 0 0 50 50" xml:space="preserve">
<g>
	<path d="M41.785,24h-3.336C37.959,17.354,32.646,12.042,26,11.551V8.215h-2v3.336C17.354,12.042,12.041,17.354,11.551,24H8.215v2
		h3.336c0.49,6.646,5.803,11.958,12.449,12.449v3.336h2v-3.336C32.646,37.958,37.959,32.646,38.449,26h3.336V24z M25,36.5
		c-6.341,0-11.5-5.159-11.5-11.5S18.659,13.5,25,13.5S36.5,18.659,36.5,25S31.341,36.5,25,36.5z"/>
	<path d="M27.004,25.486c1.469-0.988,2.48-2.937,2.48-4.692c0-2.476-2.008-4.483-4.484-4.483c-2.475,0-4.482,2.008-4.482,4.483
		c0,1.755,1.01,3.704,2.48,4.692c-3.514,0.891-6.115,3.94-6.115,6.2c0,2.671,16.236,2.671,16.236,0
		C33.119,29.427,30.516,26.377,27.004,25.486z M25,33.688l-2.273-2.274l1.914-4.628h-0.02l-0.744-0.853
		c0.359,0.129,0.734,0.207,1.123,0.207s0.764-0.077,1.123-0.205l-0.744,0.852h-0.018l1.914,4.628L25,33.688z"/>
</g>
</svg>
