<?xml version="1.0" encoding="utf-8"?>
<!-- Generator: Adobe Illustrator 16.0.0, SVG Export Plug-In . SVG Version: 6.00 Build 0)  -->
<!DOCTYPE svg PUBLIC "-//W3C//DTD SVG 1.1//EN" "http://www.w3.org/Graphics/SVG/1.1/DTD/svg11.dtd">
<svg version="1.1" id="Layer_1" xmlns="http://www.w3.org/2000/svg" xmlns:xlink="http://www.w3.org/1999/xlink" x="0px" y="0px"
	 width="50px" height="50px" viewBox="0 0 50 50" enable-background="new 0 0 50 50" xml:space="preserve">
<path d="M20.522,38.896H36.04c0,0-4.503-3.619-4.408-7.587c0.056-2.211,4.408-5.025,4.386-11.168
	c-0.013-3.089-3.009-8.225-8.097-8.865c-5.089-0.641-8.897,0.479-10.561,3.616c-1.666,3.136-1.792,5.889-1.664,6.4
	c0.129,0.513,0.672,1.473,0.672,1.473s-2.56,3.936-2.401,4.576c0.162,0.641,1.918,0.986,1.918,0.986s0.159,0.445-0.162,1.309
	c-0.32,0.865,0.596,1.868,0.871,2.218c0.271,0.349-0.385,1.439-0.162,2.048c0.224,0.607,1.281,1.343,2.496,1.184
	c1.217-0.161,2.778-0.448,3.32-0.545C23.472,37.422,20.522,38.896,20.522,38.896z M27.152,29.515c-1.165,0-1.956-0.857-1.956-2
	c0-1.166,0.812-2,1.956-2c1.188,0,1.957,0.835,1.979,2C29.131,28.657,28.34,29.515,27.152,29.515z M27.459,14.213
	c2.903,0,4.221,1.605,4.221,3.429c0,1.671-1.033,2.77-1.867,3.694c-0.814,0.901-1.144,1.759-1.122,2.748v0.396h-2.924l-0.021-0.571
	c-0.065-1.122,0.307-2.265,1.297-3.452c0.703-0.835,1.274-1.539,1.274-2.286c0-0.77-0.505-1.275-1.604-1.319
	c-0.725,0-1.605,0.264-2.177,0.66l-0.746-2.396C24.58,14.653,25.897,14.213,27.459,14.213z"/>
</svg>
