<?xml version="1.0" encoding="utf-8"?>
<!-- Generator: Adobe Illustrator 16.0.0, SVG Export Plug-In . SVG Version: 6.00 Build 0)  -->
<!DOCTYPE svg PUBLIC "-//W3C//DTD SVG 1.1//EN" "http://www.w3.org/Graphics/SVG/1.1/DTD/svg11.dtd">
<svg version="1.1" id="Layer_1" xmlns="http://www.w3.org/2000/svg" xmlns:xlink="http://www.w3.org/1999/xlink" x="0px" y="0px"
	 width="50px" height="50px" viewBox="0 0 50 50" enable-background="new 0 0 50 50" xml:space="preserve">
<g>
	<path d="M17.853,24.264c1.049,0,1.899-1.217,1.899-2.266c0-1.05-0.851-1.9-1.899-1.9c-1.05,0-1.901,0.851-1.901,1.9
		C15.951,23.047,16.803,24.264,17.853,24.264z"/>
	<path d="M32.147,24.264c1.05,0,1.9-1.217,1.9-2.266c0-1.05-0.851-1.9-1.9-1.9c-1.049,0-1.9,0.851-1.9,1.9
		C30.247,23.047,31.099,24.264,32.147,24.264z"/>
	<path d="M19.164,32.547c-0.283-0.353-0.411-0.795-0.361-1.244l0.742-6.678c-0.531-0.115-1.131-0.207-1.692-0.207
		c-1.341,0-2.9,0.521-3.207,0.627c-0.013,0.004-0.023,0.008-0.036,0.013c-0.007,0.003-0.017,0.006-0.02,0.007
		c-0.015,0.006-0.025,0.018-0.039,0.024c-0.072,0.031-0.141,0.068-0.199,0.121c-0.027,0.024-0.045,0.054-0.068,0.082
		c-0.038,0.044-0.075,0.087-0.102,0.14c-0.024,0.047-0.034,0.098-0.047,0.148c-0.011,0.037-0.031,0.068-0.036,0.108l-0.601,5.41
		c-0.046,0.412,0.251,0.784,0.664,0.83c0.028,0.003,0.056,0.005,0.084,0.005c0.378,0,0.704-0.284,0.746-0.669l0.547-4.929
		c0.064-0.019,0.135-0.039,0.209-0.061v5.129l-0.599,7.438c-0.039,0.496,0.331,0.931,0.827,0.971
		c0.024,0.002,0.049,0.003,0.072,0.003c0.466,0,0.861-0.357,0.899-0.829l0.54-6.723c0.111,0.05,0.234,0.078,0.364,0.078
		s0.253-0.028,0.364-0.078l0.541,6.723c0.037,0.472,0.432,0.829,0.897,0.829c0.023,0,0.049-0.001,0.073-0.003
		c0.496-0.04,0.866-0.475,0.826-0.971l-0.459-5.713C19.733,33.045,19.404,32.848,19.164,32.547z"/>
	<path d="M35.901,25.688c-0.005-0.038-0.023-0.068-0.034-0.104c-0.014-0.053-0.023-0.105-0.049-0.154
		c-0.023-0.044-0.055-0.078-0.085-0.115c-0.029-0.039-0.055-0.077-0.092-0.109c-0.043-0.036-0.092-0.06-0.142-0.086
		c-0.031-0.017-0.056-0.042-0.09-0.055c-0.073-0.025-1.801-0.646-3.263-0.646c-0.562,0-1.16,0.094-1.692,0.208l0.742,6.677
		c0.05,0.449-0.078,0.892-0.361,1.244c-0.238,0.299-0.564,0.496-0.931,0.583l-0.46,5.713c-0.04,0.496,0.331,0.931,0.826,0.971
		c0.024,0.002,0.05,0.003,0.073,0.003c0.466,0,0.861-0.357,0.898-0.829l0.541-6.723c0.111,0.05,0.234,0.078,0.363,0.078
		c0.131,0,0.253-0.028,0.365-0.078l0.54,6.723c0.038,0.472,0.433,0.829,0.898,0.829c0.023,0,0.048-0.001,0.072-0.003
		c0.497-0.04,0.866-0.475,0.827-0.971l-0.599-7.438v-5.129c0.075,0.021,0.145,0.042,0.209,0.061l0.547,4.929
		c0.043,0.385,0.368,0.669,0.746,0.669c0.028,0,0.056-0.002,0.084-0.005c0.413-0.046,0.71-0.418,0.664-0.83L35.901,25.688z"/>
	<path d="M22.621,19.996c0,1.313,1.065,2.837,2.379,2.837c1.312,0,2.378-1.523,2.378-2.837S26.312,17.618,25,17.618
		C23.687,17.618,22.621,18.683,22.621,19.996z"/>
	<path d="M29.619,32.425c0.516-0.058,0.887-0.522,0.83-1.039l-0.753-6.771c-0.005-0.047-0.029-0.085-0.041-0.13
		c-0.018-0.066-0.03-0.132-0.062-0.193c-0.027-0.054-0.068-0.098-0.104-0.145c-0.038-0.048-0.07-0.096-0.116-0.136
		c-0.053-0.046-0.115-0.075-0.178-0.108c-0.038-0.021-0.069-0.053-0.112-0.068c-0.085-0.03-1.978-0.709-3.718-0.799l-0.014,0.028
		c-0.117-0.008-0.236-0.028-0.352-0.028s-0.232,0.021-0.35,0.028l-0.011-0.022c-1.587,0.08-3.296,0.645-3.652,0.77
		c-0.016,0.004-0.029,0.01-0.045,0.015c-0.009,0.004-0.021,0.008-0.023,0.009c-0.02,0.007-0.031,0.022-0.05,0.03
		c-0.09,0.04-0.175,0.085-0.249,0.151c-0.035,0.031-0.057,0.068-0.087,0.104c-0.047,0.056-0.094,0.108-0.127,0.174
		c-0.03,0.06-0.042,0.122-0.06,0.187c-0.012,0.046-0.036,0.086-0.042,0.135l-0.753,6.771c-0.057,0.517,0.314,0.981,0.83,1.039
		c0.036,0.004,0.071,0.006,0.106,0.006c0.473,0,0.88-0.356,0.933-0.837l0.686-6.168c0.08-0.024,0.168-0.05,0.261-0.076v6.419
		l-0.748,9.309c-0.05,0.621,0.413,1.165,1.034,1.215c0.03,0.003,0.062,0.004,0.092,0.004c0.582,0,1.076-0.447,1.124-1.038
		l0.677-8.412c0.139,0.062,0.293,0.098,0.455,0.098s0.316-0.036,0.456-0.098l0.676,8.412c0.048,0.591,0.542,1.038,1.124,1.038
		c0.031,0,0.062-0.001,0.092-0.004c0.621-0.05,1.084-0.594,1.034-1.215l-0.748-9.309V25.35c0.093,0.026,0.181,0.052,0.261,0.076
		l0.686,6.168c0.053,0.48,0.46,0.837,0.933,0.837C29.548,32.431,29.584,32.428,29.619,32.425z"/>
	<path d="M22.58,10.418c0.004,0.051,0.01,0.104,0.018,0.158h1.512c-0.004-0.023-0.006-0.053-0.006-0.088
		c-0.004-0.031-0.006-0.066-0.006-0.105v-0.129c0-0.109,0.011-0.237,0.032-0.384s0.064-0.284,0.129-0.413s0.158-0.238,0.281-0.328
		s0.284-0.135,0.483-0.135c0.188,0,0.336,0.04,0.445,0.12s0.193,0.174,0.252,0.281s0.097,0.217,0.114,0.328s0.026,0.196,0.026,0.255
		c0,0.258-0.035,0.483-0.105,0.677s-0.159,0.369-0.267,0.527s-0.223,0.308-0.346,0.448s-0.238,0.287-0.346,0.439
		s-0.196,0.319-0.267,0.501s-0.105,0.392-0.105,0.63v0.521h1.512v-0.34c0-0.234,0.037-0.435,0.111-0.601s0.167-0.321,0.278-0.466
		s0.231-0.288,0.36-0.431s0.249-0.306,0.36-0.489s0.204-0.399,0.278-0.647s0.111-0.55,0.111-0.905c0-0.316-0.054-0.605-0.161-0.867
		s-0.262-0.486-0.463-0.674s-0.445-0.334-0.732-0.439s-0.608-0.158-0.964-0.158c-0.43,0-0.804,0.064-1.122,0.193
		s-0.584,0.305-0.797,0.527s-0.372,0.482-0.478,0.779s-0.158,0.613-0.158,0.949c0,0.039,0.001,0.082,0.003,0.129
		S22.572,10.375,22.58,10.418z"/>
	<rect x="24.361" y="14.438" width="1.658" height="1.646"/>
	<rect x="17.445" y="17.732" width="1.055" height="1.047"/>
	<path d="M16.312,15.176c0.002,0.032,0.006,0.065,0.011,0.101h0.962c-0.003-0.015-0.004-0.034-0.004-0.056
		c-0.002-0.021-0.004-0.043-0.004-0.067v-0.082c0-0.069,0.007-0.151,0.021-0.244s0.041-0.181,0.082-0.263s0.101-0.151,0.179-0.209
		c0.079-0.057,0.182-0.086,0.308-0.086c0.119,0,0.214,0.026,0.283,0.077s0.123,0.11,0.16,0.179c0.038,0.068,0.062,0.138,0.073,0.209
		c0.011,0.07,0.017,0.125,0.017,0.162c0,0.164-0.022,0.307-0.067,0.43s-0.101,0.235-0.169,0.336s-0.142,0.195-0.22,0.285
		c-0.079,0.089-0.152,0.183-0.221,0.279s-0.125,0.203-0.169,0.318c-0.045,0.115-0.067,0.249-0.067,0.4v0.332h0.962v-0.216
		c0-0.149,0.023-0.276,0.07-0.382s0.106-0.205,0.177-0.297c0.071-0.092,0.147-0.183,0.229-0.273s0.158-0.194,0.229-0.312
		c0.07-0.116,0.13-0.254,0.177-0.412c0.047-0.157,0.071-0.35,0.071-0.575c0-0.201-0.035-0.385-0.103-0.552
		c-0.068-0.166-0.167-0.31-0.295-0.429s-0.283-0.212-0.466-0.279s-0.387-0.101-0.613-0.101c-0.273,0-0.511,0.041-0.713,0.123
		c-0.203,0.082-0.372,0.193-0.507,0.335c-0.136,0.142-0.237,0.308-0.304,0.496c-0.067,0.188-0.102,0.39-0.102,0.604
		c0,0.025,0.001,0.053,0.002,0.082C16.305,15.12,16.308,15.148,16.312,15.176z"/>
	<path d="M30.608,15.176c0.002,0.032,0.006,0.065,0.011,0.101h0.962c-0.003-0.015-0.004-0.034-0.004-0.056
		c-0.002-0.021-0.004-0.043-0.004-0.067v-0.082c0-0.069,0.007-0.151,0.021-0.244s0.041-0.181,0.082-0.263s0.101-0.151,0.179-0.209
		c0.079-0.057,0.182-0.086,0.308-0.086c0.119,0,0.214,0.026,0.283,0.077s0.123,0.11,0.16,0.179c0.038,0.068,0.062,0.138,0.073,0.209
		c0.011,0.07,0.017,0.125,0.017,0.162c0,0.164-0.022,0.307-0.067,0.43s-0.101,0.235-0.169,0.336s-0.142,0.195-0.22,0.285
		c-0.079,0.089-0.152,0.183-0.221,0.279s-0.125,0.203-0.169,0.318c-0.045,0.115-0.067,0.249-0.067,0.4v0.332h0.962v-0.216
		c0-0.149,0.023-0.276,0.07-0.382s0.106-0.205,0.177-0.297c0.071-0.092,0.147-0.183,0.229-0.273s0.158-0.194,0.229-0.312
		c0.07-0.116,0.13-0.254,0.177-0.412c0.047-0.157,0.071-0.35,0.071-0.575c0-0.201-0.035-0.385-0.103-0.552
		c-0.068-0.166-0.167-0.31-0.295-0.429s-0.283-0.212-0.466-0.279s-0.387-0.101-0.613-0.101c-0.273,0-0.511,0.041-0.713,0.123
		c-0.203,0.082-0.372,0.193-0.507,0.335c-0.136,0.142-0.237,0.308-0.304,0.496c-0.067,0.188-0.102,0.39-0.102,0.604
		c0,0.025,0.001,0.053,0.002,0.082C30.601,15.12,30.604,15.148,30.608,15.176z"/>
	<rect x="31.741" y="17.732" width="1.055" height="1.047"/>
</g>
</svg>
