<?xml version="1.0" encoding="utf-8"?>
<!-- Generator: Adobe Illustrator 16.0.0, SVG Export Plug-In . SVG Version: 6.00 Build 0)  -->
<!DOCTYPE svg PUBLIC "-//W3C//DTD SVG 1.1//EN" "http://www.w3.org/Graphics/SVG/1.1/DTD/svg11.dtd">
<svg version="1.1" id="Layer_1" xmlns="http://www.w3.org/2000/svg" xmlns:xlink="http://www.w3.org/1999/xlink" x="0px" y="0px"
	 width="126px" height="126px" viewBox="0 0 126 126" enable-background="new 0 0 126 126" xml:space="preserve">
<g>
	<circle cx="34.641" cy="9.633" r="8.935"/>
	<path d="M40.584,20.744c-0.134-0.083-0.275-0.14-0.415-0.202c-1.009-0.67-2.143-1.172-3.303-1.455l-2.225,2.239l-2.158-2.265
		c-0.009,0.003-0.017,0.003-0.023,0.004c-1.163,0.278-2.303,0.777-3.315,1.456c-0.154,0.066-0.31,0.132-0.457,0.223
		c-3.681,2.257-12.146,10.741-11.744,15.684c0.24,2.947,3.55,8.478,5.502,11.511c0.664,1.029,1.779,1.591,2.92,1.591
		c0.201,0,0.4-0.023,0.602-0.059c-0.006,0.086-0.014,0.173-0.014,0.26l0.003,33.219c0,2.265,1.836,4.099,4.1,4.099
		c2.265,0,4.1-1.835,4.1-4.1L34.153,54.44c0.162,0.008,0.324,0.021,0.488,0.021c0.031,0,0.063-0.004,0.095-0.005v28.492
		c0,2.265,1.834,4.1,4.099,4.1s4.101-1.835,4.101-4.1l0.001-33.142c0.063-0.123,0.121-0.25,0.178-0.376
		c0.263,0.062,0.527,0.099,0.793,0.099c1.139,0,2.256-0.562,2.918-1.591c1.953-3.033,5.264-8.563,5.503-11.511
		C52.731,31.485,44.266,23.001,40.584,20.744z M25.495,39.469c-0.815-1.511-1.413-2.777-1.593-3.413
		c0.208-0.604,0.79-1.557,1.593-2.639V39.469z M34.662,39.013H34.62l-2.154-2.95l2.154-14.403h0.042l2.154,14.403L34.662,39.013z
		 M43.786,39.447v-6.017c0.791,1.069,1.369,2.01,1.579,2.614C45.174,36.708,44.585,37.962,43.786,39.447z"/>
	<circle cx="69.923" cy="30.213" r="7.449"/>
	<path d="M74.878,39.476c-0.112-0.069-0.229-0.115-0.346-0.168c-0.84-0.559-1.788-0.977-2.753-1.214l-1.856,1.868l-1.8-1.889
		c-0.006,0.001-0.012,0.002-0.018,0.003c-0.97,0.231-1.921,0.648-2.765,1.215c-0.129,0.055-0.258,0.109-0.38,0.185
		c-3.07,1.883-10.128,8.955-9.793,13.075c0.201,2.458,2.96,7.068,4.588,9.597c0.553,0.859,1.484,1.326,2.435,1.326
		c0.167,0,0.335-0.02,0.501-0.048c-0.004,0.07-0.011,0.143-0.011,0.217l0.002,27.691c0,1.889,1.53,3.419,3.419,3.418
		c1.887,0,3.416-1.53,3.416-3.418l-0.001-23.766c0.136,0.006,0.271,0.017,0.406,0.017c0.026,0,0.054-0.002,0.08-0.002l-0.001,23.751
		c0,1.888,1.53,3.418,3.417,3.418h0.001c1.887,0,3.418-1.53,3.418-3.418l0.001-27.629c0.054-0.103,0.102-0.209,0.148-0.313
		c0.218,0.052,0.439,0.082,0.66,0.082c0.95,0,1.882-0.467,2.435-1.326c1.628-2.528,4.387-7.139,4.586-9.597
		C85.004,48.431,77.947,41.358,74.878,39.476z M62.299,55.088c-0.68-1.262-1.179-2.317-1.328-2.848
		c0.173-0.504,0.659-1.298,1.328-2.199V55.088z M69.941,54.705h-0.034l-1.797-2.459l1.797-12.007h0.034l1.797,12.007L69.941,54.705z
		 M77.548,55.069v-5.016c0.66,0.891,1.142,1.675,1.316,2.177C78.705,52.785,78.212,53.83,77.548,55.069z"/>
	<circle cx="99.507" cy="52.102" r="5.603"/>
	<path d="M103.232,59.066c-0.083-0.051-0.172-0.087-0.26-0.125c-0.631-0.422-1.343-0.734-2.069-0.912l-1.396,1.403l-1.353-1.421
		c-0.006,0.002-0.01,0.002-0.014,0.004c-0.729,0.173-1.443,0.486-2.078,0.913c-0.098,0.041-0.194,0.082-0.287,0.138
		c-2.309,1.416-7.616,6.734-7.363,9.834c0.15,1.849,2.226,5.313,3.449,7.215c0.416,0.647,1.117,0.998,1.831,0.998
		c0.126,0,0.251-0.014,0.377-0.035c-0.005,0.053-0.008,0.107-0.008,0.163l0.001,20.825c0,1.42,1.151,2.571,2.57,2.569
		c1.42,0,2.569-1.15,2.569-2.569l-0.001-17.874c0.103,0.006,0.203,0.013,0.306,0.013c0.021,0,0.041-0.002,0.06-0.002v17.863
		c0,1.419,1.15,2.569,2.57,2.569s2.571-1.15,2.571-2.569l0.001-20.778c0.04-0.077,0.076-0.157,0.11-0.235
		c0.165,0.039,0.331,0.061,0.497,0.061c0.714,0,1.416-0.351,1.83-0.998c1.225-1.901,3.298-5.366,3.451-7.215
		C110.849,65.801,105.541,60.482,103.232,59.066z M93.773,70.807c-0.512-0.946-0.886-1.742-0.998-2.14
		c0.131-0.38,0.496-0.976,0.998-1.654V70.807z M99.521,70.52h-0.026l-1.35-1.849l1.35-9.03h0.026l1.351,9.03L99.521,70.52z
		 M105.24,70.793v-3.772c0.497,0.671,0.859,1.261,0.991,1.638C106.111,69.076,105.742,69.861,105.24,70.793z"/>
	<path d="M48.59,110.151l-1.843-0.681c0.146-1.345,0.099-2.713-0.154-4.074l1.779-0.82c1.113-0.511,1.6-1.833,1.086-2.944
		l-1.037-2.255c-0.514-1.11-1.832-1.599-2.942-1.088l-1.781,0.822c-0.87-1.078-1.882-2.005-2.996-2.769l0.68-1.84
		c0.424-1.148-0.163-2.427-1.311-2.85l-2.33-0.861c-1.112-0.409-2.439,0.203-2.85,1.313l-0.681,1.842
		c-1.342-0.144-2.713-0.098-4.076,0.155l-0.817-1.778c-0.514-1.112-1.833-1.6-2.943-1.088l-2.255,1.038
		c-1.112,0.513-1.599,1.834-1.087,2.944l0.819,1.78c-1.078,0.872-2.005,1.88-2.769,2.995l-1.838-0.678
		c-1.109-0.414-2.44,0.198-2.852,1.311l-0.86,2.33c-0.204,0.557-0.183,1.158,0.066,1.697c0.25,0.537,0.693,0.947,1.247,1.15
		l1.841,0.683c-0.146,1.341-0.099,2.713,0.156,4.073l-1.778,0.821c-1.113,0.511-1.6,1.831-1.089,2.94l1.04,2.257
		c0.511,1.11,1.832,1.599,2.941,1.085l1.78-0.818c0.872,1.079,1.882,2.005,2.998,2.767l-0.681,1.842
		c-0.207,0.555-0.185,1.156,0.066,1.696c0.245,0.537,0.689,0.948,1.243,1.153l2.332,0.859c0.555,0.206,1.156,0.182,1.694-0.064
		c0.54-0.249,0.947-0.691,1.152-1.248l0.683-1.842c1.342,0.146,2.711,0.098,4.075-0.154l0.819,1.78
		c0.51,1.108,1.833,1.599,2.942,1.085l2.256-1.038c1.111-0.514,1.599-1.832,1.085-2.943l-0.818-1.778
		c1.077-0.872,2.003-1.883,2.767-2.998l1.841,0.682c0.557,0.207,1.16,0.182,1.697-0.066s0.947-0.691,1.151-1.246l0.863-2.33
		C50.327,111.854,49.736,110.573,48.59,110.151z M36.389,115.946c-1.162,0.534-2.397,0.805-3.668,0.805
		c-3.414,0-6.543-2.003-7.971-5.103c-2.022-4.396-0.096-9.616,4.297-11.638c1.162-0.536,2.396-0.808,3.666-0.808
		c3.415,0,6.546,2.003,7.974,5.103C42.709,108.701,40.78,113.922,36.389,115.946z"/>
	<path d="M81.289,113.877l-1.349-0.496c0.107-0.983,0.069-1.985-0.114-2.981l1.303-0.599c0.812-0.375,1.169-1.342,0.794-2.155
		l-0.759-1.649c-0.376-0.812-1.34-1.17-2.151-0.795l-1.304,0.602c-0.636-0.789-1.377-1.466-2.191-2.025l0.497-1.346
		c0.311-0.839-0.12-1.775-0.96-2.086l-1.704-0.627c-0.813-0.3-1.783,0.148-2.084,0.96l-0.498,1.347
		c-0.98-0.105-1.982-0.069-2.979,0.113l-0.602-1.302c-0.371-0.813-1.339-1.17-2.15-0.794l-1.65,0.76
		c-0.813,0.374-1.169,1.339-0.797,2.151l0.602,1.303c-0.786,0.638-1.464,1.377-2.024,2.191l-1.344-0.496
		c-0.813-0.302-1.786,0.145-2.087,0.96l-0.63,1.703c-0.148,0.406-0.131,0.849,0.05,1.239c0.184,0.394,0.505,0.694,0.911,0.844
		l1.348,0.499c-0.105,0.98-0.071,1.983,0.114,2.979l-1.304,0.599c-0.812,0.374-1.167,1.34-0.794,2.151l0.762,1.652
		c0.374,0.812,1.338,1.167,2.151,0.793l1.304-0.599c0.636,0.789,1.374,1.467,2.19,2.023l-0.497,1.347
		c-0.152,0.406-0.135,0.847,0.047,1.239c0.181,0.395,0.505,0.696,0.91,0.846l1.705,0.628c0.405,0.151,0.846,0.135,1.241-0.047
		c0.395-0.182,0.694-0.507,0.843-0.913l0.498-1.347c0.983,0.106,1.983,0.073,2.981-0.113l0.599,1.303
		c0.373,0.812,1.34,1.168,2.151,0.793l1.65-0.759c0.813-0.374,1.168-1.34,0.796-2.151l-0.602-1.304
		c0.787-0.637,1.466-1.376,2.025-2.189l1.347,0.498c0.406,0.149,0.847,0.132,1.241-0.051c0.394-0.18,0.691-0.506,0.842-0.909
		l0.63-1.706C82.557,115.123,82.125,114.188,81.289,113.877z M72.363,118.116c-0.852,0.391-1.754,0.59-2.683,0.59
		c-2.498,0-4.786-1.465-5.83-3.733c-1.481-3.213-0.069-7.032,3.144-8.513c0.849-0.392,1.752-0.589,2.68-0.589
		c2.499,0,4.786,1.463,5.833,3.732C76.985,112.816,75.574,116.635,72.363,118.116z"/>
	<path d="M106.307,115.478l-0.992-0.366c0.08-0.726,0.053-1.462-0.085-2.195l0.961-0.441c0.6-0.275,0.859-0.988,0.583-1.587
		l-0.557-1.215c-0.276-0.597-0.987-0.86-1.587-0.584l-0.958,0.441c-0.47-0.58-1.015-1.078-1.615-1.489l0.367-0.991
		c0.229-0.62-0.088-1.308-0.707-1.536l-1.256-0.464c-0.598-0.22-1.313,0.11-1.533,0.707l-0.365,0.993
		c-0.723-0.079-1.463-0.053-2.195,0.082l-0.44-0.958c-0.277-0.598-0.99-0.86-1.586-0.585l-1.216,0.559
		c-0.599,0.275-0.861,0.987-0.585,1.586l0.44,0.959c-0.579,0.47-1.079,1.014-1.491,1.613L90.5,109.64
		c-0.6-0.223-1.313,0.106-1.536,0.707l-0.463,1.254c-0.111,0.301-0.097,0.626,0.036,0.915c0.133,0.29,0.373,0.511,0.671,0.62
		l0.991,0.367c-0.077,0.723-0.051,1.461,0.086,2.194l-0.961,0.442c-0.6,0.274-0.86,0.987-0.583,1.583l0.558,1.217
		c0.277,0.598,0.986,0.861,1.585,0.584l0.96-0.44c0.468,0.58,1.011,1.08,1.612,1.49l-0.366,0.99
		c-0.111,0.301-0.098,0.624,0.035,0.916c0.134,0.289,0.373,0.51,0.673,0.62l1.255,0.464c0.3,0.109,0.621,0.097,0.914-0.036
		c0.288-0.133,0.51-0.373,0.619-0.669l0.367-0.994c0.725,0.078,1.461,0.053,2.195-0.083l0.441,0.957
		c0.273,0.6,0.986,0.861,1.586,0.585l1.214-0.559c0.598-0.276,0.861-0.985,0.585-1.585l-0.441-0.958
		c0.582-0.471,1.078-1.014,1.489-1.614l0.994,0.366c0.298,0.112,0.622,0.097,0.912-0.036c0.29-0.132,0.512-0.372,0.621-0.669
		l0.462-1.256C107.244,116.394,106.924,115.704,106.307,115.478z M99.735,118.6c-0.628,0.286-1.29,0.434-1.977,0.434
		c-1.839,0-3.522-1.079-4.294-2.75c-1.09-2.367-0.05-5.179,2.314-6.268c0.628-0.289,1.29-0.435,1.975-0.435
		c1.84,0,3.524,1.078,4.298,2.748C103.14,114.697,102.1,117.508,99.735,118.6z"/>
</g>
</svg>
