<?xml version="1.0" encoding="utf-8"?>
<!-- Generator: Adobe Illustrator 16.0.0, SVG Export Plug-In . SVG Version: 6.00 Build 0)  -->
<!DOCTYPE svg PUBLIC "-//W3C//DTD SVG 1.1//EN" "http://www.w3.org/Graphics/SVG/1.1/DTD/svg11.dtd">
<svg version="1.1" id="Layer_1" xmlns="http://www.w3.org/2000/svg" xmlns:xlink="http://www.w3.org/1999/xlink" x="0px" y="0px"
	 width="50px" height="50px" viewBox="0 0 50 50" enable-background="new 0 0 50 50" xml:space="preserve">
<path d="M35.654,34.671l-0.349-3.369c0.147-0.346,0.223-0.714,0.223-1.096v-1.824c1.365-2.023,2.163-4.459,2.163-7.079
	c0-6.999-5.692-12.692-12.691-12.692s-12.691,5.693-12.691,12.692c0,2.619,0.798,5.055,2.163,7.079v1.824
	c0,0.382,0.075,0.75,0.223,1.096l-0.35,3.369l-1.423,3.271c-0.262,0.604-0.273,1.272-0.034,1.884
	c0.24,0.613,0.705,1.094,1.306,1.355c0.297,0.131,0.617,0.198,0.951,0.198c0.99,0,1.912-0.592,2.293-1.472l0.23-0.531l0.007,0.03
	c0.26,1.301,1.563,2.202,2.892,1.936c1.33-0.262,2.201-1.559,1.939-2.893l-0.755-3.826c-0.032-0.165-0.082-0.326-0.146-0.474
	l-0.295-0.705c1.168,0.356,2.406,0.551,3.689,0.551s2.521-0.195,3.688-0.551l-0.292,0.7c-0.064,0.151-0.115,0.313-0.148,0.48
	l-0.754,3.824c-0.127,0.645,0.004,1.302,0.37,1.848c0.366,0.547,0.923,0.918,1.564,1.044c0.162,0.033,0.324,0.048,0.483,0.048
	c1.169,0,2.185-0.835,2.414-1.987l0.006-0.025l0.229,0.529c0.391,0.901,1.277,1.483,2.26,1.483c0.342,0,0.673-0.069,0.98-0.205
	c0.604-0.263,1.07-0.745,1.311-1.357c0.239-0.612,0.228-1.281-0.034-1.883L35.654,34.671z M35.528,23.684V23.59
	c0-0.482-0.133-0.938-0.36-1.347h0.596C35.722,22.735,35.635,23.213,35.528,23.684z M32.537,13.568
	c1.806,1.759,2.996,4.14,3.227,6.795h-0.619c0.021-0.158,0.033-0.318,0.033-0.479c0-1.82-1.337-3.322-3.077-3.606
	c-0.183-0.686-0.39-1.351-0.644-1.963C31.83,14.087,32.188,13.835,32.537,13.568z M28.045,22.243h0.675
	c0.331,0.388,0.744,0.708,1.219,0.935c-0.023,0.135-0.035,0.267-0.036,0.396l-1.451,2.003L27.878,25.7
	C27.984,24.328,28.029,23.078,28.045,22.243z M27.781,15.803c0.831-0.192,1.641-0.464,2.414-0.822
	c0.173,0.428,0.323,0.881,0.46,1.35c-1.287,0.312-2.301,1.302-2.657,2.571C27.959,17.989,27.893,16.911,27.781,15.803z
	 M29.258,19.884c0-1.246,1.01-2.255,2.255-2.255c1.246,0,2.255,1.01,2.255,2.255c0,1.245-1.009,2.255-2.255,2.255
	C30.268,22.139,29.258,21.129,29.258,19.884z M31.432,12.634c-0.194,0.14-0.391,0.278-0.594,0.405
	c-0.255-0.467-0.528-0.907-0.825-1.306C30.512,11.995,30.983,12.299,31.432,12.634z M29.594,13.706
	c-0.637,0.293-1.298,0.531-1.979,0.699c-0.191-1.372-0.464-2.694-0.854-3.706C27.857,11.251,28.829,12.304,29.594,13.706z
	 M24.856,10.499c0.048-0.001,0.095-0.007,0.144-0.007s0.096,0.006,0.144,0.007c0.347,0.567,0.768,1.988,1.075,4.147
	c-0.403,0.045-0.81,0.076-1.219,0.076s-0.815-0.031-1.219-0.076C24.089,12.487,24.51,11.066,24.856,10.499z M23.608,16.045
	c0.461,0.052,0.924,0.087,1.392,0.087c0.467,0,0.931-0.036,1.392-0.087c0.13,1.255,0.219,2.702,0.244,4.318h-3.271
	C23.39,18.747,23.479,17.3,23.608,16.045z M26.636,22.243c-0.021,1.385-0.093,2.639-0.193,3.762l-1.219,0.259
	C25.148,26.28,25.073,26.3,25,26.324c-0.074-0.024-0.149-0.044-0.227-0.061l-1.216-0.258c-0.101-1.123-0.172-2.376-0.193-3.762
	H26.636z M23.23,10.72c-0.385,1.009-0.656,2.322-0.846,3.685c-0.668-0.164-1.318-0.397-1.946-0.683
	C21.202,12.334,22.16,11.282,23.23,10.72z M21.28,22.243h0.675c0.016,0.834,0.06,2.085,0.167,3.457l-0.573-0.122l-1.451-2.003
	c-0.001-0.129-0.013-0.261-0.036-0.396C20.536,22.952,20.949,22.631,21.28,22.243z M18.487,22.139c-1.246,0-2.255-1.01-2.255-2.255
	c0-1.246,1.009-2.255,2.255-2.255c1.245,0,2.255,1.01,2.255,2.255C20.742,21.129,19.732,22.139,18.487,22.139z M22.002,18.9
	c-0.354-1.261-1.359-2.246-2.636-2.563c0.14-0.466,0.293-0.917,0.468-1.344c0.766,0.351,1.564,0.62,2.385,0.81
	C22.106,16.911,22.04,17.989,22.002,18.9z M19.987,11.733c-0.297,0.399-0.57,0.838-0.825,1.306
	c-0.203-0.127-0.399-0.265-0.595-0.405C19.017,12.299,19.488,11.995,19.987,11.733z M17.463,13.567
	c0.35,0.267,0.707,0.519,1.08,0.746c-0.254,0.612-0.461,1.278-0.645,1.964c-1.739,0.284-3.076,1.787-3.076,3.606
	c0,0.161,0.012,0.321,0.033,0.479h-0.619C14.467,17.708,15.657,15.327,17.463,13.567z M14.472,23.59v0.094
	c-0.106-0.47-0.193-0.949-0.235-1.44h0.596C14.604,22.651,14.472,23.108,14.472,23.59z M21.327,30.207l1.495,0.318
	c0.121,0.489,0.254,0.955,0.408,1.361C22.539,31.523,21.902,30.938,21.327,30.207z M25.144,32.107c-0.048,0-0.095,0.007-0.144,0.007
	s-0.096-0.007-0.144-0.007c-0.16-0.262-0.336-0.715-0.509-1.331c0.222-0.005,0.442-0.034,0.651-0.103
	c0.21,0.069,0.43,0.099,0.653,0.103C25.479,31.393,25.304,31.845,25.144,32.107z M26.762,31.908
	c0.159-0.413,0.293-0.885,0.416-1.383l1.553-0.33C28.141,30.948,27.481,31.544,26.762,31.908z M35.239,39.89
	c-0.136,0.06-0.278,0.088-0.418,0.088c-0.406,0-0.794-0.237-0.966-0.633l-1.575-3.622c-0.044-0.099-0.071-0.204-0.082-0.312
	l-0.104-1l-0.417,0.998l-0.734,3.72c-0.1,0.501-0.539,0.849-1.03,0.849c-0.068,0-0.137-0.006-0.206-0.02
	c-0.57-0.113-0.941-0.666-0.828-1.236l0.754-3.825c0.014-0.069,0.035-0.137,0.062-0.203l1.696-4.048
	c-0.046-0.14-0.078-0.286-0.078-0.44v-3.185l-0.815,1.126c-0.128,0.176-0.315,0.298-0.528,0.343l-4.086,0.867
	c-0.062,0.013-0.123,0.02-0.184,0.02c-0.28,0-0.536-0.143-0.699-0.365c-0.163,0.222-0.419,0.365-0.7,0.365
	c-0.061,0-0.121-0.007-0.183-0.02l-4.086-0.867c-0.213-0.045-0.4-0.167-0.528-0.343l-0.815-1.126v3.185
	c0,0.154-0.032,0.301-0.078,0.44l1.696,4.048c0.027,0.065,0.049,0.133,0.062,0.203l0.754,3.825c0.112,0.57-0.258,1.124-0.828,1.236
	c-0.069,0.014-0.138,0.02-0.206,0.02c-0.492,0-0.931-0.348-1.03-0.849l-0.734-3.72l-0.417-0.998l-0.104,1
	c-0.011,0.107-0.038,0.213-0.082,0.312l-1.575,3.622c-0.172,0.396-0.56,0.633-0.966,0.633c-0.14,0-0.282-0.028-0.418-0.088
	c-0.534-0.231-0.778-0.852-0.546-1.384l1.51-3.473l0.418-4.018c-0.164-0.229-0.261-0.508-0.261-0.81V23.59
	c0-0.774,0.628-1.403,1.402-1.403c0.775,0,1.403,0.628,1.403,1.403v0.442l2.038,2.813l3.755,0.797
	c0.22,0.047,0.396,0.177,0.52,0.345c0.123-0.168,0.3-0.298,0.52-0.345l3.755-0.797l2.038-2.813V23.59
	c0-0.774,0.628-1.403,1.403-1.403c0.774,0,1.402,0.628,1.402,1.403v6.616c0,0.302-0.097,0.581-0.261,0.81l0.417,4.018l1.511,3.473
	C36.018,39.039,35.772,39.659,35.239,39.89z"/>
</svg>
