<?xml version="1.0" encoding="utf-8"?>
<!-- Generator: Adobe Illustrator 16.0.0, SVG Export Plug-In . SVG Version: 6.00 Build 0)  -->
<!DOCTYPE svg PUBLIC "-//W3C//DTD SVG 1.1//EN" "http://www.w3.org/Graphics/SVG/1.1/DTD/svg11.dtd">
<svg version="1.1" id="Layer_2" xmlns="http://www.w3.org/2000/svg" xmlns:xlink="http://www.w3.org/1999/xlink" x="0px" y="0px"
	 width="126px" height="126px" viewBox="0 0 126 126" enable-background="new 0 0 126 126" xml:space="preserve">
<g>
	<circle cx="63.258" cy="13.685" r="12.869"/>
	<path d="M76.43,38.976l25.977,0.123l-9.378,26.416c-0.168,0.472,0.079,0.991,0.552,1.159c0.472,0.167,0.992-0.079,1.16-0.552
		l9.289-26.164l9.29,26.164c0.133,0.372,0.482,0.604,0.857,0.604c0.1,0,0.203-0.017,0.303-0.053c0.473-0.168,0.72-0.688,0.553-1.159
		l-9.402-26.48c2.349-0.399,4.145-2.433,4.156-4.896c0.012-2.76-2.214-5.006-4.973-5.021l-34.321-0.162
		c-1.261-0.748-2.632-1.312-4.028-1.655l-3.206,3.227l-3.108-3.262c-0.011,0.002-0.022,0.003-0.032,0.005
		c-1.59,0.381-3.151,1.044-4.553,1.947c-0.313-0.062-0.635-0.098-0.967-0.101l-35.583-0.167c-0.008,0-0.016,0-0.024,0
		c-2.749,0-4.983,2.222-4.997,4.973c-0.012,2.759,2.213,5.006,4.974,5.02l1.432,0.006l-9.433,26.566
		c-0.167,0.472,0.08,0.991,0.553,1.159c0.471,0.167,0.992-0.079,1.16-0.552l9.291-26.164l9.289,26.164
		c0.132,0.372,0.482,0.604,0.856,0.604c0.101,0,0.204-0.017,0.304-0.053c0.473-0.168,0.72-0.688,0.552-1.159l-9.427-26.551
		l26.541,0.126v27.805c0,1.345,0.26,2.599,0.718,3.752c-0.035,0.259-0.059,0.521-0.059,0.791l0.003,47.843
		c0.001,3.261,2.644,5.905,5.905,5.904c3.262,0,5.905-2.644,5.904-5.905L62.555,78.22c0.234,0.011,0.467,0.029,0.703,0.029
		c0.045,0,0.091-0.005,0.138-0.006l-0.001,41.035c0,3.262,2.643,5.905,5.904,5.905l0,0c3.261,0,5.904-2.644,5.904-5.905l0.002-47.55
		c0.774-1.433,1.225-3.055,1.225-4.835V38.976z M63.229,55.998l-3.104-4.247l3.104-20.746h0.06l3.103,20.746l-3.103,4.247H63.229z"
		/>
	<path d="M92.445,67.844c0,6.398,5.186,11.585,11.584,11.585c6.398,0,11.585-5.187,11.585-11.585H92.445z"/>
	<path d="M21.971,79.429c6.398,0,11.584-5.187,11.584-11.585H10.386C10.386,74.242,15.572,79.429,21.971,79.429z"/>
</g>
</svg>
