<?xml version="1.0" encoding="utf-8"?>
<!-- Generator: Adobe Illustrator 16.0.0, SVG Export Plug-In . SVG Version: 6.00 Build 0)  -->
<!DOCTYPE svg PUBLIC "-//W3C//DTD SVG 1.1//EN" "http://www.w3.org/Graphics/SVG/1.1/DTD/svg11.dtd">
<svg version="1.1" id="Layer_1" xmlns="http://www.w3.org/2000/svg" xmlns:xlink="http://www.w3.org/1999/xlink" x="0px" y="0px"
	 width="50px" height="50px" viewBox="0 0 50 50" enable-background="new 0 0 50 50" xml:space="preserve">
<g>
	<path d="M22.838,31.543c0,0.683,1.383,1.235,3.088,1.235s3.088-0.553,3.088-1.235v-1.235c0,0.683-1.383,1.235-3.088,1.235
		s-3.088-0.553-3.088-1.235V31.543z"/>
	<path d="M22.838,28.71v1.235c0,0.683,1.383,1.235,3.088,1.235s3.088-0.552,3.088-1.235V28.71c0-0.683-1.383-1.235-3.088-1.235
		S22.838,28.027,22.838,28.71z M25.926,27.783c1.697,0,2.778,0.549,2.778,0.927c0,0.377-1.081,0.926-2.778,0.926
		c-1.697,0-2.779-0.549-2.779-0.926C23.147,28.332,24.229,27.783,25.926,27.783z"/>
	<path d="M25.812,29.04c-0.272,0-0.52-0.037-0.696-0.079L24.99,29.17c0.158,0.04,0.432,0.072,0.714,0.078v0.17h0.41v-0.182
		c0.483-0.036,0.748-0.173,0.748-0.333c0-0.161-0.202-0.259-0.701-0.334c-0.357-0.058-0.504-0.095-0.504-0.154
		c0-0.05,0.088-0.101,0.361-0.101c0.302,0,0.496,0.042,0.605,0.061l0.123-0.202c-0.14-0.028-0.328-0.053-0.609-0.059v-0.158h-0.412
		v0.17c-0.45,0.038-0.709,0.162-0.709,0.319c0,0.173,0.306,0.263,0.755,0.328c0.311,0.044,0.445,0.088,0.445,0.156
		C26.216,29,26.052,29.04,25.812,29.04z"/>
	<path d="M22.838,31.933c0.001,0,0.003,0,0.004,0.001c0-0.006-0.004-0.012-0.004-0.018V31.933z"/>
	<path d="M24.354,34.209c0.463,0.11,0.995,0.178,1.572,0.178c1.706,0,3.088-0.553,3.088-1.236v-1.235
		c0,0.683-1.383,1.235-3.088,1.235c-0.643,0-1.238-0.078-1.732-0.212c0.101,0.187,0.16,0.393,0.16,0.621V34.209z"/>
	<path d="M25.926,34.759c-0.577,0-1.109-0.067-1.572-0.177v0.873c0.753-0.457,1.889-0.675,2.979-0.675
		c0.551,0,1.113,0.057,1.633,0.17c0.025-0.062,0.048-0.125,0.048-0.191v-1.235C29.015,34.206,27.632,34.759,25.926,34.759z"/>
	<path d="M20.507,36.392c-1.706,0-3.088-0.553-3.088-1.235v1.235c0,0.683,1.383,1.235,3.088,1.235c1.706,0,3.089-0.552,3.089-1.235
		v-1.235C23.596,35.839,22.213,36.392,20.507,36.392z"/>
	<path d="M20.507,38c-1.706,0-3.088-0.552-3.088-1.235V38c0,0.683,1.383,1.235,3.088,1.235c1.706,0,3.089-0.552,3.089-1.235v-1.235
		C23.596,37.448,22.213,38,20.507,38z"/>
	<path d="M20.507,39.608c-1.706,0-3.088-0.552-3.088-1.235v1.235c0,0.683,1.383,1.235,3.088,1.235c1.706,0,3.089-0.552,3.089-1.235
		v-1.235C23.596,39.056,22.213,39.608,20.507,39.608z"/>
	<path d="M20.507,41.216c-1.706,0-3.088-0.553-3.088-1.235v1.235c0,0.683,1.383,1.235,3.088,1.235c1.706,0,3.089-0.552,3.089-1.235
		v-1.235C23.596,40.663,22.213,41.216,20.507,41.216z"/>
	<path d="M20.507,42.824c-1.706,0-3.088-0.553-3.088-1.236v1.236c0,0.683,1.383,1.235,3.088,1.235c1.706,0,3.089-0.552,3.089-1.235
		v-1.236C23.596,42.271,22.213,42.824,20.507,42.824z"/>
	<path d="M20.507,32.323c-1.706,0-3.088,0.553-3.088,1.236v1.235c0,0.683,1.383,1.235,3.088,1.235c1.706,0,3.089-0.552,3.089-1.235
		v-1.235C23.596,32.876,22.213,32.323,20.507,32.323z M20.507,34.485c-1.696,0-2.779-0.549-2.779-0.926
		c0-0.378,1.083-0.927,2.779-0.927c1.697,0,2.779,0.548,2.779,0.927C23.287,33.937,22.204,34.485,20.507,34.485z"/>
	<path d="M20.743,33.417c-0.357-0.057-0.504-0.095-0.504-0.154c0-0.049,0.088-0.1,0.36-0.1c0.303,0,0.497,0.042,0.606,0.061
		l0.122-0.203c-0.14-0.028-0.328-0.054-0.608-0.059v-0.157h-0.413v0.17c-0.449,0.038-0.709,0.161-0.709,0.319
		c0,0.174,0.307,0.264,0.756,0.328c0.311,0.045,0.445,0.087,0.445,0.156c0,0.072-0.164,0.111-0.404,0.111
		c-0.272,0-0.52-0.037-0.696-0.079l-0.125,0.209c0.158,0.04,0.432,0.072,0.713,0.078v0.17h0.411v-0.183
		c0.483-0.036,0.747-0.172,0.747-0.332C21.443,33.591,21.243,33.493,20.743,33.417z"/>
	<path d="M27.333,39.608c-1.706,0-3.088-0.553-3.088-1.235v1.235c0,0.683,1.383,1.235,3.088,1.235c1.706,0,3.088-0.552,3.088-1.235
		v-1.235C30.422,39.055,29.04,39.608,27.333,39.608z"/>
	<path d="M27.333,41.216c-1.706,0-3.088-0.553-3.088-1.235v1.235c0,0.683,1.383,1.235,3.088,1.235c1.706,0,3.088-0.552,3.088-1.235
		V39.98C30.422,40.663,29.04,41.216,27.333,41.216z"/>
	<path d="M27.333,42.824c-1.706,0-3.088-0.553-3.088-1.236v1.236c0,0.683,1.383,1.235,3.088,1.235c1.706,0,3.088-0.553,3.088-1.235
		v-1.236C30.422,42.271,29.04,42.824,27.333,42.824z"/>
	<path d="M27.333,35.539c-1.706,0-3.088,0.553-3.088,1.236v1.235c0,0.682,1.383,1.236,3.088,1.236c1.706,0,3.088-0.554,3.088-1.236
		v-1.235C30.422,36.092,29.04,35.539,27.333,35.539z M27.333,37.701c-1.697,0-2.779-0.549-2.779-0.927
		c0-0.378,1.082-0.926,2.779-0.926s2.779,0.548,2.779,0.926C30.112,37.152,29.03,37.701,27.333,37.701z"/>
	<path d="M27.569,36.632c-0.357-0.057-0.504-0.095-0.504-0.154c0-0.05,0.088-0.1,0.36-0.1c0.302,0,0.496,0.042,0.605,0.061
		l0.122-0.203c-0.139-0.029-0.328-0.054-0.608-0.06V36.02h-0.413v0.17c-0.449,0.038-0.709,0.161-0.709,0.319
		c0,0.174,0.306,0.263,0.756,0.328c0.311,0.045,0.445,0.088,0.445,0.156c0,0.072-0.165,0.11-0.404,0.11
		c-0.272,0-0.52-0.037-0.696-0.079l-0.125,0.209c0.158,0.04,0.432,0.072,0.713,0.078v0.17h0.411v-0.183
		c0.482-0.036,0.747-0.172,0.747-0.332C28.27,36.807,28.068,36.708,27.569,36.632z"/>
	<path d="M40.866,15.507c0.019-0.522-0.067-1.054-0.263-1.56l0.811-0.505l-0.795-1.271l-0.81,0.506
		c-0.37-0.396-0.808-0.707-1.285-0.92l0.214-0.929l-1.461-0.337l-0.214,0.93c-0.523-0.02-1.054,0.067-1.56,0.263l-0.507-0.812
		l-1.27,0.794l0.506,0.811c-0.397,0.369-0.708,0.809-0.92,1.287l-0.931-0.215l-0.337,1.46l0.93,0.215
		c-0.019,0.523,0.067,1.052,0.264,1.56l-0.812,0.506l0.794,1.271l0.812-0.507c0.368,0.398,0.808,0.708,1.285,0.92l-0.214,0.929
		l1.46,0.338l0.215-0.93c0.522,0.021,1.053-0.066,1.561-0.263l0.505,0.811l1.271-0.794l-0.506-0.811
		c0.397-0.368,0.708-0.809,0.919-1.286l0.93,0.215l0.337-1.461L40.866,15.507z M38.347,17.648c-1.26,0.787-2.92,0.404-3.708-0.856
		c-0.787-1.26-0.403-2.921,0.855-3.708c1.26-0.787,2.922-0.404,3.71,0.856C39.991,15.2,39.605,16.862,38.347,17.648z"/>
	<path d="M36.921,8c-4.033,0-7.315,3.259-7.362,7.28l-2.749-1.375v0.959h-5.524v0.5v0.5h5.524v0.959l2.749-1.375
		c0.046,4.022,3.329,7.281,7.362,7.281c4.061,0,7.365-3.305,7.365-7.366C44.286,11.304,40.982,8,36.921,8z M36.921,21.731
		c-3.51,0-6.366-2.856-6.366-6.366c0-3.51,2.856-6.365,6.366-6.365c3.51,0,6.365,2.855,6.365,6.365
		C43.286,18.875,40.431,21.731,36.921,21.731z"/>
	<path d="M13.92,11.934c0.633,0,1.146-0.734,1.146-1.367s-0.513-1.146-1.146-1.146s-1.146,0.513-1.146,1.146
		S13.287,11.934,13.92,11.934z"/>
	<path d="M16.163,12.729c-0.008-0.032-0.015-0.064-0.03-0.094c-0.013-0.024-0.031-0.043-0.047-0.065
		c-0.019-0.024-0.037-0.05-0.061-0.071c-0.022-0.019-0.048-0.03-0.073-0.044c-0.023-0.013-0.04-0.03-0.064-0.04
		c-0.042-0.015-0.954-0.342-1.792-0.385l-0.116,0.23h-0.002l0.305,2.377l-0.363,0.634l-0.362-0.634l0.305-2.377H13.86l-0.116-0.23
		c-0.837,0.043-1.75,0.37-1.791,0.385c-0.025,0.01-0.045,0.028-0.067,0.041c-0.023,0.014-0.048,0.024-0.07,0.042
		c-0.025,0.022-0.044,0.049-0.063,0.075c-0.015,0.021-0.033,0.038-0.045,0.062c-0.016,0.03-0.023,0.063-0.031,0.097
		c-0.005,0.021-0.017,0.038-0.019,0.06l-0.362,3.264c-0.028,0.248,0.151,0.472,0.399,0.5c0.017,0.002,0.034,0.003,0.051,0.003
		c0.228,0,0.423-0.172,0.45-0.404l0.33-2.972c0.039-0.011,0.081-0.023,0.126-0.036v3.094l-0.36,4.484
		c-0.024,0.299,0.199,0.562,0.498,0.586c0.015,0.001,0.03,0.001,0.044,0.001c0.28,0,0.519-0.215,0.542-0.499l0.327-4.054
		c0.066,0.029,0.141,0.046,0.218,0.046c0.079,0,0.153-0.017,0.219-0.046l0.327,4.054c0.023,0.284,0.261,0.499,0.541,0.499
		c0.015,0,0.03,0,0.045-0.001c0.299-0.024,0.522-0.287,0.498-0.586l-0.36-4.484v-3.094c0.045,0.013,0.087,0.025,0.126,0.036
		l0.33,2.972c0.026,0.232,0.221,0.404,0.449,0.404c0.017,0,0.034-0.001,0.051-0.003c0.248-0.028,0.427-0.252,0.399-0.5l-0.362-3.264
		C16.181,12.77,16.169,12.751,16.163,12.729z"/>
	<path d="M13.921,8c-4.062,0-7.366,3.304-7.366,7.365c0,4.062,3.305,7.366,7.366,7.366c4.061,0,7.365-3.305,7.365-7.366
		C21.286,11.304,17.982,8,13.921,8z M13.921,21.731c-3.51,0-6.366-2.856-6.366-6.366c0-3.51,2.856-6.365,6.366-6.365
		c3.51,0,6.365,2.855,6.365,6.365C20.286,18.875,17.431,21.731,13.921,21.731z"/>
	<polygon points="24.92,16.825 24.92,23.541 23.961,23.541 25.42,26.459 26.88,23.541 25.92,23.541 25.92,16.825 	"/>
</g>
</svg>
