<?xml version="1.0" encoding="utf-8"?>
<!-- Generator: Adobe Illustrator 16.0.0, SVG Export Plug-In . SVG Version: 6.00 Build 0)  -->
<!DOCTYPE svg PUBLIC "-//W3C//DTD SVG 1.1//EN" "http://www.w3.org/Graphics/SVG/1.1/DTD/svg11.dtd">
<svg version="1.1" id="Layer_1" xmlns="http://www.w3.org/2000/svg" xmlns:xlink="http://www.w3.org/1999/xlink" x="0px" y="0px"
	 width="126px" height="126px" viewBox="0 0 126 126" enable-background="new 0 0 126 126" xml:space="preserve">
<g>
	<path fill="#010101" d="M96.033,73.397c0-1.763-1.43-3.193-3.192-3.193c-7.241,0-11.272-3.884-14.511-7.006
		c-1.026-0.988-1.945-1.869-2.893-2.555c-1.114-0.979-2.499-1.679-3.921-2.027l-2.047,2.062l-1.986-2.085
		c-0.008,0.002-0.014,0.002-0.021,0.003c-1.282,0.307-2.533,0.904-3.588,1.732c-1.122,0.72-2.177,1.716-3.373,2.869
		c-3.239,3.122-7.271,7.006-14.511,7.006c-1.763,0-3.192,1.43-3.192,3.193c0,1.764,1.43,3.193,3.192,3.193
		c6.781,0,11.603-2.627,15.063-5.336v12.664c0,1.019,0.232,1.955,0.635,2.798c-0.001,0.035-0.011,0.066-0.011,0.102l-0.026,30.574
		c-0.001,2.083,1.686,3.775,3.77,3.777c0.001,0,0.003,0,0.004,0c2.081,0,3.771-1.687,3.772-3.77l0.022-26.233
		c0.084,0.001,0.167,0.01,0.251,0.01c0.098,0,0.193-0.009,0.291-0.012l-0.001,26.232c0,2.084,1.69,3.773,3.772,3.773
		c2.084,0,3.773-1.689,3.773-3.773l0.003-30.573c0-0.066-0.016-0.126-0.02-0.19c0.377-0.821,0.598-1.729,0.598-2.713V71.337
		c3.451,2.68,8.242,5.252,14.954,5.252C94.604,76.59,96.033,75.161,96.033,73.397z M69.489,76.955h-0.04l-1.981-2.714l1.981-13.257
		h0.04l0.308,2.064c0.007,0.104,0.029,0.204,0.047,0.306l1.628,10.887L69.489,76.955z"/>
	<circle fill="#010101" cx="69.47" cy="49.915" r="8.224"/>
	<circle fill="#010101" cx="104.998" cy="65.372" r="6.436"/>
	<path fill="#010101" d="M123.288,81.25c-5.666,0-8.821-3.041-11.356-5.483c-0.803-0.773-1.521-1.463-2.263-2
		c-0.873-0.766-1.956-1.313-3.068-1.586l-1.603,1.614l-1.555-1.632c-0.005,0.001-0.011,0.001-0.017,0.003
		c-1.003,0.24-1.983,0.707-2.808,1.355c-0.878,0.563-1.704,1.343-2.641,2.246c-2.534,2.443-5.689,5.483-11.355,5.483
		c-1.38,0-2.498,1.118-2.498,2.499c0,1.38,1.118,2.498,2.498,2.498c5.307,0,9.08-2.057,11.788-4.176v9.911
		c0,0.797,0.181,1.53,0.496,2.189c-0.001,0.027-0.009,0.052-0.009,0.08l-0.02,23.926c-0.001,1.631,1.319,2.954,2.949,2.956
		c0.001,0,0.002,0,0.003,0c1.63,0,2.952-1.321,2.953-2.951l0.017-20.53c0.066,0.002,0.131,0.008,0.197,0.008
		c0.075,0,0.151-0.007,0.228-0.009v20.528c0,1.632,1.321,2.954,2.952,2.954s2.954-1.322,2.954-2.954V94.254
		c0-0.051-0.012-0.099-0.016-0.149c0.296-0.643,0.469-1.353,0.469-2.123v-9.846c2.7,2.097,6.45,4.111,11.703,4.111
		c1.379,0,2.498-1.118,2.498-2.498C125.786,82.368,124.667,81.25,123.288,81.25z M105.012,86.533h-0.029l-1.552-2.125l1.552-10.375
		h0.029l0.243,1.615c0.005,0.082,0.022,0.16,0.035,0.24l1.275,8.52L105.012,86.533z"/>
	<circle fill="#010101" cx="31.872" cy="65.372" r="6.436"/>
	<path fill="#010101" d="M50.161,81.25c-5.666,0-8.82-3.041-11.355-5.483c-0.803-0.773-1.522-1.463-2.264-2
		c-0.871-0.766-1.956-1.313-3.067-1.586l-1.603,1.614l-1.555-1.632c-0.006,0.001-0.011,0.001-0.016,0.003
		c-1.004,0.24-1.984,0.707-2.81,1.355c-0.878,0.563-1.702,1.343-2.639,2.246c-2.535,2.443-5.69,5.483-11.357,5.483
		c-1.379,0-2.498,1.118-2.498,2.499c0,1.38,1.119,2.498,2.498,2.498c5.308,0,9.081-2.057,11.788-4.176v9.911
		c0,0.797,0.183,1.53,0.498,2.189c-0.001,0.027-0.009,0.052-0.009,0.08l-0.021,23.926c-0.002,1.631,1.32,2.954,2.95,2.956
		c0.002,0,0.003,0,0.003,0c1.631,0,2.952-1.321,2.954-2.951l0.017-20.53c0.064,0.002,0.13,0.008,0.196,0.008
		c0.076,0,0.151-0.007,0.228-0.009l-0.001,20.528c0,1.632,1.322,2.954,2.953,2.954s2.955-1.322,2.955-2.954V94.254
		c0-0.051-0.013-0.099-0.016-0.149c0.296-0.643,0.468-1.353,0.468-2.123v-9.846c2.701,2.097,6.451,4.111,11.702,4.111
		c1.381,0,2.498-1.118,2.498-2.498C52.659,82.368,51.542,81.25,50.161,81.25z M31.887,86.533h-0.029l-1.553-2.125l1.553-10.375
		h0.029l0.241,1.615c0.006,0.082,0.023,0.16,0.037,0.24l1.273,8.52L31.887,86.533z"/>
	<polygon fill="#010101" points="51.603,13.648 51.676,14.165 50.913,14.32 50.804,15.411 51.734,15.411 52.962,15.297 
		53.598,14.543 52.917,14.278 52.544,13.857 51.985,12.97 51.734,11.69 50.686,11.904 50.395,12.354 50.395,12.853 50.896,13.207 	
		"/>
	<polygon fill="#010101" points="50.725,14.07 50.773,13.382 50.172,13.122 49.313,13.316 48.678,14.33 48.678,14.994 
		49.421,14.994 	"/>
	<path fill="#010101" d="M32.961,17.464h-0.907v0.473h0.218c0,0,0.017,0.097,0.029,0.228l0.563-0.051l0.335-0.209l0.102-0.44
		l0.444-0.035l0.181-0.373l-0.418-0.09l-0.354,0.01L32.961,17.464z"/>
	<polygon fill="#010101" points="30.768,18.292 31.438,18.236 31.491,17.776 31.094,17.464 30.807,17.837 	"/>
	<polygon fill="#010101" points="97.079,40.541 97.264,41.133 102.031,41.342 100.445,40.332 98.5,40.391 98.423,39.333 
		98.738,39.469 99.5,39.381 99.422,38.412 97.309,38.436 96.736,37.674 96.765,37.267 94.048,34.822 93.368,35.351 97.264,40.1 
		97.811,40.284 97.811,40.541 	"/>
	<polygon fill="#010101" points="103.354,34.084 102.875,34.084 102.57,34.904 102.207,35.229 99.446,36.732 99.446,38.213 
		100.364,39.43 102.687,39.43 102.987,38.674 103.51,38.197 103.51,37.849 103.839,37.641 103.839,35.035 103.51,34.899 	"/>
	<polygon fill="#010101" points="103.839,40.42 104.545,40.42 104.448,39.188 104.995,39.392 104.995,40.255 105.577,40.216 
		105.558,37.641 104.161,38.179 104.189,38.489 103.839,38.489 	"/>
	<polygon fill="#010101" points="115.396,44.228 114.464,42.622 113.62,42.579 113.271,45.494 111.67,45.377 111.204,45.101 
		111.161,43.952 112.005,44.125 112.729,43.423 111.191,42.496 109.396,42.496 108.101,44.339 107.581,44.339 107.581,43.757 
		106.019,43.869 103.569,46.658 102.266,46.687 100.813,47.677 100.723,52.013 99.839,52.857 99.839,53.619 104.069,52.169 
		107.484,52.033 108.75,54.822 112.637,54.953 116.381,51.432 117.312,49.326 116.929,47.769 115.509,46.551 	"/>
	<polygon fill="#010101" points="111.772,55.666 110.555,55.534 109.265,56.97 110.638,57.111 111.743,56.505 	"/>
	<polygon fill="#010101" points="114.863,57.271 114.863,57.921 116.288,57.708 119.777,55.573 120.756,54.924 121.808,54.458 
		122.876,53.857 122.483,53.163 121.911,53.274 121.896,51.985 120.844,52.052 120.703,54.07 119.78,54.7 118.068,54.933 
		115.323,56.889 	"/>
	<polygon fill="#010101" points="111.689,38.751 110.803,38.78 110.875,37.854 110.026,37.354 108.834,38.558 109.637,39.547 
		111.38,39.799 112.35,40.308 112.378,40.784 111.738,40.784 111.772,41.763 113.877,41.627 114.644,40.808 115.474,40.73 
		115.474,42.235 116.895,42.235 116.895,41.627 116.171,41.627 116.051,39.799 112.637,38.251 	"/>
	<polygon fill="#010101" points="86.359,34.371 86.693,35.269 87.893,34.822 88.014,33.581 87.059,33.396 	"/>
	<polygon fill="#010101" points="105.363,41.21 105.781,41.342 105.907,40.924 105.363,40.924 	"/>
	<rect x="102.875" y="41.342" fill="#010101" width="0.642" height="0.349"/>
	<polygon fill="#010101" points="104.215,41.342 103.839,41.691 103.839,41.996 104.424,41.943 104.424,41.691 104.816,41.691 
		104.816,41.385 105.108,41.342 105.108,41.041 104.476,41.041 	"/>
	<polygon fill="#010101" points="105.432,41.691 105.432,42.244 106.048,42.244 106.048,41.973 106.683,41.973 106.683,41.643 
		107.121,41.691 107.063,41.133 106.344,41.245 106.276,41.604 105.472,41.691 	"/>
	<path fill="#010101" d="M45.475,28.312l-0.179,1.028l-0.499,0.19l-0.029,2.692l3.027,3.454h1.319l0.092-0.213h2.366l0.69-0.63
		h1.343l0.742,0.742l2.005,0.204l-0.263,2.673l2.227,3.934l-1.175,2.241l0.084,1.052l0.802,0.794
		c1.831-4.344,6.132-7.402,11.135-7.402c0.17,0,0.335,0.018,0.502,0.025l2.113-2.023l3.256-4.662l-0.622-0.296l-3.39,0.714
		l-0.881-0.432l-3.558-6.713l0.246-0.292l3.537,4.287l0.087,1.326l0.806,0.82l1.677-0.107l3.459-2.511l1.097-0.708l-0.019-0.876
		l-1.159-0.143c0,0-4.071-1.918-4.071-2.003c0-0.087,0.024-1.645,0.024-1.645h0.902l0.131,1.135l1.883,1.086l2.158,0.104
		l4.664,0.765l1.099,0.692v1.066l-0.141,1.458l2.402,3.935l0.761,0.179l0.776-1.12l0.422-3.187l0.801-1.715l1.285-0.483l2.265,0.219
		l2.857,2.535v3.625l3.76,3.609l0.198-0.641l-3.056-4.345l0.319-1.271l1.611,1.829l0.897,0.092l1.184-0.786l-0.193-1.184
		l-1.961-1.569l-0.077-1.426l0.558-0.749l0.98,0.313l-0.073,0.67l0.563,0.871l0.501-0.359l-0.277-1.029l2.77-0.992l1.213-1.014
		l-0.189-1.833l-2.405-2.532l-0.046-2.062h1.068l3.328,2.532l0.94-0.248l-0.63-0.815l-1.78-1.084l0.111-1.613l2.11,0.005
		l0.171-1.997l-0.806-1.053l0.48-0.518l1.023,1.032l0.335-0.436l-1.334-1.503l-3.261-0.393l-0.437-0.873l0.946-1.349l0.747,0.562
		l2.26,0.195l2.843-1.899l0.475,0.592l-0.635,0.994v0.983l2.615,2.137l0.829-0.432l-0.312-1.426l-1.861-1.739l2.454-0.165v-0.708
		l1.179-0.24l-0.902-0.626l0.033-0.48l2.504,0.4l0.477-0.4l-3.372-1.421l-12.263-0.631l-1.142-0.582l-1.828-0.279l-1.362-0.043
		l-1.247,1.256L94.048,7.41l-1.654-1.227h-4.869l-2.257-1.351l-4.521,0.283l-3.426,1.545l0.02,1.778l-1.062,0.318l-0.238-1.784
		l-0.398-0.615l-1.179-0.294l-0.276,1.067l0.347,0.875l-4.222-0.278l-2.008,0.929l-0.306-0.88l-0.511,0.13L67.12,8.884l-1.052,0.825
		l-2.57-0.07l-0.122-0.57l2.697-0.114l0.547-0.473l-3.244-1.51l-3.953,0.12L57.21,8.224l-0.834,1.485l-1.475,0.572l-0.615,0.675
		l0.141,0.78l0.761,0.104l0.461,1.142l1.29-0.526l0.229,1.522h-0.409l-1.061-0.158l-1.184,0.199l-1.146,1.618l-1.648,0.264
		l-0.231,1.402l0.698,0.163l-0.2,0.905l-1.64-0.322l-1.493,0.322l-0.312,0.834l0.254,1.749l0.886,0.412l1.466-0.004l0.999-0.095
		l0.307-0.795l1.551-2.01l1.025,0.208l1.003-0.909l0.188,0.71l2.476,1.673l-0.306,0.408l-1.116-0.066l0.421,0.611l0.695,0.151
		l0.804-0.334l-0.014-0.972l0.363-0.181l-0.295-0.307l-1.654-0.92l-0.427-1.23h1.367l0.437,0.432l1.19,1.024l0.042,1.236
		l1.231,1.305l0.457-1.788l0.849-0.468l0.16,1.465l0.83,0.914l2.502-0.038l0.743,0.549v1.313l-0.911,0.829h-2.538l-1.542-1.152
		l-1.621,0.163v0.989h-0.52l-0.551-0.397l-2.811-0.716v-1.817l-3.57,0.277l-1.106,0.592h-1.407l-0.697-0.07l-1.717,0.956v1.792
		l-3.512,2.539l0.295,1.077H45.475z M71.442,16.699l1.071-0.1l0.908,0.381l0.044,0.636l-1.301-0.073l-0.063,0.586l1.619,1.078v0.795
		l0.709,0.509v0.563h-0.006l-0.362,0.341l-0.831-0.062l-0.158-0.25l-1.306-0.1l0.091-0.417l0.7-0.594v-0.502l-1.33-0.961
		l-0.058-1.23L71.442,16.699z M61.692,9.069l-1.562,0.963v0.63l0.883,0.413l0.067,0.856l-1.262,1.867l-2.183-0.021l-0.136-0.447
		l1.363-0.696l0.016-2.583l2.309-1.618h0.504V9.069z M66.538,20.075V20.07l-2.056-0.089l-0.613,0.089v-1.4l0.462-0.521l0.494-0.155
		l1.097-0.124l0.233-0.375l0.45,0.222l0.058,1.28l1.199,0.493l0.103,0.584H66.538z"/>
	<path fill="#010101" d="M8.867,23.269H9.58l0.306,1.873l1.756,2.559l-0.47,0.825l1.124,1.708l2.775,0.686v-0.446l1.105,0.153
		l-0.102,0.796l0.868,0.15l1.348,0.378l1.902,2.163l2.425,0.18l0.237,1.984l-1.663,1.159l-0.082,1.761l-0.232,1.087l2.4,3.007
		l0.185,1.023c0,0,0.874,0.238,0.971,0.238c0.106,0,1.959,1.402,1.959,1.402v5.428l0.66,0.194l-0.46,2.503l1.11,1.475l-0.126,1.565
		c0.966-0.408,2.006-0.666,3.094-0.76l-0.155-0.043l0.048-0.53l1.244-0.184l1.886-0.903l0.637-1.164l1.978-2.542l-0.45-1.975
		l0.605-1.058l1.819,0.054l1.223-0.961l0.397-3.827l1.358-1.732l0.243-1.105l-1.243-0.398l-0.815-1.343l-2.797-0.024l-2.219-0.844
		L34.324,36.2l-0.742-1.296l-1.994-0.024l-1.164-1.824l-1.028-0.495l-0.054,0.544l-1.872,0.116l-0.689-0.956l-1.959-0.397
		l-1.611,1.858l-2.525-0.427l-0.186-2.857l-1.854-0.318l0.743-1.394l-0.214-0.806l-2.421,1.625l-1.527-0.185l-0.554-1.198
		l0.341-1.237l0.843-1.548l1.937-0.985h3.749l-0.01,1.142l1.349,0.622l-0.111-1.953l0.971-0.972l1.959-1.288l0.126-0.903
		l1.961-2.032l2.079-1.148l-0.184-0.147l1.402-1.328l0.52,0.134l0.237,0.298l0.533-0.597l0.121-0.06l-0.576-0.078l-0.593-0.199
		v-0.578l0.31-0.256h0.698l0.322,0.138l0.271,0.551l0.335-0.049v-0.034l0.103,0.029l0.969-0.156l0.137-0.475l0.543,0.137v0.512
		l-0.509,0.359l0.077,0.57l1.766,0.541c0,0,0.005,0.01,0.005,0.019l0.403-0.033l0.028-0.76l-1.397-0.635l-0.082-0.373l1.159-0.398
		l0.049-1.104l-1.208-0.74l-0.078-1.867l-1.673,0.815h-0.605l0.159-1.424l-2.251-0.539l-0.939,0.705v2.167l-1.684,0.527l-0.68,1.411
		l-0.727,0.114v-1.799l-1.582-0.224l-0.791-0.512l-0.32-1.162l2.832-1.659l1.383-0.422l0.136,0.929l0.777-0.039l0.063-0.468
		l0.806-0.114l0.009-0.158L29.8,9.288l-0.084-0.493l0.989-0.085l0.597-0.625l0.043-0.043v0.005l0.181-0.19l2.096-0.262l0.916,0.783
		l-2.424,1.289l3.079,0.725l0.394-1.034h1.354l0.469-0.895l-0.945-0.238V7.093L33.48,5.771l-2.052,0.237L30.26,6.614l0.087,1.48
		l-1.213-0.188l-0.185-0.813l1.15-1.058L28,5.93l-0.613,0.178l-0.268,0.715l0.797,0.135l-0.16,0.793l-1.343,0.08l-0.209,0.522
		l-1.965,0.055c0,0-0.044-1.108-0.121-1.108c-0.083,0,1.528-0.023,1.528-0.023l1.163-1.138l-0.635-0.32l-0.843,0.825l-1.403-0.078
		L23.09,5.402h-1.796l-1.876,1.402h1.717l0.159,0.501l-0.451,0.423l1.902,0.056l0.29,0.684l-2.139-0.086l-0.105-0.526l-1.344-0.293
		l-0.714-0.39l-3.168,0.029L14.591,8.15l-0.664-0.056l-0.737-0.427L11,7.012H6.99l-2.319,1.58l-1.558,0.24L2.4,9.387l1.106,0.163
		v0.444H1.14l-0.926,0.659l1.183,1.004l3.244,0.029l0.452-0.482h2.712l0.979,0.871l-0.057,1.351l0.825,0.765l-0.689,0.492
		l0.155,1.778L6.568,19.44v2.796l1.313,0.636v2.51l1.276,2.159l1.018,0.154l0.131-0.739l-1.202-1.867L8.867,23.269z M24.643,19.595
		h-1.01l0.161-0.687l0.475-0.05l0.105-0.233l0.725-0.1v0.617h0.004L24.643,19.595z M25.341,17.895l-0.478,0.309l-0.595,0.104
		c0,0,0-0.943,0-1.043h1.072V17.895z M26.241,17.166l0.49,0.298l-0.392,0.322l-0.374-0.322L26.241,17.166z M25.602,17.956h0.078
		l1.213,0.352v0.622h-1.018l-0.273-0.398V17.956z M24.812,16.25l0.655,0.597l-0.655,0.16V16.25z M22.036,16.35l0.912-0.375h1.251
		v0.375h0.271v0.658h-1.905l-0.704-0.194L22.036,16.35z M21.861,18.056l0.724-0.792h1.048l-1.344,1.878l-0.558-0.299L21.861,18.056z
		 M20.893,13.585l0.747,0.172l-0.258,1.014l-0.811,0.26l-0.51-1.055L20.893,13.585z M17.132,8.795V8.736h0.695l0.063-0.24h1.135
		v0.498l-0.336,0.431h-1.558V8.795z M18.234,10.34c0,0,0.698-0.124,0.751-0.124s0,0.696,0,0.696l-1.563,0.1l-0.295-0.354
		L18.234,10.34z"/>
</g>
</svg>
