<?xml version="1.0" encoding="utf-8"?>
<!-- Generator: Adobe Illustrator 16.0.0, SVG Export Plug-In . SVG Version: 6.00 Build 0)  -->
<!DOCTYPE svg PUBLIC "-//W3C//DTD SVG 1.1//EN" "http://www.w3.org/Graphics/SVG/1.1/DTD/svg11.dtd">
<svg version="1.1" id="Layer_1" xmlns="http://www.w3.org/2000/svg" xmlns:xlink="http://www.w3.org/1999/xlink" x="0px" y="0px"
	 width="50px" height="50px" viewBox="0 0 50 50" enable-background="new 0 0 50 50" xml:space="preserve">
<g>
	<path d="M28.432,20.194c0.006,0.001,0.01,0.002,0.014,0.003c0-0.009,0-0.02-0.001-0.03C28.44,20.177,28.438,20.186,28.432,20.194z"
		/>
	<path d="M21.555,20.198c0.004-0.001,0.008-0.002,0.014-0.003c-0.006-0.008-0.009-0.018-0.014-0.026
		C21.555,20.178,21.555,20.188,21.555,20.198z"/>
	<path d="M25,7.454c-7.954,0-14.425,6.472-14.425,14.425c0,6.284,4.044,11.626,9.662,13.6l0.197-2.459
		c-0.143,0.026-0.292,0.04-0.444,0.04l-0.288-0.017c-0.797-0.088-1.46-0.555-1.849-1.197c-0.054-0.039-0.11-0.074-0.164-0.113
		c0.021-0.016,0.045-0.03,0.066-0.046c-0.214-0.421-0.314-0.906-0.259-1.409l0.044-0.372c-0.38,0.238-0.749,0.492-1.107,0.766
		c-2.052-2-3.405-4.706-3.667-7.724h3.45c0.11,2.456,0.593,4.714,1.361,6.644l0.509-4.327c-0.126-0.751-0.227-1.52-0.267-2.317
		h0.539l0.069-0.586c0.03-0.119,0.08-0.292,0.179-0.481c0.084-0.163,0.184-0.286,0.232-0.345c0.07-0.093,0.188-0.251,0.369-0.406
		c0.124-0.103,0.242-0.177,0.366-0.243l0.141-0.075H17.82c0.114-2.242,0.584-4.333,1.309-6.104c0.785,0.361,1.604,0.635,2.442,0.844
		c0.495-0.754,1.235-1.322,2.104-1.621c0.344-2.235,0.789-3.721,1.162-4.331C24.892,9.598,24.944,9.591,25,9.591
		s0.108,0.007,0.163,0.008c0.373,0.61,0.818,2.097,1.162,4.331c0.867,0.299,1.607,0.867,2.103,1.621
		c0.851-0.213,1.682-0.491,2.478-0.858c0.71,1.762,1.165,3.854,1.275,6.117h-1.865l0.156,0.104c0.028,0.011,0.167,0.086,0.321,0.216
		c0.174,0.148,0.282,0.292,0.339,0.369c0.108,0.131,0.189,0.245,0.259,0.376c0.114,0.223,0.162,0.41,0.188,0.511
		c0.011,0.013,0.065,0.169,0.089,0.373l0.021,0.188h0.493c-0.037,0.773-0.129,1.516-0.244,2.244l0.489,4.39
		c0.766-1.928,1.247-4.182,1.357-6.634h3.45c-0.262,3.018-1.615,5.724-3.667,7.724c-0.356-0.273-0.726-0.527-1.104-0.764
		l0.041,0.368c0.056,0.504-0.045,0.99-0.26,1.411c0.021,0.016,0.046,0.03,0.067,0.046c-0.055,0.04-0.111,0.075-0.166,0.115
		c-0.391,0.642-1.055,1.108-1.856,1.197l-0.278,0.016c-0.152,0-0.302-0.013-0.444-0.04l0.197,2.459
		c5.618-1.974,9.662-7.316,9.662-13.6C39.425,13.925,32.954,7.454,25,7.454z M16.217,20.81h-3.45
		c0.262-3.018,1.615-5.724,3.667-7.724c0.397,0.303,0.804,0.59,1.228,0.848C16.84,15.912,16.331,18.26,16.217,20.81z M18.364,12.485
		c-0.23-0.144-0.453-0.301-0.675-0.46c0.511-0.38,1.047-0.725,1.613-1.023C18.966,11.455,18.654,11.955,18.364,12.485z
		 M22.028,14.038c-0.76-0.187-1.498-0.451-2.212-0.776c0.867-1.576,1.956-2.772,3.173-3.411
		C22.551,10.997,22.243,12.489,22.028,14.038z M27.972,14.038c-0.217-1.559-0.526-3.062-0.97-4.211
		c1.245,0.628,2.351,1.824,3.22,3.417C29.497,13.578,28.746,13.848,27.972,14.038z M31.636,12.486
		c-0.29-0.531-0.602-1.031-0.938-1.485c0.566,0.298,1.103,0.644,1.613,1.024C32.089,12.185,31.866,12.341,31.636,12.486z
		 M33.783,20.81c-0.114-2.55-0.623-4.897-1.444-6.875c0.424-0.259,0.831-0.544,1.228-0.848c2.052,1.999,3.405,4.705,3.667,7.723
		H33.783z"/>
	<path d="M27.64,17.794c0-1.458-1.183-2.64-2.64-2.64c-1.459,0-2.641,1.182-2.641,2.64s1.182,3.148,2.641,3.148
		C26.457,20.942,27.64,19.252,27.64,17.794z"/>
	<path d="M30.127,31.589c0.572-0.063,0.984-0.579,0.921-1.151l-0.835-7.517c-0.005-0.051-0.032-0.093-0.046-0.143
		c-0.019-0.074-0.034-0.148-0.069-0.216c-0.029-0.057-0.07-0.1-0.108-0.149c-0.045-0.058-0.085-0.116-0.141-0.165
		c-0.052-0.043-0.111-0.069-0.168-0.102c-0.053-0.029-0.092-0.07-0.148-0.091c-0.096-0.034-2.197-0.787-4.127-0.887l-0.268,0.532
		h-0.005l0.702,5.475L25,28.633l-0.835-1.459l0.702-5.475H24.86l-0.267-0.532c-1.929,0.1-4.03,0.854-4.125,0.887
		c-0.059,0.022-0.103,0.064-0.155,0.094c-0.054,0.032-0.11,0.057-0.16,0.097c-0.059,0.051-0.102,0.112-0.146,0.173
		c-0.035,0.047-0.076,0.088-0.104,0.142c-0.036,0.07-0.053,0.146-0.071,0.222c-0.013,0.048-0.04,0.088-0.045,0.139l-0.835,7.517
		c-0.063,0.572,0.349,1.088,0.921,1.151c0.039,0.005,0.079,0.008,0.117,0.008c0.525,0,0.976-0.396,1.036-0.93l0.761-6.847
		c0.089-0.026,0.186-0.054,0.289-0.084v7.127l-0.83,10.331c-0.055,0.689,0.458,1.294,1.147,1.349
		c0.035,0.003,0.068,0.004,0.104,0.004c0.645,0,1.193-0.497,1.247-1.152l0.751-9.338c0.153,0.069,0.325,0.107,0.505,0.107
		s0.352-0.039,0.505-0.107l0.751,9.338c0.054,0.655,0.603,1.152,1.247,1.152c0.035,0,0.068-0.001,0.104-0.004
		c0.689-0.055,1.202-0.66,1.147-1.349l-0.83-10.331v-7.127c0.104,0.03,0.2,0.059,0.289,0.084l0.761,6.847
		c0.061,0.534,0.511,0.93,1.036,0.93C30.048,31.597,30.088,31.594,30.127,31.589z"/>
</g>
</svg>
