<?xml version="1.0" encoding="utf-8"?>
<!-- Generator: Adobe Illustrator 16.0.0, SVG Export Plug-In . SVG Version: 6.00 Build 0)  -->
<!DOCTYPE svg PUBLIC "-//W3C//DTD SVG 1.1//EN" "http://www.w3.org/Graphics/SVG/1.1/DTD/svg11.dtd">
<svg version="1.1" id="Layer_2" xmlns="http://www.w3.org/2000/svg" xmlns:xlink="http://www.w3.org/1999/xlink" x="0px" y="0px"
	 width="126px" height="126px" viewBox="0 0 126 126" enable-background="new 0 0 126 126" xml:space="preserve">
<path d="M75.742,59.798c-3.73-1.088-7.625,1.042-8.727,4.766c-0.947,3.238,0.546,6.607,3.39,8.151l-1.188,0.688l-1.177-2.181
	c-0.81-0.039-1.631,0.051-2.427,0.259c-0.15-0.005-0.355-0.208-0.43-0.297c-1.645-1.79-2.909-7.771-1.784-16.685
	c0.176-1.441-0.796-2.762-2.214-3.022V36.836c0.596,0.057,1.203,0.088,1.811,0.088c9.811,0,17.791-7.979,17.791-17.791
	c0-9.812-7.98-17.791-17.791-17.791c-9.813,0-17.79,7.979-17.79,17.791c0,8.857,6.51,16.224,14.995,17.569v14.774
	c-1.14,0.209-2.062,1.132-2.212,2.34c-1.229,9.698-0.041,17.569,3.187,21.059c0.036,0.044,0.075,0.083,0.113,0.127
	c-0.077,0.177-0.14,0.359-0.19,0.543l-4.36,14.883c-0.103,0.334-0.155,0.67-0.19,1.004c-0.153,0.367-0.241,0.773-0.241,1.189
	l-0.292,24.074c-0.011,1.785,1.406,3.238,3.188,3.264c0.014,0,0.023,0,0.039,0c1.769,0,3.195-1.422,3.222-3.186l0.218-18.19
	c0.15,0.033,0.315,0.058,0.48,0.076l-0.179,22.749c-0.013,1.781,1.414,3.238,3.198,3.249c0.015,0,0.015,0,0.026,0
	c1.77,0,3.213-1.428,3.223-3.198l0.19-25.175c0.403-0.52,0.722-1.126,0.911-1.809l2.1-7.164c-0.026,3.118-0.493,6.879-1.531,11.172
	c-0.351,1.46,0.559,2.939,2.013,3.289c0.214,0.057,0.428,0.083,0.644,0.083c1.238,0,2.351-0.842,2.655-2.095
	c3.036-12.593,1.847-22.588-3.085-26.212c3.211,0.197,6.235-1.82,7.182-5.032C81.598,64.792,79.459,60.892,75.742,59.798z
	 M56.005,22.888c-1.315-0.176-2.389,0.367-2.887,1.605c-0.553,1.397-0.212,3.149,0.066,4.572c0.204,1.03,0.493,2.035,0.799,3.042
	c-2.581-1.803-4.603-4.35-5.757-7.341c1.102,0.069,2.161-0.228,3.186-0.759c1.393-0.721,2.253-2.826,3.91-2.844
	c0.832-0.008,1.148-0.261,1.392-1.088c0.302-1.038-0.419-1.973-0.875-2.845c-0.263-0.495-1.024-1.974,0.036-2.092
	c0.699-0.084,1.547,0.498,2.151,0.784c1.313,0.599,2.907,0.517,4.235,0.017c1.177-0.441,2.111-1.321,2.568-2.482
	c0.292-0.753,0.406-1.518,0.81-2.238c0,0-2.063-0.166-3.479,1.384c-1.429,1.549-1.429,0.734-2.301,0.595
	c-0.556-0.088-0.113-0.335,0.013-0.684c0.404-1.08-1.593-1.574-2.503-1.79c0.519-0.752,1.655-1.174,2.39-1.649
	c0.315-0.21,1.05-0.752,0.683-1.226c-0.605-0.792-1.96-0.875-2.857-0.805c-1.823,0.14-3.466,1.278-5.02,0.228
	c2.782-2.453,6.434-3.945,10.432-3.945c5.338,0,10.052,2.656,12.908,6.709c-1.44,1.984-5.5,0.877-7.588,1.269
	c-0.984,0.19-2.161,0.936-2.477,1.948c-0.367,1.238,1.314,1.441,0.632,2.782c-0.579,1.156-2.286,1.119-2.871,2.395
	c-0.402,0.892-0.088,1.834,0.585,2.479c1.567,1.51,4.185,1.499,6.232,1.934c-0.621,1.715-0.605,3.598,1.505,4.099
	c1.695,0.397,3.653-0.146,5.272-0.879c-2.036,4.167-5.854,7.308-10.458,8.428c-0.276-0.506-0.38-1.037,0.153-1.36
	c0.582-0.348,1.251-0.481,1.808-0.86c0.91-0.601,1.479-2.104,0.722-3.028c-0.923-1.126-2.706-1.213-4.049-1.301
	c-2.112-0.134-3.766,0.069-5.372-1.638C58.772,25,57.966,23.155,56.005,22.888z M69.167,73.656l-0.166,1.208
	c-0.087,0.284-0.139,0.581-0.123,0.878L67.6,84.998l-2.275,1.753l-0.026-0.013l-0.975-2.701l4.808-10.387L69.167,73.656z"/>
</svg>
