<?xml version="1.0" encoding="utf-8"?>
<!-- Generator: Adobe Illustrator 16.0.0, SVG Export Plug-In . SVG Version: 6.00 Build 0)  -->
<!DOCTYPE svg PUBLIC "-//W3C//DTD SVG 1.1//EN" "http://www.w3.org/Graphics/SVG/1.1/DTD/svg11.dtd">
<svg version="1.1" id="Layer_1" xmlns="http://www.w3.org/2000/svg" xmlns:xlink="http://www.w3.org/1999/xlink" x="0px" y="0px"
	 width="50px" height="50px" viewBox="0 0 50 50" enable-background="new 0 0 50 50" xml:space="preserve">
<g>
	<path d="M15.452,19.024c1.148,0,2.081-1.333,2.081-2.481c0-1.15-0.933-2.082-2.081-2.082c-1.15,0-2.082,0.932-2.082,2.082
		C13.37,17.691,14.302,19.024,15.452,19.024z"/>
	<path d="M19.527,20.474c-0.015-0.06-0.028-0.12-0.056-0.175c-0.022-0.041-0.053-0.073-0.081-0.11
		c-0.037-0.049-0.071-0.097-0.118-0.138c-0.037-0.031-0.081-0.05-0.123-0.075c-0.042-0.024-0.077-0.059-0.125-0.076
		c-0.075-0.027-1.731-0.621-3.254-0.699l-0.209,0.418h-0.005l0.554,4.318l-0.658,1.15l-0.659-1.15l0.554-4.318h-0.006l-0.209-0.418
		c-1.522,0.079-3.178,0.672-3.253,0.699c-0.048,0.017-0.083,0.052-0.126,0.077c-0.042,0.024-0.084,0.042-0.121,0.073
		c-0.049,0.041-0.083,0.091-0.121,0.141c-0.026,0.036-0.056,0.066-0.078,0.106c-0.029,0.056-0.042,0.116-0.058,0.178
		c-0.01,0.038-0.03,0.069-0.035,0.107l-0.659,5.926c-0.05,0.452,0.275,0.859,0.728,0.91c0.031,0.003,0.061,0.005,0.092,0.005
		c0.414,0,0.77-0.311,0.817-0.732l0.6-5.398c0.07-0.021,0.147-0.043,0.229-0.066v5.618l-0.655,8.146
		c-0.044,0.543,0.361,1.02,0.905,1.063c0.027,0.002,0.053,0.003,0.081,0.003c0.509,0,0.941-0.392,0.983-0.909l0.592-7.362
		c0.123,0.054,0.257,0.085,0.399,0.085s0.276-0.031,0.398-0.085l0.592,7.362c0.042,0.517,0.474,0.909,0.983,0.909
		c0.027,0,0.053-0.001,0.081-0.003c0.544-0.043,0.949-0.52,0.905-1.063l-0.655-8.146v-5.618c0.082,0.023,0.158,0.045,0.228,0.066
		l0.6,5.398c0.047,0.421,0.403,0.732,0.817,0.732c0.031,0,0.061-0.002,0.092-0.005c0.452-0.05,0.777-0.458,0.727-0.91l-0.658-5.926
		C19.558,20.543,19.537,20.511,19.527,20.474z"/>
	<path d="M29.234,16.74c-0.004-0.041-0.018-0.074-0.028-0.099l-0.017-0.053c-0.014-0.057-0.029-0.116-0.061-0.179
		c-0.02-0.036-0.044-0.067-0.069-0.099l-0.032-0.042c-0.036-0.048-0.073-0.098-0.127-0.145c-0.032-0.027-0.068-0.047-0.105-0.067
		l-0.035-0.02c-0.013-0.007-0.024-0.015-0.035-0.023c-0.028-0.02-0.063-0.045-0.11-0.062c-0.174-0.062-1.702-0.596-3.17-0.695
		c1.02-0.282,1.761-1.488,1.761-2.545c0-1.217-0.99-2.207-2.206-2.207c-1.217,0-2.207,0.99-2.207,2.207
		c0,1.057,0.741,2.263,1.762,2.545c-1.468,0.1-2.996,0.633-3.17,0.695c-0.047,0.017-0.083,0.043-0.112,0.063
		c-0.012,0.008-0.023,0.017-0.035,0.023l-0.033,0.018c-0.033,0.018-0.07,0.038-0.104,0.066c-0.055,0.046-0.094,0.099-0.142,0.163
		l-0.021,0.027c-0.024,0.03-0.048,0.06-0.066,0.096c-0.032,0.061-0.047,0.121-0.062,0.179l0.114,0.057l-0.131-0.003
		c-0.01,0.025-0.023,0.057-0.027,0.097l-0.658,5.926c-0.028,0.252,0.043,0.5,0.202,0.697c0.158,0.198,0.384,0.322,0.636,0.35
		c0.517,0.052,0.989-0.321,1.046-0.837l0.579-5.212l0,5.341l-0.655,8.146c-0.024,0.296,0.069,0.584,0.262,0.811
		c0.192,0.226,0.461,0.364,0.759,0.388c0.618,0.044,1.148-0.417,1.197-1.02l0.58-7.201c0.188,0.051,0.386,0.051,0.574,0l0.58,7.201
		c0.046,0.574,0.532,1.024,1.107,1.024c0.03,0,0.059-0.001,0.091-0.004c0.296-0.024,0.565-0.162,0.758-0.388
		c0.193-0.227,0.286-0.514,0.262-0.811l-0.655-8.136v-5.352l0.579,5.212c0.057,0.516,0.526,0.89,1.046,0.837
		c0.52-0.058,0.896-0.527,0.838-1.047L29.234,16.74z M23.043,12.713c0-1.079,0.878-1.957,1.957-1.957
		c1.079,0,1.956,0.878,1.956,1.957c0,1.067-0.873,2.356-1.956,2.356C23.916,15.069,23.043,13.78,23.043,12.713z M25.032,15.666
		h-0.065l-0.188-0.377c0.074,0.01,0.146,0.031,0.222,0.031s0.147-0.021,0.221-0.031L25.032,15.666z M25.529,20.082L25,21.007
		l-0.529-0.925L25,15.962L25.529,20.082z M29.028,23.465c-0.377,0.046-0.728-0.236-0.771-0.617l-0.6-5.398l-0.009-0.083
		l-0.469-0.135l0,5.793l0.655,8.146c0.019,0.229-0.054,0.452-0.203,0.628c-0.149,0.175-0.358,0.282-0.587,0.301
		c-0.472,0.033-0.892-0.322-0.93-0.791l-0.606-7.537l-0.161,0.071c-0.226,0.099-0.472,0.099-0.697,0l-0.161-0.071l-0.606,7.537
		c-0.036,0.445-0.414,0.794-0.859,0.794c-0.024,0-0.047-0.001-0.07-0.003c-0.23-0.019-0.439-0.125-0.588-0.301
		c-0.149-0.176-0.221-0.398-0.203-0.628l0.656-8.157v-5.783l-0.469,0.135l-0.608,5.481c-0.042,0.38-0.391,0.662-0.771,0.617
		c-0.186-0.021-0.352-0.112-0.468-0.258c-0.117-0.146-0.169-0.328-0.149-0.514l0.658-5.926c0.001-0.006,0.006-0.02,0.011-0.031
		c0.007-0.019,0.015-0.038,0.027-0.086c0.012-0.048,0.022-0.09,0.041-0.125c0.011-0.021,0.025-0.037,0.039-0.055l0.041-0.053
		c0.03-0.04,0.056-0.075,0.089-0.103c0.015-0.013,0.036-0.024,0.062-0.038l0.041-0.022c0.019-0.011,0.036-0.023,0.054-0.036
		c0.02-0.014,0.037-0.026,0.052-0.032c0.068-0.025,1.665-0.594,3.136-0.687l0.161,0.321l-0.554,4.312L25,21.51l0.788-1.376
		l-0.554-4.313l0.16-0.319c1.471,0.093,3.068,0.662,3.136,0.687c0.014,0.005,0.031,0.018,0.051,0.031
		c0.018,0.013,0.036,0.025,0.054,0.036l0.042,0.023c0.022,0.012,0.045,0.023,0.062,0.038c0.032,0.027,0.058,0.062,0.1,0.119
		l0.027,0.034c0.015,0.019,0.031,0.037,0.042,0.057c0.018,0.036,0.028,0.077,0.047,0.149c0.005,0.021,0.013,0.041,0.021,0.061
		c0.005,0.012,0.01,0.025,0.011,0.032l0.659,5.926C29.687,23.077,29.41,23.422,29.028,23.465z"/>
	<path d="M34.548,19.024c1.148,0,2.081-1.333,2.081-2.481c0-1.15-0.933-2.082-2.081-2.082c-1.149,0-2.082,0.932-2.082,2.082
		C32.466,17.691,33.398,19.024,34.548,19.024z"/>
	<path d="M38.658,20.583c-0.004-0.04-0.025-0.072-0.035-0.109c-0.016-0.06-0.028-0.12-0.057-0.175
		c-0.022-0.041-0.053-0.073-0.081-0.11c-0.037-0.049-0.071-0.097-0.118-0.138c-0.037-0.031-0.081-0.05-0.123-0.075
		c-0.042-0.024-0.077-0.059-0.125-0.076c-0.074-0.027-1.731-0.621-3.253-0.699l-0.21,0.418h-0.005l0.554,4.318l-0.659,1.15
		l-0.658-1.15l0.554-4.318h-0.006l-0.209-0.418c-1.522,0.079-3.179,0.672-3.253,0.699c-0.048,0.017-0.083,0.052-0.126,0.077
		c-0.041,0.024-0.084,0.042-0.12,0.073c-0.049,0.041-0.083,0.091-0.122,0.141c-0.026,0.036-0.056,0.066-0.077,0.106
		c-0.029,0.056-0.042,0.116-0.058,0.178c-0.009,0.038-0.03,0.069-0.035,0.107l-0.658,5.926c-0.05,0.452,0.275,0.859,0.727,0.91
		c0.031,0.003,0.061,0.005,0.092,0.005c0.413,0,0.77-0.311,0.816-0.732l0.6-5.398c0.07-0.021,0.146-0.043,0.228-0.066v5.618
		l-0.655,8.146c-0.043,0.543,0.361,1.02,0.906,1.063c0.027,0.002,0.053,0.003,0.08,0.003c0.509,0,0.941-0.392,0.983-0.909
		l0.592-7.362c0.122,0.054,0.256,0.085,0.398,0.085s0.277-0.031,0.399-0.085l0.592,7.362c0.042,0.517,0.474,0.909,0.983,0.909
		c0.027,0,0.054-0.001,0.081-0.003c0.544-0.043,0.949-0.52,0.905-1.063l-0.655-8.146v-5.618c0.082,0.023,0.158,0.045,0.229,0.066
		l0.6,5.398c0.047,0.421,0.403,0.732,0.816,0.732c0.031,0,0.061-0.002,0.092-0.005c0.452-0.05,0.778-0.458,0.728-0.91L38.658,20.583
		z"/>
	<polygon points="21.338,33.969 21.338,36.683 23.965,39.494 28.979,34.236 28.979,31.547 23.979,36.792 	"/>
</g>
</svg>
