<?xml version="1.0" encoding="utf-8"?>
<!-- Generator: Adobe Illustrator 16.0.0, SVG Export Plug-In . SVG Version: 6.00 Build 0)  -->
<!DOCTYPE svg PUBLIC "-//W3C//DTD SVG 1.1//EN" "http://www.w3.org/Graphics/SVG/1.1/DTD/svg11.dtd">
<svg version="1.1" id="Layer_1" xmlns="http://www.w3.org/2000/svg" xmlns:xlink="http://www.w3.org/1999/xlink" x="0px" y="0px"
	 width="126px" height="126px" viewBox="0 0 126 126" enable-background="new 0 0 126 126" xml:space="preserve">
<g>
	<circle cx="103.901" cy="21.327" r="10.875"/>
	<path d="M111.136,34.848c-0.184-0.111-0.376-0.191-0.567-0.273c-1.21-0.806-2.571-1.401-3.957-1.743l-2.71,2.729l-2.626-2.758
		c-0.01,0.002-0.018,0.002-0.027,0.004c-1.414,0.339-2.802,0.946-4.034,1.771c-0.188,0.082-0.378,0.161-0.559,0.27
		c-2.733,1.683-13.81-2.661-21.884-7.663c-1.981-1.23-4.583-0.622-5.813,1.359c-0.052,0.082-0.08,0.172-0.126,0.256l-22.646-9.604
		l-0.9,2.12l23.062,9.779c0.103,1.294,0.783,2.526,1.972,3.262c3.7,2.297,13.896,8.183,22.452,9.088v22.846
		c0,1.137,0.221,2.196,0.607,3.171c-0.029,0.218-0.051,0.44-0.051,0.667l0.004,40.432c0,2.754,2.233,4.988,4.989,4.988
		s4.99-2.234,4.99-4.991l-0.002-34.696c0.196,0.01,0.395,0.023,0.592,0.023c0.04,0,0.079-0.004,0.118-0.004l-0.002,34.677
		c0,2.757,2.233,4.991,4.99,4.991c2.756,0,4.99-2.234,4.99-4.991l0.001-39.734c0.306,0.332,0.667,0.624,1.086,0.851
		c0.642,0.35,1.332,0.514,2.014,0.514c1.497,0,2.947-0.796,3.713-2.205C132.721,48.09,116.475,38.123,111.136,34.848z
		 M103.929,57.084h-0.052l-2.621-3.59l2.621-17.532h0.052l2.622,17.532L103.929,57.084z M115.033,62.507V49.549
		C116.87,52.756,117.321,56.869,115.033,62.507z"/>
	<circle cx="44.643" cy="90.22" r="7.643"/>
	<path d="M49.726,99.724c-0.128-0.077-0.264-0.136-0.398-0.19c-0.852-0.57-1.807-0.986-2.782-1.225l-1.902,1.916l-1.847-1.938
		c-0.006,0.002-0.013,0.002-0.019,0.005c-0.994,0.236-1.971,0.663-2.836,1.244c-0.132,0.056-0.266,0.111-0.392,0.188
		c-2.357,1.446-7.731,4.753-9.331,10.823c-1.6-6.07-6.974-9.377-9.331-10.823c-0.129-0.077-0.264-0.136-0.397-0.19
		c-0.852-0.57-1.808-0.986-2.784-1.225l-1.903,1.916l-1.845-1.938c-0.007,0.002-0.013,0.002-0.018,0.005
		c-0.997,0.236-1.971,0.663-2.836,1.244c-0.135,0.056-0.268,0.111-0.392,0.188c-2.915,1.787-10.433,6.41-9.747,15.581h5.982
		c-0.227-2.098,0.198-3.814,1.032-5.265v5.265h7.773l-1.812-2.478l1.844-12.32h0.036l1.842,12.32l-1.809,2.478h7.771v-5.249
		c0.83,1.445,1.251,3.161,1.025,5.249h5.153h0.828h5.154c-0.229-2.098,0.197-3.814,1.033-5.265v5.265h7.771l-1.81-2.478l1.844-12.32
		h0.035l1.844,12.32l-1.809,2.478h7.77v-5.249c0.83,1.445,1.25,3.161,1.023,5.249h5.983
		C60.156,106.134,52.637,101.511,49.726,99.724z"/>
	<circle cx="15.803" cy="90.22" r="7.643"/>
	<circle cx="74.397" cy="90.221" r="7.643"/>
	<path d="M79.48,99.724c-0.128-0.077-0.264-0.136-0.399-0.19c-0.849-0.57-1.805-0.986-2.781-1.225l-1.903,1.916l-1.846-1.938
		c-0.007,0.002-0.013,0.002-0.02,0.005c-0.994,0.236-1.97,0.663-2.836,1.244c-0.132,0.056-0.266,0.111-0.389,0.188
		c-2.915,1.787-10.436,6.41-9.747,15.581h5.982c-0.228-2.098,0.196-3.814,1.032-5.265v5.265h7.771l-1.809-2.478l1.843-12.32h0.035
		l1.844,12.32l-1.809,2.478h7.771v-5.249c0.829,1.445,1.251,3.161,1.024,5.249h5.982C89.913,106.134,82.393,101.511,79.48,99.724z"
		/>
	<path d="M59.988,72.849c-4.357,0-7.888,3.531-7.888,7.888c0,4.359,3.53,7.893,7.888,7.893c4.358,0,7.891-3.533,7.891-7.893
		C67.879,76.38,64.347,72.849,59.988,72.849z"/>
	<path d="M65.419,90.66c-0.061-0.037-0.123-0.075-0.182-0.113c-0.133-0.08-0.272-0.138-0.411-0.197
		c-0.879-0.586-1.865-1.018-2.872-1.264l-1.966,1.979l-1.905-2c-0.005,0-0.013,0-0.019,0.002c-1.027,0.245-2.034,0.686-2.928,1.284
		c-0.137,0.061-0.274,0.115-0.403,0.195c-0.225,0.139-0.482,0.299-0.754,0.47c-0.167,3.011-1.776,5.642-4.165,7.192
		c0.146,0.084,0.295,0.164,0.435,0.255c0.16,0.069,0.316,0.147,0.469,0.24c1.745,1.071,4.613,2.624,7.199,5.828l0.15-0.456
		l1.903-12.719h0.037c0,0,1.867,12.719,1.902,12.719c2.43-3.213,5.107-4.344,6.785-5.372c0.162-0.102,0.325-0.177,0.462-0.238
		c0.144-0.093,0.295-0.175,0.444-0.263C67.123,96.593,65.472,93.82,65.419,90.66z"/>
	<path d="M20.978,98.209c0.146,0.084,0.296,0.164,0.436,0.255c0.16,0.071,0.314,0.147,0.466,0.24c1.486,0.91,4.164,2.555,6.45,5.167
		l1.872-12.514h0.037l1.902,12.719l6.799-5.372c0.163-0.102,0.328-0.177,0.465-0.238c0.144-0.093,0.295-0.175,0.443-0.259
		c-2.477-1.612-4.126-4.382-4.182-7.535c-0.066-0.042-0.139-0.087-0.199-0.125c-0.133-0.08-0.272-0.138-0.41-0.197
		c-0.879-0.586-1.866-1.018-2.872-1.264l-1.966,1.979l-1.905-2c-0.006,0-0.013,0-0.02,0.002c-1.026,0.245-2.033,0.686-2.927,1.284
		c-0.066,0.028-0.131,0.064-0.196,0.096c0,0.022,0.004,0.042,0.004,0.063C25.175,93.733,23.499,96.57,20.978,98.209z"/>
	<circle cx="30.219" cy="80.739" r="7.89"/>
</g>
</svg>
