<?xml version="1.0" encoding="utf-8"?>
<!-- Generator: Adobe Illustrator 16.0.0, SVG Export Plug-In . SVG Version: 6.00 Build 0)  -->
<!DOCTYPE svg PUBLIC "-//W3C//DTD SVG 1.1//EN" "http://www.w3.org/Graphics/SVG/1.1/DTD/svg11.dtd">
<svg version="1.1" id="Layer_3" xmlns="http://www.w3.org/2000/svg" xmlns:xlink="http://www.w3.org/1999/xlink" x="0px" y="0px"
	 width="126px" height="126px" viewBox="0 0 126 126" enable-background="new 0 0 126 126" xml:space="preserve">
<g>
	<polygon points="14.071,75.594 3.892,75.594 3.892,113.274 28.582,113.274 28.582,105.052 14.071,105.052 	"/>
	<path d="M45.272,75.002c-5.98,0-10.539,1.653-13.674,4.961c-3.137,3.308-4.703,8.096-4.703,14.367
		c0,6.341,1.576,11.169,4.729,14.485c3.154,3.315,7.686,4.974,13.597,4.974c5.996,0,10.548-1.649,13.659-4.947
		c3.109-3.3,4.663-8.119,4.663-14.459c0-6.357-1.545-11.177-4.637-14.46C55.813,76.642,51.269,75.002,45.272,75.002z
		 M50.953,102.656c-1.246,1.77-3.155,2.652-5.732,2.652c-5.069,0-7.604-3.642-7.604-10.926c0-7.354,2.551-11.031,7.656-11.031
		c2.507,0,4.393,0.898,5.655,2.693s1.896,4.575,1.896,8.338C52.823,98.128,52.2,100.886,50.953,102.656z"/>
	<path d="M81.155,94.795c-0.274,1.031-0.593,2.448-0.954,4.253c-0.36,1.804-0.602,3.308-0.723,4.51
		c-0.104-1.666-0.687-4.622-1.752-8.866l-5.128-19.098H61.154l12.293,37.681h11.985l12.346-37.681H86.388L81.155,94.795z"/>
	<polygon points="99.738,113.274 122.107,113.274 122.107,104.976 109.918,104.976 109.918,97.861 121.208,97.861 121.208,89.691 
		109.918,89.691 109.918,83.765 122.107,83.765 122.107,75.594 99.738,75.594 	"/>
	<circle cx="73.406" cy="22.62" r="10.406"/>
	<path d="M120.085,63.236l-2.702-0.008c-8.274-10.981-12.041-13.002-14.042-13.371c0.706-0.823,1.089-1.918,0.956-3.08
		c-0.253-2.216-2.256-3.811-4.472-3.557c-12.583,1.436-14.276,0.003-18.752-5.707c-0.044-0.055-0.099-0.099-0.146-0.15
		c-1.639-2.604-4.853-3.933-7.671-4.065c0,0-1.137-0.111-2.278,0.139c-1.088,0.239-2.256,0.731-2.256,0.731l-0.031,0.012
		c-3.271,1.514-6.381,5.029-5.558,9.229l4.419,22.542c1.538,6.73,10.524,5.961,11.33,5.988l41.181,0.11c0.003,0,0.007,0,0.011,0
		c2.428,0,4.401-1.966,4.406-4.393C124.488,65.221,122.52,63.243,120.085,63.236z M85.404,57.747l-1.441-7.355
		c2.39,0.983,5.111,1.418,8.554,1.418c1.245,0,2.593-0.058,4.046-0.163C94.118,52.806,90.581,54.69,85.404,57.747z M101.585,63.187
		l-2.33-3.07c1.046-0.542,1.927-0.967,2.588-1.245c0.975,0.803,2.478,2.373,4.17,4.327L101.585,63.187z"/>
	<circle cx="52.593" cy="22.618" r="10.406"/>
	<path d="M5.938,72.049l41.179-0.11c0.137,0.032,10.496,0.302,11.33-5.989l4.419-22.541c0.823-4.199-2.286-7.715-5.558-9.229
		l-0.028-0.012c0,0-1.171-0.492-2.259-0.731c-1.14-0.25-2.278-0.139-2.278-0.139c-2.817,0.133-6.028,1.461-7.668,4.063
		c-0.047,0.054-0.104,0.097-0.148,0.153c-4.476,5.71-6.163,7.143-18.752,5.707c-2.205-0.254-4.218,1.341-4.471,3.556
		c-0.131,1.163,0.251,2.257,0.957,3.08c-1.999,0.369-5.77,2.391-14.044,13.372l-2.703,0.006c-2.434,0.009-4.402,1.986-4.395,4.421
		c0.007,2.428,1.979,4.394,4.406,4.394C5.931,72.049,5.934,72.049,5.938,72.049z M33.483,51.81c3.442,0,6.163-0.435,8.554-1.418
		l-1.441,7.355c-5.177-3.057-8.714-4.941-11.159-6.101C30.891,51.752,32.237,51.81,33.483,51.81z M24.157,58.869
		c1.642,0.692,4.63,2.29,8.154,4.294l-12.325,0.034C21.678,61.243,23.182,59.673,24.157,58.869z"/>
</g>
</svg>
