<?xml version="1.0" encoding="iso-8859-1"?>
<!-- Generator: Adobe Illustrator 17.1.0, SVG Export Plug-In . SVG Version: 6.00 Build 0)  -->
<!DOCTYPE svg PUBLIC "-//W3C//DTD SVG 1.1//EN" "http://www.w3.org/Graphics/SVG/1.1/DTD/svg11.dtd">
<svg version="1.1" id="Layer_1" xmlns="http://www.w3.org/2000/svg" xmlns:xlink="http://www.w3.org/1999/xlink" x="0px" y="0px"
	 viewBox="0 0 128 128" style="enable-background:new 0 0 128 128;" xml:space="preserve">
<g>
	<path d="M108.568,57.583c-0.035,0-0.768,0-0.768,0h-0.002c-0.217-0.003-0.344,0.181-0.286,0.389l5.159,16.885
		c0.373-0.608,0.736-1.219,1.09-1.832c-1.527-4.976-4.618-15.055-4.618-15.055C109.112,57.895,108.949,57.583,108.568,57.583z"/>
	<path d="M64.894,112.32l-0.001-10.755c0-0.138-0.144-0.25-0.254-0.25c-0.11,0-1.035,0-1.035,0c-0.138,0-0.25,0.112-0.25,0.25
		l-0.001,10.816c0.209,0.052,0.418,0.105,0.627,0.154h0.04C64.312,112.466,64.603,112.394,64.894,112.32z"/>
	<path d="M11.896,55.752c0.833-2.896,2.863-9.49,8.594-9.49h15.374c6.151,0,7.742,6.594,8.575,9.49c0,0,5.462,17.839,5.464,17.846
		c0.591,1.926-0.492,3.966-2.418,4.556c-1.925,0.59-3.964-0.491-4.555-2.415c-0.002,0-5.452-17.769-5.452-17.769
		c-0.032-0.075-0.195-0.387-0.576-0.387c-0.035,0-0.768,0-0.768,0h-0.002c-0.217-0.003-0.344,0.181-0.286,0.389l10.91,35.705
		c0.059,0.208,0,0.572-0.38,0.572h-7.654c-0.217,0-0.375,0.176-0.375,0.393c0,0,0,2.221,0,5.364
		c5.966,4.467,12.405,8.099,19.003,10.523c0-4.348,0.001-8.963,0.001-8.963c0-0.138-0.101-0.25-0.239-0.25H52.3
		c-0.242,0-0.28-0.232-0.242-0.365l6.934-22.812c0.036-0.133-0.044-0.251-0.183-0.248c0,0-1.072,0-1.094,0
		c-0.243,0-0.347,0.199-0.367,0.247c0,0-3.45,11.265-3.451,11.265c-0.377,1.228-1.678,1.917-2.906,1.541
		c-1.229-0.377-1.919-1.678-1.543-2.907c0.001-0.005,3.475-11.347,3.486-11.386c0.532-1.848,2.447-6.055,6.103-6.055h9.994
		c3.924,0,5.503,4.207,6.035,6.055c0.011,0.039,0.024,0.087,0.039,0.143c1.403,4.575,3.446,11.238,3.448,11.243
		c0.377,1.229-0.314,2.53-1.543,2.907c-1.228,0.377-2.529-0.313-2.906-1.541c-0.001,0-3.462-11.265-3.462-11.265
		c-0.02-0.048-0.124-0.247-0.368-0.247c-0.022,0-1.049,0-1.049,0c-0.138-0.002-0.204,0.115-0.167,0.248l6.945,22.812
		c0.038,0.133,0,0.365-0.242,0.365h-4.626c-0.138,0-0.239,0.112-0.239,0.251c0,0,0,4.551,0.001,8.872
		c6.512-2.423,12.865-6.02,18.757-10.431c0-3.143,0-5.364,0-5.364c0-0.217-0.159-0.393-0.375-0.393h-7.654
		c-0.38,0-0.439-0.364-0.38-0.572l10.91-35.705c0.057-0.208-0.069-0.393-0.286-0.389h-0.002c0,0-0.733,0-0.768,0
		c-0.381,0-0.544,0.312-0.576,0.387c0,0-5.45,17.769-5.452,17.769c-0.591,1.924-2.631,3.006-4.556,2.415
		c-1.926-0.591-3.008-2.631-2.418-4.556c0.002-0.007,5.447-17.785,5.464-17.846c0.833-2.896,2.863-9.49,8.594-9.49h15.374
		c6.151,0,7.742,6.594,8.575,9.49c0,0,1.115,3.641,2.337,7.634c5.849-14.866,5.369-29.907-5.513-40.268
		C91.677,3.636,67.53,27.118,64.427,30.312c-0.185,0.19-0.373,0.348-0.427,0.35c-0.054-0.003-0.242-0.16-0.427-0.35
		c-3.103-3.194-27.25-26.676-48.502-7.195C4.189,33.48,3.709,48.52,9.558,63.387C10.776,59.409,11.888,55.78,11.896,55.752z
		 M99.833,30.158c3.865,0,6.999,3.133,6.999,6.999c0,3.865-3.133,6.999-6.999,6.999c-3.865,0-6.999-3.133-6.999-6.999
		C92.834,33.292,95.968,30.158,99.833,30.158z M57.432,60.033c0.97-0.097,1.974,0.376,2.72,0.856
		c0.193,0.125,0.47,0.097,0.643-0.053c0.867-0.764,2.006-1.229,3.253-1.229c1.297,0,2.476,0.501,3.355,1.32
		c0.167,0.156,0.439,0.184,0.63,0.055c0.757-0.509,1.831-1.052,2.863-0.95c1.702,0.169,2.068,2.127,1.625,3.477
		c-0.072,0.219-0.239,0.551-0.338,0.757c-0.604,1.256-1.223,2.698-1.615,2.744c-0.395,0.05,0.867-2.979-0.039-3.923
		c-0.16-0.165-0.535-0.244-0.762-0.226c-0.165,0.015-0.373,0.05-0.608,0.129c-0.217,0.073-0.329,0.338-0.283,0.562
		c0.064,0.318,0.099,0.647,0.099,0.983c0,2.72-2.205,4.926-4.926,4.926c-2.72,0-4.926-2.205-4.926-4.926
		c0-0.371,0.04-0.731,0.117-1.078c0.05-0.224-0.064-0.474-0.286-0.529c-0.147-0.035-0.279-0.055-0.393-0.064
		c-0.23-0.02-0.604,0.061-0.762,0.226c-0.905,0.944,0.354,3.972-0.038,3.923c-0.395-0.048-1.014-1.49-1.618-2.746
		c-0.099-0.207-0.266-0.538-0.338-0.757C55.364,62.16,55.729,60.202,57.432,60.033z M28.167,30.158c3.865,0,6.999,3.133,6.999,6.999
		c0,3.865-3.133,6.999-6.999,6.999c-3.865,0-6.999-3.133-6.999-6.999C21.169,33.292,24.302,30.158,28.167,30.158z"/>
	<path d="M20.201,57.583H20.2c0,0-0.733,0-0.768,0c-0.381,0-0.544,0.312-0.576,0.387c0,0-3.091,10.079-4.618,15.055
		c0.354,0.613,0.717,1.224,1.09,1.832l5.159-16.885C20.545,57.764,20.418,57.58,20.201,57.583z"/>
</g>
</svg>
