<?xml version="1.0" encoding="utf-8"?>
<!-- Generator: Adobe Illustrator 16.0.0, SVG Export Plug-In . SVG Version: 6.00 Build 0)  -->
<!DOCTYPE svg PUBLIC "-//W3C//DTD SVG 1.1//EN" "http://www.w3.org/Graphics/SVG/1.1/DTD/svg11.dtd">
<svg version="1.1" id="Layer_3" xmlns="http://www.w3.org/2000/svg" xmlns:xlink="http://www.w3.org/1999/xlink" x="0px" y="0px"
	 width="126px" height="126px" viewBox="0 0 126 126" enable-background="new 0 0 126 126" xml:space="preserve">
<g>
	<circle cx="113.156" cy="68.588" r="12.607"/>
	<path d="M99.738,65.545c-1.075-4.231-4.57-8.362-9.755-8.317l-27.83-0.116c-3.19,0.027-5.716,1.729-7.392,4.141
		C42.385,44.339,38.293,44.666,35.992,44.845c-2.224,0.178-6.3,0.51-22.276,22.161l-7.698,0.002
		c-3.195,0.001-5.784,2.592-5.783,5.787c0,3.194,2.59,5.783,5.785,5.783h0.001l10.576-0.004c0.016,0,0.031,0.004,0.046,0.004
		c0.021,0,0.041-0.004,0.062-0.004l40.421-0.014c1.436,1.053,3.184,1.705,5.228,1.688l27.829,0.116
		c5.165-0.044,8.59-4.964,9.587-9.186c0,0,0.386-1.331,0.343-2.743c-0.042-1.351-0.369-2.854-0.369-2.854L99.738,65.545z M28.331,67
		c3.208-4.021,6.255-7.581,8.272-9.549c1.937,1.913,4.866,5.431,7.966,9.544L28.331,67z"/>
</g>
</svg>
