<?xml version="1.0" encoding="utf-8"?>
<!-- Generator: Adobe Illustrator 16.0.0, SVG Export Plug-In . SVG Version: 6.00 Build 0)  -->
<!DOCTYPE svg PUBLIC "-//W3C//DTD SVG 1.1//EN" "http://www.w3.org/Graphics/SVG/1.1/DTD/svg11.dtd">
<svg version="1.1" id="Layer_3" xmlns="http://www.w3.org/2000/svg" xmlns:xlink="http://www.w3.org/1999/xlink" x="0px" y="0px"
	 width="126px" height="126px" viewBox="0 0 126 126" enable-background="new 0 0 126 126" xml:space="preserve">
<g>
	<circle cx="113.112" cy="78.689" r="12.596"/>
	<path d="M99.705,75.647c-0.219-0.858-0.542-1.728-0.954-2.568l-0.079-33.486c-0.007-2.697-2.193-4.879-4.89-4.879
		c-0.004,0-0.008,0-0.012,0c-2.701,0.007-4.886,2.201-4.88,4.901l0.065,27.376l-26.802,0.231c-3.908,0.033-6.824,2.576-8.388,5.871
		L6.068,73.109c-3.191,0.001-5.778,2.589-5.777,5.78c0.001,3.193,2.588,5.779,5.779,5.779h0.001l47.784-0.016
		c1.566,3.156,4.462,5.72,8.5,5.685l27.803-0.239c5.162-0.045,8.583-4.604,9.579-8.821c0,0,0.386-1.33,0.342-2.741
		c-0.041-1.35-0.368-2.851-0.368-2.851L99.705,75.647z"/>
</g>
</svg>
