<?xml version="1.0" encoding="utf-8"?>
<!-- Generator: Adobe Illustrator 16.0.0, SVG Export Plug-In . SVG Version: 6.00 Build 0)  -->
<!DOCTYPE svg PUBLIC "-//W3C//DTD SVG 1.1//EN" "http://www.w3.org/Graphics/SVG/1.1/DTD/svg11.dtd">
<svg version="1.1" id="Layer_2" xmlns="http://www.w3.org/2000/svg" xmlns:xlink="http://www.w3.org/1999/xlink" x="0px" y="0px"
	 width="126px" height="126px" viewBox="0 0 126 126" enable-background="new 0 0 126 126" xml:space="preserve">
<g>
	<rect x="24.571" y="73.025" width="76.007" height="51.501"/>
	<path d="M107.765,63.222c2.749-18.188-11.907-27.208-17.436-30.598c-0.231-0.142-0.477-0.244-0.72-0.347
		c-1.547-1.033-3.284-1.793-5.057-2.228l-3.458,3.482l-3.354-3.521c-0.012,0.003-0.023,0.003-0.034,0.006
		c-1.806,0.433-3.577,1.207-5.15,2.261c-0.422,0.18-0.835,0.396-1.214,0.693c-11.464,8.958-16.564,4.152-17.171,3.729
		c-2.007-1.42-4.639-1.25-6.467,0.214l-8.606-8.103l1.722-2.063c0.721-0.864,1.066-1.916,1.062-2.96l-5.377-4.487
		c-1.029,0.182-2.001,0.711-2.723,1.575l-4.994,5.988c-0.684,0.818-1.029,1.803-1.06,2.791l5.54,4.622
		c0.966-0.208,1.873-0.723,2.555-1.54l1.807-2.166l8.554,8.103l0.148-0.105c-1.269,2.364-0.628,5.349,1.618,6.937
		c0.599,0.424,11.919,6.51,18.933,1.287v16.429H38.864c0.916,0,1.659-0.743,1.659-1.66s-0.743-1.661-1.659-1.661h-0.13
		c0-1.631-1.324-2.954-2.954-2.954H23.599c-1.631,0-2.954,1.323-2.954,2.954h-0.13c-0.917,0-1.659,0.744-1.659,1.661
		s0.742,1.66,1.659,1.66h-6.007v6.032h96.984v-6.032H107.765z M81.062,34.048h0.065l3.349,22.384l-3.349,4.583h-0.065l-3.348-4.583
		L81.062,34.048z M95.307,51.394c1.8,3.138,2.542,6.969,1.478,11.829h-1.478V51.394z"/>
	<circle cx="81.095" cy="15.359" r="13.885"/>
</g>
</svg>
