<?xml version="1.0" encoding="utf-8"?>
<!-- Generator: Adobe Illustrator 16.0.0, SVG Export Plug-In . SVG Version: 6.00 Build 0)  -->
<!DOCTYPE svg PUBLIC "-//W3C//DTD SVG 1.1//EN" "http://www.w3.org/Graphics/SVG/1.1/DTD/svg11.dtd">
<svg version="1.1" id="Layer_1" xmlns="http://www.w3.org/2000/svg" xmlns:xlink="http://www.w3.org/1999/xlink" x="0px" y="0px"
	 width="50px" height="50px" viewBox="0 0 50 50" enable-background="new 0 0 50 50" xml:space="preserve">
<g>
	<path d="M31.191,11.345c-5.095-2.938-11.633-1.189-14.574,3.904c-2.938,5.091-1.187,11.629,3.908,14.567
		c5.091,2.938,11.629,1.194,14.567-3.907C38.034,20.822,36.282,14.286,31.191,11.345z M33.561,25.029
		c-2.451,4.25-7.899,5.718-12.154,3.261c-4.251-2.457-5.708-7.907-3.257-12.157c2.455-4.25,7.909-5.711,12.157-3.261
		C34.558,15.327,36.019,20.778,33.561,25.029z"/>
	<polygon points="14.312,35.277 18.9,37.92 22.428,31.81 17.845,29.161 	"/>
	<path d="M14.803,39.726c1.269,0.729,2.888,0.299,3.624-0.971l-4.591-2.648C13.103,37.375,13.538,38.997,14.803,39.726z"/>
	<rect x="19.726" y="20.581" width="3.062" height="4.743"/>
	<rect x="24.325" y="18.455" width="3.062" height="6.869"/>
	<rect x="28.924" y="15.839" width="3.062" height="9.485"/>
</g>
</svg>
