<?xml version="1.0" encoding="utf-8"?>
<!-- Generator: Adobe Illustrator 16.0.0, SVG Export Plug-In . SVG Version: 6.00 Build 0)  -->
<!DOCTYPE svg PUBLIC "-//W3C//DTD SVG 1.1//EN" "http://www.w3.org/Graphics/SVG/1.1/DTD/svg11.dtd">
<svg version="1.1" id="Layer_1" xmlns="http://www.w3.org/2000/svg" xmlns:xlink="http://www.w3.org/1999/xlink" x="0px" y="0px"
	 width="50px" height="50px" viewBox="0 0 50 50" enable-background="new 0 0 50 50" xml:space="preserve">
<g>
	<polygon points="11.642,35.277 16.229,37.92 19.757,31.81 15.174,29.161 	"/>
	<path d="M12.132,39.726c1.269,0.729,2.888,0.299,3.624-0.971l-4.591-2.648C10.432,37.375,10.867,38.997,12.132,39.726z"/>
	<path d="M32.668,13.352l2.218,0.718l-2.049,1.999c-0.892-1.916-2.352-3.588-4.316-4.724c-5.095-2.938-11.633-1.189-14.574,3.904
		c-2.938,5.091-1.187,11.629,3.908,14.567c5.091,2.938,11.629,1.194,14.567-3.907c1.035-1.791,1.478-3.759,1.409-5.689l-1.807,1.349
		c-0.132,1.185-0.5,2.362-1.135,3.459c-2.451,4.25-7.899,5.718-12.154,3.261c-4.251-2.457-5.708-7.907-3.257-12.157
		c2.455-4.25,7.909-5.711,12.157-3.261c1.835,1.06,3.145,2.679,3.847,4.518l-4.294,4.191l-3.065-1.641l-3.327,4.175l-3.718-1.631
		l3.718,3.196l3.506-2.896l2.626,1.592l10.046-7.502l0.457,2.283l1.761-6.523L32.668,13.352z"/>
</g>
</svg>
