<?xml version="1.0" encoding="utf-8"?>
<!-- Generator: Adobe Illustrator 16.0.0, SVG Export Plug-In . SVG Version: 6.00 Build 0)  -->
<!DOCTYPE svg PUBLIC "-//W3C//DTD SVG 1.1//EN" "http://www.w3.org/Graphics/SVG/1.1/DTD/svg11.dtd">
<svg version="1.1" id="Layer_1" xmlns="http://www.w3.org/2000/svg" xmlns:xlink="http://www.w3.org/1999/xlink" x="0px" y="0px"
	 width="50px" height="50px" viewBox="0 0 50 50" enable-background="new 0 0 50 50" xml:space="preserve">
<g>
	<g>
		<path d="M25,18.051c-1.307,0-2.365,1.058-2.365,2.363s1.059,2.818,2.365,2.818c1.303,0,2.361-1.513,2.361-2.818
			S26.303,18.051,25,18.051z"/>
		<path d="M32.732,20.469c-0.494-0.143-1.014,0.145-1.156,0.642l-1.127,3.94l-1.895-1.438c-0.031-0.023-0.066-0.029-0.098-0.048
			c-0.057-0.033-0.111-0.062-0.174-0.083c-0.061-0.021-0.121-0.029-0.184-0.037c-0.037-0.005-0.072-0.022-0.109-0.022h-2.623
			l-0.244,0.485h-0.006l0.629,4.901L25,30.115l-0.748-1.306l0.629-4.901h-0.008l-0.24-0.485H22.01c-0.039,0-0.07,0.018-0.109,0.022
			c-0.062,0.007-0.123,0.017-0.184,0.037c-0.064,0.021-0.117,0.05-0.174,0.083c-0.031,0.019-0.068,0.024-0.098,0.047l-1.896,1.438
			l-1.127-3.94c-0.141-0.497-0.658-0.786-1.154-0.642c-0.496,0.142-0.783,0.659-0.643,1.155l1.502,5.252
			c0.084,0.296,0.311,0.532,0.604,0.63c0.096,0.032,0.195,0.048,0.295,0.048c0.201,0,0.4-0.065,0.564-0.19l2.734-2.073h0.059v6.818
			l-0.744,9.248c-0.049,0.617,0.41,1.158,1.029,1.207c0.029,0.003,0.061,0.004,0.09,0.004c0.578,0,1.068-0.444,1.117-1.031
			l0.672-8.358c0.139,0.061,0.291,0.097,0.453,0.097c0.16,0,0.312-0.036,0.451-0.097l0.674,8.358
			c0.047,0.587,0.537,1.031,1.115,1.031c0.031,0,0.061-0.001,0.092-0.004c0.617-0.049,1.078-0.59,1.027-1.207l-0.744-9.248v-6.818
			h0.061l2.732,2.073c0.164,0.125,0.363,0.19,0.564,0.19c0.1,0,0.199-0.016,0.295-0.048c0.293-0.098,0.52-0.333,0.604-0.63
			l1.502-5.253C33.516,21.128,33.229,20.611,32.732,20.469z"/>
	</g>
	<g>
		<path d="M20.312,12.891h-0.156v0.571c0.045,0.006,0.1,0.006,0.178,0.006c0.207,0,0.391-0.078,0.391-0.292
			C20.725,12.972,20.541,12.891,20.312,12.891z"/>
		<path d="M22.695,12.091c-0.309,0-0.49,0.294-0.49,0.688c0,0.396,0.188,0.676,0.494,0.676c0.309,0,0.486-0.294,0.486-0.688
			C23.186,12.404,23.012,12.091,22.695,12.091z"/>
		<path d="M20.676,12.313c0-0.153-0.117-0.234-0.324-0.234c-0.1,0-0.156,0.006-0.195,0.012v0.472h0.15
			C20.547,12.563,20.676,12.464,20.676,12.313z"/>
		<path d="M31.602,13.161l3.184-2.788l-3.902,0.133l1.328-1.97l-5.383,2.095l2.07-3.201l-4.746,3.139l-2.051-2.438l-0.346,2.573
			l-4.768-1.416l1.334,3.085l-3.107,1.899l4.006,0.175l-0.965,2.697l4.73-1.605l-0.521,1.605l3.676-1.282l4.279,1.282l-1.178-2.244
			l4.473,0.47L31.602,13.161z M20.996,13.625c-0.148,0.117-0.395,0.183-0.797,0.183c-0.227,0-0.395-0.015-0.496-0.03v-1.99
			c0.119-0.024,0.363-0.042,0.592-0.042c0.279,0,0.451,0.027,0.598,0.114c0.143,0.075,0.244,0.213,0.244,0.396
			c0,0.181-0.105,0.349-0.334,0.433v0.006c0.232,0.063,0.402,0.238,0.402,0.499C21.205,13.378,21.121,13.522,20.996,13.625z
			 M22.674,13.82c-0.6,0-0.951-0.454-0.951-1.031c0-0.607,0.387-1.061,0.984-1.061c0.623,0,0.963,0.466,0.963,1.025
			C23.67,13.417,23.268,13.82,22.674,13.82z M25.943,13.787h-0.482l-0.432-0.782c-0.121-0.216-0.254-0.478-0.352-0.715l-0.01,0.003
			c0.012,0.268,0.018,0.553,0.018,0.884v0.61h-0.42v-2.026h0.535l0.42,0.742c0.121,0.213,0.24,0.466,0.332,0.694h0.008
			c-0.029-0.268-0.039-0.541-0.039-0.845v-0.592h0.422V13.787z M28.289,12.897c0,0.625-0.316,0.923-0.846,0.923
			c-0.51,0-0.811-0.283-0.811-0.929v-1.13h0.459v1.166c0,0.349,0.133,0.526,0.367,0.526c0.24,0,0.373-0.168,0.373-0.526v-1.166
			h0.457V12.897z M29.479,13.817c-0.232,0-0.461-0.061-0.574-0.124l0.094-0.379c0.123,0.063,0.312,0.126,0.508,0.126
			c0.209,0,0.32-0.087,0.32-0.219c0-0.126-0.096-0.199-0.34-0.286c-0.336-0.117-0.555-0.304-0.555-0.598
			c0-0.346,0.287-0.61,0.766-0.61c0.229,0,0.396,0.048,0.518,0.102l-0.102,0.37c-0.082-0.04-0.227-0.097-0.424-0.097
			c-0.199,0-0.295,0.09-0.295,0.196c0,0.129,0.113,0.186,0.375,0.286c0.357,0.132,0.525,0.318,0.525,0.604
			C30.295,13.528,30.033,13.817,29.479,13.817z"/>
	</g>
</g>
</svg>
