<?xml version="1.0" encoding="utf-8"?>
<!-- Generator: Adobe Illustrator 16.0.0, SVG Export Plug-In . SVG Version: 6.00 Build 0)  -->
<!DOCTYPE svg PUBLIC "-//W3C//DTD SVG 1.1//EN" "http://www.w3.org/Graphics/SVG/1.1/DTD/svg11.dtd">
<svg version="1.1" id="Layer_1" xmlns="http://www.w3.org/2000/svg" xmlns:xlink="http://www.w3.org/1999/xlink" x="0px" y="0px"
	 width="126px" height="126px" viewBox="0 0 126 126" enable-background="new 0 0 126 126" xml:space="preserve">
<g>
	<circle cx="32.734" cy="34.88" r="5.429"/>
	<path d="M36.345,41.631c-0.091-0.057-0.186-0.096-0.281-0.135c-0.606-0.404-1.285-0.7-1.978-0.873l-1.352,1.363l-1.312-1.376
		c-0.005,0-0.008,0.001-0.014,0.002c-0.694,0.167-1.377,0.461-1.985,0.863c-0.108,0.044-0.216,0.091-0.32,0.155
		c-4.215,2.585-6.637,4.631-7.384,16.595c-0.073,1.161,0.812,2.163,1.972,2.236c0.047,0.003,0.09,0.004,0.134,0.004
		c1.104,0,2.032-0.859,2.103-1.979c0.252-4.039,0.661-6.657,1.248-8.462v7.306c0,0.565,0.111,1.095,0.304,1.58
		c-0.016,0.109-0.026,0.222-0.026,0.334l0.003,20.187c0,1.377,1.115,2.49,2.491,2.49c1.375,0,2.49-1.114,2.49-2.492l-0.002-17.322
		c0.1,0.005,0.199,0.012,0.298,0.012c0.02,0,0.039-0.002,0.058-0.002V79.43c0,1.378,1.114,2.492,2.491,2.492
		c1.376,0,2.49-1.114,2.49-2.492l0.002-20.06c0.326-0.605,0.517-1.289,0.517-2.039v-7.243c0.577,1.803,0.979,4.407,1.228,8.399
		c0.07,1.119,0.998,1.979,2.102,1.979c0.044,0,0.088-0.001,0.132-0.004c1.163-0.073,2.046-1.075,1.974-2.236
		C42.98,46.262,40.56,44.216,36.345,41.631z M32.747,52.731h-0.026l-1.308-1.791l1.308-8.753h0.026l1.309,8.753L32.747,52.731z"/>
	<circle cx="93.288" cy="34.88" r="5.429"/>
	<path d="M96.898,41.631c-0.092-0.057-0.187-0.096-0.281-0.135c-0.605-0.404-1.286-0.7-1.978-0.873l-1.352,1.363l-1.312-1.376
		c-0.005,0-0.009,0.001-0.014,0.002c-0.694,0.167-1.377,0.461-1.986,0.863c-0.107,0.044-0.215,0.091-0.319,0.155
		c-4.215,2.585-6.636,4.631-7.384,16.595c-0.073,1.161,0.812,2.163,1.973,2.236c0.046,0.003,0.09,0.004,0.134,0.004
		c1.104,0,2.032-0.859,2.103-1.979c0.252-4.039,0.661-6.657,1.248-8.462v7.306c0,0.565,0.11,1.095,0.303,1.58
		c-0.016,0.109-0.025,0.222-0.025,0.334l0.003,20.187c0,1.377,1.114,2.49,2.491,2.49c1.375,0,2.49-1.114,2.49-2.492l-0.002-17.322
		c0.1,0.005,0.2,0.012,0.298,0.012c0.019,0,0.038-0.002,0.057-0.002V79.43c0,1.378,1.115,2.492,2.491,2.492
		c1.376,0,2.491-1.114,2.491-2.492l0.002-20.06c0.325-0.605,0.517-1.289,0.517-2.039v-7.243c0.577,1.803,0.979,4.407,1.229,8.399
		c0.069,1.119,0.998,1.979,2.102,1.979c0.044,0,0.089-0.001,0.132-0.004c1.163-0.073,2.045-1.075,1.974-2.236
		C103.534,46.262,101.112,44.216,96.898,41.631z M93.299,52.731h-0.025l-1.309-1.791l1.309-8.753h0.025l1.31,8.753L93.299,52.731z"
		/>
	<circle cx="64.024" cy="6.517" r="5.429"/>
	<path d="M54.982,32.098c0.046,0.003,0.09,0.004,0.134,0.004c1.104,0,2.032-0.858,2.102-1.976c0.253-4.041,0.663-6.658,1.249-8.463
		v7.304c0,0.567,0.11,1.095,0.303,1.58c-0.015,0.111-0.025,0.224-0.025,0.336l0.003,20.186c0,1.377,1.114,2.49,2.491,2.49
		c1.376,0,2.491-1.115,2.491-2.491l-0.003-17.323c0.1,0.004,0.2,0.014,0.298,0.014c0.019,0,0.039-0.003,0.058-0.003v17.313
		c0,1.376,1.115,2.491,2.49,2.491c1.377,0,2.491-1.115,2.491-2.491l0.002-20.062c0.325-0.604,0.517-1.289,0.517-2.039v-7.242
		c0.577,1.803,0.979,4.407,1.228,8.401c0.07,1.117,0.998,1.976,2.102,1.976c0.044,0,0.089-0.001,0.132-0.004
		c1.163-0.072,2.046-1.074,1.974-2.235c-0.747-11.964-3.168-14.011-7.382-16.595c-0.091-0.057-0.186-0.095-0.281-0.136
		c-0.606-0.403-1.286-0.7-1.979-0.87l-1.352,1.36l-1.311-1.376c-0.006,0-0.009,0.001-0.015,0.002
		c-0.694,0.167-1.377,0.463-1.985,0.865c-0.108,0.043-0.216,0.091-0.32,0.154c-4.215,2.584-6.636,4.631-7.383,16.595
		C52.937,31.023,53.822,32.025,54.982,32.098z M64.011,13.825h0.026l1.309,8.754l-1.309,1.789h-0.026l-1.308-1.789L64.011,13.825z"
		/>
	<path d="M69.453,77.869c0-2.998-2.431-5.428-5.429-5.428c-2.999,0-5.43,2.43-5.43,5.428c0,3.001,2.431,5.43,5.43,5.43
		C67.022,83.299,69.453,80.87,69.453,77.869z"/>
	<path d="M67.635,84.621c-0.091-0.056-0.186-0.096-0.281-0.135c-0.606-0.405-1.286-0.701-1.979-0.872l-1.352,1.362L62.713,83.6
		c-0.006,0-0.009,0.002-0.015,0.004c-0.694,0.165-1.377,0.46-1.985,0.862c-0.108,0.044-0.216,0.092-0.32,0.155
		c-4.215,2.586-6.636,4.631-7.383,16.594c-0.073,1.163,0.812,2.164,1.972,2.236c0.046,0.004,0.09,0.004,0.134,0.004
		c1.104,0,2.032-0.857,2.102-1.978c0.253-4.038,0.663-6.656,1.249-8.462v7.304c0,0.568,0.11,1.097,0.303,1.583
		c-0.015,0.109-0.025,0.221-0.025,0.333l0.003,20.187c0,1.378,1.114,2.49,2.491,2.49c1.376,0,2.491-1.115,2.491-2.491l-0.003-17.322
		c0.1,0.004,0.2,0.012,0.298,0.012c0.019,0,0.039-0.003,0.058-0.003v17.313c0,1.376,1.115,2.491,2.49,2.491
		c1.377,0,2.491-1.115,2.491-2.491l0.002-20.06c0.325-0.607,0.517-1.29,0.517-2.042v-7.241c0.577,1.803,0.979,4.406,1.228,8.399
		c0.07,1.12,0.998,1.978,2.102,1.978c0.044,0,0.089,0,0.132-0.004c1.163-0.072,2.046-1.073,1.974-2.236
		C74.271,89.252,71.849,87.207,67.635,84.621z M64.037,95.723h-0.026l-1.308-1.791l1.308-8.754h0.026l1.309,8.754L64.037,95.723z"/>
	<path d="M64.666,59.673v-5.187h-1.327v5.187c-1.194,0.241-2.158,1.125-2.517,2.273h-11.16v1.327h11.026
		c0.147,1.46,1.238,2.643,2.65,2.929v4.931h1.327v-4.931c1.414-0.286,2.503-1.469,2.651-2.929h11.047v-1.327H67.184
		C66.825,60.798,65.861,59.914,64.666,59.673z M64.002,64.769c-1.104,0-2.003-0.898-2.003-2.004c0-1.104,0.899-2.003,2.003-2.003
		c1.106,0,2.004,0.898,2.004,2.003C66.006,63.87,65.108,64.769,64.002,64.769z"/>
</g>
</svg>
