<?xml version="1.0" encoding="utf-8"?>
<!-- Generator: Adobe Illustrator 16.0.0, SVG Export Plug-In . SVG Version: 6.00 Build 0)  -->
<!DOCTYPE svg PUBLIC "-//W3C//DTD SVG 1.1//EN" "http://www.w3.org/Graphics/SVG/1.1/DTD/svg11.dtd">
<svg version="1.1" id="Layer_11" xmlns="http://www.w3.org/2000/svg" xmlns:xlink="http://www.w3.org/1999/xlink" x="0px" y="0px"
	 width="100px" height="100px" viewBox="0 0 100 100" enable-background="new 0 0 100 100" xml:space="preserve">
<path d="M35.49,29.17v15.304h30.725V27.234c2.908-2.626,4.566-6.339,4.566-10.271c0-7.631-6.209-13.839-13.84-13.839
	c-5.4,0-10.332,3.197-12.572,8.053c-0.637-0.12-1.285-0.182-1.936-0.182c-5.742,0-10.414,4.673-10.414,10.416
	C32.02,24.396,33.277,27.192,35.49,29.17z M42.434,13.278c0.775,0,1.547,0.111,2.293,0.33l1.018,0.299l0.373-0.994
	c1.68-4.489,6.031-7.506,10.824-7.506c6.373,0,11.557,5.184,11.557,11.556c0,3.435-1.516,6.669-4.156,8.875l-0.41,0.342V42.19
	H37.773V28.095l-0.428-0.343c-1.934-1.554-3.043-3.865-3.043-6.341C34.303,16.927,37.949,13.278,42.434,13.278z M55.557,60.033
	h-1.383c6.492-1.486,11.34-7.285,11.34-14.228H36.297c0,6.942,4.848,12.741,11.338,14.228h-3.193c-2.416,0-4.76,0.475-6.969,1.411
	c-6.65,2.818-10.947,9.297-10.947,16.507V91.55l0.16,1.092l1.613,0.503c7.924,2.476,15.713,3.731,23.148,3.731
	c12.402,0,19.646-3.467,20.436-3.864l0.631-0.32h0.961v-14.74C73.475,68.071,65.438,60.033,55.557,60.033z M47.734,94.474
	c-6.074-0.344-12.363-1.512-18.756-3.508l-0.17-0.054V77.951c0-6.291,3.75-11.945,9.555-14.405c1.926-0.815,3.971-1.229,6.078-1.229
	h3.293V94.474z M71.191,90.802l-0.34,0.173c-0.293,0.148-7.326,3.618-19.404,3.618c-0.479,0-0.965-0.02-1.447-0.03V62.316h5.557
	c8.621,0,15.635,7.014,15.635,15.635V90.802z M54.203,67.475c0,0.788-0.641,1.427-1.428,1.427s-1.426-0.639-1.426-1.427
	s0.639-1.427,1.426-1.427S54.203,66.687,54.203,67.475z M54.203,74.931c0,0.788-0.641,1.427-1.428,1.427s-1.426-0.639-1.426-1.427
	s0.639-1.427,1.426-1.427S54.203,74.143,54.203,74.931z M54.203,82.22c0,0.788-0.641,1.427-1.428,1.427s-1.426-0.639-1.426-1.427
	s0.639-1.427,1.426-1.427S54.203,81.432,54.203,82.22z"/>
</svg>
