<?xml version="1.0" encoding="iso-8859-1"?>
<!-- Generator: Adobe Illustrator 17.1.0, SVG Export Plug-In . SVG Version: 6.00 Build 0)  -->
<!DOCTYPE svg PUBLIC "-//W3C//DTD SVG 1.1//EN" "http://www.w3.org/Graphics/SVG/1.1/DTD/svg11.dtd">
<svg version="1.1" id="Layer_1" xmlns="http://www.w3.org/2000/svg" xmlns:xlink="http://www.w3.org/1999/xlink" x="0px" y="0px"
	 viewBox="0 0 128 128" style="enable-background:new 0 0 128 128;" xml:space="preserve">
<g>
	<path d="M109.651,55.231h-0.736c-0.2,0-0.361,0.162-0.361,0.361c0,0,0,12.757,0,26.459c0.767-1.014,1.51-2.04,2.227-3.076
		c-0.476-0.594-0.763-1.347-0.764-2.168c-0.001-0.001-0.005-21.216-0.005-21.216C110.012,55.392,109.85,55.231,109.651,55.231z"/>
	<path d="M99.223,79.731H98.5c-0.252,0-0.37,0.107-0.37,0.362c0,0,0,6.317,0,13.585c0.493-0.466,0.98-0.937,1.463-1.414
		c0-6.654,0-12.171,0-12.171C99.593,79.838,99.475,79.731,99.223,79.731z"/>
	<path d="M29.263,79.731h-0.722c-0.252,0-0.37,0.107-0.37,0.362c0,0,0,5.388,0,11.936c0.483,0.48,0.97,0.955,1.463,1.424
		c0-7.173,0-13.36,0-13.36C29.633,79.838,29.515,79.731,29.263,79.731z"/>
	<path d="M113.629,22.533c-21.556-19.76-46.048,4.058-49.196,7.298c-0.188,0.193-0.378,0.353-0.433,0.355
		c-0.055-0.003-0.246-0.162-0.433-0.355c-3.148-3.24-27.64-27.058-49.196-7.298C2.204,34.118,2.856,51.47,10.797,67.996
		c0-6.829,0-15.163,0-15.33c0-4.755,3.657-8.412,8.229-8.412c0.116,0,10.607,0,10.607,0c2.882,0,9.027,0,9.143,0
		c4.572,0,8.229,3.657,8.229,8.412c0,0.284,0,24.128,0,24.139c0,1.919-1.556,3.474-3.475,3.474c-1.918,0-3.473-1.554-3.474-3.472
		c-0.001-0.001-0.005-21.216-0.005-21.216c0-0.2-0.162-0.361-0.361-0.361h-0.736c-0.2,0-0.361,0.162-0.361,0.361
		c0,0,0,27.778,0,45.382c5.948,4.374,12.344,7.927,18.892,10.304c0.001-10.407,0.003-33.479,0.003-33.479
		c0-0.129-0.118-0.234-0.247-0.234h-0.972c-0.129,0-0.231,0.105-0.231,0.234l0.003,13.673c-0.001,1.241-1.015,2.193-2.256,2.193
		c-1.242,0-2.266-0.953-2.266-2.194c0-0.007,0-15.438,0-15.622c0-3.077,2.879-5.519,5.838-5.519c0.075,0,13.196,0,13.272,0
		c2.959,0,5.851,2.441,5.851,5.519c0,0.184,0,15.615,0,15.622c0,1.242-1.012,2.194-2.254,2.194c-1.241,0-2.268-0.952-2.269-2.193
		c-0.001,0,0.004-13.673,0.004-13.673c0-0.129-0.101-0.234-0.23-0.234h-0.987c-0.129,0-0.234,0.105-0.234,0.234
		c0,0,0,23.075,0,33.481c6.462-2.345,12.777-5.836,18.66-10.131c0-17.594,0-45.557,0-45.557c0-0.2-0.162-0.361-0.361-0.361h-0.736
		c-0.2,0-0.361,0.162-0.361,0.361c0,0-0.003,21.215-0.005,21.216c-0.001,1.918-1.556,3.472-3.474,3.472
		c-1.919,0-3.474-1.556-3.474-3.474c0-0.011,0-23.855,0-24.139c0-4.755,3.657-8.412,8.229-8.412c0.116,0,10.606,0,10.606,0
		c2.882,0,9.027,0,9.144,0c4.572,0,8.229,3.657,8.229,8.412c0,0.171,0,8.905,0,15.818C125.129,51.812,125.916,34.232,113.629,22.533
		z M35.433,36.924c-0.133,0.651-0.361,1.267-0.669,1.834s-0.696,1.084-1.148,1.536c-0.151,0.151-0.309,0.294-0.474,0.43
		c-1.152,0.951-2.63,1.522-4.241,1.522c-0.46,0-0.91-0.047-1.344-0.135c-0.651-0.133-1.267-0.361-1.834-0.669
		c-0.567-0.308-1.084-0.696-1.536-1.148c-0.453-0.452-0.84-0.97-1.148-1.536c-0.308-0.567-0.536-1.183-0.669-1.834
		c-0.089-0.434-0.135-0.883-0.135-1.344c0-0.69,0.105-1.356,0.3-1.983c0.065-0.209,0.14-0.413,0.224-0.613
		c0.253-0.598,0.591-1.152,0.999-1.646c0.136-0.165,0.28-0.323,0.43-0.473c0.452-0.452,0.97-0.84,1.536-1.148
		c0.567-0.308,1.183-0.536,1.834-0.669c0.434-0.089,0.883-0.135,1.344-0.135c1.611,0,3.089,0.571,4.241,1.522
		c0.165,0.136,0.323,0.279,0.474,0.43s0.294,0.309,0.43,0.473c0.408,0.494,0.745,1.048,0.999,1.646
		c0.084,0.199,0.159,0.404,0.224,0.613c0.195,0.626,0.3,1.292,0.3,1.983C35.569,36.041,35.522,36.49,35.433,36.924z M63.999,69.618
		c-2.579,0-4.67-2.091-4.67-4.67c0-1.792,1.01-3.347,2.491-4.13l1.454-2.448v1.965c0.18-0.028,0.363-0.045,0.549-0.052l1.148-1.913
		v2.011c0.143,0.03,0.283,0.066,0.42,0.109l1.259-2.12v2.734c1.22,0.843,2.019,2.25,2.019,3.844
		C68.669,67.527,66.578,69.618,63.999,69.618z M105.393,36.924c-0.133,0.651-0.361,1.267-0.669,1.834s-0.696,1.084-1.148,1.536
		c-1.207,1.207-2.873,1.953-4.714,1.953c-0.46,0-0.91-0.047-1.344-0.135c-0.651-0.133-1.267-0.361-1.834-0.669
		c-0.567-0.308-1.084-0.696-1.536-1.148c-0.452-0.452-0.84-0.97-1.148-1.536c-0.308-0.567-0.536-1.183-0.669-1.834
		c-0.089-0.434-0.135-0.883-0.135-1.344c0-0.69,0.105-1.356,0.3-1.983c0.065-0.209,0.14-0.413,0.224-0.613
		c0.253-0.598,0.591-1.152,0.999-1.646c0.136-0.165,0.279-0.323,0.43-0.473c0.452-0.452,0.97-0.84,1.536-1.148
		c0.567-0.308,1.183-0.536,1.834-0.669c0.434-0.089,0.883-0.135,1.344-0.135c1.841,0,3.508,0.746,4.714,1.953
		c0.151,0.151,0.294,0.309,0.43,0.473c0.408,0.494,0.745,1.048,0.999,1.646c0.084,0.199,0.159,0.404,0.224,0.613
		c0.195,0.626,0.3,1.292,0.3,1.983C105.528,36.041,105.482,36.49,105.393,36.924z"/>
	<path d="M64.471,93.303h-0.957c-0.163,0-0.24,0.069-0.24,0.234c0,0,0,2.88,0,6.459c-0.003,0.014-0.009,0.027-0.009,0.042
		l-0.001,13.015c0.003,0.001,0.006,0.002,0.009,0.002c0,0,0,0,0,0c0.235,0.059,0.47,0.118,0.706,0.174h0.041
		c0.235-0.055,0.469-0.114,0.704-0.173c-0.001-3.373-0.003-19.519-0.003-19.519C64.721,93.372,64.634,93.303,64.471,93.303z"/>
	<path d="M19.209,55.592c0-0.2-0.162-0.361-0.361-0.361h-0.736c-0.2,0-0.361,0.162-0.361,0.361c0,0-0.003,21.215-0.005,21.216
		c0,0.747-0.239,1.437-0.64,2.003c0.679,0.985,1.379,1.962,2.103,2.928C19.209,68.155,19.209,55.592,19.209,55.592z"/>
	<path d="M64.733,113.053l-0.001-13.015c0-0.014-0.007-0.026-0.01-0.04c0,0.013,0,0.027,0,0.04
		c0.001,4.261,0.002,9.645,0.002,13.018C64.728,113.055,64.73,113.054,64.733,113.053z"/>
</g>
</svg>
