<?xml version="1.0" encoding="utf-8"?>
<!-- Generator: Adobe Illustrator 16.0.0, SVG Export Plug-In . SVG Version: 6.00 Build 0)  -->
<!DOCTYPE svg PUBLIC "-//W3C//DTD SVG 1.1//EN" "http://www.w3.org/Graphics/SVG/1.1/DTD/svg11.dtd">
<svg version="1.1" id="Layer_2" xmlns="http://www.w3.org/2000/svg" xmlns:xlink="http://www.w3.org/1999/xlink" x="0px" y="0px"
	 width="126px" height="126px" viewBox="0 0 126 126" enable-background="new 0 0 126 126" xml:space="preserve">
<g>
	<circle cx="111.898" cy="38.544" r="6.45"/>
	<path d="M116.188,46.564c-0.108-0.065-0.222-0.113-0.334-0.162c-0.719-0.48-1.526-0.832-2.35-1.035l-1.606,1.618l-1.559-1.636
		c-0.005,0.002-0.011,0.002-0.015,0.002c-0.84,0.204-1.663,0.562-2.394,1.054c-0.112,0.048-0.223,0.094-0.33,0.159
		c-1.421,0.872-4.14,2.545-6.073,5.295c-2.112-4.301-6.142-6.776-8.071-7.957c-0.122-0.076-0.252-0.132-0.381-0.186
		c-0.82-0.547-1.74-0.95-2.678-1.181l-1.833,1.847l-1.777-1.865c-0.006,0.002-0.012,0.002-0.019,0.002
		c-0.957,0.229-1.896,0.64-2.73,1.201c-0.125,0.053-0.253,0.107-0.375,0.182c-1.351,0.827-3.736,2.291-5.77,4.572
		c-2.614-4.221-6.699-6.736-8.759-7.999c-0.146-0.09-0.3-0.153-0.452-0.219c-0.97-0.647-2.059-1.122-3.168-1.396l-2.167,2.184
		l-2.103-2.208c-0.006,0.002-0.014,0.002-0.021,0.004c-1.133,0.271-2.244,0.759-3.23,1.42c-0.149,0.065-0.301,0.127-0.444,0.215
		c-2.061,1.265-6.152,3.78-8.765,8.009c-2.036-2.287-4.425-3.752-5.778-4.582c-0.124-0.076-0.253-0.132-0.382-0.186
		c-0.819-0.547-1.74-0.95-2.678-1.181l-1.831,1.847l-1.778-1.865c-0.006,0.002-0.012,0.002-0.018,0.002
		c-0.958,0.229-1.897,0.64-2.73,1.201c-0.127,0.053-0.254,0.107-0.376,0.182c-2.016,1.236-6.329,3.883-8.345,8.555
		c-1.938-3.107-4.951-4.96-6.471-5.893c-0.108-0.065-0.221-0.113-0.334-0.162c-0.719-0.48-1.526-0.832-2.349-1.035l-1.606,1.618
		l-1.557-1.636c-0.006,0.002-0.012,0.002-0.017,0.002c-0.84,0.204-1.662,0.562-2.394,1.054c-0.111,0.048-0.222,0.094-0.33,0.159
		c-3.166,1.941-12.801,7.853-5.738,20.837c0.455,0.834,1.315,1.307,2.203,1.307c0.403,0,0.813-0.097,1.194-0.304
		c0.132-0.073,0.254-0.158,0.368-0.25l0.002,23.307c0,1.637,1.324,2.96,2.959,2.96c1.634,0,2.958-1.326,2.958-2.96l-0.002-20.574
		c0.118,0.005,0.235,0.014,0.353,0.014c0.023,0,0.046-0.002,0.07-0.002l-0.001,20.563c0,1.634,1.324,2.96,2.958,2.96
		c1.635,0,2.959-1.326,2.959-2.96l0.001-23.563c0.181,0.194,0.396,0.369,0.643,0.506c0.38,0.207,0.791,0.304,1.195,0.304
		c0.888,0,1.748-0.473,2.201-1.307c0.476-0.876,0.87-1.715,1.202-2.525c0.369,0.896,0.81,1.824,1.333,2.787
		c0.518,0.952,1.498,1.492,2.511,1.492c0.46,0,0.929-0.113,1.363-0.35c0.151-0.081,0.288-0.177,0.419-0.282l0.002,26.583
		c0,1.864,1.511,3.373,3.375,3.373c1.864,0,3.374-1.509,3.374-3.375l-0.001-23.464c0.133,0.004,0.266,0.016,0.402,0.016
		c0.025,0,0.051-0.004,0.078-0.004v23.452c0,1.866,1.51,3.375,3.374,3.375c0.001,0,0.001,0,0.001,0c1.863,0,3.374-1.509,3.374-3.375
		l0.001-26.873c0.206,0.225,0.451,0.421,0.735,0.574c0.434,0.236,0.9,0.35,1.362,0.35c0.941,0,1.852-0.472,2.392-1.305
		c0.125,0.245,0.243,0.485,0.377,0.736c0.613,1.125,1.773,1.763,2.971,1.763c0.545,0,1.099-0.131,1.611-0.41
		c0.18-0.096,0.343-0.211,0.497-0.334l0.002,31.447c0,2.206,1.788,3.992,3.993,3.992c2.205,0,3.992-1.786,3.991-3.992l-0.001-27.764
		c0.159,0.01,0.316,0.02,0.476,0.02c0.032,0,0.062-0.002,0.094-0.002l-0.002,27.746c0,2.206,1.788,3.992,3.993,3.992l0,0
		c2.205,0,3.993-1.786,3.993-3.992l0.001-31.793c0.246,0.265,0.534,0.498,0.87,0.68c0.512,0.279,1.064,0.41,1.61,0.41
		c1.198,0,2.358-0.638,2.971-1.763c0.134-0.246,0.247-0.482,0.372-0.725c0.541,0.825,1.446,1.293,2.385,1.293
		c0.459,0,0.928-0.113,1.362-0.35c0.151-0.081,0.291-0.177,0.42-0.282l0.001,26.583c0.001,1.864,1.511,3.373,3.375,3.373
		c1.863,0,3.374-1.509,3.374-3.375l-0.001-23.464c0.133,0.004,0.267,0.016,0.402,0.016c0.026,0,0.053-0.004,0.079-0.004v23.452
		c0,1.866,1.511,3.375,3.373,3.375h0.001c1.863,0,3.374-1.509,3.374-3.375l0.001-26.873c0.208,0.225,0.452,0.421,0.735,0.574
		c0.434,0.236,0.901,0.35,1.362,0.35c1.013,0,1.993-0.54,2.511-1.492c0.376-0.692,0.699-1.363,0.996-2.021
		c0.258,0.572,0.539,1.155,0.867,1.759c0.454,0.834,1.313,1.307,2.202,1.307c0.403,0,0.814-0.097,1.194-0.304
		c0.132-0.073,0.253-0.158,0.368-0.25l0.001,23.307c0.001,1.637,1.326,2.96,2.96,2.96c1.634,0,2.958-1.326,2.958-2.96l-0.001-20.574
		c0.118,0.005,0.234,0.014,0.353,0.014c0.023,0,0.045-0.002,0.068-0.002l-0.001,20.563c0,1.634,1.325,2.96,2.96,2.96
		c1.633,0,2.959-1.326,2.959-2.96V67.898c0.181,0.194,0.396,0.369,0.644,0.506c0.38,0.207,0.791,0.304,1.195,0.304
		c0.887,0,1.747-0.473,2.202-1.307C128.989,54.417,119.354,48.506,116.188,46.564z M7.508,62.982c-1.366-3.357-1.097-5.808,0-7.714
		V62.982z M14.125,59.75h-0.031l-1.555-2.127l1.555-10.397h0.031l1.555,10.397L14.125,59.75z M20.711,62.965v-7.682
		C21.799,57.181,22.066,59.623,20.711,62.965z M30.587,62.624c-1.561-3.831-1.252-6.622,0-8.795V62.624z M38.132,58.938h-0.035
		l-1.772-2.426l1.772-11.855h0.035l1.774,11.855L38.132,58.938z M45.644,62.604v-8.763c0.343,0.599,0.61,1.248,0.792,1.949
		c-0.073,1.115-0.031,2.301,0.14,3.558C46.423,60.344,46.122,61.426,45.644,62.604z M54.443,62.627
		c-1.846-4.532-1.481-7.835,0-10.408V62.627z M63.369,58.265h-0.041l-2.099-2.872l2.099-14.026h0.041l2.098,14.026L63.369,58.265z
		 M72.254,62.603V52.237C73.724,54.801,74.084,58.095,72.254,62.603z M81.038,62.624c-0.476-1.171-0.776-2.243-0.93-3.231
		c0.177-1.287,0.217-2.5,0.141-3.642c0.181-0.69,0.45-1.33,0.79-1.922V62.624z M88.584,58.938h-0.035l-1.773-2.426l1.773-11.855
		h0.035l1.773,11.855L88.584,58.938z M96.094,62.604v-8.763C97.337,56.011,97.642,58.793,96.094,62.604z M105.297,62.982
		c-1.367-3.357-1.096-5.808,0-7.714V62.982z M111.914,59.75h-0.031l-1.556-2.127l1.556-10.397h0.031l1.555,10.397L111.914,59.75z
		 M118.499,62.965v-7.682C119.589,57.181,119.856,59.623,118.499,62.965z"/>
	<circle cx="14.109" cy="38.544" r="6.45"/>
	<circle cx="63.349" cy="29.656" r="8.701"/>
	<circle cx="88.566" cy="34.756" r="7.355"/>
	<circle cx="38.115" cy="34.756" r="7.355"/>
</g>
</svg>
