<?xml version="1.0" encoding="iso-8859-1"?>
<!-- Generator: Adobe Illustrator 17.1.0, SVG Export Plug-In . SVG Version: 6.00 Build 0)  -->
<!DOCTYPE svg PUBLIC "-//W3C//DTD SVG 1.1//EN" "http://www.w3.org/Graphics/SVG/1.1/DTD/svg11.dtd">
<svg version="1.1" id="Layer_1" xmlns="http://www.w3.org/2000/svg" xmlns:xlink="http://www.w3.org/1999/xlink" x="0px" y="0px"
	 viewBox="0 0 128 128" style="enable-background:new 0 0 128 128;" xml:space="preserve">
<g>
	<path d="M122.968,38.614c0.001-5.592-4.3-9.892-9.676-9.892c-0.137,0-7.363,0-10.752,0c0,0-12.335,0-12.472,0
		c-5.376,0-8.997,4.139-9.677,9.892c-0.032,0.27-2.345,16.371-3.223,22.39l-5.068,9.136c-0.237,0.41-0.506,0.571-1.007,0.571H56.781
		c-0.234,0-0.519-0.165-0.636-0.368c0,0-4.242-7.432-5.29-9.269c-0.915-6.267-3.212-22.194-3.246-22.459
		c-0.724-5.674-4.301-9.892-9.677-9.892c-0.137,0-12.472,0-12.472,0c-3.389,0-10.615,0-10.752,0c-5.376,0-9.677,4.301-9.677,9.892
		c0,0.334,0,28.372,0,28.385c0,2.256,1.829,4.086,4.085,4.086c2.255,0,4.084-1.828,4.086-4.083
		c0.002-0.001,0.005-24.947,0.005-24.947c0-0.235,0.19-0.425,0.425-0.425h0.865c0.234,0,0.425,0.19,0.425,0.425
		c0,0,0,69.986,0,69.994c0,2.91,2.359,5.268,5.268,5.268c2.91,0,5.268-2.359,5.268-5.268c0-0.008,0-41.184,0-41.184
		c0-0.3,0.139-0.426,0.435-0.426h0.849c0.296,0,0.435,0.125,0.435,0.426c0,0,0,41.176,0,41.184c0,2.91,2.359,5.268,5.268,5.268
		s5.268-2.359,5.268-5.268c0-0.008,0-69.994,0-69.994c0-0.235,0.19-0.425,0.425-0.425h0.865c0.235,0,0.425,0.19,0.425,0.425
		c0,0,2.99,17.809,3.539,21.075c0.014,0.112,0.082,0.431,0.159,0.724c0.121,0.376,0.296,0.728,0.507,1.051l9.234,15.98
		c0.117,0.203,0.213,0.558,0.213,0.793v30.682c0.041,2.549,2.26,4.958,5.054,4.958c2.794,0,5.312-2.395,5.353-4.944l0.002-12.847
		c0-0.235,0.19-0.425,0.425-0.425h0.637c0.234,0,0.425,0.19,0.425,0.425l0.005,12.914c0.041,2.549,2.07,4.877,4.864,4.877
		c2.638,0,4.806-2.212,5.073-4.605c0.026-0.233,0.041-30.536,0.041-30.536s0.093-0.591,0.207-0.796c0,0,6.415-11.485,8.619-15.428
		c0.44-0.788,0.713-1.276,0.732-1.31c0.204-0.361,0.35-0.751,0.438-1.154c0.007-0.001,0.022-0.074,0.056-0.242
		c0.002-0.001,3.555-21.191,3.555-21.191c0-0.235,0.19-0.425,0.425-0.425h0.865c0.235,0,0.425,0.19,0.425,0.425
		c0,0,0,69.986,0,69.994c0,2.91,2.359,5.268,5.268,5.268c2.909,0,5.268-2.359,5.268-5.268c0-0.008,0-41.184,0-41.184
		c0-0.3,0.139-0.426,0.435-0.426h0.849c0.296,0,0.435,0.125,0.435,0.426c0,0,0,41.176,0,41.184c0,2.91,2.359,5.268,5.268,5.268
		s5.268-2.359,5.268-5.268c0-0.008,0-69.994,0-69.994c0-0.235,0.19-0.425,0.425-0.425h0.865c0.235,0,0.425,0.19,0.425,0.425
		c0,0,0.004,24.946,0.005,24.947c0.002,2.255,1.83,4.083,4.086,4.083c2.256,0,4.085-1.829,4.085-4.086
		C122.968,66.986,122.968,38.948,122.968,38.614z"/>
	<circle cx="101.284" cy="18.523" r="7.84"/>
	<circle cx="26.303" cy="18.523" r="7.84"/>
	<path d="M61.346,57.509c-1.804,0.954-3.034,2.848-3.034,5.031c0,3.141,2.547,5.688,5.688,5.688c3.141,0,5.688-2.547,5.688-5.688
		c0-1.942-0.974-3.656-2.46-4.683v-3.331l-1.533,2.582c-0.167-0.052-0.339-0.096-0.512-0.133v-2.449l-1.398,2.331
		c-0.226,0.008-0.45,0.029-0.668,0.063v-2.394L61.346,57.509z"/>
</g>
</svg>
