<?xml version="1.0" encoding="utf-8"?>
<!-- Generator: Adobe Illustrator 16.0.0, SVG Export Plug-In . SVG Version: 6.00 Build 0)  -->
<!DOCTYPE svg PUBLIC "-//W3C//DTD SVG 1.1//EN" "http://www.w3.org/Graphics/SVG/1.1/DTD/svg11.dtd">
<svg version="1.1" id="Layer_1" xmlns="http://www.w3.org/2000/svg" xmlns:xlink="http://www.w3.org/1999/xlink" x="0px" y="0px"
	 width="50px" height="50px" viewBox="0 0 50 50" enable-background="new 0 0 50 50" xml:space="preserve">
<g>
	<polygon points="37.54,27.309 37.542,27.307 37.538,27.307 	"/>
	<path d="M38.921,21.653c1.012-0.682,1.71-2.025,1.71-3.234c0-1.707-1.384-3.091-3.091-3.091c-1.22,0-2.272,0.708-2.774,1.735
		c0.201,0.249,0.326,0.562,0.326,0.906v2.546c0.285,0.454,0.646,0.855,1.067,1.138c-0.373,0.094-0.728,0.229-1.067,0.385v2.185
		c0,0.799-0.649,1.448-1.449,1.448h-0.999l0.577,0.577v0.596c1.076,0.309,2.696,0.463,4.316,0.463l-1.566-1.566l1.32-3.19h-0.014
		l-0.513-0.587c0.249,0.089,0.507,0.142,0.775,0.142c0.268,0,0.526-0.053,0.773-0.142l-0.512,0.587h-0.013l1.32,3.19l-1.566,1.566
		c2.797,0.001,5.595-0.458,5.595-1.379C43.137,24.37,41.343,22.268,38.921,21.653z"/>
	<path d="M30.281,23.173c0,0.675-0.141,1.369-0.39,2.031h3.752c0.541,0,0.982-0.441,0.982-0.981V17.97
		c0-0.541-0.441-0.982-0.982-0.982h-9.39c-0.54,0-0.982,0.441-0.982,0.982v0.695c0.63-0.288,1.323-0.452,2.05-0.452
		C28.056,18.213,30.281,20.438,30.281,23.173z"/>
	<path d="M29.505,26.04c-0.153,0.281-0.33,0.548-0.52,0.802h3.769v-0.399l-0.4-0.402H29.505z"/>
	<polygon points="25.321,34.672 25.322,34.67 25.319,34.67 	"/>
	<path d="M27.107,27.356c1.31-0.882,2.212-2.619,2.212-4.184c0-2.208-1.791-3.999-3.998-3.999c-1.579,0-2.94,0.916-3.59,2.244
		c0.26,0.323,0.423,0.728,0.423,1.173v3.293c0.368,0.588,0.836,1.106,1.38,1.473c-0.482,0.122-0.941,0.295-1.38,0.499v2.824
		c0,1.033-0.84,1.874-1.875,1.874h-1.292l0.746,0.746v0.771c1.392,0.4,3.488,0.599,5.584,0.6l-2.027-2.026L25,28.516h-0.018
		l-0.663-0.76c0.322,0.115,0.656,0.184,1.003,0.184c0.346,0,0.68-0.068,1-0.183l-0.662,0.759h-0.017l1.708,4.128l-2.027,2.026
		c3.62,0.001,7.239-0.593,7.239-1.784C32.561,30.871,30.24,28.15,27.107,27.356z"/>
	<path d="M14.725,33.031v-1.082h5.555c0.699,0,1.271-0.571,1.271-1.27v-8.089c0-0.7-0.572-1.271-1.271-1.271H8.133
		c-0.699,0-1.27,0.57-1.27,1.271v8.089c0,0.698,0.571,1.27,1.27,1.27h5.555v1.082H9.802l-0.518,0.52v0.517h9.846v-0.517l-0.518-0.52
		H14.725z"/>
</g>
</svg>
