<?xml version="1.0" encoding="utf-8"?>
<!-- Generator: Adobe Illustrator 16.0.0, SVG Export Plug-In . SVG Version: 6.00 Build 0)  -->
<!DOCTYPE svg PUBLIC "-//W3C//DTD SVG 1.1//EN" "http://www.w3.org/Graphics/SVG/1.1/DTD/svg11.dtd">
<svg version="1.1" id="Layer_1" xmlns="http://www.w3.org/2000/svg" xmlns:xlink="http://www.w3.org/1999/xlink" x="0px" y="0px"
	 width="126px" height="126px" viewBox="0 0 126 126" enable-background="new 0 0 126 126" xml:space="preserve">
<g>
	<path d="M58.908,34.313c-0.128-0.481-0.537-0.971-1.168-0.971c-0.207,0-0.416,0.055-0.598,0.149l-4.383,2.026
		c-0.226,0.096-0.695,0.297-0.857,0.774c-0.068,0.205-0.101,0.537,0.112,0.904l1.145,2.336l-3.568,0.003v-2.018
		c0-0.833-0.555-1.055-0.88-1.055c-0.436,0-0.808,0.324-0.984,0.511l-5.759,5.923c-0.072,0.064-0.434,0.4-0.455,0.917
		c-0.009,0.229,0.048,0.57,0.373,0.895c0.569,0.57,5.986,5.813,5.986,5.813c0.138,0.141,0.511,0.468,0.956,0.468
		c0.097,0,0.938-0.033,0.938-1.186v-1.812h8.801c0.091,0,0.331-0.018,0.565-0.176c0.171-0.118,0.463-0.395,0.461-0.901
		c0.031-0.238,0.421-1.484,0.732-2.484c0.573-1.833,0.858-2.783,0.965-3.305h0.015v-0.081c0.024-0.13,0.035-0.23,0.035-0.31
		c0-0.349-0.093-0.612-0.237-0.808L58.908,34.313z"/>
	<path d="M37.765,24.165l3.937,2.799c0.259,0.193,0.548,0.375,0.906,0.375c0.224,0,0.642-0.079,0.923-0.567l1.449-2.139l1.726,3.014
		l-1.752,1.004c-0.581,0.332-0.614,0.759-0.583,0.984c0.084,0.609,0.761,0.837,1.04,0.903l8,2.053
		c0.05,0.018,0.229,0.074,0.457,0.074c0.563,0,1.005-0.344,1.159-0.903c0.209-0.777,2.071-8.079,2.071-8.079
		c0.058-0.217,0.163-0.765-0.142-1.162c-0.295-0.393-0.827-0.472-1.428-0.127l-1.57,0.901l-4.363-7.614
		c-0.127-0.246-0.439-0.53-0.891-0.53c-0.202,0-0.406,0.059-0.563,0.15c-0.222,0.09-1.485,0.371-2.501,0.595
		c-2.511,0.555-3.401,0.772-3.73,0.963c-0.332,0.188-0.496,0.406-0.582,0.605l-3.721,4.76c-0.079,0.076-0.465,0.485-0.413,1.049
		C37.221,23.527,37.344,23.889,37.765,24.165z M53.867,31.294l-0.003,0.685l-0.051-0.671C53.831,31.299,53.851,31.294,53.867,31.294
		z"/>
	<path d="M38.065,27.99c-0.158-0.571-0.823-1.13-1.603-0.849c-0.754,0.27-7.812,2.93-7.812,2.93c-0.206,0.072-0.879,0.361-0.912,1
		c-0.015,0.296,0.103,0.712,0.756,1.021l1.637,0.773l-3.745,7.938c-0.046,0.088-0.182,0.402-0.052,0.78
		c0.067,0.197,0.229,0.47,0.574,0.628c0.202,0.13,1.157,1.009,1.926,1.715c1.75,1.61,2.556,2.332,2.918,2.506
		c0.22,0.103,0.423,0.152,0.621,0.152c0.09,0,0.168-0.021,0.248-0.041l5.884,0.422l0.257,0.022c0.365,0,0.688-0.128,0.912-0.36
		c0.16-0.164,0.347-0.46,0.329-0.906l0.042-4.826c0.009-0.257,0.026-0.731-0.309-1.079c-0.141-0.145-0.438-0.344-0.895-0.313
		l-2.509,0.035l1.52-3.219l1.825,0.861c0.199,0.095,0.38,0.139,0.551,0.139c0.294,0,0.551-0.133,0.711-0.366
		c0.279-0.408,0.134-0.949,0.024-1.227L38.065,27.99z M38.763,45.624v0.68l-0.077-0.624C38.708,45.654,38.735,45.633,38.763,45.624z
		"/>
	<path d="M104.755,26.901c-0.146-0.088-0.301-0.147-0.453-0.218c-1.235-0.811-2.619-1.407-4.028-1.754l-2.81,2.829l-2.724-2.86
		c-0.009,0.003-0.019,0.003-0.028,0.007c-1.35,0.322-2.675,0.882-3.875,1.636c-0.3,0.09-0.595,0.209-0.879,0.369
		c-1.746,0.982-3.408,1.173-5.226,0.607c-2.028-0.633-4.006-2.104-5.806-3.894V7.655c0-3.511-2.856-6.366-6.366-6.366H17.304
		c-3.509,0-6.364,2.855-6.364,6.366v50.647c0,3.511,2.855,6.366,6.364,6.366h55.257c3.51,0,6.366-2.855,6.366-6.366V34.517
		c1.021,0.546,2.08,1.01,3.179,1.354c1.269,0.397,2.544,0.619,3.815,0.685v23.072c0,1.193,0.234,2.303,0.644,3.322
		c-0.029,0.218-0.067,0.433-0.067,0.66l0.003,41.926c0.001,2.857,2.317,5.174,5.176,5.174c2.857,0,5.174-2.316,5.174-5.174
		l-0.003-35.982c0.205,0.011,0.41,0.026,0.616,0.026c0.041,0,0.081-0.005,0.122-0.007l-0.001,35.963
		c0,2.857,2.316,5.174,5.173,5.174c0.001,0,0.001,0,0.001,0c2.857,0,5.174-2.316,5.174-5.174l0.001-41.132
		c0.273,0.261,0.569,0.5,0.915,0.688c0.665,0.362,1.382,0.533,2.089,0.533c1.552,0,3.056-0.827,3.85-2.287
		C127.141,40.634,110.291,30.298,104.755,26.901z M74.683,58.303c0,1.171-0.952,2.123-2.122,2.123H17.304
		c-1.17,0-2.121-0.952-2.121-2.123V7.655c0-1.171,0.951-2.123,2.121-2.123h55.257c1.17,0,2.122,0.952,2.122,2.123v10.819
		c-1.49-2.149-2.628-4.165-3.232-5.4c-0.44-0.905-1.16-1.577-1.999-1.991l-1.201-0.401c-0.871-0.149-1.794-0.048-2.652,0.368
		c-2.175,1.058-3.081,3.676-2.025,5.852c0.256,0.528,1.212,2.432,2.761,4.859l1.033,1.56c1.855,2.701,4.333,5.774,7.315,8.285
		V58.303z M97.49,50.079h-0.052l-2.72-3.722l2.72-18.18h0.052l2.72,18.18L97.49,50.079z M109.007,55.044v-12.52
		C110.679,45.687,111.054,49.69,109.007,55.044z"/>
	<circle cx="97.463" cy="12.999" r="11.278"/>
	<circle cx="27.559" cy="79.899" r="8.93"/>
	<path d="M10.225,109.206h6.988c-0.266-2.449,0.231-4.456,1.206-6.151v6.151h9.08l-2.114-2.893l2.153-14.395h0.042l2.153,14.395
		l-2.114,2.893h9.08v-6.134c0.968,1.691,1.46,3.693,1.196,6.134h6.989C45.686,98.491,36.9,93.09,33.498,91.002
		c-0.151-0.09-0.308-0.157-0.465-0.224c-0.995-0.664-2.111-1.151-3.25-1.432l-2.225,2.239l-2.156-2.264
		c-0.008,0.003-0.016,0.003-0.022,0.005c-1.162,0.278-2.301,0.776-3.312,1.454c-0.155,0.065-0.312,0.131-0.459,0.221
		C18.207,93.09,9.42,98.491,10.225,109.206z"/>
	<circle cx="62.322" cy="79.899" r="8.929"/>
	<path d="M44.987,109.206h6.988c-0.266-2.449,0.231-4.456,1.207-6.151v6.151h9.078l-2.113-2.893L62.3,91.919h0.042l2.154,14.395
		l-2.114,2.893h9.078v-6.134c0.97,1.691,1.462,3.693,1.197,6.134h6.989c0.803-10.715-7.982-16.116-11.385-18.204
		c-0.15-0.09-0.308-0.157-0.465-0.224c-0.994-0.664-2.111-1.151-3.25-1.432l-2.225,2.239l-2.156-2.264
		c-0.008,0.003-0.015,0.003-0.022,0.005c-1.162,0.278-2.302,0.776-3.313,1.454c-0.154,0.065-0.311,0.131-0.458,0.221
		C52.969,93.09,44.184,98.491,44.987,109.206z"/>
	<rect x="6.787" y="111.985" width="102.098" height="12.726"/>
</g>
</svg>
