<?xml version="1.0" encoding="iso-8859-1"?>
<!-- Generator: Adobe Illustrator 17.1.0, SVG Export Plug-In . SVG Version: 6.00 Build 0)  -->
<!DOCTYPE svg PUBLIC "-//W3C//DTD SVG 1.1//EN" "http://www.w3.org/Graphics/SVG/1.1/DTD/svg11.dtd">
<svg version="1.1" id="Layer_1" xmlns="http://www.w3.org/2000/svg" xmlns:xlink="http://www.w3.org/1999/xlink" x="0px" y="0px"
	 viewBox="0 0 128 128" style="enable-background:new 0 0 128 128;" xml:space="preserve">
<g>
	<path d="M123.298,39.24c0-5.453-4.195-9.647-9.438-9.647c-0.133,0-7.181,0-10.486,0c0,0-12.031,0-12.164,0
		c-5.243,0-9.438,4.195-9.438,9.647c0,0.326,0,27.672,0,27.684c0,2.201,1.784,3.985,3.985,3.985c2.2,0,3.983-1.783,3.985-3.982
		c0.002-0.001,0.005-24.331,0.005-24.331c0-0.229,0.185-0.414,0.414-0.414h0.844c0.229,0,0.414,0.185,0.414,0.414
		c0,0,0,68.258,0,68.266c0,2.838,2.3,5.138,5.138,5.138s5.138-2.3,5.138-5.138c0-0.008,0-40.167,0-40.167
		c0-0.293,0.135-0.415,0.425-0.415h0.829c0.289,0,0.425,0.122,0.425,0.415c0,0,0,40.159,0,40.167c0,2.838,2.3,5.138,5.138,5.138
		s5.138-2.3,5.138-5.138c0-0.008,0-68.266,0-68.266c0-0.229,0.186-0.414,0.414-0.414h0.844c0.229,0,0.414,0.185,0.414,0.414
		c0,0,0.004,24.33,0.005,24.331c0.002,2.199,1.785,3.982,3.985,3.982c2.201,0,3.985-1.784,3.985-3.985
		C123.298,66.912,123.298,39.567,123.298,39.24z"/>
	<circle cx="102.535" cy="19.646" r="7.646"/>
	<path d="M8.687,70.909c2.2,0,3.983-1.783,3.985-3.982c0.002-0.001,0.005-24.331,0.005-24.331c0-0.229,0.185-0.414,0.414-0.414
		h0.844c0.229,0,0.414,0.185,0.414,0.414c0,0,0,68.258,0,68.266c0,2.838,2.3,5.138,5.138,5.138s5.138-2.3,5.138-5.138
		c0-0.008,0-40.167,0-40.167c0-0.293,0.135-0.415,0.425-0.415h0.829c0.289,0,0.425,0.122,0.425,0.415c0,0,0,40.159,0,40.167
		c0,2.838,2.3,5.138,5.138,5.138s5.138-2.3,5.138-5.138c0-0.008,0-68.266,0-68.266c0-0.229,0.185-0.414,0.414-0.414h0.844
		c0.229,0,0.414,0.185,0.414,0.414c0,0,0.003,24.33,0.005,24.331c0.001,2.199,1.785,3.982,3.985,3.982
		c2.201,0,3.985-1.784,3.985-3.985c0-0.012,0-27.358,0-27.684c0-5.453-4.195-9.647-9.438-9.647c-0.133,0-7.181,0-10.486,0
		c0,0-12.031,0-12.164,0c-5.243,0-9.438,4.195-9.438,9.647c0,0.326,0,27.672,0,27.684C4.702,69.125,6.486,70.909,8.687,70.909z"/>
	<circle cx="25.464" cy="19.646" r="7.646"/>
	<path d="M49.53,83.884c0,1.44,1.188,2.544,2.627,2.544c1.439,0,2.615-1.103,2.616-2.542L54.77,68.034
		c0-0.15,0.118-0.271,0.268-0.271h1.127c0.15,0,0.286,0.121,0.286,0.271c0,0-0.003,44.592-0.003,44.597
		c0,1.857,1.499,3.369,3.356,3.369s3.355-1.495,3.355-3.351c0-0.005,0-26.368,0-26.368c0-0.192,0.089-0.272,0.278-0.272h1.11
		c0.189,0,0.29,0.08,0.29,0.272c0,0,0.005,26.303,0.005,26.368c0,1.857,1.515,3.351,3.372,3.351s3.335-1.512,3.335-3.369
		c0-0.005,0-44.597,0-44.597c0-0.15,0.121-0.271,0.271-0.271h1.145c0.15,0,0.267,0.121,0.267,0.271c0,0-0.006,15.852-0.004,15.852
		c0.001,1.439,1.191,2.542,2.63,2.542c1.44,0,2.613-1.104,2.613-2.544c0-0.008,0-17.899,0-18.112c0-3.567-3.354-6.398-6.784-6.398
		c-0.087,0-15.3,0-15.387,0c-3.43,0-6.768,2.831-6.768,6.398C49.53,65.986,49.53,83.876,49.53,83.884z"/>
	<path d="M61.473,48.347c-1.717,0.908-2.888,2.711-2.888,4.788c0,2.99,2.424,5.414,5.414,5.414c2.99,0,5.414-2.424,5.414-5.414
		c0-1.849-0.927-3.48-2.341-4.457v-3.17l-1.459,2.458c-0.159-0.05-0.322-0.092-0.487-0.127v-2.331l-1.331,2.218
		c-0.216,0.008-0.428,0.028-0.636,0.06v-2.278L61.473,48.347z"/>
</g>
</svg>
