<?xml version="1.0" encoding="utf-8"?>
<!-- Generator: Adobe Illustrator 16.0.0, SVG Export Plug-In . SVG Version: 6.00 Build 0)  -->
<!DOCTYPE svg PUBLIC "-//W3C//DTD SVG 1.1//EN" "http://www.w3.org/Graphics/SVG/1.1/DTD/svg11.dtd">
<svg version="1.1" id="Layer_1" xmlns="http://www.w3.org/2000/svg" xmlns:xlink="http://www.w3.org/1999/xlink" x="0px" y="0px"
	 width="50px" height="50px" viewBox="0 0 50 50" enable-background="new 0 0 50 50" xml:space="preserve">
<g>
	<path d="M24.415,33.264c-0.808,0-1.465,0.658-1.465,1.466c0,0.808,0.657,1.465,1.465,1.465c0.81,0,1.467-0.658,1.467-1.465
		C25.882,33.922,25.225,33.264,24.415,33.264z M24.415,35.424c-0.382,0-0.693-0.312-0.693-0.694c0-0.383,0.312-0.694,0.693-0.694
		c0.384,0,0.695,0.312,0.695,0.694C25.11,35.113,24.799,35.424,24.415,35.424z"/>
	<path d="M31.651,33.264c-0.808,0-1.465,0.658-1.465,1.466c0,0.808,0.657,1.465,1.465,1.465c0.809,0,1.467-0.658,1.467-1.465
		C33.118,33.922,32.46,33.264,31.651,33.264z M31.651,35.424c-0.382,0-0.693-0.312-0.693-0.694c0-0.383,0.312-0.694,0.693-0.694
		c0.383,0,0.695,0.312,0.695,0.694C32.347,35.113,32.034,35.424,31.651,35.424z"/>
	<circle cx="15.158" cy="15.428" r="2.396"/>
	<path d="M32.24,32.25c0.639,0,1.161-0.522,1.161-1.162v-2.698v-0.344v-0.272l0.146-0.029v-0.918c0-0.721-0.587-1.307-1.308-1.307
		h-1.828c0-0.018,0.005-0.035,0.005-0.053v-0.58c0-0.441-0.357-0.799-0.799-0.799h-2.307c-0.441,0-0.799,0.358-0.799,0.799v0.58
		c0,0.019,0.004,0.035,0.005,0.053H24.69c-0.722,0-1.308,0.586-1.308,1.307v0.918l0.146,0.029v0.272v0.344v2.698
		c0,0.64,0.523,1.162,1.162,1.162h-1.781l-0.81-6.599l-1.357-1.078c0.123-0.494-0.15-1.003-0.642-1.156l-2.876-0.891l-2.049-3.038
		c0-0.487-0.225-0.929-0.592-1.215c-0.186-0.264-0.476-0.453-0.821-0.489c-0.424-0.046-0.819,0.151-1.056,0.476
		c-0.319,0.243-0.545,0.607-0.599,1.036l-0.771,6.175c-0.049,0.39,0.057,0.761,0.264,1.062l-1.185,4.912l-2.384,3.744
		c-0.344,0.54-0.184,1.255,0.355,1.599c0.192,0.122,0.407,0.181,0.62,0.181c0.383,0,0.758-0.189,0.979-0.536l2.485-3.906
		c0.068-0.107,0.119-0.226,0.149-0.35l0.778-3.228l1.912,2.673l1.062,4.458c0.127,0.532,0.602,0.89,1.125,0.89
		c0.089,0,0.179-0.011,0.27-0.032c0.622-0.147,1.006-0.772,0.857-1.394l-1.113-4.678c-0.035-0.146-0.097-0.284-0.185-0.406
		l-3.028-4.232c0.047-0.118,0.085-0.241,0.102-0.372l0.428-3.429l0.985,1.461c0.123,0.183,0.305,0.317,0.515,0.382l3.201,0.991
		c0.096,0.03,0.191,0.044,0.285,0.044c0.161,0,0.312-0.051,0.45-0.125l1.163,0.908l0.754,6.592c0.021,0.195,0.187,0.342,0.383,0.342
		h11.089c0.146,0,0.28-0.083,0.345-0.214l0.279-0.558H32.24z M28.263,29.223c-0.588-0.198-0.989-0.472-0.989-1.005
		c0-0.483,0.341-0.862,0.929-0.978v-0.521h0.538v0.483c0.368,0.017,0.616,0.093,0.797,0.181l-0.159,0.621
		c-0.144-0.061-0.396-0.187-0.791-0.187c-0.357,0-0.473,0.153-0.473,0.308c0,0.181,0.192,0.296,0.66,0.472
		c0.653,0.231,0.916,0.533,0.916,1.027c0,0.489-0.346,0.906-0.978,1.016V31.2h-0.538v-0.521c-0.368-0.017-0.726-0.116-0.934-0.237
		l0.165-0.642c0.229,0.126,0.555,0.241,0.911,0.241c0.313,0,0.526-0.121,0.526-0.34C28.844,29.492,28.669,29.36,28.263,29.223z
		 M26.948,24.887c0-0.2,0.162-0.363,0.363-0.363h2.307c0.202,0,0.364,0.163,0.364,0.363v0.58c0,0.019-0.009,0.035-0.012,0.053
		h-3.012c-0.002-0.018-0.011-0.035-0.011-0.053V24.887z"/>
</g>
</svg>
