<?xml version="1.0" encoding="utf-8"?>
<!-- Generator: Adobe Illustrator 16.0.0, SVG Export Plug-In . SVG Version: 6.00 Build 0)  -->
<!DOCTYPE svg PUBLIC "-//W3C//DTD SVG 1.1//EN" "http://www.w3.org/Graphics/SVG/1.1/DTD/svg11.dtd">
<svg version="1.1" id="Layer_1" xmlns="http://www.w3.org/2000/svg" xmlns:xlink="http://www.w3.org/1999/xlink" x="0px" y="0px"
	 width="126px" height="126px" viewBox="0 0 126 126" enable-background="new 0 0 126 126" xml:space="preserve">
<g>
	<path d="M82.58,27.721c4.064,1.865,8.375,3.901,8.444,3.933c0.651,0.308,1.341,0.454,2.018,0.454c1.769,0,3.464-1,4.271-2.706
		c1.114-2.359,0.107-5.176-2.252-6.29c-0.177-0.083-1.887-0.891-4.129-1.937C89.091,24.296,86.121,26.669,82.58,27.721z"/>
	<path d="M32.713,32.11c0.677,0,1.364-0.146,2.016-0.456c0.067-0.031,4.281-2.022,8.305-3.871c-3.594-0.998-6.623-3.346-8.515-6.467
		c-2.09,0.977-3.66,1.717-3.826,1.796c-2.36,1.115-3.368,3.932-2.255,6.29C29.244,31.109,30.943,32.11,32.713,32.11z"/>
	<circle cx="78.724" cy="14.083" r="13.092"/>
	<circle cx="47.149" cy="14.083" r="13.092"/>
	<path d="M97.852,35.774c-0.011-0.012-0.023-0.02-0.034-0.031l-1.228-1.469l-1.115-1.116c-0.801,0.421-1.696,0.665-2.629,0.665
		c-0.84,0-1.656-0.183-2.421-0.544c-0.07-0.034-5.329-2.518-9.703-4.511l-2.001,1.83l-2.641-2.487
		c-0.547-0.092-1.085-0.209-1.61-0.361c-1.091,0.495-2.391,1.17-3.734,1.963c0.098-0.578,0.094-1.163-0.021-1.732
		c0.598-0.348,1.186-0.668,1.762-0.973c-3.082-1.408-5.579-3.864-7.046-6.913c-0.813,0.494-1.609,0.998-2.369,1.513
		c-1.111-0.637-2.183-1.244-3.025-1.721c-1.421,3.076-3.884,5.565-6.939,7.021c2.5,1.302,8.585,4.673,10.274,5.864
		c0.369,0.26,0.769,0.439,1.176,0.581v24.643c0,2.118,0.34,4.133,0.976,5.973c-0.019,0.196-0.03,0.393-0.03,0.593v5.535h0.036
		c-0.002,0.081-0.023,0.155-0.023,0.237l0.003,48.669c0,3.317,2.688,6.006,6.007,6.006c3.316,0,6.007-2.689,6.007-6.007
		L77.52,70.332c0-0.081-0.022-0.155-0.024-0.236h0.904c-0.004,0.08-0.025,0.155-0.025,0.235l-0.003,48.67
		c0,3.317,2.688,6.006,6.006,6.007c3.318,0,6.006-2.689,6.006-6.006l0.006-48.669c0-0.082-0.021-0.156-0.025-0.237h0.146
		c0.449,0.881,1.157,1.643,2.093,2.15c0.772,0.42,1.604,0.619,2.425,0.619c1.803,0,3.548-0.96,4.469-2.654
		C108.703,53.282,103.686,42.14,97.852,35.774z M92.558,61.16l0.294-15.055C94.613,49.424,95.395,54.153,92.558,61.16z"/>
	<path d="M51.146,27.685c-0.456,0.14-0.922,0.258-1.396,0.354l-2.717,2.559l-2.002-1.831c-4.376,1.994-9.633,4.478-9.706,4.511
		c-0.765,0.361-1.577,0.544-2.42,0.544c-0.931,0-1.826-0.243-2.625-0.665l-1.951,2.123c-0.059,0.057-0.126,0.101-0.181,0.161
		c-5.833,6.365-10.852,17.508-1.643,34.437c0.921,1.694,2.666,2.655,4.469,2.655c0.82,0,1.654-0.199,2.424-0.619
		c0.811-0.442,1.436-1.083,1.886-1.818h0.087c-0.001,0.049-0.014,0.095-0.014,0.145l0.002,48.669c0,3.317,2.688,6.006,6.005,6.006
		c3.318,0,6.008-2.689,6.008-6.007L47.37,70.24c0-0.049-0.013-0.095-0.014-0.144h0.885c-0.001,0.049-0.016,0.094-0.016,0.144
		l-0.004,48.669c0,3.318,2.688,6.007,6.007,6.007s6.007-2.688,6.007-6.006l0.004-48.669c0-0.049-0.013-0.095-0.014-0.145h0.035
		v-5.533c0-0.201-0.012-0.398-0.031-0.594c0.638-1.84,0.978-3.855,0.978-5.973V32.651c-1.159-0.008-2.274-0.363-3.225-1.033
		C55.676,29.992,53.051,28.536,51.146,27.685z M32.86,46.36v2.472l0.273,11.183C30.825,53.846,31.377,49.506,32.86,46.36z"/>
</g>
</svg>
