<?xml version="1.0" encoding="iso-8859-1"?>
<!-- Generator: Adobe Illustrator 17.1.0, SVG Export Plug-In . SVG Version: 6.00 Build 0)  -->
<!DOCTYPE svg PUBLIC "-//W3C//DTD SVG 1.1//EN" "http://www.w3.org/Graphics/SVG/1.1/DTD/svg11.dtd">
<svg version="1.1" id="Layer_1" xmlns="http://www.w3.org/2000/svg" xmlns:xlink="http://www.w3.org/1999/xlink" x="0px" y="0px"
	 viewBox="0 0 128 128" style="enable-background:new 0 0 128 128;" xml:space="preserve">
<g>
	<circle cx="40.628" cy="14.097" r="8.603"/>
	<path d="M70.146,57.223c0.175-1.066,0.355-2.162,0.535-3.262c-0.809,1.438-2.069,2.589-3.587,3.262H70.146z"/>
	<path d="M57.854,57.223h3.052c-1.518-0.673-2.777-1.824-3.587-3.262C57.499,55.061,57.679,56.158,57.854,57.223z"/>
	<path d="M17.268,36.143c0,0.367,0,31.133,0,31.147c0,2.476,2.007,4.483,4.483,4.483c2.475,0,4.482-2.006,4.483-4.48
		c0.002-0.001,0.006-27.375,0.006-27.375c0-0.257,0.208-0.466,0.466-0.466h0.95c0.257,0,0.466,0.208,0.466,0.466
		c0,0,0,76.798,0,76.807c0,3.193,2.588,5.781,5.781,5.781s5.781-2.588,5.781-5.781c0-0.009,0-45.192,0-45.192
		c0-0.33,0.152-0.467,0.478-0.467h0.932c0.325,0,0.478,0.138,0.478,0.467c0,0,0,45.183,0,45.192c0,3.193,2.588,5.781,5.781,5.781
		s5.781-2.588,5.781-5.781c0-0.003,0-12.06,0-26.619c-0.704,0.442-1.544,0.7-2.458,0.7c-2.496,0-4.528-1.989-4.528-4.434V65.994
		c0-3.954,3.074-7.496,6.986-8.492c0-10.194,0-17.584,0-17.584c0-0.257,0.208-0.466,0.466-0.466h0.949
		c0.258,0,0.466,0.208,0.466,0.466c0,0,0.65,3.964,1.455,8.874c0.399-2.12,1.675-3.985,3.547-5.124L64,38.025l0.152,3.129
		l2.062-3.078l0.152,3.026l2.19-3.078l0.474,6.41c1.305,1.135,2.181,2.676,2.499,4.363c0.805-4.913,1.456-8.88,1.456-8.88
		c0-0.257,0.208-0.466,0.466-0.466h0.95c0.257,0,0.466,0.208,0.466,0.466c0,0,0,7.392,0,17.587c3.912,1.001,6.986,4.539,6.986,8.489
		v20.378c0,2.486-1.982,4.434-4.511,4.434c-0.914,0-1.762-0.27-2.475-0.727c0,14.57,0,26.642,0,26.645
		c0,3.193,2.588,5.781,5.781,5.781s5.781-2.588,5.781-5.781c0-0.009,0-45.192,0-45.192c0-0.33,0.152-0.467,0.478-0.467h0.932
		c0.325,0,0.478,0.138,0.478,0.467c0,0,0,45.183,0,45.192c0,3.193,2.588,5.781,5.781,5.781s5.781-2.588,5.781-5.781
		c0-0.009,0-76.807,0-76.807c0-0.257,0.208-0.466,0.466-0.466h0.949c0.258,0,0.466,0.208,0.466,0.466c0,0,0.004,27.374,0.006,27.375
		c0.002,2.475,2.008,4.48,4.483,4.48c2.476,0,4.483-2.007,4.483-4.483c0-0.014,0-30.78,0-31.147
		c-0.001-6.135-4.72-10.854-10.619-10.854c-0.15,0-25.334,0-25.484,0c-5.899,0-9.852,4.674-10.618,10.854
		c-0.001,0.008-0.005,0.039-0.011,0.079c-0.006-0.04-0.01-0.07-0.011-0.079c-0.767-6.181-4.719-10.854-10.618-10.854
		c-0.15,0-25.334,0-25.484,0C21.987,25.288,17.268,30.007,17.268,36.143z"/>
	<circle cx="87.371" cy="14.097" r="8.603"/>
	<path d="M68.741,122.506c2.089,0,3.752-1.702,3.752-3.791c0-0.006,0-50.176,0-50.176c0-0.168,0.136-0.305,0.305-0.305h1.288
		c0.168,0,0.3,0.136,0.3,0.305c0,0-0.006,17.835-0.005,17.836c0.001,1.619,1.34,2.86,2.959,2.86c1.62,0,2.94-1.243,2.94-2.862
		c0-0.009,0-20.138,0-20.378c0-4.014-3.773-7.199-7.633-7.199c-0.098,0-17.214,0-17.312,0c-3.859,0-7.615,3.185-7.615,7.199
		c0,0.24,0,20.369,0,20.378c0,1.62,1.336,2.862,2.956,2.862c1.619,0,2.942-1.241,2.943-2.86l-0.004-17.836
		c0-0.168,0.133-0.305,0.301-0.305h1.268c0.168,0,0.322,0.136,0.322,0.305c0,0-0.004,50.171-0.004,50.176
		c0,2.089,1.687,3.791,3.775,3.791c2.089,0,3.775-1.682,3.775-3.77c0-0.006,0-29.667,0-29.667c0-0.216,0.1-0.306,0.312-0.306h1.249
		c0.213,0,0.326,0.09,0.326,0.306c0,0,0.005,29.594,0.005,29.667C64.947,120.824,66.652,122.506,68.741,122.506z"/>
	<path d="M61.157,44.828c-1.932,1.021-3.249,3.05-3.249,5.387c0,3.364,2.727,6.091,6.091,6.091c3.364,0,6.091-2.727,6.091-6.091
		c0-2.08-1.043-3.915-2.634-5.014v-3.567l-1.642,2.765c-0.179-0.056-0.362-0.103-0.548-0.142v-2.623L63.77,44.13
		c-0.242,0.009-0.481,0.031-0.716,0.068v-2.563L61.157,44.828z"/>
</g>
</svg>
