<?xml version="1.0" encoding="iso-8859-1"?>
<!-- Generator: Adobe Illustrator 17.1.0, SVG Export Plug-In . SVG Version: 6.00 Build 0)  -->
<!DOCTYPE svg PUBLIC "-//W3C//DTD SVG 1.1//EN" "http://www.w3.org/Graphics/SVG/1.1/DTD/svg11.dtd">
<svg version="1.1" id="Layer_1" xmlns="http://www.w3.org/2000/svg" xmlns:xlink="http://www.w3.org/1999/xlink" x="0px" y="0px"
	 viewBox="0 0 128 128" style="enable-background:new 0 0 128 128;" xml:space="preserve">
<g>
	<path d="M65.56,2.448c-0.301-0.233-0.787-0.231-1.088,0.003l-12.671,9.852c-0.301,0.233-0.464,0.114-0.464-0.267V5.524
		c0-0.381-0.471-0.66-0.852-0.66H41.54c-0.381,0-0.617,0.279-0.617,0.66v14.487c0,0.381-0.279,0.876-0.58,1.109L5.824,47.76
		c-0.301,0.233-0.255,0.405,0.126,0.405h15.632c0.381,0,0.707,0.338,0.707,0.716v76.05c0,0.381,0.289,0.794,0.67,0.794h84.309
		c0.381,0,0.804-0.415,0.804-0.794V48.884c0-0.381,0.192-0.716,0.57-0.716h15.142c0.379,0,0.444-0.175,0.144-0.408L65.56,2.448z
		 M80.446,41.192c3.166,0,5.732,2.567,5.732,5.732s-2.566,5.732-5.732,5.732c-3.166,0-5.732-2.566-5.732-5.732
		S77.28,41.192,80.446,41.192z M49.3,41.192c3.166,0,5.732,2.567,5.732,5.732s-2.566,5.732-5.732,5.732
		c-3.166,0-5.732-2.566-5.732-5.732S46.134,41.192,49.3,41.192z M93.025,85.355c-1.649,0-2.986-1.336-2.987-2.985
		c-0.001-0.001-0.004-18.241-0.004-18.241c0-0.172-0.139-0.311-0.311-0.311H89.09c-0.172,0-0.311,0.139-0.311,0.311
		c0,0,0,51.172,0,51.178c0,2.127-1.725,3.852-3.852,3.852s-3.852-1.725-3.852-3.852c0-0.006,0-30.112,0-30.112
		c0-0.22-0.102-0.311-0.318-0.311h-0.621c-0.217,0-0.318,0.092-0.318,0.311c0,0,0,30.107,0,30.112c0,2.127-1.725,3.852-3.852,3.852
		c-2.127,0-3.852-1.725-3.852-3.852c0-0.006,0-51.178,0-51.178c0-0.172-0.139-0.311-0.311-0.311h-0.633
		c-0.172,0-0.311,0.139-0.311,0.311c0,0-2.99,18.24-2.991,18.241c-0.093,0.554-0.266,1.033-0.497,1.438
		c-0.413,0.761-1.114,1.339-2.021,1.477c-0.114,0.017-0.227,0.027-0.34,0.031c-0.045,0.002-0.091,0-0.136,0.001
		c-0.045,0-0.091,0.002-0.136-0.001c-0.112-0.004-0.226-0.014-0.34-0.031c-0.907-0.137-1.608-0.715-2.021-1.477
		c-0.232-0.404-0.404-0.883-0.497-1.438c-0.001-0.001-2.991-18.241-2.991-18.241c0-0.172-0.139-0.311-0.311-0.311h-0.633
		c-0.172,0-0.311,0.139-0.311,0.311c0,0,0,51.172,0,51.178c0,2.127-1.725,3.852-3.852,3.852c-2.127,0-3.852-1.725-3.852-3.852
		c0-0.006,0-30.112,0-30.112c0-0.22-0.102-0.311-0.318-0.311h-0.621c-0.217,0-0.318,0.092-0.318,0.311c0,0,0,30.107,0,30.112
		c0,2.127-1.725,3.852-3.852,3.852s-3.852-1.725-3.852-3.852c0-0.006,0-51.178,0-51.178c0-0.172-0.139-0.311-0.311-0.311h-0.633
		c-0.172,0-0.311,0.139-0.311,0.311c0,0-0.003,18.24-0.004,18.241c-0.001,1.649-1.338,2.985-2.987,2.985
		c-1.65,0-2.987-1.338-2.987-2.987c0-0.009,0-20.509,0-20.754c0-4.088,3.145-7.232,7.075-7.232c0.1,0,16.881,0,16.98,0
		c3.931,0,6.564,3.114,7.075,7.232c0.001,0.006,0.003,0.026,0.007,0.052c0.004-0.027,0.006-0.047,0.007-0.052
		c0.511-4.118,3.145-7.232,7.075-7.232c0.1,0,16.881,0,16.98,0c3.931,0,7.075,3.145,7.076,7.232
		c0.001,0.245,0.001,20.745,0.001,20.754C96.012,84.017,94.674,85.355,93.025,85.355z"/>
</g>
</svg>
