<?xml version="1.0" encoding="utf-8"?>
<!-- Generator: Adobe Illustrator 16.0.0, SVG Export Plug-In . SVG Version: 6.00 Build 0)  -->
<!DOCTYPE svg PUBLIC "-//W3C//DTD SVG 1.1//EN" "http://www.w3.org/Graphics/SVG/1.1/DTD/svg11.dtd">
<svg version="1.1" id="Layer_1" xmlns="http://www.w3.org/2000/svg" xmlns:xlink="http://www.w3.org/1999/xlink" x="0px" y="0px"
	 width="50px" height="50px" viewBox="0 0 50 50" enable-background="new 0 0 50 50" xml:space="preserve">
<g>
	<polygon points="24.997,22.17 25,22.173 25.003,22.17 	"/>
	<path d="M22.524,21.419c0,0.186-0.014,0.373-0.038,0.56c0.729,0.127,1.619,0.191,2.511,0.191l-1.16-1.159l0.979-2.366h-0.01
		l-0.381-0.436c0.185,0.066,0.376,0.106,0.575,0.106s0.39-0.039,0.574-0.105l-0.381,0.435h-0.01l0.979,2.366l-1.159,1.159
		c0.891,0,1.78-0.064,2.51-0.191c-0.024-0.187-0.038-0.374-0.038-0.56c0-0.82,0.253-1.58,0.683-2.211
		c-0.549-0.548-1.285-1.012-2.134-1.227c0.75-0.505,1.268-1.501,1.268-2.397c0-1.266-1.026-2.292-2.291-2.292
		c-1.266,0-2.292,1.026-2.292,2.292c0,0.896,0.518,1.892,1.268,2.397c-0.848,0.215-1.585,0.679-2.134,1.228
		C22.271,19.839,22.524,20.599,22.524,21.419z"/>
	<path d="M21.195,29.553c-0.009-0.025-0.022-0.049-0.031-0.075l-0.373-0.428l0.268,0.096c-0.116-0.416-0.179-0.841-0.179-1.263
		c0-0.966,0.348-1.844,0.906-2.548c-0.56-0.394-1.199-0.72-1.908-0.899c0.944-0.636,1.595-1.888,1.595-3.016
		c0-1.593-1.29-2.883-2.882-2.883c-1.593,0-2.884,1.291-2.884,2.883c0,1.128,0.651,2.38,1.595,3.016
		c-0.708,0.18-1.348,0.505-1.907,0.899c0.56,0.704,0.907,1.582,0.907,2.548c0,0.425-0.063,0.855-0.182,1.273l0.286-0.102l-0.4,0.457
		c-0.005,0.015-0.013,0.028-0.019,0.043c0.796,0.103,1.7,0.154,2.604,0.154l-1.463-1.461l1.23-2.976h-0.012l-0.479-0.548
		c0.231,0.083,0.472,0.133,0.723,0.133c0.25,0,0.489-0.049,0.722-0.132l-0.479,0.547h-0.012l1.231,2.976l-1.462,1.461
		C19.495,29.708,20.398,29.656,21.195,29.553z"/>
	<polygon points="18.591,29.708 18.591,29.708 18.591,29.708 	"/>
	<polygon points="31.409,29.708 31.409,29.708 31.409,29.708 	"/>
	<path d="M31.178,25.271h-0.013l-0.479-0.548c0.232,0.083,0.473,0.133,0.723,0.133c0.251,0,0.49-0.049,0.722-0.132l-0.479,0.547
		h-0.011l1.23,2.976l-1.462,1.461c0.903,0,1.809-0.052,2.604-0.155c-0.009-0.022-0.021-0.044-0.029-0.066l-0.384-0.44l0.275,0.099
		c-0.116-0.415-0.179-0.841-0.179-1.263c0-0.966,0.348-1.844,0.907-2.548c-0.56-0.394-1.199-0.719-1.907-0.899
		c0.943-0.636,1.595-1.888,1.595-3.016c0-1.593-1.291-2.883-2.883-2.883c-1.593,0-2.883,1.291-2.883,2.883
		c0,1.128,0.65,2.38,1.595,3.016c-0.709,0.18-1.349,0.505-1.908,0.899c0.559,0.704,0.906,1.582,0.906,2.548
		c0,0.425-0.063,0.855-0.182,1.273l0.287-0.102l-0.4,0.456c-0.006,0.015-0.014,0.029-0.019,0.044c0.796,0.103,1.7,0.155,2.604,0.155
		l-1.463-1.461L31.178,25.271z"/>
	<path d="M13.553,31.093c1.005-0.677,1.697-2.01,1.697-3.211c0-1.696-1.373-3.069-3.067-3.069c-1.695,0-3.069,1.374-3.069,3.069
		c0,1.201,0.692,2.534,1.696,3.211c-2.403,0.61-4.186,2.697-4.186,4.244c0,1.828,11.114,1.828,11.114,0
		C17.738,33.791,15.958,31.703,13.553,31.093z M12.183,36.708l-1.559-1.556l1.311-3.168h-0.013l-0.509-0.583
		c0.247,0.088,0.501,0.142,0.77,0.142c0.266,0,0.521-0.053,0.768-0.141l-0.51,0.582h-0.013l1.312,3.168L12.183,36.708z"/>
	<path d="M26.372,31.093c1.004-0.677,1.696-2.01,1.696-3.211c0-1.696-1.374-3.069-3.068-3.069c-1.695,0-3.069,1.374-3.069,3.069
		c0,1.201,0.692,2.534,1.696,3.211c-2.402,0.61-4.184,2.697-4.184,4.244c0,1.828,11.112,1.828,11.112,0
		C30.556,33.791,28.775,31.703,26.372,31.093z M25,36.708l-1.558-1.556l1.311-3.168h-0.014l-0.509-0.583
		c0.247,0.088,0.503,0.142,0.77,0.142c0.266,0,0.521-0.053,0.769-0.141l-0.511,0.582h-0.012l1.311,3.168L25,36.708z"/>
	<path d="M39.189,31.093c1.004-0.677,1.696-2.01,1.696-3.211c0-1.696-1.374-3.069-3.068-3.069c-1.695,0-3.068,1.374-3.068,3.069
		c0,1.201,0.692,2.534,1.697,3.211c-2.404,0.61-4.186,2.697-4.186,4.244c0,1.828,11.114,1.828,11.114,0
		C43.375,33.791,41.594,31.703,39.189,31.093z M37.817,36.708l-1.558-1.556l1.311-3.168h-0.013l-0.509-0.583
		c0.246,0.088,0.502,0.142,0.769,0.142c0.268,0,0.522-0.053,0.769-0.141l-0.511,0.582h-0.011l1.311,3.168L37.817,36.708z"/>
</g>
</svg>
