<?xml version="1.0" encoding="utf-8"?>
<!-- Generator: Adobe Illustrator 16.0.0, SVG Export Plug-In . SVG Version: 6.00 Build 0)  -->
<!DOCTYPE svg PUBLIC "-//W3C//DTD SVG 1.1//EN" "http://www.w3.org/Graphics/SVG/1.1/DTD/svg11.dtd">
<svg version="1.1" id="Layer_1" xmlns="http://www.w3.org/2000/svg" xmlns:xlink="http://www.w3.org/1999/xlink" x="0px" y="0px"
	 width="50px" height="50px" viewBox="0 0 50 50" enable-background="new 0 0 50 50" xml:space="preserve">
<g>
	<path d="M42.074,25.88c-0.091-0.147-0.252-0.237-0.425-0.237H26.086l-1.534-1.197c0.16-0.64-0.194-1.3-0.831-1.497l-3.727-1.155
		l-2.653-3.936c0-0.63-0.292-1.204-0.768-1.574c-0.24-0.342-0.616-0.586-1.064-0.634c-0.549-0.06-1.062,0.196-1.368,0.617
		c-0.413,0.314-0.706,0.787-0.775,1.342l-1,8c-0.063,0.505,0.075,0.986,0.342,1.375l-1.536,6.364l-3.087,4.851
		c-0.445,0.699-0.239,1.626,0.46,2.071c0.25,0.159,0.528,0.234,0.804,0.234c0.496,0,0.981-0.246,1.267-0.695l3.221-5.061
		c0.088-0.139,0.154-0.292,0.192-0.453l1.009-4.182l2.478,3.463l1.375,5.775c0.164,0.689,0.779,1.153,1.458,1.153
		c0.115,0,0.232-0.014,0.349-0.042c0.806-0.191,1.304-1,1.112-1.806l-1.443-6.061c-0.045-0.189-0.126-0.368-0.239-0.525
		l-3.923-5.483c0.061-0.153,0.109-0.312,0.13-0.482l0.555-4.443l1.277,1.894c0.159,0.236,0.395,0.411,0.667,0.495l4.147,1.285
		c0.124,0.039,0.248,0.057,0.371,0.057c0.208,0,0.403-0.065,0.583-0.162l1.507,1.176l0.976,8.542
		c0.029,0.252,0.242,0.443,0.497,0.443h10.368c0.189,0,0.363-0.107,0.447-0.277l4.367-8.75
		C42.174,26.212,42.165,26.028,42.074,25.88z M40.84,26.644l-0.6,1.202H26.612l-0.137-1.202H40.84z M39.142,30.047H26.864
		l-0.138-1.202h13.016L39.142,30.047z M38.043,32.249H27.115l-0.137-1.202h11.665L38.043,32.249z M36.973,34.394H27.36l-0.131-1.145
		h10.314L36.973,34.394z"/>
	<path d="M27.313,35.708c-1.047,0-1.899,0.852-1.899,1.899c0,1.047,0.852,1.899,1.899,1.899c1.047,0,1.899-0.852,1.899-1.899
		C29.212,36.56,28.36,35.708,27.313,35.708z M27.313,38.506c-0.496,0-0.899-0.403-0.899-0.899c0-0.496,0.403-0.899,0.899-0.899
		c0.496,0,0.899,0.403,0.899,0.899C28.212,38.103,27.809,38.506,27.313,38.506z"/>
	<path d="M36.688,35.708c-1.047,0-1.899,0.852-1.899,1.899c0,1.047,0.852,1.899,1.899,1.899c1.047,0,1.899-0.852,1.899-1.899
		C38.587,36.56,37.735,35.708,36.688,35.708z M36.688,38.506c-0.496,0-0.899-0.403-0.899-0.899c0-0.496,0.403-0.899,0.899-0.899
		c0.496,0,0.899,0.403,0.899,0.899C37.587,38.103,37.184,38.506,36.688,38.506z"/>
	<circle cx="17.319" cy="12.598" r="3.104"/>
</g>
</svg>
