<?xml version="1.0" encoding="utf-8"?>
<!-- Generator: Adobe Illustrator 16.0.0, SVG Export Plug-In . SVG Version: 6.00 Build 0)  -->
<!DOCTYPE svg PUBLIC "-//W3C//DTD SVG 1.1//EN" "http://www.w3.org/Graphics/SVG/1.1/DTD/svg11.dtd">
<svg version="1.1" id="Layer_1" xmlns="http://www.w3.org/2000/svg" xmlns:xlink="http://www.w3.org/1999/xlink" x="0px" y="0px"
	 width="50px" height="50px" viewBox="0 0 50 50" enable-background="new 0 0 50 50" xml:space="preserve">
<g>
	<path d="M21.776,15.656c1.744,0,3.16-2.024,3.16-3.769c0-0.438-0.09-0.855-0.251-1.235c-0.729,0.615-1.76,1.004-2.911,1.004
		c-1.15,0-2.18-0.389-2.909-1.004c-0.161,0.379-0.251,0.796-0.251,1.235C18.614,13.632,20.03,15.656,21.776,15.656z"/>
	<path d="M21.775,11.017c0.864,0,1.751-0.285,2.635-0.845c0.116-0.074,0.151-0.228,0.077-0.345c-0.074-0.116-0.229-0.15-0.345-0.077
		c-0.424,0.269-0.846,0.462-1.263,0.59c0.098-0.18,0.167-0.375,0.167-0.594c0-0.701-0.57-1.271-1.271-1.271
		c-0.7,0-1.271,0.57-1.271,1.271c0,0.213,0.066,0.405,0.159,0.582c-0.494-0.154-0.933-0.373-1.258-0.579
		c-0.115-0.073-0.271-0.039-0.345,0.077c-0.074,0.117-0.039,0.271,0.077,0.345C20.011,10.725,20.923,11.017,21.775,11.017z
		 M21.775,8.976c0.426,0,0.771,0.346,0.771,0.771c0,0.425-0.346,0.771-0.771,0.771c-0.425,0-0.771-0.346-0.771-0.771
		C21.005,9.321,21.351,8.976,21.775,8.976z"/>
	<path d="M36.094,19.129c0.612-1.533,0.425-3.561-0.123-4.109c-1.288-1.288-3.494,0-3.494,0s-2.331-1.656-3.436,0
		c-0.414,0.622-0.552,2.269-0.062,3.741c0.033,0.1,0.042,0.199,0.067,0.299l-0.124,0.12l-1.097-1.697
		c-0.027-0.042-0.07-0.066-0.103-0.104c-0.055-0.067-0.11-0.129-0.18-0.185c-0.066-0.053-0.138-0.092-0.213-0.129
		c-0.045-0.023-0.079-0.061-0.129-0.079c-0.121-0.044-2.995-1.075-5.426-1.075s-5.305,1.031-5.426,1.075
		c-0.04,0.014-0.066,0.045-0.104,0.063c-0.084,0.04-0.159,0.084-0.232,0.141c-0.06,0.047-0.11,0.097-0.16,0.153
		c-0.055,0.061-0.102,0.124-0.144,0.196c-0.042,0.073-0.073,0.146-0.101,0.226c-0.015,0.044-0.045,0.079-0.055,0.125l-2,9
		c-0.149,0.674,0.275,1.341,0.949,1.491c0.092,0.021,0.183,0.03,0.272,0.03c0.573,0,1.09-0.397,1.22-0.979l1.846-8.305
		c0.129-0.04,0.275-0.083,0.434-0.127v8.532l-0.995,12.371c-0.066,0.826,0.549,1.549,1.375,1.615
		c0.041,0.003,0.081,0.005,0.122,0.005c0.773,0,1.43-0.595,1.493-1.38l0.899-11.181c0.186,0.082,0.39,0.129,0.605,0.129
		s0.42-0.047,0.605-0.129l0.899,11.181c0.063,0.785,0.72,1.38,1.493,1.38c0.041,0,0.081-0.001,0.122-0.005
		c0.826-0.066,1.441-0.79,1.375-1.615l-0.995-12.371v-8.532c0.274,0.078,0.508,0.149,0.688,0.207l1.684,2.606
		c0.203,0.314,0.535,0.521,0.907,0.563c0.048,0.005,0.095,0.008,0.143,0.008c0.11,0,0.215-0.034,0.319-0.062
		c-0.17,0.956-0.328,1.729,0.024,2.141c0.746,0.871,1.41-2.759,3.066-3.25c1.655-0.49,3.178,3.935,3.863,3.25
		C36.891,23.544,35.179,21.421,36.094,19.129z"/>
</g>
</svg>
