<?xml version="1.0" encoding="utf-8"?>
<!-- Generator: Adobe Illustrator 16.0.0, SVG Export Plug-In . SVG Version: 6.00 Build 0)  -->
<!DOCTYPE svg PUBLIC "-//W3C//DTD SVG 1.1//EN" "http://www.w3.org/Graphics/SVG/1.1/DTD/svg11.dtd">
<svg version="1.1" id="Layer_1" xmlns="http://www.w3.org/2000/svg" xmlns:xlink="http://www.w3.org/1999/xlink" x="0px" y="0px"
	 width="50px" height="50px" viewBox="0 0 50 50" enable-background="new 0 0 50 50" xml:space="preserve">
<g>
	<path d="M26.164,29.271c-0.584-0.064-1.12-0.359-1.495-0.829s-0.545-1.057-0.479-1.654l0.259-2.331h-0.007V21.69h0.314l0.142-1.278
		h-1.186V18.29h-3.009v2.122H19.2v0.418h-1.673v16.413h-0.729V17.634H15.06v-2.119h-1.719v-3.617h-0.43v3.617h-1.719v2.119H9.453
		v20.469h7.345h0.729h9.363v-8.873C26.656,29.279,26.413,29.302,26.164,29.271z M11.622,15.944h3.008v1.689h-3.008V15.944z
		 M11.901,34.047h-1.589V31.28h1.589V34.047z M11.901,30.85h-1.589v-2.767h1.589V30.85z M11.901,27.653h-1.589v-2.767h1.589V27.653z
		 M11.901,21.26h-1.589v-2.767h0.879h0.71V21.26z M13.92,37.243h-1.589v-2.767h1.589V37.243z M13.92,34.047h-1.589V31.28h1.589
		V34.047z M13.92,24.457h-1.589V21.69h1.589V24.457z M13.92,21.26h-1.589v-2.767h1.589V21.26z M15.938,34.047H14.35V31.28h1.589
		V34.047z M15.938,30.85H14.35v-2.767h1.589V30.85z M15.938,27.653H14.35v-2.767h1.589V27.653z M15.938,24.457H14.35V21.69h1.589
		V24.457z M21.134,18.72h2.149v1.478h-2.149V18.72z M19.975,34.047h-1.588V31.28h1.588V34.047z M19.975,27.653h-1.588v-2.767h1.588
		V27.653z M21.994,37.243h-1.589v-2.767h1.589V37.243z M21.994,30.85h-1.589v-2.767h1.589V30.85z M21.994,24.457h-1.589V21.69h1.589
		V24.457z M24.012,37.243h-1.589v-2.767h1.589V37.243z M24.012,34.047h-1.589V31.28h1.589V34.047z M24.012,30.85h-1.589v-2.767
		h1.589V30.85z M24.012,27.653h-1.589v-2.767h1.589V27.653z M26.031,34.047h-1.589V31.28h1.589V34.047z"/>
	<path d="M32.426,15.531c1.744,0,3.16-2.024,3.16-3.77c0-1.746-1.416-3.161-3.16-3.161c-1.746,0-3.162,1.415-3.162,3.161
		C29.264,13.507,30.68,15.531,32.426,15.531z"/>
	<path d="M40.047,28.875h-0.896V28.03c0.349-0.256,0.568-0.671,0.517-1.132l-1-9c-0.007-0.061-0.039-0.109-0.054-0.166
		c-0.023-0.092-0.043-0.182-0.086-0.266c-0.033-0.063-0.08-0.112-0.122-0.168c-0.056-0.074-0.107-0.147-0.179-0.209
		c-0.057-0.047-0.123-0.076-0.187-0.113c-0.064-0.037-0.117-0.088-0.189-0.115c-0.113-0.041-2.629-0.942-4.941-1.061l-0.318,0.635
		h-0.008l0.842,6.557l-1,1.747l-1-1.747l0.842-6.557h-0.01l-0.317-0.635c-2.312,0.118-4.827,1.02-4.94,1.061
		c-0.073,0.027-0.127,0.079-0.191,0.117c-0.062,0.037-0.128,0.064-0.183,0.111c-0.074,0.062-0.127,0.138-0.185,0.214
		c-0.04,0.054-0.085,0.101-0.117,0.161c-0.044,0.085-0.063,0.178-0.088,0.271c-0.015,0.056-0.046,0.104-0.053,0.162l-1,9
		c-0.076,0.687,0.418,1.305,1.104,1.381c0.047,0.006,0.093,0.008,0.14,0.008c0.628,0,1.169-0.473,1.24-1.111l0.911-8.199
		c0.106-0.031,0.223-0.065,0.347-0.101v8.532l-0.995,12.371c-0.066,0.826,0.549,1.549,1.375,1.615
		c0.041,0.004,0.081,0.005,0.122,0.005c0.773,0,1.43-0.595,1.493-1.38l0.899-11.181c0.186,0.082,0.39,0.13,0.605,0.13
		s0.42-0.048,0.605-0.13l0.899,11.181c0.063,0.785,0.72,1.38,1.493,1.38c0.041,0,0.081-0.001,0.122-0.005
		c0.826-0.066,1.441-0.789,1.375-1.615l-0.995-12.371v-8.532c0.124,0.035,0.24,0.069,0.347,0.101l0.911,8.199
		c0.067,0.602,0.554,1.04,1.134,1.092v0.607h-0.896c-0.275,0-0.5,0.225-0.5,0.5v7.584c0,0.274,0.225,0.5,0.5,0.5h2.625
		c0.275,0,0.5-0.226,0.5-0.5v-7.584C40.547,29.1,40.322,28.875,40.047,28.875z"/>
</g>
</svg>
