<?xml version="1.0" encoding="utf-8"?>
<!-- Generator: Adobe Illustrator 16.0.0, SVG Export Plug-In . SVG Version: 6.00 Build 0)  -->
<!DOCTYPE svg PUBLIC "-//W3C//DTD SVG 1.1//EN" "http://www.w3.org/Graphics/SVG/1.1/DTD/svg11.dtd">
<svg version="1.1" id="Layer_1" xmlns="http://www.w3.org/2000/svg" xmlns:xlink="http://www.w3.org/1999/xlink" x="0px" y="0px"
	 width="50px" height="50px" viewBox="0 0 50 50" enable-background="new 0 0 50 50" xml:space="preserve">
<g>
	<path d="M18.168,15.513c1.744,0,3.16-2.024,3.16-3.77c0-1.746-1.416-3.161-3.16-3.161c-1.746,0-3.162,1.415-3.162,3.161
		C15.006,13.488,16.422,15.513,18.168,15.513z"/>
	<path d="M24.355,17.708c-0.023-0.088-0.041-0.176-0.083-0.257c-0.037-0.072-0.09-0.13-0.14-0.192
		c-0.049-0.063-0.092-0.128-0.153-0.181c-0.071-0.062-0.153-0.1-0.236-0.144c-0.052-0.027-0.092-0.07-0.149-0.091
		c-0.113-0.041-2.629-0.943-4.942-1.062l-0.318,0.635h-0.008l0.842,6.557l-1,1.747l-1-1.747l0.842-6.557H18l-0.313-0.627
		c-2.108,0.106-4.379,0.856-4.853,1.021c-0.021,0.006-0.04,0.014-0.06,0.021c-0.012,0.005-0.027,0.01-0.032,0.012
		c-0.025,0.009-0.042,0.029-0.065,0.04c-0.121,0.053-0.234,0.113-0.332,0.201c-0.046,0.041-0.076,0.091-0.115,0.137
		c-0.062,0.074-0.125,0.145-0.169,0.232c-0.04,0.078-0.055,0.162-0.078,0.247c-0.017,0.062-0.05,0.114-0.057,0.18l-1,9
		c-0.076,0.686,0.418,1.304,1.104,1.38c0.047,0.006,0.094,0.008,0.14,0.008c0.628,0,1.17-0.473,1.241-1.112l0.911-8.197
		c0.106-0.032,0.223-0.066,0.347-0.102v8.532l-0.995,12.371c-0.066,0.825,0.549,1.549,1.375,1.615
		c0.041,0.003,0.082,0.005,0.122,0.005c0.774,0,1.431-0.595,1.494-1.38l0.899-11.181c0.186,0.082,0.39,0.13,0.605,0.13
		s0.42-0.048,0.605-0.13l0.899,11.181c0.063,0.785,0.72,1.38,1.494,1.38c0.04,0,0.081-0.002,0.122-0.005
		c0.826-0.066,1.441-0.79,1.375-1.615L21.668,27.39v-8.532c0.124,0.035,0.241,0.069,0.347,0.102l0.911,8.197
		c0.071,0.64,0.612,1.112,1.241,1.112c0.046,0,0.093-0.003,0.14-0.008c0.686-0.076,1.18-0.694,1.104-1.38l-1-9
		C24.404,17.818,24.371,17.768,24.355,17.708z"/>
	<path d="M30.374,18.818l3.326-1.749l3.326,1.749l-0.635-3.704l2.691-2.623l-3.719-0.538L33.7,8.582l-1.663,3.371l-3.719,0.538
		l2.691,2.623L30.374,18.818z M32.873,13.104l0.827-1.677l0.827,1.677l1.848,0.267l-1.337,1.306l0.316,1.842l-1.654-0.87
		l-1.654,0.87l0.316-1.842l-1.337-1.306L32.873,13.104z"/>
	<path d="M33.7,19.881l-1.663,3.37l-3.719,0.542l2.691,2.622l-0.635,3.704L33.7,28.37l3.326,1.749l-0.635-3.704l2.691-2.622
		l-3.719-0.542L33.7,19.881z M35.354,27.814L33.7,26.949l-1.654,0.865l0.316-1.84l-1.337-1.304l1.848-0.27l0.827-1.674l0.827,1.674
		l1.848,0.27l-1.337,1.304L35.354,27.814z"/>
	<path d="M35.363,34.552l-1.663-3.37l-1.663,3.37l-3.719,0.54l2.691,2.622l-0.635,3.704l3.326-1.75l3.326,1.75l-0.635-3.704
		l2.691-2.622L35.363,34.552z M35.354,39.117L33.7,38.248l-1.654,0.869l0.316-1.842l-1.337-1.307l1.848-0.267l0.827-1.676
		l0.827,1.676l1.848,0.267l-1.337,1.307L35.354,39.117z"/>
</g>
</svg>
