<?xml version="1.0" encoding="utf-8"?>
<!-- Generator: Adobe Illustrator 16.0.0, SVG Export Plug-In . SVG Version: 6.00 Build 0)  -->
<!DOCTYPE svg PUBLIC "-//W3C//DTD SVG 1.1//EN" "http://www.w3.org/Graphics/SVG/1.1/DTD/svg11.dtd">
<svg version="1.1" id="Layer_1" xmlns="http://www.w3.org/2000/svg" xmlns:xlink="http://www.w3.org/1999/xlink" x="0px" y="0px"
	 width="50px" height="50px" viewBox="0 0 50 50" enable-background="new 0 0 50 50" xml:space="preserve">
<g>
	<path d="M21.348,15.531c1.744,0,3.16-2.024,3.16-3.769c0-1.746-1.416-3.161-3.16-3.161c-1.746,0-3.162,1.416-3.162,3.161
		C18.186,13.507,19.602,15.531,21.348,15.531z"/>
	<path d="M27.536,17.732c-0.023-0.092-0.043-0.182-0.086-0.266c-0.033-0.063-0.08-0.112-0.122-0.167
		c-0.056-0.074-0.107-0.147-0.179-0.208c-0.057-0.047-0.123-0.076-0.187-0.113c-0.064-0.038-0.117-0.089-0.189-0.115
		c-0.113-0.041-2.629-0.943-4.941-1.062l-0.318,0.636h-0.008l0.842,6.556l-1,1.747l-1-1.747l0.842-6.556h-0.01L20.862,15.8
		c-2.312,0.119-4.827,1.021-4.94,1.062c-0.073,0.026-0.127,0.079-0.191,0.117c-0.062,0.037-0.128,0.064-0.183,0.111
		c-0.074,0.062-0.127,0.138-0.185,0.214c-0.04,0.054-0.085,0.101-0.117,0.161c-0.044,0.085-0.063,0.177-0.088,0.271
		c-0.015,0.056-0.046,0.104-0.053,0.163l-1,9c-0.076,0.686,0.418,1.304,1.104,1.38c0.047,0.005,0.093,0.008,0.14,0.008
		c0.628,0,1.169-0.473,1.24-1.112l0.911-8.198c0.106-0.032,0.223-0.066,0.347-0.101v8.532l-0.995,12.371
		c-0.066,0.826,0.549,1.549,1.375,1.615c0.041,0.003,0.081,0.005,0.122,0.005c0.773,0,1.43-0.595,1.493-1.38l0.899-11.181
		c0.186,0.082,0.39,0.129,0.605,0.129s0.42-0.047,0.605-0.129l0.899,11.181c0.063,0.785,0.72,1.38,1.493,1.38
		c0.041,0,0.081-0.001,0.122-0.005c0.826-0.066,1.441-0.79,1.375-1.615l-0.995-12.371v-8.532c0.124,0.035,0.24,0.069,0.347,0.101
		l0.911,8.198c0.071,0.639,0.612,1.112,1.24,1.112c0.047,0,0.093-0.002,0.14-0.008c0.687-0.076,1.181-0.694,1.104-1.38l-1-9
		C27.583,17.838,27.551,17.79,27.536,17.732z"/>
	<polygon points="31.051,24.577 34.754,24.577 34.754,18.148 35.902,18.148 32.902,13.445 29.902,18.148 31.051,18.148 	"/>
	<polygon points="34.754,25.423 31.051,25.423 31.051,31.852 29.902,31.852 32.902,36.555 35.902,31.852 34.754,31.852 	"/>
</g>
</svg>
