<?xml version="1.0" encoding="utf-8"?>
<!-- Generator: Adobe Illustrator 16.0.0, SVG Export Plug-In . SVG Version: 6.00 Build 0)  -->
<!DOCTYPE svg PUBLIC "-//W3C//DTD SVG 1.1//EN" "http://www.w3.org/Graphics/SVG/1.1/DTD/svg11.dtd">
<svg version="1.1" id="Layer_1" xmlns="http://www.w3.org/2000/svg" xmlns:xlink="http://www.w3.org/1999/xlink" x="0px" y="0px"
	 width="50px" height="50px" viewBox="0 0 50 50" enable-background="new 0 0 50 50" xml:space="preserve">
<g>
	<path d="M22.896,17.536c0,1.473,1.194,3.182,2.668,3.182c1.471,0,2.666-1.709,2.666-3.182c0-1.474-1.195-2.668-2.666-2.668
		C24.091,14.868,22.896,16.062,22.896,17.536z"/>
	<path d="M34.812,27.22l-4.219-5.062c-0.015-0.018-0.036-0.024-0.052-0.041c-0.049-0.052-0.105-0.092-0.164-0.134
		c-0.059-0.04-0.115-0.081-0.18-0.108c-0.02-0.009-0.034-0.026-0.056-0.033c-0.096-0.034-2.23-0.802-4.187-0.897l-0.252,0.502
		h-0.007l0.711,5.533l-0.844,1.473l-0.844-1.473l0.71-5.533h-0.008l-0.248-0.498c-1.367,0.066-2.818,0.456-3.604,0.7l-4.614-3.845
		c-0.109-0.091-0.231-0.155-0.36-0.195l1.194-4.028c3.246-2.15,6.588,1.099,9.586-3.912c-4.354,1.658-4.954-2.969-7.897-2.007
		c-0.027-0.087-0.081-0.163-0.174-0.191C19.15,7.418,18.997,7.51,18.953,7.66l-2.95,9.956c-0.199,0.056-0.389,0.15-0.53,0.321
		c-0.337,0.404-0.303,0.974,0.032,1.357l-0.55,1.855c-0.045,0.151,0.041,0.309,0.191,0.353c0.027,0.01,0.055,0.013,0.081,0.013
		c0.123,0,0.235-0.08,0.271-0.203l0.471-1.588l4.701,3.917c0.041,0.034,0.091,0.05,0.135,0.078c0.046,0.027,0.088,0.058,0.138,0.077
		c0.079,0.034,0.161,0.05,0.244,0.062c0.043,0.008,0.083,0.021,0.128,0.022c0.01,0,0.019,0.005,0.028,0.005
		c0.112,0,0.221-0.023,0.326-0.058c0.012-0.003,0.022-0.001,0.033-0.006c0.01-0.003,0.372-0.132,0.908-0.283v7.199l-0.84,10.438
		c-0.056,0.696,0.463,1.308,1.16,1.363c0.035,0.003,0.068,0.004,0.103,0.004c0.653,0,1.207-0.501,1.261-1.164l0.759-9.435
		c0.156,0.069,0.328,0.11,0.511,0.11c0.182,0,0.354-0.041,0.512-0.11l0.758,9.435c0.054,0.663,0.607,1.164,1.261,1.164
		c0.034,0,0.068-0.001,0.103-0.004c0.697-0.056,1.217-0.667,1.16-1.363l-0.839-10.438V23.54c0.266,0.075,0.488,0.145,0.646,0.196
		l4.027,4.833c0.208,0.25,0.508,0.38,0.812,0.38c0.238,0,0.477-0.08,0.673-0.245C35.125,28.332,35.187,27.668,34.812,27.22z"/>
</g>
</svg>
