<?xml version="1.0" encoding="utf-8"?>
<!-- Generator: Adobe Illustrator 16.0.0, SVG Export Plug-In . SVG Version: 6.00 Build 0)  -->
<!DOCTYPE svg PUBLIC "-//W3C//DTD SVG 1.1//EN" "http://www.w3.org/Graphics/SVG/1.1/DTD/svg11.dtd">
<svg version="1.1" id="Layer_3" xmlns="http://www.w3.org/2000/svg" xmlns:xlink="http://www.w3.org/1999/xlink" x="0px" y="0px"
	 width="126px" height="126px" viewBox="0 0 126 126" enable-background="new 0 0 126 126" xml:space="preserve">
<g>
	<path d="M123.871,56.347c0.202-0.652,0.313-1.345,0.313-2.063c0.003-3.855-3.119-6.983-6.976-6.986L73.84,47.263
		c-1.759-1.041-3.67-1.827-5.617-2.305l-4.479,4.509L59.4,44.909c-0.015,0.003-0.029,0.003-0.045,0.007
		c-2.011,0.481-3.984,1.295-5.795,2.38L9.395,47.261c-0.002,0-0.004,0-0.005,0c-3.853,0-6.979,3.122-6.981,6.975
		c0,0.532,0.064,1.047,0.177,1.545c-2.894,3.288-2.729,8.296,0.453,11.372l45.396,43.889c3.422,4.371,9.253,7.003,15.311,7.003
		c2.861,0,5.67-0.594,8.203-1.672c0.929-0.286,1.816-0.741,2.617-1.363c2.195-1.357,4.058-3.127,5.386-5.242l43.085-42.686
		C125.978,64.167,126.256,59.587,123.871,56.347z M45.341,85.103L20.649,61.23l24.691,0.02V85.103z M82.146,61.23l23.333,0.018
		L82.146,84.365V61.23z"/>
	<circle cx="63.744" cy="25.935" r="17.98"/>
</g>
</svg>
