<?xml version="1.0" encoding="utf-8"?>
<!-- Generator: Adobe Illustrator 16.0.0, SVG Export Plug-In . SVG Version: 6.00 Build 0)  -->
<!DOCTYPE svg PUBLIC "-//W3C//DTD SVG 1.1//EN" "http://www.w3.org/Graphics/SVG/1.1/DTD/svg11.dtd">
<svg version="1.1" id="Layer_1" xmlns="http://www.w3.org/2000/svg" xmlns:xlink="http://www.w3.org/1999/xlink" x="0px" y="0px"
	 width="126px" height="126px" viewBox="0 0 126 126" enable-background="new 0 0 126 126" xml:space="preserve">
<g>
	<circle cx="59.2" cy="13.098" r="11.965"/>
	<path d="M80.998,13.959c-3.012-0.645-5.995-0.083-8.469,1.342c-0.031,0.185-0.051,0.37-0.09,0.554
		c-0.767,3.579-2.934,6.588-5.842,8.511c-0.662,6.026,3.333,11.695,9.389,12.993c6.461,1.384,12.823-2.732,14.207-9.194
		C91.576,21.704,87.459,15.344,80.998,13.959z"/>
	<path d="M66.311,89.401c-1.137-6.807-2.75-13.098-3.765-15.731c-1.629-0.447-4.412-1.023-7.703-1.612
		c0.104,2.614,1.483,4.923,3.473,6.619l-0.024,39.854c-0.002,3.499,2.833,6.337,6.332,6.339c0.001,0,0.002,0,0.003,0
		c3.497,0,6.333-2.834,6.334-6.331l0.014-23.558C68.579,94.131,66.752,92.043,66.311,89.401z"/>
	<path d="M69.845,55.341c-0.422,1.771,1.45,5.855,8.337,9.849c0.232,0.134,0.447,0.287,0.653,0.447l3.324-15.512
		C82.159,50.125,71.204,51.385,69.845,55.341z"/>
	<path d="M78.996,39.935l-1.21,0.005c-17.32-1.433-11.548-8.752-21.25-14.419c0,0-1.154-0.634-2.471-0.885
		c-1.259-0.24-2.719-0.248-2.719-0.248l-0.036-0.002c-4.142,0.12-9.021,2.429-10.051,7.241l-5.533,25.826
		c-1.021,4.766,2.313,8.842,6.504,10.643c0.593,0.336,1.256,0.57,1.973,0.667c0.019,0.003,0.039,0.005,0.059,0.008
		c0.085,0.02,0.169,0.047,0.254,0.065c0.645,0.14,1.304,0.209,1.964,0.247c7.012,1.012,14.694,2.408,17.423,3.297
		c1.166,2.47,3.021,9.863,4.187,16.845c0.449,2.685,2.774,4.587,5.408,4.587c0.3,0,0.604-0.024,0.91-0.076
		c2.99-0.5,5.01-3.327,4.511-6.317c-0.787-4.714-1.578-8.472-2.349-11.489c-0.571,0.181-1.168,0.288-1.782,0.288
		c-1.037,0-2.061-0.276-2.961-0.799c-7.503-4.351-12.285-9.874-13.784-15.597c-0.119-0.022-0.194-0.811-0.194-0.811
		c-0.441-2.132-0.436-4.285,0.071-6.41c0.454-1.903,1.273-3.63,2.408-5.163l1.649-1.876c1.441-1.392,3.196-2.566,5.234-3.492
		c0.138,0.386,0.31,0.765,0.497,1.142c-4.415,2.063-7.387,5.358-8.391,9.568c-1.798,7.543,3.178,15.554,13.311,21.429
		c0.733,0.426,1.535,0.628,2.326,0.628c1.603,0,3.161-0.83,4.022-2.316c1.287-2.219,0.531-5.061-1.688-6.349
		c-7.047-4.087-9.565-8.589-8.934-11.237c1.119-5.729,12.575-5.577,13.369-6.6c1.16-0.845,1.916-2.208,1.916-3.753
		C83.641,42.015,81.562,39.935,78.996,39.935z"/>
</g>
</svg>
