<?xml version="1.0" encoding="utf-8"?>
<!-- Generator: Adobe Illustrator 16.0.0, SVG Export Plug-In . SVG Version: 6.00 Build 0)  -->
<!DOCTYPE svg PUBLIC "-//W3C//DTD SVG 1.1//EN" "http://www.w3.org/Graphics/SVG/1.1/DTD/svg11.dtd">
<svg version="1.1" id="Layer_3" xmlns="http://www.w3.org/2000/svg" xmlns:xlink="http://www.w3.org/1999/xlink" x="0px" y="0px"
	 width="126px" height="126px" viewBox="0 0 126 126" enable-background="new 0 0 126 126" xml:space="preserve">
<g>
	<path d="M96.565,113.927c-6.615-5.042-14.465-11.759-16.136-14.141c-0.784-3.526-2.981-14.551-4.014-19.75
		c0.487-1.084,0.764-2.299,0.752-3.641l-0.238-27.9c-0.036-4.065-2.865-7.05-6.126-8.631V6.121c0-2.709-2.198-4.907-4.908-4.907
		s-4.908,2.198-4.908,4.907v33.255c-3.761,1.434-7.297,4.708-7.257,9.319l0.226,26.148c-7.111,2.932-16.108,6.951-18.777,9.515
		c-1.313,1.261-4.392,4.218-7.986,33.931c-0.384,3.181,1.882,6.07,5.063,6.455c0.236,0.028,0.472,0.042,0.703,0.042
		c2.893,0,5.395-2.161,5.751-5.104c1.3-10.75,3.505-23.75,4.879-27.208c2.28-1.475,9.478-4.728,16.218-7.488
		c1.816,0.873,3.86,1.34,5.849,1.323c0.061,0,0.12-0.009,0.181-0.011c1.206,6.053,2.867,14.298,3.422,16.667
		c0.37,1.577,1.351,5.765,20.279,20.188c1.05,0.8,2.285,1.187,3.511,1.187c1.748,0,3.477-0.788,4.617-2.285
		C99.604,119.507,99.114,115.868,96.565,113.927z"/>
	<path d="M59.084,36.35V14.568c-3.767,2.217-6.285,6.318-6.246,11.002C52.879,30.176,55.385,34.172,59.084,36.35z"/>
	<path d="M78.118,25.353c-0.037-4.357-2.276-8.18-5.65-10.424v21.057C75.902,33.7,78.156,29.787,78.118,25.353z"/>
</g>
</svg>
