<?xml version="1.0" encoding="utf-8"?>
<!-- Generator: Adobe Illustrator 16.0.0, SVG Export Plug-In . SVG Version: 6.00 Build 0)  -->
<!DOCTYPE svg PUBLIC "-//W3C//DTD SVG 1.1//EN" "http://www.w3.org/Graphics/SVG/1.1/DTD/svg11.dtd">
<svg version="1.1" id="Layer_3" xmlns="http://www.w3.org/2000/svg" xmlns:xlink="http://www.w3.org/1999/xlink" x="0px" y="0px"
	 width="126px" height="126px" viewBox="0 0 126 126" enable-background="new 0 0 126 126" xml:space="preserve">
<g>
	<circle cx="63.278" cy="46.658" r="9.06"/>
	<path d="M93.47,1.832H32.53c-0.789,0-1.428,0.639-1.428,1.428v31.897c0,0.789,0.64,1.429,1.428,1.429h5.491
		c-0.743,1.133-0.796,2.642-0.01,3.851l15.287,23.456c0.2,0.306,0.441,0.564,0.708,0.784v19.438c0,0.947,0.184,1.829,0.505,2.641
		c-0.024,0.185-0.042,0.371-0.042,0.562l0.034,32.698c0.002,2.294,1.863,4.152,4.157,4.152c0.001,0,0.003,0,0.005,0
		c2.295-0.003,4.154-1.866,4.151-4.16L62.79,92.089c0.163,0.008,0.326,0.02,0.49,0.02c0.033,0,0.065-0.002,0.098-0.002
		l-0.001,27.732c0,2.296,1.862,4.157,4.156,4.157c2.297,0,4.157-1.861,4.157-4.155l0.001-32.321c0.545-1.01,0.862-2.151,0.862-3.404
		V64.118c0-0.008-0.001-0.017-0.001-0.025c0.05-0.066,0.104-0.129,0.15-0.2l15.287-23.456c0.787-1.209,0.733-2.718-0.01-3.851h5.491
		c0.789,0,1.428-0.64,1.428-1.429V3.26C94.898,2.471,94.258,1.832,93.47,1.832z M63.297,74.35h-0.036l-1.846-2.527l1.43-9.561
		c0.143-0.383,0.204-0.792,0.18-1.204l0.236-1.577h0.036l1.846,12.342L63.297,74.35z M82.096,36.595L68.486,57.476
		c-0.919-0.56-1.925-0.981-2.951-1.234l-2.255,2.273l-2.188-2.298c-0.007,0.002-0.015,0.002-0.022,0.005
		c-1.192,0.285-2.36,0.799-3.395,1.5L43.906,36.595c-0.002-0.003-0.006-0.006-0.007-0.009h38.204
		C82.101,36.589,82.098,36.592,82.096,36.595z M92.041,33.729H33.958V4.688h58.083V33.729z"/>
</g>
</svg>
