<?xml version="1.0" encoding="iso-8859-1"?>
<!-- Generator: Adobe Illustrator 17.1.0, SVG Export Plug-In . SVG Version: 6.00 Build 0)  -->
<!DOCTYPE svg PUBLIC "-//W3C//DTD SVG 1.1//EN" "http://www.w3.org/Graphics/SVG/1.1/DTD/svg11.dtd">
<svg version="1.1" id="Layer_1" xmlns="http://www.w3.org/2000/svg" xmlns:xlink="http://www.w3.org/1999/xlink" x="0px" y="0px"
	 viewBox="0 0 128 128" style="enable-background:new 0 0 128 128;" xml:space="preserve">
<g>
	<circle cx="59.109" cy="20.626" r="9.387"/>
	<circle cx="82.419" cy="11.239" r="6.171"/>
	<path d="M94.384,29.054c-0.407-3.451-1.209-8.306-1.716-10.996c-0.382-2.027-2.175-2.39-3.116-2.036
		c-0.703,0.265-3.184,1.343-3.547,1.619c-1.092,0.83-1.449,2.033-1.648,2.426c-1.692,3.341-2.233,2.74-5.781,2.276
		c-0.247-0.032-0.653-0.075-0.896-0.019c-0.987,0.229-1.334,1.291-1.418,1.952c-0.031,0.247,0.006,0.654,0.095,0.887
		c0.268,0.696,1.183,1.868,4.409,2.159l-6.596,8.001l-7.535-1.308c-0.004-0.001-0.007-0.003-0.01-0.003l-0.213-0.039
		c-0.12-0.026-0.239-0.049-0.361-0.066l-12.953-2.363c-1.087-0.198-2.139,0.579-2.35,1.736l-6.679,36.608
		c-0.741,5.335,2.287,6.568,3.373,6.766l5.404,0.986l2.495,8.973l-3.405,33.437c-0.279,2.748,1.721,5.201,4.468,5.481
		c0.173,0.018,0.344,0.025,0.513,0.025c2.534,0,4.706-1.919,4.969-4.493l0.194-1.905l3.306-32.47c0.062-0.62,0.01-1.246-0.157-1.847
		L61.7,72.149l3.803-20.845l2.125-6.967l8.006,1.39c0.071,0.012,0.141,0.009,0.212,0.018c0.215,0.028,0.431,0.055,0.645,0.055
		c1.636,0,3.191-0.804,4.132-2.186l3-3.766c0.026,0.022,0.027,0.081,0.03,0.191c0.028,1.055-0.013,4.005,0.036,6.055
		c0.052,2.156,0.984,3.28,3.02,3.28c2.26,0,3.188-1.311,3.21-3.28c0.02-1.751-0.049-4.203-0.049-4.999
		C89.869,37.094,95.199,35.955,94.384,29.054z"/>
</g>
</svg>
