<?xml version="1.0" encoding="utf-8"?>
<!-- Generator: Adobe Illustrator 16.0.0, SVG Export Plug-In . SVG Version: 6.00 Build 0)  -->
<!DOCTYPE svg PUBLIC "-//W3C//DTD SVG 1.1//EN" "http://www.w3.org/Graphics/SVG/1.1/DTD/svg11.dtd">
<svg version="1.1" id="Layer_1" xmlns="http://www.w3.org/2000/svg" xmlns:xlink="http://www.w3.org/1999/xlink" x="0px" y="0px"
	 width="126px" height="126px" viewBox="0 0 126 126" enable-background="new 0 0 126 126" xml:space="preserve">
<g>
	<path d="M43.444,43.24l-1.152-0.439v-6.145c1.764,0.189,3.56,0.64,5.343,1.344l0.444,0.176l1.758-4.403l-0.438-0.181
		c-2.238-0.922-4.627-1.457-7.107-1.592v-3.193h-3.518v3.283c-2.244,0.29-4.07,1.009-5.429,2.134
		c-1.487,1.231-2.242,2.823-2.242,4.733c0,1.767,0.527,3.272,1.568,4.477c1.015,1.178,2.629,2.197,4.803,3.032l1.3,0.479v6.362
		c-1.006-0.051-2.135-0.231-3.364-0.536c-1.434-0.356-2.704-0.801-3.771-1.322l-0.691-0.337v5.133l0.283,0.129
		c1.987,0.899,4.524,1.401,7.543,1.494v4.066h3.518v-4.226c2.448-0.328,4.371-1.099,5.723-2.298c1.46-1.294,2.2-2.962,2.2-4.953
		c0-1.616-0.513-3.004-1.526-4.129C47.691,45.224,45.977,44.213,43.444,43.24z M38.774,41.464c-0.771-0.353-1.319-0.704-1.64-1.046
		c-0.371-0.398-0.553-0.888-0.553-1.5c0-0.563,0.21-1.025,0.646-1.407c0.369-0.324,0.889-0.566,1.547-0.724V41.464z M42.292,53.07
		v-4.852c0.819,0.344,1.423,0.693,1.8,1.041c0.421,0.389,0.625,0.875,0.625,1.484C44.717,51.199,44.717,52.525,42.292,53.07z"/>
	<circle cx="94.722" cy="37.82" r="11.671"/>
	<path d="M70.869,67.028v6.355h-1.541c-0.207,1.487-0.308,2.81-0.354,3.797h5.69V62.025c-0.319,0.12-0.653,0.202-0.999,0.215
		C72.444,63.547,71.542,65.234,70.869,67.028z"/>
	<rect x="66.607" y="84.025" width="50.624" height="32.421"/>
	<path d="M116.908,78.075c2.414-15.389-9.98-23.007-14.641-25.865c-0.151-0.092-0.312-0.154-0.469-0.228
		c-1.279-0.839-2.711-1.457-4.169-1.815l-2.907,2.93l-2.819-2.959c-0.01,0-0.02,0-0.029,0.004c-1.397,0.333-2.771,0.914-4.011,1.695
		c-0.31,0.093-0.615,0.215-0.909,0.38c-1.808,1.018-3.526,1.215-5.408,0.629c-2.433-0.758-4.796-2.674-6.881-4.932V15.676h6.833
		V9.554H1.013v6.122h3.79v61.505h32.274v23.727H24.045v15.376h30.94v-15.376H42.391V77.181h20.992
		c0.04-1.061,0.129-2.363,0.302-3.797H8.599V17.573h62.271v25.509c-1.404-2.069-2.481-3.983-3.068-5.183
		c-1.093-2.251-3.804-3.189-6.057-2.097c-0.208,0.101-0.394,0.229-0.579,0.358c-3.466-8.048-11.469-13.695-20.771-13.695
		c-12.468,0-22.611,10.146-22.611,22.613s10.144,22.612,22.611,22.612c10.442,0,19.252-7.121,21.837-16.758
		c0,0,0.445-1.736,0.563-2.927c0.029-0.17,0.053-0.365,0.074-0.567c1.928,2.944,4.642,6.507,8.001,9.399v0.002
		c0.324-0.427,0.738-0.785,1.234-1.019l3.263-1.532c0.45-0.211,0.93-0.318,1.425-0.318c1.299,0,2.492,0.758,3.042,1.934
		c0.38,0.81,0.421,1.722,0.116,2.564c-0.305,0.844-0.919,1.518-1.73,1.897l-1.06,0.498c0.547,0.233,1.102,0.448,1.669,0.626
		c1.313,0.41,2.632,0.64,3.947,0.708v15.876H67.356c0.079-3.564,0.771-13.011,5.788-17.597c0.378,0.105,0.792,0.086,1.176-0.095
		l3.265-1.532c0.854-0.398,1.221-1.418,0.819-2.272c-0.398-0.854-1.418-1.221-2.272-0.819l-3.264,1.532
		c-0.518,0.242-0.853,0.71-0.951,1.231c-6.027,5.161-6.779,15.65-6.844,19.552h-1.714h-2.516v3.511h64.144v-3.511H116.908z
		 M42.391,104.704h8.798v7.783H27.842v-7.783h9.235v4.513h5.313V104.704z M40.395,63.893c-10.375,0-18.815-8.439-18.815-18.813
		c0-10.375,8.44-18.815,18.815-18.815c10.374,0,18.815,8.44,18.815,18.815C59.21,55.453,50.769,63.893,40.395,63.893z M94.75,76.195
		h-0.055l-2.813-3.852l2.813-18.815h0.055l2.814,18.815L94.75,76.195z M107.662,78.075h-0.994v-9.697
		C108.04,70.972,108.558,74.122,107.662,78.075z"/>
</g>
</svg>
