<?xml version="1.0" encoding="utf-8"?>
<!-- Generator: Adobe Illustrator 17.0.0, SVG Export Plug-In . SVG Version: 6.00 Build 0)  -->
<!DOCTYPE svg PUBLIC "-//W3C//DTD SVG 1.1//EN" "http://www.w3.org/Graphics/SVG/1.1/DTD/svg11.dtd">
<svg version="1.1" id="Layer_1" xmlns="http://www.w3.org/2000/svg" xmlns:xlink="http://www.w3.org/1999/xlink" x="0px" y="0px"
	 width="126px" height="126px" viewBox="0 0 126 126" enable-background="new 0 0 126 126" xml:space="preserve">
<path d="M96.076,52.744c-0.123-0.078-0.257-0.127-0.386-0.188c-1.052-0.691-2.232-1.201-3.432-1.494l-2.396,2.41l-2.319-2.438
	c-0.011,0.002-0.017,0.002-0.026,0.004c-1.15,0.275-2.281,0.754-3.303,1.396c-0.256,0.078-0.505,0.18-0.748,0.314
	c-1.488,0.838-2.903,1-4.452,0.518c-5.132-1.602-9.914-9.432-11.321-12.309c-0.042-0.09-0.105-0.166-0.153-0.252L78.618,16.49
	L46.588,1.836l-10.65,4.682L17.603,46.586L56.67,64.463l7.076-15.469c2.716,4.107,7.254,9.584,13.03,11.393
	c1.08,0.336,2.168,0.525,3.251,0.582v19.666c0,1.014,0.198,1.959,0.549,2.826c-0.024,0.189-0.057,0.373-0.057,0.568l0.036,35.73
	c0.002,2.434,1.976,4.404,4.41,4.404c0,0,0.002,0,0.006,0c2.435-0.002,4.405-1.979,4.403-4.414l-0.032-30.66
	c0.174,0.008,0.349,0.021,0.521,0.021c0.036,0,0.07-0.002,0.108-0.002L90,119.758c0.002,2.436,1.976,4.406,4.408,4.406
	c0.002,0,0.004,0,0.004,0c2.437-0.002,4.41-1.977,4.408-4.412l-0.032-35.047c0.23,0.219,0.483,0.424,0.778,0.584
	c0.566,0.307,1.179,0.453,1.781,0.453c1.322,0,2.603-0.705,3.277-1.949C115.154,64.445,100.796,55.639,96.076,52.744z M44.735,6.215
	l-0.776,3.209l-3.502-1.33L44.735,6.215z M62.71,39.236c-1.854,0.898-2.626,3.131-1.727,4.984c0.105,0.219,0.35,0.711,0.724,1.393
	l-6.646,14.524l-33.133-15.16l15.76-34.441l6.813,2.582l2.342-1.73l1.27-5.264l26.181,11.979l-9.511,20.791
	C64.095,38.81,63.38,38.912,62.71,39.236z M89.887,72.494h-0.044l-2.317-3.172l2.317-15.492h0.044l2.317,15.492L89.887,72.494z
	 M99.702,76.725V66.057C101.125,68.752,101.445,72.164,99.702,76.725z M80.252,40.895c0-5.308,4.303-9.611,9.611-9.611
	c5.308,0,9.611,4.303,9.611,9.611c0,5.308-4.303,9.611-9.611,9.611C84.555,50.506,80.252,46.203,80.252,40.895z M70.093,20.795
	l-1.46,3.217l-18.818-8.539l1.46-3.217L70.093,20.795z M60.902,31.078l2.327,0.447l-2.343,5.166c-0.061,0.133-0.219,0.19-0.35,0.132
	l-3.253-1.477c-0.132-0.061-0.193-0.215-0.13-0.35l3.292-7.254c0.002-0.007,0.009-0.015,0.013-0.025l0.982,1.32L60.605,29.6
	c-0.18,0.121-0.308,0.31-0.346,0.525c-0.022,0.103-0.019,0.209,0,0.316c0.055,0.256,0.225,0.469,0.461,0.576
	C60.779,31.045,60.841,31.066,60.902,31.078z M51.34,32.36l3.591-7.922l2.584-0.662l1.381,1.85l-3.825,8.428
	c-0.059,0.131-0.217,0.192-0.348,0.131l-3.254-1.477C51.336,32.649,51.277,32.491,51.34,32.36z M45.976,30.213
	c-0.134-0.061-0.191-0.217-0.134-0.348l3.219-7.09l1.607,2.053c0.272,0.347,0.752,0.513,1.182,0.402l0.677-0.174l-2.95,6.504
	c-0.059,0.131-0.214,0.192-0.348,0.129L45.976,30.213z M65.182,27.434c0.066,0.043,0.101,0.125,0.085,0.203l-0.585,3.031
	c-0.02,0.107-0.123,0.179-0.232,0.156l-3.029-0.582c-0.08-0.015-0.141-0.078-0.157-0.158c-0.006-0.023-0.006-0.051,0-0.076
	c0.008-0.051,0.038-0.098,0.081-0.129l1.373-0.926l-4.554-6.107l-6.066,1.557c-0.202,0.052-0.418-0.022-0.546-0.186l-3.208-4.091
	c-0.178-0.23-0.138-0.56,0.091-0.74c0.23-0.181,0.562-0.14,0.742,0.09l2.991,3.822l6.073-1.561c0.209-0.053,0.425,0.025,0.555,0.195
	l4.794,6.432l1.369-0.928C65.028,27.389,65.115,27.389,65.182,27.434z M33.579,28.113l25.868,11.741l-1.311,2.889L32.268,31.002
	L33.579,28.113z M30.79,34.267l25.869,11.741l-1.311,2.888L29.479,37.154L30.79,34.267z M27.861,40.719l25.868,11.738l-1.31,2.887
	L26.551,43.606L27.861,40.719z"/>
</svg>
