<?xml version="1.0" encoding="utf-8"?>
<!-- Generator: Adobe Illustrator 16.0.0, SVG Export Plug-In . SVG Version: 6.00 Build 0)  -->
<!DOCTYPE svg PUBLIC "-//W3C//DTD SVG 1.1//EN" "http://www.w3.org/Graphics/SVG/1.1/DTD/svg11.dtd">
<svg version="1.1" id="Layer_3" xmlns="http://www.w3.org/2000/svg" xmlns:xlink="http://www.w3.org/1999/xlink" x="0px" y="0px"
	 width="126px" height="126px" viewBox="0 0 126 126" enable-background="new 0 0 126 126" xml:space="preserve">
<g>
	<circle cx="63.325" cy="13.665" r="13.059"/>
	<path d="M102.157,29.181l-31.498-0.024c-1.278-0.757-2.667-1.328-4.081-1.674l-3.253,3.275l-3.153-3.312
		c-0.012,0.003-0.021,0.003-0.032,0.006c-1.46,0.349-2.895,0.94-4.209,1.728l-32.08-0.024c-0.001,0-0.003,0-0.003,0
		c-2.799,0-5.068,2.267-5.07,5.065c-0.002,2.8,2.266,5.072,5.065,5.074l26.116,0.021V67.66c0,1.365,0.265,2.637,0.729,3.807
		c-0.036,0.266-0.061,0.533-0.061,0.809l0.05,47.133c0.002,3.307,2.685,5.985,5.991,5.985c0.002,0,0.005,0,0.007,0
		c3.309-0.004,5.988-2.689,5.984-5.998l-0.041-40.243c0.235,0.011,0.47,0.03,0.706,0.03c0.048,0,0.094-0.006,0.142-0.006
		l-0.002,39.977c0,3.309,2.683,5.992,5.991,5.992c3.31,0,5.992-2.683,5.992-5.991l0.002-46.589c0.785-1.455,1.242-3.101,1.242-4.906
		V39.301l25.457,0.019c0,0,0.003,0,0.004,0c2.798,0,5.067-2.267,5.069-5.065C107.225,31.455,104.957,29.183,102.157,29.181z"/>
</g>
</svg>
