<?xml version="1.0" encoding="utf-8"?>
<!-- Generator: Adobe Illustrator 16.0.0, SVG Export Plug-In . SVG Version: 6.00 Build 0)  -->
<!DOCTYPE svg PUBLIC "-//W3C//DTD SVG 1.1//EN" "http://www.w3.org/Graphics/SVG/1.1/DTD/svg11.dtd">
<svg version="1.1" id="Layer_3" xmlns="http://www.w3.org/2000/svg" xmlns:xlink="http://www.w3.org/1999/xlink" x="0px" y="0px"
	 width="126px" height="126px" viewBox="0 0 126 126" enable-background="new 0 0 126 126" xml:space="preserve">
<path d="M50.143,13.733c0-7.101,5.755-12.855,12.857-12.855c7.1,0,12.855,5.755,12.855,12.855S70.1,26.591,63,26.591
	C55.897,26.591,50.143,20.834,50.143,13.733z M110.547,38.725v48.551c0,1.002-0.813,1.814-1.815,1.814H74.936l-0.002,30.133
	c0,3.258-2.641,5.899-5.898,5.899c-3.257,0-5.897-2.642-5.897-5.899V89.09h-0.839v30.133c0,3.258-2.639,5.899-5.896,5.899
	c-3.259,0-5.899-2.641-5.899-5.898L50.501,89.09H17.269c-1.002,0-1.815-0.813-1.815-1.814V38.725c0-1.002,0.813-1.814,1.815-1.814
	h12.811c0.397-0.499,0.986-0.953,1.76-1.436c2.278-1.425,5.255-0.771,6.756,1.436h11.395c0.803-4.944,5.212-8.488,9.874-9.603
	c0.01-0.004,0.021-0.004,0.031-0.008L63,30.561l3.201-3.225c4.633,1.136,9.01,4.656,9.81,9.574h16.301
	c1.501-2.206,4.476-2.859,6.758-1.436c0.772,0.482,1.36,0.937,1.759,1.436h7.903C109.733,36.91,110.547,37.723,110.547,38.725z
	 M62.092,36.91h1.815l-0.878-5.873h-0.059L62.092,36.91z M106.916,40.539h-5.854c-0.227,0.998-0.769,2.086-1.895,3.109
	c-0.957,0.869-2.156,1.296-3.355,1.296c-1.358,0-2.709-0.55-3.695-1.635c-0.727-0.801-1.141-1.772-1.258-2.771H40.048
	c-0.116,0.998-0.53,1.97-1.259,2.771c-0.984,1.085-2.339,1.635-3.695,1.635c-1.197,0-2.398-0.427-3.355-1.296
	c-1.126-1.024-1.668-2.111-1.894-3.109H19.084v44.922h87.832V40.539z"/>
</svg>
