<?xml version="1.0" encoding="utf-8"?>
<!-- Generator: Adobe Illustrator 17.0.0, SVG Export Plug-In . SVG Version: 6.00 Build 0)  -->
<!DOCTYPE svg PUBLIC "-//W3C//DTD SVG 1.1//EN" "http://www.w3.org/Graphics/SVG/1.1/DTD/svg11.dtd">
<svg version="1.1" id="Capa_1" xmlns="http://www.w3.org/2000/svg" xmlns:xlink="http://www.w3.org/1999/xlink" x="0px" y="0px"
	 width="64px" height="64px" viewBox="0 0 64 64" enable-background="new 0 0 64 64" xml:space="preserve">
<path fill="#0E0F0F" d="M38.475,24.859c0.036,0.366-0.409,0.663-0.655,0.914c0.032,2.081-7.116,1.279-9.165,4.072
	c-1.497,2.042-1.851,6.379-1.964,9.821c0.375,0.674,1.928,3.648-2.75,2.095c-0.532-0.952-0.672-2.295-1.179-3.272
	c-0.905,0.822,0,3.142,0,3.142s-0.149,1.791-2.732,0.786c-2.275-1.13-1.363-4.809-1.589-7.988c-2.003,0.715-4.87,1.158-7.332,0.654
	c-0.065,1.551-0.351,2.88-0.262,4.584c2.097,0.963,1.346,4.076-1.571,2.75c-1.744-1.093-2.607-3.712-3.525-5.631
	c-0.387,1.008,0.017,2.164-0.271,3.273c1.347,1.16,0.757,3.683-2.095,2.357c-0.413-0.329-0.82-0.666-1.047-1.179
	c0-0.48,0-0.96,0-1.441c0.992-4.399-1.626-10.61,0.534-12.962c5.083-6.815,18.985-5.083,20.154-5.237
	c0.778-0.103,1.864,0.197,2.487,0.131c1-0.108,2.124-0.927,2.881-1.179l2.487-0.655c0.27-0.604,0.747-1,1.311-1.309
	c1.575,0,1.813,1.778,1.563,2.388C35.743,21.821,35.813,23.4,38.475,24.859z M49.463,23.764c0-1.176-0.953-2.129-2.129-2.129
	c-1.176,0-2.129,0.953-2.129,2.129c0,1.176,0.953,2.129,2.129,2.129C48.51,25.893,49.463,24.94,49.463,23.764z M58.638,43.647
	c-1.703-2.19-3.408-5.804-5.112-8.415c-0.102,0.252-0.287,0.482-0.581,0.648c-1.246,0.709-2.332,1.666-3.258,2.759
	c0.368,1.458,0.736,2.914,1.104,4.37c0.415,1.643-2.169,2.109-2.581,0.475c-0.388-1.534-0.773-3.066-1.162-4.597
	c-0.034-0.135-0.041-0.259-0.038-0.377c-0.094-0.318-0.046-0.681,0.235-1.035c0.353-0.445,0.726-0.867,1.116-1.271
	c-0.504,0.11-1.054-0.063-1.323-0.678c-1.268-2.912-0.645-5.647,0.792-8.353c0.153-0.29,0.361-0.455,0.588-0.531
	c0.457-0.425,1.076-0.682,1.693-0.676c0.159-0.052,0.342-0.073,0.552-0.051c2.121,0.23,4.102,0.889,5.823,2.174
	c1.395,1.042,0.035,3.415-1.379,2.36c-0.611-0.456-1.259-0.835-1.942-1.131c0.493,0.899,0.975,1.803,1.443,2.715
	c0.08,0.154,0.14,0.307,0.184,0.459c0.489,0.837,3.389,5.765,5.924,9.55C61.758,43.379,59.677,44.98,58.638,43.647z M50.715,34.204
	c-0.563-1.095-1.149-2.177-1.749-3.25c-0.251,1.154-0.194,2.328,0.334,3.542c0.114,0.262,0.133,0.509,0.087,0.733
	C49.809,34.864,50.252,34.522,50.715,34.204z"/>
</svg>
