<?xml version="1.0" encoding="utf-8"?>
<!-- Generator: Adobe Illustrator 16.0.0, SVG Export Plug-In . SVG Version: 6.00 Build 0)  -->
<!DOCTYPE svg PUBLIC "-//W3C//DTD SVG 1.1//EN" "http://www.w3.org/Graphics/SVG/1.1/DTD/svg11.dtd">
<svg version="1.1" id="Layer_3" xmlns="http://www.w3.org/2000/svg" xmlns:xlink="http://www.w3.org/1999/xlink" x="0px" y="0px"
	 width="126px" height="126px" viewBox="0 0 126 126" enable-background="new 0 0 126 126" xml:space="preserve">
<g>
	<path d="M9.509,85.143c0.456-0.351,1.186-0.525,2.188-0.525c1.94,0,4.245,0.611,6.915,1.835l2.363-5.958
		c-3.073-1.366-6.088-2.05-9.045-2.05c-3.347,0-5.979,0.734-7.891,2.207c-1.915,1.472-2.873,3.521-2.873,6.152
		c0,1.408,0.225,2.626,0.674,3.654c0.448,1.028,1.142,1.939,2.07,2.733c0.933,0.795,2.329,1.615,4.19,2.462
		c2.058,0.924,3.324,1.537,3.801,1.837c0.474,0.3,0.82,0.597,1.035,0.889c0.215,0.293,0.321,0.635,0.321,1.025
		c0,0.625-0.266,1.137-0.8,1.533c-0.535,0.398-1.373,0.596-2.521,0.596c-1.328,0-2.787-0.21-4.377-0.634
		c-1.589-0.424-3.119-1.014-4.59-1.768v6.876c1.394,0.665,2.734,1.129,4.024,1.396c1.289,0.268,2.886,0.402,4.785,0.402
		c2.279,0,4.267-0.381,5.96-1.143s2.989-1.83,3.887-3.204c0.898-1.375,1.348-2.946,1.348-4.72c0-1.926-0.479-3.524-1.435-4.795
		c-0.958-1.269-2.668-2.458-5.129-3.566c-2.566-1.171-4.14-1.978-4.718-2.422c-0.58-0.442-0.869-0.943-0.869-1.504
		C8.825,85.931,9.052,85.496,9.509,85.143z"/>
	<polygon points="21.7,85.164 28.674,85.164 28.674,107.415 36.393,107.415 36.393,85.164 43.347,85.164 43.347,78.854 21.7,78.854 
			"/>
	<path d="M58.702,78.404c-4.531,0-7.987,1.253-10.363,3.761c-2.378,2.508-3.566,6.137-3.566,10.892
		c0,4.805,1.194,8.464,3.586,10.977c2.39,2.514,5.824,3.772,10.304,3.772c4.545,0,7.997-1.251,10.354-3.753
		c2.358-2.5,3.537-6.152,3.537-10.958c0-4.818-1.173-8.472-3.516-10.959C66.692,79.647,63.248,78.404,58.702,78.404z M63.01,99.366
		c-0.944,1.34-2.392,2.012-4.348,2.012c-3.841,0-5.763-2.762-5.763-8.283c0-5.573,1.936-8.36,5.803-8.36
		c1.9,0,3.33,0.681,4.288,2.04c0.958,1.361,1.436,3.469,1.436,6.32C64.426,95.934,63.954,98.024,63.01,99.366z"/>
	<path d="M88.827,84.773c1.212,0,2.346,0.168,3.4,0.506c1.055,0.341,2.108,0.757,3.163,1.252l2.364-6.075
		c-2.813-1.342-5.762-2.012-8.85-2.012c-2.825,0-5.285,0.602-7.374,1.805c-2.09,1.206-3.692,2.927-4.807,5.168
		c-1.112,2.241-1.67,4.838-1.67,7.795c0,4.727,1.149,8.341,3.448,10.841c2.299,2.502,5.604,3.753,9.914,3.753
		c3.009,0,5.705-0.528,8.088-1.583v-6.524c-1.199,0.493-2.391,0.917-3.575,1.271c-1.185,0.351-2.411,0.525-3.673,0.525
		c-4.182,0-6.271-2.747-6.271-8.242c0-2.646,0.515-4.72,1.544-6.224C85.558,85.524,86.991,84.773,88.827,84.773z"/>
	<path d="M125.028,78.854h-8.438l-5.998,8.75c-1.187,1.667-1.974,2.886-2.364,3.654V78.854h-0.302
		c0.205-0.073,0.402-0.174,0.584-0.31c0.966-0.722,1.165-2.092,0.441-3.059c-1.157-1.547-2.21-3.697-2.145-4.371
		c0.317-0.951,1.887-2.439,2.86-3.155c0.244-0.179,0.439-0.396,0.584-0.637c0.083,0.002,0.167,0.004,0.254,0.004
		c0.139,0,0.278,0,0.416,0c0.493,8.386,1.629,9.674,2.01,10.106c0.674,0.766,1.705,1.145,3.087,1.145
		c1.467,0,3.328-0.429,5.572-1.286c1.124-0.431,1.689-1.693,1.26-2.819c-0.432-1.127-1.691-1.691-2.821-1.262
		c-1.372,0.523-2.997,0.932-3.868,0.998c-0.389-1.46-0.771-5-0.921-7.919c-0.008-0.16-0.035-0.314-0.075-0.462
		c0.136-0.303,0.213-0.666,0.213-1.105l0.308-8.49c0.755-0.124,1.488-0.415,2.155-0.874c1.918-1.328,4.513-3.516,2.504-13.966
		c-0.087-0.463-0.347-0.845-0.69-1.112h1.861V18.194l-21.668,3.095l0.997,6.986l9.054-1.292L80.382,59.624L59.538,43.766
		L27.306,60.481L9.448,52.566l-2.859,6.45l20.957,9.287l31.276-16.217l22.445,17.075l19.198-21.229
		c0.374,3.171,1.445,5.493,3.228,6.895c0.718,0.563,1.494,0.921,2.257,1.13v8.124c0,0.426,0.062,0.793,0.17,1.124
		c-1.151,0.984-2.9,2.726-3.494,4.643c-0.887,2.855,1.681,6.725,2.826,8.256c0.277,0.368,0.652,0.613,1.059,0.75h-6.039v28.561
		h7.756v-9.554l2.285-1.369l5.646,10.923h8.714l-8.851-15.768L125.028,78.854z M110.811,62.416l-1.149-1.574l1.149-7.674h0.023
		l1.147,7.674l-1.147,1.574H110.811z M104.005,45.511c-0.006-0.41-0.143-0.781-0.369-1.083l10.822-11.97v7.822h2.948
		c-0.534,0.414-0.83,1.101-0.692,1.811c1.364,7.109,0.546,9.173-0.978,10.227c-0.743,0.514-1.414,0.247-1.747,0.044
		c-0.344-0.211-0.729-0.293-1.103-0.265c-0.286-0.126-0.581-0.228-0.879-0.3l-1.186,1.194l-1.149-1.208
		c-0.006,0.002-0.01,0.002-0.014,0.002c-0.573,0.138-1.138,0.376-1.646,0.698c-0.37,0.044-1.238,0.063-2.034-0.563
		C104.72,50.931,104.036,48.713,104.005,45.511z"/>
	<circle cx="110.822" cy="46.759" r="4.761"/>
</g>
</svg>
