<?xml version="1.0" encoding="utf-8"?>
<!-- Generator: Adobe Illustrator 16.0.0, SVG Export Plug-In . SVG Version: 6.00 Build 0)  -->
<!DOCTYPE svg PUBLIC "-//W3C//DTD SVG 1.1//EN" "http://www.w3.org/Graphics/SVG/1.1/DTD/svg11.dtd">
<svg version="1.1" id="Layer_2" xmlns="http://www.w3.org/2000/svg" xmlns:xlink="http://www.w3.org/1999/xlink" x="0px" y="0px"
	 width="126px" height="126px" viewBox="0 0 126 126" enable-background="new 0 0 126 126" xml:space="preserve">
<g>
	<circle cx="37.646" cy="13.91" r="12.81"/>
	<path d="M50.759,51.317c1.826,3.664,3.585,7.75,5.383,11.928c0.592,1.378,1.188,2.764,1.793,4.148
		c0.816,1.87,2.643,2.984,4.56,2.984c0.665,0,1.34-0.134,1.988-0.416c2.517-1.099,3.666-4.031,2.567-6.549
		c-0.596-1.367-1.185-2.735-1.771-4.097c-5.333-12.402-10.372-24.118-19.111-29.478c-0.215-0.133-0.443-0.228-0.669-0.323
		c-1.426-0.952-3.027-1.65-4.661-2.052l-3.191,3.212l-3.093-3.248c-0.011,0.004-0.021,0.005-0.032,0.006
		c-1.632,0.391-3.232,1.081-4.66,2.023c-0.269,0.104-0.536,0.226-0.792,0.382c-11.101,6.81-14.136,17.905-15.85,36
		C12.96,68.572,14.968,71,17.702,71.26c0.159,0.015,0.319,0.021,0.474,0.021c2.537,0,4.702-1.93,4.946-4.505
		c0.397-4.186,0.865-7.716,1.413-10.722v10.821c0,1.339,0.26,2.587,0.715,3.735c-0.035,0.257-0.059,0.519-0.059,0.787l0.004,47.625
		c0,3.247,2.631,5.877,5.877,5.877c3.246,0,5.877-2.631,5.877-5.878L36.947,78.15c0.233,0.011,0.465,0.029,0.699,0.029
		c0.046,0,0.092-0.005,0.139-0.006l-0.001,40.849c0,3.247,2.63,5.878,5.875,5.878c0.001,0,0.001,0,0.001,0
		c3.246,0,5.878-2.631,5.878-5.878l0.002-47.332c0.769-1.428,1.218-3.043,1.218-4.814V51.317z M37.618,56.03l-3.089-4.228
		l3.089-20.651h0.061l3.089,20.651l-3.089,4.228H37.618z"/>
	<polygon points="82.963,64.532 53.123,83.091 53.123,87.699 57.973,87.699 57.973,123.09 74.846,123.09 74.846,100.801 
		91.079,100.801 91.079,123.09 107.954,123.09 107.954,87.699 112.804,87.699 112.804,83.091 	"/>
</g>
</svg>
