<?xml version="1.0" encoding="utf-8"?>
<!-- Generator: Adobe Illustrator 16.0.0, SVG Export Plug-In . SVG Version: 6.00 Build 0)  -->
<!DOCTYPE svg PUBLIC "-//W3C//DTD SVG 1.1//EN" "http://www.w3.org/Graphics/SVG/1.1/DTD/svg11.dtd">
<svg version="1.1" id="Layer_3" xmlns="http://www.w3.org/2000/svg" xmlns:xlink="http://www.w3.org/1999/xlink" x="0px" y="0px"
	 width="126px" height="126px" viewBox="0 0 126 126" enable-background="new 0 0 126 126" xml:space="preserve">
<path d="M85.847,15.5c-5.951-2.82-13.062-0.283-15.882,5.668c-2.821,5.951-0.284,13.062,5.667,15.883
	c0.13,0.062,0.263,0.106,0.395,0.163l-3.423,1.315L71.2,34.556c-0.895-0.183-1.822-0.277-2.752-0.278
	c-3.478-4.992-4.732-10.909-4.442-12.463c0.358-1.311,2.66-7.972,12.908-10.391c2.488-0.587,4.03-3.081,3.442-5.569
	c-0.588-2.488-3.083-4.029-5.57-3.442C59.439,6.035,55.672,17.181,55.073,19.378c-1.101,4.038,0.614,11.855,4.694,18.528
	c-0.523,0.609-0.985,1.289-1.352,2.061L47.142,63.753c-0.664,1.399-0.945,2.841-0.911,4.261c-0.307,0.48-0.547,1.015-0.696,1.597
	L33.503,116.89c-0.745,2.929,1.025,5.907,3.953,6.652c0.453,0.115,0.906,0.17,1.354,0.17c2.442,0,4.668-1.648,5.298-4.124
	l10.371-40.754c1.235,0.492,2.522,0.805,3.81,0.93l9.105,39.698c0.581,2.534,2.834,4.25,5.328,4.25c0.405,0,0.817-0.045,1.228-0.14
	c2.945-0.675,4.786-3.61,4.11-6.556L69.194,78.36c0.331,0.074,0.669,0.122,1.011,0.122c0.717,0,1.445-0.167,2.126-0.52
	c7.156-3.708,11.585-8.63,13.165-14.632c1.731-6.576-0.1-14.063-5.443-22.252c-0.16-0.246-0.344-0.466-0.541-0.67
	c-0.639-1.013-1.412-1.944-2.281-2.749c5.574,1.725,11.711-0.85,14.283-6.276C94.336,25.432,91.798,18.321,85.847,15.5z
	 M76.542,60.974c-0.532,2.022-1.787,3.891-3.72,5.594l4.039-8.521C76.885,59.078,76.783,60.056,76.542,60.974z"/>
</svg>
