<?xml version="1.0" encoding="utf-8"?>
<!-- Generator: Adobe Illustrator 16.0.0, SVG Export Plug-In . SVG Version: 6.00 Build 0)  -->
<!DOCTYPE svg PUBLIC "-//W3C//DTD SVG 1.1//EN" "http://www.w3.org/Graphics/SVG/1.1/DTD/svg11.dtd">
<svg version="1.1" id="Layer_2" xmlns="http://www.w3.org/2000/svg" xmlns:xlink="http://www.w3.org/1999/xlink" x="0px" y="0px"
	 width="126px" height="126px" viewBox="0 0 126 126" enable-background="new 0 0 126 126" xml:space="preserve">
<g>
	<circle cx="80.081" cy="13.963" r="12.797"/>
	<path d="M88.593,29.875c-0.213-0.132-0.438-0.225-0.662-0.32c-1.426-0.951-3.028-1.652-4.662-2.053l-3.188,3.209l-3.09-3.245
		c-0.011,0.003-0.021,0.003-0.032,0.008c-1.65,0.394-3.267,1.097-4.707,2.055c-0.631,0.262-1.221,0.648-1.719,1.179
		c-2.459,2.615-4.144,5.312-5.629,7.692c-1.144,1.831-2.156,3.447-3.394,4.781c-0.021-0.047-0.051-0.091-0.088-0.126l-2.371-3.224
		c-0.072-0.098-0.188-0.157-0.311-0.157H24.666c-0.12,0-0.233,0.057-0.307,0.151l-2.516,3.275c-0.09,0.116-0.105,0.272-0.04,0.403
		c0.042,0.086,0.114,0.146,0.199,0.184h39.014c-0.149,0.143-0.3,0.283-0.457,0.418h-38.41c-0.053,0-0.102-0.013-0.147-0.033h0
		c-0.152,0-0.29,0.09-0.354,0.228c-0.072,0.154-0.058,0.325,0.034,0.47c0.163,0.254,0.435,0.678,6.626,0.987
		c3.414,0.171,7.941,0.265,12.777,0.27h1.099c3.783-0.009,11.941-0.084,16.388-0.546c-2.933,1.573-7.249,2.179-14.772,1.463
		c-2.742-0.259-5.156,1.746-5.416,4.478s1.745,5.155,4.476,5.414c2.27,0.217,4.351,0.319,6.266,0.319
		c8.736,0,14.008-2.143,17.857-5.504v15.223c0,1.338,0.26,2.583,0.714,3.729c-0.035,0.258-0.059,0.521-0.059,0.786l0.003,47.574
		c0.001,3.244,2.63,5.871,5.872,5.871c3.243,0,5.872-2.628,5.872-5.872l-0.003-40.827c0.233,0.011,0.465,0.029,0.699,0.029
		c0.046,0,0.092-0.006,0.138-0.007l-0.001,40.805c0,3.244,2.628,5.872,5.871,5.872c0,0,0,0,0,0c3.242,0,5.871-2.628,5.871-5.872
		l0.002-47.281c0.769-1.426,1.217-3.04,1.217-4.808V50.909c1.157,4.203,1.626,9.815,1.021,17.547
		c-0.213,2.735,1.831,5.126,4.566,5.341c0.131,0.01,0.262,0.015,0.393,0.015c2.567,0,4.744-1.978,4.948-4.581
		C106.065,44.205,97.809,35.525,88.593,29.875z M44.405,45.28h-5.512c-0.126,0-0.231-0.103-0.231-0.231
		c0-0.126,0.104-0.229,0.231-0.229h5.512c0.128,0,0.23,0.104,0.23,0.229C44.636,45.178,44.533,45.28,44.405,45.28z M22.931,42.948
		l1.924-2.504h33.691l1.842,2.504H22.931z M80.052,56.038l-3.085-4.224l3.085-20.628h0.06l3.085,20.628l-3.085,4.224H80.052z"/>
	<path d="M25.206,39.433h32.889c0.85,0,1.542-0.69,1.542-1.54V18.826c0-0.852-0.691-1.542-1.542-1.542H25.206
		c-0.851,0-1.542,0.69-1.542,1.542v19.066C23.664,38.742,24.355,39.433,25.206,39.433z M25.206,18.826h32.889l0,19.066H25.206
		V18.826z"/>
	<path d="M47.673,30.248c0.001-0.007,0-0.014,0-0.021c0-0.008,0-0.016-0.002-0.023c-0.001-0.007-0.005-0.012-0.007-0.019
		c-0.004-0.006-0.007-0.014-0.01-0.02c-0.005-0.007-0.01-0.011-0.016-0.016c-0.005-0.005-0.009-0.012-0.016-0.015
		c-0.006-0.004-0.013-0.006-0.021-0.008c-0.006-0.004-0.013-0.007-0.021-0.008h0l-2.048-0.315c-0.007-0.001-0.014,0-0.021,0
		c-0.008,0-0.016,0-0.022,0.002c-0.008,0.001-0.015,0.007-0.023,0.009c-0.005,0.004-0.011,0.004-0.016,0.009
		c-0.007,0.006-0.013,0.012-0.019,0.019c-0.004,0.004-0.008,0.009-0.011,0.014c-0.005,0.005-0.006,0.015-0.01,0.022
		c-0.001,0.006-0.006,0.013-0.007,0.018c-0.138,0.829-0.527,1.577-1.129,2.169c-0.744,0.731-1.728,1.134-2.771,1.134
		c-2.18,0-3.953-1.773-3.953-3.952c0-2.181,1.772-3.956,3.953-3.956c0.458,0,0.908,0.08,1.337,0.231h0
		c0.012,0.007,0.024,0.009,0.037,0.009c0,0,0.003,0,0.003,0c0.004,0,0.008-0.001,0.01-0.002c0.01,0,0.02-0.005,0.029-0.008
		c0.003-0.001,0.008-0.003,0.011-0.006c0.007-0.005,0.016-0.009,0.021-0.018c0.004-0.002,0.006-0.004,0.009-0.007
		c0.009-0.01,0.016-0.021,0.02-0.033c0,0,0.001,0,0.001-0.003h0l0.691-1.952c0.003-0.007,0.003-0.017,0.003-0.023
		c0.001-0.007,0.004-0.013,0.004-0.021c-0.001-0.009-0.004-0.016-0.007-0.025c-0.002-0.005-0.002-0.013-0.004-0.015
		c-0.004-0.011-0.011-0.018-0.017-0.024c-0.003-0.004-0.005-0.008-0.009-0.013c-0.006-0.006-0.015-0.009-0.024-0.015
		c-0.005-0.002-0.009-0.007-0.014-0.007c0,0,0,0,0,0c-0.675-0.242-1.383-0.365-2.104-0.365c-3.445,0-6.249,2.805-6.249,6.252
		c0,3.445,2.804,6.248,6.249,6.248c1.656,0,3.216-0.64,4.393-1.804c0.95-0.939,1.564-2.13,1.776-3.441V30.248z M45.817,33.45
		l-1.307-1.307c0.564-0.584,0.94-1.307,1.093-2.101l1.828,0.281C47.216,31.51,46.661,32.585,45.817,33.45z"/>
	<path d="M44.207,24.223c0.002,0.005,0.008,0.012,0.013,0.016c0.003,0.006,0.006,0.013,0.012,0.018
		c0.007,0.006,0.014,0.011,0.021,0.013c0.006,0.005,0.011,0.008,0.017,0.011c1.565,0.563,2.618,2.058,2.618,3.721
		c0,0.216-0.019,0.434-0.055,0.652c0,0.001,0,0.001,0,0.001c-0.001,0.007,0,0.015,0.001,0.022c0,0.008-0.001,0.015,0,0.021
		c0.002,0.007,0.006,0.014,0.01,0.02c0.001,0.006,0.004,0.016,0.008,0.021c0.005,0.006,0.011,0.01,0.017,0.015
		c0.006,0.003,0.009,0.011,0.015,0.014c0.007,0.005,0.015,0.006,0.022,0.01c0.006,0.001,0.013,0.006,0.02,0.007h0.001l2.047,0.315
		l0,0h0.001c0.005,0,0.011,0.001,0.018,0.001c0.013,0,0.026-0.004,0.039-0.008c0.006-0.001,0.008-0.004,0.013-0.008
		c0.007-0.003,0.014-0.005,0.021-0.011c0.003-0.004,0.007-0.009,0.011-0.014c0.004-0.006,0.01-0.01,0.013-0.017
		c0.003-0.006,0.003-0.009,0.007-0.016c0.002-0.007,0.006-0.015,0.007-0.022c0.054-0.335,0.082-0.671,0.082-1.004
		c0-2.634-1.667-4.998-4.147-5.886h0c-0.027-0.008-0.056-0.006-0.08,0.003c-0.001,0-0.004,0-0.005,0.002
		c-0.008,0.004-0.014,0.008-0.021,0.016c-0.004,0.004-0.01,0.005-0.014,0.011c-0.005,0.004-0.009,0.014-0.013,0.021
		c-0.003,0.004-0.008,0.01-0.01,0.019l-0.692,1.951c-0.001,0.006,0,0.015-0.002,0.021c-0.001,0.009-0.004,0.015-0.004,0.023
		c0,0.006,0.004,0.012,0.006,0.02C44.202,24.207,44.202,24.214,44.207,24.223z"/>
	<polygon points="47.523,32.41 47.172,32.758 48.464,34.051 50.158,34.051 50.158,33.555 48.67,33.555 	"/>
	<polygon points="32.434,32.945 30.269,32.945 30.269,33.441 32.568,33.441 34.972,32.028 34.721,31.601 	"/>
	<polygon points="53.038,22.479 50.282,22.479 48.577,24.185 48.928,24.536 50.488,22.977 53.038,22.977 	"/>
	<rect x="55.846" y="27.545" width="1.926" height="0.257"/>
	<rect x="53.597" y="28.1" width="4.174" height="0.259"/>
	<rect x="54.826" y="28.713" width="2.945" height="0.257"/>
	<rect x="55.223" y="29.347" width="2.548" height="0.257"/>
	<rect x="52.249" y="29.903" width="5.523" height="0.257"/>
	<rect x="53.874" y="30.515" width="3.898" height="0.259"/>
	<path d="M54.754,31.902c-0.512,0-0.984,0.17-1.368,0.453l-0.619-0.62h-2.133v0.115h2.085l0.573,0.574
		c-0.52,0.424-0.852,1.069-0.852,1.789c0,1.276,1.037,2.314,2.313,2.314c1.275,0,2.311-1.038,2.311-2.314
		C57.065,32.939,56.029,31.902,54.754,31.902z M54.754,36.335c-1.169,0-2.121-0.952-2.121-2.121c0-0.667,0.312-1.265,0.796-1.651
		l0.519,0.518c-0.355,0.253-0.59,0.667-0.59,1.134c0,0.771,0.626,1.396,1.396,1.396c0.769,0,1.394-0.626,1.394-1.396
		c0-0.768-0.625-1.395-1.394-1.395c-0.257,0-0.498,0.076-0.705,0.199l-0.526-0.528c0.348-0.247,0.771-0.396,1.23-0.396
		c1.167,0,2.119,0.95,2.119,2.119S55.921,36.335,54.754,36.335z M54.754,32.937c0.704,0,1.278,0.573,1.278,1.277
		c0,0.705-0.574,1.279-1.278,1.279c-0.706,0-1.28-0.574-1.28-1.279C53.475,33.51,54.048,32.937,54.754,32.937z"/>
	<rect x="25.848" y="20.157" width="3.34" height="0.515"/>
	<rect x="29.573" y="20.157" width="3.341" height="0.515"/>
	<rect x="25.848" y="25.072" width="3.597" height="0.128"/>
	<rect x="25.848" y="24.333" width="5.781" height="0.129"/>
	<rect x="25.848" y="23.547" width="2.608" height="0.127"/>
	<rect x="25.848" y="22.807" width="4.193" height="0.13"/>
	<rect x="25.848" y="21.925" width="5.106" height="0.128"/>
	<rect x="25.848" y="21.186" width="4.193" height="0.129"/>
</g>
</svg>
