<?xml version="1.0" encoding="iso-8859-1"?>
<!-- Generator: Adobe Illustrator 17.1.0, SVG Export Plug-In . SVG Version: 6.00 Build 0)  -->
<!DOCTYPE svg PUBLIC "-//W3C//DTD SVG 1.1//EN" "http://www.w3.org/Graphics/SVG/1.1/DTD/svg11.dtd">
<svg version="1.1" id="Layer_1" xmlns="http://www.w3.org/2000/svg" xmlns:xlink="http://www.w3.org/1999/xlink" x="0px" y="0px"
	 viewBox="0 0 128 128" style="enable-background:new 0 0 128 128;" xml:space="preserve">
<g>
	<circle cx="42.03" cy="44.435" r="8.421"/>
	<circle cx="97.831" cy="23.815" r="8.106"/>
	<path d="M10.62,98.54c-0.025-0.002-0.049-0.003-0.074-0.003c-2.006,0-3.691,1.874-3.691,3.88c0,2.167,1.214,4.027,2.869,4.356
		c0.256,0.051,0.468,0.064,0.468,0.067s0.211,0.006,0.472,0.006l21.958,0.023c0.617-0.005,0.915-0.134,1.157-0.32
		c0.207-0.158,0.495-0.47,0.667-0.665l12.098-13.369l4.059,3.434l2.153,12.09c0.388,2.18,2.285,3.712,4.425,3.712
		c0.262,0,0.528-0.023,0.794-0.07c2.447-0.437,4.077-2.772,3.641-5.22L59.18,92.773c-0.184-1.032-0.723-1.969-1.523-2.646
		l-7.019-5.939l0.27-16.771c0.008-0.261,0.226-0.47,0.487-0.467c1.893,0.02,9.008,0.09,12.669,0.039
		c1.495-0.101,2.676-1.335,2.676-2.848c0-0.303-0.048-0.598-0.137-0.876c-0.079-0.249,0.034-0.437,0.294-0.437h0.905
		c0.261,0,0.472-0.211,0.472-0.472v-4.25c0-0.261-0.211-0.472-0.472-0.472h-2.477c-0.261,0-0.387-0.194-0.283-0.433l1.153-2.632
		c0.105-0.239,0.19-0.644,0.19-0.905v-0.517c0-0.261-0.211-0.472-0.472-0.472h-0.352c-0.261,0-0.573,0.186-0.698,0.415l-1.793,3.289
		c-0.125,0.229-0.226,0.626-0.226,0.887v4.014c0,0.261-0.211,0.467-0.472,0.46l-7.319-0.183c-0.261-0.007-0.633-0.178-0.794-0.382
		l-5.448-6.897c-0.162-0.204-0.519-0.422-0.78-0.422H32.594c-0.944,0-1.463,0.544-1.653,0.723l-6.889,6.641
		c-0.188,0.181-0.431,0.519-0.523,0.763c-0.246,0.65-0.466,2.018-1.056,4.536c-0.447,1.889-2.271,8.817-2.589,11.357l-0.004,0.051
		c-0.003,0.046-0.007,0.091-0.007,0.138c0,1.422,1.186,2.575,2.649,2.575c1.299,0,2.377-0.91,2.603-2.109l0.012-0.049
		c0.524-2.452,3.342-10.945,3.883-12.751c0.246-0.726,0.571-1.33,1.479-1.338c0.936-0.008,1.644,0,1.644,0
		c0.259-0.026,0.479,0.195,0.489,0.456l0.856,23.834c0.009,0.261-0.105,0.645-0.255,0.858l-5.7,8.076
		c-0.15,0.213-0.482,0.416-0.74,0.453L11.164,98.5C10.905,98.525,10.661,98.543,10.62,98.54z"/>
	<path d="M122.1,55.101l-4.333-12.75c-0.249-0.732-0.705-1.378-1.313-1.856l-5.839-4.596l-3.162-2.488l-0.29-0.228
		c-0.698-0.55-1.523-0.818-2.348-0.843c-0.079-0.007-0.158-0.014-0.222-0.014c-0.096-0.001-0.216,0.012-0.339,0.027
		c-0.027,0.003-0.053,0.006-0.08,0.01c-0.186,0.025-0.375,0.056-0.517,0.069c-1.656,0.154-6.961,0.601-8.033,0.659
		c-0.342,0.019-0.967-0.005-1.807,0.172c-0.152,0.032-0.31,0.071-0.476,0.118c-0.635,0.191-1.236,0.526-1.728,1.038l-5.598,5.113
		l-2.715,2.48L71.74,44.507c-2.16,0.466-3.533,2.594-3.067,4.754c0.405,1.875,2.062,3.157,3.906,3.157
		c0.279,0,0.563-0.029,0.847-0.091l2.076-0.448l8.549-1.844l2.125-0.458c0.777-0.168,1.487-0.563,2.039-1.136l2.863-2.648
		c-0.784,6.777-4.602,34.572-5.146,38.524c-0.036,0.258,0.147,0.468,0.408,0.468h1.968c0.261,0,0.455,0.211,0.435,0.471
		c-1.044,13.112-1.329,17.31-1.541,22.471c-0.011,0.123-0.019,0.248-0.019,0.374c0,0.013,0.002,0.026,0.002,0.039
		c0,0.007,0,0.013-0.001,0.02c0.033,2.157,1.762,3.894,3.893,3.894c1.97,0,3.597-1.514,3.855-3.424
		c0.035-0.259,0.064-0.68,0.1-0.938c0.409-2.995,2.643-19.444,3.05-22.439c0.035-0.259,0.275-0.468,0.536-0.468h1.574
		c0.261,0,0.489,0.211,0.511,0.471c0.224,2.73,1.361,16.605,1.844,22.277c0.022,0.26,0.034,0.545,0.029,0.637
		c-0.003,0.055-0.005,0.111-0.005,0.167c0,2.184,1.734,3.955,3.874,3.955s3.874-1.771,3.874-3.955c0-0.101-0.008-0.2-0.015-0.298
		V85.257c0-0.261,0.211-0.472,0.472-0.472h3.505c0.261,0,0.412-0.203,0.35-0.456c-1.138-4.691-5.568-36.766-5.861-39.7l0,0
		l0.47,0.37l1.334,1.05l3.952,11.627c0.566,1.665,2.121,2.714,3.787,2.714c0.427,0,0.861-0.068,1.288-0.214
		C121.691,59.465,122.811,57.193,122.1,55.101z"/>
</g>
</svg>
