<?xml version="1.0" encoding="utf-8"?>
<!-- Generator: Adobe Illustrator 16.0.0, SVG Export Plug-In . SVG Version: 6.00 Build 0)  -->
<!DOCTYPE svg PUBLIC "-//W3C//DTD SVG 1.1//EN" "http://www.w3.org/Graphics/SVG/1.1/DTD/svg11.dtd">
<svg version="1.1" id="Layer_2" xmlns="http://www.w3.org/2000/svg" xmlns:xlink="http://www.w3.org/1999/xlink" x="0px" y="0px"
	 width="126px" height="126px" viewBox="0 0 126 126" enable-background="new 0 0 126 126" xml:space="preserve">
<g>
	<circle cx="70.417" cy="64.71" r="7.154"/>
	<path d="M70.628,73.215c-0.118-0.082-0.244-0.142-0.369-0.202c-0.443-0.401-0.925-0.755-1.434-1.047
		c-0.007-0.003-0.011-0.005-0.016-0.008l-2.171,1.255l-1.205-2.224c-0.82-0.037-1.661,0.056-2.473,0.271
		c-0.131-0.007-0.35-0.216-0.434-0.307c-1.678-1.822-2.959-7.916-1.816-16.993c0.173-1.363-0.676-2.617-1.949-3.002V35.34h6.762
		c1.232,0,2.231-0.998,2.231-2.23V2.815c0-1.231-0.999-2.229-2.231-2.229H50.656c-1.231,0-2.23,0.998-2.23,2.229V33.11
		c0,1.232,0.999,2.23,2.23,2.23h7.097v15.502c-1.294,0.094-2.384,1.087-2.553,2.422c-1.246,9.875-0.033,17.894,3.241,21.45
		c0.039,0.044,0.08,0.084,0.123,0.127c-0.075,0.179-0.14,0.365-0.197,0.556l-4.442,15.155c-0.101,0.343-0.156,0.684-0.193,1.022
		c-0.154,0.375-0.244,0.784-0.25,1.215l-0.289,24.517c-0.02,1.813,1.433,3.299,3.245,3.321c0.014,0,0.026,0,0.04,0
		c1.794,0,3.261-1.445,3.281-3.245l0.22-18.523c0.159,0.03,0.322,0.058,0.484,0.078l-0.174,23.168
		c-0.014,1.813,1.443,3.293,3.258,3.307c0.009,0,0.018,0,0.024,0c1.803,0,3.27-1.453,3.284-3.258l0.19-25.638
		c0.408-0.533,0.729-1.147,0.933-1.844l2.14-7.292c-0.034,3.171-0.506,7.005-1.56,11.375c-0.36,1.491,0.557,2.991,2.05,3.353
		c0.218,0.051,0.438,0.078,0.652,0.078c1.253,0,2.392-0.854,2.699-2.127C77.096,87.062,75.82,76.776,70.628,73.215z M50.297,29.895
		V6.031h15.585v23.864H50.297z M56.529,32.237c0-0.861,0.699-1.561,1.561-1.561c0.863,0,1.562,0.699,1.562,1.561
		c0,0.863-0.698,1.562-1.562,1.562C57.229,33.799,56.529,33.1,56.529,32.237z M66.58,73.471l-0.169,1.228
		c-0.088,0.295-0.133,0.596-0.123,0.897l-1.296,9.43l-2.32,1.779l-0.032-0.01l-0.99-2.751l4.899-10.581L66.58,73.471z"/>
</g>
</svg>
