<?xml version="1.0" encoding="utf-8"?>
<!-- Generator: Adobe Illustrator 16.0.0, SVG Export Plug-In . SVG Version: 6.00 Build 0)  -->
<!DOCTYPE svg PUBLIC "-//W3C//DTD SVG 1.1//EN" "http://www.w3.org/Graphics/SVG/1.1/DTD/svg11.dtd">
<svg version="1.1" id="Layer_2" xmlns="http://www.w3.org/2000/svg" xmlns:xlink="http://www.w3.org/1999/xlink" x="0px" y="0px"
	 width="126px" height="126px" viewBox="0 0 126 126" enable-background="new 0 0 126 126" xml:space="preserve">
<g>
	<circle cx="37.882" cy="14.637" r="13.197"/>
	<path d="M113.627,71.175c-0.521-0.668-1.323-1.059-2.172-1.059H78.407c-1.522,0-2.757,1.235-2.757,2.759
		c0,1.523,1.234,2.758,2.757,2.758h29.521l-1.805,7.276H76.466c-1.522,0-2.759,1.235-2.759,2.759c0,1.523,1.236,2.758,2.759,2.758
		h28.29l-1.802,7.267H69.235l-5.681-31.935c0.389-0.607,0.67-1.294,0.773-2.055c0.384-2.804-1.578-5.387-4.382-5.771
		c-8.03-1.098-12.297-2.538-14.268-4.817c-1.948-2.253-2.661-6.441-3.602-13.069c-0.033-0.24-0.089-0.47-0.153-0.695
		c-0.437-4.054-3.637-7.389-6.979-9.01c0,0-1.272-0.698-2.725-0.976c-1.389-0.266-2.999-0.275-2.999-0.275l-0.04-0.002
		c-4.568,0.133-9.949,2.68-11.086,7.987L11.992,63.56c-0.815,3.803,0.886,7.208,3.638,9.556l-0.026,43.959
		c-0.002,3.858,3.124,6.989,6.982,6.991c0.002,0,0.004,0,0.004,0c3.858,0,6.985-3.125,6.988-6.983l0.024-41.594
		c2.887-1.149,5.329-3.379,6.072-6.855l2.312-10.784c3.651,4.265,9.676,6.722,20.375,8.205l5.844,32.85l2.272,13.822
		c0.104,0.641,0.431,1.196,0.885,1.604c-1.846,0.847-3.132,2.707-3.132,4.873c0,2.96,2.399,5.36,5.36,5.36
		c2.958,0,5.36-2.4,5.36-5.36c0-1.683-0.776-3.184-1.987-4.166h25.39c-1.211,0.982-1.988,2.483-1.988,4.166
		c0,2.96,2.4,5.36,5.361,5.36c2.958,0,5.36-2.4,5.36-5.36c0-2.056-1.159-3.838-2.854-4.737c0.66-0.504,1.092-1.291,1.092-2.186
		c0-1.523-1.234-2.758-2.758-2.758H71.541l-1.367-8.313h34.938c1.268,0,2.371-0.864,2.68-2.094l6.342-25.576
		C114.335,72.715,114.149,71.843,113.627,71.175z"/>
</g>
</svg>
