<?xml version="1.0" encoding="utf-8"?>
<!-- Generator: Adobe Illustrator 16.0.0, SVG Export Plug-In . SVG Version: 6.00 Build 0)  -->
<!DOCTYPE svg PUBLIC "-//W3C//DTD SVG 1.1//EN" "http://www.w3.org/Graphics/SVG/1.1/DTD/svg11.dtd">
<svg version="1.1" id="Layer_3" xmlns="http://www.w3.org/2000/svg" xmlns:xlink="http://www.w3.org/1999/xlink" x="0px" y="0px"
	 width="126px" height="126px" viewBox="0 0 126 126" enable-background="new 0 0 126 126" xml:space="preserve">
<g>
	<path d="M98.789,38.824h-22.04c-0.995-5.041-5.535-8.644-10.348-9.823L63,32.428l-3.299-3.464c-0.01,0.004-0.021,0.004-0.032,0.008
		c-4.841,1.157-9.415,4.784-10.418,9.853h-22.04c-1.082,0-1.963,0.882-1.963,1.965v35.239c0,1.083,0.881,1.964,1.963,1.964h9.382
		c0.008,0.013,0.01,0.027,0.014,0.04c0.82,2.124,2.849,3.429,4.995,3.428c0.642,0,1.293-0.115,1.928-0.358
		c1.481-0.572,2.55-1.732,3.071-3.109h3.423l0.002,40.848c0,3.461,2.804,6.266,6.265,6.266c3.462,0,6.266-2.806,6.266-6.267V77.992
		h0.893v40.847c0,3.461,2.804,6.267,6.263,6.267c3.462,0,6.266-2.806,6.266-6.267l0.002-40.847h3.696
		c0.52,1.377,1.59,2.537,3.069,3.109c0.635,0.243,1.286,0.358,1.926,0.358c2.15,0,4.179-1.304,4.999-3.428
		c0.004-0.013,0.006-0.027,0.012-0.04h9.108c1.084,0,1.963-0.881,1.963-1.964V40.789C100.752,39.706,99.873,38.824,98.789,38.824z
		 M96.822,74.063h-6.515c-0.132-1.41-0.671-2.474-1.253-3.209c-1.28-1.615-3.338-2.441-5.37-2.164
		c-2.703,0.371-4.63,2.711-4.596,5.373H47.187c0.034-2.662-1.891-5.001-4.597-5.373c-2.033-0.285-4.089,0.549-5.369,2.164
		c-0.584,0.735-1.123,1.799-1.255,3.209h-6.787v-31.31h67.644V74.063z"/>
	<circle cx="63" cy="14.553" r="13.658"/>
</g>
</svg>
