<?xml version="1.0" encoding="utf-8"?>
<!-- Generator: Adobe Illustrator 16.0.0, SVG Export Plug-In . SVG Version: 6.00 Build 0)  -->
<!DOCTYPE svg PUBLIC "-//W3C//DTD SVG 1.1//EN" "http://www.w3.org/Graphics/SVG/1.1/DTD/svg11.dtd">
<svg version="1.1" id="Layer_3" xmlns="http://www.w3.org/2000/svg" xmlns:xlink="http://www.w3.org/1999/xlink" x="0px" y="0px"
	 width="126px" height="126px" viewBox="0 0 126 126" enable-background="new 0 0 126 126" xml:space="preserve">
<g>
	<circle cx="63.119" cy="18.056" r="12.542"/>
	<path d="M87.487,4.82c-0.383-2.662-2.853-4.505-5.513-4.125c-2.661,0.383-4.509,2.852-4.126,5.513
		c1.795,12.461,0.574,21.592-3.436,25.71c-0.932,0.957-1.941,1.552-2.883,1.928c-1.564-1.196-3.405-2.06-5.286-2.521L63.12,34.47
		l-3.029-3.18c-0.011,0.002-0.021,0.003-0.03,0.006c-1.94,0.464-3.837,1.362-5.437,2.61c-0.986-0.371-2.055-0.978-3.037-1.988
		c-4.01-4.118-5.229-13.249-3.435-25.71c0.383-2.662-1.465-5.13-4.126-5.513c-2.673-0.381-5.13,1.464-5.513,4.125
		c-2.328,16.164-0.202,27.643,6.32,34.117c1.771,1.758,3.648,2.938,5.449,3.729V69.91c0,1.311,0.255,2.532,0.7,3.656
		c-0.033,0.254-0.058,0.512-0.058,0.776l0.047,45.264c0.004,3.176,2.579,5.749,5.754,5.749c0.002,0,0.005,0,0.005,0
		c3.18-0.003,5.754-2.583,5.75-5.761l-0.04-38.646c0.227,0.01,0.451,0.028,0.679,0.028c0.045,0,0.089-0.005,0.135-0.005
		l-0.001,38.392c0,3.179,2.575,5.754,5.754,5.754c3.178,0,5.755-2.576,5.755-5.753l0.002-44.741
		c0.754-1.397,1.192-2.978,1.192-4.712V42.56c1.728-0.79,3.518-1.943,5.21-3.623C87.688,32.463,89.815,20.984,87.487,4.82z"/>
</g>
</svg>
