<?xml version="1.0" encoding="utf-8"?>
<!-- Generator: Adobe Illustrator 16.0.0, SVG Export Plug-In . SVG Version: 6.00 Build 0)  -->
<!DOCTYPE svg PUBLIC "-//W3C//DTD SVG 1.1//EN" "http://www.w3.org/Graphics/SVG/1.1/DTD/svg11.dtd">
<svg version="1.1" id="Layer_3" xmlns="http://www.w3.org/2000/svg" xmlns:xlink="http://www.w3.org/1999/xlink" x="0px" y="0px"
	 width="126px" height="126px" viewBox="0 0 126 126" enable-background="new 0 0 126 126" xml:space="preserve">
<g>
	<circle cx="100.385" cy="23.206" r="20.857"/>
	<path d="M104.672,45.352c0,0-2.202-0.638-4.539-0.566c-2.233,0.069-4.72,0.609-4.72,0.609l-0.062,0.01
		c-1.424,0.361-2.861,0.897-4.253,1.579l-55.445-0.018c-4.473,0.011-8.089,3.794-8.078,8.266c0.01,4.466,3.633,8.078,8.097,8.078
		c0.006,0,0.014,0,0.02,0l45.326-0.108l0.356,41.31H14.326c-5.285,0-9.569,4.285-9.569,9.569c0,5.285,4.284,9.569,9.569,9.569
		h83.418c0.441,0,0.874-0.04,1.299-0.098c0.545,0.038,1.092,0.058,1.634,0.054c1.564-0.013,3.137-0.192,4.67-0.536
		c7.186-1.604,14.402-7.118,14.328-15.822l-0.397-46.037C119.204,52.667,111.655,47.001,104.672,45.352z"/>
</g>
</svg>
