<?xml version="1.0" encoding="utf-8"?>
<!-- Generator: Adobe Illustrator 16.0.0, SVG Export Plug-In . SVG Version: 6.00 Build 0)  -->
<!DOCTYPE svg PUBLIC "-//W3C//DTD SVG 1.1//EN" "http://www.w3.org/Graphics/SVG/1.1/DTD/svg11.dtd">
<svg version="1.1" id="Layer_3" xmlns="http://www.w3.org/2000/svg" xmlns:xlink="http://www.w3.org/1999/xlink" x="0px" y="0px"
	 width="126px" height="126px" viewBox="0 0 126 126" enable-background="new 0 0 126 126" xml:space="preserve">
<g>
	<circle fill-rule="evenodd" clip-rule="evenodd" cx="41.661" cy="38.844" r="11.147"/>
	<path fill-rule="evenodd" clip-rule="evenodd" d="M64.24,57.966c0.008-0.088,0.014-0.178,0.021-0.266
		c-0.011-0.005-0.021-0.009-0.031-0.013c-0.035,0.016-0.068,0.031-0.11,0.051c-0.021-0.198-0.042-0.392-0.063-0.586
		c-0.065-0.6-0.135-1.198-0.317-1.776c-0.028-0.089-0.037-0.16,0.027-0.245c0.053-0.07,0.066-0.169,0.093-0.245
		c0.177,0.047,0.349,0.112,0.526,0.137c0.424,0.062,0.851,0.095,1.274,0.155c0.228,0.033,0.456,0.081,0.673,0.152
		c0.261,0.087,0.452,0.284,0.639,0.479c0.12,0.126,0.118,0.124,0.202-0.02c0.105-0.184,0.209-0.369,0.326-0.547
		c0.374-0.563,0.491-1.173,0.349-1.834c-0.056-0.26-0.157-0.504-0.293-0.734c-0.022-0.036-0.039-0.076-0.065-0.128
		c0.541,0.005,0.951-0.23,1.302-0.607c0.278-0.298,0.602-0.543,0.953-0.752c0.163-0.099,0.317-0.212,0.473-0.321
		c0.066-0.047,0.055-0.072-0.015-0.11c-0.12-0.064-0.25-0.122-0.348-0.213c-0.228-0.213-0.443-0.439-0.657-0.668
		c-0.174-0.187-0.345-0.376-0.579-0.483c-0.155-0.071-0.324-0.114-0.479-0.167c0.233-0.29,0.477-0.59,0.716-0.894
		c0.021-0.027,0.03-0.083,0.017-0.113c-0.051-0.124-0.118-0.242-0.17-0.365c-0.227-0.534-0.657-0.806-1.201-0.925
		c-0.322-0.07-0.645-0.051-0.962,0.026c-0.006-0.011-0.012-0.015-0.013-0.02c-0.005-0.021-0.01-0.043-0.014-0.065
		c-0.063-0.305-0.24-0.52-0.523-0.639c-0.114-0.05-0.183-0.117-0.241-0.223c-0.377-0.689-1.254-0.911-1.906-0.475
		c-0.144,0.096-0.255,0.238-0.384,0.36c-0.013-0.02-0.036-0.057-0.059-0.093c-0.199-0.307-0.458-0.533-0.819-0.632
		c-0.396-0.106-0.778-0.047-1.14,0.125c-0.727,0.344-1.188,0.904-1.347,1.701c-0.008,0.039-0.032,0.087-0.063,0.104
		c-0.444,0.264-0.913,0.406-1.43,0.251c-0.077-0.023-0.104,0.006-0.112,0.076c-0.008,0.078-0.018,0.155-0.033,0.232
		c-0.061,0.334-0.135,0.667-0.184,1.003c-0.032,0.223-0.059,0.455,0.138,0.642c-0.33,0.149-0.553,0.405-0.766,0.682
		c-0.183,0.235-0.38,0.463-0.58,0.687c-0.115,0.128-0.122,0.12-0.004,0.248c0.271,0.297,0.481,0.638,0.695,0.976
		c0.303,0.479,0.604,0.955,0.963,1.396c0.487,0.598,1.123,0.935,1.867,1.077c0.703,0.136,1.367,0.006,1.989-0.342
		c0.026-0.014,0.053-0.026,0.089-0.044c0.03,0.283,0.155,0.509,0.309,0.728c0.094,0.133,0.18,0.276,0.237,0.428
		c0.079,0.214,0.129,0.438,0.186,0.658c0.03,0.113,0.045,0.23,0.069,0.354c-0.084-0.038-0.111-0.002-0.099,0.062
		c0.015,0.079,0.04,0.157,0.062,0.234c0.047,0.16,0.115,0.317,0.14,0.482c0.044,0.29,0.07,0.584,0.101,0.877
		c-0.697-0.153-1.438-0.155-2.17,0.064c-7.655,2.31-12.724,0.952-15.893-1.005c-0.854-2.927-3.383-5.229-5.967-6.357
		c0,0-1.097-0.547-2.333-0.731c-1.181-0.178-2.541-0.131-2.541-0.131l-0.033-0.001c-3.851,0.266-8.308,2.596-9.09,7.112
		l-4.196,24.246c-0.464,2.68,0.521,5.071,2.234,6.889c0.05,0.226,0.112,0.448,0.191,0.663c-0.283,6.018-0.837,12.596-1.392,15.225
		c-2.866,1.391-11.275,3.72-18.226,5.234c-2.76,0.601-4.51,3.325-3.909,6.086c0.521,2.394,2.639,4.027,4.992,4.027
		c0.36,0,0.727-0.039,1.093-0.118c22.147-4.82,23.984-8.072,24.867-9.635c1.204-2.131,2.075-7.666,2.599-16.473
		c4.669,0.879,9.071,1.856,11.061,2.537c1.032,3.014,2.321,11.645,2.979,18.728c0.246,2.652,2.476,4.643,5.087,4.643
		c0.158,0,0.317-0.008,0.478-0.022c2.813-0.261,4.882-2.751,4.622-5.563c-2.091-22.569-5.095-24.788-6.539-25.854
		c-1.453-1.074-4.774-2.192-9.896-3.345l3.108-17.952c2.687,1.035,5.754,1.655,9.2,1.655c2.75,0,5.738-0.395,8.951-1.272
		c0.022,0.479,0.059,0.958,0.121,1.435c0.017,0.132,0.104,0.197,0.244,0.183c0.129-0.015,0.197-0.104,0.181-0.235
		c-0.003-0.021-0.009-0.043-0.01-0.064c-0.021-0.484-0.038-0.969-0.057-1.453c0.191-0.054,0.381-0.104,0.574-0.162
		c2.289-0.689,3.584-3.104,2.894-5.394C66.484,59.41,65.469,58.42,64.24,57.966z M66.118,48.084
		c0.183-0.234,0.326-0.487,0.389-0.781c0.004-0.023,0.041-0.058,0.064-0.058c0.329-0.02,0.637,0.044,0.886,0.275
		c0.258,0.239,0.294,0.537,0.193,0.858c-0.08,0.25-0.236,0.456-0.423,0.633c-0.273,0.259-0.562,0.502-0.854,0.763
		c-0.142-0.238-0.205-0.471-0.229-0.709c-0.03-0.298-0.039-0.599-0.054-0.897C66.088,48.141,66.101,48.106,66.118,48.084z
		 M63.627,46.097c0.477-0.682,1.163-0.505,1.531-0.141c0.059,0.059,0.112,0.123,0.184,0.199c-0.353,0.097-0.604,0.291-0.795,0.575
		c-0.206-0.158-0.439-0.222-0.691-0.229c-0.025-0.001-0.056-0.026-0.071-0.049c-0.058-0.085-0.115-0.172-0.164-0.262
		C63.608,46.167,63.611,46.12,63.627,46.097z M63.601,47.174c-0.023,0.054-0.049,0.106-0.075,0.16h-0.032
		c-0.004-0.033-0.006-0.067-0.014-0.1c-0.004-0.018-0.019-0.034-0.028-0.052c-0.018,0.014-0.043,0.024-0.051,0.042
		c-0.047,0.11,0.034,0.284,0.146,0.313c0.018,0.005,0.061-0.017,0.063-0.031c0.019-0.097,0.096-0.139,0.169-0.176
		c0.141-0.072,0.165-0.199,0.14-0.315c-0.021-0.102-0.06-0.198-0.09-0.296c0.113,0.026,0.185,0.107,0.231,0.219
		c0.123,0.292,0.045,0.549-0.135,0.787c-0.108,0.145-0.218,0.288-0.336,0.446c-0.121-0.229-0.253-0.453-0.36-0.688
		c-0.076-0.168-0.008-0.36,0.136-0.479c0.065-0.053,0.178-0.069,0.226-0.025C63.658,47.036,63.629,47.107,63.601,47.174z
		 M63.088,46.503c0.124-0.067,0.28-0.036,0.412,0.087c-0.354,0.105-0.614,0.287-0.57,0.716
		C62.733,47.044,62.814,46.654,63.088,46.503z M59.814,49.208c-0.287-0.034-0.577-0.051-0.873-0.075
		c-0.199-0.409-0.015-0.79,0.179-1.166c0.354-0.031,0.646-0.21,0.936-0.389c0.04,0.194,0.072,0.385,0.118,0.571
		c0.07,0.281,0.199,0.536,0.358,0.779c0.044,0.067,0.088,0.083,0.16,0.061c0.044-0.014,0.089-0.022,0.161-0.04
		c0.019,0.104,0.037,0.206,0.055,0.307c-0.059,0.005-0.101,0.005-0.143,0.011C60.443,49.315,60.13,49.244,59.814,49.208z
		 M62.317,53.602c-0.429-0.061-0.838-0.175-1.192-0.435c-0.357-0.263-0.549-0.623-0.611-1.058c-0.073-0.513,0.064-0.983,0.295-1.434
		c0.156-0.306,0.309-0.612,0.402-0.947c0.083-0.298,0.057-0.578-0.086-0.852c-0.004-0.008-0.004-0.018-0.009-0.037
		c0.274-0.031,0.507,0.057,0.722,0.201c0.387,0.263,0.606,0.64,0.706,1.089c0.007,0.034-0.012,0.083-0.034,0.115
		c-0.248,0.366-0.43,0.76-0.503,1.199c-0.078,0.462,0.037,0.883,0.261,1.286c0.182,0.324,0.415,0.599,0.712,0.819
		c0.006,0.005,0.01,0.015,0.018,0.026C62.77,53.634,62.543,53.633,62.317,53.602z M62.884,49.817
		c-0.026-0.128-0.044-0.263-0.081-0.392c-0.077-0.271-0.225-0.502-0.432-0.691c-0.159-0.145-0.329-0.277-0.498-0.411
		c-0.057-0.045-0.077-0.076-0.026-0.143c0.106-0.137,0.163-0.297,0.187-0.468c0.106,0.064,0.207,0.131,0.312,0.188
		c0.148,0.08,0.296,0.16,0.451,0.225c0.451,0.191,0.636,0.55,0.682,1.015c0.014,0.145-0.016,0.228-0.139,0.31
		C63.178,49.557,63.035,49.693,62.884,49.817z M63.398,53.694c-0.012-0.002-0.025-0.004-0.036-0.008
		c-0.005-0.001-0.009-0.008-0.001-0.001c0.105-0.22,0.216-0.433,0.308-0.651c0.081-0.196,0.136-0.402,0.206-0.604
		c0.171-0.491,0.499-0.867,0.89-1.195c0.486-0.409,1.032-0.725,1.607-0.99c0.016-0.007,0.034-0.012,0.032-0.012
		c0.078,0.397,0.176,0.788,0.227,1.187c0.107,0.852-0.205,1.515-0.941,1.972c-0.245,0.151-0.507,0.239-0.792,0.294
		C64.395,53.783,63.898,53.792,63.398,53.694z"/>
	<circle fill-rule="evenodd" clip-rule="evenodd" cx="99.66" cy="17.103" r="11.977"/>
	<path fill-rule="evenodd" clip-rule="evenodd" d="M125.463,58.398c-7.104-18.549-8.6-20.77-17.785-26.402
		c-0.246-0.151-0.5-0.271-0.76-0.373c-1.329-0.873-2.819-1.513-4.336-1.875c-0.01-0.003-0.02-0.003-0.03-0.006l-2.893,3.036
		l-2.983-3.003c-1.643,0.402-3.248,1.133-4.654,2.126c-0.057,0.032-0.115,0.06-0.171,0.095c-4.125,2.53-5.483,5.685-6.682,8.467
		c-1.629,3.786-3.658,8.496-15.955,15.568c-2.227,1.28-2.993,4.122-1.713,6.349c0.86,1.496,2.425,2.333,4.035,2.333
		c0.786,0,1.583-0.199,2.314-0.62c6.492-3.733,10.698-7.079,13.55-10.062v3.779c-1.311,5.675-6.779,29.563-6.796,33.129
		c-0.008,1.827,3.289,3.393,7.936,4.379l0.001,20.061c0,3.035,2.46,5.496,5.496,5.495c3.035,0,5.495-2.46,5.495-5.496l-0.001-18.949
		c0.261,0.002,0.521,0.002,0.781-0.001l-0.001,18.95c0,3.035,2.46,5.496,5.495,5.496h0c3.035,0,5.495-2.46,5.495-5.495l0.001-20.387
		c3.276-0.996,5.76-2.552,6.678-4.792c0.035-7.54-0.105-8.178-6.063-32.371v-8.1c1.271,2.738,2.761,6.513,4.861,11.996
		c0.709,1.851,2.473,2.987,4.343,2.987c0.553,0,1.115-0.1,1.662-0.309C125.183,63.485,126.382,60.797,125.463,58.398z"/>
</g>
</svg>
