<?xml version="1.0" encoding="utf-8"?>
<!-- Generator: Adobe Illustrator 16.0.0, SVG Export Plug-In . SVG Version: 6.00 Build 0)  -->
<!DOCTYPE svg PUBLIC "-//W3C//DTD SVG 1.1//EN" "http://www.w3.org/Graphics/SVG/1.1/DTD/svg11.dtd">
<svg version="1.1" id="Layer_1" xmlns="http://www.w3.org/2000/svg" xmlns:xlink="http://www.w3.org/1999/xlink" x="0px" y="0px"
	 width="126px" height="126px" viewBox="0 0 126 126" enable-background="new 0 0 126 126" xml:space="preserve">
<g>
	<path d="M45.032,88.408l-2.401-0.885c0.189-1.752,0.128-3.537-0.201-5.313l2.319-1.068c1.448-0.665,2.083-2.387,1.416-3.836
		l-1.354-2.938c-0.668-1.449-2.39-2.085-3.835-1.418l-2.322,1.071c-1.135-1.406-2.451-2.613-3.902-3.607l0.885-2.398
		c0.552-1.496-0.215-3.165-1.71-3.715l-3.037-1.122c-1.448-0.533-3.179,0.263-3.714,1.71l-0.886,2.401
		c-1.749-0.188-3.535-0.125-5.31,0.202l-1.068-2.318c-0.668-1.449-2.389-2.084-3.836-1.418l-2.939,1.354
		c-1.449,0.668-2.083,2.39-1.419,3.835l1.07,2.321c-1.403,1.136-2.611,2.453-3.606,3.905l-2.396-0.885
		c-1.447-0.538-3.182,0.258-3.716,1.709l-1.122,3.037c-0.268,0.725-0.236,1.51,0.087,2.211c0.326,0.702,0.9,1.235,1.624,1.5
		l2.401,0.889c-0.189,1.749-0.128,3.535,0.201,5.31L3.941,90.01c-1.448,0.667-2.083,2.387-1.417,3.834l1.355,2.942
		c0.667,1.446,2.386,2.083,3.835,1.415l2.319-1.069c1.135,1.404,2.453,2.612,3.905,3.605l-0.886,2.4
		c-0.269,0.725-0.239,1.509,0.085,2.21c0.322,0.702,0.9,1.238,1.623,1.505l3.039,1.121c0.723,0.267,1.507,0.236,2.21-0.085
		c0.702-0.325,1.235-0.902,1.501-1.625l0.889-2.401c1.749,0.19,3.534,0.128,5.311-0.202l1.066,2.321
		c0.668,1.446,2.39,2.082,3.837,1.416l2.939-1.354c1.45-0.667,2.083-2.387,1.416-3.836l-1.068-2.319
		c1.404-1.137,2.612-2.452,3.605-3.905l2.4,0.887c0.726,0.267,1.511,0.237,2.214-0.087c0.699-0.323,1.231-0.9,1.499-1.624
		l1.123-3.037C47.295,90.626,46.526,88.96,45.032,88.408z M29.13,95.961c-1.516,0.698-3.124,1.052-4.78,1.052
		c-4.451,0-8.529-2.612-10.391-6.652c-2.636-5.727-0.124-12.532,5.601-15.169c1.515-0.697,3.124-1.051,4.778-1.051
		c4.451,0,8.531,2.611,10.394,6.651C37.366,86.52,34.854,93.323,29.13,95.961z"/>
	<path d="M87.647,93.265l-1.756-0.648c0.139-1.281,0.092-2.586-0.149-3.885l1.697-0.782c1.059-0.486,1.523-1.747,1.035-2.806
		l-0.989-2.149c-0.488-1.06-1.745-1.524-2.803-1.036l-1.7,0.783c-0.829-1.029-1.794-1.911-2.854-2.639l0.646-1.754
		c0.403-1.094-0.156-2.314-1.251-2.718l-2.222-0.82c-1.059-0.391-2.324,0.192-2.715,1.25l-0.648,1.757
		c-1.28-0.137-2.588-0.092-3.884,0.147l-0.783-1.695c-0.486-1.061-1.747-1.526-2.806-1.038l-2.149,0.99
		c-1.06,0.488-1.522,1.748-1.037,2.806l0.783,1.696c-1.027,0.832-1.911,1.795-2.639,2.857l-1.753-0.647
		c-1.059-0.394-2.327,0.189-2.718,1.25l-0.82,2.222c-0.196,0.53-0.173,1.104,0.063,1.617c0.239,0.514,0.661,0.904,1.189,1.098
		l1.756,0.65c-0.139,1.281-0.094,2.586,0.147,3.884l-1.698,0.781c-1.058,0.488-1.523,1.746-1.034,2.805l0.991,2.152
		c0.487,1.058,1.745,1.522,2.804,1.034l1.698-0.78c0.829,1.026,1.793,1.91,2.855,2.637l-0.648,1.754
		c-0.196,0.53-0.174,1.104,0.063,1.618c0.235,0.512,0.658,0.904,1.188,1.1l2.221,0.82c0.53,0.195,1.104,0.173,1.619-0.062
		c0.513-0.237,0.902-0.66,1.098-1.189l0.648-1.757c1.281,0.14,2.587,0.094,3.886-0.147l0.779,1.697
		c0.488,1.059,1.748,1.523,2.807,1.035l2.148-0.99c1.062-0.487,1.524-1.746,1.037-2.806l-0.782-1.696
		c1.027-0.831,1.911-1.793,2.639-2.856l1.756,0.648c0.529,0.196,1.104,0.173,1.618-0.063c0.512-0.236,0.901-0.659,1.097-1.188
		l0.822-2.222C89.302,94.887,88.74,93.67,87.647,93.265z M76.016,98.79c-1.108,0.509-2.285,0.769-3.496,0.769
		c-3.255,0-6.238-1.911-7.6-4.866c-1.929-4.189-0.091-9.167,4.097-11.095c1.108-0.511,2.284-0.769,3.493-0.769
		c3.258,0,6.24,1.909,7.603,4.864C82.041,91.884,80.202,96.859,76.016,98.79z"/>
	<path d="M120.256,95.351l-1.293-0.478c0.103-0.944,0.068-1.904-0.11-2.861l1.252-0.576c0.778-0.358,1.12-1.287,0.761-2.067
		l-0.729-1.582c-0.359-0.78-1.286-1.123-2.064-0.764l-1.251,0.578c-0.611-0.757-1.321-1.407-2.104-1.943l0.478-1.292
		c0.297-0.807-0.115-1.704-0.921-2.002l-1.636-0.604c-0.779-0.288-1.711,0.142-2,0.921l-0.479,1.293
		c-0.94-0.102-1.904-0.067-2.859,0.109l-0.574-1.248c-0.361-0.781-1.288-1.124-2.067-0.764l-1.583,0.729
		c-0.781,0.359-1.122,1.287-0.764,2.066l0.575,1.249c-0.755,0.612-1.407,1.322-1.944,2.104l-1.288-0.476
		c-0.78-0.291-1.714,0.139-2.004,0.92l-0.604,1.635c-0.144,0.392-0.125,0.814,0.047,1.192c0.176,0.377,0.486,0.665,0.876,0.809
		l1.293,0.478c-0.103,0.942-0.068,1.904,0.109,2.86l-1.252,0.577c-0.779,0.358-1.12,1.286-0.761,2.064l0.729,1.585
		c0.359,0.78,1.285,1.122,2.064,0.763l1.252-0.575c0.609,0.755,1.319,1.406,2.103,1.94l-0.478,1.293
		c-0.146,0.39-0.129,0.813,0.046,1.19c0.174,0.378,0.484,0.667,0.874,0.811l1.637,0.604c0.39,0.144,0.812,0.127,1.19-0.046
		c0.379-0.174,0.665-0.486,0.809-0.875l0.479-1.293c0.941,0.103,1.904,0.069,2.86-0.109l0.574,1.25
		c0.36,0.779,1.288,1.123,2.067,0.763l1.583-0.729c0.78-0.36,1.121-1.286,0.762-2.066l-0.574-1.249
		c0.758-0.612,1.407-1.321,1.942-2.104l1.293,0.478c0.39,0.144,0.814,0.127,1.192-0.047c0.377-0.173,0.663-0.484,0.809-0.874
		l0.604-1.637C121.475,96.545,121.062,95.648,120.256,95.351z M111.69,99.419c-0.816,0.375-1.683,0.566-2.575,0.566
		c-2.396,0-4.594-1.408-5.596-3.584c-1.421-3.084-0.067-6.749,3.016-8.169c0.816-0.376,1.683-0.566,2.574-0.566
		c2.396,0,4.595,1.406,5.598,3.583C116.127,94.332,114.773,97.998,111.69,99.419z"/>
	<path d="M121.354,61.575c-1.407-1.03-14.108-10.048-26.474-9.828c-6.202,0.11-13.445,0.762-18.52,1.301
		c-0.942-2.432-2.715-4.52-5.522-5.544l-10.407-3.794c4.779-3.061,8.069-8.76,11.046-19.321c0.769-2.736-0.825-5.578-3.561-6.349
		c-2.737-0.77-5.578,0.823-6.351,3.558c-2.204,7.835-4.229,11.88-6.769,13.524c-2.512,1.625-6.777,1.754-13.503,1.771
		c-0.24,0-0.476,0.024-0.706,0.057c-4.097-0.131-7.858,2.592-9.937,5.693c0,0-0.871,1.168-1.349,2.573
		c-0.457,1.347-0.688,2.948-0.688,2.948l-0.007,0.036c-0.503,4.563,1.284,10.272,6.406,12.139l27.489,10.021
		c3.923,1.431,7.784-0.063,10.553-2.807c3.561-0.434,13.992-1.631,22.074-1.773c6.499-0.114,15.163,5.111,17.94,7.125
		c1.472,1.075,3.22,1.495,4.898,1.313c1.894-0.206,3.697-1.178,4.907-2.835C125.168,68.254,124.486,63.863,121.354,61.575z"/>
	<circle cx="17.43" cy="37.817" r="13.256"/>
</g>
</svg>
