<?xml version="1.0" encoding="iso-8859-1"?>
<!-- Generator: Adobe Illustrator 17.1.0, SVG Export Plug-In . SVG Version: 6.00 Build 0)  -->
<!DOCTYPE svg PUBLIC "-//W3C//DTD SVG 1.1//EN" "http://www.w3.org/Graphics/SVG/1.1/DTD/svg11.dtd">
<svg version="1.1" id="Layer_1" xmlns="http://www.w3.org/2000/svg" xmlns:xlink="http://www.w3.org/1999/xlink" x="0px" y="0px"
	 viewBox="0 0 128 128" style="enable-background:new 0 0 128 128;" xml:space="preserve">
<g>
	<path d="M45.227,71.73c2.461,0,4.457-1.994,4.458-4.455c0.002-0.001,0.006-27.224,0.006-27.224c0-0.256,0.207-0.464,0.464-0.464
		h0.944c0.256,0,0.464,0.207,0.464,0.464c0,0,0,76.375,0,76.384c0,3.175,2.574,5.749,5.749,5.749c3.175,0,5.749-2.574,5.749-5.749
		c0-0.009,0-44.943,0-44.943c0-0.328,0.152-0.464,0.475-0.464h0.927c0.324,0,0.475,0.137,0.475,0.464c0,0,0,44.935,0,44.943
		c0,3.175,2.574,5.749,5.749,5.749c3.175,0,5.749-2.574,5.749-5.749c0-0.009,0-76.384,0-76.384c0-0.256,0.207-0.464,0.464-0.464
		h0.944c0.256,0,0.464,0.207,0.464,0.464c0,0,0.004,27.223,0.006,27.224c0.002,2.461,1.997,4.455,4.458,4.455
		c2.462,0,4.459-1.996,4.459-4.459c0-0.014,0-30.611,0-30.976c0-6.101-4.694-10.795-10.56-10.795c-0.149,0-8.035,0-11.733,0
		c0,0-0.741,0-1.877,0c-3.698,0-11.584,0-11.733,0c-5.867,0-10.56,4.693-10.56,10.795c0,0.365,0,30.962,0,30.976
		C40.768,69.734,42.764,71.73,45.227,71.73z"/>
	<circle cx="64" cy="14.372" r="8.555"/>
</g>
</svg>
