<?xml version="1.0" encoding="iso-8859-1"?>
<!-- Generator: Adobe Illustrator 17.1.0, SVG Export Plug-In . SVG Version: 6.00 Build 0)  -->
<!DOCTYPE svg PUBLIC "-//W3C//DTD SVG 1.1//EN" "http://www.w3.org/Graphics/SVG/1.1/DTD/svg11.dtd">
<svg version="1.1" id="Layer_1" xmlns="http://www.w3.org/2000/svg" xmlns:xlink="http://www.w3.org/1999/xlink" x="0px" y="0px"
	 viewBox="0 0 128 128" style="enable-background:new 0 0 128 128;" xml:space="preserve">
<g>
	<circle cx="29.007" cy="112.438" r="5.909"/>
	<circle cx="56.863" cy="112.438" r="5.909"/>
	<path d="M11.679,68.7l12.14,35.008c0.048,0.278,0.315,0.802,0.598,0.805h37.261c0.282,0.002,0.532-0.224,0.557-0.505
		c0,0,0.026-40.591,0.026-40.852c0-0.26,0.229-0.511,0.511-0.511h4.502c0.283,0,0.511-0.229,0.511-0.511v-2.904
		c0-0.283-0.229-0.511-0.511-0.511h-8.918c-0.283,0-0.511,0.229-0.511,0.511v8.367c0,0.283-0.229,0.512-0.511,0.512H12.104
		C11.822,68.108,11.631,68.422,11.679,68.7z M58.07,97.65c0,0.282-0.229,0.511-0.511,0.511H26.375c-0.283,0-0.511-0.229-0.511-0.511
		v-2.557c0-0.283,0.229-0.511,0.511-0.511h31.184c0.282,0,0.511,0.229,0.511,0.511V97.65z M58.07,90.838
		c0,0.282-0.229,0.511-0.511,0.511H23.609c-0.283,0-0.511-0.229-0.511-0.511v-2.557c0-0.283,0.229-0.511,0.511-0.511h33.949
		c0.282,0,0.511,0.229,0.511,0.511V90.838z M58.07,84.088c0,0.282-0.229,0.511-0.511,0.511H21.25c-0.283,0-0.511-0.229-0.511-0.511
		v-2.557c0-0.283,0.229-0.511,0.511-0.511h36.309c0.282,0,0.511,0.229,0.511,0.511V84.088z M18.442,74.916
		c0-0.282,0.229-0.511,0.511-0.511h38.605c0.282,0,0.511,0.229,0.511,0.511v2.557c0,0.282-0.229,0.511-0.511,0.511H18.953
		c-0.283,0-0.511-0.229-0.511-0.511V74.916z"/>
	<circle cx="86.313" cy="19.299" r="8.785"/>
	<path d="M107.827,115.472c0.497,1.996,2.288,3.329,4.256,3.329c0.352,0,0.709-0.042,1.065-0.131
		c2.352-0.586,3.784-2.968,3.198-5.32l-11.016-44.198c1.16-0.382,3.214-1.738,2.626-5.974l-6.001-32.895
		c-0.19-1.04-1.135-1.738-2.112-1.56l-13.553,2.604c-0.109,0.015-0.216,0.036-0.324,0.059l-0.191,0.035
		c-0.136,0.025-0.264,0.069-0.385,0.123c-1.108,0.397-2.062,1.22-2.583,2.379L77.49,45.947c0,0-6.245,1.468-7.392,1.742
		l-2.433,0.568c-2.361,0.551-3.829,2.911-3.277,5.271c0.472,2.026,2.277,3.393,4.271,3.393c0.33,0,0.665-0.038,1-0.116l7.875-1.837
		c0.214-0.05,0.412-0.13,0.61-0.209l3.6-0.849c1.349-0.327,2.47-1.258,3.04-2.525l1.997-4.427l3.607,20.327L78.224,84.358
		c-0.47,0.659-0.748,1.436-0.804,2.244l-1.902,27.506c-0.167,2.418,1.658,4.514,4.076,4.682c0.103,0.007,0.205,0.01,0.307,0.01
		c2.286,0,4.214-1.771,4.375-4.087l1.817-26.271l11.111-15.593L107.827,115.472z"/>
</g>
</svg>
