<?xml version="1.0" encoding="utf-8"?>
<!-- Generator: Adobe Illustrator 16.0.0, SVG Export Plug-In . SVG Version: 6.00 Build 0)  -->
<!DOCTYPE svg PUBLIC "-//W3C//DTD SVG 1.1//EN" "http://www.w3.org/Graphics/SVG/1.1/DTD/svg11.dtd">
<svg version="1.1" id="Layer_3" xmlns="http://www.w3.org/2000/svg" xmlns:xlink="http://www.w3.org/1999/xlink" x="0px" y="0px"
	 width="126px" height="126px" viewBox="0 0 126 126" enable-background="new 0 0 126 126" xml:space="preserve">
<g>
	<path d="M119.027,59.184v-2.497h-6v2.497v10.002c-0.75-1.632-2.389-2.771-4.303-2.771H94.924H77.055h-4.107v0.611
		c0,0.111-0.002,0.223-0.008,0.335c2.252,1.836,5.031,4.727,6.453,8.547h4.115h5.408h19.809c1.914,0,3.553-1.139,4.303-2.771v4.524
		H88.369h-4.314h-4.121c0.361,1.514,0.502,3.151,0.316,4.912c-0.037,0.337-0.078,0.705-0.125,1.088h4.137h3.895h24.871v15.833
		h10.754V59.184H119.027z M77.055,67.038c0,0.024-0.002,0.049-0.002,0.073c-0.396-0.024-0.629-0.049-0.629-0.073l0.631-0.021V67.038
		z"/>
	<path d="M17.275,75.908h24.203c1.357-3.629,3.926-6.406,6.027-8.197c-0.018-0.232-0.025-0.46-0.025-0.685v-0.611H35.775
		c-20.414,0-22.053,1.139-22.805,2.77V59.184v-2.497h-6v2.497H2.219v40.312h10.752V83.662h27.768
		c-0.045-0.383-0.088-0.751-0.123-1.088c-0.186-1.76-0.045-3.398,0.318-4.912H12.971v-4.523
		C13.723,74.77,15.361,75.908,17.275,75.908z"/>
	<path d="M66.701,81.149c0.07-0.666-0.73-1.969-2.617-3.409c-2.418,0.686-4.99,0.714-7.41,0.093
		c-1.811,1.412-2.578,2.676-2.512,3.316c0.076,0.712,0.184,1.565,0.313,2.513h11.914C66.52,82.715,66.627,81.861,66.701,81.149z"/>
	<path d="M18.219,63.996h9.5c1.748,0,3.166-1.418,3.166-3.167s-1.418-3.167-3.166-3.167h-9.5c-1.75,0-3.168,1.418-3.168,3.167
		S16.469,63.996,18.219,63.996z"/>
	<circle cx="60.213" cy="23.667" r="10.487"/>
	<path d="M70.846,68.263c0.061-0.402,0.102-0.813,0.102-1.236V43.932l25.791-19.063c1.809-1.337,2.191-3.885,0.854-5.694
		c-1.336-1.808-3.887-2.189-5.693-0.854L67.02,36.71c-1.26-0.915-2.709-1.583-4.195-1.946l-2.611,2.629l-2.533-2.658
		c-0.008,0.002-0.018,0.002-0.025,0.004c-1.279,0.306-2.535,0.838-3.666,1.561L29.664,18.32c-1.809-1.336-4.357-0.954-5.693,0.854
		c-1.336,1.81-0.955,4.357,0.854,5.694L49.52,43.122c-0.023,0.248-0.039,0.499-0.039,0.756v23.148c0,0.529,0.061,1.037,0.152,1.53
		c-3.848,2.998-7.662,7.792-7.029,13.809c0.752,7.136,4.176,25.728,4.322,26.515c0.428,2.318,2.451,3.939,4.727,3.939
		c0.289,0,0.582-0.026,0.877-0.08c2.613-0.483,4.342-2.992,3.859-5.604c-0.035-0.19-3.502-19.011-4.215-25.776
		c-0.232-2.217,2.268-4.443,4.117-5.724c1.24,0.419,2.572,0.645,3.922,0.645c1.459,0,2.893-0.268,4.217-0.753
		c1.842,1.248,4.502,3.545,4.26,5.832c-0.711,6.766-4.18,25.586-4.215,25.776c-0.48,2.612,1.246,5.121,3.859,5.604
		c0.295,0.054,0.588,0.08,0.879,0.08c2.275,0,4.299-1.621,4.727-3.939c0.145-0.787,3.57-19.379,4.32-26.515
		C78.914,76.147,74.82,71.235,70.846,68.263z"/>
</g>
</svg>
