<?xml version="1.0" encoding="utf-8"?>
<!-- Generator: Adobe Illustrator 16.0.0, SVG Export Plug-In . SVG Version: 6.00 Build 0)  -->
<!DOCTYPE svg PUBLIC "-//W3C//DTD SVG 1.1//EN" "http://www.w3.org/Graphics/SVG/1.1/DTD/svg11.dtd">
<svg version="1.1" id="Layer_3" xmlns="http://www.w3.org/2000/svg" xmlns:xlink="http://www.w3.org/1999/xlink" x="0px" y="0px"
	 width="126px" height="126px" viewBox="0 0 126 126" enable-background="new 0 0 126 126" xml:space="preserve">
<g>
	<circle cx="74.628" cy="41.032" r="9.669"/>
	<path d="M81.06,53.056c-0.145-0.089-0.298-0.15-0.449-0.217c-1.09-0.726-2.319-1.269-3.574-1.576l-2.409,2.426l-2.335-2.452
		c-0.008,0.002-0.016,0.002-0.024,0.004c-1.249,0.299-2.474,0.833-3.563,1.559c-0.417,0.174-0.813,0.418-1.159,0.751
		c-0.12,0.115-0.133,0.128-0.348,0.103c-3.008-0.348-9.442-7.388-13.563-13.743c-0.328-0.509-0.766-0.896-1.254-1.183l0.938-8.834
		l17.798,1.964c0.039,0.004,0.077,0.007,0.114,0.007c0.515,0,0.958-0.389,1.016-0.913l2.696-24.429
		c0.062-0.562-0.344-1.067-0.906-1.13L36.048,1.2c-0.272-0.03-0.541,0.05-0.753,0.219c-0.212,0.17-0.348,0.417-0.377,0.687
		l-2.695,24.431c-0.063,0.562,0.343,1.067,0.905,1.129l18.156,2.004l-0.907,8.539c-0.665,0.018-1.333,0.2-1.932,0.589
		c-1.741,1.127-2.238,3.45-1.112,5.19c0.38,0.587,1.111,1.688,2.105,3.061L47.88,61.721c-0.06,0.563,0.347,1.067,0.91,1.126
		c0.037,0.004,0.073,0.006,0.109,0.006c0.517,0,0.961-0.39,1.017-0.916l1.327-12.499c3.445,4.386,8.541,9.845,13.489,11.332v20.242
		c0,1.011,0.196,1.95,0.539,2.817c-0.026,0.196-0.044,0.393-0.044,0.596l0.002,35.945c0,2.45,1.987,4.436,4.437,4.436
		c2.45,0,4.437-1.986,4.437-4.437L74.1,89.521c0.176,0.008,0.351,0.022,0.528,0.022c0.035,0,0.069-0.005,0.104-0.005l-0.001,30.831
		c0,2.45,1.986,4.437,4.437,4.437l0,0c2.45,0,4.437-1.986,4.437-4.437l0.001-35.862c0.069-0.134,0.131-0.271,0.193-0.408
		c0.284,0.066,0.571,0.108,0.856,0.108c1.234,0,2.443-0.608,3.16-1.723c2.112-3.283,5.694-9.265,5.954-12.456
		C94.205,64.68,85.043,55.499,81.06,53.056z M37.53,3.891l34.475,3.803l-2.369,21.473l-34.474-3.804L37.53,3.891z M74.606,72.825
		l-2.331-3.191l2.331-15.587h0.045l2.332,15.587l-2.332,3.191H74.606z M84.525,73.296v-6.511c0.857,1.157,1.482,2.174,1.708,2.827
		C86.027,70.332,85.389,71.688,84.525,73.296z"/>
</g>
</svg>
