<?xml version="1.0" encoding="iso-8859-1"?>
<!-- Generator: Adobe Illustrator 17.1.0, SVG Export Plug-In . SVG Version: 6.00 Build 0)  -->
<!DOCTYPE svg PUBLIC "-//W3C//DTD SVG 1.1//EN" "http://www.w3.org/Graphics/SVG/1.1/DTD/svg11.dtd">
<svg version="1.1" id="Layer_1" xmlns="http://www.w3.org/2000/svg" xmlns:xlink="http://www.w3.org/1999/xlink" x="0px" y="0px"
	 viewBox="0 0 128 128" style="enable-background:new 0 0 128 128;" xml:space="preserve">
<g>
	<path d="M64.687,2.448c-0.301-0.233-0.787-0.231-1.088,0.003l-12.671,9.852c-0.301,0.233-0.464,0.114-0.464-0.267V5.524
		c0-0.381-0.471-0.66-0.852-0.66h-8.946c-0.381,0-0.617,0.279-0.617,0.66v14.487c0,0.381-0.279,0.876-0.58,1.109L4.952,47.76
		c-0.301,0.233-0.255,0.405,0.126,0.405H20.71c0.381,0,0.707,0.338,0.707,0.716v76.05c0,0.381,0.289,0.794,0.67,0.794h84.309
		c0.381,0,0.804-0.415,0.804-0.794V48.884c0-0.381,0.192-0.716,0.57-0.716h15.142c0.379,0,0.444-0.175,0.144-0.408L64.687,2.448z
		 M80.576,41.21c3.165,0,5.731,2.566,5.731,5.731c0,3.165-2.566,5.73-5.731,5.73s-5.731-2.566-5.731-5.73
		C74.845,43.776,77.411,41.21,80.576,41.21z M49.531,41.205c3.165,0,5.73,2.566,5.73,5.73c0,3.165-2.566,5.731-5.73,5.731
		c-3.165,0-5.731-2.566-5.731-5.731C43.8,43.77,46.366,41.205,49.531,41.205z M96.136,82.373c0,1.649-1.337,2.986-2.986,2.986
		c-1.649,0-2.985-1.336-2.986-2.984c-0.001-0.001-0.004-18.235-0.004-18.235c0-0.172-0.139-0.311-0.311-0.311h-0.633
		c-0.172,0-0.311,0.139-0.311,0.311c0,0,0,51.156,0,51.162c0,2.127-1.724,3.851-3.851,3.851c-2.127,0-3.851-1.724-3.851-3.851
		c0-0.006,0-30.103,0-30.103c0-0.219-0.102-0.311-0.318-0.311h-0.621c-0.217,0-0.318,0.092-0.318,0.311c0,0,0,30.097,0,30.103
		c0,2.127-1.724,3.851-3.851,3.851c-2.127,0-3.851-1.724-3.851-3.851c0-0.006,0-51.162,0-51.162c0-0.172-0.139-0.311-0.311-0.311
		h-0.633c-0.172,0-0.311,0.139-0.311,0.311c0,0-1.81,18.234-1.811,18.235c-0.001,0.716-0.254,1.373-0.674,1.887
		c0,0-0.001,0.001-0.001,0.001c-0.023,0.029-0.049,0.055-0.073,0.083c-0.354,0.407-0.82,0.725-1.373,0.894
		c-1.576,0.484-3.245-0.402-3.73-1.978c-0.002,0-5.911-19.287-5.911-19.287c-0.026-0.061-0.16-0.317-0.471-0.317
		c-0.028,0-0.629,0-0.629,0h-0.001c-0.177-0.003-0.281,0.148-0.234,0.319l8.933,29.234c0.048,0.17,0,0.468-0.311,0.468h-6.267
		c-0.177,0-0.307,0.144-0.307,0.322c0,0,0.001,21.298,0.001,21.306c0,2.127-1.724,3.851-3.851,3.851
		c-2.127,0-3.851-1.724-3.851-3.851l-0.001-21.306c0-0.178-0.144-0.321-0.321-0.321h-0.005h-0.616H49.48
		c-0.178,0-0.321,0.144-0.321,0.321l-0.001,21.306c0,2.127-1.724,3.851-3.851,3.851c-2.127,0-3.851-1.724-3.851-3.851
		c0-0.008,0.001-21.306,0.001-21.306c0-0.177-0.13-0.322-0.307-0.322h-6.267c-0.311,0-0.359-0.298-0.311-0.468l8.933-29.234
		c0.047-0.17-0.057-0.322-0.234-0.319h-0.001c0,0-0.601,0-0.629,0c-0.312,0-0.445,0.255-0.471,0.317c0,0-4.462,14.549-4.464,14.549
		c-0.484,1.575-2.154,2.461-3.73,1.978c-1.577-0.484-2.463-2.154-1.98-3.731c0.002-0.006,4.46-14.562,4.474-14.612
		c0.682-2.371,2.344-7.77,7.037-7.77h12.588c5.036,0,6.339,5.399,7.021,7.77c0,0,0.612,1.999,1.442,4.711
		c0.257-2.953,0.45-5.166,0.457-5.245c0.367-4.232,3.143-7.23,7.073-7.23c0.1,0,5.382,0,7.859,0c0.761,0,1.258,0,1.258,0
		c2.477,0,7.759,0,7.859,0c3.93,0,7.073,3.144,7.073,7.231C96.136,61.87,96.136,82.364,96.136,82.373z"/>
</g>
</svg>
