<?xml version="1.0" encoding="utf-8"?>
<!-- Generator: Adobe Illustrator 16.0.0, SVG Export Plug-In . SVG Version: 6.00 Build 0)  -->
<!DOCTYPE svg PUBLIC "-//W3C//DTD SVG 1.1//EN" "http://www.w3.org/Graphics/SVG/1.1/DTD/svg11.dtd">
<svg version="1.1" id="Layer_2" xmlns="http://www.w3.org/2000/svg" xmlns:xlink="http://www.w3.org/1999/xlink" x="0px" y="0px"
	 width="126px" height="126px" viewBox="0 0 126 126" enable-background="new 0 0 126 126" xml:space="preserve">
<g>
	<path d="M102.377,29.962c-0.163-0.101-0.336-0.167-0.506-0.247c-1.38-0.904-2.925-1.57-4.498-1.956l-3.138,3.157l-3.041-3.194
		c-0.011,0.005-0.022,0.005-0.032,0.007c-1.509,0.361-2.989,0.986-4.328,1.827c-0.334,0.103-0.664,0.235-0.981,0.415
		c-1.949,1.095-3.804,1.309-5.836,0.675C73.294,28.55,67.029,18.288,65.187,14.52c-1.18-2.429-4.105-3.442-6.535-2.266
		c-1.306,0.638-2.184,1.781-2.551,3.076c0,0-0.215,0.364-0.274,1.124H7.477V124.16h56.431V30.407
		c0.86,0.932,1.416,1.476,1.416,1.476c3.219,3.479,7.194,6.662,11.762,8.091c1.415,0.445,2.84,0.688,4.26,0.765v25.768
		c0,1.33,0.262,2.57,0.719,3.708c-0.032,0.246-0.075,0.487-0.075,0.743l0.047,46.819c0.004,3.19,2.589,5.771,5.779,5.771h0.006
		c3.19-0.002,5.776-2.592,5.771-5.782l-0.041-40.175c0.228,0.011,0.453,0.028,0.682,0.028c0.047,0,0.095-0.007,0.141-0.007
		l0.037,40.164c0.003,3.19,2.59,5.771,5.779,5.771h0.004c3.192-0.002,5.777-2.592,5.773-5.782l-0.041-45.925
		c0.304,0.287,0.634,0.556,1.021,0.767c0.742,0.4,1.542,0.593,2.333,0.593c1.733,0,3.412-0.922,4.299-2.554
		C127.375,45.292,108.56,33.752,102.377,29.962z M57.78,118.034H13.605V22.58H57.78V118.034z M94.266,55.841h-0.06l-3.036-4.156
		l3.036-20.3h0.06l3.036,20.3L94.266,55.841z M107.126,61.386V47.403C108.993,50.938,109.411,55.408,107.126,61.386z"/>
	<circle cx="94.235" cy="14.434" r="12.594"/>
	<path d="M53.694,30.405H18.355v16.136h35.339V30.405z M38.987,35.513H32.45v-1.634h6.537V35.513z"/>
	<path d="M53.694,51.649H18.355v16.137h35.339V51.649z M38.987,56.757H32.45v-1.633h6.537V56.757z"/>
	<path d="M53.694,73.372H18.355V89.51h35.339V73.372z M38.987,78.479H32.45v-1.636h6.537V78.479z"/>
	<path d="M53.694,94.956H18.355v16.134h35.339V94.956z M38.987,100.063H32.45v-1.637h6.537V100.063z"/>
</g>
</svg>
