<?xml version="1.0" encoding="utf-8"?>
<!-- Generator: Adobe Illustrator 16.0.0, SVG Export Plug-In . SVG Version: 6.00 Build 0)  -->
<!DOCTYPE svg PUBLIC "-//W3C//DTD SVG 1.1//EN" "http://www.w3.org/Graphics/SVG/1.1/DTD/svg11.dtd">
<svg version="1.1" id="Layer_3" xmlns="http://www.w3.org/2000/svg" xmlns:xlink="http://www.w3.org/1999/xlink" x="0px" y="0px"
	 width="126px" height="126px" viewBox="0 0 126 126" enable-background="new 0 0 126 126" xml:space="preserve">
<g>
	<path d="M119.028,59.184v-2.497h-6v2.497v10.002c-0.751-1.632-2.39-2.771-4.304-2.771H94.405h-19.2H17.275
		c-1.913,0-3.552,1.139-4.303,2.77V59.184v-2.497h-6v2.497H2.218v40.312h10.753V83.662h69.441h5.224h25.391v15.833h10.753V59.184
		H119.028z M113.028,77.662H87.85h-5.644H12.972v-4.523c0.751,1.631,2.39,2.77,4.303,2.77H81.66h6.737h20.327
		c1.914,0,3.553-1.139,4.304-2.771V77.662z"/>
	<path d="M18.219,63.996h9.5c1.749,0,3.167-1.418,3.167-3.167c0-1.191-0.666-2.217-1.638-2.757c4.786-0.7,8.444-4.83,8.401-9.803
		c-0.046-5.431-4.486-9.795-9.917-9.748c-5.431,0.046-9.795,4.487-9.749,9.918c0.038,4.299,2.833,7.92,6.688,9.223h-6.453
		c-1.749,0-3.167,1.418-3.167,3.167S16.47,63.996,18.219,63.996z"/>
	<path d="M72.797,49.274c-1.288-2.114-3.402-3.726-6.232-3.7l-21.705,0.187c-4.028,0.034-6.7,3.594-7.477,6.886
		c0,0-0.301,1.038-0.267,2.141c0.033,1.053,0.288,2.225,0.288,2.225l0.004,0.029c0.838,3.3,3.564,6.801,7.608,6.765l21.705-0.187
		c1.392-0.012,2.612-0.447,3.655-1.145c0.095,0.006,0.186,0.028,0.283,0.028c0,0,0.001,0,0.002,0l33.818-0.015
		c2.669-0.002,4.833-2.166,4.831-4.835c0-2.668-2.164-4.831-4.833-4.831c0,0-0.001,0-0.001,0l-30.793,0.014
		C73.715,50.534,72.797,49.274,72.797,49.274z"/>
	<path d="M43.896,27.826c-0.917,3.79-1.274,4.688-1.785,8.082c0.205,0.695,0.308,1.044,0.513,1.733
		c2.32-0.245,3.481-0.367,5.802-0.612c-0.181-0.498-0.271-0.765-0.452-1.334c-1.587,0.003-2.38-0.017-3.967-0.108
		c0.625-2.872,1.041-4.037,2.072-8.02c-0.143-0.836-0.214-1.263-0.356-2.142C43.041,25.144,41.7,25,39.018,24.717
		c0.26,0.939,0.39,1.407,0.649,2.336C41.359,27.411,42.205,27.563,43.896,27.826z"/>
	<path d="M50.579,31.627c-0.866,2.437-1.246,2.973-1.901,4.464c0.122,0.371,0.182,0.549,0.303,0.881
		c1.883-0.199,2.825-0.299,4.708-0.498c-0.099-0.292-0.146-0.464-0.245-0.861c-1.148,0.073-1.722,0.104-2.871,0.148
		c0.716-1.351,1.123-2.08,2.038-4.382c-0.084-0.668-0.127-1.021-0.212-1.766c-2.048-0.124-3.071-0.206-5.119-0.45
		c0.156,0.936,0.233,1.385,0.389,2.255C48.833,31.539,49.416,31.58,50.579,31.627z"/>
	<path d="M56.542,31.494c-1.068,2.177-1.55,3.101-2.409,4.291c0.07,0.282,0.104,0.408,0.174,0.624
		c1.883-0.199,2.824-0.299,4.708-0.497c-0.031-0.349-0.046-0.54-0.077-0.96c-1.148,0.17-1.723,0.256-2.871,0.412
		c0.913-1.303,1.419-2.27,2.533-4.312c-0.027-0.556-0.039-0.846-0.066-1.453c-2.048,0.074-3.072,0.176-5.12,0.069
		c0.088,0.855,0.132,1.256,0.221,1.999C54.798,31.654,55.379,31.595,56.542,31.494z"/>
	<path d="M62.508,30.857c-1.272,1.828-1.856,2.826-2.918,4.239c0.018,0.319,0.026,0.469,0.044,0.751
		c1.883-0.198,2.824-0.298,4.708-0.496c0.037-0.494,0.055-0.74,0.091-1.237c-1.148,0.176-1.721,0.264-2.87,0.439
		c1.112-1.513,1.718-2.499,3.03-4.127c0.03-0.433,0.044-0.651,0.074-1.087c-2.048,0.087-3.072,0.14-5.12,0.221
		c0.021,0.683,0.032,1.007,0.053,1.629C60.764,31.062,61.345,30.993,62.508,30.857z"/>
	<path d="M69.928,33.399c-1.148,0.105-1.723,0.154-2.871,0.321c1.311-1.726,2.017-2.652,3.526-3.753
		c0.086-0.308,0.129-0.455,0.216-0.736c-2.048-0.053-3.072-0.015-5.12,0.067c-0.046,0.479-0.067,0.722-0.113,1.208
		c1.163-0.128,1.744-0.189,2.907-0.295c-1.475,1.403-2.161,2.396-3.426,4.092c-0.034,0.392-0.051,0.588-0.085,0.982
		c1.883-0.198,2.825-0.299,4.708-0.497C69.772,34.215,69.824,33.938,69.928,33.399z"/>
	<path d="M74.436,30.067c-1.679,0.814-2.463,1.832-3.932,3.581c-0.086,0.421-0.13,0.635-0.216,1.075
		c1.883-0.198,2.825-0.298,4.708-0.496c0.17-0.498,0.256-0.739,0.426-1.216c-1.148,0.052-1.723,0.085-2.871,0.169
		c1.508-1.619,2.313-2.475,4.021-3.116c0.144-0.209,0.215-0.31,0.359-0.503c-2.048-0.178-3.071-0.23-5.119-0.3
		c-0.113,0.308-0.169,0.473-0.282,0.813C72.692,30.046,73.272,30.041,74.436,30.067z"/>
	<path d="M75.958,33.247c-0.138,0.36-0.207,0.543-0.344,0.915c1.883-0.199,2.825-0.299,4.708-0.497
		c0.238-0.292,0.356-0.438,0.594-0.722c-1.148-0.03-1.722-0.03-2.87-0.014c1.706-1.209,2.608-1.523,4.515-2.021
		c0.201-0.221,0.302-0.328,0.503-0.543c-2.048-0.37-3.072-0.507-5.12-0.711c-0.181,0.222-0.271,0.337-0.451,0.578
		c1.163,0.104,1.745,0.173,2.908,0.365C78.518,31.116,77.629,31.776,75.958,33.247z"/>
</g>
</svg>
