<?xml version="1.0" encoding="utf-8"?>
<!-- Generator: Adobe Illustrator 16.0.0, SVG Export Plug-In . SVG Version: 6.00 Build 0)  -->
<!DOCTYPE svg PUBLIC "-//W3C//DTD SVG 1.1//EN" "http://www.w3.org/Graphics/SVG/1.1/DTD/svg11.dtd">
<svg version="1.1" id="Layer_3" xmlns="http://www.w3.org/2000/svg" xmlns:xlink="http://www.w3.org/1999/xlink" x="0px" y="0px"
	 width="126px" height="126px" viewBox="0 0 126 126" enable-background="new 0 0 126 126" xml:space="preserve">
<g>
	<path d="M119.027,59.044v-2.497h-6v2.497v10.002c-0.75-1.632-2.389-2.771-4.303-2.771H94.924H77.055h-4.107v0.611
		c0,0.111-0.002,0.223-0.008,0.335c2.252,1.836,5.031,4.727,6.453,8.547h4.115h5.408h19.809c1.914,0,3.553-1.139,4.303-2.771v4.524
		H88.369h-4.314h-4.121c0.361,1.514,0.502,3.151,0.316,4.912c-0.037,0.337-0.078,0.705-0.125,1.088h4.137h3.895h24.871v15.833
		h10.754V59.044H119.027z M77.055,66.898c0,0.024-0.002,0.049-0.002,0.073c-0.396-0.024-0.629-0.049-0.629-0.073l0.631-0.021V66.898
		z"/>
	<path d="M17.275,75.769h24.203c1.357-3.629,3.926-6.406,6.027-8.197c-0.018-0.232-0.025-0.46-0.025-0.685v-0.611H35.775
		c-20.414,0-22.053,1.139-22.805,2.77V59.044v-2.497h-6v2.497H2.219v40.312h10.752V83.522h27.768
		c-0.045-0.383-0.088-0.751-0.123-1.088c-0.186-1.76-0.045-3.398,0.318-4.912H12.971v-4.523
		C13.723,74.63,15.361,75.769,17.275,75.769z"/>
	<path d="M66.701,81.01c0.07-0.666-0.73-1.969-2.617-3.409c-2.418,0.686-4.99,0.714-7.41,0.093
		c-1.811,1.412-2.578,2.676-2.512,3.316c0.076,0.712,0.184,1.565,0.313,2.513h11.914C66.52,82.575,66.627,81.722,66.701,81.01z"/>
	<path d="M18.219,63.856h9.5c1.748,0,3.166-1.418,3.166-3.167s-1.418-3.167-3.166-3.167h-9.5c-1.75,0-3.168,1.418-3.168,3.167
		S16.469,63.856,18.219,63.856z"/>
	<path d="M70.846,68.123c0.061-0.402,0.102-0.813,0.102-1.236V45.138c8.689-0.983,14.057-2.644,15.966-4.948
		c0.897-1.083,1.312-2.416,1.167-3.753c-0.17-1.572-2.628-6.366-18.308-11.823c0.044,0.163,0.08,0.337,0.118,0.508
		C68.43,21.088,64.577,18.2,60.04,18.2c-4.638,0-8.563,3.013-9.948,7.185c-13.977,5.152-16.293,9.541-16.457,11.052
		c-0.145,1.337,0.269,2.67,1.167,3.753c1.813,2.188,6.745,3.796,14.679,4.795v21.902c0,0.529,0.061,1.037,0.152,1.53
		c-3.848,2.998-7.662,7.792-7.029,13.809c0.752,7.136,4.176,25.728,4.322,26.515c0.428,2.318,2.451,3.939,4.727,3.939
		c0.289,0,0.582-0.026,0.877-0.08c2.613-0.483,4.342-2.992,3.859-5.604c-0.035-0.19-3.502-19.011-4.215-25.776
		c-0.232-2.217,2.268-4.443,4.117-5.724c1.24,0.419,2.572,0.645,3.922,0.645c1.459,0,2.893-0.268,4.217-0.753
		c1.842,1.248,4.502,3.545,4.26,5.832c-0.711,6.766-4.18,25.586-4.215,25.776c-0.48,2.612,1.246,5.121,3.859,5.604
		c0.295,0.054,0.588,0.08,0.879,0.08c2.275,0,4.299-1.621,4.727-3.939c0.145-0.787,3.57-19.379,4.32-26.515
		C78.914,76.008,74.82,71.096,70.846,68.123z M68.076,37.386c-2.107,1.839-4.854,2.962-7.863,2.962
		c-3.096,0-5.911-1.189-8.041-3.123c-2.721-0.315-5.328-0.728-7.39-1.16c1.225-0.616,4.158-1.652,6.04-2.373
		c1.776,3.267,5.237,5.482,9.218,5.482c4.291,0,7.975-2.58,9.598-6.271c2.141,0.826,5.632,2.333,7.284,3.165
		C74.492,36.576,71.311,37.058,68.076,37.386z"/>
	<path d="M75.925,18.553c-0.031,1.246-0.052,2.492-0.047,3.738l0.004,1.113l0.821-0.744c1.202-1.092,2.391-2.195,3.546-3.34
		c1.162-1.135,2.288-2.309,3.374-3.529c-1.331,0.947-2.621,1.939-3.876,2.971c-0.983,0.797-1.941,1.621-2.893,2.453
		c-0.004-1.141-0.007-2.281-0.043-3.424l-0.025-0.809l-0.647,0.439c-0.897,0.611-1.788,1.234-2.664,1.877
		c-0.875,0.646-1.744,1.303-2.591,1.992c0.983-0.477,1.944-0.986,2.899-1.508C74.505,19.387,75.215,18.969,75.925,18.553z"/>
	<path d="M42.743,17.758c-0.902,0.859-1.799,1.725-2.677,2.609l-0.785,0.791l1.107,0.053c1.621,0.078,3.243,0.139,4.868,0.146
		c1.625,0.02,3.251-0.016,4.882-0.109c-1.61-0.271-3.224-0.482-4.841-0.641c-1.259-0.131-2.52-0.227-3.781-0.311
		c0.804-0.811,1.609-1.619,2.391-2.451l0.555-0.592l-0.77-0.146c-1.066-0.201-2.136-0.391-3.211-0.555
		c-1.075-0.162-2.153-0.314-3.24-0.424c1.032,0.357,2.073,0.676,3.116,0.982C41.149,17.344,41.946,17.549,42.743,17.758z"/>
	<path d="M94.776,34.658l-2.531,2.614l1.205,1.166l2.701-2.792c1.291,0.78,2.767,1.296,4.367,1.44
		c1.714,0.154,3.366-0.129,4.854-0.749l2.258,3.379l1.394-0.932l-2.156-3.227c2.633-1.647,4.501-4.454,4.8-7.778
		c0.171-1.894-0.196-3.709-0.958-5.313c0.384-0.092,0.742-0.278,1.023-0.579c0.829-0.887,0.709-2.346-0.266-3.259
		c-0.976-0.913-2.44-0.934-3.269-0.048c-0.098,0.104-0.18,0.218-0.251,0.338c-1.538-1.265-3.457-2.098-5.584-2.29
		c-2.25-0.203-4.392,0.349-6.194,1.433c-0.048-0.126-0.107-0.25-0.182-0.366c-0.657-1.02-2.101-1.261-3.224-0.537
		c-1.124,0.723-1.502,2.137-0.845,3.157c0.246,0.382,0.602,0.653,1.009,0.808c-0.939,1.389-1.554,3.027-1.715,4.813
		C90.9,29.373,92.335,32.566,94.776,34.658z M93.435,26.137c0.398-4.414,4.312-7.68,8.726-7.282
		c4.412,0.398,7.679,4.312,7.281,8.725c-0.398,4.413-4.312,7.68-8.725,7.282C96.305,34.463,93.038,30.55,93.435,26.137z"/>
	<polygon points="106.423,26.467 102.349,26.099 102.729,21.875 101.061,21.724 100.529,27.617 106.272,28.136 	"/>
	<path d="M89.419,18.782l-0.002-1.036c-1.207,0.003-2.295,0.642-2.909,1.713c-0.614,1.068-0.617,2.331-0.009,3.373l0.895-0.521
		c-0.419-0.72-0.414-1.594,0.013-2.338C87.834,19.229,88.586,18.783,89.419,18.782z"/>
	<path d="M85.58,23.993c-1.067-1.429-1.219-3.34-0.395-4.984c0.826-1.647,2.447-2.671,4.232-2.671c0,0,0,0,0.001,0v-1.035
		c0,0,0,0,0,0c-2.18,0-4.156,1.242-5.158,3.242c-1.001,1.997-0.813,4.323,0.491,6.067L85.58,23.993z"/>
	<path d="M115.225,20.902c0.626-1.033,0.645-2.295,0.05-3.376c-0.595-1.08-1.671-1.738-2.879-1.761l-0.02,1.035
		c0.833,0.015,1.577,0.474,1.991,1.227c0.414,0.751,0.404,1.626-0.028,2.337L115.225,20.902z"/>
	<path d="M116.346,16.631c0.979,1.561,1.01,3.479,0.082,5.003l0.885,0.538v-0.001c1.132-1.862,1.098-4.194-0.089-6.091
		c-1.187-1.893-3.271-2.94-5.439-2.733l0.099,1.03C113.658,14.208,115.368,15.07,116.346,16.631z"/>
</g>
</svg>
