<?xml version="1.0" encoding="utf-8"?>
<!-- Generator: Adobe Illustrator 16.0.0, SVG Export Plug-In . SVG Version: 6.00 Build 0)  -->
<!DOCTYPE svg PUBLIC "-//W3C//DTD SVG 1.1//EN" "http://www.w3.org/Graphics/SVG/1.1/DTD/svg11.dtd">
<svg version="1.1" id="Layer_3" xmlns="http://www.w3.org/2000/svg" xmlns:xlink="http://www.w3.org/1999/xlink" x="0px" y="0px"
	 width="126px" height="126px" viewBox="0 0 126 126" enable-background="new 0 0 126 126" xml:space="preserve">
<g>
	<circle cx="61.536" cy="16.859" r="14.29"/>
	<path d="M103.012,58.557l-0.966-0.698c-0.173-1.063-0.363-2.131-0.583-3.209c-0.39-1.91-2.252-3.143-4.164-2.754
		c-0.783,0.16-1.443,0.576-1.933,1.133l-4.22-3.052c-0.568-2.62-2.975-4.526-5.721-4.36c-4.211,0.231-8.832,0.242-10.469,0.037
		c-2.075-1.397-8.68-6.88-14.579-11.971c-0.525-0.543-1.078-1.044-1.652-1.483l-0.036-0.024c0,0-1.42-1.01-2.809-1.654
		c-1.453-0.675-3.012-0.867-3.012-0.867c-4.843-0.844-11.125,0.693-13.474,6.056L26.742,64.602
		c-2.392,5.462,0.668,10.88,4.763,13.826c0.515,0.372,1.059,0.699,1.615,1.003h-8.268c-1.605,0-2.908,1.303-2.908,2.908
		c0,1.606,1.302,2.908,2.908,2.908h2.528c-2.068,5.579-3.046,12.666,1.458,16.371c-0.06,0.627-0.097,1.26-0.097,1.902
		c0,10.98,8.933,19.914,19.914,19.914c2.19,0,4.292-0.37,6.265-1.024c0.16-0.005,0.322-0.024,0.484-0.064l37.064-9.317
		c0.112-0.028,0.216-0.072,0.32-0.115c4.013-1.237,6.939-4.979,6.939-9.393c0-2.968-1.329-5.622-3.416-7.422
		c5.395-9.231,7.587-20.631,6.372-33.256c0.344-0.175,0.655-0.43,0.896-0.765C104.394,60.949,104.141,59.373,103.012,58.557z
		 M79.062,56.913c1.865,0,4.156-0.063,6.978-0.22c1.406-0.077,2.655-0.677,3.584-1.593l5.468,3.953
		c2.215,13.521,0.359,25.226-5.385,34.363l-22.993-5.848c2.359-5.92,1.514-7.564,0.635-9.25c-1.02-1.956-2.242-4.288-14.886-7.078
		l9.496-21.681c6.924,5.687,8.302,6.229,8.924,6.473C71.515,56.281,73.13,56.913,79.062,56.913z M32.841,85.247h5.167
		c1.584,0,2.867-1.269,2.901-2.845c2.25,0.39,4.526,0.818,6.662,1.259c-7.418,0.402-13.756,4.869-16.832,11.221
		C30.375,91.92,31.694,87.89,32.841,85.247z M48.654,118.909c-8.485,0-15.389-6.904-15.389-15.389
		c0-8.485,6.904-15.389,15.389-15.389c1.069,0,2.112,0.111,3.121,0.318c-2.679,5.086-6.547,11.808-10.117,17.614
		c-1.896,3.084-0.933,7.123,2.151,9.019c1.071,0.658,2.257,0.973,3.428,0.973c2.202,0,4.353-1.11,5.591-3.124
		c4.172-6.785,7.262-12.112,9.542-16.353c1.062,2.088,1.673,4.442,1.673,6.941C64.043,112.005,57.139,118.909,48.654,118.909z"/>
</g>
</svg>
