<?xml version="1.0" encoding="utf-8"?>
<!-- Generator: Adobe Illustrator 16.0.0, SVG Export Plug-In . SVG Version: 6.00 Build 0)  -->
<!DOCTYPE svg PUBLIC "-//W3C//DTD SVG 1.1//EN" "http://www.w3.org/Graphics/SVG/1.1/DTD/svg11.dtd">
<svg version="1.1" id="Layer_2" xmlns="http://www.w3.org/2000/svg" xmlns:xlink="http://www.w3.org/1999/xlink" x="0px" y="0px"
	 width="126px" height="126px" viewBox="0 0 126 126" enable-background="new 0 0 126 126" xml:space="preserve">
<g>
	<circle cx="63.12" cy="13.608" r="12.889"/>
	<path d="M24.137,33.792c-0.854,0-1.201,0.774-1.254,1.321h2.403C25.285,34.619,25.072,33.792,24.137,33.792z"/>
	<path d="M113.997,35.113c0-6.353-5.15-11.503-11.503-11.503S90.99,28.76,90.99,35.113c0,4.411,2.485,8.237,6.129,10.167
		c-9.713-0.857-15.444-6.354-20.112-10.854c-1.607-1.548-3.048-2.929-4.532-4.004c-1.747-1.534-3.917-2.63-6.145-3.177l-3.21,3.232
		l-3.114-3.268c-0.011,0.002-0.021,0.003-0.031,0.006c-2.01,0.48-3.971,1.416-5.625,2.713c-1.758,1.129-3.41,2.69-5.287,4.498
		c-4.883,4.706-10.929,10.502-21.479,10.938c4.337-1.647,7.427-5.831,7.427-10.746c0-6.353-5.15-11.503-11.503-11.503
		s-11.503,5.15-11.503,11.503s5.15,11.503,11.503,11.503c0.102,0,0.202-0.013,0.303-0.015c-1.484,0.868-2.492,2.461-2.492,4.304
		c0,2.764,2.241,5.004,5.004,5.004c10.627,0,18.184-4.118,23.605-8.363V66.9c0,1.596,0.366,3.063,0.996,4.385
		c-0.001,0.054-0.017,0.104-0.017,0.159l-0.042,47.917c-0.002,3.265,2.643,5.916,5.908,5.919c0.002,0,0.003,0,0.005,0
		c3.264,0,5.912-2.644,5.914-5.909l0.036-41.115c0.131,0.003,0.261,0.017,0.392,0.017c0.153,0,0.304-0.015,0.457-0.019
		l-0.001,41.112c0,3.267,2.648,5.914,5.914,5.914c3.266,0,5.914-2.647,5.914-5.914l0.002-47.917c0-0.103-0.025-0.197-0.03-0.298
		c0.592-1.287,0.936-2.708,0.936-4.251V47.183c5.41,4.199,12.918,8.232,23.436,8.232c2.764,0,5.004-2.24,5.004-5.004
		c0-1.54-0.71-2.9-1.804-3.818C109.088,46.353,113.997,41.313,113.997,35.113z M30.028,36.541c-1.348-0.454-1.869-1.188-1.855-1.962
		c0-1.215,1.041-2.136,2.657-2.136c0.761,0,1.442,0.173,1.843,0.374l-0.36,1.402c-0.294-0.161-0.854-0.374-1.416-0.374
		c-0.494,0-0.774,0.2-0.774,0.534c0,0.307,0.253,0.467,1.055,0.748c1.242,0.427,1.762,1.054,1.776,2.016
		c0,1.215-0.961,2.109-2.831,2.109c-0.854,0-1.616-0.187-2.109-0.455l0.36-1.455c0.374,0.228,1.148,0.494,1.749,0.494
		c0.614,0,0.868-0.213,0.868-0.547C30.99,36.956,30.79,36.795,30.028,36.541z M18.913,39.118h-2.029v-3.685L14.04,30.12h2.323
		l0.921,2.163c0.28,0.655,0.467,1.135,0.694,1.723h0.027c0.201-0.561,0.414-1.082,0.681-1.723l0.908-2.163h2.283l-2.964,5.247
		V39.118z M20.959,35.928c0-1.656,1.028-3.485,3.297-3.485c2.109,0,2.911,1.642,2.911,3.257c0,0.348-0.04,0.655-0.067,0.801h-4.205
		c0.066,0.841,0.895,1.242,1.842,1.242c0.694,0,1.255-0.094,1.803-0.267l0.267,1.375c-0.667,0.267-1.481,0.4-2.363,0.4
		C22.228,39.252,20.959,37.97,20.959,35.928z M63.15,55.987h-0.06l-3.108-4.254l3.108-20.777h0.06l0.484,3.235
		c0.011,0.163,0.046,0.32,0.072,0.479l2.552,17.063L63.15,55.987z M95.457,29.872h2.376l1.869,3.297
		c0.534,0.948,1.068,2.069,1.469,3.084h0.04c-0.134-1.188-0.174-2.404-0.174-3.752v-2.63h1.869v8.998h-2.136l-1.922-3.471
		c-0.534-0.962-1.122-2.123-1.562-3.178l-0.041,0.013c0.054,1.188,0.081,2.457,0.081,3.926v2.71h-1.869V29.872z M107.572,39.017
		c-1.91,0-3.378-1.255-3.378-3.365c0-2.109,1.388-3.458,3.484-3.458c2.003,0,3.338,1.375,3.338,3.337
		C111.016,37.922,109.321,39.017,107.572,39.017z"/>
	<path d="M107.625,33.637c-0.975,0-1.335,1.001-1.335,1.962c0,1.122,0.467,1.963,1.335,1.963c0.788,0,1.295-0.788,1.295-1.963
		C108.92,34.625,108.546,33.637,107.625,33.637z"/>
</g>
</svg>
