<?xml version="1.0" encoding="utf-8"?>
<!-- Generator: Adobe Illustrator 16.0.0, SVG Export Plug-In . SVG Version: 6.00 Build 0)  -->
<!DOCTYPE svg PUBLIC "-//W3C//DTD SVG 1.1//EN" "http://www.w3.org/Graphics/SVG/1.1/DTD/svg11.dtd">
<svg version="1.1" id="Layer_1" xmlns="http://www.w3.org/2000/svg" xmlns:xlink="http://www.w3.org/1999/xlink" x="0px" y="0px"
	 width="126px" height="126px" viewBox="0 0 126 126" enable-background="new 0 0 126 126" xml:space="preserve">
<path d="M62.529,23.306c0-6.395,5.183-11.578,11.578-11.578c6.395,0,11.579,5.184,11.579,11.578s-5.184,11.578-11.579,11.578
	C67.712,34.884,62.529,29.7,62.529,23.306z M91.893,74.987c-0.815,1.499-2.359,2.348-3.953,2.348c-0.726,0-1.461-0.176-2.144-0.547
	c-0.355-0.193-0.66-0.439-0.939-0.706l-0.001,42.228c0,2.934-2.379,5.313-5.313,5.313c0,0,0,0,0,0c-2.934,0-5.312-2.379-5.312-5.313
	l0.001-36.92c-0.042,0-0.083,0.005-0.125,0.005c-0.212,0-0.421-0.017-0.632-0.026l0.003,36.941c0,2.934-2.378,5.312-5.312,5.313
	c-2.934,0-5.313-2.378-5.313-5.313l-0.003-43.044c0-0.232,0.04-0.453,0.068-0.678c-0.42-1.047-0.661-2.186-0.661-3.409V47.49
	c-1.305-0.068-2.615-0.294-3.916-0.702c-6.572-2.057-11.813-8.056-15.131-12.885l-0.88,6.052l-1.221-0.49l1.041-7.164
	c-1.59-2.492-2.572-4.447-2.835-4.989c-1.084-2.232-0.153-4.923,2.08-6.007c0.879-0.427,1.827-0.532,2.722-0.377l2.736-18.55
	l1.268,0.188l-2.771,18.773c0.861,0.427,1.6,1.114,2.052,2.046c1.695,3.467,7.454,12.9,13.636,14.827
	c1.867,0.581,3.572,0.385,5.365-0.623c0.292-0.164,0.595-0.286,0.902-0.379c1.231-0.775,2.592-1.349,3.979-1.681
	c0.009-0.003,0.019-0.003,0.029-0.006l2.796,2.936l2.884-2.903c1.447,0.355,2.867,0.968,4.137,1.801
	c0.155,0.072,0.314,0.132,0.464,0.224C87.276,41.067,104.575,51.677,91.893,74.987z M74.135,61.375l2.792-3.821L74.135,38.89h-0.054
	l-2.792,18.664l2.792,3.821H74.135z M85.958,53.618v12.854C88.059,60.977,87.674,56.865,85.958,53.618z M46.013,2.396L29.564,3.301
	l15.031,8.693L46.013,2.396z"/>
</svg>
