<?xml version="1.0" encoding="utf-8"?>
<!-- Generator: Adobe Illustrator 16.0.0, SVG Export Plug-In . SVG Version: 6.00 Build 0)  -->
<!DOCTYPE svg PUBLIC "-//W3C//DTD SVG 1.1//EN" "http://www.w3.org/Graphics/SVG/1.1/DTD/svg11.dtd">
<svg version="1.1" id="Layer_1" xmlns="http://www.w3.org/2000/svg" xmlns:xlink="http://www.w3.org/1999/xlink" x="0px" y="0px"
	 width="126px" height="126px" viewBox="0 0 126 126" enable-background="new 0 0 126 126" xml:space="preserve">
<g>
	<circle cx="44.828" cy="87.735" r="7.571"/>
	<path d="M49.863,97.148c-0.127-0.077-0.262-0.134-0.395-0.189c-0.844-0.564-1.79-0.977-2.756-1.213l-1.885,1.898l-1.829-1.92
		c-0.006,0.002-0.013,0.002-0.018,0.004c-0.985,0.234-1.952,0.657-2.81,1.232c-0.131,0.056-0.263,0.11-0.388,0.188
		c-2.335,1.432-7.658,4.708-9.242,10.721c-1.585-6.013-6.908-9.289-9.243-10.721c-0.128-0.077-0.261-0.134-0.394-0.189
		c-0.844-0.564-1.79-0.977-2.757-1.213l-1.886,1.898l-1.827-1.92c-0.008,0.002-0.013,0.002-0.018,0.004
		c-0.987,0.234-1.952,0.657-2.81,1.232c-0.133,0.056-0.265,0.11-0.388,0.188c-2.887,1.771-10.334,6.35-9.654,15.433h5.926
		c-0.225-2.077,0.196-3.778,1.022-5.215v5.215h7.699l-1.794-2.453l1.826-12.204h0.035l1.825,12.204l-1.792,2.453h7.697v-5.199
		c0.821,1.433,1.238,3.132,1.015,5.199h5.104h0.82h5.105c-0.226-2.077,0.195-3.778,1.023-5.215v5.215h7.697l-1.793-2.453
		l1.826-12.204h0.035l1.826,12.204l-1.792,2.453h7.696v-5.199c0.822,1.433,1.238,3.132,1.014,5.199h5.928
		C60.195,103.498,52.747,98.919,49.863,97.148z"/>
	<circle cx="16.263" cy="87.735" r="7.571"/>
	<circle cx="74.3" cy="87.735" r="7.571"/>
	<path d="M79.335,97.148c-0.126-0.077-0.261-0.134-0.395-0.189c-0.842-0.564-1.788-0.977-2.755-1.213L74.3,97.645l-1.828-1.92
		c-0.007,0.002-0.013,0.002-0.019,0.004c-0.985,0.234-1.951,0.657-2.81,1.232c-0.131,0.056-0.263,0.11-0.386,0.188
		c-2.887,1.771-10.336,6.35-9.654,15.433h5.926c-0.226-2.077,0.194-3.778,1.022-5.215v5.215h7.697l-1.792-2.453l1.825-12.204h0.035
		l1.826,12.204l-1.792,2.453h7.697v-5.199c0.821,1.433,1.238,3.132,1.015,5.199h5.925C89.669,103.498,82.221,98.919,79.335,97.148z"
		/>
	<circle cx="60.029" cy="78.344" r="7.815"/>
	<path d="M65.408,88.171c-0.061-0.037-0.122-0.074-0.181-0.112c-0.132-0.079-0.271-0.136-0.407-0.195
		c-0.871-0.58-1.848-1.008-2.845-1.252l-1.946,1.961l-1.888-1.98c-0.006,0-0.013,0-0.02,0.002c-1.017,0.242-2.014,0.679-2.899,1.271
		c-0.135,0.06-0.271,0.114-0.399,0.193c-0.222,0.138-0.478,0.296-0.746,0.465c-0.166,2.983-1.76,5.588-4.126,7.124
		c0.145,0.083,0.292,0.163,0.431,0.253c0.158,0.068,0.313,0.146,0.464,0.238c1.729,1.061,4.569,2.599,7.131,5.773l0.149-0.453
		l1.885-12.598h0.037c0,0,1.85,12.598,1.884,12.598c2.407-3.182,5.059-4.303,6.721-5.32c0.161-0.101,0.322-0.176,0.458-0.236
		c0.143-0.092,0.292-0.174,0.439-0.26C67.096,94.047,65.46,91.302,65.408,88.171z"/>
	<path d="M21.388,95.647c0.146,0.083,0.293,0.163,0.432,0.253c0.159,0.07,0.312,0.146,0.462,0.238
		c1.472,0.901,4.124,2.53,6.389,5.118l1.854-12.396h0.037l1.885,12.598l6.733-5.32c0.162-0.101,0.325-0.176,0.461-0.236
		c0.143-0.092,0.292-0.174,0.438-0.257c-2.452-1.597-4.086-4.34-4.141-7.463c-0.065-0.042-0.138-0.086-0.198-0.124
		c-0.131-0.079-0.269-0.136-0.406-0.195c-0.87-0.58-1.849-1.008-2.845-1.252l-1.946,1.961l-1.888-1.98c-0.006,0-0.013,0-0.019,0.002
		c-1.018,0.242-2.015,0.679-2.899,1.271c-0.066,0.028-0.13,0.063-0.195,0.095c0,0.022,0.005,0.042,0.005,0.062
		C25.546,91.215,23.886,94.025,21.388,95.647z"/>
	<circle cx="30.542" cy="78.344" r="7.815"/>
	<circle cx="103.15" cy="21.028" r="10.952"/>
	<path d="M110.437,34.647c-0.185-0.113-0.381-0.194-0.573-0.275c-1.22-0.814-2.588-1.412-3.985-1.755l-2.727,2.747l-2.646-2.778
		c-0.009,0.002-0.018,0.004-0.027,0.006c-1.431,0.342-2.832,0.956-4.075,1.793c-0.142,0.061-0.287,0.111-0.424,0.189
		c-1.32,0.426-5.111-0.002-11.279-1.263c0.412-1.335,1.092-3.074,1.834-4.638c0.434,0.396,0.958,0.751,1.555,1.033
		c2.193,1.031,4.524,0.692,5.206-0.756s-0.544-3.46-2.737-4.491c-1.479-0.697-3.015-0.761-4.071-0.287
		c-0.405-0.646-0.985-1.194-1.722-1.555c-0.859-0.424-1.793-0.524-2.666-0.358l-6.276-2.952l-0.347,0.734l-3.266-1.535l-0.327,0.698
		l3.265,1.537l-0.425,0.898l4.77,2.242c-0.157,0.209-0.298,0.434-0.419,0.678c-3.086,6.283-3.979,10.854-2.656,13.58
		c0.724,1.49,2.063,2.542,3.67,2.888l0.834,0.178c4.404,0.949,8.031,1.617,11.021,1.876v23.232c0,1.146,0.223,2.211,0.611,3.193
		c-0.03,0.22-0.051,0.443-0.051,0.672l0.004,40.72c0,2.774,2.249,5.024,5.025,5.024c2.775,0,5.025-2.251,5.025-5.025l-0.005-34.945
		c0.2,0.01,0.398,0.025,0.601,0.025c0.038,0,0.076-0.005,0.116-0.005l-0.002,34.925c0,2.774,2.251,5.025,5.026,5.025
		c2.774,0,5.025-2.251,5.025-5.025l0.002-40.019c0.307,0.334,0.672,0.626,1.093,0.856c0.646,0.352,1.343,0.518,2.028,0.518
		c1.508,0,2.968-0.803,3.739-2.221C132.175,47.983,115.813,37.946,110.437,34.647z M103.178,57.042h-0.054l-2.641-3.615
		l2.641-17.657h0.054l2.641,17.657L103.178,57.042z M114.361,62.501V49.453C116.211,52.682,116.664,56.825,114.361,62.501z"/>
</g>
</svg>
