<?xml version="1.0" encoding="utf-8"?>
<!-- Generator: Adobe Illustrator 16.0.0, SVG Export Plug-In . SVG Version: 6.00 Build 0)  -->
<!DOCTYPE svg PUBLIC "-//W3C//DTD SVG 1.1//EN" "http://www.w3.org/Graphics/SVG/1.1/DTD/svg11.dtd">
<svg version="1.1" id="Layer_2" xmlns="http://www.w3.org/2000/svg" xmlns:xlink="http://www.w3.org/1999/xlink" x="0px" y="0px"
	 width="126px" height="126px" viewBox="0 0 126 126" enable-background="new 0 0 126 126" xml:space="preserve">
<g>
	<circle cx="78.266" cy="17.357" r="12.464"/>
	<path d="M86.557,32.855c-0.186-0.115-0.384-0.193-0.58-0.28c-1.405-0.935-2.989-1.634-4.605-2.031l-3.105,3.125l-3.011-3.16
		c-0.01,0.002-0.021,0.003-0.031,0.006c-1.623,0.388-3.213,1.084-4.626,2.031c-0.215,0.093-0.431,0.182-0.637,0.309
		c-3.598,2.206-7.894,1.64-13.23,0.099c-1.692-0.958-5.325-7.05-7.672-12.881c-0.343-0.854-0.904-1.551-1.59-2.065l3.318-8.522
		L28.098,0.652L23.04,13.643l16.976,6.609c-0.384,1.074-0.396,2.286,0.063,3.427c1.983,4.941,7.303,16.637,13.845,18.538
		c2.358,0.685,6.128,1.781,10.388,1.781c0.395,0,0.795-0.012,1.198-0.033v24.927c0,1.303,0.253,2.517,0.696,3.634
		c-0.034,0.251-0.057,0.506-0.057,0.766l0.003,46.338c0,3.158,2.561,5.718,5.719,5.718s5.719-2.561,5.719-5.719l-0.003-39.768
		c0.227,0.011,0.453,0.029,0.681,0.029c0.045,0,0.089-0.005,0.134-0.006l-0.001,39.745c0,3.159,2.56,5.719,5.718,5.719h0
		c3.158,0,5.719-2.56,5.719-5.719l0.002-46.231c0.089-0.172,0.169-0.348,0.249-0.525c0.366,0.085,0.735,0.139,1.104,0.139
		c1.591,0,3.149-0.784,4.074-2.221c2.722-4.231,7.34-11.943,7.674-16.056C103.502,47.84,91.693,36.005,86.557,32.855z M46.428,9.052
		l2.833,1.103l-1.102,2.833C46.796,12.19,46.097,10.598,46.428,9.052z M27.4,14.076l-2.834-1.104l1.103-2.833
		C27.032,10.94,27.731,12.53,27.4,14.076z M27.666,5.01l1.104-2.833l2.833,1.104C30.802,4.643,29.21,5.344,27.666,5.01z
		 M35.098,16.231c-2.578-1.003-3.854-3.906-2.851-6.483c1.004-2.578,3.906-3.853,6.484-2.849c2.577,1.003,3.853,3.905,2.849,6.482
		C40.576,15.959,37.674,17.234,35.098,16.231z M78.238,58.34l-3.006-4.114l3.006-20.093h0.059l3.005,20.093l-3.005,4.114H78.238z
		 M91.024,58.946v-8.392c1.104,1.491,1.91,2.803,2.203,3.644C92.96,55.126,92.138,56.874,91.024,58.946z"/>
	<path d="M38.386,8.86l0.265-0.681l-0.749-0.291l-0.271,0.698c-0.503-0.125-0.951-0.124-1.334,0.003
		c-0.417,0.14-0.71,0.416-0.87,0.825c-0.146,0.376-0.159,0.74-0.037,1.082c0.119,0.334,0.378,0.686,0.771,1.044l0.237,0.21
		l-0.527,1.353c-0.209-0.094-0.437-0.226-0.672-0.393c-0.276-0.195-0.508-0.395-0.693-0.594l-0.12-0.129l-0.426,1.094l0.05,0.049
		c0.348,0.358,0.846,0.676,1.481,0.945l-0.337,0.866l0.748,0.292l0.351-0.902c0.55,0.133,1.021,0.13,1.409-0.014
		c0.418-0.154,0.713-0.449,0.878-0.873c0.134-0.343,0.141-0.68,0.019-1.004c-0.122-0.317-0.403-0.675-0.862-1.093l-0.208-0.188
		l0.51-1.312c0.358,0.189,0.703,0.433,1.026,0.73l0.079,0.076l0.739-0.792l-0.078-0.076C39.368,9.406,38.903,9.095,38.386,8.86z
		 M36.598,9.859c0.047-0.121,0.129-0.2,0.254-0.246c0.104-0.039,0.234-0.048,0.389-0.026l-0.388,0.996
		c-0.135-0.14-0.222-0.261-0.264-0.359C36.544,10.108,36.546,9.99,36.598,9.859z M37.35,13.05c-0.038,0.099-0.147,0.38-0.71,0.297
		l0.403-1.035c0.146,0.143,0.246,0.266,0.297,0.37C37.396,12.803,37.4,12.923,37.35,13.05z"/>
</g>
</svg>
