<?xml version="1.0" encoding="utf-8"?>
<!-- Generator: Adobe Illustrator 16.0.0, SVG Export Plug-In . SVG Version: 6.00 Build 0)  -->
<!DOCTYPE svg PUBLIC "-//W3C//DTD SVG 1.1//EN" "http://www.w3.org/Graphics/SVG/1.1/DTD/svg11.dtd">
<svg version="1.1" id="Layer_3" xmlns="http://www.w3.org/2000/svg" xmlns:xlink="http://www.w3.org/1999/xlink" x="0px" y="0px"
	 width="126px" height="126px" viewBox="0 0 126 126" enable-background="new 0 0 126 126" xml:space="preserve">
<g>
	<path d="M121.103,27.355c0.037-0.524,0.057-1.047,0.052-1.568c-0.013-1.501-0.185-3.01-0.515-4.48
		c-1.539-6.895-6.83-13.82-15.182-13.749L61.284,7.939c-8.199,0.07-13.636,7.314-15.219,14.015c0,0-0.612,2.113-0.543,4.355
		c0.066,2.144,0.585,4.529,0.585,4.529l0.01,0.059c0.347,1.366,0.86,2.745,1.516,4.081l0.126,53.203
		c0.01,4.285,3.486,7.75,7.77,7.75c0.006,0,0.013,0,0.018,0c4.292-0.01,7.762-3.497,7.752-7.788l-0.104-43.492l39.639-0.341v66.453
		c0,5.071,4.111,9.183,9.182,9.183c5.071,0,9.183-4.111,9.183-9.183V28.602C121.197,28.178,121.159,27.764,121.103,27.355z"/>
	<circle cx="24.817" cy="26.066" r="20.012"/>
</g>
</svg>
