<?xml version="1.0" encoding="utf-8"?>
<!-- Generator: Adobe Illustrator 16.0.0, SVG Export Plug-In . SVG Version: 6.00 Build 0)  -->
<!DOCTYPE svg PUBLIC "-//W3C//DTD SVG 1.1//EN" "http://www.w3.org/Graphics/SVG/1.1/DTD/svg11.dtd">
<svg version="1.1" id="Layer_1" xmlns="http://www.w3.org/2000/svg" xmlns:xlink="http://www.w3.org/1999/xlink" x="0px" y="0px"
	 width="126px" height="126px" viewBox="0 0 126 126" enable-background="new 0 0 126 126" xml:space="preserve">
<g>
	<path d="M79.264,40.667c6.049,0,10.951-4.901,10.951-10.951c0-6.044-4.902-10.948-10.951-10.948s-10.949,4.904-10.949,10.948
		C68.314,35.766,73.215,40.667,79.264,40.667z"/>
	<path d="M86.342,43.215c-0.143-0.087-0.291-0.142-0.438-0.21c-1.203-0.787-2.545-1.366-3.914-1.701l-2.727,2.744l-2.646-2.776
		c-0.006,0.002-0.016,0.002-0.025,0.005c-1.313,0.314-2.598,0.857-3.764,1.59c-0.289,0.089-0.576,0.203-0.854,0.357
		c-1.693,0.954-3.307,1.139-5.072,0.589c-5.098-1.588-9.891-8.574-12.096-12.509l3.203,0.493l5.27,0.81l2.961-7.158L36.125,1.414
		l-10.506,25.4l20.668,3.178c-0.465,1.093-0.486,2.365,0.072,3.515c0.248,0.511,1.176,2.361,2.684,4.718l1,1.514
		c3.139,4.566,8.096,10.242,14.311,12.188c1.229,0.383,2.467,0.6,3.703,0.662v22.403c0,1.156,0.227,2.232,0.625,3.225
		c-0.027,0.213-0.063,0.42-0.063,0.642l0.002,40.706c0,2.773,2.25,5.022,5.023,5.022s5.023-2.249,5.023-5.022l-0.002-34.936
		c0.197,0.009,0.396,0.022,0.598,0.022c0.037,0,0.076-0.002,0.117-0.004l-0.002,34.917c0,2.773,2.25,5.022,5.023,5.022
		c2.775,0,5.027-2.249,5.027-5.022V79.628c0.264,0.251,0.553,0.486,0.889,0.669c0.645,0.349,1.342,0.516,2.025,0.516
		c1.51,0,2.969-0.801,3.74-2.22C108.078,56.547,91.717,46.516,86.342,43.215z M79.289,65.721H79.24l-2.643-3.615l2.643-17.652h0.049
		l2.641,17.652L79.289,65.721z M90.473,70.541V58.383C92.094,61.453,92.457,65.343,90.473,70.541z"/>
</g>
</svg>
