<?xml version="1.0" encoding="utf-8"?>
<!-- Generator: Adobe Illustrator 16.0.0, SVG Export Plug-In . SVG Version: 6.00 Build 0)  -->
<!DOCTYPE svg PUBLIC "-//W3C//DTD SVG 1.1//EN" "http://www.w3.org/Graphics/SVG/1.1/DTD/svg11.dtd">
<svg version="1.1" id="Layer_3" xmlns="http://www.w3.org/2000/svg" xmlns:xlink="http://www.w3.org/1999/xlink" x="0px" y="0px"
	 width="126px" height="126px" viewBox="0 0 126 126" enable-background="new 0 0 126 126" xml:space="preserve">
<g>
	<path d="M118.079,30.785H56.46c-0.328,0-0.648,0.029-0.965,0.073c-0.401-0.027-0.802-0.042-1.202-0.039
		c-1.155,0.009-2.317,0.142-3.449,0.395c-5.308,1.186-10.639,5.26-10.584,11.688l0.278,35.875L6.814,78.89
		c-3.303,0.011-5.973,2.697-5.961,6.001c0.011,3.297,2.687,5.962,5.98,5.962c0.007,0,0.014,0,0.021,0l40.191-0.134
		c1.379,0.787,2.853,1.369,4.298,1.712c0,0,1.627,0.471,3.353,0.418c1.65-0.051,3.486-0.45,3.486-0.45l0.046-0.009
		c5.171-1.313,10.654-5.584,10.599-11.92l-0.275-35.547h49.528c3.904,0,7.069-3.165,7.069-7.069
		C125.147,33.95,121.982,30.785,118.079,30.785z"/>
	<circle cx="85.639" cy="79.809" r="15.407"/>
</g>
</svg>
