<?xml version="1.0" encoding="utf-8"?>
<!-- Generator: Adobe Illustrator 16.0.0, SVG Export Plug-In . SVG Version: 6.00 Build 0)  -->
<!DOCTYPE svg PUBLIC "-//W3C//DTD SVG 1.1//EN" "http://www.w3.org/Graphics/SVG/1.1/DTD/svg11.dtd">
<svg version="1.1" id="Layer_3" xmlns="http://www.w3.org/2000/svg" xmlns:xlink="http://www.w3.org/1999/xlink" x="0px" y="0px"
	 width="126px" height="126px" viewBox="0 0 126 126" enable-background="new 0 0 126 126" xml:space="preserve">
<g>
	<path d="M102.677,116.992L85.33,71.972c-0.006-0.017-0.014-0.03-0.02-0.046c0.108-1.595-0.15-3.227-0.876-4.814L73.019,42.165
		c1.247-1.441,2.4-3.23,3.243-5.469c3.246-8.624,0.396-19.978-8.47-33.745c-1.459-2.267-4.479-2.922-6.749-1.461
		c-2.267,1.459-2.921,4.48-1.461,6.748c6.835,10.614,9.532,19.447,7.594,24.875c-0.45,1.262-1.123,2.226-1.824,2.961
		c-1.926-0.438-3.965-0.457-5.872-0.093l-1.536,4.171l-4.089-1.636c-0.008,0.007-0.018,0.011-0.026,0.019
		c-1.576,1.232-2.93,2.843-3.868,4.649c-1.014,0.069-2.191-0.028-3.455-0.494c-5.432-1.999-10.404-9.834-14.001-22.063
		c-0.76-2.586-3.473-4.064-6.062-3.305c-2.587,0.761-4.067,3.475-3.306,6.062c4.621,15.709,11.35,25.289,19.997,28.471
		c2.242,0.825,4.354,1.133,6.257,1.133c0.091,0,0.178-0.006,0.268-0.008l11.367,24.843c0.252,0.552,0.556,1.051,0.885,1.525
		c-3.228,5.521-9.488,16.511-11.058,21.318c-2.187,6.692-1.175,18.121-1.052,19.401c0.286,2.985,2.798,5.221,5.737,5.221
		c0.184,0,0.37-0.008,0.557-0.025c3.172-0.304,5.497-3.121,5.194-6.294c-0.316-3.302-0.601-11.245,0.534-14.721
		c1.122-3.435,6.872-13.696,10.843-20.426c1.498-0.147,2.997-0.54,4.418-1.158l14.826,38.478c0.882,2.291,3.068,3.696,5.385,3.696
		c0.689,0,1.391-0.125,2.073-0.387C102.34,123.305,103.822,119.965,102.677,116.992z"/>
	<circle cx="51.094" cy="25.186" r="12.576"/>
</g>
</svg>
