<?xml version="1.0" encoding="utf-8"?>
<!-- Generator: Adobe Illustrator 16.0.0, SVG Export Plug-In . SVG Version: 6.00 Build 0)  -->
<!DOCTYPE svg PUBLIC "-//W3C//DTD SVG 1.1//EN" "http://www.w3.org/Graphics/SVG/1.1/DTD/svg11.dtd">
<svg version="1.1" id="Capa_1" xmlns="http://www.w3.org/2000/svg" xmlns:xlink="http://www.w3.org/1999/xlink" x="0px" y="0px"
	 width="64px" height="64px" viewBox="0 0 64 64" enable-background="new 0 0 64 64" xml:space="preserve">
<g>
	<rect x="37.59" y="9.243" transform="matrix(0.6805 0.7328 -0.7328 0.6805 19.4857 -24.4172)" width="0.299" height="1.781"/>
	<rect x="35.326" y="9.377" transform="matrix(0.075 0.9972 -0.9972 0.075 43.0009 -27.3068)" width="1.785" height="0.293"/>
	<path d="M51.792,16.342c1.262,0.744,5.463,3.229,6.146,3.625c0.681,0.396-1.406,1.736-1.471,3.177
		c-0.082,1.978,1.035,0.61,1.035,0.61l0.646-1.086c1.417-2.398,2.573-4.338,0.251-5.708l-1.438-0.847c0,0-1.695-0.64-3.343-5.16
		c-1.152,1.359-0.089,3.134-0.089,3.134s-1.304-1.914-1.862-1.76C51.667,12.326,50.529,15.595,51.792,16.342z"/>
	<rect x="33.978" y="10.289" transform="matrix(0.7575 0.6529 -0.6529 0.7575 15.2716 -20.2332)" width="1.779" height="0.297"/>
	<path d="M27.751,6.477c-1.176-1.409-3.245-0.81-3.429,0.868h0.016c-0.164,1.51,1.14,2.471,2.347,3.402c0,0-0.002,0.001-0.002,0.002
		c0,0,0.652,0.481,0.929,0.756c0.035,0.035,0.083,0.055,0.132,0.055l0.01-0.003c0.053,0,0.099-0.015,0.135-0.053
		c0.214-0.21,0.578-0.496,0.771-0.633c0.02-0.015,0.144-0.108,0.159-0.121v-0.001c1.13-0.885,2.522-1.863,2.346-3.404
		c0.005,0,0.011,0,0.016,0.002C30.995,5.676,28.932,5.061,27.751,6.477z"/>
	<path d="M25.745,27.393c-2.292,0.25-4.292-0.215-5.904-1.549c-0.338-2.528-0.632-5.064-0.913-7.6
		c-0.237-2.128-1.577-3.947-3.906-3.962c-1.951-0.013-4.201,1.771-3.963,3.906c0.453,4.076,0.922,8.15,1.537,12.206L5.554,44.176
		l8.784,0.146c0,3.973,0,7.949,0,11.92c0,3.385,5.245,3.385,5.245,0c0-3.945,0-7.884,0-11.832l1.618,0.028L21.163,31.19
		c1.42,0.427,2.953,0.577,4.584,0.399C28.404,31.299,28.433,27.101,25.745,27.393z"/>
	<path d="M61.813,52.51c-2.276-0.735-4.561-1.472-6.841-2.21c-3.723-1.508-4.347-3.812-4.574-4.551
		c0.295-0.611,0.233-2.174,0.231-2.226c-0.076-3.742,0.083-9.193,3.172-11.753c1.87-1.55,1.562-4.724-0.033-6.304
		c-0.981-0.969-2.169-1.332-3.346-1.233c-3.016-2.332-6.11-4.557-9.265-6.707V8.94h-1.842v5.488h-1.182
		c0.118-0.259,0.192-0.542,0.192-0.845c0-0.724-0.392-1.353-0.969-1.704l-1.043-1.077L35.3,11.881
		c-0.571,0.35-0.969,0.978-0.969,1.703c0,0.303,0.068,0.586,0.194,0.845H33.98v3.153h1.849c-0.715,1.282-0.653,3.065,0.917,4.112
		c2.924,1.962,9.693,6.938,10.1,7.253l-3.096,4.345l0.213-3.084c-1.5,3.22-2.091,7.058-2.23,10.558
		c-1.394-0.033-2.787-0.047-4.184-0.049c-1.195,0-2.672,0.896-2.863,2.183c-0.833,5.596,0.731,10.898,3.863,15.559
		c2.128,3.163,7.275,0.191,5.129-2.997c-1.741-2.595-3.198-5.622-3.364-8.783c0.973,0.013,1.95,0.038,2.925,0.074
		c0.445,0.368,0.97,0.636,1.515,0.81c1.149,3.498,3.362,6.767,6.964,7.924c2.834,0.92,5.672,1.833,8.512,2.75
		C63.889,59.421,65.443,53.684,61.813,52.51z M37.67,14.431h-2.674c-0.157-0.246-0.247-0.536-0.247-0.846
		c0-0.636,0.383-1.182,0.924-1.433l1.326-0.005c0.546,0.252,0.927,0.799,0.927,1.439C37.919,13.896,37.824,14.186,37.67,14.431z
		 M43.541,39.637c-0.328,0-0.594-0.534-0.594-1.194c0-0.659,0.266-1.189,0.594-1.189c0.329,0,0.594,0.528,0.594,1.189
		C44.135,39.103,43.87,39.637,43.541,39.637z M43.838,36.963c-0.327,0-0.594-0.532-0.594-1.189c0-0.658,0.267-1.189,0.594-1.189
		c0.33,0,0.596,0.528,0.596,1.189C44.434,36.431,44.168,36.963,43.838,36.963z"/>
	<path d="M6.663,17.583c2.063,0.183,2.955-1.129,3.23-3.173c0.339-2.854-0.345-4.8,0.188-6.61c0.42,0.044,0.823,0.127,1.235,0.207
		c-0.133,0.42-0.205,0.866-0.205,1.33c0,2.435,1.973,4.408,4.408,4.408c2.435,0,4.408-1.973,4.408-4.408s-1.973-4.408-4.408-4.408
		c-1.145,0-2.184,0.44-2.967,1.154C9.422,2.708,5.649,4.67,7.092,8.743C8.875,13.755,9.917,17.14,6.663,17.583z"/>
	<path d="M2.325,26.105c-0.752-0.903-2.083-0.527-2.202,0.556h0.011c-0.112,0.973,0.735,1.58,1.506,2.184v0.001
		c0.023,0.026,0.646,0.52,0.69,0.52c0.034,0,0.662-0.504,0.679-0.52v-0.001c0.782-0.602,1.599-1.203,1.506-2.186
		c0,0,0.006,0,0.009,0C4.409,25.571,3.065,25.21,2.325,26.105z"/>
</g>
</svg>
