<?xml version="1.0" encoding="utf-8"?>
<!-- Generator: Adobe Illustrator 16.0.0, SVG Export Plug-In . SVG Version: 6.00 Build 0)  -->
<!DOCTYPE svg PUBLIC "-//W3C//DTD SVG 1.1//EN" "http://www.w3.org/Graphics/SVG/1.1/DTD/svg11.dtd">
<svg version="1.1" id="Layer_1" xmlns="http://www.w3.org/2000/svg" xmlns:xlink="http://www.w3.org/1999/xlink" x="0px" y="0px"
	 width="50px" height="50px" viewBox="0 0 50 50" enable-background="new 0 0 50 50" xml:space="preserve">
<g>
	<path d="M36.914,18.104c-1.341,0-2.43-1.557-2.43-2.898c0-1.342,1.089-2.431,2.43-2.431c1.343,0,2.431,1.088,2.431,2.431
		C39.345,16.547,38.257,18.104,36.914,18.104z"/>
	<path d="M30.789,28.529l-0.408,7.479c-0.035,0.636,0.453,1.18,1.089,1.214c0.021,0.001,0.042,0.002,0.063,0.002
		c0.608,0,1.117-0.476,1.151-1.09l0.359-6.588l0.987-0.199v6.723c0,0.531,0.43,0.961,0.961,0.961h6.542
		c0.53,0,0.961-0.431,0.961-0.961v-7.584v-0.769v-2.531c0-0.53-0.431-0.961-0.961-0.961c-0.048,0-0.089,0.02-0.134,0.027l0.08-0.089
		c0.159-0.177,0.247-0.406,0.246-0.644l-0.007-3.491c0-0.009-0.005-0.016-0.005-0.024c-0.002-0.071-0.024-0.137-0.041-0.205
		c-0.015-0.054-0.019-0.11-0.042-0.161c-0.023-0.055-0.064-0.098-0.099-0.147c-0.036-0.052-0.065-0.108-0.11-0.152
		c-0.037-0.036-0.087-0.058-0.131-0.087c-0.06-0.042-0.116-0.086-0.186-0.113c-0.008-0.003-0.012-0.01-0.021-0.012
		c-0.088-0.032-2.032-0.73-3.814-0.818l-0.229,0.458h-0.007l0.647,5.041l-0.77,1.343l-0.769-1.343l0.646-5.041h-0.006l-0.228-0.457
		c-1.719,0.084-3.584,0.734-3.794,0.809l-3.806,1.269l0.229-0.429c0.05-0.094,0.015-0.21-0.079-0.259
		c-0.093-0.05-0.21-0.015-0.261,0.079l-0.417,0.786l-0.278,0.092c-0.503,0.168-0.775,0.712-0.607,1.216
		c0.023,0.068,0.061,0.124,0.096,0.183L26.926,23.4c-0.049,0.094-0.015,0.21,0.08,0.26c0.028,0.015,0.059,0.022,0.09,0.022
		c0.067,0,0.135-0.037,0.17-0.102l0.648-1.222c0.158,0.109,0.347,0.171,0.543,0.171c0.101,0,0.203-0.016,0.304-0.049l4.613-1.538
		c0.004-0.001,0.007-0.005,0.01-0.007c0.006-0.001,0.009,0,0.013-0.001c0.009-0.003,0.339-0.12,0.827-0.259v6.281l-2.511,0.505
		C31.198,27.565,30.817,28.004,30.789,28.529z M39.803,23.154l-0.197,0.22v-2.699c0.067,0.02,0.132,0.039,0.193,0.057L39.803,23.154
		z M40.577,25.168c0,0.007-0.004,0.012-0.004,0.018v1.77l-0.968,0.227V26.25L40.577,25.168z M35.953,30.017l4.62-1.086v6.179h-4.62
		V30.017z"/>
	<path d="M13.086,18.104c-1.343,0-2.431-1.557-2.431-2.898c0-1.342,1.088-2.431,2.431-2.431c1.341,0,2.43,1.088,2.43,2.431
		C15.516,16.547,14.427,18.104,13.086,18.104z"/>
	<path d="M7.505,25.187v2.531v0.769v7.584c0,0.531,0.431,0.961,0.961,0.961h6.542c0.531,0,0.961-0.431,0.961-0.961v-6.723
		l0.987,0.199l0.359,6.588c0.034,0.614,0.543,1.09,1.151,1.09c0.021,0,0.042,0,0.063-0.002c0.636-0.035,1.124-0.578,1.089-1.214
		l-0.408-7.479c-0.028-0.525-0.409-0.964-0.924-1.068l-2.511-0.505v-6.281c0.068,0.02,0.132,0.038,0.192,0.056v3.912
		c0,0.364,0.206,0.697,0.531,0.86l1.538,0.769c0.138,0.068,0.285,0.102,0.429,0.102c0.353,0,0.692-0.194,0.86-0.532
		c0.237-0.475,0.046-1.052-0.431-1.29l-1.005-0.502v-4.02c0-0.009-0.005-0.016-0.005-0.026c-0.002-0.071-0.025-0.138-0.042-0.206
		c-0.014-0.053-0.019-0.109-0.04-0.159c-0.024-0.056-0.067-0.101-0.101-0.15c-0.036-0.051-0.065-0.106-0.11-0.149
		c-0.038-0.037-0.087-0.059-0.133-0.09c-0.059-0.04-0.114-0.084-0.183-0.111c-0.007-0.003-0.013-0.01-0.021-0.012
		c-0.088-0.032-2.033-0.73-3.816-0.818l-0.228,0.458h-0.006l0.646,5.041l-0.769,1.343l-0.77-1.343l0.647-5.041h-0.007l-0.229-0.458
		c-1.782,0.088-3.727,0.786-3.814,0.818c-0.009,0.002-0.013,0.009-0.021,0.012c-0.069,0.027-0.126,0.072-0.186,0.113
		c-0.044,0.03-0.094,0.051-0.131,0.087c-0.045,0.044-0.074,0.1-0.11,0.152c-0.034,0.049-0.075,0.092-0.099,0.147
		c-0.023,0.05-0.027,0.106-0.042,0.161c-0.017,0.068-0.039,0.133-0.041,0.205c0,0.008-0.005,0.016-0.005,0.024L8.273,23.52
		c-0.001,0.238,0.087,0.467,0.246,0.644l0.08,0.089c-0.045-0.007-0.086-0.027-0.134-0.027C7.936,24.226,7.505,24.656,7.505,25.187z
		 M10.395,23.374l-0.197-0.22l0.004-2.422c0.062-0.018,0.126-0.037,0.193-0.057V23.374z M9.427,28.931l4.62,1.086v5.093h-4.62
		V28.931z M9.423,25.168l0.972,1.081v0.934l-0.968-0.227v-1.77C9.427,25.18,9.423,25.175,9.423,25.168z"/>
	<path d="M20.773,23.905h8.457c0.637,0,1.153,0.516,1.153,1.153c0,0.637-0.517,1.153-1.153,1.153h-0.212v9.859
		c0,0.531-0.431,0.961-0.962,0.961h-6.108c-0.531,0-0.961-0.431-0.961-0.961v-9.859h-0.214c-0.637,0-1.153-0.516-1.153-1.153
		C19.62,24.421,20.137,23.905,20.773,23.905z"/>
</g>
</svg>
