<?xml version="1.0" encoding="iso-8859-1"?>
<!-- Generator: Adobe Illustrator 17.1.0, SVG Export Plug-In . SVG Version: 6.00 Build 0)  -->
<!DOCTYPE svg PUBLIC "-//W3C//DTD SVG 1.1//EN" "http://www.w3.org/Graphics/SVG/1.1/DTD/svg11.dtd">
<svg version="1.1" id="Layer_1" xmlns="http://www.w3.org/2000/svg" xmlns:xlink="http://www.w3.org/1999/xlink" x="0px" y="0px"
	 viewBox="0 0 128 128" style="enable-background:new 0 0 128 128;" xml:space="preserve">
<g>
	<path d="M10.509,70.901c2.197,0,3.979-1.78,3.98-3.977c0.002-0.001,0.005-24.303,0.005-24.303c0-0.229,0.185-0.414,0.414-0.414
		h0.843c0.229,0,0.414,0.185,0.414,0.414c0,0,0,68.18,0,68.188c0,2.835,2.298,5.132,5.132,5.132s5.133-2.298,5.133-5.132
		c0-0.008,0-40.121,0-40.121c0-0.292,0.135-0.415,0.424-0.415h0.828c0.289,0,0.424,0.122,0.424,0.415c0,0,0,40.113,0,40.121
		c0,2.835,2.298,5.132,5.132,5.132c2.835,0,5.133-2.298,5.133-5.132c0-0.008,0-68.188,0-68.188c0-0.229,0.185-0.414,0.414-0.414
		h0.843c0.229,0,0.414,0.185,0.414,0.414c0,0,0.003,24.302,0.005,24.303c0.002,2.197,1.783,3.977,3.98,3.977
		c2.198,0,3.98-1.782,3.98-3.98c0-0.012,0-27.327,0-27.652c0-5.447-4.19-9.636-9.427-9.636c-0.133,0-7.173,0-10.474,0
		c0,0-12.017,0-12.15,0c-5.237,0-9.427,4.19-9.427,9.636c0,0.326,0,27.64,0,27.652C6.529,69.119,8.311,70.901,10.509,70.901z"/>
	<circle cx="27.268" cy="19.696" r="7.637"/>
	<path d="M101.57,29.632c0,0-12.017,0-12.15,0c-5.237,0-9.427,4.19-9.427,9.636c0,0.326,0,27.64,0,27.652
		c0,2.198,1.782,3.98,3.98,3.98c2.197,0,3.979-1.78,3.98-3.977c0.002-0.001,0.005-24.303,0.005-24.303
		c0-0.229,0.185-0.414,0.414-0.414h0.843c0.229,0,0.414,0.185,0.414,0.414c0,0,0,68.18,0,68.188c0,2.835,2.298,5.132,5.132,5.132
		c2.835,0,5.133-2.298,5.133-5.132c0-0.008,0-40.121,0-40.121c0-0.292,0.135-0.415,0.424-0.415h0.828
		c0.289,0,0.424,0.122,0.424,0.415c0,0,0,40.113,0,40.121c0,2.835,2.298,5.132,5.132,5.132c2.835,0,5.133-2.298,5.133-5.132
		c0-0.008,0-68.188,0-68.188c0-0.229,0.185-0.414,0.414-0.414h0.843c0.229,0,0.414,0.185,0.414,0.414c0,0,0.003,24.302,0.005,24.303
		c0.002,2.197,1.783,3.977,3.98,3.977c2.198,0,3.98-1.782,3.98-3.98c0-0.012,0-27.327,0-27.652c0-5.447-4.19-9.636-9.427-9.636
		C111.911,29.632,104.871,29.632,101.57,29.632z"/>
	<circle cx="100.732" cy="19.696" r="7.637"/>
	<path d="M48.119,78.833c-0.411,1.341,0.342,2.761,1.683,3.172c1.34,0.411,2.76-0.342,3.172-1.682
		c0.001,0,3.766-12.293,3.766-12.293c0.022-0.052,0.136-0.269,0.401-0.269c0.024,0,1.194,0,1.194,0
		c0.151-0.002,0.239,0.126,0.199,0.271l-7.567,24.894c-0.041,0.145,0,0.398,0.265,0.398h5.252c0.151,0,0.261,0.122,0.261,0.273
		c0,0-0.001,17.996-0.001,18.003c0,1.809,1.466,3.274,3.274,3.274c1.809,0,3.274-1.466,3.274-3.274l0.001-18.003
		c0-0.151,0.122-0.273,0.273-0.273c0,0,1.01,0,1.13,0c0.12,0,0.277,0.122,0.277,0.273l0.001,18.003c0,1.809,1.466,3.274,3.274,3.274
		s3.274-1.466,3.274-3.274c0-0.007-0.001-18.003-0.001-18.003c0-0.151,0.11-0.273,0.261-0.273h5.049
		c0.265,0,0.305-0.253,0.265-0.398l-7.579-24.894c-0.04-0.145,0.031-0.273,0.182-0.271c0,0,1.121,0,1.145,0
		c0.265,0,0.379,0.217,0.401,0.269c0,0,3.777,12.293,3.779,12.293c0.412,1.34,1.832,2.093,3.172,1.682
		c1.341-0.411,2.095-1.832,1.684-3.173c-0.002-0.005-2.231-7.276-3.762-12.268c-0.016-0.061-0.03-0.113-0.042-0.156
		c-0.58-2.016-2.303-6.607-6.585-6.607H58.584c-3.99,0-6.08,4.591-6.66,6.607C51.911,66.451,48.121,78.828,48.119,78.833z"/>
	<path d="M71.168,55.889c0.427-0.05,1.102-1.623,1.762-2.995c0.108-0.225,0.291-0.587,0.369-0.826
		c0.483-1.473,0.084-3.609-1.774-3.794c-1.126-0.112-2.299,0.481-3.124,1.036c-0.209,0.14-0.505,0.11-0.687-0.06
		c-0.96-0.894-2.247-1.441-3.662-1.441c-1.361,0-2.604,0.507-3.549,1.341c-0.188,0.164-0.491,0.194-0.702,0.058
		c-0.814-0.523-1.91-1.04-2.968-0.934c-1.858,0.185-2.257,2.321-1.774,3.794c0.078,0.239,0.261,0.599,0.369,0.826
		c0.659,1.371,1.335,2.944,1.766,2.996c0.429,0.054-0.946-3.251,0.042-4.281c0.172-0.18,0.581-0.269,0.832-0.247
		c0.124,0.01,0.269,0.032,0.429,0.07c0.242,0.06,0.367,0.333,0.313,0.577c-0.084,0.379-0.128,0.772-0.128,1.176
		c0,2.968,2.407,5.375,5.375,5.375c2.968,0,5.375-2.407,5.375-5.375c0-0.367-0.038-0.725-0.108-1.072
		c-0.05-0.245,0.072-0.533,0.309-0.613c0.257-0.086,0.483-0.124,0.663-0.14c0.249-0.02,0.657,0.066,0.832,0.247
		C72.114,52.638,70.738,55.944,71.168,55.889z"/>
</g>
</svg>
