<?xml version="1.0" encoding="utf-8"?>
<!-- Generator: Adobe Illustrator 16.0.0, SVG Export Plug-In . SVG Version: 6.00 Build 0)  -->
<!DOCTYPE svg PUBLIC "-//W3C//DTD SVG 1.1//EN" "http://www.w3.org/Graphics/SVG/1.1/DTD/svg11.dtd">
<svg version="1.1" id="Layer_1" xmlns="http://www.w3.org/2000/svg" xmlns:xlink="http://www.w3.org/1999/xlink" x="0px" y="0px"
	 width="126px" height="126px" viewBox="0 0 126 126" enable-background="new 0 0 126 126" xml:space="preserve">
<g>
	<path d="M31.059,39.635c3.117,0,5.684-2.345,6.042-5.368c1.433-1.495,2.991-2.855,4.65-4.074l5.816,0.334l-2.322-2.605
		c2.769-1.579,5.74-2.791,8.826-3.587c-0.577,2.323-0.989,5.307-1.236,9.264c-0.082,1.303,0.91,2.425,2.211,2.507
		c0.053,0.003,0.102,0.004,0.15,0.004c1.238,0,2.279-0.964,2.357-2.216c0.283-4.53,0.742-7.465,1.4-9.49v8.19
		c0,0.636,0.123,1.229,0.34,1.774c-0.018,0.123-0.029,0.248-0.029,0.375l0.004,22.636c0,1.543,1.25,2.794,2.793,2.793
		c1.543,0,2.793-1.251,2.793-2.794l-0.002-19.426c0.111,0.005,0.223,0.014,0.334,0.014c0.021,0,0.043-0.002,0.064-0.003v19.416
		c0,1.543,1.25,2.794,2.793,2.794s2.793-1.251,2.793-2.794l0.002-22.497c0.365-0.679,0.58-1.446,0.58-2.288v-8.122
		c0.646,2.023,1.098,4.943,1.377,9.421c0.078,1.252,1.119,2.216,2.357,2.216c0.049,0,0.1-0.001,0.148-0.004
		c1.303-0.082,2.293-1.204,2.213-2.507c-0.195-3.118-0.492-5.629-0.891-7.693c1.56,0.642,3.07,1.392,4.522,2.246l0.455,5.398
		l2.762-3.271c1.625,1.207,3.154,2.55,4.563,4.024c0.374,3.005,2.932,5.332,6.038,5.332c3.361,0,6.088-2.726,6.088-6.089
		s-2.727-6.089-6.088-6.089c-2.339,0-4.368,1.32-5.388,3.255c-1.04-0.975-2.141-1.875-3.277-2.727l2.242-2.654l-5.484,0.462
		c-2.324-1.403-4.793-2.555-7.366-3.444c-1.416-4.028-3.557-5.582-6.456-7.36c-0.102-0.063-0.209-0.107-0.314-0.152
		c-0.68-0.453-1.441-0.786-2.219-0.977l-1.516,1.527l-1.471-1.544c-0.006,0.001-0.01,0.001-0.016,0.003
		c-0.779,0.186-1.545,0.517-2.227,0.968c-0.121,0.049-0.242,0.103-0.359,0.174c-2.548,1.563-4.51,2.953-5.91,6.001
		c-4.227,0.865-8.289,2.449-11.998,4.646l-2.798-3.139l-0.297,5.181c-1.281,0.933-2.507,1.944-3.669,3.03
		c-1.021-1.932-3.047-3.25-5.383-3.25c-3.363,0-6.09,2.726-6.09,6.089S27.696,39.635,31.059,39.635z M65.171,15.613h0.029
		l1.469,9.816l-1.469,2.009h-0.029l-1.467-2.009L65.171,15.613z"/>
	<path d="M99.014,41.117c-0.102-0.063-0.209-0.107-0.314-0.152c-0.68-0.453-1.441-0.786-2.219-0.977l-1.516,1.527l-1.471-1.544
		c-0.006,0.001-0.01,0.001-0.016,0.003c-0.779,0.186-1.545,0.517-2.227,0.968c-0.121,0.049-0.242,0.103-0.359,0.174
		c-4.727,2.899-7.441,5.192-8.279,18.609c-0.082,1.303,0.91,2.425,2.211,2.507c0.053,0.003,0.102,0.004,0.15,0.004
		c1.238,0,2.279-0.964,2.357-2.216c0.283-4.53,0.742-7.465,1.4-9.49v8.19c0,0.636,0.123,1.229,0.34,1.774
		c-0.018,0.123-0.029,0.248-0.029,0.375l0.004,22.636c0,0.066,0.015,0.129,0.02,0.194c-1.408,1.49-2.937,2.856-4.571,4.082
		l-5.548-0.318l2.253,2.528c-1.377,0.813-2.81,1.526-4.282,2.147c-1.23-8.255-3.765-10.249-7.683-12.652
		c-0.102-0.063-0.209-0.107-0.314-0.152c-0.68-0.453-1.441-0.786-2.219-0.977l-1.516,1.527l-1.471-1.544
		c-0.006,0.001-0.01,0.001-0.016,0.003c-0.779,0.186-1.545,0.517-2.227,0.968c-0.121,0.049-0.242,0.103-0.359,0.174
		c-4.141,2.54-6.738,4.616-7.881,14.116c-2.943-0.833-5.764-2.044-8.393-3.59l-0.428-5.072l-2.6,3.078
		c-1.834-1.343-3.544-2.863-5.104-4.542l0.002-22.469c0.365-0.679,0.58-1.446,0.58-2.288V50.6c0.646,2.023,1.098,4.943,1.377,9.421
		c0.078,1.252,1.119,2.216,2.357,2.216c0.049,0,0.1-0.001,0.148-0.004c1.303-0.082,2.293-1.204,2.213-2.507
		c-0.838-13.417-3.553-15.71-8.279-18.609c-0.102-0.063-0.209-0.107-0.314-0.152c-0.68-0.453-1.441-0.786-2.219-0.977l-1.516,1.527
		l-1.471-1.544c-0.006,0.001-0.01,0.001-0.016,0.003c-0.779,0.186-1.545,0.517-2.227,0.968c-0.121,0.049-0.242,0.103-0.359,0.174
		c-4.727,2.899-7.441,5.192-8.279,18.609c-0.082,1.303,0.91,2.425,2.211,2.507c0.053,0.003,0.102,0.004,0.15,0.004
		c1.238,0,2.279-0.964,2.357-2.216c0.283-4.53,0.742-7.465,1.4-9.49v8.19c0,0.636,0.123,1.229,0.34,1.774
		c-0.018,0.123-0.029,0.248-0.029,0.375l0.004,22.636c0,1.543,1.25,2.794,2.793,2.793c1.543,0,2.793-1.251,2.793-2.794L30.725,64.08
		c0.111,0.005,0.223,0.014,0.334,0.014c0.021,0,0.043-0.002,0.064-0.003v19.416c0,1.543,1.25,2.794,2.793,2.794
		c0.396,0,0.772-0.085,1.113-0.233c1.5,1.552,3.122,2.972,4.846,4.248l-2.403,2.845l5.952-0.502
		c2.974,1.737,6.174,3.076,9.515,3.971c-0.037,0.476-0.072,0.961-0.104,1.468c-0.082,1.303,0.91,2.425,2.211,2.507
		c0.053,0.003,0.102,0.004,0.15,0.004c1.238,0,2.279-0.964,2.357-2.216c0.283-4.53,0.742-7.465,1.4-9.49v8.19
		c0,0.636,0.123,1.229,0.34,1.774c-0.018,0.123-0.029,0.248-0.029,0.375l0.004,22.636c0,1.543,1.25,2.794,2.793,2.793
		c1.543,0,2.793-1.251,2.793-2.794l-0.002-19.426c0.111,0.005,0.223,0.014,0.334,0.014c0.021,0,0.043-0.002,0.064-0.003v19.416
		c0,1.543,1.25,2.794,2.793,2.794s2.793-1.251,2.793-2.794l0.002-22.497c0.365-0.679,0.58-1.446,0.58-2.288V88.97
		c0.646,2.023,1.098,4.943,1.377,9.421c0.078,1.252,1.119,2.216,2.357,2.216c0.049,0,0.1-0.001,0.148-0.004
		c1.303-0.082,2.293-1.204,2.213-2.507c-0.064-1.023-0.14-1.975-0.226-2.874c2.06-0.816,4.048-1.802,5.939-2.958l2.878,3.229
		l0.31-5.401c1.592-1.203,3.09-2.53,4.483-3.967c0.295,0.106,0.609,0.174,0.94,0.174c1.543,0,2.793-1.251,2.793-2.794L94.631,64.08
		c0.111,0.005,0.223,0.014,0.334,0.014c0.021,0,0.043-0.002,0.064-0.003v19.416c0,1.543,1.25,2.794,2.793,2.794
		s2.793-1.251,2.793-2.794l0.002-22.497c0.365-0.679,0.58-1.446,0.58-2.288V50.6c0.646,2.023,1.098,4.943,1.377,9.421
		c0.078,1.252,1.119,2.216,2.357,2.216c0.049,0,0.1-0.001,0.148-0.004c1.303-0.082,2.293-1.204,2.213-2.507
		C106.455,46.309,103.74,44.016,99.014,41.117z M31.073,53.565h-0.029l-1.467-2.009l1.467-9.816h0.029l1.469,9.816L31.073,53.565z
		 M65.201,91.936h-0.029l-1.467-2.009l1.467-9.816h0.029l1.469,9.816L65.201,91.936z M94.979,53.565h-0.029l-1.467-2.009
		l1.467-9.816h0.029l1.469,9.816L94.979,53.565z"/>
	<circle cx="65.187" cy="7.418" r="6.089"/>
	<circle cx="65.187" cy="71.917" r="6.089"/>
</g>
</svg>
