<?xml version="1.0" encoding="utf-8"?>
<!-- Generator: Adobe Illustrator 16.0.0, SVG Export Plug-In . SVG Version: 6.00 Build 0)  -->
<!DOCTYPE svg PUBLIC "-//W3C//DTD SVG 1.1//EN" "http://www.w3.org/Graphics/SVG/1.1/DTD/svg11.dtd">
<svg version="1.1" id="Layer_1" xmlns="http://www.w3.org/2000/svg" xmlns:xlink="http://www.w3.org/1999/xlink" x="0px" y="0px"
	 width="126px" height="126px" viewBox="0 0 126 126" enable-background="new 0 0 126 126" xml:space="preserve">
<g>
	<path d="M71.445,22.101c-0.236,0.101-0.729,0.312-0.899,0.813c-0.071,0.214-0.106,0.563,0.118,0.948l1.201,2.451l-3.743,0.003V24.2
		c0-0.875-0.582-1.107-0.923-1.107c-0.458,0-0.848,0.339-1.032,0.535l-6.042,6.214c-0.076,0.067-0.455,0.42-0.477,0.962
		c-0.009,0.238,0.051,0.598,0.391,0.938c0.597,0.598,6.28,6.098,6.28,6.098c0.145,0.147,0.535,0.49,1.003,0.49
		c0.101,0,0.984-0.034,0.984-1.243v-1.9h9.233c0.095,0,0.347-0.019,0.593-0.185c0.179-0.123,0.485-0.414,0.483-0.945
		c0.032-0.25,0.442-1.557,0.768-2.606c0.602-1.924,0.902-2.92,1.012-3.467l0.016,0v-0.085c0.026-0.136,0.038-0.242,0.038-0.324
		c0-0.367-0.098-0.644-0.249-0.848l-2.302-5.889c-0.135-0.505-0.564-1.019-1.227-1.019c-0.216,0-0.436,0.058-0.627,0.156
		L71.445,22.101z"/>
	<path d="M55.717,10.19l4.129,2.936c0.271,0.204,0.575,0.393,0.95,0.393c0.235,0,0.672-0.082,0.968-0.594l1.521-2.244l1.812,3.162
		l-1.838,1.053c-0.611,0.348-0.645,0.796-0.613,1.033c0.09,0.639,0.799,0.877,1.091,0.947l8.393,2.154
		c0.052,0.019,0.24,0.079,0.479,0.079c0.59,0,1.056-0.361,1.216-0.948c0.22-0.816,2.173-8.477,2.173-8.477
		c0.061-0.228,0.171-0.802-0.149-1.219c-0.31-0.411-0.867-0.495-1.497-0.133l-1.647,0.946L68.127,1.29
		c-0.134-0.257-0.462-0.556-0.935-0.556c-0.212,0-0.426,0.061-0.59,0.159c-0.233,0.094-1.558,0.388-2.625,0.623
		c-2.634,0.583-3.568,0.81-3.913,1.01c-0.348,0.198-0.52,0.427-0.61,0.635l-3.904,4.995c-0.083,0.08-0.487,0.508-0.433,1.1
		C55.146,9.521,55.275,9.901,55.717,10.19z M72.608,17.669l-0.003,0.719l-0.055-0.704C72.57,17.675,72.591,17.669,72.608,17.669z"/>
	<path d="M44.329,29.123c0.211,0.136,1.213,1.058,2.02,1.799c1.836,1.689,2.682,2.446,3.062,2.629
		c0.23,0.106,0.444,0.159,0.651,0.159c0.095,0,0.177-0.022,0.261-0.043l6.172,0.443l0.269,0.023c0.382,0,0.722-0.134,0.958-0.377
		c0.167-0.171,0.363-0.483,0.345-0.951l0.043-5.063c0.009-0.269,0.028-0.767-0.324-1.132c-0.147-0.151-0.458-0.361-0.939-0.328
		l-2.632,0.037l1.595-3.378l1.914,0.904c0.209,0.099,0.399,0.145,0.578,0.145c0.309,0,0.579-0.139,0.747-0.384
		c0.292-0.427,0.141-0.995,0.025-1.286l-3.042-8.117c-0.165-0.6-0.863-1.184-1.681-0.891c-0.791,0.283-8.195,3.074-8.195,3.074
		c-0.217,0.075-0.923,0.379-0.957,1.049c-0.016,0.311,0.108,0.746,0.793,1.07l1.717,0.811l-3.928,8.328
		c-0.049,0.091-0.192,0.422-0.056,0.819C43.797,28.671,43.967,28.957,44.329,29.123z M56.763,32.701v0.713l-0.081-0.654
		C56.706,32.734,56.735,32.711,56.763,32.701z"/>
	<path d="M34.163,35.943l2.314,4.537l3.037-9.357l-9.358-3.035l2.179,4.272c-9.737,5.144-10.387,15.894-10.394,16.012l4.014,0.197
		C25.959,48.476,26.473,40.052,34.163,35.943z"/>
	<path d="M91.887,35.943c7.689,4.109,8.204,12.533,8.207,12.626l4.015-0.197c-0.006-0.119-0.656-10.868-10.393-16.012l2.18-4.272
		l-9.359,3.035l3.034,9.357L91.887,35.943z"/>
	<path d="M92.914,73.567c0-1.908-1.547-3.456-3.456-3.456c-7.835,0-12.198-4.204-15.704-7.583c-1.11-1.069-2.104-2.022-3.129-2.765
		c-1.207-1.06-2.705-1.817-4.243-2.194l-2.216,2.231l-2.15-2.256c-0.008,0.002-0.014,0.002-0.022,0.004
		c-1.388,0.333-2.742,0.978-3.883,1.875c-1.215,0.779-2.356,1.857-3.651,3.105c-3.505,3.378-7.869,7.583-15.704,7.583
		c-1.908,0-3.456,1.547-3.456,3.456s1.547,3.455,3.456,3.455c7.339,0,12.557-2.843,16.3-5.774v13.706
		c0,1.102,0.252,2.116,0.688,3.028c-0.001,0.037-0.011,0.072-0.011,0.11l-0.029,33.088c-0.001,2.254,1.825,4.085,4.08,4.087
		c0.001,0,0.002,0,0.003,0c2.253,0,4.083-1.825,4.083-4.08l0.024-28.391c0.091,0.002,0.181,0.011,0.271,0.011
		c0.105,0,0.209-0.01,0.315-0.013l-0.001,28.389c0,2.255,1.829,4.083,4.083,4.083s4.083-1.828,4.083-4.083l0.002-33.087
		c0-0.071-0.018-0.136-0.021-0.206c0.408-0.889,0.647-1.871,0.647-2.936V71.338c3.734,2.9,8.92,5.685,16.183,5.685
		C91.366,77.022,92.914,75.476,92.914,73.567z M64.187,77.418h-0.042L62,74.48l2.145-14.347h0.042l0.334,2.234
		c0.007,0.112,0.031,0.22,0.05,0.331l1.762,11.782L64.187,77.418z"/>
	<circle cx="64.166" cy="48.154" r="8.9"/>
	<circle cx="102.615" cy="64.882" r="6.965"/>
	<path d="M122.409,82.066c-6.131,0-9.547-3.291-12.29-5.934c-0.869-0.837-1.646-1.583-2.449-2.164
		c-0.943-0.829-2.117-1.421-3.32-1.717l-1.734,1.747l-1.683-1.765c-0.005,0.001-0.011,0.001-0.017,0.003
		c-1.085,0.259-2.146,0.765-3.039,1.466c-0.95,0.609-1.844,1.454-2.857,2.43c-2.744,2.644-6.158,5.934-12.289,5.934
		c-1.494,0-2.704,1.21-2.704,2.705c0,1.493,1.21,2.704,2.704,2.704c5.742,0,9.826-2.226,12.756-4.52v10.726
		c0,0.862,0.197,1.656,0.538,2.369c-0.001,0.029-0.009,0.057-0.009,0.086l-0.022,25.894c-0.001,1.765,1.427,3.197,3.192,3.199
		c0.001,0,0.002,0,0.003,0c1.764,0,3.195-1.429,3.196-3.194l0.018-22.218c0.072,0.001,0.142,0.008,0.213,0.008
		c0.083,0,0.164-0.007,0.247-0.01v22.216c0,1.766,1.43,3.197,3.195,3.197c1.765,0,3.197-1.431,3.197-3.197V96.139
		c0-0.055-0.013-0.107-0.016-0.161c0.32-0.696,0.506-1.464,0.506-2.297V83.025c2.924,2.269,6.982,4.449,12.666,4.449
		c1.493,0,2.704-1.21,2.704-2.704C125.113,83.276,123.902,82.066,122.409,82.066z M102.631,87.783h-0.033l-1.68-2.299l1.68-11.228
		h0.033l0.262,1.748c0.006,0.088,0.024,0.173,0.039,0.259l1.38,9.221L102.631,87.783z"/>
	<circle cx="23.477" cy="64.882" r="6.965"/>
	<path d="M43.27,82.066c-6.131,0-9.545-3.291-12.289-5.934c-0.869-0.837-1.647-1.583-2.449-2.164
		c-0.943-0.829-2.117-1.421-3.32-1.717l-1.735,1.747l-1.682-1.765c-0.006,0.001-0.012,0.001-0.018,0.003
		c-1.085,0.259-2.146,0.765-3.04,1.466c-0.951,0.609-1.843,1.454-2.856,2.43c-2.743,2.644-6.158,5.934-12.29,5.934
		c-1.493,0-2.704,1.21-2.704,2.705c0,1.493,1.211,2.704,2.704,2.704c5.744,0,9.827-2.226,12.757-4.52v10.726
		c0,0.862,0.197,1.656,0.539,2.369c-0.001,0.029-0.009,0.057-0.009,0.086l-0.023,25.894c-0.001,1.765,1.429,3.197,3.193,3.199
		c0.001,0,0.002,0,0.002,0c1.765,0,3.195-1.429,3.197-3.194l0.017-22.218c0.071,0.001,0.141,0.008,0.213,0.008
		c0.083,0,0.164-0.007,0.247-0.01l-0.001,22.216c0,1.766,1.431,3.197,3.196,3.197c1.765,0,3.197-1.431,3.197-3.197V96.139
		c0-0.055-0.013-0.107-0.017-0.161c0.32-0.696,0.507-1.464,0.507-2.297V83.025c2.922,2.269,6.98,4.449,12.664,4.449
		c1.494,0,2.704-1.21,2.704-2.704C45.974,83.276,44.764,82.066,43.27,82.066z M23.493,87.783H23.46l-1.68-2.299l1.68-11.228h0.033
		l0.261,1.748c0.007,0.088,0.025,0.173,0.039,0.259l1.379,9.221L23.493,87.783z"/>
</g>
</svg>
