<?xml version="1.0" encoding="utf-8"?>
<!-- Generator: Adobe Illustrator 16.0.0, SVG Export Plug-In . SVG Version: 6.00 Build 0)  -->
<!DOCTYPE svg PUBLIC "-//W3C//DTD SVG 1.1//EN" "http://www.w3.org/Graphics/SVG/1.1/DTD/svg11.dtd">
<svg version="1.1" id="Layer_1" xmlns="http://www.w3.org/2000/svg" xmlns:xlink="http://www.w3.org/1999/xlink" x="0px" y="0px"
	 width="50px" height="50px" viewBox="0 0 50 50" enable-background="new 0 0 50 50" xml:space="preserve">
<g>
	<path d="M31.253,15.531c1.744,0,3.16-2.024,3.16-3.769c0-1.746-1.416-3.161-3.16-3.161c-1.746,0-3.162,1.416-3.162,3.161
		C28.091,13.507,29.507,15.531,31.253,15.531z"/>
	<path d="M38.931,22.065l-1.493-4.428c-0.008-0.023-0.026-0.039-0.035-0.061c-0.032-0.08-0.079-0.148-0.127-0.22
		c-0.044-0.066-0.082-0.132-0.137-0.188c-0.052-0.053-0.114-0.091-0.176-0.134c-0.073-0.052-0.144-0.102-0.226-0.137
		c-0.021-0.009-0.036-0.027-0.059-0.036c-0.113-0.041-2.629-0.943-4.941-1.062l-0.318,0.636h-0.008l0.842,6.556l-1,1.747l-1-1.747
		l0.842-6.556h-0.01l-0.314-0.629c-1.888,0.096-3.908,0.708-4.649,0.954l-1.537-0.192c0.145,0.134,0.278,0.28,0.381,0.453
		c0.015,0.025,0.03,0.049,0.044,0.075c0.017,0.031,0.039,0.059,0.055,0.092c0.022,0.048,0.034,0.098,0.052,0.147
		c0.019,0.048,0.037,0.096,0.052,0.146c0.022,0.077,0.038,0.153,0.051,0.231c0.006,0.035,0.019,0.068,0.022,0.104l0.152,1.373
		l0.705,0.088c0.025,0.003,0.051,0.003,0.076,0.005c0.009,0,0.017,0.001,0.025,0.001c0.019,0,0.037,0.003,0.056,0.003
		c0.114,0,0.221-0.031,0.327-0.061c0.031-0.009,0.064-0.003,0.096-0.014c0.001,0,0.013-0.004,0.021-0.007c0.001,0,0.001,0,0.001,0
		c0.083-0.029,0.482-0.167,1.054-0.329v8.532l-0.995,12.371c-0.066,0.826,0.549,1.549,1.375,1.615
		c0.041,0.003,0.081,0.005,0.122,0.005c0.773,0,1.43-0.595,1.493-1.38l0.899-11.181c0.186,0.082,0.39,0.129,0.605,0.129
		s0.42-0.047,0.605-0.129l0.899,11.181c0.063,0.785,0.72,1.38,1.493,1.38c0.041,0,0.081-0.001,0.122-0.005
		c0.826-0.066,1.441-0.79,1.375-1.615l-0.932-11.581c0.143,0.053,0.289,0.089,0.436,0.089c0.442,0,0.871-0.235,1.099-0.651
		l2.493-4.572C39.011,22.757,39.042,22.396,38.931,22.065z M34.753,25.342v-6.466c0.193,0.055,0.366,0.106,0.515,0.153l1.119,3.317
		L34.753,25.342z"/>
	<path d="M18.253,15.531c1.744,0,3.16-2.024,3.16-3.769c0-1.746-1.416-3.161-3.16-3.161c-1.746,0-3.162,1.416-3.162,3.161
		C15.091,13.507,16.507,15.531,18.253,15.531z"/>
	<path d="M24.44,17.729c-0.023-0.09-0.042-0.18-0.084-0.262c-0.035-0.067-0.085-0.12-0.131-0.179
		c-0.053-0.069-0.1-0.138-0.167-0.195c-0.064-0.055-0.14-0.089-0.214-0.13c-0.058-0.032-0.103-0.078-0.166-0.101
		c-0.113-0.041-2.629-0.943-4.941-1.062l-0.318,0.636h-0.008l0.842,6.556l-1,1.747l-1-1.747l0.842-6.556h-0.01L17.768,15.8
		c-2.312,0.119-4.827,1.021-4.94,1.062c-0.069,0.025-0.12,0.075-0.183,0.111c-0.065,0.038-0.134,0.068-0.191,0.117
		c-0.074,0.062-0.128,0.138-0.185,0.215c-0.04,0.053-0.085,0.1-0.116,0.16c-0.045,0.085-0.065,0.178-0.089,0.272
		c-0.015,0.056-0.046,0.104-0.053,0.162l-1,9c-0.076,0.686,0.418,1.304,1.104,1.38c0.047,0.005,0.093,0.008,0.14,0.008
		c0.628,0,1.169-0.473,1.24-1.112l0.911-8.198c0.106-0.032,0.223-0.066,0.347-0.101v8.532l-0.995,12.371
		c-0.066,0.826,0.549,1.549,1.375,1.615c0.041,0.003,0.081,0.005,0.122,0.005c0.773,0,1.43-0.595,1.493-1.38l0.899-11.181
		c0.186,0.082,0.39,0.129,0.605,0.129s0.42-0.047,0.605-0.129l0.899,11.181c0.063,0.785,0.72,1.38,1.493,1.38
		c0.041,0,0.081-0.001,0.122-0.005c0.826-0.066,1.441-0.79,1.375-1.615l-0.995-12.371v-8.532c0.124,0.035,0.24,0.069,0.347,0.101
		l0.911,8.198c0.071,0.639,0.612,1.112,1.24,1.112c0.047,0,0.093-0.002,0.14-0.008c0.687-0.076,1.181-0.694,1.104-1.38l-1-9
		C24.488,17.837,24.456,17.788,24.44,17.729z"/>
</g>
</svg>
