<?xml version="1.0" encoding="utf-8"?>
<!-- Generator: Adobe Illustrator 16.0.0, SVG Export Plug-In . SVG Version: 6.00 Build 0)  -->
<!DOCTYPE svg PUBLIC "-//W3C//DTD SVG 1.1//EN" "http://www.w3.org/Graphics/SVG/1.1/DTD/svg11.dtd">
<svg version="1.1" id="Layer_1" xmlns="http://www.w3.org/2000/svg" xmlns:xlink="http://www.w3.org/1999/xlink" x="0px" y="0px"
	 width="126px" height="126px" viewBox="0 0 126 126" enable-background="new 0 0 126 126" xml:space="preserve">
<g>
	<path d="M28.271,110.331h69.457c1.797,0,3.256-1.461,3.256-3.254V66.813c0-1.797-1.459-3.259-3.256-3.259H28.271
		c-1.795,0-3.256,1.462-3.256,3.259v40.265C25.015,108.87,26.476,110.331,28.271,110.331z M59.142,107.077l0.087-0.487l2.219-14.845
		h0.044l2.222,14.845l0.097,0.487H59.142z M28.271,66.813h69.457l0.003,40.265H78.72C76.713,96.97,73.039,94.139,67.596,90.8
		c-0.153-0.095-0.316-0.162-0.476-0.231c-1.028-0.685-2.18-1.187-3.356-1.477l-2.292,2.311l-2.225-2.334
		c-0.009,0-0.015,0-0.023,0.002c-1.179,0.281-2.337,0.783-3.368,1.466c-0.184,0.075-0.366,0.156-0.543,0.264
		c-5.443,3.339-9.117,6.17-11.124,16.277H28.271V66.813z"/>
	<path d="M104.524,120.131c-0.101,0.041-0.209,0.07-0.324,0.07c-0.006-0.004-0.011-0.004-0.017,0H21.816
		c-0.11,0-0.213-0.031-0.311-0.072c-0.322,0-0.613,0.188-0.748,0.478c-0.15,0.329-0.123,0.687,0.072,0.991
		c0.343,0.536,0.918,1.438,13.991,2.089c7.388,0.369,17.234,0.569,27.726,0.569c9.42,0,40.321-0.186,42.498-2.563
		c0.212-0.23,0.316-0.519,0.289-0.813C105.297,120.457,104.947,120.134,104.524,120.131z M68.82,122.68H57.18
		c-0.27,0-0.488-0.218-0.488-0.486c0-0.272,0.218-0.489,0.488-0.489h11.64c0.269,0,0.487,0.217,0.487,0.489
		C69.307,122.462,69.089,122.68,68.82,122.68z"/>
	<path d="M21.505,119.316h83.01c0.003,0,0.004,0,0.008,0c0.287-0.124,0.489-0.411,0.489-0.745c0-0.232-0.097-0.443-0.254-0.593
		l-5.006-6.809c-0.153-0.208-0.398-0.33-0.656-0.33H27.131c-0.254,0-0.492,0.117-0.647,0.317l-5.313,6.918
		c-0.19,0.245-0.222,0.579-0.084,0.855C21.175,119.107,21.328,119.238,21.505,119.316z M27.531,112.468h71.155l3.889,5.292H23.468
		L27.531,112.468z"/>
	<rect x="92.98" y="85.224" width="4.068" height="0.543"/>
	<rect x="88.233" y="86.4" width="8.815" height="0.544"/>
	<rect x="90.826" y="87.692" width="6.222" height="0.545"/>
	<rect x="91.666" y="89.03" width="5.382" height="0.542"/>
	<rect x="85.382" y="90.207" width="11.666" height="0.543"/>
	<rect x="88.816" y="91.498" width="8.232" height="0.543"/>
	<path d="M87.588,95.527c-1.097,0.898-1.798,2.26-1.798,3.783c0,2.693,2.189,4.884,4.885,4.884c2.692,0,4.882-2.19,4.882-4.884
		c0-2.692-2.19-4.885-4.882-4.885c-1.082,0-2.078,0.358-2.888,0.953l-1.307-1.305h-4.505v0.244h4.402L87.588,95.527z M87.878,95.817
		l1.096,1.095c-0.751,0.534-1.247,1.409-1.247,2.398c0,1.627,1.322,2.945,2.947,2.945c1.623,0,2.945-1.318,2.945-2.945
		c0-1.626-1.322-2.946-2.945-2.946c-0.545,0-1.05,0.16-1.487,0.418l-1.111-1.11c0.733-0.525,1.628-0.839,2.598-0.839
		c2.467,0,4.476,2.009,4.476,4.478c0,2.468-2.009,4.477-4.476,4.477c-2.468,0-4.477-2.009-4.477-4.477
		C86.198,97.899,86.855,96.642,87.878,95.817z M90.675,96.609c1.488,0,2.7,1.212,2.7,2.701c0,1.488-1.212,2.702-2.7,2.702
		c-1.49,0-2.703-1.214-2.703-2.702C87.972,97.821,89.185,96.609,90.675,96.609z"/>
	<rect x="29.628" y="69.625" width="7.053" height="1.084"/>
	<rect x="37.497" y="69.625" width="7.053" height="1.084"/>
	<rect x="29.628" y="80.001" width="7.596" height="0.272"/>
	<rect x="29.628" y="78.442" width="12.208" height="0.27"/>
	<rect x="29.628" y="76.779" width="5.508" height="0.27"/>
	<rect x="29.628" y="75.221" width="8.855" height="0.27"/>
	<rect x="29.628" y="73.354" width="10.784" height="0.271"/>
	<rect x="29.628" y="71.794" width="8.855" height="0.272"/>
	<path d="M66.971,40.064h30.008V22.883H66.971V40.064z M95.525,24.335v3.746c-1.922-0.307-3.437-1.823-3.746-3.746H95.525z
		 M95.525,34.865v3.747h-3.746C92.088,36.688,93.604,35.176,95.525,34.865z M81.976,25.304c3.408,0,6.17,2.763,6.17,6.171
		c0,3.409-2.763,6.171-6.17,6.171c-3.409,0-6.172-2.762-6.172-6.171C75.803,28.066,78.567,25.304,81.976,25.304z M68.424,24.335
		h3.748c-0.311,1.923-1.825,3.439-3.748,3.746V24.335z M68.424,34.865c1.923,0.311,3.437,1.823,3.748,3.747h-3.748V34.865z"/>
	<path d="M81.466,34.994v1.146h0.99v-1.192c0.69-0.093,1.23-0.307,1.611-0.646c0.411-0.364,0.619-0.835,0.619-1.396
		c0-0.455-0.144-0.845-0.428-1.162c-0.282-0.311-0.765-0.596-1.479-0.869l-0.324-0.123v-1.734c0.497,0.057,1.001,0.182,1.504,0.38
		l0.125,0.051l0.495-1.241l-0.123-0.052c-0.629-0.258-1.303-0.406-2.001-0.445v-0.9h-0.99v0.923
		c-0.632,0.082-1.147,0.284-1.53,0.601c-0.417,0.348-0.63,0.796-0.63,1.337c0,0.497,0.148,0.92,0.441,1.259
		c0.286,0.33,0.74,0.618,1.353,0.854l0.366,0.137v1.789c-0.283-0.015-0.603-0.064-0.948-0.151c-0.404-0.101-0.76-0.226-1.061-0.371
		l-0.195-0.096v1.446l0.08,0.034C79.902,34.826,80.616,34.969,81.466,34.994z M82.457,32.274c0.231,0.099,0.401,0.195,0.506,0.292
		c0.12,0.113,0.178,0.25,0.178,0.419c0,0.13,0,0.503-0.684,0.658V32.274z M81.003,30.079c-0.104-0.112-0.154-0.248-0.154-0.422
		c0-0.16,0.058-0.288,0.182-0.396c0.102-0.092,0.248-0.161,0.435-0.204v1.317C81.249,30.274,81.095,30.174,81.003,30.079z"/>
	<path d="M78.79,18.115L78.648,1.744L47.227,9.88l0.142,16.37L78.79,18.115z M77.259,17.128l-3.926,1.016
		c0.308-1.919,1.883-3.772,3.895-4.589L77.259,17.128z M77.141,3.521l0.031,3.57c-2.017,0.227-3.615-0.805-3.956-2.555L77.141,3.521
		z M62.96,8.117c3.568-0.923,6.482,0.96,6.51,4.206c0.029,3.25-2.841,6.63-6.409,7.554c-3.57,0.924-6.486-0.959-6.514-4.206
		C56.519,12.422,59.389,9.041,62.96,8.117z M48.877,24.473l-0.031-3.569c2.016-0.228,3.615,0.805,3.955,2.554L48.877,24.473z
		 M52.683,9.854c-0.306,1.915-1.882,3.767-3.894,4.586l-0.03-3.57L52.683,9.854z"/>
	<path d="M60.387,16.311l-0.206-0.036l0.013,1.376l0.083,0.01c0.589,0.093,1.336,0.034,2.23-0.17l0.009,1.092l1.038-0.271
		l-0.011-1.135c0.72-0.275,1.286-0.629,1.682-1.052c0.427-0.459,0.642-0.961,0.638-1.5c-0.004-0.433-0.158-0.765-0.46-0.991
		c-0.296-0.218-0.805-0.358-1.554-0.427l-0.339-0.03l-0.015-1.65c0.521-0.081,1.05-0.098,1.579-0.047l0.13,0.017l0.508-1.318
		l-0.128-0.016c-0.662-0.078-1.368-0.035-2.1,0.118l-0.007-0.859l-1.037,0.27l0.007,0.882c-0.662,0.246-1.2,0.58-1.597,0.986
		c-0.436,0.445-0.655,0.927-0.649,1.439c0.004,0.476,0.162,0.839,0.474,1.083c0.302,0.238,0.78,0.387,1.421,0.446l0.386,0.03
		l0.013,1.708c-0.294,0.062-0.63,0.1-0.994,0.11C61.078,16.392,60.702,16.369,60.387,16.311z M64.053,14.771
		c0.126,0.074,0.188,0.189,0.188,0.352c0.002,0.123,0.004,0.479-0.709,0.811l-0.011-1.303C63.762,14.66,63.942,14.706,64.053,14.771
		z M61.98,12.93c-0.11-0.076-0.163-0.192-0.165-0.359c-0.002-0.152,0.058-0.29,0.187-0.426c0.106-0.115,0.258-0.224,0.456-0.313
		l0.01,1.257C62.24,13.053,62.077,12.998,61.98,12.93z"/>
	<path d="M61.454,37.618l-33.75-10.06l-0.06,18.14l33.749,10.06L61.454,37.618z M29.283,44.651l0.014-3.957
		c2.16,0.973,3.859,3.078,4.201,5.212L29.283,44.651z M29.32,33.533l0.013-3.957l4.215,1.257
		C33.193,32.76,31.485,33.852,29.32,33.533z M44.526,48.171c-3.831-1.142-6.93-4.983-6.917-8.581
		c0.011-3.599,3.129-5.589,6.961-4.447c3.833,1.141,6.932,4.986,6.919,8.583C51.477,47.324,48.359,49.314,44.526,48.171z
		 M59.766,53.736l-4.215-1.257c0.354-1.926,2.063-3.016,4.228-2.7L59.766,53.736z M59.803,42.618
		c-2.163-0.972-3.862-3.077-4.203-5.211l4.215,1.254L59.803,42.618z"/>
	<path d="M45.458,41.292l-0.364-0.238l0.006-1.829c0.559,0.227,1.125,0.529,1.69,0.906l0.142,0.094l0.56-1.146l-0.139-0.093
		c-0.708-0.484-1.462-0.869-2.248-1.142l0.003-0.951l-1.115-0.333l-0.003,0.977c-0.711-0.126-1.291-0.084-1.722,0.121
		c-0.472,0.227-0.712,0.628-0.715,1.197c-0.001,0.524,0.164,1.021,0.493,1.479c0.321,0.445,0.831,0.9,1.517,1.356l0.412,0.264
		l-0.006,1.89c-0.318-0.109-0.676-0.269-1.065-0.477c-0.454-0.241-0.854-0.493-1.192-0.749l-0.218-0.164l-0.006,1.525l0.09,0.063
		c0.629,0.458,1.432,0.848,2.388,1.158l-0.004,1.21l1.114,0.335l0.005-1.261c0.775,0.134,1.384,0.087,1.814-0.141
		c0.464-0.249,0.699-0.675,0.701-1.268c0.002-0.479-0.16-0.938-0.479-1.371C46.802,42.285,46.259,41.822,45.458,41.292z
		 M43.982,40.325c-0.244-0.18-0.418-0.335-0.52-0.467c-0.116-0.153-0.172-0.315-0.172-0.497c0-0.169,0.068-0.284,0.206-0.358
		c0.116-0.063,0.281-0.086,0.491-0.07L43.982,40.325z M45.084,44.109l0.004-1.444c0.26,0.179,0.45,0.341,0.569,0.476
		c0.133,0.16,0.197,0.322,0.197,0.501C45.854,43.781,45.852,44.173,45.084,44.109z"/>
	<path d="M61.472,88.558c5.084,0,9.208-4.122,9.208-9.209s-4.125-9.213-9.208-9.213c-5.088,0-9.213,4.126-9.213,9.213
		S56.384,88.558,61.472,88.558z"/>
</g>
</svg>
