<?xml version="1.0" encoding="utf-8"?>
<!-- Generator: Adobe Illustrator 16.0.0, SVG Export Plug-In . SVG Version: 6.00 Build 0)  -->
<!DOCTYPE svg PUBLIC "-//W3C//DTD SVG 1.1//EN" "http://www.w3.org/Graphics/SVG/1.1/DTD/svg11.dtd">
<svg version="1.1" id="Layer_1" xmlns="http://www.w3.org/2000/svg" xmlns:xlink="http://www.w3.org/1999/xlink" x="0px" y="0px"
	 width="50px" height="50px" viewBox="0 0 50 50" enable-background="new 0 0 50 50" xml:space="preserve">
<g>
	<path d="M21.487,15.462c1.756,0,3.184-2.04,3.184-3.797c0-1.759-1.428-3.184-3.184-3.184c-1.759,0-3.187,1.425-3.187,3.184
		C18.301,13.422,19.729,15.462,21.487,15.462z"/>
	<path d="M33.586,14.478c-2.345,0-4.247,1.902-4.247,4.247c0,0.589,0.12,1.149,0.337,1.659l-0.308,0.234l-1.735-3.227
		c-0.029-0.055-0.079-0.088-0.114-0.137c-0.055-0.076-0.105-0.153-0.179-0.215c-0.067-0.059-0.146-0.095-0.227-0.138
		c-0.056-0.031-0.099-0.076-0.161-0.098c-0.114-0.041-2.648-0.95-4.977-1.069l-0.321,0.639h-0.008l0.848,6.605l-1.007,1.76
		l-1.008-1.76l0.849-6.605h-0.01l-0.321-0.639c-2.33,0.119-4.861,1.027-4.977,1.068c-0.037,0.014-0.063,0.044-0.099,0.061
		c-0.076,0.036-0.144,0.079-0.211,0.129c-0.067,0.049-0.127,0.1-0.182,0.161c-0.053,0.057-0.095,0.118-0.135,0.184
		c-0.047,0.076-0.085,0.151-0.114,0.235c-0.012,0.036-0.039,0.063-0.049,0.1l-1.379,5.344l-1.489,2.357
		c-0.372,0.589-0.195,1.366,0.394,1.737c0.208,0.132,0.44,0.195,0.671,0.195c0.417,0,0.826-0.208,1.064-0.587l1.594-2.524
		c0.069-0.111,0.122-0.231,0.155-0.357l1.256-4.868c0.137-0.042,0.292-0.088,0.464-0.137v8.596l-1.003,12.462
		c-0.065,0.832,0.554,1.56,1.386,1.626c0.042,0.004,0.082,0.005,0.123,0.005c0.779,0,1.44-0.599,1.504-1.39l0.907-11.263
		c0.186,0.083,0.392,0.131,0.609,0.131s0.422-0.048,0.609-0.131l0.907,11.263c0.063,0.791,0.725,1.39,1.503,1.39
		c0.041,0,0.082-0.001,0.123-0.005c0.833-0.066,1.452-0.795,1.385-1.626l-1.001-12.462v-8.595c0.247,0.07,0.465,0.137,0.639,0.191
		l2.197,4.087c0.174,0.325,0.48,0.557,0.842,0.635c0.088,0.02,0.178,0.029,0.266,0.029c0.274,0,0.542-0.089,0.764-0.258l1.591-1.213
		c0.659,0.42,1.436,0.671,2.274,0.671c2.347,0,4.247-1.902,4.247-4.248C37.833,16.38,35.933,14.478,33.586,14.478z M33.919,20.98
		v0.751h-0.724v-0.699c-0.493-0.022-0.973-0.156-1.253-0.318l0.223-0.862c0.309,0.169,0.744,0.324,1.222,0.324
		c0.421,0,0.707-0.162,0.707-0.456c0-0.28-0.235-0.458-0.781-0.642c-0.788-0.266-1.325-0.634-1.325-1.35
		c0-0.648,0.457-1.156,1.245-1.312v-0.699h0.722v0.648c0.495,0.022,0.826,0.126,1.07,0.243l-0.215,0.833
		c-0.193-0.081-0.529-0.25-1.062-0.25c-0.479,0-0.633,0.206-0.633,0.413c0,0.243,0.259,0.397,0.886,0.634
		c0.877,0.309,1.229,0.715,1.229,1.378C35.229,20.273,34.766,20.833,33.919,20.98z"/>
</g>
</svg>
