<?xml version="1.0" encoding="iso-8859-1"?>
<!-- Generator: Adobe Illustrator 17.1.0, SVG Export Plug-In . SVG Version: 6.00 Build 0)  -->
<!DOCTYPE svg PUBLIC "-//W3C//DTD SVG 1.1//EN" "http://www.w3.org/Graphics/SVG/1.1/DTD/svg11.dtd">
<svg version="1.1" id="Layer_1" xmlns="http://www.w3.org/2000/svg" xmlns:xlink="http://www.w3.org/1999/xlink" x="0px" y="0px"
	 viewBox="0 0 128 128" style="enable-background:new 0 0 128 128;" xml:space="preserve">
<g>
	<circle cx="26.346" cy="32.854" r="5.892"/>
	<circle cx="14.224" cy="40.293" r="3.234"/>
	<path d="M85.518,71.78c0-4.562-1.093-11.785-9.092-13.274c-1.586-0.365-2.932-0.306-3.548-0.254
		c-0.174,0.015-0.313,0.175-0.313,0.35v5.198c0,0.175-0.136,0.279-0.307,0.239c-0.341-0.077-0.651-0.119-1.006-0.119
		c-2.517,0-4.554,2.016-4.554,4.532c0,0.69,0.157,1.344,0.431,1.915c0.075,0.157,0.007,0.279-0.168,0.279h-19.97
		c-0.175,0-0.371-0.13-0.439-0.291l-2.737-7.32c0.718-0.109,1.394-0.491,1.851-1.128c0.897-1.252,0.61-2.994-0.642-3.892
		l-1.381-0.99c-0.116-0.122-0.244-0.236-0.387-0.337l-6.562-4.635l-4.51-9.188c-0.459-0.985-1.417-1.565-2.433-1.605
		c-0.022-0.004-0.048-0.015-0.066-0.015h-8.637c-0.685,0-1.216,0.56-1.178,1.244l-0.283,5.485c-0.482-2.188-2.43-3.827-4.763-3.827
		c-2.038,0-3.782,1.25-4.513,3.024l-0.473-6.659c-0.067-0.938-0.887-1.642-1.818-1.577c-0.938,0.067-1.644,0.881-1.577,1.819
		l0.793,11.157c0.043,0.838,0.725,6.995,11.127,7.89l-8.653,16.48c-0.319,0.607-0.018,1.103,0.667,1.103h5.608v5.174L5.912,96.6
		c-0.902,1.258-0.614,3.01,0.645,3.913c0.495,0.355,1.066,0.525,1.631,0.525c0.873,0,1.734-0.406,2.281-1.17l10.593-14.773
		c0.341-0.476,0.525-1.048,0.525-1.634v-6.075h1.372l7.074,21.717c0.386,1.184,1.484,1.936,2.666,1.936
		c0.288,0,0.581-0.044,0.869-0.139c1.473-0.479,2.277-2.062,1.798-3.534l-6.508-19.98h4.361c0.685,0,1.035-0.519,0.776-1.154
		l-6.872-16.855c-0.259-0.635-0.236-1.664,0.051-2.286l2.775-6.029l1.976,4.039c0.207,0.444,0.526,0.826,0.927,1.108l4.95,3.496
		l2.887,2.069c1.128,3.016,3.969,10.441,3.969,10.441c0.08,0.155,0.113,0.421,0.106,0.595c-0.039,1.074,0.621,2.788,0.897,3.454
		c1.208,3.533,3.753,7.772,8.512,10.425c-0.003,0.009-0.002,0.019-0.006,0.028L53.613,88c-0.029,0.067-0.084,0.127-0.148,0.177
		c-2.48,0.03-4.482,2.048-4.482,4.536c0,2.507,2.032,4.539,4.539,4.539s4.539-2.032,4.539-4.539c0-1.041-0.354-1.997-0.944-2.763
		c0.006-0.041,0.001-0.087,0.016-0.122l0.651-1.516c0.012-0.028,0.031-0.05,0.05-0.073c2.068,0.637,4.433,1.013,7.149,1.013
		c3.396,0,6.26-0.538,8.677-1.427l0.823,1.916c0.059,0.138,0.04,0.33-0.017,0.481c-0.471,0.715-0.747,1.571-0.747,2.491
		c0,2.507,2.032,4.539,4.539,4.539s4.539-2.032,4.539-4.539c0-1.925-1.2-3.566-2.892-4.226c-0.533-0.241-1.122-0.378-1.745-0.378
		c-0.011,0-0.024,0-0.035,0.001c-0.02,0-0.091-0.129-0.16-0.29l-0.745-1.736C83.589,82.069,85.518,75.249,85.518,71.78z"/>
	<path d="M120.464,90.092c2.073,0,2.399-1.043,2.003-1.927c-0.102-0.228-7.25-16.01-7.369-16.258
		c-0.117-0.244-0.331-0.896-1.524-0.896c-0.767,0-1.41,0.477-1.597,1.179c-0.051,0.19-0.212,0.351-0.408,0.351h-5.153
		c-0.196,0-0.451-0.128-0.571-0.282c-0.049-0.062-0.276-1.036-1.252-1.036c0,0-2.571,0-2.872,0c-1.224,0-1.85,0.424-2.126,1.634
		l-3.017,10.231c-0.051,0.19-0.24,0.315-0.436,0.3c0,0-1.771,0-2.1,0c-1.141,0-2.028,0.822-2.028,1.963
		c0,0.075-0.215,3.267-0.217,4.065c0,0.196-0.059,0.504-0.117,0.692c-0.158,0.512-0.244,1.056-0.244,1.62
		c0,3.037,2.462,5.499,5.499,5.499s5.499-2.537,5.499-5.574c0-0.465-0.058-0.831-0.167-1.345c-0.041-0.192,0.068-0.347,0.246-0.347
		s0.389,0.144,0.473,0.321c0,0,2.315,4.923,2.317,4.932c0.002,0.009,0.086,0.154,0.219,0.299c0.355,0.388,0.86,0.631,1.422,0.631
		c1.072,0,1.941-0.849,1.941-1.921c0-0.095-0.007-0.182-0.021-0.268c-0.023-0.147-1.642-3.673-1.642-3.673
		c-0.084-0.177,0.006-0.321,0.203-0.321h2.571c0.196,0,0.323,0.156,0.283,0.348c-0.101,0.492-0.155,0.804-0.155,1.236
		c0,2.819,2.285,5.141,5.103,5.141c2.818,0,5.103-2.266,5.103-5.084c0-0.391-0.044-0.767-0.128-1.13
		C120.158,90.279,120.268,90.092,120.464,90.092z M113.788,78.237c-4.209,0-7.047,5.394-9.068,5.394c0,0-0.427,0.022-0.592-0.007
		c-0.165-0.03-0.248-0.204-0.194-0.393l2.049-6.967c0.052-0.189,0.247-0.344,0.443-0.344h6.581c0.196,0,0.402,0.114,0.459,0.255
		l0.104,0.255l0.461,1.422C114.091,78.037,113.979,78.192,113.788,78.237z"/>
	<circle cx="103.488" cy="65.26" r="4.817"/>
</g>
</svg>
