<?xml version="1.0" encoding="iso-8859-1"?>
<!-- Generator: Adobe Illustrator 17.1.0, SVG Export Plug-In . SVG Version: 6.00 Build 0)  -->
<!DOCTYPE svg PUBLIC "-//W3C//DTD SVG 1.1//EN" "http://www.w3.org/Graphics/SVG/1.1/DTD/svg11.dtd">
<svg version="1.1" id="Layer_1" xmlns="http://www.w3.org/2000/svg" xmlns:xlink="http://www.w3.org/1999/xlink" x="0px" y="0px"
	 viewBox="0 0 128 128" style="enable-background:new 0 0 128 128;" xml:space="preserve">
<g>
	<circle cx="36.415" cy="23.738" r="8.655"/>
	<circle cx="18.609" cy="34.667" r="4.75"/>
	<path d="M123.333,80.917c0-6.701-1.605-17.311-13.356-19.498c-2.33-0.536-4.307-0.45-5.212-0.373
		c-0.255,0.023-0.461,0.257-0.461,0.514v7.636c0,0.257-0.199,0.409-0.45,0.352c-0.502-0.113-0.956-0.175-1.478-0.175
		c-3.697,0-6.69,2.961-6.69,6.657c0,1.014,0.23,1.974,0.633,2.813c0.111,0.23,0.01,0.409-0.247,0.409H66.739
		c-0.257,0-0.545-0.191-0.646-0.428l-4.021-10.752c1.055-0.16,2.048-0.721,2.719-1.656c1.318-1.839,0.896-4.398-0.943-5.716
		l-2.029-1.454c-0.171-0.18-0.358-0.347-0.569-0.495l-9.639-6.809l-6.625-13.496c-0.674-1.446-2.082-2.298-3.574-2.358
		c-0.032-0.006-0.07-0.022-0.097-0.022H28.627c-1.007,0-1.786,0.823-1.731,1.828l-0.415,8.057c-0.708-3.214-3.57-5.621-6.997-5.621
		c-2.993,0-5.556,1.836-6.629,4.442l-0.695-9.782c-0.098-1.377-1.302-2.412-2.671-2.316c-1.377,0.099-2.415,1.294-2.316,2.672
		l1.165,16.389c0.063,1.231,1.065,10.276,16.344,11.59L11.971,87.531c-0.468,0.891-0.027,1.621,0.98,1.621h8.237v7.6L6.4,117.375
		c-1.326,1.848-0.901,4.422,0.947,5.747c0.727,0.521,1.566,0.771,2.396,0.771c1.283,0,2.547-0.597,3.351-1.719l15.56-21.7
		c0.501-0.7,0.771-1.539,0.771-2.4v-8.924h2.016l10.391,31.899c0.567,1.74,2.18,2.844,3.915,2.844c0.423,0,0.853-0.065,1.276-0.204
		c2.163-0.704,3.345-3.028,2.641-5.191l-9.56-29.348h6.406c1.007,0,1.52-0.763,1.139-1.695L37.556,62.697
		c-0.38-0.932-0.347-2.443,0.074-3.358l4.076-8.856l2.902,5.933c0.304,0.652,0.773,1.214,1.362,1.628l7.271,5.135l4.241,3.04
		c1.658,4.43,5.83,15.337,5.83,15.337c0.117,0.228,0.167,0.619,0.156,0.874c-0.057,1.578,0.912,4.095,1.317,5.073
		c1.775,5.19,5.513,11.416,12.503,15.313c-0.004,0.013-0.003,0.028-0.009,0.041l-0.812,1.887c-0.043,0.099-0.123,0.187-0.217,0.261
		c-3.643,0.045-6.584,3.009-6.584,6.662c0,3.682,2.985,6.667,6.667,6.667c3.682,0,6.667-2.985,6.667-6.667
		c0-1.529-0.52-2.934-1.386-4.059c0.009-0.06,0.001-0.128,0.023-0.179l0.956-2.226c0.017-0.041,0.046-0.074,0.073-0.107
		c3.037,0.936,6.512,1.488,10.501,1.488c4.988,0,9.195-0.79,12.746-2.096l1.21,2.814c0.086,0.202,0.059,0.484-0.025,0.706
		c-0.692,1.051-1.097,2.307-1.097,3.659c0,3.682,2.985,6.667,6.667,6.667c3.682,0,6.667-2.985,6.667-6.667
		c0-2.828-1.763-5.238-4.248-6.207c-0.782-0.354-1.648-0.555-2.563-0.555c-0.016,0-0.035,0-0.051,0.002
		c-0.029,0-0.134-0.189-0.234-0.426l-1.094-2.55C120.5,96.031,123.333,86.013,123.333,80.917z"/>
</g>
</svg>
