<?xml version="1.0" encoding="iso-8859-1"?>
<!-- Generator: Adobe Illustrator 17.1.0, SVG Export Plug-In . SVG Version: 6.00 Build 0)  -->
<!DOCTYPE svg PUBLIC "-//W3C//DTD SVG 1.1//EN" "http://www.w3.org/Graphics/SVG/1.1/DTD/svg11.dtd">
<svg version="1.1" id="Layer_1" xmlns="http://www.w3.org/2000/svg" xmlns:xlink="http://www.w3.org/1999/xlink" x="0px" y="0px"
	 viewBox="0 0 128 128" style="enable-background:new 0 0 128 128;" xml:space="preserve">
<g>
	<circle cx="48.298" cy="17.179" r="9.191"/>
	<path d="M53.917,45.58l3.082,6.3c0.323,0.693,0.821,1.289,1.446,1.729l7.721,5.453l6.195,4.44c0.725,0.52,1.554,0.784,2.383,0.812
		c1.405,0.048,2.807-0.585,3.688-1.813c1.4-1.953,0.952-4.67-1.002-6.071l-2.154-1.544c-0.181-0.191-0.38-0.369-0.604-0.526
		l-10.236-7.231L57.4,32.796c-0.715-1.536-2.211-2.44-3.795-2.504c-0.034-0.007-0.074-0.023-0.103-0.023H40.028
		c-1.069,0-1.896,0.874-1.838,1.941l-0.441,8.556c-0.752-3.413-3.791-5.969-7.43-5.969c-3.179,0-5.9,1.95-7.039,4.718l-0.738-10.388
		c-0.104-1.462-1.384-2.556-2.836-2.46c-1.463,0.105-2.564,1.374-2.46,2.837l1.237,17.404c0.067,1.308,1.131,10.912,17.356,12.308
		L22.341,84.922c-0.497,0.947-0.029,1.721,1.04,1.721h8.747v8.071l-15.704,21.901c-1.408,1.963-0.957,4.695,1.006,6.103
		c0.772,0.553,1.663,0.819,2.545,0.819c1.362,0,2.704-0.634,3.558-1.825l16.523-23.044c0.533-0.743,0.819-1.635,0.819-2.549v-9.476
		h2.14l11.034,33.875c0.602,1.847,2.316,3.021,4.158,3.021c0.449,0,0.906-0.069,1.355-0.217c2.297-0.748,3.552-3.216,2.804-5.513
		L52.216,86.643h6.803c1.069,0,1.614-0.81,1.21-1.8L49.51,58.551c-0.404-0.99-0.368-2.595,0.079-3.566L53.917,45.58z"/>
	<circle cx="29.39" cy="28.784" r="5.044"/>
	<path d="M118.281,112.661c3.052,0,3.533-1.536,2.95-2.838c-0.15-0.335-10.677-23.575-10.851-23.94
		c-0.172-0.359-0.487-1.319-2.245-1.319c-1.129,0-2.077,0.703-2.351,1.736c-0.074,0.279-0.312,0.517-0.602,0.517h-7.588
		c-0.289,0-0.664-0.188-0.841-0.416c-0.072-0.092-0.407-1.525-1.844-1.525c0,0-3.785,0-4.229,0c-1.803,0-2.725,0.625-3.131,2.406
		l-4.443,15.066c-0.075,0.279-0.353,0.464-0.642,0.441c0,0-2.607,0-3.092,0c-1.681,0-2.987,1.21-2.987,2.891
		c0,0.11-0.317,4.811-0.32,5.987c-0.001,0.289-0.087,0.742-0.172,1.018c-0.233,0.754-0.359,1.555-0.359,2.385
		c0,4.472,3.625,8.097,8.097,8.097c4.472,0,8.097-3.736,8.097-8.208c0-0.684-0.085-1.224-0.245-1.98
		c-0.06-0.283,0.101-0.512,0.362-0.512c0.261,0,0.573,0.212,0.697,0.473c0,0,3.409,7.249,3.411,7.262
		c0.003,0.014,0.127,0.227,0.322,0.44c0.522,0.572,1.267,0.929,2.095,0.929c1.578,0,2.858-1.25,2.858-2.828
		c0-0.14-0.01-0.268-0.03-0.394c-0.034-0.216-2.417-5.409-2.417-5.409c-0.124-0.261,0.009-0.473,0.299-0.473h3.786
		c0.289,0,0.475,0.23,0.417,0.513c-0.149,0.725-0.228,1.185-0.228,1.821c0,4.151,3.364,7.57,7.515,7.57
		c4.15,0,7.515-3.337,7.515-7.487c0-0.576-0.065-1.129-0.188-1.664C117.83,112.936,117.991,112.661,118.281,112.661z M108.45,95.203
		c-6.199,0-10.378,7.942-13.353,7.942c0,0-0.628,0.033-0.872-0.011c-0.243-0.044-0.365-0.301-0.286-0.579l3.017-10.259
		c0.077-0.279,0.364-0.507,0.653-0.507h9.691c0.289,0,0.592,0.168,0.676,0.375l0.152,0.376l0.679,2.094
		C108.895,94.909,108.731,95.137,108.45,95.203z"/>
	<circle cx="93.283" cy="76.094" r="7.094"/>
</g>
</svg>
