<?xml version="1.0" encoding="iso-8859-1"?>
<!-- Generator: Adobe Illustrator 17.1.0, SVG Export Plug-In . SVG Version: 6.00 Build 0)  -->
<!DOCTYPE svg PUBLIC "-//W3C//DTD SVG 1.1//EN" "http://www.w3.org/Graphics/SVG/1.1/DTD/svg11.dtd">
<svg version="1.1" id="Layer_1" xmlns="http://www.w3.org/2000/svg" xmlns:xlink="http://www.w3.org/1999/xlink" x="0px" y="0px"
	 viewBox="0 0 128 128" style="enable-background:new 0 0 128 128;" xml:space="preserve">
<g>
	<circle cx="47.445" cy="14.157" r="8.591"/>
	<path d="M95.047,65.751c0.508-0.063,1.343-2.116,2.12-3.679c0.776-1.564,0.474-4.334-1.734-4.555
		c-1.224-0.122-2.498,0.527-3.39,1.129c-0.216,0.147-0.529,0.115-0.72-0.063c-1.039-0.972-2.435-1.568-3.971-1.568
		c-1.478,0-2.823,0.552-3.849,1.459c-0.195,0.174-0.514,0.204-0.735,0.061c-0.88-0.567-2.074-1.131-3.222-1.018
		c-2.21,0.218-2.51,2.991-1.734,4.555c0.777,1.564,1.61,3.617,2.122,3.68c0.466,0.059-1.033-3.539,0.057-4.639
		c0.185-0.187,0.611-0.277,0.873-0.256c0.141,0.01,0.307,0.036,0.493,0.082c0.254,0.063,0.384,0.351,0.327,0.605
		c-0.094,0.414-0.143,0.844-0.143,1.287c0,3.209,2.603,5.812,5.812,5.812c3.21,0,5.812-2.603,5.812-5.812
		c0-0.403-0.042-0.796-0.12-1.173c-0.052-0.256,0.073-0.558,0.323-0.642c0.29-0.099,0.546-0.141,0.747-0.158
		c0.26-0.021,0.688,0.071,0.873,0.256C96.08,62.214,94.579,65.809,95.047,65.751z"/>
	<path d="M27.537,36.983c-0.022,0.076-6.705,21.897-6.708,21.906c-0.725,2.364,0.604,4.868,2.968,5.593
		c2.363,0.725,4.866-0.603,5.592-2.965c0.002,0,6.692-21.811,6.692-21.811c0.04-0.092,0.239-0.475,0.707-0.475
		c0.042,0,0.943,0,0.943,0h0.002c0.266-0.004,0.422,0.222,0.351,0.478L24.692,83.536c-0.072,0.255,0,0.702,0.466,0.702h9.396
		c0.266,0,0.461,0.216,0.461,0.482c0,0-0.002,31.929-0.002,31.941c0,3.188,2.585,5.773,5.773,5.773c3.188,0,5.773-2.585,5.773-5.773
		l0.002-31.941c0-0.266,0.215-0.481,0.481-0.481h0.008h0.923h0.008c0.266,0,0.481,0.215,0.481,0.481l0.002,31.941
		c0,3.188,2.585,5.773,5.773,5.773c3.188,0,5.773-2.585,5.773-5.773c0-0.011-0.002-31.941-0.002-31.941
		c0-0.266,0.195-0.482,0.461-0.482h9.396c0.466,0,0.539-0.447,0.466-0.702L56.938,39.708c-0.071-0.256,0.085-0.482,0.351-0.478
		h0.002c0,0,0.9,0,0.943,0c0.468,0,0.668,0.383,0.707,0.475c0,0,7.346,24.056,7.349,24.057c0.06,0.196,0.137,0.383,0.221,0.564
		l9.619,16.883c0.134,0.225,0.199,0.615,0.147,0.873l-3.888,19.164c-0.052,0.256,0.118,0.464,0.38,0.464l2.509,0V117
		c0.044,2.793,2.477,5.433,5.538,5.433c3.061,0,5.821-2.624,5.865-5.417l0.002-14.079c0-0.257,0.208-0.466,0.466-0.466h0.698
		c0.257,0,0.466,0.208,0.466,0.466l0.005,14.151c0.044,2.793,2.269,5.345,5.33,5.345c2.891,0,5.267-2.424,5.559-5.047
		c0.018-0.16,0.031-9.068,0.039-15.675l2.408,0c0.262,0,0.437-0.21,0.393-0.466l-3.895-18.78c-0.046-0.258,0.029-0.648,0.166-0.871
		l8.237-13.425c0.924-1.31,1.121-3.008,0.288-4.401c-1.123-1.877-4.34-2.485-6.216-1.362c-0.542,0.325-0.978,0.76-1.297,1.259
		c-0.141,0.221-0.346,0.592-0.491,0.81l-4.269,6.519c-0.143,0.218-0.472,0.397-0.735,0.397H80.959c-0.262,0-0.586-0.181-0.722-0.403
		c0,0-4.784-8.005-4.909-8.412c-0.003-0.009-7.844-25.595-7.844-25.595c-1.023-3.555-2.976-11.649-10.526-11.649H38.086
		C31.051,25.333,28.56,33.428,27.537,36.983z"/>
</g>
</svg>
