<?xml version="1.0" encoding="iso-8859-1"?>
<!-- Generator: Adobe Illustrator 17.1.0, SVG Export Plug-In . SVG Version: 6.00 Build 0)  -->
<!DOCTYPE svg PUBLIC "-//W3C//DTD SVG 1.1//EN" "http://www.w3.org/Graphics/SVG/1.1/DTD/svg11.dtd">
<svg version="1.1" id="Layer_1" xmlns="http://www.w3.org/2000/svg" xmlns:xlink="http://www.w3.org/1999/xlink" x="0px" y="0px"
	 viewBox="0 0 128 128" style="enable-background:new 0 0 128 128;" xml:space="preserve">
<g>
	<path d="M108.042,71.823c2.492,0,4.512-2.02,4.512-4.512c0-0.014,0-30.978,0-31.347c0-6.175-4.749-10.924-10.686-10.924
		c-0.151,0-8.131,0-11.874,0c0,0-0.75,0-1.9,0c-3.743,0-11.723,0-11.874,0c-5.937,0-10.132,4.531-10.687,10.924
		c-0.003,0.041-0.04,0.462-0.103,1.178c0.067-0.002,0.133-0.008,0.2-0.008c1.883,0,3.689,0.63,5.153,1.788
		c1.357-0.811,2.658-1.221,3.874-1.221c0.171,0,0.343,0.008,0.51,0.025c1.284,0.128,2.372,0.782,3.063,1.843
		c0.864,1.327,1.063,3.282,0.506,4.981c-0.109,0.332-0.283,0.699-0.482,1.109l-0.059,0.121c-0.117,0.244-0.236,0.495-0.353,0.744
		c-0.532,1.126-0.953,2.013-1.385,2.658c0,1.243,0,2.582,0,4.003c2.593,1.411,4.588,4.288,5.782,8.436
		c0.016,0.057,0.035,0.124,0.055,0.201c1.915,6.244,4.691,15.298,4.712,15.366c0.771,2.513-0.646,5.184-3.158,5.954
		c-0.455,0.139-0.925,0.21-1.398,0.21c-0.993,0-1.926-0.301-2.698-0.831l3.772,12.391c0.173,0.61,0.054,1.267-0.317,1.759
		c-0.36,0.476-0.918,0.749-1.533,0.749h-5.087l0.001,20.875c0.564,2.623,2.896,4.589,5.687,4.589c3.213,0,5.818-2.605,5.818-5.818
		c0-0.009,0-45.482,0-45.482c0-0.332,0.153-0.47,0.481-0.47h0.938c0.327,0,0.481,0.139,0.481,0.47c0,0,0,45.473,0,45.482
		c0,3.213,2.605,5.818,5.818,5.818c3.213,0,5.818-2.605,5.818-5.818c0-0.009,0-77.299,0-77.299c0-0.259,0.21-0.469,0.469-0.469
		h0.956c0.259,0,0.469,0.21,0.469,0.469c0,0,0.004,27.55,0.006,27.551C103.532,69.804,105.551,71.823,108.042,71.823z"/>
	<path d="M42.062,84.396h0.008H43h0.008c0.268,0,0.485,0.217,0.485,0.485l0.002,32.19c0,3.213,2.605,5.818,5.818,5.818
		c2.625,0,4.843-1.739,5.568-4.127l0.001-21.345H49.54c-0.614,0-1.173-0.273-1.533-0.749c-0.372-0.491-0.49-1.148-0.317-1.759
		l3.787-12.46c-0.791,0.572-1.76,0.9-2.796,0.9c-0.473,0-0.943-0.071-1.398-0.21c-1.217-0.373-2.216-1.198-2.812-2.322
		c-0.597-1.124-0.72-2.414-0.347-3.63c0.043-0.139,4.701-15.35,4.773-15.587c0.207-0.72,1.04-3.305,2.842-5.613
		c1.258-1.61,2.721-2.726,4.315-3.315l-1.201-3.929c-0.349-0.598-0.702-1.345-1.117-2.223c-0.118-0.248-0.236-0.498-0.353-0.743
		l-0.072-0.15c-0.157-0.324-0.353-0.728-0.468-1.079c-0.328-1.001-0.392-2.09-0.215-3.088c0,0,0.209-1.554,1.059-2.339
		c0.685-0.796,1.632-1.289,2.724-1.398c0.167-0.017,0.339-0.025,0.512-0.025c1.158,0,2.397,0.375,3.69,1.116
		c0.7-0.53,1.478-0.941,2.301-1.224c-0.161-0.527-0.251-0.82-0.251-0.82c-1.031-3.583-2.999-11.74-10.608-11.74H33.037
		c-7.09,0-9.6,8.158-10.631,11.74c-0.022,0.076-6.757,22.068-6.76,22.077c-0.731,2.383,0.608,4.906,2.991,5.637
		c2.381,0.73,4.904-0.607,5.635-2.988c0.002,0,6.744-21.982,6.744-21.982c0.04-0.093,0.241-0.479,0.712-0.479c0.043,0,0.95,0,0.95,0
		h0.002c0.268-0.004,0.425,0.224,0.354,0.481L19.538,83.688c-0.073,0.257,0,0.708,0.47,0.708h9.469c0.268,0,0.464,0.217,0.464,0.486
		c0,0-0.002,32.178-0.002,32.19c0,3.213,2.605,5.818,5.818,5.818c3.213,0,5.818-2.605,5.818-5.818l0.002-32.19
		C41.577,84.612,41.794,84.396,42.062,84.396z"/>
	<circle cx="89.044" cy="13.777" r="8.658"/>
	<circle cx="42.14" cy="13.769" r="8.658"/>
	<path d="M75.337,95.84h6.337c0.332,0,0.383-0.318,0.332-0.5l-9.513-31.247c-0.05-0.182,0.039-0.343,0.229-0.34c0,0,1.406,0,1.437,0
		c0.333,0,0.475,0.272,0.503,0.338c0,0,4.741,15.43,4.743,15.43c0.517,1.682,2.299,2.627,3.981,2.111
		c1.683-0.516,2.629-2.299,2.113-3.982c-0.002-0.006-2.8-9.132-4.722-15.399c-0.02-0.076-0.038-0.143-0.053-0.196
		c-0.728-2.531-2.891-8.293-8.266-8.293H58.768c-5.008,0-7.631,5.763-8.359,8.293c-0.016,0.054-4.773,15.589-4.775,15.595
		c-0.516,1.683,0.43,3.466,2.113,3.982c1.682,0.516,3.464-0.429,3.981-2.111c0.002,0,4.727-15.43,4.727-15.43
		c0.028-0.066,0.17-0.338,0.503-0.338c0.03,0,1.498,0,1.498,0c0.19-0.003,0.3,0.158,0.25,0.34L49.208,95.34
		c-0.052,0.182,0,0.5,0.332,0.5h6.592c0.19,0,0.328,0.154,0.328,0.343c0,0-0.002,22.588-0.002,22.596c0,2.27,1.84,4.11,4.11,4.11
		c2.27,0,4.11-1.84,4.11-4.11l0.002-22.597c0-0.19,0.153-0.343,0.343-0.343c0,0,1.268,0,1.418,0c0.151,0,0.348,0.153,0.348,0.343
		l0.002,22.597c0,2.27,1.84,4.11,4.11,4.11c2.27,0,4.11-1.84,4.11-4.11c0-0.008-0.002-22.596-0.002-22.596
		C75.009,95.993,75.148,95.84,75.337,95.84z"/>
	<path d="M74.563,48.852c0.536-0.063,1.384-2.038,2.211-3.758c0.136-0.282,0.365-0.737,0.463-1.036
		c0.606-1.849,0.106-4.531-2.226-4.762c-1.414-0.141-2.885,0.604-3.922,1.3c-0.262,0.176-0.634,0.139-0.863-0.075
		c-1.205-1.122-2.82-1.809-4.596-1.809c-1.708,0-3.268,0.637-4.455,1.683c-0.236,0.206-0.616,0.244-0.881,0.073
		c-1.021-0.657-2.397-1.306-3.726-1.172c-2.332,0.232-2.832,2.913-2.226,4.762c0.098,0.299,0.327,0.752,0.463,1.036
		c0.828,1.72,1.675,3.695,2.216,3.761c0.538,0.068-1.187-4.08,0.053-5.373c0.216-0.226,0.729-0.337,1.044-0.309
		c0.156,0.013,0.337,0.04,0.538,0.088c0.304,0.075,0.46,0.418,0.392,0.725c-0.106,0.475-0.161,0.968-0.161,1.476
		c0,3.726,3.021,6.747,6.747,6.747s6.747-3.021,6.747-6.747c0-0.46-0.048-0.911-0.136-1.346c-0.063-0.307,0.091-0.669,0.387-0.77
		c0.322-0.108,0.606-0.156,0.833-0.176c0.312-0.025,0.825,0.083,1.044,0.31C75.75,44.772,74.022,48.92,74.563,48.852z"/>
</g>
</svg>
