<?xml version="1.0" encoding="iso-8859-1"?>
<!-- Generator: Adobe Illustrator 17.1.0, SVG Export Plug-In . SVG Version: 6.00 Build 0)  -->
<!DOCTYPE svg PUBLIC "-//W3C//DTD SVG 1.1//EN" "http://www.w3.org/Graphics/SVG/1.1/DTD/svg11.dtd">
<svg version="1.1" id="Layer_1" xmlns="http://www.w3.org/2000/svg" xmlns:xlink="http://www.w3.org/1999/xlink" x="0px" y="0px"
	 viewBox="0 0 128 128" style="enable-background:new 0 0 128 128;" xml:space="preserve">
<g>
	<circle cx="75.613" cy="14.559" r="8.58"/>
	<path d="M84.757,67.312c1.461-2.188-0.969-3.824-0.969-3.824l-8.143-5.822c-0.706-0.431-3.487-2.358-5.216-0.171
		c-1.208,1.583-0.909,3.254,0.492,4.52l5.46,4.049c0.198,0.151,0.244,0.44,0.103,0.645l-3.174,4.587
		c-0.142,0.205-0.349,0.552-0.454,0.778c-2.931,6.294,1.549,8.477,3.003,9.001c0.235,0.085,0.633,0.136,0.882,0.136
		c1.658,0,7.605,0,13.17,0c6.548,0,6.389-4.111,6.389-4.111V64.456c0,0,0-0.075,0-0.301s-0.188-2.822-2.822-2.822
		c-1.849,0-2.354,1.771-2.357,2.447c-0.035,0.247-0.014,0.652-0.014,0.902v5.014c0,0.25-0.202,0.452-0.452,0.452h-7.593
		c-0.249,0-0.316-0.15-0.151-0.337C83.882,68.599,84.301,67.995,84.757,67.312z"/>
	<circle cx="104.089" cy="75.115" r="6.049"/>
	<path d="M110.157,84.485c0-1.309-1.061-2.371-2.371-2.371H72.113c-1.309,0-2.371,1.061-2.371,2.371
		c0,1.309,1.061,2.371,2.371,2.371h35.673C109.095,86.855,110.157,85.794,110.157,84.485z"/>
	<path d="M14.875,82.114h18.583v35.761c0,3.037,2.462,5.5,5.5,5.5s5.5-2.463,5.5-5.5V82.114h14.917c1.1,0,1.767-0.869,1.482-1.932
		l-8.59-32.062c-0.285-1.063,0.246-2.408,1.179-2.99l13.839-8.631l1.011,10.232l16.946,13.02c0.636,0.488,1.386,0.725,2.13,0.725
		c1.05,0,2.089-0.471,2.778-1.367c1.178-1.533,0.89-3.73-0.643-4.908L74.953,43.019l-1.047-10.708
		c-0.052-0.512-0.219-0.983-0.462-1.401c-0.071-0.141-0.155-0.279-0.269-0.408l-0.044-0.05c-0.02-0.024-0.042-0.046-0.062-0.07
		L58.637,14.061c-0.729-0.824-1.877-0.787-2.551,0.082l-21.54,25.966c-0.674,0.869-1.654,2.372-2.177,3.34L13.825,80.354
		C13.303,81.322,13.775,82.114,14.875,82.114z"/>
</g>
</svg>
