<?xml version="1.0" encoding="iso-8859-1"?>
<!-- Generator: Adobe Illustrator 17.1.0, SVG Export Plug-In . SVG Version: 6.00 Build 0)  -->
<!DOCTYPE svg PUBLIC "-//W3C//DTD SVG 1.1//EN" "http://www.w3.org/Graphics/SVG/1.1/DTD/svg11.dtd">
<svg version="1.1" id="Layer_1" xmlns="http://www.w3.org/2000/svg" xmlns:xlink="http://www.w3.org/1999/xlink" x="0px" y="0px"
	 viewBox="0 0 128 128" style="enable-background:new 0 0 128 128;" xml:space="preserve">
<g>
	<circle cx="43.772" cy="23.399" r="6.134"/>
	<circle cx="66.467" cy="14.851" r="9.849"/>
	<path d="M87.857,51.259l-1.034-4.991L84.42,34.667c0,0-1.125-5.315-5.9-5.315c-5.775,0-8.742,0-9.662,0s-2.062-2.865-2.826-2.865
		s-7.768,0-10.619,0c-2.851,0-3.752,0.798-3.752,0.798l-0.445,0.36l-8.023,6.498c0,0-0.313,0.28-0.635,0.841
		c-0.345,0.6-0.701,1.521-0.701,2.794c0,2.463,0,5.153,0,7.648c0,10.111,8.189,11.407,8.189,11.407s0.439,0,1.198,0
		c0.016,0.073,0.019,0.15-0.002,0.23l-5.782,22.375c-0.073,0.284,0.105,0.514,0.399,0.514h7.122c0.294,0,0.531,0.238,0.531,0.531
		v36.671c0,0.294-0.003,0.548-0.004,0.569c-0.001,0.013-0.001,0.026-0.001,0.038c0,2.895,2.347,5.236,5.241,5.236
		c2.895,0,5.127-2.35,5.127-5.244c0-0.374,0-0.741,0-1.093v-36.48c0-0.294,0.238-0.522,0.531-0.51l1.861,0.073
		c0.293,0.011,0.531,0.259,0.531,0.552v36.86c0,0.294,0.002,0.548,0.004,0.569c0.002,0.021,0.005,0.08,0.006,0.133
		c0.001,0.041,0.002,0.082,0.002,0.095c0,2.895,2.175,5.045,5.07,5.045c2.895,0,5.319-2.35,5.319-5.244
		c0-0.374-0.038-0.741-0.038-1.093V80.526c0-0.294,0.238-0.54,0.531-0.55l5.426-0.193c0.293-0.01,0.489-0.253,0.437-0.542
		l-4.014-22.408c0.536,0,1.021,0,1.439,0C89.281,56.833,87.857,51.259,87.857,51.259z"/>
</g>
</svg>
