<?xml version="1.0" encoding="iso-8859-1"?>
<!-- Generator: Adobe Illustrator 17.1.0, SVG Export Plug-In . SVG Version: 6.00 Build 0)  -->
<!DOCTYPE svg PUBLIC "-//W3C//DTD SVG 1.1//EN" "http://www.w3.org/Graphics/SVG/1.1/DTD/svg11.dtd">
<svg version="1.1" id="Layer_1" xmlns="http://www.w3.org/2000/svg" xmlns:xlink="http://www.w3.org/1999/xlink" x="0px" y="0px"
	 viewBox="0 0 128 128" style="enable-background:new 0 0 128 128;" xml:space="preserve">
<g>
	<circle cx="33.732" cy="15.559" r="7.863"/>
	<path d="M9.324,120.414l17-23.709c0.548-0.765,0.843-1.682,0.843-2.622v-9.75h2.202l11.353,34.852
		c0.619,1.9,2.382,3.107,4.278,3.107c0.462,0,0.932-0.071,1.395-0.223c2.363-0.77,3.655-3.309,2.885-5.672L38.834,84.333h6.999
		c1.1,0,1.66-0.833,1.245-1.852L36.049,55.431c-0.415-1.019-0.379-2.67,0.081-3.669l4.453-9.676l3.171,6.482
		c0.332,0.713,0.845,1.326,1.488,1.778l16.917,11.916c0.788,0.555,1.692,0.821,2.587,0.821c1.414,0,2.807-0.665,3.683-1.908
		c0.105-0.15,0.179-0.311,0.264-0.468h0.671c0.249,0,0.562,0.169,0.698,0.378l21.882,34.02c0.136,0.209,0.103,0.521-0.073,0.697
		l-10.86,10.821c-0.177,0.176-0.493,0.215-0.714,0.099c-1.12-0.586-2.392-0.932-3.741-0.932c-4.489,0-8.129,3.629-8.129,8.119
		c0,4.489,3.639,8.123,8.129,8.123c4.489,0,8.128-3.642,8.128-8.131c0-1.326-0.319-2.579-0.883-3.685
		c-0.113-0.222-0.072-0.539,0.105-0.714l10.033-9.92c0.177-0.175,0.437-0.152,0.58,0.053l5.833,8.349
		c0.143,0.204,0.115,0.512-0.052,0.698c-1.29,1.439-2.074,3.339-2.074,5.424c0,4.489,3.639,8.128,8.129,8.128
		s8.129-3.639,8.129-8.129s-3.639-8.129-8.129-8.129c-0.73,0-1.437,0.098-2.11,0.279c-0.241,0.065-0.542-0.041-0.677-0.25
		l-1.612-2.499c-0.135-0.21-0.044-0.354,0.205-0.338c1.965,0.12,10.039-0.001,17.485-9.008c0,0,3.45-3.98,3.713-11.551
		c0.009-0.249-0.19-0.453-0.44-0.455l-18.411-0.143c-0.25-0.002-0.451-0.206-0.451-0.455c0.014-5.657,0.158-10.159-5.795-10.159
		c-6.053,0.001-5.819,4.455-5.795,10.07c0.001,0.25-0.201,0.45-0.45,0.448l-3.718-0.032c-0.25-0.002-0.559-0.175-0.692-0.386
		L72.125,56.574c-0.133-0.211-0.443-0.382-0.692-0.382h-2.871c-0.308-0.492-0.716-0.933-1.221-1.288L51.406,43.679l-7.239-14.745
		c-0.736-1.58-2.275-2.511-3.904-2.576c-0.035-0.007-0.076-0.024-0.106-0.024H23.833c-1.1,0-1.951,0.899-1.892,1.997l1.262,23.256
		c0.06,1.098-0.31,2.794-0.821,3.768L8.096,82.563c-0.511,0.974-0.03,1.771,1.07,1.771h9v8.303L2.009,115.17
		c-1.448,2.02-0.985,4.831,1.035,6.279c0.794,0.569,1.71,0.843,2.618,0.843C7.064,122.292,8.445,121.64,9.324,120.414z
		 M76.774,118.787c-2.686,0-4.863-2.177-4.863-4.863c0-2.686,2.177-4.863,4.863-4.863c2.686,0,4.863,2.177,4.863,4.863
		C81.637,116.61,79.459,118.787,76.774,118.787z M106.572,109.268c2.686,0,4.863,2.177,4.863,4.863c0,2.686-2.177,4.863-4.863,4.863
		s-4.863-2.177-4.863-4.863C101.709,111.445,103.886,109.268,106.572,109.268z"/>
	<circle cx="98.191" cy="64.226" r="5.587"/>
</g>
</svg>
