<?xml version="1.0" encoding="utf-8"?>
<!-- Generator: Adobe Illustrator 16.0.0, SVG Export Plug-In . SVG Version: 6.00 Build 0)  -->
<!DOCTYPE svg PUBLIC "-//W3C//DTD SVG 1.1//EN" "http://www.w3.org/Graphics/SVG/1.1/DTD/svg11.dtd">
<svg version="1.1" id="Layer_3" xmlns="http://www.w3.org/2000/svg" xmlns:xlink="http://www.w3.org/1999/xlink" x="0px" y="0px"
	 width="126px" height="126px" viewBox="0 0 126 126" enable-background="new 0 0 126 126" xml:space="preserve">
<g>
	<circle cx="42.758" cy="15.64" r="13.318"/>
	<path d="M100.867,80.334V52.46c-13.547,0-24.833,9.664-27.348,22.474c-2.626-3.286-5.027-6.013-6.779-7.949
		c1.417-0.753,2.47-2.14,2.705-3.851c0.387-2.83-1.593-5.437-4.422-5.823c-8.103-1.108-12.408-2.562-14.396-4.861
		c-1.967-2.274-2.685-6.5-3.636-13.189c-0.034-0.24-0.089-0.472-0.154-0.698c-0.438-4.092-3.67-7.458-7.043-9.095
		c0,0-1.284-0.704-2.75-0.984c-1.402-0.268-3.027-0.277-3.027-0.277l-0.04-0.002c-4.306,0.125-9.325,2.378-10.904,7.038
		c-0.017,0-0.031-0.001-0.048-0.001c-0.028,0.158-0.057,0.31-0.084,0.465c-0.052,0.185-0.111,0.366-0.151,0.559l-1.227,5.725
		C17.036,59.032,9.924,58.03,6.976,91.364c3.018,1.02,5.912,1.796,8.682,2.387c-0.298,1.018-0.569,1.882-0.799,2.521
		c-1.289,3.579-6.434,10.783-9.375,14.483c-2.1,2.642-1.661,6.485,0.98,8.585c1.125,0.894,2.467,1.328,3.8,1.328
		c1.798,0,3.579-0.79,4.786-2.307c0.906-1.139,8.921-11.32,11.308-17.951c0.451-1.253,0.993-3.06,1.573-5.148
		c1.499,0.046,2.941,0.045,4.31-0.006c0.909,1.738,1.641,3.21,2.067,4.206c1.499,3.496,2.648,12.274,3.021,16.986
		c0.253,3.201,2.929,5.629,6.086,5.629c0.161,0,0.323-0.006,0.487-0.019c3.363-0.265,5.875-3.206,5.611-6.57
		c-0.114-1.452-1.195-14.363-3.971-20.84c-0.165-0.385-0.362-0.819-0.583-1.289c3.605-0.993,5.577-1.997,5.577-1.997
		s-0.133-12.685-3.679-28.737c1.3,0.805,2.788,1.514,4.49,2.143c0.041,1.53,1.288,2.759,2.827,2.759h4.994
		c3.472,4.216,5.88,6.307,12.409,14.444v7.947c0,4.36,2.464,8.14,6.074,10.038c3.006,2.505,7.773,6.278,13.173,9.833
		c-4.171,2.145-8.199,3.634-11.511,3.797c-0.074,0.003-0.143,0.023-0.214,0.032c-0.096,0.013-0.192,0.021-0.286,0.043
		c-0.091,0.021-0.177,0.053-0.265,0.082c-0.088,0.03-0.176,0.057-0.261,0.096c-0.085,0.038-0.163,0.085-0.243,0.132
		c-0.078,0.045-0.157,0.087-0.23,0.14c-0.075,0.053-0.143,0.114-0.212,0.174c-0.068,0.059-0.137,0.116-0.199,0.181
		c-0.062,0.066-0.117,0.138-0.173,0.209c-0.055,0.071-0.113,0.142-0.163,0.219c-0.033,0.051-0.062,0.105-0.091,0.158
		c-1.859,0.511-3.227,2.21-3.227,4.232c0,2.427,1.967,4.394,4.394,4.394s4.394-1.967,4.394-4.394c0-0.012-0.001-0.021-0.001-0.033
		h26.417c0,0.011-0.001,0.021-0.001,0.033c0,2.427,1.967,4.394,4.394,4.394c2.427,0,4.394-1.967,4.394-4.394
		c0-1.374-0.631-2.6-1.618-3.405c-0.243-1.252-1.306-2.228-2.637-2.293c-3.311-0.163-7.34-1.653-11.511-3.797
		c4.994-3.287,9.442-6.758,12.462-9.244c4.324-1.6,7.411-5.747,7.411-10.626v-9.586H100.867z M95.74,113.585
		c0.219-0.122,0.438-0.243,0.656-0.366c0.218,0.124,0.437,0.244,0.655,0.366H95.74z M96.396,106.613
		c-2.729-1.693-5.41-3.538-7.886-5.354h15.771C101.805,103.076,99.126,104.92,96.396,106.613z"/>
</g>
</svg>
