<?xml version="1.0" encoding="iso-8859-1"?>
<!-- Generator: Adobe Illustrator 17.1.0, SVG Export Plug-In . SVG Version: 6.00 Build 0)  -->
<!DOCTYPE svg PUBLIC "-//W3C//DTD SVG 1.1//EN" "http://www.w3.org/Graphics/SVG/1.1/DTD/svg11.dtd">
<svg version="1.1" id="Layer_1" xmlns="http://www.w3.org/2000/svg" xmlns:xlink="http://www.w3.org/1999/xlink" x="0px" y="0px"
	 viewBox="0 0 128 128" style="enable-background:new 0 0 128 128;" xml:space="preserve">
<g>
	<circle cx="57.596" cy="9.82" r="8.241"/>
	<path d="M84.405,36.533l4.292,4.745c0,0,1.067,1.129,2.309,0c1.242-1.129,0.69-2.649,0.012-3.045
		c-0.593-0.346-6.194-6.268-7.58-7.739c-0.171-0.182-0.512-0.329-0.761-0.329h-8.184c-0.25,0-0.591,0.146-0.763,0.326
		c-1.282,1.346-5.891,6.506-7.172,8.21c-0.4,0.423-0.744,0.392-0.736-0.099c0.284-4.019,1.234-10.318,1.583-13.602
		c0.252-2.375-0.938-3.643-2.292-3.643c-0.249,0.013-14.154-0.005-14.404,0c-2.042,0-3.375,1.059-2.856,4.982
		c0.753,6.623,2.82,24.479,2.815,24.535c-0.005,0.056-6.204,15.905-13.208,34.251c-0.115,0.266-0.443,1.311,0.479,1.311h14.555
		c0.249,0,0.452,0.376,0.452,0.625v35.221c0,0-0.003,0.032-0.007,0.07c-0.004,0.039-0.003,0.273,0.035,0.519
		c0.31,2.035,2.199,3.549,4.361,3.549c2.318,0,4.096-1.726,4.176-3.984l0.014-0.155V86.998c0-0.25,0.202-0.56,0.452-0.562h15.359
		c0.853,0,0.478-1.02,0.419-1.311c-1.078-3.58-13.231-34.002-13.227-34.251c0.013-0.865,0.192-2.593,0.286-3.21
		c0.094-0.617,0.672-0.643,0.672-0.643h3.304c0.249,0.008,0.454,0.217,0.47,0.466c0.057,0.857,0.289,2.733,1.225,3.839
		c1.017,1.203,3.627,3.845,4.537,4.76c0.176,0.177,0.504,0.405,0.747,0.46c0.449,0.102,1.158,0.131,1.66-0.479
		c0.79-0.96,0.903-2.201,0.282-2.766c-0.5-0.454-2.582-2.661-3.375-3.505c-0.171-0.182-0.155-0.46,0.035-0.622l2.094-1.782
		c0.19-0.162,0.546-0.293,0.795-0.293h2.879c0.249,0,0.591,0.147,0.762,0.327l1.975,2.079c0.172,0.181,0.165,0.468-0.014,0.641
		l-2.792,2.688c-0.18,0.173-0.448,0.477-0.549,0.705c-0.204,0.458-0.384,1.253,0.28,2.028c0.788,0.919,1.541,0.75,2.05,0.47
		c0.219-0.12,0.518-0.393,0.692-0.571l5.5-5.622c0.174-0.178,0.484-0.455,0.566-0.691c0.248-0.713,0.096-2.653-4.199-7.373
		c-0.168-0.184-0.305-0.535-0.305-0.784V36.65C84.102,36.4,84.237,36.348,84.405,36.533z M72.915,39.873
		c-0.002,0.249-0.205,0.452-0.455,0.452h-2.879c-0.249,0-0.313-0.147-0.143-0.329l3.191-3.405c0.17-0.182,0.307-0.128,0.306,0.122
		L72.915,39.873z"/>
	<circle cx="78.862" cy="23.699" r="5.112"/>
	<path d="M72.784,9.992c-0.192,0.158-0.336,0.305-0.34,0.305c-0.004,0-0.147-0.146-0.34-0.305c-0.637-0.524-2.082-1.433-3.384-0.239
		c-1.67,1.531-0.321,5.021,3.302,6.692c0.226,0.105,0.418,0.183,0.422,0.188c0.004,0.005,0.195-0.065,0.422-0.17
		c3.623-1.673,4.972-5.179,3.302-6.71C74.866,8.559,73.421,9.467,72.784,9.992z"/>
</g>
</svg>
