<?xml version="1.0" encoding="utf-8"?>
<!-- Generator: Adobe Illustrator 16.0.0, SVG Export Plug-In . SVG Version: 6.00 Build 0)  -->
<!DOCTYPE svg PUBLIC "-//W3C//DTD SVG 1.1//EN" "http://www.w3.org/Graphics/SVG/1.1/DTD/svg11.dtd">
<svg version="1.1" id="Layer_11" xmlns="http://www.w3.org/2000/svg" xmlns:xlink="http://www.w3.org/1999/xlink" x="0px" y="0px"
	 width="100px" height="100px" viewBox="0 0 100 100" enable-background="new 0 0 100 100" xml:space="preserve">
<path d="M81.297,69.188v19.057h-0.129l-1.227,0.623c-0.581,0.292-9.396,4.628-24.691,5.181V66.24c0-4.442-4.369-7.665-7.495-9.406
	c0.742,0.058,1.488,0.097,2.245,0.097c7.64,0,14.577-3.053,19.669-7.996C76.615,53.024,81.297,60.562,81.297,69.188z M53.117,66.24
	v27.851c-0.366,0.004-0.715,0.019-1.088,0.019c-8.847,0-19.595-1.292-31.963-5.155l-1.314-0.411l-0.048-0.298V69.188
	c0-8.626,4.683-16.164,11.628-20.253c3.789,3.679,8.601,6.308,13.963,7.414l-0.382,0.998C44.004,57.382,53.117,60.942,53.117,66.24z
	 M40.572,72.561l-7.57-6.364l-1.373,1.633l6.811,5.724V85.5h2.133V72.561z M26.004,29.739c0-10.306,6.52-19.042,15.643-22.435
	c0.191-0.809,0.913-1.413,1.78-1.413h13.146c0.865,0,1.584,0.6,1.778,1.405c9.125,3.394,15.645,12.135,15.645,22.443
	c0,13.253-10.742,23.996-23.996,23.996C36.749,53.735,26.004,42.992,26.004,29.739z M45.938,12.17c0,2.241,1.823,4.064,4.064,4.064
	c2.24,0,4.063-1.823,4.063-4.064V9.557h-8.127V12.17z M30.545,24.833c0,5.993,4.857,15.757,10.852,15.757h17.208
	c5.993,0,10.852-9.764,10.852-15.757s-4.859-5.946-10.852-5.946H41.397C35.403,18.888,30.545,18.841,30.545,24.833z M57.409,20.355
	h-3.676l-7.789,17.864h3.627L57.409,20.355z M55.304,38.219l7.837-17.864h-3.676l-7.789,17.864H55.304z"/>
</svg>
