<?xml version="1.0" encoding="utf-8"?>
<!-- Generator: Adobe Illustrator 16.0.0, SVG Export Plug-In . SVG Version: 6.00 Build 0)  -->
<!DOCTYPE svg PUBLIC "-//W3C//DTD SVG 1.1//EN" "http://www.w3.org/Graphics/SVG/1.1/DTD/svg11.dtd">
<svg version="1.1" id="Layer_1" xmlns="http://www.w3.org/2000/svg" xmlns:xlink="http://www.w3.org/1999/xlink" x="0px" y="0px"
	 width="50px" height="50px" viewBox="0 0 50 50" enable-background="new 0 0 50 50" xml:space="preserve">
<g>
	<path d="M25.788,28.446l0.146-0.253L25,29.127c0.196,0,0.392-0.003,0.586-0.008C25.604,28.885,25.667,28.655,25.788,28.446z"/>
	<path d="M25.243,24.467l1.187,2.868l1.595-2.763c0.038-0.065,0.084-0.121,0.131-0.179c-0.54-0.35-1.144-0.637-1.804-0.804
		c0.992-0.667,1.675-1.983,1.675-3.167c0-1.672-1.355-3.027-3.027-3.027s-3.027,1.355-3.027,3.027c0,1.185,0.683,2.5,1.675,3.167
		c-0.581,0.147-1.123,0.384-1.614,0.676c0.051,0.155,0.085,0.317,0.085,0.489c0,0.28-0.069,0.536-0.181,0.762
		c0.111,0.216,0.181,0.458,0.181,0.718c0,0.281-0.069,0.538-0.181,0.764c0.112,0.216,0.181,0.458,0.181,0.717
		c0,0.282-0.069,0.538-0.181,0.765c0.073,0.142,0.118,0.297,0.147,0.459c0.878,0.125,1.896,0.187,2.914,0.187l-1.536-1.536
		l1.292-3.125h-0.013l-0.502-0.576c0.243,0.087,0.497,0.14,0.759,0.14s0.515-0.052,0.757-0.139l-0.501,0.575H25.243z"/>
	<path d="M16.067,25.402h4.474c0.319,0,0.579-0.259,0.579-0.577v-0.071c0-0.319-0.26-0.581-0.579-0.581h-4.474
		c-0.318,0-0.579,0.262-0.579,0.581v0.071C15.489,25.143,15.75,25.402,16.067,25.402z"/>
	<path d="M16.067,26.885h4.474c0.319,0,0.579-0.259,0.579-0.579v-0.071c0-0.319-0.26-0.579-0.579-0.579h-4.474
		c-0.318,0-0.579,0.26-0.579,0.579v0.071C15.489,26.625,15.75,26.885,16.067,26.885z"/>
	<path d="M16.067,28.367h4.474c0.319,0,0.579-0.26,0.579-0.578v-0.073c0-0.317-0.26-0.577-0.579-0.577h-4.474
		c-0.318,0-0.579,0.259-0.579,0.577v0.073C15.489,28.107,15.75,28.367,16.067,28.367z"/>
	<path d="M16.067,29.849h4.474c0.319,0,0.579-0.26,0.579-0.577v-0.073c0-0.317-0.26-0.579-0.579-0.579h-4.474
		c-0.318,0-0.579,0.262-0.579,0.579v0.073C15.489,29.589,15.75,29.849,16.067,29.849z"/>
	<path d="M28.891,25.072l-2.237,3.875c-0.159,0.275-0.064,0.63,0.211,0.79l0.062,0.038c0.275,0.156,0.632,0.063,0.79-0.212
		l2.238-3.875c0.158-0.275,0.063-0.632-0.212-0.792l-0.063-0.036C29.406,24.701,29.05,24.796,28.891,25.072z"/>
	<path d="M29.882,26.306c0,0.319,0.259,0.579,0.577,0.579h4.476c0.317,0,0.577-0.259,0.577-0.579v-0.071
		c0-0.319-0.259-0.579-0.577-0.579h-4.476c-0.317,0-0.577,0.26-0.577,0.579V26.306z"/>
	<path d="M35.511,27.716c0-0.317-0.259-0.577-0.577-0.577h-4.476c-0.317,0-0.577,0.259-0.577,0.577v0.073
		c0,0.318,0.259,0.578,0.577,0.578h4.476c0.317,0,0.577-0.26,0.577-0.578V27.716z"/>
	<path d="M34.935,28.62h-4.476c-0.317,0-0.577,0.262-0.577,0.579v0.073c0,0.317,0.259,0.577,0.577,0.577h4.476
		c0.317,0,0.577-0.26,0.577-0.577v-0.073C35.511,28.881,35.252,28.62,34.935,28.62z"/>
	<polygon points="39.312,32.474 39.312,31.153 36.653,29.432 38.53,31.153 11.473,31.153 13.351,29.432 10.688,31.153 
		10.688,32.474 13.351,32.474 13.351,40.413 12.689,40.413 12.689,41.159 11.704,41.159 11.704,41.893 38.299,41.893 38.299,41.159 
		37.311,41.159 37.311,40.413 36.653,40.413 36.653,32.474 	"/>
	<path d="M25,16.275c2.252,0,4.084-1.832,4.084-4.085c0-2.251-1.833-4.083-4.084-4.083c-2.252,0-4.084,1.832-4.084,4.083
		C20.916,14.443,22.747,16.275,25,16.275z M21.655,12.284h0.325V12.1h-0.325c0.016-0.542,0.166-1.048,0.41-1.498l0.272,0.158
		l0.092-0.159l-0.276-0.16c0.275-0.447,0.648-0.821,1.096-1.097l0.161,0.277l0.158-0.091l-0.157-0.273
		c0.449-0.245,0.955-0.395,1.497-0.41v0.324h0.077L24.49,10.16h0.335v2.031c0,0.017,0.013,0.027,0.018,0.042
		c0.004,0.015-0.002,0.03,0.006,0.044l0.667,1.156l-0.29,0.167l0.951,0.628l-0.068-1.138l-0.29,0.167l-0.644-1.115V10.16h0.335
		l-0.494-0.989h0.075l0.001-0.324c0.542,0.015,1.047,0.165,1.497,0.41L26.43,9.53l0.16,0.091l0.159-0.277
		c0.447,0.275,0.822,0.649,1.097,1.097l-0.276,0.161l0.092,0.158l0.272-0.158c0.245,0.45,0.395,0.955,0.411,1.497H28.02v0.184h0.324
		c-0.016,0.542-0.166,1.048-0.411,1.498l-0.272-0.158L27.57,13.78l0.276,0.16c-0.276,0.447-0.651,0.821-1.098,1.097l-0.159-0.276
		l-0.158,0.091l0.157,0.273c-0.45,0.245-0.954,0.395-1.496,0.41v-0.324h-0.184v0.324c-0.542-0.015-1.049-0.165-1.497-0.41
		l0.158-0.273l-0.159-0.091l-0.159,0.277c-0.448-0.275-0.823-0.65-1.098-1.097l0.277-0.161l-0.092-0.158l-0.273,0.157
		C21.821,13.331,21.671,12.826,21.655,12.284z"/>
</g>
</svg>
