<?xml version="1.0" encoding="utf-8"?>
<!-- Generator: Adobe Illustrator 16.0.0, SVG Export Plug-In . SVG Version: 6.00 Build 0)  -->
<!DOCTYPE svg PUBLIC "-//W3C//DTD SVG 1.1//EN" "http://www.w3.org/Graphics/SVG/1.1/DTD/svg11.dtd">
<svg version="1.1" id="Layer_2" xmlns="http://www.w3.org/2000/svg" xmlns:xlink="http://www.w3.org/1999/xlink" x="0px" y="0px"
	 width="126px" height="126px" viewBox="0 0 126 126" enable-background="new 0 0 126 126" xml:space="preserve">
<g>
	<circle cx="69.883" cy="14.415" r="13.686"/>
	<path d="M98.489,61.906c-2.95-20.117-7.313-29.555-17.372-36.598c-2.849,2.938-6.828,4.772-11.234,4.772
		c-4.488,0-8.531-1.909-11.391-4.945c-3.723,3.123-6.574,7.375-9.133,11.226c-2.936,4.421-5.971,8.993-8.744,9.228
		c-0.295,0.025-0.578,0.079-0.854,0.149c-0.817-0.224-1.674-0.353-2.562-0.353c-5.373,0-9.745,4.371-9.745,9.746
		c0,1.468,1.19,2.657,2.658,2.657s2.657-1.189,2.657-2.657c0-1.936,1.255-3.566,2.987-4.169c0.003,0.123,0.003,0.245,0.013,0.369
		c0.235,2.772,2.557,4.864,5.288,4.864c0.151,0,0.302-0.005,0.456-0.019c0.039-0.003,0.076-0.012,0.115-0.016v66.45
		c0,1.468,1.19,2.658,2.658,2.658s2.658-1.19,2.658-2.658v-67.48c0-0.192-0.018-0.38-0.029-0.568
		c3.494-1.863,6.24-5.066,8.664-8.462v4.732c0,0-7.421,40.321-6.08,47.833c0,0,0.574,0.153,1.587,0.388l-0.114,3.312
		c-0.566,16.33-0.566,16.411-0.566,16.625c0,3.468,2.811,6.279,6.279,6.279c3.432,0,6.22-2.752,6.278-6.17
		c0.019-0.7,0.331-9.707,0.56-16.3l0.058-1.657c3.9,0.417,8.268,0.652,12.65,0.439l0.042,1.218c0.229,6.593,0.542,15.6,0.561,16.3
		c0.059,3.418,2.848,6.17,6.279,6.17c3.467,0,6.278-2.812,6.278-6.279c0-0.214,0-0.295-0.567-16.625l-0.103-2.967
		c0.66-0.227,1.312-0.465,1.945-0.732c0.082-5.449-6.081-46.227-7.071-47.144v-6.54c1.699,4.243,3.148,10.074,4.379,18.464
		c0.389,2.643,2.658,4.544,5.251,4.544c0.257,0,0.517-0.02,0.778-0.058C96.906,67.508,98.915,64.809,98.489,61.906z"/>
</g>
</svg>
