<?xml version="1.0" encoding="utf-8"?>
<!-- Generator: Adobe Illustrator 16.0.0, SVG Export Plug-In . SVG Version: 6.00 Build 0)  -->
<!DOCTYPE svg PUBLIC "-//W3C//DTD SVG 1.1//EN" "http://www.w3.org/Graphics/SVG/1.1/DTD/svg11.dtd">
<svg version="1.1" id="Layer_1" xmlns="http://www.w3.org/2000/svg" xmlns:xlink="http://www.w3.org/1999/xlink" x="0px" y="0px"
	 width="126px" height="126px" viewBox="0 0 126 126" enable-background="new 0 0 126 126" xml:space="preserve">
<g>
	<path d="M22.408,46.254c5.559,0,10.068-4.507,10.068-10.068c0-5.563-4.509-10.072-10.068-10.072
		c-5.562,0-10.072,4.51-10.072,10.072C12.336,41.747,16.846,46.254,22.408,46.254z"/>
	<path d="M29.104,48.705c-0.168-0.104-0.346-0.178-0.52-0.252c-1.124-0.75-2.384-1.298-3.669-1.615l-2.506,2.526l-2.433-2.553
		c-0.009,0-0.016,0-0.026,0.003c-1.289,0.308-2.555,0.857-3.682,1.603c-0.201,0.082-0.401,0.172-0.595,0.288
		C9.555,52.458,5.476,55.598,3.326,67.427h16.369l0.261-1.458l2.426-16.23h0.048l2.43,16.23l0.291,1.458h16.3
		C39.301,55.598,35.221,52.458,29.104,48.705z"/>
	<circle cx="63.461" cy="12.057" r="10.07"/>
	<path d="M61.009,41.842l2.426-16.23h0.048l2.429,16.23l0.291,1.457h16.301c-2.15-11.828-6.229-14.968-12.347-18.721
		c-0.167-0.104-0.346-0.178-0.52-0.252c-1.125-0.75-2.384-1.299-3.669-1.615l-2.507,2.525l-2.432-2.552c-0.01,0-0.017,0-0.026,0.003
		c-1.289,0.308-2.555,0.857-3.682,1.603c-0.201,0.081-0.401,0.172-0.595,0.288c-6.117,3.753-10.197,6.893-12.347,18.721h16.368
		L61.009,41.842z"/>
	<circle cx="103.631" cy="36.226" r="10.07"/>
	<path d="M110.327,48.748c-0.168-0.104-0.346-0.179-0.52-0.253c-1.124-0.749-2.383-1.298-3.669-1.614l-2.507,2.525l-2.432-2.552
		c-0.01,0-0.017,0-0.026,0.003c-1.289,0.307-2.555,0.856-3.682,1.602c-0.201,0.082-0.401,0.172-0.595,0.289
		C90.779,52.5,86.699,55.641,84.55,67.469h16.368l0.262-1.457l2.426-16.23h0.048l2.429,16.23l0.291,1.457h16.3
		C120.524,55.641,116.445,52.5,110.327,48.748z"/>
	<path d="M62.468,46.385v13.274c-1.947,0.472-3.508,1.938-4.105,3.832l-10.14-2.938l-0.749,2.582l10.723,3.107
		c0.491,2.656,2.819,4.676,5.614,4.676c2.842,0,5.2-2.089,5.635-4.81l9.997-2.379l-0.623-2.615l-9.592,2.283
		c-0.619-1.85-2.158-3.274-4.071-3.739V46.385H62.468z M66.838,65.205c0,1.668-1.357,3.026-3.026,3.026
		c-1.667,0-3.024-1.358-3.024-3.026c0-1.667,1.356-3.024,3.024-3.024C65.481,62.181,66.838,63.538,66.838,65.205z"/>
	<path d="M92.138,73.887H34.78c-1.482,0-2.688,1.207-2.688,2.689v33.251c0,1.48,1.206,2.688,2.688,2.688h57.357
		c1.483,0,2.688-1.207,2.688-2.688V76.576C94.826,75.094,93.621,73.887,92.138,73.887z M34.78,109.827V76.576h57.357l0.002,33.251
		H34.78z"/>
	<path d="M97.749,120.607c-0.083,0.034-0.173,0.057-0.267,0.057c-0.005-0.002-0.009-0.002-0.014,0H29.45
		c-0.091,0-0.176-0.025-0.256-0.06c-0.266,0-0.506,0.156-0.617,0.396c-0.124,0.27-0.102,0.567,0.059,0.819
		c0.284,0.442,0.758,1.186,11.554,1.723c6.101,0.306,14.231,0.472,22.896,0.472c7.779,0,33.296-0.152,35.093-2.117
		c0.176-0.19,0.261-0.428,0.24-0.671C98.388,120.876,98.099,120.61,97.749,120.607z M68.265,122.712h-9.612
		c-0.222,0-0.402-0.18-0.402-0.402c0-0.224,0.18-0.403,0.402-0.403h9.612c0.222,0,0.403,0.18,0.403,0.403
		C68.668,122.532,68.487,122.712,68.265,122.712z"/>
	<path d="M93.268,112.934H33.839c-0.209,0-0.406,0.098-0.534,0.263l-4.388,5.713c-0.157,0.204-0.183,0.478-0.07,0.707
		c0.073,0.146,0.199,0.255,0.346,0.317h68.549c0.002,0,0.003,0.001,0.006,0.001c0.237-0.103,0.404-0.339,0.404-0.615
		c0-0.192-0.08-0.366-0.209-0.488l-4.135-5.624C93.683,113.035,93.48,112.934,93.268,112.934z M30.813,118.648l3.356-4.37h58.758
		l3.211,4.37H30.813z"/>
	<rect x="88.216" y="91.78" width="3.36" height="0.449"/>
	<rect x="84.296" y="92.754" width="7.28" height="0.447"/>
	<rect x="86.438" y="93.819" width="5.139" height="0.449"/>
	<rect x="87.131" y="94.924" width="4.445" height="0.448"/>
	<rect x="81.942" y="95.896" width="9.634" height="0.449"/>
	<rect x="84.778" y="96.964" width="6.798" height="0.446"/>
	<path d="M86.313,99.38c-0.893,0-1.716,0.297-2.385,0.788l-1.079-1.079h-3.72v0.202h3.635l1,0.999
		c-0.905,0.741-1.484,1.866-1.484,3.124c0,2.224,1.809,4.032,4.034,4.032c2.224,0,4.032-1.809,4.032-4.032
		S88.536,99.38,86.313,99.38z M86.313,107.109c-2.039,0-3.697-1.658-3.697-3.695c0-1.165,0.543-2.205,1.388-2.884l0.904,0.903
		c-0.621,0.441-1.029,1.163-1.029,1.98c0,1.343,1.092,2.433,2.434,2.433c1.34,0,2.432-1.09,2.432-2.433
		c0-1.342-1.092-2.434-2.432-2.434c-0.45,0-0.866,0.131-1.228,0.345l-0.918-0.917c0.605-0.433,1.345-0.691,2.146-0.691
		c2.037,0,3.697,1.658,3.697,3.697C90.009,105.451,88.35,107.109,86.313,107.109z M86.313,101.184c1.229,0,2.23,1.001,2.23,2.23
		s-1,2.23-2.23,2.23c-1.23,0-2.231-1.001-2.231-2.23S85.082,101.184,86.313,101.184z"/>
	<rect x="35.901" y="78.899" width="5.825" height="0.896"/>
	<rect x="42.398" y="78.899" width="5.824" height="0.896"/>
	<rect x="35.901" y="87.468" width="6.273" height="0.225"/>
	<rect x="35.901" y="86.181" width="10.081" height="0.224"/>
	<rect x="35.901" y="84.809" width="4.549" height="0.223"/>
	<rect x="35.901" y="83.521" width="7.313" height="0.224"/>
	<rect x="35.901" y="81.979" width="8.906" height="0.226"/>
	<rect x="35.901" y="80.69" width="7.313" height="0.225"/>
	<path d="M49.971,98.03c0,0.777-0.127,1.348-0.381,1.714c-0.253,0.365-0.673,0.549-1.26,0.549c-0.38,0-0.8-0.059-1.261-0.174v2.229
		c0.449,0.127,0.976,0.19,1.581,0.19c1.317,0,2.315-0.386,2.989-1.157c0.673-0.772,1.01-1.895,1.01-3.369V86.197h-2.677V98.03z"/>
	<path d="M60.231,85.999c-1.94,0-3.43,0.554-4.47,1.663c-1.039,1.107-1.559,2.713-1.559,4.813c0,2.103,0.519,3.714,1.555,4.838
		c1.037,1.122,2.522,1.684,4.457,1.684s3.419-0.562,4.457-1.684c1.036-1.124,1.555-2.73,1.555-4.819
		c0-2.096-0.515-3.703-1.542-4.819C63.656,86.558,62.172,85.999,60.231,85.999z M60.214,96.752c-1.065,0-1.866-0.357-2.4-1.071
		c-0.536-0.714-0.804-1.776-0.804-3.187c0-1.411,0.27-2.475,0.812-3.191c0.541-0.718,1.345-1.075,2.409-1.075
		c2.125,0,3.188,1.422,3.188,4.267C63.419,95.332,62.35,96.752,60.214,96.752z"/>
	<path d="M74.881,92.209v-0.087c0.588-0.098,1.058-0.389,1.412-0.872c0.355-0.483,0.532-1.103,0.532-1.856
		c0-1.112-0.405-1.922-1.214-2.432c-0.809-0.509-2.109-0.765-3.899-0.765h-3.93v12.627h4.724c1.427,0,2.558-0.323,3.39-0.967
		c0.832-0.646,1.249-1.544,1.249-2.695c0-0.812-0.178-1.462-0.532-1.951S75.681,92.387,74.881,92.209z M70.458,88.392h1.408
		c0.767,0,1.326,0.104,1.681,0.314c0.354,0.211,0.53,0.557,0.53,1.041c0,0.518-0.162,0.89-0.487,1.114
		c-0.326,0.225-0.851,0.336-1.577,0.336h-1.555V88.392z M73.836,96.189c-0.352,0.283-0.896,0.424-1.633,0.424h-1.744v-3.29h1.659
		c1.497,0,2.246,0.522,2.246,1.571C74.363,95.476,74.188,95.908,73.836,96.189z"/>
</g>
</svg>
