<?xml version="1.0" encoding="utf-8"?>
<!-- Generator: Adobe Illustrator 16.0.0, SVG Export Plug-In . SVG Version: 6.00 Build 0)  -->
<!DOCTYPE svg PUBLIC "-//W3C//DTD SVG 1.1//EN" "http://www.w3.org/Graphics/SVG/1.1/DTD/svg11.dtd">
<svg version="1.1" id="Layer_11" xmlns="http://www.w3.org/2000/svg" xmlns:xlink="http://www.w3.org/1999/xlink" x="0px" y="0px"
	 width="100px" height="100px" viewBox="0 0 100 100" enable-background="new 0 0 100 100" xml:space="preserve">
<path d="M82.753,75.881v15.727h-0.107l-1.011,0.514c-0.514,0.258-8.778,4.325-23.034,4.325c-3.336,0-7.012-0.238-10.979-0.784
	c8.297-5.832,24.632-18.54,30.807-31.973C81.131,67.023,82.753,71.265,82.753,75.881z M75.766,60.984
	c-3.367-2.81-7.694-4.503-12.413-4.503H50.496c-5.376,0-10.246,2.202-13.764,5.748h0.805v31.463
	c1.729,0.437,3.416,0.813,5.059,1.135C48.846,90.638,69.795,75.771,75.766,60.984z M42.052,40.633
	c0,8.215,6.659,14.875,14.874,14.875c8.216,0,14.873-6.659,14.873-14.875c0-0.507-0.037-1.003-0.091-1.497H42.143
	C42.091,39.63,42.052,40.126,42.052,40.633z M73.997,9.39c0-3.223-2.613-5.835-5.835-5.835H45.69c-3.222,0-5.835,2.612-5.835,5.835
	v28.137h34.142V9.39z M33.84,56.808h0.475V15.563h-3.956v20.433c-0.157-0.019-0.313-0.047-0.474-0.047
	c-2.186,0-3.958,1.771-3.958,3.957v16.903h-4.413v6.4h4.413v15.052h-8.68v5.57h8.68v2.681v6.801h9.858V63.208H33.84V56.808z"/>
</svg>
