<svg width="64" xmlns="http://www.w3.org/2000/svg" height="64" viewBox="0 0 64 64" xmlns:xlink="http://www.w3.org/1999/xlink" enable-background="new 0 0 64 64">
<g fill="#0e0f0f">
<circle cx="8.798" cy="12.176" r="4.114"/>
<circle cx="56.046" cy="12.176" r="4.114"/>
<path d="m17.419,30.279h31.834v4.346h-31.834z"/>
<path d="m21.594,40.539c-2.701-.9-5.406-1.793-8.125-2.637 .006-.104 .016-.205 .016-.314 0-4.492 0-8.984 0-13.476 3.222-.417 6.367-1.383 9.59-1.83 2.285-.317 2.126-2.99 .631-4.132v-1.563h.492l1.498-3.877h-4.835l1.497,3.877h.45v1.128c-.309-.079-.644-.104-1.007-.055-3.324,.459-6.56,1.567-9.904,1.813-2.673-2.15-7.785-1.018-7.785,3.442 0,4.868 0,9.736 0,14.607 0,2.664 1.82,4.164 3.854,4.494 3.407,.965 6.777,2.053 10.138,3.168 0,3.502 0,7.004 0,10.508 0,3.555 5.512,3.555 5.512,0 0-4.043 0-8.084 0-12.127 0-.381-.074-.713-.188-1.014-.184-.867-.762-1.655-1.834-2.012z"/>
<path d="m58.346,41.693c1.103-.305 1.692-1.068 1.879-1.926 .318-.607 .509-1.332 .509-2.18 0-4.869 0-9.738 0-14.606 0-5.019-6.444-5.907-8.643-2.622-3.049-.348-6.021-1.302-9.063-1.722-.211-.029-.411-.029-.604-.012v-2.04h.492l1.499-3.877h-4.836l1.497,3.877h.449v2.289c-1.853,.932-2.247,4.041 .229,4.383 3.229,.448 6.379,1.417 9.605,1.833 0,4.143 0,8.285 0,12.43 0,.17 .011,.336 .024,.498-2.463,.773-4.915,1.584-7.366,2.4-1.069,.357-1.647,1.143-1.835,2.01-.113,.299-.188,.633-.188,1.016 0,4.041 0,8.084 0,12.127 0,3.555 5.513,3.555 5.513,0 0-3.504 0-7.006 0-10.51 3.593-1.188 7.191-2.356 10.839-3.368z"/>
<path d="m11.013,44.424h-7.845c-1.364,0-2.471,.91-2.471,2.033 0,1.125 1.107,2.035 2.471,2.035h2.528v8.563c0,.039 .007,.07 .01,.107h-.572c-.595,0-1.075,.48-1.075,1.074s.48,1.076 1.075,1.076h3.915c.594,0 1.074-.482 1.074-1.076s-.48-1.074-1.074-1.074h-.574c.003-.037 .011-.068 .011-.107v-8.563h2.527c1.367,0 2.472-.91 2.472-2.035 0-1.123-1.105-2.033-2.472-2.033z"/>
<path d="m60.831,44.424h-7.846c-1.365,0-2.471,.91-2.471,2.033 0,1.125 1.105,2.035 2.471,2.035h2.528v8.563c0,.039 .007,.07 .01,.107h-.573c-.594,0-1.074,.48-1.074,1.074s.48,1.076 1.074,1.076h3.916c.594,0 1.074-.482 1.074-1.076s-.48-1.074-1.074-1.074h-.574c.003-.037 .011-.068 .011-.107v-8.563h2.528c1.364,0 2.472-.91 2.472-2.035-0-1.123-1.108-2.033-2.472-2.033z"/>
</g>
</svg>
