<?xml version="1.0" encoding="utf-8"?>
<!-- Generator: Adobe Illustrator 17.0.0, SVG Export Plug-In . SVG Version: 6.00 Build 0)  -->
<!DOCTYPE svg PUBLIC "-//W3C//DTD SVG 1.1//EN" "http://www.w3.org/Graphics/SVG/1.1/DTD/svg11.dtd">
<svg version="1.1" id="Capa_1" xmlns="http://www.w3.org/2000/svg" xmlns:xlink="http://www.w3.org/1999/xlink" x="0px" y="0px"
	 width="64px" height="64px" viewBox="0 0 64 64" enable-background="new 0 0 64 64" xml:space="preserve">
<path fill="#0E0F0F" d="M56.064,45.889c-1.244-1.918-3.596-4.172-5.581-5.896c-0.175-0.152-0.316-0.328-0.428-0.518
	c-0.868,0.567-1.705,1.2-2.532,1.826c0.617,2.23,1.426,4.377,2.755,6.312c1.898,2.766-2.6,5.357-4.479,2.619
	c-1.898-2.765-2.949-6.03-3.72-9.266c-0.29-1.217,0.207-2.227,1.192-2.929c1.63-1.162,3.196-2.361,4.879-3.381l-3.689-8.393
	l-4.163,2.344l-7.431-1.589c-1.069-0.228-1.774-1.214-1.693-2.277l-0.725-0.179c-0.594,1.335-2.076,2.096-3.544,1.731
	c-1.648-0.409-2.652-2.076-2.243-3.724c0.408-1.647,2.075-2.651,3.724-2.243c1.469,0.365,2.423,1.729,2.324,3.187l0.812,0.202
	c0.476-0.718,1.356-1.112,2.25-0.922l5.831,1.248l5.048-2.843c0.171-0.14,0.359-0.265,0.566-0.368
	c1.497-0.744,3.312-0.135,4.056,1.362l5.002,11.376c0.255,0.513,0.348,1.062,0.304,1.594c0.045,0.461-0.014,0.937-0.19,1.375
	c2.256,1.973,4.526,4.223,6.156,6.734C62.372,46.085,57.881,48.683,56.064,45.889z M43.511,20.11c1.895,0,3.432-1.537,3.432-3.432
	s-1.537-3.432-3.432-3.432s-3.432,1.537-3.432,3.432S41.616,20.11,43.511,20.11z M21.722,27.643c0.656,0,1.188-0.532,1.188-1.188
	c0-0.656-0.532-1.188-1.188-1.188s-1.188,0.532-1.188,1.188C20.534,27.111,21.066,27.643,21.722,27.643z M19.993,28.204
	l-0.214-0.376c-0.578,0.329-3.155,1.838-3.834,3.016c-0.707-1.117-2.962-4.032-6.995-3.632l0.042,0.43
	c4.276-0.42,6.415,3.097,6.758,3.719H3.027v2.274h25.937v-2.274H16.212C16.212,30.626,18.532,29.033,19.993,28.204z"/>
</svg>
