<?xml version="1.0" encoding="utf-8"?>
<!-- Generator: Adobe Illustrator 16.0.0, SVG Export Plug-In . SVG Version: 6.00 Build 0)  -->
<!DOCTYPE svg PUBLIC "-//W3C//DTD SVG 1.1//EN" "http://www.w3.org/Graphics/SVG/1.1/DTD/svg11.dtd">
<svg version="1.1" id="Layer_1" xmlns="http://www.w3.org/2000/svg" xmlns:xlink="http://www.w3.org/1999/xlink" x="0px" y="0px"
	 width="50px" height="50px" viewBox="0 0 50 50" enable-background="new 0 0 50 50" xml:space="preserve">
<g>
	<path d="M12.569,32.955h24.862c1.161,0,2.105-0.944,2.105-2.106V16.414c0-1.162-0.945-2.106-2.105-2.106H12.569
		c-1.161,0-2.105,0.944-2.105,2.106v14.435C10.463,32.011,11.408,32.955,12.569,32.955z M11.596,16.414
		c0-0.537,0.436-0.974,0.973-0.974h24.862c0.537,0,0.973,0.437,0.973,0.974v14.435c0,0.537-0.436,0.974-0.973,0.974H12.569
		c-0.537,0-0.973-0.437-0.973-0.974V16.414z"/>
	<path d="M28.209,33.539v0.833h-6.418v-0.833H7.632c0,1.187,0.691,2.153,1.539,2.153h31.658c0.848,0,1.539-0.967,1.539-2.153H28.209
		z"/>
	<path d="M21.773,26.956c0-1.123-1.294-2.641-3.041-3.084c0.73-0.49,1.233-1.46,1.233-2.332c0-1.231-0.997-2.23-2.229-2.23
		c-1.231,0-2.229,0.999-2.229,2.23c0,0.872,0.503,1.842,1.231,2.332c-1.744,0.443-3.039,1.961-3.039,3.084
		C13.7,28.284,21.773,28.284,21.773,26.956z M17.557,24.52h-0.01l-0.369-0.425c0.18,0.064,0.364,0.104,0.559,0.104
		c0.195,0,0.379-0.038,0.559-0.102l-0.37,0.423h-0.009l0.953,2.302l-1.133,1.13l-1.132-1.13L17.557,24.52z"/>
	<path d="M23.06,18.688h12.756c0.269,0,0.484-0.216,0.484-0.484c0-0.268-0.216-0.485-0.484-0.485H23.06
		c-0.269,0-0.484,0.218-0.484,0.485C22.575,18.472,22.791,18.688,23.06,18.688z"/>
	<path d="M23.06,21.402h12.756c0.269,0,0.484-0.217,0.484-0.484c0-0.269-0.216-0.485-0.484-0.485H23.06
		c-0.269,0-0.484,0.217-0.484,0.485C22.575,21.186,22.791,21.402,23.06,21.402z"/>
	<path d="M23.06,24.116h12.756c0.269,0,0.484-0.217,0.484-0.483c0-0.269-0.216-0.485-0.484-0.485H23.06
		c-0.269,0-0.484,0.217-0.484,0.485C22.575,23.899,22.791,24.116,23.06,24.116z"/>
	<path d="M23.06,26.831h12.756c0.269,0,0.484-0.217,0.484-0.484c0-0.269-0.216-0.485-0.484-0.485H23.06
		c-0.269,0-0.484,0.217-0.484,0.485C22.575,26.614,22.791,26.831,23.06,26.831z"/>
	<path d="M23.06,29.546h6.23c0.267,0,0.482-0.218,0.482-0.484c0-0.269-0.216-0.485-0.482-0.485h-6.23
		c-0.269,0-0.484,0.217-0.484,0.485C22.575,29.328,22.791,29.546,23.06,29.546z"/>
</g>
</svg>
