<?xml version="1.0" encoding="utf-8"?>
<!-- Generator: Adobe Illustrator 16.0.0, SVG Export Plug-In . SVG Version: 6.00 Build 0)  -->
<!DOCTYPE svg PUBLIC "-//W3C//DTD SVG 1.1//EN" "http://www.w3.org/Graphics/SVG/1.1/DTD/svg11.dtd">
<svg version="1.1" id="Layer_1" xmlns="http://www.w3.org/2000/svg" xmlns:xlink="http://www.w3.org/1999/xlink" x="0px" y="0px"
	 width="50px" height="50px" viewBox="0 0 50 50" enable-background="new 0 0 50 50" xml:space="preserve">
<g>
	<path d="M38.211,34.63l0.825-3.573l-1.267-0.292c-0.02-0.161-0.047-0.322-0.081-0.482l1.104-0.688l-1.943-3.11l-1.104,0.69
		c-0.128-0.101-0.26-0.196-0.396-0.285l0.293-1.269l-3.574-0.823l-0.291,1.269c-0.162,0.02-0.323,0.047-0.483,0.082l-0.692-1.106
		l-2.22,1.39c-0.782-0.379-1.609-0.695-2.479-0.916c2.169-1.459,3.662-4.334,3.662-6.925c0-3.655-2.964-6.619-6.618-6.619
		s-6.618,2.963-6.618,6.619c0,2.591,1.493,5.466,3.662,6.925c-5.186,1.314-9.027,5.816-9.027,9.151
		c0,1.971,5.991,2.956,11.982,2.956l-3.356-3.356l2.826-6.832h-0.029l-1.098-1.259c0.53,0.19,1.084,0.305,1.658,0.305
		c0.573,0,1.126-0.114,1.656-0.304l-1.098,1.257h-0.027l2.826,6.832l-3.356,3.356c2.216,0,4.432-0.134,6.344-0.404l3.485,0.808
		l0.293-1.269c0.162-0.02,0.323-0.046,0.483-0.082l0.689,1.104l3.107-1.943l-0.689-1.103c0.102-0.128,0.196-0.261,0.285-0.398
		L38.211,34.63z M36.431,33.192c-0.234,0.53-0.58,1.019-1.021,1.429l0.562,0.9l-1.411,0.882l-0.562-0.901
		c-0.563,0.218-1.152,0.315-1.731,0.291l-0.239,1.034l-1.621-0.376l0.237-1.031c-0.531-0.236-1.019-0.579-1.428-1.021l-0.901,0.563
		l-0.883-1.413l0.9-0.562c-0.217-0.564-0.313-1.151-0.293-1.733l-1.032-0.238l0.376-1.622l1.032,0.238
		c0.236-0.531,0.581-1.019,1.023-1.43l-0.562-0.9l1.408-0.882l0.564,0.901c0.562-0.217,1.151-0.313,1.732-0.291l0.237-1.034
		l1.624,0.374l-0.238,1.031c0.531,0.238,1.016,0.582,1.428,1.023l0.899-0.562l0.883,1.413l-0.9,0.561
		c0.216,0.562,0.313,1.152,0.292,1.732l1.031,0.238l-0.375,1.624L36.431,33.192z"/>
	<polygon points="22.946,37.624 22.947,37.623 22.945,37.623 	"/>
	<circle cx="32.422" cy="31.413" r="2.99"/>
</g>
</svg>
