<?xml version="1.0" encoding="utf-8"?>
<!-- Generator: Adobe Illustrator 16.0.0, SVG Export Plug-In . SVG Version: 6.00 Build 0)  -->
<!DOCTYPE svg PUBLIC "-//W3C//DTD SVG 1.1//EN" "http://www.w3.org/Graphics/SVG/1.1/DTD/svg11.dtd">
<svg version="1.1" id="Layer_1" xmlns="http://www.w3.org/2000/svg" xmlns:xlink="http://www.w3.org/1999/xlink" x="0px" y="0px"
	 width="50px" height="50px" viewBox="0 0 50 50" enable-background="new 0 0 50 50" xml:space="preserve">
<g>
	<path d="M28.575,27.27c2.136-1.617,3.543-4.501,3.543-7.108c0-0.977-0.198-1.907-0.556-2.755l-1.017-0.181l0,0l-5.527-0.982
		l-5.66,1.001l0.003,0l-0.925,0.164c-0.357,0.848-0.555,1.778-0.555,2.754c0,2.607,1.407,5.492,3.543,7.108
		c-4.868,1.502-8.409,5.768-8.409,8.968c0,3.943,23.967,3.943,23.967,0C36.983,33.038,33.442,28.772,28.575,27.27z M18.882,20.161
		c0-1.011,0.256-1.959,0.692-2.8c0.162,0.182,0.375,0.647,0.501,1.883c0.032,0.315,1.959,1.455,4.927,1.455
		c2.967,0,4.897-1.141,4.926-1.457c0.119-1.281,0.318-1.758,0.475-1.929c0.451,0.853,0.715,1.818,0.715,2.848
		c0,0.798-0.159,1.635-0.441,2.447c-0.781,1.276-2.419,1.938-4.987,2.039c-0.142-0.24-0.391-0.408-0.689-0.408
		c-0.449,0-0.812,0.364-0.812,0.812s0.364,0.812,0.812,0.812c0.326,0,0.603-0.195,0.732-0.472c1.705-0.069,3.055-0.382,4.056-0.94
		c-1.119,1.767-2.843,3.1-4.787,3.1C21.611,27.552,18.882,23.509,18.882,20.161z"/>
	<path d="M30.546,17.225l0.092,0.016C30.638,17.241,30.602,17.217,30.546,17.225z"/>
	<path d="M18.47,16.893l6.143-1.086c-0.408-0.485-0.992-1.266-0.992-1.763c0-0.761,1.377-1.716,1.377-1.716s1.378,0.955,1.378,1.716
		c0,0.495-0.58,1.271-0.987,1.757l6.148,1.093c0.405-0.419,0.986-1.195,0.986-2.225c0-1.575-3.862-3.862-3.862-3.862h-7.276
		c0,0-3.862,2.287-3.862,3.862C17.523,15.696,18.08,16.473,18.47,16.893z"/>
</g>
</svg>
