<?xml version="1.0" encoding="iso-8859-1"?>
<!-- Generator: Adobe Illustrator 17.1.0, SVG Export Plug-In . SVG Version: 6.00 Build 0)  -->
<!DOCTYPE svg PUBLIC "-//W3C//DTD SVG 1.1//EN" "http://www.w3.org/Graphics/SVG/1.1/DTD/svg11.dtd">
<svg version="1.1" id="Layer_1" xmlns="http://www.w3.org/2000/svg" xmlns:xlink="http://www.w3.org/1999/xlink" x="0px" y="0px"
	 viewBox="0 0 128 128" style="enable-background:new 0 0 128 128;" xml:space="preserve">
<g>
	<circle cx="60.5" cy="9.819" r="8.241"/>
	<path d="M40.841,86.436h14.555c0.249,0,0.452,0.376,0.452,0.625v35.221c0,0-0.003,0.032-0.007,0.07
		c-0.004,0.039-0.003,0.273,0.035,0.519c0.31,2.035,2.199,3.549,4.361,3.549c2.318,0,4.096-1.726,4.176-3.984l0.014-0.155V86.998
		c0-0.25,0.202-0.56,0.451-0.562h15.359c0.853,0,0.478-1.02,0.419-1.311c-0.59-1.961-4.502-11.971-7.92-20.669
		c5.294-1.492,8.775-7.835,7.925-14.931c-0.874-7.298-6.01-12.741-11.697-12.642C69.567,31.58,70.152,26.462,70.307,25
		c0.252-2.375-0.938-3.643-2.292-3.643c-0.249,0.013-14.154-0.005-14.404,0c-2.042,0-3.375,1.059-2.856,4.982
		c0.753,6.623,2.821,24.479,2.815,24.535c-0.005,0.056-6.204,15.905-13.208,34.251C40.247,85.391,39.919,86.436,40.841,86.436z
		 M67.887,47.503c1.302-1.193,2.747-0.285,3.384,0.239c0.193,0.158,0.336,0.305,0.34,0.305c0.004,0,0.147-0.146,0.34-0.305
		c0.637-0.525,2.082-1.433,3.384-0.239c1.67,1.531,0.321,5.038-3.302,6.71c-0.226,0.105-0.418,0.175-0.421,0.17
		c-0.004-0.005-0.195-0.083-0.422-0.188C67.566,52.523,66.217,49.033,67.887,47.503z"/>
</g>
</svg>
