<?xml version="1.0" encoding="utf-8"?>
<!-- Generator: Adobe Illustrator 16.0.0, SVG Export Plug-In . SVG Version: 6.00 Build 0)  -->
<!DOCTYPE svg PUBLIC "-//W3C//DTD SVG 1.1//EN" "http://www.w3.org/Graphics/SVG/1.1/DTD/svg11.dtd">
<svg version="1.1" id="Layer_1" xmlns="http://www.w3.org/2000/svg" xmlns:xlink="http://www.w3.org/1999/xlink" x="0px" y="0px"
	 width="50px" height="50px" viewBox="0 0 50 50" enable-background="new 0 0 50 50" xml:space="preserve">
<g>
	<path d="M36.701,21.78H24.818c-0.296,0-0.537,0.24-0.537,0.538c0,0.298,0.241,0.538,0.537,0.538h11.883
		c0.298,0,0.539-0.24,0.539-0.538C37.24,22.02,36.999,21.78,36.701,21.78z"/>
	<path d="M37.24,24.773c0-0.298-0.241-0.539-0.539-0.539H24.818c-0.296,0-0.537,0.241-0.537,0.539s0.241,0.538,0.537,0.538h11.883
		C36.999,25.311,37.24,25.071,37.24,24.773z"/>
	<path d="M24.818,26.69c-0.296,0-0.537,0.241-0.537,0.539c0,0.3,0.241,0.539,0.537,0.539h6.955c0.297,0,0.537-0.239,0.537-0.539
		c0-0.298-0.24-0.539-0.537-0.539H24.818z"/>
	<path d="M12.178,17.159c0.037-0.013,0.377-0.134,0.887-0.285v-0.218c0-0.399,0.324-0.724,0.725-0.724h0.519
		c-0.258-0.4-0.447-0.837-0.571-1.291c-1.089,0.029-1.968,0.918-1.968,2.015v0.737c0.06-0.04,0.116-0.082,0.186-0.117
		C12.003,17.242,12.077,17.196,12.178,17.159z"/>
	<path d="M37.943,14.636H20.592c-0.123,0.455-0.312,0.895-0.572,1.296h17.924c0.399,0,0.724,0.325,0.724,0.724v14.427
		c0,0.399-0.324,0.724-0.724,0.724h-16.51l0.104,1.296h16.406c1.114,0,2.02-0.905,2.02-2.02V16.656
		C39.963,15.541,39.058,14.636,37.943,14.636z"/>
	<path d="M11.769,28.575v2.508c0,0.758,0.423,1.411,1.042,1.756l0.254-3.154v-2.724l-0.049,0.22
		C12.869,27.837,12.374,28.35,11.769,28.575z"/>
	<path d="M17.164,16.819c1.508,0,2.73-1.748,2.73-3.256c0-1.508-1.223-2.73-2.73-2.73s-2.73,1.223-2.73,2.73
		C14.434,15.071,15.656,16.819,17.164,16.819z"/>
	<path d="M21.117,20c0.12,0.043,0.244,0.064,0.366,0.064l0,0h5.185c0.596,0,1.08-0.483,1.08-1.08c0-0.597-0.484-1.08-1.08-1.08
		h-5.003c-0.576-0.195-2.404-0.765-4.103-0.847l-0.254,0.508h-0.007l0.727,5.664l-0.864,1.509l-0.863-1.509l0.727-5.664h-0.007
		l-0.257-0.515c-2.003,0.099-4.188,0.883-4.287,0.918c-0.035,0.013-0.059,0.041-0.094,0.057c-0.068,0.033-0.133,0.07-0.193,0.118
		c-0.054,0.042-0.099,0.086-0.143,0.136c-0.046,0.052-0.086,0.106-0.123,0.167c-0.035,0.063-0.062,0.126-0.086,0.196
		c-0.014,0.037-0.039,0.067-0.048,0.107l-1.729,7.775c-0.128,0.582,0.238,1.159,0.82,1.288c0.08,0.018,0.158,0.026,0.236,0.026
		c0.495,0,0.941-0.343,1.054-0.846l1.595-7.175c0.11-0.034,0.238-0.071,0.375-0.11v7.371L13.28,37.768
		c-0.057,0.713,0.475,1.338,1.188,1.396c0.036,0.003,0.069,0.004,0.105,0.004c0.668,0,1.235-0.514,1.29-1.192l0.777-9.659
		c0.16,0.071,0.337,0.112,0.522,0.112c0.187,0,0.363-0.041,0.523-0.112l0.777,9.659c0.055,0.678,0.622,1.192,1.29,1.192
		c0.034,0,0.069-0.001,0.105-0.004c0.714-0.058,1.245-0.682,1.187-1.396l-0.859-10.688v-7.371
		C20.736,19.865,21.107,19.997,21.117,20z"/>
</g>
</svg>
