<?xml version="1.0" encoding="utf-8"?>
<!-- Generator: Adobe Illustrator 16.0.0, SVG Export Plug-In . SVG Version: 6.00 Build 0)  -->
<!DOCTYPE svg PUBLIC "-//W3C//DTD SVG 1.1//EN" "http://www.w3.org/Graphics/SVG/1.1/DTD/svg11.dtd">
<svg version="1.1" id="Layer_1" xmlns="http://www.w3.org/2000/svg" xmlns:xlink="http://www.w3.org/1999/xlink" x="0px" y="0px"
	 width="126px" height="126px" viewBox="0 0 126 126" enable-background="new 0 0 126 126" xml:space="preserve">
<g>
	<circle fill="#010101" cx="66.343" cy="7.845" r="7.273"/>
	<path fill="#010101" d="M54.23,42.112c0.063,0.004,0.122,0.005,0.18,0.005c1.479,0,2.723-1.151,2.816-2.648
		c0.338-5.41,0.887-8.917,1.673-11.335v9.782c0,0.761,0.147,1.469,0.406,2.12c-0.021,0.147-0.035,0.296-0.035,0.448l0.004,27.039
		c0,1.843,1.493,3.337,3.336,3.337s3.336-1.494,3.336-3.337l-0.002-23.206c0.133,0.007,0.266,0.017,0.399,0.017
		c0.026,0,0.051-0.002,0.077-0.003v23.193c0,1.843,1.493,3.337,3.336,3.337c1.843,0,3.336-1.494,3.336-3.337l0.002-26.874
		c0.436-0.811,0.693-1.728,0.693-2.733v-9.701c0.772,2.416,1.311,5.904,1.645,11.253c0.093,1.497,1.336,2.648,2.816,2.648
		c0.058,0,0.119-0.001,0.177-0.005c1.556-0.097,2.739-1.438,2.644-2.995c-1.001-16.027-4.244-18.766-9.89-22.229
		c-0.121-0.075-0.25-0.127-0.375-0.182c-0.812-0.54-1.722-0.938-2.65-1.167l-1.811,1.825l-1.757-1.845
		c-0.007,0.001-0.012,0.002-0.019,0.004c-0.931,0.223-1.846,0.618-2.66,1.157c-0.145,0.058-0.29,0.122-0.429,0.208
		c-5.646,3.463-8.889,6.203-9.89,22.229C51.491,40.675,52.676,42.015,54.23,42.112z M66.325,17.633h0.035l1.755,11.726l-1.755,2.4
		h-0.035l-1.752-2.4L66.325,17.633z"/>
	<circle fill="#010101" cx="25.258" cy="62.412" r="7.273"/>
	<path fill="#010101" d="M39.984,93.686c-1.001-16.028-4.244-18.767-9.89-22.229c-0.121-0.075-0.25-0.128-0.375-0.182
		c-0.812-0.542-1.722-0.939-2.65-1.167l-1.811,1.824l-1.757-1.844c-0.007,0.001-0.012,0.001-0.019,0.003
		c-0.931,0.222-1.845,0.617-2.66,1.156c-0.145,0.059-0.289,0.124-0.429,0.208c-5.646,3.462-8.889,6.202-9.89,22.229
		c-0.098,1.556,1.087,2.896,2.641,2.995c0.063,0.003,0.122,0.004,0.18,0.004c1.479,0,2.723-1.151,2.816-2.646
		c0.338-5.412,0.887-8.917,1.673-11.336v9.784c0,0.759,0.147,1.467,0.406,2.12c-0.021,0.147-0.035,0.295-0.035,0.447l0.005,27.04
		c0,1.843,1.493,3.337,3.336,3.336c1.843,0,3.336-1.494,3.336-3.337l-0.002-23.205c0.133,0.006,0.266,0.016,0.399,0.016
		c0.026,0,0.052-0.003,0.077-0.003v23.192c0,1.843,1.493,3.337,3.336,3.337s3.336-1.494,3.336-3.337l0.002-26.874
		c0.437-0.811,0.693-1.727,0.693-2.732v-9.702c0.772,2.417,1.312,5.905,1.645,11.255c0.093,1.495,1.337,2.646,2.816,2.646
		c0.058,0,0.119-0.001,0.177-0.004C38.897,96.582,40.08,95.242,39.984,93.686z M25.274,86.326h-0.035l-1.752-2.4l1.752-11.725h0.035
		l1.754,11.725L25.274,86.326z"/>
	<circle fill="#010101" cx="100.77" cy="62.412" r="7.273"/>
	<path fill="#010101" d="M105.606,71.456c-0.121-0.075-0.25-0.128-0.375-0.182c-0.812-0.542-1.722-0.939-2.65-1.167l-1.811,1.824
		l-1.757-1.844c-0.007,0.001-0.012,0.001-0.019,0.003c-0.931,0.222-1.846,0.617-2.66,1.156c-0.145,0.059-0.29,0.124-0.429,0.208
		c-5.646,3.462-8.889,6.202-9.89,22.229c-0.098,1.556,1.087,2.896,2.641,2.995c0.063,0.003,0.122,0.004,0.18,0.004
		c1.479,0,2.723-1.151,2.816-2.646c0.338-5.412,0.887-8.917,1.673-11.336v9.784c0,0.759,0.147,1.467,0.406,2.12
		c-0.021,0.147-0.035,0.295-0.035,0.447l0.004,27.04c0,1.843,1.493,3.337,3.336,3.336c1.843,0,3.336-1.494,3.336-3.337
		l-0.002-23.205c0.133,0.006,0.266,0.016,0.399,0.016c0.026,0,0.051-0.003,0.077-0.003v23.192c0,1.843,1.493,3.337,3.336,3.337
		c1.843,0,3.336-1.494,3.336-3.337l0.002-26.874c0.436-0.811,0.693-1.727,0.693-2.732v-9.702c0.772,2.417,1.311,5.905,1.645,11.255
		c0.093,1.495,1.336,2.646,2.816,2.646c0.058,0,0.119-0.001,0.177-0.004c1.556-0.098,2.739-1.438,2.643-2.995
		C114.496,77.658,111.252,74.918,105.606,71.456z M100.786,86.326h-0.035l-1.752-2.4l1.752-11.725h0.035l1.755,11.725
		L100.786,86.326z"/>
	<path fill="#010101" d="M83.094,100.048c-0.172-0.648-0.724-1.309-1.574-1.309c-0.278,0-0.56,0.075-0.805,0.201l-5.905,2.729
		c-0.305,0.131-0.937,0.401-1.155,1.045c-0.091,0.275-0.135,0.722,0.15,1.218l1.542,3.146l-4.806,0.006v-2.718
		c0-1.124-0.747-1.423-1.186-1.423c-0.588,0-1.088,0.438-1.325,0.688l-7.759,7.981c-0.097,0.085-0.585,0.539-0.612,1.234
		c-0.012,0.307,0.065,0.768,0.501,1.204c0.768,0.769,8.065,7.833,8.065,7.833c0.186,0.189,0.687,0.63,1.287,0.63
		c0.129,0,1.266-0.044,1.266-1.598v-2.438h11.854c0.124,0,0.448-0.026,0.763-0.238c0.231-0.159,0.623-0.532,0.622-1.214
		c0.04-0.322,0.565-2,0.985-3.347c0.772-2.471,1.156-3.75,1.3-4.452l0.02-0.002v-0.107c0.033-0.175,0.048-0.312,0.048-0.417
		c0-0.47-0.125-0.826-0.318-1.089L83.094,100.048z"/>
	<path fill="#010101" d="M63.509,93.745c0.115,0.82,1.025,1.126,1.401,1.217l10.778,2.765c0.067,0.024,0.309,0.101,0.617,0.101
		c0.757,0,1.354-0.464,1.56-1.216c0.284-1.049,2.792-10.886,2.792-10.886c0.08-0.292,0.221-1.029-0.19-1.565
		c-0.398-0.527-1.114-0.634-1.922-0.17l-2.117,1.214l-5.877-10.259c-0.172-0.329-0.593-0.713-1.202-0.713
		c-0.272,0-0.545,0.078-0.757,0.204c-0.298,0.12-2,0.497-3.37,0.8c-3.382,0.747-4.582,1.04-5.025,1.295
		c-0.447,0.255-0.666,0.549-0.783,0.816l-5.012,6.414c-0.107,0.103-0.627,0.653-0.556,1.412c0.035,0.344,0.201,0.832,0.768,1.204
		l5.304,3.77c0.348,0.262,0.739,0.505,1.219,0.505c0.301,0,0.864-0.105,1.244-0.763l1.953-2.882l2.326,4.06l-2.361,1.354
		C63.513,92.864,63.468,93.441,63.509,93.745z M76.304,95.979L76.3,96.903L76.229,96C76.255,95.987,76.282,95.979,76.304,95.979z"/>
	<path fill="#010101" d="M55.016,91.527c-0.212-0.769-1.109-1.52-2.159-1.143c-1.017,0.364-10.523,3.949-10.523,3.949
		c-0.277,0.097-1.185,0.486-1.229,1.348c-0.021,0.399,0.139,0.958,1.019,1.374l2.206,1.041l-5.044,10.696
		c-0.063,0.118-0.246,0.542-0.072,1.051c0.091,0.266,0.311,0.632,0.776,0.847c0.272,0.175,1.557,1.358,2.593,2.31
		c2.356,2.169,3.443,3.14,3.934,3.376c0.294,0.137,0.568,0.205,0.834,0.205c0.123,0,0.229-0.028,0.336-0.056l7.925,0.569
		l0.345,0.028c0.493,0,0.928-0.171,1.229-0.482c0.216-0.222,0.468-0.621,0.442-1.223l0.056-6.501
		c0.013-0.344,0.036-0.986-0.416-1.455c-0.189-0.193-0.59-0.462-1.206-0.42l-3.381,0.047l2.05-4.338l2.457,1.162
		c0.269,0.126,0.513,0.186,0.743,0.186c0.397,0,0.744-0.177,0.959-0.492c0.375-0.549,0.181-1.278,0.033-1.652L55.016,91.527z
		 M55.955,115.284v0.916l-0.103-0.84C55.883,115.326,55.919,115.296,55.955,115.284z"/>
</g>
</svg>
