<svg width="64" xmlns="http://www.w3.org/2000/svg" height="64" viewBox="0 0 64 64" xmlns:xlink="http://www.w3.org/1999/xlink" enable-background="new 0 0 64 64">
<g fill="#0e0f0f">
<path d="m56.556,27.385c-6.578-3.215-12.969-7.056-18.329-12.082-.139-.136-.279-.265-.427-.391-.065-.063-.137-.122-.202-.185-.367-.357-.762-.592-1.163-.732-.355-.179-.722-.326-1.094-.428-.288-.08-.57-.132-.849-.172-.661-.176-1.42-.329-2.293-.45-5.606-.287-9.751-.73-15.306,.24-1.366,.238-2.231,1.703-2.271,2.98-.122,4.029 1.282,7.399 3.257,10.836 1.983,3.457 7.328,.343 5.339-3.12-.979-1.706-1.769-3.286-2.156-5.043 2.132-.178 4.327-.158 6.51-.066 .717,.13 1.329,.379 1.756,.756 .622,.546 .974,1.459 .987,2.571 .028,2.291-1.323,4.92-3.613,7.037-2.665,2.462-5.372,2.83-6.748,2.83-.268,0-.876-.022-1.501-.163-.163,.293-.286,.601-.384,.915-.286,.161-.558,.381-.807,.669-3.599,4.165-7.396,8.103-10.48,12.686-2.233,3.318 3.126,6.409 5.339,3.121 2.272-3.375 5.511-6.349 8.394-9.37 .155,.12 .314,.232 .478,.336-3.411,5.956-6.772,11.736-10.541,17.981-2.065,3.424 3.284,6.529 5.34,3.121 5.163-8.557 10.771-16.841 15.855-25.442 2.782-3.838 5.302-7.541 7.295-11.853 4.504,3.412 9.433,6.287 14.489,8.758 3.572,1.742 6.708-3.59 3.125-5.34z"/>
<path d="m40.282,12.469c3.097,0 5.606-2.509 5.606-5.604 0-3.095-2.51-5.604-5.606-5.604-3.093,0-5.602,2.509-5.602,5.604 .001,3.095 2.509,5.604 5.602,5.604z"/>
<path d="m20.357,29.106c-1.042,0-1.977-.442-2.663-1.226-.157,1.202-.005,2.118 .232,2.375 .557,.601 4.473,1.308 8.069-2.014 3.595-3.325 3.726-6.938 2.646-7.887-.857-.755-3.364-.959-6.015,.52 .35,.789 .77,1.588 1.262,2.447 .696,1.212 .714,2.565 .051,3.711-.717,1.241-2.157,2.074-3.582,2.074z"/>
</g>
</svg>
