<?xml version="1.0" encoding="utf-8"?>
<!-- Generator: Adobe Illustrator 16.0.0, SVG Export Plug-In . SVG Version: 6.00 Build 0)  -->
<!DOCTYPE svg PUBLIC "-//W3C//DTD SVG 1.1//EN" "http://www.w3.org/Graphics/SVG/1.1/DTD/svg11.dtd">
<svg version="1.1" id="Layer_3" xmlns="http://www.w3.org/2000/svg" xmlns:xlink="http://www.w3.org/1999/xlink" x="0px" y="0px"
	 width="126px" height="126px" viewBox="0 0 126 126" enable-background="new 0 0 126 126" xml:space="preserve">
<g>
	<g>
		<path fill="none" stroke="#000000" stroke-width="12" stroke-linecap="round" stroke-linejoin="round" stroke-miterlimit="10" d="
			M77.172,43.08"/>
		<path fill="none" stroke="#000000" stroke-width="13" stroke-linecap="round" stroke-linejoin="round" stroke-miterlimit="10" d="
			M49.051,72.74c0,0-7.567,17.318-9.618,24.13s-23.551,14.479-23.551,14.479"/>
		<path fill="none" stroke="#000000" stroke-width="13" stroke-linecap="round" stroke-linejoin="round" stroke-miterlimit="10" d="
			M56.975,79.707c0,0,16.499,12.884,17.87,15.513s-7.151,25.207-7.151,25.207"/>
		<circle cx="78.537" cy="19.743" r="14.166"/>
		<g>
			<path d="M69.944,32.428c0,0,1.546,0.19,2.986,0.859c1.376,0.64,2.784,1.641,2.784,1.641l0.036,0.024
				c3.896,2.979,6.988,8.574,4.65,13.91L67.856,77.507c-2.726,6.222-10.594,7.369-16.32,4.86c-0.975-0.427-1.907-0.958-2.773-1.583
				c-4.06-2.921-7.093-8.293-4.722-13.708l12.545-28.645C58.914,33.115,65.143,31.592,69.944,32.428z"/>
		</g>
		<path fill="none" stroke="#000000" stroke-width="11" stroke-linecap="round" stroke-linejoin="round" stroke-miterlimit="10" d="
			M66.751,37.749c0,0-18.956-1.313-23.637,0.291c-4.68,1.604-12.637,12.58-12.637,12.58"/>
		<path fill="none" stroke="#000000" stroke-width="11" stroke-linecap="round" stroke-linejoin="round" stroke-miterlimit="10" d="
			M73.845,44.354c0,0,18.956,1.313,23.636-0.292c4.68-1.604,12.638-12.58,12.638-12.58"/>
	</g>
</g>
</svg>
