<?xml version="1.0" encoding="utf-8"?>
<!-- Generator: Adobe Illustrator 16.0.0, SVG Export Plug-In . SVG Version: 6.00 Build 0)  -->
<!DOCTYPE svg PUBLIC "-//W3C//DTD SVG 1.1//EN" "http://www.w3.org/Graphics/SVG/1.1/DTD/svg11.dtd">
<svg version="1.1" id="Layer_2" xmlns="http://www.w3.org/2000/svg" xmlns:xlink="http://www.w3.org/1999/xlink" x="0px" y="0px"
	 width="126px" height="126px" viewBox="0 0 126 126" enable-background="new 0 0 126 126" xml:space="preserve">
<g>
	<path d="M114.061,114.853L113.91,0.652H14.764v16.923h-2.825V39.37h2.825v34.953h-2.825v21.796h2.825v18.734H114.061z
		 M22.836,96.119h2.826V74.323h-2.826V39.37h2.826V17.575h-2.826V8.727h83.152v98.053H22.836V96.119z"/>
	<path d="M64.817,77.148c12.91,0,23.411-10.504,23.411-23.413c0-12.912-10.501-23.412-23.411-23.412s-23.413,10.5-23.413,23.412
		C41.404,66.645,51.907,77.148,64.817,77.148z M64.817,40.011c7.567,0,13.724,6.157,13.724,13.725
		c0,7.567-6.157,13.725-13.724,13.725c-7.568,0-13.725-6.157-13.725-13.725C51.092,46.168,57.249,40.011,64.817,40.011z"/>
	<path d="M84.46,31.304c3.111,0,5.847-1.611,7.434-4.039h11.673v-9.688H91.895c-1.587-2.425-4.323-4.035-7.434-4.035
		c-4.896,0-8.88,3.982-8.88,8.88C75.58,27.317,79.564,31.304,84.46,31.304z"/>
	<rect x="25.663" y="117.275" width="15.742" height="8.073"/>
	<rect x="83.788" y="117.275" width="15.743" height="8.073"/>
</g>
</svg>
