<?xml version="1.0" encoding="utf-8"?>
<!-- Generator: Adobe Illustrator 16.0.0, SVG Export Plug-In . SVG Version: 6.00 Build 0)  -->
<!DOCTYPE svg PUBLIC "-//W3C//DTD SVG 1.1//EN" "http://www.w3.org/Graphics/SVG/1.1/DTD/svg11.dtd">
<svg version="1.1" id="Layer_10" xmlns="http://www.w3.org/2000/svg" xmlns:xlink="http://www.w3.org/1999/xlink" x="0px" y="0px"
	 width="100px" height="100px" viewBox="0 0 100 100" enable-background="new 0 0 100 100" xml:space="preserve">
<path d="M32.393,18.721c-0.166,0-0.317,0.025-0.478,0.035c3.165-5.131,8.822-8.564,15.294-8.564c6.473,0,12.129,3.434,15.295,8.564
	c-0.16-0.01-0.312-0.035-0.478-0.035h-9.485c-1.128,0-2.128,0.246-2.945,0.721c-1.72-0.236-3.322-0.217-4.688,0.047
	c-0.831-0.502-1.871-0.768-3.029-0.768H32.393z M46.932,23.596v3.555c0,1.184-0.701,5.053-9.716,5.053
	c-3.766,0-6.27-0.699-7.817-1.713c1.141,8.83,8.671,15.656,17.811,15.656c9.116,0,16.629-6.791,17.801-15.586
	c-1.404,0.918-3.744,1.643-7.646,1.643c-7.282,0-9.877-2.609-9.877-5.053v-3.557C47.294,23.586,47.106,23.588,46.932,23.596z
	 M56.749,87.094c0,0.695,0.146,1.355,0.405,1.957h-40.59v-18.66c0-12.691,10.326-23.018,23.018-23.018h15.254
	c6.371,0,12.143,2.604,16.314,6.801h-1.633c-0.567,0-1.097,0.146-1.573,0.385c-3.562-2.955-8.131-4.734-13.108-4.734h-3.381v6.943
	H51.19L47.402,86.6h9.392C56.771,86.764,56.749,86.928,56.749,87.094z M46.949,86.6l-3.788-29.832h-0.198v-6.943h-3.381
	c-11.341,0-20.566,9.227-20.566,20.566V86.6H46.949z M28.564,26.844v-4.02c0-1.963,1.467-3.186,3.828-3.186h9.485
	c1.127,0,2.095,0.301,2.771,0.854c1.441-0.359,3.271-0.391,5.229-0.076c0.675-0.51,1.588-0.777,2.663-0.777h9.485
	c2.361,0,3.828,1.223,3.828,3.186v4.02c0,2.361-3.253,3.828-8.49,3.828c-5.255,0-8.651-1.502-8.651-3.828v-4.02
	c0-0.234,0.022-0.461,0.065-0.678c-1.231-0.137-2.398-0.086-3.133,0.033c0.04,0.207,0.061,0.422,0.061,0.645v4.02
	c0,2.361-3.253,3.828-8.49,3.828C31.96,30.672,28.564,29.17,28.564,26.844z M49.938,26.844c0,1.293,2.551,2.602,7.426,2.602
	c4.991,0,7.265-1.35,7.265-2.602v-4.02c0-1.768-1.82-1.959-2.603-1.959h-9.485c-0.882,0-1.618,0.23-2.07,0.65l-0.219,0.203
	l-0.107,0.205c-0.139,0.264-0.206,0.557-0.206,0.9V26.844z M29.79,26.844c0,1.293,2.551,2.602,7.426,2.602
	c4.991,0,7.265-1.35,7.265-2.602v-4.02c0-0.313-0.061-0.596-0.179-0.844l-0.097-0.205l-0.172-0.184
	c-0.438-0.469-1.203-0.727-2.155-0.727h-9.485c-0.782,0-2.603,0.191-2.603,1.959V26.844z M24.254,64.535h15.322v17.568H24.254
	V64.535z M26.705,79.652h10.42V66.986h-10.42V79.652z M73.288,77.227c0-0.457,0.371-0.828,0.828-0.828
	c0.456,0,0.827,0.371,0.827,0.828s-0.371,0.828-0.827,0.828C73.659,78.055,73.288,77.684,73.288,77.227z M73.84,77.227
	c0,0.152,0.124,0.275,0.276,0.275s0.275-0.123,0.275-0.275s-0.123-0.275-0.275-0.275S73.84,77.074,73.84,77.227z M69.841,77.227
	c0.456,0,0.827,0.371,0.827,0.828c0,0.453-0.371,0.826-0.827,0.826s-0.827-0.373-0.827-0.826
	C69.014,77.598,69.385,77.227,69.841,77.227z M69.841,77.777c-0.151,0-0.276,0.123-0.276,0.277c0,0.15,0.125,0.275,0.276,0.275
	s0.275-0.125,0.275-0.275C70.116,77.9,69.992,77.777,69.841,77.777z M70.989,74.469c0-0.635,0.516-1.15,1.149-1.15
	s1.149,0.516,1.149,1.15c0,0.633-0.516,1.148-1.149,1.148S70.989,75.102,70.989,74.469z M71.541,74.469
	c0,0.328,0.269,0.598,0.598,0.598s0.599-0.27,0.599-0.598c0-0.33-0.27-0.6-0.599-0.6S71.541,74.139,71.541,74.469z M83.314,86.893
	l-6.972-17.664V59.035h0.846c0.609,0,1.103-0.494,1.103-1.104s-0.493-1.104-1.103-1.104h-1.949c-0.609,0-1.103,0.494-1.103,1.104
	v11.396c0,0.045,0.001,0.088,0.007,0.133l0.009,0.064c0.006,0.123,0.03,0.244,0.077,0.359l4.194,10.627h-14.64l4.06-10.639
	c0.049-0.127,0.081-0.307,0.081-0.441c0.012-0.063,0.016-0.125,0.016-0.188V57.932c0-0.609-0.493-1.104-1.104-1.104h-1.899
	c-0.608,0-1.103,0.494-1.103,1.104s0.494,1.104,1.103,1.104h0.797v10.123c-0.004,0.027-0.008,0.055-0.011,0.082l-6.74,17.664
	c-0.048,0.127-0.072,0.258-0.072,0.395c0,1.383,1.125,2.51,2.511,2.51h19.459c1.385,0,2.51-1.127,2.51-2.51
	C83.391,87.16,83.364,87.023,83.314,86.893z"/>
</svg>
