<?xml version="1.0" encoding="utf-8"?>
<!-- Generator: Adobe Illustrator 16.0.0, SVG Export Plug-In . SVG Version: 6.00 Build 0)  -->
<!DOCTYPE svg PUBLIC "-//W3C//DTD SVG 1.1//EN" "http://www.w3.org/Graphics/SVG/1.1/DTD/svg11.dtd">
<svg version="1.1" id="Layer_2" xmlns="http://www.w3.org/2000/svg" xmlns:xlink="http://www.w3.org/1999/xlink" x="0px" y="0px"
	 width="126px" height="126px" viewBox="0 0 126 126" enable-background="new 0 0 126 126" xml:space="preserve">
<g>
	<path d="M98.563,48.589L74.06,33.471c-0.003-0.135-0.002-0.263-0.007-0.399c-0.096-2.582-2.259-4.601-4.849-4.501
		c-0.213,0.008-0.42,0.034-0.625,0.069c0.798-2.174,1.242-4.517,1.242-6.963c0-11.204-9.115-20.317-20.319-20.317
		c-11.203,0-20.318,9.113-20.318,20.317s9.115,20.318,20.318,20.318c5.085,0,9.735-1.882,13.303-4.979
		c0.342,0.512,0.791,0.96,1.336,1.315c-0.485,1.238-1.233,1.854-2.078,2.281c-4.859,2.041-7.027,3.036-10.802,3.225l1.865,12.048
		l-2.905,3.977h-0.057l-2.906-3.977l1.438-12.2c-4.404-0.217-8.934-1.334-12.261-3.81c-6.608,5.978-8.913,13.586-11.17,28.976
		c-0.375,2.556,1.394,4.932,3.949,5.306c0.231,0.035,0.459,0.052,0.685,0.052c2.283,0,4.282-1.675,4.623-4.001
		c0.956-6.515,2.062-11.276,3.336-14.874v14.73c0,1.259,0.244,2.434,0.672,3.512c-0.033,0.244-0.056,0.489-0.056,0.742l0.003,44.795
		c0,3.055,2.476,5.528,5.529,5.528s5.529-2.475,5.528-5.528l-0.003-38.443c0.219,0.01,0.438,0.026,0.658,0.026
		c0.043,0,0.086-0.004,0.129-0.005l-0.001,38.422c0,3.054,2.475,5.528,5.528,5.528c0,0,0,0,0,0c3.053,0,5.528-2.475,5.528-5.528
		l0.002-44.521c0.725-1.343,1.146-2.861,1.146-4.527v-19.51c0.385-0.104,0.764-0.259,1.127-0.471
		c0.176-0.086,0.392-0.161,0.629-0.253c1.811-0.701,5.559-2.157,7.857-6.552l21.513,13.272c0.765,0.473,1.613,0.697,2.451,0.697
		c1.569,0,3.102-0.788,3.986-2.223C101.445,52.827,100.762,49.944,98.563,48.589z M49.501,37.778
		c-8.878,0-16.101-7.223-16.101-16.102c0-8.878,7.223-16.102,16.101-16.102c8.878,0,16.102,7.224,16.102,16.102
		C65.603,30.556,58.379,37.778,49.501,37.778z"/>
	<path d="M51.501,18.288c-3.084,0-5.585-1.142-5.585-2.551c0-0.117,0.023-0.231,0.057-0.345c-2.25,1.28-3.771,3.695-3.771,6.469
		c0,4.11,3.332,7.443,7.442,7.443s7.443-3.333,7.443-7.443c0-1.653-0.545-3.175-1.458-4.41
		C54.608,17.965,53.139,18.288,51.501,18.288z"/>
</g>
</svg>
