<?xml version="1.0" encoding="utf-8"?>
<!-- Generator: Adobe Illustrator 16.0.0, SVG Export Plug-In . SVG Version: 6.00 Build 0)  -->
<!DOCTYPE svg PUBLIC "-//W3C//DTD SVG 1.1//EN" "http://www.w3.org/Graphics/SVG/1.1/DTD/svg11.dtd">
<svg version="1.1" id="Layer_1" xmlns="http://www.w3.org/2000/svg" xmlns:xlink="http://www.w3.org/1999/xlink" x="0px" y="0px"
	 width="50px" height="50px" viewBox="0 0 50 50" enable-background="new 0 0 50 50" xml:space="preserve">
<g>
	<path d="M29.182,32.836v-5.271l1.382,0.571v-0.001c0.001,0,0.467,0.154,1.133,0.014c-1.395-1.083-3.068-1.962-4.919-2.432
		c2.168-1.459,3.661-4.335,3.661-6.925c0-3.656-2.964-6.619-6.618-6.619s-6.618,2.963-6.618,6.619c0,2.59,1.493,5.466,3.661,6.925
		c-5.184,1.315-9.026,5.815-9.026,9.151c0,1.972,5.99,2.955,11.981,2.954l-3.355-3.354l2.826-6.832H23.26l-1.098-1.259
		c0.531,0.19,1.084,0.306,1.658,0.306s1.126-0.114,1.656-0.305l-1.098,1.258h-0.027l2.826,6.832l-3.355,3.354
		c2.759-0.001,5.518-0.21,7.691-0.629C30.357,36.178,29.182,34.691,29.182,32.836z"/>
	<polygon points="23.82,37.825 23.822,37.823 23.818,37.823 	"/>
	<path d="M34.172,27.802c-1.995,2.084-3.99,1.259-3.99,1.259s0,0.783,0,3.775c0,2.994,3.99,4.989,3.99,4.989
		s3.991-1.995,3.991-4.989c0-2.992,0-3.775,0-3.775S36.169,29.886,34.172,27.802z M34.172,36.681
		c-1.119-0.678-2.99-2.163-2.99-3.845v-2.614c0.774-0.001,1.866-0.205,2.99-1.075V36.681z"/>
</g>
</svg>
