<?xml version="1.0" encoding="utf-8"?>
<!-- Generator: Adobe Illustrator 16.0.0, SVG Export Plug-In . SVG Version: 6.00 Build 0)  -->
<!DOCTYPE svg PUBLIC "-//W3C//DTD SVG 1.1//EN" "http://www.w3.org/Graphics/SVG/1.1/DTD/svg11.dtd">
<svg version="1.1" id="Layer_11" xmlns="http://www.w3.org/2000/svg" xmlns:xlink="http://www.w3.org/1999/xlink" x="0px" y="0px"
	 width="100px" height="100px" viewBox="0 0 100 100" enable-background="new 0 0 100 100" xml:space="preserve">
<path d="M81.494,70.14v20.523l-0.899-0.014l-1.036,0.527c-1.114,0.561-11.37,5.472-29.023,5.472c-10.605,0-21.714-1.79-33.018-5.321
	l-1.938-0.605l-0.159-1.074V70.14c0-9.195,5.198-17.77,13.319-22.105c-0.369-0.587-1.023-1.173-1.953-1.748
	c-2.477-1.529-2.693-2.922-2.438-3.82c0.404-1.424,2.246-2.273,4.929-2.273c4.089,0,8.681,1.82,12.356,4.885h13.006
	c3.674-3.064,8.266-4.885,12.355-4.885c2.682,0,4.524,0.85,4.929,2.273c0.255,0.898,0.04,2.291-2.437,3.82
	c-0.796,0.492-1.391,0.994-1.775,1.5C76.119,52.043,81.494,60.703,81.494,70.14z M75.912,31.544l0.028,2.994
	c0,0-2.866-2.425-6.606-4.854c0.367-1.568,0.578-3.196,0.578-4.877c0-0.313-0.033-0.617-0.047-0.927
	c4.521,0.115,7.75-0.882,8.42-2.952c1.177-3.634-5.979-9.21-16.033-12.543c-3.73-3.137-8.539-5.033-13.795-5.033
	c-11.849,0-21.454,9.605-21.454,21.455c0,5.12,1.8,9.816,4.793,13.504c3.722,0.507,7.626,2.167,10.918,4.705h11.25
	c3.369-2.6,7.383-4.283,11.185-4.744c1.088-1.347,2.013-2.83,2.754-4.416c1.063,1.176,2.178,2.508,3.344,4.024
	c10.499,13.667,13.333,5.328,13.333-6.336H75.912z"/>
</svg>
