<?xml version="1.0" encoding="utf-8"?>
<!-- Generator: Adobe Illustrator 16.0.0, SVG Export Plug-In . SVG Version: 6.00 Build 0)  -->
<!DOCTYPE svg PUBLIC "-//W3C//DTD SVG 1.1//EN" "http://www.w3.org/Graphics/SVG/1.1/DTD/svg11.dtd">
<svg version="1.1" id="Layer_3" xmlns="http://www.w3.org/2000/svg" xmlns:xlink="http://www.w3.org/1999/xlink" x="0px" y="0px"
	 width="126px" height="126px" viewBox="0 0 126 126" enable-background="new 0 0 126 126" xml:space="preserve">
<g>
	<circle cx="63.2" cy="14.257" r="12.72"/>
	<path d="M98.725,40.179c-11.289,0-16.661-3.453-23.461-7.826c-1.174-0.755-2.365-1.521-3.604-2.279
		c-0.213-0.131-0.438-0.225-0.66-0.319c-1.417-0.945-3.008-1.642-4.631-2.039L63.2,30.904l-3.073-3.225
		c-0.01,0.002-0.021,0.003-0.031,0.005c-1.505,0.36-2.982,0.982-4.321,1.817c-0.493,0.118-0.979,0.291-1.434,0.571
		c-1.238,0.759-2.43,1.524-3.604,2.279c-6.801,4.373-12.173,7.826-23.461,7.826c-2.728,0-4.938,2.211-4.938,4.938
		s2.211,4.938,4.938,4.938c10.424,0,17.195-2.58,22.905-5.779V66.85c0,1.328,0.258,2.567,0.71,3.708
		c-0.035,0.256-0.058,0.516-0.058,0.781l0.003,47.289c0,3.223,2.613,5.836,5.836,5.835c3.223,0,5.836-2.613,5.835-5.836
		l-0.001-19.758c0.073,0.082,0.142,0.166,0.221,0.244c1.139,1.137,2.631,1.706,4.124,1.706c1.495,0,2.99-0.571,4.13-1.713
		c0.053-0.053,5.357-5.368,10.55-10.827c11.486-12.073,12.357-13.787,11.698-17.161c-1.139-5.836-7.446-5.741-17.01-5.386V44.496
		c5.627,3.096,12.323,5.56,22.506,5.56c2.728,0,4.938-2.211,4.938-4.938S101.453,40.179,98.725,40.179z M62.72,90.859
		c-0.077,0.076-0.144,0.158-0.215,0.238l-0.001-13.054c0.231,0.011,0.462,0.028,0.695,0.028c0.197,0,0.393-0.017,0.589-0.024
		c0.29,0.022,0.584,0.03,0.883,0.009c3.583-0.27,7.535-0.492,11.042-0.624C71.95,81.467,67.129,86.443,62.72,90.859z"/>
</g>
</svg>
