<?xml version="1.0" encoding="utf-8"?>
<!-- Generator: Adobe Illustrator 16.0.0, SVG Export Plug-In . SVG Version: 6.00 Build 0)  -->
<!DOCTYPE svg PUBLIC "-//W3C//DTD SVG 1.1//EN" "http://www.w3.org/Graphics/SVG/1.1/DTD/svg11.dtd">
<svg version="1.1" id="Layer_1" xmlns="http://www.w3.org/2000/svg" xmlns:xlink="http://www.w3.org/1999/xlink" x="0px" y="0px"
	 width="50px" height="50px" viewBox="0 0 50 50" enable-background="new 0 0 50 50" xml:space="preserve">
<g>
	<path d="M28.838,19.787v-0.522h-7.522v0.522h-2.09v20.52h-0.912V15.791H16.14v-2.65h-2.148V8.619h-0.539v4.522h-2.148v2.65H9.131
		v25.59h9.183h0.912h11.706V19.787H28.838z M11.841,13.678h3.762v2.113h-3.762V13.678z M12.191,36.31h-1.986v-3.458h1.986V36.31z
		 M12.191,32.313h-1.986v-3.459h1.986V32.313z M12.191,28.317h-1.986v-3.458h1.986V28.317z M12.191,20.324h-1.986v-3.458h1.099
		h0.888V20.324z M14.715,40.307h-1.986v-3.459h1.986V40.307z M14.715,36.31h-1.986v-3.458h1.986V36.31z M14.715,24.321h-1.986
		v-3.459h1.986V24.321z M14.715,20.324h-1.986v-3.458h1.986V20.324z M17.239,36.31h-1.987v-3.458h1.987V36.31z M17.239,32.313
		h-1.987v-3.459h1.987V32.313z M17.239,28.317h-1.987v-3.458h1.987V28.317z M17.239,24.321h-1.987v-3.459h1.987V24.321z
		 M22.285,36.31H20.3v-3.458h1.985V36.31z M22.285,28.317H20.3v-3.458h1.985V28.317z M24.81,40.307h-1.987v-3.459h1.987V40.307z
		 M24.81,32.313h-1.987v-3.459h1.987V32.313z M24.81,24.321h-1.987v-3.459h1.987V24.321z M27.331,40.307h-1.984v-3.459h1.984V40.307
		z M27.331,36.31h-1.984v-3.458h1.984V36.31z M27.331,32.313h-1.984v-3.459h1.984V32.313z M27.331,28.317h-1.984v-3.458h1.984
		V28.317z M29.857,36.31h-1.989v-3.458h1.989V36.31z M29.857,28.317h-1.989v-3.458h1.989V28.317z M29.857,24.321h-1.989v-3.459
		h1.989V24.321z"/>
	<path d="M38.909,25.359c0.146,0.382,0.511,0.657,0.944,0.657c0.561,0,1.016-0.456,1.016-1.016c0-0.562-0.455-1.016-1.016-1.016
		c-0.434,0-0.798,0.274-0.944,0.657h-4.194v-9.312h4.194c0.146,0.383,0.511,0.658,0.944,0.658c0.561,0,1.016-0.455,1.016-1.016
		c0-0.562-0.455-1.016-1.016-1.016c-0.434,0-0.798,0.274-0.944,0.657h-4.552c-0.199,0-0.359,0.16-0.359,0.359v9.669h-2.146
		c-0.198,0-0.358,0.161-0.358,0.359s0.16,0.359,0.358,0.359h2.146v9.67c0,0.198,0.16,0.358,0.359,0.358h4.553
		c0.146,0.382,0.51,0.657,0.943,0.657c0.561,0,1.016-0.456,1.016-1.016c0-0.562-0.455-1.016-1.016-1.016
		c-0.434,0-0.799,0.275-0.944,0.658h-4.194v-9.312H38.909z"/>
</g>
</svg>
