<?xml version="1.0" encoding="utf-8"?>
<!-- Generator: Adobe Illustrator 16.0.0, SVG Export Plug-In . SVG Version: 6.00 Build 0)  -->
<!DOCTYPE svg PUBLIC "-//W3C//DTD SVG 1.1//EN" "http://www.w3.org/Graphics/SVG/1.1/DTD/svg11.dtd">
<svg version="1.1" id="Layer_3" xmlns="http://www.w3.org/2000/svg" xmlns:xlink="http://www.w3.org/1999/xlink" x="0px" y="0px"
	 width="126px" height="126px" viewBox="0 0 126 126" enable-background="new 0 0 126 126" xml:space="preserve">
<g>
	<path d="M36.553,71.654H12.629v-4.523c0.752,1.631,2.391,2.77,4.304,2.77h18.835c-0.558-1.566-0.823-3.236-0.757-4.923l0.18-4.57
		H16.933c-1.913,0-3.552,1.139-4.304,2.77V53.176v-2.497h-6v2.497H1.876v40.312h10.753V77.654h25.726v-3.38
		C37.643,73.475,37.048,72.589,36.553,71.654z"/>
	<path d="M118.686,50.679h-6v2.497v10.002c-0.751-1.632-2.39-2.771-4.304-2.771H94.063H74.863h-13.22l-0.221,5.608
		c-0.052,1.336-0.323,2.641-0.765,3.885h20.659h6.737h20.327c1.914,0,3.553-1.139,4.304-2.771v4.524H87.508h-5.645h-21.96
		c-0.017,0.03-0.027,0.063-0.043,0.092c1.368,1.693,2.911,3.669,4.615,5.908H82.07h5.225h25.391v15.833h10.754V53.176h-4.754V50.679
		z"/>
	<path d="M17.876,57.988h9.5c1.749,0,3.167-1.418,3.167-3.167c0-1.191-0.667-3.16-3.729-3.16s-2.484-0.007-2.484-0.007h-6.453
		c-1.749,0-3.167,1.418-3.167,3.167S16.127,57.988,17.876,57.988z"/>
	<circle cx="49.561" cy="18.687" r="11.772"/>
	<path d="M80.888,103.782c-0.058-0.08-0.116-0.16-0.177-0.238c-0.248-0.379-0.53-0.781-0.845-1.232
		c-0.671-0.961-1.634-2.336-2.806-3.994c-2.131-3.018-5.393-7.6-8.839-12.295c-4.819-6.574-8.279-11.041-10.808-14.111
		c1.189-1.701,1.924-3.748,2.011-5.975L60.276,44.3h23.038c2.762,0,5-2.239,5-5s-2.238-5-5-5h-25.75
		c-0.042,0-0.081,0.011-0.122,0.013c-0.189,0-0.381,0-0.562,0.001c-1.909-1.834-4.462-3.01-7.314-3.123
		C43.4,30.919,38.16,35.767,37.918,41.96L37.01,65.056c-0.129,3.283,1.176,6.283,3.345,8.422l0.007,39.793
		c0,3.213,2.604,5.814,5.815,5.814h0.001c3.212,0,5.815-2.604,5.815-5.816l-0.005-29.494c6.49,8.412,15.095,20.434,19.306,26.584
		c0.027,0.039,0.054,0.08,0.081,0.119c1.107,1.572,2.901,2.479,4.771,2.479c0.46,0,0.926-0.057,1.386-0.17
		c2.328-0.574,4.065-2.52,4.374-4.896c0.22-1.684-0.168-2.732-1.033-4.096L80.888,103.782z"/>
	<path d="M84.957,14.062c-0.917,3.79-1.274,4.688-1.784,8.082c0.205,0.695,0.308,1.044,0.513,1.733
		c2.32-0.245,3.481-0.367,5.802-0.612c-0.181-0.498-0.271-0.765-0.451-1.334c-1.587,0.003-2.381-0.017-3.968-0.108
		c0.626-2.872,1.041-4.037,2.072-8.02c-0.143-0.836-0.214-1.263-0.356-2.142c-2.683-0.282-4.023-0.426-6.706-0.709
		c0.26,0.939,0.39,1.407,0.649,2.336C82.42,13.646,83.266,13.799,84.957,14.062z"/>
	<path d="M91.64,17.862c-0.866,2.437-1.246,2.973-1.901,4.464c0.122,0.371,0.182,0.549,0.304,0.881
		c1.883-0.199,2.825-0.299,4.708-0.498c-0.099-0.292-0.146-0.464-0.244-0.861c-1.148,0.073-1.723,0.104-2.871,0.148
		c0.716-1.351,1.123-2.08,2.038-4.382c-0.084-0.668-0.127-1.021-0.212-1.766c-2.048-0.124-3.071-0.206-5.119-0.45
		c0.156,0.936,0.233,1.385,0.389,2.255C89.894,17.774,90.477,17.815,91.64,17.862z"/>
	<path d="M97.604,17.729c-1.068,2.177-1.551,3.101-2.409,4.291c0.07,0.282,0.104,0.408,0.175,0.624
		c1.883-0.199,2.824-0.299,4.707-0.497c-0.031-0.349-0.046-0.54-0.077-0.96c-1.148,0.17-1.723,0.256-2.871,0.412
		c0.913-1.303,1.42-2.27,2.533-4.312c-0.027-0.556-0.039-0.846-0.066-1.453c-2.048,0.074-3.072,0.176-5.12,0.069
		c0.089,0.855,0.133,1.256,0.221,1.999C95.858,17.89,96.44,17.83,97.604,17.729z"/>
	<path d="M103.568,17.093c-1.271,1.828-1.855,2.826-2.918,4.239c0.019,0.319,0.026,0.469,0.045,0.751
		c1.883-0.198,2.824-0.298,4.707-0.496c0.037-0.494,0.055-0.74,0.091-1.237c-1.148,0.176-1.721,0.264-2.869,0.439
		c1.112-1.513,1.718-2.499,3.029-4.127c0.03-0.433,0.045-0.651,0.074-1.087c-2.048,0.087-3.071,0.14-5.119,0.221
		c0.021,0.683,0.032,1.007,0.053,1.629C101.824,17.297,102.405,17.229,103.568,17.093z"/>
	<path d="M110.988,19.635c-1.148,0.105-1.723,0.154-2.871,0.321c1.311-1.726,2.017-2.652,3.526-3.753
		c0.086-0.308,0.129-0.455,0.216-0.736c-2.048-0.053-3.072-0.015-5.12,0.067c-0.046,0.479-0.067,0.722-0.113,1.208
		c1.163-0.128,1.744-0.189,2.907-0.295c-1.476,1.403-2.161,2.396-3.427,4.092c-0.034,0.392-0.051,0.588-0.085,0.982
		c1.884-0.198,2.825-0.299,4.708-0.497C110.833,20.45,110.885,20.174,110.988,19.635z"/>
	<path d="M115.496,16.303c-1.679,0.814-2.463,1.832-3.932,3.581c-0.086,0.421-0.13,0.635-0.216,1.075
		c1.883-0.198,2.824-0.298,4.708-0.496c0.17-0.498,0.256-0.739,0.426-1.216c-1.148,0.052-1.723,0.085-2.871,0.169
		c1.509-1.619,2.313-2.475,4.021-3.116c0.145-0.209,0.216-0.31,0.359-0.503c-2.048-0.178-3.071-0.23-5.119-0.3
		c-0.113,0.308-0.169,0.473-0.282,0.813C113.753,16.281,114.333,16.276,115.496,16.303z"/>
	<path d="M119.004,15.891c-0.181,0.222-0.271,0.337-0.451,0.578c1.163,0.104,1.745,0.173,2.908,0.365
		c-1.882,0.518-2.771,1.178-4.441,2.648c-0.138,0.36-0.207,0.543-0.345,0.915c1.883-0.199,2.825-0.299,4.708-0.497
		c0.238-0.292,0.356-0.438,0.594-0.722c-1.148-0.03-1.722-0.03-2.87-0.014c1.706-1.209,2.608-1.523,4.515-2.021
		c0.201-0.221,0.302-0.328,0.503-0.543C122.076,16.231,121.052,16.095,119.004,15.891z"/>
</g>
</svg>
