<?xml version="1.0" encoding="utf-8"?>
<!-- Generator: Adobe Illustrator 16.0.0, SVG Export Plug-In . SVG Version: 6.00 Build 0)  -->
<!DOCTYPE svg PUBLIC "-//W3C//DTD SVG 1.1//EN" "http://www.w3.org/Graphics/SVG/1.1/DTD/svg11.dtd">
<svg version="1.1" id="Layer_3" xmlns="http://www.w3.org/2000/svg" xmlns:xlink="http://www.w3.org/1999/xlink" x="0px" y="0px"
	 width="126px" height="126px" viewBox="0 0 126 126" enable-background="new 0 0 126 126" xml:space="preserve">
<g>
	<path d="M52.36,80.619c1.407-1.311,2.471-3.025,2.933-5.181l2.508-11.706c2.988,2.608,7.471,4.384,14.275,4.384
		c3.083,0,5.581-2.499,5.581-5.581c0-3.082-2.498-5.581-5.581-5.581c-8.56,0-8.805-3.124-9.396-10.67
		c-0.107-1.369-0.218-2.784-0.414-4.165c-0.037-0.26-0.098-0.51-0.167-0.755c-0.474-4.417-3.961-8.051-7.603-9.816
		c0,0-1.386-0.761-2.968-1.063c-1.514-0.289-3.268-0.299-3.268-0.299l-0.042-0.002c-1.549,0.045-3.184,0.345-4.738,0.911
		c-0.465,0.065-0.93,0.184-1.383,0.373c-0.65,0.271-16.059,6.769-27.436,16.997c-2.292,2.061-2.479,5.589-0.418,7.881
		c1.102,1.226,2.623,1.85,4.151,1.85c1.329,0,2.663-0.472,3.729-1.431c3.737-3.36,8.077-6.305,12.045-8.676l-4.676,21.822
		c-0.707,3.301,0.33,6.326,2.293,8.714c-0.916,8.862-2.363,19.01-3.217,21.101c-0.925,1.874-6.905,7.602-12.799,12.259
		c-2.857,2.258-3.345,6.405-1.087,9.264c1.302,1.648,3.231,2.508,5.181,2.508c1.431,0,2.871-0.463,4.082-1.419
		c4.273-3.374,14.466-11.839,16.806-17.556c1.099-2.683,2.088-8.349,2.856-13.894l19.582,25.55c1.299,1.695,3.258,2.584,5.24,2.584
		c1.399,0,2.811-0.444,4.007-1.361c2.892-2.216,3.439-6.356,1.224-9.248L52.36,80.619z"/>
	<circle cx="57.698" cy="16.622" r="14.376"/>
	<path d="M101.637,78.846c-6.368,0-11.549,5.183-11.549,11.55c0,6.368,5.181,11.55,11.549,11.55c6.367,0,11.55-5.182,11.55-11.55
		C113.187,84.029,108.004,78.846,101.637,78.846z M98.09,81.708c0.085-0.167,0.459-0.901,0.771-1.51
		c0.115-0.229,0.223-0.439,0.304-0.595l0.039-0.078l0.086-0.019c1.498-0.319,3.067-0.319,4.578-0.001l0.083,0.018l0.678,1.226
		c0.241,0.438,0.462,0.836,0.528,0.955l0.103,0.186l-0.363,0.142c-0.154,0.06-0.382,0.147-0.646,0.251l-0.173,0.067
		c-0.735,0.287-1.679,0.655-2.127,0.828c-0.145,0.058-0.238,0.094-0.259,0.102l-0.068,0.026l-0.161-0.065l-2.411-0.939
		c-0.315-0.122-0.582-0.227-0.739-0.289c-0.039-0.014-0.075-0.028-0.101-0.038l-0.212-0.084L98.09,81.708z M93.224,90.515
		l-0.181,0.227c-0.139,0.175-0.239,0.302-0.28,0.351l-0.127,0.154l-0.145-0.137c-0.013-0.012-0.026-0.026-0.038-0.037l-1.291-1.248
		c-0.102-0.098-0.199-0.191-0.285-0.275L90.619,89.3l0.009-0.088c0.147-1.534,0.608-2.995,1.373-4.346l0.043-0.077l2.765-0.478
		v0.227l0.08,1.147c0.065,0.911,0.146,2.06,0.165,2.368c0.003,0.019,0.004,0.041,0.004,0.057l0.004,0.07l-0.031,0.063
		c-0.016,0.023-0.059,0.076-0.124,0.159l-0.179,0.223C94.347,89.104,93.677,89.944,93.224,90.515z M98.028,100.109
		c-0.211,0.108-0.408,0.21-0.569,0.29l-0.076,0.039l-0.077-0.033c-1.426-0.602-2.69-1.489-3.761-2.633l-0.063-0.067l0.093-0.581
		l0.354-2.216l1.833,0.497c0.782,0.211,1.591,0.43,1.808,0.489l0.12,0.028l0.112,0.177l0.351,0.556
		c0.303,0.478,0.709,1.12,1.027,1.624l0.192,0.304c0.088,0.139,0.162,0.255,0.215,0.34l0.038,0.061
		c0.016,0.024,0.027,0.043,0.036,0.055l0.124,0.176L98.028,100.109z M99.4,93.362l-0.041-0.129
		c-0.044-0.137-0.533-1.638-0.902-2.773l-0.456-1.403l0.111-0.078c0.162-0.113,2.381-1.68,3.153-2.228
		c0.137-0.096,0.229-0.162,0.257-0.18l0.104-0.073l0.106,0.072c0.028,0.019,0.121,0.084,0.258,0.181
		c0.773,0.549,2.992,2.116,3.153,2.229l0.11,0.077l-0.053,0.173l-0.516,1.58c-0.263,0.807-0.556,1.704-0.701,2.152l-0.131,0.402
		H99.4z M109.741,97.633c-1.053,1.167-2.368,2.112-3.809,2.735l-0.079,0.035l-0.077-0.039c-0.174-0.086-0.388-0.193-0.609-0.303
		l-1.686-0.839l2.081-3.296l0.07-0.018c0.043-0.011,0.441-0.119,0.955-0.258l1.755-0.475c0.366-0.1,0.656-0.179,0.766-0.208
		l0.182-0.049l0.064,0.178l0.081,0.438c0.064,0.352,0.154,0.85,0.233,1.297c0.044,0.24,0.084,0.466,0.117,0.644l0.016,0.09
		L109.741,97.633z M112.001,89.912l-1.379,1.332l-0.128-0.148c-0.018-0.02-0.042-0.051-0.071-0.092l-0.066-0.083
		c-0.104-0.126-0.251-0.311-0.419-0.523c-0.447-0.564-1.057-1.326-1.412-1.772c-0.125-0.157-0.218-0.275-0.263-0.332l-0.069-0.087
		l0.006-0.15l0.239-3.418c0.002-0.044,0.006-0.083,0.009-0.11l0.021-0.211l0.198,0.032c0.179,0.032,0.992,0.172,1.69,0.292
		c0.18,0.032,0.351,0.062,0.501,0.087l0.246,0.043l0.043,0.076c0.783,1.375,1.251,2.874,1.391,4.453l0.008,0.089l-0.065,0.062
		C112.344,89.579,112.18,89.739,112.001,89.912z"/>
	<path d="M86.869,94.973c-0.405,0.227-0.976,0.554-1.628,0.967c-0.668,0.394-1.41,0.915-2.21,1.454
		c-0.405,0.26-0.795,0.578-1.201,0.88c-0.403,0.306-0.813,0.616-1.222,0.927c-0.389,0.337-0.777,0.675-1.159,1.008
		c-0.374,0.341-0.771,0.635-1.099,0.993c-0.333,0.348-0.654,0.684-0.96,1.001c-0.297,0.324-0.603,0.602-0.839,0.906
		c-0.911,1.224-1.518,2.04-1.518,2.04s0.717-0.709,1.791-1.772c0.271-0.258,0.616-0.488,0.951-0.756
		c0.34-0.261,0.698-0.538,1.069-0.823c0.361-0.294,0.798-0.524,1.204-0.796c0.414-0.263,0.833-0.528,1.254-0.795
		c0.438-0.238,0.876-0.477,1.308-0.71c0.433-0.229,0.845-0.474,1.273-0.664c0.844-0.399,1.619-0.785,2.31-1.062
		c0.684-0.3,1.251-0.519,1.645-0.667c0.408-0.15,0.642-0.237,0.642-0.237l-0.991-2.236C87.489,94.63,87.264,94.755,86.869,94.973z"
		/>
</g>
</svg>
