<?xml version="1.0" encoding="utf-8"?>
<!-- Generator: Adobe Illustrator 16.0.0, SVG Export Plug-In . SVG Version: 6.00 Build 0)  -->
<!DOCTYPE svg PUBLIC "-//W3C//DTD SVG 1.1//EN" "http://www.w3.org/Graphics/SVG/1.1/DTD/svg11.dtd">
<svg version="1.1" id="Layer_12" xmlns="http://www.w3.org/2000/svg" xmlns:xlink="http://www.w3.org/1999/xlink" x="0px" y="0px"
	 width="100px" height="100px" viewBox="0 0 100 100" enable-background="new 0 0 100 100" xml:space="preserve">
<path d="M91.19,73.588v15.706H8.81V73.588h66.858c0.03-3.324-0.523-7.079-2.625-9.851c-1.854-2.444-4.709-3.817-8.492-4.104
	c-0.31,0.585-0.905,0.996-1.613,0.996H59.77c-1.021,0-1.848-0.827-1.848-1.849s0.827-1.849,1.848-1.849h3.168
	c0.827,0,1.501,0.552,1.737,1.3c4.193,0.319,7.385,1.877,9.493,4.657c2.339,3.087,2.954,7.144,2.925,10.698H91.19z M50,45.079
	c9.491,0,17.187-7.694,17.187-17.187S59.491,10.706,50,10.706c-9.493,0-17.187,7.694-17.187,17.187S40.507,45.079,50,45.079z
	 M71.051,65.398c-1.231-1.623-3.046-2.607-5.526-2.99c-0.736,0.557-1.638,0.872-2.587,0.872H59.77c-2.397,0-4.348-1.951-4.348-4.349
	s1.951-4.349,4.348-4.349h3.168c1.257,0,2.412,0.543,3.213,1.442c3.755,0.512,6.786,1.978,9.042,4.366
	c-0.007-0.089-0.004-0.18-0.012-0.269l-0.791-3.935c-1.929-6.202-6.958-11.046-13.271-12.716c-2.92,2.724-6.822,4.404-11.119,4.404
	c-4.298,0-8.202-1.681-11.119-4.404c-8.122,2.147-14.137,9.537-14.137,18.322v9.443h48.313
	C72.804,68.805,72.124,66.813,71.051,65.398z"/>
</svg>
