<?xml version="1.0" encoding="utf-8"?>
<!-- Generator: Adobe Illustrator 16.0.0, SVG Export Plug-In . SVG Version: 6.00 Build 0)  -->
<!DOCTYPE svg PUBLIC "-//W3C//DTD SVG 1.1//EN" "http://www.w3.org/Graphics/SVG/1.1/DTD/svg11.dtd">
<svg version="1.1" id="Layer_1" xmlns="http://www.w3.org/2000/svg" xmlns:xlink="http://www.w3.org/1999/xlink" x="0px" y="0px"
	 width="50px" height="50px" viewBox="0 0 50 50" enable-background="new 0 0 50 50" xml:space="preserve">
<g>
	<path d="M25,9.5C16.453,9.5,9.5,16.453,9.5,25S16.453,40.5,25,40.5S40.5,33.547,40.5,25S33.547,9.5,25,9.5z M37.672,32.03
		l-1.02-0.589l-0.25,0.433l1.01,0.583c-1.225,2.03-2.928,3.733-4.958,4.957l-0.583-1.009l-0.434,0.25l0.589,1.02
		c-2.016,1.122-4.323,1.771-6.778,1.813v-1.175h-0.5v1.175c-2.455-0.042-4.762-0.693-6.776-1.814l0.588-1.018l-0.434-0.25
		l-0.582,1.007c-4.145-2.5-6.943-7.001-7.031-12.164l1.174,0v-0.5l-1.174,0c0.042-2.455,0.692-4.763,1.814-6.777l1.019,0.588
		l0.25-0.433l-1.009-0.583c1.225-2.03,2.928-3.733,4.958-4.958l0.582,1.009l0.434-0.25l-0.588-1.019
		c2.015-1.122,4.322-1.772,6.777-1.814v1.175h0.5v-1.175c5.162,0.089,9.665,2.888,12.164,7.034l-1.01,0.583l0.25,0.433l1.02-0.589
		c1.122,2.015,1.771,4.323,1.813,6.778h-1.176v0.5h1.176C39.444,27.708,38.794,30.015,37.672,32.03z"/>
	<path d="M20.907,28.12c-0.479-0.054-0.91-0.291-1.212-0.668c-0.013-0.016-0.021-0.035-0.033-0.051l-2.915,1.97l-0.444-0.77
		l-2.417,3.662l4.379-0.264l-0.515-0.892l3.818-2.581l0.037-0.463c-0.157,0.044-0.324,0.068-0.495,0.068L20.907,28.12z"/>
	<path d="M28.934,16.186l-1.29,2.234c0.64,0.166,1.118,0.329,1.212,0.362l0.13,0.047l0.188,0.124
		c0.02,0.006,0.124,0.062,0.234,0.155c0.039,0.034,0.064,0.063,0.095,0.094l1.164-2.017l0.834,0.481l0.262-4.38l-3.66,2.418
		L28.934,16.186z"/>
	<path d="M24.999,18.86c1.131,0,2.049-1.312,2.049-2.444c0-1.132-0.918-2.05-2.049-2.05c-1.132,0-2.051,0.918-2.051,2.05
		C22.948,17.548,23.867,18.86,24.999,18.86z"/>
	<path d="M29.011,20.286c-0.015-0.059-0.027-0.116-0.055-0.169c-0.022-0.043-0.054-0.077-0.084-0.115
		c-0.034-0.045-0.065-0.091-0.108-0.128c-0.04-0.034-0.087-0.054-0.132-0.08c-0.039-0.022-0.07-0.054-0.115-0.07
		c-0.073-0.026-1.704-0.611-3.203-0.688l-0.207,0.412h-0.005l0.546,4.251l-0.648,1.133l-0.648-1.133l0.546-4.251H24.89l-0.205-0.412
		c-1.499,0.077-3.13,0.662-3.203,0.688c-0.046,0.017-0.08,0.049-0.121,0.073c-0.042,0.024-0.086,0.043-0.124,0.075
		c-0.045,0.039-0.078,0.086-0.114,0.134c-0.027,0.036-0.059,0.068-0.08,0.109c-0.027,0.054-0.04,0.113-0.056,0.172
		c-0.01,0.037-0.03,0.069-0.034,0.108l-0.648,5.836c-0.05,0.445,0.271,0.845,0.716,0.895c0.03,0.003,0.06,0.005,0.091,0.005
		c0.406,0,0.758-0.307,0.804-0.721l0.591-5.316c0.069-0.021,0.145-0.042,0.225-0.065v5.532l-0.646,8.021
		c-0.043,0.535,0.356,1.004,0.892,1.047c0.027,0.002,0.053,0.003,0.079,0.003c0.502,0,0.928-0.386,0.969-0.895l0.583-7.25
		c0.12,0.053,0.253,0.084,0.393,0.084s0.272-0.031,0.393-0.084l0.583,7.25c0.041,0.509,0.467,0.895,0.969,0.895
		c0.026,0,0.052-0.001,0.079-0.003c0.535-0.043,0.935-0.512,0.892-1.047l-0.646-8.021v-5.532c0.08,0.023,0.155,0.045,0.225,0.065
		l0.591,5.316c0.046,0.414,0.397,0.721,0.804,0.721c0.031,0,0.061-0.001,0.091-0.005c0.445-0.05,0.766-0.45,0.716-0.895
		l-0.648-5.836C29.042,20.356,29.021,20.323,29.011,20.286z"/>
</g>
</svg>
