<svg width="64" xmlns="http://www.w3.org/2000/svg" height="64" viewBox="0 0 64 64" xmlns:xlink="http://www.w3.org/1999/xlink" enable-background="new 0 0 64 64">
<g fill="#0e0f0f">
<path d="m13.285,15.873c.202,.138 .429,.228 .679,.27 .062,.011 .129,.008 .192,.012-.001,.633 .145,1.432 .802,1.879 .202,.138 .428,.228 .679,.27 .962,.164 2.301-.368 4.127-1.628 5.08-3.505 5.75-4.412 6.341-5.212 .063-.086 .126-.169 .193-.256 .525-.665 .511-1.759-.033-2.491-.179-.241-.573-.641-1.261-.768 .02-.487-.114-.995-.411-1.394-.301-.404-1.205-1.263-3.095-.514-.056,.021-.1,.058-.144,.092-.607-.389-1.301-.666-2.057-.794-3.021-.514-5.896,1.526-6.41,4.547-.16,.945-.072,1.875 .219,2.723-.254,.035-.463,.214-.523,.476-.048,.205-.428,2.019 .702,2.788zm2.377,1.126c-.228-.154-.271-.631-.243-1.041 .147-.05 .3-.104 .458-.172 .479,.241 1.001,.417 1.558,.511 .166,.028 .331,.045 .496,.059-1.641,.937-2.169,.71-2.269,.643zm7.564-5.354c-.076,.447-.215,.867-.399,1.26-.849,.668-2.041,1.544-3.775,2.74-.034,.023-.065,.043-.1,.066-.46,.056-.935,.049-1.412-.032-.322-.055-.63-.142-.924-.253 .452-.245 .94-.543 1.476-.912 2.907-2.006 4.366-3.159 5.197-3.93 .015,.348-.002,.703-.063,1.061zm.617,.105c.101-.591 .102-1.176 .018-1.74 .249-.273 .414-.496 .571-.708 .034-.046 .07-.092 .104-.139 .281-.002 .551,.068 .722,.3 .225,.302 .215,.768 .056,.968-.076,.097-.146,.191-.218,.288-.248,.338-.532,.719-1.34,1.422 .033-.13 .066-.258 .087-.391zm-.257-4.448c.155,.208 .192,.492 .15,.716-.16,.041-.327,.094-.506,.162-.221-.403-.475-.787-.787-1.125 .415-.096 .886-.1 1.143,.247zm-.955,1.048c.063,.108 .105,.228 .159,.342-.017,.106-.017,.216 .026,.323 .024,.063 .065,.112 .105,.162-.633,.691-1.92,1.808-5.543,4.307-.91,.627-1.584,.987-2.085,1.189-.298-.238-.564-.513-.799-.812l8.137-5.511zm-8.08,6.498c-.023,.014-.043,.032-.065,.049-.301,.033-.45-.029-.496-.06-.211-.143-.264-.565-.247-.952 .23,.35 .503,.673 .808,.963z"/>
<path d="m45.783,52.635l-7.547-20.188c.248-1.245-.168-2.639-1.254-3.349l-1.742-4.662c1.359-.011 2.83-.878 3.059-2.283 .539-3.311 .709-7.776-2.891-9.494-3.458-1.647-7.372,.157-10.477,1.782-.449,.235-.792,.526-1.041,.851-.87,.354-1.647,.93-2.185,1.696-.46,.225-.887,.577-1.238,1.083-3.214,4.614-1.645,8.757 1.732,11.778-.014,1.571-.119,3.153-.323,4.763-.038,.304-.031,.603 .009,.893-3.914,5.058-7.579,10.339-12.056,14.916-2.826,2.888 1.6,7.318 4.428,4.428 4.653-4.758 8.427-10.276 12.519-15.514 .021-.001 .042-.002 .063-.003 .678,4.001-.902,7.691-4.831,10.599-3.207,2.374-.09,7.814 3.161,5.408 7.227-5.351 9.868-12.918 6.804-20.789 1.154,.229 2.273,.348 3.306,.341 .734-.005 1.332-.219 1.801-.56l6.824,20.81h8.141l1.566-2.506h-7.828zm-13.517-34.677c-.037-.057-.032-.071 0,0zm-.685,10.08c-.097-3.095-.53-6.169-1.269-9.223 .252-.099 .507-.19 .768-.275 .104-.034 .959-.226 .983-.258 .08,.001 .188,.005 .295,.01 .004,.019 .006,.033 .01,.047 .012,.171 .014,.343 .016,.515h-.379l.336,1.021c-.021,.205-.047,.409-.08,.613-.23,1.417 .229,2.824 1.438,3.527l1.512,4.61c-.914-.002-2.24-.204-3.63-.587z"/>
<path d="m33.619,55.923h6.043v2.817h-6.043z"/>
</g>
</svg>
