<?xml version="1.0" encoding="utf-8"?>
<!-- Generator: Adobe Illustrator 16.0.0, SVG Export Plug-In . SVG Version: 6.00 Build 0)  -->
<!DOCTYPE svg PUBLIC "-//W3C//DTD SVG 1.1//EN" "http://www.w3.org/Graphics/SVG/1.1/DTD/svg11.dtd">
<svg version="1.1" id="Layer_1" xmlns="http://www.w3.org/2000/svg" xmlns:xlink="http://www.w3.org/1999/xlink" x="0px" y="0px"
	 width="126px" height="126px" viewBox="0 0 126 126" enable-background="new 0 0 126 126" xml:space="preserve">
<g>
	<path d="M104.179,13.524c-1.513-2.362-4.654-3.053-7.017-1.54L70.445,29.086c-1.16-0.636-2.4-1.121-3.661-1.43l-3.258,3.281
		l-3.16-3.317c-0.011,0.002-0.022,0.003-0.032,0.006c-1.49,0.356-2.952,0.963-4.289,1.774L28.837,11.985
		c-2.362-1.513-5.504-0.823-7.017,1.54c-1.512,2.363-0.822,5.503,1.541,7.017l26.865,17.196c-0.054,0.422-0.09,0.851-0.09,1.292
		v28.878c0,1.309,0.238,2.537,0.666,3.668l-15.041,45.816c-1.034,3.149,0.681,6.541,3.83,7.575c0.622,0.204,1.253,0.301,1.874,0.301
		c2.523,0,4.872-1.604,5.703-4.132l13.759-41.91c0.852,0.147,1.723,0.224,2.6,0.224c1.147,0,2.281-0.14,3.379-0.388l13.813,42.074
		c0.831,2.528,3.179,4.132,5.703,4.132c0.621,0,1.252-0.097,1.874-0.301c3.15-1.034,4.865-4.426,3.831-7.575L76.647,70.25
		c0.171-0.748,0.269-1.528,0.269-2.342V39.029c0-0.656-0.071-1.289-0.188-1.903l25.91-16.584
		C105.001,19.028,105.691,15.887,104.179,13.524z M63.557,56.83h-0.061l-3.155-4.318l3.155-21.09h0.061l3.155,21.09L63.557,56.83z"
		/>
	<circle cx="63.525" cy="13.814" r="13.083"/>
</g>
</svg>
