<?xml version="1.0" encoding="utf-8"?>
<!-- Generator: Adobe Illustrator 16.0.0, SVG Export Plug-In . SVG Version: 6.00 Build 0)  -->
<!DOCTYPE svg PUBLIC "-//W3C//DTD SVG 1.1//EN" "http://www.w3.org/Graphics/SVG/1.1/DTD/svg11.dtd">
<svg version="1.1" id="Layer_1" xmlns="http://www.w3.org/2000/svg" xmlns:xlink="http://www.w3.org/1999/xlink" x="0px" y="0px"
	 width="126px" height="126px" viewBox="0 0 126 126" enable-background="new 0 0 126 126" xml:space="preserve">
<g>
	<path d="M22.056,113.453l17.689,11.142l6.379-10.129l-17.689-11.141L22.056,113.453z M25.659,114.528l-2.208-1.392l1.391-2.21
		C25.859,111.824,26.191,113.279,25.659,114.528z M42.519,113.392l2.21,1.392l-1.391,2.208
		C42.318,116.097,41.988,114.641,42.519,113.392z M40.818,120.99l-1.391,2.209l-2.209-1.392
		C38.116,120.789,39.57,120.46,40.818,120.99z M36.381,110.322c2.009,1.266,2.611,3.92,1.346,5.93
		c-1.266,2.01-3.92,2.611-5.929,1.346c-2.009-1.265-2.612-3.918-1.348-5.929C31.716,109.659,34.372,109.058,36.381,110.322z
		 M30.961,106.111c-0.897,1.019-2.354,1.35-3.601,0.817l1.391-2.21L30.961,106.111z"/>
	<path d="M32.482,115.846l-0.425,0.676l0.583,0.368l0.443-0.702c0.441,0.2,0.84,0.275,1.189,0.217
		c0.377-0.063,0.675-0.263,0.882-0.593c0.169-0.269,0.229-0.552,0.179-0.845c-0.051-0.286-0.23-0.635-0.548-1.061l-0.146-0.193
		l0.644-1.021c0.272,0.218,0.523,0.479,0.746,0.782l0.055,0.076l0.753-0.548l-0.054-0.076c-0.275-0.386-0.616-0.724-1.014-1.006
		l0.334-0.531l-0.584-0.367l-0.343,0.544c-0.403-0.187-0.781-0.258-1.125-0.214c-0.375,0.049-0.667,0.235-0.869,0.554
		c-0.185,0.294-0.253,0.598-0.206,0.905c0.045,0.303,0.206,0.641,0.48,1.007l0.166,0.215l-0.665,1.057
		c-0.162-0.114-0.331-0.263-0.503-0.441c-0.2-0.21-0.364-0.416-0.486-0.613l-0.08-0.128l-0.537,0.852l0.034,0.049
		C31.622,115.166,31.991,115.515,32.482,115.846z M34.101,112.471c0.06-0.095,0.142-0.148,0.255-0.166
		c0.094-0.017,0.206-0.002,0.332,0.042l-0.489,0.776c-0.092-0.14-0.146-0.256-0.164-0.346
		C34.016,112.673,34.036,112.573,34.101,112.471z M34.077,114.61c0.098,0.145,0.164,0.265,0.188,0.361
		c0.029,0.11,0.012,0.213-0.051,0.313c-0.048,0.075-0.187,0.295-0.647,0.134L34.077,114.61z"/>
	<path d="M38.688,74.715l-18.381,4.761l0.082,9.576l18.381-4.76L38.688,74.715z M21.203,80.055l2.296-0.594
		c-0.179,1.119-1.102,2.203-2.277,2.682L21.203,80.055z M21.272,88.012l-0.017-2.088c1.179-0.134,2.114,0.471,2.313,1.493
		L21.272,88.012z M29.57,85.322c-2.088,0.541-3.794-0.56-3.811-2.46c-0.016-1.899,1.663-3.878,3.752-4.418
		c2.088-0.541,3.792,0.561,3.809,2.461S31.657,84.783,29.57,85.322z M37.806,75.755l0.018,2.089
		c-1.179,0.133-2.115-0.472-2.314-1.494L37.806,75.755z M35.579,84.309c0.18-1.121,1.102-2.207,2.279-2.684l0.017,2.09
		L35.579,84.309z"/>
	<path d="M30.029,81.421l-0.197-0.018l-0.009-0.966c0.305-0.048,0.614-0.056,0.923-0.027l0.078,0.011l0.296-0.772l-0.075-0.008
		c-0.388-0.047-0.801-0.021-1.228,0.069l-0.004-0.503l-0.607,0.157l0.005,0.516c-0.387,0.143-0.703,0.34-0.935,0.576
		c-0.254,0.262-0.383,0.543-0.379,0.843c0.002,0.278,0.095,0.491,0.277,0.634c0.176,0.139,0.456,0.227,0.831,0.261l0.226,0.019
		l0.009,0.999c-0.173,0.036-0.369,0.059-0.583,0.064c-0.246,0.009-0.466-0.005-0.65-0.038l-0.12-0.022l0.007,0.806l0.048,0.007
		c0.344,0.053,0.781,0.019,1.304-0.101l0.006,0.639l0.606-0.157l-0.006-0.664c0.422-0.162,0.752-0.369,0.984-0.616
		c0.25-0.268,0.375-0.563,0.373-0.877c-0.002-0.253-0.092-0.447-0.269-0.581C30.766,81.544,30.468,81.461,30.029,81.421z
		 M28.938,81.259c-0.065-0.045-0.095-0.112-0.096-0.21c-0.001-0.09,0.034-0.171,0.109-0.248c0.063-0.068,0.151-0.132,0.267-0.184
		l0.007,0.734C29.09,81.331,28.994,81.299,28.938,81.259z M29.846,83.016l-0.008-0.762c0.143,0.018,0.247,0.044,0.312,0.083
		c0.073,0.042,0.109,0.11,0.11,0.205C30.262,82.613,30.263,82.821,29.846,83.016z"/>
	<path d="M39.119,23.372l-5.803-7.62L21.449,30.573l5.803,7.62L39.119,23.372z M36.791,21.782l1.266,1.663l-1.483,1.851
		C36.046,24.29,36.133,22.869,36.791,21.782z M33.233,17.113l1.266,1.662c-0.865,0.813-1.976,0.889-2.749,0.188L33.233,17.113z
		 M28.202,24.235c1.348-1.684,3.373-1.823,4.523-0.312c1.153,1.512,0.992,4.102-0.356,5.784s-3.373,1.823-4.525,0.313
		C26.693,28.509,26.853,25.92,28.202,24.235z M23.78,32.162l-1.266-1.661l1.482-1.852C24.524,29.654,24.434,31.074,23.78,32.162z
		 M28.818,34.98l-1.483,1.852L26.07,35.17C26.935,34.356,28.045,34.279,28.818,34.98z"/>
	<path d="M28.618,27.488c0.168,0.222,0.371,0.336,0.602,0.341c0.225,0.007,0.5-0.092,0.822-0.288l0.191-0.121l0.605,0.796
		c-0.117,0.132-0.261,0.268-0.427,0.4c-0.192,0.154-0.377,0.274-0.545,0.358l-0.109,0.055l0.488,0.64l0.042-0.023
		c0.307-0.164,0.638-0.452,0.984-0.861l0.389,0.507l0.391-0.488l-0.403-0.527c0.241-0.383,0.381-0.746,0.419-1.084
		c0.04-0.362-0.036-0.674-0.228-0.925c-0.153-0.2-0.341-0.303-0.562-0.304c-0.215,0.003-0.504,0.115-0.877,0.345l-0.169,0.104
		l-0.585-0.768c0.215-0.222,0.458-0.412,0.722-0.575l0.069-0.038l-0.226-0.796l-0.066,0.038c-0.338,0.195-0.654,0.463-0.941,0.791
		l-0.305-0.4l-0.392,0.49l0.313,0.41c-0.224,0.347-0.358,0.692-0.403,1.021C28.37,26.947,28.437,27.25,28.618,27.488z M31.046,26.97
		c0.084-0.011,0.153,0.022,0.21,0.098c0.044,0.057,0.169,0.223-0.048,0.627l-0.462-0.605C30.87,27.018,30.97,26.977,31.046,26.97z
		 M29.268,26.151l0.446,0.584c-0.12,0.063-0.216,0.096-0.285,0.097c-0.079,0.004-0.144-0.032-0.203-0.111
		c-0.055-0.07-0.076-0.156-0.062-0.263C29.174,26.365,29.206,26.262,29.268,26.151z"/>
	<path d="M30.734,93.012l10.719,8.211l5.329-4.241l-10.72-8.212L30.734,93.012z M33.042,94.077l-1.338-1.026l1.162-0.926
		C33.457,92.729,33.528,93.517,33.042,94.077z M44.474,95.918l1.339,1.025l-1.162,0.925C44.06,97.266,43.989,96.477,44.474,95.918z
		 M41.385,100.47l-1.34-1.026c0.709-0.392,1.72-0.351,2.502,0.1L41.385,100.47z M40.673,93.474c1.217,0.934,1.347,2.37,0.291,3.212
		c-1.059,0.842-2.902,0.769-4.119-0.165c-1.217-0.932-1.348-2.37-0.291-3.212C37.611,92.467,39.455,92.54,40.673,93.474z
		 M37.469,90.552c-0.707,0.39-1.717,0.348-2.501-0.102l1.163-0.925L37.469,90.552z"/>
	<path d="M37.485,95.728l-0.356,0.283l0.354,0.271l0.37-0.295c0.274,0.165,0.535,0.26,0.774,0.282
		c0.26,0.021,0.48-0.036,0.655-0.176c0.141-0.112,0.21-0.247,0.207-0.405c-0.004-0.152-0.088-0.354-0.258-0.618l-0.078-0.118
		l0.537-0.428c0.161,0.148,0.301,0.319,0.42,0.505l0.028,0.047l0.563-0.172l-0.027-0.045c-0.145-0.236-0.34-0.458-0.578-0.658
		l0.28-0.224l-0.354-0.271l-0.287,0.229c-0.25-0.154-0.498-0.244-0.731-0.271c-0.259-0.028-0.473,0.024-0.639,0.157
		c-0.156,0.123-0.233,0.269-0.234,0.433c-0.001,0.159,0.073,0.354,0.218,0.579l0.09,0.135l-0.557,0.442
		c-0.096-0.082-0.194-0.181-0.291-0.298c-0.114-0.135-0.203-0.263-0.264-0.382l-0.041-0.076l-0.448,0.355l0.018,0.03
		C36.979,95.257,37.189,95.487,37.485,95.728z M38.919,94.241c0.05-0.04,0.11-0.057,0.188-0.049c0.064,0.005,0.14,0.026,0.219,0.07
		l-0.409,0.324c-0.046-0.084-0.071-0.15-0.074-0.2C38.842,94.33,38.866,94.284,38.919,94.241z M38.682,95.327
		c0.053,0.087,0.083,0.157,0.089,0.21c0.009,0.061-0.014,0.109-0.067,0.151c-0.039,0.032-0.155,0.124-0.447-0.023L38.682,95.327z"/>
	<path d="M76.086,113.804l10.679,8.18l5.308-4.226l-10.678-8.182L76.086,113.804z M78.386,114.863l-1.333-1.022l1.158-0.92
		C78.799,113.521,78.87,114.307,78.386,114.863z M89.775,116.697l1.333,1.021l-1.158,0.923
		C89.361,118.04,89.29,117.254,89.775,116.697z M86.696,121.233l-1.333-1.022c0.705-0.39,1.712-0.35,2.493,0.099L86.696,121.233z
		 M85.987,114.263c1.213,0.931,1.342,2.361,0.289,3.2c-1.054,0.839-2.891,0.765-4.102-0.164c-1.213-0.93-1.343-2.362-0.291-3.199
		C82.937,113.26,84.774,113.334,85.987,114.263z M82.796,111.352c-0.703,0.389-1.709,0.347-2.492-0.1l1.159-0.923L82.796,111.352z"
		/>
	<path d="M82.812,116.508l-0.354,0.282l0.353,0.27l0.367-0.292c0.275,0.163,0.534,0.258,0.772,0.279
		c0.26,0.021,0.478-0.037,0.653-0.176c0.14-0.11,0.21-0.246,0.207-0.402c-0.005-0.152-0.089-0.355-0.258-0.616l-0.077-0.119
		l0.535-0.426c0.16,0.149,0.3,0.319,0.419,0.504l0.027,0.046l0.56-0.17l-0.027-0.045c-0.144-0.235-0.338-0.456-0.574-0.656
		l0.277-0.222l-0.353-0.27l-0.286,0.228c-0.249-0.154-0.496-0.242-0.729-0.27c-0.258-0.028-0.47,0.023-0.637,0.155
		c-0.153,0.123-0.232,0.268-0.233,0.432c0,0.159,0.073,0.354,0.218,0.577l0.089,0.134l-0.555,0.44
		c-0.095-0.081-0.193-0.181-0.291-0.296c-0.112-0.135-0.201-0.262-0.262-0.381l-0.041-0.075l-0.445,0.354l0.018,0.03
		C82.307,116.039,82.516,116.269,82.812,116.508z M84.24,115.027c0.05-0.041,0.11-0.056,0.187-0.048
		c0.066,0.005,0.139,0.027,0.219,0.069l-0.408,0.323c-0.046-0.083-0.07-0.151-0.072-0.199
		C84.163,115.116,84.188,115.07,84.24,115.027z M84.004,116.109c0.052,0.086,0.083,0.156,0.09,0.209
		c0.009,0.061-0.014,0.109-0.066,0.151c-0.04,0.031-0.156,0.124-0.447-0.024L84.004,116.109z"/>
	<path d="M95.015,57.27l-5.309,4.228l10.679,8.18l5.308-4.226L95.015,57.27z M92.005,62.557l-1.333-1.021l1.158-0.921
		C92.418,61.214,92.49,62,92.005,62.557z M95.083,58.022l1.333,1.022c-0.703,0.389-1.709,0.347-2.491-0.1L95.083,58.022z
		 M95.793,64.992c-1.213-0.93-1.343-2.362-0.29-3.199c1.053-0.84,2.891-0.766,4.104,0.164c1.212,0.93,1.342,2.36,0.289,3.199
		C98.842,65.995,97.005,65.921,95.793,64.992z M100.316,68.927l-1.334-1.022c0.705-0.39,1.712-0.35,2.493,0.1L100.316,68.927z
		 M103.394,64.391l1.334,1.021l-1.158,0.923C102.981,65.733,102.91,64.947,103.394,64.391z"/>
	<path d="M99.035,62.68l0.277-0.222l-0.353-0.27l-0.286,0.228c-0.248-0.154-0.495-0.242-0.728-0.27
		c-0.258-0.028-0.471,0.023-0.637,0.155c-0.153,0.123-0.232,0.268-0.233,0.432c0,0.16,0.074,0.354,0.218,0.577l0.088,0.134
		l-0.555,0.44c-0.095-0.081-0.193-0.18-0.29-0.296c-0.112-0.135-0.201-0.262-0.262-0.381l-0.041-0.075l-0.446,0.354l0.019,0.03
		c0.12,0.215,0.329,0.445,0.625,0.684l-0.354,0.282l0.353,0.271l0.367-0.293c0.275,0.163,0.534,0.258,0.772,0.279
		c0.26,0.021,0.479-0.036,0.653-0.176c0.14-0.11,0.21-0.246,0.207-0.402c-0.005-0.152-0.09-0.355-0.258-0.616l-0.077-0.118
		l0.535-0.427c0.16,0.15,0.3,0.319,0.418,0.504l0.027,0.047l0.56-0.171l-0.027-0.045C99.465,63.101,99.271,62.88,99.035,62.68z
		 M97.647,64.163c-0.04,0.031-0.157,0.124-0.447-0.024l0.423-0.336c0.052,0.086,0.083,0.156,0.089,0.209
		C97.722,64.072,97.699,64.121,97.647,64.163z M97.858,63.065c-0.046-0.083-0.07-0.15-0.073-0.199
		c-0.003-0.056,0.022-0.103,0.075-0.146c0.05-0.041,0.11-0.056,0.187-0.048c0.066,0.005,0.139,0.027,0.219,0.069L97.858,63.065z"/>
	<path d="M77.511,101.606l20.153,6.008l0.036-10.835l-20.154-6.006L77.511,101.606z M96.722,97.403l-0.008,2.362
		c-1.292-0.581-2.306-1.838-2.51-3.112L96.722,97.403z M96.699,104.043l-0.007,2.362l-2.518-0.749
		C94.387,104.504,95.407,103.854,96.699,104.043z M87.618,95.302c2.289,0.683,4.139,2.977,4.132,5.126
		c-0.008,2.147-1.869,3.337-4.158,2.653c-2.289-0.681-4.139-2.975-4.131-5.123C83.467,95.809,85.329,94.621,87.618,95.302z
		 M78.519,91.979l2.517,0.751c-0.212,1.148-1.233,1.802-2.525,1.611L78.519,91.979z M78.497,98.617
		c1.29,0.582,2.304,1.838,2.508,3.113l-2.517-0.75L78.497,98.617z"/>
	<path d="M87.256,101.309l-0.003,0.723l0.666,0.198l0.003-0.752c0.463,0.08,0.827,0.053,1.083-0.083
		c0.276-0.148,0.417-0.403,0.417-0.758c0.001-0.286-0.095-0.56-0.286-0.817c-0.188-0.251-0.512-0.527-0.99-0.845l-0.217-0.143
		l0.003-1.093c0.333,0.136,0.672,0.317,1.009,0.541l0.084,0.057l0.336-0.685l-0.083-0.056c-0.423-0.288-0.873-0.519-1.342-0.681
		l0.001-0.568l-0.666-0.198l-0.002,0.583c-0.424-0.076-0.771-0.051-1.027,0.072c-0.282,0.135-0.426,0.375-0.427,0.714
		c0,0.314,0.098,0.61,0.294,0.883c0.191,0.267,0.497,0.538,0.905,0.811l0.246,0.158l-0.003,1.128
		c-0.19-0.064-0.403-0.161-0.636-0.286c-0.271-0.143-0.51-0.292-0.711-0.446l-0.13-0.099l-0.004,0.912l0.054,0.039
		C86.206,100.89,86.685,101.124,87.256,101.309z M87.928,99.793c0.154,0.108,0.268,0.205,0.338,0.285
		c0.08,0.095,0.118,0.192,0.118,0.3c0,0.082-0.001,0.317-0.459,0.278L87.928,99.793z M86.957,98.119
		c-0.07-0.093-0.105-0.189-0.104-0.297c0-0.103,0.04-0.171,0.123-0.215c0.069-0.038,0.167-0.051,0.292-0.042l-0.002,0.832
		C87.12,98.29,87.016,98.196,86.957,98.119z"/>
	<path d="M77.434,86.439l17.135-2.938l0.03-9.195l-17.135,2.938L77.434,86.439z M93.767,75.223l-0.006,2.006
		c-1.098,0.022-1.96-0.64-2.133-1.638L93.767,75.223z M93.749,80.858l-0.007,2.007l-2.141,0.366
		C91.783,82.174,92.65,81.215,93.749,80.858z M86.028,77.069c1.944-0.335,3.518,0.874,3.512,2.697
		c-0.006,1.825-1.589,3.574-3.536,3.908c-1.944,0.334-3.518-0.874-3.511-2.698C82.499,79.152,84.082,77.404,86.028,77.069z
		 M78.292,77.879l2.14-0.368c-0.18,1.06-1.048,2.019-2.146,2.373L78.292,77.879z M78.273,83.514
		c1.096-0.022,1.959,0.641,2.132,1.639l-2.14,0.367L78.273,83.514z"/>
	<path d="M85.72,82.305l-0.001,0.614l0.564-0.098l0.003-0.639c0.394-0.116,0.704-0.284,0.922-0.503
		c0.234-0.236,0.354-0.507,0.355-0.808c0.001-0.243-0.081-0.437-0.243-0.581c-0.16-0.138-0.435-0.242-0.841-0.32l-0.185-0.034
		l0.002-0.927c0.284-0.018,0.572,0,0.859,0.057l0.071,0.013l0.285-0.712l-0.071-0.015c-0.358-0.076-0.743-0.092-1.141-0.044
		l0.001-0.479l-0.565,0.095l-0.002,0.495c-0.362,0.107-0.656,0.266-0.874,0.472c-0.24,0.227-0.362,0.488-0.363,0.775
		c0,0.267,0.083,0.479,0.25,0.632c0.162,0.148,0.422,0.257,0.771,0.325l0.208,0.035l-0.002,0.959
		c-0.162,0.02-0.344,0.023-0.542,0.012c-0.231-0.014-0.433-0.046-0.605-0.096l-0.111-0.031l-0.003,0.774l0.046,0.011
		C84.828,82.368,85.235,82.375,85.72,82.305z M86.291,80.753c0.132,0.03,0.229,0.065,0.288,0.105
		c0.069,0.05,0.101,0.117,0.101,0.208c0,0.069-0.001,0.27-0.391,0.419L86.291,80.753z M85.464,79.72
		c-0.058-0.05-0.087-0.119-0.086-0.21c0-0.085,0.033-0.159,0.104-0.23c0.059-0.06,0.144-0.111,0.249-0.152l-0.002,0.707
		C85.605,79.801,85.517,79.763,85.464,79.72z"/>
	<circle cx="62.64" cy="13.507" r="12.102"/>
	<path d="M82.021,69.252c0.235,0,0.473-0.018,0.712-0.054c2.565-0.391,4.329-2.786,3.938-5.352
		c-3.209-21.094-5.969-29.149-15.983-35.291c-0.202-0.124-0.414-0.213-0.625-0.302c-1.349-0.9-2.864-1.564-4.41-1.942l-3.014,3.035
		l-2.923-3.069c-0.01,0.003-0.02,0.003-0.03,0.006c-1.475,0.354-2.922,0.967-4.226,1.799c-0.375,0.113-0.745,0.259-1.095,0.474
		c-10.013,6.142-12.773,14.197-15.982,35.291c-0.391,2.565,1.373,4.961,3.938,5.352c0.239,0.036,0.477,0.054,0.712,0.054
		c2.283,0,4.286-1.666,4.639-3.992c0.883-5.807,1.72-10.304,2.581-13.856v12.141c0,1.265,0.246,2.442,0.676,3.528
		c-0.033,0.242-0.056,0.49-0.056,0.742l0.003,44.991c0,3.066,2.487,5.552,5.553,5.552c3.067,0,5.553-2.485,5.552-5.552
		l-0.002-38.612c0.22,0.011,0.439,0.028,0.661,0.028c0.043,0,0.086-0.005,0.129-0.005l-0.001,38.589
		c0,3.066,2.485,5.552,5.552,5.552h0c3.066,0,5.552-2.485,5.552-5.552l0.002-44.715c0.727-1.349,1.151-2.874,1.151-4.547V52.352
		c0.782,3.396,1.549,7.607,2.355,12.908C77.736,67.586,79.738,69.252,82.021,69.252z M62.669,53.297h-0.057l-2.918-3.993
		l2.918-19.509h0.057l2.918,19.509L62.669,53.297z"/>
</g>
</svg>
