<?xml version="1.0" encoding="utf-8"?>
<!-- Generator: Adobe Illustrator 16.0.0, SVG Export Plug-In . SVG Version: 6.00 Build 0)  -->
<!DOCTYPE svg PUBLIC "-//W3C//DTD SVG 1.1//EN" "http://www.w3.org/Graphics/SVG/1.1/DTD/svg11.dtd">
<svg version="1.1" id="Layer_1" xmlns="http://www.w3.org/2000/svg" xmlns:xlink="http://www.w3.org/1999/xlink" x="0px" y="0px"
	 width="126px" height="126px" viewBox="0 0 126 126" enable-background="new 0 0 126 126" xml:space="preserve">
<g>
	<path d="M71.143,29.513c-0.097-0.059-0.201-0.093-0.3-0.145c-1.421-0.94-3.015-1.634-4.64-2.032L63,30.56l-3.105-3.26
		c-0.011,0.003-0.021,0.003-0.031,0.006c-1.671,0.4-3.309,1.115-4.763,2.09c-0.08,0.043-0.165,0.069-0.242,0.117
		c-5.856,3.592-15.622,17.292-15.291,24.982c0.123,2.876,1.545,5.202,3.899,6.379c1.065,0.534,2.229,0.808,3.532,0.808
		c3.735,0,8.625-2.249,15.693-7.081c0.112-0.078,0.202-0.175,0.308-0.26c0.105,0.085,0.195,0.182,0.308,0.26
		c7.069,4.832,11.958,7.081,15.693,7.081c1.304,0,2.467-0.274,3.532-0.808c2.354-1.178,3.776-3.503,3.899-6.379
		C86.764,46.805,76.998,33.105,71.143,29.513z M75.162,50.185c-1.686-0.977-3.539-1.991-6.221-3.824
		c-1.864-1.275-4.272-1.094-5.941,0.257c-1.669-1.35-4.077-1.531-5.941-0.257c-2.682,1.833-4.712,3.035-6.221,3.824
		c-0.686,0.167-1.536-0.713,1.119-2.09c1.789-1.12,4.115-2.579,4.463-2.816c1.971-1.348,4.652-1.432,6.709-0.261
		c0.959-0.546,2.051-0.839,3.159-0.839c1.271,0,2.499,0.381,3.551,1.101c0.576,0.393,2.907,1.87,4.187,2.784
		C76.938,49.742,76.258,50.819,75.162,50.185z"/>
	<circle cx="63" cy="13.734" r="12.856"/>
	<path d="M49.842,62.772v4.119c0,1.343,0.26,2.595,0.717,3.748c-0.034,0.257-0.059,0.518-0.059,0.785l-0.042,47.795
		c-0.003,3.258,2.636,5.901,5.894,5.904c0,0,0.004,0,0.006,0c3.255,0,5.896-2.637,5.898-5.894l0.035-41.024
		c0.236,0.011,0.472,0.03,0.709,0.03c0.047,0,0.091-0.005,0.139-0.006l-0.002,40.995c0,3.258,2.641,5.899,5.898,5.899
		s5.899-2.641,5.899-5.899l0.001-47.503c0.773-1.431,1.223-3.052,1.223-4.83v-4.189c-3.401-0.803-7.569-2.928-13.029-6.622
		C57.519,59.876,53.294,62.019,49.842,62.772z"/>
</g>
</svg>
