<?xml version="1.0" encoding="utf-8"?>
<!-- Generator: Adobe Illustrator 16.0.0, SVG Export Plug-In . SVG Version: 6.00 Build 0)  -->
<!DOCTYPE svg PUBLIC "-//W3C//DTD SVG 1.1//EN" "http://www.w3.org/Graphics/SVG/1.1/DTD/svg11.dtd">
<svg version="1.1" id="Layer_3" xmlns="http://www.w3.org/2000/svg" xmlns:xlink="http://www.w3.org/1999/xlink" x="0px" y="0px"
	 width="126px" height="126px" viewBox="0 0 126 126" enable-background="new 0 0 126 126" xml:space="preserve">
<g>
	<circle cx="58.583" cy="32.848" r="10.524"/>
	<path d="M120.35,5.065V3.301h-11.419v11.007H17.069V3.301H5.65v1.765H1.701v24.713H5.65v1.765h11.419V20.536h12.665
		c-1.311,1.339-1.57,3.45-0.505,5.084l17.759,27.251c0.232,0.354,0.513,0.658,0.824,0.913v22.582c0,1.798,0.559,3.402,1.492,4.757
		l-12.54,35.12c-0.896,2.513,0.412,5.276,2.925,6.173c0.535,0.189,1.084,0.283,1.622,0.283c1.985,0,3.844-1.232,4.55-3.207
		l12.092-33.866c0.211,0.011,0.42,0.026,0.631,0.026c0.593,0,1.178-0.051,1.757-0.134l12.132,33.974
		c0.703,1.975,2.563,3.207,4.547,3.207c0.539,0,1.087-0.094,1.623-0.283c2.512-0.896,3.821-3.66,2.924-6.173L68.579,79.866
		c0.492-1.058,0.777-2.23,0.777-3.5V53.134c0-0.009-0.001-0.021-0.001-0.028c0.059-0.079,0.121-0.151,0.175-0.234L87.291,25.62
		c1.063-1.634,0.805-3.745-0.505-5.084h22.145v11.007h11.419v-1.765h3.949V5.065H120.35z M80.443,21.156L64.633,45.417
		c-1.067-0.651-2.236-1.141-3.427-1.434l-2.622,2.64l-2.541-2.668c-0.01,0.002-0.018,0.002-0.026,0.004
		c-1.386,0.33-2.742,0.929-3.945,1.742L36.076,21.156c-0.148-0.225-0.317-0.432-0.5-0.62h45.367
		C80.76,20.725,80.592,20.932,80.443,21.156z"/>
</g>
</svg>
