<?xml version="1.0" encoding="utf-8"?>
<!-- Generator: Adobe Illustrator 16.0.0, SVG Export Plug-In . SVG Version: 6.00 Build 0)  -->
<!DOCTYPE svg PUBLIC "-//W3C//DTD SVG 1.1//EN" "http://www.w3.org/Graphics/SVG/1.1/DTD/svg11.dtd">
<svg version="1.1" id="Layer_1" xmlns="http://www.w3.org/2000/svg" xmlns:xlink="http://www.w3.org/1999/xlink" x="0px" y="0px"
	 width="126px" height="126px" viewBox="0 0 126 126" enable-background="new 0 0 126 126" xml:space="preserve">
<g>
	<path d="M105.069,94.78c0.51-0.356,0.971-0.754,1.429-1.137c0.459-0.384,0.911-0.761,1.353-1.13
		c0.438-0.373,0.882-0.723,1.288-1.094c0.401-0.38,0.792-0.75,1.173-1.112c0.757-0.729,1.5-1.4,2.153-2.072
		c0.622-0.681,1.216-1.308,1.76-1.896l10.519,6.431l-4.969-21.064L97.74,76.982l10.24,5.695c-0.22,0.278-0.446,0.563-0.677,0.862
		c-0.539,0.651-1.162,1.302-1.792,2.014c-0.318,0.354-0.644,0.717-0.979,1.089c-0.341,0.365-0.719,0.709-1.089,1.078
		c-0.374,0.365-0.755,0.738-1.143,1.118c-0.39,0.382-0.779,0.779-1.216,1.135c-0.859,0.732-1.731,1.512-2.659,2.281
		c-0.958,0.73-1.944,1.481-2.95,2.248c-1.052,0.709-2.129,1.434-3.223,2.172c-1.139,0.669-2.278,1.391-3.47,2.054
		c-0.604,0.321-1.211,0.642-1.822,0.967c-0.608,0.326-1.222,0.656-1.861,0.938c-1.269,0.586-2.533,1.222-3.857,1.735
		c-0.658,0.271-1.315,0.544-1.974,0.815l-2.014,0.733c-2.686,0.99-5.449,1.779-8.187,2.505c-2.754,0.662-5.487,1.271-8.166,1.689
		c-2.673,0.458-5.284,0.757-7.766,1.001c-2.484,0.212-4.842,0.37-7.024,0.421c-2.181,0.071-4.185,0.065-5.962,0.023
		c-1.775-0.038-3.324-0.122-4.597-0.206c-2.55-0.175-3.993-0.38-3.993-0.38l-0.06,0.334c0,0,5.756,1.289,14.597,1.712
		c2.209,0.12,4.606,0.147,7.146,0.129c2.538-0.05,5.221-0.146,7.989-0.402c2.773-0.212,5.625-0.616,8.521-1.077
		c2.883-0.529,5.815-1.123,8.698-1.937l2.167-0.602c0.713-0.231,1.426-0.462,2.138-0.692c1.434-0.435,2.82-0.995,4.211-1.512
		c0.7-0.25,1.379-0.544,2.053-0.843c0.678-0.294,1.35-0.586,2.02-0.876c1.327-0.606,2.607-1.281,3.886-1.909
		c1.247-0.686,2.46-1.39,3.656-2.067c1.158-0.747,2.29-1.478,3.391-2.19C103.047,96.285,104.068,95.511,105.069,94.78z"/>
	<circle cx="19.769" cy="24.188" r="9.34"/>
	<path d="M25.982,35.802c-0.141-0.086-0.289-0.146-0.435-0.21c-1.053-0.701-2.24-1.226-3.452-1.521l-2.326,2.341l-2.257-2.368
		c-0.008,0.002-0.016,0.002-0.023,0.004c-1.215,0.291-2.407,0.812-3.466,1.521c-0.161,0.07-0.323,0.138-0.477,0.232
		C9.699,38.162,0.85,47.031,1.27,52.197c0.251,3.081,3.712,8.861,5.751,12.031c0.694,1.076,1.861,1.664,3.053,1.664
		c0.21,0,0.419-0.025,0.628-0.062c-0.006,0.091-0.014,0.181-0.014,0.271l0.003,34.724c0,2.367,1.919,4.284,4.285,4.284
		c2.368,0,4.286-1.919,4.286-4.285l-0.002-29.8c0.169,0.008,0.339,0.022,0.51,0.022c0.033,0,0.066-0.004,0.1-0.005l-0.001,29.783
		c0,2.366,1.917,4.285,4.285,4.285l0,0c2.366,0,4.285-1.919,4.285-4.285l0.001-34.643c0.067-0.128,0.128-0.261,0.187-0.394
		c0.274,0.063,0.551,0.104,0.828,0.104c1.192,0,2.36-0.587,3.052-1.664c2.042-3.17,5.501-8.95,5.752-12.031
		C38.68,47.031,29.83,38.162,25.982,35.802z M10.209,55.376c-0.852-1.58-1.477-2.903-1.665-3.568
		c0.217-0.632,0.826-1.626,1.665-2.758V55.376z M19.792,54.898h-0.044l-2.251-3.083l2.251-15.057h0.044l2.252,15.057L19.792,54.898z
		 M29.329,55.353v-6.289c0.827,1.118,1.431,2.101,1.65,2.731C30.779,52.49,30.164,53.8,29.329,55.353z"/>
	<circle cx="57.16" cy="30.508" r="7.786"/>
	<path d="M62.34,40.191c-0.117-0.073-0.24-0.121-0.362-0.176c-0.878-0.584-1.868-1.021-2.877-1.27L57.161,40.7l-1.882-1.975
		c-0.006,0.001-0.012,0.002-0.019,0.003c-1.013,0.242-2.008,0.678-2.889,1.27c-0.135,0.058-0.271,0.114-0.398,0.193
		c-3.209,1.968-10.586,9.36-10.235,13.667c0.209,2.569,3.093,7.388,4.795,10.031c0.577,0.898,1.551,1.387,2.545,1.387
		c0.174,0,0.349-0.021,0.523-0.051c-0.005,0.075-0.012,0.149-0.012,0.226l0.002,28.947c0,1.973,1.601,3.573,3.573,3.572
		c1.973,0,3.572-1.6,3.572-3.572l-0.002-24.843c0.143,0.006,0.283,0.018,0.426,0.018c0.027,0,0.056-0.003,0.083-0.003l-0.001,24.828
		c0,1.972,1.6,3.572,3.572,3.572c0.001,0,0.001,0,0.001,0c1.973,0,3.572-1.6,3.572-3.572l0.001-28.881
		c0.056-0.107,0.107-0.217,0.156-0.328c0.228,0.054,0.459,0.087,0.69,0.087c0.993,0,1.968-0.489,2.544-1.387
		c1.703-2.643,4.585-7.462,4.795-10.031C72.925,49.552,65.548,42.159,62.34,40.191z M49.191,56.51
		c-0.711-1.318-1.232-2.421-1.388-2.975c0.181-0.527,0.689-1.357,1.388-2.299V56.51z M57.179,56.111h-0.036l-1.878-2.57
		l1.878-12.552h0.036l1.878,12.552L57.179,56.111z M65.13,56.491v-5.243c0.69,0.931,1.193,1.75,1.376,2.276
		C66.34,54.104,65.825,55.195,65.13,56.491z"/>
	<circle cx="87.574" cy="37.908" r="5.855"/>
	<path d="M91.469,45.188c-0.088-0.054-0.181-0.091-0.272-0.13c-0.66-0.441-1.404-0.768-2.164-0.955l-1.459,1.468l-1.414-1.485
		c-0.005,0.002-0.01,0.002-0.014,0.003c-0.763,0.181-1.509,0.508-2.173,0.954c-0.101,0.043-0.203,0.086-0.299,0.145
		c-2.413,1.48-7.961,7.04-7.697,10.279c0.158,1.933,2.327,5.555,3.606,7.542c0.434,0.676,1.166,1.043,1.914,1.043
		c0.13,0,0.262-0.015,0.393-0.038c-0.004,0.057-0.008,0.114-0.008,0.17l0.001,21.77c0,1.484,1.204,2.687,2.688,2.686
		c1.484,0,2.686-1.203,2.686-2.686l-0.001-18.683c0.106,0.005,0.212,0.013,0.319,0.013c0.022,0,0.043-0.003,0.063-0.003v18.673
		c0,1.483,1.203,2.686,2.687,2.686l0,0c1.484,0,2.687-1.203,2.687-2.686l0.001-21.72c0.042-0.081,0.08-0.163,0.117-0.246
		c0.172,0.041,0.345,0.064,0.519,0.064c0.747,0,1.48-0.367,1.914-1.043c1.278-1.987,3.448-5.609,3.606-7.542
		C99.429,52.229,93.882,46.668,91.469,45.188z M81.581,57.46c-0.534-0.989-0.926-1.82-1.044-2.236
		c0.137-0.397,0.519-1.02,1.044-1.729V57.46z M87.589,57.161h-0.028l-1.412-1.933l1.412-9.439h0.028L89,55.228L87.589,57.161z
		 M93.567,57.446v-3.943c0.519,0.701,0.897,1.318,1.035,1.712C94.477,55.652,94.091,56.473,93.567,57.446z"/>
</g>
</svg>
