<?xml version="1.0" encoding="utf-8"?>
<!-- Generator: Adobe Illustrator 16.0.0, SVG Export Plug-In . SVG Version: 6.00 Build 0)  -->
<!DOCTYPE svg PUBLIC "-//W3C//DTD SVG 1.1//EN" "http://www.w3.org/Graphics/SVG/1.1/DTD/svg11.dtd">
<svg version="1.1" id="Layer_2" xmlns="http://www.w3.org/2000/svg" xmlns:xlink="http://www.w3.org/1999/xlink" x="0px" y="0px"
	 width="126px" height="126px" viewBox="0 0 126 126" enable-background="new 0 0 126 126" xml:space="preserve">
<g>
	<circle cx="62.413" cy="13.671" r="12.873"/>
	<path d="M89.598,65.6c-2.988-20.381-7.515-29.11-18.624-35.922c-0.216-0.132-0.441-0.227-0.667-0.324
		c-1.435-0.956-3.043-1.661-4.686-2.063l-3.208,3.228l-3.109-3.263c-0.01,0.002-0.022,0.003-0.032,0.006
		c-1.568,0.375-3.107,1.028-4.494,1.912c-0.006,0.002-0.011,0.004-0.015,0.005c-2.09,0.972-20.715,12.843-18.177,23.279
		c1.401,5.761,7.515,7.43,12.65,7.851v6.588c0,1.344,0.262,2.599,0.721,3.751c-0.036,0.26-0.061,0.523-0.061,0.791l0.005,47.857
		c0,3.262,2.645,5.906,5.905,5.906c3.264,0,5.906-2.645,5.906-5.907l-0.002-41.071c0.233,0.012,0.467,0.03,0.702,0.03
		c0.046,0,0.092-0.005,0.138-0.006l-0.002,41.047c0,3.262,2.645,5.907,5.908,5.907c3.261,0,5.905-2.645,5.905-5.907l0.002-47.563
		c0.772-1.434,1.224-3.058,1.224-4.836V49.683c1.599,3.992,2.964,9.477,4.12,17.367c0.365,2.486,2.499,4.273,4.939,4.273
		c0.241,0,0.485-0.017,0.73-0.054C88.108,70.869,89.998,68.33,89.598,65.6z M49.236,45.975v4.274
		c-1.369-0.152-2.22-0.378-2.715-0.558C46.929,48.695,47.943,47.374,49.236,45.975z M76.955,42.315l-9.542,20.727
		c-0.447,0.973-1.453,1.602-2.564,1.602c-0.439,0-0.866-0.094-1.27-0.279l-8.645-3.981c0.184-0.007,0.361-0.014,0.522-0.021
		c2.757-0.117,4.898-2.446,4.783-5.204c-0.116-2.757-2.47-4.911-5.204-4.782c-1.979,0.083-3.549,0.053-4.79-0.036l7.721-16.767
		c0.448-0.974,1.455-1.602,2.564-1.602c0.439,0,0.866,0.094,1.271,0.281l0.367,0.169l0.213-1.425h0.061l0.249,1.664l12.772,5.881
		C76.934,39.22,77.602,40.912,76.955,42.315z"/>
	<path d="M74.798,40.044l-13.664-6.291c-0.788-0.362-1.694-0.069-2.027,0.654l-6.95,15.097c0.872,0.018,1.854,0.012,2.992-0.035
		c0.088-0.005,0.18-0.006,0.271-0.006c3.163,0,5.744,2.484,5.878,5.657c0.1,2.383-1.235,4.497-3.235,5.513l5.987,2.756
		c0.786,0.362,1.694,0.07,2.028-0.654l9.542-20.726C75.953,41.287,75.584,40.406,74.798,40.044z"/>
</g>
</svg>
