<?xml version="1.0" encoding="utf-8"?>
<!-- Generator: Adobe Illustrator 17.0.0, SVG Export Plug-In . SVG Version: 6.00 Build 0)  -->
<!DOCTYPE svg PUBLIC "-//W3C//DTD SVG 1.1//EN" "http://www.w3.org/Graphics/SVG/1.1/DTD/svg11.dtd">
<svg version="1.1" id="Capa_1" xmlns="http://www.w3.org/2000/svg" xmlns:xlink="http://www.w3.org/1999/xlink" x="0px" y="0px"
	 width="64px" height="64px" viewBox="0 0 64 64" enable-background="new 0 0 64 64" xml:space="preserve">
<path fill="#0E0F0F" d="M36.994,20.387c1.983,0,3.591,1.608,3.591,3.591c0,1.983-1.608,3.591-3.591,3.591
	c-1.983,0-3.591-1.608-3.591-3.591C33.403,21.995,35.011,20.387,36.994,20.387z M46.353,42.703c-0.329,2.428-4.002,1.39-3.676-1.013
	c0.41-3.011,1.069-6.425-0.817-8.376l0.036,13.754v13.801c0,1.133-0.83,2.054-1.997,2.054s-2.112-0.921-2.112-2.054v-14.38
	c0,0-0.068-0.729-0.811-0.736c-0.744-0.009-0.724,0.702-0.724,0.702v14.377c0,1.134-0.945,2.055-2.112,2.055
	s-2.112-0.921-2.112-2.055l-0.069-14.834c0-0.141-0.015-10.029-0.018-12.663l0.068-1.279c-1.851,0.197-3.815-0.227-5.513-0.886
	c-0.904-0.352-1.227-1.448-1.573-2.261c-0.625-1.463-1.096-3.006-1.365-4.573c-0.152-0.885,0.364-1.491,1.048-1.758l-2.528-8.447
	l-1.055,0.27l0.608-0.768c-1.891,0.565-4.103-1.189-4.956-3.935c-0.855-2.757-0.012-5.469,1.884-6.057
	c1.255-0.39,2.655,0.254,3.708,1.532c0.584-1.952,1.94-3.311,3.475-3.257c1.984,0.072,3.508,2.468,3.406,5.353
	c-0.092,2.596-1.471,4.698-3.192,5.042l0.244,0.184l-0.334,0.086v9.896c0.047,0.011,0.096,0.022,0.142,0.036l3.624-6.365
	l-0.717-0.302l0.961-0.248c-1.225-0.949-1.289-3.163-0.09-5.106c1.257-2.034,3.409-2.983,4.807-2.12
	c1.399,0.864,1.514,3.212,0.257,5.246c-1.06,1.717-2.756,2.656-4.1,2.391l0.196,0.692l-0.741-0.312l-3.646,6.403
	c0.296,0.226,0.52,0.555,0.597,1.008c0.261,1.528,0.585,2.652,1.183,3.961c1.392,0.553,2.882,1.114,4.307,0.725
	c0.16-0.044,0.309-0.059,0.452-0.06c1.6-0.228,4.266-0.433,6.497-0.173c0.207-0.022,0.425-0.021,0.662,0.032
	c0.503,0.113,0.966,0.252,1.399,0.411c0.026,0.008,0.05,0.018,0.074,0.028C47.562,30.908,47.115,37.101,46.353,42.703z
	 M25.249,12.736l-1.184,0.303l0.63-0.796c-0.407-0.13-0.784-0.362-1.122-0.675c-0.241,0.688-0.623,1.257-1.125,1.64l0.042,0.141
	l0.668,0.503l-0.481,0.124l2.534,8.46c0.012-0.002,0.025-0.003,0.038-0.003V12.736z"/>
</svg>
