<?xml version="1.0" encoding="utf-8"?>
<!-- Generator: Adobe Illustrator 16.0.0, SVG Export Plug-In . SVG Version: 6.00 Build 0)  -->
<!DOCTYPE svg PUBLIC "-//W3C//DTD SVG 1.1//EN" "http://www.w3.org/Graphics/SVG/1.1/DTD/svg11.dtd">
<svg version="1.1" id="Layer_1" xmlns="http://www.w3.org/2000/svg" xmlns:xlink="http://www.w3.org/1999/xlink" x="0px" y="0px"
	 width="126px" height="126px" viewBox="0 0 126 126" enable-background="new 0 0 126 126" xml:space="preserve">
<g>
	<path d="M80.402,34.894c-0.786-2.517-3.389-3.959-5.911-3.358c-2.226-4.123-4.735-9.007-6.933-13.485
		c-0.179-0.367-0.403-0.698-0.654-0.999c-0.458-0.615-1.062-1.135-1.796-1.496c-2.47-1.212-5.454-0.194-6.667,2.275
		c-2.198,4.478-4.707,9.362-6.933,13.485c-2.527-0.604-5.125,0.843-5.911,3.358c-2.104,6.726-3.92,12.535,1.227,14.589
		c0.72,0.288,1.395,0.416,2.029,0.416c3.317,0,5.5-3.497,7.029-5.944c1.315-2.107,2.991-5.063,4.98-8.786
		c0.715-1.34,1.417-2.676,2.081-3.956c0.697,1.345,1.437,2.758,2.194,4.175c1.989,3.723,3.664,6.679,4.98,8.786
		c1.528,2.447,3.711,5.944,7.028,5.944c0.634,0,1.31-0.127,2.03-0.416C84.323,47.429,82.506,41.62,80.402,34.894z"/>
	<path d="M57.267,17.383c1.073-2.188,3.256-3.547,5.693-3.547c0.974,0,1.912,0.219,2.792,0.65c0.897,0.44,1.688,1.1,2.287,1.905
		c0.287,0.341,0.567,0.769,0.785,1.212c0.91,1.853,1.872,3.772,2.842,5.674c2.554-2.345,4.164-5.701,4.164-9.441
		C75.829,6.75,70.085,1.007,63,1.007S50.171,6.75,50.171,13.836c0,3.733,1.604,7.083,4.148,9.428
		C55.326,21.294,56.325,19.302,57.267,17.383z"/>
	<path d="M69.011,44.826c-1.335-2.14-3.026-5.123-5.026-8.867c-0.107-0.2-0.211-0.398-0.317-0.598l-1.323-0.072
		c-0.08,0.15-0.158,0.299-0.238,0.449c-2,3.745-3.691,6.728-5.026,8.866c-1.502,2.405-3.713,5.931-7.211,6.497v15.781
		c0,1.341,0.26,2.591,0.716,3.74c-0.036,0.261-0.06,0.524-0.06,0.794l0.049,47.697c0.003,3.248,2.638,5.88,5.887,5.88
		c0.002,0,0.004,0,0.006,0c3.25-0.003,5.883-2.642,5.88-5.893l-0.042-40.927c0.231,0.01,0.461,0.029,0.694,0.029
		c0.049,0,0.096-0.006,0.144-0.007l0.038,40.916c0.003,3.25,2.637,5.881,5.887,5.881c0.001,0,0.003,0,0.005,0
		c3.25-0.003,5.883-2.641,5.881-5.892l-0.043-47.399c0.771-1.429,1.22-3.046,1.22-4.82V51.305
		C72.687,50.693,70.501,47.21,69.011,44.826z"/>
</g>
</svg>
