<?xml version="1.0" encoding="utf-8"?>
<!-- Generator: Adobe Illustrator 16.0.0, SVG Export Plug-In . SVG Version: 6.00 Build 0)  -->
<!DOCTYPE svg PUBLIC "-//W3C//DTD SVG 1.1//EN" "http://www.w3.org/Graphics/SVG/1.1/DTD/svg11.dtd">
<svg version="1.1" id="Layer_1" xmlns="http://www.w3.org/2000/svg" xmlns:xlink="http://www.w3.org/1999/xlink" x="0px" y="0px"
	 width="126px" height="126px" viewBox="0 0 126 126" enable-background="new 0 0 126 126" xml:space="preserve">
<g>
	<path d="M53.488,46.717c3.147-0.654,5.58-2.758,6.511-5.628c0.05-0.15,0.091-0.301,0.125-0.455l4.942-22.295
		c0.593-2.666-1.089-5.306-3.755-5.897c-2.661-0.592-5.306,1.091-5.896,3.757l-3.612,16.286c-0.525-0.54-1.183-0.965-1.944-1.225
		c-2.586-0.88-5.392,0.501-6.272,3.085c-1.741,5.109,0.127,8.281,1.395,9.717c1.624,1.837,4.025,2.855,6.558,2.855
		C52.183,46.918,52.838,46.852,53.488,46.717z"/>
	<path d="M50.9,30.255c-0.007,0.004-0.011,0.008-0.018,0.013c0.004,0.001,0.009,0.003,0.013,0.004L50.9,30.255z"/>
	<path d="M52.152,24.609l1.92-8.665c0.634-2.857,3.216-4.932,6.14-4.932c0.458,0,0.917,0.051,1.366,0.15
		c1.641,0.364,3.041,1.345,3.946,2.762c0.902,1.418,1.198,3.102,0.836,4.743l-1.575,7.098c4.377-2.014,7.426-6.428,7.426-11.563
		c0-7.032-5.703-12.733-12.736-12.733c-7.032,0-12.732,5.701-12.732,12.733C46.742,18.507,48.883,22.305,52.152,24.609z"/>
	<path d="M67.365,29.775c-0.972-0.655-2.023-1.194-3.115-1.6l-2.835,12.788c-0.042,0.193-0.095,0.39-0.159,0.584
		c-1.08,3.332-3.89,5.773-7.516,6.527c-0.735,0.153-1.484,0.23-2.226,0.23c-1.819,0-3.564-0.462-5.072-1.308v19.856
		c0,1.331,0.259,2.571,0.711,3.712c-0.033,0.258-0.06,0.52-0.06,0.789l0.049,47.34c0.005,3.225,2.619,5.836,5.843,5.836
		c0,0,0.005,0,0.007,0c3.227-0.002,5.84-2.622,5.836-5.849l-0.04-40.622c0.228,0.01,0.457,0.029,0.687,0.029
		c0.05,0,0.098-0.006,0.145-0.007l0.037,40.61c0.002,3.226,2.618,5.837,5.843,5.837c0.002,0,0.004,0,0.006,0
		c3.226-0.002,5.839-2.621,5.836-5.848l-0.043-47.045c0.767-1.419,1.212-3.024,1.212-4.784v-5.078
		c-1.803,0.264-3.805,0.401-6.039,0.401c-3.469,0-6.291-2.822-6.291-6.292c0-3.469,2.822-6.292,6.291-6.292
		c2.952,0,4.85-0.278,6.039-0.569v-3.44c1.539,1.632,2.38,3.021,2.477,3.792c-0.466,0.348-2.475,1.494-8.599,1.494
		c-2.73,0-4.942,2.214-4.942,4.944c0,2.73,2.212,4.943,4.942,4.943c10.682,0,15.021-3.019,16.438-8.973
		C84.743,43.743,77.044,34.76,67.365,29.775z"/>
</g>
</svg>
