<?xml version="1.0" encoding="utf-8"?>
<!-- Generator: Adobe Illustrator 16.0.0, SVG Export Plug-In . SVG Version: 6.00 Build 0)  -->
<!DOCTYPE svg PUBLIC "-//W3C//DTD SVG 1.1//EN" "http://www.w3.org/Graphics/SVG/1.1/DTD/svg11.dtd">
<svg version="1.1" id="Layer_2" xmlns="http://www.w3.org/2000/svg" xmlns:xlink="http://www.w3.org/1999/xlink" x="0px" y="0px"
	 width="126px" height="126px" viewBox="0 0 126 126" enable-background="new 0 0 126 126" xml:space="preserve">
<g>
	<path d="M81.074,15.785l-0.063,0.061c0.172-0.721,0.272-1.469,0.272-2.241c0-5.354-4.354-9.708-9.706-9.708
		c-0.291,0-0.585,0.015-0.886,0.045c-0.501-0.205-1.033-0.306-1.578-0.316c-1.133-0.629-2.374-1.087-3.688-1.342
		c-0.761-0.322-1.608-0.501-2.488-0.501c-0.914,0-1.788,0.195-2.571,0.542C59.107,2.592,57.92,3.049,56.83,3.66
		c-0.438,0.043-0.871,0.131-1.275,0.302c-0.376-0.042-0.754-0.065-1.13-0.065c-5.352,0-9.706,4.354-9.706,9.708
		c0,0.772,0.101,1.521,0.272,2.244l-0.064-0.063c-10.675,11.134-6.021,18.803-4.342,20.888c2.268,2.813,5.74,4.383,9.477,4.633
		v25.651c0,1.321,0.257,2.552,0.705,3.685c-0.034,0.254-0.058,0.513-0.058,0.777l0.002,46.999c0,3.203,2.598,5.8,5.802,5.8
		s5.801-2.598,5.801-5.801l-0.003-40.334c0.229,0.011,0.459,0.029,0.691,0.029c0.045,0,0.089-0.006,0.135-0.006l-0.001,40.311
		c0,3.203,2.597,5.801,5.8,5.801c3.204,0,5.801-2.598,5.801-5.801l0.002-46.71c0.759-1.408,1.201-3.003,1.201-4.75V41.306
		c3.735-0.251,7.21-1.82,9.477-4.633C87.095,34.588,91.748,26.919,81.074,15.785z M54.352,5.613c0.518,0,1.031,0.056,1.532,0.16
		c0.365-0.274,0.815-0.44,1.308-0.44h2.394c0.525-1.086,1.777-1.835,3.279-1.835s2.756,0.749,3.28,1.835h2.81
		c0.47,0,0.901,0.149,1.26,0.399c0.419-0.073,0.849-0.119,1.288-0.119c4.123,0,7.477,3.354,7.477,7.477
		c0,4.123-3.354,7.476-7.477,7.476c-4.122,0-7.475-3.353-7.475-7.476c0-1.207,0.293-2.343,0.804-3.354h-3.798
		c0.514,1.024,0.793,2.165,0.793,3.354c0,4.123-3.353,7.476-7.475,7.476s-7.477-3.353-7.477-7.476
		C46.875,8.968,50.229,5.613,54.352,5.613z M63.03,56.254h-0.06l-3.049-4.172l3.049-20.38h0.06l3.049,20.38L63.03,56.254z
		 M77.773,30.513c-0.866,1.072-3.772,1.616-6.363,0.026l-0.006,0.01c-1.563-1.177-3.387-2.028-5.254-2.486l-3.148,3.17l-3.054-3.205
		c-0.011,0.004-0.021,0.004-0.033,0.006c-1.893,0.453-3.744,1.312-5.324,2.507v-0.001c-2.593,1.59-5.499,1.047-6.364-0.026
		c-0.842-1.045,0.104-3.974,3.483-7.606c0.653,0.188,1.331,0.32,2.033,0.37c2.309,2.488,5.595,4.052,9.259,4.052
		c3.66,0,6.947-1.563,9.257-4.052c0.701-0.05,1.38-0.182,2.032-0.37C77.669,26.539,78.615,29.468,77.773,30.513z"/>
	<path d="M54.352,16.998c2.153,0,3.906-1.753,3.906-3.908c0-1.34-0.675-2.572-1.806-3.295c-0.625-0.401-1.353-0.612-2.101-0.612
		c-2.155,0-3.908,1.752-3.908,3.907S52.196,16.998,54.352,16.998z"/>
	<path d="M71.502,16.998c2.155,0,3.908-1.753,3.908-3.908s-1.753-3.907-3.908-3.907c-2.153,0-3.907,1.752-3.907,3.907
		S69.349,16.998,71.502,16.998z"/>
</g>
</svg>
