<?xml version="1.0" encoding="utf-8"?>
<!-- Generator: Adobe Illustrator 16.0.0, SVG Export Plug-In . SVG Version: 6.00 Build 0)  -->
<!DOCTYPE svg PUBLIC "-//W3C//DTD SVG 1.1//EN" "http://www.w3.org/Graphics/SVG/1.1/DTD/svg11.dtd">
<svg version="1.1" id="Layer_2" xmlns="http://www.w3.org/2000/svg" xmlns:xlink="http://www.w3.org/1999/xlink" x="0px" y="0px"
	 width="126px" height="126px" viewBox="0 0 126 126" enable-background="new 0 0 126 126" xml:space="preserve">
<g>
	<circle cx="62.721" cy="13.405" r="12.942"/>
	<path d="M90.052,65.615c-3.005-20.494-7.554-29.27-18.724-36.117c-0.216-0.133-0.445-0.227-0.672-0.326
		c-1.441-0.961-3.061-1.668-4.712-2.074l-3.224,3.246l-3.126-3.281c-0.01,0.002-0.021,0.004-0.032,0.006
		c-2.392,0.572-4.717,1.785-6.535,3.488C43.051,37.268,38.8,46.16,35.948,65.615c-0.402,2.744,1.497,5.297,4.243,5.699
		c0.247,0.035,0.492,0.055,0.735,0.055c2.452,0,4.599-1.799,4.965-4.297c1.026-6.998,2.214-12.111,3.583-15.977v15.822
		c0,1.352,0.262,2.613,0.723,3.771c-0.036,0.262-0.06,0.525-0.06,0.795l0.004,48.117c0,3.279,2.658,5.936,5.938,5.936
		c3.28,0,5.939-2.658,5.938-5.938l-0.003-41.291c0.235,0.01,0.47,0.029,0.707,0.029c0.046,0,0.092-0.006,0.139-0.006L62.859,119.6
		c0,3.279,2.658,5.938,5.937,5.938c0.001,0,0.001,0,0.001,0c3.279,0,5.938-2.658,5.938-5.938l0.002-47.82
		c0.777-1.441,1.231-3.072,1.231-4.861V49.611c1.608,4.012,2.978,9.527,4.142,17.461c0.367,2.498,2.513,4.297,4.965,4.297
		c0.243,0,0.488-0.02,0.736-0.055C88.556,70.912,90.455,68.359,90.052,65.615z"/>
</g>
</svg>
