<?xml version="1.0" encoding="utf-8"?>
<!-- Generator: Adobe Illustrator 16.0.0, SVG Export Plug-In . SVG Version: 6.00 Build 0)  -->
<!DOCTYPE svg PUBLIC "-//W3C//DTD SVG 1.1//EN" "http://www.w3.org/Graphics/SVG/1.1/DTD/svg11.dtd">
<svg version="1.1" id="Layer_3" xmlns="http://www.w3.org/2000/svg" xmlns:xlink="http://www.w3.org/1999/xlink" x="0px" y="0px"
	 width="126px" height="126px" viewBox="0 0 126 126" enable-background="new 0 0 126 126" xml:space="preserve">
<g>
	<circle cx="63.39" cy="16.895" r="12.687"/>
	<path d="M96.554,1.367c-2.276-1.484-5.329-0.842-6.814,1.438l-19.057,29.24c-1.287-0.785-2.696-1.376-4.133-1.729l-3.158,3.182
		l-3.064-3.216c-0.01,0.003-0.021,0.003-0.031,0.006c-1.67,0.399-3.306,1.119-4.754,2.101L36.262,2.805
		c-1.484-2.28-4.538-2.924-6.815-1.438c-2.279,1.485-2.923,4.537-1.438,6.816l21.406,32.846c0.279,0.428,0.618,0.791,0.992,1.1
		v27.219c0,1.325,0.257,2.561,0.707,3.697c-0.034,0.258-0.059,0.519-0.059,0.787l0.048,45.787c0.003,3.212,2.608,5.814,5.82,5.814
		c0.002,0,0.005,0,0.007,0c3.214-0.003,5.817-2.612,5.813-5.826l-0.039-39.094c0.229,0.01,0.456,0.028,0.687,0.028
		c0.046,0,0.092-0.005,0.137-0.005l-0.002,38.835c0,3.215,2.606,5.821,5.82,5.821c3.216,0,5.821-2.606,5.821-5.82l0.002-45.258
		c0.763-1.413,1.206-3.012,1.206-4.767V41.345c0-0.012-0.001-0.023-0.001-0.035c0.07-0.093,0.146-0.183,0.21-0.281L97.991,8.183
		C99.477,5.904,98.833,2.853,96.554,1.367z"/>
</g>
</svg>
