<?xml version="1.0" encoding="utf-8"?>
<!-- Generator: Adobe Illustrator 16.0.0, SVG Export Plug-In . SVG Version: 6.00 Build 0)  -->
<!DOCTYPE svg PUBLIC "-//W3C//DTD SVG 1.1//EN" "http://www.w3.org/Graphics/SVG/1.1/DTD/svg11.dtd">
<svg version="1.1" id="Layer_1" xmlns="http://www.w3.org/2000/svg" xmlns:xlink="http://www.w3.org/1999/xlink" x="0px" y="0px"
	 width="126px" height="126px" viewBox="0 0 126 126" enable-background="new 0 0 126 126" xml:space="preserve">
<g>
	<path d="M95.461,35.214c-2.662-0.715-5.395,0.862-6.11,3.522c-0.426,1.589-1.174,2.592-1.688,2.852
		c-0.394,0.2-1.059,0.015-1.545-0.175c-5.279-2.065-7.589-4.641-9.823-7.132c-1.425-1.588-2.913-3.216-4.948-4.448
		c-1.565-1.161-3.384-2.006-5.245-2.462l-3.199,3.221l-3.103-3.256c-0.011,0.003-0.021,0.003-0.032,0.006
		c-2.276,0.544-4.494,1.668-6.263,3.25c-1.475,1.105-2.656,2.412-3.802,3.688c-2.234,2.492-4.544,5.067-9.821,7.132
		c-0.488,0.19-1.152,0.376-1.547,0.176c-0.514-0.26-1.262-1.263-1.688-2.852c-0.714-2.659-3.448-4.235-6.11-3.522
		c-2.659,0.714-4.236,3.45-3.522,6.109c1.146,4.267,3.569,7.522,6.822,9.166c1.204,0.608,2.862,1.162,4.911,1.162
		c1.411,0,3.006-0.263,4.766-0.951c2.48-0.971,4.52-2.053,6.242-3.172v19.358c0,1.589,0.364,3.052,0.992,4.369
		c-0.001,0.054-0.016,0.104-0.016,0.159l-0.042,47.749c-0.003,3.255,2.633,5.896,5.887,5.898c0.002,0,0.004,0,0.006,0
		c3.252,0,5.89-2.635,5.893-5.888l0.036-40.971c0.13,0.003,0.259,0.017,0.39,0.017c0.152,0,0.304-0.015,0.456-0.019l-0.002,40.968
		c0,3.255,2.638,5.894,5.893,5.894c3.254,0,5.893-2.638,5.893-5.893l0.002-47.748c0-0.102-0.025-0.196-0.03-0.296
		c0.59-1.283,0.934-2.7,0.934-4.237V47.402c1.763,1.164,3.862,2.292,6.437,3.299c1.759,0.688,3.354,0.95,4.765,0.95
		c2.047,0,3.707-0.554,4.911-1.162c3.253-1.644,5.676-4.899,6.822-9.166C99.698,38.664,98.121,35.928,95.461,35.214z M62.934,56.012
		h-0.06l-3.097-4.239l3.097-20.705h0.06l3.097,20.705L62.934,56.012z"/>
	<circle cx="62.903" cy="13.782" r="12.844"/>
</g>
</svg>
