<?xml version="1.0" encoding="utf-8"?>
<!-- Generator: Adobe Illustrator 17.0.0, SVG Export Plug-In . SVG Version: 6.00 Build 0)  -->
<!DOCTYPE svg PUBLIC "-//W3C//DTD SVG 1.1//EN" "http://www.w3.org/Graphics/SVG/1.1/DTD/svg11.dtd">
<svg version="1.1" id="Capa_1" xmlns="http://www.w3.org/2000/svg" xmlns:xlink="http://www.w3.org/1999/xlink" x="0px" y="0px"
	 width="64px" height="64px" viewBox="0 0 64 64" enable-background="new 0 0 64 64" xml:space="preserve">
<path fill="#0E0F0F" d="M48.492,21.239c-0.978,3.234-2.377,6.363-3.786,9.429c-0.768,1.666-2.96,1.525-4.146,0.534
	c-1.589-1.329-3.278-2.707-4.88-4.18c-2.344,3.42-4.689,6.841-7.035,10.26c-0.921,1.345-2.247,2.294-3.705,2.645
	c0,6.441,0,12.883,0,19.322c0,4.681-7.258,4.681-7.258,0c0-7.771,0-15.543,0-23.314c0-0.724,0.174-1.335,0.468-1.835
	c0.035-0.851,0.276-1.689,0.781-2.426c3.52-5.132,7.04-10.265,10.558-15.396c1.729-2.52,4.863-3.67,7.662-2.053
	c2.493,1.44,3.784,5.139,2.054,7.662c-0.178,0.258-0.354,0.517-0.533,0.775c0.887,0.848,1.825,1.659,2.763,2.444
	c0.739-1.727,1.425-3.478,1.967-5.271C44.385,16.587,49.482,17.972,48.492,21.239z M39.341,12.853c2.864,0,5.185-2.321,5.185-5.185
	c0-2.864-2.321-5.185-5.185-5.185s-5.185,2.321-5.185,5.185C34.156,10.532,36.477,12.853,39.341,12.853z"/>
</svg>
