<?xml version="1.0" encoding="utf-8"?>
<!-- Generator: Adobe Illustrator 16.0.0, SVG Export Plug-In . SVG Version: 6.00 Build 0)  -->
<!DOCTYPE svg PUBLIC "-//W3C//DTD SVG 1.1//EN" "http://www.w3.org/Graphics/SVG/1.1/DTD/svg11.dtd">
<svg version="1.1" id="Layer_10" xmlns="http://www.w3.org/2000/svg" xmlns:xlink="http://www.w3.org/1999/xlink" x="0px" y="0px"
	 width="100px" height="100px" viewBox="0 0 100 100" enable-background="new 0 0 100 100" xml:space="preserve">
<path d="M63.791,16.465H36.165c3.138-4.224,8.147-6.973,13.814-6.973C55.644,9.492,60.654,12.241,63.791,16.465z M49.277,23.176
	v2.211c0,2.464-2.004,4.469-4.469,4.469H34.121c-0.374,0-0.732-0.061-1.08-0.147c1.421,8.075,8.454,14.218,16.938,14.218
	c8.455,0,15.474-6.104,16.925-14.143c-0.235,0.038-0.474,0.072-0.721,0.072H55.496c-2.463,0-4.469-2.005-4.469-4.469v-2.211H49.277z
	 M53.87,48.725h-7.543c-0.623,0-1.127,0.502-1.127,1.125l3.141,6.492h3.613l3.041-6.492C54.995,49.227,54.491,48.725,53.87,48.725z
	 M79.323,67.141V85.01h-0.121l-1.15,0.584c-0.582,0.293-9.973,4.914-26.172,4.914c-8.295,0-18.373-1.211-29.971-4.834l-1.232-0.385
	l-0.045-0.279V67.141c0-9.115,5.563-16.957,13.47-20.308v-0.001h0.002c2.636-1.117,5.531-1.734,8.569-1.734H57.28
	C69.437,45.098,79.323,54.986,79.323,67.141z M34.102,49.436c-6.57,3.195-11.122,9.92-11.122,17.705v15.521l-0.008,0.549
	c3.892,1.215,7.601,2.139,11.13,2.84V61.16h-0.499v-5.625h0.499V49.436z M62.145,48.078c-1.559-0.398-3.183-0.633-4.864-0.633
	H42.673c-1.936,0-3.802,0.292-5.571,0.814v7.275h0.501v5.625h-0.501v25.44c10.111,1.687,18.564,1.471,25.043,0.608V61.16h-0.5
	v-5.625h0.5V48.078z M76.978,67.141c0-8.064-4.877-15.004-11.833-18.047v6.441h0.5v5.625h-0.5v25.582
	c7.539-1.342,11.703-3.406,11.796-3.453l0.037-0.627V67.141z M51.616,57.02h-3.039c-0.119,0-0.217,0.09-0.225,0.209l-1.465,22.404
	c-0.002,0.049,0.01,0.096,0.035,0.135l2.928,4.617c0.041,0.064,0.111,0.104,0.186,0.104c0.002,0,0.004,0,0.006,0
	c0.074,0,0.143-0.035,0.186-0.1l3.152-4.613c0.027-0.043,0.043-0.092,0.037-0.145l-1.574-22.402
	C51.833,57.109,51.735,57.02,51.616,57.02z M31.387,25.16v-3.969c0-2.011,1.703-3.646,3.795-3.646h30.186
	c2.092,0,3.795,1.636,3.795,3.646v3.969c0,2.011-1.703,3.646-3.795,3.646h-9.063c-2.092,0-3.795-1.636-3.795-3.646v-2.809h-4.521
	v2.809c0,2.011-1.702,3.646-3.795,3.646h-9.012C33.09,28.807,31.387,27.171,31.387,25.16z M33.387,25.16
	c0,0.908,0.805,1.646,1.795,1.646h9.012c0.989,0,1.795-0.738,1.795-1.646v-4.809h8.521v4.809c0,0.908,0.806,1.646,1.795,1.646h9.063
	c0.989,0,1.795-0.738,1.795-1.646v-3.969c0-0.908-0.806-1.646-1.795-1.646H35.182c-0.99,0-1.795,0.738-1.795,1.646V25.16z"/>
</svg>
