<?xml version="1.0" encoding="utf-8"?>
<!-- Generator: Adobe Illustrator 16.0.0, SVG Export Plug-In . SVG Version: 6.00 Build 0)  -->
<!DOCTYPE svg PUBLIC "-//W3C//DTD SVG 1.1//EN" "http://www.w3.org/Graphics/SVG/1.1/DTD/svg11.dtd">
<svg version="1.1" id="Layer_10" xmlns="http://www.w3.org/2000/svg" xmlns:xlink="http://www.w3.org/1999/xlink" x="0px" y="0px"
	 width="100px" height="100px" viewBox="0 0 100 100" enable-background="new 0 0 100 100" xml:space="preserve">
<g>
	<path d="M57.28,51.518H42.673c-12.152,0-22.041,9.889-22.041,22.043V91.43l0.045,0.279l1.232,0.385
		c11.598,3.623,21.676,4.834,29.971,4.834c16.199,0,25.59-4.621,26.172-4.914l1.15-0.584h0.121V73.561
		C79.323,61.406,69.437,51.518,57.28,51.518z M53.38,86.195l-3.152,4.613c-0.043,0.064-0.111,0.1-0.186,0.1
		c-0.002,0-0.004,0-0.006,0c-0.074,0-0.145-0.039-0.186-0.104l-2.928-4.617c-0.025-0.039-0.037-0.086-0.035-0.135l1.465-22.404
		c0.008-0.119,0.105-0.209,0.225-0.209h3.039c0.119,0,0.217,0.09,0.227,0.209l1.574,22.402
		C53.423,86.104,53.407,86.152,53.38,86.195z M51.954,62.762h-3.613L45.2,56.27c0-0.623,0.504-1.125,1.127-1.125h7.543
		c0.621,0,1.125,0.502,1.125,1.125L51.954,62.762z"/>
	<path d="M32.763,33.129c0,9.508,7.707,17.217,17.217,17.217c9.506,0,17.215-7.709,17.215-17.217c0-0.711-0.051-1.408-0.14-2.096
		H32.902C32.813,31.721,32.763,32.418,32.763,33.129z"/>
	<path d="M29.026,28.75h2.505h1.814H66.61h3.421h0.899c2.066,0,3.742-1.676,3.742-3.742v-1.871c0-2.066-1.676-3.742-3.742-3.742
		h-3.715v-3.502c0-7.08-5.74-12.82-12.82-12.82H44.299c-7.08,0-12.82,5.74-12.82,12.82v3.502h-2.452
		c-2.066,0-3.742,1.676-3.742,3.742v1.871C25.284,27.074,26.96,28.75,29.026,28.75z"/>
</g>
</svg>
