<?xml version="1.0" encoding="utf-8"?>
<!-- Generator: Adobe Illustrator 16.0.0, SVG Export Plug-In . SVG Version: 6.00 Build 0)  -->
<!DOCTYPE svg PUBLIC "-//W3C//DTD SVG 1.1//EN" "http://www.w3.org/Graphics/SVG/1.1/DTD/svg11.dtd">
<svg version="1.1" id="Layer_3" xmlns="http://www.w3.org/2000/svg" xmlns:xlink="http://www.w3.org/1999/xlink" x="0px" y="0px"
	 width="126px" height="126px" viewBox="0 0 126 126" enable-background="new 0 0 126 126" xml:space="preserve">
<g>
	<circle cx="31.373" cy="73.401" r="20.755"/>
	<path d="M112.359,86.48l-0.358-0.285l0.01-58.176c2.235-6.229,0.166-13.828-4.21-18.965c-1.01-1.188-2.151-2.271-3.392-3.223
		c-5.814-4.459-14.631-6.445-21.225-0.828L48.306,34.709c-6.471,5.516-5.973,14.896-2.772,21.277c0,0,0.92,2.088,2.466,3.826
		c1.481,1.658,3.479,3.211,3.479,3.211l0.049,0.043c2.985,2.154,6.844,3.713,10.77,3.986l30.657,24.539l-0.004,23.316
		c-0.001,5.26,4.262,9.521,9.521,9.523c0,0,0,0,0.001,0c5.259,0,9.522-4.262,9.523-9.521L112,99.322
		c0.59-0.422,1.14-0.92,1.615-1.514C116.396,94.332,115.834,89.262,112.359,86.48z M78.287,59.207l14.676-12.5l-0.004,24.246
		L78.287,59.207z"/>
</g>
</svg>
