<?xml version="1.0" encoding="utf-8"?>
<!-- Generator: Adobe Illustrator 16.0.0, SVG Export Plug-In . SVG Version: 6.00 Build 0)  -->
<!DOCTYPE svg PUBLIC "-//W3C//DTD SVG 1.1//EN" "http://www.w3.org/Graphics/SVG/1.1/DTD/svg11.dtd">
<svg version="1.1" id="Layer_1" xmlns="http://www.w3.org/2000/svg" xmlns:xlink="http://www.w3.org/1999/xlink" x="0px" y="0px"
	 width="50px" height="50px" viewBox="0 0 50 50" enable-background="new 0 0 50 50" xml:space="preserve">
<g>
	<path d="M26.196,27.834c0,0.439-0.358,0.798-0.798,0.798h-0.797c-0.439,0-0.798-0.358-0.798-0.798v-0.689l-12.36-2.481v8.354
		c0,1.755,1.435,3.19,3.19,3.19h20.733c1.755,0,3.19-1.435,3.19-3.19v-8.354l-12.36,2.481V27.834z"/>
	<path d="M35.367,17.725h-5.019c0.001-0.048,0.014-0.094,0.014-0.146v-1.594c0-1.21-0.983-2.193-2.193-2.193h-6.336
		c-1.21,0-2.193,0.983-2.193,2.193v1.594c0,0.052,0.012,0.097,0.014,0.146h-5.019c-1.98,0-3.59,1.61-3.59,3.59v2.521l12.76,2.561
		v-0.955c0-0.438,0.358-0.796,0.798-0.796h0.797c0.439,0,0.798,0.358,0.798,0.796v0.955l12.76-2.561v-2.521
		C38.957,19.334,37.347,17.725,35.367,17.725z M29.166,17.579c0,0.052-0.022,0.097-0.03,0.146h-8.271
		c-0.008-0.048-0.03-0.094-0.03-0.146v-1.594c0-0.55,0.446-0.997,0.998-0.997h6.336c0.552,0,0.998,0.447,0.998,0.997V17.579z"/>
</g>
</svg>
