<?xml version="1.0" encoding="utf-8"?>
<!-- Generator: Adobe Illustrator 16.0.0, SVG Export Plug-In . SVG Version: 6.00 Build 0)  -->
<!DOCTYPE svg PUBLIC "-//W3C//DTD SVG 1.1//EN" "http://www.w3.org/Graphics/SVG/1.1/DTD/svg11.dtd">
<svg version="1.1" id="Layer_1" xmlns="http://www.w3.org/2000/svg" xmlns:xlink="http://www.w3.org/1999/xlink" x="0px" y="0px"
	 width="50px" height="50px" viewBox="0 0 50 50" enable-background="new 0 0 50 50" xml:space="preserve">
<g>
	<path d="M32.146,12.312H17.187c-1.29,0-2.338,1.047-2.338,2.337v20.7c0,1.29,1.048,2.337,2.338,2.337h14.959
		c1.291,0,2.338-1.047,2.338-2.337v-20.7C34.484,13.36,33.437,12.312,32.146,12.312z M24.667,36.812
		c-0.742,0-1.344-0.602-1.344-1.344s0.602-1.344,1.344-1.344s1.344,0.602,1.344,1.344S25.409,36.812,24.667,36.812z M32.984,32.35
		c0,0.462-0.376,0.837-0.838,0.837H17.187c-0.462,0-0.838-0.375-0.838-0.837v-17.7c0-0.462,0.376-0.837,0.838-0.837h14.959
		c0.462,0,0.838,0.375,0.838,0.837V32.35z"/>
	<path d="M24.667,27l-1.295-1.295l1.09-2.636H24.45l-0.424-0.486c0.205,0.073,0.418,0.118,0.64,0.118
		c0.221,0,0.435-0.044,0.639-0.117l-0.424,0.485h-0.01l1.09,2.636L24.667,27c2.312,0,4.625-0.38,4.625-1.141
		c0-1.287-1.482-3.024-3.484-3.531c0.837-0.563,1.413-1.672,1.413-2.672c0-1.411-1.144-2.554-2.554-2.554s-2.554,1.144-2.554,2.554
		c0,1,0.576,2.109,1.413,2.672c-2.001,0.507-3.484,2.245-3.484,3.531C20.042,26.62,22.354,27,24.667,27z"/>
	<path d="M30.818,28.537H18.515c-0.12,0-0.217,0.096-0.217,0.217c0,0.12,0.097,0.217,0.217,0.217h12.303
		c0.12,0,0.217-0.097,0.217-0.217C31.035,28.633,30.938,28.537,30.818,28.537z"/>
	<path d="M30.818,29.526H18.515c-0.12,0-0.217,0.097-0.217,0.217s0.097,0.217,0.217,0.217h12.303c0.12,0,0.217-0.097,0.217-0.217
		S30.938,29.526,30.818,29.526z"/>
	<path d="M30.818,30.515H18.515c-0.12,0-0.217,0.097-0.217,0.217s0.097,0.217,0.217,0.217h12.303c0.12,0,0.217-0.097,0.217-0.217
		S30.938,30.515,30.818,30.515z"/>
	<path d="M24.327,31.504h-5.812c-0.12,0-0.217,0.097-0.217,0.217c0,0.121,0.097,0.217,0.217,0.217h5.812
		c0.12,0,0.217-0.096,0.217-0.217C24.544,31.601,24.447,31.504,24.327,31.504z"/>
</g>
</svg>
