<?xml version="1.0" encoding="utf-8"?>
<!-- Generator: Adobe Illustrator 16.0.0, SVG Export Plug-In . SVG Version: 6.00 Build 0)  -->
<!DOCTYPE svg PUBLIC "-//W3C//DTD SVG 1.1//EN" "http://www.w3.org/Graphics/SVG/1.1/DTD/svg11.dtd">
<svg version="1.1" id="Layer_3" xmlns="http://www.w3.org/2000/svg" xmlns:xlink="http://www.w3.org/1999/xlink" x="0px" y="0px"
	 width="126px" height="126px" viewBox="0 0 126 126" enable-background="new 0 0 126 126" xml:space="preserve">
<g>
	<polygon points="7.814,74.938 14.586,74.938 14.586,55.412 20.688,55.412 20.688,49.875 1.695,49.875 1.695,55.412 7.814,55.412 	
		"/>
	<polygon points="37.748,69.416 29.639,69.416 29.639,64.686 37.147,64.686 37.147,59.252 29.639,59.252 29.639,55.309 
		37.748,55.309 37.748,49.875 22.867,49.875 22.867,74.938 37.748,74.938 	"/>
	<path d="M46.731,70.24h8.142l1.235,4.697h7.405l-8.28-25.166H46.2l-8.177,25.166h7.44L46.731,70.24z M50.151,56.782
		c0.302-1.337,0.505-2.297,0.608-2.879c0.115,0.628,0.352,1.668,0.712,3.119c0.36,1.452,0.666,2.634,0.917,3.549l1.08,4.114h-5.331
		C49.177,60.754,49.848,58.12,50.151,56.782z"/>
	<path d="M18.409,91.062v-0.171c1.177-0.286,2.126-0.926,2.846-1.921c0.721-0.993,1.08-2.194,1.08-3.6
		c0-2.138-0.826-3.71-2.478-4.723c-1.651-1.012-4.179-1.517-7.585-1.517H3.529v25.063h9.754c2.949,0,5.277-0.654,6.986-1.963
		c1.708-1.309,2.563-3.101,2.563-5.374c0-1.531-0.349-2.777-1.046-3.738C21.088,92.159,19.963,91.473,18.409,91.062z M10.3,84.257
		h1.903c2.125,0,3.188,0.702,3.188,2.108c0,0.788-0.265,1.383-0.797,1.782c-0.531,0.4-1.283,0.6-2.254,0.6H10.3V84.257z
		 M12.683,98.965H10.3v-5.264h2.246c1.074,0,1.894,0.224,2.46,0.669c0.565,0.446,0.848,1.087,0.848,1.921
		C15.854,98.073,14.797,98.965,12.683,98.965z"/>
	<path d="M44.21,86.537c0-4.938-3.406-7.406-10.217-7.406h-8.211v25.063h6.771v-9.12h1.715l5.313,9.12h7.68l-7.302-10.921
		C42.792,91.685,44.21,89.439,44.21,86.537z M33.821,89.982h-1.269v-5.726h1.337c2.321,0,3.48,0.863,3.48,2.588
		C37.37,88.936,36.188,89.982,33.821,89.982z"/>
	<polygon points="48.137,104.193 63.017,104.193 63.017,98.674 54.909,98.674 54.909,93.941 62.417,93.941 62.417,88.508 
		54.909,88.508 54.909,84.565 63.017,84.565 63.017,79.131 48.137,79.131 	"/>
	<path d="M71.469,79.027l-8.177,25.166h7.439l1.269-4.696h8.143l1.234,4.696h7.406l-8.28-25.166H71.469z M73.407,93.941
		c1.04-3.932,1.711-6.565,2.014-7.902s0.506-2.298,0.608-2.88c0.114,0.629,0.352,1.668,0.712,3.12
		c0.359,1.451,0.666,2.634,0.917,3.549l1.081,4.113H73.407z"/>
	<path d="M111.636,79.131h-7.406l-5.263,7.68c-1.041,1.463-1.731,2.531-2.074,3.206V79.131h-6.806v25.063h6.806v-8.382l2.006-1.201
		l4.954,9.583h7.646l-7.766-13.834L111.636,79.131z"/>
	<path d="M121.585,69.867c-0.662-0.298-1.928-0.86-13.295-1.217l0.135-15.705c4.261,2.153,6.409,2.631,7.631,2.631
		c0.582,0,0.955-0.106,1.25-0.191c1.165-0.332,2.127-1.126,2.709-2.236c0.439-0.838,1.778-3.391-1.523-13.152
		c-0.287-0.85-0.861-1.512-1.569-1.948c0.03-0.206,0.05-0.416,0.05-0.632v-1.849c0-0.256-0.206-0.463-0.462-0.463h-7.862
		c-0.256,0-0.463,0.207-0.463,0.463v1.849c0,1.986,1.323,3.666,3.134,4.208c0.03,0.249,0.085,0.495,0.168,0.739
		c0.493,1.459,0.941,3.056,1.266,4.445c-2.118-1.033-4.859-2.531-7.414-4.086c-0.447-0.271-0.929-0.433-1.417-0.5
		c-0.658-0.328-1.34-0.586-2.014-0.758l-0.029-0.005c0,0-1.135-0.245-2.155-0.278c-1.066-0.033-2.072,0.26-2.072,0.26
		c-3.188,0.753-6.635,3.34-6.669,7.241l-0.18,21.02c-0.035,3.975,3.26,6.493,6.541,7.225c0.652,0.146,1.318,0.22,1.983,0.235
		c0.166,0.022,0.334,0.038,0.505,0.04c5.156,0.081,11.023-0.14,14.838,0.075c-1.258,3.964-3.607,10.729-5.778,16.18
		c-0.893,2.242,0.2,4.783,2.442,5.676c0.53,0.212,1.078,0.313,1.616,0.313c1.736,0,3.378-1.043,4.06-2.754
		c0.085-0.215,2.102-5.28,3.986-10.518C124.308,76.976,126.131,71.91,121.585,69.867z M109.111,37.416v-1.387h6.938v1.387
		c0,0.075-0.017,0.147-0.022,0.222c-0.529-0.157-1.095-0.186-1.663-0.089c-0.14-0.432-0.47-0.732-0.854-0.732
		c-0.513,0-0.929,0.537-0.929,1.201c0,0.116,0.017,0.228,0.041,0.334c-0.696,0.585-1.142,1.405-1.273,2.297
		C110.043,40.148,109.111,38.894,109.111,37.416z"/>
	<circle cx="99.611" cy="31.329" r="9.523"/>
	<path d="M68.097,61.239c0.083,0.378,0.167,0.768,0.313,1.119c0.143,0.354,0.262,0.745,0.456,1.064l0.484,0.86
		c0.157,0.258,0.312,0.517,0.479,0.768c0.102,0.146,0.12,0.206,0.161,0.278c0.041,0.07,0.08,0.143,0.129,0.211
		c0.176,0.286,0.398,0.685,0.556,1.019c0.178,0.351,0.335,0.706,0.462,1.076c0.139,0.368,0.242,0.749,0.331,1.131
		c0.087,0.384,0.144,0.766,0.19,1.128c0.034,0.356,0.075,0.702,0.082,0.991c0.004,0.301,0.009,0.539,0.011,0.699
		c-0.002,0.175-0.004,0.268-0.004,0.268s0.388-0.066,0.95-0.394c0.276-0.167,0.615-0.386,0.948-0.701
		c0.33-0.315,0.671-0.714,0.977-1.207c0.296-0.496,0.565-1.085,0.733-1.751c0.166-0.664,0.261-1.408,0.212-2.164
		c-0.023-0.377-0.051-0.77-0.143-1.142c-0.089-0.38-0.151-0.75-0.323-1.159c-0.074-0.2-0.159-0.398-0.242-0.6
		c-0.083-0.2-0.181-0.418-0.244-0.521c-0.139-0.266-0.293-0.525-0.444-0.786l-0.253-0.414c-0.057-0.095-0.123-0.185-0.185-0.275
		c-0.14-0.183-0.208-0.366-0.332-0.543c-0.126-0.176-0.206-0.354-0.304-0.528c-0.116-0.174-0.191-0.349-0.278-0.523
		c-0.186-0.348-0.342-0.702-0.472-1.068c-0.142-0.367-0.246-0.745-0.334-1.126c-0.089-0.382-0.145-0.762-0.19-1.124
		c-0.034-0.355-0.072-0.701-0.077-0.988c-0.003-0.3-0.005-0.537-0.006-0.697c0.005-0.175,0.007-0.266,0.007-0.266
		s-0.387,0.063-0.951,0.39c-0.274,0.167-0.616,0.385-0.948,0.701c-0.33,0.313-0.672,0.714-0.975,1.211
		c-0.296,0.496-0.565,1.09-0.727,1.758c-0.089,0.334-0.152,0.687-0.178,1.049c-0.042,0.366-0.057,0.743-0.022,1.118
		C67.966,60.48,68.006,60.867,68.097,61.239z"/>
	<path d="M75.546,56.045c0.083,0.377,0.167,0.767,0.314,1.118c0.142,0.354,0.262,0.744,0.456,1.064L76.8,59.09
		c0.157,0.257,0.312,0.516,0.479,0.766c0.102,0.146,0.12,0.206,0.162,0.276c0.041,0.072,0.079,0.145,0.127,0.213
		c0.177,0.286,0.399,0.685,0.557,1.019c0.178,0.351,0.335,0.707,0.463,1.076c0.138,0.368,0.243,0.749,0.331,1.133
		c0.087,0.382,0.144,0.765,0.19,1.126c0.034,0.357,0.075,0.704,0.082,0.991c0.004,0.303,0.008,0.539,0.011,0.7
		c-0.002,0.175-0.004,0.267-0.004,0.267s0.387-0.065,0.951-0.394c0.275-0.167,0.615-0.386,0.948-0.701
		c0.33-0.315,0.67-0.714,0.976-1.207c0.296-0.496,0.565-1.085,0.734-1.751c0.167-0.664,0.261-1.408,0.212-2.162
		c-0.023-0.379-0.051-0.771-0.143-1.144c-0.088-0.379-0.15-0.75-0.323-1.157c-0.074-0.201-0.159-0.4-0.242-0.601
		c-0.082-0.201-0.18-0.417-0.244-0.522c-0.14-0.266-0.293-0.525-0.444-0.786l-0.253-0.413c-0.057-0.096-0.122-0.184-0.185-0.276
		c-0.141-0.183-0.209-0.366-0.332-0.543c-0.126-0.176-0.205-0.353-0.304-0.527c-0.116-0.174-0.191-0.35-0.278-0.523
		c-0.185-0.349-0.342-0.703-0.472-1.069c-0.141-0.365-0.246-0.745-0.334-1.126c-0.089-0.382-0.145-0.762-0.19-1.123
		c-0.034-0.356-0.073-0.702-0.078-0.989c-0.003-0.3-0.004-0.537-0.006-0.697c0.004-0.174,0.007-0.266,0.007-0.266
		s-0.387,0.063-0.95,0.39c-0.275,0.167-0.616,0.386-0.948,0.701c-0.33,0.315-0.672,0.715-0.974,1.211
		c-0.296,0.496-0.565,1.089-0.728,1.758c-0.089,0.334-0.151,0.688-0.178,1.05c-0.042,0.365-0.057,0.741-0.022,1.117
		C75.416,55.285,75.456,55.672,75.546,56.045z"/>
	<path d="M110.811,31.484c0.026,0.097,0.05,0.193,0.093,0.282c0.042,0.09,0.07,0.19,0.125,0.273l0.14,0.242l0.14,0.229
		c0.046,0.077,0.065,0.133,0.103,0.199c0.061,0.129,0.121,0.275,0.157,0.412c0.042,0.14,0.066,0.277,0.08,0.413
		c0.015,0.134,0.014,0.266,0.008,0.389c-0.008,0.122-0.022,0.238-0.041,0.343c-0.023,0.101-0.043,0.194-0.064,0.27
		c-0.044,0.149-0.08,0.237-0.08,0.237s0.083-0.047,0.202-0.165c0.058-0.06,0.126-0.136,0.193-0.233
		c0.066-0.098,0.136-0.214,0.192-0.352c0.055-0.138,0.104-0.296,0.128-0.469c0.025-0.172,0.031-0.36,0.005-0.55
		c-0.012-0.095-0.024-0.194-0.054-0.288c-0.026-0.095-0.046-0.19-0.092-0.287c-0.041-0.092-0.082-0.206-0.128-0.279l-0.135-0.232
		l-0.134-0.221c-0.045-0.065-0.072-0.137-0.11-0.205c-0.067-0.137-0.125-0.275-0.163-0.415c-0.025-0.069-0.036-0.14-0.051-0.208
		c-0.019-0.068-0.022-0.137-0.031-0.203c-0.016-0.135-0.016-0.266-0.009-0.389c0.008-0.123,0.023-0.238,0.041-0.342
		c0.023-0.103,0.043-0.195,0.065-0.27c0.024-0.073,0.042-0.136,0.058-0.176c0.015-0.041,0.023-0.063,0.023-0.063
		s-0.083,0.047-0.202,0.166c-0.058,0.059-0.128,0.135-0.193,0.233c-0.066,0.097-0.137,0.214-0.192,0.352
		c-0.055,0.138-0.104,0.296-0.126,0.468c-0.012,0.088-0.022,0.178-0.02,0.27c-0.002,0.093,0.002,0.188,0.018,0.282
		C110.766,31.295,110.782,31.391,110.811,31.484z"/>
	<path d="M113.026,29.94c0.026,0.095,0.05,0.192,0.092,0.282c0.042,0.09,0.071,0.19,0.125,0.272l0.14,0.241l0.14,0.229
		c0.048,0.078,0.066,0.134,0.104,0.2c0.061,0.129,0.121,0.274,0.157,0.411c0.042,0.138,0.066,0.277,0.08,0.412
		c0.014,0.136,0.014,0.267,0.007,0.389c-0.008,0.124-0.022,0.241-0.041,0.343c-0.023,0.103-0.042,0.194-0.064,0.27
		c-0.044,0.151-0.079,0.239-0.079,0.239s0.083-0.046,0.201-0.165c0.058-0.06,0.126-0.137,0.193-0.234
		c0.066-0.098,0.136-0.214,0.192-0.351c0.056-0.14,0.104-0.296,0.128-0.469c0.024-0.172,0.031-0.36,0.006-0.552
		c-0.012-0.095-0.025-0.192-0.055-0.285c-0.026-0.097-0.046-0.193-0.092-0.289c-0.041-0.093-0.082-0.205-0.127-0.279l-0.135-0.232
		l-0.135-0.22c-0.045-0.067-0.071-0.138-0.109-0.205c-0.068-0.138-0.125-0.277-0.163-0.416c-0.026-0.068-0.037-0.139-0.051-0.207
		c-0.02-0.068-0.022-0.138-0.032-0.205c-0.016-0.134-0.016-0.264-0.009-0.388c0.008-0.123,0.023-0.238,0.042-0.342
		c0.023-0.102,0.043-0.194,0.065-0.27c0.024-0.074,0.042-0.135,0.057-0.175c0.016-0.041,0.024-0.063,0.024-0.063
		s-0.083,0.047-0.203,0.165c-0.057,0.06-0.127,0.135-0.193,0.232s-0.136,0.214-0.192,0.352c-0.055,0.14-0.104,0.298-0.126,0.47
		c-0.012,0.088-0.022,0.178-0.019,0.27c-0.002,0.093,0.001,0.188,0.017,0.282C112.981,29.75,112.997,29.847,113.026,29.94z"/>
</g>
</svg>
