<?xml version="1.0" encoding="utf-8"?>
<!-- Generator: Adobe Illustrator 16.0.0, SVG Export Plug-In . SVG Version: 6.00 Build 0)  -->
<!DOCTYPE svg PUBLIC "-//W3C//DTD SVG 1.1//EN" "http://www.w3.org/Graphics/SVG/1.1/DTD/svg11.dtd">
<svg version="1.1" id="Layer_11" xmlns="http://www.w3.org/2000/svg" xmlns:xlink="http://www.w3.org/1999/xlink" x="0px" y="0px"
	 width="100px" height="100px" viewBox="0 0 100 100" enable-background="new 0 0 100 100" xml:space="preserve">
<path d="M82.428,70.559v19.917l-0.137-0.002l-1.285,0.65c-0.645,0.326-11.109,5.475-29.166,5.475
	c-4.771,0-10.086-0.369-15.881-1.273l-5.262-0.962c-3.898-0.796-7.977-1.813-12.256-3.149l-1.373-0.431l-0.051-0.308V70.559
	c0-11.377,7.789-20.946,18.307-23.727c3.777,3.526,8.832,5.703,14.398,5.703c5.564,0,10.617-2.177,14.398-5.703
	c8.176,2.162,14.688,8.435,17.186,16.466l1.023,5.096C82.393,69.107,82.428,69.83,82.428,70.559z M27.467,26.657
	c0-12.292,9.963-22.256,22.256-22.256c12.291,0,22.256,9.964,22.256,22.256s-9.965,22.256-22.256,22.256
	C37.43,48.913,27.467,38.949,27.467,26.657z M57.473,39.28c0-2.461-3.471-4.456-7.75-4.456c-4.281,0-7.75,1.995-7.75,4.456
	c0,2.46,3.469,4.455,7.75,4.455C54.002,43.735,57.473,41.74,57.473,39.28z M41.889,30.823c3.135,0,5.938-1.015,7.834-2.608
	c1.895,1.594,4.697,2.608,7.832,2.608c5.707,0,10.334-3.347,10.334-7.474c0-4.129-4.627-7.476-10.334-7.476
	c-3.135,0-5.938,1.014-7.832,2.608c-1.896-1.595-4.699-2.608-7.834-2.608c-5.707,0-10.334,3.347-10.334,7.476
	C31.555,27.476,36.182,30.823,41.889,30.823z"/>
</svg>
