<?xml version="1.0" encoding="utf-8"?>
<!-- Generator: Adobe Illustrator 16.0.0, SVG Export Plug-In . SVG Version: 6.00 Build 0)  -->
<!DOCTYPE svg PUBLIC "-//W3C//DTD SVG 1.1//EN" "http://www.w3.org/Graphics/SVG/1.1/DTD/svg11.dtd">
<svg version="1.1" id="Layer_2" xmlns="http://www.w3.org/2000/svg" xmlns:xlink="http://www.w3.org/1999/xlink" x="0px" y="0px"
	 width="126px" height="126px" viewBox="0 0 126 126" enable-background="new 0 0 126 126" xml:space="preserve">
<g>
	<circle cx="62.931" cy="10.089" r="9.448"/>
	<path d="M45.098,52.098c0.478,0.208,0.976,0.307,1.466,0.307c1.414,0,2.762-0.823,3.364-2.202c1.287-2.948,2.32-5.893,3.318-8.741
		c0.006-0.015,0.01-0.029,0.015-0.043v7.736c0,0.987,0.191,1.907,0.527,2.754c-0.026,0.19-0.043,0.383-0.043,0.581l0.003,35.125
		c0,2.395,1.941,4.335,4.335,4.335c2.395,0,4.335-1.941,4.335-4.335L62.415,57.47c0.172,0.008,0.343,0.022,0.516,0.022
		c0.034,0,0.067-0.004,0.101-0.004l-0.001,30.127c0,2.395,1.941,4.335,4.334,4.335h0c2.395,0,4.335-1.94,4.335-4.335l0.001-34.911
		c0.567-1.052,0.898-2.243,0.898-3.549v-7.618c0.99,2.826,2.016,5.744,3.292,8.667c0.602,1.379,1.949,2.202,3.363,2.202
		c0.49,0,0.988-0.099,1.466-0.307c1.856-0.811,2.705-2.974,1.894-4.829c-1.178-2.699-2.165-5.512-3.118-8.233
		c-2.502-7.135-4.864-13.875-10.283-17.198c-0.158-0.098-0.326-0.167-0.492-0.238c-1.051-0.701-2.233-1.218-3.438-1.514l-2.354,2.37
		l-2.283-2.396c-0.007,0.002-0.015,0.002-0.023,0.004c-1.203,0.288-2.384,0.796-3.437,1.492c-0.199,0.077-0.396,0.166-0.584,0.282
		c-5.419,3.323-7.782,10.063-10.283,17.198c-0.954,2.722-1.94,5.535-3.118,8.233C42.394,49.125,43.241,51.287,45.098,52.098z
		 M62.91,22.806h0.044l2.278,15.231l-2.278,3.118H62.91l-2.279-3.118L62.91,22.806z"/>
	<circle cx="91.694" cy="43.517" r="7.089"/>
	<path d="M106.464,71.412c-0.883-2.023-1.623-4.135-2.339-6.176c-1.876-5.353-3.649-10.41-7.715-12.903
		c-0.119-0.073-0.245-0.126-0.37-0.178c-0.789-0.526-1.676-0.915-2.58-1.136l-1.765,1.778l-1.713-1.798
		C89.976,51,89.97,51,89.964,51.001c-0.903,0.216-1.789,0.598-2.579,1.119c-0.15,0.058-0.296,0.125-0.438,0.212
		c-4.066,2.494-5.838,7.55-7.714,12.903c-0.716,2.042-1.457,4.153-2.34,6.176c-0.609,1.394,0.028,3.016,1.421,3.625
		c0.358,0.156,0.732,0.23,1.1,0.23c1.061,0,2.072-0.617,2.524-1.651c0.965-2.212,1.739-4.421,2.489-6.558
		c0.004-0.012,0.008-0.022,0.011-0.033v5.805c0,0.741,0.145,1.432,0.396,2.067c-0.019,0.142-0.033,0.287-0.033,0.435l0.002,26.355
		c0,1.796,1.456,3.253,3.252,3.253c1.796,0,3.253-1.457,3.252-3.253l-0.001-22.618c0.128,0.006,0.257,0.016,0.387,0.016
		c0.025,0,0.05-0.002,0.075-0.003v22.605c0,1.796,1.456,3.253,3.252,3.253l0,0c1.796,0,3.253-1.457,3.253-3.253l0-26.193
		c0.426-0.79,0.675-1.683,0.675-2.663v-5.716c0.743,2.12,1.512,4.311,2.469,6.502c0.452,1.034,1.463,1.651,2.524,1.651
		c0.368,0,0.742-0.074,1.1-0.23C106.436,74.428,107.073,72.806,106.464,71.412z M91.711,66.826h-0.033l-1.709-2.339l1.709-11.428
		h0.033l1.709,11.428L91.711,66.826z"/>
	<circle cx="34.336" cy="43.517" r="7.089"/>
	<path d="M24.581,73.615c0.965-2.212,1.74-4.421,2.489-6.558c0.004-0.012,0.007-0.022,0.012-0.033v5.805
		c0,0.741,0.144,1.432,0.396,2.067c-0.019,0.142-0.032,0.287-0.032,0.435l0.002,26.355c0,1.796,1.457,3.253,3.252,3.253
		c1.796,0,3.253-1.457,3.253-3.253L33.95,79.067c0.129,0.006,0.257,0.016,0.388,0.016c0.025,0,0.05-0.002,0.075-0.003v22.605
		c0,1.796,1.456,3.253,3.252,3.253l0,0c1.796,0,3.253-1.457,3.253-3.253l0-26.193c0.426-0.79,0.675-1.683,0.675-2.663v-5.716
		c0.743,2.12,1.512,4.311,2.469,6.502c0.452,1.034,1.463,1.651,2.524,1.651c0.368,0,0.742-0.074,1.1-0.23
		c1.393-0.609,2.03-2.231,1.421-3.625c-0.883-2.023-1.624-4.135-2.34-6.176c-1.876-5.353-3.649-10.41-7.714-12.903
		c-0.119-0.073-0.245-0.126-0.37-0.178c-0.789-0.526-1.676-0.915-2.581-1.136l-1.765,1.778l-1.713-1.798
		C32.619,51,32.613,51,32.608,51.001c-0.903,0.216-1.789,0.598-2.58,1.119c-0.149,0.058-0.296,0.125-0.438,0.212
		c-4.066,2.494-5.838,7.55-7.715,12.903c-0.716,2.042-1.456,4.153-2.339,6.176c-0.609,1.394,0.027,3.016,1.421,3.625
		c0.358,0.156,0.731,0.23,1.1,0.23C23.117,75.267,24.129,74.649,24.581,73.615z M34.321,53.059h0.033l1.709,11.428l-1.709,2.339
		h-0.033l-1.709-2.339L34.321,53.059z"/>
	<path d="M77.016,93.346H48.003v13.339H21.659v18.674h81.7v-18.674H77.016V93.346z M100.692,109.353v13.339H24.328v-13.339h26.344
		V96.014h23.676v13.339H100.692z"/>
</g>
</svg>
