<?xml version="1.0" encoding="utf-8"?>
<!-- Generator: Adobe Illustrator 16.0.0, SVG Export Plug-In . SVG Version: 6.00 Build 0)  -->
<!DOCTYPE svg PUBLIC "-//W3C//DTD SVG 1.1//EN" "http://www.w3.org/Graphics/SVG/1.1/DTD/svg11.dtd">
<svg version="1.1" id="Layer_1" xmlns="http://www.w3.org/2000/svg" xmlns:xlink="http://www.w3.org/1999/xlink" x="0px" y="0px"
	 width="50px" height="50px" viewBox="0 0 50 50" enable-background="new 0 0 50 50" xml:space="preserve">
<g>
	<path d="M21.03,17.724v0.836c0,0,0.582,0.415,3.227,0.482v0.296l0.351,0.123v0.83h-2.744c-0.115,0-0.209,0.094-0.209,0.209
		c0,0.018,0.004,0.036,0.008,0.053c-0.134,0.072-0.226,0.211-0.226,0.374c0,0.236,0.191,0.427,0.427,0.427
		c0.236,0,0.427-0.191,0.427-0.427c0-0.08-0.022-0.154-0.062-0.217h2.148l-2.082,1.575c-0.069,0.053-0.097,0.14-0.076,0.22
		c-0.133,0.072-0.225,0.212-0.225,0.374c0,0.236,0.19,0.427,0.428,0.427c0.234,0,0.426-0.191,0.426-0.427
		c0-0.145-0.072-0.272-0.182-0.35L25,20.763l2.334,1.767c-0.109,0.077-0.182,0.205-0.182,0.35c0,0.236,0.19,0.427,0.426,0.427
		c0.236,0,0.427-0.191,0.427-0.427c0-0.162-0.091-0.302-0.224-0.374c0.021-0.08-0.007-0.167-0.077-0.22l-2.081-1.575h2.147
		c-0.038,0.063-0.062,0.138-0.062,0.217c0,0.236,0.191,0.427,0.428,0.427c0.235,0,0.426-0.191,0.426-0.427
		c0-0.163-0.091-0.302-0.225-0.374c0.004-0.017,0.008-0.035,0.008-0.053c0-0.115-0.094-0.209-0.209-0.209h-2.744v-0.83l0.351-0.123
		v-0.296c2.644-0.067,3.227-0.482,3.227-0.482v-0.836l-0.679-0.983l0.496,0.718c0.519-0.443,0.785-1.303,0.785-2.22
		s-0.395-1.173-1.208-1.162h-0.466v-3.888c0,0-0.063-1.273-2.898-1.273c-2.836,0-2.899,1.273-2.899,1.273v3.888h-0.466
		c-0.812-0.012-1.208,0.244-1.208,1.162c0,0.917,0.268,1.777,0.785,2.22L21.03,17.724z M27.898,14.553h0.466
		c0.825-0.023,0.244,1.951-0.083,2.173l-0.383-0.555V14.553z M21.635,14.554h0.466v1.618l-0.383,0.555
		C21.391,16.504,20.811,14.53,21.635,14.554z"/>
	<path d="M15.436,37.019c0.729-0.49,1.229-1.455,1.229-2.325c0-1.227-0.994-2.222-2.221-2.222s-2.221,0.995-2.221,2.222
		c0,0.87,0.5,1.834,1.229,2.325c-1.74,0.44-3.03,1.952-3.03,3.071c0,0.662,2.011,0.992,4.022,0.992l-1.127-1.126l0.949-2.293h-0.01
		l-0.369-0.422c0.178,0.064,0.364,0.103,0.557,0.103s0.378-0.038,0.556-0.102l-0.368,0.422h-0.01l0.949,2.293l-1.127,1.126
		c2.012,0,4.022-0.331,4.022-0.992C18.466,38.971,17.176,37.46,15.436,37.019z"/>
	<polygon points="14.443,41.083 14.443,41.083 14.443,41.083 	"/>
	<path d="M25.992,37.019c0.729-0.49,1.229-1.455,1.229-2.325c0-1.227-0.994-2.222-2.221-2.222s-2.221,0.995-2.221,2.222
		c0,0.87,0.5,1.834,1.229,2.325c-1.74,0.44-3.03,1.952-3.03,3.071c0,0.662,2.011,0.992,4.022,0.992l-1.127-1.126l0.949-2.293h-0.01
		l-0.369-0.422c0.178,0.064,0.364,0.103,0.557,0.103s0.378-0.038,0.556-0.102l-0.368,0.422h-0.01l0.949,2.293L25,41.083
		c2.012,0,4.022-0.331,4.022-0.992C29.022,38.971,27.732,37.46,25.992,37.019z"/>
	<polygon points="25,41.083 25,41.083 25,41.083 	"/>
	<path d="M39.579,40.09c0-1.119-1.29-2.63-3.03-3.071c0.729-0.49,1.229-1.455,1.229-2.325c0-1.227-0.994-2.222-2.221-2.222
		s-2.221,0.995-2.221,2.222c0,0.87,0.5,1.834,1.229,2.325c-1.74,0.44-3.03,1.952-3.03,3.071c0,0.662,2.011,0.992,4.022,0.992
		l-1.127-1.126l0.949-2.293h-0.01L35,37.24c0.178,0.064,0.364,0.103,0.557,0.103s0.378-0.038,0.556-0.102l-0.368,0.422h-0.01
		l0.949,2.293l-1.127,1.126C37.568,41.083,39.579,40.752,39.579,40.09z"/>
	<polygon points="35.557,41.083 35.557,41.083 35.557,41.083 	"/>
	<path d="M14.5,31.042c0.276,0,0.5-0.224,0.5-0.5v-3.25h9.5v3.25c0,0.276,0.224,0.5,0.5,0.5s0.5-0.224,0.5-0.5v-3.25H35v3.25
		c0,0.276,0.224,0.5,0.5,0.5s0.5-0.224,0.5-0.5v-3.75c0-0.276-0.224-0.5-0.5-0.5h-10v-2.25c0-0.276-0.224-0.5-0.5-0.5
		s-0.5,0.224-0.5,0.5v2.25h-10c-0.276,0-0.5,0.224-0.5,0.5v3.75C14,30.818,14.224,31.042,14.5,31.042z"/>
</g>
</svg>
