<?xml version="1.0" encoding="utf-8"?>
<!-- Generator: Adobe Illustrator 16.0.0, SVG Export Plug-In . SVG Version: 6.00 Build 0)  -->
<!DOCTYPE svg PUBLIC "-//W3C//DTD SVG 1.1//EN" "http://www.w3.org/Graphics/SVG/1.1/DTD/svg11.dtd">
<svg version="1.1" id="Layer_1" xmlns="http://www.w3.org/2000/svg" xmlns:xlink="http://www.w3.org/1999/xlink" x="0px" y="0px"
	 width="126px" height="126px" viewBox="0 0 126 126" enable-background="new 0 0 126 126" xml:space="preserve">
<g>
	<path d="M72.051,107.955c0-2.08-3.516-3.812-8.134-4.171V92.117h-3.536v11.667c-4.619,0.359-8.134,2.091-8.134,4.171
		c0,0.066,0.016,0.131,0.023,0.196l-22.218,4.499l0.702,3.465l24.771-5.016c1.756,0.68,4.075,1.098,6.624,1.098
		c2.566,0,4.899-0.423,6.66-1.111l24.841,5.029l0.702-3.465L72.03,108.13C72.035,108.072,72.051,108.015,72.051,107.955z"/>
	<circle cx="61.618" cy="17.934" r="8.049"/>
	<path d="M53.263,53.874c0.18,0,0.361-0.021,0.541-0.053c-0.005,0.078-0.012,0.156-0.012,0.234l0.003,29.924
		c0,2.039,1.653,3.693,3.693,3.693c2.04,0,3.693-1.654,3.693-3.693l-0.002-25.682c0.146,0.008,0.292,0.02,0.439,0.02
		c0.029,0,0.057-0.005,0.087-0.006l-0.001,25.668c0,2.039,1.653,3.693,3.693,3.693h0c2.039,0,3.693-1.654,3.693-3.693l0.002-29.855
		c0.056-0.112,0.108-0.225,0.16-0.339c0.236,0.056,0.475,0.089,0.713,0.089c1.027,0,2.034-0.506,2.63-1.433
		c1.758-2.732,4.74-7.714,4.957-10.369c0.363-4.452-7.264-12.095-10.58-14.13c-0.12-0.072-0.248-0.124-0.375-0.18
		c-0.908-0.605-1.931-1.057-2.974-1.313l-2.005,2.02l-1.944-2.039c-0.006,0-0.013,0-0.02,0.002
		c-1.048,0.252-2.075,0.699-2.987,1.312c-0.139,0.06-0.279,0.118-0.411,0.199c-3.315,2.035-10.942,9.678-10.579,14.13
		c0.216,2.655,3.197,7.637,4.956,10.369C51.229,53.368,52.234,53.874,53.263,53.874z M69.856,39.372
		c0.713,0.964,1.233,1.81,1.423,2.354c-0.173,0.597-0.703,1.728-1.423,3.065V39.372z M61.599,28.768h0.038l1.941,12.977L61.637,44.4
		h-0.038l-1.941-2.656L61.599,28.768z M53.379,39.359v5.453c-0.734-1.363-1.272-2.503-1.435-3.076
		C52.131,41.192,52.656,40.336,53.379,39.359z"/>
	<circle cx="109.702" cy="45.583" r="8.049"/>
	<path d="M115.056,55.592c-0.12-0.075-0.248-0.125-0.374-0.182c-0.908-0.604-1.931-1.055-2.975-1.312l-2.005,2.019l-1.944-2.039
		c-0.006,0-0.013,0-0.02,0.001c-1.048,0.252-2.075,0.701-2.987,1.313c-0.139,0.059-0.279,0.117-0.411,0.199
		c-3.316,2.035-10.943,9.677-10.58,14.13c0.216,2.654,3.197,7.636,4.956,10.369c0.597,0.927,1.603,1.432,2.631,1.432
		c0.18,0,0.361-0.021,0.541-0.053c-0.005,0.078-0.012,0.156-0.012,0.234l0.003,29.924c0,2.038,1.654,3.691,3.693,3.691
		s3.693-1.653,3.693-3.691l-0.002-25.682c0.146,0.008,0.292,0.02,0.439,0.02c0.029,0,0.058-0.005,0.087-0.006l-0.001,25.668
		c0,2.038,1.653,3.691,3.693,3.691h0c2.04,0,3.693-1.653,3.693-3.691l0.002-29.856c0.056-0.11,0.109-0.224,0.161-0.339
		c0.235,0.057,0.475,0.09,0.712,0.09c1.027,0,2.034-0.505,2.631-1.432c1.758-2.733,4.74-7.715,4.956-10.369
		C125.999,65.269,118.372,57.627,115.056,55.592z M101.463,72.461c-0.734-1.363-1.272-2.502-1.434-3.076
		c0.187-0.544,0.711-1.401,1.434-2.377V72.461z M109.721,72.049h-0.038l-1.941-2.655l1.941-12.978h0.038l1.941,12.978
		L109.721,72.049z M117.94,72.44v-5.42c0.713,0.963,1.233,1.81,1.423,2.354C119.19,69.971,118.66,71.103,117.94,72.44z"/>
	<circle cx="16.307" cy="45.583" r="8.049"/>
	<path d="M21.66,55.592c-0.12-0.075-0.248-0.125-0.374-0.182c-0.907-0.604-1.931-1.055-2.975-1.312l-2.005,2.019l-1.945-2.039
		c-0.006,0-0.013,0-0.02,0.001c-1.048,0.252-2.074,0.701-2.987,1.313c-0.139,0.059-0.279,0.117-0.411,0.199
		c-3.316,2.035-10.943,9.677-10.58,14.13c0.216,2.654,3.198,7.636,4.956,10.369c0.597,0.927,1.604,1.432,2.631,1.432
		c0.18,0,0.361-0.021,0.541-0.053c-0.004,0.078-0.012,0.156-0.012,0.234l0.002,29.924c0,2.038,1.654,3.691,3.693,3.691
		c2.04,0,3.693-1.653,3.693-3.691l-0.002-25.682c0.146,0.008,0.292,0.02,0.44,0.02c0.029,0,0.058-0.005,0.086-0.006l-0.001,25.668
		c0,2.038,1.653,3.691,3.693,3.691h0c2.04,0,3.693-1.653,3.693-3.691l0.002-29.856c0.056-0.11,0.109-0.224,0.161-0.339
		c0.235,0.057,0.474,0.09,0.712,0.09c1.028,0,2.034-0.505,2.63-1.432c1.758-2.733,4.74-7.715,4.956-10.369
		C32.603,65.269,24.976,57.627,21.66,55.592z M8.068,72.461c-0.734-1.363-1.273-2.502-1.435-3.076
		c0.187-0.544,0.711-1.401,1.435-2.377V72.461z M16.325,72.049h-0.038l-1.94-2.655l1.94-12.978h0.038l1.942,12.978L16.325,72.049z
		 M24.545,72.44v-5.42c0.713,0.963,1.233,1.81,1.422,2.354C25.795,69.971,25.265,71.103,24.545,72.44z"/>
</g>
</svg>
