<?xml version="1.0" encoding="utf-8"?>
<!-- Generator: Adobe Illustrator 17.0.0, SVG Export Plug-In . SVG Version: 6.00 Build 0)  -->
<!DOCTYPE svg PUBLIC "-//W3C//DTD SVG 1.1//EN" "http://www.w3.org/Graphics/SVG/1.1/DTD/svg11.dtd">
<svg version="1.1" id="Layer_1" xmlns="http://www.w3.org/2000/svg" xmlns:xlink="http://www.w3.org/1999/xlink" x="0px" y="0px"
	 width="126px" height="126px" viewBox="0 0 126 126" enable-background="new 0 0 126 126" xml:space="preserve">
<path d="M112.75,36.406l-1.752-0.646c0.14-1.279,0.093-2.577-0.146-3.873l1.69-0.778c1.056-0.481,1.518-1.738,1.032-2.795
	l-0.986-2.144c-0.486-1.054-1.741-1.519-2.796-1.03l-1.691,0.78c-0.828-1.025-1.786-1.903-2.846-2.631l0.646-1.747
	c0.402-1.089-0.156-2.303-1.246-2.706l-2.212-0.818c-1.056-0.388-2.317,0.19-2.707,1.247l-0.646,1.75
	c-1.274-0.138-2.577-0.092-3.87,0.148l-0.78-1.691c-0.486-1.057-1.741-1.519-2.793-1.033l-2.144,0.986
	c-1.055,0.487-1.517,1.74-1.031,2.797l0.779,1.69c-1.024,0.826-1.904,1.786-2.628,2.848l-1.747-0.648
	c-1.055-0.391-2.318,0.19-2.708,1.247l-0.817,2.213c-0.195,0.527-0.174,1.102,0.062,1.612c0.238,0.512,0.658,0.899,1.184,1.092
	l1.75,0.647c-0.138,1.275-0.096,2.578,0.146,3.873l-1.69,0.777c-1.058,0.486-1.52,1.737-1.034,2.792l0.988,2.144
	c0.486,1.054,1.739,1.521,2.794,1.031l1.691-0.778c0.826,1.024,1.787,1.905,2.847,2.628l-0.646,1.749
	c-0.198,0.528-0.175,1.101,0.061,1.612c0.236,0.51,0.656,0.9,1.184,1.095l2.214,0.815c0.527,0.197,1.099,0.174,1.611-0.061
	c0.512-0.234,0.9-0.658,1.094-1.184l0.646-1.75c1.274,0.138,2.577,0.092,3.87-0.145l0.778,1.688c0.487,1.053,1.742,1.517,2.796,1.03
	l2.141-0.987c1.056-0.485,1.518-1.737,1.032-2.796l-0.779-1.687c1.024-0.829,1.905-1.789,2.628-2.846l1.75,0.644
	c0.529,0.197,1.102,0.174,1.615-0.063c0.51-0.232,0.898-0.656,1.093-1.182l0.815-2.214C114.398,38.023,113.837,36.809,112.75,36.406
	z M101.159,41.911c-1.103,0.507-2.274,0.762-3.483,0.762c-3.244,0-6.215-1.9-7.571-4.844c-1.922-4.174-0.09-9.135,4.081-11.056
	c1.104-0.509,2.274-0.766,3.482-0.766c3.244,0,6.216,1.902,7.573,4.847C107.162,35.028,105.332,39.986,101.159,41.911z M98.054,6.87
	c-15.152,0-27.478,12.324-27.478,27.477c0,15.15,12.326,27.477,27.478,27.477c15.151,0,27.478-12.326,27.478-27.477
	C125.531,19.194,113.205,6.87,98.054,6.87z M98.054,58.224c-13.166,0-23.877-10.711-23.877-23.877
	c0-13.165,10.711-23.876,23.877-23.876c13.167,0,23.876,10.711,23.876,23.876C121.93,47.513,111.22,58.224,98.054,58.224z
	 M40.428,99.916h18.113v4.911H40.428V99.916z M40.428,93.564h18.113v4.91H40.428V93.564z M56.375,92.042H38.261v-4.913h18.114
	V92.042z M60.61,96.021c0,5.439,4.425,9.865,9.865,9.865c5.441,0,9.867-4.426,9.867-9.865c0-5.44-4.426-9.866-9.867-9.866
	C65.035,86.154,60.61,90.58,60.61,96.021z M76.953,96.021c0,3.571-2.906,6.478-6.478,6.478c-3.572,0-6.478-2.906-6.478-6.478
	s2.906-6.479,6.478-6.479C74.047,89.542,76.953,92.449,76.953,96.021z M69.713,100.624v1.501h1.297v-1.56
	c0.9-0.12,1.608-0.403,2.106-0.844c0.537-0.48,0.81-1.092,0.81-1.827c0-0.594-0.189-1.104-0.561-1.521
	c-0.368-0.406-1-0.777-1.933-1.137l-0.422-0.161V92.81c0.647,0.071,1.31,0.237,1.966,0.497l0.164,0.064l0.647-1.623l-0.16-0.065
	c-0.824-0.341-1.705-0.536-2.617-0.585v-1.179h-1.296v1.21c-0.827,0.106-1.5,0.371-2,0.785c-0.548,0.455-0.826,1.04-0.826,1.745
	c0,0.65,0.195,1.204,0.579,1.648c0.374,0.434,0.968,0.809,1.767,1.117l0.48,0.176v2.344c-0.371-0.021-0.787-0.086-1.24-0.199
	c-0.529-0.13-0.996-0.295-1.389-0.487l-0.255-0.122v1.891l0.105,0.046C67.667,100.407,68.601,100.591,69.713,100.624z M71.01,97.07
	c0.301,0.127,0.525,0.254,0.661,0.382c0.156,0.146,0.231,0.324,0.231,0.547c0,0.17,0,0.657-0.892,0.859V97.07z M69.11,94.197
	c-0.137-0.148-0.204-0.326-0.204-0.554c0-0.207,0.078-0.377,0.237-0.518c0.136-0.12,0.326-0.21,0.57-0.266v1.722
	C69.432,94.452,69.228,94.322,69.11,94.197z M59.281,68.546c-15.152,0-27.479,12.325-27.479,27.475
	c0,15.153,12.327,27.477,27.479,27.477c15.15,0,27.477-12.323,27.477-27.477C86.758,80.871,74.432,68.546,59.281,68.546z
	 M59.281,119.897c-13.166,0-23.878-10.711-23.878-23.877c0-13.165,10.712-23.876,23.878-23.876S83.156,82.855,83.156,96.02
	C83.157,109.187,72.447,119.897,59.281,119.897z M81.158,73.133l-3.677-2.248l5.567-9.106l3.677,2.248L81.158,73.133z
	 M66.831,34.841h-9.055V30.53h9.055V34.841z M41.791,59.729l4.599,8.568l-3.797,2.038l-4.598-8.568L41.791,59.729z M35.199,17.496
	c0,4.492-3.642,8.134-8.134,8.134c-4.492,0-8.134-3.642-8.134-8.134c0-4.492,3.642-8.134,8.134-8.134
	C31.557,9.362,35.199,13.004,35.199,17.496z M53.651,29.093c0-14.663-11.928-26.59-26.59-26.59
	c-14.664,0-26.592,11.927-26.592,26.59c0,14.664,11.928,26.591,26.592,26.591C41.723,55.684,53.651,43.757,53.651,29.093z
	 M18.738,50.299c-0.352-0.138-0.699-0.284-1.043-0.44c-0.779-3.638-0.087-9.302,1.043-11.265V50.299z M27.084,44.244h-0.038
	l-1.961-2.686l1.961-13.115h0.038l1.961,13.115L27.084,44.244z M36.426,49.858c-0.341,0.154-0.686,0.3-1.035,0.437V38.608
	C36.513,40.57,37.203,46.228,36.426,49.858z M32.476,27.61c-0.137-0.083-0.282-0.143-0.425-0.205
	c-0.905-0.604-1.922-1.047-2.96-1.303l-2.025,2.041l-1.965-2.063c-0.007,0.003-0.015,0.004-0.021,0.005
	c-1.059,0.254-2.096,0.706-3.018,1.325c-0.141,0.061-0.283,0.119-0.417,0.2c-3.04,1.865-10.802,6.86-10.414,16.295
	c0.015,0.343,0.04,0.943,0.077,1.631c-4.33-4.15-7.034-9.985-7.034-16.442c0-12.565,10.222-22.787,22.787-22.787
	c12.564,0,22.787,10.222,22.787,22.787c0,6.461-2.708,12.298-7.043,16.449c0.032-0.6,0.057-1.115,0.073-1.412
	C43.402,34.551,35.539,29.489,32.476,27.61z"/>
</svg>
