<?xml version="1.0" encoding="utf-8"?>
<!-- Generator: Adobe Illustrator 16.0.0, SVG Export Plug-In . SVG Version: 6.00 Build 0)  -->
<!DOCTYPE svg PUBLIC "-//W3C//DTD SVG 1.1//EN" "http://www.w3.org/Graphics/SVG/1.1/DTD/svg11.dtd">
<svg version="1.1" id="Layer_1" xmlns="http://www.w3.org/2000/svg" xmlns:xlink="http://www.w3.org/1999/xlink" x="0px" y="0px"
	 width="50px" height="50px" viewBox="0 0 50 50" enable-background="new 0 0 50 50" xml:space="preserve">
<g>
	<path d="M14.662,27.68c0.828,0,1.5-0.96,1.5-1.789c0-0.828-0.672-1.5-1.5-1.5c-0.829,0-1.5,0.672-1.5,1.5
		C13.162,26.72,13.833,27.68,14.662,27.68z"/>
	<path d="M17.599,28.725c-0.011-0.043-0.021-0.086-0.041-0.126c-0.016-0.031-0.038-0.053-0.058-0.08
		c-0.026-0.035-0.051-0.07-0.085-0.099c-0.026-0.022-0.058-0.036-0.088-0.053c-0.03-0.019-0.056-0.042-0.09-0.055
		c-0.054-0.02-1.248-0.448-2.345-0.504l-0.151,0.302h-0.004l0.399,3.11l-0.474,0.83l-0.475-0.83l0.399-3.11h-0.005l-0.15-0.302
		c-1.097,0.056-2.291,0.484-2.344,0.504c-0.035,0.012-0.061,0.037-0.091,0.055c-0.03,0.018-0.061,0.031-0.086,0.053
		c-0.036,0.029-0.061,0.065-0.088,0.101c-0.019,0.025-0.04,0.048-0.056,0.077c-0.021,0.04-0.03,0.084-0.042,0.128
		c-0.007,0.027-0.022,0.05-0.025,0.078l-0.475,4.27c-0.036,0.326,0.199,0.619,0.524,0.655c0.022,0.003,0.044,0.004,0.066,0.004
		c0.298,0,0.555-0.225,0.588-0.527l0.432-3.891c0.051-0.015,0.106-0.031,0.165-0.048v4.049l-0.472,5.87
		c-0.032,0.393,0.261,0.736,0.652,0.767c0.02,0.002,0.039,0.002,0.058,0.002c0.367,0,0.679-0.282,0.708-0.655l0.427-5.306
		c0.088,0.04,0.185,0.062,0.288,0.062s0.199-0.022,0.287-0.062l0.427,5.306c0.03,0.373,0.341,0.655,0.708,0.655
		c0.02,0,0.039,0,0.058-0.002c0.392-0.031,0.684-0.374,0.652-0.767l-0.472-5.87v-4.049c0.059,0.017,0.113,0.033,0.164,0.048
		l0.433,3.891c0.034,0.303,0.291,0.527,0.588,0.527c0.022,0,0.044-0.001,0.066-0.004c0.326-0.036,0.561-0.329,0.524-0.655
		l-0.475-4.27C17.621,28.775,17.606,28.752,17.599,28.725z"/>
	<path d="M35.338,27.68c0.828,0,1.5-0.96,1.5-1.789c0-0.828-0.672-1.5-1.5-1.5c-0.829,0-1.5,0.672-1.5,1.5
		C33.838,26.72,34.509,27.68,35.338,27.68z"/>
	<path d="M38.3,28.804c-0.003-0.029-0.019-0.052-0.026-0.08c-0.011-0.043-0.021-0.086-0.041-0.126
		c-0.016-0.031-0.038-0.053-0.058-0.08c-0.026-0.035-0.051-0.07-0.084-0.099c-0.027-0.022-0.059-0.036-0.089-0.053
		c-0.031-0.019-0.056-0.042-0.09-0.055c-0.054-0.02-1.248-0.448-2.345-0.504l-0.151,0.302h-0.003l0.399,3.11l-0.475,0.83
		l-0.474-0.83l0.399-3.11h-0.004l-0.151-0.302c-1.097,0.056-2.29,0.484-2.344,0.504c-0.035,0.012-0.061,0.037-0.091,0.055
		c-0.03,0.018-0.061,0.031-0.087,0.053c-0.035,0.029-0.06,0.065-0.087,0.101c-0.019,0.025-0.04,0.048-0.055,0.077
		c-0.021,0.04-0.03,0.084-0.042,0.128c-0.007,0.027-0.021,0.05-0.024,0.078l-0.475,4.27c-0.036,0.326,0.198,0.619,0.524,0.655
		c0.022,0.003,0.044,0.004,0.066,0.004c0.298,0,0.555-0.225,0.588-0.527l0.433-3.891c0.051-0.015,0.105-0.031,0.165-0.048v4.049
		l-0.472,5.87c-0.032,0.393,0.26,0.736,0.652,0.767c0.019,0.002,0.038,0.002,0.058,0.002c0.367,0,0.678-0.282,0.708-0.655
		l0.427-5.306c0.088,0.04,0.185,0.062,0.287,0.062s0.199-0.022,0.288-0.062l0.427,5.306c0.03,0.373,0.341,0.655,0.708,0.655
		c0.019,0,0.039,0,0.058-0.002c0.392-0.031,0.684-0.374,0.652-0.767l-0.472-5.87v-4.049c0.059,0.017,0.114,0.033,0.165,0.048
		l0.432,3.891c0.034,0.303,0.291,0.527,0.588,0.527c0.022,0,0.044-0.001,0.066-0.004c0.326-0.036,0.56-0.329,0.524-0.655
		L38.3,28.804z"/>
	<path d="M29.044,20.673l3.736,3.736c0.068,0.068,0.158,0.103,0.248,0.103c0.09,0,0.18-0.034,0.249-0.103
		c0.137-0.137,0.137-0.359,0-0.497l-3.737-3.737c2.129-2.388,2.055-6.061-0.235-8.351c-1.148-1.148-2.678-1.781-4.306-1.781
		s-3.158,0.632-4.306,1.781c-1.148,1.148-1.781,2.678-1.781,4.306c0,1.509,0.549,2.93,1.544,4.044l-3.736,3.738
		c-0.137,0.137-0.137,0.359,0,0.497c0.068,0.068,0.158,0.103,0.248,0.103c0.09,0,0.18-0.034,0.249-0.103l3.736-3.737
		c1.115,0.995,2.536,1.545,4.046,1.545C26.51,22.218,27.93,21.668,29.044,20.673z M21.356,12.487
		c0.972-0.972,2.266-1.506,3.644-1.506s2.672,0.535,3.644,1.506c2.009,2.009,2.009,5.278,0,7.287
		c-0.972,0.972-2.266,1.507-3.644,1.507s-2.672-0.535-3.644-1.507c-0.972-0.971-1.507-2.265-1.507-3.644
		C19.85,14.753,20.385,13.459,21.356,12.487z"/>
	<path d="M21.824,18.872l0.695-0.434c0.304,0.328,0.68,0.598,1.105,0.787l-0.185,0.801l1.25,0.287l0.185-0.8
		c0.466,0.019,0.922-0.059,1.34-0.221l0.434,0.695l1.092-0.68l-0.434-0.695c0.328-0.307,0.598-0.68,0.787-1.107l0.798,0.186
		l0.289-1.254l-0.8-0.185c0.019-0.466-0.06-0.92-0.221-1.338l0.692-0.435l-0.68-1.091l-0.696,0.434
		c-0.303-0.33-0.678-0.599-1.105-0.788l0.186-0.799l-1.253-0.289l-0.183,0.8c-0.466-0.018-0.922,0.06-1.34,0.223l-0.433-0.695
		l-1.092,0.682l0.433,0.693c-0.329,0.305-0.598,0.682-0.786,1.107l-0.8-0.187l-0.288,1.254l0.799,0.184
		c-0.016,0.467,0.061,0.919,0.221,1.339l-0.694,0.434L21.824,18.872z M22.75,15.61c0.286-1.243,1.528-2.019,2.77-1.73
		c1.242,0.287,2.016,1.527,1.73,2.771c-0.286,1.241-1.527,2.016-2.769,1.731C23.236,18.092,22.461,16.854,22.75,15.61z"/>
</g>
</svg>
