<?xml version="1.0" encoding="utf-8"?>
<!-- Generator: Adobe Illustrator 16.0.0, SVG Export Plug-In . SVG Version: 6.00 Build 0)  -->
<!DOCTYPE svg PUBLIC "-//W3C//DTD SVG 1.1//EN" "http://www.w3.org/Graphics/SVG/1.1/DTD/svg11.dtd">
<svg version="1.1" id="Layer_1" xmlns="http://www.w3.org/2000/svg" xmlns:xlink="http://www.w3.org/1999/xlink" x="0px" y="0px"
	 width="50px" height="50px" viewBox="0 0 50 50" enable-background="new 0 0 50 50" xml:space="preserve">
<g>
	<circle cx="15.715" cy="12.284" r="3.215"/>
	<path d="M40.375,38.832l-2.153-4.951l-0.594-5.728C37.86,27.827,38,27.43,38,26.999v-9.431c0-1.104-0.896-2-2-2s-2,0.896-2,2v0.63
		l-2.906,4.011l-5.354,1.137c-0.313,0.066-0.565,0.252-0.74,0.492c-0.175-0.24-0.427-0.425-0.74-0.492l-5.354-1.137L16,18.198v-0.63
		c0-1.104-0.896-2-2-2s-2,0.896-2,2v9.431c0,0.431,0.14,0.828,0.372,1.155l-0.594,5.728l-2.153,4.951
		c-0.331,0.759,0.018,1.643,0.777,1.974c0.195,0.085,0.397,0.125,0.597,0.125c0.579,0,1.131-0.337,1.376-0.902l2.246-5.163
		c0.062-0.141,0.101-0.291,0.117-0.443l0.148-1.427l0.596,1.422l1.046,5.304c0.141,0.714,0.768,1.21,1.47,1.21
		c0.096,0,0.194-0.009,0.292-0.029c0.812-0.16,1.341-0.949,1.181-1.762l-1.076-5.453c-0.02-0.099-0.049-0.196-0.088-0.289
		l-2.418-5.771C15.956,27.429,16,27.22,16,26.999v-4.54l1.164,1.606c0.182,0.25,0.45,0.425,0.752,0.489l5.824,1.236
		c0.088,0.019,0.175,0.028,0.261,0.028c0.402,0,0.767-0.204,0.999-0.52c0.232,0.316,0.597,0.52,0.999,0.52
		c0.086,0,0.173-0.009,0.261-0.028l5.824-1.236c0.303-0.064,0.571-0.239,0.752-0.489L34,22.459v4.54c0,0.221,0.044,0.43,0.11,0.628
		l-2.418,5.771c-0.039,0.093-0.069,0.19-0.088,0.289l-1.076,5.453c-0.16,0.813,0.369,1.602,1.181,1.762
		c0.098,0.02,0.196,0.029,0.292,0.029c0.702,0,1.329-0.496,1.47-1.21l1.046-5.304l0.596-1.422l0.148,1.427
		c0.016,0.153,0.055,0.303,0.117,0.443l2.246,5.163c0.246,0.565,0.797,0.902,1.376,0.902c0.2,0,0.402-0.04,0.597-0.125
		C40.358,40.475,40.706,39.591,40.375,38.832z"/>
	<circle cx="34.285" cy="12.284" r="3.215"/>
</g>
</svg>
