<?xml version="1.0" encoding="iso-8859-1"?>
<!-- Generator: Adobe Illustrator 17.1.0, SVG Export Plug-In . SVG Version: 6.00 Build 0)  -->
<!DOCTYPE svg PUBLIC "-//W3C//DTD SVG 1.1//EN" "http://www.w3.org/Graphics/SVG/1.1/DTD/svg11.dtd">
<svg version="1.1" id="Layer_1" xmlns="http://www.w3.org/2000/svg" xmlns:xlink="http://www.w3.org/1999/xlink" x="0px" y="0px"
	 viewBox="0 0 128 128" style="enable-background:new 0 0 128 128;" xml:space="preserve">
<g>
	<circle cx="28.929" cy="22.083" r="7.225"/>
	<path d="M107.295,43.169h0.002c0,0,0.757,0,0.793,0c0.393,0,0.561,0.322,0.594,0.4c0,0,5.626,18.343,5.628,18.343
		c0.611,1.986,2.716,3.103,4.703,2.493c1.988-0.61,3.105-2.716,2.496-4.704c-0.002-0.007-5.623-18.359-5.641-18.423
		c-0.86-2.99-2.956-9.797-8.872-9.797H91.126c-6.35,0-7.992,6.807-8.852,9.797c0,0-5.036,16.515-6.025,19.759
		c-0.014,0.027-0.029,0.054-0.043,0.081l-4.741,8.546c-0.218,0.378-0.466,0.526-0.928,0.526h-13.19c-0.216,0-0.479-0.152-0.586-0.34
		c0,0-4.258-7.46-4.984-8.734c-0.928-3.045-6.049-19.839-6.049-19.839c-0.86-2.99-2.503-9.797-8.852-9.797H21.003
		c-5.916,0-8.011,6.807-8.872,9.797c-0.018,0.063-5.639,18.415-5.641,18.423c-0.61,1.988,0.508,4.094,2.496,4.704
		c1.987,0.609,4.092-0.507,4.703-2.493c0.002,0,5.628-18.343,5.628-18.343c0.033-0.078,0.201-0.4,0.595-0.4c0.036,0,0.793,0,0.793,0
		h0.002c0.224-0.004,0.355,0.187,0.295,0.402L9.738,80.429c-0.061,0.215,0,0.59,0.392,0.59h7.901c0.224,0,0.387,0.181,0.387,0.405
		c0,0-0.002,26.852-0.002,26.862c0,2.682,2.174,4.855,4.855,4.855s4.855-2.174,4.855-4.855l0.002-26.862
		c0-0.224,0.181-0.405,0.405-0.405h0.006h0.776h0.006c0.224,0,0.405,0.181,0.405,0.405l0.002,26.862
		c0,2.682,2.174,4.855,4.855,4.855s4.855-2.174,4.855-4.855c0-0.009-0.002-26.862-0.002-26.862c0-0.224,0.164-0.405,0.387-0.405
		h7.901c0.392,0,0.453-0.375,0.392-0.59L36.857,43.57c-0.059-0.215,0.072-0.405,0.295-0.402h0.002c0,0,0.757,0,0.793,0
		c0.393,0,0.561,0.322,0.594,0.4c0,0,6.178,20.231,6.18,20.232c0.122,0.398,0.306,0.758,0.535,1.079l8.488,14.688
		c0.108,0.187,0.196,0.514,0.196,0.73v28.276c0.037,2.349,2.083,4.569,4.657,4.569c2.574,0,4.895-2.207,4.933-4.556l0.002-11.84
		c0-0.216,0.175-0.392,0.392-0.392h0.587c0.216,0,0.392,0.175,0.392,0.392l0.004,11.901c0.037,2.349,1.908,4.495,4.483,4.495
		c2.431,0,4.429-2.039,4.675-4.244c0.024-0.215,0.038-28.141,0.038-28.141s0.086-0.545,0.191-0.733c0,0,7.404-13.256,8.486-15.191
		c0.213-0.309,0.383-0.654,0.5-1.032c0.002,0,6.18-20.232,6.18-20.232c0.033-0.078,0.201-0.4,0.594-0.4c0.036,0,0.793,0,0.793,0
		h0.002c0.224-0.004,0.355,0.187,0.295,0.402L79.881,80.429c-0.061,0.215,0,0.59,0.392,0.59h7.901c0.224,0,0.387,0.181,0.387,0.405
		c0,0-0.002,26.852-0.002,26.862c0,2.681,2.174,4.855,4.855,4.855s4.855-2.174,4.855-4.855l0.002-26.862
		c0-0.224,0.181-0.405,0.405-0.405h0.006h0.776h0.006c0.224,0,0.405,0.181,0.405,0.405l0.002,26.862
		c0,2.681,2.174,4.855,4.855,4.855s4.855-2.174,4.855-4.855c0-0.01-0.002-26.862-0.002-26.862c0-0.224,0.164-0.405,0.387-0.405
		h7.901c0.392,0,0.453-0.376,0.392-0.59l-11.263-36.859C106.94,43.356,107.071,43.165,107.295,43.169z"/>
	<circle cx="99.071" cy="22.083" r="7.225"/>
	<path d="M61.554,58.025c-1.663,0.879-2.796,2.625-2.796,4.636c0,2.895,2.347,5.242,5.242,5.242c2.895,0,5.242-2.347,5.242-5.242
		c0-1.79-0.898-3.37-2.267-4.315v-3.07l-1.413,2.38c-0.154-0.048-0.312-0.089-0.472-0.122v-2.257l-1.289,2.148
		c-0.209,0.008-0.414,0.027-0.616,0.058v-2.206L61.554,58.025z"/>
</g>
</svg>
