<?xml version="1.0" encoding="utf-8"?>
<!-- Generator: Adobe Illustrator 16.0.0, SVG Export Plug-In . SVG Version: 6.00 Build 0)  -->
<!DOCTYPE svg PUBLIC "-//W3C//DTD SVG 1.1//EN" "http://www.w3.org/Graphics/SVG/1.1/DTD/svg11.dtd">
<svg version="1.1" id="Layer_1" xmlns="http://www.w3.org/2000/svg" xmlns:xlink="http://www.w3.org/1999/xlink" x="0px" y="0px"
	 width="126px" height="126px" viewBox="0 0 126 126" enable-background="new 0 0 126 126" xml:space="preserve">
<g>
	<path d="M41.843,26.737L41.843,26.737c0.435,0.001,0.867-0.021,1.291-0.065c6.372-0.644,11.346-6.023,11.346-12.565
		c0-6.974-5.654-12.629-12.629-12.629c-6.976,0-12.629,5.655-12.629,12.629C29.222,21.081,34.872,26.733,41.843,26.737z"/>
	<path d="M66.419,52.651c-0.021-0.54-0.062-1.068-0.117-1.587c-0.002-0.015-0.003-0.03-0.004-0.044
		c-1.329-12.173-11.736-18.567-16.041-21.208c-0.21-0.129-0.431-0.221-0.649-0.314c-0.924-0.619-1.925-1.118-2.958-1.51
		c-0.009-0.003-0.018-0.006-0.027-0.011c-0.559-0.211-1.126-0.398-1.699-0.536l0.005,0.098l-3.076,3.098l-3.051-3.202
		c-0.01,0.002-0.021,0.003-0.031,0.005c-1.644,0.393-3.254,1.097-4.685,2.058c-0.22,0.094-0.439,0.186-0.649,0.313
		c-6.2,3.803-25.068,15.376-11.235,40.803c0.89,1.634,2.573,2.561,4.312,2.561c0.791,0,1.596-0.192,2.339-0.597
		c0.261-0.142,0.496-0.312,0.72-0.491l0.005,45.648c0,3.2,2.594,5.795,5.794,5.795c3.2-0.001,5.794-2.595,5.794-5.796L41.16,77.441
		c0.231,0.011,0.46,0.029,0.691,0.029c0.045,0,0.09-0.005,0.135-0.005l-0.002,40.27c0,3.201,2.595,5.796,5.795,5.796
		c3.201,0,5.795-2.595,5.795-5.795l0.002-46.17c0.357,0.392,0.77,0.746,1.261,1.013c0.56,0.304,1.152,0.488,1.746,0.561
		c0.2,0.024,0.398,0.037,0.598,0.037c1.738,0,3.422-0.927,4.312-2.561c1.681-3.09,2.87-5.971,3.667-8.662
		c0.005-0.016,0.012-0.033,0.016-0.049c0.188-0.636,0.348-1.259,0.491-1.873c0.01-0.042,0.022-0.085,0.033-0.127
		c0.138-0.601,0.25-1.189,0.349-1.77c0.008-0.051,0.02-0.104,0.028-0.153c0.094-0.575,0.165-1.139,0.222-1.694
		c0.005-0.052,0.015-0.105,0.02-0.158c0.053-0.559,0.086-1.107,0.104-1.646c0.002-0.043,0.006-0.086,0.006-0.129
		c0.016-0.549,0.012-1.085-0.008-1.614C66.419,52.711,66.419,52.681,66.419,52.651z M28.925,61.966
		c-2.679-6.579-2.149-11.375,0-15.109V61.966z M41.88,55.633h-0.059l-3.045-4.168l3.045-20.359h0.059l3.047,20.359L41.88,55.633z
		 M54.777,61.927V46.885C56.91,50.606,57.434,55.384,54.777,61.927z"/>
	<path d="M106.131,109.016l-10.852-7.1l-0.027-29.248c0.305,0.291,0.637,0.558,1.024,0.769c0.744,0.405,1.546,0.596,2.339,0.596
		c1.738,0,3.422-0.927,4.31-2.561c13.833-25.426-5.034-37-11.235-40.803c-0.164-0.101-0.338-0.166-0.508-0.245
		c-1.385-0.909-2.933-1.576-4.511-1.963l-3.146,3.167l-3.051-3.202c-0.011,0.003-0.021,0.003-0.032,0.006
		c-1.505,0.36-2.982,0.982-4.32,1.821c-0.317,0.095-0.629,0.222-0.932,0.386c-7.908,4.271-15.607,2.099-18.171,0.671
		c-0.307-0.856-0.854-1.638-1.628-2.235c-1.433-1.102-3.271-1.263-4.831-0.621c0.282,0.16,0.575,0.311,0.84,0.485
		c0.254,0.11,0.479,0.213,0.697,0.346c3.41,2.092,10.25,6.29,14.035,13.636c1.454-0.037,2.946-0.173,4.467-0.438v24.834
		c0,1.333,0.263,2.576,0.721,3.718c-0.032,0.246-0.074,0.49-0.074,0.744l0.024,25.152c0.002,1.954,0.988,3.775,2.622,4.843
		l9.803,6.412l0.009,10.545c0.003,3.199,2.598,5.79,5.795,5.79c0.001,0,0.002,0,0.004,0c3.2-0.003,5.793-2.6,5.791-5.8l-0.003-2.949
		l4.496,2.941c0.979,0.64,2.079,0.946,3.168,0.946c1.89,0,3.742-0.923,4.854-2.624C109.562,114.359,108.81,110.767,106.131,109.016z
		 M96.452,48.165c1.872,3.542,2.291,8.025,0,14.02V48.165z M82.856,93.791l-0.015-15.358c0.228,0.011,0.455,0.029,0.684,0.029
		c0.048,0,0.095-0.005,0.143-0.006l0.014,15.876L82.856,93.791z M83.556,56.625h-0.059l-3.046-4.168l3.046-20.359h0.059
		l3.046,20.359L83.556,56.625z"/>
	<circle cx="83.524" cy="15.1" r="12.629"/>
</g>
</svg>
