<?xml version="1.0" encoding="utf-8"?>
<!-- Generator: Adobe Illustrator 16.0.0, SVG Export Plug-In . SVG Version: 6.00 Build 0)  -->
<!DOCTYPE svg PUBLIC "-//W3C//DTD SVG 1.1//EN" "http://www.w3.org/Graphics/SVG/1.1/DTD/svg11.dtd">
<svg version="1.1" id="Layer_1" xmlns="http://www.w3.org/2000/svg" xmlns:xlink="http://www.w3.org/1999/xlink" x="0px" y="0px"
	 width="126px" height="126px" viewBox="0 0 126 126" enable-background="new 0 0 126 126" xml:space="preserve">
<g>
	<path d="M124.081,103.873c-3.006-3.038-11.315-12.06-13.649-17.25c-2.271-5.045-4.397-12.869-5.304-16.401
		c0.258,0.233,0.538,0.447,0.857,0.621c0.687,0.373,1.424,0.55,2.15,0.55c1.596,0,3.146-0.852,3.96-2.354
		c12.713-23.363-4.627-33.997-10.322-37.491c-0.15-0.092-0.311-0.152-0.467-0.225c-1.271-0.834-2.695-1.448-4.146-1.804l-2.889,2.91
		l-2.804-2.942c-0.01,0.003-0.02,0.003-0.028,0.005c-1.391,0.333-2.755,0.908-3.988,1.685c-0.308,0.094-0.612,0.215-0.904,0.379
		c-1.688,0.95-3.187,1.115-4.845,0.537c-5.946-2.072-11.406-12.614-12.848-16.138c-0.937-2.304-3.561-3.414-5.869-2.477
		c-0.615,0.25-1.136,0.625-1.566,1.078c-1.814-0.042-3.552,1.012-4.275,2.795c-1.432,3.521-6.864,14.045-12.841,16.135
		c-1.663,0.582-3.161,0.419-4.852-0.533c-0.293-0.165-0.598-0.287-0.906-0.38c-1.233-0.776-2.598-1.352-3.988-1.684
		c-0.007-0.002-0.017-0.003-0.026-0.006l-2.804,2.943l-2.891-2.91c-1.45,0.355-2.874,0.97-4.146,1.804
		c-0.156,0.073-0.314,0.133-0.465,0.225c-5.697,3.495-23.035,14.127-10.323,37.491c0.816,1.501,2.363,2.353,3.959,2.353
		c0.729,0,1.466-0.177,2.152-0.549c0.32-0.173,0.6-0.388,0.857-0.621c-0.904,3.529-3.028,11.347-5.304,16.401
		c-2.331,5.177-10.642,14.208-13.648,17.25c-2.067,2.091-2.048,5.462,0.043,7.529c1.04,1.026,2.392,1.538,3.742,1.538
		c1.375,0,2.746-0.527,3.788-1.581c1.243-1.258,12.251-12.515,15.784-20.365c2.139-4.75,4.069-11.265,5.241-15.591
		c0.401,0.036,0.804,0.057,1.209,0.057c0.421,0,0.84-0.024,1.256-0.063c0.639,4.063,1.5,10.426,1.477,15.054
		c-0.026,5.678-3.956,17.305-5.467,21.307c-1.039,2.75,0.346,5.823,3.097,6.863c0.621,0.234,1.256,0.345,1.881,0.345
		c2.152,0,4.175-1.312,4.982-3.442c0.626-1.654,6.115-16.411,6.156-25.022c0.039-8.31-2.228-20.509-2.326-21.024
		c-0.018-0.101-0.061-0.19-0.084-0.289c0.572-1.195,0.905-2.524,0.905-3.968v-23.84c1.229-0.101,2.458-0.36,3.675-0.786
		c7.675-2.684,13.241-11.312,16.098-16.762c3.028,5.425,8.297,12.902,15.344,15.366c1.217,0.425,2.443,0.686,3.674,0.786v23.839
		c0,1.445,0.332,2.774,0.906,3.969c-0.024,0.098-0.066,0.188-0.084,0.288c-0.099,0.515-2.365,12.715-2.326,21.024
		c0.041,8.611,5.53,23.368,6.156,25.022c0.808,2.13,2.831,3.442,4.98,3.442c0.625,0,1.264-0.112,1.883-0.346
		c2.751-1.04,4.136-4.113,3.097-6.864c-1.511-3.996-5.439-15.613-5.467-21.305c-0.023-4.627,0.837-10.991,1.474-15.054
		c0.418,0.038,0.838,0.063,1.259,0.063c0.405,0,0.808-0.021,1.208-0.057c1.173,4.327,3.103,10.841,5.242,15.59
		c3.533,7.851,14.541,19.108,15.784,20.366c1.042,1.053,2.414,1.581,3.786,1.581c1.353,0,2.706-0.513,3.744-1.538
		C126.128,109.335,126.147,105.963,124.081,103.873z M106.149,47.624c1.72,3.253,2.105,7.373,0,12.879V47.624z M19.851,61.899
		c-2.105-5.506-1.721-9.626,0-12.88V61.899z M31.755,56.792h-0.054l-2.8-3.83l2.8-18.706h0.054l2.798,18.706L31.755,56.792z
		 M94.299,55.397h-0.054l-2.798-3.83l2.798-18.706h0.054l2.798,18.706L94.299,55.397z"/>
	<circle cx="94.272" cy="17.242" r="11.604"/>
	<circle cx="31.728" cy="18.638" r="11.604"/>
</g>
</svg>
