<?xml version="1.0" encoding="utf-8"?>
<!-- Generator: Adobe Illustrator 16.0.0, SVG Export Plug-In . SVG Version: 6.00 Build 0)  -->
<!DOCTYPE svg PUBLIC "-//W3C//DTD SVG 1.1//EN" "http://www.w3.org/Graphics/SVG/1.1/DTD/svg11.dtd">
<svg version="1.1" id="Layer_1" xmlns="http://www.w3.org/2000/svg" xmlns:xlink="http://www.w3.org/1999/xlink" x="0px" y="0px"
	 width="126px" height="126px" viewBox="0 0 126 126" enable-background="new 0 0 126 126" xml:space="preserve">
<g>
	<polygon points="52.033,51.117 74.509,51.117 74.509,47.035 74.573,46.98 74.509,46.902 74.509,33.352 74.573,33.272 
		74.509,33.219 74.509,31.086 74.539,31.112 82.855,21.807 81.084,20.224 73.561,28.643 55.228,28.643 46.373,20.224 44.601,21.807 
		52.033,29.078 	"/>
	<circle cx="25.15" cy="14.833" r="12.57"/>
	<path d="M57.203,54.176c-8.146,0-11.16-4.721-15.152-12.496c-2.207-4.292-4.486-8.731-8.539-11.218
		c-0.21-0.128-0.432-0.222-0.653-0.315c-1.398-0.935-2.972-1.621-4.576-2.014l-3.132,3.152l-3.034-3.188
		c-0.012,0.002-0.021,0.002-0.032,0.006c-1.637,0.391-3.242,1.093-4.666,2.051c-0.218,0.092-0.435,0.182-0.643,0.308
		c-6.17,3.786-24.948,15.304-11.181,40.61c0.884,1.627,2.56,2.549,4.29,2.549c0.787,0,1.588-0.191,2.329-0.594
		c0.258-0.141,0.496-0.305,0.718-0.482l0.002,45.426c0,3.185,2.582,5.766,5.767,5.766c3.188,0,5.768-2.581,5.768-5.768
		l-0.003-40.103c0.229,0.011,0.457,0.029,0.686,0.029c0.047,0,0.09-0.005,0.137-0.006l-0.003,40.079
		c0,3.187,2.583,5.768,5.768,5.768s5.767-2.581,5.767-5.768l0.003-46.441c0.754-1.401,1.195-2.985,1.195-4.723v-12.69
		c3.796,5.263,9.406,9.821,19.187,9.821c2.695,0,4.881-2.186,4.881-4.88C62.084,56.36,59.898,54.176,57.203,54.176z M12.285,47.43
		v15.032C9.622,55.918,10.148,51.144,12.285,47.43z M25.123,56.162l-3.03-4.148l3.03-20.263h0.058l3.032,20.263l-3.032,4.148H25.123
		z"/>
	<path d="M100.85,27.403c6.941,0,12.567-5.628,12.567-12.57c0-6.94-5.626-12.569-12.567-12.569c-6.944,0-12.57,5.629-12.57,12.569
		C88.279,21.775,93.905,27.403,100.85,27.403z"/>
	<path d="M109.222,30.462c-0.205-0.126-0.422-0.216-0.64-0.308c-1.424-0.958-3.029-1.66-4.666-2.051
		c-0.012-0.004-0.021-0.004-0.032-0.006l-3.034,3.188l-3.132-3.152c-1.604,0.393-3.176,1.079-4.576,2.014
		c-0.222,0.094-0.443,0.187-0.655,0.315c-4.051,2.486-6.33,6.926-8.537,11.218c-3.992,7.775-7.006,12.496-15.152,12.496
		c-2.695,0-4.881,2.185-4.881,4.88c0,2.694,2.186,4.88,4.881,4.88c9.78,0,15.391-4.559,19.187-9.821v12.69
		c0,1.737,0.441,3.321,1.195,4.723l0.003,46.441c0,3.187,2.582,5.768,5.767,5.768s5.768-2.581,5.768-5.768l-0.003-40.079
		c0.047,0.001,0.09,0.006,0.137,0.006c0.229,0,0.457-0.019,0.686-0.029l-0.003,40.103c0,3.187,2.58,5.768,5.768,5.768
		c3.185,0,5.767-2.581,5.767-5.766l0.002-45.426c0.222,0.178,0.46,0.342,0.718,0.482c0.741,0.402,1.542,0.594,2.329,0.594
		c1.73,0,3.406-0.922,4.29-2.549C134.173,45.766,115.395,34.248,109.222,30.462z M100.819,56.162l-3.032-4.148l3.032-20.263h0.058
		l3.03,20.263l-3.03,4.148H100.819z M113.713,62.462V47.43C115.852,51.144,116.378,55.918,113.713,62.462z"/>
</g>
</svg>
