<?xml version="1.0" encoding="utf-8"?>
<!-- Generator: Adobe Illustrator 16.0.0, SVG Export Plug-In . SVG Version: 6.00 Build 0)  -->
<!DOCTYPE svg PUBLIC "-//W3C//DTD SVG 1.1//EN" "http://www.w3.org/Graphics/SVG/1.1/DTD/svg11.dtd">
<svg version="1.1" id="Layer_1" xmlns="http://www.w3.org/2000/svg" xmlns:xlink="http://www.w3.org/1999/xlink" x="0px" y="0px"
	 width="126px" height="126px" viewBox="0 0 126 126" enable-background="new 0 0 126 126" xml:space="preserve">
<g>
	<path d="M103.31,36.534c-0.153-0.092-0.313-0.152-0.469-0.225c-1.277-0.838-2.706-1.455-4.162-1.812l-2.899,2.921l-2.813-2.953
		c-0.011,0.002-0.02,0.003-0.03,0.005c-1.394,0.334-2.764,0.912-4.004,1.692c-0.309,0.094-0.613,0.215-0.905,0.381
		c-1.805,1.014-3.521,1.211-5.397,0.626c-6.219-1.938-12.012-11.428-13.717-14.916c-0.795-1.639-2.45-2.569-4.162-2.535
		L63.451,1.355c-0.017-0.453-0.399-0.803-0.849-0.789c-0.452,0.016-0.806,0.396-0.789,0.849l0.005,0.13
		c-2.956,0.246-15.675,0.09-15.675,0.09s13.505,7.591,15.964,7.816l0.93,10.649c-0.057,0.024-0.115,0.035-0.169,0.062
		c-0.884,0.429-1.556,1.113-1.99,1.916c-1.573,0.099-3.051,0.998-3.79,2.518c-1.705,3.488-7.498,12.978-13.717,14.916
		c-1.877,0.585-3.593,0.387-5.397-0.626c-0.292-0.166-0.597-0.287-0.905-0.381c-1.24-0.78-2.608-1.358-4.004-1.692
		c-0.011-0.002-0.02-0.003-0.03-0.005l-2.812,2.953l-2.901-2.921c-1.456,0.356-2.885,0.974-4.162,1.812
		c-0.155,0.072-0.315,0.133-0.467,0.225c-5.72,3.508-23.12,14.181-10.362,37.632c0.818,1.507,2.372,2.361,3.976,2.361
		c0.732,0,1.472-0.176,2.158-0.55c0.356-0.194,0.661-0.441,0.942-0.708l-0.037,42.474c-0.004,2.952,2.388,5.346,5.34,5.349
		c0,0,0.002,0,0.004,0c2.949,0,5.342-2.389,5.346-5.339l0.033-37.146c0.043,0,0.086,0.005,0.131,0.005
		c0.21,0,0.42-0.017,0.629-0.026l-0.036,37.157c-0.005,2.952,2.388,5.347,5.337,5.35c0.002,0,0.004,0,0.006,0
		c2.95,0,5.342-2.389,5.344-5.339l0.046-43.302c0-0.236-0.039-0.46-0.069-0.688c0.424-1.053,0.666-2.199,0.666-3.429V48.845
		c1.312-0.068,2.629-0.296,3.938-0.707c8.537-2.672,14.845-11.956,17.63-16.779c3.232,5.032,8.902,12.152,16.204,14.438
		c1.31,0.41,2.627,0.638,3.938,0.706v23.831c0,1.231,0.242,2.376,0.666,3.43c-0.03,0.228-0.069,0.452-0.069,0.688l0.046,43.303
		c0.002,2.949,2.394,5.338,5.343,5.338c0.003,0,0.005,0,0.007,0c2.951-0.002,5.342-2.398,5.337-5.35l-0.036-37.157
		c0.209,0.01,0.419,0.027,0.631,0.027c0.043,0,0.086-0.005,0.129-0.005l0.033,37.146c0.004,2.95,2.396,5.339,5.346,5.339
		c0.002,0,0.004,0,0.006,0c2.95-0.002,5.342-2.397,5.338-5.349l-0.037-42.475c0.281,0.268,0.586,0.514,0.942,0.708
		c0.687,0.374,1.428,0.551,2.158,0.551c1.604,0,3.157-0.855,3.976-2.362C126.428,50.715,109.026,40.042,103.31,36.534z M18.3,67.941
		c-2.113-5.528-1.727-9.664,0-12.93V67.941z M30.249,62.813h-0.056l-2.808-3.844l2.808-18.777h0.056l2.809,18.777L30.249,62.813z
		 M95.807,60.473h-0.056l-2.81-3.845l2.81-18.777h0.056l2.808,18.777L95.807,60.473z M107.7,65.6v-12.93
		C109.427,55.936,109.813,60.072,107.7,65.6z"/>
	<circle cx="95.777" cy="22.174" r="11.648"/>
	<circle cx="30.223" cy="24.516" r="11.648"/>
</g>
</svg>
