<?xml version="1.0" encoding="utf-8"?>
<!-- Generator: Adobe Illustrator 16.0.0, SVG Export Plug-In . SVG Version: 6.00 Build 0)  -->
<!DOCTYPE svg PUBLIC "-//W3C//DTD SVG 1.1//EN" "http://www.w3.org/Graphics/SVG/1.1/DTD/svg11.dtd">
<svg version="1.1" id="Layer_1" xmlns="http://www.w3.org/2000/svg" xmlns:xlink="http://www.w3.org/1999/xlink" x="0px" y="0px"
	 width="126px" height="126px" viewBox="0 0 126 126" enable-background="new 0 0 126 126" xml:space="preserve">
<path d="M36.557,35.68c0.599,0,1.206-0.129,1.782-0.402c0.06-0.028,3.787-1.789,7.345-3.423c-3.179-0.883-5.857-2.959-7.53-5.72
	c-1.849,0.864-3.237,1.519-3.384,1.589c-2.087,0.986-2.979,3.477-1.994,5.563C33.489,34.795,34.991,35.68,36.557,35.68z"/>
<g>
	<path d="M82.808,28.005c4.031,1.85,8.307,3.87,8.375,3.902c0.647,0.305,1.329,0.45,2.001,0.45c1.756,0,3.437-0.992,4.237-2.685
		c1.106-2.34,0.106-5.134-2.233-6.239c-0.174-0.082-1.87-0.884-4.095-1.921C89.266,24.608,86.32,26.962,82.808,28.005z"/>
	<circle cx="78.981" cy="14.478" r="12.986"/>
	<circle cx="47.663" cy="14.478" r="12.986"/>
	<path d="M50.135,28.752l-2.619,2.009l-1.986-1.814c-4.337,1.977-9.554,4.441-9.624,4.475c-0.759,0.358-1.567,0.54-2.401,0.54
		c-0.924,0-1.813-0.242-2.606-0.659l-0.019,0.019c-5.019-4.026-9.203-10.997-10.67-13.998c-1.217-2.506-4.233-3.549-6.738-2.333
		c-2.504,1.216-3.549,4.233-2.332,6.738c0.89,1.83,9.041,17.993,21.341,21.842c0.708,0.222,1.419,0.386,2.13,0.518
		c0.081,3.1,0.229,9.08,0.229,11.085c0,5.118,1.054,6.53,1.054,6.53l0.005,6.239h0.092c-0.003,0.081-0.024,0.157-0.024,0.239
		l0.003,48.277c0,3.291,2.667,5.958,5.958,5.958c3.29,0,5.958-2.667,5.958-5.958l-0.002-48.277c0-0.082-0.021-0.158-0.024-0.239
		h0.897c-0.004,0.081-0.024,0.157-0.024,0.238l-0.003,48.277c0,3.291,2.667,5.958,5.958,5.958c3.29,0,5.958-2.667,5.958-5.958
		l0.004-48.277c0-0.082-0.021-0.158-0.024-0.239h0.016v-5.49c0-0.199-0.013-0.395-0.03-0.589c0.629-1.824,0.967-3.824,0.967-5.924
		V33.037c-2.142,0.172-8.594-4.511-9.386-4.871C51.667,28.316,50.677,28.662,50.135,28.752z"/>
	<path d="M112.535,17.441c-2.502-1.219-5.518-0.178-6.739,2.32c-1.425,2.916-5.403,9.575-10.221,13.646
		c-0.788,0.411-1.669,0.65-2.586,0.65c-0.832,0-1.642-0.182-2.4-0.54c-0.07-0.034-5.286-2.498-9.624-4.475l-1.987,1.814
		l-2.618-2.466c-0.543-0.091-1.076-0.207-1.598-0.358c-1.082,0.491-2.371,1.161-3.704,1.948c0.098-0.574,0.094-1.154-0.021-1.718
		c0.593-0.345,1.175-0.663,1.747-0.964c-3.057-1.397-5.532-3.833-6.988-6.857c-0.806,0.49-1.597,0.991-2.351,1.501
		c-1.102-0.632-2.165-1.234-3.001-1.707c-1.408,3.052-3.853,5.521-6.884,6.965c2.481,1.292,8.516,4.635,10.191,5.817
		c0.367,0.258,0.763,0.435,1.168,0.575v24.444c0,2.1,0.338,4.1,0.966,5.924c-0.018,0.194-0.029,0.39-0.029,0.589v5.49h0.037
		c-0.002,0.079-0.022,0.154-0.022,0.234l0.001,48.276c0,3.292,2.668,5.958,5.958,5.958c3.291,0,5.958-2.667,5.958-5.959
		l-0.001-48.276c0-0.08-0.021-0.154-0.022-0.233h0.894c-0.002,0.079-0.023,0.153-0.023,0.233l-0.003,48.277
		c0,3.291,2.667,5.958,5.958,5.959c3.29,0,5.958-2.667,5.958-5.958l0.004-48.277c0-0.081-0.021-0.155-0.023-0.234h0.069l0.004-6.238
		c0,0,1.054-1.413,1.054-6.531c0-1.952,0.141-7.669,0.223-10.831c0.549-0.117,1.098-0.252,1.646-0.423
		c12.299-3.851,20.45-20.012,21.339-21.843C116.078,21.671,115.035,18.66,112.535,17.441z"/>
</g>
</svg>
