<?xml version="1.0" encoding="utf-8"?>
<!-- Generator: Adobe Illustrator 16.0.0, SVG Export Plug-In . SVG Version: 6.00 Build 0)  -->
<!DOCTYPE svg PUBLIC "-//W3C//DTD SVG 1.1//EN" "http://www.w3.org/Graphics/SVG/1.1/DTD/svg11.dtd">
<svg version="1.1" id="Layer_11" xmlns="http://www.w3.org/2000/svg" xmlns:xlink="http://www.w3.org/1999/xlink" x="0px" y="0px"
	 width="100px" height="100px" viewBox="0 0 100 100" enable-background="new 0 0 100 100" xml:space="preserve">
<path d="M25.569,33.879c0-3.759,2.001-7.05,4.994-8.87v-1.965c0-11.001,8.95-19.952,19.951-19.952
	c11.002,0,19.951,8.951,19.951,19.952v2.684c2.412,1.898,3.965,4.842,3.965,8.15c0,4.856-3.342,8.92-7.849,10.049
	c-0.254,0.632-0.632,1.313-1.239,1.97c-1.394,1.513-3.512,2.443-6.299,2.792c-0.183,0.559-0.691,0.97-1.311,0.97h-2.651
	c-0.772,0-1.398-0.625-1.398-1.397c0-0.772,0.626-1.397,1.398-1.397h2.651c0.494,0,0.909,0.272,1.158,0.662
	c2.505-0.31,4.381-1.12,5.586-2.426c0.276-0.3,0.483-0.605,0.663-0.907c-0.356,0.037-0.717,0.057-1.082,0.057V23.507
	c1.109,0,2.179,0.176,3.181,0.499v-0.963c0-9.222-7.502-16.725-16.725-16.725c-9.222,0-16.725,7.503-16.725,16.725v0.689
	c0.694-0.146,1.414-0.224,2.15-0.224V44.25C30.212,44.25,25.569,39.607,25.569,33.879z M55.016,45.848h2.651
	c0.591,0,1.154,0.211,1.604,0.585c0.815-0.135,1.522-0.345,2.159-0.602c0.293-0.259,0.588-0.515,0.861-0.793V20.887h0.08
	c-3.137-3.225-7.518-5.235-12.372-5.235s-9.235,2.01-12.372,5.236h0.078v24.15c3.133,3.176,7.48,5.148,12.294,5.148
	c1,0,1.974-0.104,2.927-0.268c-0.303-0.423-0.487-0.937-0.487-1.496C52.439,47.002,53.596,45.848,55.016,45.848z M57.325,51.364
	H42.674c-12.19,0-22.108,9.918-22.108,22.108v17.923l0.046,0.279l1.236,0.386c11.632,3.633,21.741,4.848,30.06,4.848
	c16.249,0,25.667-4.634,26.248-4.928l1.156-0.586l0.123,0.001V73.472C79.435,61.282,69.517,51.364,57.325,51.364z"/>
</svg>
