<?xml version="1.0" encoding="utf-8"?>
<!-- Generator: Adobe Illustrator 16.0.0, SVG Export Plug-In . SVG Version: 6.00 Build 0)  -->
<!DOCTYPE svg PUBLIC "-//W3C//DTD SVG 1.1//EN" "http://www.w3.org/Graphics/SVG/1.1/DTD/svg11.dtd">
<svg version="1.1" id="Layer_11" xmlns="http://www.w3.org/2000/svg" xmlns:xlink="http://www.w3.org/1999/xlink" x="0px" y="0px"
	 width="100px" height="100px" viewBox="0 0 100 100" enable-background="new 0 0 100 100" xml:space="preserve">
<g>
	<path d="M64.099,49.784c1.413,0.661,2.982,1.041,4.646,1.041c6.075,0,10.996-4.922,10.996-10.996
		c0-6.074-4.921-10.996-10.996-10.996c-6.017,0-10.896,4.834-10.988,10.829C61.224,41.835,63.654,45.514,64.099,49.784z"/>
	<path d="M73.41,51.575h-9.259c-0.101,3.705-1.681,7.041-4.182,9.439c6.901,2.053,11.949,8.452,11.949,16.011v3.517
		c9.142-0.336,14.41-2.926,14.758-3.101l0.734-0.374h0.078V65.654C87.489,57.891,81.174,51.575,73.41,51.575z"/>
	<circle cx="50.553" cy="51.181" r="10.997"/>
	<path d="M55.217,62.927h-9.33c-7.764,0-14.08,6.317-14.08,14.08v11.413l0.029,0.179l0.785,0.246
		c7.409,2.314,13.847,3.087,19.145,3.087c10.348,0,16.347-2.951,16.717-3.139l0.735-0.373h0.078V77.007
		C69.296,69.244,62.979,62.927,55.217,62.927z"/>
	<path d="M62.912,28.15c3.723-1.699,8.131-1.705,11.941,0.273c1.329-0.815,2.511-1.917,3.425-3.306
		c3.343-5.073,1.94-11.891-3.13-15.233c-5.071-3.342-11.891-1.941-15.233,3.131C56.604,18.04,57.957,24.774,62.912,28.15z"/>
	<path d="M31.257,50.825c2.151,0,4.151-0.628,5.848-1.698c0.539-3.515,2.424-6.588,5.116-8.68c0.011-0.206,0.03-0.41,0.03-0.618
		c0-6.074-4.924-10.996-10.994-10.996c-6.075,0-10.997,4.922-10.997,10.996C20.26,45.902,25.182,50.825,31.257,50.825z"/>
	<path d="M41.133,61.014c-2.489-2.386-4.065-5.705-4.18-9.388c-0.344-0.025-0.684-0.052-1.033-0.052h-9.329
		c-7.765,0-14.08,6.316-14.08,14.079v11.413l0.028,0.178l0.787,0.247c5.943,1.857,11.248,2.711,15.855,2.979v-3.446
		C29.182,69.466,34.23,63.067,41.133,61.014z"/>
	<path d="M25.418,28.15c3.722-1.699,8.131-1.705,11.941,0.273c1.328-0.815,2.51-1.917,3.425-3.306
		c3.343-5.073,1.94-11.891-3.13-15.233c-5.072-3.342-11.891-1.941-15.233,3.131C19.109,18.04,20.462,24.774,25.418,28.15z"/>
	<path d="M55.646,38.415L56.738,9.33H43.03l1.092,29.085H55.646z M55.646,10.381l-1.011,26.982h-9.501l-1.011-26.982H55.646z"/>
</g>
</svg>
