<?xml version="1.0" encoding="utf-8"?>
<!-- Generator: Adobe Illustrator 16.0.0, SVG Export Plug-In . SVG Version: 6.00 Build 0)  -->
<!DOCTYPE svg PUBLIC "-//W3C//DTD SVG 1.1//EN" "http://www.w3.org/Graphics/SVG/1.1/DTD/svg11.dtd">
<svg version="1.1" id="Layer_11" xmlns="http://www.w3.org/2000/svg" xmlns:xlink="http://www.w3.org/1999/xlink" x="0px" y="0px"
	 width="100px" height="100px" viewBox="0 0 100 100" enable-background="new 0 0 100 100" xml:space="preserve">
<path d="M22.834,41.079c0-8.1,6.566-14.666,14.666-14.666s14.666,6.566,14.666,14.666S45.6,55.745,37.5,55.745
	S22.834,49.179,22.834,41.079z M43.723,56.745H31.278c-10.354,0-18.778,8.424-18.778,18.777v15.223l0.039,0.237l1.051,0.328
	c9.879,3.086,18.465,4.117,25.531,4.117c13.801,0,21.799-3.936,22.294-4.186l0.981-0.498l0.104,0.001V75.522
	C62.5,65.169,54.076,56.745,43.723,56.745z M62.5,33.904c8.1,0,14.666-6.566,14.666-14.666S70.6,4.572,62.5,4.572
	s-14.666,6.566-14.666,14.666S54.4,33.904,62.5,33.904z M68.722,34.904H56.277c-0.297,0-0.586,0.031-0.879,0.045
	c1.126,2.362,1.775,4.994,1.775,7.781c0,5.143-2.158,9.782-5.604,13.091c8.066,2.399,14.232,9.25,15.635,17.691
	c11.896-0.52,18.753-3.881,19.209-4.111l0.981-0.498l0.104,0.001V53.682C87.5,43.328,79.076,34.904,68.722,34.904z"/>
</svg>
