<?xml version="1.0" encoding="utf-8"?>
<!-- Generator: Adobe Illustrator 16.0.0, SVG Export Plug-In . SVG Version: 6.00 Build 0)  -->
<!DOCTYPE svg PUBLIC "-//W3C//DTD SVG 1.1//EN" "http://www.w3.org/Graphics/SVG/1.1/DTD/svg11.dtd">
<svg version="1.1" id="Layer_11" xmlns="http://www.w3.org/2000/svg" xmlns:xlink="http://www.w3.org/1999/xlink" x="0px" y="0px"
	 width="100px" height="100px" viewBox="0 0 100 100" enable-background="new 0 0 100 100" xml:space="preserve">
<path d="M37.708,45.038v-24.15h-0.079c3.137-3.226,7.517-5.236,12.372-5.236c4.854,0,9.234,2.011,12.372,5.236h-0.08v24.151
	c-3.131,3.176-7.479,5.148-12.292,5.148S40.839,48.214,37.708,45.038z M57.326,51.364H42.674c-12.19,0-22.108,9.918-22.108,22.108
	v17.923l0.046,0.279l1.236,0.386c11.632,3.633,21.741,4.848,30.06,4.848c16.249,0,25.667-4.634,26.249-4.928l1.155-0.586
	l0.122,0.001V73.472C79.434,61.282,69.516,51.364,57.326,51.364z M35.941,44.25V23.508c-0.737,0-1.456,0.079-2.151,0.224v-0.689
	c0-9.221,7.502-16.724,16.725-16.724c9.222,0,16.725,7.503,16.725,16.724v0.963c-1.003-0.323-2.072-0.499-3.182-0.499V44.25
	c5.729,0,10.372-4.643,10.372-10.372c0-3.308-1.551-6.251-3.964-8.15v-2.684c0-11.001-8.95-19.952-19.951-19.952
	c-11.002,0-19.951,8.951-19.951,19.952v1.965c-2.995,1.82-4.995,5.111-4.995,8.87C25.57,39.607,30.213,44.25,35.941,44.25z"/>
</svg>
