<?xml version="1.0" encoding="utf-8"?>
<!-- Generator: Adobe Illustrator 16.0.0, SVG Export Plug-In . SVG Version: 6.00 Build 0)  -->
<!DOCTYPE svg PUBLIC "-//W3C//DTD SVG 1.1//EN" "http://www.w3.org/Graphics/SVG/1.1/DTD/svg11.dtd">
<svg version="1.1" id="Layer_11" xmlns="http://www.w3.org/2000/svg" xmlns:xlink="http://www.w3.org/1999/xlink" x="0px" y="0px"
	 width="100px" height="100px" viewBox="0 0 100 100" enable-background="new 0 0 100 100" xml:space="preserve">
<g>
	<circle cx="23.255" cy="17.041" r="9.514"/>
	<circle cx="76.745" cy="17.041" r="9.514"/>
	<path d="M83.885,25.56c-1.874,1.749-4.38,2.828-7.14,2.828s-5.266-1.08-7.14-2.828c-4.056,1.071-7.283,4.183-8.522,8.164
		c-3.505-0.646-7.227-0.996-11.083-0.996c-3.856,0-7.578,0.35-11.083,0.996c-1.239-3.981-4.467-7.093-8.522-8.164
		c-1.874,1.748-4.38,2.827-7.14,2.827s-5.266-1.079-7.14-2.827c-5.216,1.378-9.078,6.123-9.078,11.765V47.2l0.025,0.153l0.681,0.213
		c2.123,0.663,4.144,1.168,6.077,1.563c-0.891,1.909-1.377,3.919-1.377,5.995c0,8.967,8.885,16.715,21.676,20.289
		c-0.472,1.295-0.734,2.69-0.734,4.147v9.875l0.025,0.154l0.681,0.213c6.409,2.002,11.979,2.671,16.563,2.671
		c8.953,0,14.142-2.554,14.462-2.716l0.637-0.322h0.068v-9.875c0-1.384-0.235-2.713-0.663-3.952
		c13.178-3.482,22.398-11.351,22.398-20.484c0-1.978-0.437-3.895-1.248-5.722c3.678-0.761,5.75-1.779,5.949-1.88l0.637-0.323
		l0.068,0.001v-9.875C92.963,31.683,89.101,26.938,83.885,25.56z M84.962,55.124c0,8.091-8.616,15.06-20.92,18.129
		c-1.62-2.652-4.219-4.645-7.298-5.457c-1.874,1.748-4.38,2.827-7.14,2.827c-2.759,0-5.266-1.079-7.14-2.827
		c-3.011,0.795-5.565,2.717-7.191,5.281c-11.937-3.154-20.234-10.014-20.234-17.953c0-1.915,0.492-3.766,1.392-5.519
		c2.874,0.448,5.508,0.632,7.875,0.632c8.953,0,14.142-2.553,14.462-2.715l0.637-0.323l0.068,0.001v-9.876
		c0-0.361-0.017-0.72-0.048-1.073c3.338-0.602,6.89-0.929,10.575-0.929c3.686,0,7.238,0.327,10.576,0.929
		c-0.031,0.354-0.048,0.712-0.048,1.074V47.2l0.025,0.154l0.681,0.213c6.409,2.001,11.979,2.67,16.562,2.67
		c2.199,0,4.167-0.154,5.896-0.39C84.513,51.529,84.962,53.297,84.962,55.124z"/>
	<circle cx="49.604" cy="59.277" r="9.514"/>
</g>
</svg>
