<?xml version="1.0" encoding="utf-8"?>
<!-- Generator: Adobe Illustrator 16.0.0, SVG Export Plug-In . SVG Version: 6.00 Build 0)  -->
<!DOCTYPE svg PUBLIC "-//W3C//DTD SVG 1.1//EN" "http://www.w3.org/Graphics/SVG/1.1/DTD/svg11.dtd">
<svg version="1.1" id="Layer_11" xmlns="http://www.w3.org/2000/svg" xmlns:xlink="http://www.w3.org/1999/xlink" x="0px" y="0px"
	 width="100px" height="100px" viewBox="0 0 100 100" enable-background="new 0 0 100 100" xml:space="preserve">
<path d="M59.287,43.191c4.765-3.063,7.93-8.398,7.93-14.482c0-9.508-7.709-17.217-17.215-17.217c-9.51,0-17.217,7.709-17.217,17.217
	c0,6.084,3.164,11.42,7.93,14.482c-11.228,1.005-20.061,10.463-20.061,21.949V83.01l0.045,0.279l1.232,0.385
	c11.598,3.623,21.676,4.834,29.971,4.834c16.199,0,25.59-4.621,26.172-4.914l1.15-0.584h0.121V65.141
	C79.346,53.655,70.516,44.198,59.287,43.191z"/>
</svg>
