<?xml version="1.0" encoding="utf-8"?>
<!-- Generator: Adobe Illustrator 16.0.0, SVG Export Plug-In . SVG Version: 6.00 Build 0)  -->
<!DOCTYPE svg PUBLIC "-//W3C//DTD SVG 1.1//EN" "http://www.w3.org/Graphics/SVG/1.1/DTD/svg11.dtd">
<svg version="1.1" id="Layer_11" xmlns="http://www.w3.org/2000/svg" xmlns:xlink="http://www.w3.org/1999/xlink" x="0px" y="0px"
	 width="100px" height="100px" viewBox="0 0 100 100" enable-background="new 0 0 100 100" xml:space="preserve">
<path d="M41.5,27.238c0-9.292,7.534-16.826,16.826-16.826c9.292,0,16.825,7.534,16.825,16.826c0,9.292-7.533,16.825-16.825,16.825
	C49.034,44.063,41.5,36.53,41.5,27.238z M65.463,45.21H51.187c-7.908,0-14.816,4.295-18.562,10.664l0.918,2.697
	c0.202,0.591,0.763,0.822,1.215,0.766l2.831-0.964c0.199-0.067,0.4-0.126,0.601-0.176l2.763-0.943l0.292,0.837
	c2.625,0.457,4.841,2.309,5.722,4.893l3.731,10.953c0.637,1.868,0.508,3.873-0.363,5.644c-0.871,1.771-2.379,3.097-4.249,3.733
	l-1.037,0.354c-1.707,0.819-3.507,1.1-5.102,1.35l-0.145,0.021c-0.819,0.129-1.636,0.194-2.427,0.194
	c-2.888,0-5.446-0.859-7.731-2.358v1.34l0.045,0.272l1.204,0.376c11.334,3.54,21.185,4.724,29.291,4.724
	c15.833,0,25.009-4.516,25.577-4.802l1.126-0.571l0.119,0.001V66.752C87.006,54.874,77.341,45.21,65.463,45.21z M39.545,82.532
	c1.568-0.246,3.198-0.484,4.614-1.2l1.207-0.412c2.42-0.825,3.713-3.454,2.889-5.874l-3.732-10.953
	c-0.736-2.159-2.91-3.416-5.087-3.077l-0.016-0.044l-0.292,0.1c-0.16,0.036-0.32,0.08-0.478,0.134l-3.024,1.03
	c-1.912,0.417-3.88-0.659-4.525-2.555l-4.347-12.759c-0.647-1.897,0.257-3.952,2.027-4.789l0.016,0.046l3.214-1.096
	c2.402-0.818,3.686-3.428,2.867-5.831l-3.705-10.874c-0.818-2.402-3.429-3.686-5.831-2.867l-3.214,1.095l0.003,0.01
	c-0.905,0.352-1.758,0.811-2.567,1.269c-8.934,5.066-7.93,15.612-1.917,33.258C23.658,74.791,29.885,84.043,39.545,82.532z"/>
</svg>
