<?xml version="1.0" encoding="utf-8"?>
<!-- Generator: Adobe Illustrator 16.0.0, SVG Export Plug-In . SVG Version: 6.00 Build 0)  -->
<!DOCTYPE svg PUBLIC "-//W3C//DTD SVG 1.1//EN" "http://www.w3.org/Graphics/SVG/1.1/DTD/svg11.dtd">
<svg version="1.1" id="Layer_1" xmlns="http://www.w3.org/2000/svg" xmlns:xlink="http://www.w3.org/1999/xlink" x="0px" y="0px"
	 width="50px" height="50px" viewBox="0 0 50 50" enable-background="new 0 0 50 50" xml:space="preserve">
<g>
	<polygon points="23.656,37.264 23.658,37.262 23.654,37.262 	"/>
	<path d="M23.125,27.075h-0.029l-1.098-1.259c0.531,0.19,1.084,0.306,1.658,0.306s1.126-0.114,1.656-0.305l-1.098,1.258h-0.027
		l2.691,6.507l2.459-3.265l2.727,2.05l1.71-2.569c-1.616-2.051-4.161-3.881-7.161-4.642c2.168-1.459,3.661-4.335,3.661-6.925
		c0-3.656-2.964-6.619-6.618-6.619s-6.618,2.963-6.618,6.619c0,2.59,1.493,5.466,3.661,6.925c-5.184,1.315-9.026,5.815-9.026,9.151
		c0,1.971,5.99,2.955,11.981,2.954l-3.355-3.354L23.125,27.075z"/>
	<path d="M23.658,37.262c1.752-0.001,3.504-0.084,5.105-0.253l-2.77-2.082L23.658,37.262z"/>
	<polygon points="36.086,29.033 32.433,34.521 29.635,32.417 28.015,34.568 33.096,38.389 38.327,30.527 	"/>
</g>
</svg>
