<?xml version="1.0" encoding="utf-8"?>
<!-- Generator: Adobe Illustrator 16.0.4, SVG Export Plug-In . SVG Version: 6.00 Build 0)  -->
<!DOCTYPE svg PUBLIC "-//W3C//DTD SVG 1.1//EN" "http://www.w3.org/Graphics/SVG/1.1/DTD/svg11.dtd">
<svg version="1.1" id="Capa_1" xmlns="http://www.w3.org/2000/svg" xmlns:xlink="http://www.w3.org/1999/xlink" x="0px" y="0px"
	 width="64px" height="64px" viewBox="0 0 64 64" enable-background="new 0 0 64 64" xml:space="preserve">
<path fill="#101111" d="M24.183,18.754c0-2.337,1.895-4.232,4.232-4.232s4.231,1.895,4.231,4.232s-1.894,4.232-4.231,4.232
	S24.183,21.091,24.183,18.754z M30.404,37.837c-1.947,0.835-4.078,1.42-6.223,1.729v19.451c0,0.989,0.803,1.791,1.792,1.791
	c0.988,0,1.792-0.802,1.792-1.791v-16.49c0.25,0.045,0.505,0.07,0.767,0.07c0.264,0,0.519-0.025,0.769-0.07v10.348
	c0,0.989,0.803,1.792,1.792,1.792c0.989,0,1.792-0.803,1.792-1.792V39.311c0-0.145-0.021-0.281-0.055-0.416
	c0.031-0.211,0.055-0.427,0.055-0.646v-1.473c-0.779,0.305-1.58,0.646-2.413,1.031L30.404,37.837z M23.653,27.723
	c0.156,0.157,0.337,0.274,0.528,0.36v5.256c1.306-0.249,2.587-0.63,3.77-1.134c1.717-0.792,3.344-1.436,4.934-1.946V28.01
	c0-0.177-0.015-0.35-0.035-0.521l9.178-9.177c0.699-0.699,0.699-1.833,0-2.534c-0.698-0.7-1.834-0.7-2.532,0l-8.589,8.588
	c-0.683-0.445-1.497-0.707-2.373-0.707c-1.08,0-2.067,0.396-2.827,1.048l-8.929-8.929c-0.699-0.7-1.834-0.7-2.534,0
	c-0.701,0.699-0.701,1.834,0,2.534L23.653,27.723z M44.084,28.11c-4.943,0.297-9.207,1.577-14.252,4.281
	c-3.349,1.671-7.466,2.393-10.789,1.878c-1.971-0.273-3.806-1.681-5.748-3.169c-0.789-0.604-1.603-1.229-2.439-1.782L8.6,32.734
	c0.716,0.474,1.438,1.027,2.203,1.613c2.172,1.668,4.635,3.557,7.646,3.973c1.307,0.203,2.694,0.258,4.108,0.173
	c3.083-0.185,6.3-1.032,9.134-2.455l0.051-0.026c4.561-2.445,8.207-3.551,12.588-3.813c3.117-0.188,4.152,0.44,6.92,2.118
	l0.795,0.479l2.105-3.512l-0.777-0.47C50.424,29.027,48.477,27.846,44.084,28.11z M51.599,14.416l-1.168-1.104l-1.104,1.168
	l1.168,1.104L51.599,14.416z M50.463,19.557v-0.804H49.66v0.804H50.463z M43.542,22.988l0.994-0.995L43.543,21l-0.995,0.996
	L43.542,22.988z M5.935,12.19l1.445,0.517l0.517-1.445l-1.445-0.517L5.935,12.19z M10.901,15.826L9.906,14.16l-1.665,0.995
	l0.995,1.666L10.901,15.826z M13.891,22.698l-0.547-1.503l-1.504,0.548l0.548,1.503L13.891,22.698z M20.457,12.196l0.622,0.452
	l0.451-0.622l-0.621-0.451L20.457,12.196z M30.71,9.858l-0.707-0.3l-0.3,0.706l0.707,0.3L30.71,9.858z M34.24,12.118l0.125,0.496
	c2.189-0.547,3.455-1.293,3.77-2.24c0.193-0.859-0.18-1.305-0.507-1.699c-0.163-0.196-0.319-0.381-0.396-0.612l-0.023-0.058
	c-0.382-0.889-0.814-1.898-0.134-2.918l-0.427-0.285c-0.834,1.251-0.301,2.496,0.1,3.422c0.105,0.322,0.3,0.555,0.486,0.779
	c0.301,0.361,0.537,0.646,0.408,1.236C37.402,10.961,36.193,11.63,34.24,12.118z M20.58,7.373c1.055,0.939,2.146,1.91,1.717,2.839
	l0.465,0.214c0.587-1.273-0.703-2.421-1.841-3.434c-0.562-0.5-1.092-0.972-1.375-1.417L19.115,5.85
	C19.436,6.354,19.992,6.849,20.58,7.373z M55.428,19.54l-0.008,0.098l0.51,0.046l0.008-0.098c0.154-1.698,0.394-2.996,1.912-2.996
	v-0.512C55.74,16.078,55.553,18.162,55.428,19.54z"/>
</svg>
