<?xml version="1.0" encoding="iso-8859-1"?>
<!-- Generator: Adobe Illustrator 17.1.0, SVG Export Plug-In . SVG Version: 6.00 Build 0)  -->
<!DOCTYPE svg PUBLIC "-//W3C//DTD SVG 1.1//EN" "http://www.w3.org/Graphics/SVG/1.1/DTD/svg11.dtd">
<svg version="1.1" id="Layer_1" xmlns="http://www.w3.org/2000/svg" xmlns:xlink="http://www.w3.org/1999/xlink" x="0px" y="0px"
	 viewBox="0 0 128 128" style="enable-background:new 0 0 128 128;" xml:space="preserve">
<g>
	<circle cx="39.567" cy="12.73" r="8.837"/>
	<path d="M15.175,64.496c2.431,0.745,5.005-0.62,5.752-3.05c0.002,0,6.883-22.436,6.883-22.436c0.04-0.095,0.246-0.489,0.727-0.489
		c0.044,0,0.97,0,0.97,0h0.002c0.274-0.004,0.434,0.229,0.361,0.491L16.094,84.095c-0.074,0.263,0,0.722,0.48,0.722h9.664
		c0.274,0,0.474,0.222,0.474,0.496c0,0-0.002,32.844-0.002,32.856c0,3.28,2.659,5.939,5.939,5.939c3.28,0,5.939-2.659,5.939-5.939
		l0.002-32.856c0-0.274,0.221-0.495,0.495-0.495h0.008h0.949h0.008c0.274,0,0.495,0.221,0.495,0.495l0.002,32.856
		c0,3.28,2.659,5.939,5.939,5.939c3.28,0,5.939-2.659,5.939-5.939c0-0.012-0.002-32.856-0.002-32.856c0-0.274,0.2-0.496,0.474-0.496
		h9.664c0.48,0,0.554-0.459,0.48-0.722L49.264,39.012c-0.073-0.263,0.088-0.496,0.361-0.491h0.002c0,0,0.926,0,0.97,0
		c0.481,0,0.687,0.394,0.727,0.489c0,0,7.556,24.656,7.558,24.656c0.178,0.68,0.469,1.109,0.834,1.556
		c0.981,1.305,2.536,2.153,4.294,2.153c2.055,0,3.839-1.154,4.743-2.849c0.074-0.136,0.36-0.836,0.421-1.051
		c0.7-2.276,7.5-24.465,7.5-24.465c0.04-0.095,0.246-0.489,0.727-0.489c0.044,0,0.97,0,0.97,0h0.002
		c0.274-0.004,0.434,0.229,0.361,0.491L64.96,84.095c-0.074,0.263,0,0.722,0.48,0.722h9.664c0.274,0,0.474,0.222,0.474,0.496
		c0,0-0.002,32.844-0.002,32.856c0,3.28,2.659,5.939,5.939,5.939c3.28,0,5.939-2.659,5.939-5.939l0.002-32.856
		c0-0.274,0.221-0.495,0.495-0.495h0.008h0.949h0.008c0.274,0,0.495,0.221,0.495,0.495l0.002,32.856c0,3.28,2.659,5.939,5.938,5.939
		c3.28,0,5.939-2.659,5.939-5.939c0-0.012-0.002-32.856-0.002-32.856c0-0.274,0.2-0.496,0.474-0.496h9.664
		c0.48,0,0.554-0.459,0.48-0.722L98.13,39.012c-0.073-0.263,0.088-0.496,0.361-0.491h0.002c0,0,0.926,0,0.97,0
		c0.481,0,0.687,0.394,0.727,0.489c0,0,6.881,22.436,6.883,22.436c0.747,2.43,3.321,3.795,5.752,3.05
		c2.432-0.746,3.799-3.322,3.053-5.753c-0.003-0.009-6.877-22.456-6.9-22.533c-1.052-3.657-3.615-11.983-10.851-11.983H78.714
		c-7.767,0-9.775,8.326-10.828,11.983c0,0-1.961,6.408-3.887,12.703c-1.926-6.295-3.887-12.703-3.887-12.703
		c-1.052-3.657-3.061-11.983-10.827-11.983H29.873c-7.236,0-9.799,8.326-10.851,11.983c-0.022,0.078-6.897,22.524-6.9,22.533
		C11.376,61.174,12.743,63.75,15.175,64.496z"/>
	<circle cx="88.433" cy="12.73" r="8.837"/>
</g>
</svg>
