<?xml version="1.0" encoding="iso-8859-1"?>
<!-- Generator: Adobe Illustrator 17.1.0, SVG Export Plug-In . SVG Version: 6.00 Build 0)  -->
<!DOCTYPE svg PUBLIC "-//W3C//DTD SVG 1.1//EN" "http://www.w3.org/Graphics/SVG/1.1/DTD/svg11.dtd">
<svg version="1.1" id="Layer_1" xmlns="http://www.w3.org/2000/svg" xmlns:xlink="http://www.w3.org/1999/xlink" x="0px" y="0px"
	 viewBox="0 0 128 128" style="enable-background:new 0 0 128 128;" xml:space="preserve">
<g>
	<circle cx="40.206" cy="14.071" r="8.606"/>
	<path d="M20.198,36.936c-0.022,0.076-6.716,21.935-6.719,21.944c-0.726,2.368,0.605,4.877,2.973,5.603
		c2.367,0.726,4.874-0.604,5.601-2.97c0.002,0,6.703-21.849,6.703-21.849c0.039-0.093,0.24-0.476,0.708-0.476
		c0.042,0,0.944,0,0.944,0h0.002c0.267-0.004,0.422,0.222,0.352,0.478L17.347,83.57c-0.072,0.256,0,0.703,0.467,0.703h9.412
		c0.267,0,0.462,0.216,0.462,0.483c0,0-0.002,31.985-0.002,31.996c0,3.194,2.589,5.783,5.783,5.783c3.194,0,5.783-2.589,5.783-5.783
		l0.002-31.997c0-0.267,0.216-0.482,0.482-0.482h0.008h0.925h0.008c0.267,0,0.482,0.216,0.482,0.482l0.002,31.997
		c0,3.194,2.589,5.783,5.783,5.783c3.194,0,5.783-2.589,5.783-5.783c0-0.009-0.001-17.737-0.002-26.796
		c-0.628,0.336-1.353,0.526-2.131,0.526c-2.426,0-4.399-1.931-4.399-4.305V65.672c0-4.512,4.054-8.48,8.755-8.659l-5.3-17.347
		c-0.071-0.256,0.085-0.483,0.352-0.478h0.002c0,0,0.902,0,0.944,0c0.468,0,0.669,0.383,0.708,0.476c0,0,3.137,10.235,5.315,17.341
		h2.622c-1.904-1.373-3.147-3.608-3.147-6.129c0-2.666,1.393-5.11,3.662-6.474l1.578-2.657c-0.865-2.826-1.471-4.808-1.471-4.808
		c-1.025-3.561-2.981-11.67-10.544-11.67H30.765C23.718,25.266,21.223,33.375,20.198,36.936z"/>
	<path d="M67.785,36.936c0,0-0.432,1.411-1.086,3.548v0.278l2.204-3.712v8.08c1.672,1.428,2.65,3.524,2.65,5.745
		c0,2.521-1.243,4.756-3.147,6.129h2.622c2.178-7.105,5.315-17.341,5.315-17.341c0.039-0.093,0.24-0.476,0.708-0.476
		c0.042,0,0.944,0,0.944,0h0.002c0.267-0.004,0.422,0.222,0.352,0.478L73.05,57.013c4.703,0.188,8.756,4.152,8.756,8.659v20.505
		c0,2.414-1.925,4.305-4.383,4.305c-0.779,0-1.512-0.2-2.148-0.549c-0.001,9.053-0.002,26.81-0.002,26.819
		c0,3.194,2.589,5.783,5.783,5.783c3.194,0,5.783-2.589,5.783-5.783l0.002-31.997c0-0.267,0.216-0.482,0.482-0.482h0.008h0.925
		h0.008c0.267,0,0.482,0.216,0.482,0.482l0.002,31.997c0,3.194,2.589,5.783,5.783,5.783c3.194,0,5.783-2.589,5.783-5.783
		c0-0.011-0.002-31.996-0.002-31.996c0-0.267,0.195-0.483,0.462-0.483h9.412c0.467,0,0.54-0.447,0.467-0.703L97.237,39.666
		c-0.07-0.256,0.085-0.483,0.352-0.478h0.002c0,0,0.902,0,0.944,0c0.468,0,0.669,0.383,0.708,0.476c0,0,6.701,21.849,6.703,21.849
		c0.727,2.366,3.234,3.696,5.601,2.97c2.368-0.727,3.699-3.235,2.973-5.603c-0.003-0.009-6.697-21.869-6.719-21.944
		c-1.025-3.561-3.52-11.67-10.568-11.67H78.33C70.766,25.266,68.81,33.375,67.785,36.936z"/>
	<circle cx="87.794" cy="14.071" r="8.606"/>
	<path d="M77.423,89.057c1.63,0,2.958-1.25,2.958-2.88c0-0.009,0-20.263,0-20.505c0-4.039-3.796-7.244-7.68-7.244
		c-0.099,0-17.321,0-17.42,0c-3.883,0-7.662,3.205-7.662,7.244c0,0.242,0,20.496,0,20.505c0,1.63,1.345,2.88,2.974,2.88
		c1.629,0,2.96-1.249,2.961-2.878l-0.004-17.946c0-0.17,0.133-0.307,0.303-0.307h1.276c0.17,0,0.325,0.137,0.325,0.307
		c0,0-0.004,50.482-0.004,50.488c0,2.102,1.697,3.814,3.799,3.814c2.102,0,3.799-1.692,3.799-3.794c0-0.006,0-29.851,0-29.851
		c0-0.217,0.1-0.307,0.315-0.307h1.256c0.214,0,0.328,0.091,0.328,0.307c0,0,0.005,29.778,0.005,29.851
		c0,2.102,1.715,3.794,3.817,3.794c2.102,0,3.775-1.712,3.775-3.814c0-0.006,0-50.488,0-50.488c0-0.17,0.137-0.307,0.307-0.307
		h1.296c0.17,0,0.302,0.137,0.302,0.307c0,0-0.006,17.946-0.005,17.946C74.446,87.808,75.793,89.057,77.423,89.057z"/>
	<path d="M61.14,45.454c-1.944,1.028-3.269,3.069-3.269,5.421c0,3.385,2.744,6.129,6.129,6.129s6.129-2.744,6.129-6.129
		c0-2.093-1.05-3.94-2.651-5.046V42.24l-1.652,2.782c-0.18-0.056-0.365-0.104-0.552-0.143V42.24l-1.507,2.511
		c-0.244,0.009-0.484,0.031-0.72,0.068V42.24L61.14,45.454z"/>
</g>
</svg>
