<?xml version="1.0" encoding="utf-8"?>
<!-- Generator: Adobe Illustrator 16.0.0, SVG Export Plug-In . SVG Version: 6.00 Build 0)  -->
<!DOCTYPE svg PUBLIC "-//W3C//DTD SVG 1.1//EN" "http://www.w3.org/Graphics/SVG/1.1/DTD/svg11.dtd">
<svg version="1.1" id="Layer_1" xmlns="http://www.w3.org/2000/svg" xmlns:xlink="http://www.w3.org/1999/xlink" x="0px" y="0px"
	 width="50px" height="50px" viewBox="0 0 50 50" enable-background="new 0 0 50 50" xml:space="preserve">
<g>
	<path d="M17.905,15.531c1.744,0,3.16-2.024,3.16-3.77c0-1.746-1.416-3.161-3.16-3.161c-1.746,0-3.162,1.415-3.162,3.161
		C14.743,13.507,16.159,15.531,17.905,15.531z"/>
	<path d="M28.789,22.153l-5-5c-0.005-0.005-0.013-0.007-0.019-0.013c-0.061-0.059-0.14-0.095-0.212-0.141
		c-0.069-0.043-0.133-0.098-0.208-0.126c-0.007-0.003-0.012-0.009-0.02-0.013c-0.113-0.041-2.644-0.948-4.962-1.062l-0.298,0.596
		h-0.008l0.842,6.557l-1,1.746l-1-1.746l0.842-6.557h-0.009l-0.297-0.596c-2.318,0.114-4.849,1.021-4.962,1.062
		c-0.041,0.016-0.068,0.047-0.106,0.064c-0.082,0.04-0.157,0.083-0.228,0.139c-0.061,0.049-0.113,0.1-0.164,0.156
		c-0.054,0.061-0.1,0.123-0.141,0.193c-0.043,0.074-0.075,0.149-0.102,0.23c-0.014,0.043-0.043,0.076-0.054,0.121l-2,9
		c-0.15,0.674,0.275,1.342,0.949,1.492c0.091,0.02,0.182,0.029,0.272,0.029c0.573,0,1.09-0.396,1.219-0.979l1.845-8.305
		c0.129-0.04,0.276-0.083,0.435-0.128v8.532L13.41,39.779c-0.066,0.826,0.549,1.549,1.375,1.615
		c0.041,0.004,0.082,0.005,0.122,0.005c0.774,0,1.431-0.595,1.494-1.38l0.899-11.181c0.186,0.082,0.39,0.13,0.605,0.13
		s0.42-0.048,0.605-0.13L19.41,40.02c0.063,0.785,0.72,1.38,1.494,1.38c0.04,0,0.081-0.001,0.122-0.005
		c0.826-0.066,1.441-0.789,1.375-1.615l-0.995-12.371v-8.532c0.347,0.099,0.633,0.188,0.822,0.251l4.794,4.794
		c0.244,0.244,0.564,0.366,0.884,0.366s0.64-0.122,0.884-0.366C29.277,23.433,29.277,22.642,28.789,22.153z"/>
	<path d="M24.17,41.049h3.242v-12.32H24.17V41.049z M24.69,29.507h2.203v0.315H24.69V29.507z M24.69,30.264h2.203v0.315H24.69
		V30.264z M24.69,39.956h2.203v0.315H24.69V39.956z"/>
	<path d="M28.136,28.729v12.32h3.242V30.38v-1.651H28.136z M30.858,40.271h-2.203v-0.315h2.203V40.271z M30.858,30.579h-2.203
		v-0.315h2.203V30.579z M30.858,29.822h-2.203v-0.315h2.203V29.822z"/>
	<path d="M34.186,28.758l-2.808,1.622l6.16,10.669l2.808-1.621L34.186,28.758z M32.217,30.793l1.908-1.102l0.158,0.274l-1.908,1.102
		L32.217,30.793z M32.753,31.722l-0.158-0.273l1.908-1.102l0.158,0.273L32.753,31.722z M37.441,39.843l1.908-1.102l0.158,0.273
		L37.6,40.116L37.441,39.843z"/>
</g>
</svg>
