<?xml version="1.0" encoding="utf-8"?>
<!-- Generator: Adobe Illustrator 16.0.0, SVG Export Plug-In . SVG Version: 6.00 Build 0)  -->
<!DOCTYPE svg PUBLIC "-//W3C//DTD SVG 1.1//EN" "http://www.w3.org/Graphics/SVG/1.1/DTD/svg11.dtd">
<svg version="1.1" id="Layer_1" xmlns="http://www.w3.org/2000/svg" xmlns:xlink="http://www.w3.org/1999/xlink" x="0px" y="0px"
	 width="126px" height="126px" viewBox="0 0 126 126" enable-background="new 0 0 126 126" xml:space="preserve">
<g>
	<polygon fill="#010101" points="52.847,12.128 52.921,12.655 52.144,12.814 52.03,13.929 52.981,13.929 54.235,13.813 
		54.883,13.042 54.189,12.771 53.809,12.34 53.238,11.435 52.981,10.128 51.911,10.348 51.613,10.805 51.613,11.315 52.124,11.677 	
		"/>
	<polygon fill="#010101" points="51.949,12.558 52.001,11.855 51.387,11.59 50.509,11.789 49.859,12.823 49.859,13.501 
		50.618,13.501 	"/>
	<path fill="#010101" d="M33.81,16.024h-0.926v0.482h0.223c0,0,0.016,0.1,0.03,0.232l0.574-0.052l0.342-0.213l0.104-0.45
		l0.454-0.035l0.185-0.382l-0.427-0.092l-0.36,0.011L33.81,16.024z"/>
	<polygon fill="#010101" points="31.571,16.871 32.254,16.813 32.31,16.343 31.903,16.024 31.611,16.406 	"/>
	<polygon fill="#010101" points="99.287,39.591 99.476,40.195 104.345,40.408 102.725,39.377 100.738,39.438 100.66,38.356 
		100.982,38.496 101.76,38.406 101.68,37.416 99.521,37.44 98.937,36.663 98.965,36.247 96.191,33.75 95.498,34.29 99.476,39.141 
		100.035,39.329 100.035,39.591 	"/>
	<polygon fill="#010101" points="106.191,33.968 105.855,33.83 105.696,32.997 105.206,32.997 104.895,33.834 104.523,34.167 
		101.705,35.702 101.705,37.213 102.643,38.457 105.014,38.457 105.321,37.684 105.855,37.197 105.855,36.841 106.191,36.629 	"/>
	<polygon fill="#010101" points="107.945,36.629 106.52,37.178 106.549,37.496 106.191,37.496 106.191,39.467 106.911,39.467 
		106.813,38.208 107.372,38.417 107.372,39.298 107.965,39.259 	"/>
	<polygon fill="#010101" points="114.293,55.036 113.048,54.902 111.73,56.368 113.132,56.513 114.263,55.894 	"/>
	<path fill="#010101" d="M125.229,52.48l-0.583,0.113l-0.018-1.317l-1.074,0.069l-0.143,2.061l-0.94,0.645l-1.75,0.237l-2.112,1.503
		c0.131-1.62,0.204-3.253,0.198-4.9l0.19-0.18l0.951-2.149l-0.392-1.59l-0.972-0.831c-0.013-0.151-0.017-0.302-0.031-0.454
		l-0.445,0.043l-0.004-0.002l-0.113-2.372l-0.951-1.64l-0.861-0.044l-0.357,2.977l-1.635-0.119l-0.475-0.283l-0.045-1.174
		l0.861,0.179l0.739-0.718l-1.571-0.947h-1.832l-1.323,1.883h-0.53v-0.595l-1.595,0.114l-2.504,2.848l-1.331,0.029l-1.481,1.011
		l-0.094,4.428l-0.901,0.861v0.778l4.319-1.48l3.489-0.14l1.292,2.849l3.97,0.134l1.243-1.171
		c-0.888,24.056-16.985,45.264-19.544,48.486c-2.905-2.826-7.81-5.213-13.967-6.863c3.021-12.379,8.693-39.362,7.047-61.508
		l0.074-0.771l-0.977-0.188l-0.194,0.272l-0.362,0.029l0.398-0.575l0.432-3.254l0.817-1.751l1.313-0.492l2.313,0.223l2.916,2.587
		v3.703l3.84,3.686l0.203-0.654l-3.122-4.438l0.329-1.298L99.58,32.2l0.916,0.094l1.209-0.803l-0.199-1.209l-2.002-1.602
		l-0.077-1.456l0.569-0.765l1.002,0.319l-0.076,0.684l0.573,0.889l0.512-0.366l-0.282-1.05l2.828-1.015l1.238-1.034l-0.193-1.873
		l-2.457-2.586l-0.045-2.105h1.09l3.398,2.586l0.961-0.252l-0.644-0.833l-1.817-1.106l0.113-1.647l2.155,0.005l0.175-2.04
		l-0.824-1.075l0.49-0.53l1.046,1.055l0.341-0.445l-1.361-1.536l-3.328-0.402l-0.447-0.891l0.966-1.378l0.764,0.575l2.308,0.199
		l2.904-1.939l0.484,0.604l-0.648,1.015v1.003l2.67,2.183l0.848-0.442l-0.317-1.456l-1.902-1.776l2.508-0.168V8.908l1.202-0.245
		l-0.922-0.639l0.035-0.49l2.556,0.409l0.486-0.409l-3.442-1.452l-12.523-0.644l-1.165-0.595l-1.868-0.285l-1.39-0.045l-1.274,1.284
		l-0.529-0.04l-1.689-1.253h-4.973l-2.305-1.379l-4.615,0.29L79.11,4.992l0.021,1.815l-1.085,0.325l-0.242-1.822l-0.407-0.628
		l-1.204-0.3l-0.282,1.09l0.354,0.895l-4.31-0.285l-2.052,0.949l-0.312-0.899L69.07,6.265l-0.377,0.999l-1.074,0.842l-2.625-0.072
		L64.87,7.452l2.754-0.116l0.56-0.483L64.87,5.311l-4.038,0.122l-2.26,1.156l-0.851,1.517l-1.506,0.584l-0.628,0.689l0.143,0.798
		l0.777,0.105l0.47,1.167l1.317-0.537l0.234,1.555h-0.418l-1.083-0.162l-1.208,0.203l-1.171,1.652l-1.684,0.27l-0.238,1.432
		l0.715,0.166l-0.204,0.925l-1.674-0.33l-1.526,0.33l-0.317,0.852l0.258,1.786l0.906,0.42l1.497-0.004l1.02-0.098l0.313-0.812
		l1.583-2.054l1.046,0.214l1.026-0.929l0.191,0.726l2.528,1.709l-0.313,0.416l-1.138-0.065l0.431,0.623l0.707,0.154l0.822-0.343
		l-0.014-0.992l0.372-0.184l-0.304-0.315l-1.688-0.938l-0.436-1.256h1.396l0.445,0.44l1.216,1.046l0.042,1.263l1.259,1.332
		l0.466-1.826l0.868-0.478l0.163,1.496l0.848,0.933l2.555-0.039l0.759,0.562v1.341l-0.933,0.847h-2.59l-1.576-1.177l-1.654,0.167
		v1.01h-0.53L60.7,22.375l-2.87-0.731v-1.855l-3.646,0.282l-1.13,0.604h-1.436l-0.713-0.071l-1.754,0.975v1.83l-3.586,2.593
		l0.301,1.1h0.724l-0.183,1.051l-0.51,0.193l-0.031,2.75l3.093,3.526h1.347l0.094-0.217h2.417l0.705-0.644h1.371l0.758,0.757
		l2.047,0.208l-0.268,2.731l2.272,4.016l-1.198,2.289l0.084,1.075l0.951,0.941v2.596l1.233,1.665v2.16h1.29l0.012,40.137
		c-7.81,0.081-15.021,1.171-20.899,2.974c-2.638-7.907-7.017-23.501-7.425-40.871l0.809-0.386l0.648-1.188l2.021-2.597l-0.461-2.016
		l0.62-1.08l1.856,0.055l1.248-0.981l0.407-3.909l1.387-1.768l0.247-1.13l-1.269-0.407l-0.831-1.372l-2.858-0.025l-2.265-0.861
		l-0.108-1.615l-0.758-1.324l-2.036-0.024l-1.188-1.863l-1.052-0.505l-0.053,0.556l-1.912,0.118l-0.704-0.977l-2-0.405l-1.646,1.897
		l-2.581-0.436l-0.188-2.918l-1.893-0.324l0.759-1.425l-0.219-0.822l-2.472,1.659L15.7,28.178l-0.566-1.225l0.348-1.263l0.861-1.581
		l1.978-1.005h3.83l-0.011,1.167l1.377,0.634l-0.113-1.994l0.991-0.992l2-1.316l0.128-0.923l2.004-2.075l2.123-1.171l-0.188-0.151
		l1.431-1.356l0.53,0.137l0.243,0.305l0.545-0.61l0.123-0.061l-0.589-0.081l-0.604-0.202v-0.591l0.317-0.262h0.712l0.328,0.142
		l0.278,0.562l0.341-0.051v-0.034l0.104,0.03l0.991-0.159l0.138-0.485l0.554,0.141v0.523L35.386,14.6l0.078,0.583l1.804,0.552
		c0,0,0.005,0.01,0.005,0.02l0.411-0.035l0.03-0.775l-1.427-0.648l-0.085-0.381l1.186-0.407l0.049-1.126l-1.234-0.756l-0.078-1.907
		l-1.709,0.833h-0.619l0.162-1.455L31.66,8.547l-0.959,0.72v2.212l-1.721,0.537l-0.693,1.442l-0.742,0.116v-1.839l-1.615-0.227
		l-0.807-0.523l-0.328-1.186l2.893-1.694l1.412-0.43l0.139,0.948l0.793-0.04l0.064-0.478l0.822-0.117l0.009-0.161l-0.346-0.153
		l-0.084-0.503l1.01-0.088l0.61-0.638l0.043-0.044v0.005l0.183-0.194l2.141-0.267l0.937,0.8l-2.476,1.315l3.145,0.741l0.403-1.056
		h1.38l0.479-0.913l-0.964-0.244V5.433L34.34,4.083l-2.096,0.242l-1.193,0.62l0.089,1.511l-1.237-0.191l-0.189-0.832l1.176-1.08
		l-2.145-0.106l-0.626,0.182l-0.273,0.73l0.813,0.138l-0.164,0.811l-1.372,0.082L26.91,6.721l-2.007,0.057
		c0,0-0.044-1.132-0.124-1.132c-0.084,0,1.562-0.024,1.562-0.024l1.188-1.162l-0.647-0.327l-0.862,0.841l-1.432-0.078l-0.857-1.189
		h-1.833L19.98,5.138h1.753l0.163,0.513l-0.461,0.431l1.942,0.058l0.298,0.697L21.49,6.75l-0.108-0.537L20.01,5.914l-0.729-0.398
		l-3.235,0.029l-0.995,0.97l-0.678-0.058l-0.754-0.436l-2.234-0.669H7.288L4.921,6.964L3.33,7.209L2.603,7.775l1.13,0.167v0.454
		H1.314L0.369,9.069l1.208,1.026l3.313,0.028l0.461-0.492H8.12l1,0.888L9.062,11.9l0.843,0.779l-0.703,0.503l0.158,1.815
		l-2.502,3.044v2.855l1.342,0.65v2.563l1.304,2.204l0.007,0.001l-1.173-0.131c-4.857,43.428,12.945,70.576,18.731,78.108
		c-0.569,1.066-0.879,2.171-0.879,3.306c0,8.424,16.514,15.276,36.81,15.276c20.298,0,36.812-6.852,36.812-15.276
		c0-1.438-0.493-2.829-1.393-4.149c1.376-1.689,17.582-22.077,20.07-46.266l0.415-0.063l3.563-2.18l1-0.663l1.074-0.476l1.091-0.614
		L125.229,52.48z M63.15,7.452l-1.594,0.983v0.644L62.456,9.5l0.07,0.875l-1.289,1.906l-2.229-0.022l-0.138-0.456l1.392-0.711
		l0.015-2.638l2.358-1.653h0.515V7.452z M25.314,18.2h-1.029l0.164-0.701l0.483-0.051l0.109-0.238l0.738-0.103v0.63h0.005
		L25.314,18.2z M26.027,16.465l-0.485,0.315l-0.609,0.105c0,0,0-0.963,0-1.065h1.095V16.465z M26.95,15.719l0.5,0.306l-0.401,0.33
		l-0.382-0.33L26.95,15.719z M26.297,16.526h0.077l1.238,0.359v0.635h-1.039l-0.276-0.407V16.526z M25.488,14.786l0.669,0.61
		l-0.669,0.163V14.786z M22.655,14.887l0.93-0.385h1.278v0.385h0.277v0.671h-1.947l-0.718-0.199L22.655,14.887z M22.476,16.628
		l0.738-0.809h1.071l-1.372,1.918l-0.57-0.306L22.476,16.628z M21.486,12.063l0.763,0.177l-0.265,1.034l-0.826,0.267l-0.521-1.078
		L21.486,12.063z M17.646,7.172v-0.06h0.709l0.063-0.246h1.16v0.508l-0.343,0.44h-1.59V7.172z M18.772,8.75
		c0,0,0.713-0.127,0.766-0.127c0.055,0,0,0.711,0,0.711l-1.595,0.102l-0.301-0.362L18.772,8.75z M73.107,15.244l1.094-0.102
		l0.927,0.39l0.046,0.648l-1.328-0.074l-0.064,0.599l1.653,1.1v0.813l0.723,0.52v0.575h-0.003l-0.373,0.348l-0.848-0.063
		l-0.162-0.256l-1.332-0.103l0.094-0.425l0.714-0.607v-0.513l-1.357-0.981l-0.06-1.255L73.107,15.244z M68.099,18.691v-0.005
		L66,18.595l-0.625,0.09v-1.428l0.47-0.532l0.506-0.159l1.119-0.127l0.237-0.382l0.461,0.227l0.06,1.307l1.224,0.503l0.104,0.597
		H68.099z M68.056,47.834l1.104-0.243v-1.288l0.728-0.862l1.531-2.11l-0.318-3.201l-0.674-1.188l3.023-2.893l3.322-4.761
		l-0.633-0.302l-3.463,0.729l-0.897-0.441l-3.635-6.856l0.252-0.298l3.611,4.377l0.089,1.354l0.822,0.838l1.713-0.109l3.533-2.565
		l1.119-0.724l-0.019-0.895l-1.185-0.146c0,0-4.156-1.959-4.156-2.046c0-0.09,0.024-1.679,0.024-1.679h0.921l0.134,1.158
		l1.922,1.111l2.205,0.105l4.761,0.78l1.125,0.707v1.09l-0.146,1.488l2.454,4.019l0.262,0.061c1.722,21.9-3.949,48.836-6.954,61.149
		c-4.85-1.102-10.305-1.763-16.158-1.856l0.124-41.188l2.595-1.775L68.056,47.834z M61.923,98.31
		c-0.025,1.001-0.046,1.834-0.063,2.465c-8.568,0.245-15.363,3.208-15.363,6.824c0,3.777,7.401,6.849,16.502,6.849
		c9.1,0,16.504-3.072,16.504-6.849c0-3.606-6.761-6.563-15.294-6.822c0.016-0.636,0.037-1.469,0.062-2.463
		c11.781,0.276,21.172,4.329,21.172,9.285c0,5.136-10.069,9.314-22.443,9.314c-12.375,0-22.441-4.178-22.441-9.314
		C40.558,102.615,50.049,98.544,61.923,98.31z M62.994,102.212l1.178,0.029c0,0,0-0.004,0-0.005
		c6.61,0.247,11.811,2.557,11.811,5.363c0,2.971-5.824,5.388-12.983,5.388s-12.981-2.417-12.981-5.388
		C50.018,104.63,55.837,102.213,62.994,102.212z M64.307,96.84c0.023-0.919,0.049-1.937,0.077-3.041
		c5.784,0.099,11.194,0.81,15.855,1.986c-0.36,1.438-0.663,2.597-0.894,3.452C75.195,97.837,69.99,96.958,64.307,96.84z
		 M62.036,93.794c-0.027,1.105-0.053,2.125-0.075,3.043c-7.555,0.125-14.286,1.592-18.844,3.845
		c-0.142-0.35-0.654-1.641-1.375-3.706C47.283,95.065,54.336,93.886,62.036,93.794z M31.362,55.159l0.065-0.01
		c0.006,0.197,0.014,0.393,0.021,0.589L31.313,55.7L31.362,55.159z M31.496,57.103c0.006,0.162,0.019,0.321,0.026,0.482L31.289,57.3
		L31.496,57.103z M10.67,26.445l-0.119-0.013l0.126-0.714l-1.229-1.908l-0.243-1.858h0.729l0.312,1.912l1.794,2.613l-0.481,0.842
		l1.148,1.745l2.834,0.7v-0.456l1.129,0.156l-0.104,0.813l0.886,0.154l1.378,0.386l1.941,2.208l2.477,0.184l0.243,2.026
		l-1.698,1.184l-0.084,1.798l-0.238,1.11l2.451,3.071l0.189,1.045c0,0,0.892,0.243,0.991,0.243c0.108,0,2,1.431,2,1.431v5.544
		l0.673,0.198l-0.469,2.557l1.133,1.505l-0.203,2.537l1.492,2.635l1.921,1.674l0.155,0.003c1.231,14.651,4.834,27.338,7.147,34.279
		c-4.647,1.668-8.285,3.807-10.466,6.24C22.541,94.375,6.004,68.156,10.67,26.445z M62.999,121.415
		c-18.356,0-33.29-6.197-33.29-13.815c0-0.852,0.197-1.686,0.556-2.495l0.279-0.261c-0.009-0.009-0.045-0.05-0.105-0.118
		c1.369-2.672,4.603-5.062,9.11-6.92c0.849,2.431,1.418,3.816,1.443,3.878l1.084-0.452c-3.164,1.786-5.039,3.988-5.039,6.369
		c0,5.942,11.646,10.774,25.962,10.774s25.964-4.833,25.964-10.774c0-2.926-2.831-5.583-7.412-7.526
		c0.234-0.874,0.559-2.102,0.95-3.66c8.346,2.513,13.79,6.589,13.79,11.186C96.291,115.218,81.357,121.415,62.999,121.415z"/>
	<polygon fill="#010101" points="114.209,37.763 113.302,37.792 113.375,36.847 112.51,36.336 111.29,37.565 112.111,38.575 
		113.891,38.833 114.881,39.353 114.911,39.838 114.258,39.838 114.293,40.839 116.441,40.701 117.224,39.863 118.071,39.784 
		118.071,41.319 119.523,41.319 119.523,40.701 118.783,40.701 118.661,38.833 115.176,37.252 	"/>
	<polygon fill="#010101" points="73.498,48.2 75.139,45.798 75.921,42.023 74.926,42.023 73.944,43.964 72.274,43.747 
		72.274,45.045 72.874,45.737 72.418,46.441 71.74,47.219 71.74,48.651 72.666,49.543 	"/>
	<polygon fill="#010101" points="108.303,39.981 107.747,39.981 107.747,40.275 108.175,40.408 	"/>
	<rect x="105.206" y="40.408" fill="#010101" width="0.654" height="0.357"/>
	<polygon fill="#010101" points="106.788,40.765 107.188,40.765 107.188,40.452 107.486,40.408 107.486,40.101 106.842,40.101 
		106.574,40.408 106.191,40.765 106.191,41.076 106.788,41.022 	"/>
	<polygon fill="#010101" points="108.447,41.052 109.095,41.052 109.095,40.715 109.541,40.765 109.482,40.195 108.749,40.31 
		108.68,40.676 107.856,40.765 107.817,40.765 107.817,41.329 108.447,41.329 	"/>
</g>
</svg>
