<?xml version="1.0" encoding="utf-8"?>
<!-- Generator: Adobe Illustrator 16.0.0, SVG Export Plug-In . SVG Version: 6.00 Build 0)  -->
<!DOCTYPE svg PUBLIC "-//W3C//DTD SVG 1.1//EN" "http://www.w3.org/Graphics/SVG/1.1/DTD/svg11.dtd">
<svg version="1.1" id="Layer_1" xmlns="http://www.w3.org/2000/svg" xmlns:xlink="http://www.w3.org/1999/xlink" x="0px" y="0px"
	 width="50px" height="50px" viewBox="0 0 50 50" enable-background="new 0 0 50 50" xml:space="preserve">
<g>
	<path d="M35.346,8.834H14.654c-1.784,0-3.234,1.449-3.234,3.232v25.867c0,1.783,1.45,3.232,3.234,3.232h20.691
		c1.784,0,3.234-1.449,3.234-3.232V12.066C38.58,10.283,37.13,8.834,35.346,8.834z M37.286,37.934c0,1.069-0.87,1.939-1.94,1.939
		H14.654c-1.07,0-1.94-0.87-1.94-1.939V12.066c0-1.069,0.87-1.939,1.94-1.939h20.691c1.07,0,1.94,0.87,1.94,1.939V37.934z"/>
	<path d="M17.182,16.158h13.637c0.328,0,0.593-0.266,0.593-0.594c0-0.329-0.265-0.595-0.593-0.595H17.182
		c-0.328,0-0.593,0.266-0.593,0.595C16.589,15.893,16.854,16.158,17.182,16.158z"/>
	<path d="M17.182,18.865h13.637c0.328,0,0.593-0.266,0.593-0.594s-0.265-0.594-0.593-0.594H17.182c-0.328,0-0.593,0.266-0.593,0.594
		S16.854,18.865,17.182,18.865z"/>
	<path d="M17.182,21.573h13.637c0.328,0,0.593-0.266,0.593-0.595c0-0.328-0.265-0.594-0.593-0.594H17.182
		c-0.328,0-0.593,0.266-0.593,0.594C16.589,21.308,16.854,21.573,17.182,21.573z"/>
	<path d="M24.001,23.093h-6.818c-0.328,0-0.594,0.266-0.594,0.595c0,0.328,0.266,0.594,0.594,0.594h6.818
		c0.328,0,0.593-0.266,0.593-0.594C24.594,23.358,24.329,23.093,24.001,23.093z"/>
	<path d="M21.956,28.439h-4.773c-0.329,0-0.594,0.266-0.594,0.595c0,0.328,0.265,0.594,0.594,0.594h4.773
		c0.328,0,0.593-0.266,0.593-0.594C22.549,28.705,22.284,28.439,21.956,28.439z"/>
	<path d="M32.985,24.569l-0.789,0.855l-0.48,0.52l-5.284,5.727l-0.734,2.542l-0.485,1.68l1.635-0.619l2.474-0.938l5.284-5.726
		l0.48-0.521l0.787-0.855c0.737-0.797,0.687-2.041-0.111-2.777C34.964,23.722,33.721,23.772,32.985,24.569z M26.583,35.03
		l-0.622-0.575l0.701-2.426l0.187,0.027l2.025,1.868l0.06,0.215L26.583,35.03z M34.848,27.871l-2.416-2.229l0.571-0.618l2.416,2.229
		L34.848,27.871z"/>
</g>
</svg>
