<?xml version="1.0" encoding="utf-8"?>
<!-- Generator: Adobe Illustrator 16.0.0, SVG Export Plug-In . SVG Version: 6.00 Build 0)  -->
<!DOCTYPE svg PUBLIC "-//W3C//DTD SVG 1.1//EN" "http://www.w3.org/Graphics/SVG/1.1/DTD/svg11.dtd">
<svg version="1.1" id="Layer_2" xmlns="http://www.w3.org/2000/svg" xmlns:xlink="http://www.w3.org/1999/xlink" x="0px" y="0px"
	 width="126px" height="126px" viewBox="0 0 126 126" enable-background="new 0 0 126 126" xml:space="preserve">
<g>
	<path d="M68.234,45.244c0,5.01,4.057,9.069,9.066,9.069c5.012,0,9.07-4.06,9.07-9.069c0-5.007-4.059-9.068-9.07-9.068
		C72.291,36.176,68.234,40.237,68.234,45.244z"/>
	<path d="M96.455,81.833c-2.105-14.361-5.293-20.513-13.121-25.31c-0.152-0.094-0.313-0.16-0.473-0.229
		c-1.008-0.675-2.143-1.169-3.301-1.454l-2.26,2.275l-2.191-2.302c-0.004,0.002-0.012,0.004-0.021,0.006
		c-1.676,0.4-3.305,1.252-4.578,2.444c-6.992,4.703-9.973,10.934-11.971,24.568c-0.281,1.923,1.049,3.711,2.973,3.994
		c0.176,0.023,0.346,0.038,0.518,0.038c1.717,0,3.221-1.26,3.479-3.012c0.719-4.903,1.551-8.488,2.51-11.196v11.089
		c0,0.946,0.186,1.831,0.508,2.644c-0.025,0.183-0.041,0.367-0.041,0.556v33.721c0,2.298,1.865,4.16,4.162,4.16
		c2.299,0,4.162-1.864,4.162-4.16l-0.002-28.938c0.164,0.009,0.328,0.022,0.494,0.022c0.033,0,0.064-0.006,0.098-0.006
		l-0.002,28.922c0,2.296,1.863,4.16,4.162,4.16c0.002,0,0.002,0,0.002,0c2.297,0,4.16-1.864,4.16-4.16l0.002-33.514
		c0.543-1.011,0.863-2.153,0.863-3.406V70.617c1.125,2.812,2.086,6.677,2.9,12.236c0.258,1.752,1.762,3.012,3.48,3.012
		c0.17,0,0.34-0.015,0.516-0.038C95.406,85.544,96.738,83.756,96.455,81.833z"/>
	<circle cx="56.188" cy="13.677" r="12.871"/>
	<path d="M84.047,54.091c0.17,0.081,0.328,0.157,0.477,0.247c2.025,1.241,3.766,2.584,5.277,4.107
		c0.146-0.073,0.295-0.145,0.434-0.234c2.326-1.484,3.008-4.573,1.521-6.899c-1.051-1.649-2.15-3.136-3.275-4.508
		C87.998,49.776,86.367,52.367,84.047,54.091z"/>
	<path d="M66.214,102.75l-0.001-16.666c-1.244,1.304-3.086,2.009-5.01,1.746c-2.541-0.374-4.445-2.333-4.877-4.715v-2.079
		c2.107-14.195,5.35-20.76,12.77-25.807c0.084-0.076,0.178-0.145,0.268-0.219V53.05c-2.092-2.054-3.4-4.896-3.4-8.054
		c0-4.785,2.982-8.88,7.184-10.542c-1.039-0.596-2.07-1.165-3.078-1.726c-1.852-1.024-3.6-1.991-5.32-3.048
		c-0.215-0.132-0.443-0.227-0.668-0.323c-1.434-0.956-3.043-1.659-4.686-2.063l-3.207,3.229l-3.109-3.262
		c-0.01,0.002-0.021,0.002-0.031,0.004c-2.379,0.568-4.691,1.775-6.5,3.469c-9.922,6.676-14.148,15.52-16.986,34.865
		c-0.4,2.73,1.488,5.27,4.221,5.669c0.244,0.036,0.488,0.054,0.73,0.054c2.439,0,4.574-1.787,4.938-4.271
		c1.021-6.961,2.201-12.045,3.564-15.889v11.341c-1.471,6.143-7.813,33.384-6.264,40.248c0,0,2.59,0.749,6.925,1.242l0.001,15.296
		c0,3.263,2.645,5.906,5.906,5.906c3.264,0,5.904-2.644,5.904-5.906l-0.001-15.007c0.278-0.018,0.558-0.036,0.84-0.057
		l-0.001,15.063c0,3.263,2.645,5.906,5.906,5.906c2.016,0,3.793-1.011,4.859-2.553c-0.555-0.948-0.875-2.05-0.875-3.225
		L66.214,102.75z"/>
</g>
</svg>
