<?xml version="1.0" encoding="utf-8"?>
<!-- Generator: Adobe Illustrator 16.0.0, SVG Export Plug-In . SVG Version: 6.00 Build 0)  -->
<!DOCTYPE svg PUBLIC "-//W3C//DTD SVG 1.1//EN" "http://www.w3.org/Graphics/SVG/1.1/DTD/svg11.dtd">
<svg version="1.1" id="Layer_2" xmlns="http://www.w3.org/2000/svg" xmlns:xlink="http://www.w3.org/1999/xlink" x="0px" y="0px"
	 width="126px" height="126px" viewBox="0 0 126 126" enable-background="new 0 0 126 126" xml:space="preserve">
<g>
	<circle cx="73.972" cy="22.436" r="11.726"/>
	<path d="M81.771,37.016c-0.195-0.119-0.401-0.206-0.605-0.292c-1.308-0.873-2.775-1.516-4.273-1.884l-2.921,2.942l-2.832-2.974
		c-0.009,0.003-0.02,0.003-0.03,0.007c-1.523,0.363-3.018,1.017-4.345,1.906c-0.737,0.312-1.407,0.806-1.91,1.502
		c-0.074,0.102-0.143,0.199-0.215,0.3c-0.7,0.751-1.289,1.596-1.737,2.516c-0.186,0.275-0.366,0.549-0.541,0.81
		c-4.072,6.119-5.755,8.654-22.064,8.307c-2.526-0.084-4.595,1.941-4.647,4.454c-0.053,2.515,1.942,4.594,4.455,4.646
		c0.874,0.02,1.714,0.028,2.529,0.028c9.737,0,15.385-1.313,19.336-3.742v15.375c0,1.228,0.237,2.369,0.654,3.419
		c-0.032,0.237-0.054,0.477-0.054,0.722l0.003,43.594c0,2.971,2.409,5.38,5.38,5.38c2.972,0,5.38-2.409,5.38-5.38l-0.003-37.413
		c0.214,0.01,0.427,0.026,0.641,0.026c0.042,0,0.084-0.005,0.125-0.005l-0.001,37.392c0,2.971,2.409,5.38,5.38,5.38h0
		c2.971,0,5.38-2.409,5.38-5.38l0.001-43.327c0.705-1.306,1.116-2.783,1.116-4.407V56.291c1.059,3.851,1.49,8.995,0.936,16.079
		c-0.196,2.506,1.678,4.696,4.184,4.895c0.121,0.01,0.241,0.012,0.36,0.012c2.353,0,4.347-1.81,4.534-4.196
		C97.781,50.147,90.216,42.193,81.771,37.016z M73.945,60.99l-2.828-3.87l2.828-18.901H74l2.828,18.901L74,60.99H73.945z"/>
	<path d="M54.371,47.388h-0.772v-2.93h-2.777V33.099h-2.249v-4.151h-1.253V17.42h-1.476V1.969h-7.536V17.42h-1.476v11.527h-1.253
		v4.151h-2.249v11.359h-2.778v2.93h-0.805v1.255h24.624V47.388z M36.474,43.864h-2.366v-2.368h2.366V43.864z M36.474,40.242h-2.366
		v-2.368h2.366V40.242z M36.474,36.524h-2.366v-2.367h2.366V36.524z M46.542,18.516v2.363h-2.366v-2.363H46.542z M46.542,22.184
		v2.366h-2.366v-2.366H46.542z M42.461,3.063h2.366V5.43h-2.366V3.063z M42.461,6.878h2.366v2.365h-2.366V6.878z M42.461,10.934
		h2.366v2.365h-2.366V10.934z M42.461,14.796h2.366v2.366h-2.366V14.796z M40.892,24.55v-2.366h2.366v2.366H40.892z M43.258,25.9
		v2.367h-2.366V25.9H43.258z M40.892,20.879v-2.363h2.366v2.363H40.892z M39.162,3.063h2.366V5.43h-2.366V3.063z M39.162,6.878
		h2.366v2.365h-2.366V6.878z M39.162,10.934h2.366v2.365h-2.366V10.934z M39.162,14.796h2.366v2.366h-2.366V14.796z M37.593,18.516
		h2.365v2.363h-2.365V18.516z M37.593,22.184h2.365v2.366h-2.365V22.184z M37.593,25.9h2.365v2.367h-2.365V25.9z M39.773,47.388
		h-2.366v-5.892h2.366V47.388z M39.773,40.242h-2.366v-2.368h2.366V40.242z M39.773,36.524h-2.366v-2.367h2.366V36.524z
		 M39.967,31.984h-2.367v-2.365h2.367V31.984z M43.25,47.388h-2.366v-5.892h2.366V47.388z M43.25,40.242h-2.366v-2.368h2.366V40.242
		z M43.25,36.524h-2.366v-2.367h2.366V36.524z M43.266,31.984H40.9v-2.365h2.366V31.984z M44.175,25.9h2.366v2.367h-2.366V25.9z
		 M44.184,29.619h2.366v2.365h-2.366V29.619z M46.614,47.388h-2.366v-5.892h2.366V47.388z M46.614,40.242h-2.366v-2.368h2.366
		V40.242z M46.614,36.524h-2.366v-2.367h2.366V36.524z M49.897,43.864h-2.366v-2.368h2.366V43.864z M49.897,40.242h-2.366v-2.368
		h2.366V40.242z M49.897,36.524h-2.366v-2.367h2.366V36.524z"/>
</g>
</svg>
