<?xml version="1.0" encoding="utf-8"?>
<!-- Generator: Adobe Illustrator 16.0.0, SVG Export Plug-In . SVG Version: 6.00 Build 0)  -->
<!DOCTYPE svg PUBLIC "-//W3C//DTD SVG 1.1//EN" "http://www.w3.org/Graphics/SVG/1.1/DTD/svg11.dtd">
<svg version="1.1" id="Layer_1" xmlns="http://www.w3.org/2000/svg" xmlns:xlink="http://www.w3.org/1999/xlink" x="0px" y="0px"
	 width="50px" height="50px" viewBox="0 0 50 50" enable-background="new 0 0 50 50" xml:space="preserve">
<g>
	<path d="M26.783,25.433c1.307-0.879,2.207-2.612,2.207-4.174c0-2.204-1.787-3.99-3.99-3.99s-3.988,1.786-3.988,3.99
		c0,1.562,0.898,3.295,2.207,4.174c-3.125,0.793-5.441,3.506-5.441,5.517c0,2.377,14.447,2.377,14.447,0
		C32.225,28.939,29.908,26.226,26.783,25.433z M25,32.731l-2.023-2.023l1.703-4.118h-0.018L24,25.831
		c0.32,0.115,0.654,0.185,1,0.185s0.68-0.069,0.998-0.184l-0.66,0.758H25.32l1.703,4.118L25,32.731z"/>
	<polygon points="27.061,11.742 25.816,11.742 25.816,8.27 24.182,8.27 24.182,11.742 22.939,11.742 25,15.291 	"/>
	<polygon points="22.939,38.259 24.184,38.259 24.184,41.731 25.818,41.731 25.818,38.259 27.061,38.259 25,34.71 	"/>
	<polygon points="11.742,24.184 8.27,24.184 8.27,25.818 11.742,25.818 11.742,27.061 15.291,25 11.742,22.939 	"/>
	<polygon points="38.259,24.182 38.259,22.939 34.71,25 38.259,27.061 38.259,25.816 41.731,25.816 41.731,24.182 	"/>
</g>
</svg>
