<?xml version="1.0" encoding="utf-8"?>
<!-- Generator: Adobe Illustrator 16.0.0, SVG Export Plug-In . SVG Version: 6.00 Build 0)  -->
<!DOCTYPE svg PUBLIC "-//W3C//DTD SVG 1.1//EN" "http://www.w3.org/Graphics/SVG/1.1/DTD/svg11.dtd">
<svg version="1.1" id="Layer_2" xmlns="http://www.w3.org/2000/svg" xmlns:xlink="http://www.w3.org/1999/xlink" x="0px" y="0px"
	 width="126px" height="126px" viewBox="0 0 126 126" enable-background="new 0 0 126 126" xml:space="preserve">
<g>
	<circle cx="98.992" cy="14.419" r="12.677"/>
	<path d="M107.425,30.182c-0.211-0.13-0.436-0.223-0.658-0.317c-1.413-0.942-2.999-1.637-4.616-2.033l-3.158,3.179l-3.062-3.214
		c-0.011,0.002-0.021,0.002-0.032,0.005c-1.65,0.395-3.267,1.102-4.704,2.066c-0.22,0.094-0.44,0.185-0.65,0.313
		c-3.307,2.029-6.066,5.221-8.735,8.309c-6.106,7.066-8.807,9.104-12.77,7.253c-2.462-1.151-5.392-0.089-6.542,2.375
		c-1.151,2.462-0.089,5.392,2.374,6.542c2.416,1.129,4.67,1.611,6.775,1.611c5.926,0,10.651-3.818,14.369-7.723v18.288
		c0,1.325,0.257,2.56,0.707,3.695c-0.034,0.255-0.058,0.515-0.058,0.78l0.003,47.13c0.001,3.212,2.605,5.817,5.817,5.816
		c3.212,0,5.817-2.605,5.817-5.817l-0.003-40.448c0.23,0.011,0.46,0.03,0.692,0.03c0.045,0,0.09-0.005,0.136-0.006l-0.002,40.424
		c0,3.213,2.604,5.817,5.816,5.817l0,0c3.212,0,5.817-2.604,5.817-5.817l0.002-46.842c0.763-1.412,1.207-3.011,1.207-4.763V51.021
		c1.146,4.164,1.611,9.725,1.012,17.384c-0.212,2.709,1.813,5.079,4.524,5.291c0.131,0.01,0.259,0.015,0.389,0.015
		c2.544,0,4.699-1.959,4.901-4.539C124.734,44.38,116.555,35.782,107.425,30.182z M98.964,56.103l-3.057-4.184l3.057-20.437h0.059
		l3.058,20.437l-3.058,4.184H98.964z"/>
	<path d="M20.629,87.319L8.628,99.808v21.073c0,0.593,0.48,1.075,1.074,1.075h14.573c0.593,0,1.075-0.481,1.075-1.075V88.556
		l-3.361-1.236H20.629z"/>
	<path d="M50.311,97.114H35.739c-0.593,0-1.074,0.481-1.074,1.075v22.692c0,0.593,0.481,1.075,1.074,1.075h14.571
		c0.594,0,1.075-0.481,1.075-1.075V98.189C51.385,97.595,50.904,97.114,50.311,97.114z"/>
	<path d="M74.001,74.906c-0.916,0-1.807-0.323-2.51-0.909l-2.647-2.213l-9.576,10.448v38.649c0,0.593,0.482,1.075,1.074,1.075
		h14.572c0.594,0,1.074-0.481,1.074-1.075V74.352c-0.059,0.036-0.114,0.077-0.175,0.109C75.257,74.752,74.629,74.906,74.001,74.906z
		"/>
	<path d="M44.335,92.093c0.821,0.3,1.737,0.079,2.328-0.564l22.099-24.109l5.173,4.324c0.252,0.21,0.606,0.249,0.897,0.097
		c0.292-0.153,0.463-0.465,0.434-0.793l-1.121-12.534c-0.041-0.447-0.435-0.777-0.883-0.738l-12.532,1.121
		c-0.328,0.029-0.607,0.253-0.705,0.567c-0.033,0.104-0.043,0.21-0.034,0.315c0.019,0.211,0.12,0.411,0.29,0.551l5.179,4.33
		L44.468,87.561L20.5,78.742c-0.801-0.294-1.7-0.086-2.292,0.528L3.517,94.557c-0.822,0.856-0.796,2.217,0.061,3.04
		c0.416,0.401,0.953,0.6,1.49,0.6c0.564,0,1.128-0.221,1.549-0.66l13.718-14.275L44.335,92.093z"/>
</g>
</svg>
