<?xml version="1.0" encoding="utf-8"?>
<!-- Generator: Adobe Illustrator 16.0.0, SVG Export Plug-In . SVG Version: 6.00 Build 0)  -->
<!DOCTYPE svg PUBLIC "-//W3C//DTD SVG 1.1//EN" "http://www.w3.org/Graphics/SVG/1.1/DTD/svg11.dtd">
<svg version="1.1" id="Layer_11" xmlns="http://www.w3.org/2000/svg" xmlns:xlink="http://www.w3.org/1999/xlink" x="0px" y="0px"
	 width="100px" height="100px" viewBox="0 0 100 100" enable-background="new 0 0 100 100" xml:space="preserve">
<path d="M74.181,77.587v14.724L74.08,92.31l-0.949,0.482c-0.241,0.122-2.329,1.148-6.043,2.137V70.007
	c0-4.19-2.279-7.869-5.758-9.787C68.761,62.498,74.181,69.42,74.181,77.587z M25.819,77.587v14.724l0.038,0.229l1.015,0.317
	c2.229,0.695,4.379,1.273,6.467,1.766V70.007c0-4.338,2.534-8.169,6.229-10.018C31.684,61.969,25.819,69.097,25.819,77.587z
	 M59.845,63.835l-2.434-0.049c-1.346,8.14-3.836,11.41-7.411,11.41c-3.618,0-6.127-3.42-7.461-11.715l-1.261-0.026
	c-2.416,1.21-4.069,3.716-4.069,6.552v25.443c5.316,1.003,10.121,1.389,14.359,1.389c5.332,0,11.65-1.354,11.65-1.354V70.007
	C63.218,67.427,61.899,65.14,59.845,63.835z M50.195,54.853c2.143,0,3.88-2.208,3.88-4.351c0-2.143-1.737-1.763-3.88-1.763
	s-3.881-0.379-3.881,1.763C46.313,52.645,48.052,54.853,50.195,54.853z M35.534,40.184h28.748c0.104,0.703,0.176,1.417,0.176,2.149
	c0,1.44-0.217,2.83-0.608,4.145c-0.77,4.207-3.396,7.76-6.995,9.791c-0.976,11.08-3.661,16.314-6.824,16.314
	c-3.149,0-5.827-5.169-6.813-16.178c-3.728-2.004-6.46-5.617-7.251-9.919c-0.393-1.317-0.61-2.709-0.61-4.153
	C35.357,41.6,35.43,40.887,35.534,40.184z M43.666,49.537c0,3.364,2.728,6.831,6.093,6.831c3.364,0,6.092-3.467,6.092-6.831
	c0-3.365-2.728-2.77-6.092-2.77C46.394,46.767,43.666,46.171,43.666,49.537z M62.477,31.587l-0.133,0.13l0.5,2.911l-2.614-1.375
	l-2.614,1.375l0.5-2.911l-2.115-2.062l2.922-0.424l0.984-1.994c-1.228-2.196-2.493-4.647-3.681-7.277l-1.803,1.757l0.5,2.911
	l-2.614-1.375l-2.614,1.375l0.5-2.911l-2.115-2.062L51,19.231l1.307-2.648l1.307,2.648l2.443,0.355
	c-1.792-4.017-3.395-8.431-4.402-12.974c-1.354-6.105-4.224-3.379-7.301,2.473l0.75,1.521l2.922,0.424l-2.115,2.062l0.5,2.911
	l-2.614-1.375l-2.614,1.375l0.018-0.106c-1.79,4.271-3.499,8.944-4.869,12.896l1.929-0.28l1.307-2.648l1.307,2.648l2.922,0.424
	L41.683,31l0.5,2.911l-2.614-1.375l-2.614,1.375l0.5-2.911l-1.409-1.373c-1.667,4.854-2.765,8.426-2.765,8.426l33.526-0.104
	C66.807,37.949,64.942,35.54,62.477,31.587z"/>
</svg>
