<?xml version="1.0" encoding="iso-8859-1"?>
<!-- Generator: Adobe Illustrator 17.1.0, SVG Export Plug-In . SVG Version: 6.00 Build 0)  -->
<!DOCTYPE svg PUBLIC "-//W3C//DTD SVG 1.1//EN" "http://www.w3.org/Graphics/SVG/1.1/DTD/svg11.dtd">
<svg version="1.1" id="Layer_1" xmlns="http://www.w3.org/2000/svg" xmlns:xlink="http://www.w3.org/1999/xlink" x="0px" y="0px"
	 viewBox="0 0 128 128" style="enable-background:new 0 0 128 128;" xml:space="preserve">
<g>
	<circle cx="49.789" cy="14.462" r="9.172"/>
	<path d="M55.396,42.804l3.076,6.287c0.322,0.691,0.819,1.286,1.443,1.725l7.705,5.442l6.182,4.431
		c0.723,0.519,1.551,0.782,2.378,0.81c1.403,0.048,2.802-0.584,3.68-1.81c1.397-1.949,0.95-4.661-0.999-6.058l-2.15-1.541
		c-0.181-0.19-0.38-0.368-0.603-0.525l-10.214-7.216l-7.021-14.302c-0.714-1.533-2.206-2.435-3.787-2.499
		c-0.034-0.007-0.074-0.023-0.103-0.023H41.536c-1.067,0-1.893,0.872-1.835,1.937l-1.162,22.557c0.058,1.065-0.301,2.71-0.797,3.655
		L23.885,82.064c-0.496,0.945-0.029,1.718,1.038,1.718h8.729v8.054l-15.672,21.856c-1.405,1.959-0.955,4.686,1.004,6.09
		c0.77,0.552,1.659,0.818,2.539,0.818c1.359,0,2.699-0.633,3.551-1.822l16.489-22.997c0.531-0.742,0.818-1.631,0.818-2.543v-9.457
		h2.136l11.011,33.805c0.601,1.843,2.311,3.014,4.149,3.014c0.448,0,0.904-0.069,1.353-0.216c2.292-0.746,3.545-3.209,2.799-5.501
		L53.699,83.782h6.789c1.067,0,1.61-0.808,1.208-1.796L50.998,55.748c-0.403-0.988-0.367-2.589,0.079-3.559L55.396,42.804z"/>
	<path d="M117.574,112.661c3.052,0,3.533-1.536,2.95-2.838c-0.15-0.335-10.677-23.575-10.851-23.94
		c-0.172-0.359-0.487-1.319-2.245-1.319c-1.129,0-2.077,0.703-2.351,1.736c-0.074,0.279-0.312,0.517-0.602,0.517h-7.588
		c-0.289,0-0.664-0.188-0.841-0.416c-0.072-0.092-0.407-1.525-1.844-1.525c0,0-3.785,0-4.228,0c-1.803,0-2.725,0.625-3.131,2.406
		l-4.443,15.066c-0.075,0.279-0.353,0.464-0.642,0.441c0,0-2.607,0-3.092,0c-1.681,0-2.987,1.21-2.987,2.891
		c0,0.11-0.317,4.811-0.32,5.987c-0.001,0.289-0.087,0.742-0.172,1.018c-0.233,0.754-0.359,1.555-0.359,2.385
		c0,4.472,3.625,8.097,8.097,8.097c4.472,0,8.097-3.736,8.097-8.208c0-0.684-0.085-1.224-0.245-1.98
		c-0.06-0.283,0.101-0.512,0.362-0.512c0.261,0,0.573,0.212,0.697,0.473c0,0,3.409,7.249,3.411,7.262
		c0.003,0.014,0.127,0.227,0.322,0.44c0.522,0.572,1.267,0.929,2.095,0.929c1.578,0,2.858-1.25,2.858-2.828
		c0-0.14-0.01-0.268-0.03-0.394c-0.034-0.216-2.417-5.409-2.417-5.409c-0.124-0.261,0.009-0.473,0.299-0.473h3.786
		c0.289,0,0.475,0.23,0.417,0.513c-0.149,0.725-0.228,1.185-0.228,1.821c0,4.151,3.364,7.57,7.515,7.57
		c4.15,0,7.515-3.337,7.515-7.487c0-0.576-0.065-1.129-0.188-1.664C117.124,112.936,117.285,112.661,117.574,112.661z
		 M107.743,95.203c-6.199,0-10.378,7.942-13.353,7.942c0,0-0.628,0.033-0.872-0.011c-0.243-0.044-0.365-0.301-0.286-0.579
		l3.017-10.259c0.077-0.279,0.364-0.507,0.653-0.507h9.691c0.289,0,0.592,0.168,0.676,0.375l0.152,0.376l0.679,2.094
		C108.189,94.909,108.025,95.137,107.743,95.203z"/>
	<circle cx="92.576" cy="76.094" r="7.094"/>
</g>
</svg>
