<?xml version="1.0" encoding="iso-8859-1"?>
<!-- Generator: Adobe Illustrator 17.1.0, SVG Export Plug-In . SVG Version: 6.00 Build 0)  -->
<!DOCTYPE svg PUBLIC "-//W3C//DTD SVG 1.1//EN" "http://www.w3.org/Graphics/SVG/1.1/DTD/svg11.dtd">
<svg version="1.1" id="Layer_1" xmlns="http://www.w3.org/2000/svg" xmlns:xlink="http://www.w3.org/1999/xlink" x="0px" y="0px"
	 viewBox="0 0 128 128" style="enable-background:new 0 0 128 128;" xml:space="preserve">
<g>
	<path d="M79.791,102.758c4.923-3.11,9.872-6.135,14.811-9.22c0.233-0.145,0.644-0.262,0.918-0.26l4.323,0.024
		c0.274,0.002,0.595-0.196,0.716-0.443l17.413-35.35c0.121-0.246-0.003-0.446-0.277-0.446H96.253H53.732
		c-0.275,0-0.497-0.223-0.497-0.497l0.056-49.445c0-0.275-0.222-0.497-0.496-0.494C29.031,6.892,9.981,26.188,9.981,50.018
		c0,23.543,18.605,42.657,42.227,43.371c0.274,0.008,0.601,0.02,0.731,0.02c0.118,0.001,0.235,0,0.235,0
		c0.075,0,0.067,0.003,0.143,0.003c0.158,0,0.274-0.004,0.432-0.006l4.265-0.019c0.275-0.001,0.678,0.127,0.902,0.287
		c4.144,2.954,8.336,5.842,12.477,8.806c0.223,0.16,0.217,0.41-0.014,0.559c-1.913,1.235-3.823,2.478-5.72,3.737
		c-0.014,0.009-0.032,0.013-0.048,0.021c-1.89-1.587-4.325-2.546-6.987-2.546c-6.006,0-10.875,4.869-10.875,10.875
		S52.619,126,58.625,126S69.5,121.131,69.5,115.125c0-1.781-0.437-3.458-1.196-4.941c0.016-0.014,0.028-0.033,0.046-0.044
		c2.235-1.48,4.483-2.939,6.739-4.387c0.231-0.148,0.597-0.136,0.817,0.028c2.989,2.232,5.913,4.544,8.733,6.986
		c-0.168,0.76-0.264,1.548-0.264,2.359c0,6.006,4.869,10.875,10.875,10.875s10.875-4.869,10.875-10.875s-4.869-10.875-10.875-10.875
		c-3.599,0-6.78,1.755-8.759,4.449c-2.19-1.855-4.436-3.641-6.724-5.376C79.549,103.157,79.559,102.904,79.791,102.758z
		 M76.087,100.017c-0.232,0.147-0.6,0.136-0.822-0.025c-2.973-2.15-5.983-4.251-8.99-6.355c-0.225-0.157-0.185-0.286,0.09-0.287
		l19.987-0.09c0.275-0.001,0.308,0.116,0.075,0.261C82.974,95.675,79.523,97.834,76.087,100.017z"/>
</g>
</svg>
