<svg width="64" xmlns="http://www.w3.org/2000/svg" height="64" viewBox="0 0 64 64" xmlns:xlink="http://www.w3.org/1999/xlink" enable-background="new 0 0 64 64">
<g fill="#0e0f0f">
<circle cx="31" cy="9.303" r="8.369"/>
<path d="m50.137,31.264c-4.527-3.496-9.211-6.765-14.301-9.395-1.441-1.172-3.26-1.89-5.24-1.903-2.199-.015-4.242,.859-5.785,2.273-4.135,2.36-8.021,5.11-11.795,8.024-1.723,1.33-2.643,3.41-1.436,5.472 .996,1.701 3.742,2.771 5.473,1.436 1.635-1.262 3.293-2.494 4.98-3.678 0,.574 0,1.15 0,1.725h17.004c0-.717 0-1.436 0-2.152 2.416,1.607 4.76,3.328 7.063,5.105 1.73,1.336 4.477,.266 5.473-1.436 1.208-2.061 .286-4.141-1.436-5.471z"/>
<path d="m32.98,46.33c.594-.385 .902-.805 .902-.805l5.154-6.135v-3.672h-16.985l.057,3.004 4.623,6.527 .107,.111c.68,.508 1.355,.902 2.008,1.17l.098,.027c.57,.107 1.055,.158 1.527,.162h.049c.754,0 1.535-.111 2.322-.328l.138-.061zm-2.46-.609v.5l-.043-.5c-.396-.002-.811-.045-1.299-.135-.541-.227-1.104-.557-1.678-.979l-4.398-6.211-.031-1.678h14.967v2.307l-4.943,5.885c-.004,.004-.205,.273-.594,.539-.677,.18-1.343,.272-1.981,.272z"/>
<path d="m26.447,45.686l-.08-.084-4.639-6.551c-3.232,3.07-5.439,6.703-5.543,11.262-.102,4.492 2.979,8.473 6.203,11.234 3.895,3.336 9.582-2.297 5.656-5.656-4.023-3.448-4.739-6.608-1.597-10.205z"/>
<path d="m39.432,39.697l-5.143,6.117c-.002,.004-.023,.029-.037,.051 3.473,3.73 2.848,6.977-1.297,10.525-3.924,3.359 1.762,8.992 5.656,5.656 3.518-3.012 5.797-6.574 6.203-11.234 .374-4.281-2.451-8.287-5.382-11.115z"/>
</g>
</svg>
