<?xml version="1.0" encoding="utf-8"?>
<!-- Generator: Adobe Illustrator 16.0.0, SVG Export Plug-In . SVG Version: 6.00 Build 0)  -->
<!DOCTYPE svg PUBLIC "-//W3C//DTD SVG 1.1//EN" "http://www.w3.org/Graphics/SVG/1.1/DTD/svg11.dtd">
<svg version="1.1" id="Layer_1" xmlns="http://www.w3.org/2000/svg" xmlns:xlink="http://www.w3.org/1999/xlink" x="0px" y="0px"
	 width="126px" height="126px" viewBox="0 0 126 126" enable-background="new 0 0 126 126" xml:space="preserve">
<g>
	<circle fill="#010101" cx="108.015" cy="13.067" r="8.684"/>
	<path fill="#010101" d="M99.001,51.841c0.194,0,0.39-0.022,0.583-0.058c-0.005,0.084-0.012,0.168-0.012,0.253l0.002,32.283
		c0,2.201,1.784,3.983,3.983,3.983c2.201,0,3.984-1.783,3.984-3.983l-0.001-27.706c0.158,0.007,0.315,0.019,0.475,0.019
		c0.03,0,0.063-0.003,0.094-0.003l-0.003,27.69c0,2.2,1.784,3.983,3.985,3.983c2.2,0,3.983-1.783,3.983-3.983l0.002-32.209
		c0.062-0.12,0.118-0.243,0.174-0.366c0.255,0.06,0.512,0.097,0.77,0.097c1.109,0,2.193-0.545,2.838-1.547
		c1.896-2.948,5.113-8.32,5.347-11.186c0.391-4.806-7.837-13.049-11.415-15.243c-0.129-0.08-0.265-0.133-0.401-0.193
		c-0.979-0.653-2.082-1.141-3.21-1.417l-2.163,2.178l-2.098-2.201c-0.007,0.002-0.016,0.002-0.021,0.004
		c-1.131,0.271-2.239,0.754-3.223,1.415c-0.15,0.064-0.301,0.126-0.443,0.215c-3.579,2.194-11.808,10.438-11.414,15.244
		c0.233,2.865,3.449,8.236,5.347,11.185C96.807,51.296,97.893,51.841,99.001,51.841z M116.903,36.195
		c0.77,1.039,1.33,1.953,1.535,2.539c-0.187,0.646-0.759,1.864-1.535,3.307V36.195z M107.995,24.755h0.04l2.095,13.999l-2.095,2.865
		h-0.04l-2.094-2.865L107.995,24.755z M99.127,36.181v5.886c-0.792-1.471-1.374-2.701-1.549-3.32
		C97.781,38.156,98.348,37.231,99.127,36.181z"/>
	<polygon fill="#010101" points="8.278,97.907 61.579,97.907 37.87,121.616 92.108,121.616 68.397,97.907 121.7,97.907 121.7,91.09 
		8.278,91.09 	"/>
	<polygon fill="#010101" points="22.306,83.398 16.31,83.398 16.31,88.303 32.278,88.303 32.278,83.398 27.545,83.398 
		27.545,23.397 22.306,23.397 22.306,23.443 0.781,34.375 22.306,45.754 	"/>
</g>
</svg>
