<?xml version="1.0" encoding="utf-8"?>
<!-- Generator: Adobe Illustrator 16.0.0, SVG Export Plug-In . SVG Version: 6.00 Build 0)  -->
<!DOCTYPE svg PUBLIC "-//W3C//DTD SVG 1.1//EN" "http://www.w3.org/Graphics/SVG/1.1/DTD/svg11.dtd">
<svg version="1.1" id="Layer_1" xmlns="http://www.w3.org/2000/svg" xmlns:xlink="http://www.w3.org/1999/xlink" x="0px" y="0px"
	 width="50px" height="50px" viewBox="0 0 50 50" enable-background="new 0 0 50 50" xml:space="preserve">
<path d="M41.5,26.445l-1.708-10.594l-0.104-0.648l-0.636,0.163l-6.071,1.55c-0.505-0.007-2.722-1.33-3.913-2.041
	c-1.764-1.054-2.368-1.394-2.77-1.394c-0.476,0-1.933,0.685-3.167,1.487c-0.213-0.181-0.378-0.287-0.486-0.271
	c-1.281,0.206-5.075,3.272-5.834,3.083c-0.759-0.189-6.783-1.755-6.783-1.755L8.415,26.415c0,0,4.355,1.167,6.216,1.665
	l-0.552,0.811c-0.275,0.392-0.29,0.903-0.033,1.396c0.386,0.744,1.278,1.283,2.12,1.283c0.077,0,0.152-0.004,0.227-0.013
	c0.063,0.211,0.167,0.415,0.309,0.607c0.471,0.638,1.336,1.066,2.152,1.066c0.112,0,0.221-0.009,0.328-0.024
	c0.085,0.249,0.222,0.488,0.407,0.709c0.521,0.621,1.345,1.007,2.15,1.007c0.077,0,0.153-0.004,0.228-0.011
	c0.07,0.271,0.198,0.528,0.384,0.757c0.423,0.524,1.094,0.85,1.75,0.85c0.537,0,1-0.229,1.271-0.628
	c0.284-0.419,0.814-1.344,1.327-2.239c0.113-0.198,0.223-0.389,0.328-0.572c0.722,0.307,1.168,0.498,1.168,0.498
	c1.565,0.617,2.372-1.708,1.645-2.338l1.09,0.385c1.598,0.641,3.021-1.32,1.766-2.524c0.6,0.27,1.159,0.139,1.582-0.184
	l-0.003,0.005l1.398-0.288l5.397-1.514l0.516-0.146L41.5,26.445z M24.875,35.554c-0.17,0.251-0.458,0.364-0.774,0.364
	c-0.801,0-1.791-0.726-1.561-1.799c-0.244,0.141-0.52,0.203-0.801,0.203c-1.071,0-2.224-0.914-2.042-1.948
	c-0.241,0.178-0.536,0.257-0.843,0.257c-1.033,0-2.201-0.895-1.883-1.931c-0.25,0.19-0.527,0.271-0.805,0.271
	c-1.026,0-2.046-1.094-1.591-1.742l1.098-1.612c0.176-0.291,0.44-0.41,0.728-0.41c0.744,0,1.641,0.801,1.549,1.485
	c0.46-0.763,0.933-1.367,1.518-1.485c0.103-0.021,0.206-0.03,0.307-0.03c0.99,0,1.872,0.928,1.843,1.674
	c0.374-0.62,0.885-0.86,1.396-0.86c1.132,0,2.264,1.18,1.896,2.026c0.204-0.189,0.465-0.273,0.739-0.273
	c0.955,0,2.057,1.026,1.344,2.206C26.458,32.836,25.315,34.903,24.875,35.554z M35.51,28.055c0.092-0.328,0.114-0.653,0.062-0.958
	c0.792-0.135,1.496-0.728,1.781-1.532c0.292-0.826,0.064-1.67-0.594-2.201l-0.082-0.056c-0.045-0.024-4.546-2.52-8.818-5.15
	L26.669,18.2c-0.3,0.14-1.118,0.553-1.225,0.941c-0.131,0.476-0.759,2.751-1.043,3.857c-0.075,0.293-0.376,0.415-0.774,0.415
	c-1.107,0-2.961-0.946-2.784-1.807c0.241-1.169,0.744-3.89,0.965-4.68c0.221-0.791,3.826-2.847,4.49-2.847
	c0.642,0,5.499,3.429,6.718,3.429c0.042,0,0.08-0.004,0.113-0.013c0.992-0.253,6.071-1.55,6.071-1.55l1.708,10.594L35.51,28.055z"/>
</svg>
