<?xml version="1.0" encoding="utf-8"?>
<!-- Generator: Adobe Illustrator 16.0.0, SVG Export Plug-In . SVG Version: 6.00 Build 0)  -->
<!DOCTYPE svg PUBLIC "-//W3C//DTD SVG 1.1//EN" "http://www.w3.org/Graphics/SVG/1.1/DTD/svg11.dtd">
<svg version="1.1" id="Layer_10" xmlns="http://www.w3.org/2000/svg" xmlns:xlink="http://www.w3.org/1999/xlink" x="0px" y="0px"
	 width="100px" height="100px" viewBox="0 0 100 100" enable-background="new 0 0 100 100" xml:space="preserve">
<path d="M55.43,52.549l-2.93,6.254h-3.48l-3.025-6.254c0-0.598,0.486-1.082,1.086-1.082h7.266
	C54.943,51.467,55.43,51.951,55.43,52.549z M52.174,59.455h-2.928c-0.113,0-0.209,0.088-0.215,0.201l-1.41,21.58
	c-0.002,0.047,0.01,0.092,0.033,0.129l2.82,4.447c0.039,0.063,0.107,0.1,0.18,0.1c0,0,0.002,0,0.004,0
	c0.072,0,0.137-0.033,0.18-0.096l3.035-4.443c0.027-0.041,0.043-0.09,0.037-0.139l-1.518-21.578
	C52.383,59.543,52.289,59.455,52.174,59.455z M78,69.025v17.051l-0.117-0.002l-1.098,0.559c-0.555,0.279-9.514,4.688-24.971,4.688
	c-7.912,0-17.529-1.154-28.596-4.611l-1.174-0.367L22,86.076V69.025c0-11.596,9.436-21.029,21.031-21.029h13.936
	C68.564,47.996,78,57.43,78,69.025z M75.76,69.025c0-10.361-8.43-18.789-18.793-18.789H43.031c-10.363,0-18.791,8.428-18.791,18.789
	v14.811l-0.006,0.521c31.727,9.91,51.295,0.176,51.49,0.076l0.035-0.598V69.025z M33.215,27.459
	c-1.49-2.035-2.277-4.432-2.277-6.955c0-6.52,5.305-11.824,11.824-11.824h14.477c6.52,0,11.824,5.305,11.824,11.824
	c0,2.021-0.525,4.014-1.523,5.783c-0.002,2.025-0.404,3.734-1.16,5.096C65.893,40.016,58.758,46.875,50,46.875
	c-9.07,0-16.426-7.354-16.426-16.426c0-0.277,0.023-0.547,0.041-0.818C33.42,28.961,33.279,28.24,33.215,27.459z M33.178,20.504
	c0,2.137,0.697,4.162,2.016,5.857l0.213,0.275l0.02,0.346c0.229,3.898,2.254,5.875,6.023,5.875h17.779
	c4.027,0,6.07-2.213,6.07-6.578c0-0.105-0.002-0.176-0.006-0.229l-0.016-0.34l0.174-0.293c0.898-1.49,1.371-3.189,1.371-4.914
	c0-5.283-4.299-9.584-9.584-9.584H42.762C37.479,10.92,33.178,15.221,33.178,20.504z M62.486,27.871l0.65-2.145
	c-11.844-3.588-24.824-1.07-25.369-0.959l0.438,2.195C38.334,26.939,51.178,24.443,62.486,27.871z M26.822,67.043v12.881
	c1.121,5.039,9.707,5.227,9.707,5.227V55.135C28.129,57.973,26.822,67.043,26.822,67.043z M63.035,55.135V85.15
	c0,0,8.586-0.188,9.707-5.227V67.043C72.742,67.043,71.436,57.973,63.035,55.135z"/>
</svg>
