<?xml version="1.0" encoding="utf-8"?>
<!-- Generator: Adobe Illustrator 16.0.0, SVG Export Plug-In . SVG Version: 6.00 Build 0)  -->
<!DOCTYPE svg PUBLIC "-//W3C//DTD SVG 1.1//EN" "http://www.w3.org/Graphics/SVG/1.1/DTD/svg11.dtd">
<svg version="1.1" id="Layer_1" xmlns="http://www.w3.org/2000/svg" xmlns:xlink="http://www.w3.org/1999/xlink" x="0px" y="0px"
	 width="50px" height="50px" viewBox="0 0 50 50" enable-background="new 0 0 50 50" xml:space="preserve">
<g>
	<path d="M14.142,17.464c1.389,0,2.515-1.611,2.515-3c0-1.39-1.126-2.516-2.515-2.516c-1.39,0-2.517,1.126-2.517,2.516
		C11.625,15.853,12.752,17.464,14.142,17.464z"/>
	<path d="M19.067,19.211c-0.019-0.069-0.033-0.14-0.066-0.204c-0.03-0.058-0.072-0.104-0.111-0.153s-0.074-0.102-0.122-0.144
		c-0.057-0.049-0.122-0.08-0.188-0.115c-0.042-0.021-0.073-0.055-0.119-0.071c-0.09-0.033-2.093-0.751-3.933-0.845l-0.253,0.505
		h-0.006l0.669,5.218l-0.796,1.392l-0.795-1.392l0.669-5.218h-0.007l-0.249-0.499c-1.678,0.085-3.486,0.682-3.863,0.812
		c-0.017,0.006-0.032,0.012-0.048,0.017c-0.009,0.004-0.022,0.008-0.025,0.01c-0.02,0.007-0.033,0.023-0.052,0.031
		c-0.096,0.042-0.187,0.091-0.264,0.16c-0.036,0.033-0.06,0.072-0.091,0.109c-0.049,0.06-0.1,0.115-0.135,0.185
		c-0.031,0.062-0.044,0.129-0.062,0.197c-0.014,0.048-0.04,0.09-0.045,0.143l-0.796,7.163c-0.061,0.546,0.333,1.037,0.878,1.098
		c0.038,0.006,0.075,0.007,0.111,0.007c0.5,0,0.931-0.376,0.988-0.886l0.725-6.523c0.085-0.025,0.178-0.054,0.276-0.081v6.791
		l-0.792,9.846c-0.053,0.657,0.437,1.233,1.094,1.285c0.032,0.003,0.065,0.004,0.097,0.004c0.616,0,1.138-0.473,1.188-1.098
		l0.716-8.899c0.147,0.066,0.31,0.104,0.481,0.104c0.172,0,0.334-0.038,0.482-0.104l0.716,8.899c0.05,0.625,0.573,1.098,1.188,1.098
		c0.032,0,0.065-0.001,0.097-0.004c0.658-0.052,1.147-0.628,1.094-1.285l-0.792-9.846v-6.791c0.099,0.027,0.192,0.056,0.277,0.081
		l0.725,6.523c0.056,0.51,0.487,0.886,0.988,0.886c0.036,0,0.073-0.003,0.111-0.007c0.546-0.061,0.939-0.552,0.878-1.098
		l-0.796-7.163C19.105,19.299,19.079,19.258,19.067,19.211z"/>
	<path d="M34.247,21.619h-11.86c-0.472,0-0.851,0.381-0.851,0.853c0,0.471,0.379,0.85,0.851,0.85h11.86
		c0.472,0,0.851-0.379,0.851-0.85C35.097,22,34.718,21.619,34.247,21.619z"/>
	<path d="M34.247,25.386h-11.86c-0.472,0-0.851,0.38-0.851,0.852s0.379,0.849,0.851,0.849h11.86c0.472,0,0.851-0.377,0.851-0.849
		S34.718,25.386,34.247,25.386z"/>
	<path d="M34.247,29.149h-11.86c-0.472,0-0.851,0.383-0.851,0.853c0,0.472,0.379,0.851,0.851,0.851h11.86
		c0.472,0,0.851-0.379,0.851-0.851C35.097,29.532,34.718,29.149,34.247,29.149z"/>
	<polygon points="41.627,19.465 40.794,18.91 38.629,22.165 36.962,20.912 36.362,21.711 38.875,23.601 	"/>
	<circle cx="38.753" cy="26.236" r="1.088"/>
	<circle cx="38.753" cy="30" r="1.088"/>
</g>
</svg>
