<?xml version="1.0" encoding="utf-8"?>
<!-- Generator: Adobe Illustrator 16.0.0, SVG Export Plug-In . SVG Version: 6.00 Build 0)  -->
<!DOCTYPE svg PUBLIC "-//W3C//DTD SVG 1.1//EN" "http://www.w3.org/Graphics/SVG/1.1/DTD/svg11.dtd">
<svg version="1.1" id="Layer_2" xmlns="http://www.w3.org/2000/svg" xmlns:xlink="http://www.w3.org/1999/xlink" x="0px" y="0px"
	 width="126px" height="126px" viewBox="0 0 126 126" enable-background="new 0 0 126 126" xml:space="preserve">
<g>
	<circle cx="84.745" cy="16.34" r="13.159"/>
	<path d="M110.561,65.12l-6.085-28.402c-1.133-5.291-6.499-7.831-11.054-7.964l-0.039,0.003c0,0-1.606,0.009-2.991,0.272
		c-1.448,0.277-2.717,0.973-2.717,0.973c-3.359,1.629-6.571,4.995-6.964,9.081c-0.053,0.197-0.117,0.388-0.146,0.596
		c-0.887,6.243-1.774,10.198-3.687,11.939c-1.972,1.795-6.403,2.597-14.366,2.597c-1.844,0-3.445,0.985-4.343,2.449
		c-4.806-0.98-7.641-2.226-9.138-3.958c-1.945-2.246-2.654-6.422-3.593-13.031c-0.029-0.207-0.094-0.398-0.146-0.595
		c-0.394-4.086-3.606-7.452-6.965-9.08c0,0-1.269-0.697-2.716-0.974c-1.385-0.266-2.991-0.274-2.991-0.274l-0.039-0.002
		c-4.556,0.133-9.921,2.673-11.055,7.964l-6.084,28.401c-0.813,3.793,0.884,7.188,3.627,9.528l-0.026,43.829
		c-0.002,3.848,3.116,6.969,6.962,6.972c0.001,0,0.003,0,0.004,0c3.846,0,6.964-3.116,6.967-6.962l0.023-41.473
		c2.88-1.146,5.313-3.368,6.056-6.836l2.304-10.751c3.665,4.278,9.718,6.733,20.511,8.21c0.235,0.032,0.468,0.048,0.699,0.048
		c2.154,0,4.063-1.369,4.787-3.371c8.45-0.446,13.691-2.187,17.099-5.771l2.494,11.641c0.743,3.466,3.176,5.689,6.056,6.834
		l0.023,41.473c0.002,3.847,3.121,6.962,6.967,6.962c0.001,0,0.002,0,0.004,0c3.847-0.002,6.964-3.123,6.962-6.97l-0.026-43.831
		C109.676,72.308,111.373,68.911,110.561,65.12z"/>
	<path d="M37.927,21.748L37.3,23.979l1.93,0.543l0.652-2.318c1.395,0.197,2.568,0.069,3.495-0.379
		c1.001-0.486,1.665-1.286,1.971-2.379c0.25-0.886,0.182-1.729-0.2-2.501c-0.377-0.762-1.162-1.58-2.402-2.504l-0.565-0.419
		l0.947-3.372c0.939,0.376,1.855,0.9,2.725,1.562l0.217,0.164l1.644-2.146l-0.212-0.165c-1.086-0.853-2.314-1.514-3.655-1.97
		l0.493-1.753l-1.93-0.544l-0.506,1.803c-1.276-0.187-2.39-0.073-3.309,0.334c-1.006,0.446-1.666,1.204-1.96,2.252
		c-0.272,0.969-0.215,1.877,0.171,2.699c0.375,0.804,1.103,1.61,2.167,2.404l0.64,0.464l-0.981,3.491
		c-0.544-0.185-1.136-0.457-1.764-0.814c-0.731-0.415-1.361-0.855-1.865-1.307l-0.328-0.292l-0.792,2.817l0.136,0.114
		C34.97,20.565,36.285,21.231,37.927,21.748z M42.173,17.845c0.17,0.278,0.208,0.577,0.113,0.911
		c-0.07,0.249-0.274,0.978-1.688,0.903l0.748-2.663C41.742,17.311,42.019,17.596,42.173,17.845z M39.646,11.011
		c0.087-0.309,0.274-0.529,0.572-0.672c0.252-0.122,0.575-0.175,0.96-0.159l-0.721,2.567c-0.369-0.313-0.616-0.591-0.738-0.827
		C39.576,11.644,39.551,11.348,39.646,11.011z"/>
	<path d="M36.559,29.039c7.704,2.166,15.734-2.342,17.899-10.046c2.165-7.705-2.342-15.733-10.046-17.897
		c-7.704-2.165-15.733,2.342-17.898,10.046C24.349,18.847,28.855,26.875,36.559,29.039z M29.397,11.951
		c1.718-6.113,8.09-9.689,14.203-7.973c6.114,1.719,9.691,8.091,7.974,14.204c-1.719,6.113-8.09,9.69-14.204,7.973
		C31.256,24.438,27.679,18.065,29.397,11.951z"/>
</g>
</svg>
