<?xml version="1.0" encoding="utf-8"?>
<!-- Generator: Adobe Illustrator 16.0.0, SVG Export Plug-In . SVG Version: 6.00 Build 0)  -->
<!DOCTYPE svg PUBLIC "-//W3C//DTD SVG 1.1//EN" "http://www.w3.org/Graphics/SVG/1.1/DTD/svg11.dtd">
<svg version="1.1" id="Layer_2" xmlns="http://www.w3.org/2000/svg" xmlns:xlink="http://www.w3.org/1999/xlink" x="0px" y="0px"
	 width="126px" height="126px" viewBox="0 0 126 126" enable-background="new 0 0 126 126" xml:space="preserve">
<g>
	<path d="M62.393,43.471l-4.588-3.22V52.31c0,0.98-0.799,1.781-1.781,1.781H8.817c-0.98,0-1.78-0.801-1.78-1.781V10.002
		c0-0.98,0.8-1.781,1.78-1.781h47.206c0.982,0,1.781,0.801,1.781,1.781v24.81l5.344,3.749V10.002c0-3.93-3.196-7.126-7.125-7.126
		H8.817c-3.928,0-7.124,3.196-7.124,7.126V52.31c0,3.927,3.196,7.124,7.124,7.124h18.943L11.979,96.731
		c-0.655,1.549,0.068,3.334,1.617,3.988c0.386,0.163,0.789,0.241,1.185,0.241c1.187,0,2.312-0.696,2.804-1.857l13.684-32.338
		l13.685,32.338c0.655,1.549,2.439,2.275,3.989,1.616c1.548-0.654,2.271-2.439,1.616-3.988L34.775,59.434h21.248
		c3.929,0,7.125-3.197,7.125-7.124v-4.643C62.426,46.421,62.129,44.947,62.393,43.471z"/>
	<circle cx="100.331" cy="14.649" r="12.618"/>
	<path d="M108.725,30.338c-0.213-0.131-0.437-0.225-0.66-0.319c-1.404-0.937-2.981-1.625-4.59-2.021l-3.144,3.164l-3.048-3.198
		c-0.011,0.002-0.021,0.004-0.031,0.004c-1.646,0.396-3.26,1.102-4.692,2.065c-0.465,0.199-0.914,0.451-1.313,0.805
		c-1.362,1.201-2.604,2.354-3.805,3.47c-7.423,6.891-10.099,8.917-16.92,5.728c-2.041-0.955-4.399-0.375-5.794,1.258L43.693,26.536
		l-1.022,1.457L63.83,42.84c-0.835,2.349,0.235,4.994,2.542,6.072c3.591,1.678,6.755,2.381,9.604,2.381
		c4.437,0,8.107-1.711,11.44-4.101v19.627c0,1.317,0.255,2.546,0.703,3.677c-0.034,0.254-0.058,0.513-0.058,0.775l0.004,46.91
		c0.001,3.196,2.593,5.787,5.79,5.787s5.79-2.591,5.788-5.789l-0.003-40.258c0.23,0.011,0.459,0.03,0.689,0.03
		c0.045,0,0.09-0.007,0.136-0.007l-0.002,40.234c0,3.198,2.592,5.789,5.789,5.789c0.001,0,0.001,0,0.001,0
		c3.196,0,5.789-2.591,5.789-5.789l0.002-46.622c0.758-1.404,1.2-2.995,1.2-4.738V51.077c1.141,4.146,1.604,9.68,1.007,17.303
		c-0.211,2.696,1.805,5.054,4.502,5.266c0.13,0.011,0.259,0.015,0.387,0.015c2.532,0,4.678-1.95,4.879-4.518
		C125.95,44.469,117.81,35.911,108.725,30.338z M100.361,56.135h-0.06l-3.042-4.164l3.042-20.341h0.06l3.042,20.341L100.361,56.135z
		"/>
	<path d="M31.893,49.976c3.134,0,5.588-1.201,5.588-2.736V31.978c0-1.534-2.454-2.736-5.588-2.736c-0.534,0-1.048,0.038-1.535,0.104
		v-13.87c0-1.749-2.824-3.118-6.43-3.118c-3.606,0-6.431,1.369-6.431,3.118v8.941c-2.231,0.356-3.805,1.369-3.805,2.597v21.563
		c0,1.536,2.454,2.738,5.587,2.738s5.588-1.202,5.588-2.738v-4.955c0.484-0.035,0.967-0.097,1.44-0.186v3.804
		C26.308,48.774,28.762,49.976,31.893,49.976z M27.07,47.239v-2.04v-0.81l3.679,4.762C28.534,48.919,27.07,48.041,27.07,47.239z
		 M31.893,49.212c-0.044,0-0.089-0.003-0.134-0.003l-4.688-6.068v-2.367l6.426,8.317C33.003,49.168,32.469,49.212,31.893,49.212z
		 M34.332,48.923l-7.233-9.363l-0.028,0.022v-2.309l8.852,10.994C35.525,48.526,34.985,48.756,34.332,48.923z M36.678,47.239
		c0,0.169-0.066,0.343-0.188,0.515l-9.396-11.669l-0.023,0.018v-2.175l9.613,11.388L36.678,47.239z M27.07,33.387v-0.014
		c0.003,0.003,0.006,0.005,0.008,0.006L27.07,33.387z M36.687,44.135l-8.545-10.123c0.812,0.359,1.839,0.605,2.996,0.678
		l5.555,7.093L36.687,44.135z M36.697,40.548l-4.575-5.841c0.631-0.012,1.231-0.071,1.787-0.175l2.732,3.488l0.062-0.049
		L36.697,40.548z M36.706,36.864l-1.973-2.52c0.821-0.234,1.504-0.567,1.982-0.972L36.706,36.864z M31.893,30.006
		c2.844,0,4.823,1.04,4.823,1.972c0,0.933-1.979,1.974-4.823,1.974c-0.126,0-0.248-0.005-0.37-0.009l-0.015-0.02l-0.023,0.019
		c-2.62-0.094-4.414-1.076-4.414-1.964C27.07,31.046,29.052,30.006,31.893,30.006z M23.928,13.12c3.338,0,5.666,1.241,5.666,2.354
		c0,1.112-2.328,2.354-5.666,2.354c-3.34,0-5.666-1.241-5.666-2.354C18.262,14.361,20.588,13.12,23.928,13.12z M19.279,28.985
		c-2.843,0-4.822-1.038-4.822-1.973c0-0.932,1.979-1.972,4.822-1.972s4.824,1.04,4.824,1.972
		C24.104,27.947,22.122,28.985,19.279,28.985z M24.867,42.855v-4.642v-0.767V27.013c0-1.534-2.455-2.736-5.588-2.736
		c-0.35,0-0.688,0.017-1.018,0.046v-7.351c1.075,0.972,3.186,1.62,5.666,1.62c2.479,0,4.59-0.648,5.666-1.62v12.506
		c-1.953,0.422-3.286,1.37-3.286,2.5v5.651v0.779v4.247C25.835,42.75,25.354,42.819,24.867,42.855z"/>
	<rect x="40.361" y="12.707" width="15.725" height="1.627"/>
	<rect x="45.174" y="15.418" width="10.912" height="1.627"/>
	<rect x="41.649" y="18.062" width="14.437" height="1.627"/>
</g>
</svg>
