<?xml version="1.0" encoding="utf-8"?>
<!-- Generator: Adobe Illustrator 16.0.0, SVG Export Plug-In . SVG Version: 6.00 Build 0)  -->
<!DOCTYPE svg PUBLIC "-//W3C//DTD SVG 1.1//EN" "http://www.w3.org/Graphics/SVG/1.1/DTD/svg11.dtd">
<svg version="1.1" id="Layer_1" xmlns="http://www.w3.org/2000/svg" xmlns:xlink="http://www.w3.org/1999/xlink" x="0px" y="0px"
	 width="50px" height="50px" viewBox="0 0 50 50" enable-background="new 0 0 50 50" xml:space="preserve">
<g>
	<rect x="27.188" y="40.637" width="11" height="0.763"/>
	<path d="M19.062,15.531c1.744,0,3.16-2.024,3.16-3.769c0-1.746-1.416-3.161-3.16-3.161c-1.746,0-3.162,1.416-3.162,3.161
		C15.9,13.507,17.316,15.531,19.062,15.531z"/>
	<path d="M26.188,11.58v5.401l1,1v-4.957h4.031v0.602h2.938v-0.602h4.031v5.777H28.008l0.963,0.963h2.247v0.602h2.938v-0.602h4.031
		v5.777h-11v-1.198l-1-1v17.127h13V11.58H26.188z M38.188,39.025h-11v-5.777h4.031v0.599h2.938v-0.599h4.031V39.025z M38.188,32.285
		h-11v-5.78h4.031v0.602h2.938v-0.602h4.031V32.285z"/>
	<path d="M22.562,18.876c0.347,0.099,0.633,0.188,0.822,0.25l4.794,4.794c0.244,0.244,0.564,0.366,0.884,0.366
		s0.64-0.122,0.884-0.366c0.488-0.488,0.488-1.279,0-1.768l-5-5c-0.005-0.005-0.013-0.007-0.019-0.012
		c-0.061-0.059-0.14-0.095-0.212-0.141c-0.069-0.043-0.133-0.098-0.208-0.126c-0.007-0.003-0.012-0.009-0.02-0.012
		c-0.113-0.041-2.644-0.949-4.962-1.063l-0.298,0.596h-0.008l0.842,6.556l-1,1.747l-1-1.747l0.842-6.556h-0.009l-0.297-0.596
		c-2.318,0.114-4.849,1.022-4.962,1.063c-0.041,0.015-0.068,0.046-0.106,0.064c-0.082,0.04-0.157,0.083-0.228,0.139
		c-0.061,0.048-0.113,0.099-0.164,0.156c-0.054,0.061-0.1,0.123-0.141,0.194c-0.043,0.074-0.075,0.149-0.102,0.23
		c-0.014,0.043-0.043,0.076-0.054,0.122l-2,9c-0.15,0.674,0.275,1.341,0.949,1.491c0.091,0.021,0.182,0.03,0.272,0.03
		c0.573,0,1.09-0.397,1.219-0.979l1.845-8.304c0.129-0.04,0.276-0.083,0.435-0.128v8.532l-0.995,12.371
		c-0.066,0.826,0.549,1.549,1.375,1.615c0.041,0.003,0.082,0.005,0.122,0.005c0.774,0,1.431-0.595,1.494-1.38l0.899-11.181
		c0.186,0.082,0.39,0.129,0.605,0.129s0.42-0.047,0.605-0.129l0.899,11.181c0.063,0.785,0.72,1.38,1.494,1.38
		c0.04,0,0.081-0.001,0.122-0.005c0.826-0.066,1.441-0.79,1.375-1.615l-0.995-12.371V18.876z"/>
</g>
</svg>
