<?xml version="1.0" encoding="utf-8"?>
<!-- Generator: Adobe Illustrator 16.0.0, SVG Export Plug-In . SVG Version: 6.00 Build 0)  -->
<!DOCTYPE svg PUBLIC "-//W3C//DTD SVG 1.1//EN" "http://www.w3.org/Graphics/SVG/1.1/DTD/svg11.dtd">
<svg version="1.1" id="Layer_1" xmlns="http://www.w3.org/2000/svg" xmlns:xlink="http://www.w3.org/1999/xlink" x="0px" y="0px"
	 width="50px" height="50px" viewBox="0 0 50 50" enable-background="new 0 0 50 50" xml:space="preserve">
<g>
	<path d="M26.511,23.934c-0.551,0-0.998,0.446-0.998,0.997c0,0.549,0.447,1.188,0.998,1.188c0.55,0,0.997-0.639,0.997-1.188
		C27.508,24.38,27.061,23.934,26.511,23.934z"/>
	<path d="M28.462,26.813c-0.007-0.029-0.013-0.057-0.027-0.084c-0.011-0.021-0.026-0.035-0.039-0.053
		c-0.017-0.023-0.034-0.047-0.056-0.065c-0.018-0.015-0.039-0.024-0.059-0.037c-0.021-0.012-0.037-0.028-0.06-0.037
		c-0.036-0.012-0.829-0.297-1.558-0.332l-0.101,0.198h-0.002l0.265,2.068l-0.314,0.55l-0.315-0.55l0.265-2.068h-0.003l-0.099-0.198
		c-0.729,0.035-1.522,0.32-1.559,0.332c-0.022,0.009-0.04,0.025-0.06,0.037c-0.021,0.014-0.041,0.022-0.058,0.037
		c-0.023,0.019-0.041,0.042-0.059,0.066c-0.012,0.017-0.027,0.032-0.037,0.052c-0.014,0.026-0.02,0.055-0.027,0.085
		c-0.005,0.018-0.015,0.032-0.017,0.051l-0.315,2.838c-0.024,0.216,0.132,0.411,0.348,0.437c0.015,0.001,0.029,0.002,0.044,0.002
		c0.198,0,0.369-0.148,0.391-0.352l0.287-2.585c0.034-0.009,0.071-0.02,0.11-0.032v2.69l-0.314,3.9
		c-0.021,0.261,0.173,0.49,0.434,0.511c0.013,0.001,0.025,0.001,0.039,0.001c0.243,0,0.451-0.188,0.47-0.437l0.284-3.523
		c0.058,0.026,0.123,0.04,0.191,0.04c0.067,0,0.132-0.014,0.19-0.04l0.285,3.523c0.019,0.249,0.226,0.437,0.47,0.437
		c0.012,0,0.025,0,0.038-0.001c0.261-0.021,0.454-0.25,0.434-0.511l-0.314-3.9v-2.69c0.04,0.013,0.076,0.023,0.109,0.032
		l0.287,2.585c0.022,0.203,0.193,0.352,0.392,0.352c0.015,0,0.029-0.001,0.043-0.002c0.216-0.025,0.372-0.221,0.349-0.437
		l-0.315-2.838C28.478,26.847,28.467,26.831,28.462,26.813z"/>
	<path d="M31.005,26.197c0.549,0,0.996-0.638,0.996-1.187c0-0.552-0.447-0.997-0.996-0.997c-0.551,0-0.998,0.445-0.998,0.997
		C30.007,25.56,30.454,26.197,31.005,26.197z"/>
	<path d="M32.566,27.217c-0.006-0.021-0.018-0.039-0.028-0.06c-0.009-0.018-0.018-0.036-0.03-0.051
		c-0.002-0.004-0.004-0.008-0.005-0.011c-0.027-0.03-0.66-0.738-1.498-0.738c-0.839,0-1.472,0.708-1.499,0.738
		c-0.002,0.003-0.003,0.007-0.006,0.01c-0.014,0.016-0.021,0.036-0.03,0.055c-0.011,0.019-0.022,0.036-0.029,0.057
		c-0.001,0.003-0.003,0.007-0.004,0.01l-0.63,2.524c-0.042,0.168,0.06,0.34,0.229,0.381c0.025,0.006,0.051,0.01,0.077,0.01
		c0.141,0,0.27-0.097,0.305-0.238l0.606-2.428l0.16,1.481l-1.034,2.022c0,0.074,0.421,0.245,1.034,0.338l-0.204,2.533
		c-0.017,0.218,0.145,0.406,0.362,0.424c0.01,0.001,0.021,0.001,0.032,0.001c0.204,0,0.376-0.155,0.393-0.361l0.204-2.534
		c0.011,0,0.022,0,0.034,0c0.01,0,0.022,0,0.033,0l0.204,2.534c0.017,0.206,0.189,0.361,0.392,0.361c0.011,0,0.021,0,0.033-0.001
		c0.216-0.018,0.378-0.206,0.36-0.424l-0.204-2.533c0.612-0.093,1.034-0.264,1.034-0.338l-1.034-2.021l0.16-1.483l0.606,2.428
		c0.036,0.142,0.164,0.238,0.306,0.238c0.025,0,0.051-0.004,0.077-0.01c0.169-0.041,0.272-0.213,0.229-0.381l-0.631-2.524
		C32.571,27.224,32.567,27.22,32.566,27.217z"/>
	<path d="M35.498,26.118c0.55,0,0.997-0.639,0.997-1.188c0-0.551-0.447-0.997-0.997-0.997c-0.55,0-0.998,0.446-0.998,0.997
		C34.5,25.479,34.947,26.118,35.498,26.118z"/>
	<path d="M37.449,26.813c-0.007-0.029-0.013-0.057-0.027-0.084c-0.011-0.021-0.025-0.035-0.038-0.053
		c-0.018-0.023-0.034-0.047-0.057-0.065c-0.018-0.015-0.039-0.024-0.059-0.037c-0.021-0.012-0.037-0.028-0.06-0.037
		c-0.036-0.012-0.828-0.297-1.558-0.332l-0.102,0.198h-0.002l0.266,2.068l-0.315,0.55l-0.314-0.55l0.265-2.068h-0.003l-0.1-0.198
		c-0.729,0.035-1.522,0.32-1.559,0.332c-0.023,0.009-0.04,0.025-0.06,0.037c-0.02,0.014-0.04,0.022-0.057,0.037
		c-0.024,0.019-0.041,0.042-0.059,0.066c-0.013,0.017-0.027,0.032-0.037,0.052c-0.014,0.026-0.021,0.055-0.028,0.085
		c-0.004,0.018-0.015,0.032-0.017,0.051l-0.316,2.838c-0.023,0.216,0.133,0.411,0.349,0.437c0.016,0.001,0.029,0.002,0.044,0.002
		c0.198,0,0.369-0.148,0.391-0.352l0.287-2.585c0.034-0.009,0.07-0.02,0.11-0.032v2.69l-0.314,3.9
		c-0.021,0.261,0.172,0.49,0.433,0.511c0.013,0.001,0.025,0.001,0.039,0.001c0.243,0,0.451-0.188,0.47-0.437l0.284-3.523
		c0.059,0.026,0.124,0.04,0.191,0.04c0.068,0,0.132-0.014,0.191-0.04l0.284,3.523c0.019,0.249,0.227,0.437,0.471,0.437
		c0.012,0,0.025,0,0.038-0.001c0.26-0.021,0.455-0.25,0.434-0.511l-0.313-3.9v-2.69c0.039,0.013,0.076,0.023,0.109,0.032
		l0.287,2.585c0.023,0.203,0.193,0.352,0.392,0.352c0.014,0,0.028-0.001,0.043-0.002c0.217-0.025,0.372-0.221,0.348-0.437
		l-0.315-2.838C37.464,26.847,37.454,26.831,37.449,26.813z"/>
	<path d="M39.991,26.197c0.55,0,0.997-0.638,0.997-1.187c0-0.552-0.447-0.997-0.997-0.997c-0.551,0-0.998,0.445-0.998,0.997
		C38.994,25.56,39.44,26.197,39.991,26.197z"/>
	<path d="M41.558,27.227c0-0.003-0.004-0.007-0.005-0.01c-0.005-0.021-0.018-0.039-0.028-0.06c-0.009-0.018-0.017-0.036-0.029-0.051
		c-0.003-0.004-0.004-0.008-0.006-0.011c-0.026-0.03-0.659-0.738-1.498-0.738s-1.471,0.708-1.498,0.738
		c-0.003,0.003-0.003,0.007-0.006,0.01c-0.012,0.016-0.021,0.036-0.031,0.055c-0.01,0.019-0.021,0.036-0.027,0.057
		c-0.001,0.003-0.003,0.007-0.005,0.01l-0.63,2.524c-0.043,0.168,0.061,0.34,0.229,0.381c0.026,0.006,0.051,0.01,0.077,0.01
		c0.141,0,0.27-0.097,0.305-0.238l0.607-2.428l0.159,1.481l-1.034,2.022c0,0.074,0.422,0.245,1.034,0.338l-0.203,2.533
		c-0.018,0.218,0.144,0.406,0.36,0.424c0.011,0.001,0.021,0.001,0.032,0.001c0.203,0,0.375-0.155,0.393-0.361l0.204-2.534
		c0.011,0,0.021,0,0.034,0c0.011,0,0.023,0,0.033,0l0.204,2.534c0.018,0.206,0.19,0.361,0.393,0.361c0.011,0,0.021,0,0.033-0.001
		c0.217-0.018,0.378-0.206,0.36-0.424l-0.203-2.533c0.612-0.093,1.033-0.264,1.033-0.338l-1.033-2.021l0.159-1.483l0.607,2.428
		c0.035,0.142,0.164,0.238,0.306,0.238c0.024,0,0.051-0.004,0.076-0.01c0.169-0.041,0.271-0.213,0.229-0.381L41.558,27.227z"/>
	<path d="M17.494,18.882c1.503,0,2.723-1.744,2.723-3.248s-1.22-2.723-2.723-2.723c-1.504,0-2.724,1.219-2.724,2.723
		S15.99,18.882,17.494,18.882z"/>
	<path d="M25.467,23.073l1.499-1.969v0.533c0,0.117,0.096,0.215,0.215,0.215c0.119,0,0.215-0.098,0.215-0.215v-1.1l0.433-0.568
		c0.36-0.473,0.269-1.148-0.205-1.51c-0.071-0.053-0.151-0.076-0.229-0.109v-3.523c1.557-0.113,2.793-1.402,2.793-2.986
		c0-1.66-1.35-3.01-3.009-3.01c-1.659,0-3.009,1.35-3.009,3.01c0,1.584,1.236,2.873,2.794,2.986v3.43
		c-0.323,0.002-0.641,0.133-0.851,0.408l-1.825,2.398l-2.012-0.988c-0.02-0.01-0.04-0.01-0.06-0.018
		c-0.018-0.006-0.031-0.021-0.049-0.029c-0.097-0.035-2.278-0.818-4.275-0.916l-0.257,0.514H17.63l0.726,5.648l-0.862,1.504
		l-0.862-1.504l0.726-5.648h-0.007l-0.256-0.514c-1.997,0.098-4.177,0.881-4.275,0.916c-0.047,0.018-0.08,0.053-0.124,0.076
		c-0.072,0.037-0.145,0.07-0.208,0.125c-0.058,0.051-0.099,0.113-0.144,0.172c-0.033,0.045-0.077,0.074-0.104,0.123l-1.372,2.518
		l-1.712-0.457c-0.574-0.152-1.165,0.188-1.318,0.762c-0.153,0.574,0.188,1.166,0.762,1.32l2.531,0.676
		c0.093,0.023,0.186,0.035,0.278,0.035c0.387,0,0.753-0.209,0.946-0.561l1.575-2.889c0.148-0.049,0.336-0.105,0.55-0.164v7.352
		l-0.858,10.658c-0.057,0.711,0.473,1.334,1.185,1.391c0.035,0.004,0.071,0.004,0.105,0.004c0.667,0,1.233-0.512,1.287-1.189
		l0.774-9.631c0.161,0.07,0.336,0.111,0.522,0.111s0.362-0.041,0.522-0.111l0.775,9.631c0.054,0.678,0.62,1.189,1.287,1.189
		c0.035,0,0.07,0,0.105-0.004c0.711-0.057,1.242-0.68,1.185-1.391L20.51,29.116v-7.352c0.436,0.123,0.756,0.229,0.873,0.27
		l2.752,1.355c0.151,0.072,0.314,0.109,0.475,0.109C24.937,23.499,25.258,23.349,25.467,23.073z M24.602,11.841
		c0-1.422,1.157-2.578,2.578-2.578s2.578,1.156,2.578,2.578c0,1.42-1.157,2.578-2.578,2.578S24.602,13.261,24.602,11.841z"/>
</g>
</svg>
