<?xml version="1.0" encoding="utf-8"?>
<!-- Generator: Adobe Illustrator 16.0.0, SVG Export Plug-In . SVG Version: 6.00 Build 0)  -->
<!DOCTYPE svg PUBLIC "-//W3C//DTD SVG 1.1//EN" "http://www.w3.org/Graphics/SVG/1.1/DTD/svg11.dtd">
<svg version="1.1" id="Layer_2" xmlns="http://www.w3.org/2000/svg" xmlns:xlink="http://www.w3.org/1999/xlink" x="0px" y="0px"
	 width="126px" height="126px" viewBox="0 0 126 126" enable-background="new 0 0 126 126" xml:space="preserve">
<g>
	<circle cx="75.117" cy="13.245" r="12.984"/>
	<path d="M83.756,29.389c-0.219-0.134-0.45-0.23-0.68-0.327c-1.445-0.964-3.068-1.673-4.725-2.08l-3.233,3.256l-3.137-3.292
		c-0.011,0.003-0.022,0.003-0.032,0.006c-1.688,0.404-3.347,1.128-4.817,2.116c-0.224,0.095-0.451,0.189-0.665,0.321
		c-3.386,2.078-6.212,5.347-8.946,8.51c-6.042,6.991-8.834,9.164-12.671,7.596c5.953-1.792,10.291-7.311,10.291-13.848
		c0-7.989-6.477-14.465-14.465-14.465c-7.99,0-14.465,6.477-14.465,14.465c0,7.452,5.636,13.583,12.879,14.374
		c-0.554,0.46-1.021,1.042-1.348,1.737c-1.178,2.522-0.091,5.522,2.432,6.701c2.475,1.157,4.783,1.649,6.938,1.649
		c6.07,0,10.909-3.911,14.717-7.91v18.729c0,1.357,0.264,2.622,0.727,3.786c-0.036,0.262-0.062,0.526-0.062,0.798l0.004,48.27
		c0,3.29,2.668,5.957,5.958,5.957c3.291,0,5.956-2.667,5.956-5.958L74.41,78.355c0.234,0.011,0.472,0.03,0.708,0.03
		c0.047,0,0.092-0.005,0.139-0.006l-0.002,41.402c0,3.29,2.668,5.958,5.958,5.958c3.291,0,5.959-2.667,5.959-5.957l0.001-47.974
		c0.78-1.447,1.234-3.084,1.234-4.879V50.732c1.174,4.264,1.65,9.96,1.037,17.803c-0.218,2.774,1.857,5.201,4.632,5.419
		c0.133,0.01,0.267,0.015,0.399,0.015c2.604,0,4.813-2.006,5.019-4.648C101.481,43.931,93.104,35.124,83.756,29.389z M32.945,40.094
		v-4.119l0.556,0.27c0.856,0.419,1.876,0.775,3.024,1.061c0.987,0.245,1.894,0.389,2.7,0.431v-5.105l-1.043-0.384
		c-1.745-0.67-3.039-1.488-3.854-2.433c-0.834-0.966-1.258-2.174-1.258-3.592c0-1.532,0.606-2.81,1.799-3.798
		c1.091-0.902,2.555-1.479,4.356-1.711v-2.634h2.822v2.562c1.991,0.108,3.907,0.537,5.702,1.278l0.352,0.144l-1.409,3.533
		l-0.357-0.141c-1.431-0.565-2.871-0.927-4.287-1.078v4.929l0.925,0.354c2.033,0.78,3.408,1.591,4.208,2.478
		c0.813,0.902,1.225,2.016,1.225,3.312c0,1.599-0.595,2.937-1.766,3.975c-1.085,0.963-2.628,1.581-4.592,1.844v3.39h-2.822v-3.263
		c-2.423-0.073-4.458-0.476-6.052-1.199L32.945,40.094z M75.089,55.936l-3.131-4.285l3.131-20.931h0.06l3.132,20.931l-3.132,4.285
		H75.089z"/>
	<path d="M43.993,35.681c0-0.489-0.164-0.879-0.501-1.192c-0.303-0.279-0.787-0.559-1.444-0.835v3.894
		C43.993,37.11,43.993,36.046,43.993,35.681z"/>
	<path d="M39.226,24.482c-0.527,0.126-0.945,0.32-1.242,0.581c-0.349,0.306-0.518,0.676-0.518,1.129
		c0,0.491,0.146,0.883,0.443,1.204c0.258,0.273,0.698,0.556,1.316,0.838V24.482z"/>
</g>
</svg>
