<?xml version="1.0" encoding="utf-8"?>
<!-- Generator: Adobe Illustrator 16.0.0, SVG Export Plug-In . SVG Version: 6.00 Build 0)  -->
<!DOCTYPE svg PUBLIC "-//W3C//DTD SVG 1.1//EN" "http://www.w3.org/Graphics/SVG/1.1/DTD/svg11.dtd">
<svg version="1.1" id="Layer_10" xmlns="http://www.w3.org/2000/svg" xmlns:xlink="http://www.w3.org/1999/xlink" x="0px" y="0px"
	 width="100px" height="100px" viewBox="0 0 100 100" enable-background="new 0 0 100 100" xml:space="preserve">
<path d="M55.018,49.85l-3.041,6.492h-3.613l-3.141-6.492c0-0.623,0.504-1.125,1.127-1.125h7.543
	C54.514,48.725,55.018,49.227,55.018,49.85z M51.639,57.02H48.6c-0.119,0-0.217,0.09-0.225,0.209L46.91,79.633
	c-0.002,0.049,0.01,0.096,0.035,0.135l2.928,4.617c0.041,0.064,0.111,0.104,0.186,0.104c0.002,0,0.004,0,0.006,0
	c0.074,0,0.143-0.035,0.186-0.1l3.152-4.613c0.027-0.043,0.043-0.092,0.037-0.145l-1.574-22.402
	C51.855,57.109,51.758,57.02,51.639,57.02z M50.002,43.926c9.506,0,17.215-7.709,17.215-17.217S59.508,9.492,50.002,9.492
	c-9.51,0-17.217,7.709-17.217,17.217S40.492,43.926,50.002,43.926z M79.346,67.141V85.01h-0.121l-1.15,0.584
	c-0.582,0.293-9.973,4.914-26.172,4.914c-8.295,0-18.373-1.211-29.971-4.834l-1.232-0.385l-0.045-0.279V67.141
	c0-12.154,9.889-22.043,22.041-22.043h14.607C69.459,45.098,79.346,54.986,79.346,67.141z M77,67.141
	c0-10.859-8.836-19.695-19.697-19.695H42.695c-10.859,0-19.693,8.836-19.693,19.695v15.521l-0.008,0.549
	c33.254,10.385,53.762,0.184,53.969,0.078L77,82.662V67.141z"/>
</svg>
