<?xml version="1.0" encoding="utf-8"?>
<!-- Generator: Adobe Illustrator 16.0.0, SVG Export Plug-In . SVG Version: 6.00 Build 0)  -->
<!DOCTYPE svg PUBLIC "-//W3C//DTD SVG 1.1//EN" "http://www.w3.org/Graphics/SVG/1.1/DTD/svg11.dtd">
<svg version="1.1" id="Layer_1" xmlns="http://www.w3.org/2000/svg" xmlns:xlink="http://www.w3.org/1999/xlink" x="0px" y="0px"
	 width="126px" height="126px" viewBox="0 0 126 126" enable-background="new 0 0 126 126" xml:space="preserve">
<g>
	<polygon points="4.559,101.235 58.678,101.235 34.605,125.308 89.673,125.308 65.6,101.235 119.72,101.235 119.72,94.313 
		4.559,94.313 	"/>
	<path d="M5.938,84.865l1.224-0.562c0.598,0.74,1.293,1.376,2.059,1.9l-0.467,1.265c-0.142,0.381-0.125,0.795,0.044,1.166
		c0.171,0.369,0.476,0.651,0.856,0.793l1.603,0.59c0.38,0.142,0.793,0.124,1.165-0.044c0.368-0.171,0.65-0.476,0.791-0.858
		l0.469-1.266c0.921,0.101,1.861,0.068,2.798-0.105l0.563,1.224c0.353,0.762,1.261,1.098,2.022,0.745L20.613,89
		c0.767-0.353,1.1-1.258,0.748-2.022l-0.563-1.223c0.738-0.599,1.376-1.292,1.899-2.059l1.266,0.468
		c0.384,0.143,0.796,0.125,1.167-0.045c0.368-0.171,0.649-0.476,0.791-0.856l0.591-1.601c0.291-0.789-0.113-1.667-0.901-1.958
		l-1.267-0.467c0.1-0.924,0.068-1.864-0.106-2.8l1.225-0.563c0.763-0.352,1.097-1.26,0.745-2.024l-0.713-1.549
		c-0.354-0.763-1.261-1.099-2.022-0.747l-1.223,0.564c-0.599-0.741-1.293-1.377-2.059-1.9l0.468-1.266
		c0.288-0.789-0.114-1.667-0.902-1.958l-1.602-0.591c-0.764-0.281-1.676,0.139-1.957,0.902l-0.467,1.264
		c-0.923-0.098-1.863-0.066-2.799,0.107l-0.564-1.223c-0.351-0.763-1.258-1.098-2.021-0.747l-1.55,0.713
		c-0.763,0.353-1.097,1.261-0.748,2.022l0.565,1.225c-0.739,0.598-1.378,1.291-1.901,2.058L5.449,72.26
		c-0.764-0.284-1.677,0.137-1.959,0.9L2.9,74.762c-0.142,0.383-0.126,0.795,0.044,1.165c0.172,0.369,0.476,0.651,0.857,0.791
		l1.265,0.469c-0.1,0.922-0.066,1.864,0.105,2.799l-1.223,0.563c-0.763,0.352-1.097,1.257-0.746,2.021l0.715,1.551
		C4.27,84.883,5.175,85.219,5.938,84.865z M12.183,72.737c0.8-0.368,1.646-0.554,2.519-0.554c2.347,0,4.498,1.375,5.48,3.505
		c1.388,3.02,0.064,6.606-2.955,7.997c-0.798,0.367-1.646,0.553-2.519,0.553c-2.345,0-4.495-1.377-5.477-3.505
		C7.842,77.714,9.167,74.127,12.183,72.737z"/>
	<path d="M38.501,67.455c-0.35-0.763-1.259-1.098-2.022-0.747l-1.549,0.713c-0.763,0.353-1.097,1.261-0.748,2.022l0.565,1.225
		c-0.739,0.598-1.378,1.291-1.901,2.058l-1.263-0.466c-0.765-0.284-1.678,0.137-1.959,0.9l-0.591,1.602
		c-0.142,0.383-0.126,0.795,0.045,1.165c0.172,0.369,0.475,0.651,0.855,0.791l1.267,0.469c-0.102,0.922-0.067,1.864,0.105,2.799
		l-1.223,0.563c-0.764,0.352-1.097,1.257-0.747,2.021l0.715,1.551c0.353,0.763,1.258,1.099,2.021,0.745l1.223-0.562
		c0.599,0.74,1.293,1.376,2.059,1.9l-0.468,1.265c-0.142,0.381-0.124,0.795,0.046,1.166c0.169,0.369,0.474,0.651,0.856,0.793
		l1.602,0.59c0.381,0.142,0.794,0.124,1.165-0.044c0.369-0.171,0.651-0.476,0.791-0.858l0.469-1.266
		c0.92,0.101,1.863,0.068,2.799-0.105l0.562,1.224c0.354,0.762,1.26,1.098,2.023,0.745L46.746,89c0.767-0.353,1.1-1.258,0.748-2.022
		l-0.564-1.223c0.74-0.599,1.379-1.292,1.901-2.059l1.266,0.468c0.384,0.143,0.796,0.125,1.167-0.045
		c0.369-0.171,0.649-0.476,0.791-0.856l0.59-1.601c0.292-0.789-0.111-1.667-0.9-1.958l-1.266-0.467c0.1-0.924,0.067-1.864-0.107-2.8
		l1.225-0.563c0.763-0.352,1.097-1.26,0.745-2.024l-0.713-1.549c-0.353-0.763-1.261-1.099-2.022-0.747l-1.225,0.564
		c-0.597-0.741-1.291-1.377-2.056-1.9l0.467-1.266c0.289-0.789-0.114-1.667-0.902-1.958l-1.601-0.591
		c-0.764-0.281-1.676,0.139-1.958,0.902l-0.467,1.264c-0.923-0.098-1.863-0.066-2.799,0.107L38.501,67.455z M40.836,72.184
		c2.346,0,4.496,1.375,5.479,3.505c1.389,3.02,0.064,6.606-2.953,7.997c-0.8,0.367-1.647,0.553-2.521,0.553
		c-2.346,0-4.496-1.377-5.477-3.505c-1.39-3.02-0.065-6.606,2.952-7.996C39.115,72.369,39.962,72.184,40.836,72.184z"/>
	<path d="M17.635,52.886l1.266,0.469c-0.1,0.922-0.066,1.864,0.105,2.8l-1.221,0.563c-0.766,0.352-1.098,1.258-0.748,2.021
		l0.715,1.551c0.352,0.763,1.257,1.099,2.021,0.745l1.222-0.562c0.599,0.74,1.294,1.377,2.06,1.9l-0.468,1.265
		c-0.142,0.382-0.124,0.794,0.046,1.166c0.169,0.368,0.474,0.65,0.855,0.792l1.603,0.591c0.38,0.141,0.793,0.124,1.165-0.045
		c0.368-0.17,0.65-0.475,0.791-0.857l0.469-1.265c0.921,0.099,1.862,0.066,2.799-0.106l0.562,1.224
		c0.353,0.761,1.261,1.098,2.022,0.744l1.55-0.712c0.766-0.353,1.099-1.258,0.746-2.022l-0.563-1.223
		c0.74-0.599,1.378-1.293,1.9-2.059l1.266,0.468c0.384,0.143,0.796,0.124,1.167-0.046c0.368-0.17,0.648-0.475,0.79-0.855
		l0.591-1.602c0.292-0.787-0.111-1.666-0.901-1.958l-1.265-0.466c0.099-0.925,0.067-1.864-0.107-2.801l1.225-0.562
		c0.763-0.353,1.097-1.261,0.745-2.024l-0.713-1.549c-0.353-0.763-1.26-1.099-2.023-0.747l-1.223,0.563
		c-0.598-0.74-1.292-1.377-2.058-1.9l0.468-1.265c0.288-0.789-0.114-1.667-0.902-1.958l-1.602-0.592
		c-0.764-0.28-1.675,0.139-1.958,0.903l-0.466,1.263c-0.923-0.097-1.862-0.065-2.799,0.108l-0.563-1.223
		c-0.352-0.764-1.26-1.099-2.023-0.747l-1.549,0.713c-0.763,0.353-1.097,1.261-0.747,2.023l0.564,1.223
		c-0.739,0.599-1.378,1.293-1.902,2.059l-1.263-0.467c-0.764-0.284-1.677,0.137-1.959,0.901l-0.59,1.602
		c-0.142,0.382-0.125,0.794,0.044,1.165C16.95,52.465,17.254,52.747,17.635,52.886z M26.018,48.905
		c0.798-0.368,1.645-0.553,2.519-0.553c2.346,0,4.497,1.375,5.479,3.505c1.389,3.02,0.065,6.606-2.952,7.997
		c-0.8,0.367-1.647,0.553-2.521,0.553c-2.345,0-4.495-1.376-5.477-3.505C21.676,53.883,23.001,50.295,26.018,48.905z"/>
	<circle cx="104.75" cy="10.003" r="9.311"/>
	<path d="M95.085,51.576c0.211,0,0.419-0.025,0.627-0.063c-0.006,0.09-0.014,0.18-0.014,0.271l0.003,34.613
		c0,2.358,1.911,4.271,4.272,4.271c2.358,0,4.271-1.912,4.271-4.271l-0.002-29.705c0.17,0.008,0.338,0.021,0.51,0.021
		c0.033,0,0.064-0.004,0.099-0.005v29.688c0,2.359,1.911,4.271,4.271,4.271s4.272-1.912,4.272-4.271V51.863
		c0.067-0.128,0.129-0.26,0.188-0.393c0.273,0.064,0.549,0.105,0.823,0.105c1.189,0,2.354-0.586,3.045-1.659
		c2.031-3.161,5.482-8.922,5.731-11.991c0.421-5.153-8.4-13.993-12.237-16.345c-0.138-0.087-0.285-0.144-0.431-0.208
		c-1.049-0.7-2.234-1.223-3.443-1.52l-2.317,2.335l-2.251-2.36c-0.008,0.002-0.014,0.002-0.021,0.004
		c-1.212,0.29-2.402,0.81-3.457,1.519c-0.16,0.068-0.321,0.135-0.475,0.23c-3.836,2.352-12.657,11.191-12.236,16.343
		c0.249,3.071,3.698,8.832,5.731,11.993C92.734,50.991,93.898,51.576,95.085,51.576z M114.281,34.8
		c0.823,1.114,1.424,2.095,1.645,2.724c-0.2,0.691-0.813,1.997-1.645,3.545V34.8z M104.73,22.535h0.043l2.244,15.008l-2.244,3.072
		h-0.043l-2.246-3.072L104.73,22.535z M95.221,34.785v6.31c-0.85-1.575-1.473-2.896-1.658-3.56
		C93.778,36.904,94.386,35.913,95.221,34.785z"/>
</g>
</svg>
