<?xml version="1.0" encoding="utf-8"?>
<!-- Generator: Adobe Illustrator 16.0.0, SVG Export Plug-In . SVG Version: 6.00 Build 0)  -->
<!DOCTYPE svg PUBLIC "-//W3C//DTD SVG 1.1//EN" "http://www.w3.org/Graphics/SVG/1.1/DTD/svg11.dtd">
<svg version="1.1" id="Layer_1" xmlns="http://www.w3.org/2000/svg" xmlns:xlink="http://www.w3.org/1999/xlink" x="0px" y="0px"
	 width="50px" height="50px" viewBox="0 0 50 50" enable-background="new 0 0 50 50" xml:space="preserve">
<g>
	<path d="M24.564,15.531c1.744,0,3.16-2.024,3.16-3.769c0-1.746-1.416-3.161-3.16-3.161c-1.746,0-3.162,1.416-3.162,3.161
		C21.402,13.507,22.818,15.531,24.564,15.531z"/>
	<path d="M32.186,28.875H31.29V28.03c0.349-0.256,0.568-0.671,0.517-1.131l-1-9c-0.007-0.061-0.039-0.109-0.054-0.167
		c-0.023-0.092-0.043-0.182-0.086-0.266c-0.033-0.063-0.08-0.112-0.122-0.167c-0.056-0.074-0.107-0.147-0.179-0.208
		c-0.057-0.047-0.123-0.076-0.187-0.113c-0.064-0.038-0.117-0.089-0.189-0.115c-0.113-0.041-2.629-0.943-4.941-1.062l-0.318,0.636
		h-0.008l0.842,6.556l-1,1.747l-1-1.747l0.842-6.556h-0.01L24.079,15.8c-2.312,0.119-4.827,1.021-4.94,1.062
		c-0.073,0.026-0.127,0.079-0.191,0.117c-0.062,0.037-0.128,0.064-0.183,0.111c-0.074,0.062-0.127,0.138-0.185,0.214
		c-0.04,0.054-0.085,0.101-0.117,0.161c-0.044,0.085-0.063,0.177-0.088,0.271c-0.015,0.056-0.046,0.104-0.053,0.163l-1,9
		c-0.076,0.686,0.418,1.304,1.104,1.38c0.047,0.005,0.093,0.008,0.14,0.008c0.628,0,1.169-0.473,1.24-1.112l0.911-8.198
		c0.106-0.032,0.223-0.066,0.347-0.101v8.532l-0.995,12.371c-0.066,0.826,0.549,1.549,1.375,1.615
		c0.041,0.003,0.081,0.005,0.122,0.005c0.773,0,1.43-0.595,1.493-1.38l0.899-11.181c0.186,0.082,0.39,0.129,0.605,0.129
		s0.42-0.047,0.605-0.129l0.899,11.181c0.063,0.785,0.72,1.38,1.493,1.38c0.041,0,0.081-0.001,0.122-0.005
		c0.826-0.066,1.441-0.79,1.375-1.615l-0.995-12.371v-8.532c0.124,0.035,0.24,0.069,0.347,0.101l0.911,8.198
		c0.067,0.602,0.554,1.041,1.134,1.092v0.607h-0.896c-0.275,0-0.5,0.225-0.5,0.5v7.583c0,0.275,0.225,0.5,0.5,0.5h2.625
		c0.275,0,0.5-0.225,0.5-0.5v-7.583C32.686,29.1,32.46,28.875,32.186,28.875z"/>
</g>
</svg>
