<?xml version="1.0" encoding="utf-8"?>
<!-- Generator: Adobe Illustrator 16.0.0, SVG Export Plug-In . SVG Version: 6.00 Build 0)  -->
<!DOCTYPE svg PUBLIC "-//W3C//DTD SVG 1.1//EN" "http://www.w3.org/Graphics/SVG/1.1/DTD/svg11.dtd">
<svg version="1.1" id="Layer_1" xmlns="http://www.w3.org/2000/svg" xmlns:xlink="http://www.w3.org/1999/xlink" x="0px" y="0px"
	 width="50px" height="50px" viewBox="0 0 50 50" enable-background="new 0 0 50 50" xml:space="preserve">
<g>
	<polygon points="23.023,37.826 23.027,37.822 23.019,37.822 	"/>
	<path d="M25.979,25.718c2.168-1.459,3.662-4.335,3.662-6.925c0-3.655-2.964-6.619-6.618-6.619c-3.655,0-6.619,2.963-6.619,6.619
		c0,2.59,1.493,5.466,3.662,6.925c-5.185,1.315-9.027,5.816-9.027,9.151c0,1.971,5.989,2.953,11.979,2.953l-3.354-3.353l2.826-6.832
		h-0.029l-1.098-1.259c0.532,0.191,1.085,0.305,1.659,0.305c0.573,0,1.125-0.114,1.655-0.304l-1.097,1.257h-0.028l2.826,6.832
		l-3.354,3.353c1.134,0,2.268-0.031,3.361-0.102v-7.648h3.175v-1.961h1.284C29.462,27.046,27.808,26.182,25.979,25.718z"/>
	<rect x="27.388" y="31.072" width="2.047" height="5.754"/>
	<rect x="30.563" y="29.111" width="2.046" height="7.715"/>
	<rect x="33.739" y="27.151" width="2.046" height="9.675"/>
	<rect x="36.914" y="25.19" width="2.047" height="11.636"/>
</g>
</svg>
