<?xml version="1.0" encoding="utf-8"?>
<!-- Generator: Adobe Illustrator 16.0.0, SVG Export Plug-In . SVG Version: 6.00 Build 0)  -->
<!DOCTYPE svg PUBLIC "-//W3C//DTD SVG 1.1//EN" "http://www.w3.org/Graphics/SVG/1.1/DTD/svg11.dtd">
<svg version="1.1" id="Layer_1" xmlns="http://www.w3.org/2000/svg" xmlns:xlink="http://www.w3.org/1999/xlink" x="0px" y="0px"
	 width="50px" height="50px" viewBox="0 0 50 50" enable-background="new 0 0 50 50" xml:space="preserve">
<g>
	<path d="M32.179,18.672c1.449,0,2.624-1.679,2.624-3.127c0-1.449-1.175-2.622-2.624-2.622c-1.446,0-2.621,1.173-2.621,2.622
		C29.558,16.993,30.732,18.672,32.179,18.672z"/>
	<path d="M39.006,29.577h-0.582v-0.44c0.425-0.204,0.68-0.663,0.575-1.143l-1.66-7.468c-0.01-0.037-0.033-0.064-0.045-0.101
		c-0.022-0.067-0.049-0.129-0.084-0.19c-0.035-0.058-0.073-0.111-0.118-0.161c-0.04-0.047-0.084-0.09-0.135-0.129
		c-0.061-0.047-0.122-0.082-0.188-0.115c-0.031-0.015-0.054-0.041-0.088-0.054c-0.095-0.034-2.195-0.787-4.118-0.881l-0.246,0.493
		H32.31l0.698,5.439l-0.829,1.449l-0.83-1.449l0.699-5.439h-0.007l-0.247-0.493c-1.925,0.094-4.022,0.847-4.116,0.881
		c-0.007,0.004-0.011,0.007-0.017,0.01c-0.062,0.023-0.115,0.07-0.174,0.104c-0.061,0.038-0.124,0.069-0.173,0.116
		c-0.006,0.005-0.012,0.007-0.018,0.012l-1.146,1.146V10.867c0-0.55-0.45-1-1-1H11.669c-0.55,0-1,0.45-1,1v28.267c0,0.55,0.45,1,1,1
		H25.15c0.55,0,1-0.45,1-1V24.098l2.442-2.441c0.157-0.053,0.394-0.127,0.682-0.208v7.078l-0.825,10.262
		c-0.056,0.688,0.455,1.287,1.14,1.341c0.036,0.004,0.068,0.005,0.102,0.005c0.644,0,1.188-0.493,1.238-1.146l0.748-9.274
		c0.153,0.067,0.322,0.108,0.502,0.108c0.179,0,0.35-0.041,0.503-0.108l0.745,9.274c0.053,0.653,0.599,1.146,1.239,1.146
		c0.033,0,0.068-0.001,0.101-0.005c0.687-0.054,1.195-0.653,1.141-1.341l-0.824-10.262v-7.078c0.131,0.037,0.253,0.072,0.358,0.104
		l1.534,6.891c0.097,0.447,0.475,0.75,0.907,0.795v0.339h-0.582c-0.179,0-0.324,0.146-0.324,0.325v5.924
		c0,0.179,0.146,0.325,0.324,0.325h1.705c0.179,0,0.324-0.146,0.324-0.325v-5.924C39.33,29.724,39.185,29.577,39.006,29.577z
		 M22.596,26.988c-0.882,0-1.597-0.715-1.597-1.597c0-0.881,0.715-1.597,1.597-1.597c0.267,0,0.515,0.072,0.736,0.188l-0.184,0.184
		c-0.405,0.404-0.405,1.061,0,1.466c0.203,0.203,0.468,0.305,0.733,0.305c0.075,0,0.147-0.027,0.222-0.043
		C23.892,26.528,23.3,26.988,22.596,26.988z"/>
</g>
</svg>
