<?xml version="1.0" encoding="utf-8"?>
<!-- Generator: Adobe Illustrator 16.0.0, SVG Export Plug-In . SVG Version: 6.00 Build 0)  -->
<!DOCTYPE svg PUBLIC "-//W3C//DTD SVG 1.1//EN" "http://www.w3.org/Graphics/SVG/1.1/DTD/svg11.dtd">
<svg version="1.1" id="Layer_1" xmlns="http://www.w3.org/2000/svg" xmlns:xlink="http://www.w3.org/1999/xlink" x="0px" y="0px"
	 width="50px" height="50px" viewBox="0 0 50 50" enable-background="new 0 0 50 50" xml:space="preserve">
<g>
	<path d="M39.022,29.869c-0.773-0.447-1.719-0.309-2.343,0.266l-4.755-2.745c-0.496,0.159-1.059,0.292-1.682,0.403l5.842,3.373
		c-0.185,0.829,0.168,1.715,0.941,2.162c0.954,0.551,2.176,0.224,2.727-0.731C40.304,31.641,39.976,30.42,39.022,29.869z"/>
	<path d="M25.595,37.221v-9.043h-1.189v9.043c-0.81,0.255-1.402,1.002-1.402,1.896c0,1.103,0.895,1.997,1.997,1.997
		s1.997-0.894,1.997-1.997C26.997,38.223,26.405,37.476,25.595,37.221z"/>
	<path d="M18.013,27.426l-4.692,2.709c-0.626-0.574-1.569-0.712-2.343-0.266c-0.954,0.551-1.282,1.771-0.73,2.727
		c0.552,0.955,1.773,1.282,2.727,0.731c0.773-0.446,1.126-1.334,0.941-2.162l5.801-3.349C19.087,27.71,18.516,27.58,18.013,27.426z"
		/>
	<path d="M33.134,24.467c0-2.29-2.637-5.38-6.197-6.282c1.489-1.002,2.514-2.976,2.514-4.754c0-2.51-2.035-4.544-4.543-4.544
		c-2.508,0-4.543,2.034-4.543,4.544c0,1.778,1.025,3.752,2.514,4.754c-3.56,0.902-6.197,3.993-6.197,6.282
		C16.681,27.173,33.134,27.173,33.134,24.467z M24.543,19.502h-0.021l-0.753-0.864c0.364,0.131,0.744,0.209,1.138,0.209
		c0.394,0,0.773-0.078,1.137-0.208l-0.753,0.864h-0.019l1.94,4.69l-2.305,2.304l-2.305-2.304L24.543,19.502z"/>
</g>
</svg>
