<?xml version="1.0" encoding="utf-8"?>
<!-- Generator: Adobe Illustrator 16.0.0, SVG Export Plug-In . SVG Version: 6.00 Build 0)  -->
<!DOCTYPE svg PUBLIC "-//W3C//DTD SVG 1.1//EN" "http://www.w3.org/Graphics/SVG/1.1/DTD/svg11.dtd">
<svg version="1.1" id="Layer_1" xmlns="http://www.w3.org/2000/svg" xmlns:xlink="http://www.w3.org/1999/xlink" x="0px" y="0px"
	 width="126px" height="126px" viewBox="0 0 126 126" enable-background="new 0 0 126 126" xml:space="preserve">
<g>
	<polygon points="64.003,64.539 53.3,64.539 53.3,67.85 64.003,67.85 64.003,119.101 84.134,119.101 84.134,115.79 67.313,115.79 
		67.313,67.85 81.164,67.85 81.164,64.539 67.313,64.539 67.313,18.803 84.134,18.803 84.134,15.492 64.003,15.492 	"/>
	<path d="M31.915,35.961c4.82,0,8.729-3.907,8.729-8.73c0-4.824-3.909-8.731-8.729-8.731c-4.824,0-8.733,3.907-8.733,8.731
		C23.182,32.054,27.091,35.961,31.915,35.961z"/>
	<path d="M37.721,38.087c-0.146-0.091-0.299-0.153-0.451-0.218c-0.975-0.649-2.066-1.128-3.182-1.401l-2.173,2.19l-2.109-2.214
		c-0.009,0-0.014,0.002-0.022,0.004c-1.117,0.268-2.216,0.741-3.193,1.389c-0.174,0.071-0.347,0.148-0.515,0.25
		c-6.778,4.157-10.673,7.446-11.874,26.687c-0.117,1.869,1.305,3.479,3.172,3.596c0.075,0.004,0.146,0.006,0.215,0.006
		c1.776,0,3.269-1.381,3.381-3.179c0.406-6.496,1.063-10.705,2.008-13.608v11.746c0,0.912,0.177,1.761,0.487,2.543
		c-0.024,0.177-0.041,0.356-0.041,0.537l0.005,32.464c0,2.213,1.793,4.004,4.005,4.004c2.214,0,4.006-1.793,4.006-4.007
		l-0.003-27.857c0.16,0.007,0.319,0.02,0.479,0.02c0.03,0,0.062-0.004,0.093-0.004v27.842c0,2.214,1.792,4.007,4.004,4.007
		c2.214,0,4.006-1.793,4.006-4.007l0.003-32.261c0.524-0.974,0.831-2.073,0.831-3.28V51.687c0.928,2.899,1.574,7.087,1.976,13.51
		c0.112,1.798,1.604,3.179,3.381,3.179c0.069,0,0.142-0.002,0.212-0.006c1.869-0.116,3.289-1.727,3.174-3.596
		C48.393,45.533,44.499,42.244,37.721,38.087z M31.935,55.939h-0.042l-2.104-2.88l2.104-14.076h0.042L34.04,53.06L31.935,55.939z"/>
	<circle cx="99.1" cy="8.428" r="6.719"/>
	<path d="M97.464,28.304l1.618-10.831h0.032l1.621,10.831l0.194,0.972h10.877c-1.435-7.893-4.157-9.987-8.239-12.492
		c-0.112-0.068-0.23-0.118-0.347-0.168c-0.75-0.5-1.591-0.866-2.448-1.078L99.1,17.223l-1.623-1.702c-0.007,0-0.011,0-0.018,0.002
		c-0.859,0.205-1.705,0.571-2.457,1.069c-0.133,0.054-0.267,0.114-0.396,0.191c-4.082,2.505-6.805,4.6-8.238,12.492h10.922
		L97.464,28.304z"/>
	<circle cx="99.098" cy="53.306" r="6.719"/>
	<path d="M103.567,61.659c-0.112-0.068-0.23-0.116-0.347-0.168c-0.75-0.498-1.591-0.866-2.448-1.077L99.1,62.099l-1.623-1.702
		c-0.007,0-0.011,0.002-0.018,0.002c-0.859,0.207-1.705,0.571-2.457,1.069c-0.133,0.054-0.267,0.114-0.396,0.191
		c-4.082,2.505-6.805,4.602-8.238,12.492h10.922l0.175-0.97l1.618-10.832h0.032l1.621,10.832l0.194,0.97h10.877
		C110.372,66.261,107.649,64.164,103.567,61.659z"/>
	<circle cx="99.098" cy="103.444" r="6.719"/>
	<path d="M103.567,111.799c-0.112-0.069-0.23-0.119-0.347-0.168c-0.75-0.5-1.591-0.867-2.448-1.078l-1.673,1.686l-1.623-1.702
		c-0.007,0-0.011,0-0.018,0.002c-0.859,0.204-1.705,0.571-2.457,1.069c-0.133,0.054-0.267,0.113-0.396,0.191
		c-4.082,2.504-6.805,4.6-8.238,12.492h10.922l0.175-0.972l1.618-10.831h0.032l1.621,10.831l0.194,0.972h10.877
		C110.372,116.398,107.649,114.303,103.567,111.799z"/>
</g>
</svg>
