<?xml version="1.0" encoding="utf-8"?>
<!-- Generator: Adobe Illustrator 16.0.0, SVG Export Plug-In . SVG Version: 6.00 Build 0)  -->
<!DOCTYPE svg PUBLIC "-//W3C//DTD SVG 1.1//EN" "http://www.w3.org/Graphics/SVG/1.1/DTD/svg11.dtd">
<svg version="1.1" id="Layer_1" xmlns="http://www.w3.org/2000/svg" xmlns:xlink="http://www.w3.org/1999/xlink" x="0px" y="0px"
	 width="50px" height="50px" viewBox="0 0 50 50" enable-background="new 0 0 50 50" xml:space="preserve">
<g>
	<path d="M30.979,32.415H19.021c-0.288,0-0.52,0.232-0.52,0.521c0,0.289,0.231,0.521,0.52,0.521h11.957
		c0.288,0,0.52-0.232,0.52-0.521C31.498,32.647,31.267,32.415,30.979,32.415z"/>
	<path d="M30.979,34.789H25c-0.288,0-0.521,0.233-0.521,0.521s0.232,0.521,0.521,0.521h5.979c0.288,0,0.52-0.232,0.52-0.521
		S31.267,34.789,30.979,34.789z"/>
	<path d="M20.029,27.873c0,1.636,9.94,1.636,9.94,0c0-1.383-1.593-3.251-3.744-3.797c0.899-0.604,1.519-1.798,1.519-2.872
		c0-1.516-1.228-2.746-2.745-2.746c-1.517,0-2.744,1.23-2.744,2.746c0,1.074,0.619,2.269,1.517,2.872
		C21.624,24.622,20.029,26.49,20.029,27.873z M24.777,24.873h-0.012l-0.454-0.523c0.221,0.08,0.448,0.128,0.688,0.128
		c0.24,0,0.467-0.047,0.688-0.125l-0.456,0.521H25.22l1.174,2.834l-1.395,1.392l-1.394-1.392L24.777,24.873z"/>
	<path d="M32.542,12.318c0.163,0.396,0.273,0.811,0.272,1.236v1.101c0.035,0.146,0.059,0.296,0.059,0.452v20.691
		c0,1.07-0.87,1.94-1.939,1.94H19.066c-1.069,0-1.939-0.87-1.939-1.94V15.107c0-1.07,0.87-1.94,1.939-1.94h8.108
		c0.055-0.468,0.191-0.908,0.424-1.294h-8.532c-1.783,0-3.232,1.45-3.232,3.234v20.691c0,1.784,1.449,3.234,3.232,3.234h11.867
		c1.783,0,3.232-1.45,3.232-3.234V15.107C34.166,13.912,33.508,12.878,32.542,12.318z"/>
	<path d="M29.97,18.356c1.293,0,2.345-1.16,2.345-2.585v-2.218c0.001-0.503-0.136-0.969-0.361-1.366l-0.55,0.55
		c0.107,0.247,0.173,0.521,0.173,0.816v2.217c0,1.02-0.721,1.847-1.606,1.848c-0.886-0.001-1.605-0.828-1.605-1.848v-2.217
		c0-1.019,0.721-1.847,1.606-1.848c0.27,0.001,0.521,0.086,0.745,0.221l0.533-0.535c-0.368-0.265-0.807-0.423-1.278-0.424
		c-1.294,0-2.345,1.16-2.345,2.586l-0.001,2.218C27.626,17.196,28.678,18.355,29.97,18.356z"/>
</g>
</svg>
