<?xml version="1.0" encoding="utf-8"?>
<!-- Generator: Adobe Illustrator 16.0.0, SVG Export Plug-In . SVG Version: 6.00 Build 0)  -->
<!DOCTYPE svg PUBLIC "-//W3C//DTD SVG 1.1//EN" "http://www.w3.org/Graphics/SVG/1.1/DTD/svg11.dtd">
<svg version="1.1" id="Layer_2" xmlns="http://www.w3.org/2000/svg" xmlns:xlink="http://www.w3.org/1999/xlink" x="0px" y="0px"
	 width="126px" height="126px" viewBox="0 0 126 126" enable-background="new 0 0 126 126" xml:space="preserve">
<g>
	<path d="M62.387,43.311l-4.625-3.246v12.157c0,0.989-0.805,1.796-1.795,1.796H8.374c-0.989,0-1.795-0.807-1.795-1.796V9.567
		c0-0.989,0.806-1.796,1.795-1.796h47.593c0.99,0,1.795,0.807,1.795,1.796V34.58l5.388,3.78V9.567c0-3.962-3.223-7.185-7.183-7.185
		H8.374c-3.96,0-7.183,3.223-7.183,7.185v42.654c0,3.96,3.223,7.182,7.183,7.182h19.098L11.56,97.008
		c-0.66,1.562,0.069,3.361,1.63,4.021c0.39,0.164,0.795,0.243,1.195,0.243c1.196,0,2.331-0.702,2.827-1.872l13.796-32.604
		L44.804,99.4c0.661,1.561,2.459,2.293,4.022,1.629c1.56-0.66,2.289-2.46,1.629-4.021L34.544,59.403h21.422
		c3.96,0,7.183-3.222,7.183-7.182v-4.681C62.421,46.285,62.122,44.799,62.387,43.311z"/>
	<circle cx="100.638" cy="14.252" r="12.721"/>
	<path d="M109.1,30.07c-0.215-0.133-0.44-0.227-0.666-0.322c-1.416-0.944-3.005-1.639-4.627-2.037l-3.169,3.19l-3.073-3.225
		c-0.011,0.002-0.021,0.004-0.032,0.004c-1.659,0.399-3.285,1.11-4.73,2.082c-0.469,0.201-0.921,0.455-1.324,0.812
		c-1.374,1.211-2.626,2.373-3.836,3.498c-7.484,6.947-10.181,8.99-17.059,5.774c-2.057-0.963-4.435-0.378-5.841,1.269L43.535,26.237
		l-1.03,1.469l21.333,14.968c-0.842,2.368,0.237,5.036,2.563,6.123c3.621,1.691,6.81,2.4,9.683,2.4
		c4.473,0,8.174-1.726,11.534-4.135v19.788c0,1.328,0.257,2.566,0.709,3.707c-0.034,0.256-0.058,0.517-0.058,0.781l0.003,47.296
		c0.001,3.223,2.614,5.834,5.838,5.834c3.223,0,5.837-2.611,5.836-5.836l-0.003-40.588c0.231,0.011,0.462,0.029,0.695,0.029
		c0.044,0,0.09-0.006,0.136-0.006l-0.002,40.564c0,3.225,2.613,5.836,5.836,5.836c0.001,0,0.001,0,0.001,0
		c3.223,0,5.836-2.611,5.836-5.836l0.002-47.006c0.765-1.415,1.21-3.02,1.21-4.776V50.979c1.15,4.179,1.617,9.759,1.016,17.444
		c-0.213,2.719,1.819,5.096,4.539,5.31c0.131,0.011,0.26,0.015,0.39,0.015c2.553,0,4.716-1.967,4.919-4.555
		C126.466,44.316,118.259,35.688,109.1,30.07z M100.667,56.079h-0.06l-3.066-4.199l3.066-20.507h0.06l3.067,20.507L100.667,56.079z"
		/>
	<rect x="40.176" y="12.294" width="15.854" height="1.641"/>
	<rect x="45.027" y="15.027" width="11.002" height="1.641"/>
	<rect x="41.474" y="17.692" width="14.556" height="1.641"/>
	<path d="M25.807,37.943l2.313-2.004h5.413V21.634H23.41v-1.913h2.893c1.899,0,3.44-1.54,3.44-3.439c0-1.9-1.541-3.44-3.44-3.44
		h-6.879c-1.899,0-3.44,1.54-3.44,3.44c0,1.899,1.541,3.439,3.44,3.439h2.893v4.922h-6.97v4.283h6.97v3.918h-2.397l-2.944,2.549
		l2.944,2.551h2.397v5.559h-2.369c-1.535,0-2.779,1.243-2.779,2.779c0,1.534,1.244,2.778,2.779,2.778h5.833
		c1.535,0,2.779-1.244,2.779-2.778c0-1.536-1.244-2.779-2.779-2.779h-2.37v-5.559H25.807z M23.465,28.926h8.01v-4.283h-8.01v-1.915
		h8.975v12.119h-4.319l-2.313-2.003h-2.342V28.926z"/>
</g>
</svg>
