<?xml version="1.0" encoding="utf-8"?>
<!-- Generator: Adobe Illustrator 16.0.0, SVG Export Plug-In . SVG Version: 6.00 Build 0)  -->
<!DOCTYPE svg PUBLIC "-//W3C//DTD SVG 1.1//EN" "http://www.w3.org/Graphics/SVG/1.1/DTD/svg11.dtd">
<svg version="1.1" id="Layer_2" xmlns="http://www.w3.org/2000/svg" xmlns:xlink="http://www.w3.org/1999/xlink" x="0px" y="0px"
	 width="126px" height="126px" viewBox="0 0 126 126" enable-background="new 0 0 126 126" xml:space="preserve">
<g>
	<path d="M91.297,58.128v8.78h20.109v-8.837c1.143,2.853,2.06,5.963,2.723,8.837h7.798c-1.46-7.102-5.473-21.526-14.501-25.491
		c-0.019-0.009-0.038-0.014-0.057-0.023c-1.093-0.717-2.319-1.252-3.57-1.559l-2.448,2.464l-2.372-2.491
		c-0.009,0.002-0.018,0.002-0.025,0.005c-1.283,0.306-2.54,0.857-3.657,1.609c-4.57,2.013-7.852,6.708-10.17,11.773
		c2.168,3.608,3.653,8.021,3.568,13.334C89.346,63.781,90.215,60.842,91.297,58.128z M101.331,42.663h0.045l2.369,15.837
		l-2.369,3.241h-0.045l-2.37-3.241L101.331,42.663z"/>
	<circle cx="101.353" cy="29.441" r="9.824"/>
	<path d="M13.411,58.128v8.78h15.432c0.399-4.853,1.719-12.078,5.865-17.169V49.34c-3.152-2.921-5.717-6.27-7.624-9.141
		c-0.386-0.141-0.775-0.267-1.17-0.365l-2.447,2.464l-2.373-2.491c-0.008,0.002-0.017,0.002-0.025,0.005
		c-1.283,0.306-2.541,0.857-3.656,1.609c-9.02,3.974-13.03,18.388-14.49,25.486h7.793C11.374,64.053,12.28,60.965,13.411,58.128z
		 M23.445,42.663h0.045L25.86,58.5l-2.37,3.241h-0.045l-2.37-3.241L23.445,42.663z"/>
	<path d="M23.467,39.266c0.957,0,1.879-0.143,2.753-0.398c-1.555-2.475-2.538-4.421-2.88-5.125
		c-0.891-1.833-1.014-3.902-0.347-5.829c0.667-1.926,2.043-3.477,3.877-4.365c1.048-0.508,2.167-0.766,3.326-0.766
		c0.173,0,0.341,0.025,0.513,0.037c-1.797-1.962-4.372-3.203-7.242-3.203c-5.426,0-9.823,4.399-9.823,9.824
		S18.041,39.266,23.467,39.266z"/>
	<circle cx="62.414" cy="28.207" r="12.13"/>
	<rect x="6.942" y="76.229" width="110.045" height="33.693"/>
	<path d="M85.471,70.043c2.509-15.991-10.372-23.91-15.216-26.879c-0.157-0.095-0.324-0.161-0.486-0.235
		c-1.33-0.875-2.817-1.515-4.333-1.889l-3.02,3.045l-2.93-3.076c-0.011,0-0.02,0-0.032,0.004c-1.451,0.345-2.878,0.95-4.168,1.761
		c-0.32,0.096-0.639,0.223-0.945,0.396c-1.878,1.056-3.665,1.262-5.621,0.653c-2.525-0.787-4.983-2.779-7.149-5.125l-3.945-5.021
		c-1.46-2.151-2.58-4.14-3.188-5.387c-1.136-2.339-3.955-3.313-6.294-2.178c-2.339,1.134-3.316,3.955-2.18,6.293
		c0.61,1.256,4.885,9.73,11.662,15.569v0.003c0.337-0.444,0.767-0.818,1.282-1.062l3.39-1.593c0.468-0.216,0.967-0.329,1.481-0.329
		c1.352,0,2.591,0.787,3.163,2.01c0.394,0.84,0.437,1.788,0.119,2.666c-0.316,0.876-0.954,1.576-1.796,1.97l-1.102,0.518
		c0.568,0.243,1.144,0.466,1.735,0.651c1.363,0.426,2.733,0.666,4.101,0.735v16.499H33.975c0.082-3.704,0.8-13.521,6.015-18.286
		c0.392,0.108,0.822,0.087,1.221-0.099l3.392-1.594c0.887-0.413,1.27-1.473,0.853-2.362c-0.416-0.887-1.474-1.268-2.362-0.851
		l-3.393,1.593c-0.538,0.25-0.885,0.737-0.988,1.28c-6.264,5.363-7.044,16.265-7.112,20.318H0.953v3.65h124.095v-3.65H85.471z
		 M62.443,68.091h-0.056l-2.925-4.004l2.925-19.554h0.056l2.925,19.554L62.443,68.091z M75.861,70.043h-1.033V59.966
		C76.254,62.663,76.794,65.937,75.861,70.043z"/>
</g>
</svg>
