<?xml version="1.0" encoding="utf-8"?>
<!-- Generator: Adobe Illustrator 16.0.0, SVG Export Plug-In . SVG Version: 6.00 Build 0)  -->
<!DOCTYPE svg PUBLIC "-//W3C//DTD SVG 1.1//EN" "http://www.w3.org/Graphics/SVG/1.1/DTD/svg11.dtd">
<svg version="1.1" id="Layer_1" xmlns="http://www.w3.org/2000/svg" xmlns:xlink="http://www.w3.org/1999/xlink" x="0px" y="0px"
	 width="50px" height="50px" viewBox="0 0 50 50" enable-background="new 0 0 50 50" xml:space="preserve">
<g>
	<path d="M26.165,17.295c0.853-0.574,1.442-1.707,1.442-2.727c0-1.44-1.168-2.607-2.606-2.607c-1.44,0-2.607,1.167-2.607,2.607
		c0,1.021,0.588,2.153,1.442,2.727c-2.042,0.519-3.556,2.292-3.556,3.604c0,1.553,9.439,1.553,9.439,0
		C29.719,19.586,28.207,17.813,26.165,17.295z M25,22.064l-1.323-1.322l1.114-2.69H24.78l-0.434-0.496
		c0.209,0.075,0.428,0.121,0.654,0.121c0.226,0,0.443-0.046,0.651-0.12l-0.432,0.496h-0.01l1.112,2.69L25,22.064z"/>
	<path d="M16.466,33.271c0.853-0.574,1.441-1.707,1.441-2.728c0-1.44-1.168-2.607-2.606-2.607c-1.44,0-2.606,1.167-2.606,2.607
		c0,1.021,0.587,2.153,1.442,2.728c-2.042,0.518-3.556,2.291-3.556,3.604c0,1.553,9.44,1.553,9.44,0
		C20.02,35.562,18.507,33.789,16.466,33.271z M15.301,38.04l-1.323-1.322l1.113-2.691h-0.011l-0.434-0.496
		c0.21,0.075,0.428,0.12,0.654,0.12c0.227,0,0.443-0.045,0.652-0.119l-0.432,0.495h-0.01l1.112,2.691L15.301,38.04z"/>
	<path d="M34.699,25.285c-0.667,0-1.309,0.094-1.925,0.253c-0.306-1.364-0.957-2.591-1.863-3.595
		c1.117-1.337,1.792-3.056,1.792-4.931c0-4.248-3.456-7.703-7.704-7.703c-4.246,0-7.701,3.455-7.701,7.703
		c0,1.875,0.675,3.594,1.792,4.931c-0.906,1.004-1.557,2.231-1.863,3.596c-0.618-0.16-1.261-0.254-1.928-0.254
		c-4.246,0-7.701,3.456-7.701,7.703c0,4.248,3.455,7.703,7.701,7.703c3.579,0,6.586-2.456,7.449-5.768
		c0.716,0.213,1.466,0.348,2.251,0.348c0.786,0,1.537-0.135,2.253-0.348c0.862,3.312,3.869,5.768,7.446,5.768
		c4.248,0,7.704-3.455,7.704-7.703C42.402,28.741,38.947,25.285,34.699,25.285z M24.999,9.88c3.933,0,7.133,3.2,7.133,7.132
		c0,3.933-3.2,7.132-7.133,7.132c-3.932,0-7.13-3.199-7.13-7.132C17.869,13.08,21.067,9.88,24.999,9.88z M15.299,40.12
		c-3.932,0-7.13-3.2-7.13-7.132c0-3.933,3.199-7.132,7.13-7.132c3.934,0,7.134,3.199,7.134,7.132
		C22.433,36.92,19.233,40.12,15.299,40.12z M24.999,34.128c-0.712,0-1.392-0.132-2.038-0.336c0.027-0.265,0.042-0.533,0.042-0.805
		c0-3.176-1.934-5.909-4.686-7.085c0.246-1.191,0.795-2.265,1.572-3.143c1.361,1.211,3.148,1.955,5.109,1.955
		c1.962,0,3.75-0.744,5.111-1.955c0.778,0.877,1.327,1.951,1.572,3.142c-2.751,1.176-4.685,3.909-4.685,7.086
		c0,0.271,0.015,0.539,0.042,0.804C26.392,33.996,25.713,34.128,24.999,34.128z M34.699,40.12c-3.932,0-7.131-3.2-7.131-7.132
		c0-3.933,3.199-7.132,7.131-7.132c3.933,0,7.133,3.199,7.133,7.132C41.832,36.92,38.632,40.12,34.699,40.12z"/>
	<path d="M35.864,33.271c0.854-0.574,1.442-1.707,1.442-2.728c0-1.44-1.167-2.607-2.606-2.607c-1.439,0-2.606,1.167-2.606,2.607
		c0,1.021,0.587,2.153,1.441,2.728c-2.042,0.518-3.555,2.291-3.555,3.604c0,1.553,9.439,1.553,9.439,0
		C39.419,35.562,37.906,33.789,35.864,33.271z M34.7,38.04l-1.323-1.322l1.113-2.691h-0.011l-0.433-0.496
		c0.209,0.075,0.427,0.12,0.654,0.12s0.443-0.045,0.652-0.119l-0.433,0.495h-0.01l1.112,2.691L34.7,38.04z"/>
</g>
</svg>
