<?xml version="1.0" encoding="utf-8"?>
<!-- Generator: Adobe Illustrator 16.0.0, SVG Export Plug-In . SVG Version: 6.00 Build 0)  -->
<!DOCTYPE svg PUBLIC "-//W3C//DTD SVG 1.1//EN" "http://www.w3.org/Graphics/SVG/1.1/DTD/svg11.dtd">
<svg version="1.1" id="Layer_1" xmlns="http://www.w3.org/2000/svg" xmlns:xlink="http://www.w3.org/1999/xlink" x="0px" y="0px"
	 width="126px" height="126px" viewBox="0 0 126 126" enable-background="new 0 0 126 126" xml:space="preserve">
<g>
	<circle cx="28.318" cy="44.353" r="10.381"/>
	<path d="M16.291,78.423c-0.075-0.693-0.096-1.356-0.071-1.992c-0.337-1.135-0.522-2.334-0.522-3.576
		c0-6.855,5.495-12.438,12.309-12.607h0.624C35.446,60.415,40.942,66,40.942,72.855c0,1.261-0.19,2.477-0.537,3.626
		c0.022,0.621,0.002,1.266-0.071,1.942h8.125c0.933-12.457-9.281-18.735-13.236-21.162c-0.174-0.107-0.358-0.184-0.541-0.261
		c-1.155-0.771-2.453-1.339-3.778-1.664l-2.586,2.603l-2.508-2.632c-0.008,0.002-0.017,0.002-0.025,0.004
		c-1.351,0.324-2.675,0.902-3.851,1.691c-0.18,0.077-0.361,0.152-0.533,0.258c-3.956,2.426-14.17,8.705-13.236,21.162H16.291z"/>
	<circle cx="68.732" cy="44.353" r="10.381"/>
	<path d="M56.705,78.423c-0.075-0.693-0.096-1.356-0.071-1.992c-0.336-1.135-0.522-2.333-0.522-3.576
		c0-6.855,5.495-12.438,12.309-12.607h0.624C75.861,60.415,81.357,66,81.357,72.855c0,1.261-0.191,2.477-0.537,3.626
		c0.022,0.621,0.002,1.266-0.071,1.942h8.124c0.934-12.457-9.28-18.735-13.236-21.162c-0.174-0.107-0.358-0.184-0.541-0.261
		c-1.156-0.771-2.454-1.339-3.778-1.664l-2.586,2.603l-2.508-2.632c-0.008,0.002-0.017,0.002-0.025,0.004
		c-1.351,0.324-2.675,0.902-3.852,1.691c-0.18,0.077-0.36,0.152-0.532,0.258c-3.956,2.426-14.17,8.705-13.237,21.162H56.705z"/>
	<circle cx="28.318" cy="72.596" r="10.382"/>
	<path d="M16.291,106.667c-0.309-2.847,0.268-5.181,1.402-7.15v7.15h10.556l-2.458-3.364l2.504-16.734h0.048l2.503,16.734
		l-2.458,3.364h10.555v-7.131c1.126,1.965,1.699,4.294,1.391,7.131h8.125c0.933-12.458-9.281-18.736-13.236-21.162
		c-0.174-0.107-0.358-0.184-0.541-0.261c-1.155-0.771-2.453-1.339-3.778-1.664l-2.586,2.603l-2.508-2.632
		c-0.008,0.002-0.017,0.002-0.025,0.004c-1.351,0.323-2.675,0.902-3.851,1.691c-0.18,0.077-0.361,0.152-0.533,0.258
		c-3.956,2.426-14.17,8.705-13.236,21.162H16.291z"/>
	<circle cx="68.732" cy="72.596" r="10.382"/>
	<path d="M56.705,106.667c-0.309-2.847,0.268-5.181,1.402-7.15v7.15h10.556l-2.457-3.364l2.503-16.734h0.049l2.503,16.734
		l-2.458,3.364h10.555v-7.131c1.127,1.965,1.699,4.294,1.392,7.131h8.124c0.934-12.458-9.28-18.736-13.236-21.162
		c-0.174-0.107-0.358-0.184-0.541-0.261c-1.156-0.771-2.454-1.339-3.778-1.664l-2.586,2.603l-2.508-2.632
		c-0.008,0.002-0.017,0.002-0.025,0.004c-1.351,0.323-2.675,0.902-3.852,1.691c-0.18,0.077-0.36,0.152-0.532,0.258
		c-3.956,2.426-14.17,8.705-13.237,21.162H56.705z"/>
	<polygon points="80.336,0.969 65.588,1.78 79.065,9.575 	"/>
	<circle cx="105.526" cy="19.717" r="10.381"/>
	<path d="M76.194,17.924c-2.002,0.971-2.837,3.384-1.865,5.385c0.236,0.486,1.116,2.239,2.542,4.473l-0.934,6.423l1.095,0.44
		l0.79-5.427c2.975,4.33,7.674,9.708,13.566,11.553c1.167,0.365,2.341,0.569,3.511,0.629v21.24c0,1.097,0.216,2.118,0.593,3.057
		c-0.025,0.201-0.061,0.399-0.061,0.607l0.002,38.593c0.001,2.631,2.133,4.764,4.764,4.764c2.63,0,4.763-2.133,4.763-4.764
		l-0.003-33.122c0.189,0.009,0.377,0.023,0.567,0.023c0.037,0,0.074-0.004,0.112-0.004l-0.002,33.103
		c0,2.631,2.132,4.764,4.763,4.764c0,0,0,0,0,0c2.63,0,4.763-2.133,4.763-4.764l0.002-37.861c0.25,0.239,0.523,0.459,0.842,0.633
		c0.612,0.333,1.272,0.491,1.923,0.491c1.429,0,2.813-0.761,3.543-2.105c11.371-20.901-4.139-30.414-9.235-33.54
		c-0.134-0.083-0.277-0.136-0.416-0.201c-1.138-0.747-2.412-1.297-3.709-1.615l-2.586,2.603l-2.508-2.632
		c-0.009,0.002-0.017,0.002-0.025,0.005c-1.244,0.298-2.464,0.813-3.567,1.507c-0.276,0.084-0.547,0.193-0.809,0.34
		c-1.607,0.904-3.136,1.08-4.81,0.559C88.264,31.355,83.1,22.896,81.58,19.788c-0.405-0.835-1.068-1.452-1.839-1.834l2.485-16.833
		l-1.137-0.168l-2.453,16.632C77.833,17.447,76.983,17.541,76.194,17.924z M116.151,46.896c1.539,2.912,1.884,6.598,0,11.525V46.896
		z M105.502,33.69h0.049l2.503,16.734l-2.503,3.426h-0.049l-2.503-3.426L105.502,33.69z"/>
	<rect x="0.454" y="110.253" width="123.729" height="14.794"/>
</g>
</svg>
