<?xml version="1.0" encoding="utf-8"?>
<!-- Generator: Adobe Illustrator 16.0.0, SVG Export Plug-In . SVG Version: 6.00 Build 0)  -->
<!DOCTYPE svg PUBLIC "-//W3C//DTD SVG 1.1//EN" "http://www.w3.org/Graphics/SVG/1.1/DTD/svg11.dtd">
<svg version="1.1" id="Layer_1" xmlns="http://www.w3.org/2000/svg" xmlns:xlink="http://www.w3.org/1999/xlink" x="0px" y="0px"
	 width="50px" height="50px" viewBox="0 0 50 50" enable-background="new 0 0 50 50" xml:space="preserve">
<g>
	<g>
		<path d="M32.549,17.21c0,0.098-0.011,0.192-0.015,0.288c2.174,1.942,3.592,4.702,3.769,7.797c0.284-0.033,0.57-0.054,0.863-0.054
			c0.026,0,0.053,0.004,0.079,0.004c-0.208-3.669-2.027-6.906-4.769-9.02C32.52,16.548,32.549,16.876,32.549,17.21z"/>
		<path d="M30.319,35.947c-1.588,0.848-3.396,1.332-5.319,1.332s-3.732-0.484-5.32-1.332c-0.133,0.287-0.283,0.563-0.45,0.83
			c1.723,0.921,3.686,1.446,5.771,1.446s4.048-0.525,5.77-1.445C30.603,36.512,30.453,36.235,30.319,35.947z"/>
		<path d="M12.832,25.241c0.294,0,0.582,0.021,0.866,0.054c0.177-3.094,1.594-5.854,3.768-7.796
			c-0.004-0.097-0.015-0.191-0.015-0.289c0-0.334,0.029-0.662,0.072-0.983c-2.741,2.113-4.56,5.35-4.768,9.019
			C12.781,25.245,12.807,25.241,12.832,25.241z"/>
	</g>
	<g>
		<g>
			<g>
				<path d="M25,23.813c-3.641,0-6.604-2.962-6.604-6.604c0-3.643,2.964-6.604,6.604-6.604c3.642,0,6.604,2.962,6.604,6.604
					C31.604,20.852,28.642,23.813,25,23.813z M25,11.319c-3.247,0-5.89,2.643-5.89,5.891S21.753,23.1,25,23.1
					c3.248,0,5.891-2.642,5.891-5.89S28.248,11.319,25,11.319z"/>
			</g>
			<path d="M25.998,17.224c0.734-0.494,1.239-1.466,1.239-2.342c0-1.234-1.003-2.235-2.237-2.235s-2.236,1.001-2.236,2.235
				c0,0.876,0.504,1.848,1.238,2.342c-1.753,0.444-3.052,1.964-3.052,3.093c0,1.331,8.1,1.331,8.1,0
				C29.05,19.188,27.752,17.668,25.998,17.224z M25,21.314l-1.135-1.134l0.956-2.31H24.81l-0.37-0.426
				c0.18,0.066,0.368,0.103,0.561,0.103s0.38-0.036,0.56-0.102l-0.369,0.425h-0.012l0.956,2.31L25,21.314z"/>
		</g>
		<path d="M37.166,26.187c-3.644,0-6.604,2.963-6.604,6.603c0,3.643,2.96,6.605,6.604,6.605c3.642,0,6.606-2.963,6.606-6.605
			C43.772,29.149,40.808,26.187,37.166,26.187z M39.994,37.392l-0.256-0.444l-0.256,0.145l0.254,0.443
			c-0.729,0.394-1.544,0.638-2.42,0.662v-0.525H37.02v0.525c-0.879-0.024-1.695-0.269-2.421-0.662l0.255-0.443l-0.257-0.145
			l-0.258,0.446c-0.725-0.445-1.33-1.051-1.774-1.772l0.447-0.261l-0.149-0.254l-0.441,0.253c-0.395-0.728-0.639-1.542-0.665-2.42
			h0.528v-0.298h-0.528c0.026-0.877,0.271-1.693,0.665-2.421l0.441,0.256l0.149-0.257l-0.447-0.26
			c0.444-0.723,1.047-1.326,1.77-1.772l0.261,0.446l0.256-0.146l-0.254-0.442c0.728-0.395,1.544-0.638,2.422-0.662v0.524h0.12
			l-0.803,1.604h0.535v3.107l-1.667,0.964l-0.267-0.463l-1.023,1.549l1.856-0.11L35.5,34.096l1.815-1.05
			c0.011-0.007,0.011-0.025,0.024-0.031c0.031-0.025,0.044-0.053,0.066-0.088c0.02-0.032,0.037-0.061,0.041-0.101
			c0.001-0.013,0.015-0.022,0.015-0.037v-3.277h0.534l-0.8-1.604h0.118l0.001-0.524c0.876,0.024,1.692,0.268,2.421,0.662
			l-0.256,0.442l0.258,0.146l0.256-0.447c0.725,0.445,1.329,1.051,1.775,1.773l-0.449,0.26l0.148,0.254l0.441-0.254
			c0.396,0.729,0.639,1.544,0.665,2.42H42.05v0.298h0.525c-0.026,0.878-0.27,1.694-0.665,2.422l-0.441-0.257l-0.146,0.258
			l0.446,0.26C41.323,36.343,40.719,36.947,39.994,37.392z"/>
		<g>
			<g>
				<path d="M12.832,39.395c-3.641,0-6.604-2.962-6.604-6.604c0-3.642,2.963-6.604,6.604-6.604c3.643,0,6.604,2.962,6.604,6.604
					C19.437,36.433,16.475,39.395,12.832,39.395z M12.832,26.9c-3.247,0-5.89,2.642-5.89,5.89s2.643,5.891,5.89,5.891
					c3.248,0,5.891-2.643,5.891-5.891S16.08,26.9,12.832,26.9z"/>
			</g>
			<path d="M13.424,32.093c-0.897-0.336-1.269-0.56-1.269-0.906c0-0.297,0.223-0.595,0.908-0.595c0.762,0,1.247,0.245,1.521,0.362
				l0.307-1.195c-0.349-0.169-0.825-0.315-1.531-0.349v-0.93h-1.036v1.003c-1.129,0.223-1.783,0.952-1.783,1.881
				c0,1.024,0.771,1.553,1.899,1.935c0.782,0.261,1.12,0.517,1.12,0.917c0,0.423-0.412,0.655-1.014,0.655
				c-0.687,0-1.312-0.223-1.753-0.465l-0.316,1.236c0.4,0.231,1.087,0.423,1.795,0.454v1.004h1.035v-1.078
				c1.214-0.211,1.88-1.015,1.88-1.953C15.188,33.118,14.68,32.537,13.424,32.093z"/>
		</g>
	</g>
</g>
</svg>
