<?xml version="1.0" encoding="utf-8"?>
<!-- Generator: Adobe Illustrator 16.0.0, SVG Export Plug-In . SVG Version: 6.00 Build 0)  -->
<!DOCTYPE svg PUBLIC "-//W3C//DTD SVG 1.1//EN" "http://www.w3.org/Graphics/SVG/1.1/DTD/svg11.dtd">
<svg version="1.1" id="Layer_1" xmlns="http://www.w3.org/2000/svg" xmlns:xlink="http://www.w3.org/1999/xlink" x="0px" y="0px"
	 width="50px" height="50px" viewBox="0 0 50 50" enable-background="new 0 0 50 50" xml:space="preserve">
<g>
	<path d="M18.2,15.531c1.744,0,3.16-2.024,3.16-3.77c0-1.746-1.416-3.161-3.16-3.161c-1.746,0-3.162,1.415-3.162,3.161
		C15.038,13.507,16.454,15.531,18.2,15.531z"/>
	<path d="M25.821,28.875h-0.896V28.03c0.349-0.256,0.568-0.671,0.517-1.132l-1-9c-0.007-0.061-0.039-0.109-0.054-0.166
		c-0.023-0.092-0.043-0.182-0.086-0.266c-0.033-0.063-0.08-0.112-0.122-0.168c-0.056-0.074-0.107-0.147-0.179-0.209
		c-0.057-0.047-0.123-0.076-0.187-0.113c-0.064-0.037-0.117-0.088-0.189-0.115c-0.113-0.041-2.629-0.942-4.941-1.061l-0.318,0.635
		h-0.008l0.842,6.557l-1,1.747l-1-1.747l0.842-6.557h-0.01l-0.317-0.635c-2.312,0.118-4.827,1.02-4.94,1.061
		c-0.073,0.027-0.127,0.079-0.191,0.117c-0.062,0.037-0.128,0.064-0.183,0.111c-0.074,0.062-0.127,0.138-0.185,0.214
		c-0.04,0.054-0.085,0.101-0.117,0.161c-0.044,0.085-0.063,0.178-0.088,0.271c-0.015,0.056-0.046,0.104-0.053,0.162l-1,9
		c-0.076,0.687,0.418,1.305,1.104,1.381c0.047,0.006,0.093,0.008,0.14,0.008c0.628,0,1.169-0.473,1.24-1.111l0.911-8.199
		c0.106-0.031,0.223-0.065,0.347-0.101v8.532l-0.995,12.371c-0.066,0.826,0.549,1.549,1.375,1.615
		c0.041,0.004,0.081,0.005,0.122,0.005c0.773,0,1.43-0.595,1.493-1.38l0.899-11.181c0.186,0.082,0.39,0.13,0.605,0.13
		s0.42-0.048,0.605-0.13l0.899,11.181c0.063,0.785,0.72,1.38,1.493,1.38c0.041,0,0.081-0.001,0.122-0.005
		c0.826-0.066,1.441-0.789,1.375-1.615L21.7,27.408v-8.532c0.124,0.035,0.24,0.069,0.347,0.101l0.911,8.199
		c0.067,0.602,0.554,1.04,1.134,1.092v0.607h-0.896c-0.275,0-0.5,0.225-0.5,0.5v7.584c0,0.274,0.225,0.5,0.5,0.5h2.625
		c0.275,0,0.5-0.226,0.5-0.5v-7.584C26.321,29.1,26.096,28.875,25.821,28.875z"/>
	<polygon points="31.752,28.812 34.743,28.812 34.743,15.094 37.016,15.094 33.246,8.601 29.476,15.094 31.752,15.094 	"/>
	<path d="M33.245,29.792c-3.202,0-5.804,2.603-5.804,5.803c0,3.202,2.603,5.805,5.804,5.805c3.2,0,5.805-2.603,5.805-5.805
		C39.05,32.395,36.445,29.792,33.245,29.792z M37.414,37.854l-0.388-0.226l-0.127,0.227l0.391,0.227
		c-0.391,0.636-0.924,1.167-1.56,1.56l-0.226-0.393l-0.225,0.129l0.223,0.388c-0.639,0.349-1.356,0.561-2.126,0.583v-0.461h-0.261
		v0.461c-0.771-0.022-1.491-0.234-2.128-0.583l0.226-0.388l-0.227-0.129l-0.226,0.394c-0.637-0.392-1.17-0.925-1.561-1.56
		l0.394-0.228l-0.13-0.225l-0.389,0.224c-0.347-0.639-0.561-1.356-0.583-2.126h0.462v-0.261h-0.462
		c0.022-0.771,0.236-1.49,0.583-2.128l0.389,0.225l0.13-0.227L29.2,33.11c0.391-0.636,0.921-1.167,1.557-1.56l0.229,0.393
		l0.225-0.129l-0.223-0.388c0.638-0.348,1.358-0.561,2.127-0.583v0.46h0.259l0.001-0.46c0.771,0.022,1.489,0.235,2.128,0.583
		l-0.225,0.388l0.227,0.129l0.226-0.394c0.636,0.392,1.169,0.923,1.56,1.56l-0.394,0.228l0.13,0.225l0.388-0.225
		c0.348,0.64,0.56,1.357,0.583,2.127h-0.46v0.262h0.46C37.974,36.496,37.762,37.215,37.414,37.854z"/>
	<path d="M33.69,35.073c-0.676-0.254-0.953-0.422-0.953-0.683c0-0.223,0.167-0.444,0.683-0.444c0.569,0,0.935,0.183,1.141,0.27
		l0.229-0.896c-0.26-0.127-0.618-0.237-1.149-0.263V32.36h-0.776v0.754c-0.849,0.166-1.34,0.714-1.34,1.41
		c0,0.77,0.579,1.166,1.428,1.451c0.587,0.199,0.839,0.39,0.839,0.691c0,0.316-0.308,0.491-0.76,0.491
		c-0.515,0-0.983-0.167-1.315-0.349l-0.238,0.928c0.301,0.174,0.816,0.316,1.347,0.34v0.754h0.777v-0.81
		c0.912-0.158,1.411-0.761,1.411-1.466C35.013,35.841,34.632,35.405,33.69,35.073z"/>
</g>
</svg>
