<?xml version="1.0" encoding="utf-8"?>
<!-- Generator: Adobe Illustrator 16.0.0, SVG Export Plug-In . SVG Version: 6.00 Build 0)  -->
<!DOCTYPE svg PUBLIC "-//W3C//DTD SVG 1.1//EN" "http://www.w3.org/Graphics/SVG/1.1/DTD/svg11.dtd">
<svg version="1.1" id="Layer_2" xmlns="http://www.w3.org/2000/svg" xmlns:xlink="http://www.w3.org/1999/xlink" x="0px" y="0px"
	 width="126px" height="126px" viewBox="0 0 126 126" enable-background="new 0 0 126 126" xml:space="preserve">
<g>
	<path d="M90.021,69.675c0.19-0.65,0.254-1.348,0.153-2.063c-0.448-3.158-4.795-31.043-19.421-37.469
		c-0.024-0.01-0.049-0.018-0.073-0.028c-1.397-0.917-2.968-1.603-4.569-1.995l-3.132,3.153l-3.037-3.188
		c-0.011,0.003-0.021,0.003-0.032,0.005c-1.642,0.393-3.251,1.099-4.68,2.06C40.616,36.59,36.273,64.456,35.825,67.612
		c-0.101,0.715-0.037,1.413,0.153,2.063c-6.605,1.107-11.66,6.85-11.66,13.765c0,7.705,6.269,13.973,13.973,13.973h12.465
		l0.002,20.576c0,3.186,2.583,5.769,5.769,5.768c3.188,0,5.77-2.583,5.77-5.77l-0.002-20.574h0.819l-0.001,20.574
		c0,3.187,2.583,5.77,5.77,5.77c3.186,0,5.77-2.583,5.77-5.769V97.413h13.06c7.705,0,13.971-6.268,13.971-13.973
		C101.682,76.525,96.628,70.781,90.021,69.675z M75.848,51.461c2.349,5.861,3.954,12.572,4.66,17.521
		c0.023,0.167,0.075,0.323,0.114,0.485H75.39c0.286-0.97,0.458-2,0.458-3.106V51.461z M62.951,31.74h0.059l3.032,20.27l-3.032,4.149
		h-0.059l-3.033-4.149L62.951,31.74z M50.109,51.533v15.272c0,0.935,0.134,1.821,0.368,2.662h-5.1
		c0.039-0.162,0.09-0.317,0.114-0.485C46.19,64.053,47.778,57.377,50.109,51.533z M87.711,90.941h-49.42
		c-4.136,0-7.5-3.365-7.5-7.501s3.364-7.5,7.5-7.5h49.42c4.136,0,7.5,3.364,7.5,7.5S91.847,90.941,87.711,90.941z"/>
	<polygon points="49.802,80.775 47.5,79.466 46.541,82.04 45.599,79.464 43.279,80.794 45.046,82.896 42.474,82.381 42.474,85.037 
		45.063,84.558 43.28,86.641 45.534,88.004 46.521,85.389 47.48,88 49.805,86.643 47.965,84.564 50.643,85.033 50.643,82.381 
		47.979,82.917 	"/>
	<polygon points="65.502,80.775 63.2,79.466 62.241,82.04 61.299,79.464 58.979,80.794 60.747,82.896 58.175,82.381 58.175,85.037 
		60.765,84.558 58.98,86.641 61.234,88.004 62.221,85.389 63.181,88 65.506,86.643 63.665,84.564 66.342,85.033 66.342,82.381 
		63.682,82.917 	"/>
	<polygon points="81.651,80.775 79.35,79.466 78.391,82.04 77.447,79.464 75.128,80.794 76.896,82.896 74.324,82.381 74.324,85.037 
		76.914,84.558 75.13,86.641 77.385,88.004 78.369,85.389 79.331,88 81.656,86.643 79.814,84.564 82.491,85.033 82.491,82.381 
		79.83,82.917 	"/>
	<circle cx="62.979" cy="14.817" r="12.574"/>
</g>
</svg>
