<?xml version="1.0" encoding="utf-8"?>
<!-- Generator: Adobe Illustrator 16.0.0, SVG Export Plug-In . SVG Version: 6.00 Build 0)  -->
<!DOCTYPE svg PUBLIC "-//W3C//DTD SVG 1.1//EN" "http://www.w3.org/Graphics/SVG/1.1/DTD/svg11.dtd">
<svg version="1.1" id="Layer_1" xmlns="http://www.w3.org/2000/svg" xmlns:xlink="http://www.w3.org/1999/xlink" x="0px" y="0px"
	 width="126px" height="126px" viewBox="0 0 126 126" enable-background="new 0 0 126 126" xml:space="preserve">
<g>
	<circle fill="#010101" cx="94.84" cy="37.727" r="11.715"/>
	<path fill="#010101" d="M70.898,67.043v6.38h-1.547c-0.208,1.492-0.309,2.819-0.355,3.81h5.712v-15.21
		c-0.321,0.12-0.656,0.202-1.002,0.215C72.479,63.549,71.574,65.242,70.898,67.043z"/>
	<rect x="66.621" y="84.104" fill="#010101" width="50.812" height="32.541"/>
	<path fill="#010101" d="M117.107,78.131c2.423-15.445-10.017-23.092-14.695-25.961c-0.152-0.092-0.312-0.154-0.469-0.228
		c-1.285-0.843-2.722-1.463-4.185-1.822l-2.917,2.939l-2.83-2.97c-0.01,0-0.02,0-0.029,0.004c-1.403,0.334-2.781,0.918-4.025,1.702
		c-0.312,0.093-0.618,0.215-0.914,0.381c-1.813,1.021-3.539,1.219-5.428,0.631c-2.441-0.76-4.814-2.684-6.906-4.949V15.5h6.858
		V9.355H0.783V15.5h3.804v61.732h32.394v23.816H23.9v15.432h31.055v-15.432H42.314V77.232h21.07c0.04-1.063,0.129-2.371,0.303-3.81
		H8.397V17.404h62.501v25.604c-1.41-2.076-2.491-3.998-3.08-5.201c-1.097-2.26-3.818-3.201-6.079-2.104
		c-2.258,1.096-3.202,3.818-2.103,6.078c0.588,1.212,4.717,9.397,11.262,15.036v0.002c0.325-0.429,0.741-0.788,1.238-1.023
		l3.275-1.537c0.453-0.211,0.934-0.319,1.43-0.319c1.304,0,2.502,0.761,3.053,1.94c0.381,0.813,0.423,1.728,0.117,2.574
		c-0.306,0.847-0.923,1.522-1.737,1.904l-1.064,0.5c0.549,0.234,1.106,0.449,1.676,0.629c1.317,0.411,2.642,0.642,3.962,0.71v15.935
		H67.373c0.08-3.577,0.774-13.059,5.81-17.662c0.379,0.106,0.794,0.087,1.18-0.094l3.276-1.538c0.857-0.401,1.226-1.424,0.823-2.281
		c-0.4-0.857-1.423-1.226-2.281-0.823l-3.276,1.538c-0.519,0.243-0.855,0.713-0.955,1.236c-6.05,5.181-6.805,15.708-6.87,19.624
		h-1.72h-2.525v3.523h64.381v-3.523H117.107z M42.314,104.858h8.831v7.813H27.711v-7.813h9.27v4.53h5.333V104.858z M94.868,76.244
		h-0.055l-2.824-3.866l2.824-18.885h0.055l2.825,18.885L94.868,76.244z M107.828,78.131h-0.997v-9.733
		C108.207,71.002,108.727,74.164,107.828,78.131z"/>
	<path fill="#010101" d="M42.665,64.368c0.157,0.159,0.581,0.531,1.089,0.531c0.109,0,1.07-0.036,1.07-1.351v-2.063h10.024
		c0.104,0,0.379-0.02,0.646-0.201c0.195-0.135,0.526-0.449,0.524-1.024c0.034-0.274,0.479-1.693,0.835-2.833
		c0.652-2.089,0.978-3.17,1.098-3.765h0.018V53.57c0.028-0.146,0.04-0.261,0.04-0.352c0-0.398-0.106-0.699-0.268-0.921L55.238,45.9
		c-0.145-0.547-0.611-1.105-1.331-1.105c-0.233,0-0.474,0.063-0.681,0.171l-4.994,2.309c-0.257,0.108-0.792,0.339-0.977,0.884
		c-0.077,0.232-0.114,0.611,0.127,1.029l1.304,2.66l-4.064,0.004v-2.298c0-0.95-0.632-1.202-1.002-1.202
		c-0.498,0-0.922,0.37-1.121,0.582l-6.561,6.748c-0.082,0.072-0.495,0.456-0.518,1.044c-0.011,0.261,0.054,0.65,0.424,1.019
		C36.493,58.395,42.665,64.368,42.665,64.368z"/>
	<path fill="#010101" d="M36.667,37.955c0.254,0,0.731-0.089,1.052-0.646l1.651-2.436l1.968,3.433l-1.996,1.144
		c-0.664,0.379-0.702,0.864-0.667,1.122c0.096,0.694,0.867,0.952,1.184,1.03l9.115,2.339c0.058,0.02,0.262,0.084,0.521,0.084
		c0.64,0,1.145-0.392,1.32-1.029c0.239-0.886,2.361-9.206,2.361-9.206c0.067-0.245,0.185-0.87-0.162-1.322
		c-0.336-0.448-0.941-0.539-1.626-0.145l-1.79,1.025l-4.97-8.674c-0.146-0.28-0.5-0.605-1.016-0.605
		c-0.23,0-0.461,0.067-0.641,0.173c-0.253,0.104-1.692,0.422-2.85,0.679c-2.86,0.631-3.876,0.878-4.25,1.096
		c-0.377,0.213-0.563,0.463-0.663,0.689l-4.24,5.424c-0.089,0.086-0.529,0.551-0.468,1.195c0.03,0.288,0.169,0.702,0.649,1.017
		l4.485,3.188C35.931,37.75,36.26,37.955,36.667,37.955z M49.496,42.461l-0.002,0.781l-0.061-0.765
		C49.455,42.467,49.479,42.461,49.496,42.461z"/>
	<path fill="#010101" d="M33.33,49.168c0.228,0.107,0.434,0.159,0.628,0.159c0.335,0,0.629-0.153,0.811-0.418
		c0.318-0.465,0.153-1.081,0.027-1.397l-3.302-8.813c-0.18-0.653-0.939-1.286-1.827-0.968c-0.86,0.307-8.9,3.339-8.9,3.339
		c-0.235,0.082-1.001,0.411-1.038,1.14c-0.02,0.336,0.116,0.81,0.859,1.163l1.866,0.878l-4.266,9.045
		c-0.054,0.101-0.209,0.459-0.06,0.892c0.076,0.224,0.262,0.534,0.655,0.713c0.23,0.148,1.318,1.15,2.193,1.953
		c1.994,1.835,2.912,2.658,3.327,2.856c0.248,0.116,0.48,0.175,0.705,0.175c0.104,0,0.194-0.024,0.284-0.048l6.703,0.48l0.292,0.025
		c0.417,0,0.785-0.146,1.041-0.411c0.182-0.188,0.395-0.523,0.374-1.031l0.047-5.499c0.011-0.293,0.03-0.834-0.351-1.228
		c-0.16-0.166-0.5-0.395-1.021-0.358l-2.858,0.039l1.734-3.666L33.33,49.168z M32.287,58.787v0.775L32.2,58.852
		C32.226,58.824,32.256,58.798,32.287,58.787z"/>
</g>
</svg>
