<?xml version="1.0" encoding="utf-8"?>
<!-- Generator: Adobe Illustrator 16.0.0, SVG Export Plug-In . SVG Version: 6.00 Build 0)  -->
<!DOCTYPE svg PUBLIC "-//W3C//DTD SVG 1.1//EN" "http://www.w3.org/Graphics/SVG/1.1/DTD/svg11.dtd">
<svg version="1.1" id="Layer_1" xmlns="http://www.w3.org/2000/svg" xmlns:xlink="http://www.w3.org/1999/xlink" x="0px" y="0px"
	 width="50px" height="50px" viewBox="0 0 50 50" enable-background="new 0 0 50 50" xml:space="preserve">
<g>
	<path d="M20.64,21.152c0-1.214-1.398-2.852-3.285-3.331c0.788-0.531,1.332-1.577,1.332-2.52c0-1.331-1.077-2.409-2.408-2.409
		c-1.33,0-2.408,1.078-2.408,2.409c0,0.942,0.543,1.988,1.332,2.52c-1.886,0.479-3.284,2.116-3.284,3.331
		C11.918,22.586,20.64,22.586,20.64,21.152z M16.085,18.52h-0.011l-0.398-0.458c0.193,0.07,0.394,0.111,0.603,0.111
		c0.209,0,0.41-0.041,0.604-0.11l-0.4,0.458h-0.01l1.029,2.486l-1.223,1.221l-1.222-1.221L16.085,18.52z"/>
	<path d="M29.36,21.152c0-1.214-1.398-2.852-3.284-3.331c0.788-0.531,1.332-1.577,1.332-2.52c0-1.331-1.078-2.409-2.408-2.409
		s-2.408,1.078-2.408,2.409c0,0.942,0.543,1.988,1.332,2.52c-1.886,0.479-3.284,2.116-3.284,3.331
		C20.64,22.586,29.36,22.586,29.36,21.152z M24.807,18.52h-0.011l-0.399-0.458c0.193,0.07,0.394,0.111,0.603,0.111
		s0.41-0.041,0.603-0.11l-0.4,0.458h-0.01l1.029,2.486L25,22.227l-1.223-1.221L24.807,18.52z"/>
	<path d="M38.082,21.152c0-1.214-1.398-2.852-3.284-3.331c0.788-0.531,1.332-1.577,1.332-2.52c0-1.331-1.078-2.409-2.408-2.409
		c-1.331,0-2.408,1.078-2.408,2.409c0,0.942,0.543,1.988,1.332,2.52c-1.886,0.479-3.285,2.116-3.285,3.331
		C29.36,22.586,38.082,22.586,38.082,21.152z M33.528,18.52h-0.011l-0.398-0.458c0.194,0.07,0.394,0.111,0.604,0.111
		c0.208,0,0.409-0.041,0.603-0.11l-0.399,0.458h-0.01l1.028,2.486l-1.222,1.221l-1.223-1.221L33.528,18.52z"/>
	<polygon points="42.093,25.857 42.093,24.283 38.916,22.227 41.158,24.283 8.842,24.283 11.084,22.227 7.907,24.283 7.907,25.857 
		11.084,25.857 11.084,35.342 10.296,35.342 10.296,36.232 9.12,36.232 9.12,37.107 40.88,37.107 40.88,36.232 39.704,36.232 
		39.704,35.342 38.916,35.342 38.916,25.857 	"/>
</g>
</svg>
