<?xml version="1.0" encoding="utf-8"?>
<!-- Generator: Adobe Illustrator 16.0.0, SVG Export Plug-In . SVG Version: 6.00 Build 0)  -->
<!DOCTYPE svg PUBLIC "-//W3C//DTD SVG 1.1//EN" "http://www.w3.org/Graphics/SVG/1.1/DTD/svg11.dtd">
<svg version="1.1" id="Layer_2" xmlns="http://www.w3.org/2000/svg" xmlns:xlink="http://www.w3.org/1999/xlink" x="0px" y="0px"
	 width="126px" height="126px" viewBox="0 0 126 126" enable-background="new 0 0 126 126" xml:space="preserve">
<g>
	<circle cx="34.388" cy="13.445" r="12.932"/>
	<path d="M54.121,52.868c0-3.099,2.627-5.62,5.855-5.62h11.072c-0.02-0.822-0.219-1.651-0.666-2.413
		c-1.402-2.392-4.479-3.192-6.871-1.792c-6.836,4.01-8.237,1.878-12.394-4.449c-2.107-3.208-4.497-6.844-8.128-9.071
		c-0.219-0.134-0.446-0.229-0.675-0.327c-1.44-0.959-3.057-1.667-4.706-2.071l-3.222,3.243l-3.124-3.279
		c-0.011,0.003-0.021,0.004-0.032,0.006c-1.683,0.403-3.334,1.125-4.8,2.11c-0.224,0.095-0.447,0.188-0.658,0.318
		c-0.464,0.283-0.924,0.559-1.38,0.834C14.271,36.44,7.284,42.796,9.568,69.335c0.224,2.616,2.416,4.59,4.996,4.59
		c0.143,0,0.288-0.006,0.436-0.018c2.762-0.238,4.809-2.67,4.571-5.433c-0.944-10.964-0.218-17.267,1.58-21.339v19.778
		c0,1.352,0.262,2.612,0.722,3.771c-0.033,0.261-0.059,0.523-0.059,0.792l0.004,48.076c0,3.277,2.656,5.934,5.933,5.934
		c3.278-0.001,5.934-2.657,5.934-5.934l-0.003-41.26c0.234,0.012,0.47,0.03,0.706,0.03c0.046,0,0.092-0.005,0.139-0.005
		l-0.002,41.235c0,3.278,2.657,5.934,5.934,5.934c3.277,0,5.934-2.656,5.934-5.934l0.002-47.782c0.777-1.44,1.23-3.071,1.23-4.858
		V50.518c1.771,1.789,3.903,3.303,6.497,4.074V52.868z M34.418,55.964h-0.06l-3.119-4.267l3.119-20.847h0.06l3.119,20.847
		L34.418,55.964z"/>
	<path d="M106.637,49.303H60.434c-2.479,0-4.486,1.903-4.486,4.25v5.375h-1.186c-1.512,0-2.738,1.227-2.738,2.739
		s1.227,2.739,2.738,2.739h1.186v9.809h-1.186c-1.512,0-2.738,1.227-2.738,2.739c0,1.512,1.227,2.738,2.738,2.738h1.186v9.588
		h-1.186c-1.512,0-2.738,1.226-2.738,2.738c0,1.513,1.227,2.738,2.738,2.738h1.186v10.27h-1.186c-1.512,0-2.738,1.227-2.738,2.739
		c0,1.513,1.227,2.739,2.738,2.739h1.186v9.939c0,2.346,2.008,4.25,4.486,4.25h46.203c2.479,0,4.487-1.904,4.487-4.25v-66.89
		C111.124,51.206,109.115,49.303,106.637,49.303z"/>
	<rect x="112.266" y="57.559" width="4.602" height="16.431"/>
	<rect x="112.266" y="76.957" width="4.602" height="16.431"/>
	<rect x="112.266" y="96.2" width="4.602" height="16.431"/>
</g>
</svg>
