<?xml version="1.0" encoding="utf-8"?>
<!-- Generator: Adobe Illustrator 16.0.0, SVG Export Plug-In . SVG Version: 6.00 Build 0)  -->
<!DOCTYPE svg PUBLIC "-//W3C//DTD SVG 1.1//EN" "http://www.w3.org/Graphics/SVG/1.1/DTD/svg11.dtd">
<svg version="1.1" id="Layer_1" xmlns="http://www.w3.org/2000/svg" xmlns:xlink="http://www.w3.org/1999/xlink" x="0px" y="0px"
	 width="50px" height="50px" viewBox="0 0 50 50" enable-background="new 0 0 50 50" xml:space="preserve">
<g>
	<path d="M17.354,37.821c0.788-0.531,1.332-1.577,1.332-2.52c0-1.331-1.077-2.409-2.408-2.409c-1.33,0-2.408,1.078-2.408,2.409
		c0,0.942,0.543,1.988,1.332,2.52c-1.886,0.479-3.284,2.116-3.284,3.331c0,1.434,8.722,1.434,8.722,0
		C20.64,39.938,19.241,38.3,17.354,37.821z"/>
	<path d="M26.076,37.821c0.788-0.531,1.332-1.577,1.332-2.52c0-1.331-1.078-2.409-2.408-2.409s-2.408,1.078-2.408,2.409
		c0,0.942,0.543,1.988,1.332,2.52c-1.886,0.479-3.284,2.116-3.284,3.331c0,1.434,8.721,1.434,8.721,0
		C29.36,39.938,27.962,38.3,26.076,37.821z"/>
	<path d="M34.798,37.821c0.788-0.531,1.332-1.577,1.332-2.52c0-1.331-1.078-2.409-2.408-2.409c-1.331,0-2.408,1.078-2.408,2.409
		c0,0.942,0.543,1.988,1.332,2.52c-1.886,0.479-3.285,2.116-3.285,3.331c0,1.434,8.722,1.434,8.722,0
		C38.082,39.938,36.684,38.3,34.798,37.821z"/>
	<path d="M35.346,9.834H14.654c-1.784,0-3.234,1.449-3.234,3.232v11.867c0,1.783,1.45,3.232,3.234,3.232h2.83l0.104-1.293h-2.934
		c-1.07,0-1.94-0.87-1.94-1.939V13.066c0-1.069,0.87-1.939,1.94-1.939h20.691c1.07,0,1.94,0.87,1.94,1.939v11.867
		c0,1.069-0.87,1.939-1.94,1.939H24.261l0.104,1.293h10.98c1.784,0,3.234-1.449,3.234-3.232V13.066
		C38.58,11.283,37.13,9.834,35.346,9.834z"/>
	<path d="M22.876,15.06c0-1.08-0.875-1.952-1.951-1.952c-1.078,0-1.953,0.872-1.953,1.952c0,1.076,0.875,2.328,1.953,2.328
		C22.002,17.388,22.876,16.136,22.876,15.06z"/>
	<path d="M17.503,18.253c-0.047,0.023-0.089,0.047-0.13,0.079c-0.041,0.03-0.074,0.062-0.107,0.1
		c-0.032,0.038-0.06,0.074-0.084,0.117c-0.026,0.046-0.046,0.091-0.063,0.143c-0.009,0.026-0.027,0.047-0.034,0.075l-1.234,5.557
		c-0.093,0.417,0.169,0.829,0.586,0.923c0.056,0.011,0.112,0.016,0.168,0.016c0.354,0,0.673-0.243,0.752-0.603l1.14-5.128
		c0.081-0.025,0.17-0.052,0.269-0.08v5.271l-0.615,7.639c-0.041,0.51,0.339,0.956,0.85,0.997c0.024,0.002,0.05,0.003,0.075,0.003
		c0.478,0,0.883-0.366,0.922-0.853l0.555-6.903c0.115,0.05,0.241,0.079,0.374,0.079s0.259-0.029,0.374-0.079l0.555,6.903
		c0.04,0.486,0.445,0.853,0.923,0.853c0.024,0,0.05-0.001,0.075-0.003c0.51-0.041,0.89-0.487,0.849-0.997l-0.614-7.639v-5.271
		c0.392,0.111,0.656,0.206,0.664,0.209c0.004,0.002,0.007,0.002,0.01,0.003c0.004,0.001,0.005,0.002,0.008,0.003l3.705,1.235
		c0.081,0.026,0.164,0.04,0.244,0.04c0.323,0,0.625-0.205,0.732-0.527c0.134-0.405-0.084-0.842-0.488-0.977l-3.704-1.235
		c-0.168-0.06-1.667-0.583-3.046-0.651l-0.184,0.369h-0.005l0.52,4.048l-0.617,1.08l-0.618-1.08l0.52-4.048h-0.005l-0.183-0.369
		c-1.432,0.071-2.994,0.633-3.064,0.657C17.546,18.219,17.528,18.24,17.503,18.253z"/>
	<rect x="27.569" y="21.419" width="1.266" height="3.568"/>
	<rect x="29.471" y="19.817" width="1.266" height="5.17"/>
	<rect x="31.374" y="17.849" width="1.266" height="7.139"/>
</g>
</svg>
