<?xml version="1.0" encoding="utf-8"?>
<!-- Generator: Adobe Illustrator 16.0.0, SVG Export Plug-In . SVG Version: 6.00 Build 0)  -->
<!DOCTYPE svg PUBLIC "-//W3C//DTD SVG 1.1//EN" "http://www.w3.org/Graphics/SVG/1.1/DTD/svg11.dtd">
<svg version="1.1" id="Layer_3" xmlns="http://www.w3.org/2000/svg" xmlns:xlink="http://www.w3.org/1999/xlink" x="0px" y="0px"
	 width="126px" height="126px" viewBox="0 0 126 126" enable-background="new 0 0 126 126" xml:space="preserve">
<g>
	<path d="M78.929,64.771c-3.37-0.986-6.905,0.945-7.893,4.318c-0.987,3.371,0.943,6.902,4.314,7.893
		c3.37,0.986,6.905-0.945,7.893-4.314C84.23,69.297,82.3,65.764,78.929,64.771z"/>
	<polygon points="43.824,17.775 43.041,16.199 37.634,18.885 38.417,20.461 40.159,19.596 42.919,25.154 44.847,24.195 
		42.086,18.639 	"/>
	<path d="M56.319,14.135l0.453-4.758l-2.2,1.094l-0.144,2.822l-2.384-1.566l-2.137,1.061l3.956,2.381l-0.494,4.311l-5.594-5.668
		l-2.572,1.277l1.23,8.32l2.119-1.053l-0.304-1.516l2.318-1.152l1.016,1.164l1.727-0.859l0.38-0.189l1.801-0.895l0.268-2.914
		l2.499,1.541l2.229-1.109L56.319,14.135z M47.863,19.059c-0.26-1.266-0.442-2.107-0.544-2.533
		c-0.103-0.424-0.181-0.725-0.234-0.906c0.121,0.162,0.335,0.426,0.644,0.787c0.307,0.363,0.562,0.658,0.762,0.883l0.89,1.018
		L47.863,19.059z"/>
	<polygon points="69.225,13.145 69.642,11.777 71.971,12.488 72.446,10.934 68.209,9.643 66.023,16.809 67.931,17.393 
		68.751,14.699 70.898,15.354 71.373,13.801 	"/>
	<path d="M77.845,14.896c0.431-1.412-0.328-2.416-2.276-3.01L73.22,11.17l-2.187,7.168l1.937,0.59l0.795-2.609l0.49,0.15
		l0.724,3.072l2.197,0.67l-1.136-3.76C76.99,16.244,77.591,15.727,77.845,14.896z M75.862,14.389
		c-0.183,0.596-0.612,0.793-1.289,0.586l-0.363-0.109l0.5-1.639l0.383,0.117C75.755,13.547,76.012,13.895,75.862,14.389z"/>
	<polygon points="82.405,18.602 82.88,17.049 80.732,16.393 81.076,15.266 83.395,15.973 83.869,14.418 79.614,13.119 
		77.427,20.287 81.682,21.588 82.165,20.008 79.845,19.301 80.258,17.947 	"/>
	<polygon points="82.536,21.848 86.792,23.143 87.274,21.566 84.955,20.859 85.368,19.506 87.515,20.16 87.989,18.605 
		85.842,17.951 86.186,16.822 88.505,17.531 88.978,15.977 84.723,14.68 	"/>
	<path d="M89.396,7.432c-2.151-3.166-5.407-5.303-9.166-6.021c-0.891-0.17-1.798-0.256-2.698-0.256c-6.86,0-12.773,4.9-14.06,11.648
		c-0.198,1.039-0.309,2.234-0.339,3.525c-0.249-2.076-0.651-3.979-1.195-5.492c-2.04-5.672-7.458-9.482-13.483-9.482
		c-1.65,0-3.282,0.285-4.849,0.852c-3.601,1.293-6.482,3.914-8.113,7.377c-1.63,3.461-1.815,7.352-0.52,10.951
		c2.291,6.371,11.813,18.137,19.353,18.137c0.597,0,1.175-0.072,1.725-0.217c0.826,0.67,1.658,1.67,1.193,2.785
		c-0.342,0.822,0.489,0.467,1.513-0.268l5.901,18.012c-0.558,0.385-0.957,0.994-1.048,1.719c-1.105,8.783-0.029,15.91,2.882,19.072
		c0.036,0.039,0.072,0.074,0.108,0.111c-0.065,0.16-0.123,0.324-0.173,0.496l-3.95,13.471c-0.09,0.305-0.14,0.607-0.171,0.912
		c-0.139,0.332-0.217,0.695-0.223,1.078l-0.256,21.795c-0.019,1.611,1.271,2.934,2.884,2.955h0.036c1.595,0,2.897-1.287,2.916-2.887
		l0.195-16.469c0.144,0.027,0.288,0.053,0.431,0.07l-0.154,20.598c-0.012,1.611,1.284,2.93,2.896,2.941h0.023
		c1.601,0,2.905-1.293,2.917-2.898l0.171-22.791c0.362-0.475,0.647-1.021,0.829-1.641l1.9-6.482
		c-0.03,2.818-0.448,6.227-1.386,10.111c-0.319,1.326,0.496,2.66,1.822,2.98c0.193,0.045,0.388,0.068,0.581,0.068
		c1.115,0,2.126-0.76,2.398-1.889c2.789-11.557,1.654-20.701-2.96-23.867c-0.105-0.072-0.217-0.125-0.329-0.178
		c-0.394-0.359-0.823-0.674-1.275-0.932l-0.014-0.006l-1.929,1.113l-1.071-1.975c-0.73-0.033-1.479,0.049-2.2,0.24
		c-0.135-0.006-0.31-0.191-0.385-0.273c-1.49-1.619-2.631-7.037-1.614-15.105c0.133-1.055-0.42-2.033-1.31-2.496l3.535-16.449
		c0.41,0.168,0.615,0.094,0.415-0.389c-0.52-1.25,0.584-2.355,1.487-3.012c0.137,0.037,0.272,0.076,0.411,0.104
		c0.391,0.076,0.795,0.113,1.201,0.113c7.721,0,16-13.828,17.372-21.025C92.338,14.41,91.548,10.596,89.396,7.432z M73.701,78.658
		l0.028,0.008l-0.15,1.092c-0.08,0.264-0.12,0.529-0.109,0.799l-1.154,8.381l-2.062,1.582l-0.029-0.008l-0.88-2.445L73.701,78.658z
		 M55.739,35.938c-0.434,0.156-0.91,0.234-1.413,0.234c-5.897,0-14.767-10.273-17-16.484c-2.207-6.137,0.99-12.924,7.127-15.133
		c1.295-0.465,2.641-0.701,4.002-0.701c4.974,0,9.447,3.146,11.131,7.828C61.923,18.178,61.604,33.826,55.739,35.938z
		 M65.872,57.873l-5.866-17.906c1.054-0.938,1.897-1.939,1.446-2.125c-0.731-0.301-1.888-0.563-1.94-1.631
		c1.867-2.152,3.133-5.654,3.657-10.25c0.154-1.352,0.237-2.754,0.253-4.152c0.25,2.061,0.653,4.16,1.198,6.123
		c1.042,3.76,2.487,6.664,4.22,8.584c0.278,1.443-1.076,1.738-1.897,2.076c-0.589,0.242,1.027,1.877,2.44,2.941L65.872,57.873z
		 M89.167,17.701c-1.192,6.252-8.849,18.992-14.917,18.992c-0.249,0-0.495-0.021-0.733-0.068c-2.611-0.496-4.977-3.908-6.488-9.361
		c-1.315-4.74-1.767-10.496-1.101-13.992c1.063-5.572,5.943-9.617,11.604-9.617c0.743,0,1.494,0.072,2.23,0.213
		c3.104,0.59,5.791,2.355,7.567,4.969C89.106,11.447,89.758,14.596,89.167,17.701z"/>
</g>
</svg>
