<?xml version="1.0" encoding="utf-8"?>
<!-- Generator: Adobe Illustrator 16.0.0, SVG Export Plug-In . SVG Version: 6.00 Build 0)  -->
<!DOCTYPE svg PUBLIC "-//W3C//DTD SVG 1.1//EN" "http://www.w3.org/Graphics/SVG/1.1/DTD/svg11.dtd">
<svg version="1.1" id="Layer_1" xmlns="http://www.w3.org/2000/svg" xmlns:xlink="http://www.w3.org/1999/xlink" x="0px" y="0px"
	 width="50px" height="50px" viewBox="0 0 50 50" enable-background="new 0 0 50 50" xml:space="preserve">
<g>
	<path d="M12.46,21.04c1.249,0,2.261-1.448,2.261-2.695c0-1.25-1.012-2.262-2.261-2.262c-1.248,0-2.261,1.012-2.261,2.262
		C10.199,19.592,11.212,21.04,12.46,21.04z"/>
	<path d="M17.3,29.747l-2.336-0.47v-5.844c0.064,0.019,0.122,0.034,0.179,0.052v3.64c0,0.339,0.192,0.649,0.494,0.801l1.432,0.715
		c0.128,0.063,0.266,0.095,0.398,0.095c0.329,0,0.645-0.181,0.801-0.495c0.221-0.441,0.042-0.978-0.401-1.199l-0.934-0.467v-3.74
		c0-0.009-0.006-0.016-0.006-0.024c-0.002-0.066-0.023-0.128-0.038-0.192c-0.013-0.049-0.019-0.102-0.038-0.146
		c-0.021-0.053-0.062-0.095-0.093-0.141c-0.034-0.047-0.062-0.099-0.104-0.139c-0.034-0.033-0.08-0.055-0.124-0.084
		c-0.054-0.037-0.104-0.079-0.169-0.104c-0.007-0.002-0.013-0.009-0.02-0.012c-0.082-0.028-1.892-0.679-3.551-0.76l-0.211,0.426
		h-0.006l0.602,4.69l-0.716,1.25l-0.716-1.25l0.604-4.69H12.34l-0.212-0.426c-1.658,0.081-3.468,0.731-3.55,0.76
		c-0.007,0.003-0.011,0.01-0.018,0.012c-0.065,0.025-0.118,0.066-0.173,0.105c-0.042,0.028-0.087,0.049-0.122,0.081
		c-0.042,0.042-0.068,0.093-0.104,0.142c-0.03,0.046-0.069,0.086-0.091,0.137c-0.021,0.047-0.025,0.1-0.04,0.149
		c-0.015,0.063-0.036,0.125-0.038,0.19c0,0.008-0.004,0.015-0.004,0.023l-0.007,3.247c0,0.222,0.082,0.435,0.229,0.6l0.075,0.082
		c-0.042-0.005-0.08-0.024-0.124-0.024c-0.494,0-0.894,0.4-0.894,0.895v2.354v0.717v7.056c0,0.494,0.399,0.896,0.894,0.896h6.086
		c0.494,0,0.895-0.401,0.895-0.896v-6.255l0.919,0.186l0.335,6.13c0.03,0.57,0.505,1.014,1.07,1.014c0.02,0,0.04-0.001,0.06-0.002
		c0.591-0.032,1.045-0.538,1.013-1.13l-0.38-6.959C18.134,30.252,17.779,29.844,17.3,29.747z M9.776,23.486
		c0.058-0.018,0.118-0.034,0.18-0.053v2.511l-0.184-0.205L9.776,23.486z M9.956,28.62v0.868l-0.899-0.211v-1.646
		c0-0.007-0.004-0.011-0.004-0.018L9.956,28.62z M13.354,36.863H9.057v-5.749l4.298,1.01V36.863z"/>
	<path d="M37.538,21.04c1.25,0,2.263-1.448,2.263-2.695c0-1.25-1.013-2.262-2.263-2.262c-1.247,0-2.261,1.012-2.261,2.262
		C35.277,19.592,36.291,21.04,37.538,21.04z"/>
	<path d="M41.838,26.736c-0.046,0-0.084,0.02-0.126,0.024l0.075-0.082c0.148-0.165,0.23-0.378,0.229-0.6l-0.005-3.247
		c0-0.009-0.006-0.016-0.006-0.023c-0.002-0.065-0.021-0.127-0.038-0.19c-0.013-0.05-0.017-0.103-0.038-0.149
		c-0.021-0.051-0.061-0.091-0.093-0.137c-0.033-0.049-0.06-0.1-0.102-0.142c-0.035-0.032-0.082-0.053-0.122-0.081
		c-0.057-0.039-0.109-0.08-0.173-0.105c-0.007-0.002-0.011-0.009-0.02-0.012c-0.082-0.028-1.89-0.679-3.549-0.76l-0.213,0.426
		h-0.006l0.602,4.69l-0.716,1.25l-0.714-1.25l0.602-4.69H37.42l-0.213-0.426c-1.659,0.081-3.469,0.731-3.551,0.76
		c-0.007,0.003-0.013,0.01-0.018,0.012c-0.064,0.024-0.116,0.066-0.171,0.104c-0.042,0.029-0.088,0.051-0.124,0.084
		c-0.042,0.04-0.069,0.092-0.102,0.139c-0.031,0.046-0.071,0.088-0.095,0.141c-0.02,0.045-0.023,0.098-0.036,0.146
		c-0.017,0.064-0.038,0.126-0.04,0.192c0,0.009-0.004,0.016-0.004,0.024v3.74l-0.936,0.467c-0.443,0.222-0.621,0.758-0.399,1.199
		c0.156,0.314,0.472,0.495,0.799,0.495c0.135,0,0.271-0.031,0.4-0.095l1.43-0.715c0.304-0.151,0.494-0.462,0.494-0.801v-3.64
		c0.057-0.018,0.116-0.033,0.181-0.052v5.844l-2.337,0.47c-0.479,0.097-0.833,0.505-0.86,0.993l-0.38,6.959
		c-0.032,0.592,0.422,1.098,1.015,1.13c0.02,0.001,0.038,0.002,0.058,0.002c0.567,0,1.04-0.443,1.072-1.014l0.335-6.13l0.917-0.186
		v6.255c0,0.494,0.4,0.896,0.895,0.896h6.088c0.492,0,0.894-0.401,0.894-0.896v-7.056v-0.717v-2.354
		C42.731,27.137,42.33,26.736,41.838,26.736z M40.042,23.434c0.063,0.019,0.124,0.035,0.18,0.053l0.004,2.253l-0.184,0.205V23.434z
		 M40.943,36.863h-4.3v-4.739l4.3-1.01V36.863z M40.943,27.631v1.646l-0.901,0.211V28.62l0.905-1.007
		C40.947,27.62,40.943,27.624,40.943,27.631z"/>
	<path d="M28.934,26.438h-7.869c-0.592,0-1.072,0.48-1.072,1.073c0,0.592,0.48,1.072,1.072,1.072h0.2v9.173
		c0,0.494,0.399,0.896,0.895,0.896h5.682c0.495,0,0.896-0.401,0.896-0.896v-9.173h0.196c0.593,0,1.074-0.48,1.074-1.072
		C30.008,26.919,29.526,26.438,28.934,26.438z"/>
	<path d="M31.882,18.071v-3.225c0-0.429-0.352-0.78-0.779-0.78h-3.59v-1.874c0-0.562-0.461-1.023-1.024-1.023h-7.348
		c-0.562,0-1.023,0.461-1.023,1.023v4.23c0,0.563,0.461,1.022,1.023,1.022h0.502l-1.426,2.16l4.057-2.16h2.446v0.626
		c0,0.43,0.352,0.78,0.781,0.78h3.213l3.092,1.646l-1.087-1.646h0.384C31.53,18.852,31.882,18.501,31.882,18.071z M22.284,16.665
		c-0.459,0-0.831-0.372-0.831-0.831c0-0.46,0.372-0.832,0.831-0.832c0.458,0,0.832,0.372,0.832,0.832
		C23.116,16.293,22.742,16.665,22.284,16.665z M25,16.665c-0.459,0-0.831-0.372-0.831-0.831c0-0.46,0.372-0.832,0.831-0.832
		s0.832,0.372,0.832,0.832C25.832,16.293,25.459,16.665,25,16.665z M27.717,16.665c-0.459,0-0.832-0.372-0.832-0.831
		c0-0.46,0.373-0.832,0.832-0.832c0.458,0,0.831,0.372,0.831,0.832C28.548,16.293,28.175,16.665,27.717,16.665z"/>
</g>
</svg>
