<?xml version="1.0" encoding="utf-8"?>
<!-- Generator: Adobe Illustrator 16.0.0, SVG Export Plug-In . SVG Version: 6.00 Build 0)  -->
<!DOCTYPE svg PUBLIC "-//W3C//DTD SVG 1.1//EN" "http://www.w3.org/Graphics/SVG/1.1/DTD/svg11.dtd">
<svg version="1.1" id="Layer_1" xmlns="http://www.w3.org/2000/svg" xmlns:xlink="http://www.w3.org/1999/xlink" x="0px" y="0px"
	 width="50px" height="50px" viewBox="0 0 50 50" enable-background="new 0 0 50 50" xml:space="preserve">
<g>
	<path d="M25.262,26.236l0.514-0.589c-0.249,0.089-0.505,0.143-0.776,0.143c-0.271,0-0.527-0.055-0.777-0.145l0.514,0.591h0.014
		l-1.324,3.203l1.574,1.572l1.575-1.572l-1.325-3.203H25.262z"/>
	<path d="M33.346,10.834H16.654c-1.784,0-3.234,1.449-3.234,3.232v0.735h2.02c0.67,0,1.212,0.544,1.212,1.212
		c0,0.669-0.542,1.211-1.212,1.211h-2.02v2.07h2.02c0.67,0,1.212,0.544,1.212,1.212c0,0.669-0.542,1.211-1.212,1.211h-2.02v2.07
		h2.02c0.67,0,1.212,0.543,1.212,1.212s-0.542,1.212-1.212,1.212h-2.02v2.07h2.02c0.67,0,1.212,0.542,1.212,1.211
		c0,0.668-0.542,1.212-1.212,1.212h-2.02v2.07h2.02c0.67,0,1.212,0.542,1.212,1.211c0,0.668-0.542,1.212-1.212,1.212h-2.02v0.735
		c0,1.783,1.45,3.232,3.234,3.232h16.691c1.784,0,3.234-1.449,3.234-3.232V14.066C36.58,12.283,35.13,10.834,33.346,10.834z
		 M19.383,29.627c0-1.562,1.802-3.675,4.229-4.291c-1.014-0.682-1.714-2.032-1.714-3.246c0-1.712,1.388-3.104,3.102-3.104
		c1.715,0,3.103,1.392,3.103,3.104c0,1.214-0.7,2.564-1.716,3.246c2.43,0.616,4.23,2.729,4.23,4.291
		C30.616,31.476,19.383,31.476,19.383,29.627z"/>
</g>
</svg>
