<?xml version="1.0" encoding="utf-8"?>
<!-- Generator: Adobe Illustrator 16.0.0, SVG Export Plug-In . SVG Version: 6.00 Build 0)  -->
<!DOCTYPE svg PUBLIC "-//W3C//DTD SVG 1.1//EN" "http://www.w3.org/Graphics/SVG/1.1/DTD/svg11.dtd">
<svg version="1.1" id="Layer_1" xmlns="http://www.w3.org/2000/svg" xmlns:xlink="http://www.w3.org/1999/xlink" x="0px" y="0px"
	 width="50px" height="50px" viewBox="0 0 50 50" enable-background="new 0 0 50 50" xml:space="preserve">
<g>
	<path d="M40.845,12.551h-7.75v-1.5c0-0.414-0.336-0.75-0.75-0.75s-0.75,0.336-0.75,0.75v1.5h-7.75c-1.103,0-2,0.897-2,2v2.633
		l-1.041-0.347c-0.272-0.097-2.698-0.942-4.933-1.052l-0.298,0.595h-0.008l0.842,6.556l-1,1.747l-1-1.747l0.842-6.556H15.24
		l-0.297-0.596c-2.318,0.114-4.849,1.022-4.962,1.063c-0.041,0.015-0.068,0.046-0.106,0.065c-0.082,0.039-0.157,0.083-0.229,0.139
		c-0.061,0.047-0.112,0.097-0.161,0.154c-0.055,0.061-0.102,0.124-0.144,0.196s-0.073,0.146-0.101,0.226
		c-0.015,0.044-0.044,0.078-0.055,0.125l-2,9c-0.149,0.674,0.275,1.341,0.949,1.491c0.092,0.021,0.183,0.03,0.272,0.03
		c0.573,0,1.09-0.397,1.22-0.979l1.846-8.305c0.129-0.04,0.275-0.083,0.434-0.127v8.532l-0.995,12.371
		c-0.066,0.826,0.549,1.549,1.375,1.615c0.041,0.003,0.081,0.005,0.122,0.005c0.773,0,1.43-0.595,1.493-1.38l0.899-11.181
		c0.186,0.082,0.39,0.129,0.605,0.129s0.42-0.047,0.605-0.129l0.899,11.181c0.063,0.785,0.72,1.38,1.493,1.38
		c0.041,0,0.081-0.001,0.122-0.005c0.826-0.066,1.441-0.79,1.375-1.615l-0.995-12.371v-8.532c0.635,0.18,1.064,0.333,1.075,0.336
		c0.005,0.002,0.01,0.001,0.016,0.002c0.005,0.002,0.009,0.006,0.014,0.008l1.833,0.611v6.732c0,1.103,0.897,2,2,2h3.641
		l-3.193,11.92c-0.107,0.4,0.131,0.811,0.53,0.918c0.065,0.017,0.131,0.025,0.194,0.025c0.332,0,0.635-0.221,0.725-0.556
		l3.297-12.308h2.557v8.722c0,0.414,0.336,0.75,0.75,0.75s0.75-0.336,0.75-0.75v-8.722h2.557l3.297,12.308
		c0.09,0.335,0.393,0.556,0.725,0.556c0.063,0,0.129-0.008,0.194-0.025c0.399-0.107,0.638-0.519,0.53-0.918l-3.193-11.92h3.641
		c1.103,0,2-0.897,2-2v-12C42.845,13.448,41.947,12.551,40.845,12.551z M41.845,26.551c0,0.551-0.448,1-1,1h-17
		c-0.552,0-1-0.449-1-1v-6.398l3.167,1.056c0.132,0.043,0.265,0.064,0.396,0.064c0.523,0,1.012-0.332,1.186-0.855
		c0.029-0.088,0.023-0.176,0.032-0.265l7.515-3.477c0.125-0.058,0.18-0.207,0.121-0.332c-0.058-0.125-0.206-0.181-0.332-0.122
		l-7.358,3.405c-0.121-0.357-0.383-0.662-0.768-0.791l-3.958-1.319v-2.966c0-0.551,0.448-1,1-1h17c0.552,0,1,0.449,1,1V26.551z"/>
	<path d="M15.407,15.516c1.744,0,3.16-2.024,3.16-3.769c0-1.746-1.416-3.161-3.16-3.161c-1.746,0-3.162,1.416-3.162,3.161
		C12.245,13.492,13.661,15.516,15.407,15.516z"/>
	<path d="M33.832,21.445l0.518-0.323l-0.507-0.812l-0.517,0.323c-0.236-0.253-0.516-0.451-0.821-0.588l0.137-0.593l-0.933-0.215
		l-0.136,0.594c-0.334-0.013-0.673,0.042-0.996,0.167l-0.324-0.518l-0.811,0.507l0.324,0.518c-0.254,0.236-0.452,0.516-0.588,0.822
		l-0.594-0.137l-0.215,0.932l0.594,0.137c-0.012,0.334,0.043,0.672,0.168,0.996l-0.518,0.323l0.507,0.812l0.519-0.324
		c0.234,0.255,0.515,0.452,0.821,0.587l-0.137,0.593l0.932,0.216l0.138-0.594c0.333,0.013,0.672-0.042,0.996-0.167l0.322,0.518
		l0.811-0.507l-0.322-0.517c0.253-0.235,0.452-0.517,0.587-0.821l0.594,0.137l0.214-0.933L34,22.44
		C34.012,22.106,33.957,21.767,33.832,21.445z M32.391,23.808c-0.805,0.502-1.864,0.258-2.368-0.547
		c-0.502-0.804-0.258-1.865,0.546-2.368c0.805-0.502,1.866-0.258,2.37,0.547C33.441,22.244,33.195,23.306,32.391,23.808z"/>
	<path d="M39.013,19.924l-0.46,0.156c-0.137-0.239-0.317-0.444-0.529-0.606l0.215-0.435l-0.685-0.338l-0.214,0.436
		c-0.257-0.07-0.53-0.09-0.803-0.052l-0.157-0.461l-0.722,0.245l0.156,0.461c-0.24,0.136-0.445,0.318-0.606,0.53l-0.436-0.215
		l-0.338,0.684l0.436,0.215c-0.07,0.257-0.09,0.529-0.052,0.804l-0.46,0.156l0.244,0.722l0.462-0.156
		c0.135,0.24,0.317,0.445,0.529,0.606l-0.215,0.435l0.684,0.338l0.215-0.435c0.257,0.071,0.529,0.09,0.803,0.052l0.156,0.461
		l0.722-0.245l-0.156-0.46c0.24-0.136,0.445-0.318,0.606-0.53l0.436,0.215l0.337-0.684l-0.435-0.215
		c0.071-0.257,0.09-0.53,0.053-0.803l0.46-0.156L39.013,19.924z M37.247,22.372c-0.716,0.243-1.493-0.141-1.737-0.857
		c-0.242-0.716,0.142-1.495,0.857-1.738c0.717-0.242,1.495,0.142,1.738,0.858C38.348,21.351,37.963,22.129,37.247,22.372z"/>
</g>
</svg>
