<?xml version="1.0" encoding="utf-8"?>
<!-- Generator: Adobe Illustrator 16.0.0, SVG Export Plug-In . SVG Version: 6.00 Build 0)  -->
<!DOCTYPE svg PUBLIC "-//W3C//DTD SVG 1.1//EN" "http://www.w3.org/Graphics/SVG/1.1/DTD/svg11.dtd">
<svg version="1.1" id="Layer_1" xmlns="http://www.w3.org/2000/svg" xmlns:xlink="http://www.w3.org/1999/xlink" x="0px" y="0px"
	 width="126px" height="126px" viewBox="0 0 126 126" enable-background="new 0 0 126 126" xml:space="preserve">
<g>
	<circle cx="25.73" cy="50.184" r="7.824"/>
	<path d="M25.726,36.447C12,36.447,0.833,47.612,0.833,61.339S12,86.231,25.726,86.231c13.726,0,24.893-11.166,24.893-24.893
		S39.452,36.447,25.726,36.447z M17.722,81.736c-0.339-0.132-0.673-0.273-1.003-0.423c-0.749-3.5-0.083-8.947,1.003-10.837V81.736z
		 M25.749,75.912h-0.037l-1.887-2.582l1.887-12.616h0.037l1.887,12.616L25.749,75.912z M34.734,81.313
		c-0.328,0.148-0.66,0.288-0.995,0.42V70.492C34.819,72.379,35.481,77.82,34.734,81.313z M40.87,77.162
		c0.031-0.577,0.055-1.072,0.071-1.358c0.503-9.215-7.059-14.083-10.005-15.892c-0.131-0.08-0.271-0.138-0.409-0.197
		c-0.871-0.58-1.849-1.006-2.847-1.253l-1.949,1.964l-1.89-1.985c-0.007,0.002-0.013,0.003-0.02,0.004
		c-1.019,0.244-2.016,0.679-2.903,1.275c-0.135,0.058-0.272,0.114-0.401,0.192c-2.923,1.794-10.389,6.599-10.016,15.673
		c0.014,0.331,0.038,0.907,0.073,1.569c-4.165-3.992-6.766-9.604-6.766-15.815c0-12.086,9.832-21.918,21.918-21.918
		c12.085,0,21.918,9.832,21.918,21.918C47.645,67.555,45.041,73.169,40.87,77.162z"/>
	<path d="M92.55,16.275l1.811,0.671c-0.145,1.317-0.097,2.666,0.151,4.003l-1.748,0.807c-1.093,0.502-1.569,1.799-1.069,2.89
		l1.024,2.218c0.502,1.09,1.798,1.571,2.891,1.066l1.748-0.805c0.855,1.06,1.849,1.969,2.944,2.719l-0.668,1.809
		c-0.203,0.545-0.179,1.137,0.064,1.667c0.244,0.528,0.679,0.933,1.225,1.134l2.291,0.845c0.545,0.202,1.136,0.178,1.666-0.063
		c0.528-0.244,0.931-0.68,1.132-1.227l0.67-1.811c1.317,0.144,2.664,0.098,4.003-0.15l0.804,1.749
		c0.504,1.089,1.802,1.57,2.893,1.065l2.216-1.02c1.095-0.504,1.571-1.8,1.069-2.893l-0.806-1.748
		c1.059-0.856,1.97-1.848,2.718-2.944l1.811,0.67c0.547,0.202,1.138,0.178,1.668-0.066c0.528-0.243,0.929-0.679,1.132-1.224
		l0.845-2.289c0.416-1.127-0.162-2.384-1.289-2.8l-1.811-0.668c0.143-1.321,0.097-2.667-0.153-4.005l1.75-0.806
		c1.091-0.502,1.569-1.801,1.067-2.894l-1.019-2.214c-0.505-1.092-1.802-1.572-2.893-1.069l-1.75,0.807
		c-0.855-1.059-1.847-1.969-2.942-2.719l0.668-1.809c0.414-1.128-0.164-2.385-1.291-2.801l-2.289-0.846
		c-1.093-0.402-2.396,0.199-2.8,1.29l-0.668,1.81c-1.319-0.142-2.664-0.095-4.002,0.151l-0.806-1.746
		c-0.502-1.092-1.8-1.571-2.893-1.069l-2.216,1.021c-1.091,0.503-1.569,1.802-1.069,2.893l0.809,1.749
		c-1.059,0.856-1.97,1.848-2.72,2.944L94.908,9.9c-1.093-0.406-2.399,0.194-2.802,1.287l-0.845,2.291
		c-0.203,0.546-0.179,1.138,0.065,1.667C91.572,15.673,92.005,16.076,92.55,16.275z M104.539,10.583
		c1.142-0.526,2.354-0.792,3.602-0.792c3.356,0,6.432,1.967,7.837,5.014c1.985,4.318,0.093,9.448-4.225,11.438
		c-1.142,0.524-2.354,0.791-3.604,0.791c-3.354,0-6.429-1.969-7.833-5.015C98.329,17.7,100.224,12.57,104.539,10.583z"/>
	<path d="M123.743,64.666l-1.811-0.668c0.143-1.321,0.097-2.666-0.153-4.005l1.75-0.805c1.091-0.503,1.569-1.801,1.067-2.894
		l-1.019-2.215c-0.505-1.092-1.802-1.572-2.893-1.069l-1.75,0.808c-0.855-1.06-1.847-1.969-2.942-2.72l0.668-1.808
		c0.414-1.129-0.164-2.385-1.291-2.801l-2.289-0.847c-1.093-0.401-2.396,0.199-2.8,1.29l-0.668,1.81
		c-1.319-0.141-2.664-0.095-4.002,0.152l-0.806-1.747c-0.502-1.092-1.8-1.571-2.893-1.069L99.695,47.1
		c-1.091,0.504-1.569,1.802-1.069,2.893l0.809,1.749c-1.059,0.856-1.97,1.849-2.72,2.944l-1.806-0.667
		c-1.093-0.406-2.399,0.195-2.802,1.288l-0.845,2.29c-0.203,0.546-0.179,1.138,0.065,1.667c0.246,0.528,0.679,0.931,1.224,1.131
		l1.811,0.67c-0.145,1.318-0.097,2.666,0.151,4.004l-1.748,0.806c-1.093,0.502-1.569,1.799-1.069,2.89l1.024,2.218
		c0.502,1.091,1.798,1.571,2.891,1.066l1.748-0.805c0.855,1.06,1.849,1.969,2.944,2.719l-0.668,1.809
		c-0.203,0.545-0.179,1.137,0.064,1.667c0.244,0.528,0.679,0.933,1.225,1.134l2.291,0.845c0.545,0.202,1.136,0.178,1.666-0.063
		c0.528-0.244,0.931-0.68,1.132-1.227l0.67-1.811c1.317,0.144,2.664,0.098,4.003-0.15l0.804,1.749
		c0.504,1.09,1.802,1.57,2.893,1.065l2.216-1.019c1.095-0.505,1.571-1.8,1.069-2.893l-0.806-1.748
		c1.059-0.857,1.97-1.849,2.718-2.944l1.811,0.669c0.547,0.202,1.138,0.178,1.668-0.065c0.528-0.244,0.929-0.68,1.132-1.225
		l0.845-2.289C125.448,66.339,124.87,65.082,123.743,64.666z M111.752,70.36c-1.142,0.525-2.354,0.791-3.604,0.791
		c-3.354,0-6.429-1.969-7.833-5.015c-1.987-4.318-0.092-9.447,4.223-11.435c1.142-0.527,2.354-0.792,3.602-0.792
		c3.356,0,6.432,1.966,7.837,5.013C117.962,63.241,116.07,68.371,111.752,70.36z"/>
	<path d="M123.743,109.713l-1.811-0.668c0.143-1.32,0.097-2.666-0.153-4.004l1.75-0.806c1.091-0.502,1.569-1.801,1.067-2.894
		l-1.019-2.215c-0.505-1.092-1.802-1.572-2.893-1.068l-1.75,0.807c-0.855-1.059-1.847-1.969-2.942-2.719l0.668-1.809
		c0.414-1.128-0.164-2.385-1.291-2.801l-2.289-0.846c-1.093-0.402-2.396,0.199-2.8,1.29l-0.668,1.81
		c-1.319-0.142-2.664-0.096-4.002,0.151l-0.806-1.747c-0.502-1.092-1.8-1.571-2.893-1.068l-2.216,1.021
		c-1.091,0.503-1.569,1.802-1.069,2.892l0.809,1.75c-1.059,0.856-1.97,1.848-2.72,2.943l-1.806-0.666
		c-1.093-0.406-2.399,0.194-2.802,1.287l-0.845,2.29c-0.203,0.547-0.179,1.139,0.065,1.667c0.246,0.528,0.679,0.932,1.224,1.131
		l1.811,0.67c-0.145,1.318-0.097,2.667,0.151,4.004l-1.748,0.807c-1.093,0.502-1.569,1.799-1.069,2.889l1.024,2.219
		c0.502,1.09,1.798,1.57,2.891,1.066l1.748-0.805c0.855,1.059,1.849,1.969,2.944,2.719l-0.668,1.809
		c-0.203,0.545-0.179,1.137,0.064,1.667c0.244,0.528,0.679,0.932,1.225,1.134l2.291,0.845c0.545,0.201,1.136,0.178,1.666-0.063
		c0.528-0.245,0.931-0.68,1.132-1.227l0.67-1.811c1.317,0.144,2.664,0.097,4.003-0.15l0.804,1.748
		c0.504,1.09,1.802,1.57,2.893,1.066l2.216-1.02c1.095-0.504,1.571-1.8,1.069-2.893l-0.806-1.748
		c1.059-0.856,1.97-1.848,2.718-2.944l1.811,0.669c0.547,0.203,1.138,0.178,1.668-0.065c0.528-0.243,0.929-0.679,1.132-1.224
		l0.845-2.289C125.448,111.386,124.87,110.129,123.743,109.713z M111.752,115.408c-1.142,0.524-2.354,0.791-3.604,0.791
		c-3.354,0-6.429-1.969-7.833-5.015c-1.987-4.318-0.092-9.448,4.223-11.436c1.142-0.526,2.354-0.792,3.602-0.792
		c3.356,0,6.432,1.967,7.837,5.014C117.962,108.289,116.07,113.418,111.752,115.408z"/>
	<polygon points="74.38,60.728 58.754,60.728 58.539,64.487 74.38,64.487 74.38,114.923 88.472,114.923 88.472,111.867 
		77.437,111.867 77.437,64.487 88.472,64.487 88.472,60.728 77.437,60.728 77.437,17.275 88.472,17.275 88.472,14.22 74.38,14.22 	
		"/>
</g>
</svg>
