<?xml version="1.0" encoding="utf-8"?>
<!-- Generator: Adobe Illustrator 16.0.0, SVG Export Plug-In . SVG Version: 6.00 Build 0)  -->
<!DOCTYPE svg PUBLIC "-//W3C//DTD SVG 1.1//EN" "http://www.w3.org/Graphics/SVG/1.1/DTD/svg11.dtd">
<svg version="1.1" id="Layer_1" xmlns="http://www.w3.org/2000/svg" xmlns:xlink="http://www.w3.org/1999/xlink" x="0px" y="0px"
	 width="50px" height="50px" viewBox="0 0 50 50" enable-background="new 0 0 50 50" xml:space="preserve">
<path d="M26.451,37.034c0-0.329,0.265-0.595,0.594-0.595h2.042c0.858,0.577,1.828,0.976,2.858,1.163
	c-0.042,0.009-0.082,0.025-0.127,0.025h-4.773C26.716,37.628,26.451,37.362,26.451,37.034z M25,32.281h1.058
	c-0.112-0.391-0.194-0.786-0.241-1.188H25c-0.328,0-0.594,0.266-0.594,0.595C24.406,32.016,24.672,32.281,25,32.281z M20.628,17.275
	c-0.729-0.49-1.231-1.46-1.231-2.332c0-1.231,0.997-2.23,2.229-2.23c1.232,0,2.229,0.999,2.229,2.23
	c0,0.872-0.503,1.842-1.233,2.332c1.747,0.443,3.041,1.961,3.041,3.084c0,1.328-8.073,1.328-8.073,0
	C17.589,19.236,18.884,17.719,20.628,17.275z M20.493,20.225l1.132,1.13l1.133-1.13l-0.953-2.302h0.009l0.37-0.423
	c-0.18,0.063-0.363,0.102-0.559,0.102c-0.194,0-0.379-0.039-0.559-0.104l0.369,0.425h0.01L20.493,20.225z M35.413,39.921
	l0.002-0.002l-0.029-0.05c-0.014,0-0.027,0.004-0.041,0.004H14.654c-1.07,0-1.94-0.87-1.94-1.939V12.066
	c0-1.069,0.87-1.939,1.94-1.939h20.691c1.07,0,1.94,0.87,1.94,1.939v11.839c0.464,0.293,0.903,0.626,1.294,1.016V12.066
	c0-1.783-1.45-3.232-3.234-3.232H14.654c-1.784,0-3.234,1.449-3.234,3.232v25.867c0,1.783,1.45,3.232,3.234,3.232h20.691
	c0.253,0,0.497-0.036,0.734-0.092L35.413,39.921z M18.182,29.573h7.62c0.036-0.397,0.102-0.794,0.202-1.188h-7.821
	c-0.328,0-0.593,0.266-0.593,0.594C17.589,29.308,17.854,29.573,18.182,29.573z M18.182,24.158h10.677
	c0.211-0.153,0.431-0.298,0.66-0.431c0.583-0.336,1.207-0.589,1.853-0.758H18.182c-0.328,0-0.593,0.266-0.593,0.595
	C17.589,23.893,17.854,24.158,18.182,24.158z M18.182,26.865h8.382c0.209-0.42,0.456-0.817,0.737-1.188h-9.119
	c-0.328,0-0.593,0.266-0.593,0.594S17.854,26.865,18.182,26.865z M38.479,27.227c1.656,2.869,0.67,6.552-2.201,8.207
	c-2.869,1.655-6.552,0.674-8.208-2.2c-1.657-2.868-0.67-6.55,2.198-8.207C33.138,23.37,36.822,24.356,38.479,27.227z M37.618,27.725
	c-1.384-2.395-4.457-3.218-6.851-1.838c-2.395,1.384-3.22,4.454-1.833,6.851c1.381,2.395,4.453,3.22,6.848,1.837
	C38.177,33.19,38.999,30.119,37.618,27.725z M37.789,35.064l-2.583,1.492l1.989,3.444l2.583-1.49L37.789,35.064z M40.047,38.979
	l-2.585,1.491c0.414,0.716,1.326,0.958,2.039,0.548C40.215,40.606,40.46,39.692,40.047,38.979z"/>
</svg>
