<?xml version="1.0" encoding="utf-8"?>
<!-- Generator: Adobe Illustrator 16.0.0, SVG Export Plug-In . SVG Version: 6.00 Build 0)  -->
<!DOCTYPE svg PUBLIC "-//W3C//DTD SVG 1.1//EN" "http://www.w3.org/Graphics/SVG/1.1/DTD/svg11.dtd">
<svg version="1.1" id="Layer_2" xmlns="http://www.w3.org/2000/svg" xmlns:xlink="http://www.w3.org/1999/xlink" x="0px" y="0px"
	 width="126px" height="126px" viewBox="0 0 126 126" enable-background="new 0 0 126 126" xml:space="preserve">
<g>
	<path d="M70.588,68.753c0.342-0.518,0.542-1.136,0.542-1.803l0.001-26.498c0.432-0.798,0.682-1.703,0.682-2.694v-8.946
		c0.649,2.355,0.912,5.5,0.572,9.833c-0.12,1.533,1.025,2.873,2.56,2.993c0.073,0.006,0.146,0.009,0.219,0.009
		c1.439,0,2.66-1.108,2.773-2.568c1.097-14.025-3.531-18.889-8.695-22.056c-0.12-0.073-0.247-0.126-0.373-0.18
		c-0.799-0.533-1.694-0.926-2.61-1.149l-1.786,1.798l-1.732-1.818c-0.006,0.001-0.012,0.001-0.018,0.003
		c-0.934,0.223-1.848,0.624-2.662,1.169c-0.124,0.053-0.249,0.105-0.367,0.177c-1.87,1.147-3.433,2.953-4.941,4.7
		c-3.455,3.998-4.982,5.15-7.223,4.103c-1.394-0.652-3.05-0.05-3.702,1.343c-0.651,1.393-0.049,3.05,1.343,3.701
		c1.367,0.639,2.642,0.911,3.833,0.911c3.353,0,6.025-2.16,8.128-4.369v10.345c0,0.749,0.146,1.448,0.401,2.09
		c-0.02,0.145-0.033,0.292-0.033,0.441l0.002,26.661c0.001,0.543,0.145,1.048,0.378,1.499c-13.052,2.646-22.9,14.202-22.9,28.022
		c0,14.234,10.464,26.075,24.1,28.237l1.583,0.214c0.958,0.091,1.933,0.141,2.909,0.141c15.768,0,28.595-12.823,28.595-28.592
		C92.167,83.123,82.975,71.889,70.588,68.753z M64.082,44.07c0.13,0.005,0.261,0.016,0.392,0.016c0.026,0,0.051-0.003,0.077-0.003
		V66.95c0,0.336,0.065,0.653,0.158,0.958c-0.258-0.01-0.517-0.017-0.777-0.02c0.089-0.299,0.151-0.61,0.151-0.939L64.082,44.07z
		 M64.456,17.76h0.034l1.729,11.56l-1.729,2.368h-0.034l-1.729-2.368L64.456,17.76z M69.586,121.154
		c-0.445-0.813-0.612-1.666,0.245-2.185c0.936-0.56,2.011-0.773,2.907-1.383c1.46-0.965,2.375-3.38,1.158-4.866
		c-1.483-1.81-4.348-1.95-6.506-2.091c-3.396-0.216-6.052,0.112-8.633-2.633c-1.974-2.094-3.27-5.06-6.421-5.488
		c-2.114-0.283-3.839,0.59-4.639,2.58c-0.889,2.246-0.341,5.061,0.105,7.348c0.328,1.656,0.792,3.271,1.283,4.889
		c-4.146-2.897-7.396-6.992-9.251-11.799c1.77,0.11,3.474-0.366,5.12-1.219c2.237-1.159,3.62-4.542,6.283-4.57
		c1.339-0.013,1.847-0.419,2.237-1.749c0.485-1.667-0.674-3.171-1.405-4.572c-0.422-0.795-1.647-3.172,0.057-3.362
		c1.125-0.134,2.486,0.801,3.459,1.26c2.109,0.962,4.67,0.832,6.807,0.027c1.892-0.71,3.393-2.123,4.128-3.99
		c0.468-1.21,0.652-2.44,1.301-3.597c0,0-3.318-0.267-5.59,2.224c-2.298,2.489-2.298,1.179-3.699,0.956
		c-0.893-0.142-0.182-0.539,0.019-1.098c0.652-1.736-2.558-2.531-4.021-2.876c0.833-1.209,2.66-1.888,3.839-2.651
		c0.509-0.337,1.688-1.208,1.099-1.97c-0.974-1.273-3.151-1.405-4.593-1.293c-2.931,0.226-5.57,2.055-8.067,0.367
		c4.471-3.943,10.34-6.34,16.765-6.34c8.58,0,16.156,4.269,20.747,10.783c-2.315,3.189-8.839,1.41-12.194,2.04
		c-1.583,0.305-3.474,1.504-3.981,3.13c-0.589,1.991,2.112,2.317,1.015,4.472c-0.93,1.857-3.673,1.799-4.614,3.85
		c-0.646,1.432-0.142,2.948,0.941,3.983c2.517,2.427,6.724,2.409,10.015,3.108c-0.998,2.756-0.972,5.782,2.418,6.586
		c2.725,0.639,5.872-0.235,8.475-1.414C83.122,114.305,76.984,119.354,69.586,121.154z"/>
	<circle cx="64.473" cy="8.107" r="7.171"/>
	<path d="M43.584,25.223c2.22,0,3.845-0.282,5.72-1.126l-0.563-1.812c-1.25,0.656-2.937,1-4.532,1c-4.656,0-8.001-2.969-8.001-8.188
		c0-5.97,4.187-9.721,8.97-9.721c4.844,0,7.47,3.157,7.47,7.22c0,3.594-1.688,5.313-3.031,5.281
		c-0.875-0.031-1.094-0.875-0.781-2.719l0.938-5.782c-0.782-0.438-2.344-0.781-3.72-0.781c-4.5,0-7.312,3.469-7.312,7.282
		c0,2.563,1.468,4.064,3.499,4.064c1.657,0,3.063-0.813,4.032-2.407h0.062c0.157,1.656,1.219,2.407,2.688,2.407
		c3.377,0,5.939-2.876,5.939-7.439c0-5.25-3.939-9.033-9.438-9.033c-7.064,0-11.69,5.532-11.69,11.908
		C33.833,21.504,38.396,25.223,43.584,25.223z M46.084,14.159c-0.28,1.813-1.5,3.282-2.656,3.282c-1.031,0-1.563-0.75-1.563-1.938
		c0-2.407,1.625-4.438,3.688-4.438c0.406,0,0.718,0.063,0.969,0.125L46.084,14.159z"/>
</g>
</svg>
