<?xml version="1.0" encoding="utf-8"?>
<!-- Generator: Adobe Illustrator 16.0.0, SVG Export Plug-In . SVG Version: 6.00 Build 0)  -->
<!DOCTYPE svg PUBLIC "-//W3C//DTD SVG 1.1//EN" "http://www.w3.org/Graphics/SVG/1.1/DTD/svg11.dtd">
<svg version="1.1" id="Layer_1" xmlns="http://www.w3.org/2000/svg" xmlns:xlink="http://www.w3.org/1999/xlink" x="0px" y="0px"
	 width="50px" height="50px" viewBox="0 0 50 50" enable-background="new 0 0 50 50" xml:space="preserve">
<g>
	<path d="M20.161,19.314c-1.272,0-2.304,1.031-2.304,2.303s1.032,2.746,2.304,2.746c1.27,0,2.302-1.474,2.302-2.746
		S21.431,19.314,20.161,19.314z"/>
	<path d="M26.177,21.67l0-6.057c0.001-0.088-0.145-0.16-0.322-0.16c-0.179,0-0.324,0.072-0.324,0.16v6.166
		c-0.239,0.142-0.418,0.377-0.449,0.674l-0.345,3.357l-0.315-0.29c0,0,0,0,0,0l-0.002-0.002c-0.046-0.042-0.102-0.062-0.154-0.093
		c-0.051-0.032-0.093-0.072-0.152-0.093l-0.001,0c0,0,0-0.001,0-0.001c-0.101-0.036-1.933-0.69-3.612-0.772l-0.217,0.434h-0.005
		l0.613,4.775l-0.729,1.272l-0.729-1.272l0.613-4.775h-0.006l-0.216-0.434c-1.689,0.083-3.533,0.744-3.615,0.774
		c-0.031,0.011-0.051,0.034-0.08,0.048c-0.059,0.028-0.111,0.059-0.163,0.099c-0.045,0.035-0.084,0.073-0.121,0.116
		c-0.039,0.043-0.072,0.088-0.102,0.14c-0.031,0.054-0.054,0.108-0.074,0.168c-0.011,0.031-0.031,0.056-0.04,0.088l-1.456,6.556
		c-0.11,0.491,0.2,0.978,0.691,1.086c0.066,0.015,0.133,0.022,0.198,0.022c0.417,0,0.794-0.289,0.889-0.713l1.344-6.049
		c0.094-0.029,0.201-0.06,0.316-0.093v6.215l-0.725,9.012c-0.049,0.602,0.399,1.128,1.001,1.176
		c0.029,0.003,0.059,0.004,0.088,0.004c0.564,0,1.043-0.433,1.088-1.005l0.656-8.145c0.135,0.06,0.284,0.094,0.441,0.094
		s0.306-0.034,0.441-0.094l0.655,8.145c0.046,0.572,0.524,1.005,1.088,1.005c0.029,0,0.059-0.001,0.088-0.004
		c0.602-0.048,1.05-0.575,1.001-1.176l-0.725-9.012v-6.215c0.265,0.076,0.48,0.143,0.617,0.188l1.515,1.394
		c0.171,0.158,0.392,0.241,0.616,0.241c0.108,0,0.217-0.019,0.323-0.059c0.322-0.122,0.548-0.416,0.583-0.759l0.53-5.165
		C26.942,22.173,26.624,21.767,26.177,21.67z"/>
	<path d="M18.925,15.978c1.384,0,2.545,1.066,2.883,2.003l0.01,0c0-4.886,1.824-8.844,3.645-10.319
		c-1.259,0.055-2.457,0.341-3.551,0.819c-3.516,1.537-5.973,5.043-5.974,9.125l0.103,0C16.38,16.669,17.541,15.978,18.925,15.978z"
		/>
	<path d="M29.875,8.481c-1.095-0.479-2.292-0.766-3.552-0.819c1.821,1.474,3.646,5.432,3.646,10.318h0.009
		c0.339-0.937,1.499-2.002,2.883-2.002c1.384,0,2.545,0.691,2.884,1.628h0.103C35.849,13.524,33.391,10.018,29.875,8.481z"/>
	<path d="M26.004,7.654c-0.037-0.001-0.074-0.003-0.11-0.002c-0.037,0-0.074,0.001-0.111,0.001c-1.895,1.37-3.762,5.506-3.777,10.27
		c0.388-1.314,1.979-2.675,3.888-2.675c1.908,0,3.5,1.361,3.887,2.676C29.766,13.159,27.9,9.023,26.004,7.654z"/>
	<path d="M25.894,7.502c0.085,0,0.152,0.021,0.152-0.175c0-0.196-0.067-0.533-0.153-0.533c-0.083,0-0.153,0.337-0.153,0.533
		C25.74,7.522,25.81,7.502,25.894,7.502z"/>
</g>
</svg>
