<?xml version="1.0" encoding="utf-8"?>
<!-- Generator: Adobe Illustrator 16.0.0, SVG Export Plug-In . SVG Version: 6.00 Build 0)  -->
<!DOCTYPE svg PUBLIC "-//W3C//DTD SVG 1.1//EN" "http://www.w3.org/Graphics/SVG/1.1/DTD/svg11.dtd">
<svg version="1.1" id="Layer_1" xmlns="http://www.w3.org/2000/svg" xmlns:xlink="http://www.w3.org/1999/xlink" x="0px" y="0px"
	 width="126px" height="126px" viewBox="0 0 126 126" enable-background="new 0 0 126 126" xml:space="preserve">
<path d="M34.984,55.493c10.52,0,17.999-4.076,23.365-8.278v19.646c0,1.348,0.266,2.603,0.728,3.756
	c-0.032,0.245-0.075,0.487-0.075,0.741l-0.041,47.428c-0.002,3.233,2.615,5.856,5.848,5.859c0.002,0,0.003,0,0.005,0
	c3.23,0,5.851-2.617,5.853-5.848l0.036-40.709c0.234,0.011,0.467,0.029,0.703,0.029c0.046,0,0.091-0.005,0.137-0.006l-0.001,40.68
	c0,3.233,2.62,5.854,5.853,5.854h0c3.232,0,5.854-2.621,5.854-5.854l0.001-46.516c0.298,0.277,0.621,0.534,0.996,0.737
	c0.752,0.41,1.563,0.603,2.363,0.603c1.755,0,3.457-0.936,4.354-2.586c13.974-25.685-5.086-37.375-11.35-41.217
	c-0.174-0.106-0.358-0.177-0.54-0.26c-1.381-0.896-2.921-1.557-4.489-1.942l-3.178,3.2l-3.081-3.234
	c-0.011,0.002-0.021,0.003-0.032,0.006c-1.988,0.476-3.93,1.4-5.565,2.684c-1.74,1.118-3.377,2.664-5.234,4.454
	c-5.025,4.842-11.278,10.869-22.509,10.869c-2.735,0-4.953,2.218-4.953,4.953C30.031,53.275,32.249,55.493,34.984,55.493z
	 M84.464,61.54V47.563C86.309,51.107,86.716,55.583,84.464,61.54z M71.437,31.283l3.076,20.565l-3.076,4.21h-0.06l-3.077-4.21
	l3.077-20.565H71.437z M58.648,14.113c0-7.046,5.711-12.757,12.757-12.757c7.046,0,12.758,5.711,12.758,12.757
	c0,7.045-5.712,12.757-12.758,12.757C64.359,26.87,58.648,21.158,58.648,14.113z"/>
</svg>
