<?xml version="1.0" encoding="utf-8"?>
<!-- Generator: Adobe Illustrator 16.0.0, SVG Export Plug-In . SVG Version: 6.00 Build 0)  -->
<!DOCTYPE svg PUBLIC "-//W3C//DTD SVG 1.1//EN" "http://www.w3.org/Graphics/SVG/1.1/DTD/svg11.dtd">
<svg version="1.1" id="Layer_2" xmlns="http://www.w3.org/2000/svg" xmlns:xlink="http://www.w3.org/1999/xlink" x="0px" y="0px"
	 width="126px" height="126px" viewBox="0 0 126 126" enable-background="new 0 0 126 126" xml:space="preserve">
<g>
	<circle cx="82.308" cy="13.587" r="12.653"/>
	<path d="M109.029,64.629c-2.939-20.033-7.387-28.613-18.307-35.311c-0.211-0.129-0.434-0.221-0.658-0.316
		c-1.408-0.939-2.991-1.633-4.604-2.027l-3.152,3.172l-3.056-3.209c-0.011,0.002-0.021,0.006-0.031,0.006
		c-2.338,0.561-4.611,1.746-6.388,3.41c-9.757,6.564-13.911,15.258-16.7,34.275c-0.395,2.684,1.463,5.18,4.146,5.574
		c0.242,0.033,0.482,0.053,0.72,0.053c2.397,0,4.495-1.758,4.854-4.201c1.004-6.842,2.164-11.842,3.503-15.619v15.467
		c0,1.324,0.257,2.555,0.706,3.689c-0.034,0.256-0.057,0.514-0.057,0.777l0.002,47.041c0.001,3.207,2.6,5.807,5.807,5.807
		c3.206,0,5.806-2.602,5.805-5.807l-0.002-40.369c0.229,0.01,0.459,0.025,0.69,0.025c0.046,0,0.091-0.004,0.136-0.006l-0.002,40.35
		c0,3.205,2.6,5.807,5.807,5.807c3.205,0,5.806-2.602,5.806-5.807l0.002-46.754c0.761-1.408,1.203-3.002,1.203-4.754V48.984
		c1.571,3.924,2.911,9.314,4.05,17.07c0.357,2.443,2.457,4.201,4.854,4.201c0.238,0,0.479-0.02,0.721-0.053
		C107.566,69.809,109.424,67.313,109.029,64.629z M82.338,55.191h-0.06l-3.052-4.176l2.363-15.801
		c0.236-0.637,0.338-1.311,0.298-1.994l0.391-2.604h0.06l3.051,20.398L82.338,55.191z"/>
	<path d="M65.755,73.813c-0.639-0.328-1.285-0.635-1.942-0.908c-1.271,1.002-2.859,1.604-4.563,1.604
		c-0.345,0-0.691-0.025-1.059-0.076c-1.713-0.252-3.196-1.07-4.303-2.23l-1.648,21.902l-2.773,2.836l-17.573,17.596
		c0.696,0.896,1.447,1.766,2.271,2.588c8.677,8.678,21.767,10.244,32.043,4.709c-0.286-0.84-0.449-1.736-0.449-2.67L65.755,73.813z"
		/>
	<path d="M25.144,75.813c-11.019,11.018-10.941,28.957,0.077,39.977l19.937-19.963L25.144,75.813z"/>
	<path d="M49.529,65.354c-7.921-0.561-16.041,2.191-22.083,8.232L47.41,93.521L49.529,65.354z"/>
</g>
</svg>
