<?xml version="1.0" encoding="utf-8"?>
<!-- Generator: Adobe Illustrator 16.0.0, SVG Export Plug-In . SVG Version: 6.00 Build 0)  -->
<!DOCTYPE svg PUBLIC "-//W3C//DTD SVG 1.1//EN" "http://www.w3.org/Graphics/SVG/1.1/DTD/svg11.dtd">
<svg version="1.1" id="Layer_1" xmlns="http://www.w3.org/2000/svg" xmlns:xlink="http://www.w3.org/1999/xlink" x="0px" y="0px"
	 width="50px" height="50px" viewBox="0 0 50 50" enable-background="new 0 0 50 50" xml:space="preserve">
<g>
	<polygon points="23.521,37.825 23.525,37.82 23.516,37.82 	"/>
	<path d="M26.878,34.468l-3.353,3.352c1.229,0,2.46-0.039,3.638-0.122c0.032-1.058,0.258-2.477,0.812-3.769h-1.319L26.878,34.468z"
		/>
	<path d="M22.989,27.637H22.96l-1.098-1.259c0.531,0.191,1.084,0.305,1.658,0.305s1.126-0.114,1.656-0.304l-1.098,1.257h-0.027
		l1.43,3.457c0.498-1.069,1.96-2.564,6.221-2.704c-1.451-1.195-3.238-2.168-5.225-2.672c2.168-1.459,3.661-4.335,3.661-6.925
		c0-3.655-2.964-6.619-6.618-6.619s-6.618,2.963-6.618,6.619c0,2.59,1.493,5.466,3.661,6.925c-5.184,1.315-9.026,5.816-9.026,9.151
		c0,1.971,5.988,2.952,11.979,2.952l-3.353-3.352L22.989,27.637z"/>
	<path d="M26.22,32.137h3.186c0,0,0-1.522,2.937-1.522s2.936,1.522,2.936,1.522h3.186c0,0,0-2.763-6.121-2.762
		C26.22,29.376,26.22,32.137,26.22,32.137z"/>
	<rect x="26.22" y="32.427" width="3.186" height="0.502"/>
	<rect x="35.277" y="32.427" width="3.186" height="0.502"/>
	<path d="M32.342,31.666c-4.067,0-4.186,6.16-4.186,6.16h8.37C36.526,37.826,36.408,31.666,32.342,31.666z M32.342,36.659
		c-1.029,0-1.866-0.835-1.866-1.865c0-1.03,0.837-1.865,1.866-1.865s1.865,0.835,1.865,1.865
		C34.207,35.824,33.371,36.659,32.342,36.659z"/>
	<circle cx="32.342" cy="34.794" r="1.141"/>
</g>
</svg>
