<?xml version="1.0" encoding="utf-8"?>
<!-- Generator: Adobe Illustrator 16.0.0, SVG Export Plug-In . SVG Version: 6.00 Build 0)  -->
<!DOCTYPE svg PUBLIC "-//W3C//DTD SVG 1.1//EN" "http://www.w3.org/Graphics/SVG/1.1/DTD/svg11.dtd">
<svg version="1.1" id="Layer_2" xmlns="http://www.w3.org/2000/svg" xmlns:xlink="http://www.w3.org/1999/xlink" x="0px" y="0px"
	 width="126px" height="126px" viewBox="0 0 126 126" enable-background="new 0 0 126 126" xml:space="preserve">
<g>
	<circle cx="33.373" cy="20.332" r="12.097"/>
	<path d="M41.418,35.373c-0.201-0.124-0.415-0.212-0.627-0.303c-1.348-0.899-2.862-1.562-4.404-1.94l-3.014,3.034l-2.921-3.067
		c-0.011,0.003-0.021,0.003-0.03,0.006c-2.237,0.535-4.409,1.667-6.108,3.26C14.987,42.635,11.015,50.947,8.35,69.128
		c-0.378,2.566,1.399,4.952,3.965,5.329c0.229,0.034,0.461,0.05,0.687,0.05c2.294,0,4.298-1.68,4.64-4.016
		c0.961-6.542,2.07-11.321,3.352-14.933v14.788c0,1.264,0.245,2.442,0.675,3.526c-0.033,0.244-0.057,0.491-0.057,0.744l0.004,44.97
		c0,3.065,2.485,5.55,5.55,5.55c3.067,0,5.551-2.485,5.551-5.55l-0.002-38.595c0.22,0.011,0.438,0.029,0.66,0.029
		c0.043,0,0.086-0.006,0.13-0.006l-0.002,38.572c0,3.065,2.485,5.55,5.552,5.55c3.063,0,5.549-2.485,5.549-5.55l0.002-44.696
		c0.727-1.347,1.15-2.872,1.15-4.544V54.171c1.503,3.75,2.783,8.905,3.872,16.321c0.341,2.335,2.349,4.016,4.641,4.016
		c0.228,0,0.456-0.017,0.687-0.05c2.566-0.377,4.342-2.762,3.965-5.329C56.109,49.976,51.856,41.774,41.418,35.373z M33.344,60.105
		l-2.917-3.992l2.261-15.105c0.225-0.607,0.322-1.252,0.284-1.904l0.372-2.491h0.058l2.918,19.501l-2.918,3.992H33.344z"/>
	<path d="M113.431,0.863H58.542c-2.359,0-4.271,1.912-4.271,4.269V35.96c0,2.358,1.911,4.27,4.271,4.27h1.361l-3.363,8.111
		l9.57-8.111h47.32c2.358,0,4.27-1.912,4.27-4.27V5.132C117.7,2.775,115.789,0.863,113.431,0.863z M61.667,31.447l-1.796-2.816
		l3.204-2.042l1.795,2.817L61.667,31.447z M68.057,27.374l-1.796-2.818l3.836-2.446l1.798,2.819L68.057,27.374z M109.141,22.904
		l-3.259-0.736l1.382-6.123L90.518,29.956l-6.659-12.657l-9.623,6.137l-1.798-2.817l12.688-8.09l6.43,12.222l13.397-11.129
		L99.74,14.36l-0.47-3.309l12.96-1.837L109.141,22.904z"/>
</g>
</svg>
