<?xml version="1.0" encoding="utf-8"?>
<!-- Generator: Adobe Illustrator 16.0.0, SVG Export Plug-In . SVG Version: 6.00 Build 0)  -->
<!DOCTYPE svg PUBLIC "-//W3C//DTD SVG 1.1//EN" "http://www.w3.org/Graphics/SVG/1.1/DTD/svg11.dtd">
<svg version="1.1" id="Layer_10" xmlns="http://www.w3.org/2000/svg" xmlns:xlink="http://www.w3.org/1999/xlink" x="0px" y="0px"
	 width="100px" height="100px" viewBox="0 0 100 100" enable-background="new 0 0 100 100" xml:space="preserve">
<g>
	<circle cx="54.979" cy="26.709" r="17.217"/>
	<path d="M62.28,45.098H47.673c-12.152,0-22.041,9.889-22.041,22.043V85.01l0.045,0.279l1.232,0.385
		c11.598,3.623,21.676,4.834,29.971,4.834c16.199,0,25.59-4.621,26.172-4.914l1.15-0.584h0.121V67.141
		C84.323,54.986,74.437,45.098,62.28,45.098z M58.38,79.775l-3.152,4.613c-0.043,0.064-0.111,0.1-0.186,0.1
		c-0.002,0-0.004,0-0.006,0c-0.074,0-0.145-0.039-0.186-0.104l-2.928-4.617c-0.025-0.039-0.037-0.086-0.035-0.135l1.465-22.404
		c0.008-0.119,0.105-0.209,0.225-0.209h3.039c0.119,0,0.217,0.09,0.227,0.209l1.574,22.402
		C58.423,79.684,58.407,79.732,58.38,79.775z M56.954,56.342h-3.613L50.2,49.85c0-0.623,0.504-1.125,1.127-1.125h7.543
		c0.621,0,1.125,0.502,1.125,1.125L56.954,56.342z"/>
</g>
</svg>
