<?xml version="1.0" encoding="utf-8"?>
<!-- Generator: Adobe Illustrator 17.0.0, SVG Export Plug-In . SVG Version: 6.00 Build 0)  -->
<!DOCTYPE svg PUBLIC "-//W3C//DTD SVG 1.1//EN" "http://www.w3.org/Graphics/SVG/1.1/DTD/svg11.dtd">
<svg version="1.1" id="Layer_1" xmlns="http://www.w3.org/2000/svg" xmlns:xlink="http://www.w3.org/1999/xlink" x="0px" y="0px"
	 width="126px" height="126px" viewBox="0 0 126 126" enable-background="new 0 0 126 126" xml:space="preserve">
<path d="M88.734,96.824l-1.758-0.646c0.139-1.283,0.093-2.589-0.148-3.889l1.698-0.782c1.06-0.486,1.524-1.748,1.036-2.809
	l-0.99-2.151c-0.488-1.059-1.748-1.525-2.806-1.035l-1.699,0.781c-0.831-1.029-1.794-1.91-2.858-2.64l0.649-1.756
	c0.403-1.095-0.158-2.314-1.252-2.718l-2.222-0.822c-1.061-0.391-2.327,0.192-2.719,1.251l-0.647,1.759
	c-1.281-0.138-2.589-0.093-3.888,0.147l-0.782-1.696c-0.488-1.062-1.749-1.526-2.808-1.038l-2.153,0.991
	c-1.06,0.488-1.524,1.748-1.036,2.809l0.782,1.697c-1.027,0.83-1.912,1.794-2.64,2.859l-1.755-0.649
	c-1.059-0.393-2.328,0.19-2.719,1.251l-0.821,2.224c-0.195,0.53-0.173,1.105,0.063,1.619c0.239,0.514,0.66,0.904,1.189,1.097
	l1.757,0.65c-0.138,1.281-0.094,2.59,0.148,3.889l-1.698,0.782c-1.061,0.488-1.525,1.746-1.037,2.805l0.991,2.153
	c0.488,1.059,1.748,1.525,2.807,1.035l1.699-0.781c0.831,1.029,1.794,1.912,2.859,2.64l-0.649,1.756
	c-0.197,0.53-0.175,1.105,0.063,1.619c0.236,0.513,0.658,0.904,1.188,1.101l2.224,0.82c0.529,0.196,1.104,0.173,1.619-0.062
	c0.514-0.236,0.903-0.661,1.099-1.189l0.648-1.759c1.281,0.14,2.588,0.093,3.889-0.146l0.781,1.696
	c0.488,1.06,1.749,1.524,2.808,1.036l2.151-0.991c1.061-0.488,1.525-1.746,1.037-2.809l-0.782-1.695
	c1.028-0.832,1.913-1.796,2.638-2.859l1.758,0.649c0.531,0.196,1.105,0.173,1.62-0.063c0.513-0.234,0.902-0.659,1.098-1.188
	l0.821-2.224C90.39,98.449,89.828,97.229,88.734,96.824z M77.093,102.354c-1.108,0.51-2.286,0.768-3.499,0.768
	c-3.258,0-6.243-1.911-7.605-4.867c-1.931-4.193-0.091-9.174,4.099-11.104c1.109-0.512,2.285-0.77,3.498-0.77
	c3.257,0,6.244,1.911,7.607,4.867C83.122,95.441,81.284,100.423,77.093,102.354z M97.391,3.645
	c-15.218,0-27.598,12.38-27.598,27.598c0,15.219,12.38,27.599,27.598,27.599c15.219,0,27.599-12.38,27.599-27.599
	S112.61,3.645,97.391,3.645z M97.391,55.586c-13.422,0-24.343-10.922-24.343-24.344S83.969,6.899,97.391,6.899
	c13.423,0,24.342,10.921,24.342,24.343S110.813,55.586,97.391,55.586z M73.974,67.159c-15.218,0-27.599,12.38-27.599,27.598
	c0,15.219,12.381,27.599,27.599,27.599s27.599-12.38,27.599-27.599C101.573,79.539,89.192,67.159,73.974,67.159z M73.974,119.101
	c-13.422,0-24.343-10.922-24.343-24.344c0-13.422,10.921-24.343,24.343-24.343c13.423,0,24.342,10.921,24.342,24.343
	C98.316,108.179,87.396,119.101,73.974,119.101z M88.256,30.161l1.429,0.526V44.43c0,0.254-0.206,0.459-0.457,0.459h-6.196
	c-0.253,0-0.457-0.205-0.457-0.459v-8.958l5.103-5.312v0.001H88.256z M100.756,34.782v9.647c0,0.254-0.206,0.459-0.457,0.459h-6.196
	c-0.253,0-0.458-0.205-0.458-0.459v-9.647c0-0.251,0.206-0.456,0.458-0.456h6.196C100.551,34.326,100.756,34.531,100.756,34.782z
	 M111.145,24.693c0.026-0.015,0.05-0.031,0.074-0.047V44.43c0,0.254-0.205,0.459-0.457,0.459h-6.196
	c-0.253,0-0.457-0.205-0.457-0.459V27.996l4.071-4.441l1.126,0.94c0.299,0.249,0.677,0.389,1.067,0.389
	C110.64,24.884,110.905,24.816,111.145,24.693z M87.552,28.438l-5.832,6.067c-0.18,0.187-0.42,0.283-0.66,0.283
	c-0.228,0-0.457-0.085-0.634-0.256c-0.363-0.351-0.375-0.928-0.025-1.291l6.247-6.503c0.251-0.261,0.633-0.349,0.974-0.225
	l10.192,3.751l8.927-9.738l-2.204-1.842c-0.072-0.059-0.115-0.144-0.123-0.233c-0.004-0.046,0-0.093,0.014-0.135
	c0.042-0.133,0.161-0.228,0.299-0.241l5.33-0.476c0.19-0.017,0.358,0.123,0.376,0.313l0.477,5.329
	c0.012,0.14-0.06,0.273-0.185,0.337c-0.123,0.064-0.274,0.048-0.382-0.041l-2.198-1.838l-9.398,10.252
	c-0.25,0.272-0.64,0.367-0.989,0.238L87.552,28.438z M89.284,60.753l-3.555,6.786l-3.603-1.888l3.555-6.786L89.284,60.753z
	 M61.46,37.359l-0.797-3.99l6.93-1.384l0.797,3.99L61.46,37.359z M47.188,69.056l3.254-2.445l4.246,5.649l-3.254,2.445
	L47.188,69.056z M34.124,26.182c0,2.66-2.157,4.817-4.817,4.817s-4.817-2.157-4.817-4.817s2.157-4.817,4.817-4.817
	S34.124,23.522,34.124,26.182z M47.342,29.004c0,2.249-1.823,4.072-4.072,4.072s-4.072-1.823-4.072-4.072
	c0-2.249,1.823-4.072,4.072-4.072S47.342,26.755,47.342,29.004z M19.408,29.004c0,2.249-1.823,4.072-4.072,4.072
	s-4.072-1.823-4.072-4.072c0-2.249,1.823-4.072,4.072-4.072S19.408,26.755,19.408,29.004z M57.684,42.313
	c0-15.625-12.712-28.337-28.337-28.337S1.01,26.688,1.01,42.313S13.722,70.65,29.347,70.65S57.684,57.938,57.684,42.313z
	 M15.115,62.405l-0.001-12.98c0.074,0.004,0.148,0.011,0.223,0.011c0.015,0,0.029-0.003,0.043-0.003v12.985
	c0,0.064,0.013,0.125,0.019,0.188C15.303,62.54,15.21,62.472,15.115,62.405z M15.346,42.393h-0.019l-0.981-1.343l0.981-6.564h0.019
	l0.981,6.564L15.346,42.393z M17.953,64.146c0.681-0.279,1.163-0.947,1.163-1.729l0.001-14.879c0.114,0.123,0.25,0.232,0.407,0.317
	c0.24,0.132,0.498,0.192,0.753,0.192c0.522,0,1.026-0.261,1.324-0.722c0.071,0.137,0.134,0.27,0.209,0.408
	c0.339,0.623,0.981,0.978,1.645,0.978c0.301,0,0.607-0.074,0.892-0.229c0.099-0.054,0.19-0.116,0.274-0.185l0.001,17.41
	c0,0.287,0.06,0.559,0.159,0.809C22.362,66.063,20.068,65.255,17.953,64.146z M20.02,42.62c-0.083,0.552-0.25,1.15-0.516,1.804
	v-4.853c0.19,0.332,0.339,0.69,0.439,1.079C19.902,41.269,19.926,41.925,20.02,42.62z M24.376,38.672v5.764
	C23.354,41.927,23.557,40.097,24.376,38.672z M29.347,66.95c-0.225,0-0.448-0.011-0.672-0.018c0.234-0.351,0.37-0.771,0.37-1.223
	l-0.001-15.371c0.087,0.003,0.175,0.011,0.263,0.011c0.017,0,0.034-0.001,0.052-0.001V65.71c0,0.455,0.137,0.878,0.374,1.23
	C29.604,66.941,29.476,66.95,29.347,66.95z M29.318,42.021h-0.022l-1.163-1.59l1.163-7.766h0.022l1.162,7.766L29.318,42.021z
	 M33.604,66.573c0.113-0.265,0.175-0.557,0.175-0.863l0.001-17.602c0.135,0.146,0.296,0.274,0.481,0.376
	c0.284,0.154,0.59,0.229,0.892,0.229c0.664,0,1.306-0.354,1.646-0.978c0.074-0.137,0.136-0.268,0.206-0.401
	c0.299,0.456,0.8,0.715,1.32,0.715c0.254,0,0.514-0.061,0.754-0.192c0.082-0.045,0.159-0.098,0.231-0.156l0.002,14.718
	c0,0.843,0.561,1.548,1.329,1.779C38.463,65.327,36.098,66.139,33.604,66.573z M34.238,44.423v-5.74
	C35.052,40.103,35.252,41.926,34.238,44.423z M38.664,40.629c0.101-0.383,0.25-0.737,0.438-1.064v4.87
	c-0.264-0.649-0.43-1.243-0.516-1.79C38.684,41.932,38.706,41.261,38.664,40.629z M43.007,62.805
	c0.026-0.125,0.041-0.254,0.041-0.387l-0.001-12.993c0.074,0.004,0.148,0.011,0.223,0.011c0.014,0,0.028-0.003,0.043-0.003
	l-0.001,12.985c0,0.057,0.012,0.109,0.017,0.164C43.222,62.656,43.116,62.731,43.007,62.805z M43.279,42.393H43.26l-0.983-1.343
	l0.983-6.564h0.019l0.981,6.564L43.279,42.393z M47.457,47.856c0.241,0.132,0.499,0.192,0.754,0.192c0.56,0,1.103-0.298,1.389-0.826
	c4.461-8.197-1.623-11.93-3.622-13.154c-0.069-0.042-0.141-0.073-0.211-0.103c-0.454-0.304-0.963-0.526-1.482-0.653l-1.014,1.021
	L42.286,33.3c-0.003,0.002-0.007,0.002-0.011,0.003c-0.53,0.127-1.049,0.354-1.511,0.664c-0.071,0.03-0.142,0.061-0.208,0.102
	c-0.749,0.459-2.069,1.268-3.195,2.531c-1.447-2.338-3.709-3.729-4.849-4.43c-0.081-0.049-0.166-0.084-0.25-0.121
	c-0.537-0.357-1.139-0.621-1.754-0.771l-1.2,1.208l-1.164-1.222c-0.004,0.002-0.008,0.002-0.012,0.003
	c-0.627,0.149-1.243,0.419-1.788,0.785c-0.083,0.036-0.167,0.07-0.246,0.118c-1.142,0.701-3.407,2.094-4.854,4.436
	c-1.126-1.266-2.449-2.078-3.199-2.537c-0.069-0.042-0.14-0.073-0.211-0.103c-0.453-0.304-0.962-0.526-1.482-0.653l-1.015,1.021
	L14.353,33.3c-0.003,0.002-0.006,0.002-0.011,0.003c-0.529,0.127-1.049,0.354-1.511,0.664c-0.069,0.03-0.142,0.061-0.208,0.102
	c-1.999,1.225-8.083,4.957-3.622,13.154c0.286,0.528,0.828,0.826,1.389,0.826c0.255,0,0.515-0.061,0.755-0.192
	c0.083-0.045,0.16-0.098,0.231-0.156l0.001,11.442c-4.131-4.408-6.668-10.327-6.668-16.83c0-13.586,11.052-24.638,24.638-24.638
	c13.585,0,24.637,11.052,24.637,24.638c0,6.643-2.647,12.674-6.935,17.109l0.001-11.883C47.165,47.662,47.3,47.771,47.457,47.856z
	 M47.438,44.424v-4.853C48.125,40.772,48.294,42.313,47.438,44.424z M11.168,39.564v4.87C10.305,42.313,10.475,40.767,11.168,39.564
	z"/>
</svg>
