<?xml version="1.0" encoding="utf-8"?>
<!-- Generator: Adobe Illustrator 16.0.0, SVG Export Plug-In . SVG Version: 6.00 Build 0)  -->
<!DOCTYPE svg PUBLIC "-//W3C//DTD SVG 1.1//EN" "http://www.w3.org/Graphics/SVG/1.1/DTD/svg11.dtd">
<svg version="1.1" id="Layer_2" xmlns="http://www.w3.org/2000/svg" xmlns:xlink="http://www.w3.org/1999/xlink" x="0px" y="0px"
	 width="126px" height="126px" viewBox="0 0 126 126" enable-background="new 0 0 126 126" xml:space="preserve">
<g>
	<path d="M81.43,26.797c7.063,0,12.785-5.724,12.785-12.784c0-7.06-5.723-12.782-12.785-12.782c-7.058,0-12.781,5.723-12.781,12.782
		C68.648,21.073,74.372,26.797,81.43,26.797z"/>
	<path d="M96.371,69.782v2.448H85.77v26.208h35.493V72.23h-10.6v-2.448c0-1.191-0.969-2.162-2.162-2.162h-0.202
		c0.179-0.645,0.232-1.335,0.129-2.04c-2.969-20.239-7.463-28.907-18.494-35.672c-0.215-0.131-0.438-0.225-0.663-0.321
		c-1.425-0.95-3.024-1.648-4.656-2.05l-3.185,3.207l-3.086-3.241c-0.011,0.002-0.022,0.002-0.032,0.007
		c-2.362,0.564-4.658,1.761-6.454,3.443c-1.403,0.945-2.672,1.943-3.854,3.004c-3.172,2.143-5.847,4.86-8.435,7.501
		c-5.956,6.072-9.975,9.756-17.081,9.149c-3.115-0.261-5.835,2.029-6.102,5.13c-0.114,1.315,0.237,2.562,0.912,3.585
		c-0.312-0.01-0.62-0.024-0.933-0.024c-17.44,0-31.629,14.188-31.629,31.628c0,17.44,14.188,31.629,31.629,31.629
		c17.439,0,31.628-14.188,31.628-31.629c0-13.257-8.202-24.628-19.795-29.323c8.826-1.458,14.603-7.34,19.419-12.252
		c0.069-0.072,0.14-0.143,0.21-0.215c0.28,0.892,0.519,2.105,0.519,2.105v15.626c0,1.335,0.258,2.58,0.715,3.728
		c-0.036,0.257-0.059,0.519-0.059,0.785l0.002,47.524c0,3.239,2.627,5.865,5.865,5.865c3.241,0,5.865-2.626,5.865-5.867
		l-0.002-40.784c0.232,0.01,0.464,0.029,0.696,0.029c0.048,0,0.092-0.007,0.141-0.007l-0.004,40.764
		c0,3.239,2.628,5.865,5.865,5.865c3.24,0,5.866-2.626,5.866-5.865v-18.478h-9.332V70.608h9.829c0.46-1.148,0.721-2.397,0.721-3.741
		V49.773c1.589,3.965,2.942,9.411,4.091,17.247c0.03,0.207,0.091,0.403,0.145,0.6h-0.22C97.34,67.62,96.371,68.591,96.371,69.782z
		 M20.48,113.353l-0.001-14.487c0.082,0.005,0.165,0.011,0.249,0.011c0.016,0,0.031-0.003,0.048-0.003v14.493
		c0,0.072,0.014,0.141,0.021,0.211C20.69,113.504,20.586,113.427,20.48,113.353z M20.738,91.016h-0.021l-1.096-1.499l1.096-7.326
		h0.021l1.096,7.326L20.738,91.016z M23.647,115.296c0.761-0.311,1.3-1.057,1.3-1.93l0.001-16.606
		c0.127,0.138,0.278,0.26,0.454,0.354c0.268,0.146,0.556,0.215,0.841,0.215c0.582,0,1.145-0.292,1.478-0.805
		c0.079,0.151,0.149,0.3,0.234,0.454c0.378,0.696,1.095,1.091,1.836,1.091c0.336,0,0.678-0.082,0.995-0.254
		c0.111-0.061,0.212-0.13,0.306-0.206l0.002,19.433c0,0.32,0.066,0.622,0.177,0.902C28.57,117.437,26.01,116.533,23.647,115.296z
		 M25.955,91.27c-0.094,0.615-0.278,1.284-0.576,2.013v-5.416c0.213,0.371,0.379,0.771,0.49,1.204
		C25.824,89.761,25.85,90.493,25.955,91.27z M30.818,86.862v6.433C29.677,90.496,29.902,88.453,30.818,86.862z M36.366,118.425
		c-0.252,0-0.501-0.011-0.75-0.018c0.261-0.393,0.412-0.861,0.412-1.365l-0.001-17.157c0.099,0.004,0.195,0.012,0.293,0.012
		c0.02,0,0.039,0,0.059,0v17.146c0,0.507,0.153,0.979,0.417,1.373C36.652,118.416,36.51,118.425,36.366,118.425z M36.334,90.601
		h-0.025l-1.297-1.775l1.297-8.667h0.025l1.296,8.667L36.334,90.601z M41.117,118.006c0.126-0.297,0.195-0.622,0.195-0.964
		l0.001-19.647c0.15,0.164,0.33,0.308,0.536,0.421c0.318,0.172,0.659,0.254,0.996,0.254c0.74,0,1.458-0.395,1.836-1.091
		c0.082-0.152,0.152-0.299,0.23-0.447c0.334,0.51,0.893,0.798,1.474,0.798c0.284,0,0.573-0.068,0.842-0.215
		c0.092-0.051,0.178-0.109,0.258-0.174l0.002,16.426c0,0.942,0.627,1.729,1.484,1.987C46.541,116.613,43.901,117.52,41.117,118.006z
		 M41.825,93.281v-6.406C42.733,88.46,42.957,90.495,41.825,93.281z M46.765,89.048c0.112-0.429,0.278-0.824,0.488-1.189v5.436
		c-0.295-0.724-0.48-1.387-0.575-1.997C46.787,90.502,46.812,89.752,46.765,89.048z M51.612,113.799
		c0.03-0.14,0.046-0.283,0.046-0.433l-0.001-14.501c0.082,0.005,0.165,0.011,0.249,0.011c0.016,0,0.031-0.003,0.048-0.003
		l-0.001,14.493c0,0.064,0.014,0.124,0.02,0.185C51.853,113.634,51.734,113.717,51.612,113.799z M51.916,91.016h-0.021l-1.097-1.499
		l1.097-7.326h0.021l1.097,7.326L51.916,91.016z M63.865,90.926c0,7.414-2.955,14.146-7.74,19.098l0.001-13.264
		c0.127,0.138,0.278,0.26,0.452,0.354c0.27,0.146,0.557,0.215,0.843,0.215c0.625,0,1.231-0.333,1.551-0.922
		c4.979-9.15-1.812-13.315-4.043-14.683c-0.077-0.048-0.157-0.081-0.236-0.114c-0.507-0.339-1.075-0.588-1.654-0.729l-1.132,1.139
		l-1.099-1.154c-0.003,0.003-0.009,0.003-0.011,0.004c-0.593,0.142-1.173,0.396-1.688,0.741c-0.078,0.034-0.157,0.066-0.232,0.113
		c-0.836,0.512-2.31,1.415-3.566,2.826c-1.614-2.61-4.14-4.164-5.412-4.944c-0.091-0.056-0.186-0.095-0.279-0.136
		c-0.6-0.398-1.271-0.694-1.958-0.861l-1.341,1.349l-1.298-1.363c-0.005,0.002-0.01,0.002-0.013,0.003
		c-0.701,0.166-1.388,0.467-1.996,0.877c-0.093,0.04-0.186,0.077-0.275,0.132c-1.273,0.781-3.802,2.336-5.417,4.949
		c-1.257-1.412-2.732-2.318-3.57-2.831c-0.077-0.048-0.156-0.081-0.236-0.114c-0.505-0.339-1.074-0.588-1.654-0.729l-1.132,1.139
		l-1.098-1.154c-0.005,0.003-0.009,0.003-0.013,0.004c-0.591,0.142-1.171,0.396-1.687,0.741c-0.078,0.034-0.158,0.066-0.232,0.113
		c-2.231,1.367-9.022,5.532-4.043,14.683c0.319,0.589,0.925,0.922,1.551,0.922c0.285,0,0.574-0.068,0.842-0.215
		c0.094-0.051,0.18-0.109,0.259-0.174l0.001,12.771c-4.61-4.92-7.441-11.526-7.441-18.785c0-15.164,12.334-27.498,27.499-27.498
		C51.53,63.428,63.865,75.762,63.865,90.926z M56.558,93.282v-5.416C57.325,89.208,57.514,90.927,56.558,93.282z M16.075,87.858
		v5.436C15.111,90.927,15.302,89.201,16.075,87.858z M81.46,56.044h-0.058l-3.083-4.22l2.386-15.961
		c0.24-0.642,0.341-1.324,0.303-2.013l0.395-2.632h0.058l3.085,20.605L81.46,56.044z M99.662,69.426
		c0.922,1.135,2.325,1.838,3.849,1.838c0.24,0,0.482-0.017,0.725-0.053c1.283-0.188,2.374-0.854,3.129-1.785h1.137
		c0.198,0,0.356,0.16,0.356,0.356v2.448H98.175v-2.448c0-0.196,0.16-0.356,0.356-0.356H99.662z"/>
	<circle cx="36.321" cy="72.92" r="5.376"/>
	<circle cx="51.906" cy="76.072" r="4.545"/>
	<circle cx="20.729" cy="76.072" r="4.545"/>
</g>
</svg>
