<?xml version="1.0" encoding="utf-8"?>
<!-- Generator: Adobe Illustrator 16.0.0, SVG Export Plug-In . SVG Version: 6.00 Build 0)  -->
<!DOCTYPE svg PUBLIC "-//W3C//DTD SVG 1.1//EN" "http://www.w3.org/Graphics/SVG/1.1/DTD/svg11.dtd">
<svg version="1.1" id="Layer_1" xmlns="http://www.w3.org/2000/svg" xmlns:xlink="http://www.w3.org/1999/xlink" x="0px" y="0px"
	 width="126px" height="126px" viewBox="0 0 126 126" enable-background="new 0 0 126 126" xml:space="preserve">
<g>
	<path d="M102.025,43.907H91.552c-0.163-1.118-0.742-2.172-1.731-2.889c-1.958-1.421-4.696-0.985-6.117,0.974l-0.521,0.722
		l-4.914-8.216c-0.519-0.867-1.295-1.472-2.168-1.813v-0.049l-5.913-2.629l-2.422-2.195l-4.802,4.387l-4.693-4.425l-2.742,2.311
		l-5.701,2.552v0.075c-0.843,0.347-1.59,0.944-2.094,1.787l-4.914,8.216l-0.521-0.722c-1.42-1.958-4.157-2.395-6.117-0.974
		c-0.988,0.717-1.58,1.771-1.747,2.889H23.975v59.782h25.153c-0.021,0.223-0.033,0.448-0.033,0.677l0.004,13.835
		c0.001,3.74,3.033,6.771,6.772,6.771c0.002,0,0.002,0,0.002,0c3.741-0.001,6.772-3.034,6.771-6.775l-0.004-13.835
		c0-0.228-0.012-0.451-0.033-0.673h1.033c-0.021,0.222-0.034,0.446-0.034,0.674l-0.002,13.835c0,3.741,3.031,6.773,6.772,6.774
		c0.001,0,0.001,0,0.001,0c3.74,0,6.772-3.032,6.772-6.772l0.003-13.835c0-0.229-0.013-0.453-0.035-0.676h24.907V43.907z
		 M62.93,33.112h0.066l1.616,10.795h-3.298L62.93,33.112z M95.896,97.56H30.104V50.039h65.791V97.56z"/>
	<circle cx="63.06" cy="14.4" r="13.373"/>
	<rect x="34.107" y="53.722" width="10.748" height="1.896"/>
	<rect x="34.107" y="57.515" width="6.094" height="1.898"/>
	<path d="M78.017,77.766c-0.652,0-1.27-0.314-1.654-0.843c-0.158-0.22-0.271-0.462-0.333-0.721
		c-0.128-0.532-0.036-1.098,0.248-1.558l1.324-2.16l-3.613-1.992c-0.003,0.021-0.006,0.044-0.006,0.068v20.012
		c0,0.365,0.296,0.662,0.661,0.662h8.977c0.365,0,0.661-0.297,0.661-0.662V76.319l-5.785,1.391
		C78.34,77.747,78.179,77.766,78.017,77.766z"/>
	<path d="M57.943,68.727v21.846c0,0.365,0.296,0.662,0.661,0.662h8.977c0.366,0,0.662-0.297,0.662-0.662V67.324l-5.076-2.8
		L57.943,68.727z"/>
	<path d="M48.594,74.043l-5.807-3.025v19.555c0,0.365,0.296,0.662,0.662,0.662h8.977c0.365,0,0.663-0.297,0.663-0.662v-17.94
		l-1.372,1.103C50.849,74.432,49.579,74.556,48.594,74.043z"/>
	<path d="M38.881,62.863c-0.338,0.648-0.087,1.447,0.562,1.785l11.582,6.037c0.467,0.242,1.032,0.187,1.443-0.142l12.256-9.861
		l16.758,9.241l-2.172,3.547c-0.071,0.115-0.091,0.252-0.061,0.379c0.015,0.063,0.043,0.122,0.082,0.178
		c0.118,0.163,0.325,0.239,0.522,0.191l7.537-1.809c0.27-0.065,0.434-0.336,0.37-0.604l-1.811-7.538
		c-0.047-0.197-0.209-0.346-0.409-0.377c-0.199-0.031-0.398,0.06-0.506,0.232l-2.169,3.541l-17.641-9.729
		c-0.472-0.261-1.052-0.209-1.47,0.127L51.48,67.937L40.667,62.3C40.021,61.962,39.219,62.215,38.881,62.863z"/>
</g>
</svg>
