<?xml version="1.0" encoding="utf-8"?>
<!-- Generator: Adobe Illustrator 16.0.0, SVG Export Plug-In . SVG Version: 6.00 Build 0)  -->
<!DOCTYPE svg PUBLIC "-//W3C//DTD SVG 1.1//EN" "http://www.w3.org/Graphics/SVG/1.1/DTD/svg11.dtd">
<svg version="1.1" id="Layer_1" xmlns="http://www.w3.org/2000/svg" xmlns:xlink="http://www.w3.org/1999/xlink" x="0px" y="0px"
	 width="50px" height="50px" viewBox="0 0 50 50" enable-background="new 0 0 50 50" xml:space="preserve">
<g>
	<polygon points="23.013,37.576 23.014,37.574 23.012,37.574 	"/>
	<path d="M32.996,26.125c-1.206,0-2.327,0.362-3.268,0.979c-1.133-0.71-2.394-1.289-3.76-1.635c2.169-1.459,3.662-4.334,3.662-6.925
		c0-3.655-2.964-6.619-6.618-6.619s-6.618,2.963-6.618,6.619c0,2.591,1.493,5.466,3.662,6.925c-5.186,1.314-9.027,5.816-9.027,9.151
		c0,1.972,5.991,2.956,11.982,2.955l-3.356-3.355l2.826-6.832h-0.029l-1.098-1.259c0.53,0.19,1.084,0.305,1.658,0.305
		c0.573,0,1.126-0.114,1.656-0.304l-1.098,1.257h-0.027l2.826,6.832l-3.356,3.355c2.37,0,4.737-0.155,6.736-0.464
		c0.936,0.608,2.049,0.966,3.246,0.966c3.295,0,5.976-2.681,5.976-5.976C38.972,28.805,36.291,26.125,32.996,26.125z M32.996,37.076
		c-2.743,0-4.976-2.232-4.976-4.976s2.232-4.976,4.976-4.976s4.976,2.232,4.976,4.976S35.739,37.076,32.996,37.076z"/>
	<path d="M33.191,29.585c0.16,0,0.305-0.073,0.434-0.22c0.128-0.147,0.192-0.307,0.192-0.48s-0.049-0.316-0.146-0.429
		c-0.097-0.113-0.224-0.169-0.38-0.169s-0.3,0.079-0.43,0.237s-0.194,0.321-0.194,0.489c0,0.169,0.047,0.307,0.141,0.413
		C32.902,29.532,33.03,29.585,33.191,29.585z"/>
	<path d="M33.942,34.885c-0.182,0.13-0.338,0.195-0.469,0.195c-0.13,0-0.194-0.111-0.194-0.334c0-0.111,0.009-0.25,0.027-0.417
		l0.158-1.81c0.068-0.708,0.103-1.086,0.103-1.132c0-0.532-0.177-0.798-0.529-0.798c-0.312,0-0.629,0.154-0.949,0.461
		c-0.32,0.308-0.563,0.68-0.73,1.116l0.269,0.186c0.399-0.594,0.666-0.891,0.801-0.891s0.202,0.148,0.202,0.445
		c0,0.111-0.007,0.235-0.019,0.371l-0.204,1.81c-0.05,0.504-0.074,0.863-0.074,1.076c0,0.214,0.048,0.392,0.146,0.536
		s0.266,0.216,0.504,0.216c0.758,0,1.309-0.458,1.651-1.374l-0.241-0.167C34.275,34.585,34.125,34.755,33.942,34.885z"/>
</g>
</svg>
