<?xml version="1.0" encoding="utf-8"?>
<!-- Generator: Adobe Illustrator 16.0.0, SVG Export Plug-In . SVG Version: 6.00 Build 0)  -->
<!DOCTYPE svg PUBLIC "-//W3C//DTD SVG 1.1//EN" "http://www.w3.org/Graphics/SVG/1.1/DTD/svg11.dtd">
<svg version="1.1" id="Layer_1" xmlns="http://www.w3.org/2000/svg" xmlns:xlink="http://www.w3.org/1999/xlink" x="0px" y="0px"
	 width="50px" height="50px" viewBox="0 0 50 50" enable-background="new 0 0 50 50" xml:space="preserve">
<g>
	<path d="M15.5,17.434c1.394,0,2.525-1.617,2.525-3.012c0-1.396-1.131-2.526-2.525-2.526c-1.395,0-2.526,1.131-2.526,2.526
		C12.974,15.816,14.105,17.434,15.5,17.434z"/>
	<path d="M34.5,17.434c1.394,0,2.525-1.617,2.525-3.012c0-1.396-1.131-2.526-2.525-2.526c-1.395,0-2.526,1.131-2.526,2.526
		C31.974,15.816,33.105,17.434,34.5,17.434z"/>
	<path d="M17.243,28.442c-0.375-0.469-0.545-1.057-0.479-1.653l0.986-8.876c-0.707-0.152-1.503-0.274-2.25-0.274
		c-1.781,0-3.854,0.691-4.262,0.833c-0.017,0.005-0.032,0.011-0.048,0.017c-0.009,0.004-0.022,0.008-0.025,0.009
		c-0.02,0.008-0.033,0.023-0.052,0.032c-0.096,0.042-0.187,0.091-0.265,0.161c-0.037,0.032-0.061,0.072-0.092,0.109
		c-0.05,0.059-0.1,0.115-0.135,0.186c-0.032,0.062-0.044,0.13-0.062,0.197c-0.013,0.049-0.04,0.091-0.046,0.144l-0.799,7.191
		c-0.061,0.548,0.334,1.042,0.882,1.103c0.038,0.005,0.075,0.007,0.112,0.007c0.502,0,0.935-0.378,0.991-0.889l0.728-6.551
		c0.085-0.025,0.178-0.053,0.277-0.081v6.817l-0.795,9.886c-0.053,0.659,0.439,1.237,1.099,1.29
		c0.033,0.003,0.065,0.004,0.097,0.004c0.619,0,1.144-0.475,1.194-1.102l0.719-8.935c0.148,0.065,0.311,0.104,0.483,0.104
		c0.173,0,0.336-0.038,0.484-0.104l0.719,8.935c0.05,0.627,0.575,1.102,1.193,1.102c0.032,0,0.065-0.001,0.097-0.004
		c0.66-0.053,1.152-0.631,1.099-1.29l-0.611-7.593C18,29.104,17.562,28.842,17.243,28.442z"/>
	<path d="M39.488,19.326c-0.006-0.05-0.032-0.091-0.044-0.138c-0.019-0.07-0.032-0.141-0.066-0.206
		c-0.03-0.058-0.072-0.104-0.112-0.153c-0.04-0.051-0.074-0.103-0.123-0.145c-0.057-0.049-0.123-0.079-0.188-0.114
		c-0.042-0.022-0.074-0.057-0.119-0.073c-0.097-0.034-2.394-0.858-4.336-0.858c-0.749,0-1.543,0.124-2.25,0.276l0.986,8.874
		c0.066,0.597-0.104,1.185-0.479,1.653c-0.317,0.396-0.751,0.659-1.238,0.774l-0.611,7.593c-0.053,0.659,0.439,1.237,1.099,1.29
		c0.033,0.003,0.065,0.004,0.097,0.004c0.619,0,1.144-0.475,1.194-1.102l0.719-8.935c0.148,0.065,0.311,0.104,0.483,0.104
		c0.173,0,0.336-0.038,0.484-0.104l0.719,8.935c0.05,0.627,0.575,1.102,1.193,1.102c0.032,0,0.065-0.001,0.097-0.004
		c0.66-0.053,1.152-0.631,1.099-1.29l-0.795-9.886v-6.817c0.099,0.028,0.192,0.056,0.277,0.081l0.728,6.551
		c0.057,0.511,0.489,0.889,0.992,0.889c0.037,0,0.074-0.003,0.111-0.007c0.548-0.061,0.943-0.555,0.882-1.103L39.488,19.326z"/>
	<path d="M25,15.531c1.744,0,3.16-2.024,3.16-3.77c0-1.746-1.416-3.161-3.16-3.161c-1.746,0-3.162,1.415-3.162,3.161
		C21.838,13.507,23.254,15.531,25,15.531z"/>
	<path d="M31.138,28.279c0.686-0.076,1.18-0.694,1.104-1.38l-1-9c-0.007-0.062-0.04-0.113-0.055-0.173
		c-0.023-0.088-0.041-0.176-0.083-0.257c-0.037-0.072-0.09-0.13-0.14-0.192c-0.049-0.063-0.092-0.128-0.153-0.181
		c-0.071-0.062-0.153-0.1-0.236-0.144c-0.052-0.027-0.092-0.07-0.149-0.091c-0.113-0.041-2.629-0.943-4.942-1.062l-0.318,0.635
		h-0.008L26,22.992l-1,1.747l-1-1.747l0.842-6.557h-0.01l-0.313-0.627c-2.108,0.106-4.379,0.856-4.853,1.021
		c-0.021,0.006-0.04,0.014-0.06,0.021c-0.012,0.005-0.027,0.01-0.032,0.012c-0.025,0.009-0.042,0.029-0.065,0.04
		c-0.121,0.053-0.234,0.113-0.332,0.201c-0.046,0.041-0.076,0.091-0.115,0.137c-0.062,0.074-0.125,0.145-0.169,0.232
		c-0.04,0.078-0.055,0.162-0.078,0.247c-0.017,0.062-0.05,0.114-0.057,0.18l-1,9c-0.076,0.686,0.418,1.304,1.104,1.38
		c0.047,0.006,0.094,0.008,0.14,0.008c0.628,0,1.17-0.473,1.241-1.112l0.911-8.197c0.106-0.032,0.223-0.066,0.347-0.102v8.532
		l-0.995,12.371c-0.066,0.825,0.549,1.549,1.375,1.615c0.041,0.003,0.082,0.005,0.122,0.005c0.774,0,1.431-0.595,1.494-1.38
		l0.899-11.181c0.186,0.082,0.39,0.13,0.605,0.13s0.42-0.048,0.605-0.13l0.899,11.181c0.063,0.785,0.72,1.38,1.494,1.38
		c0.04,0,0.081-0.002,0.122-0.005c0.826-0.066,1.441-0.79,1.375-1.615L28.5,27.408v-8.532c0.124,0.035,0.241,0.069,0.347,0.102
		l0.911,8.197c0.071,0.64,0.612,1.112,1.241,1.112C31.044,28.287,31.091,28.284,31.138,28.279z"/>
</g>
</svg>
