<?xml version="1.0" encoding="utf-8"?>
<!-- Generator: Adobe Illustrator 17.0.0, SVG Export Plug-In . SVG Version: 6.00 Build 0)  -->
<!DOCTYPE svg PUBLIC "-//W3C//DTD SVG 1.1//EN" "http://www.w3.org/Graphics/SVG/1.1/DTD/svg11.dtd">
<svg version="1.1" id="Layer_1" xmlns="http://www.w3.org/2000/svg" xmlns:xlink="http://www.w3.org/1999/xlink" x="0px" y="0px"
	 width="126px" height="126px" viewBox="0 0 126 126" enable-background="new 0 0 126 126" xml:space="preserve">
<path d="M32.511,13.704c0-7.105,5.759-12.864,12.864-12.864c7.105,0,12.864,5.759,12.864,12.864c0,7.105-5.759,12.864-12.864,12.864
	C38.27,26.568,32.511,20.809,32.511,13.704z M75.347,65.043c-1.66,0-3.286-0.827-4.233-2.34c-2.99-4.759-7.828-11.484-12.571-16.678
	v20.411c0,1.897-0.451,3.607-1.224,5.105l-0.001,47.713c0,3.26-2.642,5.903-5.904,5.903c-3.258,0-5.9-2.642-5.9-5.903l0.001-41.02
	c-0.047,0.002-0.092,0.005-0.139,0.005c-0.236,0-0.468-0.017-0.702-0.027l0.002,41.042c0,3.26-2.643,5.903-5.902,5.903
	c-3.259,0-5.902-2.642-5.902-5.9L32.869,71.43c0-0.269,0.024-0.531,0.06-0.792c-0.457-1.152-0.718-2.403-0.718-3.748v-7.554
	c-0.872,2.806-1.445,5.113-1.51,6.268c0.129,2.679-1.891,4.995-4.582,5.213c-0.139,0.012-0.276,0.019-0.413,0.019
	c-2.575,0-4.758-1.979-4.971-4.59c-0.373-4.56,4.635-17.598,4.848-18.151c5.82-15.081,9.887-17.577,11.224-18.397
	c0.212-0.128,0.435-0.221,0.657-0.315c1.457-0.98,3.099-1.697,4.773-2.099c0.012-0.004,0.022-0.004,0.033-0.006l3.106,3.264
	l3.204-3.228c1.639,0.401,3.248,1.105,4.679,2.044c10.102,4.018,21.959,21.323,25.44,26.67l0.41-1.161l8.37,2.949l1.109,2.714
	L84.898,71l-10.205-3.614l0.334-0.946l0.496-1.41C75.465,65.033,75.406,65.043,75.347,65.043z M86.627,59.653l0.867,0.374
	l-0.445-1.093L86.627,59.653z M75.737,66.9l8.659,3.054l3.174-9.001l-1.688-0.727l-0.12-0.722l0.689-1.175l-6.842-2.415
	l-0.348,0.987c0.129,0.202,0.24,0.378,0.313,0.495c0.69,1.1,0.884,2.366,0.667,3.552l0.302-0.804l0.438,0.49
	c0.075,0.082,0.198,0.115,0.303,0.082l0.169-0.057l-0.636,1.685c-0.013,0.034-0.053,0.053-0.086,0.039l-0.82-0.311
	c-0.107,0.236-0.241,0.457-0.382,0.676l5.313,1.858l-0.263,0.758l-5.573-1.951c-0.231,0.251-0.488,0.479-0.776,0.685l6.052,2.116
	l-0.266,0.756l-6.689-2.341c-0.29,0.125-0.588,0.214-0.888,0.281L75.737,66.9z M48.51,51.757l-3.103-20.738h-0.061l-3.102,20.738
	L45.346,56h0.06L48.51,51.757z M105.286,84.407l-2.306,38.724l-1.919,1.808H78.532l-1.917-1.808l-2.306-38.724l1.917-2.035h2.848
	l-0.168-0.475l1.107-2.713l8.367-2.963l0.147,0.419l3.746-11.689l8.451,2.711l1.188,2.679l-3.387,10.573l-9.569-3.067l1.602,4.524
	h12.808L105.286,84.407z M99.926,69.519l0.877,0.347l-0.477-1.077L99.926,69.519z M89.252,77.078l8.742,2.8l2.913-9.088
	l-1.708-0.676l-0.142-0.721l0.656-1.194l-6.91-2.214L89.252,77.078z M89.716,86.213l-6.609,2.362l-0.268-0.753l4.504-1.609h-2.686
	l-2.122,0.76l-0.271-0.753l0.018-0.007h-0.975l1.37,3.87l1.582,0.824l7.507-2.657l-0.722-2.037H89.716z M80,81.391l0.867-0.374
	L80.446,80.3L80,81.391z M79.928,82.315l0.018,0.055h4.172c0.101-0.615,0.55-1.146,1.193-1.314c0.181-0.048,0.366-0.063,0.553-0.048
	c0.002,0.002,0.004,0.002,0.004,0.002c0.003,0,0.005,0,0.006,0.003l0.004,0.001c0.002,0.002,0.004,0.002,0.008,0.006v0.002
	c0.002,0.003,0.005,0.008,0.005,0.008v0.004c0,0.003,0,0.005,0,0.007l-0.045,0.537h-0.001c0,0.006-0.001,0.008-0.003,0.012
	c0.002,0,0,0.002,0,0.002c-0.003,0.003-0.004,0.005-0.006,0.005c0,0.002-0.002,0.004-0.002,0.004c-0.002,0-0.008,0.001-0.008,0.001
	l-0.002,0.002v0.003c-0.002,0-0.007,0-0.01,0c-0.119-0.01-0.239,0-0.354,0.028c-0.372,0.096-0.637,0.388-0.73,0.736h4.955
	l-1.805-5.1l-6.839,2.419l0.691,1.177l-0.119,0.723L79.928,82.315z M78.362,87.837l3.245,1.69l-1.172-3.314h-2.17L78.362,87.837z
	 M78.956,97.812l0.846,0.44l6.783-3.532l-8.065-4.199L78.956,97.812z M89.528,106.451l-0.573,1.24l-0.661,0.313l-1.559-0.969
	l-2.509,3.478l4.122,2.23c-0.308-0.574-0.256-1.303,0.193-1.829c0.584-0.682,1.614-0.76,2.297-0.177
	c0.142,0.12,0.259,0.266,0.355,0.427c0,0,0,0.003,0,0.005c0.001,0.002,0.001,0.004,0.001,0.009c0.002,0,0,0,0,0.002
	c0,0.004,0,0.006,0,0.007c0,0.003-0.001,0.005-0.001,0.005c-0.002,0.002-0.002,0.004-0.004,0.008c0,0-0.005,0-0.006,0.003
	c0,0,0,0.001-0.003,0.003l-0.467,0.27H90.71c0,0.002-0.009,0.004-0.009,0.004s0,0-0.003,0c-0.002,0-0.009-0.002-0.009-0.002
	s0,0-0.003,0l-0.005-0.002c0-0.002-0.002-0.002-0.002-0.002v-0.003c-0.005,0-0.007-0.004-0.008-0.006
	c-0.059-0.102-0.135-0.196-0.224-0.272c-0.431-0.37-1.084-0.32-1.452,0.113c-0.371,0.43-0.322,1.082,0.112,1.451
	c0.108,0.096,0.238,0.157,0.374,0.2l1.81-0.979c0-0.178-0.035-0.358-0.125-0.518c-0.003-0.001-0.003-0.003-0.004-0.003
	c0-0.004-0.002-0.007-0.002-0.009c0,0,0.002-0.002,0.002-0.004c0-0.003,0-0.003,0-0.006c0-0.002,0.001-0.004,0.001-0.006
	c0.003-0.002,0.003-0.004,0.005-0.007c0,0,0.001,0,0.003-0.002c0.002-0.001,0.005-0.001,0.005-0.003l0.468-0.27
	c0.001-0.002,0.005-0.002,0.005-0.002c0.003,0,0.008-0.001,0.008-0.001h0.002c0.002,0,0.008,0.001,0.008,0.001v-0.001
	c0.007,0.003,0.014,0.008,0.018,0.014c0.091,0.159,0.148,0.331,0.181,0.505l0.891-0.482l-3.267-2.338l0.519-0.726l3.619,2.591
	l1.036-0.559L89.528,106.451z M95.467,109.716l0.664-0.357l-4.197-2.187L95.467,109.716z M91.534,114.468l0.834,0.451l1.065-1.479
	L91.534,114.468z M86.041,114.12l0.557,0.397l0.091-0.048L86.041,114.12z M82.365,114.664l0.467-0.648l2.021,1.447l0.963-0.521
	l-2.414-1.729l0.271-0.377l-0.807-0.435l-1.71,2.377l2.13,1.531l0.786-0.425L82.365,114.664z M83.497,110.12l1.758-2.442
	l-3.192,1.664L83.497,110.12z M88.337,107.062l0.349-0.755l-1.149,0.256L88.337,107.062z M95.865,99.552L89.08,96.02l-6.783,3.532
	l6.783,3.536L95.865,99.552z M79.615,108.017l6.97-3.632l-6.783-3.534l-0.646,0.338l0.405,6.798L79.615,108.017z M80.158,118.003
	l2.325-1.258l-2.475-1.782l2.13-2.958l-2.416-1.309L80.158,118.003z M88.522,121.095l-3.961-2.854l-4.252,2.302l0.031,0.552H88.522z
	 M88.605,120.142l2.403-3.336l-1.898-1.027l-0.425,0.23l1.005,0.719l-0.465,0.649l-1.321-0.946l-0.965,0.522l1.711,1.226
	l-0.463,0.65l-2.029-1.452l-0.794,0.431L88.605,120.142z M98.933,121.095l-7.195-3.895l-2.805,3.895H98.933z M99.835,111.289
	l-1.237-0.644l-3.503,1.896l-1.999,2.773l6.296,3.408L99.835,111.289z M100.393,101.912l-2.032-1.059l-6.785,3.534l7.002,3.647
	l1.498-0.812L100.393,101.912z M101.118,89.75l-9.541,4.97l6.785,3.532l2.322-1.207L101.118,89.75z M101.329,86.213h-9.41
	l0.897,2.538l-7.561,2.677l3.825,1.992l12.196-6.352L101.329,86.213z M87.898,79.33l-0.301-0.84l-4.903,1.756l0.301,0.84
	L87.898,79.33z M90.45,87.832l-0.272-0.751l-6.731,2.434l0.272,0.751L90.45,87.832z M86.142,80.601
	c-0.007,0-0.014,0.003-0.021,0.007c0,0,0,0,0,0.002c0,0-0.004,0.001-0.004,0.006c0,0,0,0-0.002,0.002
	c-0.003,0.002-0.003,0.004-0.003,0.006c0,0-0.002,0.002-0.002,0.006l-0.047,0.537l0.002,0.004c0,0.005,0,0.006,0,0.006
	c0,0.002,0.002,0.004,0.005,0.006c0,0.002,0.002,0.005,0.002,0.005l0.003,0.004c0.004,0.002,0.004,0.002,0.006,0.005
	c0.001,0.002,0.005,0,0.005,0.002h0.006c0.433,0.039,0.797,0.346,0.905,0.767c0.016,0.053,0.023,0.111,0.029,0.166l0.001,0.001
	c-0.001,0.002,0,0.002,0.002,0.006c0,0.002,0,0.002,0.002,0.005c0,0,0.002,0.004,0.002,0.006c0.003,0,0.003,0.002,0.005,0.003
	l0.005,0.003c0,0,0.002,0,0.005,0.002h0.005l0.004,0.002c0,0,0,0,0.003,0l0.536-0.057c0,0,0.003,0,0.005-0.002
	c0.004,0,0.004,0,0.009-0.002l0.001-0.004c0.004-0.002,0.004-0.002,0.007-0.004c0.002,0,0.002-0.002,0.002-0.004l0.001-0.005
	c0.001-0.002,0-0.003,0.001-0.005c0,0,0-0.005,0-0.007c-0.009-0.086-0.022-0.175-0.046-0.258
	C87.4,81.147,86.826,80.662,86.142,80.601z M98.083,68.805l-4.953-1.603l-0.274,0.846l4.953,1.603L98.083,68.805z M98.689,74.761
	l-6.809-2.207l-0.247,0.761l6.809,2.207L98.689,74.761z M91.354,74.174l-0.247,0.761l6.809,2.211l0.247-0.761L91.354,74.174z
	 M90.554,76.634l6.809,2.207l0.247-0.762l-6.809-2.207L90.554,76.634z M96.367,73.224L92,71.874l0.04-0.128l0.153,0.05l0.979-3.174
	l0.801,1.52l0.734-0.354l0.601,0.842l1.65-0.034l-0.753,2.438l0.204,0.063L96.367,73.224z M95.08,71.375l1.513-0.034l0.189-0.613
	l-1.539,0.032l-0.577-0.81l-0.748,0.36l-0.715-1.356l-0.148,0.477l0.66,1.463l0.695-0.156L95.08,71.375z M85.804,59.309l-4.874-1.84
	l-0.314,0.833l4.875,1.84L85.804,59.309z M83.612,62.029c-0.064-0.027-0.111-0.077-0.126-0.142
	c-0.009-0.026-0.011-0.053-0.008-0.079c0.008-0.057,0.035-0.104,0.078-0.14l0.201-0.152l-0.268-0.317
	c0,0.002-0.001,0.004-0.003,0.006l-0.71,1.879c-0.014,0.034,0.005,0.073,0.038,0.086l0.843,0.318
	c0.035,0.013,0.071-0.006,0.088-0.039l0.502-1.338l-0.591-0.075C83.643,62.035,83.626,62.033,83.612,62.029z M82.685,60.256
	l-0.636,0.21l-0.776,2.052c-0.013,0.033,0.004,0.07,0.039,0.083l0.843,0.318c0.031,0.014,0.071-0.003,0.085-0.038l0.825-2.181
	L82.685,60.256z M84.619,61.055l-0.332,0.259l-1.31-1.538c-0.034-0.043-0.092-0.06-0.142-0.041l-1.503,0.488l-0.813-0.908
	c-0.048-0.055-0.133-0.061-0.188-0.013c-0.055,0.051-0.059,0.134-0.011,0.188l0.877,0.976c0.031,0.039,0.088,0.055,0.137,0.037
	l1.499-0.491l1.245,1.462l-0.329,0.254c-0.01,0.009-0.018,0.022-0.02,0.034c0,0.007,0.002,0.016,0.002,0.021
	c0.004,0.019,0.021,0.033,0.042,0.036l0.771,0.1c0.028,0.002,0.052-0.016,0.057-0.045l0.097-0.771c0.003-0.02-0.006-0.04-0.025-0.05
	C84.656,61.043,84.633,61.045,84.619,61.055z M76.668,66.291l6.757,2.362l0.264-0.756l-6.757-2.362L76.668,66.291z"/>
</svg>
