<?xml version="1.0" encoding="utf-8"?>
<!-- Generator: Adobe Illustrator 16.0.0, SVG Export Plug-In . SVG Version: 6.00 Build 0)  -->
<!DOCTYPE svg PUBLIC "-//W3C//DTD SVG 1.1//EN" "http://www.w3.org/Graphics/SVG/1.1/DTD/svg11.dtd">
<svg version="1.1" id="Layer_2" xmlns="http://www.w3.org/2000/svg" xmlns:xlink="http://www.w3.org/1999/xlink" x="0px" y="0px"
	 width="126px" height="126px" viewBox="0 0 126 126" enable-background="new 0 0 126 126" xml:space="preserve">
<g>
	<path d="M79.033,39.003c-1.943,0.493-3.119,2.471-2.627,4.416c1.497,5.882,1.227,13.341,0.883,14.678
		c-0.674,1.639-6.119,4.913-8.255,5.021c-0.006-0.002-0.01-0.002-0.016-0.004c-0.402-0.265-0.822-0.503-1.255-0.711
		c3.287-1.449,5.584-4.734,5.584-8.559c0-5.168-4.189-9.357-9.357-9.357s-9.356,4.189-9.356,9.357c0,3.572,2,6.676,4.944,8.251
		c-0.682,0.271-1.338,0.614-1.95,1.019c-2.155-0.136-7.552-3.384-8.206-4.954c-0.361-1.399-0.635-8.858,0.862-14.74
		c0.495-1.945-0.679-3.923-2.624-4.416c-1.941-0.495-3.922,0.681-4.416,2.624c-1.697,6.667-1.641,15.322-0.857,18.353
		c1.149,4.435,7.395,8.007,10.538,9.275c0.289,0.117,0.562,0.208,0.839,0.307c-0.002,0.075-0.013,0.144-0.013,0.221v20.657
		c0,0.976,0.19,1.887,0.521,2.726c-0.002,0.024-0.008,0.044-0.01,0.07l-1.888,15.855l-7.459-4.153
		c-2.072-1.152-4.688-0.406-5.84,1.664c-1.154,2.073-0.408,4.686,1.662,5.841l13.058,7.265c0.648,0.362,1.367,0.542,2.087,0.542
		c0.671,0,1.341-0.155,1.953-0.469c1.275-0.652,2.142-1.896,2.312-3.315l2.119-17.825c0.352,0.034,0.707,0.055,1.063,0.055
		c0.748,0,1.485-0.085,2.202-0.23l4.735,7.99v13.354c0,2.374,1.924,4.293,4.294,4.293c2.371,0,4.295-1.919,4.295-4.293v-14.532
		c0-0.77-0.208-1.525-0.601-2.19l-5.873-9.907c0.336-0.842,0.527-1.757,0.527-2.739V69.782c0-0.073-0.01-0.138-0.012-0.208
		c0.287-0.104,0.571-0.196,0.871-0.319c3.142-1.269,9.388-4.841,10.537-9.275c0.784-3.03,0.841-11.686-0.856-18.353
		C82.956,39.684,80.977,38.506,79.033,39.003z M63.99,63.202c0.046,0,0.089-0.009,0.133-0.009l-0.794,0.801l-0.887-0.93
		C62.947,63.147,63.463,63.202,63.99,63.202z M63.352,82.516H63.31l-2.257-3.089l2.257-15.085h0.042l2.257,15.085L63.352,82.516z"/>
	<path d="M63,43.185c13.78,0,24.991-11.212,24.991-24.992v-1.328l-1.273,0.378c-0.023,0.009-0.766,0.223-2.226,0.516
		c-0.992-3.576-2.606-4.776-4.875-6.168c-0.073-0.045-0.147-0.077-0.223-0.107c-0.482-0.321-1.024-0.56-1.573-0.692l-1.077,1.083
		l-1.043-1.096c-0.006,0-0.008,0-0.012,0.002c-0.552,0.132-1.097,0.366-1.58,0.688c-0.085,0.034-0.172,0.074-0.254,0.123
		c-1.799,1.103-3.187,2.083-4.179,4.225c-0.741-0.608-1.56-1.144-2.465-1.697c-0.091-0.055-0.188-0.093-0.28-0.136
		c-0.608-0.403-1.291-0.703-1.984-0.872l-1.357,1.365l-1.315-1.38c-0.006,0-0.008,0-0.014,0.002
		c-0.697,0.166-1.382,0.463-1.992,0.867c-0.107,0.042-0.216,0.091-0.321,0.153c-0.873,0.535-1.667,1.051-2.388,1.632
		c-0.99-2.093-2.366-3.068-4.144-4.159c-0.075-0.045-0.151-0.077-0.225-0.107c-0.482-0.321-1.022-0.56-1.573-0.692l-1.077,1.083
		l-1.043-1.096c-0.004,0-0.008,0-0.012,0.002c-0.554,0.132-1.095,0.366-1.58,0.688c-0.085,0.034-0.172,0.074-0.254,0.123
		c-2.312,1.418-3.944,2.637-4.932,6.372c-2.259-0.396-3.423-0.716-3.453-0.724l-1.259-0.354v1.308
		C38.009,31.973,49.22,43.185,63,43.185z M68.596,37.676c-1.39,1.303-2.941,2.359-4.592,3.119v-2.873
		C65.477,37.892,67.006,37.815,68.596,37.676z M64.004,35.914v-5.841c3.107-0.038,6.423-0.238,9.907-0.681
		c-0.282,0.796-0.605,1.598-1.002,2.41c-0.645,1.313-1.416,2.535-2.289,3.65C68.31,35.729,66.091,35.873,64.004,35.914z
		 M68.16,40.611c1.263-0.938,2.432-2.039,3.484-3.281c1.764-0.234,3.58-0.554,5.443-0.962C74.495,38.383,71.463,39.854,68.16,40.611
		z M85.975,19.475c-0.111,1.986-0.479,3.907-1.063,5.729c-2.828,0.771-5.594,1.355-8.281,1.794c0.394-2.057,0.435-4.085,0.121-6.117
		C81.328,20.433,84.381,19.841,85.975,19.475z M76.732,12.032h0.021l1.009,6.739c-0.655,0.075-1.342,0.144-2.067,0.211
		L76.732,12.032z M76.113,29.083c2.574-0.394,5.229-0.931,7.938-1.616c-1.028,2.321-2.427,4.441-4.122,6.283l-0.03-0.103
		c-2.246,0.614-4.444,1.078-6.576,1.426c0.497-0.768,0.958-1.567,1.364-2.401C75.281,31.461,75.752,30.268,76.113,29.083z
		 M74.767,21.057c0.331,2.069,0.263,4.144-0.23,6.257c-3.714,0.511-7.249,0.748-10.532,0.792v-6.614
		C68.16,21.469,71.746,21.299,74.767,21.057z M63.576,14.677h0.025l0.724,4.83c-0.365,0.005-0.729,0.007-1.104,0.007
		c-0.124,0-0.243-0.002-0.366-0.002L63.576,14.677z M49.218,36.599c1.509,0.317,3.392,0.646,5.59,0.901
		c1.053,1.216,2.221,2.295,3.478,3.21C54.939,40.013,51.86,38.583,49.218,36.599z M62.022,40.662
		c-1.501-0.728-2.915-1.703-4.194-2.884c1.319,0.091,2.722,0.149,4.194,0.162V40.662z M62.022,35.924
		c-2.269-0.024-4.362-0.155-6.241-0.35c-0.909-1.147-1.713-2.412-2.38-3.771c-0.38-0.778-0.69-1.552-0.966-2.325
		c2.814,0.331,6.041,0.573,9.587,0.608V35.924z M62.022,21.487v6.62c-3.831-0.038-7.271-0.321-10.211-0.701
		c-0.507-2.142-0.62-4.267-0.325-6.357C54.473,21.287,57.987,21.457,62.022,21.487z M50.531,12.032h0.02l1.041,6.966l0.014,0.064
		c-0.731-0.059-1.431-0.121-2.097-0.189L50.531,12.032z M40.025,19.461c1.633,0.359,4.794,0.959,9.485,1.414
		c-0.271,2.047-0.192,4.14,0.22,6.236c-5.105-0.792-8.263-1.779-8.641-1.903C40.504,23.38,40.135,21.455,40.025,19.461z
		 M50.246,29.188c0.355,1.168,0.813,2.333,1.376,3.483c0.438,0.895,0.931,1.751,1.471,2.567c-3.679-0.533-6.168-1.223-7.009-1.475
		c-1.687-1.831-3.081-3.934-4.107-6.237C43.611,27.966,46.462,28.639,50.246,29.188z"/>
	<circle cx="63.59" cy="7.345" r="5.447"/>
	<circle cx="76.744" cy="6.219" r="4.32"/>
	<circle cx="50.541" cy="6.219" r="4.32"/>
</g>
</svg>
