<?xml version="1.0" encoding="utf-8"?>
<!-- Generator: Adobe Illustrator 16.0.0, SVG Export Plug-In . SVG Version: 6.00 Build 0)  -->
<!DOCTYPE svg PUBLIC "-//W3C//DTD SVG 1.1//EN" "http://www.w3.org/Graphics/SVG/1.1/DTD/svg11.dtd">
<svg version="1.1" id="Layer_2" xmlns="http://www.w3.org/2000/svg" xmlns:xlink="http://www.w3.org/1999/xlink" x="0px" y="0px"
	 width="126px" height="126px" viewBox="0 0 126 126" enable-background="new 0 0 126 126" xml:space="preserve">
<g>
	<path d="M62.386,43.259l-4.638-3.254v12.189c0,0.991-0.807,1.8-1.8,1.8H8.231c-0.992,0-1.8-0.809-1.8-1.8V9.428
		c0-0.991,0.808-1.801,1.8-1.801h47.717c0.993,0,1.8,0.81,1.8,1.801v25.079l5.402,3.789V9.428c0-3.972-3.231-7.202-7.202-7.202
		H8.231c-3.971,0-7.202,3.23-7.202,7.202v42.767c0,3.969,3.23,7.2,7.202,7.2h19.148L11.426,97.097
		c-0.662,1.565,0.069,3.37,1.635,4.031c0.391,0.165,0.797,0.244,1.197,0.244c1.199,0,2.337-0.704,2.834-1.877l13.833-32.688
		l13.832,32.688c0.662,1.564,2.466,2.299,4.032,1.633c1.564-0.661,2.296-2.466,1.634-4.031L34.47,59.395h21.478
		c3.971,0,7.202-3.231,7.202-7.2v-4.693C62.419,46.242,62.12,44.752,62.386,43.259z"/>
	<rect x="14.759" y="17.419" width="9.454" height="29.26"/>
	<rect x="27.364" y="25.296" width="9.453" height="21.383"/>
	<polygon points="49.421,46.679 49.421,34.164 40.659,28.017 43.244,24.334 49.421,28.666 49.421,14.943 39.968,14.943 
		39.968,46.679 	"/>
	<circle cx="100.735" cy="14.125" r="12.754"/>
	<path d="M109.22,29.984c-0.215-0.133-0.441-0.227-0.667-0.323c-1.42-0.946-3.014-1.643-4.64-2.043l-3.178,3.199l-3.081-3.233
		c-0.011,0.003-0.021,0.005-0.032,0.005c-1.664,0.4-3.294,1.113-4.743,2.087c-0.47,0.201-0.924,0.456-1.328,0.814
		c-1.377,1.214-2.633,2.378-3.846,3.507c-7.503,6.965-10.208,9.014-17.103,5.789c-2.063-0.966-4.447-0.379-5.857,1.272
		L43.484,26.142l-1.033,1.473L63.84,42.621c-0.845,2.375,0.238,5.049,2.569,6.139c3.63,1.695,6.828,2.406,9.708,2.406
		c4.485,0,8.195-1.729,11.564-4.145V66.86c0,1.332,0.258,2.573,0.711,3.717c-0.034,0.257-0.058,0.519-0.058,0.784l0.003,47.418
		c0.001,3.231,2.621,5.85,5.853,5.85c3.232,0,5.853-2.618,5.852-5.852l-0.003-40.693c0.232,0.011,0.463,0.03,0.697,0.03
		c0.045,0,0.091-0.007,0.137-0.007l-0.002,40.67c0,3.233,2.62,5.852,5.852,5.852c0.001,0,0.001,0,0.001,0
		c3.231,0,5.852-2.618,5.852-5.852l0.002-47.127c0.767-1.42,1.213-3.028,1.213-4.79V50.948c1.153,4.189,1.621,9.784,1.018,17.49
		c-0.213,2.726,1.824,5.108,4.551,5.322c0.132,0.011,0.261,0.016,0.391,0.016c2.56,0,4.729-1.973,4.932-4.567
		C126.632,44.268,118.403,35.617,109.22,29.984z M100.766,56.061h-0.06l-3.075-4.209l3.075-20.561h0.06l3.076,20.561L100.766,56.061
		z"/>
</g>
</svg>
