<?xml version="1.0" encoding="utf-8"?>
<!-- Generator: Adobe Illustrator 16.0.0, SVG Export Plug-In . SVG Version: 6.00 Build 0)  -->
<!DOCTYPE svg PUBLIC "-//W3C//DTD SVG 1.1//EN" "http://www.w3.org/Graphics/SVG/1.1/DTD/svg11.dtd">
<svg version="1.1" id="Layer_2" xmlns="http://www.w3.org/2000/svg" xmlns:xlink="http://www.w3.org/1999/xlink" x="0px" y="0px"
	 width="126px" height="126px" viewBox="0 0 126 126" enable-background="new 0 0 126 126" xml:space="preserve">
<g>
	<polygon points="15.946,60.568 62.863,60.568 62.863,74.122 66.104,74.122 66.104,60.568 110.86,60.568 110.86,77.029 
		114.101,77.029 114.101,57.328 66.104,57.328 66.104,46.854 62.863,46.854 62.863,57.328 12.707,57.328 12.707,77.029 
		15.946,77.029 	"/>
	<circle cx="65.059" cy="23.623" r="6.575"/>
	<path d="M63.457,43.074l1.584-10.6h0.033l1.586,10.6l0.189,0.951h10.645c-1.404-7.724-4.068-9.774-8.063-12.225
		c-0.11-0.068-0.227-0.116-0.34-0.165c-0.734-0.489-1.557-0.848-2.396-1.054l-1.637,1.649l-1.589-1.667c-0.006,0-0.01,0-0.017,0.002
		c-0.842,0.2-1.668,0.559-2.404,1.046c-0.131,0.053-0.261,0.112-0.388,0.188c-3.995,2.451-6.659,4.501-8.063,12.225h10.689
		L63.457,43.074z"/>
	<circle cx="13.907" cy="88.55" r="6.576"/>
	<path d="M18.28,96.727c-0.11-0.067-0.227-0.116-0.341-0.165c-0.733-0.489-1.557-0.848-2.396-1.054l-1.637,1.649l-1.588-1.667
		c-0.007,0-0.011,0-0.017,0.002c-0.842,0.201-1.669,0.559-2.405,1.046c-0.131,0.053-0.262,0.112-0.388,0.188
		c-3.995,2.451-6.658,4.501-8.063,12.225h10.688l0.171-0.951l1.584-10.599h0.031l1.586,10.599l0.19,0.951h10.644
		C24.938,101.228,22.275,99.178,18.28,96.727z"/>
	<circle cx="64.53" cy="88.551" r="6.576"/>
	<path d="M68.902,96.727c-0.108-0.067-0.225-0.116-0.339-0.165c-0.734-0.489-1.557-0.848-2.396-1.054l-1.637,1.649l-1.588-1.667
		c-0.006,0-0.011,0-0.017,0.002c-0.842,0.201-1.669,0.559-2.404,1.046c-0.131,0.053-0.262,0.112-0.389,0.188
		c-3.995,2.451-6.659,4.501-8.063,12.225h10.688l0.172-0.951l1.584-10.599h0.031l1.586,10.599l0.189,0.951h10.646
		C75.562,101.228,72.897,99.178,68.902,96.727z"/>
	<circle cx="112.117" cy="88.551" r="6.576"/>
	<path d="M116.491,96.727c-0.11-0.067-0.227-0.116-0.34-0.165c-0.734-0.489-1.558-0.848-2.396-1.054l-1.638,1.649l-1.588-1.667
		c-0.007,0-0.011,0-0.018,0.002c-0.841,0.201-1.668,0.559-2.404,1.046c-0.131,0.053-0.262,0.112-0.389,0.188
		c-3.995,2.451-6.658,4.501-8.062,12.225h10.688l0.171-0.951l1.584-10.599h0.031l1.586,10.599l0.19,0.951h10.644
		C123.149,101.228,120.486,99.178,116.491,96.727z"/>
</g>
</svg>
