<?xml version="1.0" encoding="utf-8"?>
<!-- Generator: Adobe Illustrator 16.0.0, SVG Export Plug-In . SVG Version: 6.00 Build 0)  -->
<!DOCTYPE svg PUBLIC "-//W3C//DTD SVG 1.1//EN" "http://www.w3.org/Graphics/SVG/1.1/DTD/svg11.dtd">
<svg version="1.1" id="Layer_1" xmlns="http://www.w3.org/2000/svg" xmlns:xlink="http://www.w3.org/1999/xlink" x="0px" y="0px"
	 width="126px" height="126px" viewBox="0 0 126 126" enable-background="new 0 0 126 126" xml:space="preserve">
<g>
	<circle cx="63.017" cy="13.899" r="12.813"/>
	<circle cx="100.153" cy="21.409" r="10.831"/>
	<path d="M107.356,34.876c-0.181-0.111-0.372-0.19-0.563-0.272c-1.207-0.806-2.562-1.397-3.943-1.736l-2.697,2.717l-2.617-2.747
		c-0.009,0.005-0.018,0.005-0.027,0.006c-1.41,0.337-2.792,0.942-4.02,1.766c-0.186,0.081-0.374,0.158-0.554,0.268
		c-1.99,1.221-5.502,3.376-8.496,6.737c-3.85-6.22-9.865-9.923-12.899-11.783c-0.215-0.132-0.441-0.225-0.666-0.321
		c-1.428-0.952-3.03-1.652-4.666-2.055l-3.192,3.214l-3.095-3.248c-0.01,0.003-0.021,0.003-0.032,0.005
		c-1.668,0.399-3.303,1.115-4.756,2.091c-0.221,0.095-0.443,0.187-0.654,0.314c-3.037,1.861-9.059,5.567-12.908,11.796
		c-2.996-3.369-6.516-5.528-8.508-6.75c-0.182-0.111-0.373-0.19-0.563-0.272c-1.207-0.806-2.562-1.397-3.944-1.736l-2.698,2.717
		l-2.616-2.747c-0.009,0.005-0.018,0.005-0.027,0.006c-1.41,0.337-2.792,0.942-4.02,1.766c-0.187,0.081-0.375,0.158-0.554,0.268
		c-5.317,3.26-21.5,13.186-9.635,34.99c0.762,1.403,2.206,2.197,3.697,2.197c0.679,0,1.368-0.165,2.006-0.513
		c0.223-0.12,0.427-0.262,0.618-0.415l0.003,39.145c0,2.743,2.225,4.967,4.97,4.967c2.745,0,4.97-2.224,4.969-4.968l-0.002-34.557
		c0.196,0.008,0.393,0.025,0.591,0.025c0.039,0,0.077-0.007,0.116-0.007l0,34.538c0,2.744,2.224,4.968,4.968,4.968
		c0.001,0,0.001,0,0.001,0c2.744,0,4.969-2.224,4.969-4.968l0.002-39.574c0.304,0.33,0.664,0.618,1.082,0.846
		c0.639,0.348,1.327,0.513,2.005,0.513c1.388,0,2.727-0.695,3.522-1.921c0.187,0.362,0.356,0.718,0.557,1.085
		c0.902,1.658,2.61,2.599,4.374,2.599c0.803,0,1.618-0.196,2.373-0.606c0.264-0.144,0.505-0.311,0.731-0.491l0.004,46.308
		c0,3.247,2.632,5.878,5.88,5.878c3.246,0,5.878-2.631,5.878-5.879l-0.003-40.883c0.233,0.012,0.466,0.03,0.699,0.03
		c0.046,0,0.092-0.006,0.138-0.006l-0.001,40.858c0,3.248,2.631,5.879,5.878,5.879c0.001,0,0.001,0,0.001,0
		c3.246,0,5.878-2.631,5.878-5.879l0.002-46.818c0.36,0.393,0.786,0.734,1.28,1.003c0.755,0.41,1.569,0.606,2.373,0.606
		c1.764,0,3.472-0.94,4.374-2.599c0.197-0.361,0.363-0.711,0.547-1.066c0.796,1.214,2.13,1.902,3.511,1.902
		c0.678,0,1.368-0.165,2.006-0.513c0.223-0.12,0.427-0.262,0.619-0.415l0.003,39.145c0,2.743,2.225,4.967,4.97,4.967
		c2.744,0,4.969-2.224,4.968-4.968l-0.002-34.557c0.197,0.008,0.394,0.025,0.593,0.025c0.038,0,0.076-0.007,0.115-0.007l0,34.538
		c0,2.744,2.224,4.968,4.969,4.968h0c2.744,0,4.969-2.224,4.969-4.968l0.001-39.574c0.304,0.33,0.665,0.618,1.082,0.846
		c0.639,0.348,1.326,0.513,2.004,0.513c1.492,0,2.936-0.794,3.698-2.197C128.856,48.062,112.675,38.136,107.356,34.876z
		 M14.774,62.448c-2.297-5.641-1.844-9.753,0-12.953V62.448z M25.885,57.019h-0.05l-2.611-3.574l2.611-17.458h0.05l2.612,17.458
		L25.885,57.019z M36.945,62.42V49.515c0.505,0.882,0.9,1.836,1.167,2.869c-0.107,1.646-0.045,3.391,0.205,5.239
		C38.095,59.09,37.651,60.682,36.945,62.42z M49.903,62.45c-2.718-6.673-2.181-11.538,0-15.325V62.45z M63.048,56.027h-0.06
		l-3.09-4.229l3.09-20.655h0.06l3.09,20.655L63.048,56.027z M76.132,62.416V47.149C78.297,50.926,78.828,55.776,76.132,62.416z
		 M89.067,62.448c-0.702-1.724-1.144-3.304-1.371-4.761c0.261-1.894,0.321-3.681,0.207-5.361c0.269-1.018,0.663-1.961,1.164-2.831
		V62.448z M100.178,57.019h-0.051l-2.611-3.574l2.611-17.458h0.051l2.612,17.458L100.178,57.019z M111.239,62.42V49.515
		C113.068,52.708,113.518,56.808,111.239,62.42z"/>
	<circle cx="25.859" cy="21.409" r="10.831"/>
</g>
</svg>
