<?xml version="1.0" encoding="utf-8"?>
<!-- Generator: Adobe Illustrator 16.0.0, SVG Export Plug-In . SVG Version: 6.00 Build 0)  -->
<!DOCTYPE svg PUBLIC "-//W3C//DTD SVG 1.1//EN" "http://www.w3.org/Graphics/SVG/1.1/DTD/svg11.dtd">
<svg version="1.1" id="Layer_1" xmlns="http://www.w3.org/2000/svg" xmlns:xlink="http://www.w3.org/1999/xlink" x="0px" y="0px"
	 width="50px" height="50px" viewBox="0 0 50 50" enable-background="new 0 0 50 50" xml:space="preserve">
<g>
	<path d="M13.99,17.425c1.395,0,2.529-1.62,2.529-3.016c0-1.397-1.135-2.528-2.529-2.528c-1.396,0-2.53,1.131-2.53,2.528
		C11.46,15.806,12.594,17.425,13.99,17.425z"/>
	<path d="M20.086,28.1h-0.715v-0.675c0.279-0.205,0.454-0.538,0.413-0.906l-0.802-7.2c-0.005-0.049-0.03-0.088-0.041-0.133
		c-0.021-0.074-0.034-0.145-0.069-0.212c-0.027-0.051-0.063-0.091-0.097-0.135c-0.046-0.06-0.087-0.119-0.144-0.167
		c-0.047-0.037-0.101-0.06-0.149-0.09c-0.053-0.03-0.094-0.071-0.152-0.092c-0.091-0.033-2.103-0.755-3.952-0.85l-0.253,0.508
		h-0.008l0.672,5.246l-0.799,1.397l-0.8-1.397l0.672-5.246h-0.008l-0.252-0.508c-1.853,0.095-3.861,0.817-3.952,0.85
		c-0.06,0.021-0.103,0.063-0.156,0.094c-0.047,0.029-0.099,0.051-0.142,0.088c-0.062,0.049-0.104,0.11-0.15,0.171
		c-0.033,0.042-0.067,0.08-0.095,0.128c-0.034,0.069-0.049,0.142-0.07,0.217c-0.01,0.046-0.035,0.083-0.042,0.13l-0.799,7.2
		c-0.062,0.549,0.335,1.043,0.883,1.104c0.036,0.004,0.076,0.007,0.114,0.007c0.498,0,0.935-0.378,0.991-0.889l0.726-6.56
		c0.087-0.025,0.182-0.052,0.28-0.08v6.825l-0.798,9.896c-0.052,0.662,0.442,1.239,1.101,1.292c0.033,0.003,0.066,0.004,0.098,0.004
		c0.619,0,1.145-0.476,1.195-1.104l0.72-8.943c0.15,0.066,0.312,0.103,0.484,0.103s0.333-0.037,0.483-0.103l0.72,8.943
		c0.053,0.628,0.576,1.104,1.195,1.104c0.033,0,0.064-0.001,0.097-0.004c0.663-0.053,1.152-0.63,1.1-1.292l-0.797-9.896v-6.825
		c0.103,0.027,0.194,0.054,0.279,0.08l0.729,6.56c0.052,0.481,0.442,0.832,0.908,0.873V28.1h-0.717c-0.222,0-0.399,0.18-0.399,0.399
		v6.067c0,0.22,0.178,0.401,0.399,0.401h2.098c0.221,0,0.399-0.181,0.399-0.401V28.5C20.485,28.28,20.307,28.1,20.086,28.1z"/>
	<polygon points="26.858,25.407 26.858,26.678 31.25,26.678 31.25,25.407 33.289,25.407 29.054,21.889 24.819,25.407 	"/>
	<polygon points="24.838,20.667 22.162,18.55 22.162,19.57 19.838,19.57 19.838,21.766 22.162,21.766 22.162,22.785 	"/>
	<path d="M40.071,17.65v-2.119h-1.72v-3.617h-0.431v3.617h-1.719v2.119h-1.738V37.26h-0.729v-9.59h-9.363v10.449h9.363h0.729h7.346
		V17.65H40.071z M26.82,34.063h-1.589v-2.767h1.589V34.063z M28.839,37.26H27.25v-2.767h1.589V37.26z M28.839,34.063H27.25v-2.767
		h1.589V34.063z M28.839,30.866H27.25V28.1h1.589V30.866z M30.857,37.26h-1.589v-2.767h1.589V37.26z M30.857,30.866h-1.589V28.1
		h1.589V30.866z M32.876,34.063h-1.589v-2.767h1.589V34.063z M36.632,15.961h3.009v1.689h-3.009V15.961z M36.913,34.063h-1.59
		v-2.767h1.59V34.063z M36.913,30.866h-1.59V28.1h1.59V30.866z M36.913,27.67h-1.59v-2.767h1.59V27.67z M36.913,24.474h-1.59v-2.767
		h1.59V24.474z M38.931,37.26h-1.588v-2.767h1.588V37.26z M38.931,34.063h-1.588v-2.767h1.588V34.063z M38.931,24.474h-1.588v-2.767
		h1.588V24.474z M38.931,21.276h-1.588V18.51h1.588V21.276z M40.95,34.063h-1.59v-2.767h1.59V34.063z M40.95,30.866h-1.59V28.1h1.59
		V30.866z M40.95,27.67h-1.59v-2.767h1.59V27.67z M40.95,21.276h-1.59V18.51h0.711h0.879V21.276z"/>
</g>
</svg>
