<?xml version="1.0" encoding="utf-8"?>
<!-- Generator: Adobe Illustrator 16.0.0, SVG Export Plug-In . SVG Version: 6.00 Build 0)  -->
<!DOCTYPE svg PUBLIC "-//W3C//DTD SVG 1.1//EN" "http://www.w3.org/Graphics/SVG/1.1/DTD/svg11.dtd">
<svg version="1.1" id="Layer_1" xmlns="http://www.w3.org/2000/svg" xmlns:xlink="http://www.w3.org/1999/xlink" x="0px" y="0px"
	 width="126px" height="126px" viewBox="0 0 126 126" enable-background="new 0 0 126 126" xml:space="preserve">
<g>
	<path d="M102.03,43.905H91.556c-0.164-1.119-0.743-2.173-1.732-2.889c-1.958-1.421-4.697-0.985-6.117,0.974l-0.522,0.722
		l-4.915-8.217c-0.518-0.868-1.294-1.472-2.168-1.814v-0.049l-5.914-2.629l-2.422-2.195l-4.802,4.387l-4.695-4.425l-2.742,2.311
		l-5.702,2.551v0.075c-0.843,0.347-1.589,0.945-2.093,1.788l-4.915,8.217l-0.522-0.722c-1.419-1.958-4.157-2.395-6.117-0.974
		c-0.988,0.716-1.581,1.771-1.748,2.889H23.97v59.789h25.157c-0.022,0.223-0.034,0.448-0.034,0.677l0.004,13.837
		c0.001,3.74,3.033,6.772,6.774,6.772h0.001c3.742-0.001,6.773-3.035,6.772-6.776l-0.004-13.837c0-0.227-0.012-0.451-0.034-0.672
		h1.034c-0.021,0.222-0.034,0.446-0.034,0.673l-0.002,13.837c0,3.741,3.032,6.774,6.773,6.775h0c3.741,0,6.774-3.033,6.774-6.773
		l0.002-13.837c0-0.229-0.013-0.453-0.034-0.676h24.91V43.905z M62.93,33.109h0.066l1.616,10.796h-3.297L62.93,33.109z
		 M95.899,97.563H30.101V50.037h65.799V97.563z"/>
	<path d="M50.724,72.327l-6.949,7.232v12.203c0,0.344,0.279,0.623,0.623,0.623h8.438c0.343,0,0.622-0.279,0.622-0.623V73.042
		l-1.946-0.715H50.724z"/>
	<path d="M67.914,77.998h-8.439c-0.343,0-0.622,0.279-0.622,0.623v13.14c0,0.344,0.279,0.623,0.622,0.623h8.439
		c0.344,0,0.623-0.279,0.623-0.623v-13.14C68.537,78.277,68.258,77.998,67.914,77.998z"/>
	<path d="M80.18,64.611l-1.533-1.282L73.1,69.38v22.381c0,0.344,0.279,0.623,0.623,0.623h8.439c0.344,0,0.622-0.279,0.622-0.623
		V64.816c-0.035,0.021-0.066,0.045-0.102,0.063c-0.323,0.168-0.685,0.258-1.049,0.258C81.102,65.138,80.586,64.951,80.18,64.611z"/>
	<path d="M40.85,76.194c0.241,0.233,0.553,0.347,0.863,0.347c0.328,0,0.654-0.128,0.897-0.383l7.942-8.266l13.9,5.114
		c0.475,0.174,1.006,0.046,1.348-0.327l12.798-13.961l2.995,2.504c0.146,0.122,0.351,0.145,0.52,0.055
		c0.169-0.088,0.268-0.269,0.251-0.459l-0.649-7.258c-0.023-0.26-0.252-0.451-0.511-0.428l-7.259,0.649
		c-0.189,0.017-0.351,0.147-0.407,0.328c-0.02,0.059-0.026,0.123-0.02,0.184c0.01,0.122,0.07,0.238,0.167,0.318l3,2.508
		L64.53,70.382L50.65,65.274c-0.465-0.169-0.984-0.049-1.328,0.306l-8.507,8.854C40.339,74.929,40.355,75.717,40.85,76.194z"/>
	<rect x="34.373" y="54.171" width="10.75" height="1.897"/>
	<rect x="34.373" y="57.966" width="6.094" height="1.899"/>
	<circle cx="63.06" cy="14.395" r="13.375"/>
</g>
</svg>
