<?xml version="1.0" encoding="utf-8"?>
<!-- Generator: Adobe Illustrator 16.0.0, SVG Export Plug-In . SVG Version: 6.00 Build 0)  -->
<!DOCTYPE svg PUBLIC "-//W3C//DTD SVG 1.1//EN" "http://www.w3.org/Graphics/SVG/1.1/DTD/svg11.dtd">
<svg version="1.1" id="Layer_1" xmlns="http://www.w3.org/2000/svg" xmlns:xlink="http://www.w3.org/1999/xlink" x="0px" y="0px"
	 width="50px" height="50px" viewBox="0 0 50 50" enable-background="new 0 0 50 50" xml:space="preserve">
<g>
	<path d="M20.042,25.632c1.91-1.285,3.224-3.818,3.224-6.099c0-3.22-2.609-5.829-5.827-5.829c-3.219,0-5.828,2.609-5.828,5.829
		c0,2.281,1.314,4.814,3.224,6.099c-4.565,1.158-7.95,5.121-7.95,8.059c0,3.473,21.106,3.473,21.106,0
		C27.993,30.754,24.608,26.791,20.042,25.632z M17.438,36.295l-2.957-2.957l2.49-6.016h-0.026l-0.966-1.107
		c0.469,0.167,0.956,0.269,1.461,0.269c0.504,0,0.99-0.102,1.457-0.268l-0.964,1.107h-0.026l2.49,6.016L17.438,36.295z"/>
	<circle cx="41.917" cy="14.924" r="1.197"/>
	<circle cx="41.917" cy="21.642" r="1.196"/>
	<circle cx="41.917" cy="28.36" r="1.197"/>
	<circle cx="41.917" cy="35.077" r="1.197"/>
	<polygon points="31.723,14.461 31.261,14.461 31.261,24.539 24.774,24.539 24.774,25.464 31.261,25.464 31.261,35.54 31.723,35.54 
		32.187,35.54 40.064,35.54 40.064,34.613 32.187,34.613 32.187,28.823 40.064,28.823 40.064,27.896 32.187,27.896 32.187,22.105 
		40.064,22.105 40.064,21.18 32.187,21.18 32.187,15.388 40.064,15.388 40.064,14.461 32.187,14.461 	"/>
</g>
</svg>
