<svg width="64" xmlns="http://www.w3.org/2000/svg" height="64" viewBox="0 0 64 64" xmlns:xlink="http://www.w3.org/1999/xlink" enable-background="new 0 0 64 64">
<g fill="#0e0f0f">
<circle cx="42.112" cy="18.215" r="4.132"/>
<path d="m53.295,24.818c-3.598,1.427-7.611,2.035-11.389,1.126-.066-.553-.258-1.114-.6-1.665-.238-.387-.564-.733-.943-1.03-.186-.205-.436-.37-.75-.481-.656-.34-1.395-.534-2.119-.522-4.867-1.078-9.809-1.646-14.8-1.792-2.556-.074-2.549,3.887 0,3.961 3.24,.095 6.441,.378 9.617,.876-2.458,1.714-5.023,3.247-7.7,4.602-6.966,1.972-13.93,3.942-20.896,5.912-3.048,.862-2.141,5.734 .934,4.863 5.26-1.488 10.521-2.977 15.781-4.465 .031,.085 .067,.168 .103,.248-4.289,3.084-9.054,6.408-12.614,9.128-2.536,1.937 .56,5.806 3.098,3.865 4.344-3.318 10.479-7.532 15.355-11.118 .061-.025 .122-.049 .182-.075 4.808-2.175 9.25-4.914 13.395-8.179 .166-.131 .322-.272 .473-.417 4.527,1.287 9.607,.695 13.928-1.019 2.341-.929 1.322-4.761-1.055-3.818z"/>
<circle cx="59.719" cy="15.436" r="3.281"/>
</g>
</svg>
