<?xml version="1.0" encoding="utf-8"?>
<!-- Generator: Adobe Illustrator 16.0.0, SVG Export Plug-In . SVG Version: 6.00 Build 0)  -->
<!DOCTYPE svg PUBLIC "-//W3C//DTD SVG 1.1//EN" "http://www.w3.org/Graphics/SVG/1.1/DTD/svg11.dtd">
<svg version="1.1" id="Layer_1" xmlns="http://www.w3.org/2000/svg" xmlns:xlink="http://www.w3.org/1999/xlink" x="0px" y="0px"
	 width="50px" height="50px" viewBox="0 0 50 50" enable-background="new 0 0 50 50" xml:space="preserve">
<g>
	<path d="M14.539,27.498c0,1.328,8.073,1.328,8.073,0c0-1.123-1.294-2.641-3.041-3.084c0.73-0.49,1.233-1.46,1.233-2.332
		c0-1.231-0.997-2.23-2.229-2.23c-1.231,0-2.229,0.999-2.229,2.23c0,0.872,0.503,1.842,1.231,2.332
		C15.834,24.857,14.539,26.375,14.539,27.498z M18.396,25.062h-0.01l-0.369-0.425c0.18,0.064,0.364,0.104,0.559,0.104
		c0.195,0,0.379-0.038,0.559-0.102l-0.37,0.423h-0.009l0.953,2.302l-1.133,1.13l-1.132-1.13L18.396,25.062z"/>
	<path d="M22.612,24.172c0,0.289,0.231,0.521,0.52,0.521h6.317c0.082-0.058,0.179-0.111,0.311-0.148v-0.894h-6.628
		C22.844,23.651,22.612,23.884,22.612,24.172z"/>
	<path d="M29.76,21.278h-6.628c-0.288,0-0.52,0.232-0.52,0.521c0,0.287,0.231,0.521,0.52,0.521h6.628V21.278z"/>
	<path d="M14.654,32.046c-1.07,0-1.94-0.87-1.94-1.939V18.239c0-1.069,0.87-1.939,1.94-1.939H29.76v-1.293H14.654
		c-1.784,0-3.234,1.449-3.234,3.232v11.867c0,1.783,1.45,3.232,3.234,3.232h15.194l0.346-1.293H14.654z"/>
	<path d="M36.117,15.11v1.352c0.687,0.299,1.169,0.982,1.169,1.777v11.867c0,1-0.764,1.815-1.736,1.919l0.337,1.259
		c1.526-0.259,2.693-1.58,2.693-3.178V18.239C38.58,16.724,37.527,15.458,36.117,15.11z"/>
	<path d="M30.58,23.531c0.306-0.364,0.835-0.386,1.412,0.014c0.484-1.018,1.407-1.017,1.892-0.001
		c0.577-0.4,1.105-0.378,1.412-0.013c0.186,0.222,0.261,0.536,0.227,0.958c0.037-0.003,0.06,0.006,0.095,0.004v-10.47H30.26v10.472
		c0.035,0.001,0.057-0.008,0.095-0.005C30.319,24.068,30.395,23.753,30.58,23.531z"/>
	<path d="M32.041,30.518c-0.016-0.004-0.03-0.009-0.046-0.014c-0.354,0.256-0.678,0.334-0.945,0.282l-1.147,4.284l1.111-0.756
		l0.493,1.188l1.146-4.275C32.414,31.123,32.208,30.889,32.041,30.518z"/>
	<path d="M33.882,30.504c-0.016,0.005-0.031,0.01-0.046,0.014c-0.193,0.432-0.441,0.672-0.731,0.741l1.265,4.718l0.428-1.617
		l1.178,1.187l-1.27-4.738C34.462,30.812,34.182,30.721,33.882,30.504z"/>
	<path d="M33.527,30.161c0.151-0.028,0.294-0.077,0.437-0.126c0.78,0.656,1.205,0.41,1.027-0.594
		c0.112-0.098,0.217-0.203,0.314-0.316c1.005,0.179,1.25-0.246,0.594-1.026c0.049-0.142,0.098-0.284,0.126-0.435
		c0.944-0.348,0.944-0.832-0.001-1.18c-0.028-0.15-0.076-0.293-0.125-0.436c0.655-0.78,0.41-1.205-0.594-1.027
		c-0.099-0.112-0.203-0.217-0.315-0.314c0.178-1.005-0.247-1.25-1.027-0.594c-0.143-0.049-0.284-0.097-0.435-0.125
		c-0.348-0.946-0.832-0.946-1.18,0c-0.15,0.028-0.293,0.076-0.436,0.125c-0.78-0.656-1.205-0.411-1.026,0.594
		c-0.113,0.099-0.218,0.203-0.315,0.315c-1.005-0.178-1.25,0.247-0.594,1.027c-0.049,0.143-0.098,0.284-0.126,0.435
		c-0.945,0.348-0.945,0.834,0.001,1.18c0.028,0.15,0.076,0.293,0.125,0.436c-0.656,0.781-0.411,1.205,0.594,1.027
		c0.098,0.112,0.202,0.217,0.314,0.314c-0.178,1.005,0.247,1.25,1.027,0.594c0.143,0.049,0.285,0.098,0.437,0.126
		C32.696,31.106,33.181,31.106,33.527,30.161z"/>
</g>
</svg>
