<?xml version="1.0" encoding="iso-8859-1"?>
<!-- Generator: Adobe Illustrator 17.1.0, SVG Export Plug-In . SVG Version: 6.00 Build 0)  -->
<!DOCTYPE svg PUBLIC "-//W3C//DTD SVG 1.1//EN" "http://www.w3.org/Graphics/SVG/1.1/DTD/svg11.dtd">
<svg version="1.1" id="Layer_1" xmlns="http://www.w3.org/2000/svg" xmlns:xlink="http://www.w3.org/1999/xlink" x="0px" y="0px"
	 viewBox="0 0 128 128" style="enable-background:new 0 0 128 128;" xml:space="preserve">
<g>
	<path d="M75.183,30.769c5.01-0.899,8.867-6.475,8.867-13.188C84.05,10.242,79.44,4.293,73.754,4.293
		c-5.686,0-10.296,5.949-10.296,13.288c0,6.733,3.88,12.292,8.911,13.166c0.264,0.046,0.419,0.197,0.341,0.355l-0.14,0.286
		l-0.979,1.844c-0.126,0.237-0.01,0.43,0.258,0.43h0.181c0.269,0,0.417,0.207,0.352,0.467c-0.209,0.835-0.269,1.716-0.139,2.665
		c0.176,1.276,0.956,2.449,1.499,3.592c0.759,1.598,0.951,3.067,0.525,4.78c-0.378,1.52-0.884,2.944-1.077,4.509
		c-0.191,1.554,2.242,1.531,2.431-0.004c0.177-1.44,0.724-2.801,1.072-4.202c0.35-1.408,0.333-2.82-0.016-4.224
		c-0.335-1.348-1.089-2.54-1.678-3.787c-0.55-1.167-0.46-2.27-0.094-3.342c0.087-0.254,0.389-0.455,0.658-0.455h0.139
		c0.269,0,0.384-0.192,0.258-0.43l-0.979-1.844c0,0-0.063-0.123-0.141-0.274C74.766,30.963,74.919,30.817,75.183,30.769z"/>
	<circle cx="62.204" cy="56.762" r="8.311"/>
	<path d="M39.539,83.647c-1.331,1.428-1.254,3.665,0.174,4.996c0.681,0.636,1.547,0.95,2.411,0.95c0.946,0,1.889-0.377,2.585-1.123
		l7.738-8.643V89.94l-1.029,29.243c-0.08,2.276,1.701,4.186,3.976,4.267c0.049,0.001,0.099,0.002,0.148,0.002
		c2.21,0,4.04-1.752,4.119-3.979l0.771-21.918h3.219l2.895,22.303c0.27,2.079,2.043,3.593,4.084,3.593
		c0.177,0,0.356-0.012,0.536-0.035c2.259-0.293,3.852-2.361,3.558-4.62l-4.089-31.116l-0.108-12.65l9.054-4.129
		c0.992-0.453,1.728-1.329,2-2.386l3.679-14.265c0.499-1.933-0.664-3.904-2.597-4.402c-1.924-0.499-3.904,0.664-4.402,2.597
		L75.012,65.04l-7.354,3.354H54.803c-0.193,0-0.378,0.03-0.558,0.073c-0.71,0.136-1.385,0.481-1.916,1.05L39.539,83.647z"/>
</g>
</svg>
