<?xml version="1.0" encoding="utf-8"?>
<!-- Generator: Adobe Illustrator 16.0.0, SVG Export Plug-In . SVG Version: 6.00 Build 0)  -->
<!DOCTYPE svg PUBLIC "-//W3C//DTD SVG 1.1//EN" "http://www.w3.org/Graphics/SVG/1.1/DTD/svg11.dtd">
<svg version="1.1" id="Layer_1" xmlns="http://www.w3.org/2000/svg" xmlns:xlink="http://www.w3.org/1999/xlink" x="0px" y="0px"
	 width="126px" height="126px" viewBox="0 0 126 126" enable-background="new 0 0 126 126" xml:space="preserve">
<g>
	<path fill="#010101" d="M23.344,39.383c-0.846-0.526-1.585-1.255-2.131-2.171c-1.171-1.964-1.174-4.296-0.223-6.2l-2.878-10.238
		l-7.114,4.237l16.078,26.992l-0.462-0.993L23.344,39.383z M15.089,28.911l-2.008-3.371l3.371-2.008
		C17.203,25.428,16.654,27.601,15.089,28.911z"/>
	<path fill="#010101" d="M19.833,43.801c-0.951-0.297-1.85-0.815-2.609-1.565c-1.626-1.606-2.216-3.862-1.775-5.944l-5.36-9.185
		L4.27,32.997l22.35,22.079l-0.697-0.845L19.833,43.801z M9.211,35.742L6.42,32.984l2.757-2.791
		C10.38,31.84,10.396,34.08,9.211,35.742z"/>
	<path fill="#010101" d="M36.922,14.636l-17.318,4.868l8.503,30.246l17.317-4.868L36.922,14.636z M35.87,16.512l1.062,3.776
		c-2.025,0.234-3.983-0.864-4.838-2.715L35.87,16.512z M22.541,24.335l-1.062-3.778l3.777-1.063
		C25.488,21.521,24.393,23.477,22.541,24.335z M29.159,47.874l-1.061-3.777c2.027-0.233,3.98,0.866,4.839,2.714L29.159,47.874z
		 M34.261,38.413c-3.435,0.967-7.001-1.036-7.967-4.471c-0.966-3.437,1.034-7.005,4.47-7.969c3.436-0.967,7.003,1.036,7.969,4.47
		C39.699,33.879,37.697,37.448,34.261,38.413z M42.487,40.052l1.062,3.777l-3.776,1.061C39.538,42.865,40.637,40.907,42.487,40.052z
		"/>
	<path fill="#010101" d="M36.141,30.62c-0.262-0.613-0.611-1.074-1.039-1.372c-0.469-0.322-0.98-0.41-1.526-0.257
		c-0.502,0.141-0.886,0.411-1.144,0.803c-0.253,0.382-0.414,0.921-0.477,1.605l-0.035,0.407l-1.804,0.506
		c-0.065-0.289-0.105-0.625-0.115-0.997c-0.013-0.437,0.011-0.831,0.074-1.176l0.04-0.223l-1.458,0.41l-0.012,0.089
		c-0.099,0.638-0.04,1.396,0.175,2.262l-1.154,0.324l0.281,0.997l1.202-0.337c0.29,0.67,0.657,1.153,1.107,1.441
		c0.483,0.312,1.017,0.388,1.582,0.229c0.458-0.129,0.811-0.385,1.05-0.761c0.232-0.371,0.383-0.94,0.457-1.736l0.032-0.36
		l1.749-0.493c0.082,0.518,0.1,1.062,0.043,1.625l-0.017,0.14l1.392,0.147l0.018-0.14c0.082-0.706,0.041-1.428-0.118-2.142
		l0.907-0.256l-0.281-0.997L36.141,30.62z M31.692,33.498c-0.08,0.152-0.201,0.251-0.371,0.298
		c-0.131,0.037-0.507,0.143-0.857-0.503l1.38-0.389C31.81,33.164,31.761,33.365,31.692,33.498z M33.478,31.369
		c0.04-0.248,0.098-0.431,0.167-0.55c0.083-0.138,0.207-0.228,0.382-0.276c0.161-0.045,0.307-0.022,0.45,0.07
		c0.122,0.079,0.233,0.205,0.329,0.383L33.478,31.369z"/>
	<path fill="#010101" d="M111.819,35.799l-10.196-6.472c-0.982,0.174-2.019,0.125-3.037-0.191c-2.183-0.681-3.743-2.414-4.306-4.467
		l-8.979-5.699l-2.466,7.905l29.993,9.354L111.819,35.799z M88.486,27.046l-3.747-1.169l1.168-3.745
		C87.732,23.042,88.774,25.025,88.486,27.046z"/>
	<path fill="#010101" d="M101.96,34.961c-0.907,0.414-1.922,0.628-2.987,0.576c-2.284-0.109-4.229-1.395-5.292-3.24l-10.124-3.256
		l-0.398,8.271l31.381,1.509l-1.084-0.162L101.96,34.961z M84.752,35.867l0.188-3.919c1.995,0.422,3.502,2.08,3.73,4.107
		L84.752,35.867z"/>
	<path fill="#010101" d="M121.73,18.676L95.203,1.841l-9.639,15.188l26.528,16.835L121.73,18.676z M116.318,17.041l3.313,2.103
		l-2.102,3.312C116.002,21.105,115.513,18.914,116.318,17.041z M90.977,18.663l-3.314-2.104l2.102-3.313
		C91.29,14.601,91.781,16.788,90.977,18.663z M93.571,7.251l2.102-3.312l3.313,2.102C97.633,7.568,95.442,8.057,93.571,7.251z
		 M100.185,23.309c-3.014-1.913-3.907-5.905-1.995-8.918c1.912-3.013,5.906-3.904,8.917-1.993c3.013,1.911,3.906,5.905,1.993,8.917
		C107.19,24.328,103.197,25.22,100.185,23.309z M108.309,29.662c1.353-1.527,3.541-2.014,5.415-1.211l-2.102,3.314L108.309,29.662z"
		/>
	<path fill="#010101" d="M106.184,14.795l0.504-0.796l-0.874-0.555l-0.519,0.814c-0.604-0.281-1.172-0.391-1.688-0.327
		c-0.565,0.073-1.004,0.35-1.308,0.827c-0.279,0.44-0.385,0.898-0.316,1.362c0.067,0.452,0.308,0.962,0.717,1.513l0.246,0.326
		l-1.003,1.582c-0.242-0.172-0.497-0.395-0.753-0.665c-0.3-0.316-0.545-0.627-0.729-0.925l-0.118-0.192l-0.812,1.277l0.051,0.074
		c0.352,0.541,0.902,1.067,1.641,1.567l-0.643,1.013l0.875,0.555l0.669-1.055c0.662,0.307,1.26,0.42,1.787,0.334
		c0.567-0.091,1.016-0.389,1.33-0.886c0.255-0.401,0.346-0.828,0.274-1.268c-0.076-0.433-0.343-0.956-0.819-1.598l-0.217-0.289
		l0.972-1.535c0.407,0.33,0.784,0.724,1.118,1.181l0.081,0.115l1.134-0.819l-0.08-0.115
		C107.293,15.73,106.779,15.221,106.184,14.795z M103.829,19.843c-0.073,0.115-0.282,0.443-0.974,0.198l0.767-1.212
		c0.149,0.216,0.247,0.398,0.285,0.543C103.949,19.539,103.925,19.692,103.829,19.843z M103.815,16.595
		c-0.136-0.21-0.216-0.386-0.244-0.52c-0.03-0.158,0.002-0.308,0.1-0.461c0.09-0.142,0.213-0.222,0.382-0.249
		c0.143-0.023,0.311-0.003,0.5,0.064L103.815,16.595z"/>
	<path fill="#010101" d="M83.719,108.45l-12.068-0.471c-0.761,0.643-1.682,1.122-2.722,1.358c-2.229,0.51-4.448-0.206-5.967-1.698
		l-10.627-0.414l1.839,8.073l30.633-6.982L83.719,108.45z M55.32,113.479l-0.872-3.825c2.035-0.13,3.933,1.062,4.699,2.953
		L55.32,113.479z"/>
	<path fill="#010101" d="M74.773,112.68c-0.575,0.814-1.346,1.51-2.292,1.999c-2.029,1.055-4.357,0.919-6.202-0.142l-10.389,2.271
		l3.812,7.352l27.89-14.463l-1.019,0.403L74.773,112.68z M60.352,122.11l-1.806-3.483c1.936-0.637,4.073,0.037,5.289,1.676
		L60.352,122.11z"/>
	<path fill="#010101" d="M83.685,88.667L52.29,87.439l-0.703,17.975l31.395,1.226L83.685,88.667z M53.166,103.955l0.153-3.921
		c1.999,0.403,3.523,2.048,3.77,4.073L53.166,103.955z M53.597,92.938l0.153-3.919l3.92,0.151
		C57.27,91.17,55.621,92.693,53.597,92.938z M67.385,103.497c-3.567-0.139-6.346-3.143-6.205-6.708
		c0.139-3.565,3.144-6.343,6.708-6.203c3.565,0.138,6.345,3.143,6.204,6.708C73.953,100.859,70.949,103.636,67.385,103.497z
		 M81.521,105.063l-3.92-0.154c0.401-2.001,2.05-3.521,4.073-3.768L81.521,105.063z M81.952,94.045
		c-1.999-0.4-3.523-2.049-3.767-4.073l3.92,0.154L81.952,94.045z"/>
	<path fill="#010101" d="M69.8,94.949l0.127,0.059l0.568-1.278l-0.127-0.059c-0.646-0.296-1.346-0.479-2.074-0.549l0.036-0.941
		l-1.035-0.04l-0.039,0.965c-0.664,0.06-1.209,0.25-1.625,0.565c-0.451,0.348-0.693,0.807-0.715,1.372
		c-0.02,0.521,0.119,0.971,0.411,1.336c0.285,0.357,0.75,0.678,1.38,0.948l0.377,0.157l-0.073,1.874
		c-0.296-0.028-0.627-0.094-0.985-0.198c-0.418-0.121-0.786-0.268-1.096-0.433l-0.199-0.108l-0.059,1.514l0.081,0.039
		c0.577,0.29,1.317,0.469,2.206,0.53l-0.047,1.199l1.036,0.04l0.049-1.248c0.727-0.069,1.299-0.271,1.713-0.61
		c0.444-0.363,0.683-0.847,0.704-1.434c0.019-0.476-0.116-0.89-0.399-1.232c-0.283-0.336-0.777-0.655-1.511-0.971l-0.333-0.141
		l0.068-1.815C68.757,94.57,69.281,94.722,69.8,94.949z M67.15,95.869c-0.224-0.113-0.381-0.226-0.472-0.327
		c-0.105-0.122-0.153-0.267-0.146-0.449c0.007-0.166,0.072-0.298,0.205-0.407c0.113-0.092,0.267-0.158,0.466-0.194L67.15,95.869z
		 M68.625,98.224c0.12,0.123,0.176,0.269,0.169,0.446c-0.005,0.136-0.022,0.525-0.743,0.661l0.054-1.435
		C68.343,98.01,68.519,98.117,68.625,98.224z"/>
	<path fill="#010101" d="M54.49,50.299c1.2,0,2.354-0.437,3.217-1.205c0.12-0.099,2.972-2.429,7.415-2.429
		c0.206,0,0.413,0.005,0.621,0.016l-0.524,0.981c-0.29,0.544-0.288,1.159,0.006,1.648c0.292,0.481,0.826,0.772,1.499,0.772
		c0.003,0,0.003,0,0.005,0l14.515-0.492c0.625-0.022,1.163-0.341,1.436-0.853c0.271-0.511,0.237-1.135-0.094-1.667l-7.684-12.32
		c-0.325-0.521-0.836-0.819-1.403-0.819c-0.602,0-1.144,0.345-1.447,0.916l-1.42,2.66c-1.794-0.443-3.614-0.668-5.415-0.668
		c-8.394,0-13.937,4.847-13.994,4.896c-0.436,0.389-0.796,0.846-1.071,1.363c-0.952,1.799-0.688,4.028,0.666,5.557
		C51.751,49.7,53.091,50.299,54.49,50.299z M52.428,44.309c0.131-0.246,0.302-0.465,0.503-0.644
		c0.049-0.042,4.952-4.249,12.286-4.249c1.705,0,3.436,0.228,5.133,0.678c0.902,0.239,1.931-0.209,2.362-1.021l0.853-1.599
		l5.986,9.597l-11.306,0.384l0.362-0.676c0.277-0.522,0.292-1.111,0.035-1.613c-0.252-0.5-0.731-0.835-1.313-0.917
		c-0.733-0.105-1.476-0.159-2.208-0.159c-5.272,0-8.688,2.717-9.091,3.052c-0.92,0.817-2.47,0.717-3.287-0.195
		C52.102,46.222,51.976,45.161,52.428,44.309z"/>
	<path fill="#010101" d="M59.447,83.108L59.447,83.108c2.033,0,3.879-1.28,4.594-3.191c0.938-2.534-0.354-5.363-2.848-6.296
		c-0.041-0.016-3.832-1.594-5.892-5.96l1.115,0.001c0.627,0,1.174-0.299,1.463-0.801c0.291-0.501,0.275-1.124-0.036-1.666
		l-7.241-12.59c-0.313-0.545-0.847-0.871-1.428-0.871c-0.577,0-1.109,0.323-1.426,0.866l-7.282,12.567
		c-0.313,0.542-0.327,1.166-0.038,1.668c0.291,0.501,0.838,0.802,1.461,0.802l3.016,0.005c2.854,11.364,12.738,15.124,12.836,15.159
		C58.288,83.005,58.862,83.108,59.447,83.108z M47.321,66.678c-0.211-0.915-1.073-1.605-2.009-1.61L43.5,65.064l5.67-9.784
		l5.641,9.807l-0.769-0.003c-0.592,0-1.116,0.264-1.44,0.726c-0.322,0.455-0.393,1.035-0.194,1.587
		c2.269,6.312,7.596,8.521,7.851,8.625c1.2,0.448,1.813,1.795,1.368,2.998c-0.337,0.905-1.215,1.514-2.18,1.514
		c-0.279,0-0.552-0.049-0.805-0.143C58.554,80.355,49.703,76.869,47.321,66.678z"/>
	<path fill="#010101" d="M87.555,54.625c-0.242-0.529-0.574-1.007-0.991-1.427c-1.404-1.406-3.674-1.824-5.507-0.99
		c-2.451,1.13-3.538,4.042-2.434,6.467c0.017,0.041,1.583,3.834-0.051,8.379l-0.785-0.786c-0.337-0.339-0.764-0.524-1.202-0.524
		c-0.729,0-1.353,0.507-1.553,1.257l-3.782,14.021c-0.146,0.532-0.05,1.068,0.258,1.474c0.3,0.391,0.764,0.614,1.274,0.614
		c0.158,0,0.321-0.021,0.483-0.064L87.3,79.307c0.605-0.162,1.056-0.595,1.207-1.154c0.148-0.559-0.027-1.158-0.468-1.599
		l-2.129-2.136C91.981,64.286,87.593,54.707,87.555,54.625z M83.521,73.391c-0.499,0.796-0.378,1.896,0.282,2.56l1.278,1.284
		l-10.928,2.909l2.947-10.922l0.54,0.541c0.342,0.345,0.785,0.534,1.246,0.534c0.661,0,1.253-0.388,1.545-1.011
		c2.866-6.08,0.654-11.399,0.548-11.649c-0.532-1.166-0.014-2.553,1.149-3.087c0.864-0.394,1.954-0.193,2.614,0.47
		c0.199,0.196,0.357,0.425,0.471,0.674C85.251,55.78,89.051,64.491,83.521,73.391z"/>
</g>
</svg>
