<?xml version="1.0" encoding="utf-8"?>
<!-- Generator: Adobe Illustrator 16.0.0, SVG Export Plug-In . SVG Version: 6.00 Build 0)  -->
<!DOCTYPE svg PUBLIC "-//W3C//DTD SVG 1.1//EN" "http://www.w3.org/Graphics/SVG/1.1/DTD/svg11.dtd">
<svg version="1.1" id="Layer_1" xmlns="http://www.w3.org/2000/svg" xmlns:xlink="http://www.w3.org/1999/xlink" x="0px" y="0px"
	 width="50px" height="50px" viewBox="0 0 50 50" enable-background="new 0 0 50 50" xml:space="preserve">
<g>
	<path d="M31.354,26.27v-6.228h-1.878v-0.469h-1.687v-2.38h-3.375v2.38h-1.688v0.469h-1.875v18.411h-0.818V16.457h-1.95V14.08
		h-1.928v-4.058h-0.482v4.058h-1.929v2.377h-1.949v22.959h8.238h0.818h7.793c0.832,0.359,1.748,0.561,2.71,0.561
		c3.779,0,6.854-3.075,6.854-6.854S35.133,26.27,31.354,26.27z M14.226,14.562h3.375v1.895h-3.375V14.562z M14.54,34.868h-1.782
		v-3.104h1.782V34.868z M14.54,31.281h-1.782v-3.104h1.782V31.281z M14.54,27.696h-1.782v-3.104h1.782V27.696z M14.54,20.524h-1.782
		v-3.104h0.985h0.797V20.524z M16.804,38.453h-1.782V35.35h1.782V38.453z M16.804,34.868h-1.782v-3.104h1.782V34.868z M16.804,24.11
		h-1.782v-3.103h1.782V24.11z M16.804,20.524h-1.782v-3.104h1.782V20.524z M19.068,34.868h-1.782v-3.104h1.782V34.868z
		 M19.068,31.281h-1.782v-3.104h1.782V31.281z M19.068,27.696h-1.782v-3.104h1.782V27.696z M19.068,24.11h-1.782v-3.103h1.782V24.11
		z M28.606,21.007h1.783v3.103h-1.783V21.007z M30.39,24.592v1.754c-0.626,0.088-1.224,0.257-1.783,0.503v-2.257H30.39z
		 M28.124,24.592v2.49c-0.332,0.177-0.643,0.386-0.938,0.614h-0.843v-3.104H28.124z M26.621,28.178
		c-0.097,0.092-0.188,0.188-0.278,0.285v-0.285H26.621z M24.896,17.675h2.41v1.658h-2.41V17.675z M24.078,21.007h1.783v3.103h-1.783
		V21.007z M24.078,28.178h1.783v0.863c-0.497,0.666-0.873,1.421-1.104,2.24h-0.68V28.178z M23.596,34.868h-1.781v-3.104h1.781
		V34.868z M23.596,27.696h-1.781v-3.104h1.781V27.696z M24.078,38.453V35.35h0.799c0.232,0.672,0.566,1.296,0.984,1.856v1.247
		H24.078z M26.343,38.453v-0.667c0.222,0.238,0.457,0.463,0.71,0.667H26.343z M31.354,38.856c-3.16,0-5.732-2.572-5.732-5.732
		c0-3.16,2.572-5.732,5.732-5.732s5.732,2.572,5.732,5.732C37.086,36.284,34.514,38.856,31.354,38.856z"/>
	<path d="M31.571,30.302c0.18,0,0.342-0.082,0.486-0.247c0.144-0.165,0.216-0.344,0.216-0.539c0-0.195-0.055-0.355-0.164-0.481
		c-0.108-0.127-0.251-0.19-0.427-0.19c-0.175,0-0.336,0.089-0.481,0.266c-0.146,0.177-0.218,0.36-0.218,0.549
		c0,0.189,0.052,0.344,0.157,0.463C31.247,30.243,31.391,30.302,31.571,30.302z"/>
	<path d="M32.414,36.247c-0.204,0.146-0.379,0.219-0.526,0.219c-0.146,0-0.218-0.125-0.218-0.375c0-0.125,0.01-0.281,0.03-0.468
		l0.178-2.03c0.077-0.795,0.115-1.218,0.115-1.27c0-0.597-0.198-0.895-0.594-0.895c-0.351,0-0.705,0.172-1.064,0.518
		c-0.359,0.346-0.633,0.763-0.819,1.252l0.301,0.208c0.448-0.666,0.747-0.999,0.898-0.999s0.227,0.167,0.227,0.5
		c0,0.125-0.008,0.263-0.021,0.416l-0.229,2.03c-0.056,0.565-0.083,0.968-0.083,1.207c0,0.24,0.054,0.44,0.163,0.602
		s0.298,0.242,0.565,0.242c0.85,0,1.468-0.514,1.853-1.541l-0.271-0.187C32.787,35.91,32.618,36.101,32.414,36.247z"/>
</g>
</svg>
