<?xml version="1.0" encoding="utf-8"?>
<!-- Generator: Adobe Illustrator 16.0.0, SVG Export Plug-In . SVG Version: 6.00 Build 0)  -->
<!DOCTYPE svg PUBLIC "-//W3C//DTD SVG 1.1//EN" "http://www.w3.org/Graphics/SVG/1.1/DTD/svg11.dtd">
<svg version="1.1" id="Layer_1" xmlns="http://www.w3.org/2000/svg" xmlns:xlink="http://www.w3.org/1999/xlink" x="0px" y="0px"
	 width="50px" height="50px" viewBox="0 0 50 50" enable-background="new 0 0 50 50" xml:space="preserve">
<g>
	<path d="M15.934,23.027l1.334-0.833c0.605,0.657,1.328,1.166,2.112,1.513l-0.35,1.527l2.399,0.557l0.354-1.531
		c0.857,0.036,1.73-0.107,2.565-0.432l0.831,1.335l2.09-1.307l-0.835-1.333c0.655-0.607,1.169-1.331,1.514-2.117l1.527,0.354
		l0.556-2.404l-1.526-0.353c0.032-0.858-0.112-1.733-0.435-2.566l1.338-0.83l-1.31-2.091l-1.332,0.833
		c-0.61-0.654-1.328-1.163-2.113-1.514l0.353-1.528l-2.403-0.553l-0.354,1.529c-0.856-0.033-1.731,0.11-2.564,0.432l-0.834-1.335
		l-2.084,1.306l0.832,1.334c-0.655,0.605-1.169,1.329-1.516,2.116l-1.529-0.354l-0.558,2.402l1.529,0.353
		c-0.029,0.861,0.111,1.731,0.434,2.567l-1.334,0.831L15.934,23.027z M19.668,14.02c2.078-1.295,4.808-0.666,6.102,1.41
		c1.296,2.071,0.664,4.805-1.409,6.098c-2.071,1.295-4.801,0.663-6.1-1.41C16.967,18.048,17.599,15.315,19.668,14.02z"/>
	<path d="M35.192,25.166l0.811-0.108l-0.17-1.275l-0.811,0.108c-0.144-0.424-0.373-0.825-0.683-1.173l0.5-0.649l-1.023-0.781
		l-0.496,0.651c-0.419-0.207-0.862-0.324-1.31-0.351l-0.108-0.812l-1.275,0.173l0.107,0.811c-0.424,0.142-0.825,0.372-1.172,0.682
		l-0.652-0.499l-0.777,1.021l0.652,0.497c-0.209,0.417-0.327,0.864-0.352,1.312l-0.812,0.109l0.17,1.274l0.812-0.108
		c0.145,0.426,0.371,0.824,0.682,1.173l-0.499,0.651l1.023,0.78l0.499-0.651c0.415,0.209,0.859,0.326,1.308,0.35l0.108,0.81
		l1.274-0.168l-0.107-0.812c0.424-0.14,0.824-0.37,1.172-0.681l0.651,0.499l0.781-1.022l-0.653-0.496
		C35.049,26.061,35.167,25.612,35.192,25.166z M33.392,26.176c-0.666,0.873-1.913,1.038-2.787,0.372
		c-0.87-0.665-1.036-1.913-0.372-2.785c0.67-0.874,1.915-1.041,2.787-0.373C33.891,24.057,34.059,25.305,33.392,26.176z"/>
	<path d="M28.219,31.521l-2.501-1.042l-1.024-2.508l2.499-2.484c-1.247-0.177-2.561,0.196-3.525,1.154
		c-1.318,1.307-1.559,3.275-0.759,4.842l-6.951,6.891l0.002,0.003c-0.002,0.002-0.007,0-0.008,0.003
		c-0.197,0.197,0.046,0.758,0.54,1.251c0.495,0.497,1.057,0.739,1.254,0.542c0,0,0-0.002,0.001-0.003l6.948-6.89
		c1.567,0.811,3.531,0.583,4.85-0.725c0.963-0.96,1.344-2.271,1.177-3.52L28.219,31.521z"/>
</g>
</svg>
