<?xml version="1.0" encoding="utf-8"?>
<!-- Generator: Adobe Illustrator 16.0.0, SVG Export Plug-In . SVG Version: 6.00 Build 0)  -->
<!DOCTYPE svg PUBLIC "-//W3C//DTD SVG 1.1//EN" "http://www.w3.org/Graphics/SVG/1.1/DTD/svg11.dtd">
<svg version="1.1" id="Layer_1" xmlns="http://www.w3.org/2000/svg" xmlns:xlink="http://www.w3.org/1999/xlink" x="0px" y="0px"
	 width="50px" height="50px" viewBox="0 0 50 50" enable-background="new 0 0 50 50" xml:space="preserve">
<g>
	<g>
		<g>
			<path d="M24.807,17.696c-2.949,0-5.341-0.957-5.341-2.136v2.136c0,1.181,2.392,2.136,5.341,2.136c2.95,0,5.341-0.955,5.341-2.136
				V15.56C30.147,16.74,27.757,17.696,24.807,17.696z"/>
			<path d="M24.807,10.66c-2.949,0-5.341,0.956-5.341,2.137v2.136c0,1.181,2.392,2.136,5.341,2.136c2.95,0,5.341-0.956,5.341-2.136
				v-2.136C30.147,11.616,27.757,10.66,24.807,10.66z M24.807,14.398c-2.935,0-4.806-0.949-4.806-1.602
				c0-0.654,1.871-1.603,4.806-1.603s4.805,0.949,4.805,1.603C29.611,13.449,27.741,14.398,24.807,14.398z"/>
			<path d="M25.214,12.551c-0.617-0.1-0.872-0.165-0.872-0.267c0-0.086,0.152-0.174,0.624-0.174c0.522,0,0.857,0.072,1.046,0.105
				l0.212-0.35c-0.241-0.049-0.567-0.093-1.054-0.102v-0.273h-0.712v0.294c-0.777,0.065-1.227,0.279-1.227,0.552
				c0,0.301,0.529,0.456,1.307,0.567c0.537,0.077,0.77,0.151,0.77,0.269c0,0.125-0.283,0.192-0.698,0.192
				c-0.471,0-0.899-0.064-1.204-0.136l-0.217,0.362c0.272,0.068,0.747,0.124,1.234,0.134v0.294h0.71v-0.315
				c0.835-0.062,1.293-0.298,1.293-0.574C26.426,12.852,26.077,12.682,25.214,12.551z"/>
			<path d="M19.466,18.369c0.002,0,0.005,0.001,0.008,0.002c0-0.011-0.008-0.021-0.008-0.031V18.369z"/>
			<path d="M24.807,20.477c-1.111,0-2.141-0.135-2.995-0.367c0.175,0.323,0.277,0.679,0.277,1.072v1.125
				c0.8,0.191,1.721,0.307,2.718,0.307c2.95,0,5.341-0.956,5.341-2.137V18.34C30.147,19.521,27.757,20.477,24.807,20.477z"/>
			<path d="M24.807,23.258c-0.997,0-1.918-0.117-2.718-0.307v1.511c1.303-0.79,3.267-1.167,5.151-1.167
				c0.953,0,1.925,0.098,2.824,0.293c0.042-0.108,0.083-0.217,0.083-0.331v-2.137C30.147,22.301,27.757,23.258,24.807,23.258z"/>
		</g>
		<g>
			<path d="M15.436,26.082c-2.949,0-5.341-0.957-5.341-2.136v2.136c0,1.181,2.392,2.136,5.341,2.136c2.95,0,5.342-0.955,5.342-2.136
				v-2.136C20.777,25.125,18.386,26.082,15.436,26.082z"/>
			<path d="M15.436,28.862c-2.949,0-5.341-0.956-5.341-2.136v2.136c0,1.181,2.392,2.137,5.341,2.137c2.95,0,5.342-0.956,5.342-2.137
				v-2.136C20.777,27.907,18.386,28.862,15.436,28.862z"/>
			<path d="M15.436,31.643c-2.949,0-5.341-0.956-5.341-2.136v2.136c0,1.181,2.392,2.136,5.341,2.136c2.95,0,5.342-0.956,5.342-2.136
				v-2.136C20.777,30.687,18.386,31.643,15.436,31.643z"/>
			<path d="M15.436,34.424c-2.949,0-5.341-0.957-5.341-2.137v2.137c0,1.18,2.392,2.136,5.341,2.136c2.95,0,5.342-0.956,5.342-2.136
				v-2.137C20.777,33.467,18.386,34.424,15.436,34.424z"/>
			<path d="M15.436,37.204c-2.949,0-5.341-0.956-5.341-2.136v2.136c0,1.181,2.392,2.137,5.341,2.137c2.95,0,5.342-0.956,5.342-2.137
				v-2.136C20.777,36.248,18.386,37.204,15.436,37.204z"/>
			<path d="M15.436,19.045c-2.949,0-5.341,0.956-5.341,2.136v2.137c0,1.181,2.392,2.136,5.341,2.136c2.95,0,5.342-0.956,5.342-2.136
				v-2.137C20.777,20.001,18.386,19.045,15.436,19.045z M15.436,22.784c-2.934,0-4.806-0.949-4.806-1.603
				c0-0.654,1.872-1.602,4.806-1.602c2.935,0,4.807,0.948,4.807,1.602C20.242,21.835,18.37,22.784,15.436,22.784z"/>
			<path d="M15.843,20.937c-0.617-0.1-0.872-0.165-0.872-0.267c0-0.086,0.153-0.174,0.624-0.174c0.522,0,0.858,0.072,1.047,0.105
				l0.211-0.35c-0.241-0.049-0.567-0.093-1.053-0.102v-0.272h-0.713v0.294c-0.777,0.065-1.227,0.279-1.227,0.552
				c0,0.3,0.53,0.456,1.307,0.567c0.537,0.078,0.77,0.152,0.77,0.27c0,0.125-0.283,0.192-0.698,0.192
				c-0.471,0-0.898-0.064-1.203-0.137l-0.218,0.362c0.273,0.069,0.748,0.125,1.234,0.134v0.294h0.711V22.09
				c0.835-0.062,1.292-0.297,1.292-0.574C17.055,21.238,16.707,21.067,15.843,20.937z"/>
		</g>
		<g>
			<path d="M27.24,31.643c-2.949,0-5.341-0.956-5.341-2.136v2.136c0,1.181,2.392,2.136,5.341,2.136c2.95,0,5.341-0.955,5.341-2.136
				v-2.136C32.581,30.687,30.19,31.643,27.24,31.643z"/>
			<path d="M27.24,34.423c-2.949,0-5.341-0.957-5.341-2.137v2.137c0,1.181,2.392,2.137,5.341,2.137c2.95,0,5.341-0.956,5.341-2.137
				v-2.137C32.581,33.467,30.19,34.423,27.24,34.423z"/>
			<path d="M27.24,37.204c-2.949,0-5.341-0.956-5.341-2.136v2.136c0,1.18,2.392,2.137,5.341,2.137c2.95,0,5.341-0.957,5.341-2.137
				v-2.136C32.581,36.248,30.19,37.204,27.24,37.204z"/>
			<path d="M27.24,24.606c-2.949,0-5.341,0.957-5.341,2.137v2.136c0,1.18,2.392,2.137,5.341,2.137c2.95,0,5.341-0.957,5.341-2.137
				v-2.136C32.581,25.562,30.19,24.606,27.24,24.606z M27.24,28.345c-2.935,0-4.806-0.949-4.806-1.603
				c0-0.654,1.871-1.602,4.806-1.602s4.806,0.948,4.806,1.602C32.046,27.396,30.175,28.345,27.24,28.345z"/>
			<path d="M27.647,26.497c-0.617-0.099-0.872-0.164-0.872-0.266c0-0.086,0.152-0.173,0.624-0.173c0.522,0,0.857,0.072,1.047,0.105
				l0.211-0.35c-0.241-0.05-0.567-0.093-1.053-0.103v-0.272h-0.713v0.294c-0.777,0.065-1.227,0.279-1.227,0.552
				c0,0.3,0.529,0.455,1.307,0.566c0.537,0.078,0.77,0.152,0.77,0.27c0,0.125-0.283,0.192-0.698,0.192
				c-0.471,0-0.899-0.065-1.204-0.136l-0.217,0.362c0.272,0.069,0.747,0.125,1.234,0.134v0.294h0.71v-0.315
				c0.835-0.062,1.293-0.298,1.293-0.574C28.859,26.798,28.511,26.628,27.647,26.497z"/>
		</g>
	</g>
	<polygon points="34.792,36.717 37.695,36.717 37.695,19.876 39.905,19.876 36.243,13.568 32.581,19.876 34.792,19.876 	"/>
</g>
</svg>
