<?xml version="1.0" encoding="utf-8"?>
<!-- Generator: Adobe Illustrator 16.0.0, SVG Export Plug-In . SVG Version: 6.00 Build 0)  -->
<!DOCTYPE svg PUBLIC "-//W3C//DTD SVG 1.1//EN" "http://www.w3.org/Graphics/SVG/1.1/DTD/svg11.dtd">
<svg version="1.1" id="Layer_1" xmlns="http://www.w3.org/2000/svg" xmlns:xlink="http://www.w3.org/1999/xlink" x="0px" y="0px"
	 width="50px" height="50px" viewBox="0 0 50 50" enable-background="new 0 0 50 50" xml:space="preserve">
<g>
	<path d="M30.338,14.894c0.711,0.573,1.609,0.919,2.596,0.919c0.982,0,1.875-0.353,2.588-0.917
		c-0.639,0.188-1.609,0.287-2.588,0.287l0,0l0,0C31.951,15.183,30.978,15.084,30.338,14.894z"/>
	<path d="M16.706,24.918l1.397-1.395l-1.175-2.844h0.01l0.458-0.527c-0.22,0.081-0.452,0.13-0.69,0.13
		c-0.237,0-0.469-0.049-0.691-0.13l0.458,0.527h0.012l-1.176,2.844L16.706,24.918z"/>
	<path d="M15.476,19.88c-0.902-0.609-1.523-1.803-1.523-2.884c0-1.522,1.233-2.755,2.753-2.755c1.521,0,2.754,1.232,2.754,2.755
		c0,1.081-0.622,2.274-1.523,2.884c2.021,0.512,3.533,2.183,3.72,3.532c0.831-1.059,1.335-2.382,1.335-3.832
		c0-0.867-0.176-1.694-0.494-2.447l6.75-3.555c0.111,0.208,0.244,0.401,0.386,0.586c0.131-0.896,1.137-2.001,2.478-2.341
		c-0.602-0.405-1.015-1.202-1.015-1.923c0-1.015,0.822-1.837,1.835-1.837S34.77,8.886,34.77,9.9c0,0.721-0.415,1.518-1.015,1.923
		c1.347,0.342,2.355,1.453,2.479,2.354c0.55-0.709,0.89-1.587,0.89-2.556c0-2.311-1.876-4.189-4.19-4.189
		c-2.314,0-4.191,1.879-4.191,4.189c0,0.462,0.093,0.897,0.23,1.312l-6.81,3.587c-1.076-1.916-3.103-3.226-5.458-3.226
		c-3.471,0-6.286,2.815-6.286,6.286c0,1.449,0.511,2.768,1.334,3.831C11.942,22.062,13.455,20.391,15.476,19.88z"/>
	<path d="M33.866,14.251l-0.785-1.896h0.008l0.305-0.349c-0.147,0.052-0.302,0.084-0.46,0.084s-0.312-0.032-0.46-0.084l0.305,0.349
		h0.008l-0.784,1.896l0.932,0.932l0,0L33.866,14.251z"/>
	<path d="M31.494,35.652h0.016l0.608-0.699c-0.293,0.106-0.601,0.17-0.919,0.17c-0.318,0-0.625-0.063-0.921-0.17l0.61,0.699h0.017
		l-1.569,3.791l1.863,1.862l1.864-1.862L31.494,35.652z"/>
	<path d="M31.198,41.306c-1.998,0-3.98-0.201-5.257-0.595c1.437,1.161,3.266,1.858,5.257,1.858c1.992,0,3.821-0.697,5.258-1.858
		C35.179,41.104,33.196,41.306,31.198,41.306z"/>
	<path d="M24.593,39.333c0.227-1.807,2.253-4.059,4.964-4.746c-1.203-0.811-2.031-2.405-2.031-3.845
		c0-2.027,1.645-3.671,3.672-3.671c2.029,0,3.673,1.644,3.673,3.671c0,1.439-0.829,3.034-2.032,3.845
		c2.712,0.688,4.738,2.939,4.964,4.746c1.109-1.421,1.775-3.204,1.775-5.145c0-4.628-3.753-8.381-8.381-8.381
		c-2.449,0-4.646,1.057-6.178,2.733l-4.188-4.129c-1.809,0.646-6.008,0.669-8.01,0.075c1.073,0.85,2.41,1.378,3.884,1.378
		c1.302,0,2.512-0.396,3.516-1.074l4.347,4.285c-1.094,1.415-1.751,3.185-1.751,5.112C22.817,36.129,23.484,37.912,24.593,39.333z"
		/>
</g>
</svg>
