<?xml version="1.0" encoding="iso-8859-1"?>
<!-- Generator: Adobe Illustrator 17.1.0, SVG Export Plug-In . SVG Version: 6.00 Build 0)  -->
<!DOCTYPE svg PUBLIC "-//W3C//DTD SVG 1.1//EN" "http://www.w3.org/Graphics/SVG/1.1/DTD/svg11.dtd">
<svg version="1.1" id="Layer_1" xmlns="http://www.w3.org/2000/svg" xmlns:xlink="http://www.w3.org/1999/xlink" x="0px" y="0px"
	 viewBox="0 0 128 128" style="enable-background:new 0 0 128 128;" xml:space="preserve">
<g>
	<path d="M65.88,7.747c-0.189,0.175-0.338,0.328-0.347,0.328s-0.158-0.152-0.346-0.328c-1.06-0.989-4.482-3.706-7.534-0.909
		c-3.601,3.301-0.568,10.826,7.434,14.274c0.236,0.102,0.437,0.188,0.446,0.199c0.009,0.011,0.209-0.059,0.446-0.16
		c8.002-3.45,11.035-11.011,7.434-14.312C70.362,4.041,66.941,6.758,65.88,7.747z"/>
	<path d="M19.582,65.204c2.332,0.715,4.801-0.595,5.518-2.926c0.002,0,6.604-21.524,6.604-21.524
		c0.039-0.091,0.236-0.469,0.698-0.469c0.042,0,0.93,0,0.93,0h0.002c0.263-0.004,0.416,0.219,0.347,0.471L20.464,84.006
		c-0.071,0.252,0,0.693,0.46,0.693h9.271c0.263,0,0.455,0.213,0.455,0.476c0,0-0.002,31.508-0.002,31.519
		c0,3.146,2.551,5.697,5.697,5.697c3.147,0,5.697-2.551,5.697-5.697l0.002-31.52c0-0.263,0.212-0.475,0.475-0.475h0.008h0.911h0.008
		c0.263,0,0.475,0.212,0.475,0.475l0.002,31.52c0,3.146,2.551,5.697,5.697,5.697c3.147,0,5.697-2.551,5.697-5.697
		c0-0.011-0.002-31.519-0.002-31.519c0-0.263,0.192-0.476,0.455-0.476h9.271c0.46,0,0.532-0.441,0.46-0.693L52.285,40.757
		c-0.07-0.252,0.084-0.475,0.347-0.471h0.002c0,0,0.888,0,0.93,0c0.461,0,0.659,0.378,0.698,0.469c0,0,8.742,28.533,8.745,28.533
		c0.716,2.331,3.186,3.641,5.518,2.926c0.819-0.251,1.508-0.722,2.032-1.323c0.036-0.041,0.074-0.08,0.109-0.122
		c0,0,0.001-0.001,0.001-0.002c0.622-0.761,0.997-1.733,0.998-2.792c0.002-0.001,2.68-26.977,2.68-26.977
		c0-0.254,0.206-0.459,0.459-0.459h0.936c0.254,0,0.459,0.206,0.459,0.459c0,0,0,75.68,0,75.689c0,3.147,2.551,5.697,5.697,5.697
		c3.146,0,5.697-2.551,5.697-5.697c0-0.008,0-44.534,0-44.534c0-0.325,0.15-0.46,0.471-0.46h0.919c0.32,0,0.471,0.136,0.471,0.46
		c0,0,0,44.526,0,44.534c0,3.146,2.551,5.697,5.697,5.697c3.146,0,5.697-2.551,5.697-5.697c0-0.009,0-75.689,0-75.689
		c0-0.254,0.206-0.459,0.459-0.459h0.936c0.254,0,0.459,0.206,0.459,0.459c0,0,0.004,26.976,0.006,26.977
		c0.002,2.438,1.979,4.415,4.418,4.415c2.44,0,4.418-1.978,4.418-4.418c0-0.014,0-30.333,0-30.694
		c0-6.046-4.651-10.697-10.464-10.697c-0.148,0-7.962,0-11.627,0c0,0-0.734,0-1.86,0c-3.665,0-11.479,0-11.627,0
		c-5.813,0-9.921,4.436-10.464,10.696c-0.01,0.117-0.296,3.391-0.676,7.76c-1.228-4.012-2.133-6.969-2.133-6.969
		c-1.009-3.508-2.937-11.496-10.387-11.496H33.682c-6.942,0-9.4,7.988-10.41,11.496c-0.021,0.074-6.616,21.608-6.619,21.617
		C15.938,62.017,17.249,64.488,19.582,65.204z"/>
	<circle cx="88.522" cy="15.552" r="8.478"/>
	<circle cx="42.594" cy="15.544" r="8.477"/>
</g>
</svg>
