<?xml version="1.0" encoding="iso-8859-1"?>
<!-- Generator: Adobe Illustrator 17.1.0, SVG Export Plug-In . SVG Version: 6.00 Build 0)  -->
<!DOCTYPE svg PUBLIC "-//W3C//DTD SVG 1.1//EN" "http://www.w3.org/Graphics/SVG/1.1/DTD/svg11.dtd">
<svg version="1.1" id="Layer_1" xmlns="http://www.w3.org/2000/svg" xmlns:xlink="http://www.w3.org/1999/xlink" x="0px" y="0px"
	 viewBox="0 0 128 128" style="enable-background:new 0 0 128 128;" xml:space="preserve">
<g>
	<circle cx="58.039" cy="14.626" r="10.219"/>
	<circle cx="79.236" cy="14.626" r="10.219"/>
	<path d="M49.635,122.683c2.559,0.243,4.837-1.557,5.232-4.063c2.21-11.466,2.92-23.904,4.679-35.243
		c0.046-0.298,0.114-0.298,0.148,0.002c0.454,3.859,0.907,7.718,1.363,11.577c0.759,6.462,1.897,16.12,2.656,22.582
		c0.148,1.237,0.506,5.998,5.663,5.998c4,0.004,5.757-2.059,6.135-4.66c1.208-9.522,1.977-19.29,3.443-29.092
		c0.044-0.298,0.271-0.58,0.569-0.628h0.915c0.301,0.036,0.474,0.327,0.5,0.628c0.786,8.992,2.075,18.519,2.774,27.488
		c0.024,0.301,0.048,0.546,0.058,0.546s0.01,0.046,0.007,0.102c-0.002,0.034-0.002,0.07-0.002,0.104
		c0,2.634,2.093,4.747,4.677,4.747c2.583,0,4.676-2.147,4.676-4.781c0-0.022,0-0.056-0.002-0.085c-0.002-0.048,0-0.085,0.005-0.085
		s0.017-0.245,0.024-0.548c0.187-8.705-0.081-18.962-0.091-27.696c0-0.303,0.273-0.421,0.576-0.421h3.146
		c0.301-0.024,0.339-0.296,0.301-0.436C95.3,80.728,91.518,59.861,90.062,52c0,0,4.289-6.991,5.491-8.746
		c1.202-1.754,1.446-3.338,1.488-7.012c0.015-1.336,0-5.701,0-5.701c-0.111-3.244-2.274-4.082-4.292-4.082
		c-1.274,0-14.875,0.041-20.614-0.031c-0.298,0.041-0.721,0.25-0.919,0.478c-0.095,0.109-0.192,0.233-0.291,0.376
		c-0.172,0.25-0.34,0.213-0.536-0.014c-0.301-0.347-0.956-0.757-2.377-0.757l-9.966,0.051c-3.857-0.048-8.482-0.89-11.255,2.54
		c-0.189,0.235-0.422,0.665-0.529,0.948c-1.205,3.214-5.471,16.474-8.721,24.908c-0.592,1.414-6.309,12.862-6.913,14.679
		c-0.002,0.005-0.002,0.01-0.005,0.014c-0.014,0.041-0.029,0.085-0.041,0.126c-0.024,0.07-0.039,0.129-0.034,0.131
		c0.005,0.002-0.039,0.197-0.068,0.439c-0.017,0.143-0.027,0.291-0.027,0.439c0,2.112,1.7,3.825,3.798,3.825
		c0.992-0.002,1.902-0.393,2.579-1.028c0.221-0.206,0.376-0.4,0.381-0.398c0.005,0.002,0.151-0.194,0.32-0.446
		c1.336-2.001,6.452-11.652,7.453-13.745c2.868-7.434,3.82-9.794,4.722-12.377c0,0-4.46,71.121-4.455,71.205
		C45.232,120.309,47.114,122.443,49.635,122.683z M76.063,40.374l5.256,6.55c0.194,0.233,0.121,0.502-0.163,0.606l-8.448,3.119
		c-0.284,0.104-0.694,0.019-0.924-0.175c-0.489-0.411-3.067-4.099-3.628-5.039c-0.504-0.844-0.954-3.48,1.756-5.458
		C72.625,38,75.184,39.219,76.063,40.374z M65.684,32.174c2.314,0,4.189,1.875,4.189,4.189s-1.875,4.189-4.189,4.189
		c-2.314,0-4.189-1.875-4.189-4.189S63.371,32.174,65.684,32.174z"/>
</g>
</svg>
