<?xml version="1.0" encoding="utf-8"?>
<!-- Generator: Adobe Illustrator 16.0.0, SVG Export Plug-In . SVG Version: 6.00 Build 0)  -->
<!DOCTYPE svg PUBLIC "-//W3C//DTD SVG 1.1//EN" "http://www.w3.org/Graphics/SVG/1.1/DTD/svg11.dtd">
<svg version="1.1" id="Layer_3" xmlns="http://www.w3.org/2000/svg" xmlns:xlink="http://www.w3.org/1999/xlink" x="0px" y="0px"
	 width="126px" height="126px" viewBox="0 0 126 126" enable-background="new 0 0 126 126" xml:space="preserve">
<g>
	<path d="M85.678,47.892c4.981,0,9.021-4.04,9.021-9.023c0-4.983-4.04-9.022-9.021-9.022c-4.985,0-9.023,4.04-9.023,9.022
		C76.654,43.852,80.692,47.892,85.678,47.892z"/>
	<path d="M89.534,94.483c0.007-1.558,1.094-7.037,2.381-12.995c-0.127,0.01-0.255,0.017-0.385,0.018l-0.08,0.001
		c-3.116,0-5.688-2.536-5.73-5.652c-0.188-13.414,3.737-20.019,8.5-24.19c-0.882-0.657-1.795-1.262-2.722-1.831
		c-0.31-0.189-0.638-0.309-0.972-0.393c-0.823-0.46-1.706-0.806-2.604-1.026l-2.245,2.262l-2.18-2.288
		c-0.009,0.003-0.016,0.003-0.022,0.005c-1.151,0.273-2.278,0.76-3.283,1.424c-0.19,0.075-0.377,0.159-0.557,0.269
		c-6.656,4.083-12.597,10.063-10.997,26.036c0.181,1.806,1.703,3.154,3.48,3.154c0.117,0,0.235-0.005,0.354-0.018
		c1.926-0.192,3.33-1.909,3.137-3.834c-0.53-5.298-0.148-9.005,0.832-11.754v12.504c0,0.942,0.184,1.822,0.504,2.631
		c-0.025,0.182-0.042,0.365-0.042,0.554l0.002,33.544c0.001,2.287,1.854,4.14,4.142,4.14c2.287,0,4.139-1.854,4.139-4.141
		l-0.002-28.787c0.164,0.007,0.328,0.021,0.494,0.021c0.03,0,0.063-0.004,0.096-0.004l-0.001,28.771c0,2.287,1.854,4.141,4.14,4.141
		s4.141-1.854,4.141-4.141V99.069C91.044,97.966,89.525,96.428,89.534,94.483z"/>
	<circle cx="106.118" cy="38.869" r="9.023"/>
	<path d="M112.159,50.088c-0.179-0.11-0.367-0.194-0.556-0.269c-1.006-0.664-2.135-1.151-3.283-1.424
		c-0.008-0.002-0.015-0.002-0.023-0.005l-2.179,2.288l-2.247-2.262c-1.251,0.307-2.475,0.865-3.541,1.627
		c-0.03,0.018-0.063,0.026-0.094,0.045c-6.347,3.892-12.521,9.084-12.289,25.736c0.027,1.917,1.591,3.454,3.503,3.454
		c0.015,0,0.032,0,0.05,0c1.935-0.027,3.479-1.617,3.453-3.551c-0.082-5.876,0.684-9.791,1.929-12.562v6.37
		c-0.986,4.276-5.106,22.271-5.118,24.958c-0.007,1.375,2.477,2.555,5.979,3.298v15.112c0,2.287,1.854,4.141,4.14,4.141
		c2.287,0,4.141-1.854,4.141-4.141l-0.001-14.275c0.196,0.001,0.394,0.001,0.588,0v14.275c0,2.287,1.852,4.14,4.139,4.141h0.001
		c2.285,0,4.14-1.854,4.14-4.14l0.001-15.358c2.468-0.75,4.339-1.922,5.03-3.61c0.023-4.981-3.611-20.406-4.567-24.373v-6.747
		c1.339,2.789,2.175,6.786,2.089,12.91c-0.027,1.934,1.52,3.524,3.455,3.551c0.016,0,0.033,0,0.049,0
		c1.912,0,3.476-1.536,3.502-3.454C124.678,59.172,118.504,53.979,112.159,50.088z"/>
	<path d="M73.721,108.34H59.67V79.646H39.782v28.695H23.727V54.027h46.87c1.869-2.344,4.056-4.155,6.313-5.662
		c-2.129-2.311-3.441-5.385-3.441-8.767c0-4.617,2.433-8.666,6.076-10.964L55.372,9.792c-0.84-0.883-2.004-1.383-3.222-1.383
		s-2.382,0.5-3.221,1.383L21.282,33.021V20.476L9.388,20.457v21.011l-6.58,6.581c-2.349,2.349-2.349,6.155,0,8.503
		c2.347,2.349,6.153,2.349,8.503,0l3.165-3.165v59.58c0,2.554,2.071,4.625,4.626,4.625h55.662c-0.661-1.17-1.042-2.518-1.043-3.955
		V108.34z"/>
</g>
</svg>
