<?xml version="1.0" encoding="iso-8859-1"?>
<!-- Generator: Adobe Illustrator 17.1.0, SVG Export Plug-In . SVG Version: 6.00 Build 0)  -->
<!DOCTYPE svg PUBLIC "-//W3C//DTD SVG 1.1//EN" "http://www.w3.org/Graphics/SVG/1.1/DTD/svg11.dtd">
<svg version="1.1" id="Layer_1" xmlns="http://www.w3.org/2000/svg" xmlns:xlink="http://www.w3.org/1999/xlink" x="0px" y="0px"
	 viewBox="0 0 128 128" style="enable-background:new 0 0 128 128;" xml:space="preserve">
<g>
	<path d="M64.364,5.688C64.167,5.873,64.009,6.033,64,6.033c-0.009,0-0.166-0.16-0.364-0.345C62.521,4.646,58.92,1.78,55.71,4.723
		c-3.789,3.473-0.597,11.382,7.822,15.009c0.249,0.107,0.46,0.198,0.469,0.209c0.009,0.011,0.22-0.062,0.469-0.169
		c8.419-3.629,11.61-11.576,7.822-15.049C69.08,1.78,65.48,4.646,64.364,5.688z"/>
	<circle cx="39.436" cy="12.596" r="8.884"/>
	<path d="M14.913,64.638c2.444,0.749,5.032-0.623,5.783-3.066c0.003,0,6.92-22.556,6.92-22.556c0.041-0.096,0.248-0.491,0.731-0.491
		c0.044,0,0.975,0,0.975,0h0.002c0.275-0.004,0.436,0.23,0.363,0.494L15.838,84.343c-0.075,0.264,0,0.726,0.482,0.726h9.716
		c0.275,0,0.476,0.223,0.476,0.498c0,0-0.002,33.02-0.002,33.031c0,3.297,2.673,5.97,5.97,5.97s5.97-2.673,5.97-5.97l0.002-33.032
		c0-0.275,0.222-0.498,0.498-0.498h0.008h0.955h0.008c0.275,0,0.498,0.222,0.498,0.498l0.002,33.032c0,3.297,2.673,5.97,5.97,5.97
		s5.97-2.673,5.97-5.97c0-0.012-0.002-33.031-0.002-33.031c0-0.275,0.201-0.498,0.476-0.498h9.716c0.482,0,0.557-0.462,0.482-0.726
		L49.185,39.019c-0.073-0.264,0.088-0.499,0.363-0.494h0.002c0,0,0.931,0,0.975,0c0.483,0,0.69,0.396,0.731,0.491
		c0,0,7.597,24.787,7.599,24.788c0.179,0.684,0.471,1.115,0.839,1.565c0.986,1.312,2.55,2.164,4.317,2.164
		c2.066,0,3.86-1.16,4.769-2.864c0.075-0.137,0.362-0.841,0.424-1.057c0.703-2.288,7.54-24.596,7.54-24.596
		c0.041-0.096,0.247-0.491,0.731-0.491c0.044,0,0.975,0,0.975,0h0.002c0.275-0.004,0.436,0.23,0.363,0.494L64.965,84.342
		c-0.075,0.264,0,0.726,0.482,0.726h9.716c0.275,0,0.476,0.223,0.476,0.498c0,0-0.002,33.02-0.002,33.031
		c0,3.297,2.673,5.97,5.97,5.97s5.97-2.673,5.97-5.97l0.002-33.032c0-0.275,0.222-0.498,0.498-0.498h0.008h0.955h0.008
		c0.275,0,0.498,0.222,0.498,0.498l0.002,33.032c0,3.297,2.673,5.97,5.97,5.97s5.97-2.673,5.97-5.97
		c0-0.012-0.002-33.031-0.002-33.031c0-0.275,0.201-0.498,0.476-0.498h9.716c0.482,0,0.557-0.462,0.482-0.726L98.312,39.018
		c-0.073-0.264,0.088-0.499,0.363-0.494h0.002c0,0,0.931,0,0.975,0c0.483,0,0.69,0.396,0.731,0.491c0,0,6.918,22.556,6.92,22.556
		c0.751,2.443,3.339,3.815,5.783,3.066c2.445-0.75,3.82-3.339,3.07-5.784c-0.003-0.009-6.914-22.576-6.937-22.654
		c-1.058-3.676-3.634-12.047-10.909-12.047H78.793c-7.808,0-9.828,8.371-10.885,12.047c0,0-1.971,6.442-3.908,12.771
		C62.063,42.642,60.092,36.2,60.092,36.2c-1.058-3.676-3.077-12.047-10.885-12.047H29.69c-7.275,0-9.851,8.371-10.909,12.047
		c-0.022,0.078-6.934,22.645-6.937,22.654C11.095,61.299,12.469,63.888,14.913,64.638z"/>
	<circle cx="88.564" cy="12.596" r="8.884"/>
</g>
</svg>
