<?xml version="1.0" encoding="utf-8"?>
<!-- Generator: Adobe Illustrator 16.0.0, SVG Export Plug-In . SVG Version: 6.00 Build 0)  -->
<!DOCTYPE svg PUBLIC "-//W3C//DTD SVG 1.1//EN" "http://www.w3.org/Graphics/SVG/1.1/DTD/svg11.dtd">
<svg version="1.1" id="Layer_3" xmlns="http://www.w3.org/2000/svg" xmlns:xlink="http://www.w3.org/1999/xlink" x="0px" y="0px"
	 width="126px" height="126px" viewBox="0 0 126 126" enable-background="new 0 0 126 126" xml:space="preserve">
<g>
	<circle cx="97.173" cy="13.762" r="12.849"/>
	<path d="M100.375,27.355l-4.031-0.022c-0.257-0.021-0.519-0.029-0.784-0.009c-0.039,0.002-0.077,0.002-0.116,0.004L94.07,27.32
		c-0.011,0.003-0.021,0.003-0.032,0.006c-0.034,0.008-0.066,0.02-0.1,0.027c-4.188-0.124-7.971-1.866-12.276-3.856
		c-3.27-1.512-6.651-3.078-10.535-4.072c-1.338-0.345-2.688-0.111-3.79,0.545c-1.1-0.655-2.451-0.89-3.79-0.545
		c-3.829,0.981-7.251,2.53-10.56,4.026c-4.753,2.15-8.899,4.021-13.44,3.958c-0.1-0.026-0.197-0.058-0.296-0.082
		c-0.011-0.002-0.021-0.002-0.032-0.006l-6.304,0.035c-5.121,1.256-9.951,5.418-9.951,11.17v18.907
		c-1.406,6.088-7.273,31.716-7.291,35.541c-0.009,1.959,3.528,3.64,8.514,4.697l0.001,21.521c0,3.257,2.639,5.896,5.895,5.896
		c3.256,0,5.896-2.64,5.896-5.896l-0.001-20.328c0.279,0.001,0.558,0.001,0.837-0.002l-0.001,20.331
		c0,3.256,2.639,5.896,5.895,5.896h0c3.256,0,5.895-2.639,5.896-5.895l0.001-21.872c3.515-1.068,6.179-2.737,7.164-5.141
		c0.02-4.188-1.78-13.569-3.536-21.712c2.871,1.723,6.321,3.378,10.487,4.939c0.576,0.215,1.167,0.317,1.748,0.317
		c1.219,0,2.388-0.457,3.293-1.252c0.906,0.796,2.075,1.252,3.293,1.252c0.581,0,1.172-0.103,1.749-0.317
		c4.741-1.776,8.551-3.675,11.637-5.657c0.087,0.3,0.183,0.596,0.296,0.883c-0.034,0.259-0.059,0.522-0.059,0.79l0.004,47.77
		c0,3.256,2.639,5.896,5.896,5.895c3.256,0,5.895-2.64,5.895-5.896l-0.002-40.996c0.233,0.012,0.466,0.03,0.701,0.03
		c0.046,0,0.091-0.006,0.138-0.006l-0.001,40.972c0,3.256,2.639,5.896,5.896,5.896h0c3.255,0,5.896-2.64,5.896-5.896l0.001-47.476
		c0.772-1.431,1.223-3.051,1.223-4.827V38.526C110.326,32.774,105.495,28.611,100.375,27.355z M84.022,38.526V57.24
		c-2.678,3.096-7.076,5.962-14.715,8.822c-0.586,0.22-1.1,0.54-1.543,0.929c-0.443-0.39-0.958-0.709-1.543-0.929
		c-10.304-3.857-14.717-7.725-16.954-12.154V38.526c0-0.933-0.139-1.82-0.373-2.665c2.924-0.931,5.646-2.161,8.207-3.32
		c3.054-1.382,5.938-2.687,8.924-3.452c0.474-0.122,0.913-0.309,1.312-0.548c0.4,0.239,0.839,0.426,1.313,0.548
		c3,0.769,5.828,2.078,8.823,3.463c2.201,1.019,4.525,2.091,7.015,2.965C84.189,36.46,84.022,37.465,84.022,38.526z"/>
	<circle cx="36.117" cy="13.762" r="12.849"/>
	<path d="M66.239,37.258c-1.49-1.862-3.779-3.06-6.35-3.06c-4.489,0-8.127,3.638-8.127,8.13c0,1.939,0.681,3.719,1.817,5.115
		l-0.006,0.003l0.03,0.03c0.256,0.311,12.69,13.153,12.69,13.153l12.612-13.194c1.13-1.396,1.809-3.172,1.809-5.108
		c0-4.492-3.637-8.13-8.127-8.13C70.016,34.198,67.727,35.396,66.239,37.258z"/>
</g>
</svg>
