<?xml version="1.0" encoding="utf-8"?>
<!-- Generator: Adobe Illustrator 16.0.0, SVG Export Plug-In . SVG Version: 6.00 Build 0)  -->
<!DOCTYPE svg PUBLIC "-//W3C//DTD SVG 1.1//EN" "http://www.w3.org/Graphics/SVG/1.1/DTD/svg11.dtd">
<svg version="1.1" id="Layer_3" xmlns="http://www.w3.org/2000/svg" xmlns:xlink="http://www.w3.org/1999/xlink" x="0px" y="0px"
	 width="126px" height="126px" viewBox="0 0 126 126" enable-background="new 0 0 126 126" xml:space="preserve">
<g>
	<circle cx="63.944" cy="14.521" r="13.997"/>
	<path d="M105.5,30.132l-36.663-0.106c-0.669-0.266-1.346-0.486-2.017-0.644l-3.046,2.621l-3.167-2.591l-0.042,0.006
		c-0.955,0.243-1.92,0.602-2.854,1.06l-37.21,0.088c-3.001,0.007-5.428,2.446-5.421,5.447c0.008,2.997,2.438,5.421,5.434,5.421
		c0.005,0,0.009,0,0.014,0l30.418-0.072l0.256,29.78c0.003,0.301,0.034,0.59,0.063,0.88l-28.601,40.896
		c-2.032,2.906-1.324,6.91,1.582,8.943c1.121,0.784,2.404,1.16,3.675,1.16c2.025,0,4.02-0.956,5.269-2.742l27.177-38.859
		c1.102,0.284,2.231,0.44,3.352,0.465l0.015,37.172c0.002,3.546,2.877,6.419,6.422,6.419c0.001,0,0.002,0,0.003,0
		c3.547-0.001,6.421-2.877,6.419-6.424l-0.018-44.934c0-0.175-0.013-0.346-0.026-0.517c0.23-0.837,0.364-1.727,0.356-2.68
		L76.63,40.917L105.47,41c0.005,0,0.01,0,0.016,0c2.993,0,5.425-2.423,5.434-5.418C110.928,32.581,108.501,30.141,105.5,30.132z"/>
</g>
</svg>
