<?xml version="1.0" encoding="utf-8"?>
<!-- Generator: Adobe Illustrator 16.0.0, SVG Export Plug-In . SVG Version: 6.00 Build 0)  -->
<!DOCTYPE svg PUBLIC "-//W3C//DTD SVG 1.1//EN" "http://www.w3.org/Graphics/SVG/1.1/DTD/svg11.dtd">
<svg version="1.1" id="Layer_3" xmlns="http://www.w3.org/2000/svg" xmlns:xlink="http://www.w3.org/1999/xlink" x="0px" y="0px"
	 width="126px" height="126px" viewBox="0 0 126 126" enable-background="new 0 0 126 126" xml:space="preserve">
<g>
	<path d="M29.838,97.266h-8.799v25.422h8.225c4.232,0,7.516-1.146,9.852-3.443c2.336-2.292,3.504-5.562,3.504-9.807
		c0-3.939-1.109-6.956-3.33-9.043C37.068,98.31,33.92,97.266,29.838,97.266z M34.027,115.238c-0.973,1.209-2.502,1.815-4.59,1.815
		h-1.531v-14.241h2c1.881,0,3.279,0.563,4.201,1.686c0.92,1.125,1.381,2.853,1.381,5.181
		C35.488,112.172,35.002,114.025,34.027,115.238z"/>
	<polygon points="45.752,122.688 60.844,122.688 60.844,117.088 52.619,117.088 52.619,112.29 60.236,112.29 60.236,106.778 
		52.619,106.778 52.619,102.776 60.844,102.776 60.844,97.266 45.752,97.266 	"/>
	<path d="M69.418,97.163l-8.297,25.524h7.547l1.289-4.765h8.258l1.252,4.765h7.514l-8.4-25.524H69.418z M71.381,112.29
		c1.055-3.985,1.736-6.661,2.045-8.017c0.307-1.355,0.512-2.33,0.617-2.919c0.117,0.634,0.355,1.689,0.723,3.161
		c0.363,1.473,0.674,2.671,0.93,3.601l1.094,4.174H71.381z"/>
	<polygon points="95.172,117.14 95.172,97.266 88.305,97.266 88.305,122.688 104.961,122.688 104.961,117.14 	"/>
	<circle cx="41.85" cy="14.056" r="9.742"/>
	<circle cx="74.048" cy="14.061" r="9.742"/>
	<path d="M80.174,82.646l0.006,7.035c0,2.85,2.309,5.155,5.156,5.155h0.006c2.846-0.002,5.154-2.312,5.152-5.161l-0.004-7.029
		H80.174z"/>
	<path d="M25.424,57.223l-0.02,32.451c-0.004,2.85,2.307,5.159,5.154,5.161c0,0,0,0,0.004,0c2.846,0,5.154-2.308,5.154-5.155
		l0.02-30.703c2.131-0.848,3.934-2.493,4.484-5.061l1.705-7.96c2.713,3.168,7.195,4.983,15.186,6.078
		c0.172,0.022,0.346,0.036,0.518,0.036c1.594,0,3.006-1.013,3.543-2.498c6.256-0.329,10.135-1.617,12.66-4.272l1.846,8.62
		c0.48,2.23,1.904,3.762,3.668,4.684h2.455c0.527-1.485,1.594-2.713,3-3.443c-1.279-6.104-3.057-12.105-4.582-15.751
		c-1.041-1.913,0.41-2.574,1.186-0.587s3.672,11.044,4.857,16.965c-1.789,0.551-3.158,2.061-3.475,3.939h-7.283v21.518h29.139
		V59.727h-7.283c-0.318-1.896-1.709-3.412-3.518-3.953c0.02-0.312,0.014-0.627-0.049-0.95c-0.482-2.462-6.398-25.678-6.398-25.678
		c-0.84-3.916-3.551-5.798-6.924-5.896l-0.029,0.002c0,0-1.189,0.006-2.213,0.201c-1.074,0.205-2.012,0.721-2.012,0.721
		c-2.486,1.207-4.863,3.697-5.156,6.723c-0.039,0.146-0.086,0.287-0.107,0.441c-0.656,4.62-1.316,7.55-2.732,8.841
		c-1.459,1.326-4.738,1.921-10.635,1.921c-1.365,0-2.549,0.73-3.215,1.813c-3.557-0.724-5.658-1.647-6.766-2.931
		c-1.439-1.664-1.965-4.756-2.66-9.645c-0.023-0.156-0.07-0.298-0.109-0.443c-0.291-3.023-2.668-5.516-5.154-6.723
		c0,0-0.939-0.518-2.012-0.721c-1.027-0.197-2.215-0.201-2.215-0.201l-0.029-0.002c-3.373,0.098-7.344,1.978-8.186,5.894
		l-4.502,21.027C22.137,52.979,23.393,55.491,25.424,57.223z M90.072,59.338c0.238,0,0.484-0.023,0.73-0.071
		c0.818-0.163,1.518-0.583,2.045-1.155c0.887,0.155,1.609,0.783,1.908,1.615h-9.365c0.299-0.832,1.02-1.46,1.908-1.611
		C88.002,58.873,89,59.338,90.072,59.338z"/>
</g>
</svg>
