<?xml version="1.0" encoding="utf-8"?>
<!-- Generator: Adobe Illustrator 16.0.0, SVG Export Plug-In . SVG Version: 6.00 Build 0)  -->
<!DOCTYPE svg PUBLIC "-//W3C//DTD SVG 1.1//EN" "http://www.w3.org/Graphics/SVG/1.1/DTD/svg11.dtd">
<svg version="1.1" id="Layer_1" xmlns="http://www.w3.org/2000/svg" xmlns:xlink="http://www.w3.org/1999/xlink" x="0px" y="0px"
	 width="50px" height="50px" viewBox="0 0 50 50" enable-background="new 0 0 50 50" xml:space="preserve">
<g>
	<polygon points="22.954,37.253 22.957,37.25 22.952,37.25 	"/>
	<path d="M39.029,29.484l-3.772-3.772l-2.751,2.751l-2.751-2.751l-0.697,0.697c-0.971-0.539-2.025-0.979-3.147-1.264
		c2.169-1.459,3.662-4.334,3.662-6.925c0-3.655-2.964-6.619-6.618-6.619s-6.618,2.963-6.618,6.619c0,2.591,1.493,5.466,3.662,6.925
		c-5.186,1.314-9.027,5.816-9.027,9.151c0,1.972,5.99,2.955,11.981,2.954l-3.355-3.354l2.826-6.832h-0.029l-1.098-1.259
		c0.53,0.19,1.084,0.305,1.658,0.305c0.573,0,1.126-0.114,1.656-0.304l-1.098,1.257h-0.027l2.826,6.832l-3.355,3.354
		c1.729,0,3.458-0.082,5.043-0.247l1.755,1.755l2.526-2.526c0.116-0.035,0.235-0.068,0.345-0.104l2.63,2.63l3.772-3.772
		l-2.751-2.751L39.029,29.484z M37.261,34.987l-2.004,2.004l-2.751-2.751l-2.751,2.751l-2.004-2.004l2.751-2.751l-2.751-2.751
		l2.004-2.004l2.751,2.751l2.751-2.751l2.004,2.004l-2.751,2.751L37.261,34.987z"/>
</g>
</svg>
