<?xml version="1.0" encoding="utf-8"?>
<!-- Generator: Adobe Illustrator 16.0.0, SVG Export Plug-In . SVG Version: 6.00 Build 0)  -->
<!DOCTYPE svg PUBLIC "-//W3C//DTD SVG 1.1//EN" "http://www.w3.org/Graphics/SVG/1.1/DTD/svg11.dtd">
<svg version="1.1" id="Layer_1" xmlns="http://www.w3.org/2000/svg" xmlns:xlink="http://www.w3.org/1999/xlink" x="0px" y="0px"
	 width="50px" height="50px" viewBox="0 0 50 50" enable-background="new 0 0 50 50" xml:space="preserve">
<g>
	<g>
		<g>
			<path d="M10.864,17.166c0.511,0,0.929-0.594,0.929-1.107s-0.418-0.93-0.929-0.93c-0.515,0-0.933,0.417-0.933,0.93
				S10.35,17.166,10.864,17.166z"/>
			<path d="M12.698,17.863c-0.003-0.018-0.012-0.033-0.017-0.049c-0.007-0.027-0.014-0.053-0.024-0.079
				c-0.01-0.018-0.024-0.032-0.035-0.048c-0.019-0.021-0.034-0.044-0.054-0.062c-0.018-0.014-0.036-0.022-0.054-0.034
				c-0.02-0.011-0.035-0.026-0.057-0.033c-0.033-0.013-0.772-0.277-1.451-0.312l-0.095,0.186h-0.001l0.247,1.928l-0.294,0.514
				l-0.295-0.514l0.247-1.928h-0.004l-0.091-0.186c-0.682,0.035-1.419,0.299-1.454,0.312c-0.022,0.007-0.038,0.022-0.056,0.034
				c-0.02,0.01-0.038,0.019-0.054,0.033c-0.022,0.018-0.038,0.04-0.056,0.062c-0.011,0.017-0.024,0.03-0.032,0.047
				c-0.015,0.026-0.021,0.052-0.025,0.079c-0.007,0.018-0.014,0.032-0.018,0.049l-0.293,2.645c-0.023,0.203,0.123,0.384,0.324,0.406
				c0.015,0.002,0.026,0.002,0.041,0.002c0.186,0,0.344-0.139,0.365-0.327l0.268-2.411c0.03-0.008,0.065-0.018,0.103-0.029v2.509
				l-0.292,3.636c-0.021,0.243,0.159,0.454,0.403,0.475C9.958,24.77,9.97,24.77,9.981,24.77c0.229,0,0.422-0.176,0.439-0.405
				l0.265-3.287c0.054,0.024,0.112,0.037,0.179,0.037c0.062,0,0.121-0.013,0.178-0.037l0.262,3.287
				c0.02,0.229,0.213,0.405,0.439,0.405c0.012,0,0.025,0,0.038-0.001c0.241-0.021,0.422-0.232,0.403-0.475l-0.293-3.636v-2.509
				c0.037,0.012,0.07,0.021,0.103,0.029l0.269,2.411c0.02,0.188,0.18,0.327,0.362,0.327c0.015,0,0.029,0,0.041-0.002
				c0.202-0.022,0.348-0.204,0.324-0.406L12.698,17.863z"/>
		</g>
		<g>
			<path d="M20.473,17.181c0.513,0,0.929-0.595,0.929-1.108s-0.416-0.929-0.929-0.929c-0.514,0-0.929,0.416-0.929,0.929
				S19.959,17.181,20.473,17.181z"/>
			<path d="M22.308,17.877c0-0.018-0.01-0.032-0.016-0.048c-0.007-0.027-0.012-0.054-0.026-0.079
				c-0.009-0.018-0.021-0.033-0.035-0.048c-0.016-0.022-0.03-0.044-0.053-0.062c-0.017-0.014-0.037-0.022-0.055-0.034
				c-0.019-0.011-0.035-0.026-0.054-0.033c-0.033-0.013-0.773-0.278-1.454-0.312l-0.094,0.186H20.52l0.247,1.928l-0.294,0.513
				l-0.293-0.513l0.246-1.928h-0.002l-0.094-0.186c-0.68,0.034-1.419,0.299-1.452,0.312c-0.021,0.006-0.036,0.022-0.057,0.034
				c-0.018,0.011-0.036,0.019-0.053,0.032c-0.022,0.019-0.036,0.041-0.054,0.063c-0.013,0.015-0.026,0.029-0.035,0.047
				c-0.013,0.025-0.019,0.052-0.025,0.08c-0.005,0.017-0.015,0.029-0.017,0.047l-0.295,2.646c-0.021,0.201,0.123,0.384,0.327,0.406
				c0.013,0.001,0.027,0.002,0.04,0.002c0.184,0,0.344-0.139,0.365-0.327l0.268-2.41c0.031-0.01,0.066-0.02,0.102-0.029v2.506
				l-0.293,3.636c-0.019,0.244,0.162,0.456,0.403,0.476c0.012,0.001,0.026,0.001,0.038,0.001c0.227,0,0.419-0.175,0.437-0.405
				l0.266-3.287c0.055,0.024,0.115,0.039,0.178,0.039c0.064,0,0.125-0.014,0.18-0.039l0.263,3.287
				c0.019,0.23,0.211,0.405,0.439,0.405c0.012,0,0.022,0,0.035-0.001c0.243-0.021,0.424-0.232,0.403-0.476l-0.292-3.636v-2.506
				c0.036,0.009,0.072,0.019,0.104,0.029l0.267,2.41c0.022,0.188,0.181,0.327,0.365,0.327c0.014,0,0.028-0.001,0.041-0.002
				c0.201-0.022,0.347-0.205,0.324-0.406L22.308,17.877z"/>
		</g>
		<g>
			<path d="M15.668,17.174c0.52,0,0.938-0.602,0.938-1.12c0-0.52-0.419-0.94-0.938-0.94c-0.519,0-0.939,0.42-0.939,0.94
				C14.729,16.572,15.149,17.174,15.668,17.174z"/>
			<path d="M17.738,20.52l-0.592-2.377c-0.004-0.005-0.006-0.006-0.007-0.011c-0.006-0.018-0.017-0.034-0.023-0.052
				c-0.011-0.018-0.018-0.037-0.031-0.052c-0.001-0.005-0.001-0.007-0.007-0.011c-0.024-0.028-0.62-0.695-1.41-0.695
				s-1.387,0.667-1.411,0.695c-0.003,0.003-0.003,0.007-0.006,0.011c-0.011,0.015-0.021,0.033-0.028,0.05
				c-0.01,0.018-0.021,0.035-0.026,0.053c-0.002,0.004-0.004,0.006-0.005,0.011l-0.593,2.377c-0.042,0.159,0.056,0.32,0.216,0.36
				c0.023,0.006,0.046,0.009,0.07,0.009c0.135,0,0.254-0.09,0.289-0.226l0.57-2.287l0.151,1.396l-0.974,1.905
				c0,0.07,0.397,0.232,0.974,0.319l-0.191,2.387c-0.018,0.205,0.135,0.384,0.34,0.4c0.01,0.001,0.019,0.001,0.03,0.001
				c0.192,0,0.354-0.147,0.37-0.341l0.192-2.388c0.01,0,0.022,0,0.031,0c0.01,0,0.021,0,0.031,0l0.193,2.388
				c0.016,0.194,0.177,0.341,0.368,0.341c0.013,0,0.022,0,0.031-0.001c0.205-0.017,0.358-0.196,0.34-0.4l-0.192-2.387
				c0.576-0.087,0.975-0.25,0.975-0.319l-0.975-1.904l0.151-1.397l0.573,2.287c0.032,0.136,0.152,0.226,0.288,0.226
				c0.023,0,0.047-0.003,0.069-0.009C17.682,20.84,17.779,20.679,17.738,20.52z"/>
		</g>
		<g>
			<path d="M15.617,27.269c-0.514,0-0.929-0.596-0.929-1.109c0-0.514,0.415-0.929,0.929-0.929s0.929,0.416,0.929,0.929
				C16.546,26.673,16.131,27.269,15.617,27.269z"/>
			<path d="M13.782,27.963c0-0.016,0.013-0.032,0.016-0.048c0.007-0.027,0.012-0.054,0.026-0.078
				c0.008-0.019,0.023-0.033,0.035-0.05c0.016-0.021,0.03-0.043,0.053-0.062c0.016-0.013,0.037-0.022,0.055-0.033
				c0.02-0.011,0.035-0.026,0.054-0.033c0.034-0.013,0.773-0.277,1.454-0.312l0.095,0.186h0.001l-0.247,1.928l0.294,0.513
				l0.293-0.513l-0.246-1.928h0.002l0.094-0.186c0.679,0.035,1.419,0.299,1.452,0.312c0.021,0.007,0.036,0.022,0.056,0.034
				c0.018,0.01,0.036,0.019,0.055,0.032c0.022,0.019,0.038,0.041,0.053,0.063c0.013,0.016,0.026,0.03,0.035,0.047
				c0.013,0.025,0.018,0.053,0.026,0.08c0.004,0.017,0.014,0.031,0.016,0.047l0.294,2.646c0.021,0.201-0.123,0.384-0.326,0.406
				c-0.013,0.001-0.027,0.002-0.041,0.002c-0.183,0-0.343-0.141-0.364-0.328l-0.268-2.409c-0.031-0.011-0.063-0.021-0.103-0.03
				v2.507l0.294,3.637c0.021,0.242-0.163,0.456-0.404,0.475c-0.011,0-0.025,0.001-0.037,0.001c-0.227,0-0.419-0.174-0.437-0.406
				l-0.266-3.286c-0.055,0.024-0.115,0.038-0.178,0.038c-0.064,0-0.125-0.014-0.178-0.038l-0.266,3.286
				c-0.018,0.232-0.21,0.406-0.438,0.406c-0.012,0-0.023-0.001-0.035-0.001c-0.244-0.019-0.424-0.232-0.404-0.475l0.294-3.637
				v-2.507c-0.038,0.009-0.073,0.019-0.104,0.03l-0.268,2.409c-0.021,0.187-0.18,0.328-0.364,0.328
				c-0.014,0-0.027-0.001-0.041-0.002c-0.202-0.022-0.348-0.205-0.324-0.406L13.782,27.963z"/>
		</g>
		<g>
			<path d="M10.812,27.275c-0.519,0-0.94-0.602-0.94-1.12c0-0.52,0.422-0.939,0.94-0.939c0.518,0,0.938,0.42,0.938,0.939
				C11.751,26.673,11.33,27.275,10.812,27.275z"/>
			<path d="M8.74,30.622l0.595-2.378c0-0.002,0.005-0.006,0.005-0.009c0.006-0.019,0.018-0.034,0.025-0.052
				c0.01-0.019,0.018-0.037,0.031-0.053c0.001-0.003,0.001-0.007,0.003-0.01c0.026-0.028,0.623-0.695,1.413-0.695
				c0.791,0,1.387,0.667,1.411,0.695c0.003,0.002,0.004,0.007,0.006,0.01c0.012,0.016,0.02,0.033,0.029,0.05
				c0.009,0.019,0.019,0.035,0.024,0.054c0,0.003,0.006,0.007,0.006,0.009l0.594,2.378c0.039,0.159-0.057,0.319-0.217,0.359
				c-0.023,0.006-0.048,0.01-0.071,0.01c-0.133,0-0.255-0.09-0.288-0.226l-0.573-2.287l-0.147,1.396l0.974,1.904
				c0,0.072-0.398,0.233-0.975,0.32l0.192,2.387c0.016,0.205-0.137,0.384-0.342,0.4c-0.01,0-0.02,0-0.028,0
				c-0.193,0-0.356-0.147-0.372-0.342l-0.192-2.386c-0.011,0-0.021,0-0.03,0c-0.011,0-0.021,0-0.033,0l-0.191,2.386
				c-0.016,0.195-0.177,0.342-0.371,0.342c-0.009,0-0.019,0-0.028,0c-0.204-0.017-0.357-0.195-0.341-0.4l0.192-2.387
				c-0.578-0.087-0.976-0.248-0.976-0.32l0.976-1.902l-0.15-1.398l-0.572,2.287c-0.034,0.136-0.155,0.226-0.288,0.226
				c-0.024,0-0.049-0.004-0.072-0.01C8.797,30.941,8.701,30.781,8.74,30.622z"/>
		</g>
		<g>
			<path d="M20.422,27.275c-0.52,0-0.938-0.602-0.938-1.12c0-0.52,0.419-0.939,0.938-0.939c0.519,0,0.94,0.42,0.94,0.939
				C21.362,26.673,20.94,27.275,20.422,27.275z"/>
			<path d="M18.352,30.622l0.594-2.378c0.001-0.002,0.003-0.006,0.005-0.009c0.006-0.019,0.016-0.034,0.023-0.052
				c0.011-0.019,0.018-0.037,0.031-0.053c0.003-0.003,0.003-0.007,0.006-0.01c0.025-0.028,0.621-0.695,1.411-0.695
				s1.386,0.667,1.41,0.695c0.005,0.002,0.005,0.007,0.006,0.01c0.012,0.016,0.022,0.033,0.029,0.05
				c0.01,0.019,0.021,0.035,0.026,0.054c0.001,0.003,0.004,0.007,0.006,0.009l0.592,2.378c0.042,0.159-0.057,0.319-0.217,0.359
				c-0.021,0.006-0.045,0.01-0.069,0.01c-0.135,0-0.255-0.09-0.289-0.226l-0.571-2.287l-0.15,1.396l0.974,1.904
				c0,0.072-0.398,0.233-0.974,0.32l0.191,2.387c0.018,0.205-0.136,0.384-0.34,0.4c-0.01,0-0.02,0-0.03,0
				c-0.192,0-0.354-0.147-0.369-0.342l-0.192-2.386c-0.011,0-0.023,0-0.032,0c-0.01,0-0.021,0-0.03,0l-0.195,2.386
				c-0.016,0.195-0.177,0.342-0.368,0.342c-0.012,0-0.021,0-0.031,0c-0.204-0.017-0.355-0.195-0.34-0.4l0.191-2.387
				c-0.575-0.087-0.974-0.248-0.974-0.32l0.974-1.902l-0.149-1.398l-0.571,2.287c-0.034,0.136-0.155,0.226-0.288,0.226
				c-0.026,0-0.048-0.004-0.071-0.01C18.408,30.941,18.31,30.781,18.352,30.622z"/>
		</g>
	</g>
	<g>
		<rect x="29.527" y="25.006" width="3.504" height="9.88"/>
		<rect x="33.647" y="20.438" width="3.503" height="14.448"/>
		<rect x="37.767" y="15.128" width="3.503" height="19.758"/>
	</g>
	<polygon points="28.288,25 24.499,22.392 25.064,24.214 23.407,24.214 23.407,25.786 25.064,25.786 24.499,27.608 	"/>
</g>
</svg>
