<?xml version="1.0" encoding="utf-8"?>
<!-- Generator: Adobe Illustrator 16.0.0, SVG Export Plug-In . SVG Version: 6.00 Build 0)  -->
<!DOCTYPE svg PUBLIC "-//W3C//DTD SVG 1.1//EN" "http://www.w3.org/Graphics/SVG/1.1/DTD/svg11.dtd">
<svg version="1.1" id="Layer_1" xmlns="http://www.w3.org/2000/svg" xmlns:xlink="http://www.w3.org/1999/xlink" x="0px" y="0px"
	 width="50px" height="50px" viewBox="0 0 50 50" enable-background="new 0 0 50 50" xml:space="preserve">
<path d="M35.719,13.7H12.281c-1.348,0-2.451,1.104-2.451,2.451v15.609c0,1.348,1.104,2.451,2.451,2.451H23V36.3h-7.5l-1,1v1h19v-1
	l-1-1H25v-2.088h10.719c1.35,0,2.451-1.104,2.451-2.451V16.151C38.17,14.804,37.068,13.7,35.719,13.7z M37.17,28.761
	c0,0.8-0.65,1.451-1.451,1.451H12.281c-0.801,0-1.451-0.651-1.451-1.451V16.151c0-0.8,0.65-1.451,1.451-1.451h23.438
	c0.801,0,1.451,0.651,1.451,1.451V28.761z"/>
<polygon points="20.973,28.292 14.917,28.292 20.973,23.708 "/>
<polygon points="27.027,28.292 20.973,28.292 27.027,21.708 "/>
<polygon points="33.083,28.292 27.027,28.292 33.083,18.708 "/>
<g>
	<polygon points="15.025,26.429 14.809,26.154 22.147,20.347 22.147,24.843 28.202,18.26 28.202,23.713 32.938,16.611 
		33.229,16.806 27.853,24.87 27.853,19.157 21.798,25.74 21.798,21.07 	"/>
</g>
</svg>
