<?xml version="1.0" encoding="utf-8"?>
<!-- Generator: Adobe Illustrator 16.0.0, SVG Export Plug-In . SVG Version: 6.00 Build 0)  -->
<!DOCTYPE svg PUBLIC "-//W3C//DTD SVG 1.1//EN" "http://www.w3.org/Graphics/SVG/1.1/DTD/svg11.dtd">
<svg version="1.1" id="Layer_1" xmlns="http://www.w3.org/2000/svg" xmlns:xlink="http://www.w3.org/1999/xlink" x="0px" y="0px"
	 width="50px" height="50px" viewBox="0 0 50 50" enable-background="new 0 0 50 50" xml:space="preserve">
<g>
	<path d="M39.133,25.254c0.037-0.94-0.121-1.896-0.472-2.805l1.457-0.906l-1.428-2.288l-1.456,0.912
		c-0.665-0.715-1.451-1.271-2.309-1.655l0.383-1.67l-2.626-0.603L32.3,17.91c-0.314-0.013-0.63,0.005-0.944,0.036v-3.498
		c0-1.454-1.183-2.637-2.639-2.637H11.836c-1.456,0-2.639,1.183-2.639,2.637v21.104c0,1.454,1.183,2.637,2.639,2.637h16.881
		c1.456,0,2.639-1.183,2.639-2.637V33.75l0.048,0.011l0.385-1.671c0.938,0.037,1.892-0.117,2.803-0.473l0.909,1.458l2.283-1.428
		l-0.908-1.456c0.715-0.661,1.273-1.454,1.652-2.312l1.67,0.386l0.605-2.626L39.133,25.254z M30.301,35.552
		c0,0.872-0.711,1.582-1.584,1.582H11.836c-0.873,0-1.584-0.71-1.584-1.582V14.448c0-0.872,0.711-1.582,1.584-1.582h16.881
		c0.873,0,1.584,0.71,1.584,1.582V35.552z M34.604,29.103c-1.009,0.631-2.157,0.822-3.249,0.664v-9.549
		c1.837-0.262,3.743,0.544,4.79,2.22C37.561,24.701,36.869,27.689,34.604,29.103z"/>
	<path d="M26.654,16.371H13.898c-0.269,0-0.484,0.217-0.484,0.485s0.216,0.484,0.484,0.484h12.756c0.269,0,0.484-0.216,0.484-0.484
		S26.923,16.371,26.654,16.371z"/>
	<path d="M26.654,19.086H13.898c-0.269,0-0.484,0.217-0.484,0.485s0.216,0.483,0.484,0.483h12.756c0.269,0,0.484-0.215,0.484-0.483
		S26.923,19.086,26.654,19.086z"/>
	<path d="M26.654,21.8H13.898c-0.269,0-0.484,0.218-0.484,0.485c0,0.269,0.216,0.484,0.484,0.484h12.756
		c0.269,0,0.484-0.216,0.484-0.484C27.139,22.018,26.923,21.8,26.654,21.8z"/>
	<path d="M26.654,24.515H13.898c-0.269,0-0.484,0.217-0.484,0.485c0,0.268,0.216,0.484,0.484,0.484h12.756
		c0.269,0,0.484-0.217,0.484-0.484C27.139,24.731,26.923,24.515,26.654,24.515z"/>
	<path d="M26.654,27.229H13.898c-0.269,0-0.484,0.217-0.484,0.485c0,0.267,0.216,0.483,0.484,0.483h12.756
		c0.269,0,0.484-0.217,0.484-0.483C27.139,27.446,26.923,27.229,26.654,27.229z"/>
	<path d="M26.654,29.943H13.898c-0.269,0-0.484,0.217-0.484,0.485c0,0.268,0.216,0.484,0.484,0.484h12.756
		c0.269,0,0.484-0.217,0.484-0.484C27.139,30.16,26.923,29.943,26.654,29.943z"/>
	<path d="M20.129,32.658h-6.23c-0.269,0-0.484,0.217-0.484,0.485c0,0.267,0.216,0.484,0.484,0.484h6.23
		c0.267,0,0.482-0.218,0.482-0.484C20.611,32.875,20.396,32.658,20.129,32.658z"/>
</g>
</svg>
