<?xml version="1.0" encoding="utf-8"?>
<!-- Generator: Adobe Illustrator 16.0.0, SVG Export Plug-In . SVG Version: 6.00 Build 0)  -->
<!DOCTYPE svg PUBLIC "-//W3C//DTD SVG 1.1//EN" "http://www.w3.org/Graphics/SVG/1.1/DTD/svg11.dtd">
<svg version="1.1" id="Layer_1" xmlns="http://www.w3.org/2000/svg" xmlns:xlink="http://www.w3.org/1999/xlink" x="0px" y="0px"
	 width="50px" height="50px" viewBox="0 0 50 50" enable-background="new 0 0 50 50" xml:space="preserve">
<path d="M25,7.879c-6.593,0-11.956,5.363-11.956,11.955c0,5.32,1.935,9.051,5.6,10.803c0.227,0.364,0.46,0.76,0.572,1.126
	c0.128,0.419,0.229,0.829,0.324,1.221c0.36,1.476,0.714,2.893,2.241,3.667c-0.376,0.094-0.661,0.419-0.661,0.821v1.316
	c0,0.474,0.318,1.084,0.707,1.354l2.557,1.78c0.389,0.271,1.021,0.264,1.403-0.016l2.396-1.749c0.383-0.279,0.696-0.896,0.696-1.37
	v-1.316c0-0.402-0.285-0.727-0.659-0.821c1.525-0.773,1.877-2.188,2.237-3.662c0.097-0.394,0.197-0.805,0.326-1.228
	c0.11-0.363,0.337-0.748,0.571-1.126c3.666-1.751,5.601-5.481,5.601-10.802C36.956,13.242,31.593,7.879,25,7.879z M30.643,29.542
	l-0.179,0.082l-0.104,0.165c-0.299,0.478-0.638,1.019-0.814,1.597c-0.136,0.446-0.242,0.88-0.344,1.297
	c-0.284,1.161-0.501,2.033-1.197,2.586l-2.072,0v-6.419c2.386-0.415,3.693-1.991,3.693-3.837c0-1.868-0.996-3.01-3.464-3.881
	c-1.765-0.664-2.49-1.1-2.49-1.784c0-0.582,0.434-1.163,1.784-1.163c1.493,0,2.446,0.478,2.987,0.706l0.602-2.344
	c-0.683-0.332-1.619-0.622-3.008-0.685v-1.825h-2.034v1.97c-2.22,0.437-3.504,1.868-3.504,3.693c0,2.013,1.514,3.051,3.734,3.796
	c1.535,0.519,2.197,1.017,2.197,1.806c0,0.829-0.808,1.286-1.991,1.286c-1.347,0-2.573-0.437-3.442-0.913l-0.623,2.426
	c0.786,0.457,2.137,0.831,3.526,0.893v6.273l-1.905,0c-0.697-0.554-0.915-1.428-1.198-2.59c-0.103-0.414-0.208-0.847-0.344-1.292
	c-0.182-0.586-0.518-1.124-0.816-1.597l-0.104-0.164l-0.177-0.081c-4.148-1.883-5.02-6.319-5.02-9.709
	c0-5.879,4.784-10.661,10.663-10.661s10.663,4.782,10.663,10.661C35.663,23.224,34.792,27.66,30.643,29.542z"/>
</svg>
