<?xml version="1.0" encoding="utf-8"?>
<!-- Generator: Adobe Illustrator 16.0.0, SVG Export Plug-In . SVG Version: 6.00 Build 0)  -->
<!DOCTYPE svg PUBLIC "-//W3C//DTD SVG 1.1//EN" "http://www.w3.org/Graphics/SVG/1.1/DTD/svg11.dtd">
<svg version="1.1" id="Layer_1" xmlns="http://www.w3.org/2000/svg" xmlns:xlink="http://www.w3.org/1999/xlink" x="0px" y="0px"
	 width="50px" height="50px" viewBox="0 0 50 50" enable-background="new 0 0 50 50" xml:space="preserve">
<g>
	<path d="M14.677,24.998c0-5.266,3.882-9.633,8.934-10.419v2.299l6.496-4.061L23.61,8.757v2.538
		c-6.851,0.811-12.183,6.642-12.183,13.703c0,4.963,2.639,9.307,6.576,11.739l3.186-1.988
		C17.368,33.156,14.677,29.387,14.677,24.998z"/>
	<path d="M32.464,13.261l-3.185,1.991c3.821,1.587,6.513,5.356,6.513,9.746c0,5.27-3.882,9.635-8.934,10.422v-2.3l-6.496,4.062
		l6.496,4.06V38.7c6.851-0.808,12.183-6.639,12.183-13.702C39.041,20.037,36.402,15.693,32.464,13.261z"/>
	<path d="M26.017,32.1v-1.774c2-0.348,3.098-1.671,3.098-3.219c0-1.567-0.835-2.523-2.904-3.256
		c-1.481-0.557-2.091-0.922-2.091-1.496c0-0.488,0.365-0.975,1.498-0.975c1.252,0,2.052,0.399,2.506,0.592l0.503-1.967
		c-0.572-0.278-1.356-0.521-2.522-0.573v-1.532h-1.706v1.653c-1.86,0.364-2.94,1.566-2.94,3.097c0,1.688,1.271,2.56,3.135,3.185
		c1.286,0.436,1.842,0.853,1.842,1.516c0,0.695-0.677,1.078-1.669,1.078c-1.131,0-2.158-0.366-2.888-0.766l-0.522,2.036
		c0.659,0.384,1.792,0.697,2.957,0.748V32.1H26.017z"/>
</g>
</svg>
