<?xml version="1.0" encoding="utf-8"?>
<!-- Generator: Adobe Illustrator 16.0.0, SVG Export Plug-In . SVG Version: 6.00 Build 0)  -->
<!DOCTYPE svg PUBLIC "-//W3C//DTD SVG 1.1//EN" "http://www.w3.org/Graphics/SVG/1.1/DTD/svg11.dtd">
<svg version="1.1" id="Layer_11" xmlns="http://www.w3.org/2000/svg" xmlns:xlink="http://www.w3.org/1999/xlink" x="0px" y="0px"
	 width="100px" height="100px" viewBox="0 0 100 100" enable-background="new 0 0 100 100" xml:space="preserve">
<g>
	<path d="M51.736,18.053c7.521,0,14.164,1.965,18.182,4.967c-0.141-9.331-7.174-16.976-16.234-18.091
		c-0.109-1.049-0.986-1.874-2.07-1.874c-1.059,0-1.926,0.792-2.061,1.817C40.193,5.804,32.889,13.699,32.889,23.3h0.303
		C37.164,20.14,43.986,18.053,51.736,18.053z"/>
	<path d="M61.5,49.268c-0.016,3.582-4.523,6.482-10.083,6.482c-5.568,0-10.083-2.91-10.083-6.5c0-0.091,0.016-0.18,0.021-0.271
		c-12.418,0.489-22.371,10.738-22.371,23.272l0.5,17.885c0,0,0.249-4.36,0.049,0.293c-0.02,0.446,0.104,0.889,0.326,1.318v0.648
		c0,2.748,2.227,4.976,4.975,4.976c1.669,0,3.137-0.829,4.04-2.089c0.657-0.34,1.071-0.943,1.071-1.881
		c0-5.485,2.48-24.379,2.48-24.379h1.24v26.153c6.789,1.275,12.93,1.769,18.344,1.769c6.521,0,11.992-0.71,16.309-1.604V69.023
		h0.621l3.102,24.438c0.037,0.037,0.085,0.068,0.125,0.104c0.273,2.144,2.084,3.807,4.302,3.807c2.407,0,4.358-1.951,4.358-4.358
		v-1.237c0.094-0.354,0.16-0.729,0.16-1.153l0.029-0.487V72.251C81.016,60.694,72.553,51.08,61.5,49.268z"/>
	<path d="M31.705,33.14C32.777,43.038,40.994,50.456,51,50.456s18.225-7.418,19.295-17.316c1.135,0.082,1.77-0.452,1.77-2.054
		c0-6.201-6.35-11.813-21.064-11.229c-14.424,0.573-21.063,5.028-21.063,11.229C29.938,32.688,30.57,33.222,31.705,33.14z
		 M38.615,31.972c3.463-1.511,7.771-3.39,12.385-3.39c4.611,0,8.922,1.879,12.389,3.392c1.67,0.729,3.076,1.343,4.355,1.671
		C66.479,41.89,59.467,47.975,51,47.975c-8.465,0-15.477-6.085-16.742-14.33C35.537,33.317,36.943,32.703,38.615,31.972z"/>
</g>
</svg>
