<?xml version="1.0" encoding="utf-8"?>
<!-- Generator: Adobe Illustrator 16.0.0, SVG Export Plug-In . SVG Version: 6.00 Build 0)  -->
<!DOCTYPE svg PUBLIC "-//W3C//DTD SVG 1.1//EN" "http://www.w3.org/Graphics/SVG/1.1/DTD/svg11.dtd">
<svg version="1.1" id="Layer_11" xmlns="http://www.w3.org/2000/svg" xmlns:xlink="http://www.w3.org/1999/xlink" x="0px" y="0px"
	 width="100px" height="100px" viewBox="0 0 100 100" enable-background="new 0 0 100 100" xml:space="preserve">
<path d="M81.016,71.751v17.885l-0.029,0.487c0,0.141-0.024,0.265-0.035,0.398v3.08c0,2.407-1.951,4.358-4.358,4.358
	s-4.357-1.951-4.357-4.358v-0.479c-0.063-0.055-0.137-0.104-0.194-0.162l-3.102-24.438h-0.621v26.318
	c-4.316,0.894-9.787,1.604-16.309,1.604c-5.414,0-11.555-0.493-18.344-1.769V68.523h-1.24c0,0-2.48,18.894-2.48,24.379
	c0,0.851-0.342,1.425-0.896,1.779c-0.482,1.882-2.175,3.279-4.207,3.279c-2.407,0-4.357-1.951-4.357-4.358v-1.458
	c-0.615-0.691-0.985-1.448-0.952-2.213c0.2-4.653-0.049-0.293-0.049-0.293l-0.5-17.885c0-12.534,9.953-22.783,22.371-23.272
	c-0.006,0.09-0.021,0.179-0.021,0.271c0,3.59,4.515,6.5,10.083,6.5c5.56,0,10.067-2.901,10.083-6.482
	C72.553,50.58,81.016,60.194,81.016,71.751z M26.75,32.055v-8.074c0-0.829,0.672-1.5,1.5-1.5h1.39
	C30.763,11.758,39.877,3.555,51,3.555s20.237,8.203,21.36,18.926h1.39c0.828,0,1.5,0.671,1.5,1.5v8.074c0,0.829-0.672,1.5-1.5,1.5
	h-3.597C68.688,42.988,60.692,49.956,51,49.956s-17.686-6.968-19.152-16.401H28.25C27.422,33.555,26.75,32.884,26.75,32.055z
	 M34.34,33.555c1.434,8.033,8.338,13.92,16.66,13.92c8.324,0,15.229-5.887,16.662-13.92H34.34z"/>
</svg>
