<?xml version="1.0" encoding="utf-8"?>
<!-- Generator: Adobe Illustrator 17.0.0, SVG Export Plug-In . SVG Version: 6.00 Build 0)  -->
<!DOCTYPE svg PUBLIC "-//W3C//DTD SVG 1.1//EN" "http://www.w3.org/Graphics/SVG/1.1/DTD/svg11.dtd">
<svg version="1.1" id="Capa_1" xmlns="http://www.w3.org/2000/svg" xmlns:xlink="http://www.w3.org/1999/xlink" x="0px" y="0px"
	 width="64px" height="64px" viewBox="0 0 64 64" enable-background="new 0 0 64 64" xml:space="preserve">
<path fill="#0E0F0F" d="M29.283,27.88c-0.312,1.45,0.614,2.882,2.065,3.195c1.45,0.312,2.884-0.613,3.195-2.064
	c0.313-1.45-0.613-2.884-2.064-3.196C31.03,25.503,29.597,26.429,29.283,27.88z M32.325,26.534c1.054,0.227,1.726,1.27,1.499,2.323
	c-0.225,1.053-1.268,1.727-2.321,1.5c-1.054-0.227-1.727-1.269-1.5-2.322C30.23,26.981,31.271,26.308,32.325,26.534z M33.112,43.192
	c-0.049-0.09-0.083-0.163-0.106-0.214l-1.162-3.464c0.039-0.112,0.073-0.229,0.098-0.348l0.146-0.682
	c0.241,0.368,0.631,0.644,1.062,0.736c0.424,0.091,0.841-0.005,1.174-0.272l2.595-2.084c0.502-0.404,0.713-1.021,0.563-1.65
	c-0.147-0.625-0.611-1.109-1.182-1.232c-0.409-0.088-0.833,0.022-1.191,0.311l-1.012,0.813c-0.229-0.559-0.438-1.034-0.646-1.486
	c-0.006-0.013-0.012-0.025-0.019-0.039l0.006-0.016l-0.151-0.235c-0.083-0.131-0.984-1.37-1.575-1.702l-0.039-0.021
	c-0.033-0.015-0.327-0.149-0.749-0.241c-0.515-0.11-0.995-0.109-1.429,0.001c-0.154,0.013-0.309,0.05-0.462,0.109l-2.861,1.13
	c-0.202-0.604-0.356-1.111-0.486-1.593c-0.151-0.563-0.549-0.954-1.089-1.07c-0.546-0.118-1.156,0.076-1.554,0.494
	c-0.381,0.401-0.515,0.947-0.368,1.495c0.295,1.098,0.671,2.162,1.063,3.246c0.185,0.52,0.65,0.929,1.183,1.042
	c0.28,0.061,0.567,0.038,0.831-0.065l1.517-0.6l-0.53,2.461c-0.001,0.009-0.002,0.017-0.005,0.024l-2.68,1.888
	c-0.566,0.399-0.875,1.03-0.806,1.648l0.49,4.406c0.09,0.809,0.64,1.416,1.438,1.589c0.603,0.13,1.244-0.029,1.668-0.412
	c0.396-0.358,0.581-0.873,0.517-1.45l-0.379-3.402l1.593-1.122l1.031,3.073c0.308,0.916,0.835,1.775,1.346,2.606
	c0.228,0.369,0.441,0.72,0.634,1.065c0.249,0.453,0.641,0.757,1.101,0.856c0.669,0.143,1.418-0.164,1.863-0.762
	c0.443-0.595,0.49-1.34,0.132-1.993L33.112,43.192z M31.958,36.18c-0.033,0.169-0.17,0.285-0.304,0.258
	c-0.12-0.022-0.197-0.153-0.188-0.302l-1.069-0.215c-0.05,0.142-0.17,0.231-0.289,0.207c-0.135-0.025-0.216-0.186-0.182-0.355
	c0.013-0.063,0.04-0.118,0.075-0.16c-0.012-0.045-0.016-0.095-0.005-0.145c0.03-0.153,0.159-0.255,0.288-0.229
	c0.125,0.025,0.202,0.159,0.183,0.303l1.08,0.215c0.037-0.14,0.161-0.232,0.284-0.207c0.131,0.023,0.211,0.169,0.181,0.321
	c-0.011,0.05-0.033,0.094-0.06,0.13C31.967,36.055,31.971,36.116,31.958,36.18z M31.769,37.246c-0.033,0.17-0.17,0.286-0.304,0.26
	c-0.119-0.024-0.196-0.153-0.188-0.302l-1.068-0.215c-0.049,0.14-0.17,0.231-0.289,0.207c-0.135-0.027-0.216-0.187-0.182-0.356
	c0.013-0.063,0.039-0.117,0.074-0.161c-0.012-0.045-0.015-0.094-0.005-0.145c0.03-0.151,0.16-0.254,0.29-0.229
	c0.123,0.025,0.201,0.158,0.182,0.302l1.08,0.217c0.037-0.141,0.161-0.233,0.282-0.208c0.13,0.026,0.211,0.17,0.181,0.322
	c-0.011,0.05-0.031,0.093-0.06,0.13C31.779,37.123,31.782,37.184,31.769,37.246z M31.444,38.374c-0.033,0.17-0.17,0.286-0.304,0.259
	c-0.119-0.023-0.196-0.153-0.188-0.302l-1.068-0.215c-0.05,0.142-0.17,0.23-0.29,0.207c-0.135-0.026-0.215-0.186-0.182-0.355
	c0.014-0.063,0.04-0.117,0.075-0.161c-0.012-0.046-0.015-0.094-0.005-0.145c0.03-0.151,0.159-0.254,0.289-0.228
	c0.125,0.024,0.201,0.156,0.183,0.301l1.08,0.217c0.037-0.141,0.16-0.233,0.283-0.209c0.129,0.025,0.21,0.171,0.181,0.323
	c-0.012,0.05-0.032,0.093-0.061,0.13C31.453,38.249,31.457,38.312,31.444,38.374z M28.688,34.163
	c0.022-0.107,0.113-0.179,0.205-0.16c0.086,0.017,0.141,0.11,0.127,0.212l0.761,0.152c0.027-0.098,0.115-0.164,0.201-0.146
	c0.093,0.019,0.148,0.12,0.127,0.228c-0.007,0.035-0.021,0.066-0.042,0.093c0.012,0.037,0.013,0.081,0.004,0.125
	c-0.023,0.121-0.12,0.202-0.215,0.184c-0.084-0.019-0.138-0.109-0.132-0.214l-0.754-0.152c-0.034,0.1-0.12,0.164-0.204,0.147
	c-0.095-0.019-0.153-0.133-0.128-0.251c0.008-0.045,0.027-0.084,0.052-0.114C28.683,34.233,28.681,34.198,28.688,34.163z
	 M30.23,34.495c0.021-0.107,0.112-0.179,0.204-0.16c0.087,0.017,0.143,0.11,0.128,0.211l0.763,0.153
	c0.026-0.1,0.113-0.164,0.2-0.146c0.092,0.019,0.147,0.12,0.127,0.228c-0.007,0.035-0.022,0.065-0.042,0.093
	c0.011,0.038,0.013,0.08,0.004,0.125c-0.024,0.12-0.12,0.201-0.215,0.183c-0.084-0.017-0.138-0.108-0.133-0.214l-0.754-0.15
	c-0.033,0.099-0.119,0.163-0.203,0.146c-0.096-0.019-0.152-0.131-0.128-0.251c0.009-0.045,0.027-0.083,0.052-0.113
	C30.226,34.565,30.224,34.531,30.23,34.495z M34.168,36.403c0.121-0.119,0.332-0.105,0.497,0.021l1.086-1.067
	c-0.125-0.166-0.135-0.378-0.013-0.498c0.137-0.134,0.384-0.103,0.553,0.07c0.064,0.064,0.106,0.139,0.129,0.214
	c0.062,0.021,0.121,0.056,0.171,0.107c0.151,0.153,0.168,0.384,0.037,0.514c-0.126,0.123-0.341,0.109-0.491-0.026l-1.097,1.079
	c0.132,0.154,0.143,0.368,0.018,0.491c-0.133,0.129-0.361,0.11-0.514-0.045c-0.051-0.051-0.085-0.111-0.104-0.17
	c-0.075-0.026-0.148-0.07-0.212-0.133C34.059,36.786,34.032,36.538,34.168,36.403z M33.552,35.291
	c0.065,0.163-0.031,0.355-0.215,0.441l0.567,1.432c0.193-0.063,0.396,0.01,0.46,0.174c0.069,0.173-0.039,0.376-0.241,0.455
	c-0.065,0.027-0.135,0.035-0.198,0.03c-0.053,0.06-0.121,0.109-0.204,0.143c-0.225,0.089-0.464,0.018-0.535-0.159
	c-0.063-0.16,0.031-0.348,0.213-0.45l-0.563-1.416c-0.201,0.05-0.4-0.023-0.463-0.183c-0.071-0.177,0.055-0.394,0.28-0.482
	c0.082-0.033,0.169-0.044,0.246-0.035c0.043-0.048,0.099-0.09,0.165-0.115C33.266,35.045,33.484,35.119,33.552,35.291z
	 M31.111,32.652c0.08-0.042,0.163-0.063,0.24-0.063c0.039-0.052,0.089-0.1,0.151-0.134c0.191-0.102,0.415-0.053,0.504,0.109
	c0.083,0.155,0.01,0.357-0.163,0.465l0.729,1.355c0.186-0.085,0.394-0.035,0.478,0.12c0.088,0.162,0.004,0.378-0.187,0.479
	c-0.064,0.034-0.13,0.051-0.195,0.053c-0.044,0.064-0.107,0.123-0.186,0.165c-0.213,0.115-0.46,0.071-0.55-0.097
	c-0.081-0.15-0.009-0.35,0.159-0.471l-0.722-1.343c-0.194,0.073-0.399,0.022-0.48-0.127C30.799,32.997,30.898,32.768,31.111,32.652z
	 M28.013,32.891c0.164-0.065,0.355,0.031,0.443,0.215l1.43-0.567c-0.063-0.193,0.012-0.395,0.174-0.459
	c0.172-0.068,0.377,0.039,0.456,0.24c0.026,0.067,0.034,0.135,0.029,0.199c0.06,0.051,0.11,0.121,0.143,0.204
	c0.091,0.225,0.018,0.463-0.159,0.534c-0.158,0.063-0.348-0.031-0.449-0.212l-1.416,0.562c0.05,0.202-0.024,0.4-0.183,0.463
	c-0.177,0.07-0.393-0.054-0.482-0.279c-0.034-0.083-0.044-0.168-0.035-0.247c-0.049-0.042-0.09-0.098-0.116-0.165
	C27.766,33.178,27.842,32.959,28.013,32.891z M27.81,34.996c0.031-0.151,0.16-0.253,0.29-0.228c0.123,0.025,0.202,0.157,0.182,0.302
	l1.08,0.216c0.038-0.14,0.161-0.233,0.285-0.208c0.129,0.025,0.21,0.17,0.179,0.322c-0.01,0.05-0.032,0.095-0.061,0.131
	c0.017,0.054,0.02,0.115,0.008,0.179c-0.034,0.169-0.17,0.285-0.305,0.258c-0.119-0.024-0.196-0.154-0.188-0.302l-1.068-0.215
	c-0.049,0.141-0.17,0.231-0.29,0.207c-0.134-0.027-0.214-0.185-0.181-0.355c0.012-0.063,0.039-0.119,0.073-0.162
	C27.804,35.096,27.801,35.047,27.81,34.996z M27.911,35.836c0.125,0.024,0.202,0.157,0.182,0.302l1.08,0.216
	c0.037-0.141,0.161-0.232,0.284-0.208c0.129,0.025,0.209,0.17,0.179,0.322c-0.01,0.05-0.031,0.095-0.06,0.131
	c0.017,0.053,0.019,0.115,0.006,0.178c-0.033,0.17-0.169,0.286-0.304,0.26c-0.12-0.023-0.197-0.155-0.188-0.303l-1.068-0.215
	c-0.049,0.142-0.17,0.231-0.29,0.208c-0.134-0.026-0.215-0.187-0.181-0.356c0.012-0.063,0.04-0.119,0.076-0.162
	c-0.012-0.045-0.016-0.093-0.006-0.144C27.652,35.912,27.781,35.811,27.911,35.836z M24.203,33.786
	c-0.065-0.164,0.032-0.355,0.215-0.442l-0.568-1.43c-0.193,0.063-0.395-0.012-0.46-0.175c-0.069-0.172,0.04-0.376,0.241-0.456
	c0.065-0.026,0.134-0.034,0.199-0.03c0.05-0.059,0.121-0.108,0.203-0.143c0.225-0.088,0.465-0.018,0.535,0.161
	c0.063,0.158-0.032,0.348-0.212,0.449l0.562,1.415c0.203-0.049,0.4,0.023,0.462,0.184c0.07,0.176-0.054,0.393-0.279,0.481
	c-0.083,0.034-0.169,0.045-0.247,0.036c-0.043,0.048-0.098,0.089-0.163,0.115C24.49,34.033,24.271,33.958,24.203,33.786z
	 M26.983,34.102l-1.417,0.562c0.05,0.202-0.023,0.4-0.182,0.463c-0.177,0.071-0.394-0.054-0.482-0.28
	c-0.034-0.083-0.044-0.167-0.035-0.246c-0.049-0.042-0.09-0.099-0.116-0.165c-0.08-0.201-0.006-0.419,0.166-0.487
	c0.164-0.065,0.355,0.032,0.443,0.215l1.43-0.567c-0.063-0.194,0.011-0.396,0.174-0.46c0.172-0.067,0.376,0.04,0.456,0.241
	c0.026,0.066,0.034,0.134,0.029,0.198c0.06,0.051,0.11,0.121,0.143,0.204c0.089,0.225,0.018,0.465-0.159,0.535
	C27.274,34.376,27.085,34.282,26.983,34.102z M27.303,37.336c-0.012-0.045-0.015-0.093-0.006-0.145
	c0.03-0.151,0.161-0.253,0.29-0.228c0.124,0.024,0.202,0.157,0.183,0.302l1.079,0.216c0.038-0.14,0.161-0.232,0.284-0.208
	c0.13,0.025,0.211,0.17,0.18,0.322c-0.01,0.05-0.032,0.094-0.059,0.131c0.015,0.054,0.019,0.114,0.006,0.178
	c-0.034,0.17-0.17,0.286-0.305,0.259c-0.12-0.024-0.196-0.154-0.187-0.302L27.7,37.646c-0.05,0.141-0.17,0.231-0.29,0.207
	c-0.135-0.026-0.217-0.185-0.182-0.355C27.24,37.435,27.267,37.379,27.303,37.336z M25.144,41.819
	c-0.179-0.006-0.324-0.13-0.326-0.283c-0.004-0.164,0.147-0.3,0.338-0.303c0.064-0.002,0.123,0.013,0.174,0.035
	c0.06-0.033,0.134-0.053,0.213-0.055c0.214-0.005,0.389,0.128,0.393,0.296c0.003,0.15-0.132,0.277-0.314,0.308l0.03,1.342
	c0.182,0.021,0.324,0.143,0.326,0.293c0.004,0.168-0.166,0.309-0.379,0.314c-0.08,0.001-0.152-0.017-0.214-0.048
	c-0.051,0.026-0.109,0.043-0.173,0.045c-0.19,0.004-0.348-0.125-0.353-0.286c-0.003-0.156,0.136-0.284,0.315-0.3
	C25.174,43.177,25.144,41.819,25.144,41.819z M25.697,46.542c-0.079,0.001-0.153-0.016-0.214-0.047
	c-0.051,0.026-0.11,0.043-0.172,0.045c-0.191,0.005-0.35-0.124-0.352-0.287c-0.004-0.156,0.134-0.283,0.313-0.299l-0.03-1.357
	c-0.179-0.008-0.323-0.13-0.327-0.285c-0.003-0.164,0.148-0.299,0.339-0.303c0.063-0.001,0.122,0.013,0.174,0.038
	c0.06-0.034,0.134-0.055,0.212-0.056c0.213-0.005,0.39,0.127,0.393,0.296c0.004,0.149-0.131,0.276-0.313,0.306l0.03,1.343
	c0.182,0.021,0.323,0.144,0.327,0.294C26.08,46.397,25.911,46.538,25.697,46.542z M30.087,42.284
	c-0.056-0.14,0.026-0.306,0.186-0.396l-0.499-1.248c-0.176,0.044-0.351-0.021-0.407-0.159c-0.026-0.064-0.021-0.134,0.005-0.198
	c-0.246-0.121-0.429-0.336-0.517-0.59c-0.239,0.254-0.597,0.381-0.962,0.304c-0.147-0.032-0.28-0.096-0.394-0.181
	c-0.1,0.02-0.213-0.008-0.31-0.083l-0.967,0.933c0.108,0.147,0.116,0.333,0.006,0.438c-0.121,0.117-0.339,0.088-0.488-0.066
	c-0.054-0.058-0.091-0.123-0.111-0.188c-0.055-0.02-0.105-0.051-0.15-0.097c-0.132-0.138-0.145-0.341-0.027-0.453
	c0.112-0.108,0.301-0.093,0.433,0.027l0.979-0.942c-0.116-0.138-0.124-0.326-0.012-0.435c0.064-0.061,0.152-0.08,0.243-0.063
	c0.004-0.037,0.004-0.072,0.012-0.109c0.12-0.555,0.665-0.906,1.219-0.787c0.365,0.077,0.64,0.342,0.753,0.671
	c0.238-0.252,0.598-0.382,0.962-0.303c0.555,0.119,0.907,0.666,0.789,1.221c-0.057,0.259-0.209,0.472-0.408,0.615
	c-0.015,0.106-0.088,0.21-0.202,0.263l0.502,1.261c0.171-0.056,0.349,0.01,0.406,0.153c0.061,0.151-0.034,0.332-0.211,0.403
	c-0.059,0.022-0.119,0.03-0.176,0.025c-0.045,0.051-0.107,0.097-0.179,0.126C30.36,42.504,30.148,42.441,30.087,42.284z
	 M31.267,44.8c-0.068-0.133-0.001-0.306,0.149-0.411l-0.608-1.197c-0.174,0.061-0.353,0.013-0.42-0.122
	c-0.077-0.15,0.015-0.35,0.205-0.447c0.07-0.036,0.146-0.052,0.213-0.051c0.035-0.046,0.08-0.086,0.136-0.115
	c0.17-0.085,0.368-0.039,0.442,0.106c0.07,0.139,0,0.315-0.153,0.406l0.614,1.21c0.166-0.071,0.349-0.022,0.419,0.116
	c0.074,0.145-0.004,0.333-0.176,0.42c-0.057,0.027-0.115,0.04-0.172,0.04c-0.04,0.058-0.096,0.107-0.167,0.144
	C31.558,44.994,31.343,44.951,31.267,44.8z M33.313,47.208c-0.057,0.027-0.116,0.04-0.174,0.043
	c-0.04,0.055-0.098,0.106-0.166,0.141c-0.19,0.097-0.406,0.054-0.482-0.097c-0.069-0.134-0.001-0.307,0.149-0.412l-0.607-1.196
	c-0.174,0.059-0.354,0.01-0.423-0.124c-0.076-0.149,0.017-0.35,0.208-0.447c0.069-0.035,0.144-0.051,0.212-0.051
	c0.035-0.045,0.08-0.085,0.137-0.114c0.17-0.086,0.367-0.039,0.441,0.106c0.069,0.139,0.001,0.315-0.153,0.406l0.614,1.21
	c0.165-0.07,0.348-0.022,0.419,0.115C33.561,46.933,33.483,47.122,33.313,47.208z M28.471,38.905c0,0.2-0.162,0.362-0.362,0.362
	c-0.2,0-0.362-0.162-0.362-0.362c0-0.2,0.162-0.362,0.362-0.362C28.309,38.543,28.471,38.705,28.471,38.905z M30.202,39.335
	c0,0.2-0.162,0.362-0.362,0.362c-0.2,0-0.362-0.162-0.362-0.362c0-0.2,0.162-0.362,0.362-0.362
	C30.04,38.973,30.202,39.135,30.202,39.335z M51.324,44.104l-0.432-0.509l3.656,6.496l-6.903-2.105v6.606l-7.007-9.217l1.092,5.669
	l-5.565-1.15l0.112-0.547l4.745,0.979l-1.386-7.194l7.449,9.8v-5.7l6.291,1.916l-4.41-7.834l0.456-0.318l1.937,2.286l3.37-3.33
	l-4.983-1.804h3.309l-7.161-4.873l8.184-4.187h-6.407l6.422-5.198l-10.601,2.593v-6.124l-10.41,3.549l5.229-6.272l-3.631-2.098
	l3.471-4.288h-3.596l3.956-5.478L38.964,6.1l-3.315,4.591h3.675l-3.799,4.69l3.64,2.103l-4.378,5.251l9.266-3.158v6.194
	l12.334-3.018l-7.136,5.776H56.4l-9.412,4.815l7.883,5.364h-1.934l2.813,1.019L51.324,44.104z M23.707,52.577l0.426,0.409
	l-4.145,4.332l0.735-4.466l-4.746,4.746l2.62-6.987L9.18,53.92l8.814-9.302c-1.018,0.779-1.922,1.418-2.197,1.464
	c-0.149,0.025-0.29-0.034-0.366-0.156c-0.098-0.156-0.276-0.439,1.761-3.419l-7.286,3.742l8.875-7.771
	c-3.337,1.482-7.224,3.235-7.52,3.445c0.017-0.012,0.042-0.038,0.063-0.075c-0.202,0.191-0.26,0.169-0.354,0.137l-0.198-0.069
	v-0.212c0-0.077,0-0.132,0.12-0.226l-0.002-0.005c0.256-0.234,3.37-4.081,5.656-6.927c-1.646,0.18-5.576,0.612-6.018,0.612
	c-0.149,0-0.273-0.089-0.314-0.224c-0.073-0.237-0.142-0.459,5.065-4.012H6.195l-0.049-0.586l12.376-2.104l-4.883-2.759h8.521
	l-2.068-2.23h4.162l-5.405-6.191l7.897,5.061l6.952-3.805l-3.729-0.445l3.388-4.466h-2.099l0.263-0.445c0,0,1.08-1.835,2.165-3.668
	c0.544-0.917,1.088-1.833,1.497-2.52c0.795-1.338,0.795-1.339,1.023-1.276L36.04,6.054l0.087-0.282l0.236,0.178
	c-0.135,0.193-2.416,4.05-4.073,6.855h2.254l-3.483,4.592l4.541,0.541l-8.882,4.859l-4.704-3.014l3.536,4.049h-4.109l2.068,2.23
	h-7.626l4.373,2.472L9.694,30.331h7.505l-0.796,0.54c-1.99,1.348-4.152,2.868-5.128,3.636c1.456-0.137,4.566-0.48,5.914-0.63
	l0.711-0.08l-0.448,0.56c0,0-1.517,1.89-3.044,3.778c-0.978,1.208-1.655,2.045-2.133,2.622c0.719-0.334,1.782-0.815,3.352-1.52
	c2.343-1.053,4.686-2.087,4.686-2.087l1.767-0.78l-8.172,7.158l5.136-2.64l-0.693,0.982c-0.862,1.223-1.759,2.591-2.164,3.341
	c0.94-0.638,2.962-2.229,4.786-3.738l0.403,0.432L11.288,52.551l8.304-2.918l-2.106,5.617l4.116-4.116l-0.723,4.396L23.707,52.577z"
	/>
</svg>
