<?xml version="1.0" encoding="utf-8"?>
<!-- Generator: Adobe Illustrator 16.0.0, SVG Export Plug-In . SVG Version: 6.00 Build 0)  -->
<!DOCTYPE svg PUBLIC "-//W3C//DTD SVG 1.1//EN" "http://www.w3.org/Graphics/SVG/1.1/DTD/svg11.dtd">
<svg version="1.1" id="Layer_11" xmlns="http://www.w3.org/2000/svg" xmlns:xlink="http://www.w3.org/1999/xlink" x="0px" y="0px"
	 width="100px" height="100px" viewBox="0 0 100 100" enable-background="new 0 0 100 100" xml:space="preserve">
<path d="M32.618,28.232c0-0.294-0.93-2.757-0.92-3.048c0.011-0.341,0.964-0.677,0.989-1.01c0.636-8.39,5.172-14.199,11.355-16.382
	v7.091c0,4.072,2.667,7.373,5.957,7.373s5.957-3.3,5.957-7.373V7.986c7.823,3.168,10.734,12.06,11.571,16.461
	c0.061,0.322,0.731,0.235,0.768,0.508c0.121,0.935-1.404,3.277-1.404,3.277c-3.555,1.751-6.688,3.843-10.361,4.248l-13.518-0.064
	C37.226,31.429,32.618,28.232,32.618,28.232z M56.804,34.904l-0.143,0.016l-14.069-0.101c-4.105-0.701-7.628-2.392-9.633-3.516
	c1.135,8.409,8.322,14.898,17.043,14.898c8.868,0,16.166-6.71,17.106-15.33c-0.458,0.235-0.92,0.469-1.368,0.706
	C62.983,33.033,60.133,34.537,56.804,34.904z M79.346,69.416v17.869h-0.121l-1.15,0.584c-0.582,0.293-9.973,4.914-26.172,4.914
	c-8.295,0-18.373-1.211-29.971-4.834l-1.232-0.385l-0.045-0.279V69.416c0-12.154,9.889-22.043,22.041-22.043h14.607
	C69.459,47.373,79.346,57.262,79.346,69.416z M54.093,83.684l-1.889-26.888c-0.012-0.143-0.129-0.251-0.272-0.251h-3.647
	c-0.143,0-0.26,0.108-0.27,0.251l-1.758,26.89c-0.002,0.059,0.012,0.115,0.042,0.162l3.514,5.542
	c0.049,0.077,0.134,0.124,0.223,0.124c0.002,0,0.005,0,0.007,0c0.089,0,0.171-0.042,0.223-0.12l3.783-5.537
	C54.081,83.806,54.1,83.747,54.093,83.684z M55.018,52.125c0-0.623-0.504-1.125-1.125-1.125H46.35c-0.623,0-1.127,0.502-1.127,1.125
	l3.141,6.492h3.613L55.018,52.125z M50,21.556c-3.013,0-5.464-2.98-5.464-6.643V7.639h10.928v7.275
	C55.464,18.576,53.013,21.556,50,21.556z M45.536,8.639v6.275c0,3.111,2.002,5.643,4.464,5.643s4.464-2.531,4.464-5.643V8.639
	H45.536z"/>
</svg>
