<?xml version="1.0" encoding="utf-8"?>
<!-- Generator: Adobe Illustrator 16.0.0, SVG Export Plug-In . SVG Version: 6.00 Build 0)  -->
<!DOCTYPE svg PUBLIC "-//W3C//DTD SVG 1.1//EN" "http://www.w3.org/Graphics/SVG/1.1/DTD/svg11.dtd">
<svg version="1.1" id="Layer_2" xmlns="http://www.w3.org/2000/svg" xmlns:xlink="http://www.w3.org/1999/xlink" x="0px" y="0px"
	 width="126px" height="126px" viewBox="0 0 126 126" enable-background="new 0 0 126 126" xml:space="preserve">
<g>
	<circle cx="94.339" cy="14.343" r="12.698"/>
	<path d="M121.153,65.563c-2.947-20.103-7.412-28.714-18.37-35.433c-0.212-0.129-0.435-0.223-0.657-0.319
		c-1.415-0.942-3.002-1.636-4.622-2.034l-3.165,3.184l-3.066-3.219c-0.01,0.001-0.022,0.003-0.032,0.007
		c-1.547,0.369-3.064,1.013-4.433,1.886c-0.006,0.001-0.01,0.003-0.014,0.003c-2.061,0.961-20.434,12.671-17.929,22.964
		c1.381,5.683,7.412,7.329,12.477,7.744v6.499c0,1.325,0.258,2.562,0.711,3.698c-0.035,0.258-0.059,0.518-0.059,0.781l0.003,47.206
		c0,3.217,2.609,5.824,5.826,5.824c3.218,0,5.825-2.609,5.825-5.827l-0.001-40.51c0.23,0.012,0.461,0.029,0.692,0.029
		c0.046,0,0.091-0.005,0.136-0.006l-0.002,40.486c0,3.218,2.609,5.827,5.827,5.827c3.218,0,5.826-2.609,5.826-5.827l0.001-46.913
		c0.762-1.414,1.207-3.016,1.207-4.77v-16.98c1.578,3.938,2.924,9.347,4.063,17.13c0.361,2.453,2.465,4.216,4.873,4.216
		c0.238,0,0.478-0.017,0.72-0.054C119.685,70.762,121.549,68.257,121.153,65.563z M81.342,50.421
		c-1.35-0.147-2.188-0.372-2.677-0.548c0.401-0.982,1.401-2.288,2.677-3.667V50.421z M108.684,42.598l-9.413,20.443
		c-0.44,0.959-1.433,1.58-2.529,1.58c-0.434,0-0.854-0.093-1.252-0.276l-8.527-3.927c0.181-0.005,0.356-0.013,0.516-0.021
		c0.764-0.031,1.472-0.251,2.104-0.591c0.024,0.328,0.207,0.635,0.525,0.782l5.449,2.509c0.328,0.15,0.677,0.227,1.026,0.227
		c0.245,0,0.489-0.038,0.727-0.114c0.599-0.192,1.07-0.606,1.327-1.164l8.684-18.86c0.256-0.558,0.265-1.185,0.021-1.767
		c-0.231-0.553-0.667-0.999-1.226-1.256l-12.435-5.727c-1.182-0.539-2.562-0.069-3.078,1.054l-6.324,13.736
		c-0.215,0.469-0.011,1.02,0.456,1.234c0.466,0.216,1.019,0.011,1.233-0.455l6.324-13.738c0.087-0.188,0.368-0.254,0.612-0.141
		l12.434,5.725c0.133,0.062,0.237,0.165,0.289,0.287c0.027,0.067,0.051,0.166,0.005,0.268l-8.684,18.862
		c-0.047,0.101-0.14,0.149-0.209,0.171c-0.126,0.043-0.27,0.03-0.403-0.031l-5.449-2.51c-0.022-0.009-0.046-0.008-0.069-0.017
		c0.899-0.936,1.437-2.218,1.378-3.617c-0.114-2.72-2.435-4.845-5.133-4.718c-1.954,0.083-3.5,0.054-4.725-0.034l7.615-16.538
		c0.443-0.96,1.435-1.58,2.53-1.58c0.433,0,0.854,0.092,1.254,0.276l0.363,0.168l0.21-1.407h0.059l0.247,1.643l12.598,5.801
		C108.662,39.544,109.321,41.211,108.684,42.598z"/>
	<path d="M78.753,64.927l-2.075-1.776c-4.702-1.889-7.333-4.802-8.792-7.522l-8.248-7.059v15.241L41.827,48.569v19.01H29.899
		l-2.421-42.8H8.971l-4.177,81.957h15.481V87.311h10.321v19.426h1.518h47.28L79.39,69.151
		C78.998,67.776,78.792,66.361,78.753,64.927z"/>
	<path d="M18.867,18.835c0.642-0.28,1.325-0.578,2.032-0.85c0.705-0.267,1.432-0.523,2.123-0.668
		c0.674-0.166,1.328-0.181,1.623-0.08c0.295,0.137,0.205,0.12,0.417,0.412c0.024,0.032,0.048,0.075,0.073,0.122l0.188,0.32
		l0.147,0.231l0.188,0.275c0.122,0.159,0.233,0.313,0.37,0.464c0.534,0.6,1.245,1.146,2.042,1.5
		c0.796,0.357,1.642,0.483,2.386,0.486c0.751,0.011,1.415-0.142,2.007-0.309c1.178-0.362,2.09-0.9,2.863-1.463
		c0.772-0.561,1.402-1.16,1.935-1.743c1.06-1.171,1.743-2.273,2.144-3.106c0.42-0.812,0.566-1.342,0.566-1.342
		s-0.525,0.155-1.354,0.461c-0.42,0.146-0.922,0.322-1.474,0.531c-0.54,0.2-1.148,0.427-1.812,0.674
		c-0.647,0.233-1.333,0.471-2.018,0.673c-0.684,0.198-1.378,0.354-1.952,0.392c-0.586,0.037-0.941-0.075-1.029-0.169
		c-0.061-0.041-0.117-0.087-0.212-0.204c-0.026-0.021-0.053-0.063-0.083-0.089l-0.016-0.02c-0.006-0.004-0.009,0.003-0.051-0.066
		l-0.186-0.293c-0.096-0.159-0.201-0.318-0.32-0.478c-0.448-0.64-1.115-1.245-1.895-1.685c-0.785-0.44-1.668-0.665-2.457-0.689
		c-1.593-0.062-2.783,0.42-3.773,0.896c-0.979,0.515-1.78,1.096-2.471,1.694c-0.69,0.6-1.277,1.204-1.775,1.793
		c-0.501,0.586-0.918,1.149-1.263,1.667c-0.352,0.51-0.61,0.995-0.832,1.379c-0.425,0.788-0.603,1.28-0.603,1.28
		s0.483-0.2,1.281-0.557C16.444,19.931,17.545,19.433,18.867,18.835z"/>
</g>
</svg>
