<?xml version="1.0" encoding="iso-8859-1"?>
<!-- Generator: Adobe Illustrator 17.1.0, SVG Export Plug-In . SVG Version: 6.00 Build 0)  -->
<!DOCTYPE svg PUBLIC "-//W3C//DTD SVG 1.1//EN" "http://www.w3.org/Graphics/SVG/1.1/DTD/svg11.dtd">
<svg version="1.1" id="Layer_1" xmlns="http://www.w3.org/2000/svg" xmlns:xlink="http://www.w3.org/1999/xlink" x="0px" y="0px"
	 viewBox="0 0 128 128" style="enable-background:new 0 0 128 128;" xml:space="preserve">
<g>
	<circle cx="106.923" cy="35.672" r="4.811"/>
	<path d="M109.865,50.54l1.613,3.298c0.169,0.363,0.43,0.675,0.757,0.905l4.042,2.854l3.243,2.324
		c0.379,0.272,0.814,0.41,1.247,0.425c0.736,0.025,1.47-0.306,1.93-0.949c0.733-1.022,0.498-2.445-0.524-3.178l-1.128-0.808
		c-0.095-0.1-0.199-0.193-0.316-0.275l-5.358-3.785l-3.683-7.502c-0.374-0.804-1.157-1.277-1.987-1.311
		c-0.018-0.003-0.039-0.012-0.054-0.012h-7.053c-0.56,0-0.993,0.457-0.962,1.016l-0.231,4.479c-0.394-1.787-1.984-3.125-3.889-3.125
		c-1.664,0-3.088,1.021-3.685,2.469l-0.387-5.438c-0.055-0.766-0.725-1.338-1.485-1.288c-0.766,0.055-1.342,0.719-1.288,1.485
		l0.648,9.11c0.035,0.684,0.592,5.712,9.086,6.443l-7.066,13.457c-0.26,0.495-0.015,0.901,0.545,0.901h4.579v4.225l-8.221,11.465
		c-0.737,1.028-0.501,2.458,0.527,3.195c0.404,0.29,0.87,0.429,1.332,0.429c0.713,0,1.416-0.332,1.863-0.955l8.65-12.063
		c0.279-0.389,0.429-0.855,0.429-1.334v-4.961h1.12l5.776,17.733c0.315,0.967,1.212,1.581,2.177,1.581
		c0.235,0,0.474-0.036,0.71-0.113c1.202-0.391,1.86-1.683,1.468-2.886l-5.314-16.315h3.561c0.56,0,0.845-0.424,0.633-0.942
		l-5.612-13.763c-0.211-0.518-0.193-1.358,0.041-1.867L109.865,50.54z"/>
	<circle cx="97.025" cy="41.747" r="2.641"/>
	<circle cx="39.219" cy="28.753" r="4.913"/>
	<path d="M10.937,56.439c0.444,0.894,0.922,2.068,1.212,2.104c0.268,0.034-0.591-2.023,0.032-2.653
		c0.106-0.105,0.35-0.158,0.499-0.146c0.115,0.01,0.262,0.033,0.427,0.09c0.143,0.048,0.215,0.221,0.185,0.367
		c-0.044,0.216-0.068,0.441-0.068,0.671c0,1.835,1.488,3.324,3.324,3.324s3.324-1.488,3.324-3.324c0-0.253-0.028-0.499-0.082-0.736
		c-0.032-0.145,0.042-0.31,0.187-0.346c0.107-0.026,0.202-0.041,0.282-0.047c0.15-0.012,0.394,0.04,0.499,0.146
		c0.623,0.629-0.234,2.687,0.032,2.653c0.293-0.036,0.77-1.21,1.214-2.104c0.444-0.894,0.272-2.48-0.992-2.605
		c-0.657-0.065-1.339,0.258-1.842,0.582c-0.126,0.082-0.309,0.065-0.42-0.035c-0.587-0.518-1.356-0.834-2.202-0.834
		c-0.879,0-1.677,0.341-2.271,0.896c-0.109,0.102-0.288,0.12-0.412,0.036c-0.51-0.344-1.239-0.715-1.939-0.646
		C10.666,53.96,10.493,55.545,10.937,56.439z"/>
	<path d="M87.908,66.964c0-3.811-0.913-9.844-7.595-11.088c-1.325-0.305-2.449-0.256-2.964-0.212
		c-0.145,0.013-0.262,0.146-0.262,0.292v4.342c0,0.146-0.113,0.233-0.256,0.2c-0.285-0.064-0.544-0.099-0.841-0.099
		c-2.102,0-3.804,1.684-3.804,3.786c0,0.576,0.131,1.123,0.36,1.599c0.063,0.131,0.006,0.233-0.14,0.233H55.725
		c-0.146,0-0.31-0.109-0.367-0.243l-1.787-4.779c0.52-0.469,0.852-1.14,0.852-1.895c0-0.008-1.841-17.55-1.864-17.758
		c-0.403-3.547-2.695-6.198-6.064-6.198c-0.086,0-4.614,0-6.737,0c0,0-7.73,0-7.815,0c-3.369,0-6.064,2.695-6.064,6.198
		c0,0.193-1.786,12.912-2.063,14.886l-3.197,5.311c-0.078,0.127-0.263,0.23-0.413,0.23h-7.362c-0.15,0-0.339-0.102-0.42-0.227
		l-2.442-3.728c-0.083-0.125-0.201-0.337-0.281-0.463c-0.182-0.286-0.432-0.534-0.742-0.72c-1.073-0.642-2.912-0.294-3.555,0.779
		c-0.477,0.797-0.364,1.768,0.164,2.517l4.711,7.678c0.078,0.127,0.121,0.35,0.095,0.498l-2.228,10.74
		c-0.025,0.146,0.074,0.266,0.224,0.266l1.377,0c0.004,3.778,0.012,8.872,0.022,8.964c0.167,1.5,1.526,2.886,3.179,2.886
		c1.751,0,3.023-1.459,3.048-3.056l0.003-8.093c0-0.147,0.119-0.266,0.266-0.266h0.399c0.147,0,0.266,0.119,0.266,0.266l0.001,8.051
		c0.026,1.598,1.604,3.098,3.354,3.098c1.751,0,3.142-1.51,3.167-3.107v-8.744l1.435,0c0.15,0,0.247-0.119,0.217-0.265
		l-2.224-10.959c-0.03-0.147,0.007-0.371,0.084-0.499c0,0,5.466-9.508,5.51-9.652l-0.004-0.001c0.206-0.367,0.351-0.791,0.426-1.244
		c0.001,0,2.102-12.989,2.102-12.989c0-0.147,0.119-0.266,0.266-0.266h0.542c0.147,0,0.266,0.119,0.266,0.266c0,0,0,43.855,0,43.86
		c0,1.823,1.478,3.301,3.301,3.301c1.823,0,3.301-1.478,3.301-3.301c0-0.005,0-25.807,0-25.807c0-0.188,0.087-0.267,0.273-0.267
		h0.532c0.186,0,0.273,0.079,0.273,0.267c0,0,0,25.802,0,25.807c0,1.823,1.478,3.301,3.301,3.301s3.301-1.478,3.301-3.301
		c0-1.239,0-0.599,0-43.86c0-0.147,0.119-0.266,0.266-0.266h0.542c0.147,0,0.266,0.119,0.266,0.266c0,0,1.866,15.603,1.868,15.604
		c0.001,1.325,1.012,2.402,2.303,2.532c1.018,2.679,2.17,5.692,2.17,5.692c0.067,0.13,0.095,0.352,0.089,0.497
		c-0.032,0.897,0.519,2.328,0.749,2.885c1.009,2.951,3.135,6.492,7.11,8.708c-0.002,0.008-0.002,0.016-0.005,0.024l-0.462,1.073
		c-0.024,0.056-0.07,0.106-0.123,0.148c-2.072,0.025-3.744,1.711-3.744,3.789c0,2.094,1.697,3.791,3.791,3.791
		s3.791-1.697,3.791-3.791c0-0.87-0.296-1.668-0.788-2.308c0.005-0.034,0-0.073,0.013-0.102l0.544-1.266
		c0.01-0.023,0.026-0.042,0.042-0.061c1.727,0.532,3.703,0.846,5.972,0.846c2.837,0,5.229-0.449,7.248-1.192l0.688,1.6
		c0.049,0.115,0.034,0.276-0.014,0.402c-0.393,0.598-0.624,1.312-0.624,2.081c0,2.094,1.697,3.791,3.791,3.791
		c2.094,0,3.791-1.697,3.791-3.791c0-1.608-1.003-2.979-2.416-3.53c-0.445-0.201-0.937-0.316-1.457-0.316
		c-0.009,0-0.02,0-0.029,0.001c-0.016,0-0.076-0.108-0.133-0.242l-0.622-1.45C86.297,75.559,87.908,69.862,87.908,66.964z"/>
</g>
</svg>
