<?xml version="1.0" encoding="iso-8859-1"?>
<!-- Generator: Adobe Illustrator 17.1.0, SVG Export Plug-In . SVG Version: 6.00 Build 0)  -->
<!DOCTYPE svg PUBLIC "-//W3C//DTD SVG 1.1//EN" "http://www.w3.org/Graphics/SVG/1.1/DTD/svg11.dtd">
<svg version="1.1" id="Layer_1" xmlns="http://www.w3.org/2000/svg" xmlns:xlink="http://www.w3.org/1999/xlink" x="0px" y="0px"
	 viewBox="0 0 128 128" style="enable-background:new 0 0 128 128;" xml:space="preserve">
<g>
	<path d="M64.193,8.154c-0.287-0.199-0.751-0.218-1.037-0.018l-14.114,9.949c-0.286,0.201-0.438,0.07-0.438-0.279v-6.891
		c0-0.349-0.443-0.534-0.793-0.534h-9.169c-0.349,0-0.491,0.185-0.491,0.534v14.212c0,0.349-0.302,0.795-0.589,0.995L2.942,50.471
		c-0.286,0.201-0.27,0.445,0.079,0.445h15.387c0.349,0,0.624,0.119,0.624,0.468v67.977c0,0.349,0.292,0.644,0.641,0.644h87.896
		c0.349,0,0.692-0.294,0.692-0.644V51.384c0-0.349,0.223-0.468,0.573-0.468h16.125c0.35,0,0.4-0.244,0.113-0.443L64.193,8.154z
		 M87.857,47.718c2.641,0,4.782,2.141,4.782,4.782c0,2.641-2.141,4.782-4.782,4.782s-4.782-2.141-4.782-4.782
		C83.075,49.859,85.216,47.718,87.857,47.718z M65.26,75.991c1.919,0,3.475,1.556,3.475,3.475c0,1.919-1.556,3.475-3.475,3.475
		c-1.919,0-3.475-1.556-3.475-3.475C61.785,77.547,63.341,75.991,65.26,75.991z M42.119,47.709c2.641,0,4.782,2.141,4.782,4.782
		c0,2.641-2.141,4.782-4.782,4.782s-4.782-2.141-4.782-4.782C37.336,49.851,39.478,47.709,42.119,47.709z M98.352,84.563
		c-1.376,0-2.491-1.115-2.492-2.49c-0.001-0.001-0.003-15.218-0.003-15.218c0-0.143-0.116-0.259-0.259-0.259h-0.528
		c-0.143,0-0.259,0.116-0.259,0.259c0,0,0,42.693,0,42.697c0,1.775-1.439,3.214-3.214,3.214c-1.775,0-3.214-1.439-3.214-3.214
		c0-0.005,0-25.123,0-25.123c0-0.183-0.085-0.26-0.266-0.26h-0.518c-0.181,0-0.266,0.076-0.266,0.26c0,0,0,25.118,0,25.123
		c0,1.775-1.439,3.214-3.214,3.214s-3.214-1.439-3.214-3.214c0-0.005,0-42.697,0-42.697c0-0.143-0.116-0.259-0.259-0.259h-0.528
		c-0.143,0-0.259,0.116-0.259,0.259c0,0-2.042,12.354-2.045,12.367c-0.074,0.28-0.17,0.461-0.285,0.667
		c-0.546,0.975-5.658,10.955-5.658,10.955c-0.07,0.125-0.126,0.486-0.126,0.486s-0.01,18.485-0.025,18.628
		c-0.163,1.46-1.485,2.809-3.095,2.809c-1.704,0-2.942-1.42-2.967-2.975l-0.003-7.878c0-0.143-0.116-0.259-0.259-0.259h-0.389
		c-0.143,0-0.259,0.116-0.259,0.259l-0.001,7.837c-0.025,1.555-1.561,3.016-3.265,3.016s-3.058-1.469-3.083-3.024V91.025
		c0-0.143-0.058-0.36-0.13-0.484l-5.633-10.575c-0.19-0.353-0.273-0.541-0.4-1.031c-0.01-0.027-3.754-12.222-3.754-12.222
		c-0.022-0.051-0.133-0.265-0.393-0.265c-0.024,0-0.525,0-0.525,0h-0.001c-0.148-0.002-0.235,0.124-0.196,0.266l7.455,24.397
		c0.04,0.142,0,0.391-0.26,0.391h-5.23c-0.148,0-0.256,0.12-0.256,0.268c0,0,0.001,17.774,0.001,17.781
		c0,1.775-1.439,3.214-3.214,3.214s-3.214-1.439-3.214-3.214l-0.001-17.781c0-0.148-0.12-0.268-0.268-0.268h-0.004h-0.514h-0.004
		c-0.148,0-0.268,0.12-0.268,0.268l-0.001,17.781c0,1.775-1.439,3.214-3.214,3.214s-3.214-1.439-3.214-3.214
		c0-0.006,0.001-17.781,0.001-17.781c0-0.148-0.108-0.268-0.256-0.268h-5.23c-0.26,0-0.3-0.249-0.26-0.391l7.455-24.397
		c0.039-0.142-0.047-0.269-0.196-0.266h-0.001c0,0-0.501,0-0.525,0c-0.26,0-0.372,0.213-0.393,0.265c0,0-3.724,12.142-3.725,12.142
		c-0.404,1.315-1.798,2.054-3.113,1.651c-1.316-0.404-2.056-1.798-1.652-3.113C27.268,77.388,30.988,65.24,31,65.198
		c0.57-1.979,1.956-6.485,5.873-6.485h10.506c4.203,0,5.29,4.506,5.859,6.485c0,0,3.773,12.337,3.788,12.409
		c0.618,1.083,3.24,6.504,3.24,6.504c0.071,0.124,0.245,0.225,0.388,0.225h8.731c0.306,0,0.47-0.098,0.615-0.348l3.046-6.318
		c0.439-3.061,1.826-12.742,1.826-12.914c0-3.411,2.623-6.034,5.903-6.034c0.083,0,7.608,0,7.608,0c2.067,0,6.475,0,6.559,0
		c3.279,0,5.903,2.623,5.904,6.034c0.001,0.204,0.001,17.307,0.001,17.315C100.844,83.447,99.728,84.563,98.352,84.563z"/>
</g>
</svg>
