<?xml version="1.0" encoding="iso-8859-1"?>
<!-- Generator: Adobe Illustrator 17.1.0, SVG Export Plug-In . SVG Version: 6.00 Build 0)  -->
<!DOCTYPE svg PUBLIC "-//W3C//DTD SVG 1.1//EN" "http://www.w3.org/Graphics/SVG/1.1/DTD/svg11.dtd">
<svg version="1.1" id="Layer_1" xmlns="http://www.w3.org/2000/svg" xmlns:xlink="http://www.w3.org/1999/xlink" x="0px" y="0px"
	 viewBox="0 0 128 128" style="enable-background:new 0 0 128 128;" xml:space="preserve">
<g>
	<circle cx="28.206" cy="46.799" r="5.663"/>
	<circle cx="95.604" cy="46.019" r="5.663"/>
	<path d="M73.958,87.644h2c1.105,0,2-0.896,2-2V71.91h8.444c1.198,0,2.029-1.064,2.029-2.355v-1.559
		c0-1.291-0.831-2.182-2.029-2.182h-7.203c-0.697-4.277-4.398-7.545-8.872-7.545s-8.175,3.268-8.872,7.545h-1.151
		c-0.235-3.653-3.265-6.545-6.977-6.545s-6.742,2.892-6.977,6.545h-8.746c-1.198,0-2.231,0.891-2.231,2.182v1.559
		c0,1.292,1.033,2.355,2.231,2.355h7.473v13.733c0,1.104,0.895,2,2,2h2c1.105,0,2-0.896,2-2v-7.375h20.881v7.375
		C71.958,86.748,72.854,87.644,73.958,87.644z M51.077,76.269V71.91h20.881v4.358H51.077z"/>
	<path d="M25.516,76.563c0-1.104-0.896-2-2-2h-8.874l-1.925-14.451c-0.146-1.095-1.153-1.858-2.246-1.719
		c-1.096,0.146-1.864,1.151-1.719,2.246l2.156,16.188c0.132,0.994,0.979,1.736,1.982,1.736h10.625
		C24.621,78.563,25.516,77.668,25.516,76.563z"/>
	<path d="M104.484,78.563h10.625c1.003,0,1.851-0.742,1.982-1.736l2.156-16.188c0.146-1.095-0.623-2.101-1.719-2.246
		c-1.073-0.141-2.1,0.622-2.246,1.719l-1.925,14.451h-8.874c-1.104,0-2,0.896-2,2S103.379,78.563,104.484,78.563z"/>
	<path d="M29.829,84.626c0,1.381,1.119,2.5,2.5,2.5s2.5-1.119,2.5-2.5v-8.875c0-0.819-0.402-1.588-1.075-2.055l-2.621-1.818
		c0.042-0.162,0.072-0.328,0.072-0.503v-9.102l1.192,1.438c0.475,0.578,1.184,0.914,1.933,0.914h5.562c1.381,0,2.5-1.119,2.5-2.5
		s-1.119-2.5-2.5-2.5h-4.38l-4.122-4.96c-0.526-0.642-1.305-0.947-2.075-0.904c-0.037-0.002-0.073-0.011-0.111-0.011h-7.188
		c-1.104,0-2,0.895-2,2l-1.625,15.625c0,1.104,0.896,2,2,2h4.124l5.313,3.684V84.626z"/>
	<path d="M92.849,75.743v8.875c0,1.381,1.119,2.5,2.5,2.5s2.5-1.119,2.5-2.5v-7.566l4.837-3.684h6.497
		c1.691,0,2.185-1.534,1.768-2.562l-6.201-15.062c-0.437-1.238-1.193-2-2-2h-7.609c-0.489,0-0.931,0.182-1.279,0.474
		c-0.175,0.125-0.342,0.266-0.485,0.441l-4.122,4.96h-4.38c-1.381,0-2.5,1.119-2.5,2.5s1.119,2.5,2.5,2.5h5.562
		c0.749,0,1.458-0.336,1.933-0.914l0.842-1.016l-3.956,8.329c-0.976,1.421-0.101,2.35,0.836,2.35h4.257l-0.425,0.32
		C93.252,74.155,92.849,74.924,92.849,75.743z"/>
	<circle cx="53.327" cy="54.269" r="4"/>
	<circle cx="69.99" cy="50.932" r="5.663"/>
</g>
</svg>
