<?xml version="1.0" encoding="utf-8"?>
<!-- Generator: Adobe Illustrator 16.0.0, SVG Export Plug-In . SVG Version: 6.00 Build 0)  -->
<!DOCTYPE svg PUBLIC "-//W3C//DTD SVG 1.1//EN" "http://www.w3.org/Graphics/SVG/1.1/DTD/svg11.dtd">
<svg version="1.1" id="Layer_3" xmlns="http://www.w3.org/2000/svg" xmlns:xlink="http://www.w3.org/1999/xlink" x="0px" y="0px"
	 width="126px" height="126px" viewBox="0 0 126 126" enable-background="new 0 0 126 126" xml:space="preserve">
<g>
	<circle cx="44.514" cy="13.779" r="12.681"/>
	<circle cx="77.334" cy="13.779" r="12.681"/>
	<path d="M88.437,97.813c-0.131,0.01-0.261,0.016-0.395,0.016c-2.709,0-4.914-2.205-4.914-4.916
		c0-15.354,9.633-21.744,10.043-22.009c0.092-0.059,0.183-0.109,0.274-0.156c0.003-0.002,0.008-0.005,0.012-0.008
		c-0.012-0.059-0.024-0.116-0.038-0.175c-2.112-1.794-3.462-4.461-3.462-7.443c0-1.435,0.319-2.793,0.877-4.021
		c-0.206-0.869-0.383-1.612-0.521-2.181v-9.483c1.098,2.285,1.951,5.152,2.451,8.845c1.772-1.805,4.238-2.928,6.962-2.928
		c0.895,0,1.759,0.131,2.583,0.357c-2.305-14.18-9.315-19.767-16.484-24.163c-0.251-0.154-0.515-0.272-0.779-0.376
		c-1.415-0.935-3-1.618-4.617-2.005c-0.01-0.002-0.021-0.003-0.031-0.005l-3.063,3.215l-3.159-3.181
		c-1.757,0.432-3.474,1.216-4.974,2.286c-0.044,0.025-0.091,0.038-0.134,0.065c-2.811,1.723-5.596,3.629-8.081,6.161
		c-2.477-2.639-5.335-4.704-8.291-6.518c-0.434-0.268-0.896-0.435-1.367-0.553c-1.153-0.646-2.396-1.133-3.655-1.442l-3.159,3.181
		l-3.063-3.215c-0.01,0.002-0.021,0.003-0.031,0.005c-1.616,0.387-3.2,1.07-4.615,2.004c-0.267,0.104-0.53,0.222-0.781,0.377
		c-7.516,4.61-14.378,10.95-15.62,24.908c1.338-0.701,2.854-1.103,4.466-1.103c1.974,0,3.809,0.597,5.339,1.617
		c0.235-2.457,0.688-4.541,1.327-6.33v7.398c1.84,1.76,2.993,4.232,2.993,6.973c0,2.46-0.936,4.698-2.456,6.405
		c0.056,0.165,0.106,0.332,0.171,0.492c-0.034,0.256-0.058,0.514-0.058,0.778v0.563c0.046,0.037,0.096,0.074,0.141,0.112
		c1.78,1.32,9.426,7.782,9.426,21.372c0,2.688-2.187,4.876-4.876,4.876c-1.028,0-1.98-0.319-2.77-0.864
		c-0.034,0.086-0.071,0.173-0.109,0.259l-0.002,23.623c0,0.437-0.055,0.859-0.148,1.267c1.058,1.081,2.529,1.755,4.16,1.755
		c3.214-0.001,5.819-2.605,5.819-5.819L43.821,77.37c0.23,0.012,0.459,0.029,0.692,0.029c0.045,0,0.091-0.005,0.136-0.006
		l-0.002,40.436c0,3.214,2.605,5.819,5.819,5.819c3.213,0,5.818-2.605,5.818-5.818l0.002-46.854
		c0.074-0.141,0.146-0.282,0.215-0.426c0.072,0.003,0.144,0.021,0.216,0.021c0.023,0,0.048,0,0.07-0.001
		c1.458-0.02,2.754-0.675,3.643-1.694c0.314,0.281,0.668,0.521,1.05,0.716c-2.038,9.217-4.309,20.001-4.319,22.362
		c-0.01,1.935,3.48,3.593,8.401,4.637v21.239c0,3.214,2.605,5.818,5.818,5.818c3.214,0,5.819-2.605,5.819-5.819V97.767
		c0.273,0.001,0.551,0.001,0.824-0.001l-0.002,20.063c0,3.214,2.605,5.818,5.819,5.819c3.214,0,5.817-2.604,5.817-5.818l0.002-9.697
		h-3.052L88.437,97.813z"/>
	<circle cx="25.463" cy="62.863" r="7.421"/>
	<path d="M37.471,95.224c1.458,0,2.638-1.181,2.638-2.639c0-12.718-7.073-18.525-8.595-19.628c-0.513-0.459-1.178-0.916-2.063-1.398
		c-0.676-0.378-1.401-0.662-2.139-0.844l-1.849,1.861l-1.794-1.883c-0.005,0.002-0.012,0.004-0.017,0.006
		c-1.154,0.275-2.27,0.82-3.216,1.564c-0.08,0.04-0.161,0.072-0.237,0.12c-0.363,0.234-8.887,5.891-8.887,19.834
		c0,1.457,1.18,2.639,2.639,2.639c1.456,0,2.638-1.182,2.638-2.639c0-3.169,0.529-5.764,1.277-7.879v9.209
		c0,0.774,0.149,1.499,0.415,2.163c-0.021,0.149-0.035,0.302-0.035,0.456l0.003,24.313c0,1.88,1.524,3.405,3.404,3.404
		c1.881,0,3.404-1.524,3.404-3.404v-20.4c0.134,0.007,0.269,0.017,0.405,0.017c0.025,0,0.053-0.002,0.079-0.003v20.387
		c0,1.88,1.523,3.404,3.404,3.404s3.405-1.524,3.405-3.404l0.002-24.144c0.445-0.826,0.706-1.762,0.706-2.788V83.444
		c1.004,2.309,1.772,5.309,1.772,9.141C34.832,94.043,36.012,95.224,37.471,95.224z"/>
	<circle cx="99.824" cy="62.973" r="7.532"/>
	<path d="M105.963,73.218c-0.519-0.466-1.193-0.93-2.092-1.42c-0.686-0.383-1.424-0.672-2.172-0.855l-1.876,1.889l-1.819-1.91
		c-0.006,0.002-0.013,0.004-0.02,0.004c-1.17,0.28-2.301,0.834-3.262,1.59c-0.082,0.04-0.163,0.071-0.24,0.121
		c-0.369,0.237-9.02,5.979-9.02,20.128c0,1.479,1.198,2.678,2.677,2.678c1.479,0,2.679-1.198,2.679-2.678
		c0-3.215,0.536-5.849,1.295-7.995v5.497l-2.737,15.481H92.5l0.004,15.698c0,1.909,1.545,3.457,3.454,3.456
		c1.909,0,3.454-1.547,3.454-3.456v-15.698h0.491l-0.001,15.698c0,1.909,1.547,3.456,3.456,3.456s3.456-1.547,3.456-3.456v-15.698
		h3.436l-2.717-15.351V83.86c1.018,2.344,1.799,5.388,1.799,9.277c0,1.479,1.197,2.678,2.679,2.678c1.479,0,2.677-1.199,2.677-2.678
		C114.688,80.23,107.509,74.336,105.963,73.218z"/>
</g>
</svg>
