<?xml version="1.0" encoding="iso-8859-1"?>
<!-- Generator: Adobe Illustrator 17.1.0, SVG Export Plug-In . SVG Version: 6.00 Build 0)  -->
<!DOCTYPE svg PUBLIC "-//W3C//DTD SVG 1.1//EN" "http://www.w3.org/Graphics/SVG/1.1/DTD/svg11.dtd">
<svg version="1.1" id="Layer_1" xmlns="http://www.w3.org/2000/svg" xmlns:xlink="http://www.w3.org/1999/xlink" x="0px" y="0px"
	 viewBox="0 0 128 128" style="enable-background:new 0 0 128 128;" xml:space="preserve">
<g>
	<circle cx="60.134" cy="35.276" r="7.158"/>
	<circle cx="60.362" cy="12.72" r="6.321"/>
	<path d="M39.789,121.522c1.594,0,3.16-1.362,3.16-2.989c0-0.02,0-17.47,0-17.47c0.009-0.267,0.231-0.526,0.48-0.622
		c2.152-0.826,2.194-3.715,2.121-4.869c-0.017-0.267-0.231-0.37-0.46-0.231l-2.697,1.634c-0.229,0.138-0.631,0.251-0.899,0.251
		c-2.785,0-16.663,0-17.424,0c-0.552,0-0.646-0.738-0.645-1.251c0.001-0.268,0.028-0.7,0.028-0.967v-9.677
		c0-0.268-0.062-0.224-0.303-0.109c-2.826,1.34-12.676,6.742-15.393,8.238c-2.207,1.284-1.691,4.736,2.273,4.736h5.574
		c0.268,0,0.662,0.134,0.739,0.39c0,0-0.196,19.994-0.196,20.081c0,1.611,1.267,2.916,2.83,2.916s2.813-1.305,2.813-2.916
		c0-0.102-0.032-8.73-0.032-8.73c0-0.268,0.217-0.615,0.484-0.618h9.141c0.267-0.004,0.362,0.172,0.221,0.4
		c-0.895,1.446-3.227,5.585-4.298,7.237c-0.821,1.083-0.737,2.63,0.249,3.616c1.078,1.078,2.874,1.119,3.908-0.004
		c0.062-0.068,3.158-4.806,4.809-8.214c0.116-0.241,0.209-0.22,0.209,0.048c0.002,2.272,0.022,4.816,0.091,6.154
		c0,0.007-0.001,0.014-0.001,0.021C36.574,120.203,38.196,121.522,39.789,121.522z"/>
	<path d="M66.303,121.768c2.403,0,4.44-2.211,4.459-4.39l-0.004-66.284l7.767-6.422c0.535-0.442,0.955-1.008,1.223-1.648
		l6.354-15.172c0.915-2.185-0.115-4.698-2.3-5.613c-1.723-0.723-3.639-0.222-4.825,1.089c-0.318,0.351-0.595,0.748-0.788,1.21
		l-0.795,1.898L68.33,21.32c-0.429-0.242-0.912-0.369-1.404-0.369c-0.001,0-0.001,0-0.001,0H53.342
		c-0.509,0-1.008,0.136-1.447,0.393l-8.955,5.253l-0.862-2.059c-0.09-0.216-0.208-0.411-0.327-0.603
		c-1.092-1.757-3.316-2.522-5.286-1.696c-2.185,0.915-3.215,3.428-2.3,5.613l6.354,15.172c0.268,0.64,0.688,1.206,1.223,1.648
		l8.894,7.355c0.014,0.069,0.023,65.299,0.023,65.299c0.011,2.179,1.959,4.443,4.362,4.443c2.225,0,4.052-1.91,4.324-3.923
		c0.036-0.265,0.031-35.632,0.031-35.632c0-0.268,0.217-0.484,0.484-0.484h1.695c0.268,0,0.484,0.217,0.484,0.484l-0.004,35.183
		C62.055,119.576,63.9,121.768,66.303,121.768z M54.377,43.987l-6.353-5.254l-2.854-6.814l8.949-5.25h12.055l8.996,5.077
		l-2.926,6.987l-6.353,5.254H54.377z"/>
	<circle cx="87.844" cy="48.332" r="4.514"/>
	<path d="M120.286,68.834l-0.761-3.673l-1.769-8.537c0,0-0.828-3.911-4.342-3.911c-4.25,0-6.433,0-7.11,0
		c-0.677,0-1.518-2.109-2.08-2.109s-5.716,0-7.814,0c-2.098,0-2.761,0.587-2.761,0.587l-0.327,0.265l-5.904,4.782
		c0,0-0.23,0.206-0.467,0.619c-0.254,0.441-0.516,1.119-0.516,2.056c0,1.812,0,3.792,0,5.628c0,7.44,6.026,8.394,6.026,8.394
		s0.323,0,0.881,0c0.012,0.054,0.014,0.111-0.001,0.169L89.088,89.57c-0.054,0.209,0.077,0.379,0.293,0.379h5.24
		c0.216,0,0.391,0.175,0.391,0.391v26.985c0,0.216-0.002,0.403-0.003,0.418c-0.001,0.009-0.001,0.019-0.001,0.028
		c0,2.13,1.727,3.853,3.857,3.853c2.13,0,3.773-1.729,3.773-3.859c0-0.275,0-0.545,0-0.804V90.116c0-0.216,0.175-0.384,0.391-0.376
		l1.369,0.054c0.216,0.008,0.391,0.19,0.391,0.407v27.124c0,0.216,0.001,0.403,0.003,0.419c0.002,0.015,0.004,0.059,0.005,0.098
		c0.001,0.03,0.001,0.06,0.001,0.07c0,2.13,1.601,3.713,3.731,3.713c2.13,0,3.914-1.729,3.914-3.859
		c0-0.275-0.028-0.545-0.028-0.804v-26.59c0-0.216,0.175-0.397,0.391-0.405l3.993-0.142c0.216-0.008,0.36-0.186,0.322-0.399
		l-2.954-16.489c0.395,0,0.751,0,1.059,0C121.333,72.936,120.286,68.834,120.286,68.834z"/>
	<circle cx="104.142" cy="41.174" r="7.158"/>
</g>
</svg>
