<?xml version="1.0" encoding="iso-8859-1"?>
<!-- Generator: Adobe Illustrator 17.1.0, SVG Export Plug-In . SVG Version: 6.00 Build 0)  -->
<!DOCTYPE svg PUBLIC "-//W3C//DTD SVG 1.1//EN" "http://www.w3.org/Graphics/SVG/1.1/DTD/svg11.dtd">
<svg version="1.1" id="Layer_1" xmlns="http://www.w3.org/2000/svg" xmlns:xlink="http://www.w3.org/1999/xlink" x="0px" y="0px"
	 viewBox="0 0 128 128" style="enable-background:new 0 0 128 128;" xml:space="preserve">
<g>
	<path d="M125.933,52.948l-61.398-32.58c-0.238-0.125-0.626-0.156-0.864-0.03l-14.645,7.716c-0.238,0.125-0.476,0.009-0.476-0.26
		v-5.227c0-0.271-0.128-0.368-0.398-0.368h-8.799c-0.271,0-0.58,0.099-0.58,0.368v10.395c0,0.271-0.147,0.591-0.388,0.717
		L2.058,52.951c-0.238,0.125-0.191,0.288,0.08,0.288H18.09c0.271,0,0.398,0.1,0.398,0.368v53.527c0,0.271,0.31,0.608,0.58,0.608
		h90.189c0.271,0,0.398-0.338,0.398-0.608V53.607c0-0.271,0.31-0.368,0.58-0.368h15.643
		C126.145,53.239,126.171,53.076,125.933,52.948z M38.19,52.352c1.99,0,3.604,1.614,3.604,3.604S40.18,59.56,38.19,59.56
		c-1.99,0-3.604-1.614-3.604-3.604S36.2,52.352,38.19,52.352z M47.976,78.24c0,1.037-0.841,1.878-1.878,1.878
		c-1.037,0-1.877-0.84-1.878-1.877c-0.001,0-0.002-11.468-0.002-11.468c0-0.108-0.087-0.195-0.195-0.195h-0.398
		c-0.108,0-0.195,0.087-0.195,0.195c0,0,0,32.172,0,32.176c0,1.338-1.084,2.422-2.422,2.422s-2.422-1.084-2.422-2.422
		c0-0.004,0-18.932,0-18.932c0-0.138-0.064-0.196-0.2-0.196h-0.391c-0.136,0-0.2,0.058-0.2,0.196c0,0,0,18.928,0,18.932
		c0,1.338-1.084,2.422-2.422,2.422s-2.422-1.084-2.422-2.422c0-0.004,0-32.176,0-32.176c0-0.108-0.087-0.195-0.195-0.195h-0.398
		c-0.108,0-0.195,0.087-0.195,0.195c0,0-0.002,11.468-0.002,11.468c-0.001,1.036-0.841,1.877-1.878,1.877
		c-1.037,0-1.878-0.841-1.878-1.878c0-0.006,0-12.895,0-13.048c0-2.57,1.977-4.547,4.448-4.547c0.063,0,5.733,0,5.733,0
		c1.558,0,4.88,0,4.943,0c2.471,0,4.448,1.977,4.448,4.547C47.976,65.345,47.976,78.234,47.976,78.24z M55.052,69.484l0.794-1.338
		v1.074c0.098-0.016,0.198-0.025,0.3-0.028l0.627-1.045v1.099c0.078,0.016,0.155,0.036,0.23,0.06l0.688-1.158v1.494
		c0.667,0.46,1.104,1.229,1.103,2.101c0,1.409-1.143,2.552-2.552,2.552c-1.409,0-2.552-1.142-2.552-2.552
		C53.69,70.762,54.242,69.912,55.052,69.484z M63.062,86.234c0,0.679-0.553,1.199-1.232,1.199c-0.678,0-1.239-0.52-1.24-1.198
		c-0.001,0,0.002-7.472,0.002-7.472c0-0.071-0.055-0.128-0.126-0.128h-0.539c-0.071,0-0.128,0.057-0.128,0.128c0,0,0,21.018,0,21.02
		c0,0.875-0.697,1.588-1.572,1.588s-1.589-0.705-1.589-1.58c0-0.031-0.002-12.428-0.002-12.428c0-0.09-0.048-0.128-0.137-0.128
		h-0.523c-0.089,0-0.131,0.038-0.131,0.128c0,0,0,12.426,0,12.428c0,0.875-0.707,1.58-1.582,1.58c-0.875,0-1.582-0.713-1.582-1.588
		c0-0.002,0.002-21.02,0.002-21.02c0-0.071-0.065-0.128-0.135-0.128h-0.531c-0.071,0-0.126,0.057-0.126,0.128l0.002,7.472
		c-0.001,0.678-0.554,1.198-1.233,1.198c-0.679,0-1.239-0.52-1.239-1.199c0-0.004,0-8.436,0-8.537c0-1.682,1.573-3.016,3.19-3.016
		c0.041,0,7.211,0,7.252,0c1.617,0,3.197,1.334,3.197,3.016C63.062,77.798,63.062,86.23,63.062,86.234z M89.81,52.352
		c1.99,0,3.604,1.614,3.604,3.604S91.8,59.56,89.81,59.56s-3.604-1.614-3.604-3.604S87.82,52.352,89.81,52.352z M69.095,69.945
		c0.499-0.05,1.017,0.194,1.401,0.441c0.099,0.064,0.242,0.05,0.331-0.027c0.446-0.393,1.033-0.633,1.675-0.633
		c0.668,0,1.275,0.258,1.728,0.68c0.086,0.08,0.226,0.094,0.324,0.028c0.39-0.262,0.943-0.542,1.474-0.489
		c0.877,0.087,1.065,1.095,0.837,1.79c-0.037,0.112-0.123,0.284-0.174,0.39c-0.311,0.647-0.63,1.389-0.831,1.413
		c-0.203,0.026,0.446-1.534-0.02-2.02c-0.082-0.085-0.275-0.126-0.393-0.116c-0.085,0.008-0.192,0.026-0.313,0.066
		c-0.112,0.038-0.169,0.174-0.146,0.289c0.033,0.164,0.051,0.333,0.051,0.506c0,1.401-1.136,2.536-2.536,2.536
		s-2.536-1.136-2.536-2.536c0-0.191,0.021-0.376,0.06-0.555c0.025-0.115-0.033-0.244-0.147-0.272
		c-0.076-0.018-0.144-0.028-0.202-0.033c-0.118-0.01-0.311,0.031-0.393,0.116c-0.466,0.486,0.183,2.046-0.02,2.02
		c-0.203-0.025-0.522-0.767-0.833-1.414c-0.051-0.107-0.137-0.277-0.174-0.39C68.03,71.04,68.219,70.032,69.095,69.945z
		 M79.177,85.861c-0.632,0.194-1.302-0.161-1.497-0.794l-1.783-5.801c-0.01-0.025-0.064-0.127-0.189-0.127c-0.011,0-0.54,0-0.54,0
		c-0.071-0.001-0.105,0.06-0.086,0.128l3.576,11.747c0.019,0.068,0,0.188-0.125,0.188h-2.382c-0.071,0-0.123,0.058-0.123,0.129
		c0,0,0.001,8.492,0.001,8.495c0,0.853-0.692,1.545-1.545,1.545s-1.545-0.692-1.545-1.545l-0.001-8.495
		c0-0.071-0.074-0.129-0.131-0.129c-0.057,0-0.533,0-0.533,0c-0.071,0-0.129,0.058-0.129,0.129l-0.001,8.495
		c0,0.853-0.692,1.545-1.545,1.545s-1.545-0.692-1.545-1.545c0-0.003,0.001-8.495,0.001-8.495c0-0.071-0.052-0.129-0.123-0.129
		h-2.478c-0.125,0-0.144-0.119-0.125-0.188l3.57-11.747c0.019-0.068-0.023-0.129-0.094-0.128c0,0-0.552,0-0.563,0
		c-0.125,0-0.179,0.102-0.189,0.127c0,0-1.776,5.801-1.777,5.801c-0.194,0.632-0.864,0.987-1.497,0.794
		c-0.633-0.194-0.988-0.864-0.794-1.497c0.001-0.002,1.789-5.843,1.795-5.863c0.274-0.952,1.26-3.118,3.143-3.118h5.146
		c2.021,0,2.834,2.166,3.107,3.118c0.006,0.02,0.012,0.045,0.02,0.074c0.722,2.356,1.775,5.787,1.775,5.789
		C80.165,84.997,79.809,85.667,79.177,85.861z M99.596,78.24c0,1.037-0.841,1.878-1.878,1.878c-1.037,0-1.877-0.84-1.878-1.877
		c-0.001,0-0.003-11.468-0.003-11.468c0-0.108-0.087-0.195-0.195-0.195h-0.398c-0.108,0-0.195,0.087-0.195,0.195
		c0,0,0,32.172,0,32.176c0,1.338-1.084,2.422-2.422,2.422s-2.422-1.084-2.422-2.422c0-0.004,0-18.932,0-18.932
		c0-0.138-0.064-0.196-0.2-0.196h-0.39c-0.136,0-0.2,0.058-0.2,0.196c0,0,0,18.928,0,18.932c0,1.338-1.084,2.422-2.422,2.422
		s-2.422-1.084-2.422-2.422c0-0.004,0-32.176,0-32.176c0-0.108-0.087-0.195-0.195-0.195h-0.398c-0.108,0-0.195,0.087-0.195,0.195
		c0,0-0.002,11.468-0.003,11.468c-0.001,1.036-0.841,1.877-1.878,1.877c-1.037,0-1.878-0.841-1.878-1.878c0-0.006,0-12.895,0-13.048
		c0-2.57,1.977-4.547,4.448-4.547c0.063,0,5.733,0,5.733,0c1.558,0,4.88,0,4.943,0c2.471,0,4.448,1.977,4.448,4.547
		C99.596,65.345,99.596,78.234,99.596,78.24z"/>
</g>
</svg>
