<?xml version="1.0" encoding="utf-8"?>
<!-- Generator: Adobe Illustrator 16.0.0, SVG Export Plug-In . SVG Version: 6.00 Build 0)  -->
<!DOCTYPE svg PUBLIC "-//W3C//DTD SVG 1.1//EN" "http://www.w3.org/Graphics/SVG/1.1/DTD/svg11.dtd">
<svg version="1.1" id="Layer_3" xmlns="http://www.w3.org/2000/svg" xmlns:xlink="http://www.w3.org/1999/xlink" x="0px" y="0px"
	 width="126px" height="126px" viewBox="0 0 126 126" enable-background="new 0 0 126 126" xml:space="preserve">
<g>
	<circle cx="22.784" cy="30.64" r="8.411"/>
	<circle cx="53.612" cy="59.573" r="5.375"/>
	<circle cx="103.287" cy="30.64" r="8.411"/>
	<circle cx="72.459" cy="59.573" r="5.375"/>
	<path d="M124.271,61.6c-5.373-14.741-13.617-19.461-14.504-19.933c-0.337-0.218-0.675-0.43-1.018-0.64
		c-0.288-0.176-2.53-1.282-3.365-1.487l-2.097,2.109l-2.031-2.133c-0.006,0.001-0.015,0.002-0.021,0.004
		c-1.07,0.257-2.124,0.71-3.061,1.328c-0.177,0.069-0.351,0.147-0.519,0.25c-6.381,3.914-10.124,12.019-14.865,22.281
		c-0.553,1.198-0.315,2.558,0.493,3.499c-2.575,2.246-8.951-1.487-9.486-1.618l-1.339,1.348l-1.299-1.363
		c-0.004,0.001-0.008,0.003-0.014,0.003c-0.914,0.218-3.443,1.896-4.34,2.43c-0.087,0.033-0.171,0.064-0.253,0.111
		c-0.126,0.072-2.183,1.295-3.519,4.423c-1.337-3.128-3.391-4.351-3.517-4.423c-0.082-0.047-0.168-0.078-0.252-0.111
		c-0.897-0.533-3.43-2.212-4.341-2.43c-0.006,0-0.01-0.002-0.014-0.003l-1.3,1.363l-1.339-1.348
		c-0.532,0.131-6.911,3.864-9.485,1.618c0.809-0.941,1.045-2.301,0.493-3.499c-4.742-10.263-8.485-18.367-14.865-22.281
		c-0.166-0.103-0.341-0.181-0.52-0.25c-0.936-0.618-1.989-1.071-3.06-1.328c-0.006-0.002-0.015-0.003-0.021-0.004l-2.031,2.133
		l-2.096-2.109c-0.835,0.205-1.66,0.527-2.425,0.956c-0.16,0.041-1.091,0.59-2.118,1.251C14.9,42.437,6.956,47.293,1.729,61.633
		c-0.626,1.719,0.261,3.62,1.98,4.247c0.371,0.137,0.756,0.201,1.132,0.201c1.354,0,2.625-0.835,3.114-2.18
		c1.92-5.27,4.2-8.974,6.212-11.51c-0.002,0.755-0.01,1.214,0.006,1.17v11.857c0,1.163,0.295,2.223,0.801,3.16l0.002,31.08
		c0,2.131,1.728,3.858,3.857,3.858l0,0c2.132,0,3.861-1.728,3.861-3.858V72.838c0.029,0,0.059,0.003,0.089,0.003
		c0.154,0,0.306-0.013,0.46-0.02L23.24,99.659c0,2.131,1.729,3.858,3.86,3.858c2.132,0.001,3.859-1.727,3.859-3.858l0.002-31.271
		c0-0.177-0.016-0.347-0.038-0.517c0.299-0.754,0.469-1.573,0.469-2.452V54.105c1.944,3.328,3.842,7.431,5.958,12.012
		c0.302,0.657,0.797,1.155,1.385,1.48c-0.09,0.642,0.116,1.314,0.619,1.796c2.387,2.279,4.456,3.063,6.286,3.063
		c0.877,0,1.698-0.18,2.471-0.463v3.542l-2.218,12.066h2.729v13.702c0,1.362,1.104,2.467,2.467,2.467
		c1.361,0,2.465-1.104,2.465-2.467V87.603h0.352l-0.002,13.702c0,1.362,1.105,2.467,2.467,2.467
		c1.361,0.001,2.467-1.104,2.467-2.467l0.002-13.702h2.38L59.114,75.57v-2.712c0.639,1.115,1.234,2.833,1.234,5.382
		c0,1.056,0.855,1.911,1.912,1.911c0.276,0,0.537-0.062,0.774-0.168c0.237,0.106,0.5,0.168,0.775,0.168
		c1.057,0,1.912-0.855,1.912-1.911c0-2.549,0.596-4.267,1.235-5.382v2.712l-2.106,12.032h2.381l0.002,13.702
		c0,1.362,1.105,2.468,2.467,2.467c1.361,0,2.464-1.104,2.464-2.467V87.603h0.353l-0.002,13.702c0,1.362,1.104,2.467,2.467,2.467
		c1.363,0,2.466-1.104,2.466-2.467V87.603h2.73l-2.218-12.066v-3.542c0.772,0.283,1.593,0.463,2.471,0.463
		c1.829,0,3.899-0.784,6.286-3.063c0.502-0.481,0.708-1.154,0.618-1.796c0.589-0.325,1.084-0.823,1.386-1.48
		c2.116-4.581,4.012-8.684,5.958-12.012v5.468L90.037,88.81c0,0,2.011,0.678,5.074,1.305v9.545c0,2.132,1.728,3.859,3.859,3.858
		c2.133,0,3.861-1.728,3.859-3.858v-8.557c0.181,0.008,0.363,0.017,0.545,0.023v8.533c0,2.131,1.73,3.858,3.86,3.858
		c0.002,0,0.002,0,0.002,0c2.131,0,3.858-1.728,3.858-3.858v-9.124c1.773-0.369,3.503-0.924,5.117-1.726l-4.314-28.162v-7.086
		c0.021,0.06,0.04,0.124,0.061,0.183c0.027-0.327,0.109-0.637,0.226-0.93c1.922,2.518,4.05,6.091,5.859,11.054
		c0.488,1.345,1.76,2.18,3.114,2.18c0.373,0,0.758-0.064,1.132-0.201C124.01,65.22,124.896,63.318,124.271,61.6z"/>
</g>
</svg>
