<?xml version="1.0" encoding="iso-8859-1"?>
<!-- Generator: Adobe Illustrator 17.1.0, SVG Export Plug-In . SVG Version: 6.00 Build 0)  -->
<!DOCTYPE svg PUBLIC "-//W3C//DTD SVG 1.1//EN" "http://www.w3.org/Graphics/SVG/1.1/DTD/svg11.dtd">
<svg version="1.1" id="Layer_1" xmlns="http://www.w3.org/2000/svg" xmlns:xlink="http://www.w3.org/1999/xlink" x="0px" y="0px"
	 viewBox="0 0 128 128" style="enable-background:new 0 0 128 128;" xml:space="preserve">
<g>
	<path d="M64.193,8.154c-0.287-0.199-0.751-0.218-1.037-0.018l-14.114,9.949c-0.286,0.201-0.438,0.07-0.438-0.279v-6.891
		c0-0.349-0.443-0.534-0.793-0.534h-9.169c-0.349,0-0.491,0.185-0.491,0.534v14.212c0,0.349-0.303,0.795-0.589,0.995L2.942,50.471
		c-0.286,0.201-0.27,0.445,0.079,0.445h15.387c0.349,0,0.624,0.119,0.624,0.468v67.977c0,0.349,0.292,0.644,0.641,0.644h87.896
		c0.349,0,0.692-0.294,0.692-0.644V51.384c0-0.349,0.223-0.468,0.573-0.468h16.125c0.35,0,0.4-0.244,0.113-0.443L64.193,8.154z
		 M87.186,47.791c2.638,0,4.776,2.139,4.776,4.776c0,2.638-2.138,4.776-4.776,4.776s-4.776-2.139-4.776-4.776
		C82.41,49.93,84.548,47.791,87.186,47.791z M64.001,75.933c1.914,0,3.466,1.552,3.466,3.466c0,1.914-1.552,3.466-3.466,3.466
		c-1.914,0-3.466-1.552-3.466-3.466C60.535,77.484,62.087,75.933,64.001,75.933z M40.816,47.791c2.638,0,4.776,2.139,4.776,4.776
		c0,2.638-2.139,4.776-4.776,4.776c-2.638,0-4.776-2.139-4.776-4.776C36.04,49.93,38.178,47.791,40.816,47.791z M100.37,80.546
		c-1.314,0.403-2.705-0.335-3.109-1.648c-0.001,0-3.72-12.126-3.72-12.126c-0.022-0.051-0.133-0.264-0.393-0.264
		c-0.024,0-0.524,0-0.524,0h-0.001c-0.148-0.002-0.234,0.124-0.195,0.266l7.446,24.367c0.04,0.142,0,0.39-0.259,0.39H94.39
		c-0.148,0-0.256,0.12-0.256,0.268c0,0,0.001,17.752,0.001,17.758c0,1.773-1.437,3.21-3.21,3.21c-1.773,0-3.21-1.437-3.21-3.21
		l-0.001-17.758c0-0.148-0.12-0.268-0.267-0.268h-0.004H86.93h-0.004c-0.148,0-0.267,0.12-0.267,0.268l-0.001,17.758
		c0,1.773-1.437,3.21-3.21,3.21c-1.773,0-3.21-1.437-3.21-3.21c0-0.006,0.001-17.758,0.001-17.758c0-0.148-0.108-0.268-0.256-0.268
		h-5.223c-0.259,0-0.299-0.248-0.259-0.39l7.446-24.367c0.039-0.142-0.047-0.268-0.195-0.266h-0.001c0,0-0.5,0-0.524,0
		c-0.26,0-0.371,0.213-0.393,0.264c0,0-4.084,13.375-4.085,13.375c-0.077,0.25-0.19,0.478-0.33,0.682
		c-0.715,1.28-5.61,10.042-5.61,10.042c-0.069,0.125-0.126,0.485-0.126,0.485s-0.01,18.462-0.025,18.604
		c-0.163,1.458-1.483,2.806-3.091,2.806c-1.702,0-2.939-1.419-2.963-2.971l-0.003-7.868c0-0.143-0.116-0.259-0.259-0.259H63.95
		c-0.143,0-0.259,0.116-0.259,0.259l-0.001,7.827c-0.025,1.553-1.559,3.012-3.261,3.012c-1.702,0-3.054-1.468-3.079-3.021V91.052
		c0-0.143-0.058-0.359-0.13-0.483l-5.611-9.71c-0.151-0.212-0.273-0.451-0.354-0.714c-0.001,0-4.085-13.375-4.085-13.375
		c-0.022-0.051-0.133-0.264-0.393-0.264c-0.024,0-0.524,0-0.524,0h-0.001c-0.148-0.002-0.234,0.124-0.195,0.266l7.446,24.367
		c0.04,0.142,0,0.39-0.259,0.39h-5.223c-0.148,0-0.256,0.12-0.256,0.268c0,0,0.001,17.752,0.001,17.758
		c0,1.773-1.437,3.21-3.21,3.21s-3.21-1.437-3.21-3.21l-0.001-17.758c0-0.148-0.12-0.267-0.268-0.267h-0.004h-0.513h-0.004
		c-0.148,0-0.267,0.12-0.267,0.267l-0.001,17.758c0,1.773-1.437,3.21-3.21,3.21s-3.21-1.437-3.21-3.21
		c0-0.006,0.001-17.758,0.001-17.758c0-0.148-0.108-0.268-0.256-0.268h-5.223c-0.259,0-0.299-0.248-0.259-0.39l7.446-24.367
		c0.039-0.142-0.047-0.268-0.195-0.266h-0.001c0,0-0.5,0-0.524,0c-0.26,0-0.371,0.213-0.393,0.264c0,0-3.719,12.126-3.72,12.126
		c-0.404,1.313-1.795,2.051-3.109,1.648c-1.314-0.403-2.053-1.795-1.65-3.11c0.001-0.005,3.717-12.137,3.729-12.179
		c0.569-1.976,1.954-6.477,5.865-6.477h10.492c4.198,0,5.284,4.5,5.852,6.477c0,0,3.385,11.103,3.999,13.115
		c0.48,0.842,3.295,5.774,3.295,5.774c0.071,0.124,0.245,0.224,0.387,0.224h8.72c0.306,0,0.469-0.098,0.614-0.348l3.134-5.649
		c0.009-0.018,0.019-0.036,0.028-0.054c0.654-2.145,3.983-13.062,3.983-13.062c0.569-1.976,1.654-6.477,5.852-6.477h10.492
		c3.911,0,5.296,4.5,5.865,6.477c0.012,0.042,3.728,12.174,3.729,12.179C102.423,78.751,101.684,80.143,100.37,80.546z"/>
</g>
</svg>
