<?xml version="1.0" encoding="iso-8859-1"?>
<!-- Generator: Adobe Illustrator 17.1.0, SVG Export Plug-In . SVG Version: 6.00 Build 0)  -->
<!DOCTYPE svg PUBLIC "-//W3C//DTD SVG 1.1//EN" "http://www.w3.org/Graphics/SVG/1.1/DTD/svg11.dtd">
<svg version="1.1" id="Layer_1" xmlns="http://www.w3.org/2000/svg" xmlns:xlink="http://www.w3.org/1999/xlink" x="0px" y="0px"
	 viewBox="0 0 128 128" style="enable-background:new 0 0 128 128;" xml:space="preserve">
<g>
	<path d="M104.994,30.651c0,0-11.663,0-11.793,0c-5.083,0-9.149,4.066-9.149,9.353c0,0.316,0,26.826,0,26.838
		c0,2.133,1.73,3.863,3.863,3.863c2.133,0,3.861-1.728,3.863-3.86c0.002-0.001,0.005-23.588,0.005-23.588
		c0-0.222,0.18-0.402,0.402-0.402h0.818c0.222,0,0.402,0.18,0.402,0.402c0,0,0,66.173,0,66.181c0,2.751,2.23,4.981,4.981,4.981
		c2.751,0,4.981-2.23,4.981-4.981c0-0.007,0-38.94,0-38.94c0-0.284,0.131-0.402,0.412-0.402h0.803c0.28,0,0.412,0.119,0.412,0.402
		c0,0,0,38.933,0,38.94c0,2.751,2.23,4.981,4.981,4.981s4.981-2.23,4.981-4.981c0-0.008,0-66.181,0-66.181
		c0-0.222,0.18-0.402,0.402-0.402h0.818c0.222,0,0.402,0.18,0.402,0.402c0,0,0.003,23.587,0.005,23.588
		c0.002,2.132,1.73,3.86,3.863,3.86c2.133,0,3.863-1.73,3.863-3.863c0-0.012,0-26.522,0-26.838c0-5.286-4.067-9.353-9.15-9.353
		C115.031,30.651,108.198,30.651,104.994,30.651z"/>
	<circle cx="104.181" cy="21.008" r="7.413"/>
	<path d="M6.422,64.416c2.039,0.625,4.198-0.52,4.825-2.558c0.002,0,5.774-18.82,5.774-18.82c0.034-0.08,0.206-0.41,0.61-0.41
		c0.036,0,0.813,0,0.813,0h0.002c0.23-0.004,0.364,0.192,0.303,0.412L7.194,80.856c-0.062,0.221,0,0.606,0.402,0.606h8.107
		c0.23,0,0.398,0.186,0.398,0.416c0,0-0.002,27.55-0.002,27.56c0,2.751,2.23,4.981,4.981,4.981s4.981-2.23,4.981-4.981l0.002-27.56
		c0-0.23,0.186-0.415,0.415-0.415h0.007h0.796h0.007c0.23,0,0.415,0.186,0.415,0.415l0.002,27.56c0,2.751,2.23,4.981,4.981,4.981
		c2.751,0,4.981-2.23,4.981-4.981c0-0.01-0.002-27.56-0.002-27.56c0-0.23,0.168-0.416,0.398-0.416h8.107
		c0.402,0,0.465-0.385,0.402-0.606L35.017,43.04c-0.061-0.221,0.073-0.416,0.303-0.412h0.002c0,0,0.777,0,0.813,0
		c0.404,0,0.576,0.33,0.61,0.41c0,0,5.772,18.819,5.774,18.82c0.626,2.038,2.786,3.183,4.825,2.558
		c2.04-0.626,3.186-2.786,2.561-4.826c-0.002-0.008-5.788-18.901-5.788-18.901c-0.883-3.067-2.568-10.052-9.082-10.052H18.751
		c-6.07,0-8.219,6.984-9.102,10.052C9.63,40.753,3.863,59.582,3.861,59.59C3.235,61.629,4.382,63.79,6.422,64.416z"/>
	<circle cx="26.883" cy="20.994" r="7.413"/>
	<path d="M52.749,65.725c0,0.207,0,17.551,0,17.559c0,1.396,1.151,2.467,2.547,2.467c1.395,0,2.535-1.07,2.536-2.465l-0.003-15.368
		c0-0.145,0.114-0.263,0.259-0.263h1.092c0.145,0,0.278,0.117,0.278,0.263c0,0-0.003,43.23-0.003,43.235
		c0,1.8,1.453,3.266,3.253,3.266s3.253-1.449,3.253-3.249c0-0.005,0-25.563,0-25.563c0-0.186,0.086-0.263,0.269-0.263h1.076
		c0.183,0,0.281,0.078,0.281,0.263c0,0,0.004,25.5,0.004,25.563c0,1.8,1.469,3.249,3.269,3.249s3.233-1.466,3.233-3.266
		c0-0.005,0-43.235,0-43.235c0-0.145,0.118-0.263,0.263-0.263h1.109c0.145,0,0.259,0.117,0.259,0.263c0,0-0.005,15.368-0.004,15.368
		c0.001,1.395,1.155,2.465,2.55,2.465c1.396,0,2.533-1.07,2.533-2.467c0-0.008,0-17.352,0-17.559c0-3.458-3.251-6.203-6.577-6.203
		c-0.085,0-14.832,0-14.917,0C55.985,59.522,52.749,62.266,52.749,65.725z"/>
	<path d="M64.328,48.833c-1.665,0.88-2.799,2.628-2.799,4.642c0,2.899,2.35,5.249,5.249,5.249c2.899,0,5.249-2.35,5.249-5.249
		c0-1.793-0.899-3.374-2.27-4.321V46.08l-1.415,2.383c-0.154-0.048-0.312-0.089-0.473-0.123v-2.26l-1.29,2.151
		c-0.209,0.008-0.415,0.027-0.617,0.058v-2.209L64.328,48.833z"/>
</g>
</svg>
