<?xml version="1.0" encoding="iso-8859-1"?>
<!-- Generator: Adobe Illustrator 17.1.0, SVG Export Plug-In . SVG Version: 6.00 Build 0)  -->
<!DOCTYPE svg PUBLIC "-//W3C//DTD SVG 1.1//EN" "http://www.w3.org/Graphics/SVG/1.1/DTD/svg11.dtd">
<svg version="1.1" id="Layer_1" xmlns="http://www.w3.org/2000/svg" xmlns:xlink="http://www.w3.org/1999/xlink" x="0px" y="0px"
	 viewBox="0 0 128 128" style="enable-background:new 0 0 128 128;" xml:space="preserve">
<g>
	<circle cx="26.193" cy="18.799" r="7.751"/>
	<path d="M58.487,59.237c-0.176,0.157-0.464,0.184-0.663,0.055c-0.794-0.511-1.871-1.021-2.907-0.919
		c-1.994,0.197-2.265,2.699-1.565,4.11c0.701,1.411,1.453,3.264,1.915,3.32c0.42,0.053-0.932-3.193,0.051-4.186
		c0.167-0.169,0.551-0.25,0.788-0.231c0.127,0.01,0.277,0.032,0.445,0.074c0.229,0.057,0.347,0.316,0.295,0.546
		c-0.085,0.373-0.129,0.761-0.129,1.161c0,2.896,2.349,5.245,5.245,5.245c2.896,0,5.245-2.349,5.245-5.245
		c0-0.364-0.038-0.718-0.108-1.059c-0.047-0.231,0.066-0.504,0.292-0.579c0.261-0.089,0.492-0.127,0.674-0.142
		c0.235-0.019,0.621,0.064,0.788,0.231c0.983,0.994-0.371,4.239,0.051,4.186c0.458-0.057,1.212-1.909,1.913-3.32
		c0.701-1.411,0.428-3.911-1.564-4.11c-1.104-0.11-2.254,0.475-3.059,1.019c-0.195,0.133-0.477,0.104-0.65-0.057
		c-0.938-0.877-2.197-1.415-3.583-1.415C60.627,57.921,59.413,58.419,58.487,59.237z"/>
	<path d="M5.144,38.663c0,0.331,0,28.052,0,28.065c0,2.231,1.809,4.04,4.04,4.04c2.23,0,4.038-1.807,4.039-4.037
		c0.002-0.001,0.005-24.666,0.005-24.666c0-0.232,0.188-0.42,0.42-0.42h0.856c0.232,0,0.42,0.188,0.42,0.42c0,0,0,69.197,0,69.205
		c0,2.877,2.332,5.209,5.209,5.209s5.209-2.332,5.209-5.209c0-0.008,0-40.72,0-40.72c0-0.297,0.137-0.421,0.43-0.421h0.84
		c0.293,0,0.43,0.124,0.43,0.421c0,0,0,40.712,0,40.72c0,2.877,2.332,5.209,5.209,5.209s5.209-2.332,5.209-5.209
		c0-0.008,0-69.205,0-69.205c0-0.232,0.188-0.42,0.42-0.42h0.856c0.232,0,0.42,0.188,0.42,0.42c0,0,3.315,20.493,3.317,20.494
		c0.119,0.715,0.347,1.383,0.672,1.962l-0.006,0.002c0.068,0.227,8.693,15.23,8.693,15.23c0.121,0.203,0.18,0.555,0.132,0.788
		l-3.509,17.292c-0.047,0.231,0.106,0.419,0.343,0.419l2.264,0v13.797c0.04,2.52,2.235,4.902,4.997,4.902
		c2.763,0,5.252-2.368,5.293-4.888l0.002-12.704c0-0.232,0.188-0.42,0.42-0.42h0.63c0.232,0,0.42,0.188,0.42,0.42l0.004,12.77
		c0.04,2.52,2.047,4.823,4.81,4.823c2.609,0,4.753-2.188,5.017-4.554c0,0-0.007-8.183,0-14.144l2.208,0
		c0.237,0,0.394-0.189,0.354-0.42l-3.515-16.946c-0.042-0.233,0.026-0.585,0.15-0.786l7.968-12.989
		c0.659-0.956,1.611-2.57,2.059-3.587c0.002,0,6.526-21.055,6.526-21.055c0.035-0.083,0.215-0.427,0.636-0.427
		c0.038,0,0.848,0,0.848,0h0.002c0.239-0.004,0.379,0.2,0.316,0.43L78.164,81.885c-0.065,0.23,0,0.631,0.419,0.631h8.449
		c0.239,0,0.414,0.194,0.414,0.433c0,0-0.002,28.713-0.002,28.723c0,2.867,2.324,5.191,5.192,5.191c2.867,0,5.191-2.324,5.191-5.191
		l0.002-28.724c0-0.239,0.193-0.433,0.433-0.433h0.007h0.83h0.007c0.239,0,0.433,0.193,0.433,0.433l0.002,28.724
		c0,2.867,2.324,5.191,5.192,5.191c2.867,0,5.191-2.324,5.191-5.191c0-0.01-0.002-28.723-0.002-28.723
		c0-0.239,0.175-0.433,0.414-0.433h8.449c0.419,0,0.484-0.401,0.419-0.631l-12.043-39.412c-0.063-0.23,0.077-0.433,0.316-0.43h0.002
		c0,0,0.809,0,0.848,0c0.421,0,0.6,0.344,0.636,0.427c0,0,6.016,19.614,6.017,19.614c0.653,2.124,2.904,3.318,5.029,2.666
		c2.127-0.652,3.321-2.904,2.669-5.03c-0.002-0.008-6.012-19.631-6.032-19.699c-0.92-3.197-3.16-10.476-9.486-10.476H90.188
		c-6.79,0-8.546,7.279-9.466,10.476c0,0-5.655,18.382-6.748,21.935c-0.753,1.235-5.504,8.581-5.504,8.581
		c-0.129,0.197-0.426,0.358-0.663,0.358H56.192c-0.237,0-0.528-0.163-0.652-0.364l-5.044-8.38
		c-0.436-3.115-3.255-23.183-3.255-23.488c0-5.528-4.252-9.78-9.568-9.78c-0.135,0-12.331,0-12.331,0c-3.351,0-10.495,0-10.631,0
		C9.396,28.883,5.144,33.135,5.144,38.663z"/>
	<circle cx="98.743" cy="19.496" r="7.725"/>
</g>
</svg>
