<?xml version="1.0" encoding="iso-8859-1"?>
<!-- Generator: Adobe Illustrator 17.1.0, SVG Export Plug-In . SVG Version: 6.00 Build 0)  -->
<!DOCTYPE svg PUBLIC "-//W3C//DTD SVG 1.1//EN" "http://www.w3.org/Graphics/SVG/1.1/DTD/svg11.dtd">
<svg version="1.1" id="Layer_1" xmlns="http://www.w3.org/2000/svg" xmlns:xlink="http://www.w3.org/1999/xlink" x="0px" y="0px"
	 viewBox="0 0 128 128" style="enable-background:new 0 0 128 128;" xml:space="preserve">
<g>
	<path d="M93.181,46.404c-0.014,0.049-4.367,14.261-4.368,14.267c-0.472,1.54,0.393,3.17,1.933,3.643
		c1.539,0.472,3.169-0.393,3.642-1.931c0.002,0,4.358-14.205,4.358-14.205c0.026-0.06,0.156-0.309,0.46-0.309
		c0.028,0,0.614,0,0.614,0h0.001c0.173-0.003,0.275,0.145,0.229,0.311l-8.722,28.544c-0.047,0.166,0,0.457,0.304,0.457h6.119
		c0.173,0,0.3,0.141,0.3,0.314c0,0-0.001,20.795-0.001,20.802c0,2.077,1.683,3.76,3.76,3.76c2.077,0,3.76-1.683,3.76-3.76
		l0.001-20.802c0-0.173,0.14-0.313,0.313-0.313h0.005h0.601h0.005c0.173,0,0.313,0.14,0.313,0.313l0.001,20.802
		c0,2.077,1.683,3.76,3.76,3.76s3.76-1.683,3.76-3.76c0-0.007-0.001-20.802-0.001-20.802c0-0.173,0.127-0.314,0.3-0.314h6.119
		c0.304,0,0.351-0.291,0.304-0.457l-8.722-28.544c-0.046-0.166,0.055-0.314,0.229-0.311h0.001c0,0,0.586,0,0.614,0
		c0.304,0,0.435,0.249,0.46,0.309c0,0,4.357,14.205,4.358,14.205c0.473,1.538,2.103,2.403,3.642,1.931
		c1.54-0.472,2.405-2.103,1.933-3.643c-0.002-0.006-4.368-14.267-4.368-14.267c-0.666-2.315-1.938-7.587-6.855-7.587h-12.291
		C95.47,38.817,93.847,44.089,93.181,46.404z"/>
	<circle cx="106.189" cy="31.539" r="5.595"/>
	<path d="M6.367,64.313c1.539,0.472,3.169-0.393,3.642-1.931c0.002,0,4.358-14.205,4.358-14.205c0.026-0.06,0.156-0.309,0.46-0.309
		c0.028,0,0.614,0,0.614,0h0.001c0.173-0.003,0.275,0.145,0.229,0.311L6.949,76.723c-0.047,0.166,0,0.457,0.304,0.457h6.119
		c0.173,0,0.3,0.141,0.3,0.314c0,0-0.001,20.795-0.001,20.802c0,2.077,1.683,3.76,3.76,3.76c2.077,0,3.76-1.683,3.76-3.76
		l0.001-20.802c0-0.173,0.14-0.313,0.313-0.313h0.005h0.601h0.005c0.173,0,0.313,0.14,0.313,0.313l0.001,20.802
		c0,2.077,1.683,3.76,3.76,3.76s3.76-1.683,3.76-3.76c0-0.007-0.001-20.802-0.001-20.802c0-0.173,0.127-0.314,0.3-0.314h6.119
		c0.304,0,0.351-0.291,0.304-0.457L27.95,48.179c-0.046-0.166,0.055-0.314,0.229-0.311h0.001c0,0,0.586,0,0.614,0
		c0.304,0,0.435,0.249,0.46,0.309c0,0,4.357,14.205,4.358,14.205c0.473,1.538,2.103,2.403,3.642,1.931
		c1.54-0.472,2.405-2.103,1.933-3.643c-0.002-0.006-4.368-14.267-4.368-14.267c-0.666-2.315-1.938-7.587-6.855-7.587H15.673
		c-4.582,0-6.204,5.272-6.87,7.587c-0.014,0.049-4.367,14.261-4.368,14.267C3.962,62.211,4.828,63.841,6.367,64.313z"/>
	<circle cx="21.811" cy="31.539" r="5.595"/>
	<path d="M65.334,75.652c-0.301,0.982,0.251,2.023,1.233,2.324c0.982,0.301,2.022-0.25,2.324-1.232c0.001,0,2.759-9.006,2.759-9.006
		c0.016-0.038,0.099-0.197,0.294-0.197c0.018,0,0.874,0,0.874,0c0.111-0.002,0.175,0.092,0.146,0.199l-5.543,18.237
		c-0.03,0.106,0,0.292,0.194,0.292h3.847c0.111,0,0.191,0.09,0.191,0.2c0,0-0.001,13.184-0.001,13.188
		c0,1.325,1.074,2.399,2.399,2.399s2.399-1.074,2.399-2.399l0.001-13.188c0-0.111,0.089-0.2,0.2-0.2c0,0,0.74,0,0.828,0
		c0.088,0,0.203,0.089,0.203,0.2l0.001,13.188c0,1.325,1.074,2.399,2.399,2.399s2.399-1.074,2.399-2.399
		c0-0.005-0.001-13.188-0.001-13.188c0-0.111,0.081-0.2,0.192-0.2h3.698c0.194,0,0.224-0.186,0.194-0.292L81.011,67.74
		c-0.029-0.106,0.023-0.2,0.134-0.199c0,0,0.821,0,0.839,0c0.194,0,0.277,0.159,0.294,0.197c0,0,2.767,9.005,2.768,9.006
		c0.302,0.981,1.342,1.533,2.324,1.232c0.982-0.301,1.534-1.341,1.233-2.324c-0.001-0.004-1.635-5.33-2.756-8.988
		c-0.012-0.044-0.022-0.083-0.031-0.115c-0.425-1.477-1.687-4.84-4.824-4.84H73c-2.923,0-4.454,3.363-4.879,4.84
		C68.112,66.581,65.335,75.648,65.334,75.652z"/>
	<path d="M82.219,58.844c0.313-0.037,0.808-1.189,1.291-2.194c0.079-0.164,0.213-0.43,0.27-0.605
		c0.354-1.079,0.062-2.644-1.299-2.779c-0.825-0.082-1.684,0.352-2.289,0.759c-0.153,0.103-0.37,0.081-0.504-0.044
		c-0.703-0.655-1.646-1.056-2.682-1.056c-0.997,0-1.907,0.372-2.6,0.982c-0.138,0.121-0.36,0.142-0.514,0.042
		c-0.596-0.383-1.399-0.762-2.174-0.684c-1.361,0.135-1.653,1.7-1.299,2.779c0.057,0.175,0.191,0.439,0.27,0.605
		c0.483,1.004,0.978,2.157,1.294,2.195c0.314,0.04-0.693-2.381,0.031-3.136c0.126-0.132,0.426-0.197,0.609-0.181
		c0.091,0.007,0.197,0.023,0.314,0.051c0.178,0.044,0.269,0.244,0.229,0.423c-0.062,0.277-0.094,0.565-0.094,0.862
		c0,2.174,1.763,3.938,3.938,3.938c2.174,0,3.938-1.763,3.938-3.938c0-0.268-0.028-0.531-0.079-0.786
		c-0.037-0.179,0.053-0.391,0.226-0.449c0.188-0.063,0.354-0.091,0.486-0.103c0.182-0.015,0.482,0.048,0.609,0.181
		C82.912,56.463,81.903,58.884,82.219,58.844z"/>
	<path d="M41.175,65.302c0,0.156,0,13.248,0,13.254c0,1.054,0.869,1.862,1.923,1.862c1.053,0,1.913-0.807,1.914-1.86l-0.002-11.6
		c0-0.11,0.086-0.198,0.196-0.198h0.825c0.11,0,0.21,0.089,0.21,0.198c0,0-0.002,32.63-0.002,32.633
		c0,1.359,1.097,2.465,2.456,2.465c1.359,0,2.456-1.094,2.456-2.452c0-0.004,0-19.294,0-19.294c0-0.14,0.065-0.199,0.203-0.199
		h0.812c0.138,0,0.212,0.059,0.212,0.199c0,0,0.003,19.247,0.003,19.295c0,1.359,1.109,2.452,2.467,2.452
		c1.359,0,2.44-1.107,2.44-2.465c0-0.004,0-32.633,0-32.633c0-0.109,0.089-0.198,0.198-0.198h0.837c0.11,0,0.195,0.089,0.195,0.198
		c0,0-0.004,11.599-0.003,11.6c0.001,1.053,0.872,1.86,1.925,1.86c1.054,0,1.912-0.808,1.912-1.862c0-0.006,0-13.097,0-13.254
		c0-2.611-2.454-4.682-4.964-4.682c-0.064,0-11.195,0-11.259,0C43.617,60.62,41.175,62.691,41.175,65.302z"/>
	<path d="M49.914,52.551c-1.256,0.664-2.113,1.984-2.113,3.504c0,2.188,1.774,3.962,3.962,3.962s3.962-1.774,3.962-3.962
		c0-1.353-0.678-2.547-1.713-3.261v-2.319l-1.068,1.798c-0.117-0.036-0.236-0.067-0.357-0.093v-1.706l-0.974,1.623
		c-0.158,0.006-0.313,0.02-0.466,0.044v-1.667L49.914,52.551z"/>
</g>
</svg>
