<?xml version="1.0" encoding="iso-8859-1"?>
<!-- Generator: Adobe Illustrator 17.1.0, SVG Export Plug-In . SVG Version: 6.00 Build 0)  -->
<!DOCTYPE svg PUBLIC "-//W3C//DTD SVG 1.1//EN" "http://www.w3.org/Graphics/SVG/1.1/DTD/svg11.dtd">
<svg version="1.1" id="Layer_1" xmlns="http://www.w3.org/2000/svg" xmlns:xlink="http://www.w3.org/1999/xlink" x="0px" y="0px"
	 viewBox="0 0 128 128" style="enable-background:new 0 0 128 128;" xml:space="preserve">
<g>
	<path d="M20.729,59.651c1.012-3.518,3.478-11.528,10.439-11.528h18.676c7.472,0,9.404,8.01,10.417,11.528
		c0,0,1.886,6.165,3.74,12.221c1.853-6.056,3.74-12.221,3.74-12.221c1.012-3.518,2.945-11.528,10.416-11.528h18.676
		c6.962,0,9.427,8.01,10.439,11.528c0.015,0.052,3.25,10.614,5.198,16.974c12.175-18.889,15.599-40.528,1.262-54.178
		C92.131,2.647,67.588,26.514,64.434,29.76c-0.188,0.193-0.379,0.353-0.434,0.356c-0.055-0.003-0.246-0.163-0.434-0.356
		c-3.154-3.247-27.697-27.114-49.297-7.313C-0.068,36.098,3.356,57.737,15.531,76.626C17.479,70.265,20.714,59.703,20.729,59.651z
		 M87.506,28.561c4.695,0,8.502,3.806,8.502,8.502c0,4.695-3.806,8.502-8.502,8.502s-8.502-3.806-8.502-8.502
		C79.005,32.368,82.811,28.561,87.506,28.561z M40.494,28.561c4.695,0,8.502,3.806,8.502,8.502c0,4.695-3.806,8.502-8.502,8.502
		s-8.502-3.806-8.502-8.502C31.993,32.368,35.799,28.561,40.494,28.561z"/>
	<path d="M98.817,62.346c-0.039-0.091-0.237-0.47-0.699-0.47c-0.042,0-0.933,0-0.933,0h-0.002c-0.263-0.004-0.417,0.22-0.348,0.473
		l7.609,24.901c0.57-0.652,1.13-1.311,1.681-1.976c-0.295-0.396-0.532-0.844-0.686-1.343C105.437,83.93,98.817,62.346,98.817,62.346
		z"/>
	<path d="M30.818,61.875h-0.002c0,0-0.891,0-0.933,0c-0.463,0-0.661,0.379-0.699,0.47c0,0-6.62,21.584-6.622,21.585
		c-0.153,0.499-0.39,0.947-0.686,1.343c0.55,0.665,1.11,1.324,1.681,1.976l7.609-24.901C31.236,62.095,31.081,61.871,30.818,61.875z
		"/>
	<path d="M77.829,61.875h-0.002c0,0-0.891,0-0.933,0c-0.463,0-0.661,0.379-0.699,0.47c0,0-6.542,21.347-7.215,23.537
		c-0.059,0.207-0.334,0.881-0.406,1.012c-0.87,1.631-2.586,2.741-4.563,2.741c-1.691,0-3.188-0.816-4.131-2.071
		c-0.351-0.43-0.632-0.843-0.802-1.497c-0.002,0-7.272-23.721-7.272-23.721c-0.039-0.091-0.237-0.47-0.699-0.47
		c-0.042,0-0.933,0-0.933,0h-0.002c-0.264-0.004-0.417,0.22-0.348,0.473l13.253,43.372c0.072,0.253,0,0.695-0.462,0.695h-9.298
		c-0.263,0-0.456,0.213-0.456,0.477c0,0,0,0.987,0,2.608c3.653,1.647,7.377,2.945,11.118,3.83h0.041
		c3.741-0.885,7.464-2.184,11.118-3.83c0-1.621,0-2.608,0-2.608c0-0.264-0.193-0.477-0.456-0.477h-9.298
		c-0.462,0-0.533-0.442-0.462-0.695l13.253-43.372C78.247,62.095,78.093,61.871,77.829,61.875z"/>
</g>
</svg>
