<?xml version="1.0" encoding="iso-8859-1"?>
<!-- Generator: Adobe Illustrator 17.1.0, SVG Export Plug-In . SVG Version: 6.00 Build 0)  -->
<!DOCTYPE svg PUBLIC "-//W3C//DTD SVG 1.1//EN" "http://www.w3.org/Graphics/SVG/1.1/DTD/svg11.dtd">
<svg version="1.1" id="Layer_1" xmlns="http://www.w3.org/2000/svg" xmlns:xlink="http://www.w3.org/1999/xlink" x="0px" y="0px"
	 viewBox="0 0 128 128" style="enable-background:new 0 0 128 128;" xml:space="preserve">
<g>
	<circle cx="40.682" cy="14.213" r="8.583"/>
	<path d="M17.375,36.207c0,0.366,0,31.061,0,31.075c0,2.47,2.003,4.473,4.473,4.473c2.469,0,4.471-2.001,4.473-4.47
		c0.002-0.001,0.006-27.311,0.006-27.311c0-0.257,0.208-0.465,0.465-0.465h0.947c0.257,0,0.465,0.208,0.465,0.465
		c0,0,0,76.619,0,76.628c0,3.186,2.582,5.768,5.768,5.768c3.185,0,5.768-2.582,5.768-5.768c0-0.009,0-45.087,0-45.087
		c0-0.329,0.152-0.466,0.477-0.466h0.93c0.325,0,0.477,0.137,0.477,0.466c0,0,0,45.078,0,45.087c0,3.186,2.582,5.768,5.768,5.768
		s5.768-2.582,5.768-5.768c0-0.003,0-7.06,0-16.89h-3.508c-0.597,0-1.14-0.266-1.49-0.729c-0.36-0.477-0.475-1.114-0.308-1.705
		l3.273-10.768c-0.662,0.389-1.43,0.607-2.243,0.607c-0.438,0-0.874-0.066-1.295-0.195c-1.127-0.346-2.052-1.11-2.605-2.151
		c-0.553-1.042-0.667-2.236-0.321-3.363c0,0,4.225-13.797,4.273-13.953c0.172-0.596,1.38-4.481,4.225-6.799c0-2.418,0-4.717,0-6.842
		c-0.066-0.14-0.133-0.281-0.199-0.419l-0.065-0.134c-0.143-0.294-0.32-0.661-0.426-0.984c-0.512-1.562-0.328-3.363,0.47-4.586
		c0.069-0.106,0.144-0.204,0.221-0.301c0-4.579,0-7.416,0-7.416c0-0.257,0.208-0.465,0.465-0.465h0.947
		c0.257,0,0.465,0.208,0.465,0.465c0,0,0.41,2.502,0.982,5.989c0.082-0.004,0.162-0.012,0.245-0.012
		c1.037,0,2.142,0.326,3.292,0.971c1.297-0.956,2.873-1.478,4.502-1.478c1.685,0,3.302,0.553,4.625,1.57
		c1.149-0.672,2.255-1.024,3.298-1.056c0.571-3.485,0.981-5.984,0.981-5.984c0-0.257,0.208-0.465,0.465-0.465h0.947
		c0.257,0,0.465,0.208,0.465,0.465c0,0,0,2.659,0,6.985c0.233,0.214,0.443,0.457,0.623,0.732c0.797,1.224,0.982,3.024,0.47,4.586
		c-0.101,0.307-0.258,0.64-0.439,1.012l-0.052,0.108c-0.105,0.218-0.211,0.442-0.316,0.665c-0.099,0.209-0.193,0.407-0.285,0.599
		c0,1.847,0,3.816,0,5.871c1.863,1.439,3.326,3.803,4.23,6.941c0.015,0.052,0.031,0.113,0.049,0.181
		c1.713,5.585,4.195,13.678,4.218,13.754c0.346,1.129,0.232,2.323-0.32,3.365c-0.553,1.042-1.478,1.805-2.605,2.151
		c-0.421,0.129-0.857,0.195-1.295,0.195h-0.001c-0.779,0-1.517-0.2-2.16-0.559l3.264,10.72c0.167,0.591,0.052,1.228-0.308,1.705
		c-0.35,0.463-0.893,0.729-1.49,0.729H74.84c0,9.83,0,16.887,0,16.89c0,3.186,2.582,5.768,5.768,5.768
		c3.186,0,5.768-2.582,5.768-5.768c0-0.009,0-45.087,0-45.087c0-0.329,0.152-0.466,0.477-0.466h0.93
		c0.325,0,0.477,0.137,0.477,0.466c0,0,0,45.078,0,45.087c0,3.186,2.582,5.768,5.768,5.768c3.185,0,5.768-2.582,5.768-5.768
		c0-0.009,0-76.628,0-76.628c0-0.257,0.208-0.465,0.465-0.465h0.947c0.257,0,0.465,0.208,0.465,0.465c0,0,0.004,27.31,0.006,27.311
		c0.002,2.469,2.004,4.47,4.473,4.47c2.47,0,4.473-2.003,4.473-4.473c0-0.014,0-30.709,0-31.075
		c-0.003-6.121-4.711-10.829-10.597-10.829c-0.15,0-25.275,0-25.425,0c-5.885,0-9.829,4.663-10.594,10.829
		c-0.001,0.009-0.005,0.039-0.011,0.079c-0.006-0.04-0.01-0.07-0.011-0.079c-0.765-6.166-4.708-10.829-10.594-10.829
		c-0.15,0-25.275,0-25.425,0C22.084,25.378,17.375,30.087,17.375,36.207z"/>
	<circle cx="87.316" cy="14.213" r="8.583"/>
	<path d="M72.748,98.152h5.673c0.297,0,0.343-0.284,0.297-0.448l-8.517-27.976c-0.045-0.163,0.035-0.307,0.205-0.305
		c0,0,1.259,0,1.286,0c0.298,0,0.425,0.244,0.451,0.303c0,0,4.245,13.814,4.246,13.815c0.463,1.506,2.058,2.352,3.564,1.89
		c1.507-0.462,2.354-2.058,1.892-3.565c-0.002-0.006-2.507-8.176-4.228-13.787c-0.018-0.068-0.034-0.128-0.048-0.175
		c-0.652-2.266-2.588-7.425-7.401-7.425H57.913c-4.484,0-6.832,5.159-7.484,7.425c-0.014,0.048-4.274,13.957-4.275,13.963
		c-0.462,1.507,0.385,3.103,1.892,3.565c1.506,0.462,3.101-0.384,3.564-1.89c0.002,0,4.232-13.815,4.232-13.815
		c0.025-0.059,0.153-0.303,0.451-0.303c0.027,0,1.342,0,1.342,0c0.17-0.003,0.269,0.142,0.224,0.305l-8.503,27.976
		c-0.046,0.163,0,0.448,0.297,0.448h5.902c0.17,0,0.294,0.138,0.294,0.307c0,0-0.001,20.223-0.001,20.231
		c0,2.032,1.647,3.68,3.68,3.68c2.032,0,3.68-1.647,3.68-3.68l0.001-20.231c0-0.17,0.137-0.307,0.307-0.307c0,0,1.135,0,1.27,0
		s0.312,0.137,0.312,0.307l0.001,20.231c0,2.032,1.647,3.68,3.68,3.68c2.032,0,3.68-1.647,3.68-3.68
		c0-0.007-0.001-20.231-0.001-20.231C72.454,98.29,72.578,98.152,72.748,98.152z"/>
	<path d="M72.054,56.084c0.48-0.057,1.239-1.825,1.98-3.365c0.122-0.252,0.327-0.66,0.415-0.928
		c0.543-1.655,0.095-4.056-1.993-4.263c-1.266-0.126-2.583,0.54-3.511,1.164c-0.234,0.158-0.568,0.124-0.772-0.068
		c-1.079-1.004-2.525-1.62-4.115-1.62c-1.529,0-2.926,0.57-3.989,1.507c-0.212,0.185-0.552,0.218-0.788,0.065
		c-0.914-0.588-2.146-1.169-3.336-1.049c-2.088,0.208-2.536,2.609-1.993,4.264c0.088,0.268,0.293,0.674,0.414,0.928
		c0.741,1.541,1.5,3.308,1.984,3.367c0.482,0.061-1.063-3.653,0.047-4.811c0.194-0.203,0.653-0.302,0.935-0.277
		c0.14,0.011,0.302,0.036,0.482,0.079c0.273,0.068,0.412,0.374,0.351,0.649c-0.095,0.426-0.144,0.867-0.144,1.322
		c0,3.336,2.705,6.04,6.04,6.04c3.336,0,6.04-2.705,6.04-6.04c0-0.412-0.043-0.815-0.122-1.205
		c-0.056-0.275,0.081-0.599,0.347-0.689c0.288-0.097,0.543-0.14,0.746-0.158c0.279-0.022,0.739,0.074,0.935,0.277
		C73.117,52.43,71.57,56.145,72.054,56.084z"/>
</g>
</svg>
