<?xml version="1.0" encoding="iso-8859-1"?>
<!-- Generator: Adobe Illustrator 17.1.0, SVG Export Plug-In . SVG Version: 6.00 Build 0)  -->
<!DOCTYPE svg PUBLIC "-//W3C//DTD SVG 1.1//EN" "http://www.w3.org/Graphics/SVG/1.1/DTD/svg11.dtd">
<svg version="1.1" id="Layer_1" xmlns="http://www.w3.org/2000/svg" xmlns:xlink="http://www.w3.org/1999/xlink" x="0px" y="0px"
	 viewBox="0 0 128 128" style="enable-background:new 0 0 128 128;" xml:space="preserve">
<g>
	<path d="M40.102,95.015c-0.326,0-0.479,0.138-0.479,0.468c0,0,0,2.482,0,6.284c0.626,0.447,1.257,0.885,1.893,1.313
		c0-4.533,0-7.596,0-7.596c0-0.33-0.153-0.468-0.479-0.468H40.102z"/>
	<path d="M87.898,95.015h-0.935c-0.326,0-0.479,0.138-0.479,0.468c0,0,0,3.063,0,7.596c0.636-0.428,1.266-0.866,1.893-1.313
		c0-3.802,0-6.284,0-6.284C88.377,95.153,88.225,95.015,87.898,95.015z"/>
	<path d="M17.149,60.003c0-6.151,4.731-10.882,10.645-10.882c0.15,0,25.399,0,25.549,0c5.914,0,9.876,4.685,10.645,10.882
		c0.001,0.009,0.005,0.039,0.011,0.079c0.006-0.04,0.01-0.07,0.011-0.079c0.769-6.197,4.731-10.882,10.645-10.882
		c0.15,0,25.398,0,25.549,0c5.914,0,10.645,4.731,10.646,10.882c0,0.209,0,10.289,0,18.94c13.404-19.392,17.733-42.246,2.82-56.446
		c-21.575-19.777-46.087,4.061-49.237,7.304c-0.188,0.193-0.379,0.353-0.434,0.356c-0.055-0.003-0.246-0.163-0.433-0.356
		c-3.15-3.243-27.663-27.081-49.237-7.304c-14.913,14.2-10.584,37.053,2.82,56.446C17.149,70.293,17.149,60.213,17.149,60.003z
		 M87.43,29.277c4.763,0,8.625,3.861,8.625,8.625c0,4.763-3.861,8.625-8.625,8.625c-4.763,0-8.625-3.861-8.625-8.625
		C78.806,33.138,82.667,29.277,87.43,29.277z M40.569,29.277c4.763,0,8.625,3.861,8.625,8.625c0,4.763-3.861,8.625-8.625,8.625
		s-8.625-3.861-8.625-8.625C31.944,33.138,35.805,29.277,40.569,29.277z"/>
	<path d="M101.389,63.321h-0.952c-0.258,0-0.467,0.209-0.467,0.468c0,0,0,12.91,0,28.157c0.641-0.639,1.271-1.287,1.892-1.943
		c-0.002-5.334-0.005-26.214-0.005-26.214C101.856,63.53,101.647,63.321,101.389,63.321z"/>
	<path d="M74.893,63.788c0-0.258-0.209-0.468-0.467-0.468h-0.952c-0.258,0-0.468,0.209-0.468,0.468c0,0-4.498,27.444-4.501,27.445
		c-0.14,0.834-0.4,1.555-0.748,2.163c-0.622,1.145-1.676,2.015-3.041,2.222c-0.172,0.026-0.342,0.04-0.511,0.047
		c-0.068,0.003-0.137,0-0.205,0.001c-0.068,0-0.138,0.003-0.205-0.001c-0.169-0.007-0.339-0.021-0.511-0.047
		c-1.365-0.207-2.419-1.076-3.041-2.222c-0.348-0.608-0.608-1.329-0.748-2.163c-0.002-0.001-4.501-27.445-4.501-27.445
		c0-0.258-0.209-0.468-0.468-0.468h-0.952c-0.258,0-0.467,0.209-0.467,0.468c0,0,0,24.423,0,45.76
		c3.574,1.595,7.215,2.856,10.873,3.722h0.041c3.657-0.866,7.298-2.127,10.873-3.722C74.893,88.211,74.893,63.788,74.893,63.788z"/>
	<path d="M27.563,63.321h-0.952c-0.258,0-0.468,0.209-0.468,0.468c0,0-0.003,20.881-0.005,26.214
		c0.621,0.656,1.251,1.304,1.892,1.943c0-15.247,0-28.157,0-28.157C28.031,63.53,27.822,63.321,27.563,63.321z"/>
</g>
</svg>
