<?xml version="1.0" encoding="iso-8859-1"?>
<!-- Generator: Adobe Illustrator 17.1.0, SVG Export Plug-In . SVG Version: 6.00 Build 0)  -->
<!DOCTYPE svg PUBLIC "-//W3C//DTD SVG 1.1//EN" "http://www.w3.org/Graphics/SVG/1.1/DTD/svg11.dtd">
<svg version="1.1" id="Layer_1" xmlns="http://www.w3.org/2000/svg" xmlns:xlink="http://www.w3.org/1999/xlink" x="0px" y="0px"
	 viewBox="0 0 128 128" style="enable-background:new 0 0 128 128;" xml:space="preserve">
<g>
	<circle cx="28.35" cy="19.638" r="7.646"/>
	<path d="M7.303,64.428c2.103,0.645,4.331-0.536,4.977-2.639c0.002,0,5.956-19.413,5.956-19.413
		c0.035-0.082,0.213-0.423,0.629-0.423c0.038,0,0.839,0,0.839,0h0.002c0.237-0.004,0.375,0.198,0.313,0.425L8.099,81.388
		c-0.064,0.227,0,0.625,0.415,0.625h8.362c0.237,0,0.41,0.192,0.41,0.429c0,0-0.002,28.418-0.002,28.429
		c0,2.838,2.301,5.138,5.138,5.138c2.838,0,5.138-2.301,5.138-5.138l0.002-28.429c0-0.237,0.191-0.428,0.428-0.428h0.007h0.821
		h0.007c0.237,0,0.428,0.191,0.428,0.428l0.002,28.429c0,2.838,2.301,5.138,5.138,5.138c2.838,0,5.138-2.301,5.138-5.138
		c0-0.01-0.002-28.429-0.002-28.429c0-0.237,0.173-0.429,0.41-0.429h8.362c0.415,0,0.479-0.397,0.415-0.625l-11.92-39.008
		c-0.063-0.227,0.076-0.429,0.313-0.425h0.002c0,0,0.801,0,0.839,0c0.416,0,0.594,0.341,0.629,0.423c0,0,6.538,21.411,6.54,21.412
		c0.054,0.175,0.122,0.341,0.197,0.502l-0.013,0.005c0.067,0.224,8.575,15.022,8.575,15.022c0.12,0.2,0.177,0.547,0.131,0.777
		L50.55,97.151c-0.047,0.228,0.105,0.413,0.338,0.413l2.233,0v13.609c0.039,2.486,2.204,4.835,4.929,4.835
		c2.725,0,5.18-2.336,5.22-4.822l0.002-12.531c0-0.229,0.185-0.414,0.414-0.414h0.005h0.617h0.005c0.229,0,0.414,0.185,0.414,0.414
		l0.002,12.531c0.04,2.486,2.496,4.822,5.22,4.822s4.89-2.349,4.929-4.835V97.564l2.233,0c0.234,0,0.385-0.185,0.338-0.413
		l-3.461-17.056c-0.047-0.23,0.011-0.577,0.131-0.777c0,0,8.507-14.798,8.575-15.022l-0.013-0.005
		c0.075-0.162,0.143-0.327,0.197-0.502c0.002,0,6.54-21.412,6.54-21.412c0.035-0.082,0.213-0.423,0.629-0.423
		c0.038,0,0.839,0,0.839,0h0.002c0.237-0.004,0.375,0.198,0.313,0.425l-11.92,39.008c-0.064,0.227,0,0.625,0.415,0.625h8.362
		c0.237,0,0.41,0.192,0.41,0.429c0,0-0.002,28.418-0.002,28.429c0,2.838,2.301,5.138,5.138,5.138c2.838,0,5.138-2.301,5.138-5.138
		l0.002-28.429c0-0.237,0.191-0.428,0.428-0.428h0.007h0.821h0.007c0.237,0,0.428,0.191,0.428,0.428l0.002,28.429
		c0,2.838,2.301,5.138,5.138,5.138s5.138-2.301,5.138-5.138c0-0.01-0.002-28.429-0.002-28.429c0-0.237,0.173-0.429,0.41-0.429h8.362
		c0.415,0,0.48-0.397,0.415-0.625l-11.92-39.008c-0.063-0.227,0.076-0.429,0.313-0.425h0.002c0,0,0.801,0,0.839,0
		c0.416,0,0.594,0.341,0.629,0.423c0,0,5.954,19.413,5.956,19.413c0.646,2.102,2.874,3.284,4.977,2.639
		c2.104-0.645,3.287-2.874,2.642-4.978c-0.002-0.008-5.951-19.43-5.97-19.497c-0.91-3.164-3.128-10.368-9.389-10.368H91.183
		c-6.72,0-8.458,7.204-9.369,10.368c0,0-7.046,23.112-7.048,23.12c-0.111,0.363-4.302,7.147-4.302,7.147
		c-0.122,0.198-0.409,0.359-0.643,0.359H58.179c-0.233,0-0.521-0.161-0.643-0.359c0,0-4.191-6.785-4.302-7.147
		c-0.002-0.008-7.048-23.12-7.048-23.12c-0.91-3.164-2.648-10.368-9.369-10.368H20.02c-6.261,0-8.479,7.204-9.389,10.368
		c-0.019,0.067-5.968,19.489-5.97,19.497C4.016,61.555,5.199,63.783,7.303,64.428z"/>
	<circle cx="100.073" cy="19.638" r="7.646"/>
	<path d="M70.718,65.558c0.452-0.056,1.195-1.883,1.886-3.275c0.691-1.392,0.422-3.858-1.543-4.054
		c-1.089-0.108-2.223,0.469-3.017,1.005c-0.192,0.131-0.471,0.103-0.641-0.056c-0.925-0.865-2.167-1.396-3.535-1.396
		c-1.315,0-2.513,0.491-3.426,1.298c-0.174,0.155-0.458,0.181-0.654,0.054c-0.783-0.504-1.846-1.007-2.868-0.906
		c-1.967,0.194-2.234,2.662-1.543,4.054c0.691,1.392,1.433,3.219,1.889,3.275c0.415,0.052-0.919-3.15,0.05-4.129
		c0.164-0.166,0.544-0.247,0.777-0.228c0.125,0.009,0.273,0.032,0.439,0.073c0.226,0.056,0.342,0.312,0.291,0.538
		c-0.084,0.368-0.127,0.751-0.127,1.145c0,2.856,2.316,5.173,5.173,5.173s5.173-2.316,5.173-5.173c0-0.359-0.037-0.708-0.107-1.044
		c-0.047-0.228,0.065-0.497,0.288-0.572c0.258-0.088,0.486-0.125,0.665-0.14c0.232-0.019,0.613,0.063,0.777,0.228
		C71.637,62.41,70.301,65.611,70.718,65.558z"/>
</g>
</svg>
