<?xml version="1.0" encoding="iso-8859-1"?>
<!-- Generator: Adobe Illustrator 17.1.0, SVG Export Plug-In . SVG Version: 6.00 Build 0)  -->
<!DOCTYPE svg PUBLIC "-//W3C//DTD SVG 1.1//EN" "http://www.w3.org/Graphics/SVG/1.1/DTD/svg11.dtd">
<svg version="1.1" id="Layer_1" xmlns="http://www.w3.org/2000/svg" xmlns:xlink="http://www.w3.org/1999/xlink" x="0px" y="0px"
	 viewBox="0 0 128 128" style="enable-background:new 0 0 128 128;" xml:space="preserve">
<g>
	<circle cx="54.481" cy="34.469" r="7.08"/>
	<path d="M27.925,77.402c0.422-0.052,1.109-1.744,1.749-3.033c0.64-1.289,0.393-3.574-1.429-3.754
		c-0.946-0.093-1.93,0.372-2.655,0.839c-0.182,0.118-0.445,0.094-0.606-0.05c-0.846-0.747-1.955-1.202-3.173-1.202
		c-1.266,0-2.417,0.491-3.273,1.292c-0.157,0.147-0.415,0.173-0.593,0.052c-0.735-0.496-1.785-1.031-2.794-0.931
		c-1.82,0.182-2.069,2.465-1.429,3.754c0.64,1.289,1.329,2.981,1.747,3.032c0.386,0.048-0.851-2.915,0.047-3.823
		c0.152-0.152,0.505-0.228,0.72-0.211c0.166,0.014,0.377,0.048,0.616,0.13c0.206,0.069,0.31,0.318,0.266,0.529
		c-0.064,0.311-0.099,0.635-0.099,0.967c0,2.645,2.145,4.79,4.79,4.79c2.645,0,4.79-2.145,4.79-4.79c0-0.365-0.04-0.719-0.118-1.06
		c-0.047-0.209,0.061-0.446,0.27-0.498c0.154-0.038,0.291-0.059,0.407-0.068c0.216-0.017,0.567,0.057,0.72,0.211
		C28.776,74.485,27.541,77.45,27.925,77.402z"/>
	<path d="M113.705,73.558c-1.909-0.439-3.53-0.369-4.271-0.305c-0.209,0.019-0.377,0.211-0.377,0.421v6.258
		c0,0.211-0.163,0.335-0.369,0.288c-0.411-0.093-0.783-0.143-1.211-0.143c-3.03,0-5.483,2.426-5.483,5.456
		c0,0.831,0.189,1.618,0.519,2.305c0.091,0.189,0.008,0.335-0.202,0.335H78.269c-0.211,0-0.446-0.157-0.529-0.35l-2.576-6.887
		c0.749-0.675,1.228-1.643,1.228-2.731c0-0.012-2.653-25.293-2.687-25.593c-0.581-5.112-3.884-8.933-8.739-8.933
		c-0.124,0-6.649,0-9.71,0c0,0-11.14,0-11.263,0c-4.855,0-8.739,3.884-8.739,8.933c0,0.279-2.574,18.608-2.973,21.453l-4.607,7.654
		c-0.113,0.183-0.379,0.332-0.595,0.332H16.47c-0.216,0-0.488-0.147-0.606-0.327l-3.519-5.373c-0.119-0.18-0.289-0.486-0.405-0.668
		c-0.263-0.412-0.623-0.77-1.069-1.038c-1.546-0.926-4.197-0.424-5.123,1.123c-0.687,1.148-0.524,2.548,0.237,3.628l6.79,11.065
		c0.113,0.184,0.175,0.505,0.137,0.718l-3.21,15.478c-0.037,0.211,0.107,0.384,0.323,0.384l1.985,0
		c0.006,5.445,0.017,12.787,0.032,12.919c0.241,2.162,2.199,4.16,4.582,4.16c2.523,0,4.356-2.103,4.393-4.405l0.004-11.664
		c0-0.212,0.172-0.384,0.384-0.384h0.575c0.212,0,0.384,0.172,0.384,0.384l0.002,11.603c0.037,2.302,2.311,4.465,4.834,4.465
		c2.523,0,4.528-2.176,4.564-4.478v-12.602l2.068,0c0.216,0,0.356-0.171,0.313-0.382l-3.205-15.794
		c-0.043-0.213,0.01-0.534,0.121-0.72c0,0,7.878-13.703,7.94-13.911l-0.005-0.002c0.297-0.529,0.505-1.139,0.614-1.792
		c0.002-0.001,3.029-18.719,3.029-18.719c0-0.212,0.172-0.384,0.384-0.384h0.782c0.212,0,0.384,0.172,0.384,0.384
		c0,0,0,63.203,0,63.21c0,2.627,2.13,4.758,4.758,4.758s4.758-2.13,4.758-4.758c0-0.007,0-37.192,0-37.192
		c0-0.271,0.125-0.384,0.393-0.384h0.767c0.268,0,0.393,0.113,0.393,0.384c0,0,0,37.185,0,37.192c0,2.627,2.13,4.758,4.758,4.758
		s4.758-2.13,4.758-4.758c0-1.785,0-0.863,0-63.21c0-0.212,0.172-0.384,0.384-0.384h0.782c0.212,0,0.384,0.172,0.384,0.384
		c0,0,2.69,22.487,2.692,22.488c0.001,1.91,1.459,3.461,3.319,3.65c1.467,3.862,3.128,8.203,3.128,8.203
		c0.096,0.187,0.136,0.507,0.128,0.716c-0.047,1.293,0.747,3.356,1.08,4.158c1.454,4.254,4.518,9.356,10.247,12.55
		c-0.004,0.011-0.003,0.023-0.007,0.034l-0.665,1.547c-0.035,0.081-0.101,0.153-0.178,0.214c-2.986,0.037-5.396,2.466-5.396,5.46
		c0,3.018,2.446,5.464,5.464,5.464c3.018,0,5.464-2.446,5.464-5.464c0-1.253-0.427-2.404-1.136-3.326
		c0.008-0.049,0.001-0.105,0.019-0.147l0.784-1.825c0.014-0.033,0.038-0.06,0.06-0.088c2.489,0.767,5.337,1.22,8.606,1.22
		c4.088,0,7.536-0.647,10.446-1.718l0.991,2.306c0.07,0.166,0.048,0.397-0.02,0.579c-0.567,0.861-0.899,1.891-0.899,2.999
		c0,3.018,2.446,5.464,5.464,5.464s5.464-2.446,5.464-5.464c0-2.317-1.445-4.293-3.481-5.087c-0.641-0.29-1.351-0.455-2.1-0.455
		c-0.013,0-0.029,0-0.042,0.002c-0.024,0-0.11-0.155-0.192-0.349l-0.897-2.09c7.668-4.835,9.991-13.045,9.991-17.222
		C124.651,84.046,123.335,75.35,113.705,73.558z"/>
</g>
</svg>
