<?xml version="1.0" encoding="iso-8859-1"?>
<!-- Generator: Adobe Illustrator 17.1.0, SVG Export Plug-In . SVG Version: 6.00 Build 0)  -->
<!DOCTYPE svg PUBLIC "-//W3C//DTD SVG 1.1//EN" "http://www.w3.org/Graphics/SVG/1.1/DTD/svg11.dtd">
<svg version="1.1" id="Layer_1" xmlns="http://www.w3.org/2000/svg" xmlns:xlink="http://www.w3.org/1999/xlink" x="0px" y="0px"
	 viewBox="0 0 128 128" style="enable-background:new 0 0 128 128;" xml:space="preserve">
<g>
	<circle cx="42.892" cy="12.635" r="8.855"/>
	<path d="M78.753,124.219c3.155,0,5.999-2.705,6.045-5.584l0.002-14.511c0-0.265,0.215-0.48,0.48-0.48H86
		c0.265,0,0.48,0.215,0.48,0.48l0.005,14.586c0.046,2.879,2.339,5.509,5.494,5.509c2.98,0,5.429-2.499,5.73-5.202
		c0.029-0.264,0.047-34.49,0.047-34.49s0.105-0.667,0.234-0.899c0,0,10.431-18.675,10.562-18.906
		c0.795-1.407,0.829-3.189-0.061-4.675c-1.317-2.199-4.168-2.914-6.367-1.597c-0.806,0.483-1.41,1.222-1.79,2.009l-5.81,10.473
		c-0.268,0.463-0.571,0.645-1.138,0.645H77.219c-0.265,0-0.587-0.187-0.719-0.416c0,0-5.096-8.928-6.075-10.645
		c-0.89-6.343-3.488-24.878-3.488-25.191c0-6.315-4.858-11.172-10.93-11.172c-0.155,0-14.087,0-14.087,0c-3.828,0-11.989,0-12.144,0
		c-6.072,0-10.93,4.858-10.93,11.172c0,0.378,0,32.046,0,32.06c0,2.548,2.066,4.615,4.615,4.615c2.547,0,4.613-2.064,4.615-4.611
		c0.002-0.001,0.006-28.177,0.006-28.177c0-0.265,0.215-0.48,0.48-0.48h0.978c0.265,0,0.48,0.215,0.48,0.48c0,0,0,79.047,0,79.057
		c0,3.286,2.664,5.951,5.951,5.951c3.286,0,5.951-2.664,5.951-5.951c0-0.009,0-46.516,0-46.516c0-0.339,0.157-0.481,0.492-0.481
		h0.96c0.335,0,0.492,0.142,0.492,0.481c0,0,0,46.507,0,46.516c0,3.286,2.664,5.951,5.951,5.951s5.951-2.664,5.951-5.951
		c0-0.009,0-79.057,0-79.057c0-0.265,0.215-0.48,0.48-0.48h0.977c0.265,0,0.48,0.215,0.48,0.48c0,0,3.787,23.41,3.789,23.411
		c0.086,0.514,0.222,1.005,0.402,1.464c0.022,0.056,0.046,0.112,0.07,0.167c0.163,0.384,0.359,0.743,0.587,1.069L72.805,83.07
		c0.133,0.229,0.24,0.63,0.24,0.895v34.654C73.091,121.498,75.598,124.219,78.753,124.219z"/>
	<path d="M81.62,56.668c-2.038,1.077-3.427,3.217-3.427,5.682c0,3.548,2.876,6.425,6.425,6.425c3.548,0,6.425-2.876,6.425-6.425
		c0-2.194-1.1-4.13-2.778-5.289V53.3l-1.732,2.917c-0.189-0.059-0.382-0.109-0.578-0.15V53.3l-1.579,2.633
		c-0.256,0.009-0.508,0.033-0.755,0.071V53.3L81.62,56.668z"/>
</g>
</svg>
