<?xml version="1.0" encoding="iso-8859-1"?>
<!-- Generator: Adobe Illustrator 17.1.0, SVG Export Plug-In . SVG Version: 6.00 Build 0)  -->
<!DOCTYPE svg PUBLIC "-//W3C//DTD SVG 1.1//EN" "http://www.w3.org/Graphics/SVG/1.1/DTD/svg11.dtd">
<svg version="1.1" id="Layer_1" xmlns="http://www.w3.org/2000/svg" xmlns:xlink="http://www.w3.org/1999/xlink" x="0px" y="0px"
	 viewBox="0 0 128 128" style="enable-background:new 0 0 128 128;" xml:space="preserve">
<g>
	<circle cx="32.613" cy="17.341" r="9.777"/>
	<circle cx="67.734" cy="43.777" r="6.6"/>
	<path d="M14.031,73.473l5.404,0.986l2.495,8.973l-3.405,33.437c-0.279,2.748,1.721,5.201,4.468,5.481
		c0.173,0.018,0.344,0.025,0.513,0.025c2.534,0,4.706-1.919,4.969-4.493l3.5-34.375c0.062-0.62,0.01-1.246-0.157-1.847
		l-3.529-12.692l3.803-20.845l2.223,4.927c0.634,1.409,1.882,2.445,3.383,2.81l14.5,3.515c0.396,0.096,0.792,0.142,1.182,0.142
		c0.536,0,1.058-0.092,1.553-0.256l8.859,3.246c0.443,0.163,0.909,0.244,1.376,0.244c0.408,0,0.817-0.062,1.211-0.188l8.007-2.544
		l17.241,15.193c0.481,0.424,1.093,0.593,1.679,0.532l4.35,8.926c0.393,0.805,1.043,1.455,1.848,1.846l14.75,7.166
		c0.563,0.273,1.158,0.403,1.745,0.403c1.483,0,2.909-0.829,3.601-2.253c0.966-1.987,0.138-4.381-1.85-5.346l-13.508-6.562
		l-4.935-10.127l2.415-2.74c0.784-0.89,0.687-2.256-0.217-3.053L83.082,47.77c-0.904-0.796-3.728-2.478-6.454,0.339l-3.468,3.936
		c-0.096,0.023-0.192,0.03-0.287,0.06l-7.613,2.419l-7.799-2.857c-0.673-0.966-1.673-1.712-2.907-2.011l-12.121-2.938l-5.915-13.103
		c-0.579-1.29-1.641-2.206-2.874-2.648c-0.135-0.06-0.277-0.109-0.429-0.137L33,30.791c-0.12-0.026-0.239-0.049-0.361-0.066
		l-12.953-2.363c-1.087-0.198-2.139,0.579-2.35,1.736l-6.679,36.608C9.917,72.042,12.945,73.274,14.031,73.473z"/>
</g>
</svg>
