<?xml version="1.0" encoding="iso-8859-1"?>
<!-- Generator: Adobe Illustrator 17.1.0, SVG Export Plug-In . SVG Version: 6.00 Build 0)  -->
<!DOCTYPE svg PUBLIC "-//W3C//DTD SVG 1.1//EN" "http://www.w3.org/Graphics/SVG/1.1/DTD/svg11.dtd">
<svg version="1.1" id="Layer_1" xmlns="http://www.w3.org/2000/svg" xmlns:xlink="http://www.w3.org/1999/xlink" x="0px" y="0px"
	 viewBox="0 0 128 128" style="enable-background:new 0 0 128 128;" xml:space="preserve">
<g>
	<circle cx="81.843" cy="33.861" r="7.51"/>
	<circle cx="82.083" cy="10.197" r="6.632"/>
	<path d="M38.117,86.375c0-0.281-0.065-0.235-0.318-0.115c-2.965,1.406-13.298,7.073-16.149,8.642
		c-2.316,1.347-1.774,4.968,2.385,4.968h5.848c0.281,0,0.694,0.141,0.775,0.41c0,0-0.205,20.976-0.205,21.067
		c0,1.69,1.329,3.059,2.969,3.059s2.951-1.37,2.951-3.059c0-0.107-0.034-9.158-0.034-9.158c0-0.281,0.227-0.645,0.508-0.649h9.591
		c0.28-0.004,0.379,0.181,0.232,0.419c-0.939,1.517-3.385,5.859-4.509,7.592c-0.861,1.136-0.773,2.759,0.261,3.794
		c1.13,1.13,3.015,1.174,4.1-0.004c0.065-0.071,3.313-5.042,5.045-8.617c0.122-0.253,0.219-0.231,0.219,0.05
		c0.002,2.384,0.023,5.052,0.096,6.456c0,0.007-0.001,0.014-0.001,0.022c0,1.707,1.701,3.091,3.373,3.091
		c1.672,0,3.315-1.428,3.315-3.136c0-0.021,0-18.328,0-18.328c0.01-0.28,0.242-0.552,0.504-0.652
		c2.258-0.867,2.302-3.898,2.225-5.109c-0.018-0.28-0.243-0.388-0.483-0.242l-2.83,1.715c-0.24,0.145-0.662,0.263-0.943,0.263
		c-2.922,0-17.482,0-18.28,0c-0.579,0-0.678-0.774-0.676-1.313c0.001-0.281,0.03-0.734,0.03-1.015V86.375z"/>
	<path d="M73.2,19.244l-9.395,5.511l-0.905-2.16c-0.095-0.226-0.218-0.431-0.343-0.633c-1.146-1.843-3.479-2.646-5.546-1.78
		c-2.292,0.96-3.373,3.597-2.413,5.889l6.667,15.917c0.282,0.672,0.722,1.266,1.283,1.729l9.331,7.716
		c0.014,0.072,0.024,68.506,0.024,68.506c0.011,2.286,2.056,4.662,4.577,4.662c2.335,0,4.251-2.003,4.536-4.115
		c0.038-0.278,0.033-37.382,0.033-37.382c0-0.281,0.227-0.508,0.508-0.508h1.778c0.281,0,0.508,0.227,0.508,0.508l-0.004,36.911
		c0.019,2.286,1.955,4.586,4.476,4.586c2.521,0,4.659-2.32,4.678-4.606L92.99,50.455l8.148-6.737
		c0.562-0.464,1.001-1.058,1.283-1.729l6.667-15.917c0.96-2.292-0.12-4.929-2.413-5.889c-1.808-0.759-3.817-0.233-5.062,1.142
		c-0.334,0.368-0.624,0.785-0.827,1.27l-0.834,1.991l-9.509-5.367c-0.45-0.254-0.957-0.387-1.473-0.387c0,0-0.001,0-0.002,0h-14.25
		C74.185,18.832,73.661,18.974,73.2,19.244z M88.18,24.832l9.438,5.327l-3.07,7.33L87.882,43H75.804l-6.665-5.512l-2.994-7.149
		l9.389-5.508H88.18z"/>
</g>
</svg>
