<?xml version="1.0" encoding="iso-8859-1"?>
<!-- Generator: Adobe Illustrator 17.1.0, SVG Export Plug-In . SVG Version: 6.00 Build 0)  -->
<!DOCTYPE svg PUBLIC "-//W3C//DTD SVG 1.1//EN" "http://www.w3.org/Graphics/SVG/1.1/DTD/svg11.dtd">
<svg version="1.1" id="Layer_1" xmlns="http://www.w3.org/2000/svg" xmlns:xlink="http://www.w3.org/1999/xlink" x="0px" y="0px"
	 viewBox="0 0 128 128" style="enable-background:new 0 0 128 128;" xml:space="preserve">
<g>
	<path d="M98.739,78.759c0-0.268-0.124-0.38-0.389-0.38h-0.759c-0.265,0-0.389,0.112-0.389,0.38c0,0,0,8.498,0,17.326
		c0.517-0.465,1.03-0.936,1.537-1.413C98.739,86.373,98.739,78.759,98.739,78.759z"/>
	<path d="M109.307,52.638h-0.773c-0.21,0-0.379,0.17-0.379,0.379c0,0,0,15.763,0,31.461c1.477-1.849,2.876-3.741,4.187-5.665
		c-1.528-0.435-2.649-1.838-2.65-3.506c-0.002-0.001-0.005-22.29-0.005-22.29C109.686,52.808,109.516,52.638,109.307,52.638z"/>
	<path d="M12.255,50.59c0.834-2.899,2.865-9.499,8.601-9.499h15.388c6.156,0,7.749,6.6,8.583,9.499c0,0,5.467,17.855,5.469,17.862
		c0.591,1.927-0.492,3.969-2.42,4.56c-1.927,0.591-3.967-0.492-4.56-2.418c-0.002,0-5.456-17.785-5.456-17.785
		c-0.032-0.075-0.195-0.387-0.576-0.387c-0.035,0-0.768,0-0.768,0h-0.002c-0.217-0.003-0.344,0.181-0.286,0.39l10.92,35.736
		c0.059,0.208,0,0.572-0.38,0.572h-7.661c-0.217,0-0.376,0.176-0.376,0.393c0,0,0,6.475,0.001,12.968
		c5.944,4.273,12.307,7.741,18.812,10.076c0.001-9.983,0.003-34.632,0.003-34.632c0-0.13-0.119-0.236-0.249-0.236h-0.979
		c-0.13,0-0.233,0.106-0.233,0.236l0.003,13.776c-0.001,1.25-1.022,2.209-2.273,2.209c-1.251,0-2.283-0.96-2.283-2.211
		c0-0.007,0-15.555,0-15.74c0-3.1,2.901-5.56,5.882-5.56c0.076,0,13.296,0,13.372,0c2.981,0,5.895,2.46,5.895,5.56
		c0,0.186,0,15.733,0,15.74c0,1.251-1.019,2.211-2.271,2.211c-1.251,0-2.285-0.959-2.286-2.209c-0.001,0,0.004-13.776,0.004-13.776
		c0-0.13-0.102-0.236-0.232-0.236h-0.994c-0.13,0-0.236,0.106-0.236,0.236c0,0,0,22.277,0,33.051c0,0.498,0,1.003,0,1.506
		c5.895-2.138,11.671-5.207,17.121-8.958c0-18.169,0-50.508,0-50.508c0-0.21-0.17-0.379-0.379-0.379h-0.773
		c-0.21,0-0.379,0.17-0.379,0.379c0,0-0.003,22.29-0.005,22.29c-0.002,2.015-1.635,3.648-3.651,3.648
		c-2.016,0-3.651-1.634-3.651-3.651c0-0.011,0-25.063,0-25.362c0-4.996,3.843-8.838,8.646-8.838c0.122,0,11.144,0,11.144,0
		c3.028,0,9.485,0,9.607,0c4.803,0,8.646,3.843,8.646,8.838c0,0.222,0,14.09,0,21.222c9.573-17.836,11.127-37.085-2.104-49.684
		c-22.103-20.261-47.216,4.161-50.444,7.483c-0.192,0.198-0.388,0.362-0.444,0.364c-0.056-0.003-0.252-0.167-0.444-0.364
		c-3.228-3.322-28.341-27.744-50.444-7.483C1.463,32.573,1.274,48.82,7.929,64.719C9.528,59.497,12.243,50.634,12.255,50.59z
		 M91.108,30.581c0.093-0.456,0.231-0.896,0.408-1.315c0.133-0.314,0.288-0.617,0.464-0.906c0.351-0.578,0.783-1.101,1.281-1.553
		s1.061-0.834,1.673-1.129c0.107-0.052,0.224-0.085,0.334-0.132c0.834-0.35,1.742-0.559,2.703-0.559
		c0.484,0,0.956,0.049,1.412,0.142s0.896,0.231,1.315,0.408c0.838,0.354,1.593,0.867,2.227,1.501
		c0.634,0.634,1.147,1.389,1.501,2.227c0.177,0.419,0.315,0.859,0.408,1.315c0.093,0.456,0.142,0.928,0.142,1.412
		s-0.049,0.956-0.142,1.412c-0.093,0.456-0.231,0.896-0.408,1.315c-0.111,0.262-0.237,0.516-0.378,0.76
		c-0.422,0.733-0.972,1.383-1.621,1.919c-0.519,0.428-1.101,0.783-1.729,1.049c-0.419,0.177-0.859,0.315-1.315,0.408
		s-0.928,0.142-1.412,0.142s-0.956-0.049-1.412-0.142s-0.896-0.231-1.315-0.408c-0.419-0.177-0.817-0.394-1.19-0.646
		c-0.745-0.504-1.389-1.147-1.892-1.892c-0.252-0.373-0.469-0.771-0.646-1.19c-0.177-0.419-0.315-0.859-0.408-1.315
		s-0.142-0.928-0.142-1.412S91.015,31.037,91.108,30.581z M61.91,60.816l1.465-2.467v1.98c0.181-0.028,0.366-0.045,0.553-0.052
		l1.157-1.928v2.026c0.144,0.03,0.285,0.067,0.424,0.11l1.268-2.136v2.755c1.229,0.849,2.035,2.267,2.035,3.873
		c0,2.599-2.107,4.705-4.705,4.705c-2.599,0-4.705-2.107-4.705-4.705C59.401,63.172,60.418,61.605,61.91,60.816z M21.679,30.567
		c0.093-0.456,0.231-0.896,0.408-1.315c0.177-0.419,0.394-0.817,0.646-1.19c0.504-0.745,1.147-1.389,1.892-1.892
		c0.373-0.252,0.771-0.469,1.19-0.646c0.419-0.177,0.859-0.315,1.315-0.408s0.928-0.142,1.412-0.142s0.956,0.049,1.412,0.142
		s0.896,0.231,1.315,0.408s0.817,0.394,1.19,0.646c0.373,0.252,0.72,0.538,1.037,0.855s0.604,0.664,0.855,1.037
		c0.252,0.373,0.469,0.771,0.646,1.19s0.315,0.859,0.408,1.315s0.142,0.928,0.142,1.412s-0.049,0.956-0.142,1.412
		c-0.076,0.37-0.181,0.73-0.313,1.077c-0.115,0.303-0.251,0.597-0.406,0.878c-0.348,0.633-0.791,1.207-1.309,1.702
		s-1.113,0.911-1.765,1.229c-0.434,0.212-0.893,0.381-1.372,0.5c-0.319,0.079-0.647,0.137-0.982,0.171
		c-0.235,0.024-0.474,0.036-0.716,0.036c-0.484,0-0.956-0.049-1.412-0.142s-0.896-0.231-1.315-0.408
		c-0.419-0.177-0.817-0.394-1.19-0.646c-0.745-0.504-1.389-1.147-1.892-1.892c-0.252-0.373-0.469-0.771-0.646-1.19
		c-0.177-0.419-0.315-0.859-0.408-1.315s-0.142-0.928-0.142-1.412S21.586,31.023,21.679,30.567z"/>
	<path d="M64.581,93.546h-0.965c-0.164,0-0.241,0.07-0.241,0.236c0,0,0,5.325,0,10.587c0,0,0,0,0,0.001c0,0,0,0,0,0l-0.001,9.96
		c0,0,0,0,0.001,0v0c0.201,0.05,0.402,0.101,0.604,0.148h0.042c0.272-0.064,0.544-0.132,0.816-0.201
		c0-2.388-0.003-20.495-0.003-20.495C64.833,93.616,64.746,93.546,64.581,93.546z"/>
	<path d="M20.568,52.423h-0.002c0,0-0.734,0-0.768,0c-0.381,0-0.544,0.312-0.576,0.387c0,0-5.454,17.784-5.456,17.785
		c-0.306,0.995-0.999,1.762-1.863,2.192c0.6,1.06,1.229,2.113,1.884,3.159l7.069-23.133C20.912,52.604,20.785,52.42,20.568,52.423z"
		/>
	<path d="M28.924,89.121h-0.006h-0.753h-0.006c-0.217,0-0.393,0.175-0.393,0.392l0,3.727c0.511,0.501,1.028,0.996,1.55,1.486
		l0-5.213C29.316,89.297,29.141,89.121,28.924,89.121z"/>
	<path d="M64.865,114.271l-0.001-9.901c0,0,0,0,0,0l-0.028,0c0.001,3.7,0.001,7.52,0.002,9.908
		C64.846,114.275,64.856,114.273,64.865,114.271z"/>
	<path d="M64.835,104.269c0,0.033,0,0.067,0,0.1h0h0.028C64.864,104.333,64.852,104.299,64.835,104.269z"/>
</g>
</svg>
