<?xml version="1.0" encoding="iso-8859-1"?>
<!-- Generator: Adobe Illustrator 17.1.0, SVG Export Plug-In . SVG Version: 6.00 Build 0)  -->
<!DOCTYPE svg PUBLIC "-//W3C//DTD SVG 1.1//EN" "http://www.w3.org/Graphics/SVG/1.1/DTD/svg11.dtd">
<svg version="1.1" id="Layer_1" xmlns="http://www.w3.org/2000/svg" xmlns:xlink="http://www.w3.org/1999/xlink" x="0px" y="0px"
	 viewBox="0 0 128 128" style="enable-background:new 0 0 128 128;" xml:space="preserve">
<g>
	<circle cx="88.079" cy="16.203" r="9.258"/>
	<path d="M69.476,55.847c0.348,0,0.701-0.04,1.054-0.122l8.299-1.936c0.226-0.053,0.434-0.137,0.643-0.22l3.793-0.894
		c1.421-0.345,2.603-1.326,3.203-2.66l2.105-4.665l3.801,21.419L79.556,84.76c-0.495,0.695-0.789,1.513-0.847,2.365l-2.005,28.985
		c-0.176,2.548,1.747,4.757,4.296,4.933c0.108,0.007,0.216,0.011,0.323,0.011c2.409,0,4.441-1.866,4.61-4.307l1.914-27.683
		l11.708-16.432l11.194,44.915c0.524,2.103,2.411,3.508,4.484,3.508c0.37,0,0.747-0.044,1.122-0.138
		c2.479-0.618,3.988-3.127,3.37-5.606l-11.608-46.575c1.223-0.402,3.387-1.831,2.767-6.295l-6.324-34.664
		c-0.2-1.096-1.196-1.832-2.225-1.644l-14.281,2.744c-0.115,0.016-0.228,0.038-0.342,0.062l-0.202,0.037
		c-0.143,0.026-0.278,0.073-0.406,0.13c-1.168,0.419-2.173,1.286-2.722,2.507l-5.601,12.671c0,0-6.58,1.547-7.789,1.836
		l-2.564,0.598c-2.488,0.58-4.035,3.067-3.454,5.555C65.473,54.407,67.374,55.847,69.476,55.847z"/>
	<path d="M29.597,98.714c0.29,0.012,0.606,0.021,0.705,0.021c0.09,0,0.18,0,0.18,0c0.046,0,0.078,0.001,0.124,0.001
		c0.096,0,0.186-0.003,0.282-0.004l2.393-0.011c0.29-0.001,0.717,0.135,0.954,0.303c2.413,1.717,4.854,3.399,7.265,5.121
		c0.236,0.169,0.23,0.434-0.014,0.591c-1.044,0.675-2.085,1.354-3.121,2.04c-0.17,0.112-0.41,0.138-0.627,0.098
		c-1.082-0.759-2.398-1.208-3.821-1.208c-3.682,0-6.667,2.985-6.667,6.667S30.235,119,33.917,119c3.682,0,6.667-2.985,6.667-6.667
		c0-1.154-0.294-2.24-0.81-3.186c0.049-0.127,0.126-0.242,0.237-0.315c1.243-0.821,2.492-1.633,3.745-2.438
		c0.244-0.157,0.631-0.143,0.863,0.03c1.335,1.001,2.639,2.04,3.922,3.105c-0.397,0.853-0.624,1.801-0.624,2.804
		c0,3.682,2.985,6.667,6.667,6.667c3.682,0,6.667-2.985,6.667-6.667s-2.985-6.667-6.667-6.667c-1.728,0-3.297,0.663-4.482,1.741
		c-1.026-0.847-2.066-1.677-3.125-2.483c-0.231-0.176-0.22-0.443,0.025-0.598c2.883-1.819,5.78-3.592,8.671-5.397
		c0.246-0.154,0.681-0.277,0.971-0.276l2.197,0.012c0.29,0.001,0.63-0.208,0.758-0.469l10.441-21.198
		c0.128-0.26-0.003-0.471-0.293-0.471H56.872H31.119c-0.29,0-0.525-0.235-0.525-0.526l0.034-29.759c0-0.29-0.235-0.526-0.525-0.521
		C15.687,46.002,4.097,57.744,4.097,72.227C4.097,86.533,15.39,98.163,29.597,98.714z M38.835,98.697l11.766-0.053
		c0.29-0.001,0.326,0.122,0.08,0.276c-1.984,1.239-3.966,2.479-5.941,3.732c-0.245,0.156-0.634,0.144-0.87-0.026
		c-1.698-1.225-3.415-2.424-5.13-3.625C38.502,98.835,38.545,98.698,38.835,98.697z"/>
</g>
</svg>
