<?xml version="1.0" encoding="utf-8"?>
<!-- Generator: Adobe Illustrator 16.0.0, SVG Export Plug-In . SVG Version: 6.00 Build 0)  -->
<!DOCTYPE svg PUBLIC "-//W3C//DTD SVG 1.1//EN" "http://www.w3.org/Graphics/SVG/1.1/DTD/svg11.dtd">
<svg version="1.1" id="Layer_2" xmlns="http://www.w3.org/2000/svg" xmlns:xlink="http://www.w3.org/1999/xlink" x="0px" y="0px"
	 width="126px" height="126px" viewBox="0 0 126 126" enable-background="new 0 0 126 126" xml:space="preserve">
<g>
	<circle cx="44.617" cy="14.804" r="13.016"/>
	<path d="M82.331,30.747c1.658-2.243,1.185-5.41-1.06-7.067c-2.243-1.659-5.408-1.187-7.067,1.059
		c-4.75,6.426-8.016,9.436-10.921,10.063c-1.061,0.225-2.271,0.182-3.684-0.077c-1.684-3.575-5.638-5.677-9.213-6.171
		c0,0-1.407-0.269-2.854-0.087c-1.384,0.172-2.897,0.653-2.897,0.653l-0.036,0.011c-4.246,1.515-8.52,5.542-7.971,10.867
		l2.94,28.577c0.332,3.209,2.248,5.609,4.807,7.104l-0.024,41.639c-0.001,3.809,3.081,6.894,6.888,6.896h0.004
		c3.804,0,6.887-3.081,6.889-6.886l0.025-41.814c3.168-1.906,5.608-5.167,5.174-9.382l-2.18-21.166
		C61.438,44.977,61.731,45,62.015,45C68.915,45,74.603,41.2,82.331,30.747z"/>
	<circle cx="73.537" cy="8.508" r="6.719"/>
	<path d="M89.435,35.286c0.113-0.51,0.37-1.099,1.349-1.665c0.073-0.008,0.158-0.035,0.328-0.139
		c2.554-1.511,4.29-4.856,2.646-7.632l-7.562-12.762c-1.407-2.378-6.475-2.625-11.152,4.871c-0.506,0.541-0.994,0.933-1.503,1.161
		c-1.396,0.635-1.38,0.848-5.327-0.359c-1.38-0.419-2.839,0.357-3.258,1.734c-0.42,1.379,0.355,2.836,1.732,3.257
		c2.703,0.828,4.482,1.189,5.854,1.18c0.249-0.328,0.502-0.666,0.759-1.012c1.207-1.636,3.142-2.611,5.175-2.611
		c1.384,0,2.704,0.437,3.819,1.263c2.851,2.107,3.457,6.143,1.349,8.992c-0.286,0.388-0.565,0.749-0.848,1.12
		c-0.121,0.35-0.23,0.707-0.311,1.081c-1.422,6.498,3.958,13.759,4.576,14.564c1.186,1.545,3.384,1.851,4.942,0.695
		c0.015-0.012,0.031-0.021,0.046-0.033c1.56-1.195,1.855-3.429,0.661-4.987C91.446,42.355,88.871,37.872,89.435,35.286z"/>
</g>
</svg>
