<?xml version="1.0" encoding="iso-8859-1"?>
<!-- Generator: Adobe Illustrator 17.1.0, SVG Export Plug-In . SVG Version: 6.00 Build 0)  -->
<!DOCTYPE svg PUBLIC "-//W3C//DTD SVG 1.1//EN" "http://www.w3.org/Graphics/SVG/1.1/DTD/svg11.dtd">
<svg version="1.1" id="Layer_1" xmlns="http://www.w3.org/2000/svg" xmlns:xlink="http://www.w3.org/1999/xlink" x="0px" y="0px"
	 viewBox="0 0 128 128" style="enable-background:new 0 0 128 128;" xml:space="preserve">
<g>
	<path d="M93.401,31.925c-5.836,0-7.902,6.715-8.751,9.663c-0.018,0.063-5.562,18.164-5.564,18.171
		c-0.601,1.961,0.501,4.038,2.462,4.64c1.96,0.601,4.036-0.5,4.639-2.459c0.002,0,5.551-18.093,5.551-18.093
		c0.033-0.076,0.198-0.394,0.587-0.394c0.035,0,0.782,0,0.782,0h0.002c0.221-0.003,0.35,0.184,0.291,0.396L82.291,80.205
		c-0.06,0.212,0,0.582,0.387,0.582h7.793c0.221,0,0.382,0.179,0.382,0.4c0,0-0.002,26.486-0.002,26.495
		c0,2.645,2.144,4.789,4.789,4.789c2.645,0,4.789-2.144,4.789-4.789l0.002-26.496c0-0.221,0.178-0.399,0.399-0.399h0.006h0.766
		h0.006c0.221,0,0.399,0.178,0.399,0.399l0.002,26.496c0,2.645,2.144,4.789,4.789,4.789c2.645,0,4.789-2.144,4.789-4.789
		c0-0.009-0.002-26.495-0.002-26.495c0-0.221,0.161-0.4,0.382-0.4h7.794c0.387,0,0.447-0.37,0.387-0.582L109.04,43.849
		c-0.058-0.212,0.071-0.4,0.291-0.396h0.002c0,0,0.747,0,0.782,0c0.388,0,0.554,0.317,0.586,0.394c0,0,5.549,18.093,5.551,18.093
		c0.602,1.959,2.679,3.06,4.639,2.459c1.96-0.601,3.062-2.678,2.461-4.64c-0.002-0.007-5.564-18.171-5.564-18.171
		c-0.849-2.949-2.468-9.663-8.732-9.663H93.401z"/>
	<circle cx="101.219" cy="22.655" r="7.126"/>
	<path d="M7.11,64.399c1.96,0.601,4.036-0.5,4.639-2.459c0.002,0,5.551-18.093,5.551-18.093c0.033-0.076,0.198-0.394,0.586-0.394
		c0.035,0,0.782,0,0.782,0h0.002c0.221-0.003,0.35,0.184,0.291,0.396L7.852,80.205c-0.06,0.212,0,0.582,0.387,0.582h7.793
		c0.221,0,0.382,0.179,0.382,0.4c0,0-0.002,26.486-0.002,26.495c0,2.645,2.144,4.789,4.789,4.789c2.645,0,4.789-2.144,4.789-4.789
		l0.002-26.496c0-0.221,0.178-0.399,0.399-0.399h0.006h0.766h0.006c0.221,0,0.399,0.178,0.399,0.399l0.002,26.496
		c0,2.645,2.144,4.789,4.789,4.789c2.645,0,4.789-2.144,4.789-4.789c0-0.009-0.002-26.495-0.002-26.495c0-0.221,0.161-0.4,0.382-0.4
		h7.793c0.387,0,0.447-0.37,0.387-0.582L34.602,43.849c-0.058-0.212,0.071-0.4,0.291-0.396h0.002c0,0,0.747,0,0.782,0
		c0.388,0,0.554,0.317,0.586,0.394c0,0,5.549,18.093,5.551,18.093c0.602,1.959,2.679,3.06,4.639,2.459
		c1.96-0.601,3.062-2.678,2.461-4.64c-0.002-0.007-5.564-18.171-5.564-18.171c-0.849-2.949-2.468-9.663-8.732-9.663H18.963
		c-5.836,0-7.902,6.715-8.751,9.663C10.194,41.651,4.65,59.753,4.648,59.76C4.047,61.721,5.149,63.798,7.11,64.399z"/>
	<circle cx="26.781" cy="22.655" r="7.126"/>
	<path d="M49.182,78.841c-0.384,1.251,0.32,2.576,1.571,2.96c1.251,0.383,2.575-0.319,2.959-1.569c0.001,0,3.514-11.47,3.514-11.47
		c0.021-0.049,0.127-0.251,0.374-0.251c0.022,0,1.114,0,1.114,0c0.141-0.002,0.223,0.118,0.186,0.253l-7.06,23.228
		c-0.038,0.135,0,0.372,0.247,0.372h4.9c0.141,0,0.244,0.114,0.244,0.255c0,0-0.001,16.792-0.001,16.798
		c0,1.687,1.368,3.055,3.055,3.055c1.687,0,3.055-1.368,3.055-3.055l0.001-16.798c0-0.141,0.114-0.255,0.255-0.255
		c0,0,0.942,0,1.054,0c0.112,0,0.259,0.114,0.259,0.255l0.001,16.798c0,1.687,1.368,3.055,3.055,3.055
		c1.687,0,3.055-1.368,3.055-3.055c0-0.006-0.001-16.798-0.001-16.798c0-0.141,0.103-0.255,0.244-0.255h4.711
		c0.247,0,0.285-0.236,0.247-0.372l-7.072-23.228c-0.037-0.135,0.029-0.255,0.17-0.253c0,0,1.046,0,1.068,0
		c0.247,0,0.353,0.203,0.374,0.251c0,0,3.524,11.47,3.526,11.47c0.384,1.25,1.709,1.953,2.959,1.569
		c1.251-0.384,1.955-1.709,1.571-2.96c-0.002-0.005-2.082-6.789-3.51-11.447c-0.015-0.057-0.028-0.106-0.039-0.146
		c-0.541-1.882-2.149-6.165-6.145-6.165H58.947c-3.723,0-5.673,4.284-6.214,6.165C52.721,67.288,49.184,78.837,49.182,78.841z"/>
	<path d="M70.689,57.433c0.398-0.047,1.028-1.514,1.644-2.794c0.101-0.209,0.271-0.548,0.344-0.77
		c0.451-1.374,0.079-3.368-1.655-3.54c-1.051-0.105-2.145,0.449-2.915,0.967c-0.195,0.131-0.471,0.103-0.641-0.056
		c-0.896-0.834-2.096-1.345-3.417-1.345c-1.27,0-2.429,0.473-3.312,1.251c-0.176,0.153-0.458,0.181-0.655,0.054
		c-0.759-0.488-1.782-0.97-2.77-0.871c-1.734,0.172-2.106,2.166-1.655,3.54c0.073,0.223,0.243,0.559,0.344,0.77
		c0.615,1.279,1.245,2.747,1.647,2.796c0.4,0.05-0.883-3.033,0.039-3.995c0.161-0.168,0.542-0.251,0.776-0.23
		c0.116,0.009,0.251,0.03,0.4,0.065c0.226,0.056,0.342,0.31,0.292,0.539c-0.079,0.353-0.12,0.72-0.12,1.098
		c0,2.77,2.246,5.015,5.015,5.015c2.77,0,5.015-2.246,5.015-5.015c0-0.342-0.036-0.677-0.101-1.001
		c-0.047-0.228,0.067-0.497,0.288-0.572c0.239-0.08,0.451-0.116,0.619-0.131c0.232-0.019,0.613,0.062,0.776,0.23
		C71.572,54.4,70.287,57.484,70.689,57.433z"/>
</g>
</svg>
