<?xml version="1.0" encoding="utf-8"?>
<!-- Generator: Adobe Illustrator 16.0.0, SVG Export Plug-In . SVG Version: 6.00 Build 0)  -->
<!DOCTYPE svg PUBLIC "-//W3C//DTD SVG 1.1//EN" "http://www.w3.org/Graphics/SVG/1.1/DTD/svg11.dtd">
<svg version="1.1" id="Layer_1" xmlns="http://www.w3.org/2000/svg" xmlns:xlink="http://www.w3.org/1999/xlink" x="0px" y="0px"
	 width="50px" height="50px" viewBox="0 0 50 50" enable-background="new 0 0 50 50" xml:space="preserve">
<g>
	<path d="M37.909,20.122H23.093c-0.968,0-1.76-0.792-1.76-1.76v-1.761c0-0.969-0.792-1.76-1.76-1.76h-7.481
		c-0.968,0-1.76,0.791-1.76,1.76v19.95c0,0.969,0.792,1.761,1.76,1.761h25.818c0.968,0,1.76-0.792,1.76-1.761V21.883
		C39.669,20.914,38.877,20.122,37.909,20.122z M25,36.184c-3.768,0-6.832-3.065-6.832-6.834c0-3.767,3.064-6.831,6.832-6.831
		c3.767,0,6.833,3.064,6.833,6.831C31.833,33.118,28.767,36.184,25,36.184z"/>
	<path d="M29.299,26.69l0.462-0.267c-0.46-0.749-1.087-1.376-1.835-1.836l-0.266,0.463l-0.268-0.151l0.265-0.456
		c-0.752-0.409-1.597-0.66-2.504-0.686l-0.002,0.541H25.03l0.829,1.661h-0.554v3.39c0,0.014-0.012,0.024-0.014,0.039
		c-0.005,0.041-0.022,0.069-0.042,0.105c-0.023,0.033-0.037,0.062-0.07,0.089c-0.012,0.007-0.014,0.026-0.024,0.032l-1.878,1.084
		l0.279,0.479l-1.918,0.114l1.057-1.603l0.277,0.479l1.724-0.995V25.96h-0.554l0.831-1.661h-0.125v-0.541
		c-0.907,0.025-1.752,0.276-2.504,0.686l0.263,0.456l-0.266,0.151l-0.268-0.461c-0.749,0.461-1.373,1.085-1.833,1.834l0.462,0.267
		l-0.154,0.267l-0.456-0.265c-0.409,0.752-0.66,1.599-0.687,2.505h0.544v0.307h-0.544c0.026,0.91,0.277,1.751,0.687,2.503
		l0.458-0.261l0.154,0.263l-0.464,0.27c0.46,0.746,1.087,1.374,1.836,1.835l0.267-0.462l0.266,0.149l-0.265,0.458
		c0.75,0.409,1.597,0.66,2.504,0.686v-0.541h0.308v0.541c0.907-0.025,1.75-0.276,2.502-0.686l-0.263-0.458l0.266-0.149l0.266,0.46
		c0.749-0.46,1.375-1.087,1.837-1.834l-0.462-0.269l0.152-0.266l0.454,0.264c0.41-0.752,0.66-1.598,0.687-2.504h-0.542v-0.308h0.542
		c-0.027-0.907-0.277-1.751-0.687-2.505l-0.454,0.266L29.299,26.69z"/>
	<polygon points="39.523,15.208 27.054,11.688 23.533,19.096 38.349,19.096 	"/>
</g>
</svg>
