<?xml version="1.0" encoding="utf-8"?>
<!-- Generator: Adobe Illustrator 16.0.0, SVG Export Plug-In . SVG Version: 6.00 Build 0)  -->
<!DOCTYPE svg PUBLIC "-//W3C//DTD SVG 1.1//EN" "http://www.w3.org/Graphics/SVG/1.1/DTD/svg11.dtd">
<svg version="1.1" id="Layer_3" xmlns="http://www.w3.org/2000/svg" xmlns:xlink="http://www.w3.org/1999/xlink" x="0px" y="0px"
	 width="126px" height="126px" viewBox="0 0 126 126" enable-background="new 0 0 126 126" xml:space="preserve">
<g>
	<circle cx="92.771" cy="27.337" r="15.77"/>
	<path d="M121.07,100.691c-13.83-9.743-17.254-21.11-18.043-34.503l1.998-4.999c2.398-6-1.258-12.128-5.672-15.284
		c0,0-1.357-1.078-3.012-1.698c-1.584-0.592-3.479-0.927-3.479-0.927l-0.045-0.011c-5.408-0.763-12.26,1.153-14.668,7.175
		L65.229,82.766c-1.209,3.021-0.922,6.062,0.307,8.754c-9.719,5.282-33.18,7.444-54.154,5.702c-4.574-0.392-8.633,3.025-9.018,7.621
		c-0.387,4.594,3.025,8.632,7.621,9.017c0.432,0.037,7.021,0.576,16.084,0.576c5.406,0,11.693-0.192,18.074-0.797
		c17.676-1.676,29.922-6.016,36.637-12.941c4.633-0.132,9.346-2.246,11.322-7.187l2.668-6.675
		c3.256,8.332,9.021,16.659,19.248,23.864c1.072,0.756,2.303,1.118,3.521,1.118c1.924,0,3.816-0.904,5.01-2.597
		C124.496,106.458,123.834,102.638,121.07,100.691z"/>
</g>
</svg>
