<?xml version="1.0" encoding="utf-8"?>
<!-- Generator: Adobe Illustrator 16.0.0, SVG Export Plug-In . SVG Version: 6.00 Build 0)  -->
<!DOCTYPE svg PUBLIC "-//W3C//DTD SVG 1.1//EN" "http://www.w3.org/Graphics/SVG/1.1/DTD/svg11.dtd">
<svg version="1.1" id="Layer_1" xmlns="http://www.w3.org/2000/svg" xmlns:xlink="http://www.w3.org/1999/xlink" x="0px" y="0px"
	 width="50px" height="50px" viewBox="0 0 50 50" enable-background="new 0 0 50 50" xml:space="preserve">
<g>
	<path d="M23,32.348c0-0.804,0.114-1.58,0.308-2.324c-0.098-1.191-0.165-2.508-0.188-3.944h2.348
		c0.849-0.917,1.876-1.664,3.032-2.179c-0.024-1.213-0.096-3.175-0.303-5.223c0.956-0.22,1.886-0.534,2.775-0.945
		c0.631,1.566,1.047,3.397,1.218,5.369c0.02,0,0.039-0.003,0.059-0.003c0.539,0,1.063,0.056,1.576,0.145
		c-0.169-2.315-0.647-4.456-1.403-6.277c0.429-0.261,0.841-0.551,1.242-0.858c2.075,2.022,3.444,4.759,3.708,7.811h-1.336
		c1.358,0.613,2.542,1.542,3.457,2.696c0.059-0.531,0.095-1.069,0.095-1.615c0-8.044-6.543-14.588-14.587-14.588
		S10.413,16.957,10.413,25c0,8.043,6.543,14.587,14.587,14.587c0.477,0,0.948-0.027,1.414-0.072C24.333,37.818,23,35.237,23,32.348z
		 M32.393,15.036c-0.224,0.161-0.449,0.319-0.683,0.465c-0.293-0.537-0.607-1.042-0.948-1.501
		C31.334,14.301,31.877,14.651,32.393,15.036z M30.28,16.268c-0.732,0.337-1.492,0.611-2.275,0.803
		c-0.219-1.576-0.533-3.096-0.98-4.259C28.284,13.447,29.401,14.656,30.28,16.268z M24.835,12.582
		c0.055-0.001,0.109-0.008,0.165-0.008s0.11,0.007,0.165,0.008c0.399,0.652,0.882,2.285,1.236,4.767
		c-0.463,0.052-0.93,0.087-1.4,0.087s-0.937-0.036-1.4-0.087C23.953,14.867,24.437,13.234,24.835,12.582z M23.4,18.957
		c0.53,0.059,1.062,0.1,1.6,0.1s1.07-0.041,1.6-0.1c0.149,1.442,0.251,3.106,0.281,4.963H23.12
		C23.149,22.062,23.251,20.398,23.4,18.957z M19.238,14c-0.341,0.459-0.655,0.964-0.948,1.501c-0.233-0.146-0.459-0.304-0.683-0.465
		C18.123,14.651,18.666,14.301,19.238,14z M21.5,23.919h-3.761c0.116-2.267,0.591-4.381,1.323-6.172
		c0.88,0.403,1.798,0.713,2.742,0.931C21.595,20.736,21.524,22.708,21.5,23.919z M21.804,31.322
		c-0.943,0.218-1.861,0.527-2.742,0.931c-0.732-1.791-1.207-3.905-1.323-6.172H21.5C21.524,27.292,21.595,29.264,21.804,31.322z
		 M16.337,33.892c-2.075-2.022-3.444-4.76-3.708-7.811h3.49c0.115,2.58,0.63,4.953,1.46,6.953
		C17.15,33.294,16.739,33.584,16.337,33.892z M16.118,23.919h-3.49c0.265-3.051,1.634-5.789,3.708-7.811
		c0.402,0.307,0.813,0.597,1.242,0.858C16.748,18.966,16.233,21.34,16.118,23.919z M17.607,34.964
		c0.224-0.162,0.45-0.32,0.683-0.465c0.293,0.537,0.607,1.042,0.948,1.501C18.666,35.699,18.123,35.349,17.607,34.964z
		 M19.757,33.715c0.722-0.33,1.469-0.597,2.238-0.786c0.217,1.566,0.528,3.075,0.971,4.235
		C21.736,36.518,20.635,35.308,19.757,33.715z M21.995,17.071c-0.769-0.188-1.516-0.456-2.238-0.786
		c0.877-1.593,1.979-2.803,3.209-3.449C22.523,13.996,22.212,15.505,21.995,17.071z"/>
	<path d="M32.249,25.1C28.247,25.1,25,28.346,25,32.348c0,4.003,3.247,7.249,7.249,7.249c4.004,0,7.248-3.246,7.248-7.249
		C39.497,28.346,36.252,25.1,32.249,25.1z M32.919,36.911v1.52h-1.461v-1.415c-0.998-0.045-1.968-0.314-2.533-0.642l0.447-1.743
		c0.625,0.342,1.505,0.655,2.473,0.655c0.85,0,1.431-0.327,1.431-0.923c0-0.567-0.476-0.925-1.579-1.298
		c-1.595-0.537-2.683-1.281-2.683-2.728c0-1.311,0.923-2.34,2.518-2.654v-1.415h1.462v1.311c0.998,0.046,1.67,0.255,2.161,0.492
		l-0.432,1.686c-0.388-0.165-1.074-0.508-2.146-0.508c-0.971,0-1.283,0.417-1.283,0.834c0,0.493,0.522,0.806,1.789,1.282
		c1.773,0.627,2.489,1.447,2.489,2.789C35.572,35.479,34.633,36.612,32.919,36.911z"/>
</g>
</svg>
