<?xml version="1.0" encoding="utf-8"?>
<!-- Generator: Adobe Illustrator 16.0.0, SVG Export Plug-In . SVG Version: 6.00 Build 0)  -->
<!DOCTYPE svg PUBLIC "-//W3C//DTD SVG 1.1//EN" "http://www.w3.org/Graphics/SVG/1.1/DTD/svg11.dtd">
<svg version="1.1" id="Layer_2" xmlns="http://www.w3.org/2000/svg" xmlns:xlink="http://www.w3.org/1999/xlink" x="0px" y="0px"
	 width="126px" height="126px" viewBox="0 0 126 126" enable-background="new 0 0 126 126" xml:space="preserve">
<g>
	<path d="M66.06,49.546l-0.013-0.016l-0.016,0.016h-0.004v0.003l-9.77,8.709l0.013,0.016v65.667h54.179V49.546H66.06z
		 M106.148,104.636v1.429v13.575H60.569v-13.575v-1.429V62.582l9.689,0.043l0.046-8.781h35.844V104.636z"/>
	<circle cx="39.744" cy="14.181" r="12.668"/>
	<path d="M65.358,47.843h10.847c-0.019-0.807-0.214-1.618-0.652-2.363c-1.374-2.344-4.387-3.128-6.731-1.755
		c-6.697,3.927-8.07,1.84-12.141-4.358c-2.065-3.143-4.405-6.705-7.963-8.886c-0.214-0.133-0.437-0.226-0.661-0.32
		c-1.411-0.939-2.994-1.634-4.609-2.029l-3.156,3.177l-3.06-3.213c-0.011,0.003-0.021,0.005-0.032,0.007
		c-1.648,0.395-3.266,1.102-4.702,2.066c-0.219,0.092-0.438,0.184-0.645,0.313c-0.454,0.276-0.904,0.547-1.352,0.816
		c-9.915,5.957-16.76,12.184-14.523,38.182c0.22,2.564,2.367,4.497,4.895,4.497c0.14,0,0.283-0.006,0.427-0.018
		c2.706-0.232,4.711-2.616,4.478-5.321c-0.925-10.741-0.213-16.915,1.548-20.905v19.375c0,1.325,0.256,2.56,0.707,3.695
		c-0.033,0.254-0.058,0.513-0.058,0.775l0.004,47.098c0,3.209,2.602,5.813,5.812,5.813c3.212-0.002,5.813-2.604,5.813-5.813
		l-0.003-40.419c0.229,0.012,0.46,0.029,0.692,0.029c0.045,0,0.09-0.005,0.136-0.005l-0.002,40.395c0,3.21,2.604,5.813,5.813,5.813
		c3.21,0,5.813-2.604,5.813-5.813l0.002-46.81c0.761-1.41,1.206-3.008,1.206-4.759V51.045c1.735,1.753,4.725,3.396,4.725,3.396
		L65.358,47.843z M40.321,56.38h-0.059l-3.056-4.18l3.056-20.423h0.059L43.376,52.2L40.321,56.38z"/>
	<rect x="76.205" y="58.913" width="23.234" height="3.801"/>
	<rect x="76.205" y="66.84" width="23.234" height="3.801"/>
	<rect x="64.588" y="76.873" width="34.851" height="3.801"/>
	<rect x="64.588" y="85.096" width="34.851" height="3.801"/>
	<rect x="64.588" y="93.569" width="34.851" height="3.801"/>
	<path d="M98.097,104.176l-0.574-0.997l-1,0.575l-0.813-0.813l-0.815,0.814l-0.997-0.575l-0.576,0.996l-1.112-0.298l-0.299,1.112
		H90.76l0,1.152l-1.112,0.297l0.297,1.112l-0.997,0.577l0.576,0.997l-0.814,0.813l0.814,0.815l-0.577,0.997l0.998,0.576
		l-0.299,1.111l1.113,0.299l-0.001,1.151l1.152,0.001l0.297,1.111l1.113-0.298l0.575,0.997l0.998-0.575l0.814,0.814l0.815-0.813
		l0.996,0.575l0.577-0.997l1.112,0.298l0.299-1.112h1.15l0-1.151l1.112-0.298l-0.297-1.112l0.996-0.575l-0.574-0.999l0.813-0.813
		l-0.813-0.816l0.575-0.996l-0.997-0.577l0.298-1.111l-1.112-0.299v-1.151l-1.153-0.001l-0.297-1.111L98.097,104.176z
		 M89.267,109.939l0.461-0.46l0.132,0.229v0.463l-0.132,0.229L89.267,109.939z M90.051,111.934l-0.564-0.326l0.326-0.563L90,111.23
		l0.12,0.448L90.051,111.934z M90,108.65l-0.187,0.188l-0.326-0.565l0.563-0.325l0.068,0.255L90,108.65z M90.76,113.331l-0.63-0.17
		l0.169-0.629l0.229,0.132l0.232,0.401V113.331z M90.76,106.815l-0.232,0.401l-0.229,0.133l-0.168-0.631l0.629-0.168V106.815z
		 M91.153,114.495l0.001-0.651l0.256,0.068l0.327,0.328l0.068,0.255H91.153z M91.737,105.641l-0.328,0.329l-0.255,0.067l0-0.652
		h0.651L91.737,105.641z M92.487,115.52l-0.167-0.629h0.265l0.401,0.231l0.131,0.229L92.487,115.52z M92.985,104.759l-0.402,0.231
		H92.32l0.169-0.63l0.628,0.17L92.985,104.759z M94.041,116.163l-0.325-0.564l0.256-0.068l0.448,0.12l0.187,0.188L94.041,116.163z
		 M94.42,104.23l-0.448,0.12l-0.255-0.069l0.326-0.563l0.564,0.326L94.42,104.23z M95.71,103.498l0.459,0.46l-0.231,0.133h-0.461
		l-0.229-0.133L95.71,103.498z M95.708,116.383l-0.46-0.461l0.23-0.132h0.463l0.229,0.132L95.708,116.383z M97.375,116.163
		l-0.563-0.325L97,115.65l0.447-0.119l0.255,0.067L97.375,116.163z M97.445,104.349l-0.447-0.119l-0.186-0.186l0.566-0.326
		l0.324,0.563L97.445,104.349z M98.93,115.521l-0.628-0.169l0.133-0.23l0.4-0.23H99.1L98.93,115.521z M98.833,104.988l-0.4-0.23
		l-0.132-0.229l0.631-0.169l0.168,0.629L98.833,104.988z M102.152,109.941l-0.46,0.459l-0.133-0.23v-0.461l0.132-0.229
		L102.152,109.941z M101.368,107.947l0.565,0.326l-0.326,0.564l-0.188-0.189l-0.119-0.446L101.368,107.947z M101.42,111.231
		l0.187-0.187l0.325,0.564l-0.563,0.324l-0.069-0.257L101.42,111.231z M100.66,106.55l0.63,0.169l-0.169,0.629l-0.23-0.132
		l-0.23-0.401V106.55z M100.66,113.065l0.231-0.401l0.229-0.132l0.167,0.631l-0.628,0.168V113.065z M100.267,105.386l-0.001,0.65
		l-0.257-0.069l-0.327-0.327l-0.067-0.255L100.267,105.386z M99.683,114.239l0.327-0.327l0.256-0.068l-0.001,0.652h-0.65
		L99.683,114.239z"/>
	<path d="M80.911,108.879c-0.062,0.751-0.932,1.303-1.528,1.61c-0.661,0.342-1.71,0.637-2.264-0.032
		c-0.092-0.11-0.278-0.094-0.373,0c-0.497,0.494-1.802,1.8-2.299,0.713c-0.071-0.155-0.304-0.168-0.414-0.054
		c-0.298,0.311-0.547,0.667-0.828,0.994c-0.157,0.182-1.07,1.163-1.22,0.599c-0.129-0.49-0.137-0.777-0.528-1.141
		c-0.159-0.146-0.342-0.235-0.534-0.284c-0.025-0.262-0.052-0.523-0.079-0.784c-0.12-1.135-0.26-2.267-0.317-3.405
		c1.637-0.31,2.774-2.569,2.353-4.105c-0.186-0.673-0.808-1.344-1.559-1.112c-1.019,0.313-1.155,1.969-1.264,2.815
		c-0.081,0.625-0.105,1.251-0.096,1.875c-0.054-0.003-0.11-0.009-0.167-0.016c-1.115-0.167-1.781-1.313-2.056-2.296
		c-0.264-0.948-0.251-1.962-0.237-2.938c0.004-0.339-0.522-0.339-0.528,0c-0.028,2.083,0.116,4.803,2.406,5.67
		c0.204,0.077,0.404,0.122,0.6,0.138c0.063,1.369,0.267,2.736,0.398,4.106c-0.089,0.002-0.179,0.009-0.269,0.019
		c-0.92,0.096-1.673,0.653-1.838,1.587c-0.175,0.98,0.354,1.96,1.023,2.635c0.693,0.698,1.384,0.284,1.603-0.555
		c0.165-0.634,0.135-1.343,0.124-1.992c-0.006-0.358-0.025-0.717-0.051-1.074c0.442,0.215,0.41,0.767,0.566,1.187
		c0.13,0.348,0.526,0.393,0.848,0.34c0.774-0.132,1.3-1.01,1.795-1.628c0.714,0.914,2.011-0.047,2.75-0.736
		c0.683,0.576,1.743,0.377,2.505,0.032c0.87-0.394,1.918-1.126,2.003-2.166C81.465,108.54,80.938,108.542,80.911,108.879z
		 M70.478,114.022c-0.018,0.358-0.051,1.58-0.671,1.194c-0.513-0.318-0.863-1.037-0.997-1.606c-0.256-1.084,0.599-1.898,1.613-1.869
		C70.484,112.501,70.515,113.262,70.478,114.022z M70.505,105.801c0.013-0.63,0.111-3.744,1.28-3.422
		c0.886,0.244,0.701,1.731,0.5,2.336c-0.267,0.8-0.946,1.58-1.777,1.797C70.501,106.275,70.5,106.038,70.505,105.801z"/>
</g>
</svg>
