<?xml version="1.0" encoding="utf-8"?>
<!-- Generator: Adobe Illustrator 16.0.0, SVG Export Plug-In . SVG Version: 6.00 Build 0)  -->
<!DOCTYPE svg PUBLIC "-//W3C//DTD SVG 1.1//EN" "http://www.w3.org/Graphics/SVG/1.1/DTD/svg11.dtd">
<svg version="1.1" id="Layer_1" xmlns="http://www.w3.org/2000/svg" xmlns:xlink="http://www.w3.org/1999/xlink" x="0px" y="0px"
	 width="126px" height="126px" viewBox="0 0 126 126" enable-background="new 0 0 126 126" xml:space="preserve">
<path d="M98.706,38.505c2.848,1.308,5.869,2.734,5.917,2.757c0.457,0.216,0.939,0.318,1.413,0.318c1.24,0,2.429-0.701,2.994-1.897
	c0.782-1.653,0.076-3.626-1.578-4.408c-0.124-0.057-1.321-0.624-2.893-1.357C103.268,36.105,101.188,37.769,98.706,38.505z"/>
<g>
	<path d="M52.333,38.23l-1.436,1.311l-1.893-1.783c-0.392-0.065-0.777-0.149-1.153-0.258c-0.782,0.354-1.714,0.839-2.677,1.407
		c0.07-0.414,0.067-0.834-0.015-1.241c0.428-0.25,0.849-0.479,1.263-0.697c-2.209-1.01-3.998-2.77-5.05-4.955
		c-0.582,0.354-1.153,0.716-1.698,1.084c-0.797-0.457-1.564-0.892-2.169-1.233c-1.018,2.205-2.784,3.989-4.975,5.033
		c1.793,0.932,6.154,3.349,7.365,4.203c0.265,0.187,0.551,0.314,0.844,0.416v17.664c0,1.518,0.244,2.963,0.699,4.281
		c-0.013,0.14-0.021,0.282-0.021,0.425v3.967h0.026c-0.002,0.057-0.017,0.111-0.017,0.169l0.001,34.885
		c0,2.378,1.928,4.306,4.306,4.306s4.305-1.928,4.305-4.306l-0.001-34.885c0-0.058-0.015-0.112-0.017-0.169h0.647
		c-0.002,0.057-0.017,0.111-0.017,0.168l-0.002,34.886c0,2.378,1.927,4.306,4.305,4.306h0c2.377,0,4.306-1.928,4.306-4.306
		l0.002-34.886c0-0.058-0.015-0.112-0.017-0.169h0.05l0.003-4.508c0,0,0.762-1.021,0.762-4.719c0-1.987,0.202-9.395,0.202-9.395
		l0.021-8.101c-0.045-0.021-6.162-3.374-6.162-3.374L52.333,38.23z"/>
	<path d="M30.056,38.02l-1.893,1.451l-1.436-1.312c-3.134,1.429-6.904,3.21-6.955,3.234c-0.548,0.259-1.132,0.391-1.735,0.391
		c-0.668,0-1.311-0.176-1.884-0.477l-0.013,0.013c-3.626-2.909-6.65-7.946-7.71-10.114c-0.879-1.81-3.059-2.564-4.869-1.686
		c-1.809,0.879-2.564,3.06-1.685,4.869c0.643,1.323,6.533,13.002,15.42,15.784c0.513,0.16,1.026,0.279,1.541,0.374
		c0.058,2.24,0.165,6.561,0.165,8.01c0,3.699,0.761,4.719,0.761,4.719l0.003,4.508h0.066c-0.002,0.059-0.018,0.114-0.018,0.173
		l0.002,34.885c0,2.378,1.927,4.306,4.306,4.306c2.377,0,4.305-1.928,4.305-4.306l-0.001-34.886c0-0.059-0.015-0.114-0.018-0.172
		h0.648c-0.002,0.059-0.018,0.114-0.018,0.172l-0.002,34.886c0,2.377,1.927,4.306,4.305,4.306s4.305-1.927,4.306-4.305l0.002-34.886
		c0-0.059-0.015-0.114-0.018-0.173h0.011v-3.967c0-0.144-0.009-0.285-0.021-0.426c0.455-1.318,0.698-2.763,0.698-4.281V41.116
		c-1.548,0.124-6.21-3.26-6.782-3.52C31.163,37.705,30.448,37.954,30.056,38.02z"/>
	<path d="M17.92,40.625c0.485,0,0.978-0.104,1.445-0.326c0.048-0.023,3.069-1.45,5.953-2.775c-2.577-0.715-4.748-2.398-6.104-4.636
		c-1.498,0.7-2.624,1.23-2.743,1.288c-1.691,0.798-2.414,2.818-1.616,4.508C15.435,39.909,16.652,40.625,17.92,40.625z"/>
	<circle cx="50.9" cy="27.705" r="9.384"/>
	<circle cx="28.269" cy="27.705" r="9.384"/>
	<path d="M75.351,38.561l-1.436,1.311l-1.892-1.783c-0.392-0.065-0.777-0.149-1.154-0.258c-0.781,0.355-1.713,0.839-2.677,1.407
		c0.07-0.414,0.067-0.833-0.015-1.241c0.428-0.249,0.849-0.479,1.262-0.697c-2.209-1.01-3.998-2.77-5.05-4.955
		c-0.582,0.354-1.153,0.716-1.698,1.085c-0.797-0.457-1.565-0.892-2.169-1.234c-1.018,2.205-2.784,3.989-4.975,5.033
		c1.793,0.932,6.154,3.349,7.365,4.203c0.265,0.187,0.551,0.314,0.844,0.417v17.663c0,1.518,0.244,2.963,0.698,4.281
		c-0.013,0.14-0.021,0.282-0.021,0.426v3.967h0.027c-0.002,0.057-0.017,0.112-0.017,0.17l0.001,34.885
		c0,2.378,1.928,4.305,4.306,4.305c2.377,0,4.305-1.927,4.305-4.306l-0.001-34.886c0-0.058-0.015-0.112-0.017-0.169h0.647
		c-0.002,0.057-0.017,0.111-0.017,0.168l-0.002,34.886c0,2.378,1.927,4.305,4.305,4.306c2.377,0,4.306-1.927,4.306-4.305
		l0.002-34.885c0-0.058-0.015-0.113-0.017-0.17h0.05l0.003-4.508c0,0,0.762-1.021,0.762-4.719c0-1.987,0.202-9.396,0.202-9.396
		l0.021-8.1c-0.045-0.022-6.163-3.375-6.163-3.375L75.351,38.561z"/>
	<circle cx="73.918" cy="28.035" r="9.384"/>
	<circle cx="96.759" cy="28.169" r="9.384"/>
	<path d="M122.442,29.25c-1.808-0.881-3.987-0.129-4.871,1.677c-1.167,2.388-4.708,8.244-8.815,10.919
		c-0.571,0.299-1.21,0.472-1.875,0.472c-0.602,0-1.187-0.131-1.734-0.39c-0.051-0.024-3.82-1.805-6.955-3.233l-1.436,1.311
		l-1.892-1.783c-0.393-0.065-0.778-0.149-1.154-0.258c-0.782,0.355-1.713,0.838-2.677,1.407c0.07-0.414,0.067-0.834-0.015-1.242
		c0.428-0.249,0.849-0.479,1.263-0.696c-2.209-1.01-3.998-2.77-5.05-4.956c-0.583,0.354-1.153,0.716-1.698,1.085
		c-0.797-0.457-1.565-0.892-2.169-1.234c-1.018,2.206-2.784,3.99-4.975,5.034c1.793,0.933,6.154,3.349,7.365,4.203
		c0.265,0.186,0.551,0.314,0.844,0.417v17.664c0,1.517,0.244,2.962,0.699,4.28c-0.013,0.141-0.021,0.282-0.021,0.426v3.967h0.026
		c-0.002,0.058-0.017,0.111-0.017,0.169l0.002,34.886c0,2.378,1.928,4.305,4.306,4.305s4.305-1.927,4.305-4.306l-0.001-34.886
		c0-0.058-0.015-0.112-0.017-0.168h0.647c-0.002,0.057-0.017,0.111-0.017,0.168l-0.002,34.886c0,2.378,1.927,4.305,4.305,4.306h0
		c2.377,0,4.306-1.927,4.306-4.305l0.002-34.886c0-0.058-0.015-0.111-0.017-0.169h0.05l0.003-4.509c0,0,0.762-1.02,0.762-4.718
		c0-1.607,0.132-6.753,0.183-8.667c0.434-0.042,0.868-0.109,1.302-0.199l0.033,0.014c0.004-0.008,0.01-0.015,0.014-0.023
		c0.419-0.087,0.837-0.188,1.255-0.319c8.887-2.782,14.778-14.461,15.42-15.784C125.002,32.306,124.249,30.13,122.442,29.25z"/>
</g>
</svg>
