<?xml version="1.0" encoding="utf-8"?>
<!-- Generator: Adobe Illustrator 16.0.0, SVG Export Plug-In . SVG Version: 6.00 Build 0)  -->
<!DOCTYPE svg PUBLIC "-//W3C//DTD SVG 1.1//EN" "http://www.w3.org/Graphics/SVG/1.1/DTD/svg11.dtd">
<svg version="1.1" id="Layer_1" xmlns="http://www.w3.org/2000/svg" xmlns:xlink="http://www.w3.org/1999/xlink" x="0px" y="0px"
	 width="50px" height="50px" viewBox="0 0 50 50" enable-background="new 0 0 50 50" xml:space="preserve">
<path d="M37.305,25.522c0.991-0.668,1.673-1.982,1.673-3.165c0-1.672-1.354-3.025-3.024-3.025c-0.186,0-0.365,0.022-0.541,0.055
	c0.001,0,0.002-0.001,0.003-0.001c-0.69-1.117-1.992-2.184-3.587-2.587c0.991-0.668,1.673-1.982,1.673-3.165
	c0-1.672-1.354-3.025-3.024-3.025s-3.024,1.354-3.024,3.025c0,1.183,0.682,2.497,1.673,3.165c-1.595,0.403-2.896,1.47-3.587,2.587
	c-0.176-0.031-0.354-0.054-0.538-0.054s-0.362,0.022-0.538,0.054c-0.69-1.117-1.992-2.184-3.587-2.587
	c0.991-0.668,1.673-1.982,1.673-3.165c0-1.672-1.354-3.025-3.024-3.025s-3.024,1.354-3.024,3.025c0,1.183,0.682,2.497,1.673,3.165
	c-1.595,0.403-2.896,1.47-3.587,2.587c0.001,0,0.002,0.001,0.003,0.001c-0.176-0.032-0.355-0.055-0.541-0.055
	c-1.67,0-3.024,1.354-3.024,3.025c0,1.183,0.682,2.497,1.673,3.165c-2.369,0.6-4.125,2.657-4.125,4.182
	c0,0.9,2.738,1.352,5.477,1.352l-1.534-1.535l1.292-3.122H13.79l-0.501-0.575c0.243,0.087,0.496,0.141,0.758,0.141
	s0.515-0.053,0.756-0.14l-0.5,0.574h-0.014l1.292,3.122l-1.534,1.535c0.85,0,1.699-0.044,2.468-0.131
	c0-0.002,0.001-0.003,0.001-0.005c-0.003,0.055-0.017,0.106-0.017,0.161c0,1.183,0.682,2.497,1.673,3.165
	c-2.369,0.6-4.125,2.657-4.125,4.182c0,0.901,2.738,1.352,5.477,1.352l-1.534-1.535l1.292-3.122h-0.015l-0.501-0.575
	c0.243,0.087,0.496,0.141,0.758,0.141s0.515-0.053,0.756-0.14l-0.5,0.574h-0.014l1.292,3.122l-1.534,1.535
	c2.738,0,5.477-0.45,5.477-1.352c0-1.524-1.756-3.582-4.125-4.182c0.991-0.668,1.673-1.982,1.673-3.165
	c0-1.672-1.354-3.025-3.024-3.025c-0.185,0-0.363,0.022-0.538,0.055c-0.69-1.118-1.992-2.185-3.587-2.588
	c0.991-0.668,1.673-1.982,1.673-3.165c0-0.054-0.013-0.104-0.016-0.156v0.001c0.768,0.086,1.618,0.13,2.468,0.13l-1.534-1.535
	l1.292-3.122h-0.015L18.766,17.1c0.243,0.087,0.496,0.141,0.758,0.141s0.515-0.053,0.756-0.14l-0.5,0.574h-0.014l1.292,3.122
	l-1.534,1.535c0.85,0,1.7-0.044,2.468-0.13c-0.003,0.053-0.016,0.102-0.016,0.155c0,1.183,0.682,2.497,1.673,3.165
	c-1.179,0.298-2.204,0.958-2.938,1.732c1.616,0.503,2.8,1.983,2.831,3.756c0.476,0.029,0.967,0.045,1.459,0.045l-1.534-1.535
	l1.292-3.122h-0.015l-0.501-0.575c0.243,0.087,0.496,0.141,0.758,0.141s0.515-0.053,0.756-0.14l-0.5,0.574h-0.014l1.292,3.122
	L25,31.056c0.492,0,0.983-0.016,1.459-0.045c0.031-1.772,1.215-3.253,2.831-3.756c-0.734-0.774-1.76-1.435-2.938-1.732
	c0.991-0.668,1.673-1.982,1.673-3.165c0-0.054-0.013-0.103-0.016-0.155c0.768,0.086,1.618,0.13,2.468,0.13l-1.534-1.535l1.292-3.122
	H30.22L29.719,17.1c0.243,0.087,0.496,0.141,0.758,0.141s0.515-0.053,0.756-0.14l-0.5,0.574h-0.014l1.292,3.122l-1.534,1.535
	c0.85,0,1.7-0.044,2.468-0.13v-0.001c-0.003,0.053-0.016,0.103-0.016,0.156c0,1.183,0.682,2.497,1.673,3.165
	c-1.595,0.403-2.896,1.47-3.587,2.588c-0.175-0.032-0.354-0.055-0.538-0.055c-1.67,0-3.024,1.354-3.024,3.025
	c0,1.183,0.682,2.497,1.673,3.165C26.756,34.846,25,36.903,25,38.428c0,0.901,2.738,1.352,5.477,1.352l-1.534-1.535l1.292-3.122
	H30.22l-0.501-0.575c0.243,0.087,0.496,0.141,0.758,0.141s0.515-0.053,0.756-0.14l-0.5,0.574h-0.014l1.292,3.122l-1.534,1.535
	c2.738,0,5.477-0.45,5.477-1.352c0-1.524-1.756-3.582-4.125-4.182c0.991-0.668,1.673-1.982,1.673-3.165
	c0-0.055-0.014-0.106-0.017-0.161c0,0.002,0.001,0.003,0.001,0.005c0.769,0.087,1.618,0.131,2.468,0.131l-1.534-1.535l1.292-3.122
	h-0.015l-0.501-0.575c0.243,0.087,0.496,0.141,0.758,0.141s0.515-0.053,0.756-0.14l-0.5,0.574h-0.014l1.292,3.122l-1.534,1.535
	c2.738,0,5.477-0.451,5.477-1.352C41.43,28.18,39.674,26.122,37.305,25.522z M12.051,29.329l-0.128,0.309l0.236,0.236l0.65,0.65
	c-2.396-0.122-3.631-0.583-3.739-0.82c0-1.292,1.59-3.139,3.722-3.69l0.12,0.138l0.308,0.354L12.051,29.329z M17.527,38.053
	l-0.128,0.309l0.236,0.236l0.65,0.651c-2.396-0.123-3.631-0.584-3.739-0.821c0-1.292,1.59-3.139,3.722-3.69l0.12,0.138l0.308,0.354
	L17.527,38.053z M24.503,38.408c-0.111,0.254-1.347,0.718-3.742,0.84l0.65-0.65l0.236-0.236l-0.128-0.309l-1.169-2.825l0.306-0.352
	l0.121-0.139C22.91,35.288,24.5,37.136,24.503,38.408z M22.048,31.081c0,1.026-0.61,2.184-1.452,2.75l-0.227,0.153l-0.26,0.093
	c-0.202,0.073-0.399,0.11-0.586,0.11s-0.38-0.036-0.59-0.111l-0.255-0.091l-0.228-0.154c-0.842-0.566-1.452-1.724-1.452-2.75
	c0-1.393,1.133-2.525,2.524-2.525S22.048,29.688,22.048,31.081z M18.494,28.247c0.004-0.001,0.007-0.002,0.011-0.003
	c-0.961,0.346-1.696,1.155-1.926,2.167c-0.389,0.048-0.812,0.089-1.295,0.113l0.65-0.65l0.236-0.236l-0.128-0.309l-1.169-2.825
	l0.306-0.352l0.121-0.139C16.702,26.376,17.857,27.297,18.494,28.247z M15.119,25.107l-0.227,0.153l-0.26,0.093
	c-0.202,0.073-0.399,0.11-0.586,0.11s-0.38-0.036-0.59-0.111l-0.255-0.091l-0.228-0.154c-0.842-0.566-1.452-1.724-1.452-2.75
	c0-1.393,1.133-2.525,2.524-2.525s2.524,1.133,2.524,2.525C16.571,23.384,15.961,24.541,15.119,25.107z M17.527,20.605l-0.128,0.309
	l0.236,0.236l0.65,0.651c-0.483-0.024-0.905-0.066-1.295-0.113c-0.228-1.007-0.957-1.814-1.911-2.163
	c0.637-0.954,1.79-1.874,3.188-2.235l0.12,0.138l0.308,0.354L17.527,20.605z M20.109,16.63c-0.202,0.073-0.399,0.11-0.586,0.11
	s-0.38-0.036-0.59-0.111l-0.255-0.091l-0.228-0.154c-0.842-0.566-1.452-1.724-1.452-2.75c0-1.393,1.133-2.525,2.524-2.525
	s2.524,1.133,2.524,2.525c0,1.026-0.61,2.184-1.452,2.75l-0.227,0.153L20.109,16.63z M20.761,21.801l0.65-0.65l0.236-0.236
	l-0.128-0.309l-1.169-2.825l0.306-0.352l0.121-0.139c1.401,0.361,2.557,1.283,3.193,2.233c-0.956,0.349-1.687,1.156-1.915,2.164
	C21.667,21.735,21.244,21.776,20.761,21.801z M28.48,20.605l-0.128,0.309l0.236,0.236l0.65,0.651
	c-0.483-0.024-0.905-0.066-1.295-0.113c-0.228-1.007-0.957-1.814-1.911-2.163c0.637-0.954,1.79-1.874,3.188-2.235l0.12,0.138
	l0.308,0.354L28.48,20.605z M31.062,16.63c-0.202,0.073-0.399,0.11-0.586,0.11s-0.38-0.036-0.59-0.111l-0.255-0.091l-0.228-0.154
	c-0.842-0.566-1.452-1.724-1.452-2.75c0-1.393,1.133-2.525,2.524-2.525s2.524,1.133,2.524,2.525c0,1.026-0.61,2.184-1.452,2.75
	l-0.227,0.153L31.062,16.63z M31.714,21.801l0.65-0.65l0.236-0.236l-0.128-0.309l-1.169-2.825l0.306-0.352l0.121-0.139
	c1.401,0.361,2.557,1.283,3.193,2.233c0.004-0.001,0.008-0.002,0.012-0.003c-0.962,0.346-1.697,1.155-1.927,2.167
	C32.62,21.735,32.197,21.776,31.714,21.801z M28.48,38.053l-0.128,0.309l0.236,0.236l0.65,0.651
	c-2.396-0.123-3.631-0.584-3.739-0.821c0-1.292,1.59-3.139,3.722-3.69l0.12,0.138l0.308,0.354L28.48,38.053z M35.456,38.408
	c-0.111,0.254-1.347,0.718-3.742,0.84l0.65-0.65l0.236-0.236l-0.128-0.309l-1.169-2.825l0.306-0.352l0.121-0.139
	C33.863,35.288,35.453,37.136,35.456,38.408z M31.549,33.831l-0.227,0.153l-0.26,0.093c-0.202,0.073-0.399,0.11-0.586,0.11
	s-0.38-0.036-0.59-0.111l-0.255-0.091l-0.228-0.154c-0.842-0.566-1.452-1.724-1.452-2.75c0-1.393,1.133-2.525,2.524-2.525
	s2.524,1.133,2.524,2.525C33.001,32.107,32.391,33.265,31.549,33.831z M33.957,29.329l-0.128,0.309l0.236,0.236l0.65,0.65
	c-0.483-0.024-0.906-0.065-1.295-0.113c-0.229-1.007-0.957-1.813-1.911-2.162c0.637-0.954,1.79-1.873,3.188-2.235l0.12,0.138
	l0.308,0.354L33.957,29.329z M36.539,25.354c-0.202,0.073-0.399,0.11-0.586,0.11s-0.38-0.036-0.59-0.111l-0.255-0.091l-0.228-0.154
	c-0.842-0.566-1.452-1.724-1.452-2.75c0-1.393,1.133-2.525,2.524-2.525s2.524,1.133,2.524,2.525c0,1.026-0.61,2.184-1.452,2.75
	l-0.227,0.153L36.539,25.354z M37.19,30.524l0.65-0.65l0.236-0.236l-0.128-0.309l-1.169-2.825l0.306-0.352l0.121-0.139
	c2.133,0.551,3.723,2.398,3.726,3.671C40.821,29.938,39.586,30.402,37.19,30.524z"/>
</svg>
