<?xml version="1.0" encoding="utf-8"?>
<!-- Generator: Adobe Illustrator 16.0.0, SVG Export Plug-In . SVG Version: 6.00 Build 0)  -->
<!DOCTYPE svg PUBLIC "-//W3C//DTD SVG 1.1//EN" "http://www.w3.org/Graphics/SVG/1.1/DTD/svg11.dtd">
<svg version="1.1" id="Layer_11" xmlns="http://www.w3.org/2000/svg" xmlns:xlink="http://www.w3.org/1999/xlink" x="0px" y="0px"
	 width="100px" height="100px" viewBox="0 0 100 100" enable-background="new 0 0 100 100" xml:space="preserve">
<path d="M50,49.594c-8.614,0-15.599-6.984-15.599-15.599c0-0.45,0.03-0.893,0.067-1.333c2.007,1.028,4.942,2.271,8.275,2.84
	l13.87,0.088l0.091-0.01c3.157-0.348,5.931-1.812,8.612-3.227c0.059-0.031,0.121-0.062,0.18-0.093
	c0.063,0.57,0.103,1.147,0.103,1.734C65.6,42.61,58.615,49.594,50,49.594z M23.41,70.629V86.82l0.041,0.252l1.117,0.349
	c2.449,0.765,4.815,1.4,7.111,1.941V62.295c0-4.77,2.786-8.983,6.85-11.016C29.858,53.456,23.41,61.293,23.41,70.629z
	 M46.333,50.658l-1.24,2.451c-0.285,0.564-0.431,1.165-0.431,1.787v8.234c0,2.19,1.782,3.972,3.973,3.972H52.6
	c2.19,0,3.972-1.782,3.972-3.972v-8.234c0-0.595-0.134-1.175-0.398-1.722l-1.218-2.516H46.333z M62.458,51.533
	c3.826,2.108,6.332,6.154,6.332,10.762v27.404c4.085-1.088,6.381-2.216,6.646-2.35l1.044-0.53l0.11,0.001V70.629
	C76.59,61.649,70.63,54.038,62.458,51.533z M60.826,55.508v7.622c0,4.536-3.69,8.227-8.227,8.227h-3.965
	c-4.536,0-8.227-3.69-8.227-8.227v-8.04c-2.655,1.331-4.474,4.087-4.474,7.205v27.979c5.846,1.103,11.129,1.527,15.789,1.527
	c5.863,0,12.812-1.489,12.812-1.489V62.295C64.535,59.457,63.085,56.943,60.826,55.508z M43.013,33.398l13.518,0.064
	c3.673-0.405,6.807-2.497,10.361-4.248c0,0,1.525-2.342,1.404-3.277c-0.036-0.273-0.707-0.187-0.768-0.508
	c-0.837-4.401-3.748-13.292-11.571-16.461v6.897c0,4.072-2.667,7.373-5.957,7.373s-5.957-3.3-5.957-7.373V8.774
	c-6.184,2.183-10.72,7.993-11.355,16.382c-0.025,0.333-0.979,0.669-0.989,1.01c-0.01,0.291,0.92,2.753,0.92,3.048
	C32.618,29.215,37.227,32.411,43.013,33.398z M50,22.192c-3.013,0-5.464-2.98-5.464-6.643V8.274h10.928v7.275
	C55.464,19.212,53.013,22.192,50,22.192z M45.536,9.274v6.275c0,3.111,2.002,5.643,4.464,5.643s4.464-2.531,4.464-5.643V9.274
	H45.536z"/>
</svg>
