<?xml version="1.0" encoding="utf-8"?>
<!-- Generator: Adobe Illustrator 16.0.0, SVG Export Plug-In . SVG Version: 6.00 Build 0)  -->
<!DOCTYPE svg PUBLIC "-//W3C//DTD SVG 1.1//EN" "http://www.w3.org/Graphics/SVG/1.1/DTD/svg11.dtd">
<svg version="1.1" id="Layer_11" xmlns="http://www.w3.org/2000/svg" xmlns:xlink="http://www.w3.org/1999/xlink" x="0px" y="0px"
	 width="100px" height="100px" viewBox="0 0 100 100" enable-background="new 0 0 100 100" xml:space="preserve">
<g>
	<path d="M67.361,49.673c0.315-0.928,1.118-1.872,2.622-2.801c6.814-4.21-4.862-7.205-13.956,0.641H42.288
		c-9.095-7.846-20.771-4.852-13.955-0.641c1.648,1.019,2.463,2.056,2.705,3.07c-8.032,3.903-13.597,12.12-13.597,21.634v19.508
		l0.049,0.304l1.347,0.42c12.659,3.955,23.664,5.276,32.719,5.276c17.685,0,27.936-5.044,28.57-5.364l1.257-0.639l0.132,0.002
		V71.576C81.515,61.842,75.695,53.459,67.361,49.673z"/>
	<path d="M59.436,10.115l0.084,0.172C56.613,8.443,53.177,7.36,49.479,7.36c-3.496,0-6.759,0.973-9.563,2.636l0.017-0.034
		c0,0-12.852,5.691-12.666,25.601l3.559-7.194c1.097,9.334,9.023,16.582,18.653,16.582c9.821,0,17.872-7.538,18.71-17.142
		l3.913,7.908C72.286,15.805,59.436,10.115,59.436,10.115z M47.725,32.789h3.917c2.924,0,5.292-2.131,5.292,0.792
		s-2.368,5.292-5.292,5.292h-3.917c-2.922,0-5.291-2.369-5.291-5.292S44.803,32.789,47.725,32.789z M58.419,27.304h-3.374
		c-2.739,0-4.961-2.221-4.961-4.961c0-0.792,0.203-1.53,0.532-2.194h-1.865c0.33,0.664,0.533,1.402,0.533,2.194
		c0,2.74-2.223,4.961-4.962,4.961h-3.373c-2.74,0-4.962-2.221-4.962-4.961c0-2.739,2.222-4.96,4.962-4.96h3.373
		c0.156,0,0.305,0.032,0.457,0.046c0.02-0.001,0.038-0.012,0.058-0.012h9.867c0.114-0.008,0.225-0.034,0.341-0.034h3.374
		c2.739,0,4.96,2.221,4.96,4.96C63.379,25.083,61.158,27.304,58.419,27.304z"/>
</g>
</svg>
