<?xml version="1.0" encoding="utf-8"?>
<!-- Generator: Adobe Illustrator 16.0.0, SVG Export Plug-In . SVG Version: 6.00 Build 0)  -->
<!DOCTYPE svg PUBLIC "-//W3C//DTD SVG 1.1//EN" "http://www.w3.org/Graphics/SVG/1.1/DTD/svg11.dtd">
<svg version="1.1" id="Layer_3" xmlns="http://www.w3.org/2000/svg" xmlns:xlink="http://www.w3.org/1999/xlink" x="0px" y="0px"
	 width="126px" height="126px" viewBox="0 0 126 126" enable-background="new 0 0 126 126" xml:space="preserve">
<g>
	<circle cx="97.234" cy="109.191" r="15.205"/>
	<path d="M80.262,71.229h11.642c2.39,0,4.614-1.225,5.894-3.244c1.278-2.02,1.434-4.553,0.412-6.714L83.322,29.788
		c-1.646-3.483-5.803-4.974-9.287-3.325c-3.482,1.647-4.972,5.806-3.324,9.288l10.177,21.525H68.977V8.58
		c0-3.853-3.123-6.976-6.976-6.976s-6.976,3.123-6.976,6.976v57.201c-1.584,1.849-2.597,4.193-2.571,6.99l0.273,35.402l-33.28,0.111
		c-3.26,0.01-5.894,2.661-5.883,5.922c0.01,3.253,2.651,5.883,5.902,5.883c0.006,0,0.013,0,0.02,0l39.662-0.133
		c1.361,0.778,2.815,1.353,4.241,1.69c0,0,1.605,0.465,3.309,0.412c1.628-0.049,3.44-0.444,3.44-0.444l0.045-0.008
		c5.103-1.296,10.515-5.511,10.459-11.763L80.354,72.53C80.35,72.085,80.317,71.651,80.262,71.229z"/>
</g>
</svg>
