<?xml version="1.0" encoding="utf-8"?>
<!-- Generator: Adobe Illustrator 16.0.0, SVG Export Plug-In . SVG Version: 6.00 Build 0)  -->
<!DOCTYPE svg PUBLIC "-//W3C//DTD SVG 1.1//EN" "http://www.w3.org/Graphics/SVG/1.1/DTD/svg11.dtd">
<svg version="1.1" id="Layer_1" xmlns="http://www.w3.org/2000/svg" xmlns:xlink="http://www.w3.org/1999/xlink" x="0px" y="0px"
	 width="50px" height="50px" viewBox="0 0 50 50" enable-background="new 0 0 50 50" xml:space="preserve">
<g>
	<circle cx="27.734" cy="18.387" r="2.691"/>
	<circle cx="29.146" cy="25.873" r="1.73"/>
	<path d="M20.522,38.896H36.04c0,0-4.503-3.619-4.408-7.587c0.056-2.211,4.408-5.025,4.386-11.168
		c-0.013-3.089-3.009-8.225-8.097-8.865c-5.089-0.641-8.897,0.479-10.561,3.616c-1.666,3.136-1.792,5.889-1.664,6.4
		c0.129,0.513,0.672,1.473,0.672,1.473s-2.56,3.936-2.401,4.576c0.162,0.641,1.918,0.986,1.918,0.986s0.159,0.445-0.162,1.309
		c-0.32,0.865,0.596,1.868,0.871,2.218c0.271,0.349-0.385,1.439-0.162,2.048c0.224,0.607,1.281,1.343,2.496,1.184
		c1.217-0.161,2.778-0.448,3.32-0.545C23.472,37.422,20.522,38.896,20.522,38.896z M32.009,27.168l-0.527,0.807l-0.512-0.336
		c-0.234,0.242-0.52,0.438-0.84,0.573l0.126,0.601l-0.942,0.197l-0.126-0.601c-0.351,0.006-0.689-0.06-1-0.188l-0.336,0.513
		l-0.807-0.527l0.335-0.513c-0.241-0.234-0.438-0.519-0.572-0.84l-0.602,0.126l-0.198-0.943l0.603-0.125
		c-0.005-0.349,0.06-0.688,0.187-0.999l-0.513-0.336l0.527-0.807l0.513,0.335c0.234-0.242,0.519-0.438,0.841-0.573l-0.126-0.601
		l0.942-0.198l0.126,0.602c0.349-0.006,0.688,0.06,0.999,0.187l0.336-0.513l0.807,0.526l-0.335,0.514
		c0.241,0.234,0.438,0.518,0.572,0.84l0.6-0.125l0.198,0.943l-0.601,0.125c0.006,0.349-0.06,0.688-0.187,1L32.009,27.168z
		 M23.196,16.57l0.931,0.215c0.212-0.479,0.522-0.918,0.92-1.287l-0.506-0.811l1.27-0.794l0.507,0.811
		c0.506-0.195,1.036-0.282,1.56-0.263l0.214-0.929l1.461,0.336l-0.214,0.929c0.478,0.213,0.915,0.523,1.285,0.92l0.81-0.506
		l0.795,1.271l-0.811,0.505c0.195,0.506,0.281,1.037,0.263,1.56l0.929,0.215l-0.337,1.46l-0.93-0.215
		c-0.211,0.478-0.521,0.918-0.919,1.287l0.506,0.81l-1.271,0.794l-0.505-0.81c-0.508,0.196-1.038,0.283-1.561,0.263l-0.215,0.929
		l-1.46-0.337l0.214-0.929c-0.478-0.212-0.917-0.522-1.285-0.92l-0.812,0.507l-0.794-1.271l0.812-0.506
		c-0.196-0.507-0.282-1.036-0.264-1.559l-0.93-0.215L23.196,16.57z"/>
</g>
</svg>
