<?xml version="1.0" encoding="utf-8"?>
<!-- Generator: Adobe Illustrator 16.0.0, SVG Export Plug-In . SVG Version: 6.00 Build 0)  -->
<!DOCTYPE svg PUBLIC "-//W3C//DTD SVG 1.1//EN" "http://www.w3.org/Graphics/SVG/1.1/DTD/svg11.dtd">
<svg version="1.1" id="Layer_1" xmlns="http://www.w3.org/2000/svg" xmlns:xlink="http://www.w3.org/1999/xlink" x="0px" y="0px"
	 width="50px" height="50px" viewBox="0 0 50 50" enable-background="new 0 0 50 50" xml:space="preserve">
<g>
	<path d="M25,15.005c1.842,0,3.337-2.14,3.337-3.98c0-1.843-1.495-3.337-3.337-3.337c-1.844,0-3.338,1.494-3.338,3.337
		C21.662,12.865,23.155,15.005,25,15.005z"/>
	<path d="M28.696,27.377h-0.955l-0.849,12.486h1.14l1.687,1.146c0.023-0.133,0.037-0.267,0.025-0.406l-1.049-13.06V27.377z"/>
	<path d="M23.108,39.863l-0.849-12.486h-0.955v0.166l-1.049,13.06c-0.012,0.14,0.002,0.273,0.025,0.406l1.687-1.146H23.108z"/>
	<path d="M19.256,26.796h-0.551v-3.781h1.747l0.486-4.373c0.112-0.034,0.234-0.07,0.366-0.108v4.481h2.717l-0.077-0.135l0.209-1.628
		c-0.1-0.229-0.17-0.486-0.17-0.781v-0.094c-0.405-0.262-0.664-0.713-0.664-1.205v-0.829c0-0.781,0.62-1.406,1.391-1.445
		l0.121-0.938h-0.009l-0.336-0.672c-2.439,0.126-5.095,1.079-5.215,1.122c-0.074,0.026-0.13,0.08-0.196,0.117
		c-0.068,0.042-0.14,0.073-0.203,0.122c-0.074,0.066-0.128,0.144-0.186,0.221c-0.043,0.059-0.096,0.109-0.13,0.179
		c-0.046,0.088-0.067,0.185-0.09,0.28c-0.016,0.06-0.051,0.11-0.057,0.176l-1.056,9.502c-0.081,0.725,0.441,1.375,1.165,1.456
		c0.049,0.005,0.1,0.01,0.148,0.01c0.635,0,1.171-0.464,1.284-1.095h-0.695V26.796z"/>
	<path d="M31.589,17.504c-0.005-0.065-0.04-0.118-0.058-0.181c-0.022-0.094-0.042-0.188-0.087-0.273
		c-0.037-0.071-0.089-0.128-0.137-0.189c-0.057-0.072-0.108-0.146-0.177-0.208c-0.066-0.055-0.142-0.089-0.213-0.129
		c-0.066-0.036-0.116-0.089-0.187-0.114c-0.122-0.043-2.778-0.996-5.217-1.122l-0.338,0.672h-0.007l0.121,0.938
		c0.771,0.037,1.392,0.664,1.392,1.445v0.829c0,0.492-0.259,0.943-0.664,1.205v0.094c0,0.296-0.071,0.553-0.171,0.782l0.209,1.627
		l-0.077,0.135h2.717v-4.481c0.131,0.038,0.252,0.074,0.366,0.108l0.486,4.373h1.748v3.781h-0.551v0.581h-0.695
		c0.113,0.631,0.649,1.095,1.284,1.095c0.048,0,0.099-0.005,0.148-0.01c0.723-0.081,1.245-0.731,1.165-1.456L31.589,17.504z"/>
	<path d="M25.663,41.012l1.005-14.783h2.928v-0.581h0.551v-1.484h-4.993v-2.87c0.168-0.125,0.29-0.444,0.29-0.822v-0.459
		c0.377-0.102,0.664-0.432,0.664-0.84v-0.829c0-0.486-0.398-0.884-0.885-0.884h-0.442c-0.486,0-0.884,0.397-0.884,0.884v0.829
		c0,0.408,0.286,0.738,0.664,0.84v0.459c0,0.378,0.122,0.697,0.29,0.822v2.87h-4.994v1.484h0.55v0.581h2.928l1.005,14.783H22.32
		l-1.916,1.301h9.19l-1.916-1.301H25.663z"/>
</g>
</svg>
