<?xml version="1.0" encoding="utf-8"?>
<!-- Generator: Adobe Illustrator 16.0.0, SVG Export Plug-In . SVG Version: 6.00 Build 0)  -->
<!DOCTYPE svg PUBLIC "-//W3C//DTD SVG 1.1//EN" "http://www.w3.org/Graphics/SVG/1.1/DTD/svg11.dtd">
<svg version="1.1" id="Layer_1" xmlns="http://www.w3.org/2000/svg" xmlns:xlink="http://www.w3.org/1999/xlink" x="0px" y="0px"
	 width="126px" height="126px" viewBox="0 0 126 126" enable-background="new 0 0 126 126" xml:space="preserve">
<g>
	<path d="M42.859,62.059l-1.17-0.446v-6.236c1.791,0.19,3.613,0.648,5.425,1.364l0.45,0.178l1.784-4.47l-0.444-0.184
		c-2.271-0.936-4.695-1.479-7.214-1.616v-3.242h-3.57v3.333c-2.28,0.295-4.134,1.024-5.513,2.166
		c-1.51,1.251-2.275,2.866-2.275,4.806c0,1.791,0.536,3.321,1.592,4.545c1.031,1.194,2.669,2.229,4.875,3.078l1.321,0.485v6.46
		c-1.022-0.054-2.168-0.236-3.417-0.546c-1.456-0.362-2.745-0.813-3.827-1.343l-0.702-0.342v5.212l0.287,0.13
		c2.018,0.913,4.592,1.423,7.659,1.516v4.13h3.57v-4.29c2.484-0.332,4.438-1.114,5.809-2.333c1.481-1.313,2.233-3.006,2.233-5.028
		c0-1.639-0.521-3.048-1.549-4.191C47.169,64.072,45.429,63.045,42.859,62.059z M38.119,60.255
		c-0.783-0.358-1.341-0.715-1.666-1.061c-0.376-0.403-0.561-0.903-0.561-1.522c0-0.574,0.213-1.041,0.654-1.429
		c0.375-0.329,0.902-0.576,1.572-0.734V60.255z M41.689,72.037v-4.925c0.831,0.35,1.444,0.705,1.827,1.059
		c0.427,0.394,0.634,0.888,0.634,1.506C44.151,70.139,44.151,71.485,41.689,72.037z"/>
	<path d="M66.92,17.477l-1.17-0.445v-6.237c1.791,0.191,3.613,0.649,5.424,1.363l0.451,0.177l1.783-4.467l-0.444-0.186
		c-2.271-0.936-4.696-1.478-7.214-1.616V2.824h-3.57v3.333c-2.28,0.295-4.134,1.023-5.513,2.167c-1.51,1.25-2.276,2.865-2.276,4.805
		c0,1.792,0.536,3.321,1.592,4.544c1.03,1.195,2.669,2.23,4.875,3.077l1.321,0.488v6.457c-1.021-0.053-2.167-0.234-3.417-0.544
		c-1.455-0.361-2.744-0.813-3.827-1.343l-0.702-0.341v5.212l0.287,0.129c2.018,0.913,4.592,1.423,7.659,1.517v4.129h3.57v-4.291
		c2.484-0.331,4.438-1.115,5.809-2.331c1.48-1.313,2.232-3.007,2.232-5.029c0-1.639-0.52-3.049-1.549-4.191
		C71.23,19.489,69.49,18.463,66.92,17.477z M62.18,15.673c-0.783-0.358-1.341-0.714-1.667-1.06c-0.376-0.404-0.56-0.904-0.56-1.523
		c0-0.573,0.213-1.042,0.654-1.429c0.375-0.33,0.902-0.576,1.572-0.734V15.673z M65.75,27.455V22.53
		c0.832,0.35,1.444,0.706,1.826,1.058c0.429,0.395,0.635,0.889,0.635,1.507C68.212,25.558,68.212,26.902,65.75,27.455z"/>
	<path d="M42.859,17.477l-1.17-0.445v-6.237c1.791,0.191,3.613,0.649,5.425,1.363l0.45,0.177l1.784-4.467l-0.444-0.186
		c-2.271-0.936-4.695-1.478-7.214-1.616V2.824h-3.57v3.333c-2.28,0.295-4.134,1.023-5.513,2.167c-1.51,1.25-2.275,2.865-2.275,4.805
		c0,1.792,0.536,3.321,1.592,4.544c1.031,1.195,2.669,2.23,4.875,3.077l1.321,0.488v6.457c-1.022-0.053-2.168-0.234-3.417-0.544
		c-1.456-0.361-2.745-0.813-3.827-1.343l-0.702-0.341v5.212l0.287,0.129c2.018,0.913,4.592,1.423,7.659,1.517v4.129h3.57v-4.291
		c2.484-0.331,4.438-1.115,5.809-2.331c1.481-1.313,2.233-3.007,2.233-5.029c0-1.639-0.521-3.049-1.549-4.191
		C47.169,19.489,45.429,18.463,42.859,17.477z M38.119,15.673c-0.783-0.358-1.341-0.714-1.666-1.06
		c-0.376-0.404-0.561-0.904-0.561-1.523c0-0.573,0.213-1.042,0.654-1.429c0.375-0.33,0.902-0.576,1.572-0.734V15.673z
		 M41.689,27.455V22.53c0.831,0.35,1.444,0.706,1.827,1.058c0.427,0.395,0.634,0.889,0.634,1.507
		C44.151,25.558,44.151,26.902,41.689,27.455z"/>
	<circle cx="65.14" cy="48.16" r="3.762"/>
	<path d="M67.642,52.837c-0.063-0.039-0.128-0.066-0.194-0.093c-0.42-0.279-0.891-0.485-1.371-0.604l-0.936,0.944l-0.909-0.952
		c-0.003,0-0.006,0-0.01,0c-0.481,0.116-0.954,0.32-1.375,0.599c-0.075,0.031-0.149,0.062-0.222,0.106
		c-2.92,1.79-4.598,3.209-5.116,11.497c-0.05,0.805,0.563,1.499,1.367,1.55c0.032,0.002,0.063,0.002,0.093,0.002
		c0.765,0,1.407-0.595,1.456-1.369c0.175-2.798,0.459-4.612,0.865-5.863v5.062c0,0.393,0.077,0.758,0.209,1.095
		c-0.01,0.076-0.017,0.153-0.017,0.231l0.001,13.986c0,0.955,0.773,1.726,1.726,1.726c0.954,0,1.725-0.772,1.725-1.728l-0.001-12
		c0.068,0.002,0.137,0.007,0.207,0.007c0.014,0,0.026,0,0.04,0v11.993c0,0.955,0.772,1.728,1.726,1.728
		c0.953,0,1.725-0.772,1.725-1.728l0.001-13.897c0.227-0.42,0.358-0.895,0.358-1.413v-5.018c0.4,1.248,0.678,3.052,0.851,5.819
		c0.048,0.774,0.69,1.369,1.457,1.369c0.03,0,0.062,0,0.091-0.002c0.806-0.051,1.418-0.745,1.369-1.55
		C72.239,56.046,70.562,54.627,67.642,52.837z M65.149,60.528h-0.018l-0.906-1.241l0.906-6.063h0.018l0.907,6.063L65.149,60.528z"/>
	<circle cx="88.207" cy="48.161" r="3.761"/>
	<path d="M90.708,52.837c-0.063-0.039-0.128-0.066-0.194-0.093c-0.42-0.279-0.891-0.485-1.371-0.604l-0.936,0.944l-0.909-0.952
		c-0.003,0-0.006,0-0.009,0c-0.482,0.116-0.954,0.32-1.376,0.599c-0.075,0.031-0.148,0.062-0.222,0.106
		c-2.919,1.79-4.598,3.209-5.115,11.497c-0.051,0.805,0.562,1.499,1.366,1.55c0.033,0.002,0.063,0.002,0.093,0.002
		c0.765,0,1.408-0.595,1.457-1.369c0.174-2.798,0.458-4.612,0.864-5.863v5.062c0,0.393,0.077,0.758,0.21,1.095
		c-0.011,0.076-0.018,0.153-0.018,0.231l0.002,13.986c0,0.955,0.772,1.726,1.725,1.726c0.954,0,1.726-0.772,1.726-1.728l-0.001-12
		c0.069,0.002,0.138,0.007,0.206,0.007c0.014,0,0.027,0,0.041,0v11.993c0,0.955,0.771,1.728,1.726,1.728
		c0.953,0,1.726-0.772,1.726-1.728l0-13.897c0.226-0.42,0.358-0.895,0.358-1.413v-5.018c0.4,1.248,0.679,3.052,0.851,5.819
		c0.048,0.774,0.691,1.369,1.456,1.369c0.031,0,0.062,0,0.092-0.002c0.806-0.051,1.417-0.745,1.368-1.55
		C95.305,56.046,93.629,54.627,90.708,52.837z M88.215,60.528h-0.019l-0.906-1.241l0.906-6.063h0.019l0.907,6.063L88.215,60.528z"/>
	<circle cx="65.14" cy="91.944" r="3.762"/>
	<path d="M67.642,96.624c-0.063-0.04-0.128-0.067-0.194-0.096c-0.42-0.279-0.891-0.484-1.371-0.604l-0.936,0.945l-0.909-0.953
		c-0.003,0-0.006,0-0.01,0c-0.481,0.115-0.954,0.32-1.375,0.6c-0.075,0.03-0.149,0.061-0.222,0.107
		c-2.92,1.788-4.598,3.207-5.116,11.496c-0.05,0.803,0.563,1.498,1.367,1.55c0.032,0.002,0.063,0.002,0.093,0.002
		c0.765,0,1.407-0.595,1.456-1.37c0.175-2.798,0.459-4.611,0.865-5.863v5.062c0,0.393,0.077,0.758,0.209,1.096
		c-0.01,0.076-0.017,0.152-0.017,0.231l0.001,13.984c0,0.955,0.773,1.727,1.726,1.727c0.954,0,1.725-0.772,1.725-1.728l-0.001-12
		c0.068,0.002,0.137,0.006,0.207,0.006c0.014,0,0.026,0,0.04,0v11.994c0,0.955,0.772,1.728,1.726,1.728
		c0.953,0,1.725-0.772,1.725-1.728l0.001-13.896c0.227-0.421,0.358-0.895,0.358-1.414v-5.018c0.4,1.248,0.678,3.053,0.851,5.819
		c0.048,0.775,0.69,1.37,1.457,1.37c0.03,0,0.062,0,0.091-0.002c0.806-0.052,1.418-0.747,1.369-1.55
		C72.239,99.831,70.562,98.412,67.642,96.624z M65.149,104.313h-0.018l-0.906-1.24l0.906-6.065h0.018l0.907,6.065L65.149,104.313z"
		/>
	<circle cx="41.472" cy="91.944" r="3.762"/>
	<path d="M43.973,96.624c-0.063-0.04-0.128-0.067-0.193-0.096c-0.42-0.279-0.891-0.484-1.371-0.604l-0.937,0.945l-0.91-0.953
		c-0.002,0-0.005,0-0.009,0c-0.481,0.115-0.954,0.32-1.375,0.6c-0.075,0.03-0.149,0.061-0.222,0.107
		c-2.92,1.788-4.598,3.207-5.116,11.496c-0.051,0.803,0.562,1.498,1.367,1.55c0.032,0.002,0.063,0.002,0.093,0.002
		c0.765,0,1.407-0.595,1.456-1.37c0.175-2.798,0.458-4.611,0.865-5.863v5.062c0,0.393,0.077,0.758,0.21,1.096
		c-0.011,0.076-0.017,0.152-0.017,0.231l0.001,13.984c0,0.955,0.773,1.727,1.726,1.727s1.726-0.772,1.726-1.728l-0.002-12
		c0.069,0.002,0.138,0.006,0.207,0.006c0.014,0,0.026,0,0.04,0v11.994c0,0.955,0.772,1.728,1.726,1.728
		c0.953,0,1.725-0.772,1.725-1.728l0.001-13.896c0.227-0.421,0.358-0.895,0.358-1.414v-5.018c0.4,1.248,0.678,3.053,0.851,5.819
		c0.048,0.775,0.691,1.37,1.457,1.37c0.03,0,0.062,0,0.091-0.002c0.806-0.052,1.417-0.747,1.368-1.55
		C48.571,99.831,46.895,98.412,43.973,96.624z M41.48,104.313h-0.018l-0.906-1.24l0.906-6.065h0.018l0.907,6.065L41.48,104.313z"/>
	<circle cx="88.207" cy="91.944" r="3.762"/>
	<path d="M90.708,96.624c-0.063-0.04-0.128-0.067-0.194-0.096c-0.42-0.279-0.891-0.484-1.371-0.604l-0.936,0.945l-0.909-0.953
		c-0.003,0-0.006,0-0.009,0c-0.482,0.115-0.954,0.32-1.376,0.6c-0.075,0.03-0.148,0.061-0.222,0.107
		c-2.919,1.788-4.598,3.207-5.115,11.496c-0.051,0.803,0.562,1.498,1.366,1.55c0.033,0.002,0.063,0.002,0.093,0.002
		c0.765,0,1.408-0.595,1.457-1.37c0.174-2.798,0.458-4.611,0.864-5.863v5.062c0,0.393,0.077,0.758,0.21,1.096
		c-0.011,0.076-0.018,0.152-0.018,0.231l0.002,13.984c0,0.955,0.772,1.727,1.725,1.727c0.954,0,1.726-0.772,1.726-1.728l-0.001-12
		c0.069,0.002,0.138,0.006,0.206,0.006c0.014,0,0.027,0,0.041,0v11.994c0,0.955,0.771,1.728,1.726,1.728
		c0.953,0,1.726-0.772,1.726-1.728l0-13.896c0.226-0.421,0.358-0.895,0.358-1.414v-5.018c0.4,1.248,0.679,3.053,0.851,5.819
		c0.048,0.775,0.691,1.37,1.456,1.37c0.031,0,0.062,0,0.092-0.002c0.806-0.052,1.417-0.747,1.368-1.55
		C95.305,99.831,93.629,98.412,90.708,96.624z M88.215,104.313h-0.019l-0.906-1.24l0.906-6.065h0.019l0.907,6.065L88.215,104.313z"
		/>
	<circle cx="88.207" cy="5.224" r="3.762"/>
	<path d="M81.942,22.946c0.033,0.003,0.063,0.003,0.093,0.003c0.765,0,1.408-0.596,1.457-1.37c0.174-2.797,0.458-4.611,0.864-5.862
		v5.061c0,0.394,0.077,0.758,0.21,1.096c-0.011,0.075-0.018,0.153-0.018,0.231l0.002,13.985c0,0.955,0.772,1.726,1.725,1.726
		c0.954,0,1.726-0.771,1.726-1.728l-0.001-12c0.069,0.002,0.138,0.007,0.206,0.007c0.014,0,0.027,0,0.041,0v11.993
		c0,0.956,0.771,1.728,1.726,1.728c0.953,0,1.726-0.771,1.726-1.728l0-13.896c0.226-0.42,0.358-0.894,0.358-1.414V15.76
		c0.4,1.248,0.679,3.054,0.851,5.819c0.048,0.774,0.691,1.37,1.456,1.37c0.031,0,0.062,0,0.092-0.003
		c0.806-0.051,1.417-0.745,1.368-1.548c-0.518-8.289-2.194-9.708-5.115-11.496c-0.063-0.041-0.128-0.067-0.194-0.096
		c-0.42-0.279-0.891-0.485-1.371-0.604l-0.936,0.944l-0.909-0.953c-0.003,0-0.006,0-0.009,0c-0.482,0.116-0.954,0.32-1.376,0.6
		c-0.075,0.03-0.148,0.061-0.222,0.108c-2.919,1.788-4.598,3.207-5.115,11.496C80.525,22.201,81.138,22.896,81.942,22.946z
		 M88.197,10.286h0.019l0.907,6.064l-0.907,1.24h-0.019l-0.906-1.24L88.197,10.286z"/>
</g>
</svg>
