<?xml version="1.0" encoding="utf-8"?>
<!-- Generator: Adobe Illustrator 16.0.0, SVG Export Plug-In . SVG Version: 6.00 Build 0)  -->
<!DOCTYPE svg PUBLIC "-//W3C//DTD SVG 1.1//EN" "http://www.w3.org/Graphics/SVG/1.1/DTD/svg11.dtd">
<svg version="1.1" id="Layer_1" xmlns="http://www.w3.org/2000/svg" xmlns:xlink="http://www.w3.org/1999/xlink" x="0px" y="0px"
	 width="50px" height="50px" viewBox="0 0 50 50" enable-background="new 0 0 50 50" xml:space="preserve">
<g>
	<path d="M15.638,15.524c0.724-0.485,1.223-1.447,1.223-2.311c0-1.221-0.99-2.21-2.21-2.21s-2.21,0.989-2.21,2.21
		c0,0.863,0.499,1.825,1.223,2.311c-1.73,0.439-3.014,1.942-3.014,3.057c0,1.315,8.001,1.315,8.001,0
		C18.65,17.467,17.368,15.964,15.638,15.524z M14.65,19.566l-1.121-1.119l0.943-2.282h-0.01l-0.366-0.419
		c0.178,0.063,0.362,0.102,0.554,0.102s0.376-0.038,0.553-0.102l-0.366,0.419h-0.009l0.943,2.282L14.65,19.566z"/>
	<path d="M20.485,16.567v3h18.866v-3H20.485z M38.583,19.125h-8.664V17.01h8.664V19.125z"/>
	<path d="M15.638,25.238c0.724-0.485,1.223-1.447,1.223-2.311c0-1.221-0.99-2.21-2.21-2.21s-2.21,0.989-2.21,2.21
		c0,0.863,0.499,1.825,1.223,2.311c-1.73,0.439-3.014,1.942-3.014,3.057c0,1.315,8.001,1.315,8.001,0
		C18.65,27.181,17.368,25.678,15.638,25.238z M14.65,29.28l-1.121-1.119l0.943-2.282h-0.01l-0.366-0.419
		c0.178,0.063,0.362,0.102,0.554,0.102s0.376-0.038,0.553-0.102l-0.366,0.419h-0.009l0.943,2.282L14.65,29.28z"/>
	<path d="M20.485,29.281h18.866v-3H20.485V29.281z M38.583,28.839h-3.539v-2.115h3.539V28.839z"/>
	<path d="M15.638,34.952c0.724-0.485,1.223-1.447,1.223-2.311c0-1.221-0.99-2.21-2.21-2.21s-2.21,0.989-2.21,2.21
		c0,0.863,0.499,1.825,1.223,2.311c-1.73,0.439-3.014,1.942-3.014,3.057c0,1.315,8.001,1.315,8.001,0
		C18.65,36.895,17.368,35.392,15.638,34.952z M14.65,38.994l-1.121-1.119l0.943-2.282h-0.01l-0.366-0.419
		c0.178,0.063,0.362,0.102,0.554,0.102s0.376-0.038,0.553-0.102l-0.366,0.419h-0.009l0.943,2.282L14.65,38.994z"/>
	<path d="M20.485,38.995h18.866v-3H20.485V38.995z M38.583,38.553H25.395v-2.115h13.188V38.553z"/>
</g>
</svg>
