<?xml version="1.0" encoding="utf-8"?>
<!-- Generator: Adobe Illustrator 16.0.0, SVG Export Plug-In . SVG Version: 6.00 Build 0)  -->
<!DOCTYPE svg PUBLIC "-//W3C//DTD SVG 1.1//EN" "http://www.w3.org/Graphics/SVG/1.1/DTD/svg11.dtd">
<svg version="1.1" id="Layer_1" xmlns="http://www.w3.org/2000/svg" xmlns:xlink="http://www.w3.org/1999/xlink" x="0px" y="0px"
	 width="50px" height="50px" viewBox="0 0 50 50" enable-background="new 0 0 50 50" xml:space="preserve">
<g>
	<path d="M18.04,15.627c1.727,0,3.128-2.004,3.128-3.73c0-1.729-1.401-3.129-3.128-3.129c-1.73,0-3.132,1.4-3.132,3.129
		C14.908,13.623,16.31,15.627,18.04,15.627z"/>
	<path d="M24.164,17.8c-0.023-0.086-0.041-0.174-0.082-0.254c-0.038-0.071-0.089-0.129-0.138-0.19
		c-0.051-0.062-0.093-0.126-0.152-0.179c-0.07-0.061-0.152-0.1-0.234-0.144c-0.051-0.026-0.092-0.067-0.146-0.089
		c-0.112-0.04-2.605-0.933-4.894-1.051l-0.314,0.629h-0.006l0.832,6.489l-0.989,1.73l-0.99-1.73l0.832-6.489h-0.008l-0.311-0.621
		c-2.087,0.105-4.335,0.848-4.805,1.01c-0.019,0.008-0.038,0.016-0.059,0.021c-0.012,0.005-0.027,0.01-0.03,0.012
		c-0.025,0.009-0.042,0.03-0.066,0.04c-0.118,0.052-0.23,0.111-0.327,0.198c-0.045,0.041-0.076,0.091-0.114,0.137
		c-0.062,0.073-0.124,0.143-0.168,0.229c-0.039,0.078-0.054,0.16-0.076,0.246c-0.018,0.06-0.051,0.111-0.057,0.177l-0.989,8.909
		c-0.075,0.679,0.413,1.289,1.092,1.365c0.048,0.007,0.094,0.008,0.137,0.008c0.623,0,1.159-0.468,1.229-1.102l0.901-8.113
		c0.105-0.03,0.221-0.065,0.343-0.1v8.445L13.59,39.628c-0.065,0.817,0.544,1.534,1.361,1.599c0.04,0.004,0.082,0.005,0.12,0.005
		c0.766,0,1.417-0.588,1.479-1.365l0.89-11.067c0.185,0.082,0.387,0.13,0.601,0.13s0.415-0.048,0.599-0.13l0.891,11.067
		c0.062,0.777,0.713,1.365,1.479,1.365c0.038,0,0.08-0.001,0.118-0.005c0.819-0.064,1.428-0.781,1.362-1.599l-0.985-12.244v-8.445
		c0.123,0.034,0.237,0.069,0.345,0.1l0.9,8.113c0.069,0.634,0.605,1.102,1.229,1.102c0.046,0,0.092-0.004,0.138-0.008
		c0.68-0.076,1.168-0.687,1.093-1.365l-0.99-8.909C24.212,17.909,24.179,17.857,24.164,17.8z"/>
	<path d="M37.269,16.358h-1.865v-1.244c0-0.343-0.168-0.622-0.372-0.622h-2.985c-0.205,0-0.373,0.279-0.373,0.622v1.244h-1.865
		c-1.029,0-1.865,0.837-1.865,1.865v21.143c0,1.028,0.836,1.865,1.865,1.865h7.461c1.029,0,1.866-0.837,1.866-1.865V18.224
		C39.135,17.195,38.298,16.358,37.269,16.358z M37.891,39.366c0,0.342-0.279,0.621-0.622,0.621h-7.461
		c-0.343,0-0.622-0.279-0.622-0.621V18.224c0-0.343,0.279-0.622,0.622-0.622h7.461c0.343,0,0.622,0.279,0.622,0.622V39.366z"/>
	<path d="M30.43,38.122c0,0.343,0.279,0.622,0.621,0.622h4.975c0.342,0,0.621-0.279,0.621-0.622v-9.467l-6.217-3.59V38.122z"/>
</g>
</svg>
