<?xml version="1.0" encoding="utf-8"?>
<!-- Generator: Adobe Illustrator 16.0.0, SVG Export Plug-In . SVG Version: 6.00 Build 0)  -->
<!DOCTYPE svg PUBLIC "-//W3C//DTD SVG 1.1//EN" "http://www.w3.org/Graphics/SVG/1.1/DTD/svg11.dtd">
<svg version="1.1" id="Layer_3" xmlns="http://www.w3.org/2000/svg" xmlns:xlink="http://www.w3.org/1999/xlink" x="0px" y="0px"
	 width="126px" height="126px" viewBox="0 0 126 126" enable-background="new 0 0 126 126" xml:space="preserve">
<g>
	<circle cx="42.438" cy="30.407" r="8.472"/>
	<circle cx="11.389" cy="59.548" r="5.414"/>
	<circle cx="83.562" cy="30.407" r="8.472"/>
	<path d="M120.558,67.823c-0.081-0.046-0.167-0.079-0.253-0.111c-0.902-0.537-3.452-2.227-4.372-2.447
		c-0.004-0.001-0.01-0.002-0.014-0.004l-1.308,1.374l-1.348-1.358c-0.538,0.132-6.962,3.892-9.555,1.63
		c0.813-0.947,1.053-2.317,0.494-3.524C99.43,53.046,95.66,44.883,89.232,40.941c-0.167-0.104-0.344-0.183-0.521-0.252
		c-0.944-0.623-2.003-1.079-3.083-1.338c-0.006-0.001-0.014-0.002-0.021-0.004l-2.048,2.149l-2.11-2.125
		c-0.84,0.206-3.099,1.321-3.388,1.498c-0.346,0.211-0.687,0.425-1.024,0.644c-0.863,0.459-8.604,4.893-14.007,18.501
		c-5.251-13.198-12.699-17.752-13.906-18.42c-1.032-0.667-1.972-1.22-2.133-1.261c-0.771-0.431-1.601-0.757-2.441-0.962
		l-2.111,2.125l-2.046-2.149c-0.008,0.002-0.016,0.002-0.021,0.004c-1.08,0.259-2.139,0.715-3.084,1.338
		c-0.179,0.07-0.354,0.148-0.522,0.252c-6.426,3.942-10.197,12.105-14.969,22.441c-0.56,1.207-0.319,2.577,0.494,3.524
		c-2.593,2.262-9.017-1.498-9.555-1.63l-1.348,1.358l-1.309-1.374c-0.004,0.001-0.009,0.003-0.013,0.004
		c-0.92,0.22-3.47,1.91-4.372,2.447c-0.086,0.033-0.172,0.065-0.255,0.111c-0.19,0.109-4.687,2.761-4.687,10.527
		c0,1.063,0.861,1.925,1.924,1.925c1.064,0,1.926-0.862,1.926-1.925c0-2.566,0.601-4.296,1.243-5.42v2.732L3.726,87.78h2.398
		l0.002,13.8c0,1.372,1.112,2.485,2.483,2.484c1.372,0,2.484-1.112,2.484-2.484l-0.002-13.8h0.354v13.8
		c0,1.372,1.112,2.484,2.482,2.484c1.375,0,2.485-1.112,2.485-2.484l0.002-13.8h2.749L16.93,75.626V72.06
		c0.777,0.285,1.606,0.466,2.488,0.466c1.843,0,3.928-0.79,6.331-3.085c0.508-0.485,0.715-1.163,0.623-1.809
		c0.592-0.327,1.092-0.83,1.396-1.491c2.131-4.614,4.042-8.746,6-12.098v11.394c0,0.885,0.173,1.71,0.472,2.47
		c-0.021,0.17-0.038,0.343-0.038,0.521l0.004,31.496c0,2.147,1.739,3.887,3.886,3.886c2.147,0,3.888-1.74,3.888-3.886l-0.002-27.031
		c0.153,0.007,0.308,0.02,0.462,0.02c0.03,0,0.061-0.003,0.089-0.003v27.014c0,2.146,1.741,3.886,3.888,3.886
		c0.002,0,0.002,0,0.002,0c2.145,0,3.886-1.74,3.886-3.886l0.002-31.303c0.51-0.944,0.806-2.012,0.806-3.184V53.494
		c0.016,0.043,0.01-0.418,0.006-1.179c2.024,2.554,4.323,6.285,6.257,11.592c0.494,1.354,1.773,2.196,3.137,2.196
		c0.378,0,0.766-0.065,1.143-0.203c0.568-0.207,1.036-0.562,1.398-0.995c0.359,0.417,0.816,0.759,1.371,0.961
		c0.376,0.138,0.763,0.203,1.143,0.203c1.361,0,2.641-0.841,3.135-2.196c1.815-4.982,3.962-8.581,5.904-11.122
		c0.116,0.292,0.198,0.6,0.225,0.925c0.021-0.06,0.04-0.125,0.061-0.184v7.136l-4.346,28.365c1.626,0.808,3.369,1.367,5.154,1.738
		v9.189c0,2.146,1.739,3.886,3.886,3.886c0,0,0,0,0.002,0c2.146,0,3.886-1.74,3.886-3.886v-8.594
		c0.186-0.007,0.368-0.016,0.553-0.024l-0.002,8.618c0,2.146,1.739,3.886,3.888,3.886c2.146,0.001,3.886-1.739,3.886-3.886
		l0.002-9.614c3.084-0.631,5.11-1.313,5.11-1.313l-4.675-29.446v-5.507c1.958,3.352,3.868,7.484,6,12.098
		c0.304,0.661,0.804,1.164,1.395,1.491c-0.091,0.646,0.116,1.324,0.624,1.809c2.402,2.295,4.488,3.085,6.33,3.085
		c0.882,0,1.711-0.181,2.488-0.466v3.567l-2.233,12.153h2.749v13.8c0,1.372,1.112,2.484,2.484,2.484
		c1.373,0,2.485-1.112,2.485-2.484v-13.8h0.354l-0.002,13.8c0,1.372,1.111,2.484,2.484,2.484c1.371,0,2.482-1.112,2.482-2.484
		l0.002-13.8h2.399l-2.122-12.119v-2.732c0.643,1.124,1.244,2.854,1.244,5.42c0,1.063,0.861,1.925,1.926,1.925
		c1.063,0,1.924-0.862,1.924-1.925C125.246,70.583,120.75,67.932,120.558,67.823z"/>
	<circle cx="114.611" cy="59.548" r="5.414"/>
</g>
</svg>
