<?xml version="1.0" encoding="utf-8"?>
<!-- Generator: Adobe Illustrator 16.0.0, SVG Export Plug-In . SVG Version: 6.00 Build 0)  -->
<!DOCTYPE svg PUBLIC "-//W3C//DTD SVG 1.1//EN" "http://www.w3.org/Graphics/SVG/1.1/DTD/svg11.dtd">
<svg version="1.1" id="Layer_1" xmlns="http://www.w3.org/2000/svg" xmlns:xlink="http://www.w3.org/1999/xlink" x="0px" y="0px"
	 width="50px" height="50px" viewBox="0 0 50 50" enable-background="new 0 0 50 50" xml:space="preserve">
<g>
	<path d="M35.666,34.194c-0.932-0.349-1.315-0.581-1.315-0.94c0-0.308,0.229-0.616,0.942-0.616c0.789,0,1.292,0.254,1.578,0.375
		l0.318-1.239c-0.361-0.176-0.855-0.327-1.589-0.362v-0.964h-1.074v1.04c-1.172,0.23-1.851,0.987-1.851,1.951
		c0,1.062,0.8,1.61,1.972,2.007c0.812,0.271,1.161,0.536,1.161,0.951c0,0.439-0.427,0.681-1.052,0.681
		c-0.711,0-1.358-0.231-1.817-0.482l-0.329,1.282c0.416,0.24,1.128,0.438,1.862,0.471v1.041h1.074v-1.117
		c1.26-0.22,1.951-1.053,1.951-2.027C37.496,35.258,36.97,34.654,35.666,34.194z"/>
	<path d="M35.053,28.785c-3.237,0-5.889,2.521-6.111,5.702l-3.626-1.197v-5.026c0-0.045-0.01-0.086-0.026-0.125
		c5.16-0.154,9.313-4.39,9.313-9.587c0-5.294-4.307-9.602-9.602-9.602s-9.602,4.308-9.602,9.602c0,5.197,4.153,9.433,9.313,9.587
		c-0.017,0.039-0.026,0.08-0.026,0.125v5.026l-3.626,1.197c-0.222-3.181-2.875-5.702-6.111-5.702c-3.381,0-6.133,2.751-6.133,6.133
		s2.751,6.133,6.133,6.133c3.304,0,5.999-2.628,6.122-5.902L25,33.848l3.931,1.301c0.123,3.274,2.817,5.902,6.122,5.902
		c3.381,0,6.133-2.751,6.133-6.133S38.434,28.785,35.053,28.785z M16.238,18.552c0-4.832,3.931-8.762,8.762-8.762
		s8.762,3.93,8.762,8.762c0,4.83-3.931,8.763-8.762,8.763S16.238,23.382,16.238,18.552z M14.947,40.211
		c-2.919,0-5.293-2.375-5.293-5.293c0-2.919,2.375-5.294,5.293-5.294s5.294,2.375,5.294,5.294
		C20.241,37.836,17.866,40.211,14.947,40.211z M35.053,40.211c-2.919,0-5.294-2.375-5.294-5.293c0-2.919,2.375-5.294,5.294-5.294
		s5.293,2.375,5.293,5.294C40.346,37.836,37.972,40.211,35.053,40.211z"/>
	<path d="M14.947,32.265c0.496,0,0.898-0.574,0.898-1.07s-0.402-0.897-0.898-0.897c-0.495,0-0.898,0.401-0.898,0.897
		S14.452,32.265,14.947,32.265z"/>
	<path d="M16.359,33.191c-0.001-0.004-0.004-0.006-0.004-0.009c-0.005-0.02-0.015-0.035-0.024-0.053
		c-0.009-0.017-0.017-0.033-0.028-0.049c-0.003-0.003-0.003-0.006-0.005-0.009c-0.024-0.027-0.594-0.665-1.35-0.665
		c-0.755,0-1.325,0.638-1.349,0.665c-0.002,0.003-0.003,0.006-0.006,0.01c-0.011,0.015-0.019,0.03-0.027,0.048
		s-0.02,0.033-0.025,0.053c0,0.003-0.003,0.005-0.004,0.009l-0.568,2.271c-0.038,0.151,0.054,0.307,0.207,0.344
		c0.023,0.007,0.046,0.009,0.069,0.009c0.127,0,0.243-0.087,0.275-0.215l0.546-2.186l0.144,1.334l-0.931,1.82
		c0,0.067,0.379,0.222,0.931,0.306l-0.184,2.28c-0.016,0.196,0.13,0.367,0.325,0.383c0.009,0,0.02,0.001,0.029,0.001
		c0.184,0,0.338-0.141,0.353-0.326l0.184-2.282c0.01,0,0.02,0.001,0.03,0.001c0.011,0,0.021-0.001,0.031-0.001l0.184,2.282
		c0.015,0.186,0.169,0.326,0.353,0.326c0.009,0,0.02-0.001,0.029-0.001c0.196-0.016,0.341-0.187,0.325-0.383l-0.184-2.28
		c0.551-0.084,0.931-0.238,0.931-0.306l-0.931-1.819l0.144-1.335l0.546,2.186c0.032,0.128,0.148,0.215,0.275,0.215
		c0.023,0,0.046-0.002,0.069-0.009c0.152-0.037,0.245-0.192,0.207-0.344L16.359,33.191z"/>
	<path d="M25,14.224c0.797,0,1.445-0.927,1.445-1.724c0-0.799-0.647-1.446-1.445-1.446c-0.798,0-1.446,0.647-1.446,1.446
		C23.554,13.297,24.202,14.224,25,14.224z"/>
	<path d="M25.277,20.307l0.411,5.112c0.029,0.357,0.329,0.629,0.683,0.629c0.019,0,0.037,0,0.056-0.001
		c0.378-0.031,0.659-0.361,0.628-0.738L26.6,19.652v-3.9c0.057,0.016,0.109,0.032,0.158,0.045l0.417,3.749
		c0.033,0.292,0.28,0.508,0.567,0.508c0.021,0,0.042,0,0.063-0.003c0.314-0.035,0.54-0.316,0.505-0.632l-0.458-4.113
		c-0.003-0.028-0.018-0.051-0.024-0.077c-0.011-0.041-0.02-0.082-0.039-0.121c-0.016-0.028-0.037-0.051-0.056-0.076
		c-0.025-0.034-0.049-0.068-0.082-0.097c-0.026-0.021-0.057-0.034-0.085-0.051c-0.03-0.018-0.054-0.041-0.087-0.052
		c-0.052-0.021-1.202-0.432-2.259-0.485l-0.146,0.29h-0.003l0.385,2.997L25,18.433l-0.457-0.799l0.385-2.997h-0.004l-0.145-0.29
		c-1.057,0.054-2.207,0.465-2.259,0.485c-0.034,0.011-0.058,0.036-0.087,0.052c-0.028,0.019-0.059,0.03-0.083,0.051
		c-0.034,0.03-0.058,0.064-0.084,0.099c-0.018,0.024-0.039,0.046-0.054,0.074c-0.02,0.037-0.029,0.08-0.04,0.123
		c-0.006,0.025-0.021,0.047-0.024,0.075l-0.458,4.113c-0.035,0.315,0.191,0.597,0.505,0.632c0.021,0.003,0.042,0.003,0.064,0.003
		c0.287,0,0.534-0.216,0.567-0.508l0.417-3.749c0.048-0.013,0.102-0.029,0.158-0.045v3.9l-0.455,5.656
		c-0.03,0.377,0.25,0.707,0.628,0.738c0.019,0.001,0.037,0.001,0.056,0.001c0.354,0,0.654-0.271,0.683-0.629l0.411-5.112
		c0.085,0.037,0.178,0.059,0.277,0.059S25.192,20.344,25.277,20.307z"/>
</g>
</svg>
