<?xml version="1.0" encoding="utf-8"?>
<!-- Generator: Adobe Illustrator 16.0.0, SVG Export Plug-In . SVG Version: 6.00 Build 0)  -->
<!DOCTYPE svg PUBLIC "-//W3C//DTD SVG 1.1//EN" "http://www.w3.org/Graphics/SVG/1.1/DTD/svg11.dtd">
<svg version="1.1" id="Layer_1" xmlns="http://www.w3.org/2000/svg" xmlns:xlink="http://www.w3.org/1999/xlink" x="0px" y="0px"
	 width="50px" height="50px" viewBox="0 0 50 50" enable-background="new 0 0 50 50" xml:space="preserve">
<g>
	<path d="M36.915,27.915c-1.139,0-2.212,0.279-3.164,0.764l-4.73-7.873C30.82,19.538,32,17.448,32,15.085c0-3.86-3.14-7-7-7
		s-7,3.14-7,7s3.14,7,7,7c1.139,0,2.212-0.279,3.164-0.764l4.731,7.874c-1.67,1.177-2.801,3.064-2.954,5.221H20.06
		c-0.258-3.626-3.284-6.5-6.975-6.5c-3.86,0-7,3.14-7,7s3.14,7,7,7c3.691,0,6.716-2.874,6.975-6.5h9.881
		c0.258,3.626,3.284,6.5,6.975,6.5c3.86,0,7-3.14,7-7S40.775,27.915,36.915,27.915z M19,15.085c0-3.309,2.691-6,6-6s6,2.691,6,6
		s-2.691,6-6,6S19,18.394,19,15.085z M13.085,40.915c-3.309,0-6-2.691-6-6s2.691-6,6-6s6,2.691,6,6S16.394,40.915,13.085,40.915z
		 M36.915,40.915c-3.309,0-6-2.691-6-6s2.691-6,6-6s6,2.691,6,6S40.224,40.915,36.915,40.915z"/>
	<path d="M25,12.358c0.502,0,0.91-0.583,0.91-1.085c0-0.503-0.408-0.911-0.91-0.911c-0.503,0-0.911,0.408-0.911,0.911
		C24.089,11.775,24.497,12.358,25,12.358z"/>
	<path d="M26.782,12.992c-0.006-0.027-0.013-0.053-0.025-0.077c-0.009-0.019-0.023-0.033-0.035-0.049
		c-0.016-0.021-0.031-0.042-0.051-0.06c-0.017-0.014-0.036-0.022-0.054-0.033c-0.019-0.011-0.034-0.025-0.054-0.033
		c-0.033-0.012-0.757-0.271-1.423-0.306l-0.092,0.183h-0.002l0.243,1.888L25,15.01l-0.288-0.503l0.243-1.888h-0.003l-0.092-0.183
		c-0.666,0.034-1.39,0.293-1.422,0.306c-0.021,0.008-0.037,0.022-0.055,0.033c-0.018,0.011-0.037,0.019-0.053,0.032
		c-0.021,0.018-0.037,0.04-0.053,0.062c-0.012,0.015-0.024,0.029-0.034,0.046c-0.012,0.024-0.019,0.051-0.025,0.078
		c-0.004,0.016-0.014,0.03-0.016,0.047l-0.288,2.592c-0.022,0.198,0.121,0.375,0.318,0.397c0.013,0.001,0.026,0.002,0.04,0.002
		c0.181,0,0.336-0.136,0.357-0.32l0.262-2.361c0.031-0.009,0.064-0.019,0.1-0.029v2.457l-0.287,3.563
		c-0.02,0.237,0.158,0.446,0.396,0.465c0.012,0.001,0.024,0.001,0.036,0.001c0.223,0,0.412-0.171,0.43-0.397l0.259-3.22
		c0.053,0.024,0.112,0.037,0.174,0.037s0.121-0.013,0.174-0.037l0.259,3.22c0.018,0.227,0.208,0.397,0.43,0.397
		c0.012,0,0.024,0,0.036-0.001c0.237-0.019,0.415-0.228,0.396-0.465l-0.287-3.563v-2.457c0.036,0.01,0.069,0.02,0.1,0.029
		l0.262,2.361c0.021,0.184,0.176,0.32,0.357,0.32c0.014,0,0.027-0.001,0.04-0.002c0.198-0.022,0.34-0.2,0.318-0.397l-0.288-2.592
		C26.795,13.022,26.786,13.008,26.782,12.992z"/>
	<path d="M40.533,35.044c0.018-0.479-0.062-0.966-0.242-1.43l0.746-0.462l-0.73-1.165l-0.742,0.464
		c-0.34-0.365-0.74-0.648-1.178-0.844l0.196-0.852l-1.339-0.308l-0.197,0.852c-0.477-0.018-0.965,0.062-1.429,0.241l-0.465-0.744
		l-1.161,0.728l0.464,0.744c-0.366,0.337-0.652,0.74-0.845,1.179l-0.852-0.197l-0.311,1.338l0.852,0.197
		c-0.016,0.48,0.062,0.965,0.242,1.43l-0.743,0.463l0.729,1.166l0.744-0.464c0.337,0.366,0.74,0.649,1.177,0.843l-0.195,0.851
		l1.337,0.311l0.197-0.853c0.478,0.02,0.965-0.06,1.43-0.24l0.463,0.744l1.165-0.729l-0.465-0.742
		c0.365-0.338,0.651-0.741,0.843-1.18l0.852,0.198l0.31-1.34L40.533,35.044z M38.223,37.007c-1.154,0.722-2.675,0.37-3.399-0.786
		c-0.721-1.153-0.369-2.676,0.784-3.398c1.158-0.722,2.679-0.371,3.4,0.786C39.73,34.763,39.378,36.286,38.223,37.007z"/>
	<rect x="9.06" y="34.915" width="2.01" height="3.114"/>
	<rect x="12.08" y="33.519" width="2.011" height="4.51"/>
	<rect x="15.1" y="31.801" width="2.01" height="6.228"/>
</g>
</svg>
