<?xml version="1.0" encoding="utf-8"?>
<!-- Generator: Adobe Illustrator 16.0.0, SVG Export Plug-In . SVG Version: 6.00 Build 0)  -->
<!DOCTYPE svg PUBLIC "-//W3C//DTD SVG 1.1//EN" "http://www.w3.org/Graphics/SVG/1.1/DTD/svg11.dtd">
<svg version="1.1" id="Layer_1" xmlns="http://www.w3.org/2000/svg" xmlns:xlink="http://www.w3.org/1999/xlink" x="0px" y="0px"
	 width="126px" height="126px" viewBox="0 0 126 126" enable-background="new 0 0 126 126" xml:space="preserve">
<g>
	<path d="M84.802,18.305l-12.34-7.772l-4.45,7.065l12.34,7.772L84.802,18.305z M82.289,17.555l1.542,0.971l-0.972,1.541
		C82.147,19.442,81.917,18.426,82.289,17.555z M70.526,18.348l-1.541-0.971l0.97-1.541C70.666,16.462,70.897,17.477,70.526,18.348z
		 M71.713,13.046l0.971-1.541l1.54,0.971C73.6,13.187,72.583,13.417,71.713,13.046z M74.809,20.489
		c-1.402-0.883-1.823-2.733-0.94-4.136c0.884-1.402,2.736-1.822,4.137-0.939c1.402,0.883,1.822,2.734,0.939,4.136
		C78.062,20.952,76.21,21.373,74.809,20.489z M78.59,23.427c0.626-0.712,1.641-0.94,2.511-0.57l-0.97,1.541L78.59,23.427z"/>
	<path d="M77.581,16.528l0.233-0.37l-0.408-0.257l-0.239,0.379c-0.281-0.129-0.545-0.18-0.784-0.148
		c-0.262,0.033-0.465,0.164-0.606,0.387c-0.129,0.204-0.177,0.416-0.145,0.632c0.032,0.21,0.145,0.445,0.335,0.701l0.114,0.15
		l-0.463,0.736c-0.112-0.079-0.231-0.183-0.351-0.308c-0.14-0.146-0.254-0.29-0.34-0.428l-0.056-0.09l-0.375,0.596l0.025,0.034
		c0.164,0.25,0.42,0.493,0.763,0.724l-0.297,0.471l0.407,0.257l0.309-0.489c0.308,0.14,0.586,0.192,0.831,0.152
		c0.263-0.044,0.471-0.184,0.616-0.414c0.118-0.188,0.16-0.385,0.125-0.589c-0.035-0.2-0.16-0.442-0.383-0.741l-0.101-0.135
		l0.449-0.713c0.189,0.152,0.365,0.335,0.52,0.547l0.039,0.054l0.525-0.383l-0.037-0.054C78.095,16.96,77.858,16.725,77.581,16.528z
		 M76.495,18.875c-0.034,0.053-0.13,0.206-0.452,0.094l0.354-0.563c0.07,0.101,0.114,0.185,0.133,0.252
		C76.551,18.734,76.539,18.806,76.495,18.875z M76.482,17.367c-0.063-0.098-0.101-0.179-0.114-0.241
		c-0.014-0.073,0.001-0.143,0.046-0.213c0.042-0.066,0.099-0.104,0.178-0.117c0.065-0.011,0.144,0,0.232,0.029L76.482,17.367z"/>
	<path d="M63,12.532l-0.069-7.957L47.659,8.529l0.069,7.957L63,12.532z M62.256,12.052l-1.908,0.494
		c0.149-0.933,0.915-1.834,1.894-2.23L62.256,12.052z M62.198,5.438l0.015,1.735c-0.98,0.11-1.757-0.392-1.922-1.241L62.198,5.438z
		 M55.306,7.673c1.734-0.448,3.151,0.467,3.165,2.044c0.014,1.58-1.381,3.223-3.115,3.671c-1.736,0.449-3.152-0.465-3.167-2.043
		C52.175,9.766,53.571,8.121,55.306,7.673z M48.461,15.621l-0.015-1.733c0.98-0.111,1.757,0.391,1.922,1.24L48.461,15.621z
		 M50.312,8.518c-0.149,0.931-0.916,1.83-1.893,2.228l-0.015-1.734L50.312,8.518z"/>
	<path d="M54.055,11.655l-0.1-0.019l0.007,0.67l0.04,0.005c0.286,0.045,0.649,0.016,1.084-0.083l0.004,0.53l0.505-0.132
		l-0.005-0.552c0.35-0.133,0.625-0.306,0.817-0.511c0.208-0.223,0.312-0.467,0.309-0.729c-0.001-0.209-0.076-0.371-0.223-0.481
		c-0.144-0.104-0.392-0.174-0.755-0.207l-0.165-0.015L55.565,9.33c0.253-0.04,0.511-0.048,0.767-0.023l0.064,0.009l0.247-0.642
		l-0.062-0.007c-0.322-0.038-0.665-0.018-1.021,0.057l-0.004-0.416l-0.504,0.129l0.004,0.43c-0.322,0.119-0.583,0.281-0.775,0.479
		c-0.212,0.217-0.319,0.451-0.315,0.7c0.001,0.231,0.078,0.408,0.229,0.526c0.147,0.116,0.379,0.188,0.691,0.217l0.188,0.016
		l0.007,0.83c-0.144,0.029-0.307,0.048-0.483,0.053C54.391,11.694,54.208,11.683,54.055,11.655z M55.837,10.906
		c0.062,0.036,0.091,0.093,0.091,0.171c0.001,0.061,0.001,0.233-0.344,0.394l-0.007-0.633
		C55.696,10.854,55.784,10.876,55.837,10.906z M54.83,10.011c-0.053-0.036-0.079-0.092-0.079-0.173
		c-0.001-0.075,0.028-0.142,0.09-0.207c0.052-0.057,0.126-0.109,0.221-0.153l0.005,0.611C54.956,10.071,54.877,10.045,54.83,10.011z
		"/>
	<path d="M78.784,6.882l-7.479-5.73l-3.717,2.96l7.478,5.729L78.784,6.882z M77.175,6.138l0.933,0.716L77.298,7.5
		C76.885,7.079,76.834,6.528,77.175,6.138z M69.199,4.854l-0.935-0.716l0.811-0.646C69.488,3.913,69.538,4.463,69.199,4.854z
		 M71.354,1.679l0.933,0.716c-0.492,0.272-1.197,0.243-1.745-0.07L71.354,1.679z M71.852,6.56c-0.85-0.65-0.94-1.654-0.203-2.242
		c0.737-0.586,2.023-0.534,2.873,0.117c0.85,0.649,0.94,1.652,0.203,2.24C73.986,7.262,72.701,7.21,71.852,6.56z M74.084,8.598
		c0.494-0.272,1.199-0.244,1.746,0.07l-0.812,0.646L74.084,8.598z"/>
	<path d="M74.121,4.939l0.195-0.155l-0.247-0.189l-0.201,0.161c-0.174-0.108-0.347-0.171-0.51-0.188
		c-0.18-0.021-0.33,0.016-0.445,0.108c-0.109,0.085-0.164,0.187-0.164,0.302c-0.001,0.111,0.05,0.247,0.152,0.404l0.062,0.094
		l-0.387,0.308c-0.067-0.056-0.136-0.125-0.203-0.206c-0.079-0.094-0.141-0.185-0.184-0.267L72.16,5.257l-0.312,0.248l0.012,0.022
		c0.085,0.149,0.232,0.312,0.438,0.478L72.05,6.203l0.248,0.19l0.257-0.206c0.193,0.114,0.374,0.18,0.542,0.195
		c0.181,0.016,0.334-0.024,0.457-0.123c0.098-0.077,0.147-0.173,0.145-0.282c-0.003-0.105-0.062-0.247-0.18-0.431l-0.054-0.083
		l0.375-0.299c0.111,0.104,0.21,0.223,0.292,0.353l0.02,0.032l0.392-0.119l-0.019-0.031C74.423,5.234,74.287,5.08,74.121,4.939z
		 M73.149,5.979c-0.027,0.021-0.109,0.086-0.312-0.018l0.295-0.235c0.037,0.061,0.058,0.11,0.063,0.146
		C73.203,5.915,73.187,5.949,73.149,5.979z M73.297,5.211c-0.031-0.06-0.049-0.106-0.05-0.141c-0.002-0.039,0.014-0.071,0.053-0.103
		c0.034-0.027,0.077-0.038,0.13-0.033c0.045,0.004,0.098,0.02,0.152,0.049L73.297,5.211z"/>
	<path d="M54.39,20.665l7.45,5.709l3.705-2.949l-7.451-5.707L54.39,20.665z M55.995,21.406l-0.93-0.714l0.807-0.644
		C56.282,20.469,56.332,21.017,55.995,21.406z M63.94,22.685l0.93,0.714l-0.807,0.643C63.651,23.622,63.602,23.073,63.94,22.685z
		 M61.792,25.849l-0.931-0.713c0.492-0.271,1.195-0.244,1.739,0.069L61.792,25.849z M61.298,20.986
		c0.846,0.649,0.936,1.647,0.201,2.232s-2.015,0.534-2.861-0.114s-0.937-1.647-0.202-2.232
		C59.17,20.286,60.452,20.338,61.298,20.986z M59.071,18.955c-0.491,0.272-1.193,0.243-1.738-0.069l0.808-0.643L59.071,18.955z"/>
	<path d="M59.082,22.553l-0.248,0.197l0.247,0.188l0.257-0.205c0.191,0.114,0.372,0.181,0.539,0.195
		c0.181,0.016,0.333-0.025,0.456-0.123c0.097-0.076,0.146-0.171,0.143-0.28c-0.002-0.106-0.062-0.247-0.179-0.431l-0.053-0.082
		l0.373-0.297c0.112,0.104,0.21,0.222,0.292,0.352l0.019,0.032l0.391-0.119l-0.019-0.031c-0.101-0.165-0.236-0.319-0.401-0.458
		l0.193-0.155l-0.246-0.188l-0.199,0.158c-0.173-0.106-0.345-0.169-0.508-0.188c-0.179-0.019-0.329,0.018-0.444,0.109
		c-0.107,0.086-0.162,0.187-0.162,0.302c-0.001,0.111,0.051,0.245,0.151,0.402l0.061,0.093l-0.386,0.309
		c-0.066-0.058-0.135-0.127-0.202-0.208c-0.08-0.093-0.141-0.183-0.184-0.265l-0.028-0.053l-0.311,0.248l0.012,0.02
		C58.73,22.227,58.876,22.386,59.082,22.553z M60.08,21.52c0.034-0.027,0.076-0.039,0.13-0.034c0.045,0.005,0.096,0.021,0.152,0.05
		l-0.285,0.226c-0.032-0.059-0.048-0.105-0.05-0.14C60.025,21.582,60.042,21.551,60.08,21.52z M59.914,22.274
		c0.037,0.061,0.058,0.109,0.063,0.146c0.005,0.042-0.01,0.076-0.047,0.105c-0.028,0.022-0.109,0.086-0.312-0.018L59.914,22.274z"/>
	<path d="M51.657,22.142l-14.061-4.19l-0.025,7.558L51.632,29.7L51.657,22.142z M38.254,25.072l0.006-1.648
		c0.9,0.405,1.607,1.282,1.75,2.172L38.254,25.072z M38.269,20.441l0.007-1.649l1.755,0.523
		C39.883,20.118,39.17,20.572,38.269,20.441z M44.604,26.538c-1.596-0.475-2.888-2.075-2.882-3.574
		c0.005-1.5,1.304-2.328,2.901-1.854c1.596,0.477,2.887,2.078,2.881,3.576C47.5,26.186,46.201,27.016,44.604,26.538z M50.952,28.857
		l-1.755-0.524c0.148-0.801,0.86-1.255,1.761-1.124L50.952,28.857z M50.968,24.226c-0.9-0.405-1.608-1.282-1.75-2.171l1.756,0.521
		L50.968,24.226z"/>
	<path d="M44.993,23.673l-0.152-0.1l0.003-0.762c0.232,0.094,0.469,0.221,0.704,0.377l0.059,0.04l0.233-0.478l-0.057-0.039
		c-0.295-0.201-0.609-0.361-0.937-0.476l0-0.396l-0.464-0.139l-0.002,0.406c-0.295-0.052-0.537-0.035-0.717,0.051
		c-0.196,0.095-0.296,0.262-0.297,0.499c0,0.218,0.068,0.425,0.205,0.615c0.134,0.187,0.346,0.375,0.632,0.565l0.172,0.109
		l-0.002,0.788c-0.133-0.046-0.282-0.112-0.444-0.199c-0.188-0.101-0.356-0.205-0.496-0.312l-0.091-0.069l-0.003,0.636l0.039,0.027
		c0.261,0.19,0.596,0.353,0.995,0.482l-0.001,0.504l0.463,0.14l0.003-0.525c0.323,0.055,0.577,0.036,0.755-0.059
		c0.193-0.104,0.291-0.281,0.292-0.528c0.002-0.199-0.066-0.391-0.199-0.571C45.551,24.087,45.326,23.894,44.993,23.673z
		 M44.377,23.271c-0.102-0.075-0.175-0.14-0.216-0.194c-0.049-0.064-0.073-0.132-0.072-0.208c0-0.07,0.027-0.117,0.086-0.148
		c0.048-0.026,0.117-0.036,0.204-0.03L44.377,23.271z M44.836,24.847l0.002-0.603c0.107,0.075,0.187,0.143,0.236,0.199
		c0.057,0.066,0.083,0.134,0.083,0.209C45.157,24.709,45.156,24.873,44.836,24.847z"/>
	<path d="M91.646,38.063c-1.835-1.041-4.169-0.397-5.21,1.439c-0.055,0.099-5.663,9.736-18.403,11.794
		c-0.996-0.606-2.084-1.062-3.194-1.334l-2.453,2.469l-2.378-2.496c-0.008,0.003-0.017,0.003-0.024,0.004
		c-0.981,0.235-1.949,0.611-2.849,1.109c-12.011-2.298-17.352-11.274-17.571-11.65c-1.042-1.837-3.375-2.481-5.21-1.439
		c-1.836,1.041-2.481,3.374-1.439,5.21c0.272,0.48,6.21,10.689,19.437,14.575c-0.026,0.255-0.041,0.514-0.041,0.777v21.733
		c0,1.04,0.205,2.008,0.563,2.898c-0.025,0.192-0.059,0.382-0.058,0.581l0.037,36.603c0.003,2.493,2.024,4.513,4.518,4.513
		c0.001,0,0.003,0,0.004,0c2.495-0.004,4.516-2.028,4.513-4.522l-0.032-31.408c0.177,0.009,0.354,0.022,0.533,0.022
		c0.037,0,0.074-0.004,0.11-0.005l0.029,31.399c0.002,2.494,2.024,4.514,4.518,4.514c0.001,0,0.003,0,0.004,0
		c2.495-0.004,4.516-2.027,4.513-4.522l-0.033-36.374c0.592-1.097,0.937-2.338,0.937-3.698V58.521c0-0.116-0.013-0.229-0.018-0.344
		c14.07-3.598,20.359-14.408,20.64-14.903C94.127,41.438,93.483,39.104,91.646,38.063z M62.41,71.917h-0.046l-2.374-3.249
		l2.374-15.872h0.046l2.374,15.872L62.41,71.917z"/>
	<circle cx="62.387" cy="39.546" r="9.845"/>
</g>
</svg>
