<?xml version="1.0" encoding="utf-8"?>
<!-- Generator: Adobe Illustrator 16.0.0, SVG Export Plug-In . SVG Version: 6.00 Build 0)  -->
<!DOCTYPE svg PUBLIC "-//W3C//DTD SVG 1.1//EN" "http://www.w3.org/Graphics/SVG/1.1/DTD/svg11.dtd">
<svg version="1.1" id="Layer_3" xmlns="http://www.w3.org/2000/svg" xmlns:xlink="http://www.w3.org/1999/xlink" x="0px" y="0px"
	 width="126px" height="126px" viewBox="0 0 126 126" enable-background="new 0 0 126 126" xml:space="preserve">
<g>
	<g>
		<path d="M62.477,89.57c-9.499-0.002-17.202,7.702-17.202,17.201c0.001,9.496,7.703,17.196,17.202,17.198
			c9.498,0,17.198-7.702,17.197-17.198C79.674,97.272,71.975,89.57,62.477,89.57z"/>
	</g>
	<g>
		<path d="M107.181,97.419c-1.456-12.684-4.077-24.421-13.311-24.421c-3.51,0-9.021-0.004-13.791-0.008V32.896h-0.038v-4.069
			c13.626-1.07,22.276-1.813,23.23-9.683c0.386-3.199-0.609-6.332-2.808-8.834c-6.198-7.045-23.153-8.21-32.71-8.28
			c-0.019,0.001-0.038,0.001-0.058,0c-2.026,0.001-3.873,0.766-5.279,2.015c-1.407-1.249-3.256-2.015-5.282-2.014
			c-0.019,0-0.038-0.001-0.057-0.001c-9.556,0.07-26.513,1.235-32.711,8.28c-2.199,2.502-3.195,5.635-2.809,8.833
			c0.979,8.072,9.392,8.596,23.333,9.419v4.334h-0.018l0.001,40.095c-4.51,0.003-9.488,0.007-12.743,0.007
			c-9.234,0-11.855,11.737-13.311,24.421c-1.087,9.469-1.25,18.767-1.256,19.157c-0.061,3.687,2.878,6.724,6.565,6.785
			c0.038,0,0.075,0.001,0.113,0.001c3.636,0,6.613-2.917,6.674-6.566c0.211-12.643,1.825-25.843,3.614-30.443
			c5.719-0.002,14.075-0.009,18.241-0.014c1.696,1.01,3.542,1.773,5.422,2.233l4.285-4.313l4.154,4.361
			c0.014-0.005,0.027-0.003,0.042-0.008c1.923-0.46,3.811-1.237,5.542-2.274c3.658,0.003,13.023,0.013,19.257,0.015
			c1.79,4.601,3.403,17.801,3.614,30.443c0.061,3.649,3.038,6.566,6.674,6.566c0.037,0,0.075-0.001,0.113-0.001
			c3.687-0.062,6.626-3.099,6.565-6.785C108.432,116.186,108.268,106.888,107.181,97.419z"/>
	</g>
</g>
</svg>
