<?xml version="1.0" encoding="utf-8"?>
<!-- Generator: Adobe Illustrator 16.0.0, SVG Export Plug-In . SVG Version: 6.00 Build 0)  -->
<!DOCTYPE svg PUBLIC "-//W3C//DTD SVG 1.1//EN" "http://www.w3.org/Graphics/SVG/1.1/DTD/svg11.dtd">
<svg version="1.1" id="Layer_3" xmlns="http://www.w3.org/2000/svg" xmlns:xlink="http://www.w3.org/1999/xlink" x="0px" y="0px"
	 width="126px" height="126px" viewBox="0 0 126 126" enable-background="new 0 0 126 126" xml:space="preserve">
<g>
	<circle cx="91.835" cy="108.552" r="16.237"/>
	<path d="M68.539,59.926l0.049-51.258c0.004-4.114-3.328-7.453-7.443-7.457c-0.002,0-0.004,0-0.006,0
		c-4.111,0-7.445,3.331-7.451,7.442l-0.045,49.112c-5.047,1.636-9.684,5.735-9.631,11.893l0.092,11.775
		c-2.945-1.482-6.564-0.471-8.258,2.411l-17.047,29.021c-1.145,1.949-1.158,4.362-0.035,6.325c1.121,1.962,3.211,3.172,5.471,3.172
		l34.412-0.003c0.348,0,0.689-0.036,1.021-0.091c1.609-0.101,3.23-0.45,3.23-0.45l0.049-0.008
		c5.449-1.384,11.229-5.886,11.168-12.563L73.807,69.4C73.773,65.319,71.611,62.083,68.539,59.926z M44.205,94.507l0.115,14.999
		c0.002,0.085,0.014,0.165,0.016,0.249h-9.088L44.205,94.507z"/>
</g>
</svg>
