<?xml version="1.0" encoding="utf-8"?>
<!-- Generator: Adobe Illustrator 16.0.0, SVG Export Plug-In . SVG Version: 6.00 Build 0)  -->
<!DOCTYPE svg PUBLIC "-//W3C//DTD SVG 1.1//EN" "http://www.w3.org/Graphics/SVG/1.1/DTD/svg11.dtd">
<svg version="1.1" id="Layer_3" xmlns="http://www.w3.org/2000/svg" xmlns:xlink="http://www.w3.org/1999/xlink" x="0px" y="0px"
	 width="126px" height="126px" viewBox="0 0 126 126" enable-background="new 0 0 126 126" xml:space="preserve">
<g>
	<path d="M62.624,100.509c-6.836,0-12.38,5.544-12.38,12.38c0.001,6.833,5.544,12.375,12.38,12.377
		c6.835,0,12.377-5.544,12.376-12.377C75,106.053,69.459,100.509,62.624,100.509z"/>
	<path d="M94.794,106.157c-1.047-9.126-2.933-17.574-9.579-17.574c-2.525,0-6.491-0.002-9.924-0.006V59.283l8.545-0.081
		c2.216-0.021,4.216-1.327,5.125-3.348c0.909-2.02,0.561-4.386-0.892-6.057L69.483,28.419c-1.98-2.276-5.375-2.589-7.737-0.777
		l0.02-21.223c0.004-3.137-2.537-5.681-5.674-5.685c-0.002,0-0.003,0-0.005,0c-3.134,0-5.676,2.539-5.679,5.675l-0.046,47.759
		c-0.001,0.515,0.075,1.016,0.203,1.491c-0.395,1.061-0.612,2.208-0.612,3.431l0.001,29.489c-3.246,0.002-6.828,0.004-9.171,0.004
		c-6.646,0-8.531,8.448-9.579,17.574c-0.782,6.814-0.9,13.506-0.904,13.787c-0.043,2.653,2.071,4.84,4.725,4.883
		c0.028,0,0.055,0.002,0.082,0.002c2.616,0,4.759-2.102,4.803-4.727c0.151-9.099,1.312-18.6,2.601-21.91
		c4.116,0,10.129-0.006,13.127-0.01c1.221,0.729,2.549,1.277,3.902,1.608l3.084-3.103l2.989,3.138c0.01-0.004,0.02-0.002,0.03-0.006
		c1.385-0.331,2.743-0.891,3.989-1.638c2.632,0.002,9.372,0.01,13.858,0.01c1.289,3.311,2.448,12.812,2.601,21.91
		c0.043,2.625,2.187,4.727,4.803,4.727c0.027,0,0.054-0.002,0.081-0.002c2.654-0.043,4.768-2.229,4.726-4.883
		C95.696,119.663,95.577,112.972,94.794,106.157z M71.419,47.96l-9.692,0.088l0.01-11.228L71.419,47.96z"/>
</g>
</svg>
