<?xml version="1.0" encoding="utf-8"?>
<!-- Generator: Adobe Illustrator 16.0.0, SVG Export Plug-In . SVG Version: 6.00 Build 0)  -->
<!DOCTYPE svg PUBLIC "-//W3C//DTD SVG 1.1//EN" "http://www.w3.org/Graphics/SVG/1.1/DTD/svg11.dtd">
<svg version="1.1" id="Layer_3" xmlns="http://www.w3.org/2000/svg" xmlns:xlink="http://www.w3.org/1999/xlink" x="0px" y="0px"
	 width="126px" height="126px" viewBox="0 0 126 126" enable-background="new 0 0 126 126" xml:space="preserve">
<g>
	<circle cx="62.618" cy="112.224" r="12.542"/>
	<path d="M95.218,105.405c-1.062-9.249-2.973-17.808-9.706-17.808c-2.56,0-6.579-0.003-10.057-0.006V57.709
		c0-0.765-0.093-1.498-0.251-2.202C88.62,42.261,88.368,37.661,88.271,35.893c-0.232-4.192-4.102-25.667-4.875-29.93
		c-0.566-3.127-3.563-5.206-6.688-4.635c-3.128,0.567-5.203,3.562-4.636,6.689c1.636,9.015,4.221,23.88,4.651,27.876
		c-0.971,2.015-5.144,6.96-9.644,11.451c-1.42-0.452-2.929-0.702-4.461-0.702c-0.343,0-0.684,0.02-1.023,0.043
		c-2.496-16.201-4.354-18.34-5.196-19.306C54.463,25.162,40.503,8.516,40.362,8.348c-2.043-2.435-5.671-2.754-8.107-0.711
		c-2.436,2.042-2.754,5.671-0.712,8.107c0.55,0.655,12.889,15.369,15.812,18.774c0.911,2.344,2.494,11.081,3.547,18.604
		c-0.713,1.366-1.121,2.906-1.121,4.588l0.001,29.882c-3.289,0.003-6.919,0.005-9.293,0.005c-6.733,0-8.645,8.559-9.706,17.808
		c-0.793,6.904-0.912,13.684-0.917,13.969c-0.044,2.689,2.1,4.904,4.789,4.949c0.026,0,0.054,0,0.081,0
		c2.652,0,4.823-2.127,4.867-4.789c0.151-9.216,1.328-18.842,2.635-22.199c4.171-0.001,10.265-0.007,13.303-0.01
		c1.236,0.736,2.582,1.292,3.954,1.628l3.124-3.146l3.029,3.18c0.011-0.002,0.021-0.002,0.03-0.005
		c1.402-0.335,2.779-0.903,4.041-1.659c2.668,0.002,9.498,0.01,14.043,0.011c1.306,3.355,2.481,12.981,2.636,22.2
		c0.044,2.661,2.216,4.789,4.867,4.789c0.027,0,0.055,0,0.082,0c2.688-0.045,4.832-2.26,4.788-4.949
		C96.13,119.089,96.011,112.309,95.218,105.405z"/>
</g>
</svg>
