<?xml version="1.0" encoding="utf-8"?>
<!-- Generator: Adobe Illustrator 16.0.0, SVG Export Plug-In . SVG Version: 6.00 Build 0)  -->
<!DOCTYPE svg PUBLIC "-//W3C//DTD SVG 1.1//EN" "http://www.w3.org/Graphics/SVG/1.1/DTD/svg11.dtd">
<svg version="1.1" id="Layer_3" xmlns="http://www.w3.org/2000/svg" xmlns:xlink="http://www.w3.org/1999/xlink" x="0px" y="0px"
	 width="126px" height="126px" viewBox="0 0 126 126" enable-background="new 0 0 126 126" xml:space="preserve">
<g>
	<circle cx="62.616" cy="112.387" r="12.584"/>
	<path d="M95.325,105.545c-1.065-9.279-2.982-17.867-9.739-17.867c-2.567,0-6.6-0.003-10.09-0.006v-29.98
		c0-0.95-0.142-1.85-0.382-2.705c0.07-0.163,0.15-0.32,0.207-0.492l15.054-45.89c0.994-3.029-0.656-6.292-3.687-7.286
		c-3.029-0.995-6.292,0.656-7.285,3.687L65.654,46.917c-0.989-0.208-2.007-0.329-3.038-0.329c-0.858,0-1.71,0.079-2.545,0.224
		L46.357,5.006c-0.993-3.029-4.253-4.683-7.286-3.687c-3.029,0.994-4.68,4.256-3.686,7.286l14.966,45.623
		c-0.396,1.07-0.615,2.23-0.615,3.464v29.981c-3.299,0.003-6.94,0.006-9.322,0.006c-6.757,0-8.674,8.587-9.739,17.867
		c-0.795,6.927-0.915,13.729-0.919,14.016c-0.045,2.698,2.106,4.92,4.805,4.965c0.026,0.001,0.054,0.001,0.081,0.001
		c2.66,0,4.84-2.135,4.883-4.806c0.151-9.246,1.332-18.904,2.644-22.272c4.185-0.002,10.299-0.007,13.347-0.011
		c1.241,0.739,2.591,1.297,3.967,1.634l3.135-3.156l3.04,3.19c0.01-0.002,0.021-0.001,0.031-0.005
		c1.407-0.337,2.788-0.906,4.055-1.664c2.677,0.002,9.528,0.009,14.089,0.011c1.31,3.366,2.49,13.023,2.645,22.272
		c0.044,2.67,2.223,4.804,4.883,4.804c0.027,0,0.055,0,0.082,0c2.698-0.045,4.849-2.267,4.804-4.965
		C96.24,119.275,96.121,112.473,95.325,105.545z"/>
</g>
</svg>
