<svg width="64" xmlns="http://www.w3.org/2000/svg" height="64" viewBox="0 0 64 64" xmlns:xlink="http://www.w3.org/1999/xlink" enable-background="new 0 0 64 64">
<g fill="#0e0f0f">
<circle cx="32.969" cy="9.61" r="4.963"/>
<path d="m48.173,55.671l-.98-2.386 .434-.181-.175-.513c-1.897-5.568-3.848-12.15-5.131-16.62 .351,.65 .719,1.291 1.11,1.917 .447,.715 1.193-.597 .839-1.161-.579-.926-1.107-1.881-1.58-2.863 .061,.015 .121,.03 .183,.044 .623,.144 .972,.48 1.245,1.06 .101,.213 .226,.309 .461,.314 .341,.009 .734-.096 .922-.414 .098-.163 .188-.317 .232-.504 .015-.056 .025-.112 .032-.169 .007-.038 .014-.065 .021-.088 .2-.26 .272-.635 .152-.941-.125-.319-.479-.417-.738-.177-.174,.16-.3,.347-.38,.563-.265-.422-.602-.778-1.09-.979-.554-.228-1.159-.245-1.681-.559-.14-.084-.271-.086-.391-.041-.128-.012-.263,.066-.381,.188-.118-1.087-.241-2.174-.373-3.259 1.813-1.066 3.586-2.313 5.405-3.801 .704-.575 1.109-1.456 1.145-2.48 .039-1.122-.379-2.204-1.115-2.894-2.826-2.651-6.205-3.472-9.782-4.343l-.245-.06c-.102-.035-.21-.053-.322-.053-.876,0-1.946,1.288-2.647,2.296-.608-.903-1.433-1.878-2.156-1.878-.163,0-.322,.043-.461,.126-.577,.349-1.071,.199-1.473,.699l-10.845-4.343v2.069l-2.591-.988c-1.137-.237-2.25,.491-2.486,1.627-.238,1.135 .49,2.25 1.627,2.486l3.45,1.204v1.998l10.274,4.053c.431,2.947 .823,6.042 1.169,9.215-3.406,.866-6.754,2.255-9.957,4.133-.96,.562-1.549,1.411-1.664,2.4-.115,.295-.194,.609-.232,.933l-1.404,11.509 .945,.179-.415,2.435c-.248,1.452 .728,2.829 2.18,3.077 1.452,.247 2.831-.729 3.078-2.182l.399-2.338 .96,.183 1.316-10.764c3.12-1.628 8.115-3.709 9.201-4.156 .505,.079 1.028,.094 1.555,.045l5.818,16.319 .639-.267 .969,2.357c.56,1.362 2.118,2.013 3.48,1.452 1.363-.558 2.013-2.116 1.454-3.479zm-18.418-31.713l-.073-.494-10.116-4.053v-5.211l10.274,4.053 .173-.243c.314-.443 .719-.824 1.203-1.135 .332,.193 1.064,1.121 1.615,2.058l.484,.827 .506-.814c.771-1.24 1.784-2.418 2.148-2.51l.313,.076c3.425,.833 6.66,1.62 9.265,4.062 .488,.458 .775,1.228 .75,2.009-.024,.687-.279,1.264-.721,1.624-1.655,1.354-3.271,2.491-4.912,3.481l-1.234-5.226-1.128,.267 .163,.69-3.164,1.289c-1.074,.438-1.591,1.664-1.153,2.739 .438,1.074 1.663,1.59 2.739,1.152l2.608-.821 .216,.917c.147,1.212 .286,2.424 .418,3.638h-9.284c-.328-2.881-.693-5.693-1.09-8.375zm6.828,14.045l-.479,.082c-.607,.104-1.229,.101-1.806-.008l-.169-.032-.158,.065c-.646,.265-6.397,2.639-9.725,4.408l-.266,.142-1.239,10.137-4.867-.922 1.271-10.432c.031-.252 .092-.482 .187-.707l.042-.175c.057-.652 .439-1.203 1.104-1.594 3.262-1.91 6.673-3.298 10.138-4.127l.495-.118-.054-.506c-.005-.046-.011-.091-.016-.137h9.536c1.173,4.152 3.408,11.868 5.604,18.372l-3.868,1.617-5.73-16.065z"/>
</g>
</svg>
