<?xml version="1.0" encoding="utf-8"?>
<!-- Generator: Adobe Illustrator 16.0.0, SVG Export Plug-In . SVG Version: 6.00 Build 0)  -->
<!DOCTYPE svg PUBLIC "-//W3C//DTD SVG 1.1//EN" "http://www.w3.org/Graphics/SVG/1.1/DTD/svg11.dtd">
<svg version="1.1" id="Layer_1" xmlns="http://www.w3.org/2000/svg" xmlns:xlink="http://www.w3.org/1999/xlink" x="0px" y="0px"
	 width="50px" height="50px" viewBox="0 0 50 50" enable-background="new 0 0 50 50" xml:space="preserve">
<g>
	<path d="M32.368,15.217c-1.195,0-2.337,0.226-3.397,0.621v1.94c0.972-0.463,2.037-0.755,3.177-0.787v0.776h0.184l-1.184,2.369
		h0.803v4.865c0,0.04,0.032,0.066,0.042,0.102c0.009,0.035-0.006,0.072,0.014,0.106l1.599,2.768l-0.695,0.402l2.279,1.504
		l-0.164-2.725l-0.695,0.401l-1.543-2.671v-4.752h0.803l-1.184-2.369h0.179l0.003-0.776c1.297,0.036,2.509,0.395,3.585,0.981
		l-0.38,0.654l0.383,0.219l0.382-0.665c1.071,0.66,1.968,1.556,2.628,2.628l-0.663,0.385l0.219,0.378l0.652-0.378
		c0.586,1.077,0.945,2.287,0.983,3.584h-0.776v0.44h0.776c-0.038,1.299-0.397,2.51-0.983,3.587l-0.652-0.378l-0.217,0.38
		l0.662,0.384c-0.662,1.071-1.559,1.968-2.63,2.628l-0.382-0.662l-0.379,0.217l0.376,0.654c-1.077,0.586-2.285,0.946-3.583,0.981
		v-0.775h-0.44v0.775c-1.141-0.031-2.208-0.323-3.179-0.788v1.942c1.06,0.394,2.202,0.62,3.397,0.62
		c5.394,0,9.784-4.388,9.784-9.785C42.152,19.605,37.762,15.217,32.368,15.217z"/>
	<path d="M25.146,13.312H10.187c-1.29,0-2.338,1.047-2.338,2.337v18.7c0,1.29,1.048,2.337,2.338,2.337h14.959
		c1.291,0,2.338-1.047,2.338-2.337v-18.7C27.484,14.36,26.437,13.312,25.146,13.312z M25.984,34.35c0,0.462-0.376,0.837-0.838,0.837
		H10.187c-0.462,0-0.838-0.375-0.838-0.837v-18.7c0-0.462,0.376-0.837,0.838-0.837h14.959c0.462,0,0.838,0.375,0.838,0.837V34.35z"
		/>
	<path d="M23.903,19.702H11.43c-0.237,0-0.429,0.19-0.429,0.429s0.191,0.43,0.429,0.43h12.473c0.238,0,0.429-0.191,0.429-0.43
		S24.141,19.702,23.903,19.702z"/>
	<path d="M23.903,21.66H11.43c-0.237,0-0.429,0.191-0.429,0.429c0,0.237,0.191,0.429,0.429,0.429h12.473
		c0.238,0,0.429-0.191,0.429-0.429C24.332,21.851,24.141,21.66,23.903,21.66z"/>
	<path d="M23.903,23.616H11.43c-0.237,0-0.429,0.192-0.429,0.43s0.191,0.429,0.429,0.429h12.473c0.238,0,0.429-0.191,0.429-0.429
		S24.141,23.616,23.903,23.616z"/>
	<path d="M18.974,25.574H11.43c-0.237,0-0.429,0.192-0.429,0.43c0,0.238,0.191,0.429,0.429,0.429h7.543
		c0.238,0,0.429-0.19,0.429-0.429C19.403,25.766,19.211,25.574,18.974,25.574z"/>
	<path d="M17.495,29.44H11.43c-0.237,0-0.429,0.191-0.429,0.429c0,0.238,0.191,0.43,0.429,0.43h6.065
		c0.238,0,0.429-0.191,0.429-0.43C17.924,29.631,17.733,29.44,17.495,29.44z"/>
</g>
</svg>
