<?xml version="1.0" encoding="iso-8859-1"?>
<!-- Generator: Adobe Illustrator 17.1.0, SVG Export Plug-In . SVG Version: 6.00 Build 0)  -->
<!DOCTYPE svg PUBLIC "-//W3C//DTD SVG 1.1//EN" "http://www.w3.org/Graphics/SVG/1.1/DTD/svg11.dtd">
<svg version="1.1" id="Layer_1" xmlns="http://www.w3.org/2000/svg" xmlns:xlink="http://www.w3.org/1999/xlink" x="0px" y="0px"
	 viewBox="0 0 128 128" style="enable-background:new 0 0 128 128;" xml:space="preserve">
<g>
	<path d="M114.238,73.111c-1.542-5.023-4.662-15.199-4.662-15.199c-0.032-0.076-0.197-0.391-0.582-0.391c-0.035,0-0.775,0-0.775,0
		h-0.002c-0.219-0.003-0.347,0.183-0.289,0.393l5.209,17.046C113.514,74.347,113.88,73.73,114.238,73.111z"/>
	<path d="M118.962,63.38c5.905-15.008,5.421-30.192-5.565-40.653C91.941,3.06,67.564,26.766,64.431,29.991
		c-0.187,0.192-0.377,0.351-0.431,0.354c-0.055-0.003-0.244-0.162-0.431-0.354c-3.133-3.225-27.51-26.931-48.965-7.264
		C3.617,33.188,3.133,48.372,9.038,63.381c1.23-4.016,2.352-7.68,2.36-7.708c0.841-2.924,2.89-9.581,8.676-9.581h15.521
		c6.21,0,7.816,6.657,8.657,9.581c0,0,5.514,18.009,5.517,18.017c0.596,1.944-0.497,4.004-2.441,4.6
		c-1.943,0.596-4.002-0.496-4.599-2.438c-0.002,0-5.504-17.939-5.504-17.939c-0.032-0.076-0.197-0.391-0.581-0.391
		c-0.035,0-0.775,0-0.775,0h-0.002c-0.219-0.003-0.347,0.183-0.289,0.393l11.014,36.046c0.06,0.21,0,0.577-0.384,0.577h-7.727
		c-0.219,0-0.379,0.177-0.379,0.396c0,0,0,2.243,0,5.415c6.023,4.509,12.524,8.176,19.185,10.623c0-4.39,0.038-31.756,0.038-31.756
		c0-0.135-0.123-0.244-0.258-0.244h-1.015c-0.135,0-0.241,0.109-0.241,0.244l0.003,14.277c-0.001,1.296-1.059,2.29-2.356,2.29
		c-1.297,0-2.366-0.995-2.366-2.291c0-0.007,0-16.12,0-16.312c0-3.213,3.006-5.762,6.095-5.762c0.079,0,13.779,0,13.858,0
		c3.089,0,6.109,2.549,6.109,5.762c0,0.192,0,16.305,0,16.312c0,1.297-1.057,2.291-2.353,2.291c-1.296,0-2.368-0.994-2.369-2.29
		c-0.001,0,0.004-14.277,0.004-14.277c0-0.135-0.105-0.244-0.24-0.244h-1.031c-0.135,0-0.244,0.109-0.244,0.244
		c0,0,0,27.301,0,31.663c6.574-2.447,13.026-6.078,18.974-10.531c0-3.173,0-5.415,0-5.415c0-0.219-0.16-0.396-0.379-0.396h-7.727
		c-0.384,0-0.443-0.367-0.384-0.577l11.014-36.046c0.058-0.21-0.07-0.396-0.289-0.393h-0.002c0,0-0.74,0-0.775,0
		c-0.385,0-0.549,0.315-0.581,0.391c0,0-5.502,17.938-5.504,17.939c-0.597,1.943-2.656,3.034-4.599,2.438
		c-1.944-0.596-3.037-2.656-2.441-4.6c0.002-0.007,5.499-17.955,5.517-18.017c0.841-2.924,2.89-9.581,8.676-9.581h15.521
		c6.21,0,7.816,6.657,8.657,9.581C116.602,55.673,117.728,59.349,118.962,63.38z M27.825,43.966c-3.902,0-7.066-3.163-7.066-7.066
		c0-3.902,3.163-7.066,7.066-7.066c3.902,0,7.066,3.163,7.066,7.066C34.891,40.803,31.727,43.966,27.825,43.966z M64.125,70.676
		c-2.693,0-4.876-2.183-4.876-4.876c0-1.871,1.054-3.495,2.601-4.312l1.518-2.557v2.052c0.188-0.029,0.379-0.047,0.573-0.054
		l1.199-1.998v2.099c0.149,0.031,0.295,0.069,0.439,0.114l1.314-2.213v2.855c1.273,0.88,2.108,2.349,2.108,4.014
		C69.001,68.492,66.818,70.676,64.125,70.676z M106.034,40.851c-0.127,0.188-0.263,0.369-0.407,0.544
		c-0.288,0.349-0.609,0.67-0.958,0.958c-1.221,1.008-2.787,1.613-4.494,1.613c-3.902,0-7.066-3.163-7.066-7.066
		c0-3.902,3.163-7.066,7.066-7.066c1.707,0,3.273,0.606,4.494,1.613c0.349,0.288,0.67,0.609,0.958,0.958
		c0.144,0.174,0.28,0.356,0.407,0.544c0.762,1.128,1.207,2.487,1.207,3.95S106.796,39.723,106.034,40.851z"/>
	<path d="M19.783,57.522h-0.002c0,0-0.74,0-0.775,0c-0.385,0-0.549,0.315-0.582,0.391c0,0-3.121,10.175-4.662,15.199
		c0.358,0.619,0.724,1.236,1.101,1.85l5.209-17.046C20.13,57.705,20.002,57.519,19.783,57.522z"/>
	<path d="M64.617,95.406h-1c-0.17,0-0.25,0.072-0.25,0.245c0,0,0,2.648,0,6.174c-0.013,0.03-0.02,0.064-0.02,0.099v0.001
		l-0.001,10.918c0.007,0.002,0.014,0.003,0.021,0.005c0.204,0.051,0.408,0.102,0.612,0.151h0.041
		c0.287-0.068,0.574-0.139,0.861-0.211c0.007-0.002,0.014-0.003,0.021-0.005l-0.001-10.857v-0.001c0-0.032-0.009-0.063-0.022-0.092
		c-0.001-3.53-0.001-6.181-0.001-6.181C64.879,95.478,64.788,95.406,64.617,95.406z"/>
</g>
</svg>
