<?xml version="1.0" encoding="utf-8"?>
<!-- Generator: Adobe Illustrator 16.0.0, SVG Export Plug-In . SVG Version: 6.00 Build 0)  -->
<!DOCTYPE svg PUBLIC "-//W3C//DTD SVG 1.1//EN" "http://www.w3.org/Graphics/SVG/1.1/DTD/svg11.dtd">
<svg version="1.1" id="Layer_3" xmlns="http://www.w3.org/2000/svg" xmlns:xlink="http://www.w3.org/1999/xlink" x="0px" y="0px"
	 width="126px" height="126px" viewBox="0 0 126 126" enable-background="new 0 0 126 126" xml:space="preserve">
<g>
	<circle cx="113.023" cy="78.914" r="12.574"/>
	<path d="M99.64,75.879c-0.948-3.729-3.782-7.652-7.997-8.485L66.095,44.622c-1.747-1.558-4.298-1.625-6.115-0.302l-0.002-4.04
		c-0.001-3.187-2.583-5.768-5.769-5.768c-0.001,0-0.002,0-0.002,0c-3.187,0.002-5.768,2.586-5.767,5.771l0.016,37.04L6.17,77.339
		c-3.186,0-5.768,2.584-5.768,5.77c0.001,3.188,2.584,5.769,5.77,5.769h0.001l50.968-0.018c1.432,1.051,3.176,1.7,5.214,1.684
		l27.755-0.24c5.151-0.044,8.567-4.595,9.561-8.805c0,0,0.386-1.329,0.342-2.736c-0.042-1.348-0.367-2.846-0.367-2.846L99.64,75.879
		z M76.911,67.34l-14.754,0.128c-0.761,0.006-1.483,0.109-2.167,0.293l-0.007-15.509L76.911,67.34z"/>
</g>
</svg>
