<?xml version="1.0" encoding="utf-8"?>
<!-- Generator: Adobe Illustrator 16.0.0, SVG Export Plug-In . SVG Version: 6.00 Build 0)  -->
<!DOCTYPE svg PUBLIC "-//W3C//DTD SVG 1.1//EN" "http://www.w3.org/Graphics/SVG/1.1/DTD/svg11.dtd">
<svg version="1.1" id="Layer_11" xmlns="http://www.w3.org/2000/svg" xmlns:xlink="http://www.w3.org/1999/xlink" x="0px" y="0px"
	 width="100px" height="100px" viewBox="0 0 100 100" enable-background="new 0 0 100 100" xml:space="preserve">
<path d="M35.653,39.673h28.884c0.076,0.597,0.129,1.2,0.129,1.817c0,8.1-6.566,14.666-14.666,14.666S35.334,49.59,35.334,41.49
	c0-0.624,0.058-1.233,0.139-1.836C35.535,39.657,35.589,39.673,35.653,39.673z M56.222,57.156H43.778
	C33.424,57.156,25,65.58,25,75.934v15.223l0.039,0.237l1.05,0.328l13.723,2.939c9.673,0,10.499-36.609,10.499-36.609
	s-0.897,36.609,10.498,36.609l13.106-3.008l0.98-0.498L75,91.156V75.934C75,65.58,66.576,57.156,56.222,57.156z M70.127,32.68
	c0-2.478-3.69-1.188-5.461-0.428V5.339H35.334v26.992c-1.77-0.621-5.461-1.674-5.461,0.349c0,2.659,0,4.676,0,4.676h40.254
	C70.127,37.355,70.127,35.938,70.127,32.68z"/>
</svg>
