<?xml version="1.0" encoding="utf-8"?>
<!-- Generator: Adobe Illustrator 16.0.0, SVG Export Plug-In . SVG Version: 6.00 Build 0)  -->
<!DOCTYPE svg PUBLIC "-//W3C//DTD SVG 1.1//EN" "http://www.w3.org/Graphics/SVG/1.1/DTD/svg11.dtd">
<svg version="1.1" id="Layer_1" xmlns="http://www.w3.org/2000/svg" xmlns:xlink="http://www.w3.org/1999/xlink" x="0px" y="0px"
	 width="50px" height="50px" viewBox="0 0 50 50" enable-background="new 0 0 50 50" xml:space="preserve">
<g>
	<path d="M33.234,28.874c0-2.291-2.64-5.385-6.202-6.289c1.489-1.002,2.515-2.979,2.515-4.759c0-2.512-2.035-4.548-4.547-4.548
		s-4.547,2.036-4.547,4.548c0,1.78,1.025,3.756,2.515,4.759c-3.562,0.903-6.202,3.997-6.202,6.289
		C16.766,31.583,33.234,31.583,33.234,28.874z M24.635,23.903h-0.021l-0.753-0.865c0.365,0.131,0.743,0.21,1.139,0.21
		s0.773-0.078,1.139-0.208l-0.755,0.863h-0.019l1.942,4.695L25,30.904l-2.308-2.306L24.635,23.903z"/>
	<polygon points="37.873,30.904 41.466,34.198 8.534,34.198 12.127,30.904 7.035,34.198 7.035,36.722 42.965,36.722 42.965,34.198 	
		"/>
	<polygon points="32.353,33.333 38.5,33.333 36.292,31.292 32.638,31.292 	"/>
</g>
</svg>
