<?xml version="1.0" encoding="utf-8"?>
<!-- Generator: Adobe Illustrator 16.0.0, SVG Export Plug-In . SVG Version: 6.00 Build 0)  -->
<!DOCTYPE svg PUBLIC "-//W3C//DTD SVG 1.1//EN" "http://www.w3.org/Graphics/SVG/1.1/DTD/svg11.dtd">
<svg version="1.1" id="Layer_11" xmlns="http://www.w3.org/2000/svg" xmlns:xlink="http://www.w3.org/1999/xlink" x="0px" y="0px"
	 width="100px" height="100px" viewBox="0 0 100 100" enable-background="new 0 0 100 100" xml:space="preserve">
<g>
	<path d="M58.224,44.576H42.057c-13.449,0-24.393,10.943-24.393,24.393v19.775l0.051,0.308l1.363,0.426
		c12.835,4.009,23.988,5.349,33.168,5.349c17.927,0,28.318-5.113,28.96-5.438l1.275-0.647l0.136,0.001V68.969
		C82.617,55.519,71.674,44.576,58.224,44.576z"/>
	<path d="M28.782,20.705c0,0-4.47,0.418-8.737,13.831c0,0,6.746-1.03,11.19-8.121c1.087,9.489,9.127,16.863,18.905,16.863
		c10.384,0,18.812-8.311,19.032-18.642H32.23c0.4-0.804,0.776-1.661,1.109-2.599h35.719c-1.088-9.489-9.137-16.863-18.918-16.863
		c-8.476,0-15.644,5.542-18.114,13.195c-0.963-0.249-2.331-0.38-4.317-0.292c0,0-7.316,1.625-9.958,8.941
		C15.404,33.515,24.915,20.786,28.782,20.705z M59.56,33.477c0,2.789-3.927,5.049-8.77,5.049c-4.842,0-8.769-2.26-8.769-5.049H59.56
		z"/>
</g>
</svg>
