<?xml version="1.0" encoding="utf-8"?>
<!-- Generator: Adobe Illustrator 16.0.0, SVG Export Plug-In . SVG Version: 6.00 Build 0)  -->
<!DOCTYPE svg PUBLIC "-//W3C//DTD SVG 1.1//EN" "http://www.w3.org/Graphics/SVG/1.1/DTD/svg11.dtd">
<svg version="1.1" id="Layer_1" xmlns="http://www.w3.org/2000/svg" xmlns:xlink="http://www.w3.org/1999/xlink" x="0px" y="0px"
	 width="50px" height="50px" viewBox="0 0 50 50" enable-background="new 0 0 50 50" xml:space="preserve">
<g>
	<circle cx="19.321" cy="27.748" r="1.766"/>
	<circle cx="20.247" cy="32.662" r="1.136"/>
	<path d="M21.878,36.23c0.038-1.452,2.895-3.299,2.879-7.331c-0.008-2.028-1.975-5.399-5.314-5.818
		c-3.341-0.421-5.84,0.314-6.932,2.373c-1.094,2.059-1.177,3.866-1.093,4.202c0.085,0.336,0.441,0.967,0.441,0.967
		s-1.68,2.583-1.576,3.003c0.106,0.42,1.259,0.647,1.259,0.647s0.105,0.292-0.106,0.858c-0.211,0.568,0.392,1.226,0.572,1.456
		c0.179,0.229-0.253,0.945-0.106,1.344c0.147,0.399,0.842,0.882,1.639,0.777c0.799-0.106,1.823-0.294,2.18-0.357
		c0.804,1.891-1.134,2.859-1.134,2.859h10.187C24.772,41.21,21.817,38.834,21.878,36.23z M17.425,29.512l-0.533,0.333l-0.521-0.834
		l0.532-0.333c-0.129-0.333-0.185-0.68-0.173-1.023l-0.609-0.141l0.22-0.958l0.611,0.14c0.14-0.313,0.344-0.602,0.604-0.845
		l-0.332-0.532l0.833-0.521l0.332,0.532c0.334-0.128,0.681-0.185,1.025-0.172l0.14-0.61l0.959,0.222l-0.141,0.609
		c0.313,0.141,0.6,0.344,0.844,0.604l0.53-0.333l0.522,0.835l-0.531,0.331c0.128,0.332,0.184,0.681,0.171,1.024l0.611,0.142
		l-0.222,0.958l-0.609-0.14c-0.139,0.314-0.344,0.602-0.604,0.844l0.331,0.532l-0.835,0.521l-0.331-0.532
		c-0.333,0.128-0.681,0.186-1.023,0.172l-0.141,0.61l-0.958-0.222l0.14-0.609C17.955,29.977,17.666,29.773,17.425,29.512z
		 M21.443,33.821c-0.153,0.159-0.341,0.288-0.55,0.376l0.082,0.395l-0.619,0.129l-0.083-0.394c-0.229,0.004-0.451-0.04-0.655-0.124
		l-0.221,0.337l-0.529-0.346l0.22-0.336c-0.158-0.154-0.287-0.34-0.376-0.552l-0.395,0.083l-0.131-0.619l0.396-0.083
		c-0.003-0.229,0.039-0.452,0.124-0.655l-0.338-0.22l0.347-0.53l0.335,0.22c0.155-0.158,0.342-0.287,0.554-0.376l-0.082-0.395
		l0.618-0.129l0.083,0.396c0.229-0.004,0.451,0.039,0.654,0.122l0.221-0.336l0.53,0.346l-0.221,0.337
		c0.159,0.153,0.287,0.339,0.376,0.55l0.393-0.082l0.132,0.619l-0.395,0.083c0.004,0.229-0.039,0.452-0.123,0.656l0.336,0.221
		l-0.347,0.529L21.443,33.821z"/>
	<path d="M38.737,17.163c0.545,0,0.984-0.593,0.984-1.324c0-0.73-0.439-1.325-0.984-1.325c-0.05,0-0.093,0.029-0.144,0.039
		c-0.041-0.191-0.113-0.371-0.173-0.555c0.056-0.017,0.117-0.016,0.166-0.044c0.473-0.272,0.554-1.006,0.19-1.638
		c-0.365-0.633-1.044-0.929-1.515-0.656c-0.049,0.028-0.075,0.079-0.115,0.116c-0.132-0.144-0.268-0.28-0.412-0.412
		c0.037-0.04,0.087-0.066,0.115-0.116c0.274-0.471-0.021-1.148-0.654-1.513c-0.631-0.366-1.366-0.283-1.639,0.188
		c-0.029,0.052-0.027,0.111-0.044,0.167c-0.185-0.06-0.363-0.131-0.557-0.172c0.011-0.048,0.038-0.092,0.038-0.143
		c0-0.543-0.592-0.983-1.322-0.983c-0.732,0-1.325,0.44-1.325,0.983c0,0.051,0.029,0.095,0.039,0.143
		c-0.193,0.042-0.372,0.113-0.558,0.172c-0.017-0.054-0.015-0.114-0.044-0.166c-0.271-0.469-1.005-0.555-1.639-0.189
		c-0.632,0.365-0.926,1.043-0.653,1.514c0.027,0.049,0.079,0.075,0.114,0.115c-0.145,0.132-0.28,0.268-0.41,0.413
		c-0.041-0.038-0.069-0.089-0.116-0.117c-0.471-0.271-1.148,0.021-1.515,0.656c-0.364,0.633-0.278,1.366,0.189,1.638
		c0.05,0.029,0.111,0.027,0.166,0.044c-0.06,0.184-0.129,0.364-0.172,0.555c-0.051-0.01-0.094-0.039-0.144-0.039
		c-0.544,0-0.986,0.595-0.983,1.325c0,0.73,0.44,1.323,0.983,1.324c0.05,0,0.093-0.028,0.144-0.038
		c0.041,0.191,0.112,0.371,0.172,0.556c-0.055,0.017-0.116,0.014-0.166,0.043c-0.472,0.273-0.556,1.006-0.189,1.64
		c0.366,0.631,1.044,0.925,1.515,0.654c0.047-0.028,0.075-0.078,0.114-0.116c0.132,0.145,0.268,0.281,0.412,0.412
		c-0.036,0.041-0.087,0.068-0.114,0.116c-0.273,0.473,0.019,1.15,0.653,1.515c0.632,0.365,1.366,0.28,1.639-0.191
		c0.029-0.05,0.027-0.11,0.044-0.165c0.186,0.061,0.364,0.132,0.558,0.173c-0.01,0.049-0.039,0.093-0.039,0.144
		c0,0.543,0.593,0.984,1.325,0.984c0.73,0,1.322-0.44,1.322-0.984c0-0.051-0.027-0.095-0.038-0.144
		c0.193-0.041,0.372-0.112,0.557-0.173c0.018,0.054,0.015,0.114,0.044,0.165c0.272,0.472,1.007,0.557,1.639,0.191
		c0.634-0.367,0.929-1.043,0.654-1.515c-0.028-0.048-0.078-0.075-0.115-0.115c0.145-0.131,0.28-0.268,0.413-0.412
		c0.039,0.038,0.065,0.088,0.114,0.116c0.471,0.272,1.149-0.021,1.515-0.654c0.363-0.634,0.282-1.368-0.19-1.64
		c-0.049-0.03-0.11-0.027-0.166-0.043c0.06-0.186,0.132-0.365,0.173-0.556C38.645,17.134,38.688,17.163,38.737,17.163z
		 M33.146,19.06v1.074h-1.031v-1c-0.706-0.031-1.391-0.22-1.789-0.453l0.315-1.231c0.44,0.242,1.063,0.463,1.747,0.463
		c0.6,0,1.009-0.232,1.009-0.652c0-0.4-0.337-0.653-1.114-0.917c-1.127-0.379-1.895-0.905-1.895-1.927
		c0-0.926,0.651-1.653,1.778-1.874v-1h1.031v0.926c0.706,0.033,1.18,0.18,1.526,0.348l-0.306,1.189
		c-0.274-0.115-0.758-0.358-1.516-0.358c-0.685,0-0.907,0.295-0.907,0.59c0,0.347,0.372,0.567,1.267,0.904
		c1.251,0.443,1.757,1.022,1.757,1.969C35.02,18.049,34.356,18.849,33.146,19.06z"/>
	<polygon points="24.801,23.336 23.835,24.3 24.288,24.753 25.253,23.789 26.219,24.753 27.409,21.18 23.835,22.371 	"/>
</g>
</svg>
