<svg width="64" xmlns="http://www.w3.org/2000/svg" height="64" viewBox="0 0 64 64" xmlns:xlink="http://www.w3.org/1999/xlink" enable-background="new 0 0 64 64">
<g fill="#0e0f0f">
<path d="m49.186,17.305c-2.667-1.565-6.127,1.88-8.438,4.5-1.429-1.479-2.932-2.894-4.429-4.297-1.964-3.06-6.853-3.299-9.219-.69-.029,.025-.06,.042-.089,.069-1.713,1.608-3.453,3.221-5.092,4.918-2.312-2.62-5.771-6.066-8.437-4.5-2.343,1.377-1.168,4.528 .893,4.958 .086,.074 .216,.18 .411,.337 1.885,1.518 3.541,3.347 5.189,5.112 .942,1.009 2.859,1.083 3.79,0 .644-.749 1.321-1.472 2.01-2.183 0,2.861 0,5.722 0,8.582 0,.116 .011,.225 .017,.338-.003,.052-.015,.098-.015,.151 0,7.78-.015,15.561-.336,23.337-.143,3.458 5.219,3.443 5.36,0 .251-6.095 .313-12.192 .329-18.29 .254,.015 .508,.017 .762,.002 .016,6.097 .078,12.193 .33,18.288 .142,3.443 5.501,3.458 5.358,0-.321-7.777-.334-15.557-.334-23.337 0-.241-.031-.462-.08-.669 0-2.708 0-5.417 0-8.125 .595,.622 1.177,1.255 1.736,1.905 .928,1.083 2.847,1.009 3.789,0 1.657-1.774 3.33-3.546 5.19-5.112 .182-.153 .307-.258 .392-.333 2.073-.415 3.26-3.58 .913-4.961zm-33.309,4.773c.104-.046 .206-.082 .311-.144-.104,.061-.208,.105-.311,.144zm30.925,.005c-.107-.04-.216-.085-.324-.149 .109,.064 .216,.102 .324,.149z"/>
<circle cx="31.471" cy="9.496" r="4.69"/>
</g>
</svg>
