<?xml version="1.0" encoding="iso-8859-1"?>
<!-- Generator: Adobe Illustrator 17.1.0, SVG Export Plug-In . SVG Version: 6.00 Build 0)  -->
<!DOCTYPE svg PUBLIC "-//W3C//DTD SVG 1.1//EN" "http://www.w3.org/Graphics/SVG/1.1/DTD/svg11.dtd">
<svg version="1.1" id="Layer_1" xmlns="http://www.w3.org/2000/svg" xmlns:xlink="http://www.w3.org/1999/xlink" x="0px" y="0px"
	 viewBox="0 0 128 128" style="enable-background:new 0 0 128 128;" xml:space="preserve">
<g>
	<circle cx="40.411" cy="13.633" r="8.683"/>
	<path d="M21.358,71.846c2.498,0,4.523-2.024,4.525-4.522c0.002-0.001,0.006-27.63,0.006-27.63c0-0.26,0.211-0.471,0.471-0.471
		h0.958c0.26,0,0.471,0.211,0.471,0.471c0,0,0,77.512,0,77.521c0,3.223,2.612,5.835,5.835,5.835s5.835-2.612,5.835-5.835
		c0-0.009,0-45.612,0-45.612c0-0.333,0.154-0.471,0.482-0.471h0.941c0.328,0,0.482,0.139,0.482,0.471c0,0,0,45.604,0,45.612
		c0,3.223,2.612,5.835,5.835,5.835s5.835-2.612,5.835-5.835c0-0.009,0-77.521,0-77.521c0-0.26,0.211-0.471,0.471-0.471h0.958
		c0.26,0,0.471,0.211,0.471,0.471c0,0,4.529,27.629,4.531,27.63c0.141,0.84,0.402,1.565,0.753,2.177
		c0.626,1.153,1.687,2.028,3.062,2.237c0.173,0.026,0.344,0.04,0.515,0.047c0.068,0.003,0.138,0,0.207,0.001
		c0.069,0,0.138,0.003,0.207-0.001c0.17-0.007,0.342-0.021,0.515-0.047c1.374-0.208,2.435-1.084,3.062-2.237
		c0.351-0.612,0.612-1.338,0.753-2.177c0.002-0.001,4.531-27.63,4.531-27.63c0-0.26,0.211-0.471,0.471-0.471h0.958
		c0.26,0,0.471,0.211,0.471,0.471c0,0,0,77.512,0,77.521c0,3.223,2.612,5.835,5.835,5.835s5.835-2.612,5.835-5.835
		c0-0.009,0-45.612,0-45.612c0-0.333,0.154-0.471,0.482-0.471h0.941c0.328,0,0.482,0.139,0.482,0.471c0,0,0,45.604,0,45.612
		c0,3.223,2.612,5.835,5.835,5.835s5.835-2.612,5.835-5.835c0-0.009,0-77.521,0-77.521c0-0.26,0.211-0.471,0.471-0.471h0.958
		c0.26,0,0.471,0.211,0.471,0.471c0,0,0.004,27.629,0.006,27.63c0.002,2.498,2.027,4.522,4.525,4.522
		c2.499,0,4.525-2.026,4.525-4.525c0-0.014,0-31.067,0-31.437c-0.001-6.192-4.764-10.955-10.718-10.955c-0.151,0-25.57,0-25.721,0
		c-5.954,0-9.943,4.717-10.717,10.955c-0.001,0.009-0.005,0.039-0.011,0.08c-0.006-0.041-0.01-0.071-0.011-0.08
		c-0.774-6.238-4.763-10.955-10.717-10.955c-0.151,0-25.57,0-25.721,0c-5.954,0-10.717,4.763-10.717,10.955
		c0,0.37,0,31.423,0,31.437C16.833,69.82,18.859,71.846,21.358,71.846z"/>
	<circle cx="87.588" cy="13.633" r="8.683"/>
</g>
</svg>
