<?xml version="1.0" encoding="utf-8"?>
<!-- Generator: Adobe Illustrator 16.0.0, SVG Export Plug-In . SVG Version: 6.00 Build 0)  -->
<!DOCTYPE svg PUBLIC "-//W3C//DTD SVG 1.1//EN" "http://www.w3.org/Graphics/SVG/1.1/DTD/svg11.dtd">
<svg version="1.1" id="Layer_1" xmlns="http://www.w3.org/2000/svg" xmlns:xlink="http://www.w3.org/1999/xlink" x="0px" y="0px"
	 width="126px" height="126px" viewBox="0 0 126 126" enable-background="new 0 0 126 126" xml:space="preserve">
<g>
	<circle cx="15.17" cy="56.045" r="7.066"/>
	<path d="M19.87,64.83c-0.118-0.073-0.242-0.125-0.365-0.177c-0.789-0.524-1.673-0.91-2.575-1.135l-1.759,1.774l-1.707-1.79
		c-0.006,0-0.011,0-0.018,0.001c-0.904,0.217-1.792,0.602-2.583,1.125c-0.141,0.057-0.281,0.117-0.417,0.201
		c-5.486,3.363-8.637,6.027-9.609,21.598c-0.096,1.511,1.056,2.815,2.566,2.911c0.061,0.003,0.118,0.005,0.174,0.005
		c1.437,0,2.645-1.118,2.736-2.575c0.328-5.256,0.861-8.663,1.624-11.014v9.508c0,0.737,0.145,1.425,0.395,2.058
		c-0.02,0.143-0.033,0.289-0.033,0.436l0.004,26.272c0,1.792,1.451,3.241,3.242,3.241c1.791,0,3.241-1.45,3.241-3.244l-0.002-22.544
		c0.129,0.005,0.259,0.015,0.387,0.015c0.025,0,0.05-0.002,0.076-0.002v22.531c0,1.794,1.45,3.244,3.241,3.244
		c1.791,0,3.242-1.45,3.242-3.244l0.002-26.107c0.425-0.788,0.672-1.679,0.672-2.655v-9.425c0.752,2.345,1.274,5.734,1.599,10.931
		c0.091,1.457,1.298,2.575,2.736,2.575c0.058,0,0.115-0.002,0.171-0.005c1.514-0.096,2.664-1.4,2.569-2.911
		C28.506,70.857,25.356,68.193,19.87,64.83z M15.187,79.277h-0.034l-1.702-2.331l1.702-11.392h0.034l1.704,11.392L15.187,79.277z"/>
	<circle cx="47.67" cy="56.045" r="7.066"/>
	<path d="M52.369,64.83c-0.118-0.073-0.242-0.125-0.364-0.177c-0.79-0.524-1.674-0.91-2.575-1.135l-1.76,1.774l-1.707-1.79
		c-0.006,0-0.011,0-0.017,0.001c-0.905,0.217-1.793,0.602-2.584,1.125c-0.14,0.057-0.281,0.117-0.416,0.201
		c-5.486,3.363-8.637,6.027-9.61,21.598c-0.095,1.511,1.056,2.815,2.567,2.911c0.061,0.003,0.118,0.005,0.174,0.005
		c1.438,0,2.645-1.118,2.736-2.575c0.328-5.256,0.86-8.663,1.624-11.014v9.508c0,0.737,0.145,1.425,0.396,2.058
		c-0.021,0.143-0.034,0.289-0.034,0.436l0.004,26.272c0,1.792,1.451,3.241,3.242,3.241c1.791,0,3.241-1.45,3.241-3.244
		l-0.002-22.544c0.13,0.005,0.259,0.015,0.387,0.015c0.025,0,0.05-0.002,0.076-0.002v22.531c0,1.794,1.45,3.244,3.241,3.244
		s3.242-1.45,3.242-3.244l0.002-26.107c0.425-0.788,0.672-1.679,0.672-2.655v-9.425c0.752,2.345,1.274,5.734,1.598,10.931
		c0.091,1.457,1.298,2.575,2.736,2.575c0.057,0,0.115-0.002,0.171-0.005c1.514-0.096,2.663-1.4,2.569-2.911
		C61.005,70.857,57.856,68.193,52.369,64.83z M47.686,79.277h-0.034l-1.703-2.331l1.703-11.392h0.034l1.704,11.392L47.686,79.277z"
		/>
	<circle cx="110.857" cy="56.045" r="7.066"/>
	<path d="M115.556,64.83c-0.118-0.073-0.241-0.125-0.365-0.177c-0.789-0.524-1.673-0.91-2.575-1.135l-1.759,1.774l-1.708-1.79
		c-0.006,0-0.01,0-0.017,0.001c-0.904,0.217-1.793,0.602-2.584,1.125c-0.14,0.057-0.28,0.117-0.417,0.201
		c-5.486,3.363-8.637,6.027-9.61,21.598c-0.095,1.511,1.056,2.815,2.567,2.911c0.061,0.003,0.118,0.005,0.174,0.005
		c1.438,0,2.645-1.118,2.736-2.575c0.328-5.256,0.861-8.663,1.625-11.014v9.508c0,0.737,0.144,1.425,0.395,2.058
		c-0.02,0.143-0.033,0.289-0.033,0.436l0.004,26.272c0,1.792,1.451,3.241,3.242,3.241c1.791,0,3.241-1.45,3.241-3.244l-0.002-22.544
		c0.129,0.005,0.259,0.015,0.388,0.015c0.025,0,0.049-0.002,0.075-0.002v22.531c0,1.794,1.45,3.244,3.241,3.244
		s3.242-1.45,3.242-3.244l0.001-26.107c0.425-0.788,0.673-1.679,0.673-2.655v-9.425c0.751,2.345,1.274,5.734,1.598,10.931
		c0.091,1.457,1.299,2.575,2.736,2.575c0.058,0,0.116-0.002,0.171-0.005c1.514-0.096,2.664-1.4,2.569-2.911
		C124.192,70.857,121.042,68.193,115.556,64.83z M110.873,79.277h-0.034l-1.703-2.331l1.703-11.392h0.034l1.703,11.392
		L110.873,79.277z"/>
	<circle cx="86.946" cy="50.006" r="7.451"/>
	<path d="M87.165,58.862c-0.142-0.097-0.293-0.174-0.445-0.244c-0.447-0.398-0.922-0.765-1.432-1.058
		c-0.006-0.002-0.012-0.005-0.017-0.007l-2.259,1.307l-1.255-2.315c-0.849-0.038-1.718,0.066-2.556,0.286
		c-0.154,0.008-0.379-0.225-0.471-0.323c-1.746-1.896-3.082-8.244-1.891-17.697c0.2-1.584-0.923-3.03-2.508-3.231
		c-1.588-0.2-3.032,0.925-3.231,2.509c-0.113,0.899-0.2,1.776-0.274,2.644c-0.621-0.642-1.092-1.19-1.786-1.855
		c-0.841-0.803-1.702-1.626-2.516-2.488c0.835-0.856,1.65-1.707,2.448-2.536c0.985-1.03,1.945-2.026,2.903-2.996v0.223h3.834v-0.027
		l5.267,5.268l-4.303,4.305l2.367,2.685l6.005-6.163v-2.181l-9.336-9.335v-7.208l-0.561-1.356l-8.335-8.335l-2.712,2.712
		l7.774,7.774v6.287c-1.93,1.802-3.755,3.693-5.67,5.692c-1.184,1.234-2.408,2.51-3.666,3.769l-0.117,2.583
		c1.26,1.512,2.637,2.83,3.966,4.101c0.782,0.748,1.151,1.177,1.821,1.88l2.604-2.66c-0.753,8.994,0.564,16.196,3.661,19.56
		c0.051,0.055,0.104,0.097,0.154,0.149c-0.076,0.188-0.171,0.36-0.23,0.561L69.77,76.919c-0.105,0.361-0.165,0.72-0.201,1.076
		c-0.158,0.388-0.254,0.809-0.259,1.254l-0.301,25.53c-0.022,1.888,1.49,3.436,3.378,3.46c0.014,0,0.027,0,0.042,0
		c1.868,0,3.395-1.505,3.417-3.38l0.228-19.29c0.168,0.032,0.337,0.06,0.506,0.082l-0.181,24.127
		c-0.014,1.887,1.505,3.429,3.393,3.443c0.009,0,0.018,0,0.026,0c1.876,0,3.404-1.513,3.418-3.394l0.201-26.697
		c0.424-0.555,0.759-1.194,0.971-1.92l2.225-7.588c-0.037,3.303-0.524,7.29-1.622,11.837c-0.375,1.552,0.581,3.115,2.133,3.491
		c0.228,0.055,0.456,0.081,0.681,0.081c1.306,0,2.49-0.891,2.81-2.215C93.899,73.282,92.57,62.571,87.165,58.862z M82.774,60.41
		c-0.094,0.305-0.139,0.618-0.128,0.932l-1.351,9.82l-2.416,1.854l-0.034-0.01l-1.032-2.864l5.103-11.021l0.033,0.011L82.774,60.41z
		"/>
</g>
</svg>
