<?xml version="1.0" encoding="utf-8"?>
<!-- Generator: Adobe Illustrator 16.0.0, SVG Export Plug-In . SVG Version: 6.00 Build 0)  -->
<!DOCTYPE svg PUBLIC "-//W3C//DTD SVG 1.1//EN" "http://www.w3.org/Graphics/SVG/1.1/DTD/svg11.dtd">
<svg version="1.1" id="Layer_1" xmlns="http://www.w3.org/2000/svg" xmlns:xlink="http://www.w3.org/1999/xlink" x="0px" y="0px"
	 width="50px" height="50px" viewBox="0 0 50 50" enable-background="new 0 0 50 50" xml:space="preserve">
<g>
	<path d="M22.488,15.531c1.744,0,3.16-2.024,3.16-3.769c0-1.746-1.416-3.161-3.16-3.161c-1.746,0-3.162,1.416-3.162,3.161
		C19.326,13.507,20.742,15.531,22.488,15.531z"/>
	<path d="M35.686,22.658c-0.228-0.85-0.926-1.474-1.78-1.622l-0.56-2.09l0.011-0.011c0.497-0.479,0.511-1.271,0.031-1.767
		c-0.17-0.176-0.384-0.27-0.605-0.324l-0.398-1.486c0.666-0.556,0.958-1.446,0.73-2.295c-0.183-0.681-0.667-1.225-1.329-1.493
		l-0.697-0.282l0.539,2.011l-0.64,0.494l-0.802-0.107l-0.539-2.013l-0.464,0.595c-0.438,0.563-0.586,1.277-0.403,1.957
		c0.228,0.851,0.926,1.475,1.782,1.622l0.492,1.838l-1.419,1.371l-1.097-1.697c-0.027-0.043-0.07-0.067-0.103-0.105
		c-0.055-0.067-0.11-0.129-0.179-0.184c-0.067-0.054-0.139-0.092-0.215-0.13c-0.045-0.023-0.079-0.061-0.128-0.078
		c-0.121-0.044-2.995-1.075-5.426-1.075s-5.305,1.031-5.426,1.075c-0.039,0.014-0.065,0.045-0.103,0.062
		c-0.084,0.04-0.161,0.084-0.234,0.142c-0.059,0.047-0.109,0.096-0.159,0.152c-0.055,0.062-0.102,0.125-0.144,0.198
		c-0.042,0.073-0.073,0.146-0.101,0.226c-0.015,0.044-0.044,0.078-0.055,0.125l-2,9c-0.149,0.674,0.275,1.341,0.949,1.491
		c0.092,0.021,0.183,0.03,0.272,0.03c0.573,0,1.09-0.397,1.22-0.979l1.846-8.305c0.129-0.04,0.275-0.083,0.434-0.127v8.532
		l-0.995,12.371c-0.066,0.826,0.549,1.549,1.375,1.615c0.041,0.003,0.081,0.005,0.122,0.005c0.773,0,1.43-0.595,1.493-1.38
		l0.899-11.181c0.186,0.082,0.39,0.129,0.605,0.129s0.42-0.047,0.605-0.129l0.899,11.181c0.063,0.785,0.72,1.38,1.493,1.38
		c0.041,0,0.081-0.001,0.122-0.005c0.826-0.066,1.441-0.79,1.375-1.615l-0.995-12.371v-8.532c0.274,0.078,0.508,0.149,0.688,0.207
		l1.684,2.606c0.203,0.314,0.535,0.521,0.907,0.563c0.048,0.005,0.095,0.008,0.143,0.008c0.322,0,0.634-0.125,0.868-0.351
		l1.517-1.464l0.289,1.08c-0.668,0.556-0.961,1.445-0.733,2.295c0.183,0.679,0.666,1.224,1.328,1.493l0.699,0.285l-0.539-2.014
		l0.64-0.494l0.801,0.107l0.54,2.013l0.463-0.594C35.72,24.052,35.867,23.338,35.686,22.658z"/>
</g>
</svg>
