<?xml version="1.0" encoding="utf-8"?>
<!-- Generator: Adobe Illustrator 16.0.0, SVG Export Plug-In . SVG Version: 6.00 Build 0)  -->
<!DOCTYPE svg PUBLIC "-//W3C//DTD SVG 1.1//EN" "http://www.w3.org/Graphics/SVG/1.1/DTD/svg11.dtd">
<svg version="1.1" id="Layer_11" xmlns="http://www.w3.org/2000/svg" xmlns:xlink="http://www.w3.org/1999/xlink" x="0px" y="0px"
	 width="100px" height="100px" viewBox="0 0 100 100" enable-background="new 0 0 100 100" xml:space="preserve">
<path d="M29.564,27.201h2.312c-1.229,1.3-1.987,3.049-1.987,4.975c0,2.671,1.454,5.004,3.609,6.265
	C36.375,47.694,46.996,50.744,50,50.744c1.964,0,13.303-3.04,16.429-12.258c2.197-1.249,3.685-3.606,3.685-6.31
	c0-1.926-0.759-3.675-1.987-4.975h2.311c1.246,0,2.256-1.01,2.256-2.257c0-1.246-1.01-2.256-2.256-2.256h-5.111V10.961
	c0-4.602-3.731-8.333-8.335-8.333H43.008c-4.602,0-8.333,3.731-8.333,8.333v11.727h-5.11c-1.246,0-2.256,1.01-2.256,2.256
	C27.309,26.191,28.318,27.201,29.564,27.201z M37.146,27.631h6.352c2.506,0,4.545,2.039,4.545,4.545s-2.039,4.544-4.545,4.544
	h-6.352c-2.506,0-4.544-2.039-4.544-4.544S34.641,27.631,37.146,27.631z M62.855,36.721h-6.352c-2.506,0-4.545-2.039-4.545-4.544
	s2.039-4.545,4.545-4.545h6.352c2.506,0,4.544,2.039,4.544,4.545S65.361,36.721,62.855,36.721z M50.001,28.972
	c-0.322-0.652-0.737-1.248-1.232-1.771h2.465C50.738,27.724,50.323,28.32,50.001,28.972z M79.376,73.982V91.87l-0.123-0.001
	L78.1,92.454c-0.58,0.294-9.979,4.918-26.195,4.918c-8.303,0-18.392-1.212-30.001-4.838l-1.233-0.385l-0.046-0.279V73.982
	c0-12.165,9.898-22.064,22.063-22.064h0.337c-0.309,0.277-0.586,0.613-0.825,0.987h-1.974c0,0,0.568,0.287,1.44,1.006
	c-0.469,1.063-0.708,2.193-0.708,2.913c0,2.12,1.725,3.844,3.845,3.844h2.014c2.274,4.473,4.263,11.29,4.263,21.482
	c0,0,0.795-12.818,3.784-21.482h0.334c2.12,0,3.845-1.724,3.845-3.844c0-0.658-0.201-1.661-0.594-2.64
	c0.864-0.813,1.823-1.279,2.888-1.279h-3.535c-0.239-0.374-0.517-0.709-0.825-0.987h0.336
	C69.478,51.918,79.376,61.817,79.376,73.982z M48.515,52.693l-1.743-0.775h6.456l-2.131,0.947
	C50.272,52.537,49.36,52.479,48.515,52.693z M44.804,52.866l3.636,1.615c0.342-0.141,0.716-0.222,1.109-0.222
	c0.545,0,1.048,0.159,1.483,0.42c0.033-0.001,0.061-0.005,0.096-0.005l4.07-1.809c1.374,0,2.487,2.923,2.487,4.296
	s-1.113,2.487-2.487,2.487h-4.07c-0.035,0-0.063-0.003-0.096-0.005c-0.436,0.262-0.938,0.42-1.483,0.42
	c-0.541,0-1.042-0.157-1.476-0.415h-3.27c-1.374,0-2.487-1.114-2.487-2.487S43.43,52.866,44.804,52.866z"/>
</svg>
