<?xml version="1.0" encoding="utf-8"?>
<!-- Generator: Adobe Illustrator 16.0.0, SVG Export Plug-In . SVG Version: 6.00 Build 0)  -->
<!DOCTYPE svg PUBLIC "-//W3C//DTD SVG 1.1//EN" "http://www.w3.org/Graphics/SVG/1.1/DTD/svg11.dtd">
<svg version="1.1" id="Layer_1" xmlns="http://www.w3.org/2000/svg" xmlns:xlink="http://www.w3.org/1999/xlink" x="0px" y="0px"
	 width="50px" height="50px" viewBox="0 0 50 50" enable-background="new 0 0 50 50" xml:space="preserve">
<g>
	<circle cx="23.465" cy="14.652" r="2.831"/>
	<path d="M35.104,16.43v-2.736l-8.806,3.648l2.078,0.861v0.62c-0.1,0.04-0.201,0.077-0.29,0.146l-3.357,2.647l-2.466-3.207
		c-0.059-0.248-0.17-0.479-0.324-0.683c-0.131-0.358-0.405-0.662-0.788-0.81c-0.476-0.183-0.986-0.079-1.354,0.222
		c-0.156,0.064-0.299,0.156-0.433,0.26l-5.215,1.605c-0.375,0.115-0.665,0.416-0.766,0.795l-1.236,4.612
		c-0.163,0.608,0.198,1.233,0.806,1.396c0.099,0.026,0.198,0.039,0.296,0.039c0.503,0,0.964-0.336,1.1-0.845l1.073-4.003
		l2.532-0.779l-1.923,4.731c-0.176,0.43-0.167,0.886-0.024,1.291l-2.855,5.245l-3.866,3.545c-0.557,0.51-0.594,1.375-0.083,1.933
		c0.27,0.294,0.638,0.443,1.008,0.443c0.331,0,0.662-0.118,0.925-0.359l4.033-3.699c0.111-0.102,0.204-0.222,0.277-0.354
		l2.376-4.367l2.681,3.008l-0.145,5.138c-0.021,0.756,0.574,1.385,1.33,1.406c0.013,0,0.026,0,0.039,0
		c0.738,0,1.346-0.587,1.367-1.33l0.16-5.681c0.009-0.349-0.115-0.688-0.347-0.948l-3.49-3.916l2.088-5.14l2.118,2.755
		c0.186,0.242,0.461,0.399,0.764,0.437c0.046,0.006,0.094,0.009,0.14,0.009c0.255,0,0.504-0.085,0.707-0.245l3.578-2.822h0.938
		v-0.838c0.222-0.357,0.223-0.806,0-1.178v-0.512l5.354,2.218v-2.736c0.504,0,0.912-0.408,0.912-0.912
		C36.016,16.837,35.607,16.43,35.104,16.43z"/>
	<path d="M36.016,12.2v0.354c2.64,0,4.787,2.148,4.787,4.787c0,2.64-2.147,4.787-4.787,4.787v0.354c2.835,0,5.142-2.306,5.142-5.142
		C41.157,14.507,38.851,12.2,36.016,12.2z"/>
	<path d="M39.385,17.342c0,1.858-1.512,3.369-3.369,3.369v0.354c2.053,0,3.724-1.67,3.724-3.724c0-2.052-1.67-3.723-3.724-3.723
		v0.354C37.873,13.974,39.385,15.485,39.385,17.342z"/>
	<path d="M37.966,17.342c0,1.076-0.875,1.951-1.95,1.951v0.354c1.271,0,2.305-1.034,2.305-2.305s-1.034-2.305-2.305-2.305v0.354
		C37.091,15.392,37.966,16.266,37.966,17.342z"/>
</g>
</svg>
