<?xml version="1.0" encoding="utf-8"?>
<!-- Generator: Adobe Illustrator 16.0.0, SVG Export Plug-In . SVG Version: 6.00 Build 0)  -->
<!DOCTYPE svg PUBLIC "-//W3C//DTD SVG 1.1//EN" "http://www.w3.org/Graphics/SVG/1.1/DTD/svg11.dtd">
<svg version="1.1" id="Layer_1" xmlns="http://www.w3.org/2000/svg" xmlns:xlink="http://www.w3.org/1999/xlink" x="0px" y="0px"
	 width="50px" height="50px" viewBox="0 0 50 50" enable-background="new 0 0 50 50" xml:space="preserve">
<g>
	<path d="M25.002,15.531c1.744,0,3.16-2.024,3.16-3.769c0-1.746-1.416-3.161-3.16-3.161c-1.746,0-3.162,1.416-3.162,3.161
		C21.84,13.507,23.256,15.531,25.002,15.531z"/>
	<path d="M39.205,26.952l0.016-0.008l-2.884-5.709c0.386-0.108,0.715-0.394,0.851-0.802c0.219-0.655-0.136-1.363-0.79-1.582
		l-5.999-2c-0.272-0.097-2.698-0.942-4.933-1.052l-0.298,0.595H25.16l0.842,6.556l-1,1.747l-1-1.747l0.842-6.556h-0.009
		l-0.297-0.595c-2.234,0.11-4.66,0.955-4.933,1.052l-5.999,2c-0.654,0.218-1.009,0.926-0.79,1.582
		c0.136,0.409,0.466,0.695,0.853,0.803l-2.89,5.717l0.011,0.005c-0.069,0.117-0.116,0.241-0.116,0.378
		c0,1.838,1.49,3.328,3.328,3.328s3.328-1.49,3.328-3.328c0-0.14-0.05-0.266-0.121-0.384l0.016-0.008l-2.886-5.711
		c0.02-0.005,0.039-0.003,0.059-0.009l6-2c0.006-0.002,0.01-0.007,0.015-0.009c0.005-0.001,0.01,0,0.015-0.002
		c0.011-0.003,0.44-0.156,1.075-0.336v8.532l-0.995,12.371c-0.066,0.826,0.549,1.549,1.375,1.615
		c0.041,0.003,0.081,0.005,0.122,0.005c0.773,0,1.43-0.595,1.493-1.38l0.899-11.181c0.186,0.082,0.39,0.129,0.605,0.129
		s0.42-0.047,0.605-0.129l0.899,11.181c0.063,0.785,0.72,1.38,1.493,1.38c0.041,0,0.081-0.001,0.122-0.005
		c0.826-0.066,1.441-0.79,1.375-1.615l-0.995-12.371v-8.532c0.635,0.18,1.064,0.333,1.075,0.336c0.005,0.002,0.01,0.001,0.016,0.002
		c0.005,0.002,0.009,0.006,0.014,0.008l6,2c0.02,0.006,0.04,0.004,0.06,0.01l-2.891,5.72l0.011,0.005
		c-0.069,0.117-0.116,0.241-0.116,0.378c0,1.838,1.49,3.328,3.328,3.328s3.328-1.49,3.328-3.328
		C39.326,27.196,39.276,27.07,39.205,26.952z M16.356,26.332c-1.261-0.495-3.439-0.496-4.703-0.002l2.352-4.65L16.356,26.332z
		 M33.649,26.33l2.352-4.65l2.352,4.653C37.092,25.837,34.913,25.836,33.649,26.33z"/>
</g>
</svg>
