<?xml version="1.0" encoding="utf-8"?>
<!-- Generator: Adobe Illustrator 16.0.0, SVG Export Plug-In . SVG Version: 6.00 Build 0)  -->
<!DOCTYPE svg PUBLIC "-//W3C//DTD SVG 1.1//EN" "http://www.w3.org/Graphics/SVG/1.1/DTD/svg11.dtd">
<svg version="1.1" id="Layer_1" xmlns="http://www.w3.org/2000/svg" xmlns:xlink="http://www.w3.org/1999/xlink" x="0px" y="0px"
	 width="50px" height="50px" viewBox="0 0 50 50" enable-background="new 0 0 50 50" xml:space="preserve">
<g>
	<path d="M20.788,15.531c1.745,0,3.161-2.024,3.161-3.769c0-1.746-1.416-3.161-3.161-3.161s-3.161,1.416-3.161,3.161
		C17.626,13.507,19.042,15.531,20.788,15.531z"/>
	<path d="M37.796,23.381h-2.772c-0.055-1.497-0.863-2.769-2.006-3.311c0.014-0.536-0.301-1.041-0.835-1.219l-5.998-2
		c-0.291-0.104-3.048-1.064-5.397-1.064c-2.539,0-4.533,1.116-4.617,1.163c-0.042,0.024-0.066,0.063-0.104,0.091
		c-0.07,0.05-0.135,0.103-0.193,0.167c-0.059,0.063-0.103,0.131-0.146,0.205c-0.024,0.042-0.062,0.071-0.083,0.116l-4,9
		c-0.28,0.631,0.004,1.37,0.635,1.65c0.165,0.074,0.338,0.108,0.508,0.108c0.479,0,0.936-0.277,1.143-0.743l3.357-7.557v7.419
		l-0.995,12.372c-0.066,0.826,0.549,1.549,1.375,1.615c0.04,0.003,0.081,0.005,0.122,0.005c0.773,0,1.43-0.595,1.493-1.38
		l0.899-11.181c0.186,0.082,0.39,0.129,0.605,0.129s0.42-0.047,0.605-0.13l0.899,11.181c0.063,0.785,0.72,1.38,1.493,1.38
		c0.041,0,0.081-0.001,0.122-0.005c0.825-0.066,1.441-0.79,1.375-1.615l-0.995-12.371v-8.532c0.636,0.18,1.064,0.333,1.076,0.336
		c0.004,0.002,0.01,0.001,0.015,0.002c0.005,0.002,0.009,0.006,0.015,0.008l4.328,1.443c-0.684,0.657-1.131,1.621-1.17,2.715h-2.772
		c-0.367,0-0.668,0.301-0.668,0.667c0,0.367,0.181,0.668,0.401,0.668s0.459,0.294,0.531,0.655l0.939,4.699
		c0.072,0.36,0.432,0.655,0.799,0.655h8.012c0.367,0,0.727-0.295,0.799-0.655l0.939-4.699c0.072-0.36,0.311-0.655,0.531-0.655
		s0.4-0.301,0.4-0.668C38.463,23.682,38.164,23.381,37.796,23.381z M30.25,20.843l1.142,0.38c0.132,0.043,0.265,0.064,0.396,0.064
		c0.473,0,0.902-0.279,1.113-0.716c0.924,0.486,1.572,1.555,1.623,2.81h-5.473C29.094,22.327,29.554,21.399,30.25,20.843z
		 M30.064,29.384h-1.542v-1.542h1.542V29.384z M30.064,26.754h-1.542v-1.542h1.542V26.754z M32.558,29.384h-1.542v-1.542h1.542
		V29.384z M32.558,26.754h-1.542v-1.542h1.542V26.754z M35.053,29.384H33.51v-1.542h1.543V29.384z M35.053,26.754H33.51v-1.542
		h1.543V26.754z"/>
</g>
</svg>
