<?xml version="1.0" encoding="utf-8"?>
<!-- Generator: Adobe Illustrator 16.0.0, SVG Export Plug-In . SVG Version: 6.00 Build 0)  -->
<!DOCTYPE svg PUBLIC "-//W3C//DTD SVG 1.1//EN" "http://www.w3.org/Graphics/SVG/1.1/DTD/svg11.dtd">
<svg version="1.1" id="Layer_1" xmlns="http://www.w3.org/2000/svg" xmlns:xlink="http://www.w3.org/1999/xlink" x="0px" y="0px"
	 width="50px" height="50px" viewBox="0 0 50 50" enable-background="new 0 0 50 50" xml:space="preserve">
<g>
	<path d="M14.574,26.693c0.033,0.003,0.065,0.004,0.098,0.004c0.646,0,1.194-0.498,1.245-1.153l0.355-4.578l2.399-1.729v6.641
		c0,0.334,0.09,0.645,0.235,0.921l-2.693,11.158c-0.194,0.806,0.301,1.616,1.106,1.81c0.119,0.029,0.237,0.042,0.354,0.042
		c0.677,0,1.291-0.461,1.457-1.148l2.566-10.633l2.916,1.39l-0.245,3.947c-0.051,0.827,0.577,1.539,1.404,1.59
		c0.032,0.002,0.063,0.003,0.095,0.003c0.786,0,1.446-0.612,1.496-1.407l0.308-4.958c0.038-0.611-0.299-1.184-0.852-1.447
		l-4.146-1.976v-4.39l1.45,1.731c0.206,0.246,0.499,0.403,0.817,0.439l4.409,0.5c0.048,0.005,0.095,0.008,0.142,0.008
		c0.627,0,1.168-0.471,1.241-1.109c0.078-0.686-0.416-1.305-1.102-1.383l-3.912-0.443l-3.187-3.804
		c-0.095-0.242-0.235-0.46-0.411-0.646c-0.167-0.646-0.749-1.126-1.447-1.126c-0.52,0-0.977,0.264-1.246,0.665l-5.085,3.665
		c-0.298,0.215-0.487,0.551-0.515,0.917l-0.4,5.156C13.371,26.039,13.886,26.64,14.574,26.693z"/>
	<circle cx="21.976" cy="11.604" r="3.104"/>
	<path d="M36.595,25.383l-3.683,1.149l0.848,0.848l-4.026,3.229c-0.118,0.095-0.187,0.238-0.187,0.39v4.5h-7.571
		c-0.276,0-0.5,0.224-0.5,0.5v4.5h-7.571c-0.276,0-0.5,0.224-0.5,0.5s0.224,0.5,0.5,0.5h8.071c0.276,0,0.5-0.224,0.5-0.5v-4.5h7.571
		c0.276,0,0.5-0.224,0.5-0.5v-4.76l3.925-3.148l0.974,0.974L36.595,25.383z"/>
</g>
</svg>
