<?xml version="1.0" encoding="utf-8"?>
<!-- Generator: Adobe Illustrator 16.0.4, SVG Export Plug-In . SVG Version: 6.00 Build 0)  -->
<!DOCTYPE svg PUBLIC "-//W3C//DTD SVG 1.1//EN" "http://www.w3.org/Graphics/SVG/1.1/DTD/svg11.dtd">
<svg version="1.1" id="Layer_1" xmlns="http://www.w3.org/2000/svg" xmlns:xlink="http://www.w3.org/1999/xlink" x="0px" y="0px"
	 width="50px" height="50px" viewBox="0 0 50 50" enable-background="new 0 0 50 50" xml:space="preserve">
<path d="M35.143,25.543c1.643-1.104,2.771-3.28,2.771-5.239c0-2.768-2.243-5.01-5.008-5.01c-2.766,0-5.008,2.242-5.008,5.01
	c0,1.959,1.129,4.135,2.771,5.239c-3.923,0.996-6.831,4.398-6.831,6.925c0,2.983,18.137,2.983,18.137,0
	C41.975,29.945,39.066,26.539,35.143,25.543z M32.904,34.705l-2.539-2.54l2.139-5.17h-0.021l-0.832-0.953
	c0.402,0.146,0.82,0.231,1.254,0.231c0.436,0,0.853-0.086,1.254-0.23l-0.83,0.952h-0.021l2.139,5.17L32.904,34.705z M10.104,22.682
	c-0.113,0.11-0.232,0.212-0.294,0.357c-0.344,0.815,0.353,1.887,1.556,2.396c1.203,0.506,2.458,0.258,2.802-0.557
	c0.084-0.199,0.103-0.415,0.07-0.635l8.806,3.327V16.219L8.026,21.896L10.104,22.682z M10.319,23.254
	c0.063-0.15,0.172-0.276,0.309-0.376l3.027,1.146c0.066,0.22,0.09,0.439,0.004,0.64c-0.264,0.625-1.225,0.814-2.148,0.424
	C10.59,24.698,10.055,23.879,10.319,23.254z M26.48,25.683l-2.866-1.656l0.414-0.717l2.866,1.656L26.48,25.683z M26.926,22.309
	h-3.312v-0.828h3.312V22.309z M24.027,20.479l-0.413-0.717l2.871-1.652l0.413,0.718L24.027,20.479z"/>
</svg>
