<svg width="64" xmlns="http://www.w3.org/2000/svg" height="64" viewBox="0 0 64 64" xmlns:xlink="http://www.w3.org/1999/xlink" enable-background="new 0 0 64 64">
<g fill="#0e0f0f">
<path d="m55.002,48.918c-3.246-4.523-5.656-9.443-7.432-14.699-.021-.383-.088-.785-.227-1.208-.459-1.412-.854-2.839-1.205-4.276 .953,.752 1.867,1.56 2.748,2.426 2.381,2.341 6.043-1.317 3.66-3.661-2.529-2.488-5.361-4.628-8.484-6.305-.287-.384-.73-.677-1.35-.808-.828-.38-1.765-.536-2.627-.415-5.15-.717-10.32-.874-15.512-.22-3.266,.412-3.306,5.594 0,5.177 3.958-.499 7.923-.55 11.871-.196 .011,.238 .03,.479 .069,.719 .525,3.302 1.268,6.546 2.297,9.729 0,6.506 0,13.01 0,19.516 0,3.338 5.176,3.338 5.176,0 0-5.086 0-10.17 0-15.254 1.713,4.264 3.848,8.33 6.545,12.088 1.928,2.686 6.422,.106 4.471-2.613z"/>
<circle cx="40.764" cy="14.398" r="4.549"/>
<path d="m15.635,21.425c-.279-.031-.558-.057-.836-.077-.699-.051-1.396-.078-2.094-.076-.698-.001-1.396,.026-2.094,.077-.698,.05-1.396,.125-2.093,.267 .697,.143 1.395,.217 2.093,.268 .699,.051 1.396,.077 2.094,.077 .697,.001 1.395-.026 2.094-.076 .31-.022 .619-.051 .929-.087l.493,.577h2.051v-1.516h-2.052l-.585,.566z"/>
</g>
</svg>
