<?xml version="1.0" encoding="utf-8"?>
<!-- Generator: Adobe Illustrator 16.0.0, SVG Export Plug-In . SVG Version: 6.00 Build 0)  -->
<!DOCTYPE svg PUBLIC "-//W3C//DTD SVG 1.1//EN" "http://www.w3.org/Graphics/SVG/1.1/DTD/svg11.dtd">
<svg version="1.1" id="Layer_1" xmlns="http://www.w3.org/2000/svg" xmlns:xlink="http://www.w3.org/1999/xlink" x="0px" y="0px"
	 width="50px" height="50px" viewBox="0 0 50 50" enable-background="new 0 0 50 50" xml:space="preserve">
<g>
	<path d="M25.004,15.531c1.744,0,3.16-2.024,3.16-3.77c0-1.746-1.416-3.161-3.16-3.161c-1.746,0-3.162,1.415-3.162,3.161
		C21.842,13.507,23.258,15.531,25.004,15.531z"/>
	<path d="M39.903,17.107l-5.77-3.35v2.022h-8.646v0.021l-0.318,0.635h-0.008l0.842,6.557l-1,1.747l-1-1.747l0.842-6.557h-0.01
		l-0.313-0.627c-0.004,0-0.007,0.002-0.011,0.002v-0.03h-8.646v-2.022l-5.77,3.35l5.77,3.35v-2.019h5.637v8.97l-0.995,12.371
		c-0.066,0.825,0.549,1.549,1.375,1.615c0.041,0.003,0.082,0.005,0.122,0.005c0.774,0,1.431-0.595,1.494-1.38l0.899-11.181
		c0.186,0.082,0.39,0.13,0.605,0.13s0.42-0.048,0.605-0.13l0.899,11.181c0.063,0.785,0.72,1.38,1.494,1.38
		c0.04,0,0.081-0.002,0.122-0.005c0.826-0.066,1.441-0.79,1.375-1.615l-0.995-12.371v-8.97h5.629v2.019L39.903,17.107z"/>
</g>
</svg>
