<?xml version="1.0" encoding="utf-8"?>
<!-- Generator: Adobe Illustrator 16.0.0, SVG Export Plug-In . SVG Version: 6.00 Build 0)  -->
<!DOCTYPE svg PUBLIC "-//W3C//DTD SVG 1.1//EN" "http://www.w3.org/Graphics/SVG/1.1/DTD/svg11.dtd">
<svg version="1.1" id="Layer_1" xmlns="http://www.w3.org/2000/svg" xmlns:xlink="http://www.w3.org/1999/xlink" x="0px" y="0px"
	 width="50px" height="50px" viewBox="0 0 50 50" enable-background="new 0 0 50 50" xml:space="preserve">
<g>
	<path d="M40.845,12.551h-7.75v-1.5c0-0.414-0.336-0.75-0.75-0.75s-0.75,0.336-0.75,0.75v1.5h-7.75c-1.103,0-2,0.897-2,2v2.633
		l-1.041-0.347c-0.272-0.097-2.698-0.942-4.933-1.052l-0.298,0.595h-0.008l0.842,6.556l-1,1.747l-1-1.747l0.842-6.556H15.24
		l-0.297-0.596c-2.318,0.114-4.849,1.022-4.962,1.063c-0.041,0.015-0.068,0.046-0.106,0.065c-0.082,0.039-0.157,0.083-0.229,0.139
		c-0.061,0.047-0.112,0.097-0.161,0.154c-0.055,0.061-0.102,0.124-0.144,0.196s-0.073,0.146-0.101,0.226
		c-0.015,0.044-0.044,0.078-0.055,0.125l-2,9c-0.149,0.674,0.275,1.341,0.949,1.491c0.092,0.021,0.183,0.03,0.272,0.03
		c0.573,0,1.09-0.397,1.22-0.979l1.846-8.305c0.129-0.04,0.275-0.083,0.434-0.127v8.532l-0.995,12.371
		c-0.066,0.826,0.549,1.549,1.375,1.615c0.041,0.003,0.081,0.005,0.122,0.005c0.773,0,1.43-0.595,1.493-1.38l0.899-11.181
		c0.186,0.082,0.39,0.129,0.605,0.129s0.42-0.047,0.605-0.129l0.899,11.181c0.063,0.785,0.72,1.38,1.493,1.38
		c0.041,0,0.081-0.001,0.122-0.005c0.826-0.066,1.441-0.79,1.375-1.615l-0.995-12.371v-8.532c0.635,0.18,1.064,0.333,1.075,0.336
		c0.005,0.002,0.01,0.001,0.016,0.002c0.005,0.002,0.009,0.006,0.014,0.008l1.833,0.611v6.732c0,1.103,0.897,2,2,2h3.641
		l-3.193,11.92c-0.107,0.4,0.131,0.811,0.53,0.918c0.065,0.017,0.131,0.025,0.194,0.025c0.332,0,0.635-0.221,0.725-0.556
		l3.297-12.308h2.557v8.722c0,0.414,0.336,0.75,0.75,0.75s0.75-0.336,0.75-0.75v-8.722h2.557l3.297,12.308
		c0.09,0.335,0.393,0.556,0.725,0.556c0.063,0,0.129-0.008,0.194-0.025c0.399-0.107,0.638-0.519,0.53-0.918l-3.193-11.92h3.641
		c1.103,0,2-0.897,2-2v-12C42.845,13.448,41.947,12.551,40.845,12.551z M41.845,26.551c0,0.551-0.448,1-1,1h-17
		c-0.552,0-1-0.449-1-1v-6.398l3.167,1.056c0.132,0.043,0.265,0.064,0.396,0.064c0.523,0,1.012-0.332,1.186-0.855
		c0.029-0.088,0.023-0.176,0.032-0.265l7.515-3.477c0.125-0.058,0.18-0.207,0.121-0.332c-0.058-0.125-0.206-0.181-0.332-0.122
		l-7.358,3.405c-0.121-0.357-0.383-0.662-0.768-0.791l-3.958-1.319v-2.966c0-0.551,0.448-1,1-1h17c0.552,0,1,0.449,1,1V26.551z"/>
	<path d="M15.407,15.516c1.744,0,3.16-2.024,3.16-3.769c0-1.746-1.416-3.161-3.16-3.161c-1.746,0-3.162,1.416-3.162,3.161
		C12.245,13.492,13.661,15.516,15.407,15.516z"/>
</g>
</svg>
