<?xml version="1.0" encoding="utf-8"?>
<!-- Generator: Adobe Illustrator 16.0.0, SVG Export Plug-In . SVG Version: 6.00 Build 0)  -->
<!DOCTYPE svg PUBLIC "-//W3C//DTD SVG 1.1//EN" "http://www.w3.org/Graphics/SVG/1.1/DTD/svg11.dtd">
<svg version="1.1" id="Layer_1" xmlns="http://www.w3.org/2000/svg" xmlns:xlink="http://www.w3.org/1999/xlink" x="0px" y="0px"
	 width="126px" height="126px" viewBox="0 0 126 126" enable-background="new 0 0 126 126" xml:space="preserve">
<g>
	<path d="M100.703,11.393c-2.416-1.37-5.488-0.523-6.858,1.895c-0.073,0.129-7.453,12.814-24.221,15.522
		c-1.311-0.797-2.743-1.397-4.204-1.756l-3.228,3.25l-3.129-3.285c-0.011,0.002-0.022,0.003-0.032,0.006
		c-1.292,0.309-2.565,0.803-3.75,1.459c-15.808-3.025-22.838-14.839-23.126-15.334c-1.371-2.417-4.442-3.266-6.858-1.895
		c-2.417,1.371-3.265,4.44-1.895,6.857c0.359,0.633,8.174,14.069,25.582,19.184c-0.034,0.335-0.054,0.676-0.054,1.023v28.603
		c0,1.369,0.27,2.644,0.74,3.815c-0.033,0.252-0.077,0.502-0.076,0.764l0.049,48.174c0.004,3.281,2.665,5.939,5.946,5.939
		c0.001,0,0.004,0,0.006,0c3.284-0.003,5.943-2.668,5.939-5.952l-0.042-41.337c0.233,0.011,0.466,0.029,0.701,0.029
		c0.049,0,0.097-0.005,0.146-0.006l0.038,41.326c0.003,3.282,2.664,5.94,5.945,5.94c0.002,0,0.004,0,0.006,0
		c3.284-0.003,5.943-2.667,5.94-5.951L74.223,71.79c0.779-1.443,1.233-3.077,1.233-4.868V38.318c0-0.154-0.017-0.301-0.023-0.453
		c18.518-4.736,26.795-18.964,27.165-19.615C103.968,15.833,103.12,12.763,100.703,11.393z M62.224,55.95h-0.062l-3.124-4.277
		l3.124-20.889h0.062l3.124,20.889L62.224,55.95z"/>
	<circle cx="62.192" cy="13.344" r="12.958"/>
</g>
</svg>
