<?xml version="1.0" encoding="utf-8"?>
<!-- Generator: Adobe Illustrator 16.0.0, SVG Export Plug-In . SVG Version: 6.00 Build 0)  -->
<!DOCTYPE svg PUBLIC "-//W3C//DTD SVG 1.1//EN" "http://www.w3.org/Graphics/SVG/1.1/DTD/svg11.dtd">
<svg version="1.1" id="Layer_2" xmlns="http://www.w3.org/2000/svg" xmlns:xlink="http://www.w3.org/1999/xlink" x="0px" y="0px"
	 width="126px" height="126px" viewBox="0 0 126 126" enable-background="new 0 0 126 126" xml:space="preserve">
<g>
	<circle cx="62.259" cy="11.219" r="10.051"/>
	<path d="M96.5,104.226c-2.231,0-4.233,0.67-5.636,1.734l-16.631-5.274c0.56-1.073,0.882-2.232,0.882-3.448
		c0-1.185-0.306-2.316-0.841-3.366l20.921-15.971c0.416,0.082,0.852,0.129,1.305,0.129c2.646,0,4.792-1.503,4.792-3.356
		c0-1.854-2.146-3.357-4.792-3.357c-2.646,0-4.792,1.503-4.792,3.357c0,0.418,0.115,0.817,0.313,1.187L72.086,91.079
		c-0.157-0.14-0.33-0.269-0.498-0.402l0.001-34.124c0.605-1.12,0.957-2.387,0.957-3.776v-8.104c1.053,3.005,2.144,6.11,3.501,9.219
		c0.64,1.467,2.074,2.342,3.578,2.342c0.521,0,1.052-0.104,1.56-0.327c1.974-0.862,2.877-3.163,2.014-5.137
		c-1.253-2.87-2.302-5.863-3.317-8.758c-2.661-7.59-5.174-14.76-10.938-18.295c-0.169-0.104-0.347-0.178-0.524-0.252
		c-1.119-0.747-2.376-1.297-3.658-1.611l-2.503,2.521l-2.428-2.548c-0.009,0.002-0.017,0.002-0.025,0.004
		c-1.28,0.306-2.536,0.848-3.656,1.586c-0.211,0.083-0.421,0.177-0.621,0.3c-5.766,3.536-8.278,10.705-10.938,18.295
		c-1.016,2.895-2.065,5.888-3.318,8.758c-0.862,1.975,0.04,4.275,2.015,5.137c0.508,0.222,1.039,0.327,1.559,0.327
		c1.505,0,2.938-0.875,3.579-2.342c1.369-3.136,2.467-6.269,3.529-9.298c0.005-0.016,0.011-0.031,0.017-0.046v8.229
		c0,1.05,0.203,2.03,0.561,2.93c-0.028,0.203-0.046,0.408-0.046,0.618l0.002,34.135c-0.374,0.279-0.718,0.578-1.044,0.888
		l-12.801-5.231c0.115-0.371,0.18-0.754,0.18-1.149c0-2.972-3.439-5.382-7.682-5.382c-4.243,0-7.683,2.41-7.683,5.382
		s3.439,5.382,7.683,5.382c1.968,0,3.756-0.523,5.115-1.375l13.058,5.336c-0.401,0.925-0.621,1.908-0.621,2.928
		c0,1.494,0.477,2.904,1.306,4.169l-14.376,11.167c-1.331-0.512-2.857-0.804-4.481-0.804c-5.149,0-9.323,2.924-9.323,6.531
		c0,3.606,4.174,6.531,9.323,6.531c5.148,0,9.322-2.925,9.322-6.531c0-1.379-0.613-2.656-1.654-3.71l13.647-10.601
		c2.01,1.509,4.685,2.534,7.673,2.83v6.771c-2.854,0.632-4.923,2.502-4.923,4.71c0,2.729,3.158,4.941,7.053,4.941
		c3.895,0,7.052-2.212,7.052-4.941c0-2.388-2.419-4.381-5.634-4.841v-6.64c3.217-0.318,6.065-1.485,8.116-3.186l17.067,5.412
		c-0.027,0.185-0.042,0.373-0.042,0.562c0,2.972,3.439,5.382,7.683,5.382c4.243,0,7.682-2.41,7.682-5.382
		S100.743,104.226,96.5,104.226z M62.235,24.747h0.046l2.424,16.203l-2.424,3.317h-0.046l-2.424-3.317L62.235,24.747z
		 M61.709,61.622c0.182,0.008,0.365,0.023,0.549,0.023c0.035,0,0.072-0.004,0.107-0.005v25.935
		c-0.155-0.004-0.306-0.018-0.462-0.018c-0.065,0-0.128,0.007-0.192,0.007L61.709,61.622z M61.904,104.081
		c-5.623,0-10.374-3.133-10.374-6.842c0-1.022,0.372-1.997,1.012-2.878c0.325,2.229,2.24,3.942,4.559,3.942
		c2.547,0,4.611-2.065,4.611-4.612v-3.288c0.064,0,0.127-0.006,0.192-0.006c0.156,0,0.307,0.011,0.461,0.016v3.278
		c0,2.547,2.065,4.612,4.612,4.612l0,0c2.212,0,4.057-1.557,4.506-3.635c0.508,0.799,0.794,1.667,0.794,2.571
		C72.277,100.947,67.527,104.081,61.904,104.081z"/>
</g>
</svg>
