<?xml version="1.0" encoding="utf-8"?>
<!-- Generator: Adobe Illustrator 16.0.0, SVG Export Plug-In . SVG Version: 6.00 Build 0)  -->
<!DOCTYPE svg PUBLIC "-//W3C//DTD SVG 1.1//EN" "http://www.w3.org/Graphics/SVG/1.1/DTD/svg11.dtd">
<svg version="1.1" id="Layer_1" xmlns="http://www.w3.org/2000/svg" xmlns:xlink="http://www.w3.org/1999/xlink" x="0px" y="0px"
	 width="126px" height="126px" viewBox="0 0 126 126" enable-background="new 0 0 126 126" xml:space="preserve">
<g>
	<path d="M29.487,41.76c6.162-0.118,10.231-5.907,10.209-14.551c-0.01-6.207-4.019-9.841-10.695-9.695
		c-6.434,0.148-9.987,3.71-9.92,9.939C19.181,36.43,23.143,41.873,29.487,41.76z"/>
	<circle cx="90.067" cy="25.581" r="13.045"/>
	<rect x="14.197" y="77.229" width="101.031" height="36.236"/>
	<path d="M114.866,70.575c2.698-17.198-11.155-25.716-16.366-28.91c-0.165-0.102-0.347-0.173-0.522-0.252
		c-1.43-0.94-3.028-1.629-4.659-2.03l-3.249,3.274l-3.15-3.308c-0.014,0-0.022,0-0.035,0.004c-1.56,0.372-3.097,1.021-4.482,1.895
		c-0.345,0.104-0.688,0.24-1.017,0.426c-2.021,1.137-3.94,1.356-6.045,0.702c-2.717-0.848-5.36-2.99-7.689-5.513l-4.244-5.4
		c-1.569-2.313-2.773-4.451-3.428-5.793c-1.223-2.517-4.254-3.564-6.77-2.344c-2.517,1.221-3.566,4.253-2.344,6.771
		c0.653,1.35,5.253,10.462,12.541,16.744v0.002c0.362-0.478,0.825-0.88,1.38-1.141l3.646-1.713c0.503-0.233,1.041-0.354,1.591-0.354
		c1.454,0,2.787,0.848,3.403,2.163c0.422,0.902,0.469,1.922,0.129,2.865c-0.341,0.942-1.027,1.696-1.932,2.119l-1.187,0.558
		c0.611,0.261,1.23,0.501,1.866,0.7c1.466,0.458,2.939,0.715,4.41,0.791v17.744H59.481c0.089-3.983,0.859-14.542,6.47-19.668
		c0.421,0.117,0.884,0.096,1.313-0.104l3.648-1.714c0.954-0.445,1.364-1.585,0.916-2.54c-0.446-0.954-1.587-1.364-2.542-0.916
		l-3.648,1.714c-0.576,0.271-0.952,0.792-1.062,1.376c-6.737,5.769-7.576,17.493-7.649,21.853h-4.083
		c0.002-0.017,0.002-0.033,0.005-0.049h-1.153l-2.24-8.847c-0.05-0.186-0.112-0.365-0.18-0.543l-5.314-12.993
		c-0.446-1.08-1.299-1.857-2.302-2.252v-0.034l-5.524-2.459l-2.262-2.048l-4.482,4.094l-4.388-4.129l-2.557,2.155l-5.328,2.387
		v0.194c-0.85,0.431-1.561,1.14-1.951,2.092L9.854,61.137c-0.072,0.178-0.134,0.357-0.179,0.543l-2.239,8.847H2.102v3.984h50.484
		c0-0.003,0-0.006,0-0.01h71.313v-3.926H114.866z M15.872,70.526l1.247-4.936v3.574c0,0.459,0.021,0.911,0.06,1.361H15.872z
		 M30.68,70.526H28.1l-1.964-2.688l3.226-21.537h0.063l3.219,21.537L30.68,70.526z M41.598,70.526
		c0.039-0.45,0.063-0.901,0.063-1.361v-4.948l1.599,6.31H41.598z M90.099,68.476h-0.06l-3.145-4.307l3.145-21.031h0.06l3.147,21.031
		L90.099,68.476z M104.531,70.575h-1.11V59.736C104.952,62.637,105.533,66.158,104.531,70.575z"/>
</g>
</svg>
