<?xml version="1.0" encoding="utf-8"?>
<!-- Generator: Adobe Illustrator 16.0.0, SVG Export Plug-In . SVG Version: 6.00 Build 0)  -->
<!DOCTYPE svg PUBLIC "-//W3C//DTD SVG 1.1//EN" "http://www.w3.org/Graphics/SVG/1.1/DTD/svg11.dtd">
<svg version="1.1" id="Layer_3" xmlns="http://www.w3.org/2000/svg" xmlns:xlink="http://www.w3.org/1999/xlink" x="0px" y="0px"
	 width="126px" height="126px" viewBox="0 0 126 126" enable-background="new 0 0 126 126" xml:space="preserve">
<g>
	<circle cx="63.326" cy="13.584" r="13.081"/>
	<path d="M102.221,29.126l-31.55-0.024c-1.28-0.758-2.67-1.33-4.087-1.678l-3.258,3.28l-3.159-3.316
		c-0.011,0.003-0.022,0.004-0.033,0.006c-1.463,0.351-2.898,0.941-4.215,1.731L23.787,29.1c-0.001,0-0.003,0-0.003,0
		c-2.803,0-5.076,2.271-5.079,5.074c-0.002,2.805,2.27,5.08,5.074,5.083l26.159,0.02v28.392c0,1.367,0.265,2.641,0.73,3.813
		c-0.035,0.265-0.061,0.534-0.06,0.81l0.048,47.209c0.004,3.313,2.69,5.996,6.002,5.996c0.001,0,0.003,0,0.006,0
		c3.315-0.004,6-2.693,5.996-6.009l-0.02-19.307c0.88,0.469,1.851,0.707,2.821,0.707c1.578,0,3.155-0.618,4.334-1.849L90.57,77.36
		c1.664-1.736,2.131-4.297,1.188-6.508c-0.944-2.212-3.116-3.646-5.521-3.646h-9.522V39.262l25.499,0.021c0.001,0,0.003,0,0.003,0
		c2.804,0,5.077-2.271,5.079-5.074C107.298,31.403,105.025,29.128,102.221,29.126z M62.629,89.17l-0.011-9.99
		c0.236,0.011,0.471,0.03,0.708,0.03c0.293,0,0.584-0.021,0.874-0.038c0.215,0.024,0.432,0.038,0.652,0.038h7.321L62.629,89.17z"/>
</g>
</svg>
