<?xml version="1.0" encoding="utf-8"?>
<!-- Generator: Adobe Illustrator 16.0.0, SVG Export Plug-In . SVG Version: 6.00 Build 0)  -->
<!DOCTYPE svg PUBLIC "-//W3C//DTD SVG 1.1//EN" "http://www.w3.org/Graphics/SVG/1.1/DTD/svg11.dtd">
<svg version="1.1" id="Layer_1" xmlns="http://www.w3.org/2000/svg" xmlns:xlink="http://www.w3.org/1999/xlink" x="0px" y="0px"
	 width="126px" height="126px" viewBox="0 0 126 126" enable-background="new 0 0 126 126" xml:space="preserve">
<g>
	<circle cx="30.58" cy="49.341" r="9.704"/>
	<path d="M19.335,81.189c-0.068-0.647-0.088-1.268-0.064-1.862c-0.313-1.06-0.488-2.181-0.488-3.342
		c0-6.408,5.136-11.627,11.505-11.785h0.583c6.372,0.155,11.511,5.376,11.511,11.785c0,1.178-0.178,2.314-0.502,3.389
		c0.021,0.581,0.002,1.184-0.066,1.815h7.596c0.871-11.645-8.677-17.514-12.375-19.781c-0.162-0.102-0.335-0.172-0.504-0.245
		c-1.08-0.721-2.293-1.252-3.532-1.555l-2.417,2.433l-2.345-2.461c-0.007,0.002-0.015,0.002-0.023,0.005
		c-1.265,0.302-2.503,0.842-3.601,1.581c-0.168,0.071-0.34,0.142-0.497,0.241c-3.699,2.268-13.246,8.137-12.375,19.781H19.335z"/>
	<circle cx="68.359" cy="49.341" r="9.704"/>
	<path d="M57.115,81.189c-0.071-0.647-0.09-1.266-0.066-1.862c-0.314-1.06-0.489-2.181-0.489-3.342
		c0-6.408,5.138-11.627,11.508-11.785h0.583c6.372,0.155,11.51,5.376,11.51,11.785c0,1.178-0.18,2.314-0.502,3.389
		c0.021,0.581,0.002,1.184-0.066,1.815h7.594c0.873-11.645-8.674-17.514-12.372-19.781c-0.163-0.102-0.336-0.172-0.504-0.245
		c-1.081-0.721-2.296-1.252-3.534-1.555l-2.416,2.433l-2.344-2.461c-0.009,0.002-0.018,0.002-0.023,0.005
		c-1.265,0.302-2.501,0.842-3.601,1.581c-0.169,0.071-0.338,0.142-0.498,0.241c-3.698,2.268-13.246,8.137-12.372,19.781H57.115z"/>
	<circle cx="30.58" cy="75.742" r="9.704"/>
	<path d="M19.335,107.592c-0.288-2.661,0.252-4.843,1.312-6.684v6.684h9.867l-2.298-3.145l2.341-15.643h0.045l2.34,15.643
		l-2.295,3.145h9.865v-6.666c1.053,1.837,1.587,4.013,1.301,6.666h7.596c0.871-11.646-8.677-17.515-12.375-19.782
		c-0.162-0.101-0.335-0.172-0.504-0.245c-1.08-0.72-2.293-1.25-3.532-1.555l-2.417,2.433l-2.345-2.461
		c-0.007,0.002-0.015,0.002-0.023,0.004c-1.265,0.303-2.503,0.844-3.601,1.581c-0.168,0.073-0.34,0.142-0.497,0.242
		c-3.699,2.268-13.246,8.137-12.375,19.782H19.335z"/>
	<circle cx="68.359" cy="75.742" r="9.704"/>
	<path d="M57.115,107.592c-0.289-2.661,0.252-4.843,1.311-6.684v6.684h9.868l-2.298-3.145l2.34-15.643h0.045l2.341,15.643
		l-2.296,3.145h9.866v-6.666c1.053,1.837,1.589,4.013,1.3,6.666h7.594c0.873-11.646-8.674-17.515-12.372-19.782
		c-0.163-0.101-0.336-0.172-0.504-0.245c-1.081-0.72-2.296-1.25-3.534-1.555l-2.416,2.433l-2.344-2.461
		c-0.009,0.002-0.018,0.002-0.023,0.004c-1.265,0.303-2.501,0.844-3.601,1.581c-0.169,0.073-0.338,0.142-0.498,0.242
		c-3.698,2.268-13.246,8.137-12.372,19.782H57.115z"/>
	<circle cx="102.753" cy="26.311" r="9.704"/>
	<path d="M73.592,29.67c0.22,0.453,1.042,2.092,2.377,4.18l0.888,1.343c2.78,4.048,7.175,9.076,12.683,10.8
		c1.089,0.34,2.187,0.532,3.282,0.587v19.856c0,1.024,0.2,1.979,0.553,2.857c-0.023,0.188-0.056,0.373-0.056,0.568l0.002,36.077
		c0,2.459,1.995,4.453,4.453,4.453s4.452-1.994,4.452-4.453l-0.002-30.962c0.175,0.008,0.353,0.021,0.529,0.021
		c0.034,0,0.068-0.003,0.104-0.004l-0.002,30.945c0,2.459,1.994,4.453,4.452,4.453c2.46,0,4.455-1.994,4.455-4.453V70.546
		c0.234,0.222,0.491,0.429,0.788,0.592c0.572,0.311,1.189,0.458,1.795,0.458c1.337,0,2.631-0.711,3.314-1.967
		c10.63-19.539-3.869-28.431-8.633-31.354c-0.127-0.077-0.259-0.126-0.389-0.187c-1.066-0.699-2.256-1.212-3.469-1.509l-2.417,2.433
		l-2.345-2.461c-0.006,0.002-0.015,0.002-0.023,0.004c-1.162,0.279-2.302,0.759-3.336,1.409c-0.256,0.078-0.51,0.179-0.756,0.317
		c-1.501,0.845-2.93,1.009-4.495,0.522c-4.519-1.407-8.766-7.599-10.72-11.087l2.838,0.437l4.671,0.717l2.624-6.344L64.521,1.227
		L55.21,23.739l18.317,2.816C73.115,27.524,73.096,28.651,73.592,29.67z M112.687,51.717c1.438,2.722,1.76,6.168,0,10.774V51.717z
		 M102.731,39.373h0.045l2.341,15.643l-2.341,3.204h-0.045l-2.34-3.204L102.731,39.373z"/>
	<rect x="4.532" y="110.944" width="115.663" height="13.829"/>
</g>
</svg>
