<?xml version="1.0" encoding="iso-8859-1"?>
<!-- Generator: Adobe Illustrator 17.1.0, SVG Export Plug-In . SVG Version: 6.00 Build 0)  -->
<!DOCTYPE svg PUBLIC "-//W3C//DTD SVG 1.1//EN" "http://www.w3.org/Graphics/SVG/1.1/DTD/svg11.dtd">
<svg version="1.1" id="Layer_1" xmlns="http://www.w3.org/2000/svg" xmlns:xlink="http://www.w3.org/1999/xlink" x="0px" y="0px"
	 viewBox="0 0 128 128" style="enable-background:new 0 0 128 128;" xml:space="preserve">
<g>
	<circle cx="76.65" cy="20.592" r="10.158"/>
	<circle cx="51.425" cy="10.434" r="6.678"/>
	<path d="M87.527,111.873c1.675,0,3.326-0.775,4.385-2.235c1.754-2.419,1.215-5.802-1.204-7.556l-20.3-14.718l-0.917-5.431h18.04
		c2.654,0,4.851-1.913,5.312-4.434c0.223-0.949,0.285-2.129,0.081-3.6l-7.227-39.615c-0.229-1.252-1.367-2.094-2.543-1.879
		l-14.017,2.557c-0.132,0.018-0.26,0.043-0.391,0.071l-0.231,0.042c-0.004,0.001-0.007,0.003-0.011,0.003l-8.154,1.416l-7.137-8.658
		c3.491-0.314,4.481-1.583,4.771-2.336c0.097-0.252,0.137-0.692,0.103-0.96c-0.091-0.715-0.467-1.865-1.535-2.112
		c-0.263-0.061-0.701-0.014-0.969,0.021c-3.84,0.501-4.425,1.152-6.256-2.463c-0.215-0.425-0.602-1.728-1.783-2.626
		c-0.393-0.298-3.077-1.466-3.838-1.752c-1.018-0.383-2.959,0.01-3.372,2.204c-0.549,2.911-1.416,8.164-1.857,11.899
		c-0.882,7.469,4.887,8.701,4.887,13.03c0,0.861-0.075,3.514-0.053,5.409c0.024,2.13,1.028,3.549,3.474,3.549
		c2.203,0,3.212-1.216,3.268-3.549c0.053-2.219,0.009-5.41,0.039-6.552c0.003-0.119,0.003-0.182,0.032-0.207l3.246,4.076
		c1.018,1.495,2.701,2.365,4.471,2.365c0.231,0,0.465-0.03,0.698-0.06c0.077-0.01,0.153-0.006,0.229-0.02l8.664-1.504l4.176,19.649
		l-8.01-3.156c-1.815-0.717-3.875-0.399-5.391,0.831c-1.516,1.229-2.253,3.179-1.928,5.103l0.411,2.436H46.236
		c-2.345,0-4.423,1.51-5.146,3.741c-0.724,2.231,0.072,4.674,1.97,6.05l17.414,12.625l4.101,24.294
		c0.446,2.642,2.736,4.511,5.329,4.511c0.299,0,0.602-0.025,0.907-0.076c2.947-0.498,4.932-3.29,4.435-6.236l-2.267-13.427
		l11.376,8.248C85.315,111.538,86.426,111.873,87.527,111.873z"/>
</g>
</svg>
