<?xml version="1.0" encoding="utf-8"?>
<!-- Generator: Adobe Illustrator 16.0.0, SVG Export Plug-In . SVG Version: 6.00 Build 0)  -->
<!DOCTYPE svg PUBLIC "-//W3C//DTD SVG 1.1//EN" "http://www.w3.org/Graphics/SVG/1.1/DTD/svg11.dtd">
<svg version="1.1" id="Layer_3" xmlns="http://www.w3.org/2000/svg" xmlns:xlink="http://www.w3.org/1999/xlink" x="0px" y="0px"
	 width="126px" height="126px" viewBox="0 0 126 126" enable-background="new 0 0 126 126" xml:space="preserve">
<g>
	<path d="M98.279,108.947c-0.846-6.972-8.111-7.421-20.146-8.134V70.295c0-0.158-0.024-0.307-0.031-0.462l0.038-0.019
		c8.337-4.032,19.455-11.252,19.763-27.338c0.226-11.861-9.971-20.451-18.181-27.367c-2.38-2.005-6.747-5.686-7.498-7.135
		c-0.251-3.275-2.972-5.812-6.28-5.812c-1.08,0-2.128,0.278-3.068,0.809c-0.94-0.531-1.989-0.809-3.07-0.809
		c-3.31,0-6.029,2.537-6.278,5.812c-0.751,1.449-5.119,5.13-7.515,7.148c-8.193,6.902-18.39,15.492-18.164,27.353
		c0.309,16.201,9.261,21.799,18.493,26.182l1.155,0.418c-0.045,0.4-0.082,0.804-0.082,1.22v30.289
		c-11.764,0.926-18.865,1.565-19.693,8.363c-0.334,2.76,0.527,5.468,2.426,7.625c5.354,6.084,19.994,7.091,28.244,7.15
		c0.018,0,0.033,0,0.051,0c1.748,0,3.342-0.66,4.559-1.737c1.215,1.078,2.809,1.737,4.559,1.737c0.018,0,0.033,0,0.051,0
		c8.252-0.06,22.893-1.066,28.244-7.151C97.752,114.415,98.613,111.707,98.279,108.947z M66.512,57.249l-3.738,3.764l-3.625-3.805
		c-0.012,0.003-0.025,0.004-0.037,0.007c-1.414,0.338-2.805,0.875-4.112,1.574c-10.152-4.604-14.371-6.6-14.562-16.553
		c-0.112-5.857,7.539-12.303,13.688-17.483c3.353-2.824,6.541-5.509,8.75-8.265c2.209,2.756,5.398,5.442,8.762,8.274
		c6.143,5.177,13.788,11.62,13.676,17.474c-0.186,9.63-4.072,11.78-13.633,16.13l-0.728,0.331
		C70.952,58.697,67.982,57.61,66.512,57.249z"/>
	<circle cx="62.773" cy="41.372" r="15.006"/>
</g>
</svg>
