<?xml version="1.0" encoding="utf-8"?>
<!-- Generator: Adobe Illustrator 16.0.0, SVG Export Plug-In . SVG Version: 6.00 Build 0)  -->
<!DOCTYPE svg PUBLIC "-//W3C//DTD SVG 1.1//EN" "http://www.w3.org/Graphics/SVG/1.1/DTD/svg11.dtd">
<svg version="1.1" id="Layer_2" xmlns="http://www.w3.org/2000/svg" xmlns:xlink="http://www.w3.org/1999/xlink" x="0px" y="0px"
	 width="126px" height="126px" viewBox="0 0 126 126" enable-background="new 0 0 126 126" xml:space="preserve">
<g>
	<circle cx="74.883" cy="61.939" r="7.259"/>
	<path d="M75.096,70.568c-0.12-0.083-0.248-0.144-0.374-0.205c-0.449-0.407-0.939-0.767-1.455-1.062
		c-0.006-0.003-0.012-0.005-0.017-0.008l-2.201,1.272l-1.223-2.255c-0.833-0.038-1.688,0.057-2.509,0.273
		c-0.155-0.006-0.354-0.217-0.441-0.31c-1.701-1.848-3.003-8.032-1.842-17.241c0.174-1.383-0.687-2.656-1.977-3.047v-18.7
		c4.801-0.01,17.163-0.133,18.076-1.131c0.093-0.103,0.139-0.23,0.128-0.36c-0.017-0.187-0.172-0.329-0.358-0.331
		c-0.044,0.019-0.092,0.03-0.143,0.03c-0.003,0-0.005,0-0.007,0H44.367c-0.049,0-0.094-0.013-0.137-0.031h0
		c-0.142,0-0.271,0.083-0.33,0.211c-0.067,0.144-0.055,0.304,0.032,0.438c0.151,0.237,0.405,0.633,6.181,0.921
		c3.186,0.16,7.41,0.248,11.921,0.251v18.583c-1.314,0.094-2.419,1.103-2.59,2.458c-1.263,10.02-0.034,18.155,3.288,21.764
		c0.042,0.045,0.083,0.085,0.124,0.128c-0.075,0.181-0.141,0.37-0.198,0.564L58.148,88.16c-0.102,0.348-0.16,0.694-0.195,1.038
		c-0.157,0.38-0.248,0.795-0.253,1.231l-0.293,24.874c-0.022,1.839,1.452,3.348,3.291,3.37c0.014,0,0.027,0,0.041,0
		c1.821,0,3.308-1.466,3.329-3.292l0.222-18.794c0.164,0.031,0.328,0.059,0.493,0.08l-0.177,23.506
		c-0.013,1.84,1.466,3.342,3.306,3.355c0.009,0,0.017,0,0.026,0c1.828,0,3.316-1.475,3.33-3.305l0.195-26.012
		c0.413-0.541,0.739-1.165,0.946-1.872l2.169-7.4c-0.034,3.217-0.512,7.108-1.582,11.541c-0.365,1.513,0.566,3.035,2.079,3.401
		c0.222,0.054,0.444,0.079,0.664,0.079c1.272,0,2.426-0.867,2.737-2.157C81.658,84.617,80.363,74.181,75.096,70.568z M70.99,70.829
		l-0.171,1.245c-0.092,0.299-0.136,0.605-0.125,0.911l-1.316,9.567l-2.354,1.806l-0.033-0.009l-1.005-2.792l4.972-10.736
		L70.99,70.829z M59.773,28.375c0-0.119,0.097-0.215,0.215-0.215h5.143c0.119,0,0.215,0.096,0.215,0.215s-0.096,0.216-0.215,0.216
		h-5.143C59.87,28.59,59.773,28.494,59.773,28.375z"/>
	<path d="M47.219,23.135h30.683c0.793,0,1.438-0.646,1.438-1.438V3.909c0-0.793-0.645-1.438-1.438-1.438H47.219
		c-0.794,0-1.438,0.645-1.438,1.438v17.788C45.78,22.49,46.425,23.135,47.219,23.135z M47.219,3.909h30.683l0.001,17.788H47.219
		V3.909z"/>
	<path d="M44.229,27.104H80.9c0.001,0,0.002,0.001,0.003,0.001c0.127-0.056,0.216-0.182,0.216-0.33c0-0.103-0.043-0.196-0.112-0.261
		l-2.212-3.008c-0.067-0.092-0.175-0.146-0.29-0.146H46.714c-0.112,0-0.217,0.052-0.285,0.14l-2.348,3.056
		c-0.083,0.108-0.098,0.255-0.038,0.378C44.083,27.013,44.151,27.071,44.229,27.104z M46.892,24.078h31.433l1.718,2.337H45.097
		L46.892,24.078z"/>
	<path d="M68.179,14.565L68.179,14.565c0.001-0.006,0-0.012,0-0.019c0-0.008,0-0.016-0.001-0.022
		c-0.001-0.006-0.005-0.012-0.008-0.017c-0.003-0.006-0.005-0.014-0.009-0.02c-0.004-0.005-0.009-0.01-0.015-0.013
		c-0.005-0.005-0.009-0.01-0.015-0.014c-0.006-0.003-0.013-0.005-0.019-0.007c-0.006-0.003-0.012-0.006-0.02-0.008c0,0,0,0,0,0l0,0
		l-1.911-0.294c-0.007-0.001-0.013,0-0.02,0c-0.007,0-0.015,0-0.021,0.001c-0.007,0.002-0.014,0.006-0.021,0.009
		c-0.005,0.002-0.011,0.003-0.016,0.007c-0.007,0.005-0.012,0.012-0.017,0.018c-0.003,0.004-0.008,0.007-0.01,0.012
		c-0.004,0.006-0.006,0.014-0.009,0.021c-0.001,0.006-0.005,0.011-0.006,0.017c-0.128,0.771-0.492,1.471-1.053,2.023
		c-0.694,0.682-1.612,1.057-2.584,1.057c-2.034,0-3.688-1.655-3.688-3.688c0-2.034,1.654-3.688,3.688-3.688
		c0.427,0,0.847,0.073,1.247,0.217l0,0h0c0.011,0.004,0.023,0.005,0.035,0.005c0.001,0,0.002,0,0.002,0
		c0.004,0,0.007-0.001,0.01-0.001c0.009-0.001,0.018-0.003,0.027-0.007c0.003-0.001,0.007-0.003,0.01-0.005
		c0.008-0.004,0.015-0.01,0.021-0.016c0.004-0.002,0.006-0.005,0.009-0.008c0.008-0.009,0.015-0.02,0.019-0.032l0.001-0.001h0
		l0.645-1.822c0.003-0.008,0.002-0.015,0.003-0.022c0.001-0.006,0.003-0.013,0.003-0.02c0-0.008-0.003-0.015-0.006-0.022
		c-0.001-0.006-0.001-0.011-0.004-0.016c-0.003-0.008-0.01-0.015-0.016-0.021c-0.003-0.004-0.004-0.008-0.008-0.011
		c-0.006-0.006-0.014-0.01-0.022-0.014c-0.005-0.002-0.008-0.006-0.013-0.008c0,0,0,0,0,0c-0.63-0.225-1.291-0.339-1.962-0.339
		c-3.214,0-5.831,2.616-5.831,5.831c0,3.215,2.616,5.831,5.831,5.831c1.544,0,3-0.598,4.098-1.684
		C67.408,16.901,67.981,15.791,68.179,14.565L68.179,14.565z M66.447,17.553l-1.219-1.219c0.526-0.545,0.877-1.218,1.02-1.959
		l1.705,0.263C67.753,15.742,67.235,16.746,66.447,17.553z"/>
	<path d="M64.945,8.943c0.003,0.006,0.008,0.012,0.013,0.017c0.003,0.006,0.006,0.011,0.011,0.016
		c0.006,0.005,0.013,0.008,0.02,0.012c0.005,0.004,0.01,0.008,0.016,0.01c1.46,0.524,2.442,1.919,2.442,3.472
		c0,0.201-0.017,0.405-0.051,0.608l0,0v0c-0.001,0.008,0,0.015,0.001,0.021c0,0.007-0.001,0.014,0.001,0.021
		c0.001,0.006,0.005,0.012,0.009,0.018c0.002,0.006,0.004,0.013,0.008,0.019c0.004,0.005,0.01,0.01,0.016,0.014
		c0.005,0.005,0.009,0.01,0.014,0.013c0.006,0.004,0.014,0.006,0.021,0.008c0.006,0.002,0.012,0.005,0.018,0.006h0c0,0,0,0,0.001,0
		l1.909,0.295h0h0c0.005,0,0.01,0.001,0.016,0.001c0.012,0,0.024-0.002,0.036-0.007c0.005-0.001,0.008-0.004,0.013-0.007
		c0.006-0.002,0.013-0.005,0.019-0.011c0.003-0.002,0.006-0.008,0.01-0.012c0.004-0.006,0.009-0.01,0.013-0.016
		c0.003-0.004,0.003-0.01,0.005-0.015c0.002-0.006,0.006-0.013,0.007-0.021v0c0.05-0.312,0.076-0.626,0.076-0.936
		c0-2.458-1.555-4.664-3.869-5.491h0c-0.025-0.009-0.052-0.007-0.075,0.003c-0.001,0-0.003,0-0.005,0.001
		c-0.007,0.004-0.013,0.009-0.019,0.015c-0.005,0.003-0.01,0.005-0.014,0.01c-0.005,0.005-0.008,0.013-0.012,0.02
		c-0.003,0.004-0.008,0.01-0.01,0.016v0L64.94,8.863c-0.002,0.006-0.001,0.013-0.002,0.02c-0.001,0.007-0.003,0.014-0.003,0.021
		c0,0.006,0.003,0.012,0.005,0.019C64.941,8.929,64.942,8.937,64.945,8.943z"/>
	<polygon points="68.04,16.582 67.712,16.908 68.917,18.114 70.498,18.114 70.498,17.651 69.109,17.651 	"/>
	<polygon points="53.961,17.082 51.942,17.082 51.942,17.545 54.087,17.545 56.33,16.226 56.096,15.827 	"/>
	<polygon points="73.185,7.318 70.614,7.318 69.023,8.909 69.35,9.236 70.806,7.781 73.185,7.781 	"/>
	<rect x="75.804" y="12.043" width="1.797" height="0.24"/>
	<rect x="73.707" y="12.563" width="3.895" height="0.24"/>
	<rect x="74.853" y="13.134" width="2.749" height="0.24"/>
	<rect x="75.223" y="13.725" width="2.378" height="0.24"/>
	<rect x="72.448" y="14.245" width="5.153" height="0.24"/>
	<rect x="73.964" y="14.815" width="3.637" height="0.24"/>
	<path d="M74.786,16.109c-0.478,0-0.918,0.157-1.276,0.421l-0.578-0.578h-1.99v0.108h1.945l0.535,0.535
		c-0.485,0.396-0.794,0.998-0.794,1.67c0,1.19,0.967,2.157,2.158,2.157c1.189,0,2.157-0.967,2.157-2.157
		C76.942,17.077,75.975,16.109,74.786,16.109z M74.786,20.244c-1.091,0-1.978-0.888-1.978-1.978c0-0.623,0.291-1.179,0.743-1.542
		l0.483,0.483c-0.332,0.236-0.55,0.622-0.55,1.059c0,0.718,0.584,1.302,1.302,1.302c0.717,0,1.301-0.584,1.301-1.302
		c0-0.717-0.583-1.301-1.301-1.301c-0.241,0-0.464,0.07-0.657,0.184l-0.49-0.491c0.324-0.232,0.719-0.37,1.147-0.37
		c1.089,0,1.977,0.888,1.977,1.978C76.763,19.356,75.875,20.244,74.786,20.244z M74.786,17.074c0.657,0,1.192,0.536,1.192,1.192
		c0,0.658-0.535,1.193-1.192,1.193c-0.659,0-1.193-0.535-1.193-1.193C73.592,17.609,74.127,17.074,74.786,17.074z"/>
	<rect x="47.818" y="5.152" width="3.116" height="0.48"/>
	<rect x="51.293" y="5.152" width="3.116" height="0.48"/>
	<rect x="47.818" y="9.737" width="3.355" height="0.12"/>
	<rect x="47.818" y="9.048" width="5.393" height="0.119"/>
	<rect x="47.818" y="8.313" width="2.434" height="0.12"/>
	<rect x="47.818" y="7.624" width="3.912" height="0.12"/>
	<rect x="47.818" y="6.8" width="4.764" height="0.12"/>
	<rect x="47.818" y="6.111" width="3.912" height="0.12"/>
</g>
</svg>
