<?xml version="1.0" encoding="utf-8"?>
<!-- Generator: Adobe Illustrator 16.0.0, SVG Export Plug-In . SVG Version: 6.00 Build 0)  -->
<!DOCTYPE svg PUBLIC "-//W3C//DTD SVG 1.1//EN" "http://www.w3.org/Graphics/SVG/1.1/DTD/svg11.dtd">
<svg version="1.1" id="Layer_3" xmlns="http://www.w3.org/2000/svg" xmlns:xlink="http://www.w3.org/1999/xlink" x="0px" y="0px"
	 width="126px" height="126px" viewBox="0 0 126 126" enable-background="new 0 0 126 126" xml:space="preserve">
<g>
	<circle cx="63.882" cy="20.574" r="18.908"/>
	<path d="M110.595,86.269C102.726,83.314,97.623,74,92.688,64.993c-4.649-8.484-9.04-16.499-16.23-20.908
		c-0.315-0.194-0.647-0.331-0.977-0.472c-2.107-1.407-4.474-2.442-6.887-3.034l-4.711,4.741l-4.567-4.793
		c-0.015,0.003-0.031,0.005-0.046,0.009c-2.238,0.535-4.435,1.458-6.426,2.702c-0.731,0.176-1.453,0.433-2.128,0.848
		c-7.08,4.34-11.523,12.555-16.228,21.251c-5.192,9.599-10.561,19.523-18.57,21.875c-3.89,1.142-6.118,5.221-4.976,9.111
		c0.938,3.2,3.866,5.275,7.04,5.275c0.684,0,1.38-0.096,2.07-0.299c0.645-0.189,1.261-0.418,1.878-0.646
		c-1.201,1.294-1.953,2.938-2.21,5.064c-0.421,3.478,0.663,6.89,3.055,9.608c6.744,7.666,25.191,8.935,35.587,9.01
		c0.021,0,0.042,0,0.063,0c2.205,0,4.213-0.831,5.745-2.188c1.532,1.357,3.541,2.188,5.745,2.188c0.021,0,0.042,0,0.063,0
		c10.396-0.075,28.843-1.344,35.587-9.01c2.392-2.718,3.476-6.13,3.055-9.607c-0.295-2.437-1.234-4.224-2.729-5.579
		c0.705,0.214,1.417,0.345,2.123,0.345c2.971,0,5.768-1.817,6.874-4.763C116.313,91.926,114.391,87.694,110.595,86.269z
		 M44.53,77.551V95.18c-6.544,0.515-11.94,0.966-16.017,2.039C35.478,92.415,40.343,84.997,44.53,77.551z M83.236,95.468V78.175
		c4.246,7.319,9.297,14.535,16.708,19.115C95.734,96.223,90.109,95.875,83.236,95.468z"/>
</g>
</svg>
