<?xml version="1.0" encoding="utf-8"?>
<!-- Generator: Adobe Illustrator 16.0.0, SVG Export Plug-In . SVG Version: 6.00 Build 0)  -->
<!DOCTYPE svg PUBLIC "-//W3C//DTD SVG 1.1//EN" "http://www.w3.org/Graphics/SVG/1.1/DTD/svg11.dtd">
<svg version="1.1" id="Layer_2" xmlns="http://www.w3.org/2000/svg" xmlns:xlink="http://www.w3.org/1999/xlink" x="0px" y="0px"
	 width="126px" height="126px" viewBox="0 0 126 126" enable-background="new 0 0 126 126" xml:space="preserve">
<g>
	<path d="M93.453,62.293h-4.708c-1.3-7.32-6.042-28.37-18.295-33.753c-0.023-0.01-0.047-0.017-0.069-0.026
		c-1.344-0.881-2.852-1.54-4.39-1.917l-3.01,3.03l-2.917-3.063c-0.01,0.002-0.021,0.002-0.031,0.005
		c-1.579,0.377-3.125,1.056-4.496,1.979c-12.241,5.393-16.982,26.429-18.281,33.745h-4.708c-3.533,0-6.409,2.876-6.409,6.411v49.15
		c0,3.535,2.876,6.411,6.409,6.411h60.905c3.534,0,6.409-2.876,6.409-6.411v-49.15C99.861,65.17,96.987,62.293,93.453,62.293z
		 M75.345,49.022c1.735,4.331,3.032,9.12,3.853,13.271h-3.853V49.022z M62.953,30.075h0.056l2.913,19.476l-2.913,3.987h-0.056
		l-2.914-3.987L62.953,30.075z M50.615,49.093v13.201h-3.818C47.609,58.166,48.896,53.404,50.615,49.093z M95.054,117.855
		c0,0.884-0.72,1.603-1.602,1.603H32.547c-0.882,0-1.601-0.719-1.601-1.603v-49.15c0-0.884,0.719-1.603,1.601-1.603h60.905
		c0.882,0,1.602,0.719,1.602,1.603V117.855z"/>
	<circle cx="62.98" cy="13.815" r="12.081"/>
	<path d="M49.454,93.116l-7.605,7.914v13.353c0,0.376,0.305,0.682,0.681,0.682h9.234c0.375,0,0.68-0.306,0.68-0.682V93.899
		l-2.129-0.783H49.454z"/>
	<path d="M68.264,99.323H59.03c-0.376,0-0.681,0.305-0.681,0.681v14.379c0,0.376,0.305,0.682,0.681,0.682h9.234
		c0.376,0,0.681-0.306,0.681-0.682v-14.379C68.944,99.628,68.64,99.323,68.264,99.323z"/>
	<path d="M83.276,85.25c-0.581,0-1.145-0.205-1.59-0.577l-1.678-1.402l-6.068,6.621v24.491c0,0.376,0.305,0.682,0.681,0.682h9.234
		c0.376,0,0.681-0.306,0.681-0.682V84.899c-0.038,0.022-0.072,0.048-0.111,0.069C84.071,85.152,83.674,85.25,83.276,85.25z"/>
	<path d="M64.477,93.86c0.52,0.19,1.101,0.049,1.475-0.358l14.005-15.278l3.276,2.74c0.161,0.133,0.385,0.158,0.57,0.061
		c0.185-0.097,0.293-0.295,0.275-0.503l-0.711-7.942c-0.025-0.284-0.276-0.493-0.56-0.468l-7.943,0.71
		c-0.207,0.018-0.383,0.16-0.446,0.359c-0.021,0.065-0.027,0.133-0.021,0.201c0.012,0.133,0.076,0.26,0.183,0.348l3.283,2.745
		L64.561,90.988L49.373,85.4c-0.509-0.187-1.078-0.055-1.453,0.334l-9.31,9.688c-0.521,0.542-0.504,1.405,0.039,1.926
		c0.263,0.255,0.604,0.379,0.944,0.379c0.358,0,0.715-0.14,0.983-0.418l8.691-9.046L64.477,93.86z"/>
</g>
</svg>
