<?xml version="1.0" encoding="utf-8"?>
<!-- Generator: Adobe Illustrator 16.0.0, SVG Export Plug-In . SVG Version: 6.00 Build 0)  -->
<!DOCTYPE svg PUBLIC "-//W3C//DTD SVG 1.1//EN" "http://www.w3.org/Graphics/SVG/1.1/DTD/svg11.dtd">
<svg version="1.1" id="Layer_3" xmlns="http://www.w3.org/2000/svg" xmlns:xlink="http://www.w3.org/1999/xlink" x="0px" y="0px"
	 width="126px" height="126px" viewBox="0 0 126 126" enable-background="new 0 0 126 126" xml:space="preserve">
<g>
	<path d="M117.433,11.174l-53.661-0.117c-0.006,0-0.011,0-0.018,0c-0.359,0-0.711,0.033-1.057,0.082
		c-0.146-0.008-0.289-0.023-0.436-0.023L8.601,10.998c-0.006,0-0.011,0-0.017,0c-4.217,0-7.641,3.416-7.65,7.633
		c-0.009,4.227,3.409,7.658,7.634,7.668l37.257,0.082l0.001,39.199c-4.373,0.004-9.198,0.008-12.354,0.008
		c-8.952,0-11.493,11.377-12.904,23.674c-1.054,9.18-1.212,18.193-1.218,18.572c-0.059,3.574,2.792,6.52,6.366,6.578
		c0.036,0.002,0.072,0.002,0.108,0.002c3.525,0,6.412-2.83,6.47-6.369c0.201-12.25,1.765-25.049,3.503-29.51
		c5.544-0.002,13.646-0.012,17.685-0.016c1.644,0.979,3.433,1.719,5.256,2.166l4.154-4.182l4.027,4.227
		c0.014-0.002,0.026-0.002,0.04-0.006c1.865-0.447,3.694-1.201,5.373-2.205c3.546,0.004,12.626,0.014,18.669,0.016
		c1.735,4.459,3.299,17.256,3.504,29.512c0.059,3.537,2.945,6.367,6.47,6.367c0.036,0,0.073-0.002,0.109-0.002
		c3.575-0.061,6.424-3.004,6.366-6.578c-0.006-0.379-0.165-9.393-1.218-18.572c-1.412-12.297-3.953-23.674-12.904-23.674
		c-3.403,0-8.746-0.004-13.37-0.008V26.393l37.442,0.082c0.006,0,0.011,0,0.017,0c4.217,0,7.641-3.414,7.65-7.633
		C125.076,14.617,121.658,11.184,117.433,11.174z"/>
	<path d="M62.892,81.652c-9.209,0-16.677,7.467-16.677,16.676c0.001,9.207,7.468,16.672,16.677,16.674
		c9.208,0,16.673-7.467,16.672-16.674C79.564,89.119,72.1,81.652,62.892,81.652z"/>
</g>
</svg>
