<?xml version="1.0" encoding="utf-8"?>
<!-- Generator: Adobe Illustrator 16.0.0, SVG Export Plug-In . SVG Version: 6.00 Build 0)  -->
<!DOCTYPE svg PUBLIC "-//W3C//DTD SVG 1.1//EN" "http://www.w3.org/Graphics/SVG/1.1/DTD/svg11.dtd">
<svg version="1.1" id="Layer_3" xmlns="http://www.w3.org/2000/svg" xmlns:xlink="http://www.w3.org/1999/xlink" x="0px" y="0px"
	 width="126px" height="126px" viewBox="0 0 126 126" enable-background="new 0 0 126 126" xml:space="preserve">
<g>
	<path d="M94.946,20.587c-0.737-0.186-1.478-0.172-2.165,0.006l10.305-18.58h-4.745L85.386,25.371h3.828
		c-2.429,9.212-5.593,17.907-7.179,19.65c-2.199,1.267-9.038,3.018-14.219,4.102c-0.857-0.454-1.762-0.812-2.683-1.063
		c4.703-1.358,8.146-5.687,8.146-10.828c0-6.226-5.049-11.272-11.277-11.272c-6.227,0-11.275,5.047-11.275,11.272
		c0,5.134,3.432,9.458,8.124,10.823c-0.96,0.263-1.904,0.64-2.792,1.123c-5.08-1.056-12.147-2.852-14.429-4.127
		c-1.465-1.893-3.803-10.887-5.115-19.68h4.42l1.183-4.378h7.588l1.151,4.378h5.657h1.245h5.896l4.506-7.301l4.553,7.301h7.301
		l-7.956-11.455l7.397-11.903h-7.206l-4.058,7.222l-4.218-7.222h-6.998l7.285,11.408l-6.923,10.676L50.042,1.916h-8.42l-6.63,20.407
		c-0.928-0.805-2.186-1.219-3.499-1.029c-1.088,0.159-2.021,0.71-2.685,1.483V7.174h5.687V2.013H16.793v5.161h5.704v18.197h5.258
		c-0.018,0.29-0.005,0.588,0.039,0.887c1.493,10.261,4.261,23.112,8.96,26.076c2.887,1.821,9.087,3.505,13.752,4.591
		c-0.027,0.276-0.044,0.559-0.044,0.847V82.66c0,1.123,0.201,2.175,0.566,3.145l-14.65,9.963c-1.773,1.208-2.619,3.381-2.126,5.469
		l4.511,19.101c0.563,2.38,2.686,3.986,5.031,3.986c0.394-0.002,0.793-0.047,1.193-0.141c2.78-0.656,4.503-3.443,3.847-6.225
		l-3.693-15.636l14.579-9.914c0.748,0.132,1.513,0.201,2.284,0.201c0.209,0,0.417-0.016,0.624-0.027
		c0.508,5.753,1.268,14.238,1.518,16.52c0.229,2.081,0.764,6.954,19.821,12.121c0.454,0.122,0.909,0.182,1.357,0.182
		c2.278,0,4.365-1.516,4.99-3.821c0.747-2.757-0.882-5.598-3.64-6.346c-4.94-1.342-10.354-3.396-12.384-4.656
		c-0.463-4.74-1.525-16.833-1.78-19.748c0.657-1.24,1.036-2.64,1.036-4.173V57.771c0-0.319-0.018-0.63-0.049-0.939
		c4.615-1.087,10.557-2.728,13.364-4.498c4.513-2.846,8.614-15.945,11.261-26.432C98.71,23.558,97.29,21.179,94.946,20.587z
		 M45.306,8.452c0.281-1.247,0.471-2.143,0.566-2.686c0.106,0.588,0.328,1.557,0.663,2.909c0.336,1.354,0.621,2.455,0.855,3.308
		l1.006,3.833h-4.969C44.397,12.151,45.022,9.698,45.306,8.452z M62.001,48.511c0.888,0,1.75-0.114,2.579-0.31l-2.578,2.596
		l-2.438-2.559C60.35,48.412,61.164,48.511,62.001,48.511z"/>
	<path d="M107.56,12.94c-1.097-1.309-2.578-1.964-4.441-1.964c-1.885,0-3.35,0.63-4.394,1.892c-1.044,1.265-1.566,3.066-1.566,5.409
		c0,2.246,0.536,4.034,1.606,5.359c1.07,1.326,2.521,1.989,4.353,1.989c1.938,0,3.438-0.642,4.497-1.925
		c1.06-1.284,1.591-3.091,1.591-5.424C109.207,16.031,108.658,14.251,107.56,12.94z M104.132,20.873
		c-0.175,0.622-0.492,0.936-0.95,0.936c-0.405,0-0.708-0.272-0.91-0.815c-0.203-0.543-0.304-1.427-0.304-2.652
		c0-1.202,0.099-2.082,0.295-2.635c0.198-0.555,0.504-0.833,0.919-0.833c0.458,0,0.775,0.313,0.95,0.936
		c0.176,0.622,0.264,1.467,0.264,2.532S104.308,20.251,104.132,20.873z"/>
	<path d="M80.999,14.354c1.071,1.326,2.522,1.989,4.354,1.989c1.949,0,3.451-0.642,4.504-1.925c1.056-1.283,1.583-3.097,1.583-5.439
		c0-2.248-0.549-4.026-1.646-5.337c-1.098-1.311-2.577-1.966-4.441-1.966c-1.885,0-3.35,0.632-4.394,1.895
		c-1.043,1.262-1.565,3.063-1.565,5.408C79.394,11.237,79.929,13.029,80.999,14.354z M84.499,6.407
		c0.196-0.556,0.503-0.832,0.918-0.832c0.405,0,0.706,0.272,0.903,0.816c0.197,0.541,0.295,1.426,0.295,2.651
		c0,1.247-0.099,2.136-0.295,2.668c-0.197,0.533-0.498,0.8-0.903,0.8c-0.405,0-0.708-0.272-0.91-0.815
		c-0.203-0.543-0.305-1.427-0.305-2.652C84.202,7.839,84.3,6.962,84.499,6.407z"/>
</g>
</svg>
