<?xml version="1.0" encoding="utf-8"?>
<!-- Generator: Adobe Illustrator 17.0.0, SVG Export Plug-In . SVG Version: 6.00 Build 0)  -->
<!DOCTYPE svg PUBLIC "-//W3C//DTD SVG 1.1//EN" "http://www.w3.org/Graphics/SVG/1.1/DTD/svg11.dtd">
<svg version="1.1" id="Capa_1" xmlns="http://www.w3.org/2000/svg" xmlns:xlink="http://www.w3.org/1999/xlink" x="0px" y="0px"
	 width="64px" height="64px" viewBox="0 0 64 64" enable-background="new 0 0 64 64" xml:space="preserve">
<path fill="#0E0F0F" d="M62.323,39.884c-1.335,1.626-3.676,0.796-5.387-0.356l-0.081-0.056l-3.406-2.311l-3.472-2.294
	c-2.333-1.498-4.669-2.98-7.054-4.338c-2.38-1.361-7.232-3.326-7.232-3.326s-4.899-1.221-7.228-1.702
	c-1.157-0.239-2.276-0.359-3.213-0.314c-0.945,0.042-1.644,0.253-2.056,0.517c-0.214,0.135-0.386,0.283-0.555,0.491
	c-0.263,0.325-0.487,0.677-0.653,1.015c-0.334,0.684-0.479,1.373-0.451,2.151c0.029,0.775,0.253,1.638,0.656,2.499
	c0.402,0.861,0.985,1.708,1.672,2.431c0.676,0.72,1.489,1.323,2.154,1.628c0.241,0.113,0.456,0.177,0.578,0.204
	c1.825-0.953,4.112-0.381,5.259,1.381c1.182,1.817,0.716,4.228-1.025,5.484c-1.934,2.673-6.91,2.238-9.924,2.022
	c-5.844-0.417-11.669-1.422-17.536-1.472c-3.479-0.028-3.481-5.424,0-5.396c4.675,0.04,9.324,0.722,13.971,1.169
	c-1.02-1.159-1.9-2.437-2.599-3.862c-0.834-1.706-1.411-3.644-1.504-5.727c-0.106-2.072,0.334-4.265,1.256-6.145
	c0.458-0.944,1.007-1.801,1.636-2.591c0.721-0.908,1.626-1.722,2.621-2.348c0.993-0.633,2.057-1.063,3.089-1.344
	c1.035-0.284,2.036-0.413,2.994-0.465c1.916-0.094,3.654,0.128,5.291,0.45c3.268,0.668,8.969,3.361,8.969,3.361
	s5.438,3.366,8.018,4.824c2.575,1.465,5.089,2.992,7.524,4.632c1.222,0.814,2.426,1.649,3.608,2.519
	c1.193,0.869,2.336,1.742,3.521,2.717C63.491,36.752,63.742,38.156,62.323,39.884z M38.55,33.069c-3.138,0-5.682,2.544-5.682,5.682
	c0,3.138,2.544,5.682,5.682,5.682c3.138,0,5.682-2.544,5.682-5.682C44.232,35.613,41.688,33.069,38.55,33.069z"/>
</svg>
