<?xml version="1.0" encoding="utf-8"?>
<!-- Generator: Adobe Illustrator 16.0.0, SVG Export Plug-In . SVG Version: 6.00 Build 0)  -->
<!DOCTYPE svg PUBLIC "-//W3C//DTD SVG 1.1//EN" "http://www.w3.org/Graphics/SVG/1.1/DTD/svg11.dtd">
<svg version="1.1" id="Layer_1" xmlns="http://www.w3.org/2000/svg" xmlns:xlink="http://www.w3.org/1999/xlink" x="0px" y="0px"
	 width="126px" height="126px" viewBox="0 0 126 126" enable-background="new 0 0 126 126" xml:space="preserve">
<g>
	<path d="M63.968,15.387c0.758,6.359,6.161,11.294,12.723,11.294c7.083,0,12.827-5.743,12.827-12.826
		c0-7.083-5.744-12.824-12.827-12.824c-6.652,0-12.121,5.068-12.759,11.552c0.056,0.522,0.091,1.053,0.091,1.591
		C64.022,14.583,64.001,14.986,63.968,15.387z"/>
	<path d="M91.739,34.363c-0.272,1.096-0.817,2.202-1.714,3.252c-2.938,3.454-11.688,7.025-21.244,7.025
		c-1.483,0-2.977-0.092-4.458-0.272V67.2c0,0.898-0.108,1.783-0.308,2.65c0.08,0.26,0.167,0.517,0.267,0.768
		c-0.037,0.26-0.061,0.521-0.061,0.79l0.004,47.678c0,3.25,2.635,5.884,5.885,5.883c3.251,0,5.884-2.635,5.884-5.884l-0.002-40.917
		c0.233,0.011,0.465,0.029,0.701,0.029c0.045,0,0.091-0.004,0.138-0.005l-0.002,40.894c0,3.25,2.633,5.884,5.885,5.884
		c3.249,0,5.884-2.634,5.884-5.884V72.227c0.361,0.392,0.788,0.734,1.283,1.003c0.755,0.411,1.57,0.607,2.373,0.607
		c1.766,0,3.477-0.941,4.379-2.601C107.118,51.959,99.099,40.527,91.739,34.363z M89.818,62.416V47.138
		C91.986,50.917,92.516,55.771,89.818,62.416z"/>
	<path d="M73.595,27.389c-0.011,0.002-0.021,0.003-0.032,0.005c-2.432,0.581-4.792,1.83-6.611,3.588
		c0.587,0.043,1.18,0.072,1.787,0.072c4.474,0,8.484-1.192,10.438-2.122c0.294-0.513,0.662-0.98,1.079-1.401
		c-0.123-0.033-0.246-0.077-0.37-0.108c0,0-1.886-0.278-3.176-0.288C75.423,27.126,73.595,27.389,73.595,27.389z"/>
	<path d="M89.215,36.123c2.133-2.505,1.72-5.403,0.365-7.164c-1.679-2.18-4.805-2.587-6.983-0.91
		c-0.677,0.521-1.184,1.182-1.508,1.91c-3.228,1.785-13.694,4.734-22.218,0.13c-0.166-0.089-0.333-0.166-0.504-0.235
		c-1.577-1.167-3.409-2.012-5.283-2.459c-0.011-0.002-0.021-0.003-0.032-0.005c0,0-1.618-0.26-3.074-0.255
		c-1.458,0.004-3.217,0.29-3.217,0.29c-1.603,0.394-3.176,1.072-4.582,1.995c-0.173,0.08-0.348,0.146-0.513,0.248
		c-6.298,3.861-25.459,15.614-11.411,41.435c0.901,1.659,2.613,2.601,4.378,2.601c0.803,0,1.621-0.196,2.376-0.607
		c0.387-0.211,0.73-0.471,1.038-0.76l-0.026,29.68l-11.021,7.209c-2.72,1.779-3.481,5.426-1.703,8.145
		c1.13,1.727,3.012,2.664,4.931,2.664c1.105,0,2.222-0.31,3.215-0.96l4.566-2.986l-0.002,2.994c-0.002,3.25,2.628,5.886,5.878,5.89
		c0.002,0,0.004,0,0.006,0c3.248,0,5.883-2.631,5.885-5.879l0.009-10.708l9.951-6.51c1.661-1.086,2.663-2.935,2.663-4.918
		l0.026-25.541c0-0.269-0.024-0.533-0.059-0.794c0.456-1.148,0.716-2.398,0.716-3.738V41.943c2.109,0.385,4.217,0.568,6.27,0.568
		C78.57,42.511,86.712,39.064,89.215,36.123z M36.829,61.667c-2.328-6.087-1.901-10.641,0-14.236V61.667z M50.633,93.763
		l-0.837,0.549l0.016-16.121c0.047,0,0.095,0.005,0.143,0.005c0.233,0,0.463-0.018,0.694-0.029L50.633,93.763z"/>
	<circle cx="49.956" cy="13.856" r="12.825"/>
</g>
</svg>
