<?xml version="1.0" encoding="utf-8"?>
<!-- Generator: Adobe Illustrator 16.0.0, SVG Export Plug-In . SVG Version: 6.00 Build 0)  -->
<!DOCTYPE svg PUBLIC "-//W3C//DTD SVG 1.1//EN" "http://www.w3.org/Graphics/SVG/1.1/DTD/svg11.dtd">
<svg version="1.1" id="Layer_3" xmlns="http://www.w3.org/2000/svg" xmlns:xlink="http://www.w3.org/1999/xlink" x="0px" y="0px"
	 width="126px" height="126px" viewBox="0 0 126 126" enable-background="new 0 0 126 126" xml:space="preserve">
<g>
	<path d="M117.757,99.03l-37.479-0.082V61.276l32.696,0.025c0.002,0,0.004,0,0.004,0c3.595,0,6.512-2.911,6.514-6.506
		c0.002-3.597-2.911-6.514-6.508-6.517l-40.456-0.032c-1.64-0.971-3.424-1.705-5.239-2.15l-4.179,4.206l-4.051-4.252
		c-0.015,0.003-0.029,0.003-0.043,0.007c-1.876,0.449-3.717,1.208-5.406,2.22l-41.2-0.032c-0.001,0-0.004,0-0.004,0
		c-3.595,0-6.511,2.911-6.513,6.507c-0.003,3.597,2.91,6.514,6.507,6.517l33.542,0.026v37.641L8.279,98.854
		c-0.007,0-0.012,0-0.019,0c-4.242,0-7.686,3.435-7.695,7.679c-0.01,4.251,3.428,7.704,7.678,7.713l53.979,0.118
		c0.008,0,0.013,0,0.018,0c0.361,0,0.717-0.034,1.063-0.082c0.146,0.009,0.29,0.022,0.438,0.022l53.979,0.118
		c0.007,0,0.012,0,0.018,0c4.243,0,7.687-3.435,7.696-7.679C125.444,102.493,122.006,99.04,117.757,99.03z"/>
	<circle cx="63.11" cy="28.351" r="16.772"/>
</g>
</svg>
