<?xml version="1.0" encoding="utf-8"?>
<!-- Generator: Adobe Illustrator 17.0.0, SVG Export Plug-In . SVG Version: 6.00 Build 0)  -->
<!DOCTYPE svg PUBLIC "-//W3C//DTD SVG 1.1//EN" "http://www.w3.org/Graphics/SVG/1.1/DTD/svg11.dtd">
<svg version="1.1" id="Capa_1" xmlns="http://www.w3.org/2000/svg" xmlns:xlink="http://www.w3.org/1999/xlink" x="0px" y="0px"
	 width="64px" height="64px" viewBox="0 0 64 64" enable-background="new 0 0 64 64" xml:space="preserve">
<path fill="#010101" d="M57.638,38.697c-3.69-3.44-7.287-7.19-10.122-11.378c-1.653-2.443,2.297-4.877,3.936-2.457
	c2.609,3.855,5.999,7.426,9.396,10.593C63.008,37.467,59.786,40.698,57.638,38.697z M46.609,24.711
	c0.545-1.027,1.732-1.718,2.953-1.718c1.044,0,1.953,0.493,2.559,1.387c1.049,1.551,2.217,3.033,3.434,4.441V23.91
	c0-2.893-2.346-5.238-5.238-5.238c-2.894,0-5.238,2.345-5.238,5.238v6.943c-1.574,1.468-3.338,2.74-5.183,3.85
	c-2.759,1.656-0.237,5.975,2.53,4.312c0.812-0.487,1.609-1.008,2.39-1.556V55.32c0,1.506,1.099,2.727,2.452,2.727
	s2.452-1.221,2.452-2.727V41.034c0.196,0.022,0.394,0.036,0.597,0.036c0.016,0,0.029-0.002,0.046-0.002v14.341
	c0,1.506,1.098,2.727,2.45,2.727c1.355,0,2.453-1.221,2.453-2.727V37.536c0.002-0.01,0.007-0.018,0.011-0.027
	c-3.552-3.528-6.276-6.74-8.441-9.938C46.215,26.653,46.133,25.61,46.609,24.711z M50.244,17.365c2.846,0,5.153-2.307,5.153-5.153
	c0-2.846-2.307-5.153-5.153-5.153c-2.846,0-5.153,2.307-5.153,5.153C45.091,15.058,47.398,17.365,50.244,17.365z M19.566,34.745
	H3.834c-0.771,0-1.396,0.626-1.396,1.396c0,0.771,0.625,1.396,1.396,1.396h1.23v18.868h13.272V37.537h1.23
	c0.771,0,1.396-0.624,1.396-1.396C20.962,35.371,20.337,34.745,19.566,34.745z M10.537,33.203H9.332v1.209h4.99v-1.209h-1.376
	v-0.604h3.572v-7.468H6.882v7.468h3.655V33.203z M33.017,38.311c-0.793,0.213-1.469,1.166-1.153,1.998
	c0.632,1.663,0.894,3.283-0.319,4.363c-0.317,0.282-1.084,0.566-1.729,0.644c-1.003,0.121-2.005,0.006-2.982-0.222
	c-2.048-0.477-2.912,2.67-0.862,3.146c0.356,0.083,0.714,0.153,1.074,0.21c0.015,1.301,0.17,2.601,0.061,3.898
	c-0.004,0.046-0.004,0.092-0.003,0.137C26.3,53.324,25.305,54.161,24.501,55c-1.027,1.072,0.6,2.702,1.628,1.629
	c0.592-0.619,1.185-1.237,1.778-1.855c0.215,0.79,0.431,1.58,0.646,2.371c0.391,1.431,2.612,0.822,2.221-0.613
	c-0.166-0.608-0.332-1.217-0.498-1.826c0.592,0.219,1.181,0.449,1.769,0.685c0.583,0.233,1.264-0.25,1.417-0.805
	c0.18-0.656-0.223-1.183-0.805-1.416c-0.82-0.327-1.639-0.648-2.471-0.937c0.098-1.244,0.116-2.488,0.118-3.736
	c1.272-0.191,2.487-0.662,3.558-1.529c2.232-1.808,2.072-5.081,1.152-7.503C34.699,38.634,33.941,38.063,33.017,38.311z"/>
</svg>
