<?xml version="1.0" encoding="utf-8"?>
<!-- Generator: Adobe Illustrator 16.0.0, SVG Export Plug-In . SVG Version: 6.00 Build 0)  -->
<!DOCTYPE svg PUBLIC "-//W3C//DTD SVG 1.1//EN" "http://www.w3.org/Graphics/SVG/1.1/DTD/svg11.dtd">
<svg version="1.1" id="Layer_2" xmlns="http://www.w3.org/2000/svg" xmlns:xlink="http://www.w3.org/1999/xlink" x="0px" y="0px"
	 width="126px" height="126px" viewBox="0 0 126 126" enable-background="new 0 0 126 126" xml:space="preserve">
<g>
	<circle cx="33.433" cy="33.245" r="11.036"/>
	<path d="M94.956,79.638h-5.269V64.287H76.196v15.351h-2.089V64.287H60.616v23.675h13.491V84.25h2.089v3.712h13.491V84.25h2.319
		l-1.509,6.085H65.697c-0.189,0-0.371,0.029-0.547,0.072h-1.08v0.6c-0.42,0.417-0.68,0.996-0.68,1.634s0.26,1.216,0.68,1.635v5.158
		h15.84v-4.486h9.443l-1.507,6.076H59.651L54.9,74.319c0.326-0.507,0.561-1.082,0.647-1.718c0.319-2.345-1.32-4.505-3.665-4.826
		c-6.715-0.918-10.282-2.123-11.931-4.028c-1.629-1.884-2.225-5.386-3.012-10.929c-0.027-0.201-0.073-0.393-0.128-0.582
		c-0.365-3.39-3.041-6.178-5.836-7.534c0,0-1.063-0.584-2.279-0.816c-1.16-0.222-2.507-0.229-2.507-0.229l-0.034-0.002
		c-3.819,0.111-8.318,2.241-9.27,6.679l-5.104,23.82c-0.682,3.18,0.74,6.028,3.042,7.991l-0.022,36.76
		c-0.002,3.226,2.612,5.844,5.839,5.845h0.004c3.226,0,5.841-2.613,5.843-5.839l0.021-34.781c2.415-0.961,4.456-2.826,5.078-5.732
		l1.933-9.018c3.055,3.567,8.091,5.622,17.038,6.862l4.888,27.47l1.899,11.558c0.087,0.536,0.359,1,0.74,1.341
		c-1.544,0.708-2.619,2.264-2.619,4.074c0,2.476,2.006,4.482,4.482,4.482c2.475,0,4.482-2.006,4.482-4.482
		c0-1.406-0.649-2.661-1.662-3.483H84c-1.013,0.822-1.662,2.077-1.662,3.483c0,2.476,2.007,4.482,4.483,4.482
		c2.474,0,4.481-2.006,4.481-4.482c0-1.718-0.969-3.209-2.388-3.961c0.553-0.421,0.914-1.079,0.914-1.828
		c0-1.274-1.032-2.307-2.307-2.307H61.578l-1.143-6.952h29.217c1.059,0,1.982-0.723,2.24-1.751l5.303-21.388
		c0.168-0.688,0.014-1.417-0.423-1.976S95.665,79.638,94.956,79.638z"/>
	<rect x="60.152" y="47.932" width="23.676" height="13.492"/>
	<rect x="86.147" y="37.748" width="13.491" height="23.675"/>
	<path d="M62.174,45.07h20.638c0.861,0,1.559-0.698,1.559-1.558V25.075c0-0.861-0.697-1.559-1.559-1.559H62.174
		c-0.86,0-1.558,0.698-1.558,1.559v18.437C60.616,44.372,61.313,45.07,62.174,45.07z"/>
	<path d="M113.396,17.466L93.625,9.745c-0.801-0.313-1.705,0.083-2.018,0.884l-6.608,16.92c-0.313,0.802,0.083,1.706,0.884,2.019
		l19.771,7.722c0.801,0.313,1.705-0.083,2.019-0.884l6.608-16.921C114.595,18.683,114.198,17.779,113.396,17.466z"/>
	<path d="M66.534,21.26c0.186,0.589,1.001,0.858,1.822,0.601l20.252-6.354c0.82-0.257,1.336-0.944,1.151-1.533L85.856,1.531
		c-0.185-0.589-1.001-0.858-1.822-0.601L63.781,7.285c-0.819,0.257-1.335,0.944-1.15,1.533L66.534,21.26z"/>
</g>
</svg>
