<?xml version="1.0" encoding="utf-8"?>
<!-- Generator: Adobe Illustrator 16.0.0, SVG Export Plug-In . SVG Version: 6.00 Build 0)  -->
<!DOCTYPE svg PUBLIC "-//W3C//DTD SVG 1.1//EN" "http://www.w3.org/Graphics/SVG/1.1/DTD/svg11.dtd">
<svg version="1.1" id="Layer_3" xmlns="http://www.w3.org/2000/svg" xmlns:xlink="http://www.w3.org/1999/xlink" x="0px" y="0px"
	 width="126px" height="126px" viewBox="0 0 126 126" enable-background="new 0 0 126 126" xml:space="preserve">
<g>
	<path d="M62.884,19.921c-0.318,0.143-0.61,0.32-0.879,0.521c-1.619-1.941-3.868-3.382-6.531-3.953
		c-6.332-1.355-12.563,2.678-13.918,9.007c-1.356,6.33,2.676,12.562,9.006,13.918c5.25,1.125,10.422-1.462,12.811-5.985
		c1.41,5.091,0.789,7.45,0.119,8.488c-1.011,1.57-3.654,2.493-8.041,2.799c-1.181-2.023-3.082-3.643-5.043-4.593
		c0,0-1.13-0.62-2.42-0.867c-1.234-0.235-2.664-0.243-2.664-0.243l-0.035-0.002c-4.059,0.117-8.838,2.38-9.848,7.094L30.02,71.406
		c-0.724,3.378,0.788,6.402,3.231,8.487l-0.023,39.046c-0.002,3.428,2.775,6.208,6.203,6.21c0,0,0.002,0,0.004,0
		c3.426,0,6.203-2.776,6.205-6.202l0.022-36.945c2.564-1.021,4.732-3.002,5.394-6.09l4.734-22.095
		c5.837-0.369,12.037-1.822,15.354-6.972c3.531-5.482,2.818-13.309-2.247-24.63C67.87,19.923,65.179,18.896,62.884,19.921z"/>
	<path d="M94.731,0.851h-4.533c-0.379,0-0.742,0.15-1.012,0.419l-3.558,3.558c-2.115-1.142-4.812-0.833-6.615,0.94l7.888,8.023
		c1.921-1.888,2.196-4.815,0.816-7.005l3.074-3.073h3.939c0.79,0,1.432-0.641,1.432-1.432C96.163,1.491,95.521,0.851,94.731,0.851z"
		/>
	<path d="M84.157,13.084c-0.391-0.063-0.757,0.203-0.82,0.594l-0.756,4.71c-0.063,0.391,0.202,0.758,0.592,0.821
		c0.039,0.005,0.078,0.008,0.115,0.008c0.345,0,0.648-0.25,0.705-0.602l0.758-4.711C84.813,13.515,84.548,13.147,84.157,13.084z"/>
	<path d="M82.969,20.48c-0.394-0.063-0.757,0.202-0.82,0.593l-0.757,4.71c-0.063,0.391,0.202,0.758,0.592,0.821
		c0.039,0.005,0.078,0.009,0.115,0.009c0.345,0,0.648-0.251,0.705-0.603l0.758-4.71C83.624,20.91,83.358,20.543,82.969,20.48z"/>
	<path d="M82.491,10.495c-0.258-0.299-0.711-0.332-1.01-0.073l-3.607,3.12c-0.299,0.259-0.332,0.712-0.073,1.011
		c0.142,0.163,0.341,0.247,0.542,0.247c0.165,0,0.332-0.058,0.467-0.175l3.609-3.12C82.717,11.246,82.749,10.794,82.491,10.495z"/>
	<path d="M75.816,15.322l-3.608,3.121c-0.299,0.259-0.331,0.71-0.072,1.01c0.141,0.163,0.341,0.247,0.541,0.247
		c0.166,0,0.332-0.057,0.468-0.174l3.608-3.121c0.299-0.259,0.332-0.71,0.072-1.009C76.567,15.097,76.116,15.064,75.816,15.322z"/>
	<path d="M74.294,8.813c0.035,0,0.072-0.002,0.107-0.008l4.719-0.707c0.391-0.058,0.66-0.423,0.602-0.813s-0.424-0.661-0.814-0.602
		l-4.718,0.706c-0.392,0.06-0.66,0.424-0.603,0.814C73.641,8.558,73.946,8.813,74.294,8.813z"/>
	<path d="M66.887,9.923c0.035,0,0.071-0.003,0.106-0.009l4.719-0.706c0.391-0.059,0.66-0.424,0.602-0.814s-0.424-0.66-0.814-0.602
		l-4.718,0.707c-0.391,0.059-0.659,0.423-0.602,0.814C66.233,9.668,66.538,9.923,66.887,9.923z"/>
</g>
</svg>
