<?xml version="1.0" encoding="utf-8"?>
<!-- Generator: Adobe Illustrator 16.0.0, SVG Export Plug-In . SVG Version: 6.00 Build 0)  -->
<!DOCTYPE svg PUBLIC "-//W3C//DTD SVG 1.1//EN" "http://www.w3.org/Graphics/SVG/1.1/DTD/svg11.dtd">
<svg version="1.1" id="Layer_1" xmlns="http://www.w3.org/2000/svg" xmlns:xlink="http://www.w3.org/1999/xlink" x="0px" y="0px"
	 width="126px" height="126px" viewBox="0 0 126 126" enable-background="new 0 0 126 126" xml:space="preserve">
<g>
	<path d="M94.683,40.664c-2.011-0.582-4.087,0.168-5.308,1.722c-0.484-0.096-0.985-0.148-1.498-0.148h-4.802
		c-1.678-1.791-3.343-3.763-4.456-5.085c-2.396-2.842-4.167-4.904-5.812-6.295c-1.799-1.709-4.111-2.929-6.494-3.513l-3.203,3.223
		l-3.104-3.259c-0.01,0.003-0.021,0.003-0.031,0.006c-1.861,0.445-3.684,1.283-5.255,2.436c-2.122,1.285-4.193,3.669-7.338,7.402
		c-1.114,1.322-2.778,3.294-4.457,5.085h-4.326c-0.657,0-1.292,0.092-1.901,0.248c-1.21-1.622-3.326-2.42-5.378-1.821
		c-2.646,0.77-4.169,3.54-3.399,6.186c0.743,2.546,1.748,4.582,3,6.118v26.598c0,4.234,3.445,7.678,7.679,7.678h12.32l-0.028,31.963
		c-0.002,3.257,2.636,5.9,5.893,5.902c0.002,0,0.003,0,0.005,0c3.255,0,5.896-2.637,5.897-5.893l0.028-31.973h0.854l-0.002,31.968
		c0,3.257,2.641,5.897,5.897,5.897c3.258,0,5.897-2.64,5.897-5.897l0.001-31.968h12.515c4.233,0,7.679-3.444,7.679-7.678V52.344
		c1.032-1.451,1.88-3.278,2.524-5.494C98.85,44.204,97.328,41.434,94.683,40.664z M63.082,31.044h0.06l0.47,3.133
		c0.017,0.374,0.065,0.743,0.165,1.102l1.041,6.959h-3.41L63.082,31.044z M90.455,79.565c0,1.424-1.153,2.578-2.578,2.578H38.599
		c-1.422,0-2.578-1.154-2.578-2.578V49.916c0-1.424,1.156-2.579,2.578-2.579h49.278c1.425,0,2.578,1.154,2.578,2.579V79.565z"/>
	<circle cx="63.11" cy="13.745" r="12.854"/>
</g>
</svg>
