<?xml version="1.0" encoding="utf-8"?>
<!-- Generator: Adobe Illustrator 16.0.0, SVG Export Plug-In . SVG Version: 6.00 Build 0)  -->
<!DOCTYPE svg PUBLIC "-//W3C//DTD SVG 1.1//EN" "http://www.w3.org/Graphics/SVG/1.1/DTD/svg11.dtd">
<svg version="1.1" id="Layer_2" xmlns="http://www.w3.org/2000/svg" xmlns:xlink="http://www.w3.org/1999/xlink" x="0px" y="0px"
	 width="126px" height="126px" viewBox="0 0 126 126" enable-background="new 0 0 126 126" xml:space="preserve">
<g>
	<circle cx="38.557" cy="13.952" r="12.8"/>
	<polygon points="59.504,123.691 81.155,123.691 81.155,94.333 87.479,94.333 87.479,123.691 109.13,123.691 109.13,90.263 
		59.504,90.263 	"/>
	<path d="M101.874,73.402c1.125-1.384,1.729-3.221,1.531-5.647c-0.406-4.937-3.06-10.361-8.839-8.046
		c-4.473,1.792-7.424,6.179-10.256,10.042c-2.756-3.717-5.521-7.711-9.707-9.814c-1.147-0.577-2.175-0.834-3.087-0.841
		c1.428-0.638,2.54-1.923,2.861-3.575c0.525-2.694-1.235-5.302-3.928-5.827c-4.919-0.956-8.915-5.477-13.146-10.262
		c-3.122-3.531-6.352-7.183-10.233-9.564c-0.215-0.133-0.442-0.227-0.668-0.323c-1.424-0.95-3.025-1.649-4.659-2.05l-3.186,3.21
		l-3.094-3.246c-0.01,0.003-0.021,0.004-0.03,0.006c-1.645,0.393-3.257,1.092-4.692,2.046c-0.039,0.016-0.078,0.027-0.115,0.043
		c-18.017,7.923-16.275,38.32-16.193,39.609c0.169,2.631,2.355,4.65,4.954,4.65c0.106,0,0.214-0.002,0.323-0.01
		c2.738-0.176,4.815-2.538,4.641-5.277c-0.192-3-0.073-8.819,1.104-14.595v12.942c0,1.337,0.26,2.584,0.715,3.732
		c-0.035,0.257-0.059,0.519-0.059,0.786l0.004,47.584c0,3.243,2.628,5.873,5.873,5.872c3.242,0,5.872-2.629,5.872-5.873
		l-0.004-40.837c0.234,0.011,0.465,0.03,0.701,0.03c0.044,0,0.092-0.006,0.136-0.006l-0.002,40.813c0,3.244,2.63,5.873,5.872,5.873
		c3.246,0,5.873-2.629,5.873-5.873l0.002-47.292c0.771-1.426,1.219-3.039,1.219-4.809V48.035
		c4.478,4.968,9.651,10.005,16.896,11.414c0.318,0.062,0.638,0.092,0.952,0.092c0.004,0,0.007,0,0.009,0
		c-2.563,1.25-3.856,4.909-4.291,8.214c-0.317,2.429,0.25,4.265,1.382,5.647h-9.619v12.34h54.66v-12.34H101.874z M38.529,56.036
		l-3.088-4.224l3.088-20.633h0.058l3.088,20.633l-3.088,4.224H38.529z M69.693,69.565c-0.493-1.53,0.417-4.138,1.076-5.508
		c0.739-1.533,3.784,1.22,4.417,1.792c2.272,2.051,4.055,4.561,5.873,7.017C76.842,73.117,70.803,73.014,69.693,69.565z
		 M87.479,83.491h-6.324v-6.159c0.932-0.031,1.812-0.086,2.598-0.152c0.202-0.017,0.387-0.06,0.562-0.116
		c0.175,0.057,0.36,0.1,0.564,0.116c0.806,0.067,1.682,0.124,2.601,0.157V83.491z M98.937,69.565
		c-0.521,3.399-7.09,3.52-11.345,3.293c1.837-2.433,3.64-4.875,5.852-7.009c0.903-0.872,2.874-2.719,4.3-2.078
		C98.805,64.249,99.086,68.583,98.937,69.565z"/>
</g>
</svg>
