<?xml version="1.0" encoding="utf-8"?>
<!-- Generator: Adobe Illustrator 17.0.0, SVG Export Plug-In . SVG Version: 6.00 Build 0)  -->
<!DOCTYPE svg PUBLIC "-//W3C//DTD SVG 1.1//EN" "http://www.w3.org/Graphics/SVG/1.1/DTD/svg11.dtd">
<svg version="1.1" id="Layer_2" xmlns="http://www.w3.org/2000/svg" xmlns:xlink="http://www.w3.org/1999/xlink" x="0px" y="0px"
	 width="126px" height="126px" viewBox="0 0 126 126" enable-background="new 0 0 126 126" xml:space="preserve">
<path d="M21.183,13.968c0-7.428,6.021-13.449,13.449-13.449S48.081,6.54,48.081,13.968S42.06,27.417,34.632,27.417
	S21.183,21.396,21.183,13.968z M50.231,11.899l39.246-6.925l-3.17,34.241l-14.582-6.111l-0.699,7.548l-6.557-2.922
	c-4.248,6.229-11.835,9.108-19.342,9.108c-2.653,0-5.291-0.366-7.77-1.06l-4.975,23.216c-0.759,3.542-3.246,5.816-6.188,6.986
	l-0.025,42.388c-0.002,3.928-3.189,7.115-7.12,7.115c-0.002,0-0.003,0-0.004,0c-3.932-0.003-7.118-3.192-7.116-7.125l0.026-44.798
	c-2.804-2.391-4.538-5.861-3.708-9.736l6.221-29.028c1.158-5.409,6.642-8.004,11.298-8.139l0.04,0.003c0,0,1.641,0.008,3.056,0.278
	c1.48,0.283,2.777,0.995,2.777,0.995c2.822,1.368,5.544,3.938,6.648,7.129c5.72,2.5,14.38,1.67,17.651-3.341
	c0.068-0.104,0.156-0.187,0.23-0.286l0.432-4.672l-7.457-3.125L50.231,11.899z M60.058,29.373c1.061-0.053,2.146,0.203,3.104,0.828
	c1.406,0.917,2.202,2.398,2.33,3.951l2.337,1.042l0.332-3.584l-7.999-3.353L60.058,29.373z M90.815,36.935l18.643,12.023
	l1.544-2.393L92.359,34.542L90.815,36.935z M115.354,4.76l-0.649-2.772L93.107,7.043l0.649,2.772L115.354,4.76z M93.515,21.388
	l-0.166,2.843l24.447,1.428l0.166-2.843L93.515,21.388z"/>
</svg>
