<?xml version="1.0" encoding="utf-8"?>
<!-- Generator: Adobe Illustrator 16.0.0, SVG Export Plug-In . SVG Version: 6.00 Build 0)  -->
<!DOCTYPE svg PUBLIC "-//W3C//DTD SVG 1.1//EN" "http://www.w3.org/Graphics/SVG/1.1/DTD/svg11.dtd">
<svg version="1.1" id="Layer_3" xmlns="http://www.w3.org/2000/svg" xmlns:xlink="http://www.w3.org/1999/xlink" x="0px" y="0px"
	 width="126px" height="126px" viewBox="0 0 126 126" enable-background="new 0 0 126 126" xml:space="preserve">
<g>
	<path d="M119.028,65.417V62.92h-6v2.497v10.002c-0.751-1.632-2.39-2.771-4.304-2.771H94.405h-19.2H17.275
		c-1.913,0-3.552,1.139-4.303,2.77V65.417V62.92h-6v2.497H2.218v40.312h10.753V89.896h69.441h5.224h25.391v15.833h10.753V65.417
		H119.028z M113.028,83.896H87.85h-5.644H12.972v-4.523c0.751,1.631,2.39,2.77,4.303,2.77H81.66h6.737h20.327
		c1.914,0,3.553-1.139,4.304-2.771V83.896z"/>
	<path d="M18.219,70.229h9.5c1.749,0,3.167-1.418,3.167-3.167c0-1.191-0.666-2.217-1.638-2.757c4.786-0.7,8.444-4.83,8.401-9.803
		c-0.046-5.431-4.486-9.795-9.917-9.748c-5.431,0.046-9.795,4.487-9.749,9.918c0.038,4.299,2.833,7.92,6.688,9.223h-6.453
		c-1.749,0-3.167,1.418-3.167,3.167S16.47,70.229,18.219,70.229z"/>
	<path d="M66.564,51.808l-21.705,0.187c-4.028,0.034-6.7,3.594-7.477,6.886c0,0-0.301,1.038-0.267,2.141
		c0.033,1.053,0.288,2.225,0.288,2.225l0.004,0.029c0.838,3.3,3.564,6.801,7.608,6.765l21.705-0.187
		c1.392-0.012,2.612-0.447,3.655-1.145c0.095,0.006,0.186,0.028,0.283,0.028c0,0,0.001,0,0.002,0l33.818-0.015
		c2.669-0.002,4.833-2.166,4.831-4.835c0-2.668-2.164-4.831-4.833-4.831c0,0-0.001,0-0.001,0l-30.793,0.014
		c0.034-2.302-0.885-3.562-0.885-3.562C71.509,53.394,69.395,51.782,66.564,51.808z"/>
	<path d="M91.425,44.351l-2.857,2.951l1.359,1.315l3.048-3.15c1.457,0.88,3.123,1.462,4.928,1.625
		c1.935,0.175,3.799-0.146,5.478-0.845l2.548,3.813l1.573-1.051l-2.433-3.642c2.971-1.859,5.08-5.026,5.417-8.778
		c0.193-2.137-0.221-4.186-1.082-5.996c0.433-0.104,0.837-0.314,1.154-0.654c0.936-1,0.801-2.647-0.3-3.678
		c-1.102-1.03-2.753-1.053-3.688-0.054c-0.111,0.118-0.204,0.246-0.284,0.381c-1.736-1.427-3.901-2.367-6.302-2.584
		c-2.539-0.229-4.957,0.394-6.991,1.617c-0.055-0.143-0.121-0.282-0.206-0.413c-0.741-1.151-2.371-1.424-3.639-0.606
		c-1.268,0.815-1.695,2.411-0.954,3.563c0.277,0.431,0.679,0.737,1.139,0.912c-1.061,1.567-1.754,3.416-1.936,5.432
		C87.051,38.387,88.671,41.99,91.425,44.351z M89.912,34.734c0.449-4.981,4.866-8.667,9.848-8.219
		c4.979,0.449,8.666,4.866,8.217,9.847c-0.449,4.98-4.866,8.667-9.847,8.218C93.15,44.131,89.463,39.715,89.912,34.734z"/>
	<polygon points="104.57,35.106 99.971,34.691 100.401,29.924 98.518,29.754 97.918,36.405 104.4,36.99 	"/>
	<path d="M85.379,26.434l-0.002-1.169c-1.362,0.003-2.59,0.725-3.283,1.933c-0.692,1.206-0.697,2.631-0.011,3.808l1.01-0.588
		c-0.473-0.813-0.467-1.799,0.015-2.639C83.591,26.938,84.439,26.436,85.379,26.434z"/>
	<path d="M81.047,32.314c-1.205-1.612-1.376-3.769-0.445-5.625c0.932-1.859,2.762-3.014,4.776-3.014h0.001v-1.168c0,0,0,0-0.001,0
		c-2.459,0-4.689,1.401-5.82,3.658c-1.13,2.254-0.918,4.879,0.554,6.848L81.047,32.314z"/>
	<path d="M114.503,28.826c0.707-1.166,0.727-2.589,0.056-3.81c-0.672-1.219-1.886-1.962-3.249-1.987l-0.022,1.168
		c0.94,0.018,1.78,0.535,2.247,1.385c0.467,0.848,0.456,1.835-0.031,2.638L114.503,28.826z"/>
	<path d="M115.768,24.006c1.104,1.762,1.14,3.926,0.093,5.646l0.999,0.607v-0.001c1.278-2.102,1.239-4.734-0.101-6.874
		c-1.339-2.137-3.692-3.318-6.139-3.085l0.111,1.163C112.735,21.271,114.665,22.245,115.768,24.006z"/>
	<path d="M31.346,39.303c-0.114-0.998-0.167-1.48-0.262-2.442c1.134,0.101,1.702,0.136,2.836,0.183
		c0.499,0.832,0.741,1.213,1.219,1.883c0.681-0.067,1.021-0.102,1.702-0.169c-2.037-2.411-3.154-4.95-5.585-11
		c-0.916-0.104-1.374-0.159-2.29-0.271c0.075,5.495,0.21,7.069,0.677,11.986C30.324,39.403,30.666,39.37,31.346,39.303z
		 M30.967,30.773c0.159,0.399,0.868,2.487,2.038,4.615c-0.836-0.104-1.254-0.165-2.09-0.318c-0.187-2.313-0.318-5.247-0.31-5.249
		C30.604,29.821,30.808,30.374,30.967,30.773z"/>
	<path d="M39.211,38.521c-0.289-0.743-0.433-1.213-0.722-2.354c-0.178-0.704-0.202-1.257-0.066-1.715s0.45-0.689,0.934-0.685
		c0.681,0.006,1.109,0.696,1.287,1.641c0.287,1.528,0.43,2.107,0.716,2.9c0.622-0.063,0.933-0.094,1.554-0.155
		c-0.262-0.802-0.395-1.464-0.657-3.295c-0.119-0.828-0.4-1.601-0.86-2.176c-0.46-0.574-1.08-0.916-1.846-0.958
		c-0.863-0.047-1.425,0.416-1.665,1.338c-0.037-0.002-0.054-0.004-0.091-0.006c-0.034-0.311-0.051-0.467-0.084-0.788
		c-0.099-0.814-0.164-1.366-0.198-1.603c-0.174-1.211-0.261-1.854-0.435-3.209c-0.745-0.073-1.118-0.111-1.862-0.185
		c0.976,6.632,1.465,8.913,2.441,11.403C38.279,38.614,38.589,38.582,39.211,38.521z"/>
	<path d="M46.068,37.841c-0.105-0.689-0.157-1.132-0.262-2.214c-0.065-0.669-0.008-1.243,0.179-1.635
		c0.187-0.393,0.525-0.622,1.01-0.675c0.681-0.073,1.04,0.425,1.076,1.3c0.059,1.416,0.089,2.02,0.147,3.01
		c0.622-0.062,0.933-0.093,1.554-0.154c-0.008-1.223-0.012-1.928-0.021-3.52c-0.003-0.721-0.198-1.319-0.597-1.732
		c-0.398-0.412-0.986-0.625-1.752-0.586c-0.863,0.044-1.474,0.487-1.809,1.28c-0.037,0.003-0.055,0.003-0.091,0.006
		c-0.002-0.253-0.004-0.381-0.006-0.644c-0.019-0.667-0.033-1.128-0.045-1.323c-0.063-1.001-0.095-1.538-0.159-2.682
		c-0.745-0.073-1.117-0.11-1.861-0.185c0.433,6.091,0.65,8.072,1.084,9.906C45.136,37.934,45.446,37.902,46.068,37.841z"/>
	<path d="M53.12,34.49c0.049-0.666,0.189-1.169,0.426-1.496c0.237-0.328,0.601-0.516,1.085-0.569
		c0.681-0.077,0.969,0.263,0.865,1.071c-0.169,1.308-0.253,1.997-0.422,3.45c0.621-0.062,0.932-0.095,1.553-0.156
		c0.246-1.727,0.37-2.504,0.616-3.89c0.112-0.627,0.007-1.042-0.33-1.324c-0.337-0.281-0.896-0.414-1.662-0.375
		c-0.863,0.044-1.521,0.35-1.951,0.961c-0.037,0.004-0.054,0.008-0.091,0.012c0.029-0.191,0.044-0.287,0.073-0.479
		c0.061-0.481,0.095-0.79,0.104-0.92c0.047-0.671,0.071-1.009,0.119-1.688c-0.745-0.073-1.117-0.108-1.861-0.183
		c-0.109,3.856-0.164,5.537-0.272,8.409c0.621-0.062,0.932-0.091,1.553-0.152C53.003,36.104,53.042,35.568,53.12,34.49z"/>
	<path d="M60.437,33.604c0.162-0.663,0.382-1.149,0.669-1.367c0.288-0.219,0.678-0.324,1.163-0.33c0.681-0.01,0.898,0.17,0.654,0.95
		c-0.396,1.264-0.595,1.946-0.991,3.408c0.622-0.062,0.932-0.092,1.554-0.153c0.5-1.559,0.75-2.283,1.25-3.627
		c0.227-0.608,0.208-0.741-0.066-0.947c-0.275-0.206-0.804-0.331-1.57-0.361c-0.863-0.033-1.568,0.104-2.093,0.484
		c-0.037,0.001-0.055,0.001-0.092,0.002c0.061-0.124,0.09-0.184,0.151-0.303c0.141-0.303,0.227-0.477,0.257-0.553
		c0.158-0.388,0.237-0.568,0.395-0.9c-0.745-0.073-1.116-0.111-1.86-0.185c-0.652,1.849-0.978,3.229-1.629,6.912
		c0.622-0.062,0.934-0.096,1.555-0.157C60.044,35.251,60.175,34.677,60.437,33.604z"/>
	<path d="M67.752,33.507c0.275-0.543,0.578-0.949,0.916-1.068c0.338-0.119,0.753-0.146,1.237-0.074
		c0.681,0.101,0.829,0.334,0.443,0.885c-0.625,0.893-0.936,1.36-1.56,2.335c0.621-0.062,0.932-0.093,1.553-0.154
		c0.754-0.874,1.131-1.294,1.886-2.1c0.341-0.363,0.412-0.684,0.198-0.938c-0.213-0.255-0.71-0.434-1.477-0.542
		c-0.863-0.122-1.615-0.072-2.236,0.145c-0.037-0.004-0.055-0.008-0.091-0.012c0.092-0.084,0.138-0.125,0.23-0.207
		c0.22-0.21,0.355-0.336,0.408-0.391c0.268-0.279,0.402-0.412,0.671-0.664c-0.745-0.073-1.116-0.111-1.86-0.185
		c-1.193,1.229-1.791,2.313-2.985,5.415c0.621-0.062,0.933-0.092,1.554-0.154C67.084,34.843,67.307,34.385,67.752,33.507z"/>
</g>
</svg>
