<?xml version="1.0" encoding="utf-8"?>
<!-- Generator: Adobe Illustrator 16.0.0, SVG Export Plug-In . SVG Version: 6.00 Build 0)  -->
<!DOCTYPE svg PUBLIC "-//W3C//DTD SVG 1.1//EN" "http://www.w3.org/Graphics/SVG/1.1/DTD/svg11.dtd">
<svg version="1.1" id="Layer_3" xmlns="http://www.w3.org/2000/svg" xmlns:xlink="http://www.w3.org/1999/xlink" x="0px" y="0px"
	 width="126px" height="126px" viewBox="0 0 126 126" enable-background="new 0 0 126 126" xml:space="preserve">
<path d="M118.588,1.286c-2.87,0-5.196,2.327-5.196,5.197v10.394H12.608V6.483c0-2.87-2.327-5.197-5.196-5.197
	c-2.87,0-5.197,2.327-5.197,5.197v113.033c0,2.87,2.327,5.197,5.197,5.197c2.869,0,5.196-2.327,5.196-5.197V20.774h25.593
	c-0.657,1.105-0.686,2.527,0.063,3.676l15.133,23.22c0.196,0.304,0.438,0.561,0.7,0.778v19.24c0,1.533,0.476,2.9,1.272,4.055
	l-10.684,29.925c-0.766,2.139,0.35,4.495,2.49,5.259c0.457,0.162,0.925,0.241,1.384,0.241c1.69,0,3.275-1.05,3.875-2.733
	L62.737,75.58c0.181,0.009,0.357,0.021,0.539,0.021c0.504,0,1.003-0.043,1.497-0.113l10.335,28.946
	c0.6,1.684,2.185,2.733,3.874,2.733c0.46,0,0.928-0.079,1.385-0.241c2.141-0.764,3.254-3.12,2.492-5.259L71.791,70.674
	c0.422-0.903,0.664-1.902,0.664-2.985V47.895c0-0.009-0.001-0.016-0.001-0.025c0.049-0.064,0.104-0.129,0.149-0.199l15.133-23.22
	c0.748-1.148,0.72-2.57,0.061-3.676h25.595v98.742c0,2.87,2.326,5.197,5.196,5.197s5.197-2.327,5.197-5.197V6.483
	C123.785,3.613,121.458,1.286,118.588,1.286z M61.879,40.88c0.456,0.071,0.921,0.119,1.396,0.119c0.501,0,0.989-0.052,1.469-0.131
	l-1.468,1.479L61.879,40.88z M68.43,41.32c-0.625-0.381-1.296-0.669-1.979-0.911c3.384-1.282,5.793-4.546,5.793-8.379
	c0-4.952-4.016-8.968-8.969-8.968s-8.968,4.016-8.968,8.968c0,3.815,2.386,7.064,5.742,8.361c-0.814,0.29-1.603,0.683-2.323,1.171
	L44.18,20.774h37.639L68.43,41.32z"/>
</svg>
