<?xml version="1.0" encoding="utf-8"?>
<!-- Generator: Adobe Illustrator 16.0.0, SVG Export Plug-In . SVG Version: 6.00 Build 0)  -->
<!DOCTYPE svg PUBLIC "-//W3C//DTD SVG 1.1//EN" "http://www.w3.org/Graphics/SVG/1.1/DTD/svg11.dtd">
<svg version="1.1" id="Layer_1" xmlns="http://www.w3.org/2000/svg" xmlns:xlink="http://www.w3.org/1999/xlink" x="0px" y="0px"
	 width="126px" height="126px" viewBox="0 0 126 126" enable-background="new 0 0 126 126" xml:space="preserve">
<g>
	<circle cx="74.368" cy="42.479" r="12.079"/>
	<rect x="45.273" y="90.3" width="52.391" height="33.552"/>
	<path d="M97.329,84.14c2.498-15.924-10.328-23.81-15.152-26.768c-0.155-0.094-0.322-0.16-0.484-0.234
		c-1.323-0.87-2.805-1.508-4.314-1.88l-3.007,3.032l-2.919-3.062c-0.011,0-0.021,0-0.031,0.004
		c-1.445,0.344-2.867,0.945-4.151,1.754c-0.318,0.096-0.637,0.222-0.94,0.394c-1.87,1.052-3.649,1.256-5.597,0.65
		c-2.517-0.784-4.963-2.769-7.12-5.104l-3.929-5c-1.454-2.142-2.569-4.121-3.176-5.363c-1.131-2.33-3.938-3.3-6.268-2.17
		c-2.329,1.13-3.302,3.938-2.17,6.268c0.607,1.25,4.864,9.688,11.613,15.504v0.002c0.336-0.442,0.764-0.814,1.276-1.056l3.376-1.586
		c0.466-0.217,0.964-0.328,1.476-0.328c1.346,0,2.579,0.784,3.148,2.002c0.394,0.836,0.435,1.779,0.12,2.653
		c-0.316,0.872-0.951,1.57-1.79,1.963l-1.097,0.516c0.565,0.242,1.139,0.464,1.728,0.647c1.357,0.425,2.722,0.662,4.084,0.732v16.43
		H46.048c0.082-3.688,0.798-13.464,5.99-18.21c0.39,0.108,0.819,0.088,1.216-0.098l3.378-1.586c0.884-0.412,1.265-1.468,0.85-2.353
		c-0.413-0.884-1.469-1.264-2.353-0.848l-3.378,1.586c-0.535,0.25-0.882,0.734-0.983,1.274c-6.238,5.342-7.016,16.197-7.082,20.233
		h-4.377v3.634h66.383V84.14H97.329z M74.396,82.195h-0.055l-2.912-3.987l2.912-19.472h0.055l2.914,19.472L74.396,82.195z
		 M87.76,84.14h-1.028V74.104C88.15,76.79,88.688,80.05,87.76,84.14z"/>
	<path d="M46.56,30.4c1.017,0,2.878-0.096,4.208-0.308l12.002,3.686l-2.373-10.063c0.806-1.24,2.257-3.891,2.257-6.889
		c0-7.485-7.22-13.573-16.094-13.573c-1.083,0-2.14,0.092-3.166,0.264c-2.116-0.87-4.483-1.368-6.99-1.368
		c-8.875,0-16.095,6.088-16.095,13.574c0,7.484,7.22,13.576,16.095,13.576c0.808,0,2.152-0.063,3.339-0.192
		C41.814,29.927,44.12,30.4,46.56,30.4z M23.869,15.723c0-5.52,5.622-10.014,12.534-10.014c0.298,0,0.593,0.021,0.889,0.04
		c-4.12,2.46-6.823,6.504-6.823,11.077c0,3.334,1.439,6.391,3.814,8.758C28.38,24.774,23.869,20.669,23.869,15.723z M34.027,16.826
		c0-5.521,5.623-10.016,12.532-10.016c6.91,0,12.533,4.494,12.533,10.016c0,2.792-1.991,5.398-2.009,5.422l-0.533,0.675l1.329,5.632
		l-6.912-2.124l-0.441,0.092c-0.927,0.188-2.834,0.318-3.967,0.318C39.65,26.841,34.027,22.349,34.027,16.826z"/>
</g>
</svg>
