<?xml version="1.0" encoding="utf-8"?>
<!-- Generator: Adobe Illustrator 17.0.0, SVG Export Plug-In . SVG Version: 6.00 Build 0)  -->
<!DOCTYPE svg PUBLIC "-//W3C//DTD SVG 1.1//EN" "http://www.w3.org/Graphics/SVG/1.1/DTD/svg11.dtd">
<svg version="1.1" id="Capa_1" xmlns="http://www.w3.org/2000/svg" xmlns:xlink="http://www.w3.org/1999/xlink" x="0px" y="0px"
	 width="64px" height="64px" viewBox="0 0 64 64" enable-background="new 0 0 64 64" xml:space="preserve">
<path fill="#0E0F0F" d="M38.939,48.583c-0.786-0.182-1.6-0.289-2.442-0.289c-3.327,0-6.459,1.538-8.525,4.148
	c-2.07-2.61-5.202-4.148-8.527-4.148c-2.937,0-5.741,1.205-7.795,3.324c-2.053-2.119-4.861-3.324-7.797-3.324
	c-0.619,0-1.224,0.066-1.815,0.167c0.815-2.738,3.089-4.898,5.995-5.964c5.56-2.044,11.198-3.848,16.862-5.575
	c2.386-13.908,8.363-27.613,23.593-31.031c7.132-1.6,10.162,9.346,3.017,10.949c-9.518,2.136-13.334,10.566-15.073,19.298
	C40.301,38.615,41.619,44.613,38.939,48.583z M52.235,24.171c-5.373,0-9.729,4.356-9.729,9.729c0,5.373,4.356,9.729,9.729,9.729
	s9.729-4.356,9.729-9.729C61.964,28.527,57.608,24.171,52.235,24.171z"/>
</svg>
