<?xml version="1.0" encoding="utf-8"?>
<!-- Generator: Adobe Illustrator 16.0.0, SVG Export Plug-In . SVG Version: 6.00 Build 0)  -->
<!DOCTYPE svg PUBLIC "-//W3C//DTD SVG 1.1//EN" "http://www.w3.org/Graphics/SVG/1.1/DTD/svg11.dtd">
<svg version="1.1" id="Layer_2" xmlns="http://www.w3.org/2000/svg" xmlns:xlink="http://www.w3.org/1999/xlink" x="0px" y="0px"
	 width="126px" height="126px" viewBox="0 0 126 126" enable-background="new 0 0 126 126" xml:space="preserve">
<g>
	<path d="M93.347,62.296h-4.691c-1.295-7.294-6.021-28.271-18.231-33.636c-0.022-0.01-0.047-0.017-0.069-0.026
		c-1.339-0.878-2.842-1.535-4.375-1.911l-2.999,3.02l-2.907-3.052c-0.011,0.002-0.021,0.002-0.031,0.005
		c-1.573,0.375-3.114,1.052-4.48,1.973c-12.198,5.375-16.923,26.337-18.218,33.627h-4.69c-3.521,0-6.387,2.867-6.387,6.389v48.979
		c0,3.523,2.866,6.389,6.387,6.389h60.693c3.521,0,6.387-2.866,6.387-6.389V68.685C99.733,65.163,96.868,62.296,93.347,62.296z
		 M79.142,62.296h-3.839V49.071C77.031,53.387,78.323,58.159,79.142,62.296z M62.953,30.189h0.057l2.902,19.408L63.01,53.57h-0.057
		l-2.904-3.973L62.953,30.189z M50.658,49.142v13.154h-3.805C47.663,58.182,48.945,53.438,50.658,49.142z M94.942,117.664
		c0,0.88-0.717,1.597-1.596,1.597H32.653c-0.879,0-1.595-0.717-1.595-1.597V68.685c0-0.881,0.716-1.597,1.595-1.597h60.693
		c0.879,0,1.596,0.716,1.596,1.597V117.664z"/>
	<path d="M74.923,89.889v-6.548c0-6.436-5.239-11.672-11.674-11.672h-0.498c-6.435,0-11.672,5.236-11.672,11.672v6.548
		c-1.261,0.119-2.248,1.169-2.248,2.459v19.649c0,1.371,1.108,2.483,2.482,2.483h23.373c1.373,0,2.484-1.112,2.484-2.483V92.349
		C77.171,91.058,76.182,90.008,74.923,89.889z M64.975,103.469v6.731c0,0.636-0.516,1.154-1.151,1.154h-1.385
		c-0.639,0-1.153-0.518-1.153-1.154v-6.541c-0.836-0.555-1.384-1.502-1.384-2.581c0-1.712,1.389-3.1,3.1-3.1
		c1.714,0,3.1,1.387,3.1,3.1C66.101,102.042,65.665,102.9,64.975,103.469z M71.445,89.865H54.557v-6.523
		c0-4.518,3.677-8.196,8.194-8.196h0.498c4.518,0,8.196,3.678,8.196,8.196V89.865z"/>
	<circle cx="62.98" cy="13.986" r="12.039"/>
</g>
</svg>
