<?xml version="1.0" encoding="utf-8"?>
<!-- Generator: Adobe Illustrator 16.0.0, SVG Export Plug-In . SVG Version: 6.00 Build 0)  -->
<!DOCTYPE svg PUBLIC "-//W3C//DTD SVG 1.1//EN" "http://www.w3.org/Graphics/SVG/1.1/DTD/svg11.dtd">
<svg version="1.1" id="Layer_1" xmlns="http://www.w3.org/2000/svg" xmlns:xlink="http://www.w3.org/1999/xlink" x="0px" y="0px"
	 width="126px" height="126px" viewBox="0 0 126 126" enable-background="new 0 0 126 126" xml:space="preserve">
<g>
	<path d="M8.819,55.59v9.358H7.256V77h1.563v19.327H7.256v12.054h1.563v10.359h54.909V57.726l-0.259-2.136H8.819z M59.264,114.275
		h-45.98v-5.895h1.563V96.327h-1.563V77h1.563V64.948h-1.563v-4.894h45.98V114.275z"/>
	<path d="M36.497,97.891c7.138,0,12.946-5.809,12.946-12.947s-5.808-12.945-12.946-12.945c-7.139,0-12.946,5.807-12.946,12.945
		S29.358,97.891,36.497,97.891z M36.497,77.354c4.184,0,7.589,3.404,7.589,7.589c0,4.186-3.405,7.59-7.589,7.59
		c-4.185,0-7.59-3.404-7.59-7.59C28.907,80.759,32.312,77.354,36.497,77.354z"/>
	<path d="M47.359,72.539c1.721,0,3.234-0.891,4.111-2.232h6.454v-5.357H51.47c-0.877-1.341-2.39-2.231-4.111-2.231
		c-2.708,0-4.911,2.202-4.911,4.909C42.449,70.335,44.652,72.539,47.359,72.539z"/>
	<rect x="14.846" y="120.079" width="8.705" height="4.464"/>
	<rect x="46.987" y="120.079" width="8.705" height="4.464"/>
	<path d="M102.356,29.747c-0.174-0.106-0.359-0.178-0.541-0.261c-1.384-0.897-2.927-1.561-4.499-1.945l-3.184,3.205l-3.087-3.24
		c-0.011,0.003-0.021,0.003-0.032,0.005c-1.992,0.477-3.937,1.404-5.576,2.689c-1.743,1.121-3.384,2.669-5.245,4.463
		c-5.035,4.852-11.3,10.889-22.553,10.889c-2.74,0-4.962,2.224-4.962,4.964s2.222,4.961,4.962,4.961
		c10.54,0,18.034-4.083,23.41-8.293v19.685c0,1.35,0.266,2.606,0.729,3.763c-0.032,0.246-0.075,0.488-0.075,0.742l-0.041,47.52
		c-0.003,3.24,2.62,5.868,5.859,5.872c0.001,0,0.003,0,0.005,0c3.236,0,5.862-2.623,5.864-5.861l0.036-40.787
		c0.235,0.012,0.468,0.029,0.705,0.029c0.046,0,0.092-0.005,0.138-0.006l-0.002,40.759c0,3.239,2.625,5.866,5.864,5.866h0.001
		c3.238,0,5.865-2.627,5.865-5.865L106,72.293c0.299,0.278,0.623,0.535,0.998,0.737c0.753,0.411,1.565,0.605,2.367,0.605
		c1.759,0,3.463-0.938,4.363-2.592C127.729,45.309,108.632,33.596,102.356,29.747z M94.164,56.045h-0.06l-3.082-4.219l3.082-20.605
		h0.06l3.083,20.605L94.164,56.045z M107.216,61.536V47.531C109.065,51.083,109.474,55.567,107.216,61.536z"/>
	<circle cx="94.133" cy="14.018" r="12.782"/>
</g>
</svg>
