<?xml version="1.0" encoding="utf-8"?>
<!-- Generator: Adobe Illustrator 16.0.0, SVG Export Plug-In . SVG Version: 6.00 Build 0)  -->
<!DOCTYPE svg PUBLIC "-//W3C//DTD SVG 1.1//EN" "http://www.w3.org/Graphics/SVG/1.1/DTD/svg11.dtd">
<svg version="1.1" id="Layer_3" xmlns="http://www.w3.org/2000/svg" xmlns:xlink="http://www.w3.org/1999/xlink" x="0px" y="0px"
	 width="126px" height="126px" viewBox="0 0 126 126" enable-background="new 0 0 126 126" xml:space="preserve">
<g>
	<path d="M120.77,61.148L59.755,27.298c-1.204-0.877-7.838-3.655-11.551-3.655c-1.413,0.011-2.834,0.174-4.219,0.483
		c-6.49,1.449-13.01,6.431-12.942,14.293l0.106,13.664c-3.417-1.721-7.617-0.544-9.582,2.799L1.785,88.558
		c-1.328,2.262-1.344,5.063-0.042,7.339c1.303,2.276,3.727,3.681,6.349,3.681l39.931-0.003c0.404,0,0.799-0.041,1.186-0.104
		c1.867-0.116,3.749-0.522,3.749-0.522l0.058-0.011c6.322-1.605,13.028-6.828,12.961-14.576l-0.264-33.986l46.671,25.891
		c1.328,0.738,2.768,1.088,4.186,1.088c3.039,0,5.988-1.607,7.566-4.452C126.451,68.726,124.943,63.464,120.77,61.148z
		 M31.267,67.253l0.135,17.406c0.001,0.099,0.016,0.19,0.018,0.288H20.872L31.267,67.253z"/>
	<circle cx="85.206" cy="83.551" r="18.842"/>
</g>
</svg>
