<?xml version="1.0" encoding="utf-8"?>
<!-- Generator: Adobe Illustrator 16.0.0, SVG Export Plug-In . SVG Version: 6.00 Build 0)  -->
<!DOCTYPE svg PUBLIC "-//W3C//DTD SVG 1.1//EN" "http://www.w3.org/Graphics/SVG/1.1/DTD/svg11.dtd">
<svg version="1.1" id="Layer_1" xmlns="http://www.w3.org/2000/svg" xmlns:xlink="http://www.w3.org/1999/xlink" x="0px" y="0px"
	 width="126px" height="126px" viewBox="0 0 126 126" enable-background="new 0 0 126 126" xml:space="preserve">
<g>
	<path d="M39.301,50.788v3.678c1.838-0.413,1.838-1.419,1.838-1.765c0-0.461-0.154-0.83-0.475-1.124
		C40.38,51.313,39.92,51.047,39.301,50.788z"/>
	<path d="M34.971,43.736c0,0.463,0.137,0.835,0.42,1.138c0.242,0.258,0.659,0.523,1.243,0.791v-3.544
		c-0.501,0.117-0.894,0.301-1.174,0.547C35.131,42.959,34.971,43.308,34.971,43.736z"/>
	<circle cx="82.917" cy="19.84" r="12.596"/>
	<path d="M107.629,66.529l-5.824-27.186c-1.086-5.064-6.223-7.496-10.582-7.622l-0.037,0.002c0,0-1.537,0.009-2.863,0.263
		c-1.387,0.264-2.599,0.931-2.599,0.931c-3.217,1.559-6.292,4.78-6.668,8.691c-0.05,0.188-0.111,0.371-0.141,0.569
		c-0.898,6.327-1.579,10.324-3.438,12.474c-1.88,2.176-5.952,3.55-13.615,4.598c-1.412,0.192-2.588,0.981-3.343,2.067l-8.24-30.83
		h3.857v-5.809h-5.411l-0.906-3.395H33.951V1.724H18.177v19.56v53.1v46.898h15.774V74.383h28.061l-1.575-5.887
		c0.641,0.304,1.341,0.488,2.081,0.488c0.221,0,0.444-0.015,0.67-0.045c10.331-1.413,16.124-3.763,19.631-7.858l2.205,10.292
		c0.713,3.317,3.042,5.445,5.797,6.541l0.023,39.698c0.002,3.682,2.986,6.664,6.669,6.664c0,0,0.003,0,0.005,0
		c3.683-0.002,6.665-2.989,6.663-6.673l-0.025-41.954C106.781,73.41,108.404,70.159,107.629,66.529z M43.639,56.24
		c-1.024,0.909-2.483,1.493-4.338,1.742v3.203h-2.667v-3.083c-2.291-0.07-4.214-0.45-5.721-1.132L30.7,56.873v-3.894l0.522,0.257
		c0.81,0.395,1.773,0.732,2.858,1.002c0.935,0.23,1.79,0.368,2.553,0.407v-4.824l-0.986-0.364c-1.648-0.632-2.871-1.405-3.641-2.297
		c-0.79-0.914-1.19-2.057-1.19-3.395c0-1.448,0.573-2.655,1.701-3.589c1.028-0.854,2.413-1.397,4.116-1.618v-2.489h2.667v2.421
		c1.88,0.104,3.69,0.508,5.388,1.207l0.331,0.138l-1.33,3.338l-0.338-0.133c-1.353-0.534-2.715-0.876-4.051-1.02v4.659l0.872,0.333
		c1.921,0.736,3.222,1.503,3.976,2.341c0.77,0.854,1.157,1.906,1.157,3.131C45.306,53.995,44.745,55.259,43.639,56.24z"/>
</g>
</svg>
