<?xml version="1.0" encoding="utf-8"?>
<!-- Generator: Adobe Illustrator 16.0.0, SVG Export Plug-In . SVG Version: 6.00 Build 0)  -->
<!DOCTYPE svg PUBLIC "-//W3C//DTD SVG 1.1//EN" "http://www.w3.org/Graphics/SVG/1.1/DTD/svg11.dtd">
<svg version="1.1" id="Layer_2" xmlns="http://www.w3.org/2000/svg" xmlns:xlink="http://www.w3.org/1999/xlink" x="0px" y="0px"
	 width="126px" height="126px" viewBox="0 0 126 126" enable-background="new 0 0 126 126" xml:space="preserve">
<g>
	<circle cx="62.721" cy="13.405" r="12.942"/>
	<path d="M90.053,65.615c-3.006-20.494-7.556-29.27-18.725-36.117c-0.217-0.133-0.444-0.229-0.672-0.326
		c-1.441-0.961-3.06-1.668-4.711-2.074l-3.224,3.246l-3.126-3.281c-0.011,0.002-0.021,0.004-0.032,0.006
		c-2.392,0.572-4.717,1.785-6.534,3.488C43.05,37.268,38.801,46.16,35.948,65.615c-0.403,2.744,1.497,5.297,4.242,5.699
		c0.248,0.035,0.493,0.055,0.736,0.055c2.452,0,4.599-1.799,4.965-4.297c1.026-6.998,2.214-12.111,3.583-15.977v5.869h-0.015
		l-4.782,36.859l5.462,0.008l0.001,25.77c0,3.279,2.659,5.936,5.939,5.936c3.279,0,5.938-2.658,5.938-5.938l-0.001-25.754h0.844
		L62.858,119.6c0,3.279,2.658,5.938,5.938,5.938c0,0,0,0,0,0c3.279,0,5.938-2.658,5.938-5.938l0.001-25.738l6.561,0.008
		l-5.328-36.695v-7.563c1.607,4.012,2.978,9.527,4.142,17.461c0.367,2.498,2.513,4.297,4.965,4.297c0.243,0,0.488-0.02,0.736-0.055
		C88.556,70.912,90.455,68.359,90.053,65.615z"/>
</g>
</svg>
