<?xml version="1.0" encoding="utf-8"?>
<!-- Generator: Adobe Illustrator 16.0.0, SVG Export Plug-In . SVG Version: 6.00 Build 0)  -->
<!DOCTYPE svg PUBLIC "-//W3C//DTD SVG 1.1//EN" "http://www.w3.org/Graphics/SVG/1.1/DTD/svg11.dtd">
<svg version="1.1" id="Layer_2" xmlns="http://www.w3.org/2000/svg" xmlns:xlink="http://www.w3.org/1999/xlink" x="0px" y="0px"
	 width="126px" height="126px" viewBox="0 0 126 126" enable-background="new 0 0 126 126" xml:space="preserve">
<g>
	<path d="M108.473,79.244l-0.78-23.531c-0.165-5.694-4.915-10.176-10.61-10.012c-4.595,0.134-8.395,3.253-9.608,7.444l-6.905,9.452
		l-13.678-0.214c-2.283-0.016-4.21,1.807-4.245,4.118c-0.032,1.974,1.315,3.64,3.147,4.107H9.998c-1.49,0-2.699,1.21-2.699,2.699
		c0,1.489,1.209,2.699,2.699,2.699h2.626c-0.755,1.418-1.188,3.034-1.188,4.75v33.348c0,5.596,4.553,10.149,10.15,10.149
		c1.489,0,2.698-1.21,2.698-2.699c0-1.488-1.209-2.7-2.698-2.7c-2.621,0-4.75-2.131-4.75-4.75V80.757c0-2.62,2.129-4.75,4.75-4.75
		h32.779c2.618,0,4.75,2.13,4.75,4.75v33.348c0,2.619-2.132,4.75-4.75,4.75c-1.489,0-2.699,1.211-2.699,2.7
		c0,1.489,1.21,2.699,2.699,2.699c5.595,0,10.147-4.553,10.147-10.149V80.757c0-1.717-0.431-3.332-1.186-4.75h9.549
		c1.489,0,2.699-1.21,2.699-2.699c0-1.087-0.648-2.019-1.576-2.447l8.604,0.134h0.065c1.334,0,2.589-0.636,3.377-1.716l1.41-1.93
		l0.37,10.538l-7.401,0.225c-2.977,0.09-5.413,2.403-5.655,5.373l-1.503,18.314c-0.025,0.159-0.049,0.319-0.062,0.483l-0.393,5.048
		l-0.638,7.786c-0.002,0.009,0,0.018-0.002,0.027c0,0,0.012,0.001,0.034,0.003l-0.137,1.762c-0.248,3.193,2.14,5.983,5.334,6.231
		c0.152,0.012,0.303,0.018,0.454,0.018c2.999,0,5.54-2.311,5.776-5.352l2.377-28.146l16.727-0.508
		c3.232-0.099,5.773-2.798,5.676-6.03C108.4,82.648,108.5,80.141,108.473,79.244z"/>
	<path d="M118.662,80.992c-0.016-0.727-0.031-1.417-0.031-2.045V50.965h-6.692v27.982c0,0.671,0.016,1.411,0.033,2.19
		c0.063,2.94,0.171,7.863-1.076,9.345c-1.672,1.988-6.479,1.921-10.347,1.866c-0.682-0.009-1.35-0.019-1.993-0.019H87.328v6.692
		h9.602v15.697h-3.132c-3.55,0-6.44,2.889-6.44,6.44h5.02c0-0.783,0.637-1.421,1.421-1.421h12.864c0.782,0,1.421,0.638,1.421,1.421
		h5.02c0-3.551-2.891-6.44-6.44-6.44h-3.04V99.052c4.537-0.071,9.396-0.697,12.396-4.263
		C118.887,91.375,118.763,85.618,118.662,80.992z"/>
	<polygon points="62.049,68.822 62.107,65.478 44.271,65.164 40.866,43.759 37.563,44.286 41.406,68.46 	"/>
	<path d="M56.284,34.787c9.109,0,16.521-7.411,16.521-16.52c0-9.11-7.411-16.521-16.521-16.521S39.764,9.157,39.764,18.267
		C39.764,27.375,47.175,34.787,56.284,34.787z M43.229,16.593c0.757-5.926,5.455-10.626,11.383-11.383v1.702h3.346V5.21
		c5.928,0.756,10.628,5.457,11.383,11.383h-1.702v3.346h1.702c-0.755,5.926-5.455,10.626-11.383,11.383v-2.038h-3.346v2.038
		c-5.928-0.757-10.626-5.458-11.383-11.383h1.702v-3.346H43.229z"/>
	<polygon points="64.588,17.43 57.121,17.43 57.121,9.135 55.449,9.135 55.449,19.103 64.588,19.103 	"/>
	<circle cx="92.156" cy="34.787" r="10.86"/>
</g>
</svg>
