<?xml version="1.0" encoding="utf-8"?>
<!-- Generator: Adobe Illustrator 16.0.0, SVG Export Plug-In . SVG Version: 6.00 Build 0)  -->
<!DOCTYPE svg PUBLIC "-//W3C//DTD SVG 1.1//EN" "http://www.w3.org/Graphics/SVG/1.1/DTD/svg11.dtd">
<svg version="1.1" id="Layer_3" xmlns="http://www.w3.org/2000/svg" xmlns:xlink="http://www.w3.org/1999/xlink" x="0px" y="0px"
	 width="126px" height="126px" viewBox="0 0 126 126" enable-background="new 0 0 126 126" xml:space="preserve">
<g>
	<circle cx="63.11" cy="13.976" r="12.793"/>
	<path d="M86.662,38.859c-0.97-2.566-3.835-3.857-6.401-2.89c-0.911,0.344-2.348,0.869-5.545-2.555
		c-0.666-1.097-1.522-2.073-2.513-2.91c-0.139-0.129-0.282-0.244-0.431-0.354c-1.615-1.256-3.522-2.162-5.476-2.641l-3.187,3.208
		l-3.09-3.243c-0.01,0.004-0.021,0.004-0.031,0.007c-1.669,0.398-3.303,1.114-4.755,2.09c-0.753,0.321-1.445,0.813-1.982,1.508
		c-0.228,0.297-0.445,0.564-0.66,0.827c-0.105,0.125-0.209,0.25-0.31,0.378c-3.911,4.668-5.543,4.063-6.543,3.685
		c-2.565-0.968-5.432,0.324-6.402,2.89c-0.97,2.566,0.324,5.433,2.889,6.402c1.301,0.491,2.543,0.761,3.728,0.858v35.834
		c0,0.998,0.81,1.806,1.806,1.806h2.913l0.003,35.188c0,3.241,2.628,5.869,5.87,5.869c3.243,0,5.87-2.628,5.87-5.87L62.411,83.76
		h0.838l-0.002,35.188c0,3.242,2.628,5.87,5.869,5.87c3.242,0,5.87-2.628,5.87-5.87l0.002-35.188h3.475
		c0.997,0,1.806-0.808,1.806-1.806V46.101c1.118-0.113,2.286-0.379,3.504-0.839C86.339,44.292,87.633,41.426,86.662,38.859z
		 M63.142,31.194l1.447,9.672h-2.955l1.447-9.672H63.142z M76.657,80.147H49.565V45.118c0.195-0.226,0.405-0.436,0.621-0.641h26.471
		V80.147z"/>
</g>
</svg>
