<?xml version="1.0" encoding="utf-8"?>
<!-- Generator: Adobe Illustrator 16.0.0, SVG Export Plug-In . SVG Version: 6.00 Build 0)  -->
<!DOCTYPE svg PUBLIC "-//W3C//DTD SVG 1.1//EN" "http://www.w3.org/Graphics/SVG/1.1/DTD/svg11.dtd">
<svg version="1.1" id="Layer_3" xmlns="http://www.w3.org/2000/svg" xmlns:xlink="http://www.w3.org/1999/xlink" x="0px" y="0px"
	 width="126px" height="126px" viewBox="0 0 126 126" enable-background="new 0 0 126 126" xml:space="preserve">
<g>
	<circle cx="63.39" cy="17.07" r="12.671"/>
	<path d="M97.949,8.369c1.482-2.276,0.84-5.323-1.436-6.807c-2.276-1.484-5.324-0.84-6.807,1.436L70.673,32.202
		c-1.285-0.785-2.692-1.375-4.126-1.727l-3.155,3.178l-3.061-3.212c-0.011,0.002-0.021,0.003-0.032,0.005
		c-1.667,0.399-3.302,1.118-4.749,2.098L36.294,2.998c-1.483-2.277-4.53-2.92-6.807-1.436s-2.918,4.531-1.436,6.807l21.38,32.807
		c0.279,0.427,0.618,0.79,0.991,1.099v27.185c0,2.165,0.672,4.097,1.797,5.728l-15.097,42.28c-1.079,3.024,0.497,6.351,3.521,7.43
		c0.645,0.23,1.306,0.34,1.954,0.34c2.388,0,4.626-1.482,5.476-3.861L62.63,80.607c0.254,0.013,0.506,0.031,0.761,0.031
		c0.711,0,1.417-0.062,2.114-0.162l14.603,40.899c0.849,2.378,3.087,3.861,5.475,3.861c0.649,0,1.309-0.11,1.955-0.34
		c3.024-1.08,4.6-4.406,3.521-7.43L75.423,73.675c0.593-1.275,0.937-2.686,0.937-4.216V41.491c0-0.012-0.001-0.023-0.001-0.034
		c0.07-0.093,0.146-0.182,0.21-0.281L97.949,8.369z"/>
</g>
</svg>
