<?xml version="1.0" encoding="utf-8"?>
<!-- Generator: Adobe Illustrator 16.0.0, SVG Export Plug-In . SVG Version: 6.00 Build 0)  -->
<!DOCTYPE svg PUBLIC "-//W3C//DTD SVG 1.1//EN" "http://www.w3.org/Graphics/SVG/1.1/DTD/svg11.dtd">
<svg version="1.1" id="Layer_2" xmlns="http://www.w3.org/2000/svg" xmlns:xlink="http://www.w3.org/1999/xlink" x="0px" y="0px"
	 width="126px" height="126px" viewBox="0 0 126 126" enable-background="new 0 0 126 126" xml:space="preserve">
<g>
	<path d="M38.173,14.017c0.371,0.234,0.892,0.372,1.546,0.415l0.391,0.021l0.531,1.715c-0.275,0.069-0.594,0.114-0.949,0.136
		c-0.417,0.024-0.796,0.012-1.127-0.041l-0.214-0.033l0.429,1.383l0.087,0.01c0.611,0.078,1.335,0,2.156-0.228l0.34,1.095
		l0.947-0.292l-0.353-1.139c0.633-0.293,1.086-0.661,1.35-1.098c0.284-0.471,0.344-0.98,0.178-1.518
		c-0.135-0.435-0.39-0.767-0.756-0.984c-0.361-0.215-0.907-0.344-1.671-0.394l-0.347-0.022l-0.515-1.655
		c0.491-0.096,1.012-0.124,1.551-0.084l0.136,0.01l0.104-1.333l-0.132-0.011c-0.682-0.063-1.369-0.007-2.048,0.165L39.54,9.274
		l-0.947,0.292l0.274,0.885c-0.579,0.268-1.012,0.612-1.284,1.029c-0.296,0.455-0.368,0.947-0.208,1.463
		C37.523,13.418,37.79,13.779,38.173,14.017z M41.735,14.633c0.146,0.068,0.241,0.183,0.292,0.347
		c0.038,0.122,0.148,0.479-0.459,0.829l-0.405-1.307C41.412,14.525,41.604,14.569,41.735,14.633z M38.904,12.042
		c0.071-0.12,0.192-0.228,0.356-0.325l0.391,1.261c-0.236-0.032-0.414-0.08-0.529-0.146c-0.133-0.075-0.223-0.192-0.274-0.357
		C38.801,12.322,38.819,12.181,38.904,12.042z"/>
	<path d="M86.44,13.717l-0.085,1.145l0.988,0.075l0.089-1.188c0.697-0.041,1.254-0.217,1.659-0.527
		c0.437-0.332,0.68-0.786,0.723-1.345c0.033-0.455-0.082-0.856-0.343-1.194c-0.257-0.332-0.719-0.651-1.41-0.979l-0.315-0.147
		l0.129-1.728c0.494,0.091,0.988,0.255,1.475,0.49l0.122,0.059l0.586-1.201l-0.118-0.06c-0.611-0.308-1.271-0.508-1.966-0.597
		l0.067-0.898l-0.99-0.075l-0.068,0.924c-0.638,0.035-1.166,0.199-1.572,0.486c-0.443,0.315-0.689,0.747-0.729,1.283
		c-0.037,0.496,0.078,0.931,0.348,1.292c0.259,0.354,0.691,0.674,1.286,0.954l0.355,0.162l-0.135,1.79
		c-0.282-0.037-0.595-0.111-0.934-0.223c-0.397-0.13-0.744-0.28-1.033-0.451l-0.187-0.108l-0.108,1.443l0.078,0.041
		C84.892,13.435,85.595,13.628,86.44,13.717z M87.633,11.08c0.223,0.112,0.385,0.223,0.484,0.33c0.11,0.118,0.157,0.258,0.143,0.431
		c-0.009,0.127-0.036,0.499-0.729,0.604L87.633,11.08z M86.347,8.776c-0.097-0.119-0.138-0.261-0.125-0.434
		c0.014-0.158,0.081-0.282,0.212-0.382c0.11-0.086,0.261-0.14,0.451-0.171l-0.101,1.316C86.576,8.99,86.429,8.88,86.347,8.776z"/>
	<path d="M69.143,8.618c0.328,0.062,0.734,0.012,1.206-0.146l0.282-0.096l0.861,1.055c-0.175,0.128-0.387,0.252-0.631,0.366
		c-0.285,0.137-0.557,0.234-0.805,0.291l-0.16,0.039l0.695,0.852l0.064-0.017c0.453-0.12,0.938-0.381,1.455-0.775l0.55,0.675
		l0.582-0.477l-0.572-0.701c0.364-0.385,0.577-0.771,0.639-1.155c0.066-0.412-0.037-0.789-0.306-1.121
		c-0.219-0.265-0.491-0.427-0.812-0.476c-0.316-0.049-0.736,0.015-1.29,0.195l-0.25,0.083l-0.833-1.017
		c0.319-0.207,0.677-0.376,1.069-0.502l0.097-0.031l-0.304-0.967l-0.097,0.029c-0.498,0.148-0.965,0.385-1.396,0.699l-0.431-0.531
		l-0.586,0.475l0.444,0.545c-0.33,0.355-0.538,0.719-0.611,1.091c-0.079,0.405,0.012,0.77,0.271,1.088
		C68.515,8.382,68.807,8.561,69.143,8.618z M71.825,8.039c0.124,0.009,0.222,0.062,0.304,0.164c0.063,0.074,0.244,0.294-0.085,0.713
		l-0.658-0.805C71.569,8.059,71.717,8.033,71.825,8.039z M69.255,6.692l0.633,0.775c-0.176,0.045-0.313,0.062-0.412,0.048
		c-0.116-0.015-0.214-0.073-0.296-0.173c-0.075-0.096-0.103-0.2-0.082-0.321C69.113,6.916,69.166,6.806,69.255,6.692z"/>
	<path d="M51.073,7.065l-0.812,0.81l0.699,0.703l0.844-0.841c0.553,0.425,1.09,0.655,1.599,0.687
		c0.548,0.032,1.028-0.151,1.426-0.547c0.323-0.322,0.499-0.701,0.522-1.127c0.021-0.42-0.118-0.963-0.427-1.663l-0.143-0.316
		l1.229-1.227c0.313,0.394,0.579,0.841,0.793,1.337l0.055,0.125l1.228-0.527l-0.049-0.121c-0.262-0.633-0.631-1.216-1.098-1.738
		l0.639-0.636l-0.7-0.702l-0.656,0.653c-0.506-0.39-1.012-0.61-1.508-0.661c-0.541-0.05-1.011,0.116-1.391,0.496
		c-0.353,0.351-0.549,0.756-0.582,1.205c-0.034,0.438,0.084,0.962,0.351,1.563l0.162,0.355l-1.271,1.266
		c-0.188-0.211-0.377-0.472-0.561-0.778c-0.216-0.358-0.379-0.698-0.487-1.017l-0.069-0.204l-1.026,1.021l0.032,0.082
		C50.085,5.839,50.49,6.445,51.073,7.065z M54.421,2.855c0.113-0.111,0.246-0.16,0.41-0.15c0.14,0.008,0.288,0.065,0.452,0.165
		l-0.935,0.932c-0.083-0.226-0.122-0.405-0.117-0.536C54.237,3.112,54.299,2.978,54.421,2.855z M53.7,5.85
		c0.094,0.229,0.145,0.42,0.15,0.566c0.007,0.162-0.05,0.299-0.173,0.418c-0.092,0.091-0.354,0.355-0.947-0.02L53.7,5.85z"/>
	<circle cx="75.261" cy="48.691" r="8.776"/>
	<path d="M81.099,59.605c-0.147-0.091-0.303-0.155-0.457-0.223c-0.978-0.65-2.076-1.131-3.194-1.405l-2.186,2.2l-2.121-2.224
		c-0.007,0.001-0.015,0.001-0.021,0.003c-1.145,0.273-2.268,0.766-3.264,1.436c-0.289,0.125-0.57,0.274-0.824,0.483
		c-2.03,1.669-3.666,2.374-4.793,2.512V35.233c2.691,0.529,5.049,1.989,6.703,4.048c2.098-2.606,5.308-4.279,8.915-4.279
		c4.461,0,8.316,2.56,10.201,6.283h0.333c0-14.922-11.608-27.126-26.285-28.095v-2.953h-3.758v2.953
		c-14.679,0.969-26.285,13.173-26.285,28.095h0.332c1.886-3.724,5.74-6.283,10.201-6.283c3.495,0,6.618,1.572,8.715,4.041
		c1.728-2.031,4.154-3.438,6.903-3.879v23.144c-0.681-0.354-1.482-0.479-2.288-0.305c-1.84,0.4-3.007,2.215-2.606,4.054
		c0.28,1.287,0.773,2.44,1.433,3.432c-1.24-0.293-2.17-1.403-2.17-2.734h-4.025c0,3.771,3.07,6.84,6.843,6.84
		c1.229,0,2.378-0.332,3.377-0.899c0.046,0.017,0.089,0.041,0.138,0.059c0.71,0.246,1.685,0.467,2.888,0.467
		c0.741,0,1.569-0.083,2.476-0.296v16.058c0,0.917,0.178,1.771,0.488,2.558c-0.021,0.177-0.038,0.357-0.038,0.539l0.001,32.631
		c0,2.224,1.805,4.025,4.028,4.025s4.026-1.802,4.026-4.027l-0.002-28.001c0.16,0.007,0.32,0.019,0.48,0.019
		c0.031,0,0.062-0.002,0.094-0.004l-0.002,27.986c0,2.226,1.805,4.027,4.027,4.027c2.224,0,4.025-1.802,4.025-4.027l0.002-32.429
		c0.528-0.978,0.836-2.084,0.836-3.297v-10.95c0.793,2.885,1.115,6.732,0.701,12.035c-0.146,1.875,1.255,3.516,3.131,3.663
		c0.09,0.008,0.18,0.011,0.269,0.011c1.763,0,3.255-1.355,3.394-3.142C93.082,69.434,87.419,63.48,81.099,59.605z M75.28,77.549
		h-0.041l-2.115-2.896l2.115-14.148h0.041l2.118,14.148L75.28,77.549z"/>
</g>
</svg>
