<?xml version="1.0" encoding="utf-8"?>
<!-- Generator: Adobe Illustrator 16.0.0, SVG Export Plug-In . SVG Version: 6.00 Build 0)  -->
<!DOCTYPE svg PUBLIC "-//W3C//DTD SVG 1.1//EN" "http://www.w3.org/Graphics/SVG/1.1/DTD/svg11.dtd">
<svg version="1.1" id="Layer_2" xmlns="http://www.w3.org/2000/svg" xmlns:xlink="http://www.w3.org/1999/xlink" x="0px" y="0px"
	 width="126px" height="126px" viewBox="0 0 126 126" enable-background="new 0 0 126 126" xml:space="preserve">
<g>
	<circle cx="32.016" cy="13.71" r="12.862"/>
	<path d="M117.723,69.574c-0.521-0.667-1.322-1.057-2.168-1.057H82.556c-1.52,0-2.752,1.233-2.752,2.754s1.232,2.753,2.752,2.753
		h29.477l-1.801,7.265H80.617c-1.521,0-2.755,1.233-2.755,2.754c0,1.521,1.234,2.754,2.755,2.754h28.248l-1.799,7.255H73.398
		l-5.945-33.421c-0.16-0.899-0.75-1.623-1.534-1.995c1.047-0.715,1.835-1.813,2.096-3.156c0.527-2.707-1.241-5.329-3.949-5.855
		c-4.941-0.961-8.958-5.503-13.209-10.312c-3.138-3.549-6.383-7.218-10.283-9.611c-0.217-0.133-0.444-0.229-0.672-0.324
		c-1.433-0.955-3.04-1.659-4.681-2.061l-3.205,3.226l-3.106-3.261c-0.011,0.003-0.021,0.003-0.031,0.006
		c-1.651,0.395-3.273,1.098-4.717,2.056c-0.037,0.016-0.075,0.027-0.114,0.044C5.941,37.351,7.691,67.897,7.774,69.194
		c0.169,2.643,2.367,4.672,4.979,4.672c0.106,0,0.215-0.003,0.323-0.009c2.752-0.177,4.842-2.552,4.664-5.303
		c-0.194-3.015-0.075-8.864,1.109-14.667v13.007c0,1.344,0.261,2.597,0.718,3.749c-0.034,0.26-0.059,0.522-0.059,0.791l0.004,47.818
		c0,3.26,2.642,5.902,5.9,5.902c3.262-0.001,5.903-2.643,5.903-5.902l-0.004-41.038c0.235,0.011,0.469,0.03,0.702,0.03
		c0.046,0,0.092-0.005,0.14-0.006l-0.002,41.014c0,3.259,2.642,5.902,5.9,5.902c3.26,0,5.903-2.643,5.903-5.902V71.725
		c0.773-1.433,1.224-3.055,1.224-4.832V47.961c3.916,4.343,8.363,8.731,14.243,10.733c-0.869,0.463-1.468,1.368-1.468,2.422
		c0,1.521,1.232,2.754,2.753,2.754h1.726l5.94,33.393l2.269,13.801c0.104,0.64,0.43,1.195,0.885,1.602
		c-1.844,0.845-3.128,2.703-3.128,4.864c0,2.957,2.396,5.353,5.353,5.353c2.954,0,5.353-2.396,5.353-5.353
		c0-1.679-0.776-3.178-1.985-4.159h25.353c-1.209,0.981-1.985,2.479-1.985,4.159c0,2.957,2.396,5.353,5.353,5.353
		c2.955,0,5.353-2.396,5.353-5.353c0-2.052-1.157-3.831-2.851-4.73c0.659-0.502,1.091-1.289,1.091-2.182
		c0-1.521-1.232-2.754-2.755-2.754H75.7l-1.366-8.3h34.886c1.266,0,2.369-0.863,2.675-2.091l6.333-25.538
		C118.43,71.112,118.244,70.242,117.723,69.574z M31.986,56.002l-3.101-4.245l3.101-20.735h0.061l3.103,20.735l-3.103,4.245H31.986z
		"/>
</g>
</svg>
