<?xml version="1.0" encoding="utf-8"?>
<!-- Generator: Adobe Illustrator 16.0.0, SVG Export Plug-In . SVG Version: 6.00 Build 0)  -->
<!DOCTYPE svg PUBLIC "-//W3C//DTD SVG 1.1//EN" "http://www.w3.org/Graphics/SVG/1.1/DTD/svg11.dtd">
<svg version="1.1" id="Layer_2" xmlns="http://www.w3.org/2000/svg" xmlns:xlink="http://www.w3.org/1999/xlink" x="0px" y="0px"
	 width="126px" height="126px" viewBox="0 0 126 126" enable-background="new 0 0 126 126" xml:space="preserve">
<g>
	<circle cx="72.686" cy="13.859" r="12.824"/>
	<path d="M81.215,29.803c-0.215-0.131-0.441-0.225-0.665-0.321c-1.43-0.953-3.032-1.655-4.67-2.056l-3.194,3.215l-3.098-3.251
		c-0.012,0.003-0.021,0.004-0.03,0.006c-1.67,0.399-3.309,1.114-4.76,2.089c-0.22,0.094-0.444,0.188-0.658,0.318
		c-3.344,2.052-6.136,5.282-8.835,8.404c-6.179,7.148-8.91,9.208-12.917,7.336c-2.493-1.164-5.455-0.088-6.619,2.402
		c-1.164,2.493-0.089,5.456,2.403,6.619c2.443,1.142,4.724,1.628,6.852,1.628c5.996,0,10.774-3.862,14.536-7.812v18.499
		c0,1.341,0.259,2.589,0.716,3.738c-0.035,0.259-0.06,0.52-0.06,0.788l0.005,47.675c0,3.25,2.633,5.884,5.884,5.883
		c3.251,0,5.885-2.634,5.885-5.884l-0.004-40.915c0.233,0.011,0.468,0.029,0.7,0.029c0.045,0,0.091-0.005,0.138-0.005l-0.001,40.891
		c0,3.25,2.633,5.884,5.883,5.884c3.251,0,5.885-2.634,5.885-5.884l0.002-47.382c0.771-1.428,1.22-3.045,1.22-4.818V50.883
		c1.158,4.212,1.629,9.837,1.023,17.586c-0.215,2.739,1.834,5.136,4.575,5.35c0.132,0.011,0.264,0.016,0.393,0.016
		c2.574,0,4.754-1.982,4.96-4.591C98.724,44.165,90.449,35.466,81.215,29.803z M72.655,56.022l-3.093-4.232l3.093-20.673h0.06
		l3.094,20.673l-3.094,4.232H72.655z"/>
	<rect x="28.947" y="71.29" width="5.822" height="36.271"/>
	<rect x="36.85" y="71.29" width="5.822" height="36.271"/>
	<rect x="44.753" y="71.29" width="5.821" height="36.271"/>
	<path d="M50.551,61.374c0-2.034-1.649-3.683-3.682-3.683H32.632c-2.038,0-3.685,1.648-3.685,3.683v7.67h21.604V61.374z"/>
	<path d="M39.844,124.573l10.9-15.141H28.947L39.844,124.573z M39.844,121.155l-2.69-3.765l5.406-0.007L39.844,121.155z"/>
</g>
</svg>
