<?xml version="1.0" encoding="utf-8"?>
<!-- Generator: Adobe Illustrator 16.0.0, SVG Export Plug-In . SVG Version: 6.00 Build 0)  -->
<!DOCTYPE svg PUBLIC "-//W3C//DTD SVG 1.1//EN" "http://www.w3.org/Graphics/SVG/1.1/DTD/svg11.dtd">
<svg version="1.1" id="Layer_2" xmlns="http://www.w3.org/2000/svg" xmlns:xlink="http://www.w3.org/1999/xlink" x="0px" y="0px"
	 width="126px" height="126px" viewBox="0 0 126 126" enable-background="new 0 0 126 126" xml:space="preserve">
<g>
	<path d="M17.941,59.495l3.987,3.482c0,0-0.324-6.113,0.082-12.728c0.152,0.006,0.302,0.022,0.458,0.022
		c0.49,0,0.97-0.05,1.442-0.124c1.778,6.404,2.842,12.829,2.842,12.829l3.09-4.253l4.908,1.22l-6.189-11.937
		c2.004-1.722,3.281-4.269,3.281-7.111c0-5.17-4.205-9.377-9.375-9.377c-5.17,0-9.377,4.207-9.377,9.377
		c0,3.177,1.593,5.986,4.019,7.684l-5.312,13.418L17.941,59.495z M22.468,36.045c2.673,0,4.849,2.175,4.849,4.85
		c0,2.673-2.175,4.849-4.849,4.849c-2.676,0-4.851-2.175-4.851-4.849C17.617,38.221,19.792,36.045,22.468,36.045z"/>
	<rect x="43.617" y="34.202" width="20.151" height="4.298"/>
	<rect x="37.964" y="45.099" width="25.804" height="4.299"/>
	<rect x="37.964" y="56.503" width="25.804" height="4.298"/>
	<rect x="13.111" y="69.184" width="51.06" height="4.299"/>
	<rect x="13.111" y="82.079" width="51.06" height="4.3"/>
	<rect x="13.111" y="96.32" width="51.06" height="4.299"/>
	<path d="M109.782,32.19c-0.153-0.093-0.316-0.156-0.476-0.229c-1.299-0.853-2.753-1.48-4.233-1.842l-2.953,2.972l-2.863-3.005
		c-0.01,0.003-0.021,0.003-0.029,0.005c-1.42,0.34-2.814,0.929-4.074,1.722c-0.314,0.096-0.625,0.22-0.923,0.388
		c-1.835,1.032-3.581,1.232-5.493,0.637c-6.328-1.973-12.224-11.629-13.959-15.179c-1.111-2.286-3.864-3.239-6.15-2.129
		c-1.229,0.598-2.056,1.674-2.4,2.894H1.021v101.124h73.887V34c3.029,3.276,6.771,6.271,11.07,7.617
		c1.332,0.417,2.673,0.65,4.01,0.72v24.251c0,1.252,0.246,2.418,0.676,3.49c-0.03,0.231-0.07,0.461-0.07,0.7l0.045,44.067
		c0.004,3.001,2.437,5.433,5.438,5.433c0.002,0,0.004,0,0.006,0c3.003-0.002,5.436-2.44,5.433-5.444l-0.039-37.814
		c0.214,0.011,0.427,0.028,0.642,0.028c0.044,0,0.089-0.005,0.133-0.005l0.035,37.802c0.003,3.001,2.437,5.433,5.439,5.433
		c0.001,0,0.003,0,0.004,0c3.004-0.002,5.437-2.44,5.434-5.443l-0.039-43.225c0.286,0.272,0.597,0.523,0.96,0.721
		c0.699,0.38,1.452,0.56,2.196,0.56c1.631,0,3.211-0.869,4.046-2.403C133.311,46.622,115.602,35.759,109.782,32.19z M68.459,26.219
		v86.878H7.469V24.871h60.758c0.081,0.137,0.165,0.277,0.25,0.421L68.459,26.219z M102.148,56.551h-0.056l-2.858-3.912l2.858-19.108
		h0.056l2.857,19.108L102.148,56.551z M114.252,61.769V48.609C116.009,51.935,116.403,56.143,114.252,61.769z"/>
	<circle cx="102.119" cy="17.577" r="11.854"/>
</g>
</svg>
