<?xml version="1.0" encoding="utf-8"?>
<!-- Generator: Adobe Illustrator 16.0.0, SVG Export Plug-In . SVG Version: 6.00 Build 0)  -->
<!DOCTYPE svg PUBLIC "-//W3C//DTD SVG 1.1//EN" "http://www.w3.org/Graphics/SVG/1.1/DTD/svg11.dtd">
<svg version="1.1" id="Layer_2" xmlns="http://www.w3.org/2000/svg" xmlns:xlink="http://www.w3.org/1999/xlink" x="0px" y="0px"
	 width="126px" height="126px" viewBox="0 0 126 126" enable-background="new 0 0 126 126" xml:space="preserve">
<g>
	<circle cx="40.718" cy="13.885" r="12.817"/>
	<path d="M53.837,50.404c4.167,6.307,8.904,13.375,15.676,18.747c0.915,0.726,2.006,1.077,3.089,1.077
		c1.467,0,2.92-0.645,3.902-1.883c1.708-2.153,1.347-5.283-0.806-6.991c-5.675-4.501-9.821-10.777-13.831-16.846
		c-3.965-6.003-7.711-11.673-12.624-14.687c-0.215-0.132-0.441-0.226-0.666-0.321c-1.428-0.953-3.031-1.654-4.666-2.055
		l-3.192,3.214l-3.096-3.249c-0.011,0.002-0.022,0.002-0.032,0.006c-1.662,0.397-3.292,1.108-4.74,2.078
		c-0.245,0.104-0.49,0.213-0.723,0.36c-6.882,4.335-18.054,15.234-15.55,39.509c0.264,2.56,2.425,4.465,4.944,4.465
		c0.17,0,0.343-0.009,0.517-0.026c2.734-0.282,4.721-2.727,4.439-5.461C25.78,61.58,26.354,56.214,27.6,51.96v14.918
		c0,1.339,0.26,2.588,0.715,3.737c-0.035,0.258-0.059,0.52-0.059,0.788l0.003,47.649c0.001,3.248,2.633,5.88,5.881,5.88
		c3.248,0,5.88-2.633,5.88-5.881l-0.003-40.893c0.233,0.011,0.466,0.03,0.7,0.03c0.046,0,0.091-0.005,0.137-0.005l-0.001,40.869
		c0,3.248,2.632,5.881,5.88,5.881l0,0c3.248,0,5.881-2.633,5.881-5.88l0.001-47.357c0.771-1.427,1.219-3.043,1.219-4.815V50.404z
		 M40.689,56.027l-3.09-4.23l3.09-20.661h0.06l3.09,20.661l-3.09,4.23H40.689z"/>
	<path d="M107.492,100.588l-2.91-1.074c0.23-2.122,0.156-4.285-0.244-6.437l2.811-1.294c1.755-0.806,2.523-2.893,1.716-4.647
		l-1.64-3.56c-0.809-1.755-2.894-2.527-4.646-1.718l-2.813,1.297c-1.375-1.703-2.97-3.166-4.729-4.371l1.073-2.906
		c0.668-1.813-0.262-3.833-2.072-4.502l-3.68-1.359c-1.754-0.646-3.852,0.319-4.5,2.071l-1.072,2.91
		c-2.12-0.228-4.284-0.152-6.434,0.245l-1.295-2.808c-0.809-1.755-2.895-2.525-4.647-1.718l-3.562,1.64
		c-1.756,0.809-2.523,2.896-1.719,4.647l1.297,2.811c-1.701,1.377-3.164,2.972-4.371,4.732l-2.903-1.073
		c-1.754-0.652-3.854,0.313-4.502,2.071l-1.359,3.68c-0.325,0.879-0.288,1.83,0.104,2.679c0.396,0.85,1.091,1.498,1.968,1.817
		l2.91,1.078c-0.23,2.118-0.155,4.283,0.244,6.432l-2.81,1.295c-1.755,0.809-2.524,2.892-1.718,4.645l1.643,3.565
		c0.808,1.751,2.89,2.523,4.647,1.714l2.81-1.295c1.375,1.701,2.972,3.165,4.732,4.368l-1.074,2.907
		c-0.325,0.878-0.289,1.829,0.103,2.679c0.391,0.851,1.091,1.5,1.968,1.824l3.681,1.358c0.875,0.323,1.826,0.286,2.678-0.103
		c0.851-0.394,1.497-1.094,1.818-1.97l1.077-2.91c2.12,0.23,4.282,0.155,6.435-0.245l1.292,2.812
		c0.81,1.752,2.896,2.522,4.649,1.715l3.562-1.641c1.758-0.809,2.524-2.892,1.716-4.648l-1.294-2.809
		c1.701-1.377,3.164-2.97,4.367-4.732l2.909,1.075c0.879,0.325,1.831,0.287,2.682-0.105c0.848-0.39,1.493-1.09,1.816-1.966
		l1.361-3.68C110.232,103.275,109.303,101.256,107.492,100.588z M88.225,109.738c-1.836,0.846-3.785,1.274-5.792,1.274
		c-5.394,0-10.335-3.165-12.59-8.06c-3.193-6.939-0.15-15.184,6.786-18.38c1.836-0.844,3.785-1.272,5.79-1.272
		c5.392,0,10.336,3.163,12.592,8.058C98.204,98.299,95.16,106.542,88.225,109.738z"/>
</g>
</svg>
