<?xml version="1.0" encoding="utf-8"?>
<!-- Generator: Adobe Illustrator 16.0.0, SVG Export Plug-In . SVG Version: 6.00 Build 0)  -->
<!DOCTYPE svg PUBLIC "-//W3C//DTD SVG 1.1//EN" "http://www.w3.org/Graphics/SVG/1.1/DTD/svg11.dtd">
<svg version="1.1" id="Layer_2" xmlns="http://www.w3.org/2000/svg" xmlns:xlink="http://www.w3.org/1999/xlink" x="0px" y="0px"
	 width="126px" height="126px" viewBox="0 0 126 126" enable-background="new 0 0 126 126" xml:space="preserve">
<g>
	<circle cx="41.696" cy="13.754" r="12.851"/>
	<path d="M68.836,65.596c-2.985-20.347-7.502-29.062-18.593-35.862c-0.215-0.13-0.439-0.225-0.663-0.32
		c-1.433-0.956-3.042-1.66-4.682-2.063l-3.202,3.223l-3.104-3.258c-0.01,0.002-0.021,0.002-0.031,0.007
		c-2.375,0.567-4.684,1.772-6.488,3.463c-9.908,6.664-14.127,15.495-16.96,34.811c-0.4,2.727,1.485,5.261,4.212,5.661
		c0.245,0.034,0.489,0.053,0.73,0.053c2.436,0,4.566-1.784,4.93-4.266c1.02-6.95,2.198-12.027,3.559-15.864v7.25l-6.848,38.296
		h7.508l0.002,22.478c0,3.255,2.64,5.894,5.896,5.894c3.258,0,5.897-2.639,5.897-5.896l-0.002-22.476h0.838l-0.001,22.476
		c0,3.257,2.64,5.896,5.896,5.896c3.256,0,5.896-2.639,5.896-5.896l0.001-22.476h9.57l-8.347-40.109v-6.911
		c1.596,3.984,2.957,9.46,4.113,17.339c0.362,2.481,2.494,4.266,4.93,4.266c0.241,0,0.484-0.019,0.729-0.053
		C67.35,70.856,69.236,68.322,68.836,65.596z"/>
	<path d="M110.767,112.968c-0.112-0.438-2.818-10.755-8.991-13.732c-2.259-1.088-4.68-1.069-7.193,0.058
		c-0.208,0.092-0.419,0.193-0.631,0.304c-2.562,1.148-6.041,2.717-6.891,5.597c-2.066-2.908-4.132-6.454-6.004-10.633
		c-1.924-4.295-3.206-8.293-3.997-11.845c2.702,1.215,6.144-0.314,8.68-1.45c0.224-0.084,0.44-0.174,0.648-0.268
		c2.515-1.127,4.14-2.92,4.83-5.33c1.888-6.586-4.008-15.474-4.275-15.87c-3.298-4.646-9.299-1.959-11.271-1.074
		c-1.805,0.809-3.241,2.1-4.24,3.649c-1.941,2.289-3.62,6.206-3.436,12.889c0.184,6.709,2.224,14.725,5.741,22.577
		c6.618,14.775,18.004,27.609,27.646,25.042c0.908-0.125,1.811-0.372,2.687-0.762C106.041,121.234,112.039,118.547,110.767,112.968z
		"/>
</g>
</svg>
