<?xml version="1.0" encoding="utf-8"?>
<!-- Generator: Adobe Illustrator 17.0.0, SVG Export Plug-In . SVG Version: 6.00 Build 0)  -->
<!DOCTYPE svg PUBLIC "-//W3C//DTD SVG 1.1//EN" "http://www.w3.org/Graphics/SVG/1.1/DTD/svg11.dtd">
<svg version="1.1" id="Capa_1" xmlns="http://www.w3.org/2000/svg" xmlns:xlink="http://www.w3.org/1999/xlink" x="0px" y="0px"
	 width="64px" height="64px" viewBox="0 0 64 64" enable-background="new 0 0 64 64" xml:space="preserve">
<path fill="#101111" d="M24.514,17.976c0-2.326,1.886-4.212,4.212-4.212s4.212,1.886,4.212,4.212s-1.886,4.212-4.212,4.212
	S24.514,20.302,24.514,17.976z M29.384,26.998c1.198-3.956-4.263-5.841-6.299-2.956c-2.62,0.58-5.877-0.032-8.145-0.904
	c-0.692-0.266-1.288-0.195-1.752,0.077c-0.334-1.943-2.024-3.423-4.062-3.423C6.848,19.792,5,21.639,5,23.917
	c0,2.279,1.848,4.126,4.126,4.126c1.308,0,2.472-0.61,3.228-1.561c0.248,0.512,0.681,0.952,1.333,1.202
	c2.016,0.775,4.389,1.236,6.749,1.256c-0.744,0.947-1.567,1.841-2.341,2.743c-0.466,0.543-0.781,1.176-0.919,1.83
	c-0.237,0.578-0.244,1.238,0.108,1.854c0.056,0.162,0.123,0.32,0.206,0.477c-0.914,4.637-4.223,9.355-7.319,12.539
	c-2.12,2.18,1.211,5.516,3.333,3.334c3.028-3.113,5.967-7.238,7.609-11.619c1.822,2.893,2.913,6.172,2.984,9.717
	c0.061,3.035,4.776,3.041,4.715,0c-0.104-5.168-1.918-9.975-4.949-14.018C26.154,33.127,28.342,30.445,29.384,26.998z
	 M29.905,26.996c-0.051,1.893-2.264,4.861-2.264,4.861c0.188,0.586,0.667,1.168,0.896,1.74c0.478,1.191,1.592,1.994,2.921,1.609
	c1.142-0.329,2.09-1.724,1.61-2.919C32.605,31.131,29.905,26.996,29.905,26.996z M33.195,49.814v1.689h26.391v-1.689H33.195z"/>
</svg>
