<?xml version="1.0" encoding="utf-8"?>
<!-- Generator: Adobe Illustrator 16.0.0, SVG Export Plug-In . SVG Version: 6.00 Build 0)  -->
<!DOCTYPE svg PUBLIC "-//W3C//DTD SVG 1.1//EN" "http://www.w3.org/Graphics/SVG/1.1/DTD/svg11.dtd">
<svg version="1.1" id="Layer_2" xmlns="http://www.w3.org/2000/svg" xmlns:xlink="http://www.w3.org/1999/xlink" x="0px" y="0px"
	 width="126px" height="126px" viewBox="0 0 126 126" enable-background="new 0 0 126 126" xml:space="preserve">
<g>
	<circle cx="38.001" cy="13.607" r="12.817"/>
	<path d="M64.469,47.942c3.624-0.613,10.422-0.28,10.422-0.28c-0.02-0.815-0.219-1.635-0.661-2.389
		c-1.39-2.371-4.438-3.165-6.81-1.775c-6.776,3.973-8.165,1.861-12.284-4.41c-2.089-3.179-4.456-6.783-8.056-8.99
		c-0.217-0.134-0.442-0.228-0.67-0.324c-1.426-0.95-3.029-1.652-4.663-2.052l-3.192,3.214l-3.097-3.251
		c-0.01,0.003-0.021,0.004-0.031,0.006c-1.668,0.4-3.307,1.115-4.758,2.092c-0.224,0.094-0.444,0.187-0.652,0.315
		c-0.46,0.279-0.917,0.554-1.368,0.826C18.617,36.951,11.69,43.251,13.954,69.555c0.223,2.595,2.395,4.55,4.952,4.55
		c0.141,0,0.286-0.006,0.433-0.018c2.737-0.235,4.766-2.647,4.53-5.384c-0.935-10.868-0.217-17.113,1.566-21.151v19.603
		c0,1.341,0.26,2.59,0.716,3.739c-0.035,0.257-0.06,0.519-0.06,0.784l0.004,47.651c0,3.247,2.632,5.881,5.88,5.881
		c3.249-0.002,5.881-2.634,5.881-5.883l-0.002-40.894c0.231,0.012,0.464,0.03,0.7,0.03c0.045,0,0.091-0.005,0.136-0.005
		l-0.002,40.868c0,3.249,2.634,5.883,5.881,5.883c3.25,0,5.881-2.634,5.881-5.881l0.003-47.36c0.771-1.427,1.22-3.043,1.22-4.814
		v-16.25c1.755,1.774,5.333,3.435,5.333,3.435S60.458,48.62,64.469,47.942z M38.584,56.303h-0.06l-3.092-4.229l3.092-20.663h0.06
		l3.09,20.663L38.584,56.303z"/>
	<path d="M104.745,49.476H67.264c-4.263,0-7.73,3.469-7.73,7.73v58.415c0,4.264,3.468,7.73,7.73,7.73h37.481
		c4.263,0,7.73-3.467,7.73-7.73V57.206C112.476,52.944,109.008,49.476,104.745,49.476z M106.944,115.621
		c0,1.213-0.986,2.199-2.199,2.199H67.264c-1.213,0-2.199-0.986-2.199-2.199V57.206c0-1.213,0.986-2.199,2.199-2.199h37.481
		c1.213,0,2.199,0.986,2.199,2.199V115.621z"/>
	<rect x="68.651" y="58.944" width="34.706" height="12.722"/>
	<rect x="68.582" y="74.753" width="9.68" height="9.68"/>
	<rect x="81.165" y="74.753" width="9.679" height="9.68"/>
	<rect x="93.679" y="74.753" width="9.679" height="9.68"/>
	<rect x="68.582" y="87.82" width="9.68" height="9.68"/>
	<rect x="81.165" y="87.82" width="9.679" height="9.68"/>
	<polygon points="93.679,101.095 93.679,104.69 93.679,110.773 103.357,110.773 103.357,104.69 103.357,101.095 103.357,87.82 
		93.679,87.82 	"/>
	<rect x="68.582" y="101.095" width="9.68" height="9.679"/>
	<rect x="81.165" y="101.095" width="9.679" height="9.679"/>
</g>
</svg>
