<?xml version="1.0" encoding="utf-8"?>
<!-- Generator: Adobe Illustrator 16.0.0, SVG Export Plug-In . SVG Version: 6.00 Build 0)  -->
<!DOCTYPE svg PUBLIC "-//W3C//DTD SVG 1.1//EN" "http://www.w3.org/Graphics/SVG/1.1/DTD/svg11.dtd">
<svg version="1.1" id="Layer_3" xmlns="http://www.w3.org/2000/svg" xmlns:xlink="http://www.w3.org/1999/xlink" x="0px" y="0px"
	 width="126px" height="126px" viewBox="0 0 126 126" enable-background="new 0 0 126 126" xml:space="preserve">
<g>
	<circle cx="63.954" cy="14.48" r="14.15"/>
	<path d="M105.967,30.263l-37.066-0.106c-0.677-0.269-1.361-0.49-2.039-0.65l-3.08,3.115l-3.203-3.086l-0.042,0.007
		c-0.966,0.245-1.942,0.608-2.886,1.071l-37.625,0.139c-3.034,0.011-5.485,2.479-5.474,5.514c0.011,3.027,2.468,5.474,5.493,5.474
		c0.007,0,0.014,0,0.021,0l30.745-0.113l0.242,28.136c-7.96,3.283-18.033,7.782-21.02,10.651c-1.471,1.413-4.917,4.722-8.94,37.984
		c-0.43,3.56,2.106,6.795,5.666,7.226c0.265,0.031,0.528,0.047,0.789,0.047c3.237,0,6.039-2.419,6.437-5.713
		c1.456-12.033,3.923-26.587,5.463-30.458c2.551-1.65,10.609-5.293,18.154-8.382c2.033,0.977,4.322,1.5,6.548,1.48
		c0.068,0,0.135-0.011,0.202-0.013c1.352,6.775,3.21,16.007,3.832,18.657c0.413,1.766,1.511,6.453,22.699,22.6
		c1.176,0.896,2.558,1.329,3.93,1.329c1.957,0,3.891-0.882,5.168-2.558c2.174-2.853,1.624-6.926-1.229-9.1
		c-7.407-5.646-16.194-13.167-18.063-15.829c-0.878-3.947-3.339-16.29-4.493-22.109c0.545-1.214,0.854-2.574,0.842-4.076
		L76.78,41.167l29.156,0.083c0.005,0,0.01,0,0.016,0c3.026,0,5.484-2.449,5.493-5.478C111.454,32.739,109.001,30.271,105.967,30.263
		z"/>
</g>
</svg>
