<?xml version="1.0" encoding="utf-8"?>
<!-- Generator: Adobe Illustrator 16.0.0, SVG Export Plug-In . SVG Version: 6.00 Build 0)  -->
<!DOCTYPE svg PUBLIC "-//W3C//DTD SVG 1.1//EN" "http://www.w3.org/Graphics/SVG/1.1/DTD/svg11.dtd">
<svg version="1.1" id="Layer_2" xmlns="http://www.w3.org/2000/svg" xmlns:xlink="http://www.w3.org/1999/xlink" x="0px" y="0px"
	 width="126px" height="126px" viewBox="0 0 126 126" enable-background="new 0 0 126 126" xml:space="preserve">
<g>
	<circle cx="94.708" cy="13.778" r="12.845"/>
	<path d="M103.252,29.749c-0.192-0.118-0.396-0.199-0.597-0.288c-1.448-0.964-3.081-1.685-4.748-2.093l-3.199,3.221l-3.103-3.256
		c-0.011,0.002-0.021,0.003-0.031,0.006c-1.672,0.4-3.311,1.116-4.767,2.093c-0.222,0.095-0.445,0.188-0.657,0.317
		c-6.17,3.785-20.273,16.034-20.871,16.553c-0.525,0.457-0.93,1-1.215,1.59c-1.728-1.767-3.468-3.006-3.468-3.006L40.534,64.948
		l-18.256-8.045c-0.698-0.307-1.51-0.167-2.064,0.354c-0.554,0.521-0.742,1.325-0.479,2.039l7.143,19.308L5.844,99.637
		c9.019,9.019,21.354,12.699,33.082,11.044c-6.6,10.736-6.059,11.734-5.57,12.624c0.357,0.655,1.047,1.062,1.799,1.062h37.319
		c0.569,0,1.108-0.256,1.468-0.696c0.361-0.44,0.504-1.018,0.391-1.576l-6.415-31.741c5.889-11.077,7.044-23.871,1.027-35.337
		c1.028-0.08,2.043-0.46,2.881-1.19c1.983-1.725,5.834-5.007,9.737-8.183v21.242c0,1.342,0.26,2.594,0.716,3.745
		c-0.035,0.259-0.059,0.521-0.059,0.79l0.004,47.752c0,3.255,2.639,5.894,5.894,5.893s5.894-2.639,5.893-5.894l-0.002-40.981
		c0.232,0.011,0.466,0.03,0.701,0.03c0.046,0,0.092-0.005,0.138-0.006l-0.002,40.958c0,3.255,2.639,5.894,5.894,5.894l0,0
		c3.255,0,5.894-2.639,5.894-5.894l0.002-47.643c0.091-0.177,0.174-0.359,0.256-0.542c0.376,0.089,0.757,0.144,1.138,0.144
		c1.64,0,3.245-0.807,4.198-2.289c2.807-4.36,7.564-12.307,7.911-16.545C120.715,45.192,108.544,32.996,103.252,29.749z
		 M29.829,75.652l-4.984-13.474l12.813,5.646L29.829,75.652z M70.156,120.575H37.647c1.258-2.485,3.849-6.864,6.436-10.985
		c6.209-1.753,12.073-5.064,16.958-9.952c1.458-1.456,2.772-3,3.95-4.614L70.156,120.575z M94.679,56.012l-3.097-4.239l3.097-20.707
		h0.061l3.098,20.707l-3.098,4.239H94.679z M107.856,56.637v-8.648c1.138,1.537,1.967,2.889,2.27,3.756
		C109.85,52.7,109.003,54.501,107.856,56.637z"/>
</g>
</svg>
