<?xml version="1.0" encoding="utf-8"?>
<!-- Generator: Adobe Illustrator 16.0.0, SVG Export Plug-In . SVG Version: 6.00 Build 0)  -->
<!DOCTYPE svg PUBLIC "-//W3C//DTD SVG 1.1//EN" "http://www.w3.org/Graphics/SVG/1.1/DTD/svg11.dtd">
<svg version="1.1" id="Layer_3" xmlns="http://www.w3.org/2000/svg" xmlns:xlink="http://www.w3.org/1999/xlink" x="0px" y="0px"
	 width="126px" height="126px" viewBox="0 0 126 126" enable-background="new 0 0 126 126" xml:space="preserve">
<path d="M103.029,23.242c2.46-8.393-2.347-17.193-10.74-19.652c-3.678-1.08-7.426-0.742-10.692,0.662H24.499
	c-1.199,0-2.171,0.973-2.171,2.172v114.453c0,1.199,0.972,2.172,2.171,2.172h58.875c1.199,0,2.17-0.973,2.17-2.172v-20.754
	c0.741,0.682,1.658,1.189,2.706,1.443c0.484,0.115,0.97,0.172,1.447,0.172c2.775,0,5.292-1.891,5.972-4.707
	c6.944-28.77,4.12-51.539-7.373-59.42c-0.29-0.199-0.592-0.363-0.9-0.506c-0.586-0.525-1.21-1-1.852-1.445v-1.223
	C93.234,35.568,100.779,30.914,103.029,23.242z M81.203,118.705H26.669V8.596h54.534V118.705z M87.161,68.99
	c-0.053,4.791-0.561,10.27-1.617,16.336V74.502L87.161,68.99z"/>
</svg>
