<?xml version="1.0" encoding="utf-8"?>
<!-- Generator: Adobe Illustrator 17.0.0, SVG Export Plug-In . SVG Version: 6.00 Build 0)  -->
<!DOCTYPE svg PUBLIC "-//W3C//DTD SVG 1.1//EN" "http://www.w3.org/Graphics/SVG/1.1/DTD/svg11.dtd">
<svg version="1.1" id="Capa_1" xmlns="http://www.w3.org/2000/svg" xmlns:xlink="http://www.w3.org/1999/xlink" x="0px" y="0px"
	 width="64px" height="64px" viewBox="0 0 64 64" enable-background="new 0 0 64 64" xml:space="preserve">
<path fill="#0E0F0F" d="M60.446,36.492c0-0.431-0.086-0.805-0.224-1.134c0.2-0.967,0.072-1.977-0.536-2.788
	c-3.4-4.533-6.802-9.069-10.202-13.603c-1.216-1.622-3.081-2.565-4.995-1.925c-0.672,0.16-1.3,0.532-1.728,1.112
	c-1.166,1.256-1.71,3.292-0.814,4.793c-0.307,3.473-0.717,6.926-1.522,10.334c-0.04,0.162-0.061,0.317-0.074,0.471h-5.383
	l-7.369,12.375h-8.652c1.057-0.323,1.875-1.296,1.431-2.657c-0.231-0.702-0.448-1.407-0.66-2.114h6.775l4.577-7.888H18.757
	c-0.938-2.663-2.076-5.25-3.222-7.83c-0.628-1.414-2.657-1.732-3.877-1.018c-0.052,0.031-0.092,0.07-0.142,0.104
	c-2.148-0.176-4.184-0.694-6.069-1.882c-2.481-1.564-4.753,2.36-2.289,3.916c2.384,1.503,5.05,2.212,7.802,2.463
	c0.62,1.405,1.222,2.816,1.775,4.247H8.334l4.193,14.315l0.533,0.044h15.504l7.369-12.376h4.83c1.188,1.816,4.485,2.036,5.124-0.662
	c0.411-1.732,0.728-3.479,0.984-5.236c1.37,1.826,2.74,3.652,4.108,5.478c-1.306,1.18-2.513,2.477-3.639,3.782
	c-1.117,1.29-1.416,2.364-1.369,4.014c0.113,4.06,0.228,8.12,0.341,12.18c0.104,3.647,5.771,3.657,5.67,0
	c-0.117-4.175-0.234-8.352-0.353-12.527c1.014-1.182,2.098-2.351,3.279-3.383c0.441,4.989,1.853,11.362,1.853,15.723
	c0,3.654,5.665,3.654,5.665,0C62.428,49.654,60.446,41.656,60.446,36.492z M13.814,46.126l-3.21-10.959h2.74
	c0.377,1.501,0.761,2.997,1.167,4.488h-0.036v1.7h0.517c0.319,1.111,0.649,2.22,1.009,3.319c0.261,0.796,0.811,1.255,1.437,1.452
	H13.814z M19.087,35.167h9.029l-2.603,4.488h-6.29c-0.289-1.021-0.564-2.044-0.833-3.071C18.769,36.216,19.027,35.735,19.087,35.167
	z M33.843,13.208c0-2.733,2.216-4.949,4.949-4.949s4.949,2.216,4.949,4.949s-2.216,4.949-4.949,4.949S33.843,15.941,33.843,13.208z
	 M25.909,54.675c0,1.252-1.015,2.267-2.267,2.267c-1.252,0-2.267-1.015-2.267-2.267s1.015-2.267,2.267-2.267
	C24.894,52.408,25.909,53.423,25.909,54.675z M17.594,54.675c0,1.252-1.015,2.267-2.267,2.267c-1.252,0-2.267-1.015-2.267-2.267
	s1.015-2.267,2.267-2.267C16.579,52.408,17.594,53.423,17.594,54.675z M12.636,49.031h15.729v1.56H12.636V49.031z M6.895,20.38
	c0-1.71,1.386-3.096,3.096-3.096c1.71,0,3.096,1.386,3.096,3.096c0,1.71-1.386,3.096-3.096,3.096
	C8.281,23.476,6.895,22.09,6.895,20.38z"/>
</svg>
