<?xml version="1.0" encoding="utf-8"?>
<!-- Generator: Adobe Illustrator 17.0.0, SVG Export Plug-In . SVG Version: 6.00 Build 0)  -->
<!DOCTYPE svg PUBLIC "-//W3C//DTD SVG 1.1//EN" "http://www.w3.org/Graphics/SVG/1.1/DTD/svg11.dtd">
<svg version="1.1" id="Capa_1" xmlns="http://www.w3.org/2000/svg" xmlns:xlink="http://www.w3.org/1999/xlink" x="0px" y="0px"
	 width="64px" height="64px" viewBox="0 0 64 64" enable-background="new 0 0 64 64" xml:space="preserve">
<path fill="#0F1011" d="M16.477,13.951l-0.036,0.009h-0.529l0.013,0.056h-5.717v1.756h6.128l2.808,11.907h8.098l1.07-5.5
	l0.035-0.009l-0.019-0.071l1.538-7.899l0.079-0.239H16.479L16.477,13.951z M17.549,18.499l1.14,1.755l-0.462,1.118L17.549,18.499z
	 M18.963,24.492l-0.573-2.428l0.614-1.483l1.169,1.921L18.963,24.492z M24.953,20.17l1.129-1.854l0.024,0.041l0.007-0.012
	l1.148,1.887L26.126,22.1L24.953,20.17z M25.864,22.467l-1.213,1.998l-1.157-1.902l1.214-1.997L25.864,22.467z M24.67,19.835
	l-1.149-1.892l1.167-1.918l1.149,1.891L24.67,19.835z M24.425,20.231l-1.135,1.868l-1.173-1.929l1.127-1.854l0.025,0.041
	l0.008-0.014L24.425,20.231z M23.008,22.435l-1.194,1.962l-1.156-1.9l1.194-1.963L23.008,22.435z M20.414,22.099L19.24,20.17
	l1.128-1.854l0.025,0.041l0.007-0.012l1.148,1.887L20.414,22.099z M19.583,27.125l-0.41-1.737l1.057,1.737H19.583z M19.282,24.767
	l1.135-1.868l1.173,1.929l-1.135,1.868L19.282,24.767z M20.679,27.125l1.173-1.927l1.173,1.927H20.679z M22.077,24.767l1.135-1.868
	l1.173,1.929l-1.135,1.868L22.077,24.767z M23.476,27.125l1.212-1.995l1.213,1.995H23.476z M26.785,27.125h-0.433l0.638-1.049
	L26.785,27.125z M27.218,24.9l-1.092,1.795l-1.173-1.929l1.136-1.868l1.15,1.891L27.218,24.9z M27.356,24.185L26.35,22.53
	l1.161-1.909l0.309,1.182L27.356,24.185z M28.004,20.858l-0.158-0.602l0.44-0.852L28.004,20.858z M29.026,15.604l-0.27,1.385
	l-0.842-1.385H29.026z M28.639,17.595l-0.069,0.357l-1.015,1.963l-1.198-1.971l1.247-2.051L28.639,17.595z M27.428,15.604
	l0.05,0.082l-0.135-0.082H27.428z M27.294,15.603L27.294,15.603l-1.181,1.942l-0.024-0.042l-0.007,0.012l-1.163-1.912H27.294z
	 M24.729,15.605l-0.112,0.069l-0.111-0.069H24.729z M24.457,15.604L24.457,15.604l-1.179,1.941l-0.025-0.041l-0.008,0.013
	l-1.163-1.913H24.457z M21.883,15.606h0.011l-0.011,0.007V15.606z M23.002,17.919l-1.188,1.952l-1.17-1.924l1.188-1.952
	L23.002,17.919z M21.479,15.772v0.001l-1.078,1.773l-0.025-0.042l-0.007,0.012l-1.061-1.744H21.479z M20.125,17.92l-1.189,1.955
	l-1.194-1.838l1.227-2.018L20.125,17.92z M18.63,15.774l-1.14,1.875l-0.086-0.134l-0.076,0.049l-0.422-1.79H18.63z M15.284,20.158
	h1.257v9.591h-5.443v26.534H7.329V29.749H2.354V3.993h14.187v7.255h-1.257V5.249H3.611v23.244h11.673V20.158z M41.966,13.641
	c0,2.189-1.774,3.963-3.963,3.963s-3.963-1.774-3.963-3.963s1.774-3.963,3.963-3.963S41.966,11.452,41.966,13.641z M51.728,23.691
	c0-2.356,1.91-4.266,4.266-4.266c2.356,0,4.266,1.91,4.266,4.266c0,2.356-1.91,4.266-4.266,4.266
	C53.638,27.957,51.728,26.047,51.728,23.691z M60.093,31.884c0,3.5,0,7.001,0,10.501c0,1.413-0.639,2.412-1.542,3.004
	c-0.546,1.169-1.118,2.32-1.362,3.633c-0.523,2.824,1.394,4.731,2.502,7.144c1.343,2.924-2.987,5.478-4.34,2.536
	c-1.148-2.499-3.189-4.798-3.306-7.67c-0.066-1.658,0.155-3.258,0.832-4.782c0.197-0.444,0.423-0.885,0.65-1.325
	c-0.59-0.601-0.973-1.446-0.973-2.539c0-3.235,0-6.471,0-9.707c-1.44-0.155-2.812-0.489-3.957-1.684
	c-2.037-2.126-2.377-4.538-3.207-7.236c-0.719-2.33,2.921-3.317,3.634-1.002c0.579,1.879,0.684,4.893,2.699,5.913
	c0.597,0.301,1.286,0.425,2.001,0.488C55.842,27.326,60.092,28.235,60.093,31.884z"/>
</svg>
