<?xml version="1.0" encoding="utf-8"?>
<!-- Generator: Adobe Illustrator 16.0.0, SVG Export Plug-In . SVG Version: 6.00 Build 0)  -->
<!DOCTYPE svg PUBLIC "-//W3C//DTD SVG 1.1//EN" "http://www.w3.org/Graphics/SVG/1.1/DTD/svg11.dtd">
<svg version="1.1" id="Layer_3" xmlns="http://www.w3.org/2000/svg" xmlns:xlink="http://www.w3.org/1999/xlink" x="0px" y="0px"
	 width="126px" height="126px" viewBox="0 0 126 126" enable-background="new 0 0 126 126" xml:space="preserve">
<g>
	<circle cx="62.716" cy="21.638" r="18.729"/>
	<path d="M107.529,104.152c-0.698-5.748-4.909-7.937-12.004-9.021c-4.975,4.548-13.326,8.022-27.24,8.022
		c-1.926,0-3.786-0.489-5.454-1.425c-1.668,0.936-3.528,1.425-5.456,1.425c-13.785,0-22.109-3.412-27.1-7.898
		c-6.38,1.253-10.152,3.544-10.806,8.897c-0.416,3.444,0.659,6.824,3.029,9.517c6.678,7.592,24.951,8.849,35.247,8.923
		c0.021,0,0.043,0,0.063,0c2.184,0,4.173-0.822,5.69-2.168c1.515,1.346,3.506,2.168,5.689,2.168c0.021,0,0.042,0,0.064,0
		c10.297-0.074,28.57-1.331,35.25-8.925C106.873,110.976,107.945,107.596,107.529,104.152z"/>
	<path d="M57.682,100.634c2.176,0,4.122-0.961,5.455-2.476c1.333,1.515,3.28,2.476,5.454,2.476c20.907,0,27.621-8.243,29.574-15.16
		c4.568-16.186-13.771-35.102-22.188-40.263c-0.564-0.348-1.166-0.578-1.776-0.755c-2.085-1.393-4.43-2.418-6.817-3.004
		l-4.667,4.697L58.191,41.4c-0.014,0.004-0.029,0.005-0.045,0.01c-3.072,0.734-6.065,2.2-8.541,4.242
		c-8.681,5.72-25.944,24.063-21.498,39.821C30.06,92.391,36.775,100.634,57.682,100.634z M43.547,74.4v6.196
		c0.489,0.224,1.511,0.878,1.519,0.949c0.854,0.621,4.245,1.954,11.81,1.954c1.928,0,3.788,0.489,5.456,1.425
		c1.668-0.937,3.528-1.425,5.454-1.425c6.296,0,9.693-0.922,11.153-1.591c0.987-0.202,1.972-0.451,2.947-0.73v-8.436
		c1.878,3.455,2.876,6.679,2.282,8.782c-0.793,2.816-6.763,4.566-15.577,4.566c-2.174,0-4.121,0.96-5.454,2.475
		c-1.333-1.515-3.279-2.475-5.455-2.475c-8.813,0-14.784-1.75-15.577-4.566C41.608,79.763,42.228,77.213,43.547,74.4z"/>
</g>
</svg>
