<?xml version="1.0" encoding="iso-8859-1"?>
<!-- Generator: Adobe Illustrator 17.1.0, SVG Export Plug-In . SVG Version: 6.00 Build 0)  -->
<!DOCTYPE svg PUBLIC "-//W3C//DTD SVG 1.1//EN" "http://www.w3.org/Graphics/SVG/1.1/DTD/svg11.dtd">
<svg version="1.1" id="Layer_1" xmlns="http://www.w3.org/2000/svg" xmlns:xlink="http://www.w3.org/1999/xlink" x="0px" y="0px"
	 viewBox="0 0 128 128" style="enable-background:new 0 0 128 128;" xml:space="preserve">
<g>
	<circle cx="39.619" cy="11.944" r="8.974"/>
	<path d="M112.75,34.94c-0.002-6.4-4.925-11.322-11.078-11.322c-0.157,0-26.428,0-26.584,0c-6.154,0-10.277,4.875-11.077,11.323
		c-0.001,0.009-0.005,0.04-0.011,0.082c-0.006-0.042-0.01-0.073-0.011-0.082c-0.8-6.448-4.923-11.323-11.077-11.323
		c-0.156,0-26.427,0-26.584,0c-6.154,0-11.077,4.923-11.077,11.323c0,0.383,0,32.477,0,32.491c0,2.583,2.094,4.677,4.677,4.677
		c2.582,0,4.675-2.092,4.677-4.673c0.002-0.001,0.006-28.557,0.006-28.557c0-0.268,0.218-0.486,0.486-0.486h0.991
		c0.268,0,0.487,0.218,0.487,0.486c0,0,0,80.112,0,80.121c0,3.331,2.7,6.031,6.031,6.031c3.331,0,6.031-2.7,6.031-6.031
		c0-0.004,0-8.457,0-18.203h-3.927c-0.627,0-1.198-0.279-1.566-0.765c-0.379-0.5-0.5-1.17-0.325-1.79l3.415-11.236
		c-0.688,0.399-1.485,0.623-2.328,0.623c-0.459,0-0.916-0.069-1.357-0.204c-2.438-0.748-3.814-3.34-3.066-5.779
		c0,0,4.42-14.432,4.468-14.59c0.258-0.898,2.762-8.933,9.398-8.933h1.361c-0.656-0.543-1.225-1.188-1.679-1.913
		c-0.325,0.384-0.799,0.604-1.304,0.604h-0.103l-0.114-0.014c-1.325-0.161-1.962-1.509-3.018-3.742
		c-0.11-0.233-0.221-0.467-0.331-0.696l-0.067-0.139c-0.149-0.308-0.335-0.692-0.447-1.03c-0.537-1.638-0.344-3.524,0.492-4.806
		c0.675-1.036,1.737-1.675,2.99-1.799c0.161-0.016,0.328-0.024,0.496-0.024c1.084,0,2.239,0.34,3.441,1.013
		c1.357-0.998,3.005-1.543,4.708-1.543c1.003,0,1.981,0.193,2.895,0.551c0-3.571,0-5.706,0-5.706c0-0.268,0.218-0.486,0.486-0.486
		h0.991c0.268,0,0.487,0.218,0.487,0.486c0,0,0.429,2.617,1.027,6.265c0.887-0.383,1.745-0.579,2.565-0.579
		c0.166,0,0.332,0.008,0.494,0.024c1.252,0.124,2.314,0.763,2.989,1.799c0.835,1.282,1.029,3.168,0.492,4.804
		c-0.104,0.319-0.268,0.666-0.457,1.052l-0.057,0.118c-0.11,0.23-0.221,0.464-0.331,0.697c-1.056,2.235-1.694,3.583-3.027,3.74
		l-0.096,0.011l-0.108,0.001c-0.196,0-0.387-0.034-0.567-0.097c0.088,0.534,0.174,1.062,0.259,1.578
		c1.763,0.366,3.341,1.329,4.65,2.844c1.637-2.714,4.685-4.65,8.04-4.755c1.317-8.033,2.87-17.504,2.87-17.504
		c0-0.268,0.218-0.486,0.486-0.486h0.991c0.268,0,0.486,0.218,0.486,0.486c0,0,0,1.936,0,5.204c0.11-0.075,0.221-0.15,0.336-0.219
		l4.155-6.021v3.901l2.309-3.848v3.794l2.483-3.848l0.457,6.822c1.735,1.51,2.748,3.706,2.748,6.031c0,2.22-0.91,4.23-2.375,5.68
		h3.399c5.116,0,9.604,4.276,9.604,9.151v21.258c0,2.595-2.068,4.628-4.709,4.628c-1.34,0-2.553-0.549-3.415-1.43v30.54
		c0,0.494-0.07,0.971-0.19,1.428c1.033,1.838,3,3.08,5.259,3.08c3.331,0,6.031-2.7,6.031-6.031c0-0.009,0-80.121,0-80.121
		c0-0.268,0.218-0.486,0.486-0.486h0.991c0.268,0,0.486,0.218,0.486,0.486c0,0,0.004,28.555,0.006,28.557
		c0.002,2.581,2.095,4.673,4.677,4.673c2.583,0,4.677-2.094,4.677-4.677C112.75,67.417,112.75,35.323,112.75,34.94z"/>
	<circle cx="88.379" cy="11.944" r="8.974"/>
	<path d="M34.398,98.688c-0.048,0.17,0,0.468,0.311,0.468h6.171c0.177,0,0.307,0.144,0.307,0.321c0,0-0.001,21.145-0.001,21.153
		c0,0.555,0.12,1.081,0.331,1.558c0.254,0.407,0.554,0.781,0.895,1.115c-0.34-0.334-0.641-0.709-0.895-1.116
		c0.397,0.894,1.122,1.61,2.026,1.99c0,0,0.001,0.001,0.002,0.001c0.458,0.192,0.961,0.299,1.489,0.299
		c2.125,0,3.847-1.723,3.847-3.847l0.001-21.153c0-0.177,0.143-0.321,0.321-0.321c0,0,1.187,0,1.328,0
		c0.141,0,0.326,0.143,0.326,0.321l0.001,21.153c0,0.742,0.214,1.433,0.578,2.021c0.678,1.095,1.887,1.827,3.27,1.827
		c2.125,0,3.847-1.723,3.847-3.847c0-0.008-0.001-21.153-0.001-21.153c0-0.177,0.13-0.321,0.307-0.321h5.932
		c0.31-0.001,0.359-0.299,0.31-0.469l-2.684-8.817c-0.752-0.82-1.214-1.9-1.214-3.086v-0.902l-5.007-16.445
		c-0.047-0.17,0.037-0.321,0.214-0.319c0,0,1.317,0,1.345,0c0.312,0,0.445,0.255,0.471,0.317c0,0,1.683,5.476,2.976,9.685V65.527
		c0-0.946,0.17-1.868,0.479-2.742c-0.881-1.195-2.048-2.234-3.579-2.722c-0.591-0.189-1.235-0.297-1.94-0.297H43.346
		c-4.688,0-7.144,5.395-7.826,7.764c-0.015,0.05-4.469,14.593-4.47,14.599c-0.483,1.576,0.402,3.244,1.978,3.728
		c1.575,0.483,3.243-0.402,3.727-1.976c0.001,0,4.425-14.445,4.425-14.445c0.026-0.062,0.159-0.317,0.471-0.317
		c0.028,0,1.403,0,1.403,0c0.177-0.003,0.281,0.148,0.234,0.319L34.398,98.688z"/>
	<path d="M43.459,51.995c0,3.488,2.828,6.316,6.316,6.316c3.488,0,6.316-2.828,6.316-6.316c0-0.431-0.045-0.852-0.127-1.26
		c-0.059-0.287,0.085-0.626,0.363-0.72c0.302-0.101,0.567-0.146,0.78-0.165c0.292-0.024,0.772,0.078,0.977,0.29
		c1.161,1.21-0.457,5.094,0.049,5.03c0.502-0.059,1.296-1.907,2.071-3.518c0.127-0.264,0.341-0.69,0.433-0.97
		c0.568-1.731,0.099-4.241-2.084-4.458c-1.324-0.132-2.701,0.565-3.672,1.217c-0.245,0.165-0.594,0.13-0.807-0.071
		c-1.128-1.05-2.64-1.693-4.302-1.693c-1.599,0-3.059,0.596-4.171,1.575c-0.221,0.193-0.577,0.228-0.824,0.068
		c-0.956-0.615-2.244-1.222-3.488-1.097c-2.183,0.217-2.652,2.727-2.084,4.458c0.092,0.28,0.306,0.704,0.433,0.97
		c0.775,1.611,1.568,3.459,2.075,3.52c0.504,0.063-1.111-3.82,0.049-5.03c0.203-0.212,0.683-0.316,0.977-0.29
		c0.146,0.012,0.316,0.038,0.504,0.082c0.285,0.071,0.431,0.391,0.367,0.678C43.511,51.057,43.459,51.519,43.459,51.995z"/>
	<path d="M62.843,65.526c0,0.25,0,21.248,0,21.258c0,1.69,1.394,2.986,3.084,2.986c1.689,0,3.069-1.295,3.07-2.984l-0.004-18.605
		c0-0.176,0.138-0.318,0.314-0.318h1.323c0.176,0,0.336,0.142,0.336,0.318c0,0-0.004,52.336-0.004,52.342
		c0,2.179,1.759,3.954,3.938,3.954c2.179,0,3.938-1.754,3.938-3.933c0-0.006,0-30.947,0-30.947c0-0.225,0.104-0.319,0.326-0.319
		h1.302c0.222,0,0.34,0.094,0.34,0.319c0,0,0.005,30.871,0.005,30.947c0,2.179,1.778,3.933,3.957,3.933s3.914-1.775,3.914-3.954
		c0-0.006,0-52.342,0-52.342c0-0.176,0.142-0.318,0.318-0.318h1.343c0.176,0,0.313,0.142,0.313,0.318c0,0-0.007,18.605-0.005,18.605
		c0.001,1.689,1.398,2.984,3.087,2.984c1.69,0,3.067-1.296,3.067-2.986c0-0.01,0-21.007,0-21.258c0-4.187-3.935-7.509-7.961-7.509
		c-0.103,0-17.957,0-18.059,0C66.761,58.017,62.843,61.339,62.843,65.526z"/>
	<path d="M76.86,45.075c-2.015,1.066-3.389,3.182-3.389,5.62c0,3.509,2.845,6.354,6.354,6.354s6.354-2.845,6.354-6.354
		c0.001-2.169-1.088-4.084-2.747-5.231v-3.721l-1.713,2.884c-0.187-0.058-0.378-0.108-0.572-0.149v-2.736l-1.562,2.603
		c-0.253,0.009-0.502,0.033-0.747,0.071v-2.674L76.86,45.075z"/>
</g>
</svg>
