<?xml version="1.0" encoding="iso-8859-1"?>
<!-- Generator: Adobe Illustrator 17.1.0, SVG Export Plug-In . SVG Version: 6.00 Build 0)  -->
<!DOCTYPE svg PUBLIC "-//W3C//DTD SVG 1.1//EN" "http://www.w3.org/Graphics/SVG/1.1/DTD/svg11.dtd">
<svg version="1.1" id="Layer_1" xmlns="http://www.w3.org/2000/svg" xmlns:xlink="http://www.w3.org/1999/xlink" x="0px" y="0px"
	 viewBox="0 0 128 128" style="enable-background:new 0 0 128 128;" xml:space="preserve">
<g>
	<path d="M64.353,5.662C64.161,5.841,64.009,5.997,64,5.997s-0.161-0.155-0.353-0.335c-1.081-1.01-4.571-3.788-7.682-0.935
		c-3.672,3.366-0.579,11.031,7.581,14.547c0.241,0.104,0.446,0.192,0.455,0.203c0.009,0.011,0.213-0.06,0.455-0.164
		c8.16-3.517,11.253-11.22,7.581-14.586C68.924,1.875,65.435,4.652,64.353,5.662z"/>
	<circle cx="40.166" cy="13.972" r="8.773"/>
	<path d="M20.916,72.789c2.524,0,4.57-2.045,4.572-4.569c0.002-0.001,0.006-27.917,0.006-27.917c0-0.263,0.213-0.475,0.476-0.475
		h0.968c0.263,0,0.476,0.213,0.476,0.475c0,0,0,78.316,0,78.325c0,3.256,2.639,5.895,5.895,5.895s5.895-2.639,5.895-5.895
		c0-0.009,0-46.086,0-46.086c0-0.336,0.155-0.476,0.487-0.476h0.951c0.332,0,0.487,0.14,0.487,0.476c0,0,0,46.077,0,46.086
		c0,3.256,2.639,5.895,5.895,5.895s5.895-2.639,5.895-5.895c0-0.009,0-78.325,0-78.325c0-0.263,0.213-0.476,0.475-0.476h0.968
		c0.263,0,0.475,0.213,0.475,0.476c0,0,4.576,27.915,4.578,27.917c0.142,0.848,0.407,1.582,0.761,2.2
		c0.632,1.165,1.705,2.049,3.093,2.26c0.175,0.026,0.348,0.041,0.52,0.048c0.069,0.003,0.139,0,0.209,0.001
		c0.07,0,0.14,0.003,0.209-0.001c0.172-0.007,0.345-0.021,0.52-0.048c1.388-0.211,2.461-1.095,3.093-2.26
		c0.354-0.618,0.619-1.352,0.761-2.2c0.002-0.001,4.578-27.917,4.578-27.917c0-0.263,0.213-0.476,0.476-0.476h0.968
		c0.263,0,0.476,0.213,0.476,0.476c0,0,0,78.316,0,78.325c0,3.256,2.639,5.895,5.895,5.895s5.895-2.639,5.895-5.895
		c0-0.009,0-46.086,0-46.086c0-0.336,0.155-0.476,0.487-0.476h0.951c0.332,0,0.487,0.14,0.487,0.476c0,0,0,46.077,0,46.086
		c0,3.256,2.639,5.895,5.895,5.895s5.895-2.639,5.895-5.895c0-0.009,0-78.325,0-78.325c0-0.263,0.213-0.476,0.475-0.476h0.968
		c0.263,0,0.475,0.213,0.475,0.476c0,0,0.004,27.915,0.006,27.917c0.002,2.523,2.048,4.569,4.572,4.569
		c2.525,0,4.572-2.047,4.572-4.572c0-0.014,0-31.389,0-31.763c-0.001-6.256-4.814-11.069-10.829-11.069c-0.153,0-25.835,0-25.988,0
		c-6.016,0-10.046,4.766-10.828,11.069c-0.001,0.009-0.005,0.039-0.011,0.08c-0.006-0.041-0.01-0.071-0.011-0.08
		c-0.782-6.303-4.813-11.069-10.828-11.069c-0.153,0-25.835,0-25.988,0c-6.016,0-10.828,4.813-10.828,11.069
		c0,0.374,0,31.749,0,31.763C16.344,70.742,18.391,72.789,20.916,72.789z"/>
	<circle cx="87.833" cy="13.972" r="8.773"/>
</g>
</svg>
