<?xml version="1.0" encoding="iso-8859-1"?>
<!-- Generator: Adobe Illustrator 17.1.0, SVG Export Plug-In . SVG Version: 6.00 Build 0)  -->
<!DOCTYPE svg PUBLIC "-//W3C//DTD SVG 1.1//EN" "http://www.w3.org/Graphics/SVG/1.1/DTD/svg11.dtd">
<svg version="1.1" id="Layer_1" xmlns="http://www.w3.org/2000/svg" xmlns:xlink="http://www.w3.org/1999/xlink" x="0px" y="0px"
	 viewBox="0 0 128 128" style="enable-background:new 0 0 128 128;" xml:space="preserve">
<g>
	<circle cx="28.33" cy="18.261" r="7.885"/>
	<circle cx="99.3" cy="18.261" r="7.885"/>
	<path d="M70.919,62.989c0.464-0.057,1.228-1.935,1.938-3.365c0.71-1.43,0.434-3.964-1.586-4.165
		c-1.119-0.111-2.284,0.482-3.1,1.033c-0.198,0.134-0.484,0.106-0.658-0.058c-0.95-0.889-2.227-1.434-3.632-1.434
		c-1.352,0-2.582,0.505-3.521,1.334c-0.179,0.159-0.47,0.186-0.672,0.056c-0.804-0.518-1.897-1.035-2.947-0.931
		c-2.021,0.2-2.296,2.736-1.586,4.165c0.71,1.43,1.472,3.308,1.941,3.365c0.426,0.054-0.944-3.236,0.052-4.242
		c0.169-0.171,0.559-0.253,0.799-0.234c0.129,0.01,0.28,0.033,0.451,0.075c0.232,0.058,0.351,0.321,0.299,0.553
		c-0.086,0.378-0.13,0.772-0.13,1.177c0,2.935,2.38,5.316,5.316,5.316c2.935,0,5.316-2.38,5.316-5.316
		c0-0.368-0.038-0.728-0.109-1.073c-0.048-0.234,0.067-0.511,0.296-0.587c0.265-0.09,0.499-0.129,0.683-0.144
		c0.238-0.019,0.63,0.065,0.799,0.234C71.863,59.754,70.491,63.042,70.919,62.989z"/>
	<path d="M11.028,71.125c2.268,0,4.107-1.838,4.109-4.106c0.002-0.001,0.005-25.091,0.005-25.091c0-0.236,0.191-0.427,0.427-0.427
		h0.87c0.236,0,0.427,0.191,0.427,0.427c0,0,0,70.39,0,70.398c0,2.927,2.372,5.299,5.299,5.299s5.299-2.372,5.299-5.299
		c0-0.008,0-41.421,0-41.421c0-0.302,0.14-0.428,0.438-0.428h0.854c0.298,0,0.438,0.126,0.438,0.428c0,0,0,41.413,0,41.421
		c0,2.927,2.372,5.299,5.299,5.299s5.299-2.372,5.299-5.299c0-0.008,0-70.398,0-70.398c0-0.236,0.191-0.427,0.427-0.427h0.87
		c0.236,0,0.427,0.191,0.427,0.427c0,0,3.035,18.388,3.037,18.388c0.244,1.332,0.901,2.527,1.387,3.407
		c2.38,4.192,7.676,13.404,7.676,13.404c0.123,0.206,0.182,0.562,0.134,0.799l-3.557,20.322c-0.048,0.234,0.107,0.424,0.347,0.424
		l2.295,0v13.984c0.041,2.554,2.265,4.969,5.065,4.969c2.8,0,5.323-2.4,5.364-4.955l0.002-12.876c0-0.235,0.19-0.426,0.426-0.426
		h0.611c0.235,0,0.426,0.19,0.426,0.426l0.002,12.876c0.041,2.554,2.564,4.955,5.364,4.955s5.024-2.414,5.065-4.969V98.672l2.295,0
		c0.24,0,0.396-0.19,0.347-0.424l-3.556-20.322c-0.048-0.236,0.011-0.593,0.134-0.799c0,0,5.296-9.212,7.676-13.404
		c0.486-0.88,1.142-2.075,1.387-3.407c0.002-0.001,3.037-18.388,3.037-18.388c0-0.236,0.191-0.427,0.427-0.427h0.871
		c0.236,0,0.427,0.191,0.427,0.427c0,0,0,70.39,0,70.398c0,2.927,2.372,5.299,5.299,5.299s5.299-2.372,5.299-5.299
		c0-0.008,0-41.421,0-41.421c0-0.302,0.14-0.428,0.438-0.428h0.854c0.298,0,0.438,0.126,0.438,0.428c0,0,0,41.413,0,41.421
		c0,2.927,2.372,5.299,5.299,5.299s5.299-2.372,5.299-5.299c0-0.008,0-70.398,0-70.398c0-0.236,0.191-0.427,0.427-0.427h0.87
		c0.236,0,0.427,0.191,0.427,0.427c0,0,0.004,25.09,0.005,25.091c0.002,2.268,1.841,4.106,4.109,4.106
		c2.269,0,4.109-1.84,4.109-4.109c0-0.013,0-28.212,0-28.548c0-5.623-4.326-9.948-9.733-9.948c-0.138,0-23.22,0-23.358,0
		c-5.407,0-9.732,4.326-9.732,9.949c0,0.299-2.406,17.76-3.017,21.644l-4.616,7.669c-0.125,0.203-0.421,0.368-0.66,0.368h-5.432
		h-1.065h-5.432c-0.24,0-0.536-0.165-0.66-0.368l-4.616-7.669c-0.611-3.884-3.017-21.345-3.017-21.644
		c0-5.623-4.326-9.949-9.732-9.949c-0.138,0-23.22,0-23.358,0c-5.407,0-9.732,4.326-9.732,9.949c0,0.336,0,28.536,0,28.548
		C6.918,69.285,8.758,71.125,11.028,71.125z"/>
</g>
</svg>
