<?xml version="1.0" encoding="utf-8"?>
<!-- Generator: Adobe Illustrator 16.0.0, SVG Export Plug-In . SVG Version: 6.00 Build 0)  -->
<!DOCTYPE svg PUBLIC "-//W3C//DTD SVG 1.1//EN" "http://www.w3.org/Graphics/SVG/1.1/DTD/svg11.dtd">
<svg version="1.1" id="Layer_2" xmlns="http://www.w3.org/2000/svg" xmlns:xlink="http://www.w3.org/1999/xlink" x="0px" y="0px"
	 width="126px" height="126px" viewBox="0 0 126 126" enable-background="new 0 0 126 126" xml:space="preserve">
<g>
	<circle cx="22.635" cy="37.864" r="9.289"/>
	<path d="M40.703,77.764c-0.25-2.15-2.07-3.771-4.234-3.771h-0.002l-7.389,0.006V63.844c2.479,2.174,5.281,3.544,8.941,3.544
		c2.232,0,4.787-0.511,7.777-1.655c1.861-0.713,2.791-2.798,2.078-4.658c-0.711-1.859-2.797-2.789-4.656-2.078
		c-7.281,2.789-8.717,1.231-15.113-7.511c-0.014-0.02-0.031-0.032-0.047-0.052c-1.225-1.913-3.373-3.202-5.426-3.705
		c0,0-0.977-0.294-2.018-0.271c-0.996,0.022-2.105,0.255-2.105,0.255l-0.027,0.004c-3.125,0.765-6.453,3.311-6.453,7.131
		l0.002,20.504c0,4.457,4.426,7.214,8.523,7.213c0.229,0,0.457-0.021,0.686-0.036l11.434-0.009l2.439,21.055
		c0.252,2.171,2.096,3.771,4.229,3.771c0.164,0,0.33-0.01,0.498-0.029c2.336-0.271,4.014-2.387,3.742-4.725L40.703,77.764z"/>
	<path d="M31.549,87.355c0-1.991-1.615-3.606-3.607-3.606H10.129V55.145c0-1.99-1.615-3.605-3.607-3.605s-3.605,1.615-3.605,3.605
		v32.211c0,1.32,0.713,2.473,1.771,3.102c-0.688,1.226-1.08,2.637-1.08,4.138v10.083c0,1.668,1.352,3.02,3.018,3.02
		c1.668,0,3.021-1.352,3.021-3.02V94.595c0-1.362,1.107-2.471,2.471-2.471h10.082c1.361,0,2.471,1.108,2.471,2.471v10.083
		c0,1.668,1.352,3.02,3.02,3.02s3.02-1.352,3.02-3.02V94.595c0-1.475-0.377-2.862-1.041-4.073
		C30.787,89.91,31.549,88.721,31.549,87.355z"/>
	<circle cx="103.363" cy="37.864" r="9.289"/>
	<path d="M105.445,82.564c4.1,0.001,8.523-2.756,8.523-7.213V54.848c0-3.82-3.326-6.366-6.451-7.131l-0.027-0.004
		c0,0-1.111-0.232-2.105-0.255c-1.041-0.023-2.018,0.271-2.018,0.271c-2.053,0.503-4.201,1.792-5.426,3.705
		c-0.016,0.02-0.033,0.032-0.047,0.052c-6.396,8.742-7.832,10.3-15.113,7.511c-1.861-0.711-3.945,0.219-4.658,2.078
		c-0.711,1.86,0.219,3.945,2.08,4.658c2.99,1.145,5.543,1.655,7.777,1.655c3.66,0,6.461-1.37,8.941-3.544v10.154l-7.389-0.006
		c-0.002,0-0.002,0-0.004,0c-2.164,0-3.984,1.621-4.232,3.771l-2.879,24.828c-0.271,2.338,1.404,4.454,3.744,4.725
		c0.166,0.02,0.33,0.029,0.494,0.029c2.135,0,3.977-1.601,4.229-3.771l2.441-21.055l11.434,0.009
		C104.986,82.544,105.217,82.564,105.445,82.564z"/>
	<path d="M123.083,87.355V55.145c0-1.99-1.615-3.605-3.605-3.605c-1.992,0-3.607,1.615-3.607,3.605v28.604H98.059
		c-1.992,0-3.607,1.615-3.607,3.606c0,1.365,0.76,2.555,1.879,3.166c-0.662,1.211-1.039,2.599-1.039,4.073v10.083
		c0,1.668,1.352,3.02,3.02,3.02c1.666,0,3.02-1.352,3.02-3.02V94.595c0-1.362,1.107-2.471,2.471-2.471h10.082
		c1.363,0,2.471,1.108,2.471,2.471v10.083c0,1.668,1.352,3.02,3.019,3.02c1.668,0,3.02-1.352,3.02-3.02V94.595
		c0-1.501-0.393-2.912-1.08-4.138C122.371,89.828,123.083,88.676,123.083,87.355z"/>
	<path d="M85.754,71.591c0-1.908-1.547-3.455-3.455-3.455H42.217c-1.908,0-3.455,1.547-3.455,3.455s1.547,3.455,3.455,3.455h4.74
		v30.685h30.6V75.046h4.742C84.207,75.046,85.754,73.499,85.754,71.591z"/>
	<path d="M38.458,32.912h0.834l-2.061,4.971l5.864-4.971h5.741v-2.443c0-1.443,1.171-2.615,2.616-2.615h23.258V11.404
		c0-1.445-1.171-2.617-2.616-2.617H38.458c-1.445,0-2.616,1.172-2.616,2.617v18.892C35.842,31.741,37.013,32.912,38.458,32.912z
		 M63.289,17.268c1.391,0,2.519,1.129,2.519,2.52c0,1.392-1.128,2.52-2.519,2.52s-2.519-1.128-2.519-2.52
		C60.77,18.396,61.897,17.268,63.289,17.268z M55.414,17.268c1.392,0,2.519,1.129,2.519,2.52c0,1.392-1.127,2.52-2.519,2.52
		c-1.391,0-2.519-1.128-2.519-2.52C52.895,18.396,54.023,17.268,55.414,17.268z M47.264,17.268c1.391,0,2.519,1.129,2.519,2.52
		c0,1.392-1.128,2.52-2.519,2.52s-2.519-1.128-2.519-2.52C44.745,18.396,45.873,17.268,47.264,17.268z"/>
	<path d="M50.788,32.422v18.893c0,1.444,1.173,2.615,2.616,2.615h28.999l5.865,4.971l-2.062-4.971h0.835
		c1.446,0,2.617-1.171,2.617-2.615V32.422c0-1.445-1.171-2.616-2.617-2.616H53.404C51.961,29.806,50.788,30.977,50.788,32.422z
		 M78.236,38.768c1.391,0,2.519,1.129,2.519,2.52c0,1.392-1.128,2.52-2.519,2.52s-2.519-1.128-2.519-2.52
		C75.717,39.896,76.845,38.768,78.236,38.768z M70.361,38.768c1.392,0,2.519,1.129,2.519,2.52c0,1.392-1.127,2.52-2.519,2.52
		c-1.391,0-2.519-1.128-2.519-2.52C67.842,39.896,68.97,38.768,70.361,38.768z M62.211,38.768c1.391,0,2.519,1.129,2.519,2.52
		c0,1.392-1.128,2.52-2.519,2.52s-2.519-1.128-2.519-2.52C59.692,39.896,60.82,38.768,62.211,38.768z"/>
</g>
</svg>
