<?xml version="1.0" encoding="utf-8"?>
<!-- Generator: Adobe Illustrator 16.0.0, SVG Export Plug-In . SVG Version: 6.00 Build 0)  -->
<!DOCTYPE svg PUBLIC "-//W3C//DTD SVG 1.1//EN" "http://www.w3.org/Graphics/SVG/1.1/DTD/svg11.dtd">
<svg version="1.1" id="Layer_1" xmlns="http://www.w3.org/2000/svg" xmlns:xlink="http://www.w3.org/1999/xlink" x="0px" y="0px"
	 width="126px" height="126px" viewBox="0 0 126 126" enable-background="new 0 0 126 126" xml:space="preserve">
<g>
	<circle cx="41.363" cy="15.263" r="13.094"/>
	<circle cx="84.637" cy="15.267" r="13.094"/>
	<path d="M110.325,63.804l-6.055-28.261c-1.127-5.265-6.466-7.792-11-7.924l-0.039,0.002c0,0-1.598,0.009-2.976,0.272
		c-1.441,0.275-2.704,0.968-2.704,0.968c-3.342,1.621-6.539,4.97-6.93,9.036c-0.052,0.196-0.116,0.386-0.146,0.592
		c-0.882,6.212-1.766,10.147-3.669,11.881c-1.962,1.786-6.371,2.583-14.294,2.583c-1.834,0-3.428,0.98-4.322,2.437
		c-4.782-0.975-7.603-2.214-9.093-3.938c-1.935-2.235-2.64-6.39-3.575-12.967c-0.029-0.206-0.094-0.396-0.146-0.592
		c-0.392-4.066-3.589-7.416-6.931-9.036c0,0-1.262-0.693-2.703-0.968c-1.378-0.263-2.976-0.272-2.976-0.272l-0.039-0.002
		c-4.533,0.132-9.872,2.659-11,7.924l-6.054,28.261c-0.808,3.773,0.88,7.152,3.61,9.48l-0.026,43.613
		c-0.002,3.828,3.1,6.934,6.928,6.936c0.001,0,0.003,0,0.004,0c3.827,0,6.93-3.1,6.932-6.928l0.024-41.267
		c2.865-1.14,5.287-3.352,6.026-6.801l2.292-10.699c3.646,4.258,9.67,6.701,20.409,8.169c0.234,0.032,0.466,0.047,0.696,0.047
		c2.144,0,4.042-1.362,4.763-3.354c8.408-0.444,13.623-2.176,17.014-5.743l2.481,11.582c0.739,3.45,3.161,5.662,6.026,6.802
		l0.024,41.266c0.002,3.828,3.105,6.928,6.932,6.928c0.001,0,0.002,0,0.004,0c3.828-0.002,6.93-3.107,6.928-6.936l-0.026-43.614
		C109.445,70.956,111.133,67.577,110.325,63.804z"/>
</g>
</svg>
