<?xml version="1.0" encoding="utf-8"?>
<!-- Generator: Adobe Illustrator 16.0.0, SVG Export Plug-In . SVG Version: 6.00 Build 0)  -->
<!DOCTYPE svg PUBLIC "-//W3C//DTD SVG 1.1//EN" "http://www.w3.org/Graphics/SVG/1.1/DTD/svg11.dtd">
<svg version="1.1" id="Layer_2" xmlns="http://www.w3.org/2000/svg" xmlns:xlink="http://www.w3.org/1999/xlink" x="0px" y="0px"
	 width="126px" height="126px" viewBox="0 0 126 126" enable-background="new 0 0 126 126" xml:space="preserve">
<g>
	<polygon points="62.604,57.724 59.064,57.724 59.064,43.938 56.052,43.938 56.052,57.724 52.513,57.724 57.558,63.982 	"/>
	<polygon points="61.543,56.309 64.556,56.309 64.556,42.524 68.096,42.524 63.05,36.265 58.004,42.524 61.543,42.524 	"/>
	<circle cx="28.741" cy="13.634" r="12.883"/>
	<circle cx="97.259" cy="13.634" r="12.883"/>
	<path d="M116.312,40.091c-2.191-2.845-6.465-7.982-10.469-10.439c-0.213-0.13-0.437-0.222-0.659-0.318
		c-1.46-0.98-3.104-1.698-4.781-2.1c-0.01-0.002-0.021-0.002-0.031-0.005l-3.112,3.267l-3.208-3.231
		c-1.644,0.403-3.254,1.107-4.688,2.064c-0.227,0.097-0.456,0.191-0.672,0.324c-3.769,2.312-6.924,4.88-8.789,6.512
		c-1.453-0.356-3.406-1.249-3.961-3.492c-0.432-1.744-1.731-3.041-3.324-3.554v-0.047h-0.147c-0.816-0.236-1.702-0.272-2.584-0.053
		c-0.026,0.007-0.052,0.016-0.078,0.023c0.003,0.01,0.006,0.021,0.009,0.03H47.321v10.44c-2.753-4.044-5.795-7.273-10.012-9.859
		c-0.216-0.132-0.443-0.227-0.67-0.323c-1.435-0.957-3.045-1.662-4.689-2.064l-3.209,3.231l-3.112-3.267
		c-0.01,0.003-0.02,0.003-0.031,0.005c-1.677,0.402-3.32,1.12-4.78,2.099c-0.222,0.095-0.447,0.189-0.66,0.319
		c-4.004,2.457-8.278,7.594-10.47,10.439c-6.229,8.083-5.992,10.379-5.864,11.613l0.045,0.447
		c0.263,2.697,1.066,10.906,3.573,18.332c0.705,2.087,2.651,3.403,4.738,3.403c0.531,0,1.07-0.085,1.601-0.264
		c1.016-0.343,1.847-0.983,2.435-1.789l0.003,47.505c0,3.265,2.646,5.912,5.911,5.911c3.265,0,5.912-2.647,5.911-5.911
		l-0.003-41.101c0.234,0.011,0.468,0.029,0.704,0.029c0.046,0,0.092-0.005,0.138-0.006l-0.001,41.078
		c0,3.266,2.646,5.911,5.91,5.911h0c3.264,0,5.911-2.646,5.911-5.911l0.002-47.599c0.773-1.435,1.225-3.06,1.225-4.841V49.847
		c1.274,2.273,2.603,4.842,4.109,7.758c0.414,0.801,0.845,1.633,1.285,2.483v11.095h6.533h8.183h10.581V50.594v-6.837
		c3.148,1.949,6.669,2.644,8.962,2.644h0.004c0.884,0,1.736-0.253,2.49-0.688v21.186c0,1.781,0.452,3.406,1.226,4.841l0.002,47.599
		c0,3.265,2.646,5.911,5.911,5.911c3.264,0,5.91-2.646,5.91-5.911L97.121,78.26c0.046,0,0.092,0.006,0.138,0.006
		c0.236,0,0.469-0.019,0.704-0.029l-0.003,41.101c0,3.264,2.646,5.911,5.911,5.911h0c3.264,0,5.91-2.646,5.91-5.911l0.003-47.505
		c0.588,0.805,1.418,1.445,2.435,1.789c0.531,0.179,1.07,0.264,1.601,0.264c2.086,0,4.034-1.316,4.738-3.403
		c2.508-7.426,3.311-15.634,3.574-18.332l0.044-0.447C122.304,50.471,122.541,48.174,116.312,40.091z M15.556,49.004v13.374
		c-1.013-4.421-1.476-8.613-1.681-10.678C14.211,51.042,14.806,50.093,15.556,49.004z M28.711,55.991l-3.106-4.251l3.106-20.767
		h0.06l3.107,20.767l-3.107,4.251H28.711z M68.628,67.12H51.688V33.363h16.941V67.12z M97.229,55.991l-3.107-4.251l3.107-20.767
		h0.06l3.106,20.767l-3.106,4.251H97.229z M110.444,62.378V49.003c0.75,1.09,1.344,2.039,1.681,2.697
		C111.919,53.765,111.457,57.957,110.444,62.378z"/>
</g>
</svg>
