<?xml version="1.0" encoding="iso-8859-1"?>
<!-- Generator: Adobe Illustrator 17.1.0, SVG Export Plug-In . SVG Version: 6.00 Build 0)  -->
<!DOCTYPE svg PUBLIC "-//W3C//DTD SVG 1.1//EN" "http://www.w3.org/Graphics/SVG/1.1/DTD/svg11.dtd">
<svg version="1.1" id="Layer_1" xmlns="http://www.w3.org/2000/svg" xmlns:xlink="http://www.w3.org/1999/xlink" x="0px" y="0px"
	 viewBox="0 0 128 128" style="enable-background:new 0 0 128 128;" xml:space="preserve">
<g>
	<path d="M104.083,39.517h0.002c0,0,0.905,0,0.948,0c0.47,0,0.671,0.385,0.711,0.478c0,0,6.724,21.925,6.727,21.926
		c0.73,2.374,3.246,3.709,5.621,2.98c2.377-0.729,3.713-3.246,2.984-5.622c-0.003-0.009-3.954-12.895-6.668-21.743
		c-0.028-0.108-0.053-0.201-0.075-0.277c-1.028-3.573-3.397-11.71-10.987-11.71H84.639c-7.072,0-9.435,8.137-10.464,11.71
		c-0.022,0.076-6.74,22.012-6.743,22.02c-0.729,2.376,0.607,4.894,2.983,5.622c2.375,0.728,4.891-0.606,5.621-2.98
		c0.002,0,6.727-21.926,6.727-21.926c0.04-0.093,0.241-0.478,0.711-0.478c0.043,0,0.948,0,0.948,0h0.002
		c0.268-0.004,0.424,0.223,0.353,0.48L71.315,84.054c-0.073,0.257,0,0.706,0.469,0.706h9.307c0.268,0,0.463,0.217,0.463,0.484
		c0,0-0.002,32.096-0.002,32.108c0,3.205,2.598,5.803,5.803,5.803s5.803-2.598,5.803-5.803l0.002-32.108
		c0-0.268,0.216-0.484,0.484-0.484h0.008h0.928h0.008c0.268,0,0.484,0.216,0.484,0.484l0.002,32.108
		c0,3.205,2.598,5.803,5.803,5.803s5.803-2.598,5.803-5.803c0-0.011-0.002-32.108-0.002-32.108c0-0.268,0.196-0.484,0.463-0.484
		h9.581c0.469,0,0.542-0.449,0.469-0.706l-13.462-44.057C103.659,39.74,103.815,39.513,104.083,39.517z"/>
	<circle cx="94.254" cy="14.313" r="8.636"/>
	<ellipse cx="35.848" cy="70.164" rx="8.861" ry="9.06"/>
	<path d="M7.83,102.15c0.787,0.932,1.91,1.412,3.041,1.412c0.905,0,1.815-0.307,2.562-0.937L26.987,91.2
		c-2.852-3.377-6.189-4.905-10.098-1.894l-8.585,7.241C6.626,97.963,6.413,100.471,7.83,102.15z"/>
	<path d="M54.788,122.735c4.235,0,7.668-3.433,7.668-7.668c0-4.235-3.433-7.668-7.668-7.668c-0.564,0-1.113,0.065-1.642,0.181
		l-6.094-6.902c3.59-5.832,4.176-15.301,2.976-21.379c-0.033-0.169,0.139-0.407,0.26-0.529c1.716-1.732,3.244-3.658,4.971-5.381
		c1.073-1.07,2.226-2.008,3.564-2.706c1.498-0.781,2.694-0.282,3.872,0.635c0.136,0.106,0.251,0.205,0.26,0.218
		c0.006,0.008,0.011,0.016,0.018,0.023c1.81,2.191,0.515,4.4-1.27,6.072c-1.579,1.478,0.77,3.867,2.341,2.394
		c2.865-2.684,3.989-6.245,2.179-9.532c-0.083-0.151-0.605-1.064-1.592-1.905c-1.297-1.008-2.677-1.76-4.408-1.726
		c-1.77,0.035-3.486,1.011-4.883,2.035c-3.137,2.298-5.336,5.586-8.158,8.226c-0.031,0.029-0.06,0.059-0.088,0.089
		c-0.047,0.051-0.19,0.183-0.323,0.291c0,0-16.131,13.323-25.486,21.087l-6.853,5.638l0.013,0.016h-0.013v3.594
		c-2.985,1.049-5.128,3.885-5.128,7.228c0,4.235,3.433,7.668,7.668,7.668c4.235,0,7.668-3.433,7.668-7.668
		c0-3.524-2.381-6.486-5.62-7.383v-1.988l4.589-3.775c4.557,1.922,7.09,4.567,15.801,3.889c1.652-0.129,3.092-0.675,4.341-1.532
		l5.17,5.856c-1.122,1.334-1.801,3.053-1.801,4.933C47.12,119.302,50.553,122.735,54.788,122.735z"/>
</g>
</svg>
