<?xml version="1.0" encoding="iso-8859-1"?>
<!-- Generator: Adobe Illustrator 17.1.0, SVG Export Plug-In . SVG Version: 6.00 Build 0)  -->
<!DOCTYPE svg PUBLIC "-//W3C//DTD SVG 1.1//EN" "http://www.w3.org/Graphics/SVG/1.1/DTD/svg11.dtd">
<svg version="1.1" id="Layer_1" xmlns="http://www.w3.org/2000/svg" xmlns:xlink="http://www.w3.org/1999/xlink" x="0px" y="0px"
	 viewBox="0 0 128 128" style="enable-background:new 0 0 128 128;" xml:space="preserve">
<g>
	<circle cx="44.626" cy="13.517" r="8.701"/>
	<path d="M80.34,123.184c3.14,0,5.971-2.692,6.017-5.558l0.002-14.434c0-0.264,0.214-0.478,0.478-0.478h0.716
		c0.264,0,0.478,0.214,0.478,0.478l0.005,14.509c0.046,2.865,2.328,5.483,5.468,5.483c2.966,0,5.403-2.487,5.703-5.177
		c0.029-0.262,0.047-34.331,0.047-34.331s0.104-0.664,0.233-0.895c0,0,10.382-18.588,10.512-18.818
		c0.792-1.4,0.827-3.174-0.059-4.653c-1.311-2.189-4.149-2.9-6.338-1.589c-0.802,0.48-1.403,1.216-1.782,2l-5.783,10.424
		c-0.266,0.461-0.568,0.642-1.133,0.642h-16.09c-0.264,0-0.584-0.186-0.715-0.414c0,0-6.076-10.646-6.206-10.876
		c-0.013-0.024-0.029-0.046-0.042-0.07c-1.308-4.262-6.993-22.793-6.993-22.793c-1.036-3.601-3.014-11.799-10.661-11.799H35.081
		c-7.125,0-9.649,8.198-10.685,11.799c-0.022,0.076-6.791,22.178-6.794,22.188c-0.734,2.394,0.612,4.931,3.006,5.665
		c2.393,0.734,4.928-0.611,5.664-3.003c0.002,0,6.778-22.092,6.778-22.092c0.04-0.093,0.242-0.481,0.716-0.481
		c0.043,0,0.955,0,0.955,0h0.002c0.27-0.004,0.427,0.225,0.356,0.484L21.514,83.787c-0.073,0.259,0,0.711,0.472,0.711h9.516
		c0.27,0,0.467,0.219,0.467,0.488c0,0-0.002,32.34-0.002,32.351c0,3.229,2.618,5.847,5.847,5.847s5.847-2.618,5.847-5.847
		l0.002-32.352c0-0.27,0.218-0.487,0.487-0.487h0.008h0.935h0.008c0.27,0,0.487,0.218,0.487,0.487l0.002,32.352
		c0,3.229,2.618,5.847,5.847,5.847s5.847-2.618,5.847-5.847c0-0.011-0.002-32.351-0.002-32.351c0-0.27,0.197-0.488,0.467-0.488
		h9.516c0.472,0,0.546-0.452,0.472-0.711L54.173,39.396c-0.071-0.259,0.086-0.488,0.356-0.484h0.002c0,0,0.912,0,0.955,0
		c0.474,0,0.676,0.388,0.716,0.481c0,0,6.349,20.66,7.159,23.291c0.129,0.571,0.366,1.103,0.677,1.577l10.381,17.964
		c0.132,0.228,0.239,0.627,0.239,0.891v34.494C74.704,120.476,77.199,123.184,80.34,123.184z"/>
	<path d="M83.938,55.943c-2.031,1.074-3.415,3.206-3.415,5.663c0,3.537,2.867,6.404,6.403,6.404c3.536,0,6.403-2.867,6.403-6.403
		c0-2.186-1.096-4.116-2.769-5.271v-3.75l-1.726,2.907c-0.188-0.059-0.381-0.108-0.577-0.15v-2.757l-1.574,2.624
		c-0.255,0.009-0.506,0.033-0.752,0.071v-2.695L83.938,55.943z"/>
</g>
</svg>
