<?xml version="1.0" encoding="iso-8859-1"?>
<!-- Generator: Adobe Illustrator 17.1.0, SVG Export Plug-In . SVG Version: 6.00 Build 0)  -->
<!DOCTYPE svg PUBLIC "-//W3C//DTD SVG 1.1//EN" "http://www.w3.org/Graphics/SVG/1.1/DTD/svg11.dtd">
<svg version="1.1" id="Layer_1" xmlns="http://www.w3.org/2000/svg" xmlns:xlink="http://www.w3.org/1999/xlink" x="0px" y="0px"
	 viewBox="0 0 128 128" style="enable-background:new 0 0 128 128;" xml:space="preserve">
<g>
	<circle cx="64.873" cy="15.446" r="9.185"/>
	<path d="M70.487,43.829l3.08,6.296c0.323,0.693,0.821,1.288,1.445,1.727l7.716,5.449l6.191,4.437
		c0.724,0.52,1.553,0.783,2.381,0.811c1.405,0.048,2.806-0.585,3.685-1.812c1.399-1.951,0.951-4.668-1.001-6.067l-2.153-1.543
		c-0.181-0.191-0.38-0.369-0.604-0.526L81,45.377l-7.031-14.323c-0.715-1.535-2.21-2.439-3.793-2.503
		c-0.034-0.007-0.074-0.023-0.103-0.023H56.607c-1.068,0-1.895,0.873-1.837,1.94l-0.441,8.551c-0.752-3.411-3.788-5.965-7.425-5.965
		c-3.177,0-5.896,1.949-7.035,4.715l-0.738-10.382c-0.104-1.461-1.384-2.555-2.835-2.458c-1.462,0.105-2.562,1.373-2.458,2.835
		l1.236,17.393c0.067,1.307,1.13,10.905,17.346,12.3l-13.489,25.69c-0.497,0.946-0.029,1.72,1.04,1.72h8.742v8.066L33.018,114.82
		c-1.407,1.962-0.957,4.692,1.005,6.099c0.771,0.553,1.661,0.819,2.543,0.819c1.361,0,2.703-0.634,3.556-1.824l16.513-23.03
		c0.532-0.743,0.819-1.634,0.819-2.547v-9.47h2.139l11.027,33.854c0.601,1.846,2.314,3.019,4.155,3.019
		c0.449,0,0.905-0.069,1.355-0.216c2.296-0.747,3.55-3.214,2.803-5.509L68.788,84.867h6.799c1.068,0,1.613-0.81,1.209-1.799
		L66.083,56.792c-0.403-0.99-0.368-2.593,0.079-3.564L70.487,43.829z"/>
	<circle cx="45.976" cy="27.044" r="5.041"/>
</g>
</svg>
