<?xml version="1.0" encoding="iso-8859-1"?>
<!-- Generator: Adobe Illustrator 17.1.0, SVG Export Plug-In . SVG Version: 6.00 Build 0)  -->
<!DOCTYPE svg PUBLIC "-//W3C//DTD SVG 1.1//EN" "http://www.w3.org/Graphics/SVG/1.1/DTD/svg11.dtd">
<svg version="1.1" id="Layer_1" xmlns="http://www.w3.org/2000/svg" xmlns:xlink="http://www.w3.org/1999/xlink" x="0px" y="0px"
	 viewBox="0 0 128 128" style="enable-background:new 0 0 128 128;" xml:space="preserve">
<g>
	<path d="M59.857,63.356v-0.128h0c0-1.972-1.764-3.448-3.735-3.448h-0.866c-0.285,0-0.448-0.221-0.365-0.493l1.59-5.198
		c0.083-0.272-0.08-0.493-0.365-0.493H45.911c-0.285,0-0.432,0.215-0.33,0.481l2.013,5.222c0.102,0.266-0.045,0.481-0.33,0.481
		H36.869c-1.972,0-3.289,1.476-3.289,3.448v0.127c0,1.972,1.318,3.638,3.289,3.638h19.253
		C58.093,66.994,59.857,65.328,59.857,63.356z"/>
	<circle cx="90.217" cy="16.575" r="11.953"/>
	<circle cx="25.234" cy="39.498" r="7.382"/>
	<path d="M37.887,101.17c2.088,0,3.78-1.692,3.78-3.78V83.972c0-1.239-0.608-2.401-1.626-3.106l-6.708-3.872
		c-0.427-0.271-0.583-0.788-0.583-1.052L31.83,55.13l12.929-3.496c1.872-0.481,3-2.389,2.518-4.261
		c-0.481-1.872-2.386-3-4.261-2.519l-21.723,5.857c-0.092,0.024-0.172,0.066-0.26,0.096c-1.184,0.291-2.085,1.273-2.26,2.498
		c-0.075,0.319-0.12,0.648-0.101,0.985l-2.399,23.068c0,1.67,1.354,3.024,3.024,3.024h6.779l8.033,5.569V97.39
		C34.107,99.478,35.799,101.17,37.887,101.17z"/>
	<path d="M102.17,122.75c3.866,0,7-3.134,7-7V85.873h9.619c3.645,0,4.708-3.305,3.811-5.521l-11.387-44.196
		c-0.942-2.667-2.57-4.31-4.31-4.31H90.507c-1.054,0-2.007,0.393-2.756,1.022c-0.377,0.27-0.736,0.573-1.044,0.949l-8.882,10.688
		h-9.137c-1.628,0-3.07,0.737-4.058,1.879H53.018c-0.422,0-0.765,0.286-0.765,0.708c0,0.078,0.122,2.119,3.506,2.119
		c1.288,0,2.405-0.46,2.975-0.906c0.224-0.176,0.579-0.375,0.864-0.375h4.084c-0.239,0.609-0.381,1.268-0.381,1.962
		c0,2.975,2.411,5.387,5.387,5.387h11.685c1.614,0,3.142-0.724,4.164-1.97l1.815-2.188l-6.424,28.173
		c-1.514,5.08,1.219,6.579,3.236,6.579H95.17v29.877C95.17,119.616,98.304,122.75,102.17,122.75z"/>
	<path d="M9.87,88.814h1.168l-5.6,31.102c-0.196,1.087,0.527,2.127,1.614,2.323c0.12,0.021,0.239,0.031,0.357,0.031
		c0.949,0,1.792-0.679,1.966-1.646l3.778-20.981h9.432l3.778,20.981c0.174,0.967,1.017,1.646,1.966,1.646
		c0.118,0,0.237-0.01,0.357-0.031c1.087-0.196,1.81-1.236,1.614-2.323l-5.6-31.102h1.235c1.67,0,3.024-1.354,3.024-3.024
		c0-1.67-1.354-3.024-3.024-3.024H12.518l-2.91-21.848c-0.22-1.655-1.744-2.81-3.396-2.599c-1.656,0.22-2.818,1.741-2.598,3.396
		l3.26,24.473C7.072,87.692,8.354,88.814,9.87,88.814z M15.102,88.814h5.532l1.23,6.83h-7.992L15.102,88.814z"/>
</g>
</svg>
