<?xml version="1.0" encoding="iso-8859-1"?>
<!-- Generator: Adobe Illustrator 17.1.0, SVG Export Plug-In . SVG Version: 6.00 Build 0)  -->
<!DOCTYPE svg PUBLIC "-//W3C//DTD SVG 1.1//EN" "http://www.w3.org/Graphics/SVG/1.1/DTD/svg11.dtd">
<svg version="1.1" id="Layer_1" xmlns="http://www.w3.org/2000/svg" xmlns:xlink="http://www.w3.org/1999/xlink" x="0px" y="0px"
	 viewBox="0 0 128 128" style="enable-background:new 0 0 128 128;" xml:space="preserve">
<g>
	<circle cx="20.216" cy="64.033" r="5.487"/>
	<circle cx="108.333" cy="22.137" r="7.863"/>
	<path d="M4.766,108.268h51.109c1.135-0.068,6.431-1.081,6.431-7.256c0-1.631-0.48-2.871-1.207-3.804
		c-0.167-0.213-0.183-0.546-0.017-0.763c1.446-1.892,2.747-3.885,4.054-5.877c1.925-2.936,3.878-5.849,5.849-8.752
		c2.922-4.304,5.91-8.56,8.932-12.792c0.248,0.047,0.498,0.077,0.748,0.077c1.181,0,2.349-0.52,3.139-1.517L93.8,54.963
		c0.085-0.107,0.165-0.22,0.239-0.336l4.289-6.881l0.66,8.048c0.06,1.098-0.31,2.794-0.822,3.768L84.57,86.77
		c-0.511,0.974-0.03,1.771,1.07,1.771h7.004l-9.747,17.542c-1.207,2.173-0.425,4.912,1.748,6.119
		c0.692,0.385,1.442,0.567,2.182,0.567c1.581,0,3.115-0.835,3.938-2.315l12.175-21.913h0.893v19.727c0,2.485,2.015,4.5,4.5,4.5
		s4.5-2.015,4.5-4.5V88.541h4.415c1.1,0,1.66-0.833,1.245-1.852l-4.503-27.702c-0.344-1.156-0.531-2.062-0.406-3.052l1.729-18.654
		c0.26-1.619-0.339-2.986-1.969-3.052c-0.031-0.006-11.094-0.001-13.574,0c-0.166-0.008-0.33-0.012-0.494,0h-0.003
		c-0.158,0-0.308,0.023-0.454,0.057c-1.047,0.198-2.015,0.803-2.633,1.773L87.4,50.158l-9.869,12.46
		c-1.248,1.576-1.104,3.793,0.236,5.215c-2.918,4.09-5.806,8.202-8.632,12.355c-1.886,2.771-3.75,5.557-5.594,8.356
		c-1.451,2.203-2.858,4.452-4.47,6.545c-0.165,0.215-0.505,0.3-0.763,0.218c-1.903-0.618-3.826-0.224-4.104,0.851
		c-1.229,4.148,3.31,2.384,3.871,4.587c0.068,0.263,0.094,0.714,0.02,0.972c-0.318,1.096-2.203,1.555-3.645,1.555
		c-1.414,0-8.818-0.018-10.803,0c-0.272,0.002-0.494-0.215-0.5-0.487v-4.387c-0.004-0.272,0.135-0.489,0.407-0.489
		c0,0,5.87,0.05,6.136,0c1.19-0.22,1.929-1.157,1.929-2.343s-0.739-2.269-1.929-2.488c0,0-2.959-0.002-7.27-0.005
		c0.386-0.224,0.732-0.531,1.004-0.921c1-1.432,0.65-3.404-0.782-4.404l-5.275-3.683c0.897-1.42,0.538-3.305-0.854-4.276
		l-3.61-2.541c-0.714-0.515-1.467-1.043-2.218-1.561l-5.05-3.555c-0.751-0.525-1.52-0.568-2.007-0.568
		c-0.197-0.01-3.831,0.011-4.028,0c-1.295,0.042-4.176-0.001-4.275,3.521c-0.104,3.213-0.025,9.759,0,12.455
		c0.024,2.595,0.385,4.522,1.755,5.526c-4.519,0.001-7.654,0.005-7.654,0.013c0,0.031-0.222,0.059-0.485,0.124
		c-1.031,0.261-1.899,1.229-1.899,2.382c0,1.155,0.868,2.121,1.899,2.382c0.263,0.068,7.695,0,7.695,0
		c0.272,0,0.422,0.185,0.418,0.455v4.174c-0.004,0.272-0.228,0.491-0.498,0.491H5.741c-0.272,0-0.714,0.12-0.974,0.189
		c-1.053,0.283-2.001,1.292-2.001,2.497C2.765,106.977,3.725,108.24,4.766,108.268z M32.443,88.343l6.575,4.591
		c0.077,0.054,0.159,0.091,0.239,0.137c-3.679-0.002-7.923-0.004-12.038-0.005C29.153,92.247,30.561,90.742,32.443,88.343z"/>
</g>
</svg>
