<?xml version="1.0" encoding="iso-8859-1"?>
<!-- Generator: Adobe Illustrator 17.1.0, SVG Export Plug-In . SVG Version: 6.00 Build 0)  -->
<!DOCTYPE svg PUBLIC "-//W3C//DTD SVG 1.1//EN" "http://www.w3.org/Graphics/SVG/1.1/DTD/svg11.dtd">
<svg version="1.1" id="Layer_1" xmlns="http://www.w3.org/2000/svg" xmlns:xlink="http://www.w3.org/1999/xlink" x="0px" y="0px"
	 viewBox="0 0 128 128" style="enable-background:new 0 0 128 128;" xml:space="preserve">
<g>
	<circle cx="40.28" cy="15.959" r="9.012"/>
	<circle cx="79.866" cy="66.435" r="7.054"/>
	<path d="M99.867,107.713h-3.334c-1.81,0-3.277,1.467-3.277,3.277v6.309c0,1.81,1.467,3.277,3.277,3.277h6.309
		c1.811,0,3.277-1.466,3.277-3.277v-6.309c0-1.648-1.217-3.013-2.802-3.243c-0.259-0.038-0.262-0.034,0.002-0.034h3.572
		c1.81,0,3.277-1.467,3.277-3.277v-6.548c0-1.81-1.467-3.277-3.277-3.277h-6.548c-1.81,0-3.277,1.467-3.277,3.277v6.548
		c0,1.648,1.218,3.013,2.802,3.243C100.128,107.717,100.13,107.713,99.867,107.713z M102.403,99.756
		c0.19-0.013,0.249-0.028,0.329-0.044c0.184-0.04,0.361-0.122,0.477-0.243c0.078-0.084,0.154-0.219,0.194-0.357
		c0.008-0.032,0.019-0.07,0.028-0.105c0.013-0.059,0.194-0.105,0.403-0.105c0.209,0,0.38,0.213,0.38,0.477v3.811
		c0,0.264-0.213,0.477-0.477,0.477c-0.264,0-0.477-0.213-0.477-0.477v-2.382c0-0.264-0.213-0.477-0.477-0.477h-0.238
		c-0.264,0-0.477-0.125-0.477-0.281C102.07,99.893,102.22,99.766,102.403,99.756z M100.538,112.095
		c0.272,0.23,0.407,0.538,0.407,0.924c0,0.272-0.08,0.504-0.243,0.692c-0.049,0.055-0.097,0.101-0.146,0.139
		c-0.089,0.07-0.078,0.114,0.019,0.182c0.049,0.034,0.103,0.078,0.165,0.135c0.232,0.215,0.348,0.511,0.348,0.884
		c0,0.392-0.135,0.739-0.407,1.036s-0.673,0.447-1.207,0.447c-0.656,0-1.112-0.162-1.367-0.591c-0.065-0.112-0.118-0.26-0.154-0.412
		c-0.059-0.236,0.131-0.435,0.38-0.435c0.247,0,0.458,0.093,0.479,0.207c0.015,0.074,0.034,0.152,0.059,0.202
		c0.11,0.224,0.312,0.31,0.604,0.31c0.179,0,0.335-0.074,0.469-0.196s0.198-0.306,0.198-0.536c0-0.306-0.07-0.513-0.315-0.614
		c-0.084-0.033-0.189-0.057-0.308-0.071c-0.169-0.021-0.308-0.164-0.308-0.346c0-0.179,0.129-0.325,0.287-0.346
		c0.114-0.015,0.211-0.036,0.279-0.068c0.202-0.089,0.276-0.27,0.276-0.544c0-0.177-0.065-0.321-0.169-0.433
		c-0.103-0.112-0.255-0.167-0.443-0.167c-0.215,0-0.376,0.04-0.477,0.175c-0.055,0.074-0.095,0.152-0.12,0.245
		c-0.038,0.148-0.219,0.272-0.454,0.272c-0.234,0-0.424-0.143-0.39-0.319c0.019-0.103,0.049-0.202,0.084-0.308
		c0.074-0.182,0.192-0.333,0.352-0.487c0.12-0.108,0.262-0.184,0.426-0.243c0.164-0.057,0.365-0.082,0.604-0.082
		C99.909,111.749,100.268,111.865,100.538,112.095z"/>
	<path d="M120.649,110.99c0-1.81-1.467-3.277-3.277-3.277h-6.309c-1.81,0-3.277,1.467-3.277,3.277v6.309
		c0,1.81,1.467,3.277,3.277,3.277h6.309c1.81,0,3.277-1.466,3.277-3.277V110.99z M115.171,116.526h-2.241
		c-0.264,0-0.483-0.215-0.435-0.475c0.036-0.186,0.093-0.327,0.173-0.489c0.131-0.31,0.437-0.663,0.922-1.009
		c0.42-0.302,0.692-0.53,0.817-0.658c0.19-0.202,0.285-0.43,0.285-0.673c0-0.196-0.055-0.363-0.162-0.494
		c-0.11-0.131-0.264-0.196-0.466-0.196c-0.279,0-0.466,0.112-0.566,0.319c-0.032,0.068-0.057,0.167-0.076,0.285
		c-0.025,0.16-0.226,0.293-0.471,0.293c-0.245,0-0.445-0.215-0.399-0.475c0.036-0.198,0.093-0.346,0.169-0.492
		c0.243-0.462,0.675-0.698,1.298-0.698c0.492,0,0.882,0.133,1.173,0.405s0.435,0.631,0.435,1.078c0,0.344-0.103,0.648-0.308,0.914
		c-0.135,0.177-0.357,0.374-0.665,0.593l-0.365,0.259c-0.228,0.162-0.386,0.255-0.471,0.329c-0.036,0.032-0.07,0.078-0.101,0.122
		c-0.051,0.072,0.101,0.108,0.365,0.108h1.089c0.264,0,0.477,0.213,0.477,0.477C115.646,116.314,115.433,116.526,115.171,116.526z"
		/>
	<path d="M14.638,60.005c0.4,0.11,0.802,0.163,1.198,0.163c1.975,0,3.786-1.31,4.336-3.305l3.882-14.083l2.061-1.81
		c-2.61,16.219-6.748,42.039-7.158,45.31c-0.034,0.262,0.154,0.473,0.418,0.473l6.939,0l-1.553,29.973
		c-0.128,2.481,1.779,4.598,4.261,4.727c0.08,0.004,0.158,0.006,0.237,0.006c2.378,0,4.366-1.864,4.49-4.268l1.577-30.438l4.144,0
		l4.838,30.902c0.348,2.22,2.262,3.805,4.44,3.805c0.231,0,0.466-0.019,0.702-0.055c2.455-0.385,4.134-2.688,3.75-5.143l-4.62-29.51
		l6.17,0c0.264,0,0.454-0.211,0.424-0.473L48.931,42.04l2.843,3.487c0.581,0.671,1.346,1.155,2.2,1.392l15.443,4.284
		c0.403,0.112,0.807,0.165,1.206,0.165c1.972,0,3.781-1.306,4.334-3.298c0.664-2.395-0.739-4.875-3.133-5.539L57.69,38.61
		l-7.593-9.378c-0.84-0.97-1.988-1.556-3.191-1.541l-0.002-0.014l-16.842,0.014c-2.453,0-3.614,1.025-4.161,1.491l-8.734,7.641
		c-0.687,0.584-1.182,1.361-1.422,2.23l-4.25,15.417C10.835,56.867,12.242,59.345,14.638,60.005z"/>
	<path d="M68.082,117.627c-0.068,1.932,1.443,3.553,3.375,3.621c0.042,0.001,0.083,0.002,0.125,0.002
		c1.876,0,3.429-1.487,3.496-3.377l0.654-18.602h2.732l2.457,18.929c0.229,1.765,1.734,3.05,3.466,3.05
		c0.15,0,0.302-0.01,0.455-0.029c1.917-0.249,3.269-2.004,3.02-3.921L84.392,90.89v-6.728l7.106,7.62
		c0.591,0.643,1.398,0.968,2.208,0.968c0.727,0,1.455-0.263,2.032-0.794c1.218-1.122,1.296-3.02,0.174-4.238L84.506,75.489
		c-0.451-0.49-1.029-0.787-1.637-0.904c-0.138-0.034-0.281-0.055-0.429-0.059c-0.007,0-0.015-0.002-0.022-0.002
		c-0.009,0-0.018-0.003-0.027-0.003H70.955c-0.164,0-0.321,0.025-0.473,0.062c-0.603,0.116-1.176,0.408-1.626,0.891l-8.844,9.604
		c-1.13,1.212-1.064,3.11,0.147,4.24c0.578,0.54,1.313,0.807,2.046,0.807c0.803,0,1.604-0.32,2.194-0.953l4.556-4.947v8.583
		L68.082,117.627z"/>
</g>
</svg>
