<?xml version="1.0" encoding="iso-8859-1"?>
<!-- Generator: Adobe Illustrator 17.1.0, SVG Export Plug-In . SVG Version: 6.00 Build 0)  -->
<!DOCTYPE svg PUBLIC "-//W3C//DTD SVG 1.1//EN" "http://www.w3.org/Graphics/SVG/1.1/DTD/svg11.dtd">
<svg version="1.1" id="Layer_1" xmlns="http://www.w3.org/2000/svg" xmlns:xlink="http://www.w3.org/1999/xlink" x="0px" y="0px"
	 viewBox="0 0 128 128" style="enable-background:new 0 0 128 128;" xml:space="preserve">
<g>
	<path d="M113.674,123.37h2.714c2.997,0,5.516-1.901,5.516-4.329V57.133c0-2.428-2.519-4.319-5.516-4.319h-2.714
		c-2.997,0-5.464,1.891-5.464,4.319v3.562c0,0.329-0.149,0.375-0.344,0.109c-5.74-7.807-16.164-7.314-16.164-7.314l-34.819-0.277
		c-0.329-0.003-0.796,0.17-1.054,0.375c-2.417,1.918-5.471,3.068-8.79,3.068c-3.4,0-6.522-1.205-8.967-3.209
		c-0.254-0.208-0.719-0.389-1.048-0.392l-16.638-0.132c-0.329-0.003-0.595-0.271-0.595-0.6V41.883c0-2.998-2.62-5.145-5.617-5.145
		h-2.714c-2.997,0-5.364,2.147-5.364,5.145v76.434c0,2.997,2.366,5.649,5.364,5.649h2.714c2.997,0,5.617-2.651,5.617-5.649v-16.382
		c0-0.329,0.266-0.595,0.595-0.595h87.227c0.329,0,0.595,0.267,0.595,0.595v17.105C108.209,121.469,110.676,123.37,113.674,123.37z"
		/>
	<path d="M47.039,28.314c3.733,0,7.133,1.453,9.666,3.821c0.24,0.224,0.428,0.345,0.431,0.257c0.002-0.053,0.003-0.105,0.003-0.158
		c0-9.742-7.897-17.639-17.639-17.639s-17.638,7.898-17.638,17.639c0,7.81,5.078,14.431,12.112,16.75
		c0.312,0.103,0.442-0.057,0.298-0.354c-0.899-1.86-1.405-3.944-1.405-6.145C32.868,34.672,39.225,28.314,47.039,28.314z"/>
	<path d="M41.705,52.937c1.601,0.819,3.412,1.283,5.334,1.283c1.856,0,3.611-0.433,5.171-1.2c3.888-1.912,6.564-5.91,6.564-10.535
		c0-2.499-0.784-4.813-2.115-6.716c-2.121-3.033-5.638-5.019-9.62-5.019c-6.481,0-11.735,5.254-11.735,11.735
		c0,2.705,0.918,5.194,2.456,7.179C38.814,51.026,40.16,52.147,41.705,52.937z"/>
	<path d="M85.172,26.679c-0.329-0.013-0.616-0.289-0.642-0.617L82.815,4.335c-0.026-0.328-0.229-0.398-0.453-0.158L62.37,25.618
		c-0.224,0.24-0.378,0.7-0.342,1.027l2.284,21.128c0.035,0.327,0.33,0.595,0.659,0.599l23.232,0.287
		c0.329,0.004,0.774-0.191,0.994-0.435l18.199-20.221c0.22-0.244,0.132-0.453-0.197-0.466L85.172,26.679z"/>
</g>
</svg>
