<?xml version="1.0" encoding="utf-8"?>
<!-- Generator: Adobe Illustrator 16.0.0, SVG Export Plug-In . SVG Version: 6.00 Build 0)  -->
<!DOCTYPE svg PUBLIC "-//W3C//DTD SVG 1.1//EN" "http://www.w3.org/Graphics/SVG/1.1/DTD/svg11.dtd">
<svg version="1.1" id="Layer_1" xmlns="http://www.w3.org/2000/svg" xmlns:xlink="http://www.w3.org/1999/xlink" x="0px" y="0px"
	 width="50px" height="50px" viewBox="0 0 50 50" enable-background="new 0 0 50 50" xml:space="preserve">
<g>
	<polygon points="25,29.127 25,29.127 25,29.127 	"/>
	<path d="M25,29.127l-1.536-1.536l1.292-3.125h-0.013l-0.502-0.576c0.243,0.087,0.497,0.14,0.759,0.14s0.515-0.052,0.757-0.139
		l-0.501,0.575h-0.013l1.292,3.125L25,29.127c2.741,0,5.481-0.451,5.481-1.353c0-1.525-1.757-3.584-4.129-4.185
		c0.992-0.667,1.675-1.983,1.675-3.167c0-1.672-1.355-3.027-3.027-3.027s-3.027,1.355-3.027,3.027c0,1.185,0.683,2.5,1.675,3.167
		c-2.372,0.601-4.129,2.66-4.129,4.185C19.519,28.676,22.259,29.127,25,29.127z"/>
	<polygon points="39.312,32.475 39.312,31.153 36.653,29.433 38.53,31.153 11.473,31.153 13.351,29.433 10.688,31.153 
		10.688,32.475 13.351,32.475 13.351,40.413 12.689,40.413 12.689,41.159 11.704,41.159 11.704,41.893 38.299,41.893 38.299,41.159 
		37.311,41.159 37.311,40.413 36.653,40.413 36.653,32.475 	"/>
	<path d="M25,16.276c2.252,0,4.084-1.832,4.084-4.085c0-2.251-1.833-4.083-4.084-4.083c-2.252,0-4.084,1.832-4.084,4.083
		C20.916,14.444,22.747,16.276,25,16.276z M21.655,12.284h0.325v-0.184h-0.325c0.016-0.542,0.166-1.048,0.41-1.498l0.272,0.158
		l0.092-0.159l-0.276-0.16c0.275-0.447,0.648-0.821,1.096-1.097l0.161,0.277l0.158-0.091l-0.157-0.273
		c0.449-0.245,0.955-0.395,1.497-0.41v0.324h0.077l-0.494,0.989h0.335v2.031c0,0.017,0.013,0.027,0.018,0.042
		c0.004,0.015-0.002,0.03,0.006,0.044l0.667,1.156l-0.29,0.167l0.951,0.628l-0.068-1.138l-0.29,0.167l-0.644-1.115v-1.984h0.335
		l-0.494-0.989h0.075l0.001-0.324c0.542,0.015,1.047,0.165,1.497,0.41L26.43,9.531l0.16,0.091l0.159-0.277
		c0.447,0.275,0.822,0.649,1.097,1.097l-0.276,0.161l0.092,0.158l0.272-0.158c0.245,0.45,0.395,0.955,0.411,1.497H28.02v0.184h0.324
		c-0.016,0.542-0.166,1.048-0.411,1.498l-0.272-0.158l-0.091,0.159l0.276,0.16c-0.276,0.447-0.651,0.821-1.098,1.097l-0.159-0.276
		l-0.158,0.091l0.157,0.273c-0.45,0.245-0.954,0.395-1.496,0.41v-0.324h-0.184v0.324c-0.542-0.015-1.049-0.165-1.497-0.41
		l0.158-0.273l-0.159-0.091l-0.159,0.277c-0.448-0.275-0.823-0.65-1.098-1.097l0.277-0.161l-0.092-0.158l-0.273,0.157
		C21.821,13.331,21.671,12.826,21.655,12.284z"/>
</g>
</svg>
