<?xml version="1.0" encoding="utf-8"?>
<!-- Generator: Adobe Illustrator 16.0.0, SVG Export Plug-In . SVG Version: 6.00 Build 0)  -->
<!DOCTYPE svg PUBLIC "-//W3C//DTD SVG 1.1//EN" "http://www.w3.org/Graphics/SVG/1.1/DTD/svg11.dtd">
<svg version="1.1" id="Layer_12" xmlns="http://www.w3.org/2000/svg" xmlns:xlink="http://www.w3.org/1999/xlink" x="0px" y="0px"
	 width="100px" height="100px" viewBox="0 0 100 100" enable-background="new 0 0 100 100" xml:space="preserve">
<path d="M47.938,58.052v1.393c-5.731-1.146-10.243-6.971-11.024-14.29c1.633-0.349,3.323-0.541,5.061-0.541h16.052
	c1.736,0,3.426,0.192,5.061,0.541c-0.81,7.568-5.604,13.541-11.61,14.395v-1.498H47.938z M50,43.324
	c10.448,0,18.918-8.47,18.918-18.918c0-10.447-8.47-18.917-18.918-18.917c-10.447,0-18.918,8.47-18.918,18.917
	C31.082,34.854,39.553,43.324,50,43.324z M64.345,45.979c-0.942,8.138-6.249,14.536-12.868,15.375v1.525h5.503v3.41h-5.503v8.493
	h-3.538v-8.493h-4.916v-3.41h4.916v-1.626c-6.343-1.132-11.368-7.379-12.283-15.273c-10.296,2.79-17.903,12.189-17.903,23.356
	v19.635l0.051,0.306l1.355,0.423c12.743,3.98,23.818,5.311,32.934,5.311c17.801,0,28.118-5.076,28.756-5.398l1.267-0.643
	l0.133,0.001V69.335C82.247,58.169,74.641,48.77,64.345,45.979z"/>
</svg>
