<?xml version="1.0" encoding="utf-8"?>
<!-- Generator: Adobe Illustrator 17.0.0, SVG Export Plug-In . SVG Version: 6.00 Build 0)  -->
<!DOCTYPE svg PUBLIC "-//W3C//DTD SVG 1.1//EN" "http://www.w3.org/Graphics/SVG/1.1/DTD/svg11.dtd">
<svg version="1.1" id="Capa_1" xmlns="http://www.w3.org/2000/svg" xmlns:xlink="http://www.w3.org/1999/xlink" x="0px" y="0px"
	 width="64px" height="64px" viewBox="0 0 64 64" enable-background="new 0 0 64 64" xml:space="preserve">
<path fill="#0E0F0F" d="M25.573,11.87l-2.249-1.138l0.432-0.854l2.526,1.278c1.326-1.068,3.204-1.33,4.822-0.512
	c2.202,1.114,3.086,3.803,1.972,6.005c-1.114,2.203-3.804,3.085-6.005,1.972c-2.203-1.114-3.086-3.803-1.973-6.006
	C25.234,12.347,25.395,12.099,25.573,11.87z M51.496,11.573c-2.969-2.614-3.003,2.463-6.78,0.07
	c-2.057-1.302-2.908,0.603-2.953,2.907c-4.417,1.372-8.642,3.579-12.454,6.505c-0.218-0.097-0.442-0.179-0.674-0.243
	c-0.521-0.447-1.213-0.694-1.95-0.627c-2.174,0.198-6.897,1.508-11.957,2.949c-0.881,0.251-1.626,0.463-2.145,0.604
	c-1.403,0.383-2.231,1.831-1.848,3.234c0.32,1.171,1.382,1.941,2.54,1.941c0.229,0,0.462-0.03,0.695-0.093
	c0.533-0.146,1.297-0.363,2.201-0.621c1.37-0.39,3.247-0.924,5.091-1.42c-0.576,1.021-1.092,2.077-1.505,3.206
	c-0.926,2.537-0.961,5.477-1.125,8.172c-2.974,3.088-5.149,6.801-6.441,10.93c-0.734,2.346-1.531,5.098,0.646,6.82
	c1.866,1.477,3.924,1.652,6.061,2.473c3.464,1.328,4.948-4.229,1.527-5.541c-0.968-0.371-2.047-0.504-3.014-0.873
	c0.708-2.979,2.012-5.678,3.855-8.064c1.075,5.643,3.442,10.803,7.121,15.398c2.317,2.893,6.354-1.201,4.064-4.063
	c-3.498-4.369-5.503-9.721-5.974-15.275c0.14-0.375,0.233-0.789,0.265-1.244c0.163-2.373,0.174-4.436,0.866-6.583
	c0.1-0.312,0.485-1.014,0.941-1.781c0.773-1.303,1.658-2.544,2.51-3.795c0.071-0.104,0.131-0.208,0.19-0.313
	c3.61-3.032,7.689-5.288,11.963-6.633c1.951,1.726,6.532,0.603,8.354-1.258C53.421,16.462,54.468,14.187,51.496,11.573z
	 M39.976,8.99c1.458,0,2.64-1.182,2.64-2.64c0-1.458-1.182-2.64-2.64-2.64c-1.458,0-2.64,1.182-2.64,2.64
	C37.336,7.808,38.518,8.99,39.976,8.99z"/>
</svg>
