<?xml version="1.0" encoding="utf-8"?>
<!-- Generator: Adobe Illustrator 17.0.0, SVG Export Plug-In . SVG Version: 6.00 Build 0)  -->
<!DOCTYPE svg PUBLIC "-//W3C//DTD SVG 1.1//EN" "http://www.w3.org/Graphics/SVG/1.1/DTD/svg11.dtd">
<svg version="1.1" id="Capa_1" xmlns="http://www.w3.org/2000/svg" xmlns:xlink="http://www.w3.org/1999/xlink" x="0px" y="0px"
	 width="64px" height="64px" viewBox="0 0 64 64" enable-background="new 0 0 64 64" xml:space="preserve">
<path fill="#0E0F0F" d="M22.515,8.425c0-2.959,2.399-5.358,5.358-5.358c2.959,0,5.358,2.399,5.358,5.358
	c0,2.959-2.399,5.358-5.358,5.358C24.914,13.783,22.515,11.384,22.515,8.425z M48.772,40.355c-1.642,0.893-3.342,1.673-5.019,2.496
	c-1.231-2.655-2.576-5.298-3.448-8.057c-0.029-0.422-0.084-0.846-0.19-1.268c-0.97-3.871-1.834-7.763-2.644-11.67
	c2.98,1.165,5.914,2.438,8.792,3.858c3.222,1.59,6.057-3.233,2.821-4.829c-4.972-2.454-10.097-4.563-15.349-6.341
	c-0.126-0.043-0.244-0.059-0.365-0.085c-0.671-0.255-1.428-0.374-2.272-0.315c-1.531,0.106-3.159,1.04-4.164,2.367
	c-1.565,1.475-3.129,2.951-4.694,4.426c-2.703-0.901-5.406-1.802-8.108-2.703c-3.431-1.144-4.889,4.258-1.487,5.393
	c3.186,1.062,6.37,2.124,9.554,3.185c0.955,0.318,2.02-0.058,2.721-0.719c0.658-0.62,1.315-1.24,1.973-1.86
	c0.862,4.17,1.773,8.328,2.799,12.463c-0.949,7.047-3.837,13.625-5.777,20.45c-1.246,4.383,5.472,6.596,6.72,2.209
	c1.641-5.77,3.829-11.35,5.189-17.152c0.989,2.232,2.014,4.455,2.842,6.771c0.786,2.194,3.386,2.983,5.314,1.767
	c2.777-1.752,5.861-2.951,8.741-4.519C56.733,44.04,52.746,38.194,48.772,40.355z"/>
</svg>
