<?xml version="1.0" encoding="utf-8"?>
<!-- Generator: Adobe Illustrator 17.0.0, SVG Export Plug-In . SVG Version: 6.00 Build 0)  -->
<!DOCTYPE svg PUBLIC "-//W3C//DTD SVG 1.1//EN" "http://www.w3.org/Graphics/SVG/1.1/DTD/svg11.dtd">
<svg version="1.1" id="Capa_1" xmlns="http://www.w3.org/2000/svg" xmlns:xlink="http://www.w3.org/1999/xlink" x="0px" y="0px"
	 width="64px" height="64px" viewBox="0 0 64 64" enable-background="new 0 0 64 64" xml:space="preserve">
<path fill="#0E0F0F" d="M54.414,10.723c0,3.13-2.538,5.668-5.668,5.668c-3.13,0-5.668-2.538-5.668-5.668
	c0-3.13,2.538-5.668,5.668-5.668C51.876,5.055,54.414,7.593,54.414,10.723z M40.429,57.583l-0.09,0.277l0.528,0.152l0.242-0.761
	c0.145,0.08,0.294,0.155,0.441,0.224l-0.289,0.904l0.526,0.152l0.269-0.841c0.163,0.063,0.322,0.12,0.479,0.172l-0.3,0.935
	l0.527,0.153l0.297-0.93c0.904,0.249,1.592,0.318,1.592,0.318c1.09,0.245,0.89,1.483,0.89,1.483h-0.012
	c0.005,0.007,0.012,0.013,0.011,0.019l0.002,0.626c0,0.041-0.093,0.075-0.206,0.075l-1.913,0.005v0.668h1.236
	c0.159-0.014,1.855-0.197,1.961-1.151l0.924,0.092c-0.193,1.749-2.726,1.935-2.833,1.941l-0.017,0.002h-1.546h-0.276h-7.606v-0.884
	h3.56l-0.001-0.653l-3.562,0.009c-0.112,0-0.207-0.074-0.207-0.074l-0.01-0.706c0,0,0.006-0.013,0.01-0.02l-0.01,0.001l0.168-3.458
	l0.004-0.233c-0.003-0.048-0.015-0.09-0.015-0.138c0.02-0.672,0.035-1.324,0.044-1.956l0.004-0.183
	c0.286-20.349-3.758-20.516-9.052-23.082c-0.409-0.166-0.733-0.405-0.985-0.687c-0.411-0.273-0.755-0.679-0.968-1.235
	c-2.473-6.421-4.944-12.843-7.414-19.264c-0.163-0.425-0.205-0.812-0.156-1.16c-0.007-0.054-0.002-0.075,0.01-0.071
	c0.003-0.017,0.005-0.035,0.009-0.052L16.64,7.789l-0.542,0.08l0.093,0.792c-0.165-0.013-0.332-0.019-0.495-0.021l-0.111-0.943
	l-0.542,0.079l0.103,0.877c-0.173,0.01-0.342,0.025-0.506,0.042L14.526,7.72L13.983,7.8L14.1,8.767
	c-0.925,0.147-1.581,0.369-1.581,0.369c-1.094,0.229-1.424-0.982-1.424-0.982l0.01-0.004c-0.006-0.003-0.015-0.006-0.016-0.013
	L10.826,7.57c-0.016-0.038,0.054-0.108,0.157-0.154l2.493-1.143l-0.319-0.585L11.32,6.523c-0.139,0.08-1.606,0.948-1.308,1.859
	L9.131,8.681c-0.547-1.672,1.68-2.89,1.776-2.94l0.014-0.009l8.367-3.831l0.365,0.805l-2.3,1.073l0.311,0.572l2.259-1.06
	c0.103-0.046,0.221-0.019,0.221-0.019l0.301,0.639c0,0-0.001,0.014-0.001,0.021l0.008-0.005l1.259,3.169
	c0.201,0.227,0.373,0.498,0.498,0.823c2.328,6.054,5.359,19.108,11.985,18.914c10.423-1.139,4.036-8.144,4.036-8.144
	s-4.935-5.816-7.912-8.999c-2.185-2.335,1.318-5.852,3.508-3.51c3.543,3.787,13.815,13.785,13.895,15.863
	c1.355,4.249-2.154,9.423-5.524,12.548c-0.368,0.341-0.753,0.602-1.143,0.803c0,6.848,0,13.697,0,20.547
	C41.054,56.646,40.804,57.188,40.429,57.583z M17.162,4.582L16.85,4.008l-3.19,1.451l0.317,0.583L17.162,4.582z M39.375,60.559
	l0.001,0.655h3.496v-0.666L39.375,60.559z"/>
</svg>
