<?xml version="1.0" encoding="utf-8"?>
<!-- Generator: Adobe Illustrator 16.0.0, SVG Export Plug-In . SVG Version: 6.00 Build 0)  -->
<!DOCTYPE svg PUBLIC "-//W3C//DTD SVG 1.1//EN" "http://www.w3.org/Graphics/SVG/1.1/DTD/svg11.dtd">
<svg version="1.1" id="Layer_11" xmlns="http://www.w3.org/2000/svg" xmlns:xlink="http://www.w3.org/1999/xlink" x="0px" y="0px"
	 width="100px" height="100px" viewBox="0 0 100 100" enable-background="new 0 0 100 100" xml:space="preserve">
<path d="M70.301,47.253v12.532l-0.086-0.001l-0.809,0.409c-0.406,0.206-6.99,3.444-18.352,3.444c-3.002,0-6.348-0.232-9.992-0.801
	l-3.311-0.605c-2.453-0.5-5.018-1.14-7.711-1.981l-0.865-0.271l-0.031-0.193V47.253c0-7.158,4.9-13.18,11.52-14.929
	c2.377,2.219,5.557,3.588,9.059,3.588s6.68-1.37,9.059-3.588c5.146,1.36,9.242,5.307,10.814,10.36l0.643,3.207
	C70.279,46.34,70.301,46.794,70.301,47.253z M49.723,32.325c7.734,0,14.004-6.27,14.004-14.003c0-7.734-6.27-14.004-14.004-14.004
	s-14.004,6.27-14.004,14.004C35.719,26.055,41.988,32.325,49.723,32.325z M67.057,62.542c-0.359,0.181-6.188,3.049-16.246,3.049
	c-2.658,0-5.619-0.205-8.848-0.708l-2.932-0.537c-2.172-0.443-4.441-1.009-6.826-1.753l-0.637-0.2
	c-0.076,0.254-0.129,0.518-0.129,0.795l5.85,30.71c0,1.539,1.246,2.785,2.785,2.785h7.301V80.041c0-0.949,0.77-1.718,1.719-1.718
	s1.717,0.77,1.717,1.718v16.642h7.623c1.537,0,2.785-1.246,2.785-2.785l6.631-30.71c0-0.337-0.07-0.657-0.18-0.956L67.057,62.542z"
	/>
</svg>
