<?xml version="1.0" encoding="utf-8"?>
<!-- Generator: Adobe Illustrator 17.0.0, SVG Export Plug-In . SVG Version: 6.00 Build 0)  -->
<!DOCTYPE svg PUBLIC "-//W3C//DTD SVG 1.1//EN" "http://www.w3.org/Graphics/SVG/1.1/DTD/svg11.dtd">
<svg version="1.1" id="Capa_1" xmlns="http://www.w3.org/2000/svg" xmlns:xlink="http://www.w3.org/1999/xlink" x="0px" y="0px"
	 width="64px" height="64px" viewBox="0 0 64 64" enable-background="new 0 0 64 64" xml:space="preserve">
<path fill="#0E0F0F" d="M59.156,15.437H46.064c-0.131,0-0.262,0.009-0.391,0.026c-0.846-0.091-1.697,0.172-2.332,0.987L27.599,29.89
	c0.023-0.251,0.014-0.535-0.026-0.874c-0.324-2.708,0.493-4.111,0.169-6.821c-0.213-1.785-1.312-3.311-3.277-3.324
	c-1.625-0.011-3.539,1.487-3.326,3.277c0,0-0.222,9.79,0.103,12.5c0.026,0.223,0.063,0.412,0.106,0.578l-8.124,6.937L4.091,41.89
	C2.386,41.891,1,43.278,1,44.984v5.431c0,1.705,1.386,3.092,3.091,3.092h13.092c1.082,0,2.055-0.545,2.622-1.465l29.271-24.989
	h10.08c1.707,0,3.092-1.387,3.092-3.091v-5.433C62.248,16.825,60.863,15.437,59.156,15.437z M59.705,23.962
	c0,0.302-0.246,0.547-0.549,0.547h-11.02L17.869,50.35l-0.083,0.071l-0.118,0.234c-0.095,0.19-0.281,0.309-0.485,0.309H4.091
	c-0.301,0-0.547-0.248-0.547-0.549v-5.431c0-0.304,0.246-0.549,0.547-0.549h10.072l30.831-26.323
	c0.121-0.105,0.271-0.15,0.457-0.113l0.25,0.047l0.25-0.052c0.039-0.009,0.076-0.012,0.113-0.012h13.092
	c0.303,0,0.549,0.245,0.549,0.547V23.962z M21.89,14.882c0-1.603,1.299-2.902,2.902-2.902s2.902,1.299,2.902,2.902
	s-1.299,2.902-2.902,2.902S21.89,16.485,21.89,14.882z M51.694,36.069c0.002,0.012,0.008,0.021,0.008,0.036v6.408
	c0,0.432-0.349,0.783-0.783,0.783c-0.431,0-0.785-0.35-0.785-0.783v-4.519l-11.48,11.481c-0.306,0.307-0.802,0.307-1.107,0
	c-0.307-0.305-0.307-0.801,0-1.107l11.482-11.482h-4.521c-0.429,0-0.781-0.35-0.781-0.782s0.351-0.784,0.781-0.784h6.412
	c0.068,0,0.137,0.01,0.201,0.03c0.02,0.005,0.035,0.01,0.053,0.015c0.014,0.007,0.031,0.008,0.045,0.014
	c0.023,0.011,0.043,0.028,0.064,0.04c0.038,0.02,0.071,0.038,0.102,0.059c0.031,0.024,0.057,0.052,0.084,0.077
	c0.025,0.027,0.053,0.054,0.076,0.083c0.024,0.032,0.041,0.067,0.061,0.103c0.012,0.021,0.027,0.041,0.037,0.064
	c0.006,0.011,0.006,0.024,0.01,0.036c0.011,0.036,0.019,0.073,0.027,0.11C51.686,35.99,51.695,36.027,51.694,36.069z"/>
</svg>
