<?xml version="1.0" encoding="utf-8"?>
<!-- Generator: Adobe Illustrator 16.0.0, SVG Export Plug-In . SVG Version: 6.00 Build 0)  -->
<!DOCTYPE svg PUBLIC "-//W3C//DTD SVG 1.1//EN" "http://www.w3.org/Graphics/SVG/1.1/DTD/svg11.dtd">
<svg version="1.1" id="Layer_1" xmlns="http://www.w3.org/2000/svg" xmlns:xlink="http://www.w3.org/1999/xlink" x="0px" y="0px"
	 width="50px" height="50px" viewBox="0 0 50 50" enable-background="new 0 0 50 50" xml:space="preserve">
<path d="M34.567,29.709c-1.617-1.78-3.931-3.312-6.61-3.992c2.168-1.459,3.662-4.335,3.662-6.925c0-3.655-2.964-6.619-6.618-6.619
	c-3.655,0-6.619,2.963-6.619,6.619c0,2.59,1.493,5.466,3.662,6.925c-5.185,1.315-9.027,5.816-9.027,9.151
	c0,1.972,5.99,2.955,11.98,2.954l-3.354-3.354l2.826-6.832h-0.029l-1.098-1.259c0.532,0.191,1.085,0.305,1.659,0.305
	c0.573,0,1.125-0.114,1.655-0.304l-1.097,1.257h-0.028l2.67,6.454v0.534l-3.198,3.198c2.105,0,4.21-0.122,6.055-0.365h7.984v-6.205
	v-1.542H34.567z M38.042,36.457h-8.841v-4.886l4.42,2.874l4.42-2.874V36.457z M33.622,33.583l-4.42-2.874h8.841L33.622,33.583z"/>
</svg>
