<?xml version="1.0" encoding="utf-8"?>
<!-- Generator: Adobe Illustrator 16.0.0, SVG Export Plug-In . SVG Version: 6.00 Build 0)  -->
<!DOCTYPE svg PUBLIC "-//W3C//DTD SVG 1.1//EN" "http://www.w3.org/Graphics/SVG/1.1/DTD/svg11.dtd">
<svg version="1.1" id="Layer_1" xmlns="http://www.w3.org/2000/svg" xmlns:xlink="http://www.w3.org/1999/xlink" x="0px" y="0px"
	 width="50px" height="50px" viewBox="0 0 50 50" enable-background="new 0 0 50 50" xml:space="preserve">
<g>
	<path d="M21.681,38.452l0.929-1.746c1.072,0.334,2.178,0.435,3.25,0.32l0.579,1.882l2.962-0.902l-0.576-1.889
		c0.956-0.5,1.817-1.204,2.521-2.083l1.744,0.931l1.454-2.736l-1.747-0.925c0.332-1.073,0.436-2.183,0.317-3.255l1.886-0.574
		l-0.906-2.966l-1.883,0.576c-0.504-0.955-1.211-1.816-2.086-2.521l0.935-1.744l-2.74-1.454l-0.927,1.744
		c-1.076-0.329-2.177-0.432-3.252-0.32l-0.577-1.884l-2.963,0.908l0.575,1.888c-0.953,0.502-1.815,1.208-2.521,2.081l-1.747-0.929
		l-1.448,2.731l1.744,0.929c-0.333,1.07-0.438,2.181-0.32,3.257l-1.887,0.576l0.902,2.965l1.887-0.578
		c0.509,0.957,1.209,1.815,2.085,2.522l-0.93,1.742L21.681,38.452z M20.085,26.299c1.449-2.715,4.815-3.747,7.528-2.3
		c2.713,1.44,3.743,4.812,2.299,7.524c-1.44,2.711-4.81,3.739-7.526,2.298C19.677,32.382,18.647,29.01,20.085,26.299z"/>
	<g>
		<path d="M39.042,17.428c0,0,0-6.338-14.042-6.336c-14.043,0.004-14.042,6.335-14.042,6.335l7.308,0c0,0-0.002-3.492,6.735-3.492
			c6.736,0,6.735,3.491,6.735,3.491L39.042,17.428z"/>
		<rect x="10.957" y="18.093" width="7.308" height="1.152"/>
		<rect x="31.734" y="18.093" width="7.308" height="1.152"/>
	</g>
</g>
</svg>
