<?xml version="1.0" encoding="utf-8"?>
<!-- Generator: Adobe Illustrator 16.0.4, SVG Export Plug-In . SVG Version: 6.00 Build 0)  -->
<!DOCTYPE svg PUBLIC "-//W3C//DTD SVG 1.1//EN" "http://www.w3.org/Graphics/SVG/1.1/DTD/svg11.dtd">
<svg version="1.1" id="Layer_1" xmlns="http://www.w3.org/2000/svg" xmlns:xlink="http://www.w3.org/1999/xlink" x="0px" y="0px"
	 width="50px" height="50px" viewBox="0 0 50 50" enable-background="new 0 0 50 50" xml:space="preserve">
<path d="M32.479,12.312H17.52c-1.29,0-2.338,1.047-2.338,2.337V35.35c0,1.289,1.048,2.336,2.338,2.336h14.958
	c1.291,0,2.338-1.047,2.338-2.336V14.649C34.818,13.36,33.77,12.312,32.479,12.312z M25,36.812c-0.742,0-1.344-0.603-1.344-1.345
	c0-0.741,0.602-1.344,1.344-1.344s1.344,0.603,1.344,1.344C26.344,36.21,25.742,36.812,25,36.812z M32.48,33.188H17.52
	c-0.462,0-0.838-0.375-0.838-0.838v-17.7c0-0.462,0.376-0.837,0.838-0.837h14.958c0.463,0,0.838,0.375,0.838,0.837v17.7h0.002
	C33.318,32.812,32.941,33.188,32.48,33.188z M30.184,17.899l-2.759,1.593c0,0-0.76-1.318-3.303,0.15
	c-2.543,1.468-1.782,2.786-1.782,2.786l-2.759,1.593c0,0-1.38-2.391,3.921-5.453S30.186,17.899,30.184,17.899z M22.486,22.68
	l0.251,0.435l-2.76,1.592l-0.251-0.435L22.486,22.68z M30.58,18.584l-2.759,1.593l-0.251-0.435l2.759-1.593L30.58,18.584z
	 M18.87,26.038h3.062v4.743H18.87V26.038z M23.469,23.912h3.062v6.869h-3.062V23.912z M28.068,21.296h3.062v9.485h-3.062V21.296z"/>
</svg>
