<?xml version="1.0" encoding="utf-8"?>
<!-- Generator: Adobe Illustrator 16.0.0, SVG Export Plug-In . SVG Version: 6.00 Build 0)  -->
<!DOCTYPE svg PUBLIC "-//W3C//DTD SVG 1.1//EN" "http://www.w3.org/Graphics/SVG/1.1/DTD/svg11.dtd">
<svg version="1.1" id="Layer_11" xmlns="http://www.w3.org/2000/svg" xmlns:xlink="http://www.w3.org/1999/xlink" x="0px" y="0px"
	 width="100px" height="100px" viewBox="0 0 100 100" enable-background="new 0 0 100 100" xml:space="preserve">
<g>
	<path d="M30.241,16.346c0.172,0.803,0.742,1.563,1.608,2.268c0.146,2.219,0.763,4.053,1.673,5.583
		c2.38-3.409,8.849-5.858,16.478-5.858c7.446,0,13.786,2.334,16.299,5.614c0.967-2.046,1.157-4.016,1.16-5.213
		c0.896-0.688,1.502-1.435,1.726-2.223c3.259-0.936,5.207-2.117,5.207-3.4c0-3.043-12.316-7.033-24.393-8.117
		c-12.558,1.207-24.392,5.074-24.392,8.117C25.607,14.323,27.328,15.438,30.241,16.346z M66.898,16.346l-0.94,1.861
		c-16.533-8.352-32.774-0.09-32.938-0.006l-0.963-1.85C32.758,15.986,49.417,7.516,66.898,16.346z"/>
	<path d="M57.303,47.406H42.695c-12.152,0-22.041,9.889-22.041,22.043v17.869l0.045,0.279l1.232,0.385
		c11.598,3.623,21.676,4.834,29.971,4.834c16.199,0,25.59-4.621,26.172-4.914l1.15-0.584h0.121V69.449
		C79.346,57.295,69.459,47.406,57.303,47.406z M54.266,88.048l-3.981,5.827c-0.055,0.081-0.141,0.126-0.234,0.126
		c-0.002,0-0.005,0-0.008,0c-0.094,0-0.182-0.05-0.234-0.131l-3.697-5.832c-0.032-0.049-0.047-0.108-0.045-0.17l1.851-28.299
		c0.01-0.15,0.133-0.264,0.283-0.264h3.839c0.15,0,0.273,0.113,0.286,0.264l1.988,28.296C54.32,87.933,54.3,87.994,54.266,88.048z
		 M52.465,58.45h-4.563l-3.967-8.2c0-0.787,0.636-1.421,1.423-1.421h9.527c0.785,0,1.421,0.634,1.421,1.421L52.465,58.45z"/>
	<path d="M63.942,25.118c-1.697-2.216-6.816-4.601-14.043-4.601c-7.445,0-12.561,2.469-14.162,4.763l-1.773,2.541l-0.969-1.629
		c-0.147,0.906-0.244,1.829-0.244,2.776c0,4.766,1.933,9.079,5.057,12.201c3.117,3.128,7.43,5.064,12.194,5.064
		c5.349,0,10.128-2.44,13.285-6.269c2.474-2.986,3.962-6.817,3.962-10.997c0-1.14-0.117-2.251-0.328-3.329l-0.983,2.082
		L63.942,25.118z"/>
</g>
</svg>
