<?xml version="1.0" encoding="utf-8"?>
<!-- Generator: Adobe Illustrator 16.0.0, SVG Export Plug-In . SVG Version: 6.00 Build 0)  -->
<!DOCTYPE svg PUBLIC "-//W3C//DTD SVG 1.1//EN" "http://www.w3.org/Graphics/SVG/1.1/DTD/svg11.dtd">
<svg version="1.1" id="Layer_1" xmlns="http://www.w3.org/2000/svg" xmlns:xlink="http://www.w3.org/1999/xlink" x="0px" y="0px"
	 width="50px" height="50px" viewBox="0 0 50 50" enable-background="new 0 0 50 50" xml:space="preserve">
<path d="M25,8.25c-6.664,0-12.067,5.403-12.067,12.066C12.933,26.981,25,41.75,25,41.75s12.067-14.769,12.067-21.434
	C37.067,13.653,31.664,8.25,25,8.25z M25,10.664c5.25,0,9.5,4.251,9.5,9.5c0,2.313-0.833,4.425-2.207,6.07
	c-0.932-1.715-2.913-3.406-5.352-4.024c1.425-0.958,2.406-2.848,2.406-4.549c0-2.401-1.947-4.348-4.347-4.348
	c-2.401,0-4.348,1.947-4.348,4.348c0,1.702,0.98,3.591,2.406,4.549c-2.438,0.619-4.419,2.31-5.351,4.024
	c-1.374-1.646-2.207-3.757-2.207-6.07C15.5,14.916,19.751,10.664,25,10.664z M22.794,28.959l1.857-5.488h-0.02l-0.721-0.827
	c0.349,0.125,0.712,0.201,1.09,0.201c0.377,0,0.739-0.075,1.087-0.199l-0.72,0.826h-0.018l1.857,5.488L25,32.164L22.794,28.959z"/>
</svg>
