<?xml version="1.0" encoding="utf-8"?>
<!-- Generator: Adobe Illustrator 16.0.0, SVG Export Plug-In . SVG Version: 6.00 Build 0)  -->
<!DOCTYPE svg PUBLIC "-//W3C//DTD SVG 1.1//EN" "http://www.w3.org/Graphics/SVG/1.1/DTD/svg11.dtd">
<svg version="1.1" id="Layer_3" xmlns="http://www.w3.org/2000/svg" xmlns:xlink="http://www.w3.org/1999/xlink" x="0px" y="0px"
	 width="126px" height="126px" viewBox="0 0 126 126" enable-background="new 0 0 126 126" xml:space="preserve">
<g>
	<path d="M88.431,78.734c-0.973-4.99-6.367-4.909-14.546-4.605v-4.66h0.002l0.043-18.366c0-0.114-0.019-0.223-0.023-0.335
		l0.028-0.014c6.051-2.926,14.12-8.167,14.343-19.842c0.163-8.608-7.236-14.843-13.195-19.862c-1.727-1.455-4.896-4.126-5.442-5.179
		c-0.182-2.377-2.156-4.217-4.558-4.217c-0.784,0-1.545,0.201-2.227,0.587c-0.685-0.386-1.444-0.587-2.229-0.587
		c-2.4,0-4.375,1.84-4.556,4.218c-0.545,1.052-3.716,3.723-5.454,5.188c-5.947,5.009-13.347,11.244-13.184,19.852
		c0.226,11.759,6.721,15.822,13.421,19.002l0.84,0.303c-0.033,0.291-0.059,0.583-0.059,0.885v16.614h-0.014v7.368
		c0,1.135,0.221,2.195,0.607,3.17c-0.031,0.219-0.05,0.441-0.05,0.668l0.003,40.435c0,2.755,2.233,4.99,4.99,4.989
		c2.756,0,4.989-2.234,4.989-4.99v-16.894c0.063,0.07,0.12,0.142,0.189,0.209c0.974,0.972,2.249,1.458,3.524,1.458
		c1.277,0,2.558-0.489,3.53-1.464c0.045-0.045,4.581-4.59,9.021-9.258C88.249,83.084,88.994,81.619,88.431,78.734z M46.569,30.737
		c-0.081-4.251,5.474-8.929,9.936-12.688c2.433-2.049,4.746-3.998,6.351-5.999c1.604,2,3.917,3.95,6.357,6.006
		c4.459,3.757,10.01,8.433,9.928,12.681c-0.133,6.99-2.956,8.55-9.895,11.708l-0.527,0.241c0,0-2.156-0.79-3.225-1.052l-2.713,2.731
		l-2.631-2.762c-0.008,0.003-0.019,0.003-0.027,0.005c-1.026,0.245-2.035,0.635-2.986,1.142
		C49.77,39.41,46.709,37.961,46.569,30.737z M62.344,95.614c-0.066,0.065-0.125,0.136-0.185,0.204V84.656
		c0.197,0.009,0.394,0.024,0.595,0.024c0.168,0,0.336-0.014,0.503-0.021c0.248,0.019,0.499,0.026,0.755,0.007
		c3.064-0.23,6.442-0.42,9.442-0.533C70.236,87.583,66.113,91.838,62.344,95.614z"/>
	<circle cx="62.782" cy="30.111" r="10.89"/>
</g>
</svg>
