<?xml version="1.0" encoding="utf-8"?>
<!-- Generator: Adobe Illustrator 16.0.0, SVG Export Plug-In . SVG Version: 6.00 Build 0)  -->
<!DOCTYPE svg PUBLIC "-//W3C//DTD SVG 1.1//EN" "http://www.w3.org/Graphics/SVG/1.1/DTD/svg11.dtd">
<svg version="1.1" id="Layer_1" xmlns="http://www.w3.org/2000/svg" xmlns:xlink="http://www.w3.org/1999/xlink" x="0px" y="0px"
	 width="126px" height="126px" viewBox="0 0 126 126" enable-background="new 0 0 126 126" xml:space="preserve">
<g>
	<path d="M92.967,54.022c5.726-0.107,9.508-5.485,9.491-13.511c-0.011-5.772-3.74-9.148-9.944-9.012
		c-5.975,0.138-9.272,3.443-9.213,9.236C83.392,49.076,87.07,54.132,92.967,54.022z"/>
	<path d="M70.876,66.85v6.623h-1.668c-0.202,1.438-0.308,2.752-0.357,3.801h5.824V62.105c-0.333,0.128-0.678,0.21-1.038,0.221
		C72.449,63.57,71.554,65.152,70.876,66.85z"/>
	<rect x="66.611" y="83.574" width="50.665" height="32.447"/>
	<path d="M112.214,78.169l-1.404-7.316c-0.049-0.25-0.12-0.492-0.217-0.727l-4.181-10.173c-0.41-1.001-1.202-1.725-2.135-2.09V57.83
		l-5.13-2.28l-2.102-1.904l-4.168,3.806l-4.072-3.839l-2.378,2.005l-3.187,1.426l-7.648-4.33l-0.918-0.965V15.717h6.84V9.589H0.959
		v6.128h3.795v61.557h32.3v23.748H24.012v15.39h30.967v-15.39H42.375V77.273h21.141c0.045-1.051,0.14-2.352,0.322-3.801H8.553
		V17.616h62.323v30.138l-3.481-3.658c-1.446-1.521-3.849-1.579-5.372-0.135c-1.521,1.446-1.579,3.852-0.135,5.374l8.4,8.828
		c0.08-0.074,0.154-0.154,0.234-0.228c0.299-0.769,0.882-1.404,1.636-1.757l3.269-1.535c0.432-0.202,0.893-0.305,1.371-0.305
		c1.246,0,2.395,0.729,2.925,1.857c0.366,0.778,0.406,1.657,0.113,2.468c-0.292,0.813-0.886,1.461-1.667,1.828l-2.329,1.093
		l5.287,2.992c0.116,0.065,0.234,0.118,0.352,0.171v13.421H68.814h-1.577c0.073-3.538,0.754-13.046,5.793-17.651
		c0.379,0.105,0.792,0.086,1.175-0.093l3.269-1.535c0.855-0.4,1.224-1.42,0.821-2.274c-0.4-0.855-1.419-1.222-2.274-0.821
		l-3.269,1.535c-0.516,0.242-0.851,0.712-0.949,1.233c-6.053,5.181-6.794,15.731-6.853,19.606h-1.464h-2.645v3.515h64.199v-3.515
		H112.214z M42.375,104.82h8.805v7.79H27.811v-7.79h9.243v4.518h5.321V104.82z M89.869,78.169l2.979-19.924h0.059l2.98,19.924
		H89.869z M103.898,78.169v-8.253l1.697,8.253H103.898z"/>
	<circle cx="28.669" cy="25.443" r="5.17"/>
	<path d="M31.096,70.232c1.311,0,2.373-1.063,2.373-2.372L33.47,48.76c0.311-0.576,0.491-1.229,0.491-1.943v-6.895
		c0.549,1.717,0.932,4.196,1.17,7.999c0.065,1.063,0.951,1.882,2.001,1.882c0.042,0,0.086-0.001,0.126-0.003
		c1.106-0.07,1.947-1.022,1.879-2.13c-0.711-11.392-3.016-13.338-7.029-15.8c-0.086-0.052-0.178-0.091-0.267-0.129
		c-0.577-0.384-1.225-0.666-1.885-0.829l-1.285,1.297l-1.251-1.311c-0.004,0-0.008,0.002-0.013,0.002
		c-0.661,0.158-1.311,0.439-1.89,0.821c-0.102,0.042-0.206,0.089-0.306,0.148c-4.014,2.462-6.318,4.408-7.03,15.8
		c-0.068,1.107,0.775,2.06,1.879,2.13c0.044,0.002,0.086,0.003,0.127,0.003c1.052,0,1.936-0.818,2.003-1.882
		c0.24-3.845,0.63-6.338,1.188-8.057v6.952c0,0.541,0.104,1.045,0.288,1.507c-0.014,0.105-0.025,0.212-0.025,0.317l0.004,19.22
		c0,1.31,1.061,2.372,2.371,2.372c1.31,0,2.371-1.063,2.371-2.372l-0.001-16.494c0.094,0.005,0.188,0.013,0.284,0.013
		c0.018,0,0.035-0.002,0.053-0.003V67.86C28.724,69.17,29.785,70.232,31.096,70.232z M28.681,42.44h-0.023l-1.246-1.706l1.246-8.334
		h0.023l1.248,8.334L28.681,42.44z"/>
	<circle cx="47.523" cy="38.762" r="3.534"/>
	<path d="M49.182,69.375c0.896,0,1.621-0.727,1.621-1.622l0.001-13.054c0.213-0.396,0.336-0.841,0.336-1.329v-4.713
		c0.375,1.174,0.637,2.868,0.801,5.468c0.044,0.727,0.649,1.285,1.366,1.285c0.029,0,0.059,0,0.086-0.002
		c0.757-0.047,1.331-0.698,1.285-1.455c-0.486-7.785-2.062-9.116-4.805-10.799c-0.059-0.036-0.121-0.063-0.182-0.088
		c-0.396-0.263-0.838-0.455-1.289-0.567l-0.878,0.887l-0.855-0.896c-0.002,0-0.005,0.001-0.009,0.001
		c-0.451,0.108-0.896,0.301-1.291,0.562c-0.07,0.029-0.142,0.061-0.209,0.102c-2.743,1.683-4.318,3.014-4.805,10.799
		c-0.047,0.757,0.528,1.408,1.283,1.455c0.031,0.002,0.06,0.002,0.088,0.002c0.718,0,1.322-0.559,1.369-1.285
		c0.163-2.628,0.43-4.332,0.812-5.507v4.752c0,0.369,0.07,0.714,0.197,1.029c-0.01,0.072-0.019,0.146-0.019,0.217l0.003,13.137
		c0,0.896,0.725,1.622,1.621,1.622c0.896,0,1.62-0.727,1.62-1.622V56.479c0.064,0.004,0.129,0.009,0.194,0.009
		c0.011,0,0.023-0.002,0.035-0.002v11.267C47.56,68.648,48.286,69.375,49.182,69.375z M47.53,50.379h-0.015l-0.853-1.166
		l0.853-5.696h0.015l0.853,5.696L47.53,50.379z"/>
</g>
</svg>
