<?xml version="1.0" encoding="utf-8"?>
<!-- Generator: Adobe Illustrator 16.0.0, SVG Export Plug-In . SVG Version: 6.00 Build 0)  -->
<!DOCTYPE svg PUBLIC "-//W3C//DTD SVG 1.1//EN" "http://www.w3.org/Graphics/SVG/1.1/DTD/svg11.dtd">
<svg version="1.1" id="Layer_2" xmlns="http://www.w3.org/2000/svg" xmlns:xlink="http://www.w3.org/1999/xlink" x="0px" y="0px"
	 width="126px" height="126px" viewBox="0 0 126 126" enable-background="new 0 0 126 126" xml:space="preserve">
<g>
	<circle cx="90.089" cy="14.487" r="13.307"/>
	<path d="M117.125,56.906c-0.345-2.832-2.922-4.848-5.753-4.504c-2.013,0.246-7.093,0.095-9.048-1.949
		c-1.998-2.088-3.709-5.704-5.363-9.203c-1.247-2.637-2.546-5.34-4.074-7.674c-1.338-2.325-3.515-4.185-5.76-5.273
		c0,0-1.283-0.704-2.748-0.983c-1.4-0.268-3.023-0.277-3.023-0.277l-0.04-0.002c-2.698,0.079-5.673,1-7.909,2.82
		c-5.438,2.694-17.744,7.396-26.158,10.369c-2.69,0.95-4.1,3.901-3.149,6.591c0.749,2.122,2.742,3.447,4.87,3.447
		c0.571,0,1.152-0.096,1.722-0.297c2.398-0.847,10.311-3.674,17.685-6.656l-4.392,20.5c-0.539,2.521,0.026,4.863,1.258,6.85
		l-13.483,35.569c-0.481,0.037-0.963,0.085-1.44,0.136c-1.862,0.196-3.622,0.388-5.248-0.393c-0.897-0.37-1.363-1.011-1.902-1.752
		c-0.236-0.324-0.498-0.672-0.804-1.002c0.008-0.086,0.026-0.17,0.026-0.258c0-1.617-1.313-2.931-2.928-2.931
		c-0.287,0-0.56,0.056-0.821,0.133c-2.368-5.546-7.869-9.434-14.28-9.434c-8.574,0-15.524,6.951-15.524,15.524
		c0,8.574,6.95,15.523,15.524,15.523c8.573,0,15.524-6.949,15.524-15.523c0-0.138-0.017-0.27-0.021-0.406
		c0.616-0.086,1.171-0.357,1.604-0.767c0.06,0.081,0.117,0.16,0.18,0.244c0.587,0.808,1.317,1.813,2.658,2.363
		c2.059,0.988,4.169,0.763,6.212,0.545c0.17-0.019,0.335-0.035,0.501-0.054l-1.929,5.088c-1.379,3.638,0.453,7.705,4.091,9.084
		c0.821,0.313,1.666,0.459,2.496,0.459c2.843,0,5.521-1.733,6.588-4.55l5.369-14.165l-0.008,13.674
		c-0.002,3.891,3.149,7.046,7.04,7.048c0.002,0,0.004,0,0.005,0c3.889,0,7.043-3.151,7.045-7.039l0.024-41.939
		c2.911-1.158,5.373-3.406,6.123-6.911l3.449-16.104c1.039,1.725,2.189,3.351,3.547,4.77c4.295,4.488,10.9,5.223,14.764,5.223
		c1.551,0,2.659-0.118,2.998-0.159C115.453,62.314,117.471,59.739,117.125,56.906z M30.062,103.247l-0.236-0.178
		c-0.94-0.714-1.93-1.281-2.945-1.688l-1.023,3.646l0.609,0.453c1.342,1,2.189,1.884,2.597,2.708
		c0.414,0.835,0.486,1.746,0.217,2.704c-0.331,1.182-1.048,2.046-2.13,2.572c-1.002,0.484-2.271,0.622-3.78,0.409l-0.703,2.506
		l-2.087-0.587l0.678-2.413c-1.775-0.558-3.197-1.276-4.226-2.145l-0.148-0.123l0.857-3.045l0.354,0.315
		c0.546,0.488,1.225,0.963,2.018,1.413c0.678,0.385,1.317,0.68,1.905,0.88l1.063-3.775l-0.693-0.501
		c-1.15-0.858-1.938-1.729-2.343-2.6c-0.417-0.89-0.479-1.871-0.185-2.918c0.317-1.133,1.031-1.952,2.118-2.436
		c0.995-0.439,2.197-0.561,3.577-0.359l0.548-1.95l2.087,0.589l-0.532,1.896c1.449,0.491,2.776,1.207,3.952,2.13l0.229,0.178
		L30.062,103.247z M39.816,104.916c-0.033-0.389-0.089-0.771-0.15-1.15c0.517,0.09,0.884,0.298,1.201,0.604
		C40.586,104.65,40.222,104.843,39.816,104.916z M39.239,101.848c-0.08-0.271-0.177-0.538-0.271-0.804
		c0.159-0.041,0.322-0.07,0.494-0.07c0.903,0,1.66,0.611,1.9,1.438C40.814,102.09,40.129,101.873,39.239,101.848z"/>
	<path d="M24.953,108.242l-0.81,2.879c1.53,0.08,1.75-0.707,1.825-0.977c0.104-0.361,0.063-0.684-0.123-0.984
		C25.681,108.891,25.381,108.582,24.953,108.242z"/>
	<path d="M23.732,101.044c-0.321,0.155-0.523,0.394-0.618,0.728c-0.102,0.363-0.075,0.685,0.079,0.982
		c0.132,0.256,0.4,0.556,0.798,0.895l0.78-2.775C24.354,100.856,24.006,100.911,23.732,101.044z"/>
</g>
</svg>
