<?xml version="1.0" encoding="utf-8"?>
<!-- Generator: Adobe Illustrator 16.0.0, SVG Export Plug-In . SVG Version: 6.00 Build 0)  -->
<!DOCTYPE svg PUBLIC "-//W3C//DTD SVG 1.1//EN" "http://www.w3.org/Graphics/SVG/1.1/DTD/svg11.dtd">
<svg version="1.1" id="Layer_1" xmlns="http://www.w3.org/2000/svg" xmlns:xlink="http://www.w3.org/1999/xlink" x="0px" y="0px"
	 width="126px" height="126px" viewBox="0 0 126 126" enable-background="new 0 0 126 126" xml:space="preserve">
<g>
	<polygon points="56.211,9.122 56.274,9.571 55.612,9.706 55.516,10.654 56.324,10.654 57.392,10.555 57.941,9.9 57.353,9.67 
		57.028,9.303 56.541,8.532 56.324,7.421 55.413,7.606 55.161,7.997 55.161,8.431 55.595,8.738 	"/>
	<polygon points="55.445,9.488 55.489,8.89 54.968,8.665 54.221,8.833 53.668,9.714 53.668,10.292 54.313,10.292 	"/>
	<path d="M40.011,12.437h-0.789v0.412h0.19c0,0,0.014,0.084,0.024,0.198l0.49-0.044l0.29-0.182l0.09-0.384l0.386-0.029l0.155-0.325
		l-0.361-0.078l-0.307,0.008L40.011,12.437z"/>
	<polygon points="38.105,13.158 38.687,13.109 38.732,12.709 38.389,12.437 38.139,12.762 	"/>
	<path d="M111.701,36.868c-0.715,1.717-1.8,3.242-3.172,4.458c0.949,0.6,1.837,1.216,2.679,1.845l1.293-1.216l0.811-1.83
		l-0.335-1.353l-1.234-1.059L111.701,36.868z"/>
	<path d="M115.453,45.555l0.851-0.564l0.913-0.404l0.93-0.522l-0.342-0.604l-0.498,0.097l-0.013-1.121l-0.914,0.059l-0.122,1.754
		l-0.801,0.548l-1.49,0.202l-0.282,0.202c0.317,0.287,0.627,0.577,0.925,0.87L115.453,45.555z"/>
	<path d="M112.948,33.436h-0.373c-0.018,0.178-0.048,0.353-0.072,0.528h0.445V33.436z"/>
	<polygon points="86.412,27.13 86.704,27.91 87.745,27.522 87.851,26.443 87.02,26.282 	"/>
	<path d="M50.885,21.865l-0.155,0.894l-0.435,0.165l-0.025,2.339l2.632,3.001h1.146l0.079-0.185h2.059l0.598-0.548h1.168
		l0.645,0.645l1.742,0.176l-0.228,2.323l1.936,3.419l-1.021,1.947l0.072,0.915l0.809,0.801v2.209l1.05,1.417v1.568
		c1.37-0.636,2.873-1.021,4.46-1.104l1.004-1.029l0.733-1.311l0.94-0.207v-1.096l0.596-0.708c-0.186-0.358-0.324-0.632-0.395-0.776
		c-0.765-1.575-0.872-3.353-0.3-5.006c0.574-1.653,1.756-2.984,3.329-3.748c0.596-0.29,1.229-0.48,1.878-0.577l1.37-1.963
		l-0.539-0.257l-2.948,0.62l-0.763-0.375l-3.092-5.834l0.213-0.253l3.074,3.725l0.074,1.152l0.699,0.713l1.46-0.092l3.005-2.183
		l0.953-0.616l-0.016-0.761l-1.008-0.124c0,0-3.537-1.668-3.537-1.741c0-0.076,0.02-1.429,0.02-1.429h0.784l0.114,0.986l1.635,0.944
		l1.876,0.091l4.053,0.664l0.958,0.601v0.927l-0.123,1.267l2.086,3.419l0.662,0.156l0.675-0.974l0.366-2.769l0.697-1.49l1.115-0.42
		l1.968,0.19l1.606,1.425c2.121-1.801,4.858-2.894,7.853-2.894c0.201,0,0.398,0.021,0.599,0.03l0.173-0.145l-0.164-1.593
		l-2.091-2.201l-0.037-1.792h0.927l2.893,2.201l0.815-0.215l-0.548-0.708l-1.545-0.942l0.097-1.402l1.834,0.005l0.146-1.735
		l-0.699-0.915l0.417-0.45l0.89,0.897l0.291-0.379l-1.159-1.306l-2.833-0.341l-0.38-0.759l0.822-1.172l0.65,0.489l1.964,0.168
		l2.47-1.649l0.412,0.514l-0.552,0.864V8.41l2.272,1.857l0.721-0.375l-0.27-1.239l-1.619-1.511l2.134-0.144V6.382l1.023-0.208
		L109.36,5.63l0.03-0.418l2.175,0.348l0.414-0.348l-2.931-1.235L98.394,3.429l-0.992-0.506l-1.589-0.242l-1.184-0.038l-1.083,1.092
		l-0.451-0.034l-1.438-1.067h-4.232l-1.961-1.173l-3.928,0.246L78.561,3.05l0.015,1.544l-0.923,0.277l-0.205-1.55l-0.347-0.535
		l-1.025-0.255l-0.239,0.928l0.301,0.761l-3.669-0.242l-1.745,0.807L70.458,4.02l-0.442,0.113l-0.32,0.85l-0.916,0.717l-2.233-0.061
		L66.44,5.143l2.346-0.099l0.476-0.411L66.44,3.321l-3.437,0.104l-1.922,0.984l-0.725,1.29l-1.28,0.497l-0.535,0.587l0.123,0.678
		l0.659,0.091l0.401,0.993l1.12-0.458l0.199,1.324H60.69l-0.923-0.137l-1.028,0.173l-0.995,1.406l-1.433,0.229L56.109,12.3
		l0.607,0.141l-0.176,0.787l-1.422-0.28l-1.3,0.28l-0.27,0.725l0.22,1.52l0.771,0.357l1.272-0.003l0.868-0.083l0.268-0.691
		l1.346-1.747l0.892,0.181l0.872-0.79l0.165,0.618l2.149,1.455l-0.268,0.354l-0.969-0.057l0.369,0.531l0.6,0.132l0.699-0.292
		l-0.011-0.845l0.315-0.156l-0.256-0.268l-1.438-0.799l-0.37-1.069h1.188l0.38,0.376l1.034,0.89l0.037,1.074l1.069,1.134
		l0.397-1.554l0.738-0.407l0.138,1.273l0.724,0.794l2.174-0.034l0.645,0.479v1.141l-0.791,0.721h-2.205l-1.342-1.002l-1.406,0.142
		v0.86h-0.451l-0.48-0.346l-2.441-0.623V15.64l-3.104,0.241l-0.962,0.514h-1.223l-0.605-0.061l-1.492,0.831v1.558l-3.053,2.207
		l0.257,0.936H50.885z M73.449,11.773l0.932-0.087l0.789,0.332l0.039,0.552l-1.131-0.063l-0.055,0.509l1.407,0.937v0.691
		l0.616,0.442v0.49h-0.005l-0.315,0.296l-0.721-0.054l-0.139-0.218l-1.135-0.086l0.081-0.362l0.606-0.517v-0.436l-1.154-0.834
		l-0.051-1.069L73.449,11.773z M64.977,5.143L63.62,5.979v0.548l0.767,0.358l0.06,0.744l-1.096,1.623l-1.897-0.018l-0.116-0.389
		l1.183-0.605l0.014-2.244l2.008-1.407h0.436V5.143z M69.189,14.707v-0.004l-1.787-0.077l-0.532,0.077v-1.216l0.401-0.453
		l0.43-0.135l0.953-0.108l0.201-0.324l0.391,0.192l0.053,1.113l1.041,0.428l0.088,0.508H69.189z"/>
	<path d="M15.401,7.417l0.393-0.42h2.355L19,7.754l-0.051,1.174l0.719,0.664l-0.601,0.428l0.136,1.544l-2.128,2.59v2.431
		l1.143,0.552v2.181l1.108,1.876l0.884,0.134l0.113-0.642l-1.043-1.624l-0.208-1.581h0.62l0.265,1.627l1.525,2.224l-0.407,0.716
		l0.978,1.485l2.413,0.596v-0.388l0.96,0.132l-0.09,0.691l0.756,0.131l1.17,0.329l1.652,1.879l2.108,0.157l0.206,1.724l-1.444,1.008
		l-0.072,1.53l-0.201,0.944l2.084,2.613l0.162,0.889c0,0,0.759,0.207,0.844,0.207c0.092,0,1.701,1.218,1.701,1.218v4.717
		l0.438,0.129c2.172,0.422,4.132,1.428,5.725,2.842l0.183-0.087l0.554-1.012l1.719-2.209l-0.391-1.715l0.526-0.919l1.58,0.046
		l1.061-0.834l0.347-3.327l1.181-1.504l0.211-0.961l-1.081-0.346l-0.708-1.167l-2.43-0.021l-1.927-0.733l-0.095-1.375l-0.644-1.126
		l-1.731-0.02l-1.013-1.585l-0.895-0.43l-0.046,0.473l-1.626,0.101L34.639,25.3l-1.7-0.345l-1.4,1.614l-2.196-0.371l-0.16-2.482
		l-1.61-0.276l0.644-1.212l-0.186-0.7l-2.102,1.413L24.6,22.78l-0.48-1.041l0.294-1.075l0.734-1.345l1.681-0.856h3.259l-0.009,0.993
		l1.173,0.541l-0.097-1.697l0.844-0.845l1.703-1.119l0.107-0.784l1.705-1.766l1.808-0.998l-0.16-0.128l1.219-1.153l0.451,0.116
		l0.206,0.259l0.463-0.518l0.105-0.053l-0.5-0.067L38.59,11.07v-0.502l0.27-0.223h0.607l0.278,0.12l0.237,0.478l0.289-0.042v-0.029
		l0.09,0.025l0.842-0.135l0.118-0.413l0.471,0.12v0.445l-0.44,0.312l0.065,0.496l1.537,0.47c0,0,0.002,0.009,0.002,0.017
		l0.351-0.029l0.026-0.661l-1.214-0.551l-0.072-0.325l1.008-0.346l0.041-0.959l-1.049-0.643l-0.068-1.622l-1.453,0.708h-0.526
		l0.139-1.237l-1.957-0.468l-0.817,0.612V8.57l-1.462,0.457l-0.592,1.227l-0.631,0.099V8.789l-1.374-0.194L32.618,8.15l-0.28-1.01
		l2.461-1.441l1.203-0.367L36.12,6.14l0.675-0.034l0.055-0.407L37.549,5.6l0.009-0.137l-0.296-0.13l-0.072-0.428l0.861-0.075
		l0.518-0.543l0.037-0.038v0.004l0.156-0.165l1.82-0.228l0.798,0.681l-2.105,1.12l2.676,0.63l0.342-0.898h1.175l0.407-0.777
		l-0.819-0.207V3.425l-2.593-1.148l-1.784,0.206L37.663,3.01l0.075,1.286l-1.055-0.163l-0.16-0.708l1-0.919l-1.824-0.091
		l-0.532,0.154l-0.232,0.622l0.692,0.118l-0.14,0.689l-1.169,0.07l-0.18,0.452l-1.707,0.048c0,0-0.039-0.963-0.104-0.963
		c-0.073,0,1.327-0.02,1.327-0.02l1.011-0.989l-0.552-0.278l-0.732,0.716L32.16,2.967l-0.728-1.011h-1.561l-1.63,1.218h1.492
		l0.138,0.436l-0.393,0.367l1.653,0.049l0.252,0.595l-1.859-0.075l-0.092-0.457l-1.166-0.255l-0.62-0.339L24.893,3.52l-0.846,0.825
		l-0.576-0.049l-0.643-0.371l-1.902-0.569h-3.484l-2.016,1.372l-1.353,0.209l-0.62,0.483l0.962,0.141v0.386h-2.058l-0.805,0.573
		l1.028,0.873L15.401,7.417z M32.78,14.29h-0.876l0.14-0.596l0.412-0.044l0.095-0.202l0.626-0.086v0.536h0.005L32.78,14.29z
		 M33.388,12.813l-0.412,0.268l-0.52,0.09c0,0,0-0.82,0-0.906h0.932V12.813z M34.172,12.178l0.426,0.259l-0.34,0.281l-0.327-0.281
		L34.172,12.178z M33.615,12.865h0.068l1.054,0.306v0.54h-0.886l-0.236-0.346V12.865z M32.93,11.384l0.567,0.518l-0.567,0.139
		V11.384z M30.517,11.47l0.793-0.327h1.087v0.327h0.237v0.571h-1.657l-0.611-0.169L30.517,11.47z M30.365,12.952l0.629-0.687h0.91
		l-1.169,1.632l-0.484-0.261L30.365,12.952z M29.523,9.066l0.649,0.15l-0.224,0.88l-0.706,0.226l-0.442-0.917L29.523,9.066z
		 M26.256,4.905V4.854h0.603l0.056-0.209h0.985v0.432l-0.291,0.375h-1.353V4.905z M27.214,6.247c0,0,0.607-0.107,0.653-0.107
		s0,0.604,0,0.604l-1.359,0.087l-0.256-0.309L27.214,6.247z"/>
	<circle cx="32.421" cy="53.393" r="9.152"/>
	<path d="M38.509,64.773c-0.153-0.094-0.315-0.162-0.476-0.23c-1.019-0.68-2.163-1.18-3.331-1.467l-2.281,2.295l-2.209-2.32
		c-0.009,0.001-0.016,0.001-0.024,0.003c-1.189,0.285-2.357,0.795-3.395,1.492c-0.16,0.068-0.317,0.134-0.471,0.227
		c-3.485,2.14-12.492,7.675-11.668,18.658h7.164c-0.068-0.612-0.086-1.196-0.063-1.756c-0.298-1-0.46-2.057-0.46-3.153
		c0-6.043,4.845-10.967,10.853-11.115h0.55c6.009,0.147,10.854,5.071,10.854,11.115c0,1.111-0.169,2.184-0.474,3.197
		c0.021,0.547,0.003,1.116-0.061,1.712h7.162C51.003,72.448,41.998,66.913,38.509,64.773z"/>
	<path d="M74.142,64.773c-0.153-0.094-0.313-0.162-0.476-0.23c-1.019-0.68-2.165-1.18-3.331-1.467l-2.281,2.295l-2.209-2.32
		c-0.009,0.001-0.016,0.001-0.024,0.003c-1.192,0.285-2.357,0.795-3.395,1.492c-0.16,0.068-0.317,0.134-0.469,0.227
		c-3.487,2.14-12.494,7.675-11.67,18.658h7.162c-0.066-0.612-0.084-1.195-0.062-1.756c-0.296-1-0.461-2.057-0.461-3.153
		c0-6.043,4.844-10.967,10.853-11.115h0.551c6.009,0.147,10.854,5.071,10.854,11.115c0,1.111-0.169,2.184-0.474,3.197
		c0.021,0.547,0.003,1.116-0.061,1.712h7.162C86.636,72.448,77.631,66.913,74.142,64.773z"/>
	<circle cx="32.421" cy="78.294" r="9.152"/>
	<path d="M50.18,108.334c0.823-10.984-8.182-16.52-11.671-18.659c-0.153-0.094-0.315-0.162-0.476-0.23
		c-1.019-0.68-2.163-1.18-3.331-1.467l-2.281,2.295l-2.209-2.321c-0.009,0.002-0.016,0.002-0.024,0.004
		c-1.189,0.286-2.357,0.796-3.395,1.491c-0.16,0.068-0.317,0.134-0.471,0.228c-3.485,2.139-12.492,7.675-11.668,18.659h7.164
		c-0.274-2.51,0.234-4.568,1.236-6.305v6.305h9.305l-2.165-2.966l2.207-14.754h0.044l2.204,14.754l-2.165,2.966h9.306v-6.287
		c0.993,1.732,1.499,3.786,1.228,6.287H50.18z"/>
	<circle cx="68.055" cy="78.294" r="9.153"/>
	<path d="M85.813,108.334c0.823-10.984-8.182-16.52-11.671-18.659c-0.153-0.094-0.313-0.162-0.476-0.23
		c-1.019-0.68-2.165-1.18-3.331-1.467l-2.281,2.295l-2.209-2.321c-0.009,0.002-0.016,0.002-0.024,0.004
		c-1.192,0.286-2.357,0.796-3.395,1.491c-0.16,0.068-0.317,0.134-0.469,0.228c-3.487,2.139-12.494,7.675-11.67,18.659h7.162
		c-0.272-2.51,0.236-4.568,1.235-6.305v6.305h9.308l-2.165-2.966l2.207-14.754h0.042l2.206,14.754l-2.167,2.966h9.308v-6.287
		c0.993,1.732,1.497,3.786,1.228,6.287H85.813z"/>
	<circle cx="100.493" cy="31.672" r="9.153"/>
	<circle cx="68.054" cy="53.393" r="9.153"/>
	<path d="M106.41,42.957c-0.118-0.073-0.243-0.12-0.365-0.177c-1.004-0.658-2.126-1.143-3.271-1.423l-2.281,2.295l-2.211-2.321
		c-0.007,0.002-0.014,0.002-0.02,0.005c-1.099,0.262-2.175,0.716-3.147,1.328c-0.243,0.074-0.482,0.171-0.712,0.3
		c-1.418,0.797-2.767,0.952-4.243,0.493c-4.885-1.523-9.439-8.98-10.778-11.721c-0.357-0.737-0.942-1.28-1.622-1.617l-0.975-0.325
		c-0.708-0.122-1.455-0.039-2.152,0.299c-1.764,0.857-2.503,2.984-1.644,4.749c0.099,0.205,0.333,0.67,0.682,1.311l-0.93-0.122
		v1.104l0.511,0.591l-0.388,0.598l-0.576,0.662v1.218l0.786,0.759l0.711-1.143l1.091-1.601c0.114,0.185,0.23,0.372,0.355,0.566
		l0.837,1.266c2.623,3.818,6.766,8.56,11.962,10.186c1.029,0.321,2.064,0.501,3.097,0.555v18.727c0,0.967,0.19,1.868,0.521,2.695
		c-0.022,0.177-0.055,0.352-0.055,0.536l0.004,34.027c0,2.32,1.881,4.2,4.199,4.2c2.318,0,4.199-1.88,4.199-4.2l-0.002-29.203
		c0.166,0.008,0.333,0.02,0.499,0.02c0.035,0,0.065-0.003,0.099-0.003v29.186c0,2.32,1.881,4.2,4.199,4.2l0,0
		c2.318,0,4.199-1.88,4.199-4.2l0.002-33.381c0.222,0.21,0.463,0.405,0.743,0.558c0.539,0.293,1.12,0.433,1.694,0.433
		c1.26,0,2.48-0.671,3.125-1.856C124.579,54.1,110.905,45.713,106.41,42.957z M100.516,61.767h-0.042l-2.207-3.021l2.207-14.754
		h0.042l2.207,14.754L100.516,61.767z M109.862,65.796V55.635C111.219,58.202,111.523,61.451,109.862,65.796z"/>
	<rect x="7.854" y="111.496" width="109.09" height="13.043"/>
</g>
</svg>
