<?xml version="1.0" encoding="utf-8"?>
<!-- Generator: Adobe Illustrator 16.0.0, SVG Export Plug-In . SVG Version: 6.00 Build 0)  -->
<!DOCTYPE svg PUBLIC "-//W3C//DTD SVG 1.1//EN" "http://www.w3.org/Graphics/SVG/1.1/DTD/svg11.dtd">
<svg version="1.1" id="Layer_1" xmlns="http://www.w3.org/2000/svg" xmlns:xlink="http://www.w3.org/1999/xlink" x="0px" y="0px"
	 width="50px" height="50px" viewBox="0 0 50 50" enable-background="new 0 0 50 50" xml:space="preserve">
<g>
	<path d="M35.346,8.833H14.654c-1.784,0-3.234,1.45-3.234,3.233v25.866c0,1.783,1.45,3.233,3.234,3.233h20.691
		c1.784,0,3.234-1.45,3.234-3.233V12.067C38.58,10.284,37.13,8.833,35.346,8.833z M37.286,37.933c0,1.07-0.87,1.94-1.94,1.94H14.654
		c-1.07,0-1.94-0.87-1.94-1.94V12.067c0-1.07,0.87-1.94,1.94-1.94h20.691c1.07,0,1.94,0.87,1.94,1.94V37.933z"/>
	<path d="M31.818,22.97H18.182c-0.328,0-0.593,0.266-0.593,0.594s0.265,0.594,0.593,0.594h13.637c0.328,0,0.593-0.266,0.593-0.594
		S32.146,22.97,31.818,22.97z"/>
	<path d="M31.818,25.678H18.182c-0.328,0-0.593,0.266-0.593,0.594c0,0.328,0.265,0.594,0.593,0.594h13.637
		c0.328,0,0.593-0.266,0.593-0.594C32.411,25.943,32.146,25.678,31.818,25.678z"/>
	<path d="M31.818,28.385H18.182c-0.328,0-0.593,0.266-0.593,0.594s0.265,0.594,0.593,0.594h13.637c0.328,0,0.593-0.266,0.593-0.594
		S32.146,28.385,31.818,28.385z"/>
	<path d="M31.818,31.093H25c-0.328,0-0.594,0.266-0.594,0.594s0.266,0.594,0.594,0.594h6.818c0.328,0,0.593-0.266,0.593-0.594
		S32.146,31.093,31.818,31.093z"/>
	<path d="M31.818,36.44h-4.773c-0.329,0-0.594,0.266-0.594,0.594c0,0.328,0.265,0.594,0.594,0.594h4.773
		c0.328,0,0.593-0.266,0.593-0.594C32.411,36.706,32.146,36.44,31.818,36.44z"/>
	<path d="M25.662,20.359c0-1.124-1.294-2.64-3.041-3.083c0.73-0.491,1.233-1.46,1.233-2.333c0-1.231-0.997-2.23-2.229-2.23
		c-1.231,0-2.229,0.999-2.229,2.23c0,0.872,0.503,1.841,1.231,2.333c-1.744,0.443-3.039,1.96-3.039,3.083
		C17.589,21.687,25.662,21.687,25.662,20.359z M21.445,17.923h-0.01l-0.369-0.424c0.18,0.064,0.364,0.103,0.559,0.103
		c0.195,0,0.379-0.038,0.559-0.102l-0.37,0.423h-0.009l0.953,2.301l-1.133,1.13l-1.132-1.13L21.445,17.923z"/>
</g>
</svg>
