<?xml version="1.0" encoding="utf-8"?>
<!-- Generator: Adobe Illustrator 16.0.0, SVG Export Plug-In . SVG Version: 6.00 Build 0)  -->
<!DOCTYPE svg PUBLIC "-//W3C//DTD SVG 1.1//EN" "http://www.w3.org/Graphics/SVG/1.1/DTD/svg11.dtd">
<svg version="1.1" id="Layer_11" xmlns="http://www.w3.org/2000/svg" xmlns:xlink="http://www.w3.org/1999/xlink" x="0px" y="0px"
	 width="100px" height="100px" viewBox="0 0 100 100" enable-background="new 0 0 100 100" xml:space="preserve">
<path d="M51.83,89.759c0.461,0.421,0.931,0.818,1.405,1.205c-3.494,0.494-7.5,0.824-11.998,0.824
	c-9.002,0-19.938-1.313-32.523-5.245l-1.338-0.418l-0.049-0.303V66.431c0-12.465,9.586-22.729,21.77-23.819
	c-5.172-3.323-8.605-9.113-8.605-15.716c0-10.318,8.364-18.684,18.684-18.684c10.316,0,18.682,8.365,18.682,18.684
	c0,6.603-3.435,12.393-8.605,15.716c2.552,0.229,4.979,0.88,7.237,1.849c-9.223,5.545-14.958,16.216-13.687,27.416
	C43.611,79.003,46.649,85.02,51.83,89.759z M85.477,85.265c-3.829,3.747-8.476,5.895-13.8,6.402
	c-6.938,0.658-13.058-1.361-18.209-6.074c-4.332-3.962-6.773-8.931-7.436-14.758c-1.385-12.207,7.376-23.681,19.494-25.541
	c1.182-0.181,2.375-0.268,3.563-0.397c0.084,0,0.168,0,0.252,0c1.271,0.132,2.557,0.188,3.814,0.408
	c6.3,1.098,11.348,4.252,15.123,9.41c2.341,3.203,3.79,6.799,4.224,10.735C93.351,73.161,91.038,79.819,85.477,85.265z
	 M89.481,70.506c-0.295-0.124-0.603-0.233-0.894-0.377c-1.304-0.656-2.067-1.683-2.125-3.17c-0.042-1.091-0.224-1.314-1.339-1.559
	c-1.17-0.254-1.541-0.78-1.213-1.932c0.22-0.767,0.579-1.496,0.908-2.229c0.343-0.765,0.571-1.52,0.396-2.389
	c-0.158-0.78-0.135-1.577,0.58-2.233c-0.666-0.756-1.28-1.489-1.937-2.184c-0.309-0.326-0.568-0.208-0.664,0.25
	c-0.022,0.113-0.02,0.231-0.045,0.343c-0.242,1.022-0.872,1.257-1.695,0.632c-0.138-0.104-0.259-0.253-0.413-0.308
	c-0.261-0.09-0.556-0.206-0.81-0.164c-0.887,0.151-1.033,0.045-0.954-0.833c0.058-0.621-0.161-0.855-0.774-0.827
	c-0.211,0.011-0.42,0.054-0.631,0.059c-0.665,0.01-1.08-0.493-0.916-1.136c0.085-0.333,0.269-0.639,0.348-0.972
	c0.06-0.246,0.138-0.63,0.012-0.755c-0.508-0.498-1.055-0.978-1.654-1.356c-1.081-0.682-2.174-0.184-3.249,0.07
	c-0.114,0.877-0.235,0.995-1.071,0.747c-0.996-0.297-1.941-0.712-2.62-1.568c-0.085-0.107-0.288-0.192-0.426-0.178
	c-1.026,0.117-2.052,0.252-3.073,0.411c-0.146,0.024-0.378,0.222-0.374,0.334c0.003,0.197,0.132,0.537,0.255,0.559
	c0.332,0.059,0.717,0.058,1.025-0.062c0.422-0.163,0.781-0.483,1.192-0.688c0.499-0.246,0.857-0.064,0.998,0.473
	c0.169,0.637-0.059,1.175-0.576,1.507c-0.706,0.45-1.482,0.792-2.215,1.205c-0.514,0.287-1.041,0.572-1.497,0.938
	c-0.366,0.295-0.621,0.752-0.33,1.223c0.27,0.437,0.751,0.333,1.15,0.193c0.408-0.145,0.796-0.358,1.177-0.572
	c0.232-0.129,0.424-0.332,0.652-0.471c0.454-0.277,0.696-0.183,0.869,0.311c0.292,0.83,0.847,1.021,1.59,0.54
	c0.321-0.208,0.61-0.471,0.945-0.651c0.495-0.267,1.024,0.018,1.073,0.535c0.069,0.761,0.247,0.909,1,0.825
	c0.445-0.05,0.888-0.116,1.333-0.176c0.039,0.046,0.077,0.09,0.117,0.135c-0.155,0.29-0.245,0.657-0.479,0.85
	c-0.362,0.294-0.809,0.502-1.244,0.688c-0.633,0.27-1.202,0.433-1.224,0.47c0,0,0.889,0.358,0.419,0.491
	c-0.771,0.219-1.941,1.472-0.262,0.951c0.303-0.091,0.609-0.165,1.032-0.28c-0.353,1.063-1.1,1.481-1.839,1.877
	c-2.213,1.185-2.289,4.021-1.161,5.477c0.245,0.316,0.449,0.672,0.622,1.032c0.202,0.416,0.188,0.914-0.211,1.133
	c-0.269,0.146-0.808,0.116-1.047-0.068c-0.581-0.443-1.109-0.985-1.566-1.563c-0.581-0.732-1-1.602-1.615-2.299
	c-1.987-2.252-4.233-1.755-6.154-0.061c-0.486,0.429-0.422,0.817,0.114,1.17c0.191,0.124,0.399,0.229,0.612,0.313
	c0.853,0.345,1.711,0.675,2.566,1.018c0.174,0.07,0.354,0.152,0.5,0.271c0.295,0.237,0.313,0.491-0.074,0.645
	c-0.282,0.113-0.584,0.179-0.883,0.245c-0.561,0.12-1.153,0.154-1.676,0.366c-0.303,0.124-0.649,0.499-0.69,0.799
	c-0.034,0.255,0.306,0.605,0.549,0.841c0.183,0.174,0.49,0.212,0.715,0.351c0.316,0.19,0.656,0.378,0.902,0.644
	c0.414,0.448,0.707,0.561,1.245,0.26c0.518-0.288,1.017-0.611,1.517-0.931c0.593-0.378,0.704-0.331,1.047,0.275
	c0.425,0.755,1.01,1.376,1.961,1.208c0.681-0.121,1.324-0.436,1.986-0.657c0.451-0.152,0.895-0.374,1.357-0.43
	c0.947-0.114,1.672,0.688,1.727,1.797c0.054,1.11-0.46,1.941-1.245,2.662c-0.768,0.708-1.181,1.517-0.828,2.614
	c0.377,1.168-0.023,2.171-0.918,2.948c-0.619,0.538-1.304,1.007-1.988,1.467c-0.801,0.536-2.133,3.483-1.84,4.521
	c0.057,0.193,0.073,0.221,0.059,0.432c-0.077,1.105-0.645,0.911-1.632,1.084c-0.56,0.098-0.504-1.084-0.632-1.625
	c-0.123-0.52-0.121-1.096-0.041-1.628c0.079-0.521,0.324-1.018,0.503-1.524c0.374-1.06,0.103-1.96-0.675-2.729
	c-0.342-0.336-0.713-0.641-1.063-0.97c-1.271-1.188-1.888-2.685-1.956-4.397c-0.033-0.862,0.391-1.255,1.244-1.336
	c0.18-0.018,0.358-0.041,0.538-0.062c-0.101-0.718-0.364-0.989-1.064-1.033c-0.667-0.042-1.053-0.417-1.31-0.966
	c-0.12-0.256-0.141-0.557-0.242-0.822c-0.24-0.636-0.409-1.326-0.783-1.874c-0.336-0.494-0.611-0.921-0.6-1.55
	c0.007-0.293-0.204-0.635-0.41-0.879c-0.463-0.55-0.976-1.058-1.484-1.569c-0.197-0.2-0.438-0.361-0.767-0.628
	c-0.022,0.503-0.023,0.828-0.055,1.149c-0.044,0.456-0.051,0.931-0.196,1.354c-0.08,0.237-0.429,0.552-0.628,0.533
	c-0.253-0.024-0.618-0.311-0.684-0.553c-0.123-0.445-0.155-0.959-0.062-1.41c0.44-2.12,0.627-4.248,0.379-6.403
	c-0.09-0.79-0.199-1.576-0.311-2.451c-4.138,4.867-6.121,13.713-2.05,21.529c4.368,8.39,13.722,12.612,22.88,10.287
	c2.398-0.608,4.533-1.614,6.392-2.894c-1.002-0.281-2.534-0.896-2.672-4.78c-0.194-5.439,0.68-6.604,1.166-6.604
	c0.484,0,0.776-0.39,2.331,1.359c1.554,1.747,2.331,0.874,2.428-0.292c0.098-1.165,1.263-2.891,1.748-1.104
	c0.335,1.229,1.082,2.669,1.675,3.701C88.68,75.184,89.335,72.797,89.481,70.506z"/>
</svg>
