<?xml version="1.0" encoding="utf-8"?>
<!-- Generator: Adobe Illustrator 16.0.0, SVG Export Plug-In . SVG Version: 6.00 Build 0)  -->
<!DOCTYPE svg PUBLIC "-//W3C//DTD SVG 1.1//EN" "http://www.w3.org/Graphics/SVG/1.1/DTD/svg11.dtd">
<svg version="1.1" id="Layer_3" xmlns="http://www.w3.org/2000/svg" xmlns:xlink="http://www.w3.org/1999/xlink" x="0px" y="0px"
	 width="126px" height="126px" viewBox="0 0 126 126" enable-background="new 0 0 126 126" xml:space="preserve">
<g>
	<path d="M72.477,30.286c-0.387-0.237-0.797-0.393-1.214-0.513c-1.364-0.88-2.881-1.531-4.428-1.91L63.68,31.04l-3.06-3.211
		c-0.011,0.002-0.021,0.003-0.032,0.005c-2.34,0.56-4.615,1.746-6.394,3.414c-9.766,6.568-13.925,15.271-16.718,34.31
		c-0.394,2.687,1.465,5.185,4.152,5.579c0.242,0.035,0.482,0.052,0.72,0.052c2.4,0,4.501-1.759,4.86-4.204
		c1.004-6.849,2.167-11.853,3.507-15.635v5.466l-0.247,1.573c-1.671,3.41-2.646,7.489-2.646,11.875c0,1.217,0.079,2.409,0.223,3.571
		l-3.538,22.543c0,0,2.636,0.923,6.859,1.75l0.002,20.263c0,3.209,2.602,5.812,5.812,5.811c3.21,0,5.812-2.603,5.812-5.812
		l-0.001-18.997c0.272,0.006,0.55,0.005,0.826,0.007l-0.001,18.989c0,3.21,2.602,5.812,5.811,5.812c0,0,0,0,0,0
		c3.209,0,5.812-2.602,5.812-5.812l0.001-20.115c2.625-0.555,5.274-1.335,7.887-2.42l-3.601-21.042
		c0.234-1.468,0.36-2.989,0.36-4.551c0-0.138-0.011-0.271-0.013-0.408c-0.119,0.064-0.232,0.131-0.354,0.195
		c-0.896,0.471-1.902,0.72-2.908,0.72c-2.334,0-4.458-1.283-5.544-3.347c-1.605-3.055-0.426-6.847,2.628-8.453
		c1.599-0.84,2.371-1.668,2.751-2.376v-8.084c1.336,2.321,2.158,4.646,2.093,6.596c-0.048,1.443-0.528,3.324-3.847,5.067
		c-2.404,1.264-3.329,4.237-2.065,6.641c0.88,1.674,2.589,2.63,4.357,2.63c0.771,0,1.554-0.182,2.284-0.565
		c7.28-3.827,8.967-9.425,9.101-13.448C88.909,45.104,79.364,34.51,72.477,30.286z"/>
	<circle cx="63.68" cy="14.462" r="12.666"/>
</g>
</svg>
