<?xml version="1.0" encoding="utf-8"?>
<!-- Generator: Adobe Illustrator 16.0.0, SVG Export Plug-In . SVG Version: 6.00 Build 0)  -->
<!DOCTYPE svg PUBLIC "-//W3C//DTD SVG 1.1//EN" "http://www.w3.org/Graphics/SVG/1.1/DTD/svg11.dtd">
<svg version="1.1" id="Layer_11" xmlns="http://www.w3.org/2000/svg" xmlns:xlink="http://www.w3.org/1999/xlink" x="0px" y="0px"
	 width="100px" height="100px" viewBox="0 0 100 100" enable-background="new 0 0 100 100" xml:space="preserve">
<path d="M71.085,29.768c-1.393,0-2.637,0.633-3.462,1.628H62.99c-1.122-1.663-2.767-2.941-4.698-3.604
	c2.824-1.597,4.732-4.625,4.732-8.101v-4.031c0-5.137-4.165-9.302-9.302-9.302h-7.132c-5.138,0-9.303,4.165-9.303,9.302v4.031
	c0,3.476,1.908,6.504,4.732,8.101c-1.932,0.663-3.577,1.941-4.698,3.604h-4.944c-0.825-0.995-2.069-1.628-3.462-1.628
	c-2.483,0-4.496,2.013-4.496,4.496v21.55c0,2.483,2.013,4.496,4.496,4.496c2.483,0,4.496-2.013,4.496-4.496V36.202h2.335
	c-0.005,0.128-0.01,0.257-0.01,0.387V58.76c0,2.937,1.363,5.555,3.488,7.259v23.128c0,2.483,2.013,4.496,4.496,4.496
	c2.483,0,4.497-2.013,4.497-4.496V68.062h4.573v21.085c0,2.483,2.013,4.496,4.496,4.496c2.483,0,4.496-2.013,4.496-4.496V65.892
	c0-0.158-0.008-0.314-0.024-0.468c1.736-1.69,2.815-4.05,2.815-6.664V36.589c0-0.13-0.004-0.259-0.01-0.387h2.025v19.612
	c0,2.483,2.013,4.496,4.496,4.496c2.483,0,4.496-2.013,4.496-4.496v-21.55C75.582,31.78,73.568,29.768,71.085,29.768z M56.877,18.45
	H42.813c-2.024,0-3.666-1.642-3.666-3.666s1.642-3.666,3.666-3.666h14.064c2.024,0,3.666,1.641,3.666,3.666
	S58.901,18.45,56.877,18.45z"/>
</svg>
