<?xml version="1.0" encoding="utf-8"?>
<!-- Generator: Adobe Illustrator 16.0.0, SVG Export Plug-In . SVG Version: 6.00 Build 0)  -->
<!DOCTYPE svg PUBLIC "-//W3C//DTD SVG 1.1//EN" "http://www.w3.org/Graphics/SVG/1.1/DTD/svg11.dtd">
<svg version="1.1" id="Layer_1" xmlns="http://www.w3.org/2000/svg" xmlns:xlink="http://www.w3.org/1999/xlink" x="0px" y="0px"
	 width="50px" height="50px" viewBox="0 0 50 50" enable-background="new 0 0 50 50" xml:space="preserve">
<g>
	<path d="M24.999,19.32c3.08,0,5.587-2.506,5.587-5.585c0-3.081-2.507-5.586-5.587-5.586s-5.585,2.505-5.585,5.586
		C19.414,16.814,21.919,19.32,24.999,19.32z M22.993,17.072c0.274-0.127,0.562-0.229,0.854-0.302c0.085,0.6,0.205,1.177,0.374,1.621
		C23.75,18.145,23.328,17.682,22.993,17.072z M23.66,14.147c0.009,0.465,0.037,1.22,0.116,2.008
		c-0.361,0.083-0.713,0.202-1.05,0.356c-0.28-0.686-0.463-1.495-0.507-2.364H23.66z M22.22,13.32
		c0.044-0.867,0.227-1.678,0.507-2.363c0.337,0.155,0.688,0.274,1.05,0.356c-0.079,0.789-0.107,1.544-0.116,2.007H22.22z
		 M25.063,18.489c-0.022,0-0.042,0.003-0.064,0.003c-0.021,0-0.04-0.003-0.062-0.003c-0.153-0.25-0.337-0.875-0.474-1.825
		c0.177-0.02,0.357-0.033,0.536-0.033c0.181,0,0.359,0.014,0.536,0.033C25.4,17.614,25.215,18.239,25.063,18.489z M27.206,17.947
		c0.131-0.178,0.25-0.37,0.362-0.576c0.091,0.057,0.177,0.117,0.262,0.179C27.633,17.697,27.425,17.832,27.206,17.947z
		 M26.34,14.147h1.44c-0.042,0.878-0.219,1.687-0.495,2.37c-0.341-0.157-0.696-0.277-1.062-0.362
		C26.304,15.367,26.331,14.612,26.34,14.147z M26.224,11.313c0.365-0.084,0.721-0.203,1.062-0.361
		c0.276,0.684,0.453,1.492,0.495,2.368h-1.44C26.331,12.857,26.304,12.103,26.224,11.313z M28.316,10.33
		c0.794,0.774,1.319,1.823,1.42,2.99h-1.337c-0.042-0.987-0.239-1.895-0.559-2.661C28.005,10.559,28.163,10.448,28.316,10.33z
		 M28.399,14.147h1.337c-0.101,1.169-0.626,2.217-1.42,2.991c-0.153-0.117-0.312-0.228-0.476-0.328
		C28.16,16.044,28.357,15.136,28.399,14.147z M27.83,9.92c-0.085,0.062-0.171,0.122-0.262,0.179
		c-0.112-0.207-0.231-0.399-0.362-0.575C27.425,9.638,27.633,9.772,27.83,9.92z M27.021,10.392c-0.28,0.129-0.571,0.233-0.871,0.307
		c-0.085-0.604-0.204-1.185-0.376-1.63C26.257,9.311,26.685,9.774,27.021,10.392z M26.15,16.771c0.3,0.074,0.591,0.178,0.871,0.307
		c-0.337,0.618-0.765,1.08-1.247,1.324C25.946,17.956,26.065,17.375,26.15,16.771z M24.937,8.98c0.022,0,0.042-0.003,0.062-0.003
		c0.022,0,0.042,0.003,0.064,0.003c0.151,0.249,0.337,0.875,0.472,1.824c-0.177,0.021-0.355,0.034-0.536,0.034
		c-0.179,0-0.359-0.014-0.536-0.034C24.6,9.855,24.783,9.229,24.937,8.98z M24.388,11.421c0.202,0.022,0.407,0.038,0.611,0.038
		c0.206,0,0.411-0.016,0.613-0.038c0.058,0.552,0.096,1.188,0.107,1.899H24.28C24.292,12.609,24.33,11.973,24.388,11.421z
		 M25.72,14.147c-0.012,0.712-0.05,1.349-0.107,1.901c-0.202-0.022-0.407-0.039-0.613-0.039c-0.204,0-0.409,0.017-0.611,0.039
		c-0.058-0.553-0.096-1.189-0.107-1.901H25.72z M24.222,9.078c-0.169,0.443-0.289,1.021-0.374,1.62
		c-0.293-0.071-0.58-0.175-0.854-0.301C23.328,9.788,23.75,9.324,24.222,9.078z M22.794,9.523c-0.131,0.176-0.25,0.368-0.362,0.575
		c-0.091-0.058-0.177-0.117-0.262-0.179C22.367,9.772,22.575,9.638,22.794,9.523z M22.432,17.371
		c0.112,0.206,0.231,0.398,0.362,0.576c-0.219-0.115-0.427-0.25-0.624-0.397C22.255,17.488,22.341,17.428,22.432,17.371z
		 M21.682,10.33c0.155,0.118,0.313,0.229,0.478,0.329c-0.319,0.766-0.516,1.674-0.561,2.661h-1.335
		C20.364,12.153,20.888,11.104,21.682,10.33z M21.599,14.147c0.045,0.988,0.241,1.897,0.561,2.663
		c-0.164,0.101-0.322,0.211-0.478,0.328c-0.794-0.774-1.317-1.822-1.418-2.991H21.599z"/>
	<path d="M40.823,32.188l-1.638-10.159l-0.101-0.622l-0.61,0.156l-5.82,1.486c-0.486-0.007-2.612-1.274-3.754-1.957
		c-1.69-1.011-2.271-1.336-2.656-1.336c-0.457,0-1.853,0.655-3.037,1.427c-0.205-0.174-0.363-0.275-0.466-0.26
		c-1.229,0.196-4.867,3.139-5.597,2.956c-0.728-0.182-6.504-1.683-6.504-1.683L9.094,32.16c0,0,4.176,1.119,5.963,1.597
		l-0.531,0.777c-0.265,0.376-0.278,0.867-0.033,1.34c0.372,0.714,1.228,1.23,2.034,1.23c0.073,0,0.147-0.004,0.219-0.013
		c0.061,0.203,0.16,0.398,0.297,0.583c0.449,0.612,1.28,1.022,2.062,1.022c0.107,0,0.212-0.008,0.315-0.022
		c0.081,0.238,0.21,0.468,0.389,0.68c0.501,0.595,1.291,0.966,2.062,0.966c0.074,0,0.146-0.004,0.218-0.012
		c0.068,0.261,0.191,0.507,0.368,0.728c0.407,0.503,1.05,0.813,1.678,0.813c0.517,0,0.96-0.219,1.22-0.602
		c0.272-0.402,0.783-1.289,1.274-2.148c0.107-0.189,0.212-0.373,0.313-0.549c0.692,0.295,1.122,0.479,1.122,0.479
		c1.499,0.592,2.274-1.639,1.576-2.243l1.045,0.37c1.534,0.614,2.899-1.266,1.694-2.422c0.576,0.259,1.112,0.134,1.518-0.176
		l-0.004,0.005l1.342-0.276l5.178-1.452l0.493-0.139L40.823,32.188z M26.911,37.467c-0.514,0.852-1.61,2.834-2.031,3.457
		c-0.164,0.242-0.438,0.351-0.745,0.351c-0.766,0-1.716-0.695-1.495-1.726c-0.234,0.135-0.499,0.194-0.769,0.194
		c-1.027,0-2.133-0.875-1.96-1.867c-0.229,0.17-0.512,0.245-0.807,0.245c-0.99,0-2.11-0.857-1.805-1.852
		c-0.241,0.184-0.507,0.26-0.773,0.26c-0.984,0-1.962-1.049-1.525-1.672l1.052-1.545c0.171-0.28,0.424-0.395,0.7-0.395
		c0.713,0,1.572,0.77,1.484,1.425c0.442-0.731,0.896-1.312,1.455-1.425c0.1-0.019,0.197-0.028,0.295-0.028
		c0.95,0,1.796,0.89,1.768,1.606c0.357-0.596,0.85-0.826,1.34-0.826c1.087,0,2.172,1.131,1.817,1.943
		c0.195-0.182,0.446-0.263,0.71-0.263C26.537,35.351,27.595,36.336,26.911,37.467z M35.078,33.733
		c0.089-0.315,0.11-0.627,0.061-0.919c0.759-0.129,1.436-0.698,1.708-1.47c0.28-0.792,0.062-1.603-0.571-2.111l-0.077-0.054
		c-0.042-0.022-4.36-2.415-8.458-4.938l-1.141,0.04c-0.287,0.135-1.072,0.53-1.175,0.903c-0.125,0.457-0.726,2.639-1,3.7
		c-0.072,0.28-0.361,0.397-0.741,0.397c-1.062,0-2.842-0.908-2.673-1.732c0.232-1.121,0.715-3.73,0.927-4.489
		c0.212-0.758,3.669-2.729,4.307-2.729c0.615,0,5.273,3.288,6.443,3.288c0.039,0,0.075-0.004,0.108-0.012
		c0.951-0.242,5.82-1.486,5.82-1.486l1.64,10.16L35.078,33.733z"/>
</g>
</svg>
