<?xml version="1.0" encoding="utf-8"?>
<!-- Generator: Adobe Illustrator 16.0.4, SVG Export Plug-In . SVG Version: 6.00 Build 0)  -->
<!DOCTYPE svg PUBLIC "-//W3C//DTD SVG 1.1//EN" "http://www.w3.org/Graphics/SVG/1.1/DTD/svg11.dtd">
<svg version="1.1" id="Layer_1" xmlns="http://www.w3.org/2000/svg" xmlns:xlink="http://www.w3.org/1999/xlink" x="0px" y="0px"
	 width="50px" height="50px" viewBox="0 0 50 50" enable-background="new 0 0 50 50" xml:space="preserve">
<path d="M24.999,37.824c0.001,0,0.002,0,0.003,0L25,37.825L24.999,37.824z M33.393,36.157c-1.951,0-3.765-1.046-4.734-2.73
	c-0.729-1.259-0.922-2.729-0.543-4.139c0.308-1.149,0.979-2.13,1.895-2.853c-0.654-0.291-1.34-0.537-2.053-0.718
	c2.168-1.459,3.662-4.335,3.662-6.925c0-3.655-2.965-6.619-6.618-6.619c-3.655,0-6.619,2.963-6.619,6.619
	c0,2.59,1.493,5.466,3.662,6.925c-5.185,1.315-9.027,5.816-9.027,9.151c0,1.971,5.991,2.955,11.981,2.955l-3.355-3.356l2.826-6.832
	H24.44l-1.098-1.259c0.532,0.191,1.085,0.305,1.659,0.305c0.573,0,1.125-0.113,1.655-0.304l-1.098,1.257h-0.027l2.826,6.832
	l-3.356,3.357c3.773-0.001,7.546-0.39,9.822-1.172l-0.355-0.615C34.113,36.109,33.755,36.157,33.393,36.157z M30.904,26.405
	c2.367-1.365,5.408-0.552,6.775,1.815c1.367,2.366,0.553,5.406-1.816,6.772c-2.367,1.366-5.405,0.555-6.772-1.816
	C27.723,30.811,28.538,27.773,30.904,26.405z M31.316,27.115c-1.977,1.141-2.657,3.676-1.514,5.652
	c1.141,1.976,3.674,2.658,5.65,1.517s2.654-3.677,1.516-5.652C35.827,26.656,33.291,25.977,31.316,27.115z M37.107,34.688
	l-2.132,1.231l1.642,2.842l2.132-1.232L37.107,34.688z M38.975,37.917l-2.134,1.231c0.341,0.59,1.095,0.791,1.683,0.451
	C39.111,39.262,39.314,38.508,38.975,37.917z"/>
</svg>
