<?xml version="1.0" encoding="utf-8"?>
<!-- Generator: Adobe Illustrator 16.0.4, SVG Export Plug-In . SVG Version: 6.00 Build 0)  -->
<!DOCTYPE svg PUBLIC "-//W3C//DTD SVG 1.1//EN" "http://www.w3.org/Graphics/SVG/1.1/DTD/svg11.dtd">
<svg version="1.1" id="Layer_1" xmlns="http://www.w3.org/2000/svg" xmlns:xlink="http://www.w3.org/1999/xlink" x="0px" y="0px"
	 width="50px" height="50px" viewBox="0 0 50 50" enable-background="new 0 0 50 50" xml:space="preserve">
<path d="M17.268,23.733l-1.334,0.833l-1.307-2.09l1.334-0.831c-0.323-0.836-0.463-1.706-0.434-2.567l-1.529-0.353l0.558-2.402
	l1.529,0.354c0.347-0.787,0.861-1.511,1.516-2.116l-0.832-1.334l2.084-1.306l0.834,1.335c0.833-0.322,1.708-0.465,2.564-0.432
	l0.354-1.529l2.403,0.553l-0.353,1.528c0.785,0.351,1.503,0.86,2.113,1.514l1.332-0.833l1.311,2.091l-1.338,0.83
	c0.322,0.833,0.467,1.708,0.435,2.566l1.526,0.353l-0.557,2.404l-1.526-0.354c-0.017,0.037-0.038,0.072-0.056,0.109
	c-0.269-0.212-0.549-0.413-0.851-0.587c-0.306-0.176-0.625-0.322-0.952-0.45c0.533-1.279,0.469-2.786-0.322-4.05
	c-1.293-2.076-4.023-2.705-6.102-1.41c-2.069,1.295-2.701,4.028-1.407,6.098c0.157,0.25,0.337,0.477,0.532,0.685
	c-0.512,0.457-0.962,0.985-1.327,1.584C17.4,23.861,17.331,23.801,17.268,23.733z M35.193,26.705l0.811-0.107l-0.17-1.275
	l-0.811,0.108c-0.145-0.424-0.373-0.825-0.684-1.173l0.5-0.649l-1.023-0.781l-0.496,0.651c-0.418-0.207-0.861-0.324-1.309-0.351
	l-0.109-0.812l-1.274,0.173l0.106,0.811c-0.418,0.14-0.813,0.368-1.157,0.671c0.256,0.432,0.465,0.895,0.627,1.379
	c0.011-0.015,0.019-0.032,0.028-0.047c0.67-0.874,1.916-1.041,2.787-0.373c0.871,0.666,1.039,1.914,0.373,2.786
	c-0.666,0.873-1.914,1.038-2.787,0.372c-0.017-0.012-0.027-0.028-0.043-0.04c-0.031,0.508-0.121,1.01-0.262,1.5l0.008-0.01
	c0.414,0.209,0.858,0.326,1.308,0.35l0.108,0.811l1.273-0.168l-0.107-0.812c0.424-0.14,0.824-0.369,1.172-0.681l0.651,0.499
	l0.781-1.021l-0.653-0.496C35.049,27.6,35.167,27.15,35.193,26.705z M28.768,30.632c-1.675,2.906-5.398,3.9-8.298,2.226
	c-2.903-1.674-3.901-5.398-2.227-8.298c1.676-2.901,5.401-3.897,8.302-2.224C29.445,24.01,30.443,27.734,28.768,30.632z
	 M26.041,23.205c-2.42-1.395-5.527-0.563-6.926,1.858c-1.397,2.421-0.566,5.527,1.856,6.926c2.423,1.399,5.527,0.562,6.923-1.858
	C29.296,27.709,28.463,24.603,26.041,23.205z M16.931,35.965l2.611,1.509l2.012-3.48l-2.611-1.509L16.931,35.965z M17.21,38.503
	c0.722,0.416,1.643,0.171,2.063-0.553l-2.615-1.509C16.24,37.164,16.488,38.088,17.21,38.503z"/>
</svg>
