<?xml version="1.0" encoding="utf-8"?>
<!-- Generator: Adobe Illustrator 16.0.0, SVG Export Plug-In . SVG Version: 6.00 Build 0)  -->
<!DOCTYPE svg PUBLIC "-//W3C//DTD SVG 1.1//EN" "http://www.w3.org/Graphics/SVG/1.1/DTD/svg11.dtd">
<svg version="1.1" id="Layer_3" xmlns="http://www.w3.org/2000/svg" xmlns:xlink="http://www.w3.org/1999/xlink" x="0px" y="0px"
	 width="126px" height="126px" viewBox="0 0 126 126" enable-background="new 0 0 126 126" xml:space="preserve">
<g>
	<path d="M8.774,91.075c0.386-0.298,1.005-0.447,1.855-0.447c1.646,0,3.601,0.52,5.866,1.558l2.005-5.054
		c-2.607-1.16-5.165-1.74-7.671-1.74c-2.839,0-5.07,0.624-6.694,1.873c-1.624,1.248-2.436,2.988-2.436,5.22
		c0,1.192,0.19,2.224,0.572,3.099c0.381,0.87,0.966,1.645,1.756,2.318c0.79,0.674,1.975,1.37,3.554,2.088
		c1.746,0.784,2.82,1.304,3.223,1.558c0.403,0.254,0.696,0.505,0.878,0.754c0.183,0.248,0.273,0.539,0.273,0.869
		c0,0.531-0.226,0.965-0.679,1.301c-0.453,0.338-1.166,0.506-2.138,0.506c-1.126,0-2.364-0.18-3.711-0.539
		c-1.347-0.357-2.646-0.858-3.894-1.499v5.833c1.182,0.563,2.32,0.959,3.413,1.184c1.094,0.226,2.447,0.34,4.06,0.34
		c1.933,0,3.618-0.323,5.053-0.969c1.436-0.646,2.535-1.553,3.297-2.717c0.763-1.166,1.144-2.499,1.144-4.002
		c0-1.635-0.406-2.992-1.218-4.067c-0.812-1.077-2.261-2.087-4.349-3.024c-2.177-0.993-3.51-1.678-4.002-2.055
		c-0.492-0.375-0.737-0.801-0.737-1.275C8.194,91.744,8.387,91.373,8.774,91.075z"/>
	<polygon points="20.887,109.964 35.269,109.964 35.269,104.629 27.432,104.629 27.432,100.055 34.689,100.055 34.689,94.803 
		27.432,94.803 27.432,90.993 35.269,90.993 35.269,85.74 20.887,85.74 	"/>
	<path d="M43.439,85.641l-7.903,24.323h7.191l1.227-4.541h7.87l1.193,4.541h7.158l-8.003-24.323H43.439z M45.312,100.055
		c1.005-3.8,1.654-6.345,1.947-7.638s0.489-2.221,0.588-2.784c0.111,0.608,0.34,1.613,0.688,3.017
		c0.348,1.403,0.644,2.545,0.887,3.429l1.043,3.977H45.312z"/>
	<path d="M79.247,92.898c0-4.773-3.292-7.158-9.875-7.158h-7.937v24.224h6.545v-8.815h1.658l5.136,8.815h7.423l-7.059-10.556
		C77.876,97.874,79.247,95.703,79.247,92.898z M69.206,96.229h-1.227v-5.535h1.292c2.243,0,3.364,0.835,3.364,2.502
		C72.636,95.218,71.492,96.229,69.206,96.229z"/>
	<path d="M93.829,90.76c1.027,0,1.988,0.144,2.883,0.432c0.895,0.287,1.79,0.641,2.685,1.061l2.004-5.152
		c-2.386-1.14-4.888-1.708-7.506-1.708c-2.396,0-4.481,0.512-6.254,1.533c-1.772,1.022-3.132,2.483-4.076,4.382
		c-0.944,1.901-1.417,4.104-1.417,6.611c0,4.01,0.975,7.074,2.925,9.196c1.949,2.12,4.752,3.181,8.408,3.181
		c2.552,0,4.839-0.447,6.86-1.342v-5.534c-1.017,0.42-2.027,0.78-3.033,1.077c-1.005,0.298-2.043,0.447-3.115,0.447
		c-3.546,0-5.319-2.33-5.319-6.992c0-2.242,0.436-4.001,1.309-5.276C91.056,91.397,92.271,90.76,93.829,90.76z"/>
	<polygon points="117.888,85.74 117.888,94.72 110.283,94.72 110.283,85.74 103.706,85.74 103.706,109.964 110.283,109.964 
		110.283,100.089 117.888,100.089 117.888,109.964 124.467,109.964 124.467,85.74 	"/>
	<path d="M63.911,77.14c0.195,0.03,0.389,0.044,0.579,0.044c1.927,0,3.613-1.413,3.901-3.377c0.807-5.498,1.74-9.517,2.815-12.552
		v12.431c0,1.063,0.206,2.054,0.568,2.965c-0.028,0.207-0.047,0.411-0.047,0.626l0,5.965c5.57,0.666,8.125,3.263,9.266,5.829
		c0.02-0.032,0.046-0.061,0.067-0.092l0-6.342c0.185,0.008,0.369,0.022,0.556,0.022c0.036,0,0.072-0.004,0.108-0.005v5.4
		c1.046-1.361,2.31-2.504,3.818-3.375c1.643-0.946,3.492-1.548,5.513-1.807v-5.365c0.612-1.134,0.967-2.416,0.967-3.822V57.221
		c0.325-0.088,0.645-0.218,0.951-0.397c0.148-0.071,0.331-0.135,0.531-0.212c1.529-0.592,4.691-1.82,6.631-5.529l18.155,11.201
		c0.645,0.398,1.361,0.588,2.068,0.588c1.325,0,2.618-0.666,3.363-1.877c1.146-1.854,0.569-4.287-1.286-5.431l-20.68-12.758
		c-0.002-0.115-0.001-0.223-0.005-0.338c-0.08-2.18-1.906-3.883-4.092-3.798c-0.181,0.005-0.355,0.027-0.528,0.058
		c0.674-1.834,1.048-3.812,1.048-5.877c0-9.455-7.692-17.146-17.147-17.146c-9.455,0-17.147,7.69-17.147,17.146
		c0,9.456,7.692,17.146,17.147,17.146c4.291,0,8.216-1.587,11.226-4.2c0.29,0.431,0.667,0.81,1.129,1.109
		c-0.411,1.045-1.041,1.564-1.754,1.924c-4.101,1.724-5.93,2.564-9.116,2.724L84.09,61.72l-2.452,3.357h-0.047l-2.453-3.357
		l1.213-10.296c-3.717-0.184-7.539-1.125-10.347-3.215c-5.577,5.044-7.522,11.466-9.427,24.453
		C60.262,74.819,61.754,76.824,63.911,77.14z M81.032,46.439c-7.493,0-13.588-6.096-13.588-13.589
		c0-7.492,6.096-13.587,13.588-13.587s13.589,6.095,13.589,13.587C94.621,40.344,88.524,46.439,81.032,46.439z"/>
	<path d="M82.719,29.991c-2.603,0-4.713-0.964-4.713-2.153c0-0.098,0.021-0.194,0.049-0.289c-1.899,1.079-3.183,3.118-3.183,5.458
		c0,3.469,2.813,6.281,6.281,6.281c3.469,0,6.282-2.813,6.282-6.281c0-1.396-0.46-2.68-1.23-3.721
		C85.341,29.719,84.102,29.991,82.719,29.991z"/>
</g>
</svg>
