<?xml version="1.0" encoding="utf-8"?>
<!-- Generator: Adobe Illustrator 16.0.0, SVG Export Plug-In . SVG Version: 6.00 Build 0)  -->
<!DOCTYPE svg PUBLIC "-//W3C//DTD SVG 1.1//EN" "http://www.w3.org/Graphics/SVG/1.1/DTD/svg11.dtd">
<svg version="1.1" id="Layer_11" xmlns="http://www.w3.org/2000/svg" xmlns:xlink="http://www.w3.org/1999/xlink" x="0px" y="0px"
	 width="100px" height="100px" viewBox="0 0 100 100" enable-background="new 0 0 100 100" xml:space="preserve">
<path d="M57.303,46.217H42.695c-3.037,0-5.934,0.617-8.568,1.734h-0.002v0.001c-7.908,3.351-13.471,11.192-13.471,20.308v17.869
	l0.045,0.279l1.232,0.385c11.598,3.623,21.676,4.834,29.971,4.834c16.199,0,25.59-4.621,26.172-4.914l1.15-0.584h0.121V68.26
	C79.346,56.105,69.459,46.217,57.303,46.217z M46.35,49.844h7.543c0.621,0,1.125,0.502,1.125,1.125l-3.041,6.492h-3.613
	l-3.141-6.492C45.223,50.346,45.727,49.844,46.35,49.844z M55.902,80.895l-5.652,7.613c-0.043,0.064-0.111,0.1-0.186,0.1
	c-0.002,0-0.004,0-0.006,0c-0.074,0-0.145-0.039-0.186-0.104l-5.428-7.617c-0.025-0.039-0.037-0.086-0.035-0.135l3.965-22.404
	c0.008-0.119,0.105-0.209,0.225-0.209h3.039c0.119,0,0.217,0.09,0.227,0.209l4.074,22.402C55.945,80.803,55.93,80.852,55.902,80.895
	z M53.101,27.268h9.759c0.734,0,1.246-0.398,1.246-0.756v-4.257c0-0.357-0.512-0.756-1.246-0.756h-9.759
	c-0.734,0-1.246,0.398-1.246,0.756v4.257C51.854,26.869,52.366,27.268,53.101,27.268z M60.663,21.842l-3.375,5.083h-1.083
	l3.375-5.083H60.663z M57.914,21.842h1.082l-3.375,5.083h-1.082L57.914,21.842z M38.859,40.94c3,2.559,6.889,4.104,11.143,4.104
	c6.014,0,11.289-3.097,14.363-7.771c1.12-1.514,2.014-3.2,2.623-5.021c-0.134,4.066-0.63,8.129-1.672,9.048
	c-0.414,0.365-0.454,0.997-0.089,1.411c0.197,0.225,0.474,0.339,0.75,0.339c0.235,0,0.471-0.082,0.661-0.25
	c2.72-2.396,2.425-13.326,2.338-15.493c-0.022-0.552-0.494-0.983-1.039-0.959c-0.005,0-0.008,0.003-0.013,0.003
	c-0.084-9.942-8.163-17.978-18.124-17.978c-10.015,0-18.133,8.118-18.133,18.133C31.668,32.404,34.497,37.629,38.859,40.94z
	 M34.309,26.512v-4.257c0-1.123,1.095-2.002,2.492-2.002h9.759c1.397,0,2.491,0.879,2.491,2.002v0.388h1.559v-0.388
	c0-1.123,1.094-2.002,2.491-2.002h9.759c1.397,0,2.492,0.879,2.492,2.002v4.257c0,1.122-1.095,2.002-2.492,2.002h-9.759
	c-1.397,0-2.491-0.88-2.491-2.002v-1.054h-1.559v1.054c0,1.122-1.094,2.002-2.491,2.002h-9.759
	C35.403,28.514,34.309,27.634,34.309,26.512z M47.806,26.512v-4.257c0-0.357-0.512-0.756-1.246-0.756h-9.759
	c-0.734,0-1.246,0.398-1.246,0.756v4.257c0,0.357,0.512,0.756,1.246,0.756h9.759C47.294,27.268,47.806,26.869,47.806,26.512z
	 M38.247,26.925l3.375-5.083h1.083l-3.375,5.083H38.247z M40.996,26.925h-1.082l3.375-5.083h1.082L40.996,26.925z"/>
</svg>
