<?xml version="1.0" encoding="utf-8"?>
<!-- Generator: Adobe Illustrator 16.0.0, SVG Export Plug-In . SVG Version: 6.00 Build 0)  -->
<!DOCTYPE svg PUBLIC "-//W3C//DTD SVG 1.1//EN" "http://www.w3.org/Graphics/SVG/1.1/DTD/svg11.dtd">
<svg version="1.1" id="Layer_3" xmlns="http://www.w3.org/2000/svg" xmlns:xlink="http://www.w3.org/1999/xlink" x="0px" y="0px"
	 width="126px" height="126px" viewBox="0 0 126 126" enable-background="new 0 0 126 126" xml:space="preserve">
<g>
	<path d="M69.103,83.338c0.07-0.67-0.799-1.984-2.592-3.363c-2.42,0.682-4.987,0.709-7.412,0.092
		c-1.79,1.398-2.55,2.645-2.484,3.271c0.074,0.701,0.179,1.537,0.305,2.465h11.877C68.924,84.877,69.029,84.039,69.103,83.338z"/>
	<path d="M119.028,61.324v-2.496h-6v2.496v10.002c-0.751-1.631-2.39-2.77-4.304-2.77H75.206v0.623c0,0.104-0.001,0.209-0.005,0.314
		c2.254,1.844,5.031,4.734,6.46,8.555h27.064c1.914,0,3.553-1.139,4.304-2.77v4.523H82.206c0.369,1.533,0.512,3.191,0.324,4.977
		c-0.034,0.318-0.074,0.664-0.117,1.023h30.615v15.834h10.753V61.324H119.028z"/>
	<path d="M17.275,78.049h26.641c1.362-3.627,3.928-6.404,6.032-8.201c-0.017-0.229-0.024-0.449-0.024-0.668v-0.623H17.275
		c-1.913,0-3.552,1.139-4.303,2.77V61.324v-2.496h-6v2.496H2.218v40.313h10.753V85.803h30.184c-0.043-0.359-0.084-0.705-0.117-1.023
		c-0.188-1.783-0.042-3.443,0.33-4.977H12.972v-4.523C13.723,76.91,15.362,78.049,17.275,78.049z"/>
	<path d="M18.219,66.137h9.5c1.749,0,3.167-1.418,3.167-3.166c0-1.75-1.418-3.168-3.167-3.168h-9.5
		c-1.749,0-3.167,1.418-3.167,3.168C15.052,64.719,16.47,66.137,18.219,66.137z"/>
	<path d="M73.186,70.42c0.06-0.404,0.101-0.814,0.101-1.24V46.063c9.007-0.727,10.34-2.68,11.037-3.707
		c0.884-1.303,1.071-2.891,0.512-4.359c-1.102-2.889-7.354-10.822-9.992-14.1c-0.606-0.752-1.429-1.217-2.305-1.408
		c-1.355-4.242-5.327-7.314-10.018-7.314c-4.828,0-8.885,3.256-10.122,7.689c-0.464,0.252-0.889,0.596-1.241,1.033
		c-2.638,3.277-8.891,11.211-9.992,14.1c-0.56,1.469-0.373,3.057,0.512,4.359c0.672,0.99,1.933,2.838,10.078,3.621V69.18
		c0,0.531,0.062,1.039,0.154,1.535c-3.86,3.006-7.685,7.814-7.05,13.85c0.753,7.156,4.189,25.803,4.334,26.594
		c0.429,2.324,2.458,3.951,4.74,3.951c0.291,0,0.585-0.027,0.881-0.082c2.621-0.482,4.354-3,3.87-5.621
		c-0.035-0.189-3.513-19.066-4.227-25.854c-0.234-2.223,2.273-4.455,4.128-5.74c1.246,0.42,2.581,0.648,3.935,0.648
		c1.462,0,2.9-0.27,4.229-0.756c1.848,1.252,4.515,3.555,4.273,5.848c-0.714,6.787-4.192,25.664-4.227,25.854
		c-0.483,2.621,1.249,5.139,3.87,5.621c0.296,0.055,0.59,0.082,0.881,0.082c2.282,0,4.311-1.627,4.74-3.951
		c0.146-0.791,3.581-19.438,4.334-26.594C81.278,78.328,77.172,73.4,73.186,70.42z M68.369,38.133
		c-1.013-0.592-2.111-1.039-3.229-1.313l-2.619,2.637l-2.541-2.666c-0.009,0.002-0.018,0.002-0.026,0.004
		c-1.123,0.268-2.226,0.713-3.245,1.305c-2.094-0.09-4.139-0.256-5.781-0.461c1.04-1.453,2.354-3.205,3.726-4.982
		c1.927,2.174,4.732,3.553,7.866,3.553c3.414,0,6.439-1.633,8.361-4.154c1.54,1.982,3.037,3.969,4.192,5.582
		C73.191,37.873,70.779,38.055,68.369,38.133z"/>
	<path d="M80.243,13.652c-0.031,1.246-0.052,2.492-0.047,3.738l0.004,1.113l0.821-0.744c1.202-1.092,2.391-2.195,3.546-3.34
		c1.162-1.135,2.288-2.309,3.374-3.529c-1.331,0.947-2.621,1.939-3.876,2.971c-0.983,0.797-1.941,1.621-2.893,2.453
		c-0.004-1.141-0.007-2.281-0.043-3.424l-0.025-0.809l-0.647,0.439c-0.897,0.611-1.788,1.234-2.664,1.877
		c-0.875,0.646-1.744,1.303-2.591,1.992c0.983-0.477,1.944-0.986,2.899-1.508C78.823,14.486,79.533,14.068,80.243,13.652z"/>
	<path d="M47.061,12.857c-0.902,0.859-1.799,1.725-2.677,2.609l-0.785,0.791l1.107,0.053c1.621,0.078,3.243,0.139,4.868,0.146
		c1.625,0.02,3.251-0.016,4.882-0.109c-1.61-0.271-3.224-0.482-4.841-0.641c-1.259-0.131-2.52-0.227-3.781-0.311
		c0.804-0.811,1.609-1.619,2.391-2.451l0.555-0.592l-0.77-0.146c-1.066-0.201-2.136-0.391-3.211-0.555
		c-1.075-0.162-2.153-0.314-3.24-0.424c1.032,0.357,2.073,0.676,3.116,0.982C45.467,12.443,46.264,12.648,47.061,12.857z"/>
</g>
</svg>
