<?xml version="1.0" encoding="utf-8"?>
<!-- Generator: Adobe Illustrator 16.0.0, SVG Export Plug-In . SVG Version: 6.00 Build 0)  -->
<!DOCTYPE svg PUBLIC "-//W3C//DTD SVG 1.1//EN" "http://www.w3.org/Graphics/SVG/1.1/DTD/svg11.dtd">
<svg version="1.1" id="Layer_11" xmlns="http://www.w3.org/2000/svg" xmlns:xlink="http://www.w3.org/1999/xlink" x="0px" y="0px"
	 width="100px" height="100px" viewBox="0 0 100 100" enable-background="new 0 0 100 100" xml:space="preserve">
<path d="M46.652,42.741h1.028l0.964,6.874c0.451,0.026,0.897,0.068,1.355,0.068c0.443,0,0.877-0.041,1.313-0.066l0.748-6.876h1.061
	c9.44,0,17.188-11.527,19.242-14.882c0.005-0.19,0.028-0.377,0.028-0.568C72.393,14.924,62.367,4.897,50,4.897
	S27.607,14.924,27.607,27.291c0,0.324,0.034,0.641,0.048,0.962C30.031,32.031,37.566,42.741,46.652,42.741z M31.457,27.727v-5.03
	c0-1.327,1.294-2.365,2.945-2.365h11.532c1.651,0,2.943-0.144,2.943,1.184v0.458h1.843v-0.458c0-1.327,1.292-1.184,2.943-1.184
	h11.532c1.651,0,2.945,1.038,2.945,2.365v5.03c0,1.326-1.294,2.366-2.945,2.366H53.664c-1.651,0-2.943-1.04-2.943-2.366V25.3h-1.843
	v2.427c0,1.326-1.292,2.366-2.943,2.366H34.402C32.751,30.093,31.457,29.053,31.457,27.727z M76.532,51.589
	c-0.764-2.041-4.415-11.412-2.593-22.378c0,0-9,16.406-20.817,16.406l-2.44,15.3h4.298v2.051h-4.624l-0.06,0.375l-0.078-0.375H50
	v-1.062l-0.315-1.535h-4.664V58.32h4.243l-2.611-12.703c-11.817,0-20.817-16.406-20.817-16.406
	c2.028,12.211-2.731,22.737-2.731,22.737c-4.797,4.727-7.782,11.286-7.782,18.536v18.162l0.053,0.33l1.457,0.455
	C29.516,93.394,40.639,94.897,50,95.103v-0.801h4.979v0.794c17.455-0.483,27.542-5.43,28.196-5.759l1.359-0.69h0.144V70.484
	C84.679,63.051,81.545,56.34,76.532,51.589z M45.021,63.114H50v2.051h-4.979V63.114z M45.021,67.909H50v2.05h-4.979V67.909z
	 M45.021,72.703H50v2.051h-4.979V72.703z M45.021,82.116H50v2.051h-4.979V82.116z M45.021,86.91H50v2.051h-4.979V86.91z M50,93.756
	h-4.979v-2.051H50V93.756z M54.979,91.559H50v-2.051h4.979V91.559z M54.979,86.764H50v-2.05h4.979V86.764z M54.979,81.97H50v-2.051
	h4.979V81.97z M54.979,77.352H50v2.021h-4.979v-2.051H50v-2.021h4.979V77.352z M54.979,72.557H50v-2.051h4.979V72.557z
	 M54.979,67.763H50v-2.051h4.979V67.763z"/>
</svg>
