<?xml version="1.0" encoding="utf-8"?>
<!-- Generator: Adobe Illustrator 16.0.0, SVG Export Plug-In . SVG Version: 6.00 Build 0)  -->
<!DOCTYPE svg PUBLIC "-//W3C//DTD SVG 1.1//EN" "http://www.w3.org/Graphics/SVG/1.1/DTD/svg11.dtd">
<svg version="1.1" id="Layer_1" xmlns="http://www.w3.org/2000/svg" xmlns:xlink="http://www.w3.org/1999/xlink" x="0px" y="0px"
	 width="126px" height="126px" viewBox="0 0 126 126" enable-background="new 0 0 126 126" xml:space="preserve">
<g>
	<path d="M78.501,29.544c-0.167-0.102-0.344-0.169-0.517-0.249c-1.411-0.926-2.99-1.607-4.598-2.001l-3.206,3.228l-3.109-3.264
		c-0.011,0.003-0.022,0.003-0.032,0.006c-1.542,0.368-3.056,1.007-4.424,1.869c-0.342,0.104-0.678,0.238-1.002,0.421
		c-1.994,1.12-3.889,1.338-5.964,0.692c-6.872-2.142-13.275-12.629-15.159-16.483c-1.206-2.483-4.195-3.518-6.679-2.312
		c-2.482,1.206-3.518,4.196-2.312,6.679c0.881,1.814,8.962,17.834,21.152,21.65c1.447,0.453,2.903,0.706,4.354,0.781v26.335
		c0,1.359,0.268,2.626,0.735,3.79c-0.033,0.251-0.077,0.499-0.076,0.759l0.049,47.853c0.004,3.26,2.647,5.899,5.906,5.899
		c0.002,0,0.004,0,0.006,0c3.262-0.003,5.903-2.65,5.9-5.912l-0.042-41.062c0.232,0.011,0.463,0.029,0.697,0.029
		c0.048,0,0.096-0.005,0.144-0.006l0.038,41.05c0.003,3.26,2.646,5.9,5.906,5.9c0.002,0,0.004,0,0.006,0
		c3.262-0.003,5.904-2.649,5.9-5.911l-0.042-46.938c0.311,0.296,0.649,0.568,1.043,0.783c0.758,0.413,1.576,0.608,2.383,0.608
		c1.772,0,3.488-0.944,4.395-2.61C104.051,45.215,84.82,33.42,78.501,29.544z M70.211,55.997H70.15l-3.103-4.248l3.103-20.75h0.061
		l3.104,20.75L70.211,55.997z M83.355,61.663V47.374C85.263,50.984,85.691,55.554,83.355,61.663z"/>
	<circle cx="70.18" cy="13.675" r="12.872"/>
</g>
</svg>
