<?xml version="1.0" encoding="utf-8"?>
<!-- Generator: Adobe Illustrator 16.0.0, SVG Export Plug-In . SVG Version: 6.00 Build 0)  -->
<!DOCTYPE svg PUBLIC "-//W3C//DTD SVG 1.1//EN" "http://www.w3.org/Graphics/SVG/1.1/DTD/svg11.dtd">
<svg version="1.1" id="Layer_1" xmlns="http://www.w3.org/2000/svg" xmlns:xlink="http://www.w3.org/1999/xlink" x="0px" y="0px"
	 width="126px" height="126px" viewBox="0 0 126 126" enable-background="new 0 0 126 126" xml:space="preserve">
<g>
	<path d="M74.633,29.409c-0.168-0.103-0.346-0.17-0.521-0.25c-1.415-0.93-3-1.613-4.614-2.009l-3.221,3.241l-3.121-3.277
		c-0.012,0.003-0.022,0.003-0.032,0.006c-1.573,0.376-3.116,1.03-4.508,1.917c-0.193,0.062-0.389,0.111-0.578,0.198
		c-2.712,1.247-5.872,1.29-7.11,0.84c-4.555-1.65-6.317-12.562-6.074-19.41c0.104-2.77-2.055-5.099-4.823-5.205
		c-2.736-0.101-5.1,2.054-5.205,4.823c-0.095,2.487-0.543,24.434,12.684,29.226c1.591,0.577,3.46,0.858,5.429,0.858
		c0.037,0,0.076-0.002,0.113-0.003v26.547c0,1.366,0.269,2.638,0.738,3.807c-0.032,0.25-0.076,0.497-0.076,0.755l0.004,48.045
		c0,3.275,2.653,5.93,5.93,5.929c3.275,0,5.93-2.655,5.93-5.93l-0.004-41.233c0.234,0.011,0.469,0.03,0.705,0.03
		c0.047,0,0.093-0.006,0.139-0.006l-0.001,41.209c0,3.275,2.654,5.93,5.93,5.93c3.274,0,5.93-2.655,5.93-5.93l0.001-47.134
		c0.313,0.298,0.652,0.573,1.05,0.789c0.762,0.414,1.583,0.61,2.393,0.61c1.779,0,3.502-0.949,4.411-2.621
		C100.284,45.145,80.978,33.301,74.633,29.409z M66.309,55.969h-0.061l-3.116-4.265l3.116-20.833h0.061l3.116,20.833L66.309,55.969z
		 M79.505,61.658V47.312C81.421,50.936,81.851,55.524,79.505,61.658z"/>
	<circle cx="66.277" cy="13.476" r="12.924"/>
</g>
</svg>
