<?xml version="1.0" encoding="utf-8"?>
<!-- Generator: Adobe Illustrator 16.0.0, SVG Export Plug-In . SVG Version: 6.00 Build 0)  -->
<!DOCTYPE svg PUBLIC "-//W3C//DTD SVG 1.1//EN" "http://www.w3.org/Graphics/SVG/1.1/DTD/svg11.dtd">
<svg version="1.1" id="Layer_3" xmlns="http://www.w3.org/2000/svg" xmlns:xlink="http://www.w3.org/1999/xlink" x="0px" y="0px"
	 width="126px" height="126px" viewBox="0 0 126 126" enable-background="new 0 0 126 126" xml:space="preserve">
<g>
	<path d="M90.402,65.594c-2.982-20.333-7.496-29.04-18.578-35.836c-0.215-0.13-0.44-0.225-0.667-0.32
		c-1.43-0.955-3.035-1.657-4.674-2.06l-3.199,3.22l-3.102-3.255c-0.012,0.002-0.021,0.002-0.033,0.006
		c-2.146,0.512-4.239,1.546-5.955,2.99c-2.637,1.199-5.971,1.514-7.918,1.265c0.676-0.898,1.959-2.293,4.377-4.207
		c1.84-1.458,2.361-3.949,1.42-5.99l9.363-1.272c0.258,0.497,0.802,0.805,1.387,0.726l2.365-0.551
		c0.744-0.102,1.296-0.562,1.195-1.306c-0.102-0.742-0.768-1.128-1.512-1.026l-2.415,0.188c-0.527,0.073-0.938,0.441-1.099,0.913
		l-9.877,1.341c-0.006-0.008-0.01-0.017-0.017-0.024c-1.71-2.16-4.845-2.521-7.004-0.813c-10.515,8.331-9.842,14.202-7.425,17.661
		c2.206,3.155,6.322,4.401,10.696,4.401c0.798,0,1.603-0.056,2.407-0.134v25.378c0,1.343,0.261,2.591,0.717,3.742
		c-0.035,0.261-0.059,0.521-0.059,0.79l0.004,47.74c0,3.255,2.639,5.891,5.893,5.891s5.891-2.638,5.891-5.891l-0.002-40.971
		c0.232,0.01,0.466,0.028,0.701,0.028c0.046,0,0.092-0.005,0.137-0.005l-0.001,40.947c0,3.253,2.638,5.891,5.892,5.891l0,0
		c3.254,0,5.893-2.638,5.893-5.891l0.002-47.448c0.771-1.43,1.221-3.048,1.221-4.824V49.715c1.596,3.982,2.955,9.453,4.11,17.325
		c0.363,2.48,2.493,4.264,4.927,4.264c0.24,0,0.484-0.019,0.729-0.056C88.917,70.85,90.802,68.317,90.402,65.594z"/>
	<path d="M60.733,18.243c0.355-0.529,0.917-0.887,1.566-0.977l2.467-0.195c0.069-0.01,0.187-0.018,0.303-0.018
		c1.136,0,2.031,0.752,2.178,1.828c0.086,0.631-0.104,1.218-0.534,1.651c-0.356,0.362-0.854,0.593-1.437,0.673l-2.281,0.535
		c-0.188,0.029-0.288,0.037-0.389,0.037c-0.615,0-1.19-0.25-1.608-0.676l-7.478,1.018c2.355,2.758,5.852,4.513,9.764,4.513
		c7.092,0,12.841-5.749,12.841-12.842c0-7.092-5.749-12.841-12.841-12.841c-7.093,0-12.842,5.749-12.842,12.841
		c0,2.039,0.488,3.957,1.332,5.67L60.733,18.243z"/>
</g>
</svg>
