<?xml version="1.0" encoding="utf-8"?>
<!-- Generator: Adobe Illustrator 16.0.0, SVG Export Plug-In . SVG Version: 6.00 Build 0)  -->
<!DOCTYPE svg PUBLIC "-//W3C//DTD SVG 1.1//EN" "http://www.w3.org/Graphics/SVG/1.1/DTD/svg11.dtd">
<svg version="1.1" id="Layer_1" xmlns="http://www.w3.org/2000/svg" xmlns:xlink="http://www.w3.org/1999/xlink" x="0px" y="0px"
	 width="126px" height="126px" viewBox="0 0 126 126" enable-background="new 0 0 126 126" xml:space="preserve">
<g>
	<path d="M73.841,29.571l-0.245-0.151c-0.178-0.109-0.365-0.181-0.55-0.265c-1.399-0.907-2.958-1.576-4.545-1.965l-3.22,3.242
		l-3.121-3.276c-0.012,0.002-0.021,0.002-0.032,0.005c-1.604,0.384-3.177,1.053-4.589,1.964c-3.309,0.368-10.409-1.546-11.979-3.333
		c-0.004-0.013-0.01-0.026-0.014-0.039c-0.386-0.971,0.136-4.451,6.397-8.612c-0.314-1.156-0.498-2.367-0.498-3.623
		c0-2.466,0.656-4.778,1.792-6.785c-1.32-0.46-2.824-0.373-4.134,0.374c-16.469,9.385-13.84,19.779-12.951,22.175
		c1.775,5.183,9.21,8.379,15.901,9.449v28.219c0,1.35,0.262,2.608,0.721,3.766c-0.035,0.259-0.059,0.522-0.059,0.79l-0.042,48.042
		c-0.003,3.275,2.648,5.933,5.924,5.935c0,0,0.003,0,0.006,0c3.271,0,5.926-2.651,5.928-5.924l0.036-41.236
		c0.237,0.011,0.475,0.03,0.713,0.03c0.046,0,0.093-0.006,0.139-0.006l-0.001,41.206c0,3.277,2.653,5.931,5.929,5.931
		c3.274,0,5.93-2.654,5.93-5.929l0.001-47.749c0.777-1.44,1.229-3.068,1.229-4.855v-20.09c2.444,4.378,3.086,10.773,0.084,21.471
		c-0.749,2.668,0.807,5.438,3.475,6.185c0.453,0.128,0.909,0.188,1.358,0.188c2.191,0,4.206-1.447,4.827-3.661
		C96.068,43.196,82.153,34.667,73.841,29.571z M65.312,56.007h-0.061l-3.116-4.264l3.116-20.833h0.061l3.116,20.833L65.312,56.007z"
		/>
	<circle cx="66.01" cy="13.442" r="12.923"/>
</g>
</svg>
