<?xml version="1.0" encoding="utf-8"?>
<!-- Generator: Adobe Illustrator 16.0.0, SVG Export Plug-In . SVG Version: 6.00 Build 0)  -->
<!DOCTYPE svg PUBLIC "-//W3C//DTD SVG 1.1//EN" "http://www.w3.org/Graphics/SVG/1.1/DTD/svg11.dtd">
<svg version="1.1" id="Layer_2" xmlns="http://www.w3.org/2000/svg" xmlns:xlink="http://www.w3.org/1999/xlink" x="0px" y="0px"
	 width="126px" height="126px" viewBox="0 0 126 126" enable-background="new 0 0 126 126" xml:space="preserve">
<g>
	<circle cx="82.7" cy="13.741" r="12.854"/>
	<path d="M91.25,29.724c-0.215-0.132-0.442-0.227-0.669-0.322c-1.431-0.955-3.039-1.658-4.679-2.06l-3.202,3.223l-3.105-3.258
		c-0.011,0.002-0.021,0.003-0.032,0.005c-1.673,0.4-3.313,1.118-4.769,2.095c-0.223,0.095-0.445,0.188-0.659,0.317
		c-3.353,2.057-6.151,5.294-8.857,8.426c-6.192,7.165-8.931,9.231-12.946,7.354c-2.499-1.168-5.468-0.09-6.634,2.408
		c-1.168,2.497-0.09,5.467,2.407,6.634c2.449,1.144,4.735,1.632,6.869,1.632c6.01,0,10.8-3.871,14.57-7.831V66.89
		c0,1.342,0.261,2.596,0.717,3.747c-0.035,0.259-0.059,0.522-0.059,0.79l0.004,47.789c0,3.258,2.641,5.898,5.898,5.898
		s5.898-2.641,5.897-5.898l-0.003-41.013c0.234,0.01,0.467,0.029,0.702,0.029c0.046,0,0.092-0.005,0.137-0.005l-0.001,40.989
		c0,3.257,2.64,5.898,5.897,5.898h0c3.257,0,5.898-2.641,5.898-5.898l0.001-47.496c0.773-1.433,1.223-3.053,1.223-4.83V50.854
		c1.162,4.222,1.633,9.86,1.026,17.626c-0.215,2.748,1.839,5.15,4.586,5.364c0.133,0.01,0.264,0.016,0.394,0.016
		c2.58,0,4.766-1.987,4.971-4.602C108.801,44.121,100.507,35.402,91.25,29.724z M82.731,56.006h-0.06l-3.1-4.241l3.1-20.722h0.06
		l3.1,20.722L82.731,56.006z"/>
	<polygon points="48.83,28.124 58.99,34.603 60.89,31.628 47.492,23.086 40.705,35.991 26.56,24.239 32.063,25.022 32.559,21.528 
		18.874,19.588 22.137,34.042 25.577,33.264 24.119,26.8 41.799,41.487 	"/>
</g>
</svg>
