<?xml version="1.0" encoding="utf-8"?>
<!-- Generator: Adobe Illustrator 16.0.0, SVG Export Plug-In . SVG Version: 6.00 Build 0)  -->
<!DOCTYPE svg PUBLIC "-//W3C//DTD SVG 1.1//EN" "http://www.w3.org/Graphics/SVG/1.1/DTD/svg11.dtd">
<svg version="1.1" id="Layer_1" xmlns="http://www.w3.org/2000/svg" xmlns:xlink="http://www.w3.org/1999/xlink" x="0px" y="0px"
	 width="126px" height="126px" viewBox="0 0 126 126" enable-background="new 0 0 126 126" xml:space="preserve">
<g>
	<circle cx="48.585" cy="26.053" r="11.364"/>
	<circle cx="87.049" cy="24.754" r="11.364"/>
	<path d="M104.088,42.353c-0.979-4.569-5.612-6.763-9.546-6.878l-0.035,0.002c0,0-1.386,0.007-2.582,0.235
		c-1.249,0.24-2.346,0.841-2.346,0.841c-2.878,1.396-5.634,4.268-6.008,7.759c-0.056,0.194-0.104,0.393-0.133,0.598
		c-0.811,5.707-1.424,9.313-3.103,11.253c-1.695,1.963-5.369,3.201-12.282,4.146c-0.877,0.119-1.656,0.491-2.28,1.031
		c-5.751-0.914-8.934-2.097-10.476-3.879c-1.678-1.943-2.291-5.547-3.102-11.255c-0.028-0.205-0.076-0.404-0.131-0.598
		c-0.374-3.49-3.132-6.361-6.01-7.759c0,0-1.097-0.602-2.347-0.839c-1.196-0.229-2.582-0.236-2.582-0.236l-0.033-0.002
		c-3.936,0.115-8.568,2.309-9.547,6.878l-5.256,24.525c-0.7,3.274,0.766,6.208,3.134,8.229l-0.021,37.848
		c-0.002,3.324,2.689,6.018,6.012,6.02c0.002,0,0.003,0,0.003,0c3.322,0,6.015-2.69,6.018-6.012l0.02-35.813
		c2.487-0.989,4.588-2.91,5.229-5.904l1.99-9.284c3.165,3.694,8.392,5.815,17.713,7.089c0.203,0.028,0.404,0.042,0.602,0.042
		c1.287,0,2.465-0.569,3.282-1.487c8.678-1.289,13.644-3.386,16.691-6.94l1.988,9.286c0.642,2.991,2.74,4.91,5.225,5.898
		L94.16,114.56c-0.001,3.323,2.69,6.018,6.014,6.02h0.002c3.321,0,6.014-2.691,6.017-6.015l0.015-39.456
		c2.369-2.021,3.837-4.954,3.136-8.231L104.088,42.353z"/>
	<path d="M113.494,5.421c-6.767,0-12.27,4.643-12.27,10.352c0,2.284,1.105,4.308,1.719,5.253l-1.809,7.673l9.149-2.812
		c1.017,0.162,2.434,0.235,3.21,0.235c6.766,0,12.271-4.643,12.271-10.35C125.765,10.063,120.26,5.421,113.494,5.421z
		 M113.494,23.405c-0.863,0-2.317-0.1-3.022-0.241l-0.339-0.068l-5.271,1.615l1.014-4.292l-0.405-0.514
		c-0.016-0.02-1.533-2.008-1.533-4.133c0-4.212,4.289-7.637,9.557-7.637c5.269,0,9.557,3.425,9.557,7.637
		C123.051,19.98,118.763,23.405,113.494,23.405z"/>
	<path d="M30.801,23.286c0.614-0.943,1.721-2.964,1.721-5.252c0-5.708-5.503-10.349-12.27-10.349c-0.828,0-1.634,0.069-2.415,0.201
		c-1.614-0.664-3.418-1.043-5.331-1.043c-6.766,0-12.271,4.641-12.271,10.348c0,5.709,5.505,10.354,12.271,10.354
		c0.619,0,1.641-0.049,2.548-0.15c1.579,0.629,3.338,0.99,5.198,0.99c0.774,0,2.193-0.074,3.208-0.235l9.15,2.812L30.801,23.286z
		 M2.949,17.191c0-4.208,4.288-7.635,9.557-7.635c0.23,0,0.454,0.018,0.679,0.032c-3.143,1.875-5.203,4.959-5.203,8.445
		c0,2.544,1.099,4.873,2.909,6.677C6.388,24.096,2.949,20.963,2.949,17.191z M28.882,26.976l-5.269-1.618l-0.338,0.071
		c-0.708,0.14-2.16,0.241-3.023,0.241c-5.27,0-9.555-3.427-9.555-7.636c0-4.21,4.285-7.637,9.555-7.637
		c5.267,0,9.555,3.427,9.555,7.637c0,2.128-1.516,4.114-1.53,4.136l-0.407,0.514L28.882,26.976z"/>
</g>
</svg>
