<?xml version="1.0" encoding="utf-8"?>
<!-- Generator: Adobe Illustrator 16.0.0, SVG Export Plug-In . SVG Version: 6.00 Build 0)  -->
<!DOCTYPE svg PUBLIC "-//W3C//DTD SVG 1.1//EN" "http://www.w3.org/Graphics/SVG/1.1/DTD/svg11.dtd">
<svg version="1.1" id="Layer_1" xmlns="http://www.w3.org/2000/svg" xmlns:xlink="http://www.w3.org/1999/xlink" x="0px" y="0px"
	 width="126px" height="126px" viewBox="0 0 126 126" enable-background="new 0 0 126 126" xml:space="preserve">
<path d="M26.854,55.532c10.463,0,17.903-4.054,23.241-8.234V66.84c0,1.571,0.36,3.016,0.98,4.317
	c-0.001,0.053-0.016,0.103-0.016,0.156l-0.042,47.178c-0.002,3.215,2.602,5.825,5.817,5.828c0.002,0,0.003,0,0.005,0
	c3.213,0,5.82-2.603,5.823-5.817l0.035-40.48c0.129,0.003,0.257,0.016,0.386,0.016c0.151,0,0.3-0.015,0.45-0.019l-0.002,40.478
	c0,3.216,2.607,5.823,5.823,5.823s5.823-2.607,5.823-5.823l0.002-47.177c0-0.101-0.024-0.194-0.029-0.294
	c0.582-1.267,0.922-2.667,0.922-4.186V47.427c5.326,4.134,12.719,8.105,23.074,8.105c2.721,0,4.927-2.206,4.927-4.927
	c0-2.721-2.206-4.927-4.927-4.927c-11.171,0-17.392-5.994-22.39-10.812c-1.583-1.524-3-2.884-4.462-3.942
	c-1.72-1.511-3.857-2.59-6.05-3.127l-3.161,3.182l-3.065-3.217c-0.011,0.002-0.021,0.003-0.031,0.006
	c-1.979,0.473-3.91,1.394-5.538,2.671c-1.731,1.111-3.358,2.648-5.205,4.428c-4.999,4.817-11.219,10.812-22.39,10.812
	c-2.721,0-4.927,2.206-4.927,4.927C21.927,53.327,24.133,55.532,26.854,55.532z M63.113,31.451l0.477,3.185
	c0.011,0.16,0.045,0.314,0.07,0.472l2.513,16.8l-3.06,4.188h-0.059l-3.06-4.188l3.06-20.457H63.113z M50.394,14.371
	c0-7.008,5.682-12.69,12.69-12.69s12.69,5.682,12.69,12.69s-5.682,12.69-12.69,12.69S50.394,21.379,50.394,14.371z"/>
</svg>
