<?xml version="1.0" encoding="utf-8"?>
<!-- Generator: Adobe Illustrator 16.0.0, SVG Export Plug-In . SVG Version: 6.00 Build 0)  -->
<!DOCTYPE svg PUBLIC "-//W3C//DTD SVG 1.1//EN" "http://www.w3.org/Graphics/SVG/1.1/DTD/svg11.dtd">
<svg version="1.1" id="Layer_2" xmlns="http://www.w3.org/2000/svg" xmlns:xlink="http://www.w3.org/1999/xlink" x="0px" y="0px"
	 width="126px" height="126px" viewBox="0 0 126 126" enable-background="new 0 0 126 126" xml:space="preserve">
<g>
	<circle cx="75.555" cy="15.422" r="12.416"/>
	<path d="M26.854,6.08v37.283c0,1.516,1.229,2.744,2.747,2.744h8.321h1.241h2.967c-0.984,0.462-1.819,1.257-2.314,2.319
		c-1.127,2.412-0.086,5.281,2.325,6.408c2.365,1.106,4.575,1.577,6.635,1.577c5.804,0,10.431-3.74,14.073-7.563v17.91
		c0,1.297,0.251,2.507,0.693,3.62c-0.035,0.25-0.057,0.503-0.057,0.763l0.003,46.158c0,3.146,2.551,5.696,5.696,5.696h0.001
		c3.146,0,5.697-2.551,5.696-5.697l-0.003-39.612c0.227,0.01,0.451,0.028,0.678,0.028c0.045,0,0.088-0.005,0.133-0.005
		l-0.002,39.589c0,3.147,2.551,5.697,5.697,5.697s5.697-2.55,5.697-5.697l0.001-45.875c0.746-1.383,1.182-2.948,1.182-4.665V51.269
		c1.122,4.078,1.577,9.524,0.991,17.025c-0.208,2.654,1.776,4.974,4.43,5.182c0.127,0.01,0.255,0.015,0.38,0.015
		c2.492,0,4.603-1.919,4.801-4.445c1.899-24.28-6.112-32.702-15.051-38.185c-0.209-0.128-0.429-0.22-0.647-0.313
		c-1.382-0.921-2.936-1.601-4.519-1.989l-3.093,3.114l-2.999-3.148c-0.01,0.002-0.021,0.003-0.031,0.005
		c-1.617,0.387-3.201,1.079-4.608,2.024c-0.214,0.091-0.429,0.181-0.634,0.307c-3.239,1.986-5.942,5.113-8.556,8.137
		c-5.972,6.911-8.621,8.91-12.489,7.11h1.659c1.515,0,2.745-1.228,2.745-2.744V6.08c0-1.515-1.229-2.744-2.745-2.744H29.6
		C28.083,3.335,26.854,4.564,26.854,6.08z M75.526,56.245l-2.993-4.098l2.993-20.015h0.058l2.995,20.015l-2.995,4.098H75.526z
		 M36.827,42.288c0-1.061,0.859-1.92,1.921-1.92c1.061,0,1.92,0.859,1.92,1.92c0,1.062-0.859,1.922-1.92,1.922
		C37.686,44.21,36.827,43.349,36.827,42.288z M29.159,10.037h19.179v29.369H29.159V10.037z"/>
</g>
</svg>
