<?xml version="1.0" encoding="utf-8"?>
<!-- Generator: Adobe Illustrator 16.0.0, SVG Export Plug-In . SVG Version: 6.00 Build 0)  -->
<!DOCTYPE svg PUBLIC "-//W3C//DTD SVG 1.1//EN" "http://www.w3.org/Graphics/SVG/1.1/DTD/svg11.dtd">
<svg version="1.1" id="Layer_1" xmlns="http://www.w3.org/2000/svg" xmlns:xlink="http://www.w3.org/1999/xlink" x="0px" y="0px"
	 width="126px" height="126px" viewBox="0 0 126 126" enable-background="new 0 0 126 126" xml:space="preserve">
<g>
	<circle cx="63.006" cy="14.071" r="12.768"/>
	<path d="M71.5,29.947c-0.214-0.131-0.44-0.226-0.665-0.321c-1.421-0.948-3.018-1.646-4.647-2.046l-3.181,3.202l-3.084-3.237
		c-0.01,0.002-0.021,0.003-0.031,0.006c-1.662,0.397-3.291,1.109-4.737,2.08c-0.222,0.095-0.444,0.187-0.655,0.316
		c-6.269,3.845-25.345,15.545-11.359,41.252c0.898,1.652,2.601,2.589,4.358,2.589c0.8,0,1.612-0.194,2.365-0.604
		c0.264-0.144,0.502-0.315,0.729-0.497l0.004,46.152c0,3.235,2.623,5.858,5.858,5.858s5.858-2.624,5.858-5.858L62.31,78.101
		c0.233,0.011,0.464,0.029,0.697,0.029c0.046,0,0.091-0.005,0.138-0.006l-0.002,40.714c0,3.235,2.623,5.858,5.858,5.858h0
		c3.235,0,5.858-2.623,5.858-5.858l0.002-46.678c0.362,0.396,0.777,0.752,1.274,1.023c0.753,0.41,1.564,0.604,2.365,0.604
		c1.757,0,3.459-0.937,4.358-2.589C96.845,45.492,77.769,33.792,71.5,29.947z M49.938,62.455c-2.708-6.65-2.173-11.5,0-15.273
		V62.455z M63.037,56.053h-0.06l-3.079-4.214l3.079-20.583h0.06l3.079,20.583L63.037,56.053z M76.076,62.42V47.206
		C78.233,50.97,78.763,55.802,76.076,62.42z"/>
</g>
</svg>
