<?xml version="1.0" encoding="utf-8"?>
<!-- Generator: Adobe Illustrator 16.0.0, SVG Export Plug-In . SVG Version: 6.00 Build 0)  -->
<!DOCTYPE svg PUBLIC "-//W3C//DTD SVG 1.1//EN" "http://www.w3.org/Graphics/SVG/1.1/DTD/svg11.dtd">
<svg version="1.1" id="Layer_3" xmlns="http://www.w3.org/2000/svg" xmlns:xlink="http://www.w3.org/1999/xlink" x="0px" y="0px"
	 width="126px" height="126px" viewBox="0 0 126 126" enable-background="new 0 0 126 126" xml:space="preserve">
<g>
	<circle cx="64.395" cy="15.955" r="13.583"/>
	<path d="M104.292,31.439L68.69,31.012c-0.658-0.263-1.324-0.48-1.983-0.635l-2.956,2.631l-3.074-2.603l-0.041,0.006
		c-0.921,0.234-1.851,0.579-2.752,1.02l-36.051-0.432c-0.021,0-0.043,0-0.064,0c-2.882,0-5.237,2.32-5.271,5.21
		c-0.031,2.622,1.857,4.813,4.359,5.251c0.132,1.361,0.708,2.688,1.736,3.744l31.303,32.126c0.493,0.506,1.053,0.905,1.65,1.208
		c2.284,1.748,5.261,2.728,8.158,2.789l0.054,36.079c0.005,3.438,2.794,6.223,6.232,6.223c0.003,0,0.006,0,0.009,0
		c3.442-0.005,6.228-2.8,6.223-6.241l-0.065-43.605c0-0.167-0.013-0.33-0.026-0.494c0.225-0.813,0.354-1.676,0.346-2.601
		l-0.25-29.036l27.938,0.334c0.021,0,0.043,0,0.064,0c2.882,0,5.237-2.32,5.271-5.21C109.536,33.863,107.204,31.474,104.292,31.439z
		 M51.431,56.939L36.605,41.723l14.696,0.177L51.431,56.939z"/>
</g>
</svg>
