<?xml version="1.0" encoding="utf-8"?>
<!-- Generator: Adobe Illustrator 16.0.0, SVG Export Plug-In . SVG Version: 6.00 Build 0)  -->
<!DOCTYPE svg PUBLIC "-//W3C//DTD SVG 1.1//EN" "http://www.w3.org/Graphics/SVG/1.1/DTD/svg11.dtd">
<svg version="1.1" id="Layer_3" xmlns="http://www.w3.org/2000/svg" xmlns:xlink="http://www.w3.org/1999/xlink" x="0px" y="0px"
	 width="126px" height="126px" viewBox="0 0 126 126" enable-background="new 0 0 126 126" xml:space="preserve">
<g>
	<circle cx="58.04" cy="14.74" r="13.238"/>
	<path d="M86.764,47.392c-4.063,0-7.37,3.307-7.37,7.37c0,0.445,0.047,0.879,0.122,1.303c-7.626-1.09-11.733-2.517-13.655-4.738
		c-1.955-2.26-2.67-6.46-3.614-13.109c-0.033-0.239-0.089-0.47-0.153-0.696c-0.437-4.066-3.647-7.411-7-9.037
		c0,0-1.276-0.701-2.733-0.979c-1.394-0.267-3.009-0.275-3.009-0.275l-0.039-0.002c-4.583,0.133-9.98,2.688-11.121,8.011
		l-6.121,28.572c-0.817,3.814,0.89,7.23,3.648,9.584l-0.025,44.093c-0.002,3.871,3.134,7.011,7.004,7.013c0.001,0,0.003,0,0.003,0
		c3.87,0,7.008-3.136,7.009-7.004l0.025-41.721c2.896-1.151,5.345-3.39,6.092-6.876l2.317-10.817
		c3.687,4.306,9.776,6.775,20.634,8.26c0.236,0.032,0.471,0.048,0.703,0.048c2.529,0,4.733-1.867,5.085-4.443
		c0.007-0.049,0.008-0.097,0.013-0.146c0.691,0.216,1.426,0.331,2.187,0.331c4.064,0,7.372-3.307,7.372-7.37
		S90.828,47.392,86.764,47.392z M86.764,56.725c-1.082,0-1.963-0.881-1.963-1.963s0.881-1.963,1.963-1.963
		c1.083,0,1.964,0.881,1.964,1.963S87.847,56.725,86.764,56.725z"/>
</g>
</svg>
