<?xml version="1.0" encoding="utf-8"?>
<!-- Generator: Adobe Illustrator 16.0.0, SVG Export Plug-In . SVG Version: 6.00 Build 0)  -->
<!DOCTYPE svg PUBLIC "-//W3C//DTD SVG 1.1//EN" "http://www.w3.org/Graphics/SVG/1.1/DTD/svg11.dtd">
<svg version="1.1" id="Layer_3" xmlns="http://www.w3.org/2000/svg" xmlns:xlink="http://www.w3.org/1999/xlink" x="0px" y="0px"
	 width="126px" height="126px" viewBox="0 0 126 126" enable-background="new 0 0 126 126" xml:space="preserve">
<g>
	<circle cx="73.022" cy="13.348" r="12.957"/>
	<path d="M81.641,29.457c-0.217-0.131-0.444-0.227-0.671-0.322c-1.444-0.965-3.064-1.674-4.719-2.078l-1.684,1.695
		c-0.401-0.293-0.913-0.426-1.437-0.32l-1.586,0.322l-1.65-1.734c-0.012,0.004-0.022,0.004-0.033,0.006
		c-1.686,0.404-3.338,1.125-4.805,2.111c-0.227,0.096-0.452,0.189-0.668,0.32l-0.31,0.191c-0.498,0.305-0.997,0.609-1.497,0.914
		l-23.544,4.754c-0.188-0.08-0.372-0.15-0.56-0.238c-2.517-1.18-5.511-0.088-6.687,2.426c-1.177,2.518-0.091,5.512,2.426,6.688
		c1.154,0.541,2.29,0.979,3.411,1.344l7.218,35.73c0.095,0.475,0.376,0.893,0.78,1.162c0.302,0.201,0.655,0.305,1.012,0.305
		c0.12,0,0.242-0.012,0.362-0.037l13.425-2.711l0.002,39.68c0,3.283,2.661,5.945,5.945,5.945s5.944-2.662,5.944-5.945l-0.003-41.34
		c0.236,0.01,0.471,0.029,0.709,0.029c0.047,0,0.092-0.006,0.139-0.006l-0.002,41.316c0,3.283,2.662,5.945,5.945,5.945
		c3.284,0,5.945-2.662,5.945-5.945l0.002-46.861c0.252,0.037,0.505,0.064,0.756,0.064c1.864,0,3.654-1.041,4.525-2.826
		C100.1,50.01,91.754,35.66,81.641,29.457z M48.069,78.748L40.195,39.76c0.194-0.375,0.418-0.734,0.664-1.078l31.203-6.303
		l8.058,39.895L48.069,78.748z M84.022,61.129l-0.571-13.49C87.91,54.383,84.022,61.129,84.022,61.129z"/>
</g>
</svg>
