<svg width="64" xmlns="http://www.w3.org/2000/svg" height="64" viewBox="0 0 64 64" xmlns:xlink="http://www.w3.org/1999/xlink" enable-background="new 0 0 64 64">
<g fill="#010101">
<path d="m51.644,54.109l-6.685-19.508c.066-1.104 .162-3.321-.414-4.343l-7.051,4.644c-2.994,1.602-8.108,5-8.344,5.209-1.137,1.012-1.4,2.682-.636,3.994l6.945,11.914c.421,.721 1.08,1.217 1.818,1.443 .824,.254 1.746,.174 2.549-.293 1.523-.889 2.039-2.844 1.152-4.367l-5.609-9.619c1.188-.992 2.529-2.064 3.784-2.996 .313-.006 .624-.041 .936-.098l5.515,16.09c.345,1.004 1.141,1.729 2.082,2.018 .623,.191 1.311,.195 1.974-.031 1.667-.572 2.556-2.389 1.984-4.057z"/>
<path d="m36.191,32.895l7.742-4.746c-1.817-2.365-7.428-7.686-9.02-9.458-2.187-2.437-6.943-2.47-9.38-.282-.798,.717-1.351,1.602-1.664,2.552-2.054,2.576-5.696,1.812-8.868,1.288-1.476-.245-2.779,1.316-2.818,2.655-.048,1.64 1.185,2.574 2.655,2.817 3.318,.548 6.902,.733 9.811-.501 0,0 .7,8.702 6.274,8.687 .001-.001 3.1-1.778 5.268-3.012z"/>
<path d="m22.509,17.524c2.605,.801 5.367-.66 6.167-3.264 .501-1.626 .12-3.314-.872-4.548l.923,.135c.545,.08 1.051-.297 1.131-.843 .08-.545-.296-1.052-.842-1.131l-1.905-.279 .248-.302c.35-.426 .288-1.054-.138-1.403-.426-.351-1.053-.288-1.403,.137l-1.286,1.564c-.074,.067-.14,.146-.19,.233l-.052,.065c-2.233-.15-4.357,1.237-5.045,3.469-.801,2.604 .66,5.365 3.264,6.167z"/>
</g>
</svg>
