<?xml version="1.0" encoding="utf-8"?>
<!-- Generator: Adobe Illustrator 16.0.0, SVG Export Plug-In . SVG Version: 6.00 Build 0)  -->
<!DOCTYPE svg PUBLIC "-//W3C//DTD SVG 1.1//EN" "http://www.w3.org/Graphics/SVG/1.1/DTD/svg11.dtd">
<svg version="1.1" id="Layer_11" xmlns="http://www.w3.org/2000/svg" xmlns:xlink="http://www.w3.org/1999/xlink" x="0px" y="0px"
	 width="100px" height="100px" viewBox="0 0 100 100" enable-background="new 0 0 100 100" xml:space="preserve">
<path d="M66.153,76.173H72.5v3.692h-6.347V86h-3.691v-6.135h-5.924v-3.692h5.924v-6.135h3.691V76.173z M33.078,31.045
	c0-5.083,2.266-9.615,5.816-12.716c-0.026-0.308-0.048-0.616-0.048-0.93c0-6.15,5.004-11.153,11.153-11.153
	c6.15,0,11.153,5.003,11.153,11.153c0,0.313-0.021,0.622-0.047,0.93c3.551,3.101,5.815,7.633,5.815,12.716
	c0,9.346-7.576,16.922-16.922,16.922S33.078,40.391,33.078,31.045z M41.154,17.399c0,4.878,3.968,8.846,8.846,8.846
	s8.846-3.968,8.846-8.846S54.878,8.554,50,8.554S41.154,12.521,41.154,17.399z M78.846,70.787v17.564l-0.12-0.002l-1.132,0.575
	c-0.571,0.288-9.801,4.829-25.725,4.829c-8.152,0-18.06-1.189-29.458-4.75l-1.212-0.379l-0.045-0.273V70.787
	c0-11.946,9.72-21.666,21.667-21.666h14.357C69.126,49.121,78.846,58.841,78.846,70.787z M76.538,70.787
	c0-10.674-8.685-19.358-19.359-19.358h-1.701c-3.431,2.312-4.697,11.656-4.901,15.563l-1.153-0.029
	c0-8.549-3.862-13.774-5.417-15.533h-1.185c-10.675,0-19.359,8.685-19.359,19.358v15.257l-0.007,0.537
	C56.141,96.79,76.3,86.763,76.503,86.66l0.035-0.616V70.787z M50,20.86c1.912,0,3.462-1.55,3.462-3.461
	c0-1.912-1.55-3.462-3.462-3.462c-1.911,0-3.461,1.55-3.461,3.462C46.539,19.311,48.089,20.86,50,20.86z"/>
</svg>
