<?xml version="1.0" encoding="utf-8"?>
<!-- Generator: Adobe Illustrator 16.0.0, SVG Export Plug-In . SVG Version: 6.00 Build 0)  -->
<!DOCTYPE svg PUBLIC "-//W3C//DTD SVG 1.1//EN" "http://www.w3.org/Graphics/SVG/1.1/DTD/svg11.dtd">
<svg version="1.1" id="Layer_1" xmlns="http://www.w3.org/2000/svg" xmlns:xlink="http://www.w3.org/1999/xlink" x="0px" y="0px"
	 width="50px" height="50px" viewBox="0 0 50 50" enable-background="new 0 0 50 50" xml:space="preserve">
<g>
	<path d="M10.02,35.176c0,0.625,0.511,1.137,1.136,1.137h1.89v-3.506l-3.025-0.607V35.176z"/>
	<path d="M16.655,36.312h1.888c0.625,0,1.138-0.512,1.138-1.137v-2.977l-3.025,0.607V36.312z"/>
	<path d="M12.939,29.106v0.568c0,0.018,0.005,0.034,0.005,0.051h-1.789c-0.705,0-1.279,0.574-1.279,1.279v0.898l3.169,0.636v-3.561
		c-0.024-0.025-0.041-0.055-0.063-0.081C12.963,28.966,12.939,29.033,12.939,29.106z"/>
	<path d="M18.543,29.726h-1.787c0-0.017,0.004-0.033,0.004-0.051v-0.568c0-0.074-0.022-0.141-0.042-0.209
		c-0.022,0.026-0.039,0.056-0.062,0.081v3.561l3.168-0.636v-0.898C19.823,30.3,19.249,29.726,18.543,29.726z"/>
	<path d="M17.49,23.905l-0.609-1.881v-1.959c0-1.122-0.91-2.031-2.031-2.031s-2.031,0.909-2.031,2.031v7.221
		c0,0.599,0.265,1.132,0.678,1.503v10.363c0,0.748,0.606,1.354,1.354,1.354c0.748,0,1.354-0.606,1.354-1.354V28.789
		c0.412-0.372,0.677-0.905,0.677-1.503v-0.985l2.684,2.126c0.207,0.164,0.455,0.244,0.7,0.244c0.333,0,0.663-0.147,0.885-0.428
		c0.387-0.489,0.306-1.198-0.184-1.585L17.49,23.905z"/>
	<circle cx="16.625" cy="15.316" r="2.802"/>
	<path d="M30.319,35.176c0,0.625,0.513,1.137,1.138,1.137h1.888v-3.506l-3.025-0.607V35.176z"/>
	<path d="M36.955,36.312h1.89c0.625,0,1.136-0.512,1.136-1.137v-2.977l-3.025,0.607V36.312z"/>
	<path d="M33.24,29.106v0.568c0,0.018,0.004,0.034,0.004,0.051h-1.787c-0.706,0-1.28,0.574-1.28,1.279v0.898l3.168,0.636v-3.561
		c-0.023-0.025-0.04-0.055-0.062-0.081C33.263,28.966,33.24,29.033,33.24,29.106z"/>
	<path d="M38.845,29.726h-1.789c0-0.017,0.005-0.033,0.005-0.051v-0.568c0-0.074-0.023-0.141-0.042-0.209
		c-0.022,0.026-0.039,0.056-0.063,0.081v3.561l3.169-0.636v-0.898C40.124,30.3,39.55,29.726,38.845,29.726z"/>
	<path d="M37.181,20.064c0-1.122-0.909-2.031-2.03-2.031s-2.031,0.909-2.031,2.031v0.348l-1.989,2.95l-3.948-0.549
		c-0.614-0.081-1.188,0.345-1.272,0.963c-0.086,0.617,0.345,1.187,0.962,1.273l4.646,0.646c0.052,0.007,0.104,0.011,0.155,0.011
		c0.372,0,0.724-0.184,0.936-0.498l0.512-0.76v2.837c0,0.599,0.265,1.132,0.677,1.503v10.363c0,0.748,0.606,1.354,1.354,1.354
		c0.747,0,1.354-0.606,1.354-1.354V28.789c0.413-0.372,0.677-0.905,0.677-1.503V20.064z"/>
	<circle cx="33.375" cy="15.316" r="2.802"/>
	<path d="M25,13.316h1.664c0.343,0,0.623-0.28,0.623-0.623v-2.576c0-0.342-0.28-0.623-0.623-0.623H22.19
		c-0.343,0-0.623,0.281-0.623,0.623v2.576c0,0.343,0.28,0.623,0.623,0.623h0.307l-1.771,2.217L25,13.316z M25.584,11.121
		c0.195,0,0.354,0.158,0.354,0.354c0,0.196-0.158,0.354-0.354,0.354s-0.354-0.158-0.354-0.354
		C25.23,11.279,25.389,11.121,25.584,11.121z M24.427,11.121c0.196,0,0.354,0.158,0.354,0.354c0,0.196-0.158,0.354-0.354,0.354
		c-0.194,0-0.354-0.158-0.354-0.354C24.073,11.279,24.232,11.121,24.427,11.121z M23.271,11.121c0.195,0,0.354,0.158,0.354,0.354
		c0,0.196-0.159,0.354-0.354,0.354s-0.354-0.158-0.354-0.354C22.917,11.279,23.075,11.121,23.271,11.121z"/>
	<path d="M27.585,18.722h0.307c0.343,0,0.623-0.281,0.623-0.623v-0.771c0-0.342-0.28-0.623-0.623-0.623h-4.474
		c-0.343,0-0.623,0.281-0.623,0.623v0.771c0,0.342,0.28,0.623,0.623,0.623h1.664l4.323,1.741L27.585,18.722z M24.497,18.137
		c-0.194,0-0.354-0.158-0.354-0.354s0.159-0.354,0.354-0.354c0.196,0,0.354,0.158,0.354,0.354S24.693,18.137,24.497,18.137z
		 M25.655,18.137c-0.196,0-0.354-0.158-0.354-0.354s0.158-0.354,0.354-0.354c0.194,0,0.354,0.158,0.354,0.354
		S25.85,18.137,25.655,18.137z M26.812,18.137c-0.195,0-0.354-0.158-0.354-0.354s0.159-0.354,0.354-0.354
		c0.194,0,0.354,0.158,0.354,0.354S27.006,18.137,26.812,18.137z"/>
</g>
</svg>
