<?xml version="1.0" encoding="utf-8"?>
<!-- Generator: Adobe Illustrator 16.0.0, SVG Export Plug-In . SVG Version: 6.00 Build 0)  -->
<!DOCTYPE svg PUBLIC "-//W3C//DTD SVG 1.1//EN" "http://www.w3.org/Graphics/SVG/1.1/DTD/svg11.dtd">
<svg version="1.1" id="Layer_2" xmlns="http://www.w3.org/2000/svg" xmlns:xlink="http://www.w3.org/1999/xlink" x="0px" y="0px"
	 width="126px" height="126px" viewBox="0 0 126 126" enable-background="new 0 0 126 126" xml:space="preserve">
<g>
	<path d="M34.784,38.332c2.713,0,5.15-1.152,6.871-2.986c-3.763-4.459-7.032-10.22-7.869-15.818c-4.737,0.499-8.43,4.506-8.43,9.375
		C25.356,34.11,29.577,38.332,34.784,38.332z"/>
	<path d="M41.055,40.627c-0.158-0.098-0.324-0.166-0.489-0.237c-1.05-0.7-2.229-1.216-3.433-1.511l-2.349,2.364l-2.278-2.391
		c-0.008,0.002-0.016,0.002-0.023,0.005c-1.743,0.416-3.437,1.299-4.761,2.541c-7.269,4.889-10.364,11.367-12.443,25.54
		c-0.293,1.999,1.09,3.858,3.09,4.152c0.18,0.026,0.359,0.039,0.536,0.039c1.787,0,3.351-1.31,3.618-3.13
		c0.748-5.099,1.613-8.823,2.61-11.639v11.526c0,0.985,0.191,1.903,0.526,2.748c-0.026,0.19-0.043,0.383-0.043,0.579l0.003,35.053
		c0,2.39,1.937,4.326,4.326,4.326s4.326-1.938,4.326-4.326l-0.002-30.082c0.172,0.008,0.343,0.021,0.516,0.021
		c0.033,0,0.067-0.004,0.101-0.004l-0.001,30.064c0,2.389,1.937,4.326,4.325,4.326h0c2.389,0,4.326-1.938,4.326-4.326l0.001-34.838
		c0.567-1.051,0.896-2.239,0.896-3.542V55.279c0.979,2.443,1.837,5.656,2.587,10.019v-19.78
		C45.379,43.652,43.423,42.079,41.055,40.627z M34.806,59.904h-0.044l-2.274-3.111L34.25,45.02c0.176-0.474,0.251-0.977,0.222-1.484
		l0.291-1.941h0.044l2.273,15.199L34.806,59.904z"/>
	<path d="M90.809,38.332c5.208,0,9.428-4.222,9.428-9.43c0-4.729-3.487-8.635-8.029-9.313c-0.862,5.685-4.218,11.519-8.054,15.992
		C85.859,37.28,88.211,38.332,90.809,38.332z"/>
	<path d="M110.721,66.938c-2.189-14.929-5.504-21.323-13.641-26.312c-0.158-0.098-0.324-0.166-0.489-0.236
		c-1.05-0.701-2.229-1.217-3.433-1.512l-2.349,2.364l-2.277-2.391c-0.008,0.002-0.016,0.002-0.023,0.005
		c-1.743,0.416-3.437,1.299-4.761,2.541c-2.095,1.409-3.842,2.951-5.319,4.771v22.324c0.047-0.162,0.094-0.323,0.119-0.494
		c0.748-5.099,1.613-8.823,2.61-11.639v11.526c0,0.985,0.191,1.903,0.526,2.748c-0.025,0.19-0.043,0.383-0.043,0.579l0.002,35.053
		c0,2.39,1.937,4.326,4.326,4.326c2.39,0,4.326-1.938,4.326-4.326l-0.002-30.082c0.171,0.008,0.342,0.021,0.515,0.021
		c0.034,0,0.067-0.004,0.101-0.004l-0.001,30.064c0,2.389,1.937,4.326,4.326,4.326c2.39,0,4.327-1.938,4.327-4.326l0.001-34.838
		c0.567-1.051,0.897-2.239,0.897-3.542V55.279c1.171,2.924,2.17,6.94,3.018,12.721c0.267,1.82,1.83,3.13,3.617,3.13
		c0.177,0,0.355-0.013,0.536-0.039C109.63,70.797,111.014,68.938,110.721,66.938z M90.831,59.904h-0.044l-2.273-3.111l1.761-11.773
		c0.176-0.474,0.251-0.977,0.222-1.484l0.29-1.941h0.044l2.273,15.199L90.831,59.904z"/>
	<circle cx="62.725" cy="14.174" r="12.742"/>
	<path d="M89.633,12.956c-0.397-2.703-2.912-4.574-5.614-4.175c-2.703,0.397-4.572,2.911-4.175,5.613
		c0.67,4.556-6.566,13.47-9.747,15.026c-1.306-0.804-2.738-1.408-4.198-1.767l-3.174,3.196l-3.078-3.23
		c-0.01,0.002-0.021,0.003-0.032,0.005c-1.39,0.332-2.756,0.889-4.013,1.629c-3.31-1.926-10.097-10.438-9.447-14.859
		c0.397-2.702-1.472-5.216-4.175-5.613c-2.706-0.398-5.216,1.472-5.614,4.175c-1.277,8.696,6.949,19.99,13.438,24.306
		c-0.071,0.479-0.121,0.965-0.121,1.469v28.126c0,1.331,0.258,2.573,0.711,3.714c-0.035,0.258-0.059,0.518-0.059,0.784l0.003,47.369
		c0,3.228,2.618,5.845,5.847,5.845c3.229,0,5.846-2.618,5.846-5.847L62.029,78.07c0.232,0.011,0.463,0.029,0.696,0.029
		c0.045,0,0.091-0.006,0.137-0.006l-0.001,40.628c0,3.229,2.617,5.847,5.846,5.847c0,0,0,0,0,0c3.229,0,5.846-2.618,5.846-5.847
		l0.002-47.078c0.766-1.42,1.212-3.025,1.212-4.787V38.73c0-0.394-0.028-0.777-0.072-1.156c0.149-0.093,0.294-0.176,0.446-0.276
		C82.639,33.011,90.914,21.677,89.633,12.956z M62.755,56.068h-0.06l-3.072-4.205l2.38-15.91c0.238-0.641,0.34-1.319,0.3-2.005
		l0.392-2.626h0.06l3.072,20.541L62.755,56.068z"/>
</g>
</svg>
