<?xml version="1.0" encoding="utf-8"?>
<!-- Generator: Adobe Illustrator 16.0.0, SVG Export Plug-In . SVG Version: 6.00 Build 0)  -->
<!DOCTYPE svg PUBLIC "-//W3C//DTD SVG 1.1//EN" "http://www.w3.org/Graphics/SVG/1.1/DTD/svg11.dtd">
<svg version="1.1" id="Layer_2" xmlns="http://www.w3.org/2000/svg" xmlns:xlink="http://www.w3.org/1999/xlink" x="0px" y="0px"
	 width="126px" height="126px" viewBox="0 0 126 126" enable-background="new 0 0 126 126" xml:space="preserve">
<g>
	<circle cx="62.944" cy="19.176" r="7.55"/>
	<path d="M76.183,42.306c-1.998-5.701-3.886-11.087-8.216-13.743c-0.126-0.077-0.26-0.133-0.394-0.188
		c-0.84-0.562-1.784-0.975-2.747-1.21l-1.881,1.893l-1.823-1.914c-0.007,0.002-0.012,0.002-0.02,0.004
		c-0.961,0.23-1.904,0.637-2.746,1.192c-0.158,0.061-0.315,0.132-0.467,0.224c-4.331,2.656-6.217,8.042-8.216,13.743
		c-0.763,2.174-1.55,4.422-2.492,6.579c-0.646,1.482,0.03,3.21,1.514,3.857c0.383,0.167,0.779,0.246,1.171,0.246
		c1.13,0,2.208-0.658,2.688-1.759c1.029-2.355,1.854-4.709,2.652-6.985c0.005-0.013,0.008-0.022,0.011-0.035v6.182
		c0,0.789,0.153,1.524,0.422,2.201c-0.021,0.152-0.034,0.307-0.034,0.464l0.003,28.066c0,1.915,1.55,3.464,3.464,3.464
		c1.912-0.001,3.464-1.551,3.464-3.465l-0.002-24.086c0.138,0.007,0.273,0.017,0.412,0.017c0.027,0,0.054-0.003,0.08-0.003v24.072
		c0,1.915,1.551,3.465,3.463,3.465h0.002c1.912,0,3.463-1.551,3.463-3.465l0.002-27.895c0.452-0.84,0.718-1.793,0.718-2.836v-6.087
		c0.79,2.259,1.61,4.591,2.63,6.926c0.479,1.101,1.559,1.759,2.688,1.759c0.391,0,0.789-0.08,1.172-0.246
		c1.483-0.647,2.16-2.375,1.514-3.857C77.733,46.728,76.945,44.479,76.183,42.306z M62.964,43.999h-0.036l-1.82-2.492l1.82-12.17
		h0.036l1.819,12.17L62.964,43.999z"/>
	<circle cx="85.928" cy="7.517" r="5.665"/>
	<path d="M97.73,29.806c-0.707-1.616-1.298-3.304-1.869-4.935c-1.499-4.277-2.918-8.317-6.165-10.31
		c-0.095-0.059-0.195-0.101-0.296-0.143c-0.63-0.421-1.339-0.73-2.062-0.908l-1.409,1.42l-1.37-1.436c-0.003,0-0.009,0-0.013,0.002
		c-0.722,0.173-1.43,0.478-2.062,0.894c-0.119,0.046-0.236,0.1-0.349,0.169c-3.25,1.993-4.666,6.033-6.165,10.31
		c-0.573,1.631-1.165,3.319-1.869,4.935c-0.487,1.114,0.021,2.41,1.135,2.896c0.286,0.125,0.584,0.185,0.879,0.185
		c0.847,0,1.656-0.495,2.017-1.321c0.771-1.768,1.39-3.533,1.989-5.24c0.002-0.008,0.006-0.017,0.009-0.027v4.639
		c0,0.592,0.115,1.144,0.315,1.651c-0.014,0.114-0.026,0.229-0.026,0.348l0.003,21.06c0.001,1.436,1.163,2.599,2.599,2.599
		s2.6-1.164,2.6-2.599l-0.003-18.074c0.104,0.005,0.206,0.014,0.312,0.014c0.02,0,0.039-0.003,0.059-0.003v18.063
		c0,1.435,1.164,2.599,2.599,2.599c1.436,0,2.6-1.164,2.6-2.599V33.066c0.341-0.631,0.54-1.345,0.54-2.128v-4.567
		c0.592,1.693,1.208,3.443,1.973,5.195c0.361,0.826,1.169,1.321,2.017,1.321c0.293,0,0.593-0.059,0.879-0.185
		C97.708,32.216,98.215,30.92,97.73,29.806z M85.941,26.142h-0.026l-1.365-1.869l1.365-9.131h0.026l1.365,9.131L85.941,26.142z"/>
	<circle cx="40.096" cy="7.517" r="5.665"/>
	<path d="M49.886,32.887c0.293,0,0.593-0.059,0.878-0.185c1.113-0.486,1.621-1.782,1.137-2.896
		c-0.707-1.616-1.299-3.304-1.871-4.935c-1.499-4.277-2.915-8.317-6.163-10.31c-0.096-0.059-0.196-0.101-0.297-0.143
		c-0.63-0.421-1.339-0.73-2.063-0.908l-1.408,1.42l-1.37-1.436c-0.004,0-0.009,0-0.014,0.002c-0.721,0.173-1.429,0.478-2.061,0.894
		c-0.119,0.046-0.236,0.1-0.351,0.169c-3.248,1.993-4.665,6.033-6.163,10.31c-0.573,1.631-1.165,3.319-1.87,4.935
		c-0.487,1.114,0.021,2.41,1.136,2.896c0.285,0.125,0.584,0.185,0.879,0.185c0.847,0,1.655-0.495,2.016-1.321
		c0.772-1.768,1.392-3.533,1.989-5.24c0.004-0.008,0.005-0.017,0.009-0.027v4.639c0,0.592,0.114,1.144,0.317,1.651
		c-0.016,0.114-0.026,0.229-0.026,0.348l0.001,21.06c0,1.436,1.164,2.599,2.6,2.599s2.599-1.164,2.599-2.599l-0.001-18.074
		c0.104,0.005,0.205,0.014,0.311,0.014c0.019,0,0.039-0.003,0.06-0.003v18.063c0,1.435,1.162,2.599,2.598,2.599
		c1.437,0,2.601-1.164,2.601-2.599V33.066c0.34-0.631,0.54-1.345,0.54-2.128v-4.567c0.592,1.693,1.208,3.443,1.971,5.195
		C48.229,32.393,49.037,32.887,49.886,32.887z M40.11,26.142h-0.026l-1.364-1.869l1.364-9.131h0.026l1.366,9.131L40.11,26.142z"/>
	<polygon points="50.863,102.213 58.815,102.213 58.815,124.147 67.186,124.147 67.186,102.213 75.137,102.213 63,88.049 	"/>
</g>
</svg>
