<?xml version="1.0" encoding="iso-8859-1"?>
<!-- Generator: Adobe Illustrator 17.1.0, SVG Export Plug-In . SVG Version: 6.00 Build 0)  -->
<!DOCTYPE svg PUBLIC "-//W3C//DTD SVG 1.1//EN" "http://www.w3.org/Graphics/SVG/1.1/DTD/svg11.dtd">
<svg version="1.1" id="Layer_1" xmlns="http://www.w3.org/2000/svg" xmlns:xlink="http://www.w3.org/1999/xlink" x="0px" y="0px"
	 viewBox="0 0 128 128" style="enable-background:new 0 0 128 128;" xml:space="preserve">
<g>
	<circle cx="40.411" cy="14.501" r="8.532"/>
	<path d="M67.753,37.169c0,0-0.161,0.526-0.434,1.419c0.531,0.257,1.039,0.567,1.508,0.937c1.334-0.797,2.612-1.2,3.806-1.2
		c0.168,0,0.337,0.008,0.501,0.025c0.935,0.093,1.763,0.439,2.406,1.052c0.292,0.007,2.336,0,2.336,0h0.002
		c0.264-0.004,0.419,0.221,0.349,0.474l-4.127,13.507c2.695,1.324,4.764,4.209,5.983,8.444c0.016,0.056,0.034,0.123,0.054,0.199
		c1.882,6.138,4.611,15.037,4.63,15.098c0.367,1.197,0.246,2.464-0.34,3.568c-0.586,1.105-1.568,1.915-2.763,2.282
		c-0.447,0.137-0.909,0.207-1.374,0.207c-0.976,0-1.892-0.296-2.651-0.817l3.707,12.176c0.169,0.599,0.052,1.245-0.312,1.728
		c-0.353,0.467-0.902,0.735-1.505,0.735h-4.35c-0.001,8.889-0.001,19.289-0.001,19.295c0,3.167,2.567,5.733,5.733,5.733
		c3.167,0,5.733-2.567,5.733-5.733l0.002-31.721c0-0.264,0.214-0.478,0.478-0.478h0.008h0.917h0.007
		c0.264,0,0.478,0.214,0.478,0.478l0.002,31.721c0,3.167,2.567,5.733,5.733,5.733c3.167,0,5.733-2.567,5.733-5.733
		c0-0.011-0.002-31.721-0.002-31.721c0-0.264,0.193-0.479,0.458-0.479h9.331c0.463,0,0.535-0.443,0.463-0.697l-13.3-43.526
		c-0.07-0.254,0.084-0.479,0.349-0.474h0.002c0,0,0.894,0,0.936,0c0.464,0,0.663,0.38,0.702,0.472c0,0,6.643,21.661,6.646,21.661
		c0.721,2.346,3.207,3.664,5.553,2.944c2.348-0.721,3.667-3.207,2.947-5.555c-0.003-0.009-6.64-21.68-6.661-21.755
		c-1.016-3.53-3.49-11.569-10.477-11.569H78.206C70.708,25.599,68.768,33.638,67.753,37.169z"/>
	<path d="M16.861,64.478c2.347,0.72,4.832-0.599,5.553-2.944c0.002,0,6.646-21.661,6.646-21.661
		c0.039-0.092,0.238-0.472,0.702-0.472c0.042,0,0.936,0,0.936,0H30.7c0.264-0.004,0.419,0.221,0.349,0.474l-13.3,43.526
		c-0.072,0.254,0,0.697,0.463,0.697h9.331c0.264,0,0.458,0.214,0.458,0.479c0,0-0.002,31.71-0.002,31.721
		c0,3.167,2.567,5.733,5.733,5.733c3.167,0,5.733-2.567,5.733-5.733l0.002-31.721c0-0.264,0.214-0.478,0.478-0.478h0.008h0.917
		h0.007c0.264,0,0.478,0.214,0.478,0.478l0.002,31.721c0,3.167,2.567,5.733,5.733,5.733s5.733-2.567,5.733-5.733
		c0-0.006-0.001-10.406-0.001-19.295h-4.87c-0.604,0-1.153-0.268-1.506-0.736c-0.365-0.483-0.482-1.129-0.312-1.728l3.721-12.243
		c-0.777,0.563-1.729,0.884-2.747,0.884c-0.465,0-0.927-0.07-1.374-0.207c-1.196-0.367-2.177-1.177-2.763-2.282
		c-0.586-1.104-0.707-2.372-0.34-3.567c0.042-0.137,4.623-15.096,4.689-15.315c0.204-0.708,1.022-3.249,2.793-5.516
		c1.104-1.414,2.369-2.439,3.743-3.055l-4.083-13.363c-0.07-0.254,0.084-0.479,0.349-0.474h0.002c0,0,1.907,0.006,2.216,0
		c0.636-0.594,1.449-0.96,2.366-1.052c0.164-0.016,0.334-0.025,0.503-0.025c1.137,0,2.355,0.368,3.626,1.097
		c0.552-0.418,1.154-0.759,1.789-1.023c-0.237-0.776-0.376-1.229-0.376-1.229C59.231,33.639,57.292,25.6,49.794,25.6H31.052
		c-6.987,0-9.461,8.039-10.477,11.569c-0.021,0.075-6.659,21.747-6.661,21.755C13.194,61.272,14.513,63.758,16.861,64.478z"/>
	<circle cx="87.589" cy="14.501" r="8.532"/>
	<path d="M47.626,94.961c-0.051,0.179,0,0.491,0.326,0.491h6.477c0.186,0,0.322,0.151,0.322,0.337c0,0-0.002,22.195-0.002,22.203
		c0,2.23,1.808,4.039,4.039,4.039s4.039-1.808,4.039-4.039l0.002-22.203c0-0.186,0.15-0.337,0.337-0.337c0,0,1.246,0,1.394,0
		c0.148,0,0.342,0.15,0.342,0.337l0.002,22.203c0,2.23,1.808,4.039,4.039,4.039s4.039-1.808,4.039-4.039
		c0-0.008-0.002-22.203-0.002-22.203c0-0.186,0.136-0.337,0.322-0.337h6.226c0.326,0,0.377-0.312,0.326-0.491l-9.347-30.703
		c-0.049-0.179,0.039-0.337,0.225-0.334c0,0,1.382,0,1.412,0c0.327,0,0.467,0.268,0.495,0.332c0,0,4.659,15.161,4.66,15.161
		c0.508,1.652,2.259,2.581,3.912,2.074c1.654-0.507,2.583-2.259,2.077-3.912c-0.002-0.006-2.752-8.973-4.64-15.131
		c-0.019-0.075-0.037-0.14-0.052-0.193c-0.716-2.487-2.84-8.149-8.122-8.149H57.02c-4.921,0-7.499,5.662-8.214,8.149
		c-0.015,0.053-4.69,15.318-4.692,15.324c-0.507,1.654,0.422,3.405,2.076,3.912c1.653,0.507,3.404-0.422,3.912-2.074
		c0.002,0,4.645-15.161,4.645-15.161c0.028-0.065,0.167-0.332,0.495-0.332c0.03,0,1.472,0,1.472,0
		c0.186-0.003,0.295,0.156,0.246,0.334L47.626,94.961z"/>
	<path d="M58.52,41.043c-1.003-0.645-2.356-1.283-3.661-1.152c-2.292,0.228-2.783,2.863-2.187,4.68
		c0.097,0.294,0.321,0.739,0.455,1.018c0.813,1.69,1.646,3.631,2.178,3.695c0.529,0.067-1.167-4.009,0.052-5.28
		c0.212-0.222,0.717-0.331,1.026-0.304c0.153,0.012,0.331,0.04,0.529,0.087c0.299,0.074,0.452,0.41,0.385,0.712
		c-0.104,0.467-0.158,0.952-0.158,1.451c0,3.661,2.969,6.629,6.629,6.629c3.661,0,6.629-2.969,6.629-6.629
		c0-0.452-0.047-0.895-0.134-1.323c-0.062-0.302,0.089-0.658,0.381-0.756c0.316-0.106,0.596-0.153,0.818-0.173
		c0.306-0.025,0.811,0.082,1.026,0.304c1.218,1.27-0.479,5.347,0.052,5.28c0.527-0.062,1.36-2.002,2.173-3.693
		c0.134-0.277,0.359-0.724,0.455-1.018c0.596-1.817,0.104-4.452-2.187-4.679c-1.389-0.138-2.835,0.593-3.854,1.278
		c-0.257,0.173-0.623,0.136-0.848-0.074c-1.184-1.102-2.771-1.777-4.516-1.777c-1.678,0-3.211,0.626-4.378,1.654
		C59.153,41.175,58.779,41.211,58.52,41.043z"/>
</g>
</svg>
