<?xml version="1.0" encoding="utf-8"?>
<!-- Generator: Adobe Illustrator 16.0.0, SVG Export Plug-In . SVG Version: 6.00 Build 0)  -->
<!DOCTYPE svg PUBLIC "-//W3C//DTD SVG 1.1//EN" "http://www.w3.org/Graphics/SVG/1.1/DTD/svg11.dtd">
<svg version="1.1" id="Layer_1" xmlns="http://www.w3.org/2000/svg" xmlns:xlink="http://www.w3.org/1999/xlink" x="0px" y="0px"
	 width="50px" height="50px" viewBox="0 0 50 50" enable-background="new 0 0 50 50" xml:space="preserve">
<g>
	<path d="M22.304,20.543c-0.301-0.149-0.587-0.32-0.857-0.515l-5.665,9.428c0.301,0.149,0.587,0.321,0.857,0.515L22.304,20.543z"/>
	<path d="M19.153,34.415c0.014,0.166,0.025,0.331,0.025,0.5s-0.012,0.334-0.025,0.5h11.693c-0.014-0.166-0.025-0.331-0.025-0.5
		s0.012-0.334,0.025-0.5H19.153z"/>
	<path d="M27.696,20.543l5.665,9.428c0.27-0.194,0.557-0.366,0.857-0.515l-5.665-9.428C28.284,20.223,27.997,20.395,27.696,20.543z"
		/>
	<path d="M20.965,16.639l-0.889,0.554l0.872,1.394l0.889-0.555c0.403,0.438,0.885,0.777,1.408,1.008l-0.233,1.018l1.599,0.371
		l0.236-1.02c0.571,0.023,1.153-0.071,1.709-0.288l0.554,0.89l1.393-0.871l-0.557-0.888c0.437-0.405,0.779-0.887,1.009-1.411
		l1.018,0.236l0.37-1.602l-1.017-0.235c0.021-0.572-0.075-1.155-0.29-1.71l0.892-0.553l-0.873-1.394l-0.888,0.555
		c-0.407-0.436-0.885-0.775-1.408-1.009l0.235-1.019l-1.602-0.368l-0.236,1.019c-0.571-0.021-1.154,0.074-1.709,0.288l-0.556-0.89
		l-1.389,0.87l0.555,0.889c-0.437,0.403-0.779,0.885-1.01,1.41l-1.019-0.236l-0.372,1.601l1.019,0.235
		C20.656,15.502,20.75,16.082,20.965,16.639z M23.437,12.583c1.385-0.863,3.204-0.444,4.066,0.939
		c0.864,1.38,0.443,3.202-0.939,4.063c-1.38,0.863-3.199,0.442-4.065-0.939C21.636,15.268,22.058,13.446,23.437,12.583z"/>
	<path d="M17.122,33.359l0.892-0.553l-0.873-1.394l-0.888,0.555c-0.407-0.436-0.885-0.775-1.408-1.009l0.235-1.019l-1.602-0.368
		l-0.236,1.019c-0.571-0.021-1.154,0.074-1.709,0.288l-0.556-0.89l-1.389,0.87l0.555,0.889c-0.437,0.403-0.779,0.885-1.01,1.41
		l-1.019-0.236l-0.372,1.601l1.019,0.235c-0.02,0.574,0.074,1.154,0.289,1.71l-0.889,0.554l0.872,1.394l0.889-0.555
		c0.403,0.438,0.885,0.777,1.408,1.008l-0.233,1.018l1.599,0.371l0.236-1.02c0.571,0.023,1.153-0.071,1.709-0.288l0.554,0.89
		l1.393-0.871l-0.557-0.888c0.437-0.405,0.779-0.887,1.009-1.411l1.018,0.236l0.37-1.602l-1.017-0.235
		C17.433,34.498,17.336,33.915,17.122,33.359z M14.648,37.417c-1.38,0.863-3.199,0.442-4.065-0.939
		c-0.862-1.379-0.441-3.201,0.938-4.063c1.385-0.863,3.204-0.444,4.066,0.939C16.451,34.733,16.03,36.555,14.648,37.417z"/>
	<path d="M41.241,35.07c0.021-0.572-0.075-1.155-0.29-1.71l0.892-0.553l-0.873-1.394l-0.888,0.555
		c-0.407-0.436-0.885-0.775-1.408-1.009l0.235-1.019l-1.602-0.368l-0.236,1.019c-0.571-0.021-1.154,0.074-1.709,0.288l-0.556-0.89
		l-1.389,0.87l0.555,0.889c-0.437,0.403-0.779,0.885-1.01,1.41l-1.019-0.236l-0.372,1.601l1.019,0.235
		c-0.02,0.574,0.074,1.154,0.289,1.71l-0.889,0.554l0.872,1.394l0.889-0.555c0.403,0.438,0.885,0.777,1.408,1.008l-0.233,1.018
		l1.599,0.371l0.236-1.02c0.571,0.023,1.153-0.071,1.709-0.288l0.554,0.89l1.393-0.871l-0.557-0.888
		c0.437-0.405,0.779-0.887,1.009-1.411l1.018,0.236l0.37-1.602L41.241,35.07z M38.479,37.417c-1.38,0.863-3.199,0.442-4.065-0.939
		c-0.862-1.379-0.441-3.201,0.938-4.063c1.385-0.863,3.204-0.444,4.066,0.939C40.281,34.733,39.86,36.555,38.479,37.417z"/>
</g>
</svg>
