<?xml version="1.0" encoding="utf-8"?>
<!-- Generator: Adobe Illustrator 16.0.0, SVG Export Plug-In . SVG Version: 6.00 Build 0)  -->
<!DOCTYPE svg PUBLIC "-//W3C//DTD SVG 1.1//EN" "http://www.w3.org/Graphics/SVG/1.1/DTD/svg11.dtd">
<svg version="1.1" id="Layer_3" xmlns="http://www.w3.org/2000/svg" xmlns:xlink="http://www.w3.org/1999/xlink" x="0px" y="0px"
	 width="126px" height="126px" viewBox="0 0 126 126" enable-background="new 0 0 126 126" xml:space="preserve">
<g>
	<circle cx="48.098" cy="15.013" r="12.523"/>
	<path d="M53.451,92.198c0.01-2.163,1.518-9.766,3.305-18.035c-0.177,0.014-0.355,0.023-0.534,0.025l-0.112,0.001
		c-4.325,0-7.893-3.519-7.953-7.844c-0.26-18.617,5.188-27.784,11.799-33.572c-1.225-0.912-2.492-1.751-3.778-2.542
		c-0.43-0.263-0.886-0.428-1.35-0.545c-1.141-0.639-2.367-1.12-3.611-1.424l-3.119,3.14l-3.025-3.175
		c-0.01,0.003-0.021,0.003-0.031,0.006c-1.595,0.38-3.161,1.056-4.557,1.978c-0.263,0.104-0.523,0.221-0.772,0.372
		c-9.238,5.667-17.48,13.966-15.262,36.134c0.25,2.508,2.364,4.379,4.832,4.379c0.162,0,0.326-0.009,0.49-0.025
		c2.672-0.267,4.621-2.649,4.354-5.322C33.39,58.397,33.92,53.25,35.28,49.436V66.79c0,1.308,0.254,2.528,0.699,3.651
		c-0.035,0.252-0.058,0.507-0.058,0.769l0.003,46.555c0.001,3.173,2.573,5.745,5.747,5.745c3.173-0.001,5.746-2.573,5.745-5.746
		l-0.003-39.953c0.228,0.01,0.455,0.028,0.684,0.028c0.045,0,0.089-0.005,0.134-0.006l-0.001,39.931
		c0,3.174,2.572,5.746,5.745,5.746h0c3.173,0,5.746-2.572,5.746-5.746l0.001-19.2C55.546,97.031,53.438,94.898,53.451,92.198z"/>
	<circle cx="76.468" cy="15.013" r="12.523"/>
	<path d="M84.852,30.583c-0.248-0.151-0.509-0.269-0.771-0.372c-1.396-0.92-2.962-1.597-4.557-1.978
		c-0.01-0.003-0.021-0.003-0.032-0.006l-3.024,3.175l-3.119-3.14c-1.736,0.426-3.433,1.201-4.915,2.259
		c-0.042,0.024-0.087,0.036-0.13,0.062C59.498,35.984,50.928,43.19,51.25,66.302c0.037,2.662,2.207,4.794,4.86,4.794
		c0.023,0,0.046,0,0.069,0c2.685-0.038,4.831-2.245,4.793-4.93c-0.113-8.156,0.95-13.588,2.678-17.434v8.842
		c-1.37,5.934-7.088,30.91-7.105,34.638c-0.009,1.91,3.438,3.546,8.297,4.577l0.001,20.974c0,3.174,2.573,5.746,5.746,5.746
		c3.173,0,5.746-2.572,5.746-5.746l-0.001-19.813c0.272,0.002,0.544,0.002,0.816-0.001l-0.001,19.813
		c0,3.173,2.572,5.745,5.745,5.746h0.001c3.172,0,5.745-2.572,5.745-5.745l0.002-21.316c3.425-1.041,6.021-2.667,6.981-5.01
		c0.032-6.912-5.012-28.321-6.338-33.827v-9.364c1.859,3.871,3.018,9.418,2.899,17.918c-0.038,2.685,2.109,4.892,4.794,4.93
		c0.023,0,0.046,0,0.068,0c2.654,0,4.824-2.133,4.86-4.794C102.228,43.19,93.657,35.984,84.852,30.583z"/>
</g>
</svg>
