<?xml version="1.0" encoding="iso-8859-1"?>
<!-- Generator: Adobe Illustrator 17.1.0, SVG Export Plug-In . SVG Version: 6.00 Build 0)  -->
<!DOCTYPE svg PUBLIC "-//W3C//DTD SVG 1.1//EN" "http://www.w3.org/Graphics/SVG/1.1/DTD/svg11.dtd">
<svg version="1.1" id="Layer_1" xmlns="http://www.w3.org/2000/svg" xmlns:xlink="http://www.w3.org/1999/xlink" x="0px" y="0px"
	 viewBox="0 0 128 128" style="enable-background:new 0 0 128 128;" xml:space="preserve">
<g>
	<path d="M64.193,8.154c-0.287-0.199-0.751-0.218-1.037-0.018l-14.114,9.949c-0.286,0.201-0.438,0.07-0.438-0.279v-6.891
		c0-0.349-0.443-0.534-0.793-0.534h-9.169c-0.349,0-0.491,0.185-0.491,0.534v14.212c0,0.349-0.303,0.795-0.589,0.995L2.942,50.471
		c-0.286,0.201-0.27,0.445,0.079,0.445h15.387c0.349,0,0.624,0.119,0.624,0.468v67.977c0,0.349,0.292,0.644,0.641,0.644h87.896
		c0.349,0,0.692-0.294,0.692-0.644V51.384c0-0.349,0.223-0.468,0.572-0.468h16.125c0.35,0,0.4-0.244,0.113-0.443L64.193,8.154z
		 M86.642,48.002c2.63,0,4.762,2.132,4.762,4.761c0,2.63-2.132,4.761-4.762,4.761c-2.63,0-4.761-2.132-4.761-4.761
		C81.88,50.134,84.012,48.002,86.642,48.002z M63.997,76.043c1.906,0,3.452,1.545,3.452,3.452s-1.545,3.452-3.452,3.452
		c-1.906,0-3.452-1.545-3.452-3.452S62.091,76.043,63.997,76.043z M41.103,48.002c2.63,0,4.762,2.132,4.762,4.761
		c0,2.63-2.132,4.761-4.762,4.761s-4.761-2.132-4.761-4.761C36.341,50.134,38.473,48.002,41.103,48.002z M99.812,82.205
		c0,1.37-1.111,2.481-2.481,2.481c-1.37,0-2.48-1.11-2.481-2.479c-0.001,0-0.003-15.152-0.003-15.152
		c0-0.142-0.115-0.258-0.258-0.258h-0.526c-0.142,0-0.258,0.115-0.258,0.258c0,0,0,42.506,0,42.51c0,1.767-1.433,3.2-3.2,3.2
		c-1.767,0-3.2-1.432-3.2-3.2c0-0.005,0-25.013,0-25.013c0-0.182-0.084-0.259-0.264-0.259h-0.516c-0.18,0-0.264,0.076-0.264,0.259
		c0,0,0,25.008,0,25.013c0,1.767-1.433,3.2-3.2,3.2c-1.767,0-3.2-1.432-3.2-3.2c0-0.005,0-42.51,0-42.51
		c0-0.142-0.115-0.258-0.258-0.258h-0.526c-0.142,0-0.258,0.115-0.258,0.258c0,0-2.158,12.87-2.159,12.87
		c-0.02,0.102-0.03,0.146-0.034,0.147c-0.053,0.245-0.142,0.481-0.266,0.701c-0.012,0.021-0.177,0.317-0.445,0.796
		c-1.338,2.395-5.234,9.37-5.234,9.37c-0.069,0.125-0.125,0.483-0.125,0.483s-0.009,18.404-0.025,18.546
		c-0.162,1.454-1.479,2.797-3.081,2.797c-1.697,0-2.93-1.414-2.954-2.962l-0.003-7.843c0-0.142-0.115-0.258-0.258-0.258h-0.387
		c-0.142,0-0.258,0.115-0.258,0.258l-0.001,7.803c-0.025,1.548-1.554,3.003-3.251,3.003s-3.045-1.463-3.07-3.011V91.12
		c0-0.142-0.058-0.358-0.129-0.481l-5.608-9.705c-0.129-0.196-0.234-0.41-0.308-0.638c-0.047-0.178-0.088-0.372-0.096-0.44
		c-0.334-1.983-2.15-12.8-2.15-12.8c0-0.142-0.115-0.258-0.258-0.258h-0.526c-0.142,0-0.258,0.115-0.258,0.258c0,0,0,42.506,0,42.51
		c0,1.767-1.433,3.2-3.2,3.2s-3.2-1.432-3.2-3.2c0-0.005,0-25.013,0-25.013c0-0.182-0.085-0.259-0.264-0.259h-0.516
		c-0.18,0-0.264,0.076-0.264,0.259c0,0,0,25.008,0,25.013c0,1.767-1.433,3.2-3.2,3.2c-1.767,0-3.2-1.432-3.2-3.2
		c0-0.005,0-42.51,0-42.51c0-0.142-0.115-0.258-0.258-0.258H33.41c-0.142,0-0.258,0.115-0.258,0.258c0,0-0.002,15.151-0.003,15.152
		c-0.001,1.37-1.112,2.479-2.481,2.479c-1.37,0-2.481-1.111-2.481-2.481c0-0.008,0-17.036,0-17.239c0-3.396,2.612-6.008,5.877-6.008
		c0.083,0,4.472,0,6.53,0c0,0,7.492,0,7.575,0c3.265,0,5.438,2.562,5.877,6.008c0.021,0.161,1.416,9.834,1.971,13.64
		c0.637,1.116,3.213,5.63,3.213,5.63c0.071,0.124,0.244,0.224,0.386,0.224h8.693c0.305,0,0.468-0.098,0.612-0.347l3.078-5.549
		c0.533-3.656,1.938-13.435,1.958-13.599c0.413-3.494,2.612-6.008,5.877-6.008c0.083,0,7.575,0,7.575,0c2.058,0,6.447,0,6.53,0
		c3.265,0,5.877,2.612,5.877,6.008C99.812,65.169,99.812,82.197,99.812,82.205z"/>
</g>
</svg>
