<?xml version="1.0" encoding="utf-8"?>
<!-- Generator: Adobe Illustrator 16.0.0, SVG Export Plug-In . SVG Version: 6.00 Build 0)  -->
<!DOCTYPE svg PUBLIC "-//W3C//DTD SVG 1.1//EN" "http://www.w3.org/Graphics/SVG/1.1/DTD/svg11.dtd">
<svg version="1.1" id="Layer_3" xmlns="http://www.w3.org/2000/svg" xmlns:xlink="http://www.w3.org/1999/xlink" x="0px" y="0px"
	 width="126px" height="126px" viewBox="0 0 126 126" enable-background="new 0 0 126 126" xml:space="preserve">
<g>
	<path d="M9.873,70.688c1.542,1.583,3.716,2.334,6.519,2.253c1.957-0.056,3.701-0.447,5.23-1.179l-0.121-4.246
		c-0.77,0.347-1.538,0.644-2.302,0.896c-0.764,0.249-1.557,0.386-2.378,0.41c-2.05,0.059-3.354-0.92-3.918-2.935
		c0.051,0.002,0.104,0.009,0.155,0.009c1.917,0,3.553-1.444,3.771-3.391c0.196-1.759-0.85-3.37-2.431-3.979
		c0.514-0.359,1.122-0.554,1.831-0.574c0.787-0.021,1.527,0.065,2.22,0.268c0.693,0.2,1.387,0.45,2.083,0.755l1.423-3.998
		c-1.854-0.82-3.786-1.202-5.792-1.144c-1.839,0.053-3.427,0.49-4.764,1.314c-0.735,0.451-1.36,1.012-1.897,1.662
		c-0.237-0.16-0.467-0.33-0.681-0.52c0.481-0.714,1.396-1.683,2.569-2.756c1.356-0.657,2.892-1.039,4.61-1.087
		c2.208-0.061,4.355,0.359,6.394,1.261l1.067,0.473c1.423-1.144,3.237-1.838,5.421-2.074l0.007-0.873
		c1.366,0.784,2.433,1.565,2.984,2.22c-0.51-0.043-1.036-0.067-1.595-0.051c-2.948,0.084-5.172,0.963-6.671,2.641
		c-1.5,1.676-2.204,4.057-2.115,7.15c0.089,3.126,0.936,5.483,2.537,7.075c1.601,1.59,3.859,2.343,6.773,2.258
		c2.957-0.083,5.177-0.96,6.665-2.632c1.487-1.672,2.185-4.067,2.095-7.195c-0.07-2.416-0.584-4.363-1.534-5.853
		c1.285-0.782,2.038-2.286,1.785-3.863c-1.179-7.329-12.769-11.215-16.32-12.24c-0.441-0.18-0.888-0.328-1.331-0.44l-0.029-0.005
		c0,0-1.171-0.254-2.223-0.287c-1.1-0.033-2.137,0.267-2.137,0.267c-1.054,0.248-2.136,0.695-3.121,1.315
		c-0.202,0.086-0.401,0.183-0.593,0.306c-3.616,2.348-12.128,8.377-13.074,13.648c-0.295,1.648,0.067,3.261,1.019,4.54
		c1.558,2.095,3.589,3.436,5.463,4.298C7.653,67.117,8.449,69.225,9.873,70.688z M33.223,58.767c0.648,0.867,0.998,2.23,1.053,4.085
		c0.052,1.846-0.215,3.215-0.805,4.105c-0.589,0.89-1.52,1.354-2.79,1.391c-2.5,0.071-3.8-1.688-3.903-5.28
		c-0.104-3.628,1.103-5.477,3.618-5.548C31.632,57.483,32.576,57.899,33.223,58.767z"/>
	<path d="M55.181,52.979l-3.42,13.3l-0.102,0.003l-4.256-13.078l-6.684,0.191l0.534,18.579l4.449-0.128l-0.232-8.071
		c-0.036-1.262-0.176-3.028-0.419-5.304l0.114-0.004l4.184,13.274l4.779-0.137L57.49,58.14l0.115-0.002
		c-0.044,2.018-0.064,3.287-0.063,3.805c0.003,0.517,0.01,0.986,0.022,1.41l0.235,8.144l4.612-0.129l-0.534-18.579L55.181,52.979z"
		/>
	<path d="M70.378,52.543l-6.43,0.185l0.534,18.578l5.02-0.144l-0.177-6.163l1.41-0.042c2.253-0.063,3.976-0.68,5.167-1.844
		c1.192-1.168,1.758-2.789,1.699-4.865c-0.055-1.887-0.685-3.328-1.893-4.32C74.502,52.938,72.725,52.475,70.378,52.543z
		 M71.902,60.193c-0.433,0.437-1.026,0.664-1.781,0.687l-0.915,0.028l-0.122-4.271l1.295-0.035c1.389-0.041,2.102,0.565,2.138,1.819
		C72.54,59.164,72.333,59.757,71.902,60.193z"/>
	<path d="M114.373,86.508c-0.064-3.69,0.668-14.428,0.676-14.537c0.015-0.226,0.008-0.448-0.01-0.669
		c0.006-0.021,0.009-0.044,0.014-0.065l-10.544,0.302l-2.772,0.079l-5.935,0.173c-2.574,3.344-5.997,8.292-7.085,12.238
		c-1.546,5.602-3.154,16.316-3.222,16.77c-0.368,2.461,1.33,4.755,3.791,5.122c0.226,0.033,0.449,0.05,0.671,0.05
		c2.194,0,4.116-1.604,4.45-3.841c0.017-0.104,1.595-10.628,2.996-15.704c0.672-2.434,3.494-6.538,5.994-9.724
		c0.755,0.218,1.532,0.354,2.307,0.398c-0.19,3.385-0.377,7.41-0.339,9.564c0.079,4.563,4.731,13.4,6.727,16.99
		c0.824,1.48,2.358,2.315,3.941,2.315c0.741,0,1.492-0.184,2.186-0.569c2.175-1.209,2.957-3.951,1.749-6.127
		C117.063,94.053,114.449,88.082,114.373,86.508z"/>
	<circle cx="106.208" cy="29.85" r="9.819"/>
	<path d="M37.283,84.028c-0.882-3.197-3.298-7.054-5.553-10.183c-0.331,0.03-0.664,0.056-1.011,0.065
		c-0.159,0.004-0.317,0.006-0.473,0.006c-3.073,0-5.535-0.896-7.317-2.666c-0.021-0.02-0.038-0.045-0.059-0.065l0.042,1.438
		l-0.814,0.39c-1.696,0.81-3.643,1.252-5.788,1.313c-0.15,0.005-0.299,0.007-0.446,0.007c-1.839,0-3.451-0.345-4.824-1.023
		c0.237,3.669,0.633,10.51,0.587,13.188c-0.077,1.584-2.691,7.555-5.594,12.775c-1.208,2.176-0.426,4.918,1.749,6.127
		c0.693,0.386,1.445,0.569,2.186,0.569c1.583,0,3.117-0.835,3.941-2.315c1.996-3.59,6.648-12.428,6.727-16.99
		c0.038-2.154-0.149-6.18-0.339-9.564c0.775-0.044,1.552-0.181,2.307-0.398c2.5,3.186,5.322,7.29,5.994,9.724
		c1.401,5.076,2.979,15.6,2.996,15.704c0.333,2.237,2.256,3.841,4.45,3.841c0.222,0,0.446-0.017,0.671-0.05
		c2.461-0.367,4.158-2.661,3.791-5.122C40.437,100.345,38.829,89.63,37.283,84.028z"/>
	<circle cx="19.792" cy="29.85" r="9.819"/>
	<path d="M125.014,55.547c-0.945-5.271-9.458-11.301-13.073-13.648c-0.191-0.123-0.39-0.22-0.592-0.305
		c-0.985-0.621-2.067-1.068-3.122-1.316c0,0-1.037-0.3-2.137-0.267c-1.051,0.033-2.223,0.287-2.223,0.287l-0.029,0.005
		c-0.341,0.086-0.684,0.198-1.025,0.324c-0.185,0.025-0.369,0.059-0.552,0.112c-3.387,0.975-14.2,4.588-16.131,11.353L78.46,52.31
		l0.533,18.58l11.031-0.317l-0.118-4.092l-6.011,0.173l-0.101-3.509l5.565-0.158l-0.116-4.028l-5.565,0.157l-0.084-2.921
		l3.227-0.092c0.565,0.645,1.348,1.104,2.26,1.25c0.205,0.034,0.409,0.049,0.61,0.049c1.158,0,2.228-0.53,2.938-1.391l2.367-0.067
		l0.416,14.475l5.02-0.146l-0.416-14.472l4.522-0.132l-0.117-4.104l-8.532,0.245c0.74-0.482,1.613-0.979,2.599-1.467l7.157-0.206
		v0.001l4.621-0.131c0.002,0,0.003,0.002,0.005,0.002l7.675-0.023v5.417l-0.716,0.963c-0.198,0.238-0.361,0.417-0.49,0.553
		c-0.61,0.116-1.203,0.382-1.717,0.805c-0.188,0.155-0.353,0.327-0.503,0.508l-3.857,0.112l-0.083-2.924l6.01-0.172l-0.116-4.029
		l-11.031,0.318l0.533,18.576l11.032-0.315l-0.118-4.093l-6.01,0.173l-0.101-3.507l3.227-0.094c0.133,0.283,0.291,0.561,0.5,0.813
		c0.776,0.942,1.938,1.477,3.203,1.477c0.037,0,0.074,0,0.11,0c2.554-0.064,4.556-2.301,6.178-4.479
		C124.947,58.808,125.31,57.195,125.014,55.547z"/>
	<polygon points="42.586,40.462 32.192,40.557 42.413,42.454 	"/>
	<polygon points="35.214,31.905 33.717,37.669 37.039,32.726 	"/>
	<polygon points="94.074,40.057 83.68,39.962 83.854,41.954 	"/>
	<polygon points="91.052,31.405 89.228,32.226 92.549,37.169 	"/>
</g>
</svg>
