<?xml version="1.0" encoding="utf-8"?>
<!-- Generator: Adobe Illustrator 17.0.0, SVG Export Plug-In . SVG Version: 6.00 Build 0)  -->
<!DOCTYPE svg PUBLIC "-//W3C//DTD SVG 1.1//EN" "http://www.w3.org/Graphics/SVG/1.1/DTD/svg11.dtd">
<svg version="1.1" id="Capa_1" xmlns="http://www.w3.org/2000/svg" xmlns:xlink="http://www.w3.org/1999/xlink" x="0px" y="0px"
	 width="64px" height="64px" viewBox="0 0 64 64" enable-background="new 0 0 64 64" xml:space="preserve">
<path fill="#0E0F0F" d="M59.712,30.342c0.875,0.97,0.796,2.466-0.175,3.34c-0.451,0.407-1.018,0.607-1.582,0.607
	c-0.648,0-1.292-0.263-1.759-0.781l-1.749-1.944c-0.536,1.138-1.072,2.274-1.606,3.411c1.619,1.417,3.117,3.122,4.114,5.034
	c0.848,1.626,2.269,4.054,1.21,5.862c-2.001,3.413-6.358,3.275-9.642,4.354c-3.552,1.169-5.061-4.417-1.537-5.575
	c1.612-0.53,3.609-0.554,5.188-1.261c-0.846-1.723-2.077-3.173-3.576-4.464c-2.75,5.441-6.818,9.989-12.427,12.786
	c-1.149,0.574-2.251,0.351-3.064-0.253v3.894h-14.73v-4.134h14.447c-1.303-1.223-1.608-3.482,0.433-4.5
	c5.342-2.664,9.12-7.142,11.264-12.689c0.19-0.49,0.468-0.877,0.797-1.174c0.077-0.302,0.18-0.6,0.317-0.89
	c1.022-2.175,2.047-4.35,3.072-6.526c0.033-0.072,0.074-0.137,0.112-0.205c-2.533-3.58-4.075-8.136-4.471-13.272
	c-0.1-1.303,0.874-2.441,2.176-2.541c1.303-0.106,2.439,0.874,2.541,2.175c0.253,3.266,1.187,7.947,4.208,11.698
	c0.122,0.151,0.214,0.314,0.293,0.482c0.169,0.066,0.334,0.139,0.489,0.228c0.959,0.554,1.537,1.383,1.773,2.311
	c0.286,0.13,0.548,0.318,0.772,0.565h0L59.712,30.342z M62.316,17.444h-1.808c-0.51-1.476-1.908-2.537-3.555-2.537
	c-2.08,0-3.766,1.685-3.766,3.764c0.001,2.078,1.687,3.764,3.767,3.764c2.068,0,3.747-1.672,3.763-3.74l1.738-0.417L62.316,17.444z
	 M25.867,33.242c2.446,2.814,6.622,3.463,10.13,3.256c3.706-0.218,3.729-6.001,0-5.782c-1.958,0.116-4.218,0.116-5.765-1.28
	c-1.007-0.909-1.351-2.232-1.422-3.581c0.386-1.05,0.408-2.247,0.062-3.306c-0.086-0.489-0.298-0.887-0.595-1.192
	c-0.706-0.993-1.853-1.681-3.449-1.681c-3.1,0-6.199,0-9.299,0c-1.971,0-3.273,1.043-3.907,2.416
	c-0.515,0.466-0.857,1.149-0.857,2.053c0,3.154,0,6.309,0,9.463c0,3.729,5.782,3.729,5.782,0c0-1.665,0-3.329,0-4.993
	c2.305-0.001,4.608-0.001,6.912-0.001C23.887,30.284,24.659,31.851,25.867,33.242z M5.697,20.199C3.655,20.199,2,21.854,2,23.896
	c0,0.955,0.365,1.822,0.96,2.478l0.709,2.958l0.835-0.139v-1.8c0.375,0.127,0.775,0.2,1.193,0.2c2.042,0,3.697-1.655,3.697-3.696
	C9.394,21.854,7.74,20.199,5.697,20.199z"/>
</svg>
