<?xml version="1.0" encoding="utf-8"?>
<!-- Generator: Adobe Illustrator 16.0.0, SVG Export Plug-In . SVG Version: 6.00 Build 0)  -->
<!DOCTYPE svg PUBLIC "-//W3C//DTD SVG 1.1//EN" "http://www.w3.org/Graphics/SVG/1.1/DTD/svg11.dtd">
<svg version="1.1" id="Layer_2" xmlns="http://www.w3.org/2000/svg" xmlns:xlink="http://www.w3.org/1999/xlink" x="0px" y="0px"
	 width="126px" height="126px" viewBox="0 0 126 126" enable-background="new 0 0 126 126" xml:space="preserve">
<g>
	<path d="M35.227,105.427c-0.376,0.09-0.674,0.223-0.878,0.406c-0.25,0.219-0.367,0.473-0.367,0.798
		c-0.002,0.348,0.098,0.624,0.306,0.85c0.184,0.191,0.493,0.393,0.93,0.595L35.227,105.427z"/>
	<path d="M38.567,113.342c0-0.339-0.113-0.613-0.353-0.839c-0.209-0.198-0.552-0.394-1.017-0.599l-0.011,2.759
		C38.562,114.353,38.565,113.604,38.567,113.342z"/>
	<path d="M31.118,63.571l9.503-1.584L40.568,9.171l8.195,8.193l2.893-2.892L38.585,1.399L25.511,14.471l2.894,2.893l8.073-8.071
		l0.048,49.229l-16.683,2.779l24.057,15.158L24.988,92.584l4.782,5.348c-4.555,2.342-7.677,7.078-7.677,12.551
		c0,7.797,6.319,14.117,14.117,14.117c7.796,0,14.116-6.32,14.116-14.117c0-7.795-6.32-14.115-14.116-14.115
		c-0.744,0-1.471,0.076-2.184,0.186l-3.196-3.573l19.957-17.018L31.118,63.571z M34.473,110.908
		c-1.231-0.479-2.143-1.058-2.716-1.727c-0.588-0.686-0.884-1.534-0.881-2.536c0.004-1.089,0.432-1.991,1.278-2.685
		c0.771-0.633,1.809-1.036,3.081-1.199l0.006-1.854l1.994,0.005l-0.004,1.813c1.403,0.082,2.753,0.385,4.022,0.91l0.246,0.106
		l-1.004,2.496l-0.252-0.106c-1.008-0.4-2.024-0.657-3.023-0.776l-0.012,3.49l0.65,0.249c1.437,0.557,2.407,1.135,2.966,1.763
		c0.573,0.64,0.859,1.423,0.856,2.336c-0.001,1.129-0.425,2.077-1.251,2.805c-0.771,0.676-1.862,1.104-3.25,1.286l-0.009,2.397
		l-1.994-0.006l0.01-2.302c-1.71-0.061-3.146-0.351-4.269-0.868l-0.159-0.066l0.01-2.914l0.391,0.193
		c0.604,0.298,1.319,0.551,2.132,0.758c0.694,0.174,1.337,0.277,1.905,0.308l0.013-3.599L34.473,110.908z"/>
	<path d="M90.871,35.802c-0.155-0.096-0.318-0.157-0.479-0.232c-1.306-0.857-2.77-1.488-4.259-1.854l-2.97,2.99l-2.879-3.023
		c-0.011,0.003-0.021,0.003-0.03,0.005c-1.429,0.343-2.831,0.934-4.098,1.732c-0.316,0.096-0.628,0.221-0.928,0.39
		c-1.847,1.038-3.602,1.241-5.524,0.642c-6.366-1.984-12.297-11.699-14.043-15.27c-1.117-2.3-3.886-3.258-6.187-2.142
		c-2.3,1.117-3.258,3.887-2.142,6.187c0.817,1.681,8.302,16.521,19.595,20.056c1.34,0.419,2.688,0.653,4.033,0.724v24.395
		c0,1.26,0.248,2.433,0.68,3.511c-0.029,0.233-0.07,0.462-0.07,0.704l0.045,44.328c0.003,3.019,2.453,5.465,5.472,5.465
		c0.001,0,0.003,0,0.005,0c3.021-0.002,5.468-2.455,5.465-5.477l-0.038-38.037c0.215,0.01,0.429,0.027,0.645,0.027
		c0.044,0,0.089-0.005,0.134-0.005l0.035,38.026c0.002,3.02,2.452,5.466,5.471,5.466c0.002,0,0.003,0,0.005,0
		c3.021-0.002,5.469-2.455,5.466-5.476l-0.039-43.481c0.287,0.274,0.6,0.526,0.966,0.726c0.702,0.382,1.46,0.563,2.208,0.563
		c1.641,0,3.231-0.874,4.071-2.417C114.539,50.318,96.725,39.392,90.871,35.802z M83.191,60.306h-0.056l-2.875-3.936l2.875-19.221
		h0.056l2.874,19.221L83.191,60.306z M95.367,65.555V52.318C97.135,55.662,97.53,59.896,95.367,65.555z"/>
	<circle cx="83.162" cy="21.101" r="11.924"/>
</g>
</svg>
