<?xml version="1.0" encoding="utf-8"?>
<!-- Generator: Adobe Illustrator 16.0.0, SVG Export Plug-In . SVG Version: 6.00 Build 0)  -->
<!DOCTYPE svg PUBLIC "-//W3C//DTD SVG 1.1//EN" "http://www.w3.org/Graphics/SVG/1.1/DTD/svg11.dtd">
<svg version="1.1" id="Layer_11" xmlns="http://www.w3.org/2000/svg" xmlns:xlink="http://www.w3.org/1999/xlink" x="0px" y="0px"
	 width="100px" height="100px" viewBox="0 0 100 100" enable-background="new 0 0 100 100" xml:space="preserve">
<path d="M30.023,20.763c0-6.27,5.083-11.353,11.354-11.353c6.27,0,11.353,5.083,11.353,11.353c0,6.27-5.083,11.353-11.353,11.353
	C35.106,32.116,30.023,27.033,30.023,20.763z M46.833,39.851c0.114-2.472,0.965-4.76,2.334-6.652
	c-0.961-0.201-1.954-0.308-2.973-0.308h-9.633c-1.016,0-2.008,0.106-2.964,0.305c1.457,2.021,2.329,4.489,2.343,7.161
	c1.771-0.974,3.803-1.529,5.962-1.529C43.653,38.828,45.32,39.193,46.833,39.851z M48.755,40.87c3.298,2.068,5.61,5.566,6.033,9.628
	c1.344,0.628,2.837,0.99,4.419,0.99c5.778,0,10.46-4.683,10.46-10.46c0-5.778-4.682-10.46-10.46-10.46
	C53.483,30.568,48.842,35.167,48.755,40.87z M41.902,62.288c5.776,0,10.46-4.684,10.46-10.46s-4.684-10.46-10.46-10.46
	c-5.777,0-10.462,4.684-10.462,10.46S36.125,62.288,41.902,62.288z M46.339,63h-8.875c-7.385,0-13.394,6.009-13.394,13.394V87.25
	l0.028,0.17l0.747,0.233c7.048,2.201,13.171,2.937,18.211,2.937c9.843,0,15.549-2.807,15.901-2.986l0.699-0.354h0.074V76.394
	C59.731,69.009,53.724,63,46.339,63z M63.646,52.202h-8.808c-0.096,3.524-1.599,6.698-3.978,8.979
	c6.564,1.953,11.366,8.04,11.366,15.23v3.345c8.696-0.32,13.708-2.784,14.038-2.95l0.699-0.355h0.074V65.594
	C77.038,58.21,71.03,52.202,63.646,52.202z M66.001,30.345c3.298,2.068,5.61,5.566,6.032,9.628c1.344,0.628,2.837,0.99,4.419,0.99
	c5.779,0,10.461-4.683,10.461-10.459c0-5.778-4.682-10.46-10.461-10.46C70.729,20.043,66.088,24.643,66.001,30.345z M80.891,41.677
	h-8.807c-0.096,3.524-1.6,6.698-3.978,8.979c6.564,1.952,11.366,8.04,11.366,15.23v3.345c8.695-0.32,13.708-2.783,14.038-2.95
	l0.698-0.354h0.075V55.069C94.284,47.685,88.276,41.677,80.891,41.677z M23.548,51.488c2.046,0,3.949-0.598,5.563-1.615
	c0.513-3.344,2.306-6.267,4.866-8.257c0.011-0.196,0.029-0.39,0.029-0.588c0-5.778-4.684-10.46-10.458-10.46
	c-5.779,0-10.461,4.682-10.461,10.46C13.087,46.806,17.769,51.488,23.548,51.488z M32.942,61.181
	c-2.368-2.27-3.867-5.426-3.977-8.93c-0.326-0.024-0.649-0.049-0.982-0.049h-8.874c-7.386,0-13.394,6.008-13.394,13.393v10.856
	l0.027,0.169l0.748,0.234c5.653,1.767,10.7,2.579,15.083,2.834v-3.278C21.574,69.221,26.376,63.133,32.942,61.181z"/>
</svg>
