<?xml version="1.0" encoding="utf-8"?>
<!-- Generator: Adobe Illustrator 16.0.0, SVG Export Plug-In . SVG Version: 6.00 Build 0)  -->
<!DOCTYPE svg PUBLIC "-//W3C//DTD SVG 1.1//EN" "http://www.w3.org/Graphics/SVG/1.1/DTD/svg11.dtd">
<svg version="1.1" id="Layer_11" xmlns="http://www.w3.org/2000/svg" xmlns:xlink="http://www.w3.org/1999/xlink" x="0px" y="0px"
	 width="100px" height="100px" viewBox="0 0 100 100" enable-background="new 0 0 100 100" xml:space="preserve">
<path d="M89.241,69.73v16.011l-0.109-0.001L88.1,86.264c-0.52,0.263-8.933,4.402-23.448,4.402c-7.431,0-16.461-1.085-26.852-4.33
	l-1.104-0.346l-0.042-0.249V69.73c0-10.889,8.86-19.748,19.75-19.748h13.087C80.382,49.982,89.241,58.842,89.241,69.73z
	 M37.246,58.541c-10.039-3.352-17.009-9.146-19.688-16.351c-4.389-3.632-6.799-8.45-6.799-13.615
	c0-10.609,10.403-19.241,23.19-19.241c9.246,0,17.242,4.515,20.963,11.024c2.343-1.435,5.088-2.277,8.036-2.277
	c8.519,0,15.424,6.906,15.424,15.425s-6.906,15.425-15.424,15.425c-5.27,0-9.917-2.646-12.699-6.679
	c-2.829,2.325-6.386,4.071-10.441,4.945c-1.065,0.229-2.167,0.396-3.295,0.496c0.583,2.276,1.482,5.193,2.726,8.843
	c0.193,0.567,0.048,1.196-0.375,1.621c-0.301,0.303-0.706,0.466-1.119,0.466C37.578,58.623,37.41,58.596,37.246,58.541z
	 M35.209,54.415c-1.06-3.281-1.785-5.872-2.205-7.867c-0.097-0.459,0.016-0.938,0.308-1.306c0.292-0.367,0.731-0.586,1.201-0.597
	c1.601-0.036,3.159-0.215,4.631-0.532c3.775-0.813,7.055-2.472,9.567-4.675c-0.762-1.827-1.187-3.829-1.187-5.933
	c0-4.427,1.875-8.407,4.862-11.22c-3.056-5.753-10.168-9.797-18.437-9.797c-11.047,0-20.035,7.217-20.035,16.086
	c0,4.32,2.117,8.38,5.96,11.432c0.235,0.187,0.413,0.437,0.511,0.721C22.363,46.454,27.576,51.242,35.209,54.415z"/>
</svg>
