<?xml version="1.0" encoding="utf-8"?>
<!-- Generator: Adobe Illustrator 16.0.0, SVG Export Plug-In . SVG Version: 6.00 Build 0)  -->
<!DOCTYPE svg PUBLIC "-//W3C//DTD SVG 1.1//EN" "http://www.w3.org/Graphics/SVG/1.1/DTD/svg11.dtd">
<svg version="1.1" id="Layer_11" xmlns="http://www.w3.org/2000/svg" xmlns:xlink="http://www.w3.org/1999/xlink" x="0px" y="0px"
	 width="100px" height="100px" viewBox="0 0 100 100" enable-background="new 0 0 100 100" xml:space="preserve">
<path d="M10.849,30.921c0-6.16,4.994-11.153,11.153-11.153s11.153,4.994,11.153,11.153c0,6.159-4.994,11.152-11.153,11.152
	S10.849,37.08,10.849,30.921z M77.443,42.073c6.159,0,11.153-4.993,11.153-11.152c0-6.16-4.994-11.153-11.153-11.153
	S66.29,24.762,66.29,30.921C66.29,37.08,71.284,42.073,77.443,42.073z M96.454,54.698v11.577l-0.08-0.001l-0.747,0.379
	c-0.363,0.185-6.097,2.99-15.997,3.166C74.664,76.532,63.4,81.232,50.324,81.232c-13.096,0-24.375-4.714-29.33-11.444
	c-2.17-0.088-4.504-0.305-6.993-0.693l-3.059-0.559c-2.266-0.462-4.636-1.054-7.123-1.831l-0.799-0.25l-0.03-0.18V54.698
	c0-6.613,4.528-12.176,10.642-13.791c2.196,2.049,5.134,3.314,8.369,3.314c3.235,0,6.172-1.265,8.369-3.314
	c2.551,0.674,4.807,2.053,6.588,3.892c4.071-1.12,8.596-1.75,13.365-1.75c4.392,0,8.58,0.531,12.394,1.489
	c1.746-1.712,3.921-2.988,6.355-3.631c2.197,2.049,5.134,3.314,8.369,3.314c3.235,0,6.173-1.265,8.369-3.314
	c4.754,1.256,8.538,4.903,9.99,9.571l0.595,2.962C96.434,53.854,96.454,54.274,96.454,54.698z M76.704,69.796
	c-2.247-0.081-4.668-0.298-7.261-0.702l-3.059-0.559c-2.266-0.462-4.636-1.054-7.124-1.831l-0.798-0.25l-0.03-0.18V54.698
	c0-3.043,0.968-5.856,2.598-8.172c-3.323-0.728-6.931-1.132-10.705-1.132c-4.18,0-8.157,0.492-11.767,1.376
	c0.765,1.135,1.388,2.373,1.804,3.708l0.595,2.962c0.037,0.415,0.057,0.835,0.057,1.258v11.577l-0.08-0.001l-0.747,0.379
	c-0.367,0.186-6.182,3.033-16.217,3.169c4.942,5.379,14.897,9.066,26.355,9.066C61.8,78.888,71.768,75.189,76.704,69.796z"/>
</svg>
