<?xml version="1.0" encoding="utf-8"?>
<!-- Generator: Adobe Illustrator 16.0.0, SVG Export Plug-In . SVG Version: 6.00 Build 0)  -->
<!DOCTYPE svg PUBLIC "-//W3C//DTD SVG 1.1//EN" "http://www.w3.org/Graphics/SVG/1.1/DTD/svg11.dtd">
<svg version="1.1" id="Layer_11" xmlns="http://www.w3.org/2000/svg" xmlns:xlink="http://www.w3.org/1999/xlink" x="0px" y="0px"
	 width="100px" height="100px" viewBox="0 0 100 100" enable-background="new 0 0 100 100" xml:space="preserve">
<path d="M44.616,27.808c0-9.06,7.345-16.404,16.404-16.404s16.404,7.344,16.404,16.404c0,9.059-7.345,16.403-16.404,16.403
	S44.616,36.867,44.616,27.808z M67.979,45.33H54.06c-5.707,0-10.884,2.295-14.673,6.003h21.866v33.619H50.812
	c2.728,0.568,2.727,1.338,2.727,2.135c0,0.297-0.001,0.631-0.257,0.966c3.411,0.381,6.599,0.543,9.549,0.543
	c15.436,0,24.383-4.402,24.936-4.682l1.097-0.557l0.116,0.001V66.332C88.981,54.752,79.559,45.33,67.979,45.33z M51.245,87.08
	c0,0.833-6.873,1.509-15.353,1.509c-8.481,0-15.354-0.676-15.354-1.509c0-0.599,3.546-1.112,8.678-1.355v-2.28H11.019V52.826h47.939
	v30.619H40.762v2.207C46.853,85.851,51.245,86.414,51.245,87.08z M55.809,80.82V55.188H14.167V80.82H55.809z M22.5,78.75h2.75v-15
	H22.5V78.75z M26.625,78.75h2.75V66.963h-2.75V78.75z M30.625,78.75h2.75V59.5h-2.75V78.75z M43.114,78.75h2.75v-15h-2.75V78.75z
	 M38.989,78.75h2.75V66.963h-2.75V78.75z M34.989,78.75h2.75V61.625h-2.75V78.75z"/>
</svg>
