<?xml version="1.0" encoding="utf-8"?>
<!-- Generator: Adobe Illustrator 16.0.0, SVG Export Plug-In . SVG Version: 6.00 Build 0)  -->
<!DOCTYPE svg PUBLIC "-//W3C//DTD SVG 1.1//EN" "http://www.w3.org/Graphics/SVG/1.1/DTD/svg11.dtd">
<svg version="1.1" id="Layer_11" xmlns="http://www.w3.org/2000/svg" xmlns:xlink="http://www.w3.org/1999/xlink" x="0px" y="0px"
	 width="100px" height="100px" viewBox="0 0 100 100" enable-background="new 0 0 100 100" xml:space="preserve">
<path d="M30.823,26.671c0-10.591,8.586-19.178,19.178-19.178c10.591,0,19.178,8.587,19.178,19.178
	c0,10.592-8.587,19.178-19.178,19.178C39.409,45.849,30.823,37.263,30.823,26.671z M68.546,47h4.475
	c-2.579-1.97-5.554-3.448-8.788-4.279c-3.852,3.425-8.903,5.523-14.449,5.523c-5.498,0-10.515-2.063-14.353-5.437
	c-10.424,2.839-18.121,12.36-18.121,23.67v19.906l0.052,0.311l1.372,0.429c12.92,4.035,24.146,5.384,33.386,5.384
	c4.622,0,8.742-0.339,12.332-0.847c-0.007-0.093-0.028-0.182-0.028-0.277V51.124C64.423,48.85,66.272,47,68.546,47z M87.9,65.684
	v15.312h0.312v3.653H87.9v6.292c0,0.62-0.503,1.124-1.124,1.124h-18.73c-0.62,0-1.123-0.504-1.123-1.124V50.681
	c0-0.62,0.503-1.124,1.123-1.124h18.73c0.62,0,1.124,0.504,1.124,1.124v3.343h0.312v11.659H87.9z M74.979,51.391h4.39v-0.562h-4.39
	V51.391z M73.777,86.401h-4.636V89h4.636V86.401z M73.777,82.749h-4.636v2.599h4.636V82.749z M73.777,78.815h-4.636v2.599h4.636
	V78.815z M73.777,74.741h-4.636v2.599h4.636V74.741z M79.768,86.401h-4.635V89h4.635V86.401z M79.768,82.749h-4.635v2.599h4.635
	V82.749z M79.768,78.815h-4.635v2.599h4.635V78.815z M79.768,74.741h-4.635v2.599h4.635V74.741z M84.45,91.043
	c0-0.233-0.188-0.421-0.422-0.421c-0.232,0-0.421,0.188-0.421,0.421c0,0.232,0.188,0.421,0.421,0.421
	C84.262,91.464,84.45,91.275,84.45,91.043z M85.704,86.401h-4.637V89h4.637V86.401z M85.704,82.749h-4.637v2.599h4.637V82.749z
	 M85.704,78.815h-4.637v2.599h4.637V78.815z M85.704,74.741h-4.637v2.599h4.637V74.741z M86.101,53.208H68.774v19.479h17.326V53.208
	z"/>
</svg>
