<?xml version="1.0" encoding="utf-8"?>
<!-- Generator: Adobe Illustrator 16.0.0, SVG Export Plug-In . SVG Version: 6.00 Build 0)  -->
<!DOCTYPE svg PUBLIC "-//W3C//DTD SVG 1.1//EN" "http://www.w3.org/Graphics/SVG/1.1/DTD/svg11.dtd">
<svg version="1.1" id="Layer_10" xmlns="http://www.w3.org/2000/svg" xmlns:xlink="http://www.w3.org/1999/xlink" x="0px" y="0px"
	 width="100px" height="100px" viewBox="0 0 100 100" enable-background="new 0 0 100 100" xml:space="preserve">
<path d="M26.64,29.063c0-9.976,8.088-18.063,18.063-18.063s18.063,8.087,18.063,18.063s-8.088,18.062-18.063,18.062
	S26.64,39.039,26.64,29.063z M62.333,76.653c0-3.785,1.766-7.275,4.771-9.521c0.303-2.722,1.963-5.13,4.367-6.313
	c-2.135-3.806-5.369-6.913-9.279-8.882v-1.93c0-2.043-1.799-3.703-4.012-3.703h-6.092v3.284H37.315v-3.284h-6.09
	c-2.213,0-4.014,1.66-4.014,3.703v1.93c-7.15,3.603-12.068,10.992-12.068,19.545v17.517H27.53h3.695
	c-0.855,0-1.551-0.557-1.551-1.24V50.008c0-0.684,0.695-1.24,1.551-1.24h3.627v13.598c0,2.042,1.801,3.704,4.012,3.704H50.54
	c2.213,0,4.012-1.662,4.012-3.704V48.768h3.629c0.854,0,1.549,0.557,1.549,1.24v37.751c0,0.684-0.695,1.24-1.549,1.24h3.693h12.387
	v-0.441c-0.008,0-0.016,0.001-0.021,0.001C67.675,88.559,62.333,83.218,62.333,76.653z M84.812,76.037
	c0,5.556-4.504,10.059-10.059,10.059s-10.059-4.503-10.059-10.059c0-3.521,1.82-6.602,4.561-8.398
	c-0.002-0.064-0.01-0.127-0.01-0.191c0-3.356,2.676-6.088,5.963-6.088c3.289,0,5.963,2.731,5.963,6.088
	c0,0.275-0.023,0.545-0.059,0.811C83.366,70.103,84.812,72.898,84.812,76.037z M75.208,62.66c-1.232,0-2.346,0.502-3.18,1.307
	c-0.086,0.091-0.178,0.176-0.258,0.273c-0.023,0.027-0.045,0.059-0.068,0.086c-0.535,0.702-0.893,1.561-1,2.508
	c1.242-0.546,2.609-0.854,4.051-0.854c1.869,0,3.613,0.52,5.111,1.408C79.833,64.775,77.759,62.66,75.208,62.66z"/>
</svg>
