<?xml version="1.0" encoding="iso-8859-1"?>
<!-- Generator: Adobe Illustrator 17.1.0, SVG Export Plug-In . SVG Version: 6.00 Build 0)  -->
<!DOCTYPE svg PUBLIC "-//W3C//DTD SVG 1.1//EN" "http://www.w3.org/Graphics/SVG/1.1/DTD/svg11.dtd">
<svg version="1.1" id="Layer_1" xmlns="http://www.w3.org/2000/svg" xmlns:xlink="http://www.w3.org/1999/xlink" x="0px" y="0px"
	 viewBox="0 0 128 128" style="enable-background:new 0 0 128 128;" xml:space="preserve">
<g>
	<path d="M40.162,64.484c2.375,0.728,4.891-0.606,5.621-2.98c0.002,0,6.727-21.926,6.727-21.926c0.04-0.093,0.241-0.478,0.711-0.478
		c0.043,0,0.947,0,0.947,0h0.002c0.268-0.004,0.424,0.223,0.353,0.48L41.062,83.638c-0.073,0.257,0,0.706,0.469,0.706h9.307
		c0.268,0,0.463,0.217,0.463,0.484c0,0-0.002,32.096-0.002,32.108c0,3.205,2.598,5.803,5.803,5.803s5.803-2.598,5.803-5.803
		l0.002-32.108c0-0.268,0.216-0.484,0.484-0.484h0.008h0.928h0.008c0.268,0,0.484,0.216,0.484,0.484l0.002,32.108
		c0,3.205,2.598,5.803,5.803,5.803c3.205,0,5.803-2.598,5.803-5.803c0-0.011-0.002-32.108-0.002-32.108
		c0-0.268,0.196-0.484,0.463-0.484h9.581c0.469,0,0.542-0.449,0.469-0.706L73.476,39.581c-0.071-0.257,0.086-0.484,0.353-0.48h0.002
		c0,0,0.905,0,0.948,0c0.47,0,0.671,0.385,0.711,0.478c0,0,6.724,21.925,6.727,21.926c0.73,2.374,3.246,3.709,5.621,2.98
		c2.377-0.729,3.713-3.246,2.984-5.622c-0.003-0.009-3.954-12.895-6.668-21.744c-0.028-0.108-0.053-0.201-0.075-0.277
		c-1.028-3.573-3.397-11.71-10.987-11.71H54.385c-7.072,0-9.435,8.137-10.464,11.71c-0.022,0.076-6.74,22.012-6.743,22.02
		C36.45,61.238,37.786,63.756,40.162,64.484z"/>
	<circle cx="64" cy="13.897" r="8.636"/>
</g>
</svg>
