<?xml version="1.0" encoding="iso-8859-1"?>
<!-- Generator: Adobe Illustrator 17.1.0, SVG Export Plug-In . SVG Version: 6.00 Build 0)  -->
<!DOCTYPE svg PUBLIC "-//W3C//DTD SVG 1.1//EN" "http://www.w3.org/Graphics/SVG/1.1/DTD/svg11.dtd">
<svg version="1.1" id="Layer_1" xmlns="http://www.w3.org/2000/svg" xmlns:xlink="http://www.w3.org/1999/xlink" x="0px" y="0px"
	 viewBox="0 0 128 128" style="enable-background:new 0 0 128 128;" xml:space="preserve">
<g>
	<circle cx="51.189" cy="14.144" r="9.148"/>
	<path d="M77.782,58.448l3.748-20.304c0.265-1.436-0.683-2.814-2.118-3.078c-1.436-0.268-2.814,0.683-3.078,2.118l-2.464,13.35
		c-0.52-4.021-3.715-7.324-7.924-7.795c-2.043-0.229-3.997,0.252-5.633,1.235l-2.135-14.286c-0.396-1.732-1.554-2.429-3.13-2.492
		c-0.034-0.007-0.074-0.023-0.103-0.023H43.116c-1.064,0-1.718,0.651-1.83,1.932l-5.81,18.113L29.108,81.57
		c-0.495,0.942-0.029,1.713,1.035,1.713h8.706v8.033l-15.631,21.799c-1.401,1.954-0.953,4.673,1.001,6.074
		c0.768,0.551,1.655,0.815,2.533,0.815c1.356,0,2.692-0.631,3.542-1.817l16.446-22.937c0.53-0.74,0.815-1.627,0.815-2.536v-9.432
		h2.13l10.983,33.717c0.599,1.839,2.305,3.006,4.138,3.006c0.447,0,0.901-0.069,1.349-0.216c2.286-0.744,3.536-3.201,2.791-5.487
		l-10.104-31.02h6.771c1.064,0,1.606-0.806,1.204-1.792L64.632,69.59C75.968,67.26,77.604,59.57,77.782,58.448z"/>
	<circle cx="67.831" cy="35.788" r="5.971"/>
</g>
</svg>
