<?xml version="1.0" encoding="utf-8"?>
<!-- Generator: Adobe Illustrator 16.0.0, SVG Export Plug-In . SVG Version: 6.00 Build 0)  -->
<!DOCTYPE svg PUBLIC "-//W3C//DTD SVG 1.1//EN" "http://www.w3.org/Graphics/SVG/1.1/DTD/svg11.dtd">
<svg version="1.1" id="Layer_1" xmlns="http://www.w3.org/2000/svg" xmlns:xlink="http://www.w3.org/1999/xlink" x="0px" y="0px"
	 width="50px" height="50px" viewBox="0 0 50 50" enable-background="new 0 0 50 50" xml:space="preserve">
<path d="M36.376,25.407c0.057-1.504-0.196-3.037-0.761-4.497l2.344-1.455l-2.296-3.665l-2.334,1.459
	c-1.069-1.146-2.326-2.038-3.703-2.653l0.618-2.678l-4.212-0.968l-0.62,2.68c-1.501-0.057-3.036,0.194-4.495,0.756l-1.463-2.339
	l-3.651,2.288l1.458,2.338c-1.15,1.061-2.05,2.328-2.657,3.709l-2.68-0.621l-0.977,4.21l2.68,0.617
	c-0.051,1.51,0.196,3.035,0.76,4.498l-2.338,1.457l2.293,3.665l2.338-1.46c1.06,1.15,2.329,2.043,3.702,2.651l-0.612,2.676
	l4.204,0.976l0.622-2.682c1.502,0.062,3.034-0.187,4.495-0.757l1.458,2.34l3.663-2.291l-1.464-2.334
	c1.148-1.065,2.049-2.332,2.653-3.71l2.677,0.621l0.973-4.212L36.376,25.407z M25,16.232c0.939,0,1.703,0.762,1.703,1.703
	c0,0.94-0.763,2.031-1.703,2.031c-0.94,0-1.704-1.091-1.704-2.031C23.296,16.994,24.06,16.232,25,16.232z M28.363,26.688
	c-0.044,0.011-0.088,0.016-0.131,0.016c-0.241,0-0.46-0.163-0.522-0.408l-1.037-4.146l-0.272,2.533l1.766,3.45
	c0,0.129-0.721,0.422-1.766,0.581l0.348,4.328c0.03,0.371-0.247,0.695-0.618,0.726c-0.018,0.001-0.037,0.002-0.055,0.002
	c-0.347,0-0.642-0.267-0.67-0.62l-0.348-4.329c-0.02,0-0.039,0-0.058,0s-0.039,0-0.058,0l-0.348,4.329
	c-0.028,0.353-0.323,0.62-0.67,0.62c-0.018,0-0.036-0.001-0.055-0.002c-0.371-0.03-0.647-0.354-0.618-0.726l0.348-4.328
	c-1.045-0.159-1.766-0.452-1.766-0.581l1.766-3.452l-0.272-2.53l-1.037,4.146c-0.062,0.245-0.281,0.408-0.522,0.408
	c-0.043,0-0.087-0.005-0.131-0.016c-0.289-0.072-0.464-0.365-0.392-0.653l1.078-4.311c0.002-0.006,0.007-0.011,0.008-0.018
	c0.01-0.035,0.03-0.065,0.047-0.098c0.017-0.031,0.031-0.064,0.053-0.091c0.004-0.005,0.006-0.013,0.011-0.018
	c0.045-0.052,1.125-1.261,2.559-1.261s2.514,1.209,2.559,1.261c0.005,0.005,0.006,0.012,0.011,0.018
	c0.022,0.027,0.036,0.061,0.053,0.092c0.017,0.032,0.036,0.062,0.046,0.097c0.001,0.007,0.006,0.012,0.008,0.018l1.078,4.311
	C28.827,26.323,28.652,26.615,28.363,26.688z"/>
</svg>
