<?xml version="1.0" encoding="iso-8859-1"?>
<!-- Generator: Adobe Illustrator 17.1.0, SVG Export Plug-In . SVG Version: 6.00 Build 0)  -->
<!DOCTYPE svg PUBLIC "-//W3C//DTD SVG 1.1//EN" "http://www.w3.org/Graphics/SVG/1.1/DTD/svg11.dtd">
<svg version="1.1" id="Layer_1" xmlns="http://www.w3.org/2000/svg" xmlns:xlink="http://www.w3.org/1999/xlink" x="0px" y="0px"
	 viewBox="0 0 128 128" style="enable-background:new 0 0 128 128;" xml:space="preserve">
<g>
	<path d="M6.378,64.397c1.948,0.597,4.011-0.497,4.61-2.444c0.002,0,5.517-17.981,5.517-17.981c0.032-0.076,0.197-0.392,0.583-0.392
		c0.035,0,0.777,0,0.777,0h0.002c0.219-0.003,0.348,0.183,0.29,0.394L7.116,80.105c-0.06,0.211,0,0.579,0.384,0.579h7.745
		c0.22,0,0.38,0.178,0.38,0.397c0,0-0.002,26.322-0.002,26.331c0,2.629,2.131,4.759,4.759,4.759c2.629,0,4.759-2.131,4.759-4.759
		l0.002-26.332c0-0.219,0.177-0.397,0.397-0.397h0.006h0.761h0.006c0.219,0,0.397,0.177,0.397,0.397l0.002,26.332
		c0,2.629,2.131,4.759,4.759,4.759c2.629,0,4.759-2.131,4.759-4.759c0-0.009-0.002-26.331-0.002-26.331
		c0-0.219,0.16-0.397,0.38-0.397h7.745c0.385,0,0.444-0.368,0.385-0.579l-11.04-36.131c-0.058-0.211,0.07-0.397,0.29-0.394h0.002
		c0,0,0.742,0,0.777,0c0.385,0,0.55,0.315,0.583,0.392c0,0,5.515,17.981,5.517,17.981c0.599,1.947,2.662,3.041,4.61,2.444
		c1.949-0.598,3.044-2.662,2.446-4.611c-0.002-0.007-5.53-18.059-5.53-18.059c-0.843-2.931-2.453-9.604-8.677-9.604H18.158
		c-5.799,0-7.853,6.673-8.697,9.604c-0.018,0.062-5.527,18.052-5.53,18.059C3.334,61.735,4.43,63.799,6.378,64.397z"/>
	<circle cx="25.927" cy="22.911" r="7.082"/>
	<path d="M109.861,32.124H94.303c-5.799,0-7.853,6.673-8.697,9.604c-0.018,0.062-5.528,18.052-5.53,18.059
		c-0.598,1.949,0.498,4.013,2.447,4.611c1.948,0.597,4.011-0.497,4.61-2.444c0.002,0,5.517-17.981,5.517-17.981
		c0.032-0.076,0.197-0.392,0.583-0.392c0.035,0,0.777,0,0.777,0h0.002c0.22-0.003,0.348,0.183,0.29,0.394l-11.04,36.131
		c-0.06,0.211,0,0.579,0.385,0.579h7.745c0.219,0,0.38,0.178,0.38,0.397c0,0-0.002,26.322-0.002,26.331
		c0,2.629,2.131,4.759,4.759,4.759s4.759-2.131,4.759-4.759l0.002-26.332c0-0.219,0.177-0.397,0.397-0.397h0.006h0.761h0.006
		c0.22,0,0.397,0.177,0.397,0.397l0.002,26.332c0,2.629,2.131,4.759,4.759,4.759s4.759-2.131,4.759-4.759
		c0-0.009-0.002-26.331-0.002-26.331c0-0.219,0.16-0.397,0.38-0.397h7.745c0.384,0,0.444-0.368,0.384-0.579l-11.04-36.131
		c-0.058-0.211,0.07-0.397,0.29-0.394h0.002c0,0,0.742,0,0.777,0c0.385,0,0.55,0.315,0.583,0.392c0,0,5.515,17.981,5.517,17.981
		c0.599,1.947,2.662,3.041,4.61,2.444c1.949-0.598,3.044-2.662,2.446-4.611c-0.002-0.007-5.53-18.059-5.53-18.059
		C117.695,38.797,116.085,32.124,109.861,32.124z"/>
	<circle cx="102.073" cy="22.911" r="7.082"/>
	<path d="M50.598,65.648c0,0.198,0,16.769,0,16.776c0,1.334,1.1,2.357,2.434,2.357c1.333,0,2.422-1.022,2.423-2.355l-0.003-14.683
		c0-0.139,0.109-0.251,0.248-0.251h1.044c0.139,0,0.265,0.112,0.265,0.251c0,0-0.003,41.303-0.003,41.308
		c0,1.72,1.388,3.121,3.108,3.121c1.72,0,3.108-1.384,3.108-3.104c0-0.005,0-24.423,0-24.423c0-0.177,0.082-0.252,0.257-0.252h1.028
		c0.175,0,0.269,0.074,0.269,0.252c0,0,0.004,24.363,0.004,24.423c0,1.72,1.403,3.104,3.123,3.104c1.72,0,3.089-1.401,3.089-3.121
		c0-0.005,0-41.308,0-41.308c0-0.139,0.112-0.251,0.251-0.251h1.06c0.139,0,0.247,0.112,0.247,0.251c0,0-0.005,14.683-0.004,14.683
		c0.001,1.333,1.103,2.355,2.436,2.355c1.334,0,2.42-1.023,2.42-2.357c0-0.008,0-16.579,0-16.776c0-3.304-3.106-5.926-6.284-5.926
		c-0.081,0-14.171,0-14.252,0C53.689,59.722,50.598,62.344,50.598,65.648z"/>
	<path d="M61.66,49.509c-1.59,0.841-2.675,2.511-2.675,4.435c0,2.77,2.245,5.015,5.015,5.015s5.015-2.245,5.015-5.015
		c0-1.713-0.859-3.224-2.169-4.128v-2.936l-1.352,2.276c-0.148-0.046-0.298-0.085-0.452-0.117v-2.159l-1.233,2.055
		c-0.2,0.007-0.396,0.026-0.589,0.056v-2.11L61.66,49.509z"/>
</g>
</svg>
