<?xml version="1.0" encoding="utf-8"?>
<!-- Generator: Adobe Illustrator 16.0.0, SVG Export Plug-In . SVG Version: 6.00 Build 0)  -->
<!DOCTYPE svg PUBLIC "-//W3C//DTD SVG 1.1//EN" "http://www.w3.org/Graphics/SVG/1.1/DTD/svg11.dtd">
<svg version="1.1" id="Layer_1" xmlns="http://www.w3.org/2000/svg" xmlns:xlink="http://www.w3.org/1999/xlink" x="0px" y="0px"
	 width="50px" height="50px" viewBox="0 0 50 50" enable-background="new 0 0 50 50" xml:space="preserve">
<g>
	<path d="M36.076,10.293h-15.51c-0.851,0-1.598,0.442-2.031,1.107h1.43c0.185-0.084,0.385-0.138,0.601-0.138h15.51
		c0.802,0,1.454,0.652,1.454,1.454v20.14c0,0.738-0.561,1.325-1.275,1.417c-0.047,0.367-0.169,0.709-0.362,1.005h0.183
		c1.337,0,2.424-1.086,2.424-2.423v-20.14C38.5,11.38,37.413,10.293,36.076,10.293z"/>
	<path d="M32.755,12.507h-15.51c-0.851,0-1.598,0.442-2.031,1.107h1.43c0.185-0.084,0.385-0.138,0.601-0.138h15.51
		c0.803,0,1.455,0.652,1.455,1.454v20.14c0,0.738-0.561,1.325-1.275,1.417c-0.047,0.367-0.169,0.709-0.362,1.005h0.183
		c1.338,0,2.425-1.086,2.425-2.423V14.93C35.18,13.594,34.093,12.507,32.755,12.507z"/>
	<path d="M29.434,14.721h-15.51c-1.337,0-2.424,1.086-2.424,2.423v20.14c0,1.336,1.087,2.423,2.424,2.423h15.51
		c1.338,0,2.425-1.086,2.425-2.423v-20.14C31.859,15.808,30.772,14.721,29.434,14.721z M30.889,37.284
		c0,0.801-0.652,1.454-1.455,1.454h-15.51c-0.803,0-1.455-0.652-1.455-1.454v-20.14c0-0.801,0.652-1.454,1.455-1.454h15.51
		c0.803,0,1.455,0.653,1.455,1.454V37.284z"/>
	<path d="M23.161,27.573c1.087-0.729,1.836-2.173,1.836-3.471c0-1.833-1.484-3.32-3.318-3.32c-1.833,0-3.317,1.487-3.317,3.32
		c0,1.298,0.749,2.742,1.833,3.471c-2.596,0.66-4.523,2.918-4.523,4.591c0,1.977,12.017,1.977,12.017,0
		C27.688,30.491,25.762,28.232,23.161,27.573z M21.679,33.645l-1.685-1.682l1.417-3.426h-0.015l-0.55-0.633
		c0.268,0.096,0.543,0.154,0.832,0.154c0.29,0,0.564-0.057,0.831-0.151l-0.551,0.629h-0.012l1.418,3.426L21.679,33.645z"/>
</g>
</svg>
