<?xml version="1.0" encoding="utf-8"?>
<!-- Generator: Adobe Illustrator 16.0.0, SVG Export Plug-In . SVG Version: 6.00 Build 0)  -->
<!DOCTYPE svg PUBLIC "-//W3C//DTD SVG 1.1//EN" "http://www.w3.org/Graphics/SVG/1.1/DTD/svg11.dtd">
<svg version="1.1" id="Layer_1" xmlns="http://www.w3.org/2000/svg" xmlns:xlink="http://www.w3.org/1999/xlink" x="0px" y="0px"
	 width="50px" height="50px" viewBox="0 0 50 50" enable-background="new 0 0 50 50" xml:space="preserve">
<g>
	<path d="M26.825,17.433c1.338-0.9,2.261-2.676,2.261-4.275c0-2.257-1.83-4.086-4.085-4.086c-2.256,0-4.086,1.829-4.086,4.086
		c0,1.599,0.922,3.375,2.261,4.275c-3.201,0.812-5.573,3.59-5.573,5.649c0,2.434,14.796,2.434,14.796,0
		C32.398,21.023,30.026,18.245,26.825,17.433z M25,24.907l-2.073-2.072l1.745-4.217h-0.018l-0.678-0.777
		c0.328,0.118,0.67,0.188,1.024,0.188c0.354,0,0.695-0.07,1.022-0.188l-0.678,0.777h-0.017l1.745,4.217L25,24.907z"/>
	<g>
		<g>
			<g>
				<path d="M21.399,34.492c0.434,0,0.786-0.502,0.786-0.936s-0.353-0.785-0.786-0.785c-0.433,0-0.785,0.351-0.785,0.785
					S20.966,34.492,21.399,34.492z"/>
				<path d="M22.936,35.039c-0.005-0.024-0.011-0.045-0.021-0.067c-0.009-0.015-0.02-0.027-0.03-0.041
					c-0.015-0.019-0.027-0.037-0.045-0.053c-0.014-0.012-0.029-0.019-0.046-0.028c-0.015-0.01-0.029-0.022-0.046-0.029
					c-0.027-0.011-0.653-0.233-1.228-0.263l-0.078,0.158h-0.002l0.209,1.628l-0.249,0.434l-0.248-0.434l0.21-1.628h-0.003
					l-0.079-0.158c-0.574,0.03-1.199,0.252-1.227,0.263c-0.018,0.007-0.032,0.019-0.047,0.029c-0.016,0.009-0.032,0.016-0.045,0.028
					c-0.018,0.016-0.031,0.035-0.045,0.053c-0.011,0.014-0.021,0.025-0.029,0.04c-0.011,0.021-0.016,0.045-0.021,0.067
					c-0.004,0.014-0.013,0.026-0.014,0.04L19.6,37.314c-0.018,0.17,0.104,0.325,0.274,0.344c0.012,0.001,0.023,0.001,0.036,0.001
					c0.156,0,0.29-0.118,0.308-0.275l0.226-2.037c0.026-0.007,0.055-0.016,0.085-0.025v2.119l-0.247,3.072
					c-0.016,0.205,0.137,0.384,0.342,0.401c0.011,0.001,0.02,0.001,0.031,0.001c0.192,0,0.355-0.147,0.37-0.343l0.224-2.776
					c0.046,0.021,0.096,0.033,0.15,0.033c0.055,0,0.104-0.012,0.151-0.033l0.224,2.776c0.015,0.195,0.178,0.343,0.37,0.343
					c0.011,0,0.02,0,0.031-0.001c0.205-0.018,0.357-0.197,0.342-0.401l-0.248-3.072v-2.119c0.032,0.009,0.061,0.018,0.087,0.025
					l0.227,2.037c0.017,0.158,0.152,0.275,0.307,0.275c0.011,0,0.024,0,0.035-0.001c0.171-0.019,0.293-0.173,0.274-0.344
					L22.95,35.08C22.949,35.065,22.94,35.053,22.936,35.039z"/>
			</g>
			<g>
				<path d="M25,34.492c0.433,0,0.784-0.502,0.784-0.936S25.433,32.771,25,32.771c-0.434,0-0.786,0.351-0.786,0.785
					S24.567,34.492,25,34.492z"/>
				<path d="M26.537,35.039c-0.005-0.024-0.011-0.045-0.021-0.067c-0.009-0.015-0.019-0.027-0.03-0.041
					c-0.015-0.019-0.027-0.037-0.045-0.053c-0.014-0.012-0.03-0.019-0.046-0.028c-0.016-0.01-0.028-0.022-0.046-0.029
					c-0.028-0.011-0.653-0.233-1.227-0.263l-0.079,0.158H25.04l0.209,1.628L25,36.779l-0.249-0.434l0.21-1.628h-0.004l-0.077-0.158
					c-0.575,0.03-1.2,0.252-1.228,0.263c-0.018,0.007-0.032,0.019-0.046,0.029c-0.016,0.009-0.033,0.016-0.045,0.028
					c-0.019,0.016-0.033,0.035-0.046,0.053c-0.01,0.014-0.021,0.025-0.03,0.04c-0.01,0.021-0.015,0.045-0.022,0.067
					c-0.002,0.014-0.011,0.026-0.013,0.04l-0.249,2.235c-0.018,0.17,0.104,0.325,0.275,0.344c0.012,0.001,0.023,0.001,0.035,0.001
					c0.156,0,0.291-0.118,0.308-0.275l0.227-2.037c0.025-0.007,0.055-0.016,0.084-0.025v2.119l-0.247,3.072
					c-0.016,0.205,0.136,0.384,0.343,0.401c0.01,0.001,0.02,0.001,0.03,0.001c0.192,0,0.354-0.147,0.37-0.343l0.224-2.776
					c0.046,0.021,0.096,0.033,0.151,0.033c0.054,0,0.104-0.012,0.15-0.033l0.224,2.776c0.016,0.195,0.178,0.343,0.37,0.343
					c0.011,0,0.02,0,0.031-0.001c0.206-0.018,0.358-0.197,0.342-0.401l-0.247-3.072v-2.119c0.031,0.009,0.059,0.018,0.085,0.025
					l0.226,2.037c0.018,0.158,0.153,0.275,0.308,0.275c0.011,0,0.023,0,0.036-0.001c0.17-0.019,0.292-0.173,0.273-0.344L26.55,35.08
					C26.549,35.065,26.54,35.053,26.537,35.039z"/>
			</g>
			<g>
				<path d="M28.601,34.492c0.433,0,0.785-0.502,0.785-0.936s-0.352-0.785-0.785-0.785c-0.435,0-0.785,0.351-0.785,0.785
					S28.167,34.492,28.601,34.492z"/>
				<path d="M30.138,35.039c-0.006-0.024-0.012-0.045-0.022-0.067c-0.007-0.015-0.019-0.027-0.029-0.041
					c-0.015-0.019-0.027-0.037-0.045-0.053c-0.014-0.012-0.029-0.019-0.045-0.028c-0.016-0.01-0.029-0.022-0.046-0.029
					c-0.029-0.011-0.653-0.233-1.229-0.263l-0.078,0.158H28.64l0.209,1.628l-0.248,0.434l-0.248-0.434l0.209-1.628h-0.003
					l-0.079-0.158c-0.574,0.03-1.197,0.252-1.227,0.263c-0.017,0.007-0.032,0.019-0.046,0.029c-0.016,0.009-0.032,0.016-0.045,0.028
					c-0.019,0.016-0.032,0.035-0.046,0.053c-0.01,0.014-0.021,0.025-0.029,0.04c-0.011,0.021-0.016,0.045-0.023,0.067
					c-0.002,0.014-0.011,0.026-0.013,0.04l-0.248,2.235c-0.018,0.17,0.104,0.325,0.274,0.344c0.012,0.001,0.023,0.001,0.035,0.001
					c0.156,0,0.29-0.118,0.308-0.275l0.226-2.037c0.026-0.007,0.056-0.016,0.087-0.025v2.119l-0.247,3.072
					c-0.017,0.205,0.136,0.384,0.342,0.401c0.01,0.001,0.019,0.001,0.03,0.001c0.192,0,0.355-0.147,0.371-0.343l0.223-2.776
					c0.046,0.021,0.097,0.033,0.151,0.033s0.104-0.012,0.151-0.033l0.223,2.776c0.016,0.195,0.179,0.343,0.371,0.343
					c0.01,0,0.019,0,0.03-0.001c0.206-0.018,0.357-0.197,0.343-0.401l-0.248-3.072v-2.119c0.031,0.009,0.059,0.018,0.086,0.025
					l0.225,2.037c0.019,0.158,0.153,0.275,0.309,0.275c0.011,0,0.023,0,0.035-0.001c0.17-0.019,0.292-0.173,0.274-0.344
					l-0.248-2.235C30.15,35.065,30.141,35.053,30.138,35.039z"/>
			</g>
		</g>
		<path d="M41.143,36.962c0.016-0.438-0.057-0.883-0.22-1.307l0.679-0.423l-0.666-1.065l-0.678,0.424
			c-0.311-0.333-0.677-0.592-1.077-0.771l0.179-0.778l-1.225-0.282l-0.179,0.779c-0.438-0.017-0.883,0.056-1.307,0.22l-0.425-0.68
			l-1.063,0.665l0.424,0.679c-0.333,0.309-0.593,0.677-0.771,1.078l-0.779-0.18l-0.283,1.223l0.779,0.18
			c-0.016,0.439,0.056,0.882,0.221,1.307l-0.68,0.424l0.665,1.065l0.68-0.425c0.308,0.334,0.676,0.593,1.077,0.771l-0.179,0.778
			l1.223,0.283l0.18-0.779c0.438,0.018,0.882-0.055,1.307-0.22l0.423,0.679l1.064-0.666l-0.423-0.679
			c0.333-0.309,0.593-0.678,0.77-1.078l0.779,0.18l0.282-1.224L41.143,36.962z M39.032,38.756c-1.056,0.659-2.446,0.338-3.107-0.718
			c-0.659-1.055-0.338-2.447,0.716-3.107c1.056-0.66,2.449-0.339,3.109,0.718C40.41,36.705,40.087,38.097,39.032,38.756z"/>
		<path d="M12.163,32.759c-2.252,0-4.084,1.832-4.084,4.083c0,2.253,1.832,4.085,4.084,4.085c2.252,0,4.084-1.832,4.084-4.085
			C16.248,34.591,14.415,32.759,12.163,32.759z M13.912,39.69l-0.159-0.276l-0.158,0.091l0.157,0.273
			c-0.45,0.245-0.954,0.395-1.496,0.41v-0.324h-0.184v0.324c-0.542-0.015-1.049-0.165-1.497-0.41l0.158-0.273l-0.159-0.091
			l-0.159,0.277c-0.448-0.275-0.823-0.65-1.098-1.097l0.277-0.161l-0.092-0.158l-0.273,0.157c-0.245-0.449-0.395-0.954-0.41-1.496
			h0.325v-0.184H8.819c0.016-0.542,0.166-1.048,0.41-1.498l0.272,0.158l0.092-0.159l-0.276-0.16
			c0.275-0.447,0.648-0.821,1.096-1.097l0.161,0.277l0.158-0.091l-0.157-0.273c0.449-0.245,0.955-0.395,1.497-0.41v0.324h0.075
			l-0.497,0.993h0.331v1.922l-1.031,0.594l-0.166-0.287l-0.632,0.958l1.146-0.068l-0.167-0.287l1.123-0.648
			c0.006-0.004,0.007-0.015,0.015-0.02c0.02-0.015,0.028-0.033,0.042-0.054c0.012-0.021,0.022-0.038,0.025-0.062
			c0.001-0.009,0.009-0.014,0.009-0.023v-2.026h0.331l-0.496-0.993h0.073l0.001-0.324c0.542,0.015,1.047,0.165,1.497,0.41
			l-0.159,0.273l0.16,0.091l0.159-0.277c0.447,0.275,0.822,0.649,1.097,1.097l-0.276,0.161l0.092,0.158l0.272-0.158
			c0.245,0.45,0.395,0.955,0.411,1.497h-0.324v0.184h0.324c-0.016,0.542-0.166,1.048-0.411,1.498l-0.272-0.158l-0.091,0.159
			l0.276,0.16C14.734,39.04,14.359,39.414,13.912,39.69z"/>
	</g>
	<polygon points="25.27,27.249 25.27,26.258 24.729,26.258 24.729,27.249 11.893,27.249 11.893,31.569 12.433,31.569 12.433,27.789 
		24.729,27.789 24.729,31.569 25.27,31.569 25.27,27.789 37.567,27.789 37.567,31.569 38.107,31.569 38.107,27.249 	"/>
</g>
</svg>
