<?xml version="1.0" encoding="utf-8"?>
<!-- Generator: Adobe Illustrator 16.0.0, SVG Export Plug-In . SVG Version: 6.00 Build 0)  -->
<!DOCTYPE svg PUBLIC "-//W3C//DTD SVG 1.1//EN" "http://www.w3.org/Graphics/SVG/1.1/DTD/svg11.dtd">
<svg version="1.1" id="Layer_1" xmlns="http://www.w3.org/2000/svg" xmlns:xlink="http://www.w3.org/1999/xlink" x="0px" y="0px"
	 width="50px" height="50px" viewBox="0 0 50 50" enable-background="new 0 0 50 50" xml:space="preserve">
<g>
	<path d="M35.188,25.598c1.805-1.215,3.048-3.609,3.048-5.765c0-3.042-2.467-5.509-5.509-5.509c-2.175,0-4.05,1.263-4.945,3.093
		c0.358,0.444,0.583,1.001,0.583,1.615v4.538c0.507,0.81,1.151,1.524,1.901,2.029c-0.665,0.168-1.297,0.405-1.901,0.686v3.891
		c0,1.424-1.158,2.583-2.583,2.583h-1.78l1.028,1.027v1.062c5.23,1.503,17.671,0.96,17.671-1.632
		C42.702,30.439,39.504,26.692,35.188,25.598z M32.727,35.676l-2.795-2.794l2.353-5.687H32.26l-0.914-1.048
		c0.443,0.159,0.903,0.254,1.381,0.254c0.477,0,0.937-0.095,1.378-0.253l-0.913,1.047h-0.023l2.353,5.687L32.727,35.676z"/>
	<path d="M25.782,17.281H9.048c-0.963,0-1.75,0.788-1.75,1.75v11.144c0,0.962,0.787,1.75,1.75,1.75h7.653v1.491h-5.354l-0.714,0.714
		v0.714h13.566V34.13l-0.714-0.714h-5.355v-1.491h7.653c0.963,0,1.75-0.788,1.75-1.75V19.031
		C27.533,18.069,26.745,17.281,25.782,17.281z"/>
</g>
</svg>
