<?xml version="1.0" encoding="utf-8"?>
<!-- Generator: Adobe Illustrator 16.0.0, SVG Export Plug-In . SVG Version: 6.00 Build 0)  -->
<!DOCTYPE svg PUBLIC "-//W3C//DTD SVG 1.1//EN" "http://www.w3.org/Graphics/SVG/1.1/DTD/svg11.dtd">
<svg version="1.1" id="Layer_1" xmlns="http://www.w3.org/2000/svg" xmlns:xlink="http://www.w3.org/1999/xlink" x="0px" y="0px"
	 width="126px" height="126px" viewBox="0 0 126 126" enable-background="new 0 0 126 126" xml:space="preserve">
<g>
	<polygon points="53.038,51.748 53.109,52.155 52.348,52.279 52.234,53.137 53.168,53.137 54.398,53.047 55.034,52.453 
		54.354,52.245 53.98,51.913 53.421,51.215 53.168,50.209 52.117,50.376 51.826,50.73 51.826,51.123 52.327,51.403 	"/>
	<polygon points="52.157,52.081 52.205,51.54 51.603,51.336 50.741,51.488 50.105,52.285 50.105,52.808 50.85,52.808 	"/>
	<path d="M34.258,55.263l0.334-0.165l0.104-0.347l0.446-0.026l0.18-0.293l-0.418-0.071l-0.354,0.007l-0.195,0.383h-0.908v0.373
		h0.219c0,0,0.016,0.076,0.028,0.18L34.258,55.263z"/>
	<polygon points="32.482,54.751 32.196,55.046 32.156,55.404 32.828,55.36 32.881,54.999 	"/>
	<polygon points="101.984,72.747 100.037,72.792 99.958,71.96 100.275,72.068 101.038,71.998 100.959,71.235 98.84,71.253 
		98.267,70.654 98.296,70.335 95.572,68.41 94.894,68.826 98.795,72.564 99.346,72.708 99.346,72.91 98.611,72.91 98.795,73.375 
		103.574,73.54 	"/>
	<polygon points="105.387,68.578 105.056,68.471 104.901,67.829 104.42,67.829 104.114,68.474 103.749,68.732 100.983,69.914 
		100.983,71.079 101.903,72.038 104.231,72.038 104.531,71.441 105.056,71.066 105.056,70.792 105.387,70.628 	"/>
	<polygon points="107.109,70.628 105.709,71.052 105.737,71.295 105.387,71.295 105.387,72.815 106.093,72.815 105.996,71.846 
		106.545,72.006 106.545,72.685 107.127,72.655 	"/>
	<polygon points="118.889,79.824 118.505,78.598 117.081,77.64 116.969,75.811 116.348,74.971 116.348,78.425 113.403,78.425 
		113.403,76.726 113.235,76.716 112.768,76.499 112.725,75.593 113.403,75.704 113.403,74.757 112.754,74.45 110.955,74.45 
		109.657,75.899 109.136,75.899 109.136,75.442 107.57,75.529 105.114,77.724 103.808,77.746 102.355,78.526 102.263,81.938 
		101.377,82.602 101.377,83.202 105.615,82.06 109.039,81.953 110.308,84.148 114.202,84.252 117.955,81.481 	"/>
	<polygon points="110.822,85.839 112.199,85.95 113.307,85.474 113.337,84.811 112.115,84.708 	"/>
	<polygon points="124.07,82.842 123.496,82.93 123.481,81.914 122.427,81.968 122.287,83.556 121.362,84.052 119.646,84.236 
		116.895,85.774 116.434,86.075 116.434,86.588 117.861,86.42 121.358,84.739 122.339,84.228 123.394,83.862 124.464,83.389 	"/>
	<polygon points="118.471,74.243 118.471,73.767 117.744,73.767 117.625,72.327 117.179,72.167 116.348,72.593 116.348,73.111 
		117.045,73.06 117.045,74.243 	"/>
	<polygon points="113.253,71.503 112.364,71.525 112.438,70.796 111.587,70.403 110.391,71.349 111.197,72.128 112.942,72.327 
		113.403,72.517 113.403,71.44 	"/>
	<polygon points="113.337,73.873 113.403,73.869 113.403,73.102 113.303,73.102 	"/>
	<polygon points="87.867,68.055 88.203,68.762 89.403,68.41 89.525,67.434 88.567,67.288 	"/>
	<polygon points="73.741,76.28 72.104,76.112 72.104,77.113 72.69,77.648 72.242,78.189 71.576,78.789 71.576,79.892 72.487,80.58 
		73.305,79.544 74.913,77.694 75.682,74.785 74.703,74.785 	"/>
	<polygon points="107.458,73.212 106.913,73.212 106.913,73.438 107.332,73.54 	"/>
	<rect x="104.42" y="73.54" width="0.643" height="0.274"/>
	<polygon points="105.971,73.814 106.365,73.814 106.365,73.575 106.658,73.54 106.658,73.304 106.025,73.304 105.763,73.54 
		105.387,73.814 105.387,74.056 105.971,74.013 	"/>
	<polygon points="107.6,74.037 108.236,74.037 108.236,73.777 108.674,73.814 108.616,73.375 107.896,73.464 107.829,73.747 
		107.021,73.814 106.983,73.814 106.983,74.25 107.6,74.25 	"/>
	<polygon points="114.057,49.269 115.236,49.079 114.333,48.586 114.366,48.208 116.877,48.525 117.353,48.208 113.973,47.09 
		113.426,47.068 113.426,49.859 114.057,49.826 	"/>
	<polygon points="86.871,67.819 87.634,67.96 88.343,67.158 86.357,67.158 	"/>
	<path d="M96.059,67.861l3.77,2.839l0.197-0.503l-3.063-3.42l0.321-1l1.615,1.439l0.899,0.072l1.186-0.619l-0.193-0.931
		l-1.965-1.235l-0.077-1.122l0.558-0.589l0.982,0.246l-0.071,0.527l0.562,0.685l0.502-0.282l-0.276-0.81l2.775-0.782l1.217-0.797
		l-0.192-1.442l-2.41-1.993l-0.045-1.622h1.07l3.335,1.994l0.942-0.196l-0.632-0.641l-1.783-0.853l0.111-1.27l2.115,0.004
		l0.17-1.571l-0.807-0.829l0.481-0.407l1.025,0.812l0.335-0.344l-1.336-1.182l-3.268-0.309l-0.437-0.687l0.946-1.061l0.75,0.442
		l2.264,0.153l2.85-1.494v-2.133l-3.704-0.15l-3.874,1.98v5.832h-2.943v-8.547l-1.253-0.15l-1.365-0.034l-1.248,0.989l-0.522-0.032
		l-1.656-0.965h-4.881l-2.26-1.062l-4.532,0.224l-3.432,1.215l0.02,1.398l-1.065,0.251l-0.237-1.403l-0.398-0.485l-1.182-0.232
		l-0.278,0.84l0.347,0.689l-4.23-0.22l-2.013,0.731l-0.306-0.693l-0.511,0.104l-0.369,0.769l-1.054,0.649l-2.577-0.054l-0.122-0.449
		l2.703-0.09l0.549-0.373l-3.252-1.186l-2.925,0.07v1.481l0.732-0.403h0.506v0.501l-1.238,0.599v0.503h-0.326V49.4l0.884,0.325
		l0.069,0.673l-1.265,1.47l-2.188-0.016L58.947,51.5l1.367-0.549l0.013-1.703h-1.36v-1.893l-0.311,0.126l-0.835,1.168l-1.479,0.45
		l-0.618,0.532l0.143,0.613l0.763,0.082l0.461,0.9l1.294-0.415l0.228,1.198h-0.407l-1.065-0.123l-1.185,0.157l-1.148,1.272
		l-1.653,0.208l-0.233,1.104l0.7,0.128l-0.199,0.713l-1.643-0.254l-1.497,0.254l-0.312,0.656l0.252,1.376l0.89,0.324l1.469-0.004
		l1.002-0.075l0.306-0.625l1.555-1.582l1.027,0.163l1.005-0.716l0.189,0.56l2.48,1.318l-0.307,0.319l-1.117-0.052l0.422,0.481
		l0.695,0.12l0.807-0.264l-0.016-0.767l0.365-0.14l-0.297-0.244l-1.657-0.723l-0.428-0.968h1.372l0.438,0.339l1.19,0.807
		l0.043,0.973l1.236,1.027l0.457-1.408l0.851-0.369l0.159,1.154l0.832,0.719l2.507-0.03l0.745,0.433v1.033l-0.913,0.652h-2.544
		l-1.544-0.906l-1.624,0.127v0.779h-0.522l-0.553-0.312l-2.815-0.564v-1.431l-3.577,0.218l-1.108,0.466h-1.41l-0.7-0.055
		l-1.721,0.753v1.409l-3.52,1.999l0.297,0.847h0.709l-0.18,0.809l-0.5,0.15l-0.029,2.119l3.033,2.717h1.322l0.094-0.167h2.37
		l0.692-0.496h1.345l0.744,0.583l2.009,0.162l-0.264,2.102l2.231,3.097l-1.177,1.763l0.083,0.829l0.934,0.725v2l1.21,1.283v1.664
		h3.598l2.703-2.176l0.846-1.186l0.345-0.06h-2.758V66.428h2.943v0.627l5.187,2.651l2.84-3.192l-0.623-0.232l-3.397,0.562
		l-0.881-0.341l-3.567-5.283l0.248-0.229l3.543,3.373l0.088,1.043l0.808,0.646l1.682-0.084l3.467-1.978l1.097-0.557l-0.018-0.688
		L77.8,62.633c0,0-4.078-1.511-4.078-1.577c0-0.07,0.024-1.294,0.024-1.294h0.904l0.132,0.893l1.886,0.855l2.163,0.081l4.672,0.602
		l1.104,0.544v0.84l-0.142,1.146l1.11,1.43V54.381h2.944v0.627l6.178,3.158l-6.178,3.159v5.113l0.314-1.867l0.804-1.35l1.287-0.38
		l2.271,0.173l2.862,1.994V67.861z M68.005,56.807v-0.004l-2.062-0.07l-0.612,0.07v-1.102l0.462-0.409l0.495-0.123l1.099-0.097
		l0.235-0.293l0.45,0.174l0.059,1.006l1.201,0.388l0.103,0.46H68.005z M75.914,57.594H75.91l-0.365,0.268l-0.832-0.049l-0.16-0.196
		l-1.307-0.08l0.092-0.326l0.699-0.467v-0.396l-1.33-0.755l-0.06-0.968l0.272-0.473l1.073-0.078l0.909,0.299l0.044,0.5l-1.303-0.057
		l-0.063,0.461l1.623,0.848v0.625l0.71,0.401V57.594z"/>
	<polygon points="110.323,51.105 112.942,52.785 113.775,52.447 113.463,51.323 113.294,51.199 110.482,50.136 110.323,50.331 	"/>
	<polygon points="69.045,78.083 69.76,77.418 71.262,75.792 70.95,73.327 70.311,72.441 68.491,73.372 68.491,79.171 69.045,79.075 
			"/>
	<polygon points="37.914,51.944 37.553,51.77 37.553,52.896 37.864,52.813 	"/>
	<polygon points="37.553,47.222 37.553,48.372 38.341,48.372 38.813,47.669 37.864,47.482 37.864,47.063 	"/>
	<path d="M37.747,54.528c0,0,0.006,0.008,0.006,0.015l0.403-0.026l0.03-0.598l-0.634-0.227v0.138h-1.622l0.047,0.272L37.747,54.528z
		"/>
	<path d="M32.818,45.737l-1.172,0.478l0.088,1.163l-1.215-0.146l-0.185-0.641l1.151-0.833l-2.105-0.082l-0.611,0.14l-0.269,0.563
		l0.798,0.105l-0.16,0.625l-1.348,0.062l-0.209,0.411l-1.967,0.043c0,0-0.045-0.872-0.122-0.872c-0.083,0,1.531-0.02,1.531-0.02
		l1.166-0.895l-0.637-0.251l-0.846,0.649l-1.405-0.062l-0.841-0.916h-1.799l-1.882,1.103h1.722l0.16,0.396l-0.452,0.331l1.906,0.044
		l0.291,0.539l-2.145-0.068l-0.105-0.413l-1.347-0.231l-0.716-0.308l-3.174,0.024l-0.978,0.746l-0.666-0.045l-0.738-0.335
		l-0.267-0.062v2.268h-3.072v-2.721H8.328l-2.325,1.244l-1.56,0.188l-0.715,0.437l1.108,0.129v0.349H2.465l-0.929,0.519l1.186,0.791
		l3.253,0.022l0.452-0.379h2.718l0.981,0.686l-0.06,1.063l0.827,0.6l-0.69,0.388l0.155,1.4l-2.454,2.344v2.201l1.317,0.501v1.973
		l1.278,1.699l1.021,0.122l0.131-0.581l-1.206-1.47l-0.237-1.431h0.715l0.305,1.472l1.761,2.013l-0.472,0.649l1.128,1.345l2.78,0.54
		v-0.352l1.108,0.12l-0.102,0.627l0.869,0.119l1.351,0.296l1.908,1.702l2.43,0.143l0.238,1.561l-1.668,0.912l-0.083,1.386
		l-0.231,0.854l2.404,2.366l0.186,0.806c0,0,0.876,0.187,0.973,0.187c0.107,0,1.964,1.104,1.964,1.104v4.271l0.66,0.153
		l-0.461,1.969l1.113,1.161l-0.198,1.955l1.462,2.03L32.235,90l1.887,0.026l0.189-0.473l-1.386-0.918l0.082-0.459l0.254-0.565
		l0.054-0.565l-0.949-0.024l-0.486-0.465l0.792-0.595l0.108-0.443l-0.876-0.193l0.05-0.417l1.243-0.144l1.892-0.711l0.637-0.916
		l1.983-2.001l-0.452-1.554l0.607-0.831l1.823,0.043l1.225-0.757l0.399-3.013l0.228-0.228h-1.27v-3.378l-2.221-0.016l-2.222-0.663
		l-0.106-1.246l-0.743-1.02l-1.998-0.018l-1.167-1.435l-0.95-0.359v4.21H27.79V66.34l-1.593-0.253l-1.614,1.461l-2.532-0.336
		l-0.186-2.247l-1.857-0.25l0.745-1.097l-0.214-0.635l-2.427,1.279l-1.531-0.145l-0.553-0.942l0.339-0.974l0.846-1.219l1.94-0.774
		h3.759l-0.012,0.9l1.354,0.488l-0.112-1.537l0.972-0.766l1.963-1.013l0.127-0.709l0.587-0.478v-0.529h0.649l0.729-0.593
		l2.085-0.902l-0.185-0.116l1.405-1.044l0.521,0.104l0.237,0.235l0.535-0.47l0.122-0.047l-0.578-0.062l-0.594-0.156v-0.456
		l0.31-0.201h0.701l0.32,0.109l0.272,0.433l0.16-0.019v-2.845h-0.14l0.14-0.98V49.41l-2.236-0.42l-0.942,0.555v1.704l-1.686,0.415
		l-0.683,1.11l-0.729,0.09v-1.417l-1.585-0.175l-0.792-0.403l-0.321-0.914l2.839-1.306l1.387-0.332l0.135,0.73l0.779-0.031
		l0.063-0.368l0.807-0.09l0.009-0.124l-0.339-0.118l-0.083-0.387l0.991-0.068l0.599-0.491l0.044-0.034v0.004l0.18-0.149l1.564-0.154
		v-1.451L32.818,45.737z M20.351,49.596l-1.567,0.079l-0.295-0.278l1.108-0.25c0,0,0.7-0.098,0.754-0.098
		C20.403,49.049,20.351,49.596,20.351,49.596z M20.389,48.087l-0.336,0.339h-1.56v-0.495v-0.046h0.694l0.063-0.19h1.139V48.087z
		 M22.751,52.633l-0.813,0.206l-0.509-0.832l0.83-0.308l0.75,0.137L22.751,52.633z M23.66,56.072l-0.56-0.235l0.131-0.62
		l0.725-0.622h1.05L23.66,56.072z M26.018,56.428h-1.012l0.161-0.539l0.477-0.04l0.106-0.184l0.726-0.078v0.485h0.004L26.018,56.428
		z M26.717,55.092l-0.476,0.242l-0.598,0.082c0,0,0-0.743,0-0.82h1.073V55.092z M27.62,54.517l0.493,0.234l-0.395,0.253
		l-0.375-0.253L27.62,54.517z M26.979,55.139h0.079l1.215,0.276v0.489h-1.021l-0.272-0.313V55.139z M26.188,53.796l0.657,0.47
		l-0.657,0.125V53.796z M25.574,53.581v0.293h0.272v0.517h-1.909l-0.706-0.152l0.175-0.365l0.914-0.293H25.574z"/>
	<polygon points="34.48,48.796 34.48,48.208 33.504,48.616 	"/>
	<polygon points="36.703,53.126 36.785,53.419 37.553,53.693 37.553,52.896 	"/>
	<polygon points="35.931,53.831 35.9,53.655 36.41,53.371 36.41,52.969 35.867,52.86 35.729,53.233 34.759,53.355 34.657,53.333 
		34.657,53.359 34.48,53.379 34.48,53.831 	"/>
	<polygon points="61.584,48.904 61.91,48.746 61.91,48.049 60.329,48.919 60.327,49.249 61.584,49.249 	"/>
	<polygon points="110.959,49.548 110.482,49.083 110.482,49.084 110.482,50.136 	"/>
	<polygon points="113.426,49.859 112.469,49.91 112.469,44.754 117.423,42.221 112.469,39.688 112.469,39.458 111.569,39.458 
		111.569,50.189 111.916,50.189 113.294,51.199 113.426,51.199 	"/>
	<polygon points="113.943,73.102 113.915,72.729 113.403,72.517 113.403,73.102 	"/>
	<polygon points="88.343,67.158 88.521,67.158 88.521,66.438 88.412,67.079 	"/>
	<polygon points="68.491,79.171 68.306,79.203 68.491,79.203 	"/>
	<polygon points="12.288,48.238 13.316,48.238 13.316,35.975 12.288,35.975 12.288,36.236 6.627,39.131 12.288,42.025 	"/>
	<polygon points="36.596,40.556 35.567,40.556 35.567,47.356 35.016,46.986 34.48,47.039 34.48,48.208 35.567,47.755 35.567,52.82 
		36.596,52.82 36.596,46.608 42.256,43.713 36.596,40.82 	"/>
	<polygon points="28.877,57.598 28.877,69.862 29.905,69.862 29.905,63.65 35.566,60.755 29.905,57.861 29.905,57.598 	"/>
	<polygon points="41.356,63.286 36.402,65.819 41.356,68.352 41.356,73.787 42.256,73.787 42.256,63.056 41.356,63.056 	"/>
	<polygon points="60.054,48.238 60.953,48.238 60.953,37.507 60.054,37.507 60.054,37.737 55.1,40.269 60.054,42.802 	"/>
	<polygon points="115.391,66.914 115.391,66.684 114.49,66.684 114.49,77.414 115.391,77.414 115.391,71.98 120.344,69.446 	"/>
	<polygon points="86.664,55.416 86.664,66.147 87.563,66.147 87.563,60.712 92.518,58.179 87.563,55.646 87.563,55.416 	"/>
	<polygon points="101.947,48.167 106.901,45.635 101.947,43.102 101.947,42.872 101.048,42.872 101.048,53.603 101.947,53.603 	"/>
	<polygon points="66.635,67.462 66.635,78.193 67.534,78.193 67.534,72.756 72.488,70.225 67.534,67.691 67.534,67.462 	"/>
</g>
</svg>
