<?xml version="1.0" encoding="utf-8"?>
<!-- Generator: Adobe Illustrator 16.0.0, SVG Export Plug-In . SVG Version: 6.00 Build 0)  -->
<!DOCTYPE svg PUBLIC "-//W3C//DTD SVG 1.1//EN" "http://www.w3.org/Graphics/SVG/1.1/DTD/svg11.dtd">
<svg version="1.1" id="Layer_3" xmlns="http://www.w3.org/2000/svg" xmlns:xlink="http://www.w3.org/1999/xlink" x="0px" y="0px"
	 width="126px" height="126px" viewBox="0 0 126 126" enable-background="new 0 0 126 126" xml:space="preserve">
<g>
	<circle cx="63.291" cy="21.402" r="18.54"/>
	<path d="M115.068,59.183c-16.453,0-24.283-5.033-34.194-11.406c-1.712-1.1-3.448-2.216-5.253-3.322
		c-0.31-0.19-0.637-0.326-0.961-0.464c-2.065-1.379-4.386-2.394-6.751-2.974l-4.618,4.649l-4.479-4.7
		c-0.016,0.004-0.03,0.005-0.046,0.009c-2.194,0.524-4.347,1.43-6.3,2.648c-0.718,0.172-1.425,0.424-2.089,0.832
		c-1.805,1.106-3.541,2.222-5.252,3.322c-9.912,6.374-17.741,11.406-34.195,11.406c-3.975,0-7.197,3.223-7.197,7.198
		c0,3.976,3.223,7.197,7.197,7.197c15.193,0,25.062-3.76,33.385-8.423v29.397c-14.535,1.144-23.309,1.934-24.326,10.331
		c-0.413,3.41,0.649,6.756,2.995,9.422c6.612,7.516,24.699,8.76,34.893,8.833c0.021,0,0.041,0,0.063,0
		c2.161-0.001,4.131-0.815,5.632-2.147c1.502,1.332,3.472,2.147,5.634,2.147c0.021,0,0.041,0,0.062,0
		c10.193-0.073,28.281-1.317,34.894-8.833c2.345-2.666,3.408-6.012,2.995-9.42c-1.044-8.614-10.02-9.17-24.89-10.05V65.476
		c8.202,4.512,17.961,8.102,32.803,8.102c3.976,0,7.198-3.222,7.198-7.197C122.267,62.406,119.044,59.183,115.068,59.183z"/>
</g>
</svg>
