<?xml version="1.0" encoding="utf-8"?>
<!-- Generator: Adobe Illustrator 16.0.0, SVG Export Plug-In . SVG Version: 6.00 Build 0)  -->
<!DOCTYPE svg PUBLIC "-//W3C//DTD SVG 1.1//EN" "http://www.w3.org/Graphics/SVG/1.1/DTD/svg11.dtd">
<svg version="1.1" id="Layer_3" xmlns="http://www.w3.org/2000/svg" xmlns:xlink="http://www.w3.org/1999/xlink" x="0px" y="0px"
	 width="126px" height="126px" viewBox="0 0 126 126" enable-background="new 0 0 126 126" xml:space="preserve">
<g>
	<circle cx="70.223" cy="24.943" r="21.39"/>
	<path d="M119.691,98.244l-17.365-43.906c-3.223-8.149-12.539-10.785-19.83-9.786c0,0-2.344,0.202-4.551,1.132
		c-2.113,0.891-4.293,2.326-4.293,2.326l-0.055,0.032c-1.301,0.921-2.541,2.034-3.67,3.284c-0.32,0.181-0.645,0.35-0.947,0.579
		L20.084,88.995c-3.654,2.771-4.369,7.98-1.598,11.634c0.66,0.871,1.465,1.566,2.348,2.096h-5.766c-5.42,0-9.814,4.394-9.814,9.813
		c0,5.42,4.395,9.814,9.814,9.814H97.1c1.404,0.14,2.826,0.128,4.242,0h0.033c1.057,0,2.072-0.172,3.025-0.48
		c1.078-0.249,2.133-0.565,3.146-0.966c1.492-0.589,2.932-1.341,4.271-2.236C118.102,114.484,122.975,106.545,119.691,98.244z
		 M30.121,102.227L67.76,73.676l11.49,29.049H29.338C29.604,102.568,29.871,102.417,30.121,102.227z"/>
</g>
</svg>
