<?xml version="1.0" encoding="iso-8859-1"?>
<!-- Generator: Adobe Illustrator 17.1.0, SVG Export Plug-In . SVG Version: 6.00 Build 0)  -->
<!DOCTYPE svg PUBLIC "-//W3C//DTD SVG 1.1//EN" "http://www.w3.org/Graphics/SVG/1.1/DTD/svg11.dtd">
<svg version="1.1" id="Layer_1" xmlns="http://www.w3.org/2000/svg" xmlns:xlink="http://www.w3.org/1999/xlink" x="0px" y="0px"
	 viewBox="0 0 128 128" style="enable-background:new 0 0 128 128;" xml:space="preserve">
<g>
	<path d="M39.13,65.161c2.348,0.72,4.835-0.599,5.556-2.946c0.002,0,6.597-21.535,6.597-21.535c0.039-0.092,0.238-0.472,0.703-0.472
		c0.042,0,2.091,0,2.091,0c0.265-0.004,0.419,0.221,0.349,0.475L41.171,84.292c-0.072,0.254,0,0.697,0.463,0.697h9.2
		c0.265,0,0.458,0.214,0.458,0.479c0,0-0.002,31.525-0.002,31.536c0,3.168,2.568,5.736,5.736,5.736c3.168,0,5.736-2.568,5.736-5.736
		l0.002-31.537c0-0.265,0.214-0.478,0.478-0.478c0,0,1.769,0,1.979,0s0.486,0.214,0.486,0.478l0.002,31.537
		c0,3.168,2.568,5.736,5.736,5.736c3.168,0,5.736-2.568,5.736-5.736c0-0.011-0.002-31.536-0.002-31.536
		c0-0.265,0.193-0.479,0.458-0.479h8.844c0.463,0,0.535-0.444,0.463-0.697L73.669,40.683c-0.07-0.254,0.055-0.479,0.319-0.475
		c0,0,1.963,0,2.005,0c0.465,0,0.663,0.38,0.703,0.472c0,0,6.617,21.534,6.619,21.535c0.721,2.347,3.208,3.666,5.556,2.946
		c2.349-0.721,3.669-3.209,2.948-5.557c-0.003-0.009-3.908-12.745-6.591-21.492c-0.028-0.107-0.053-0.199-0.074-0.274
		c-1.016-3.532-4.034-11.575-11.536-11.575H54.513c-6.99,0-10.651,8.043-11.667,11.575c-0.022,0.075-6.662,21.757-6.665,21.765
		C35.461,61.952,36.781,64.44,39.13,65.161z"/>
	<path d="M48.983,14.166c1.155,2.401,2.338,5.157,3.093,5.249c0.751,0.095-1.657-5.694,0.074-7.499
		c0.302-0.316,1.018-0.471,1.457-0.432c0.218,0.018,0.471,0.056,0.751,0.123c0.425,0.105,0.642,0.583,0.548,1.011
		c-0.148,0.664-0.225,1.352-0.225,2.061c0,5.2,4.217,9.416,9.416,9.416c5.2,0,9.416-4.217,9.416-9.416
		c0-0.642-0.067-1.271-0.19-1.879c-0.088-0.428,0.127-0.934,0.541-1.074c0.45-0.151,0.846-0.218,1.162-0.246
		c0.435-0.035,1.152,0.116,1.457,0.432c1.731,1.804-0.681,7.594,0.074,7.499c0.748-0.088,1.931-2.844,3.087-5.245
		c0.19-0.393,0.509-1.029,0.646-1.446c0.846-2.581,0.148-6.323-3.107-6.646c-1.973-0.196-4.027,0.842-5.474,1.815
		c-0.365,0.246-0.885,0.193-1.204-0.105c-1.682-1.566-3.936-2.525-6.414-2.525c-2.384,0-4.561,0.888-6.218,2.349
		c-0.33,0.288-0.86,0.341-1.229,0.102c-1.425-0.917-3.346-1.822-5.2-1.636c-3.255,0.323-3.953,4.066-3.107,6.647
		C48.474,13.138,48.793,13.77,48.983,14.166z"/>
</g>
</svg>
