<?xml version="1.0" encoding="UTF-8" standalone="no"?>
<!-- Generator: Adobe Illustrator 16.0.4, SVG Export Plug-In . SVG Version: 6.00 Build 0)  -->

<svg
   xmlns:dc="http://purl.org/dc/elements/1.1/"
   xmlns:cc="http://creativecommons.org/ns#"
   xmlns:rdf="http://www.w3.org/1999/02/22-rdf-syntax-ns#"
   xmlns:svg="http://www.w3.org/2000/svg"
   xmlns="http://www.w3.org/2000/svg"
   xmlns:sodipodi="http://sodipodi.sourceforge.net/DTD/sodipodi-0.dtd"
   xmlns:inkscape="http://www.inkscape.org/namespaces/inkscape"
   version="1.1"
   id="Capa_1"
   x="0px"
   y="0px"
   width="21.783px"
   height="21.971px"
   viewBox="0 0 21.783 21.971"
   enable-background="new 0 0 21.783 21.971"
   xml:space="preserve"
   inkscape:version="0.48.5 r"
   sodipodi:docname="share11.svg"><metadata
     id="metadata9"><rdf:RDF><cc:Work
         rdf:about=""><dc:format>image/svg+xml</dc:format><dc:type
           rdf:resource="http://purl.org/dc/dcmitype/StillImage" /></cc:Work></rdf:RDF></metadata><defs
     id="defs7" /><sodipodi:namedview
     pagecolor="#ffffff"
     bordercolor="#666666"
     borderopacity="1"
     objecttolerance="10"
     gridtolerance="10"
     guidetolerance="10"
     inkscape:pageopacity="0"
     inkscape:pageshadow="2"
     inkscape:window-width="1280"
     inkscape:window-height="967"
     id="namedview5"
     showgrid="false"
     inkscape:zoom="10.741432"
     inkscape:cx="10.8915"
     inkscape:cy="10.9855"
     inkscape:window-x="0"
     inkscape:window-y="28"
     inkscape:window-maximized="1"
     inkscape:current-layer="Capa_1" /><path
     d="M17.778,13.964c-1.272,0-2.394,0.606-3.127,1.534l-6.799-3.477c0.089-0.332,0.153-0.675,0.153-1.036  c0-0.393-0.076-0.763-0.182-1.123l6.769-3.461c0.729,0.97,1.88,1.604,3.187,1.604c2.214,0,4.005-1.791,4.005-4.003  c0-2.21-1.791-4.002-4.005-4.002c-2.209,0-4.002,1.792-4.002,4.002c0,0.362,0.064,0.706,0.154,1.039L7.134,8.518  C6.4,7.589,5.276,6.981,4.002,6.981C1.79,6.981,0,8.774,0,10.985s1.79,4.003,4.002,4.003c1.309,0,2.459-0.636,3.191-1.607  l6.766,3.461c-0.106,0.359-0.183,0.732-0.183,1.126c0,2.211,1.793,4.003,4.002,4.003c2.214,0,4.005-1.792,4.005-4.003  C21.783,15.755,19.992,13.964,17.778,13.964z"
     id="path3" /><path
     style="fill:#ffffff;fill-opacity:1;fill-rule:evenodd;stroke:#0f0000;stroke-width:0.09309746;stroke-opacity:1"
     d="m 16.691485,21.751651 c -2.025829,-0.623988 -3.236542,-2.719578 -2.73219,-4.729075 0.05183,-0.206518 -0.142957,-0.320327 -3.36598,-1.966642 L 7.1723187,13.308493 6.9325618,13.589952 C 6.0067686,14.67677 4.3137452,15.17914 2.9458631,14.772923 0.03383885,13.908144 -0.88430202,10.333235 1.2559444,8.1929888 2.7379053,6.7110279 5.1151911,6.684532 6.6877146,8.1324492 L 7.1582923,8.5657385 10.18396,7.0263121 C 11.848077,6.1796276 13.381961,5.3892432 13.592591,5.2699023 L 13.975556,5.0529188 13.882109,4.5803112 C 13.767511,4.0007237 13.918964,2.9515052 14.202061,2.3637921 15.251549,0.18504076 17.886557,-0.57376868 19.917697,0.71784686 21.200796,1.5337777 21.917372,3.1373137 21.662861,4.6231332 21.258522,6.9836495 18.812716,8.4885301 16.594899,7.7414014 15.883526,7.5017574 15.65331,7.3591965 15.062719,6.7926046 L 14.588375,6.3375349 11.172831,8.0853956 7.7572861,9.8332563 7.830179,10.116122 c 0.081267,0.315361 0.097234,1.371528 0.025948,1.716429 -0.043381,0.209889 0.158562,0.32844 3.362862,1.974165 l 3.409015,1.750866 0.444429,-0.425837 c 1.310737,-1.255907 3.285771,-1.448655 4.815696,-0.469975 2.806876,1.795537 2.255455,5.9607 -0.934426,7.058179 -0.611273,0.210309 -1.635743,0.224666 -2.262218,0.0317 l 0,0 z"
     id="path2986"
     inkscape:connector-curvature="0" /></svg>