<?xml version="1.0" encoding="UTF-8" standalone="no"?>
<!-- Generator: Adobe Illustrator 16.0.0, SVG Export Plug-In . SVG Version: 6.00 Build 0)  -->

<svg
   xmlns:dc="http://purl.org/dc/elements/1.1/"
   xmlns:cc="http://creativecommons.org/ns#"
   xmlns:rdf="http://www.w3.org/1999/02/22-rdf-syntax-ns#"
   xmlns:svg="http://www.w3.org/2000/svg"
   xmlns="http://www.w3.org/2000/svg"
   xmlns:sodipodi="http://sodipodi.sourceforge.net/DTD/sodipodi-0.dtd"
   xmlns:inkscape="http://www.inkscape.org/namespaces/inkscape"
   version="1.1"
   id="Layer_1"
   x="0px"
   y="0px"
   width="36px"
   height="36px"
   viewBox="0 0 36 36"
   style="enable-background:new 0 0 36 36;"
   xml:space="preserve"
   inkscape:version="0.48.5 r"
   sodipodi:docname="sunlight.svg"><metadata
     id="metadata27"><rdf:RDF><cc:Work
         rdf:about=""><dc:format>image/svg+xml</dc:format><dc:type
           rdf:resource="http://purl.org/dc/dcmitype/StillImage" /></cc:Work></rdf:RDF></metadata><defs
     id="defs25" /><sodipodi:namedview
     pagecolor="#ffffff"
     bordercolor="#666666"
     borderopacity="1"
     objecttolerance="10"
     gridtolerance="10"
     guidetolerance="10"
     inkscape:pageopacity="0"
     inkscape:pageshadow="2"
     inkscape:window-width="1280"
     inkscape:window-height="967"
     id="namedview23"
     showgrid="false"
     inkscape:zoom="6.5555556"
     inkscape:cx="18"
     inkscape:cy="18"
     inkscape:window-x="0"
     inkscape:window-y="28"
     inkscape:window-maximized="1"
     inkscape:current-layer="Layer_1" /><g
     id="g3"><circle
       style="fill:#010101;"
       cx="19.331"
       cy="19.137"
       r="8.062"
       id="circle5" /><path
       style="fill:#010101;"
       d="M8.893,20.477c0.047-0.035,0.074-0.09,0.074-0.149v-2.381c0-0.058-0.027-0.113-0.074-0.149   S8.787,17.75,8.73,17.766l-4.424,1.19c-0.164,0.044-0.164,0.318,0,0.363l4.424,1.19C8.785,20.524,8.846,20.512,8.893,20.477z"
       id="path7" /><path
       style="fill:#010101;"
       d="M34.488,18.956l-4.422-1.19c-0.057-0.015-0.117-0.003-0.164,0.032s-0.072,0.091-0.072,0.149v2.381   c0,0.059,0.025,0.114,0.072,0.149c0.047,0.036,0.107,0.047,0.164,0.032l4.422-1.19C34.652,19.274,34.652,19,34.488,18.956z"
       id="path9" /><path
       style="fill:#010101;"
       d="M20.521,29.247h-2.381c-0.059,0-0.115,0.027-0.148,0.074c-0.037,0.046-0.049,0.106-0.033,0.162   l1.189,4.423c0.045,0.164,0.32,0.164,0.363,0l1.191-4.423c0.014-0.056,0.002-0.116-0.033-0.163   C20.635,29.274,20.58,29.247,20.521,29.247z"
       id="path11" /><path
       style="fill:#010101;"
       d="M18.141,9.028h2.381c0.059,0,0.113-0.027,0.148-0.074s0.047-0.106,0.033-0.163l-1.191-4.423   c-0.043-0.164-0.318-0.164-0.363,0l-1.189,4.423c-0.016,0.056-0.004,0.116,0.033,0.162C18.025,9,18.082,9.028,18.141,9.028z"
       id="path13" /><path
       style="fill:#010101;"
       d="M11.34,25.444c-0.041-0.042-0.1-0.061-0.156-0.053c-0.059,0.007-0.109,0.042-0.139,0.092   l-2.285,3.97c-0.086,0.146,0.107,0.34,0.256,0.256l3.969-2.286c0.051-0.029,0.084-0.08,0.094-0.138   c0.006-0.058-0.014-0.115-0.055-0.157L11.34,25.444z"
       id="path15" /><path
       style="fill:#010101;"
       d="M27.32,12.831c0.041,0.042,0.1,0.061,0.158,0.053c0.057-0.008,0.107-0.042,0.139-0.092l2.285-3.97   c0.084-0.147-0.109-0.341-0.258-0.256l-3.969,2.286c-0.049,0.028-0.084,0.08-0.092,0.138c-0.008,0.058,0.012,0.116,0.053,0.157   L27.32,12.831z"
       id="path17" /><path
       style="fill:#010101;"
       d="M26.703,25.483c-0.029-0.05-0.08-0.084-0.137-0.092c-0.059-0.008-0.117,0.012-0.158,0.054   l-1.684,1.683c-0.041,0.042-0.061,0.1-0.053,0.157c0.008,0.058,0.041,0.109,0.092,0.138l3.969,2.286   c0.148,0.084,0.342-0.109,0.258-0.256L26.703,25.483z"
       id="path19" /><path
       style="fill:#010101;"
       d="M10.148,12.807c0.025,0.047,0.072,0.077,0.127,0.082s0.111-0.017,0.152-0.058l1.684-1.684   c0.041-0.041,0.063-0.097,0.057-0.152c-0.002-0.054-0.033-0.102-0.08-0.127L8.418,8.88C8.281,8.807,8.086,9,8.16,9.137   L10.148,12.807z"
       id="path21" /></g><path
     style="fill:#ff0000;fill-opacity:1;fill-rule:evenodd;stroke:#ff0000;stroke-width:0.15254237;stroke-opacity:1"
     d="m 18.199369,27.023345 c -4.465376,-0.672157 -7.588109,-5.102234 -6.683159,-9.481091 0.276135,-1.336157 1.169089,-2.943937 2.217123,-3.991971 3.181077,-3.181077 8.005131,-3.164338 11.204972,0.03888 3.174016,3.177367 3.147197,8.029704 -0.06184,11.189306 -1.787626,1.760088 -4.295745,2.60333 -6.677094,2.244875 z"
     id="path3004"
     inkscape:connector-curvature="0" /><path
     style="fill:#ff0000;fill-opacity:1;fill-rule:evenodd;stroke:#ff0000;stroke-width:0.15254237;stroke-opacity:1"
     d="m 27.823729,29.100049 c -0.461441,-0.274791 -1.344268,-0.791683 -1.961838,-1.14865 l -1.122854,-0.649029 0.882134,-0.891435 c 0.485173,-0.49029 0.929747,-0.862008 0.987942,-0.826042 0.114177,0.07056 2.282412,3.834149 2.282412,3.96177 0,0.147726 -0.234366,0.0497 -1.067796,-0.446614 z"
     id="path3006"
     inkscape:connector-curvature="0" /><path
     style="fill:#ff0000;fill-opacity:1;fill-rule:evenodd;stroke:#ff0000;stroke-width:0.15254237;stroke-opacity:1"
     d="m 19.236719,33.790657 c -0.07904,-0.130943 -1.175702,-4.214031 -1.175702,-4.377378 0,-0.05205 0.5881,-0.09464 1.30689,-0.09464 1.173764,0 1.298653,0.02719 1.226034,0.266949 -0.04447,0.146822 -0.318318,1.148246 -0.608548,2.225387 -0.536819,1.992307 -0.615485,2.200321 -0.748674,1.979677 l 0,0 z"
     id="path3008"
     inkscape:connector-curvature="0" /><path
     style="fill:#ff0000;fill-opacity:1;fill-rule:evenodd;stroke:#ff0000;stroke-width:0.15254237;stroke-opacity:1"
     d="m 8.9084746,29.50062 c 0,-0.117018 2.0505934,-3.768472 2.2398254,-3.988417 0.03272,-0.03803 0.473971,0.345322 0.98055,0.851902 l 0.921054,0.921054 -1.956308,1.117791 c -1.075969,0.614785 -2.0077909,1.145014 -2.0707146,1.178287 -0.062924,0.03327 -0.1144068,-0.003 -0.1144068,-0.08062 z"
     id="path3010"
     inkscape:connector-curvature="0" /><path
     style="fill:#ff0000;fill-opacity:1;fill-rule:evenodd;stroke:#ff0000;stroke-width:0.15254237;stroke-opacity:1"
     d="M 6.5624614,19.853379 C 4.5476408,19.290797 4.1995722,19.164237 4.3449152,19.047065 c 0.081145,-0.06542 4.2962784,-1.175701 4.4491526,-1.171925 0.062924,0.0016 0.1144068,0.586301 0.1144068,1.299436 0,0.713136 -0.051483,1.290616 -0.1144068,1.28329 -0.062924,-0.0073 -1.0671466,-0.279345 -2.2316064,-0.604487 l 0,0 z"
     id="path3012"
     inkscape:connector-curvature="0" /><path
     style="fill:#ff0000;fill-opacity:1;fill-rule:evenodd;stroke:#ff0000;stroke-width:0.15254237;stroke-opacity:1"
     d="M 9.2261456,10.924343 C 8.7021065,9.9523932 8.3093101,9.1211983 8.3532648,9.0772436 c 0.075831,-0.075831 3.1555672,1.5011094 3.5758792,1.8309834 0.153987,0.120855 0.01801,0.338794 -0.604959,0.969597 -0.441977,0.447536 -0.880464,0.813701 -0.974417,0.813701 -0.09395,0 -0.5995832,-0.795231 -1.1236224,-1.767182 z"
     id="path3014"
     inkscape:connector-curvature="0" /><path
     style="fill:#ff0000;fill-opacity:1;fill-rule:evenodd;stroke:#ff0000;stroke-width:0.15254237;stroke-opacity:1"
     d="m 18.061017,8.7785002 c 0,-0.1014107 1.024638,-3.9212661 1.155567,-4.3079604 0.119996,-0.3544039 0.209547,-0.1307632 0.734057,1.8332086 0.277288,1.0382774 0.55366,2.0422262 0.614158,2.2309974 0.108255,0.337784 0.0893,0.3432203 -1.196892,0.3432203 -0.71879,0 -1.30689,-0.04476 -1.30689,-0.099466 z"
     id="path3016"
     inkscape:connector-curvature="0" /><path
     style="fill:#ff0000;fill-opacity:1;fill-rule:evenodd;stroke:#ff0000;stroke-width:0.15254237;stroke-opacity:1"
     d="m 26.522344,11.910697 c -0.500764,-0.513355 -0.841836,-0.962536 -0.757937,-0.998181 0.0839,-0.03565 1.010593,-0.570391 2.059322,-1.1883252 1.048729,-0.6179339 1.933121,-1.0977073 1.965317,-1.0661632 0.05257,0.05151 -2.24136,4.1860404 -2.322513,4.1860404 -0.01854,0 -0.443426,-0.420017 -0.944189,-0.933371 z"
     id="path3018"
     inkscape:connector-curvature="0" /><path
     style="fill:#ff0000;fill-opacity:1;fill-rule:evenodd;stroke:#ff0000;stroke-width:0.15254237;stroke-opacity:1"
     d="m 29.959322,19.163573 c 0,-0.707084 0.04259,-1.285607 0.09464,-1.285607 0.256407,0 4.269197,1.11173 4.375356,1.212177 0.121018,0.114507 -0.295363,0.248398 -3.058974,0.983643 l -1.411017,0.375395 0,-1.285608 z"
     id="path3020"
     inkscape:connector-curvature="0" /></svg>