<?xml version="1.0" encoding="utf-8"?><!-- Generator: Adobe Illustrator 15.0.0, SVG Export Plug-In . SVG Version: 6.00 Build 0)  --><!DOCTYPE svg PUBLIC "-//W3C//DTD SVG 1.1//EN" "http://www.w3.org/Graphics/SVG/1.1/DTD/svg11.dtd"><svg xmlns="http://www.w3.org/2000/svg" xmlns:xlink="http://www.w3.org/1999/xlink" version="1.1" id="Слой_1" x="0px" y="0px" width="4096" height="4096" viewBox="0 0 48 48" enable-background="new 0 0 48 48" xml:space="preserve">
<g>
	<path fill="#FFA726" d="M14,27c0,2.209-1.791,4-4,4s-4-1.791-4-4s1.791-4,4-4S14,24.791,14,27"/>
	<path fill="#FFA726" d="M42,27c0,2.209-1.791,4-4,4s-4-1.791-4-4s1.791-4,4-4S42,24.791,42,27"/>
</g>
<path fill="#FFB74D" d="M9,20c0-12.725,30-8.284,30,0v10c0,8.284-6.716,15-15,15S9,38.284,9,30V20z"/>
<path fill="#424242" d="M40.891,19.338C40.417,13.365,38.33,7.482,31,6l-2-3h-5C14.772,3,7,10.48,7,21v3.4l3,3.6v-6l21-7l7,6v7  l3-3.6V21C41,20.436,40.957,19.883,40.891,19.338"/>
<g>
	<path fill="#784719" d="M33,28c0,1.105-0.895,2-2,2s-2-0.895-2-2s0.895-2,2-2S33,26.895,33,28"/>
	<path fill="#784719" d="M19,28c0,1.105-0.895,2-2,2s-2-0.895-2-2s0.895-2,2-2S19,26.895,19,28"/>
</g>
<path fill="#FB8C00" d="M19,37h10c0,0-2,3-5,3S19,37,19,37z"/>
</svg>