<?xml version="1.0" encoding="utf-8"?><!-- Generator: Adobe Illustrator 15.0.0, SVG Export Plug-In . SVG Version: 6.00 Build 0)  --><!DOCTYPE svg PUBLIC "-//W3C//DTD SVG 1.1//EN" "http://www.w3.org/Graphics/SVG/1.1/DTD/svg11.dtd"><svg xmlns="http://www.w3.org/2000/svg" xmlns:xlink="http://www.w3.org/1999/xlink" version="1.1" id="Слой_1" x="0px" y="0px" width="4096" height="4096" viewBox="0 0 48 48" enable-background="new 0 0 48 48" xml:space="preserve">
<path fill="#BF360C" d="M35,44c0,0-6-2-11-2s-11,2-11,2V32h22V44z"/>
<g>
	<path fill="#FFA726" d="M14,28c0,2.209-1.791,4-4,4s-4-1.791-4-4s1.791-4,4-4S14,25.791,14,28"/>
	<path fill="#FFA726" d="M42,28c0,2.209-1.791,4-4,4s-4-1.791-4-4s1.791-4,4-4S42,25.791,42,28"/>
</g>
<path fill="#FFB74D" d="M38,18c0-12.725-28-8.284-28,0v9c0,8.284,6.269,15,14,15s14-6.716,14-15V18z"/>
<g>
	<path fill="#784719" d="M32,26c0,1.105-0.895,2-2,2s-2-0.895-2-2s0.895-2,2-2S32,24.895,32,26"/>
	<path fill="#784719" d="M20,26c0,1.105-0.895,2-2,2s-2-0.895-2-2s0.895-2,2-2S20,24.895,20,26"/>
</g>
<path fill="#FF5722" d="M24,4C15.495,4,3,9,2.875,36L13,44V24l16.75-9l5.125,7L35,44l10-8c0-12-0.543-29-15-29l-2-3H24z"/>
<path fill="#FB8C00" d="M19,35h10c0,0-2,3-5,3S19,35,19,35z"/>
</svg>