<?xml version="1.0" encoding="UTF-8" standalone="no"?>
<!-- Generator: Adobe Illustrator 17.1.0, SVG Export Plug-In . SVG Version: 6.00 Build 0)  -->

<svg
   xmlns:dc="http://purl.org/dc/elements/1.1/"
   xmlns:cc="http://creativecommons.org/ns#"
   xmlns:rdf="http://www.w3.org/1999/02/22-rdf-syntax-ns#"
   xmlns:svg="http://www.w3.org/2000/svg"
   xmlns="http://www.w3.org/2000/svg"
   xmlns:sodipodi="http://sodipodi.sourceforge.net/DTD/sodipodi-0.dtd"
   xmlns:inkscape="http://www.inkscape.org/namespaces/inkscape"
   version="1.1"
   id="Capa_1"
   x="0px"
   y="0px"
   viewBox="0 0 200 200"
   style="enable-background:new 0 0 200 200;"
   xml:space="preserve"
   inkscape:version="0.48.5 r"
   width="100%"
   height="100%"
   sodipodi:docname="circular149.svg"><metadata
     id="metadata11"><rdf:RDF><cc:Work
         rdf:about=""><dc:format>image/svg+xml</dc:format><dc:type
           rdf:resource="http://purl.org/dc/dcmitype/StillImage" /></cc:Work></rdf:RDF></metadata><defs
     id="defs9" /><sodipodi:namedview
     pagecolor="#ffffff"
     bordercolor="#666666"
     borderopacity="1"
     objecttolerance="10"
     gridtolerance="10"
     guidetolerance="10"
     inkscape:pageopacity="0"
     inkscape:pageshadow="2"
     inkscape:window-width="1280"
     inkscape:window-height="967"
     id="namedview7"
     showgrid="false"
     inkscape:zoom="1.18"
     inkscape:cx="100"
     inkscape:cy="100"
     inkscape:window-x="0"
     inkscape:window-y="28"
     inkscape:window-maximized="1"
     inkscape:current-layer="Capa_1" /><g
     id="g3"><path
       d="M100.399,171.15c-34.545,0-62.649-28.104-62.649-62.649c0-4.142-3.358-7.5-7.5-7.5s-7.5,3.358-7.5,7.5   c0,42.816,34.833,77.649,77.649,77.649s77.649-34.833,77.649-77.649c0-38.223-27.767-70.064-64.186-76.458   c-1.632-0.287-2.963-1.804-2.963-3.461V14.953c0-1.657-1.04-2.15-2.323-1.102L80.922,36.453c-1.283,1.049-1.283,2.748,0,3.797   l27.654,22.602c1.283,1.049,2.323,0.555,2.323-1.102V49.749c0-1.657,1.327-2.783,2.945-2.427   c28.103,6.171,49.205,31.25,49.205,61.179C163.048,143.046,134.944,171.15,100.399,171.15z"
       id="path5" /></g><path
     style="fill:#ffffff;fill-opacity:1;fill-rule:evenodd;stroke:#0f0000;stroke-width:0.84745765;stroke-opacity:1"
     d="m 90.59322,185.2126 c -28.000043,-4.52902 -50.961145,-22.28933 -61.478625,-47.55345 -3.198592,-7.68336 -5.867443,-19.80617 -5.883123,-26.72309 -0.01362,-6.00958 2.351215,-9.07165 7.006012,-9.07165 4.752354,0 6.651708,2.86316 7.426126,11.19444 0.878078,9.44646 2.137238,14.23108 5.863423,22.28013 9.726819,21.01122 30.042786,34.61226 53.460967,35.7908 25.83332,1.30009 48.07401,-11.62429 59.67619,-34.67869 5.16471,-10.26264 6.68042,-17.73564 6.21228,-30.62865 -0.63,-17.351353 -5.89033,-29.482759 -18.06172,-41.654147 -3.73747,-3.737476 -9.01334,-8.100902 -11.72417,-9.696501 -6.40823,-3.77192 -18.15659,-7.923117 -20.65128,-7.296986 -1.83181,0.459752 -1.93083,0.878536 -1.93083,8.166198 0,4.414549 -0.33783,7.561451 -0.79433,7.399109 C 109.27725,62.584746 102.59717,57.309322 94.869524,51.016949 85.74386,43.58622 80.898451,39.091547 81.045218,38.193318 81.244577,36.973217 108.77336,13.728814 110.01898,13.728814 c 0.26922,0 0.48949,3.766864 0.48949,8.370809 0,5.693729 0.34115,8.653937 1.06672,9.256104 0.58669,0.486911 3.59541,1.471739 6.68605,2.188505 22.46012,5.208849 43.34262,22.67236 52.81473,44.167632 4.66464,10.585583 5.9647,17.516426 5.8816,31.355936 -0.0677,11.27903 -0.33672,13.57156 -2.38649,20.33898 -6.45737,21.31926 -20.65664,38.34849 -39.91006,47.86426 -11.27113,5.57062 -19.5729,7.67388 -31.77966,8.05139 -5.360174,0.16577 -10.889835,0.11635 -12.28814,-0.10983 z"
     id="path2988"
     inkscape:connector-curvature="0" /></svg>