<?xml version="1.0" encoding="UTF-8" standalone="no"?>
<!-- Generator: Adobe Illustrator 17.1.0, SVG Export Plug-In . SVG Version: 6.00 Build 0)  -->

<svg
   xmlns:dc="http://purl.org/dc/elements/1.1/"
   xmlns:cc="http://creativecommons.org/ns#"
   xmlns:rdf="http://www.w3.org/1999/02/22-rdf-syntax-ns#"
   xmlns:svg="http://www.w3.org/2000/svg"
   xmlns="http://www.w3.org/2000/svg"
   xmlns:sodipodi="http://sodipodi.sourceforge.net/DTD/sodipodi-0.dtd"
   xmlns:inkscape="http://www.inkscape.org/namespaces/inkscape"
   version="1.1"
   id="Capa_1"
   x="0px"
   y="0px"
   viewBox="0 0 200 200"
   style="enable-background:new 0 0 200 200;"
   xml:space="preserve"
   inkscape:version="0.48.5 r"
   width="100%"
   height="100%"
   sodipodi:docname="power79.svg"><metadata
     id="metadata13"><rdf:RDF><cc:Work
         rdf:about=""><dc:format>image/svg+xml</dc:format><dc:type
           rdf:resource="http://purl.org/dc/dcmitype/StillImage" /></cc:Work></rdf:RDF></metadata><defs
     id="defs11" /><sodipodi:namedview
     pagecolor="#ffffff"
     bordercolor="#666666"
     borderopacity="1"
     objecttolerance="10"
     gridtolerance="10"
     guidetolerance="10"
     inkscape:pageopacity="0"
     inkscape:pageshadow="2"
     inkscape:window-width="1280"
     inkscape:window-height="967"
     id="namedview9"
     showgrid="false"
     inkscape:zoom="1.18"
     inkscape:cx="-37.711864"
     inkscape:cy="100"
     inkscape:window-x="0"
     inkscape:window-y="28"
     inkscape:window-maximized="1"
     inkscape:current-layer="Capa_1" /><g
     id="g3"><path
       d="M99,196c46.076,0,83.562-37.486,83.562-83.563c0-32.373-18.517-60.484-45.505-74.354V55.44   c18.378,12.312,30.505,33.263,30.505,56.997C167.562,150.243,136.806,181,99,181s-68.563-30.757-68.563-68.563   c0-23.734,12.126-44.685,30.505-56.997V38.083c-26.987,13.87-45.505,41.981-45.505,74.354C15.437,158.514,52.924,196,99,196z"
       id="path5" /><path
       d="M99,30c-4.451,0-8.058,3.608-8.058,8.058v6.306v69.592c0,4.45,3.607,8.058,8.058,8.058s8.058-3.608,8.058-8.058V44.364   v-6.306C107.058,33.608,103.451,30,99,30z"
       id="path7" /></g><path
     style="fill:#ffffff;fill-opacity:1;fill-rule:evenodd;stroke:#0f0000;stroke-width:0.84745765;stroke-opacity:1"
     d="M 91.016949,194.99147 C 71.330358,193.11903 50.148753,182.42343 37.349235,167.89209 27.861258,157.12036 20.48701,142.68097 17.694645,129.40678 15.802084,120.41003 15.770273,104.32883 17.628427,95.932203 22.732186,72.869336 37.262213,52.4472 56.483051,41.321538 l 4.025424,-2.33005 0,8.006361 0,8.00636 -4.991719,3.921717 c -16.697348,13.118181 -26.582175,35.765638 -25.21415,57.768994 0.499901,8.04043 3.554509,20.11055 6.610397,26.12063 14.764744,29.03817 47.006861,44.02214 78.680217,36.56531 7.69975,-1.81276 21.52825,-8.82886 27.3621,-13.8826 18.23676,-15.79809 27.0488,-37.51031 24.38788,-60.08995 -2.21246,-18.774316 -9.52533,-32.7732 -23.57201,-45.1235 l -6.14407,-5.402063 0,-7.934221 0,-7.93422 3.17796,1.891815 c 19.39851,11.547763 33.30262,30.275246 38.84657,52.322563 3.69798,14.706156 2.65323,33.272876 -2.66769,47.409266 -7.44939,19.79122 -21.74719,35.96093 -40.25654,45.52705 -8.30361,4.29153 -19.36797,7.73942 -27.19556,8.47473 -2.95863,0.27792 -6.71406,0.62491 -8.34542,0.77109 -1.631355,0.14618 -6.207626,-0.0425 -10.169491,-0.41935 l 0,0 z"
     id="path2990"
     inkscape:connector-curvature="0" /><path
     style="fill:#ffffff;fill-opacity:1;fill-rule:evenodd;stroke:#0f0000;stroke-width:0.84745765;stroke-opacity:1"
     d="m 94.662163,119.85403 c -1.024794,-0.80531 -2.264201,-2.53775 -2.754238,-3.84988 -1.235889,-3.30922 -1.217703,-76.508895 0.01989,-80.059059 1.871099,-5.367439 8.191585,-6.950497 12.109165,-3.032918 l 2.23421,2.234206 0,40.87057 0,40.870571 -2.23421,2.23421 c -2.62716,2.62716 -6.571466,2.93527 -9.374818,0.7323 l 0,0 z"
     id="path2992"
     inkscape:connector-curvature="0" /></svg>