<?xml version="1.0" encoding="UTF-8" standalone="no"?>
<!-- Generator: Adobe Illustrator 17.1.0, SVG Export Plug-In . SVG Version: 6.00 Build 0)  -->

<svg
   xmlns:dc="http://purl.org/dc/elements/1.1/"
   xmlns:cc="http://creativecommons.org/ns#"
   xmlns:rdf="http://www.w3.org/1999/02/22-rdf-syntax-ns#"
   xmlns:svg="http://www.w3.org/2000/svg"
   xmlns="http://www.w3.org/2000/svg"
   xmlns:sodipodi="http://sodipodi.sourceforge.net/DTD/sodipodi-0.dtd"
   xmlns:inkscape="http://www.inkscape.org/namespaces/inkscape"
   version="1.1"
   id="Capa_1"
   x="0px"
   y="0px"
   viewBox="0 0 200 200"
   style="enable-background:new 0 0 200 200;"
   xml:space="preserve"
   inkscape:version="0.48.5 r"
   width="100%"
   height="100%"
   sodipodi:docname="gear24.svg"><metadata
     id="metadata11"><rdf:RDF><cc:Work
         rdf:about=""><dc:format>image/svg+xml</dc:format><dc:type
           rdf:resource="http://purl.org/dc/dcmitype/StillImage" /></cc:Work></rdf:RDF></metadata><defs
     id="defs9" /><sodipodi:namedview
     pagecolor="#ffffff"
     bordercolor="#666666"
     borderopacity="1"
     objecttolerance="10"
     gridtolerance="10"
     guidetolerance="10"
     inkscape:pageopacity="0"
     inkscape:pageshadow="2"
     inkscape:window-width="1280"
     inkscape:window-height="967"
     id="namedview7"
     showgrid="false"
     inkscape:zoom="1.18"
     inkscape:cx="100"
     inkscape:cy="100"
     inkscape:window-x="0"
     inkscape:window-y="28"
     inkscape:window-maximized="1"
     inkscape:current-layer="Capa_1" /><g
     id="g3"><path
       d="M192.134,121h3v-3V83v-3h-3h-23.817c-1.401-4.794-3.31-9.431-5.697-13.836l16.817-16.817l2.121-2.121l-2.121-2.121   l-24.749-24.749l-2.121-2.122l-2.121,2.122l-16.879,16.879c-4.177-2.238-8.556-4.052-13.067-5.412V8.366v-3h-3h-35h-3v3v23.458   c-4.284,1.292-8.444,2.989-12.416,5.062l-16.53-16.53l-2.121-2.122l-2.121,2.122L21.563,45.104l-2.121,2.121l2.121,2.121   l16.171,16.171c-2.391,4.299-4.322,8.817-5.762,13.482H8.866h-3v3v35v3h3h22.817c1.469,5.026,3.498,9.88,6.053,14.48   l-16.173,16.173l-2.121,2.121l2.121,2.121l24.749,24.749l2.121,2.122l2.121-2.122l16.529-16.529   c4.268,2.233,8.765,4.025,13.417,5.346v23.173v3h3h35h3v-3v-23.766c4.159-1.318,8.203-3.027,12.069-5.101l16.877,16.876   l2.121,2.122l2.121-2.122l24.749-24.749l2.121-2.121l-2.121-2.121l-16.817-16.817c2.227-4.107,4.038-8.409,5.406-12.836H192.134z    M142.5,100c0,23.435-19.065,42.5-42.5,42.5S57.5,123.435,57.5,100S76.565,57.5,100,57.5S142.5,76.565,142.5,100z"
       id="path5" /></g><path
     style="fill:#000000;fill-opacity:1;fill-rule:evenodd;stroke:#0f0000;stroke-width:0.84745765;stroke-opacity:1"
     d="M 88.045364,140.12493 C 66.713636,133.10558 53.894454,111.07296 59.228043,90.595927 65.440772,66.743647 90.347887,52.455059 112.5351,60.015002 c 9.52137,3.244258 18.85069,10.80131 23.81098,19.287677 13.45426,23.018341 0.92023,53.456361 -25.12058,61.003571 -6.12335,1.77468 -17.506442,1.68564 -23.180136,-0.18132 z"
     id="path2988"
     inkscape:connector-curvature="0" /><path
     style="fill:#ffffff;fill-opacity:1;fill-rule:evenodd;stroke:#0f0000;stroke-width:0.84745765;stroke-opacity:1"
     d="m 80.847458,181.15881 c 0,-12.82947 -0.0363,-13.08932 -1.90678,-13.64696 -1.048729,-0.31266 -4.125001,-1.54592 -6.83616,-2.74057 l -4.929382,-2.1721 -9.271188,9.24244 -9.271189,9.24244 -14.180445,-14.18044 -14.180445,-14.18045 9.041384,-9.11582 9.041385,-9.11582 -1.963996,-3.81356 c -1.080197,-2.09746 -2.448321,-5.43433 -3.040274,-7.41526 l -1.076279,-3.60169 -13.001452,0 -13.0014506,0 0,-19.915257 0,-19.915255 13.1355936,0 c 8.730728,0 13.135593,-0.30281 13.135593,-0.903 0,-0.49665 1.289656,-3.69429 2.865901,-7.105867 l 2.865901,-6.202868 -9.224519,-9.195916 -9.22452,-9.195917 14.186301,-14.204736 14.186301,-14.204736 9.42524,9.398501 9.42524,9.398502 3.297925,-1.658654 c 1.813859,-0.91226 4.72801,-2.121192 6.475891,-2.686517 L 80,32.241437 80,19.171566 80,6.1016949 l 19.915254,0 19.915256,0 0,12.9728581 0,12.972856 5.72034,2.335211 c 3.14618,1.284366 6.29237,2.516686 6.99152,2.738489 0.79842,0.253295 4.73377,-3.0771 10.58145,-8.954821 l 9.31026,-9.358101 14.20473,14.186301 14.20474,14.186301 -9.29574,9.333334 -9.29573,9.333335 2.90995,7.203389 2.90994,7.20339 13.1674,0.233384 13.16741,0.233384 0,19.893735 0,19.89373 -13.34746,0.0214 -13.34746,0.0214 -2.86247,6.84838 -2.86247,6.84839 9.42845,9.45528 9.42846,9.45528 -13.97914,13.95988 -13.97913,13.95988 -9.536,-9.43448 -9.536,-9.43449 -6.35593,2.74565 -6.35594,2.74564 -0.23338,13.26837 -0.23339,13.26832 -19.89373,0 -19.893732,0 0,-13.07848 z M 112.32598,140.85738 C 138.85599,132.55736 150.63603,102.8293 137.03671,78.497474 129.59503,65.182843 112.4073,55.971215 97.372881,57.239956 78.185053,58.859199 63.006696,71.667335 58.486234,90.054144 c -3.597426,14.632386 0.436043,28.822106 11.331283,39.863346 8.668165,8.78433 17.475775,12.50266 29.796602,12.57931 5.049871,0.0314 8.999341,-0.47794 12.711861,-1.63942 l 0,0 z"
     id="path2990"
     inkscape:connector-curvature="0" /></svg>