<?xml version="1.0" encoding="iso-8859-1"?>
<!-- Generator: Adobe Illustrator 16.0.4, SVG Export Plug-In . SVG Version: 6.00 Build 0)  -->
<!DOCTYPE svg PUBLIC "-//W3C//DTD SVG 1.1//EN" "http://www.w3.org/Graphics/SVG/1.1/DTD/svg11.dtd">
<svg version="1.1" id="Capa_1" xmlns="http://www.w3.org/2000/svg" xmlns:xlink="http://www.w3.org/1999/xlink" x="0px" y="0px"
	 width="64px" height="64px" viewBox="0 0 64 64" style="enable-background:new 0 0 64 64;" xml:space="preserve">
<g>
	<g id="circle_13_">
		<g>
			<path d="M32,0C14.328,0,0,14.327,0,32c0,17.674,14.328,32,32,32c17.673,0,32-14.326,32-32C64,14.327,49.673,0,32,0z M32,62
				C15.432,62,2,48.569,2,32C2,15.432,15.432,2,32,2c16.568,0,30,13.432,30,30C62,48.569,48.568,62,32,62z"/>
		</g>
	</g>
	<g id="Shape_1_copy_2">
		<g>
			<path d="M49,36l-6-5v4H26v-2h12c1.657,0,3-1.343,3-3s-1.343-3-3-3H22v-4l-6,5l6,5v-4h16c0.552,0,1,0.447,1,1s-0.448,1-1,1H27
				c-1.657,0-3,1.343-3,3s1.343,3,3,3c0.217,0,0.425-0.031,0.629-0.075C27.745,36.972,27.869,37,28,37h15v4L49,36z"/>
		</g>
	</g>
</g>
<g>
</g>
<g>
</g>
<g>
</g>
<g>
</g>
<g>
</g>
<g>
</g>
<g>
</g>
<g>
</g>
<g>
</g>
<g>
</g>
<g>
</g>
<g>
</g>
<g>
</g>
<g>
</g>
<g>
</g>
</svg>
