<?xml version="1.0" encoding="iso-8859-1"?>
<!-- Generator: Adobe Illustrator 16.0.4, SVG Export Plug-In . SVG Version: 6.00 Build 0)  -->
<!DOCTYPE svg PUBLIC "-//W3C//DTD SVG 1.1//EN" "http://www.w3.org/Graphics/SVG/1.1/DTD/svg11.dtd">
<svg version="1.1" id="Capa_1" xmlns="http://www.w3.org/2000/svg" xmlns:xlink="http://www.w3.org/1999/xlink" x="0px" y="0px"
	 width="64px" height="64px" viewBox="0 0 64 64" style="enable-background:new 0 0 64 64;" xml:space="preserve">
<g>
	<g id="circle_46_">
		<g>
			<path d="M32,0C14.327,0,0,14.327,0,32s14.327,32,32,32s32-14.327,32-32S49.673,0,32,0z M32,62C15.432,62,1.999,48.569,1.999,32
				C1.999,15.432,15.432,2,32,2s30,13.432,30,30C62,48.569,48.568,62,32,62z"/>
		</g>
	</g>
	<g id="Rectangle_3_copy_2">
		<g>
			<path d="M40,23.973c0-1.104-0.896-2.147-2-2.33l-14.04-2.474L24.129,19H42v20h2V19c0-1.104-0.896-2-2-2H28
				c-0.17,0-3.769-0.231-5,1l-2,2c0,1.432,0,23,0,23c0,1.104,0.896,2,2,2l15,2.643c1.104,0.183,2-0.564,2-1.67V23.973z M38,45.643
				L23,43V21l15,2.643V45.643z"/>
		</g>
	</g>
	<g id="correction">
		<g>
			<path d="M42,35v6h-2v2h2c1.104,0,2-0.896,2-2v-6H42z"/>
		</g>
	</g>
</g>
<g>
</g>
<g>
</g>
<g>
</g>
<g>
</g>
<g>
</g>
<g>
</g>
<g>
</g>
<g>
</g>
<g>
</g>
<g>
</g>
<g>
</g>
<g>
</g>
<g>
</g>
<g>
</g>
<g>
</g>
</svg>
