<?xml version="1.0" encoding="iso-8859-1"?>
<!-- Generator: Adobe Illustrator 16.0.4, SVG Export Plug-In . SVG Version: 6.00 Build 0)  -->
<!DOCTYPE svg PUBLIC "-//W3C//DTD SVG 1.1//EN" "http://www.w3.org/Graphics/SVG/1.1/DTD/svg11.dtd">
<svg version="1.1" id="Capa_1" xmlns="http://www.w3.org/2000/svg" xmlns:xlink="http://www.w3.org/1999/xlink" x="0px" y="0px"
	 width="64px" height="64px" viewBox="0 0 64 64" style="enable-background:new 0 0 64 64;" xml:space="preserve">
<g>
	<g id="circle_29_">
		<g>
			<path d="M32,0C14.327,0,0,14.327,0,32s14.327,32,32,32s32-14.327,32-32S49.673,0,32,0z M32,62C15.432,62,2,48.569,2,32
				C2,15.432,15.432,2,32,2s30,13.432,30,30C62,48.569,48.568,62,32,62z"/>
		</g>
	</g>
	<g id="Rounded_Rectangle_2_copy">
		<g>
			<path d="M48,23c0-3.313-2.687-6-6-6H28c-3.313,0-6,2.687-6,6v8c0,3.313,2.687,6,6,6h11.93l6.204,4.665
				c0.479,0.479,0.919,0.548,1.397,0.272c0.363-0.21,0.511-0.519,0.457-0.909C47.989,41.008,48,31.343,48,31V23z M46,39.442
				l-5.116-3.976c-0.25-0.437-0.772-0.595-1.227-0.422c0.002-0.015,0.003-0.03,0.005-0.045H28c-2.209,0-4-1.791-4-4v-8
				c0-2.209,1.791-4,4-4h14c2.209,0,4,1.791,4,4V39.442z"/>
		</g>
	</g>
	<g id="Rounded_Rectangle_1">
		<g>
			<path d="M31,24c-1.656,0-3,1.343-3,3s1.344,3,3,3c1.657,0,3-1.343,3-3S32.657,24,31,24z M31,28c-0.552,0-1-0.447-1-1
				c0-0.552,0.448-1,1-1c0.553,0,1,0.448,1,1C32,27.553,31.553,28,31,28z"/>
		</g>
	</g>
	<g id="Rounded_Rectangle_1_copy_2">
		<g>
			<path d="M39,24c-1.656,0-3,1.343-3,3s1.344,3,3,3c1.657,0,3-1.343,3-3S40.657,24,39,24z M39,28c-0.552,0-1-0.447-1-1
				c0-0.552,0.448-1,1-1c0.553,0,1,0.448,1,1C40,27.553,39.553,28,39,28z"/>
		</g>
	</g>
	<g id="Rounded_Rectangle_2_copy_2">
		<g>
			<path d="M33.992,37c-0.04,2.164-1.809,3.908-3.992,3.908h-5.661c0.002,0.015,0.002,0.029,0.004,0.044
				c-0.454-0.172-0.976-0.014-1.227,0.421L18,45.329V32.973c0-2.199,1.791-3.981,4-3.981V28c0-0.341,0.035-0.674,0.09-1H22
				c-3.313,0-6,2.674-6,5.973v3.954c0,0.341,0.011,9.961,0.012,9.981c-0.054,0.389,0.094,0.696,0.457,0.905
				c0.479,0.274,0.919,0.205,1.397-0.271l6.204-4.644H30c3.289,0,5.956-2.635,5.996-5.898H33.992z"/>
		</g>
	</g>
</g>
<g>
</g>
<g>
</g>
<g>
</g>
<g>
</g>
<g>
</g>
<g>
</g>
<g>
</g>
<g>
</g>
<g>
</g>
<g>
</g>
<g>
</g>
<g>
</g>
<g>
</g>
<g>
</g>
<g>
</g>
</svg>
