<?xml version="1.0" encoding="iso-8859-1"?>
<!-- Generator: Adobe Illustrator 16.0.4, SVG Export Plug-In . SVG Version: 6.00 Build 0)  -->
<!DOCTYPE svg PUBLIC "-//W3C//DTD SVG 1.1//EN" "http://www.w3.org/Graphics/SVG/1.1/DTD/svg11.dtd">
<svg version="1.1" id="Capa_1" xmlns="http://www.w3.org/2000/svg" xmlns:xlink="http://www.w3.org/1999/xlink" x="0px" y="0px"
	 width="64px" height="64px" viewBox="0 0 64 64" style="enable-background:new 0 0 64 64;" xml:space="preserve">
<g>
	<g id="circle_10_">
		<g>
			<path d="M32,0C14.327,0,0,14.327,0,32s14.327,32,32,32s32-14.327,32-32S49.673,0,32,0z M32,62C15.432,62,2,48.569,2,32
				C2,15.432,15.432,2,32,2s30,13.432,30,30C62,48.569,48.568,62,32,62z"/>
		</g>
	</g>
	<g id="Rectangle_1">
		<g>
			<path d="M37.015,31.555l-6.569-6.569L30,25.431V25h-7c-1.104,0-2,0.896-2,2v18c0,1.104,0.896,2,2,2h12c1.104,0,2-0.896,2-2V32
				h-0.431L37.015,31.555z M30,27.46L34.54,32H30V27.46z M35,45H23V27h5v5c0,1.104,0.896,2,2,2h5V45z"/>
		</g>
	</g>
	<g id="Rectangle_1_copy">
		<g>
			<path d="M44.015,23.555l-6.569-6.569L37,17.431V17h-7c-1.104,0-2,0.896-2,2v4h2v-4h5v5c0,1.104,0.896,2,2,2h5v11h-3v2h3
				c1.104,0,2-0.896,2-2V24h-0.431L44.015,23.555z M37,24v-4.54L41.54,24H37z"/>
		</g>
	</g>
</g>
<g>
</g>
<g>
</g>
<g>
</g>
<g>
</g>
<g>
</g>
<g>
</g>
<g>
</g>
<g>
</g>
<g>
</g>
<g>
</g>
<g>
</g>
<g>
</g>
<g>
</g>
<g>
</g>
<g>
</g>
</svg>
