<?xml version="1.0" encoding="iso-8859-1"?>
<!-- Generator: Adobe Illustrator 16.0.4, SVG Export Plug-In . SVG Version: 6.00 Build 0)  -->
<!DOCTYPE svg PUBLIC "-//W3C//DTD SVG 1.1//EN" "http://www.w3.org/Graphics/SVG/1.1/DTD/svg11.dtd">
<svg version="1.1" id="Capa_1" xmlns="http://www.w3.org/2000/svg" xmlns:xlink="http://www.w3.org/1999/xlink" x="0px" y="0px"
	 width="64px" height="64px" viewBox="0 0 64 64" style="enable-background:new 0 0 64 64;" xml:space="preserve">
<g>
	<g id="Rewind_copy_6_1_">
		<g>
			<path d="M32,0C14.327,0,0,14.327,0,32s14.327,32,32,32c17.672,0,32-14.327,32-32S49.672,0,32,0z M32,62C15.432,62,2,48.569,2,32
				C2,15.432,15.432,2,32,2s30,13.432,30,30C62,48.569,48.568,62,32,62z"/>
		</g>
	</g>
	<g id="Reply_copy_4_1_">
		<g>
			<path d="M46.109,30.341l-12-7.989c-0.613-0.408-1.402-0.447-2.053-0.1C31.405,22.599,31,23.276,31,24.014v4.257l-8.891-5.919
				c-0.613-0.408-1.402-0.447-2.053-0.1C19.405,22.599,19,23.276,19,24.014v15.979c0,0.737,0.406,1.412,1.057,1.761
				c0.65,0.348,1.439,0.311,2.053-0.1L31,35.735v4.258c0,0.737,0.406,1.412,1.057,1.761c0.65,0.348,1.439,0.311,2.053-0.1l12-7.989
				C46.666,33.294,47,32.67,47,32.003C47,31.335,46.666,30.712,46.109,30.341z M43.821,33.246l-8.482,5.793
				c-0.459,0.307-1.05,0.335-1.537,0.074s-0.791-0.766-0.791-1.318v-4.607L33,33.19V33h-0.895c-0.083,0.093-0.178,0.176-0.284,0.246
				l-0.546,0.373L31,33.688v0.12l-7.661,5.231c-0.459,0.307-1.05,0.335-1.537,0.074s-0.791-0.766-0.791-1.318V26.209
				c0-0.552,0.304-1.059,0.791-1.318s1.078-0.23,1.537,0.074L31,30.197v0.021l0.058,0.018l0.764,0.522
				c0.104,0.069,0.198,0.15,0.281,0.241H33v-0.16l0.012,0.004v-4.635c0-0.552,0.304-1.059,0.791-1.318s1.077-0.23,1.537,0.074
				l8.482,5.794c0.417,0.277,0.667,0.743,0.667,1.243S44.238,32.969,43.821,33.246z"/>
		</g>
	</g>
</g>
<g>
</g>
<g>
</g>
<g>
</g>
<g>
</g>
<g>
</g>
<g>
</g>
<g>
</g>
<g>
</g>
<g>
</g>
<g>
</g>
<g>
</g>
<g>
</g>
<g>
</g>
<g>
</g>
<g>
</g>
</svg>
