<?xml version="1.0" encoding="iso-8859-1"?>
<!-- Generator: Adobe Illustrator 16.0.4, SVG Export Plug-In . SVG Version: 6.00 Build 0)  -->
<!DOCTYPE svg PUBLIC "-//W3C//DTD SVG 1.1//EN" "http://www.w3.org/Graphics/SVG/1.1/DTD/svg11.dtd">
<svg version="1.1" id="Capa_1" xmlns="http://www.w3.org/2000/svg" xmlns:xlink="http://www.w3.org/1999/xlink" x="0px" y="0px"
	 width="64px" height="64px" viewBox="0 0 64 64" style="enable-background:new 0 0 64 64;" xml:space="preserve">
<g>
	<g id="circle_21_">
		<g>
			<path d="M32,0C14.328,0,0,14.327,0,32s14.328,32,32,32s32-14.327,32-32S49.673,0,32,0z M32,62C15.432,62,2,48.569,2,32
				C2,15.432,15.432,2,32,2c16.568,0,30,13.432,30,30C62,48.569,48.568,62,32,62z"/>
		</g>
	</g>
	<g id="Ellipse_4">
		<g>
			<path d="M32,23c-2.209,0-4,1.791-4,4s1.791,4,4,4s4-1.791,4-4S34.209,23,32,23z M32,29c-1.104,0-2-0.896-2-2s0.896-2,2-2
				s2,0.896,2,2S33.105,29,32,29z M32,16c-6.075,0-11,4.925-11,11s7.322,23,11,23s11-16.925,11-23S38.076,16,32,16z M32,48
				c-3.454,0-9-16.029-9-21s4.029-9,9-9s9,4.029,9,9S35.455,48,32,48z"/>
		</g>
	</g>
</g>
<g>
</g>
<g>
</g>
<g>
</g>
<g>
</g>
<g>
</g>
<g>
</g>
<g>
</g>
<g>
</g>
<g>
</g>
<g>
</g>
<g>
</g>
<g>
</g>
<g>
</g>
<g>
</g>
<g>
</g>
</svg>
