<?xml version="1.0" encoding="iso-8859-1"?>
<!-- Generator: Adobe Illustrator 16.0.4, SVG Export Plug-In . SVG Version: 6.00 Build 0)  -->
<!DOCTYPE svg PUBLIC "-//W3C//DTD SVG 1.1//EN" "http://www.w3.org/Graphics/SVG/1.1/DTD/svg11.dtd">
<svg version="1.1" id="Capa_1" xmlns="http://www.w3.org/2000/svg" xmlns:xlink="http://www.w3.org/1999/xlink" x="0px" y="0px"
	 width="64px" height="64px" viewBox="0 0 64 64" style="enable-background:new 0 0 64 64;" xml:space="preserve">
<g>
	<g id="circle_33_">
		<g>
			<path d="M32,0C14.327,0,0,14.327,0,32s14.327,32,32,32s32-14.327,32-32S49.673,0,32,0z M32,62C15.432,62,2,48.569,2,32
				C2,15.432,15.432,2,32,2s30,13.432,30,30C62,48.569,48.568,62,32,62z"/>
		</g>
	</g>
	<g id="Ellipse_13_1_">
		<g>
			<path d="M37.91,31c-0.423-2.51-2.401-4.486-4.91-4.909V22h-2v4.091c-2.509,0.423-4.487,2.399-4.91,4.909H22v2h4.091
				c0.423,2.509,2.399,4.487,4.909,4.91V42h2v-4.09c2.51-0.423,4.486-2.401,4.909-4.91H42v-2H37.91z M36,32.049
				c-0.026,2.172-1.779,3.925-3.951,3.951h-0.098c-2.172-0.026-3.925-1.779-3.951-3.951v-0.098c0.026-2.172,1.779-3.925,3.951-3.951
				h0.098c2.172,0.026,3.925,1.779,3.951,3.951V32.049z"/>
		</g>
	</g>
</g>
<g>
</g>
<g>
</g>
<g>
</g>
<g>
</g>
<g>
</g>
<g>
</g>
<g>
</g>
<g>
</g>
<g>
</g>
<g>
</g>
<g>
</g>
<g>
</g>
<g>
</g>
<g>
</g>
<g>
</g>
</svg>
