<?xml version="1.0" encoding="iso-8859-1"?>
<!-- Generator: Adobe Illustrator 16.0.4, SVG Export Plug-In . SVG Version: 6.00 Build 0)  -->
<!DOCTYPE svg PUBLIC "-//W3C//DTD SVG 1.1//EN" "http://www.w3.org/Graphics/SVG/1.1/DTD/svg11.dtd">
<svg version="1.1" id="Capa_1" xmlns="http://www.w3.org/2000/svg" xmlns:xlink="http://www.w3.org/1999/xlink" x="0px" y="0px"
	 width="64px" height="64px" viewBox="0 0 64 64" style="enable-background:new 0 0 64 64;" xml:space="preserve">
<g>
	<g id="circle_26_">
		<g>
			<path d="M32,0C14.327,0,0,14.327,0,32s14.327,32,32,32s32-14.327,32-32S49.673,0,32,0z M32,62C15.432,62,2,48.569,2,32
				C2,15.432,15.432,2,32,2c16.568,0,30,13.432,30,30C62,48.569,48.568,62,32,62z"/>
		</g>
	</g>
	<g id="Ellipse_5_copy">
		<g>
			<path d="M46.365,20.636c-3.515-3.515-9.213-3.515-12.728,0c-1.504,1.504-2.325,3.407-2.532,5.364H31v12h-0.047
				c-0.209,1.405-0.836,2.783-2.004,3.95c-2.929,2.929-7.166,2.733-9.899,0c-2.734-2.733-2.734-7.166,0-9.899
				c2.153-2.153,5.35-2.583,7.95-1.345v-2.155c-3.168-1.123-6.83-0.449-9.364,2.086c-3.515,3.515-3.515,9.213,0,12.728
				c3.515,3.515,9.213,3.515,12.728,0c1.502-1.502,2.322-3.405,2.541-5.364H33V27h0c0-1.792,0.684-3.583,2.05-4.95
				c2.734-2.733,7.166-2.733,9.899,0c2.734,2.733,2.929,6.971,0,9.899c-2.298,2.299-5.399,2.665-7.95,1.399v2.101
				c3.168,1.123,6.83,0.449,9.365-2.086C49.879,29.849,49.879,24.15,46.365,20.636z"/>
		</g>
	</g>
</g>
<g>
</g>
<g>
</g>
<g>
</g>
<g>
</g>
<g>
</g>
<g>
</g>
<g>
</g>
<g>
</g>
<g>
</g>
<g>
</g>
<g>
</g>
<g>
</g>
<g>
</g>
<g>
</g>
<g>
</g>
</svg>
