<?xml version="1.0" encoding="iso-8859-1"?>
<!-- Generator: Adobe Illustrator 16.0.4, SVG Export Plug-In . SVG Version: 6.00 Build 0)  -->
<!DOCTYPE svg PUBLIC "-//W3C//DTD SVG 1.1//EN" "http://www.w3.org/Graphics/SVG/1.1/DTD/svg11.dtd">
<svg version="1.1" id="Capa_1" xmlns="http://www.w3.org/2000/svg" xmlns:xlink="http://www.w3.org/1999/xlink" x="0px" y="0px"
	 width="64px" height="64px" viewBox="0 0 64 64" style="enable-background:new 0 0 64 64;" xml:space="preserve">
<g>
	<g id="circle_copy_4_5_">
		<g>
			<path d="M32,0C14.327,0,0,14.327,0,32s14.327,32,32,32s32-14.327,32-32S49.673,0,32,0z M32,62C15.432,62,2,48.569,2,32.001
				C2,15.432,15.432,2,32,2s30,13.432,30,30.001C62,48.569,48.568,62,32,62z"/>
		</g>
	</g>
	<g id="Settings_1_">
		<g>
			<path d="M45,22c-2.209,0-4,1.791-4,4s1.791,4,4,4s4-1.791,4-4S47.209,22,45,22z M45,28c-1.104,0-2-0.896-2-2s0.896-2,2-2
				s2,0.896,2,2S46.104,28,45,28z"/>
		</g>
	</g>
	<g id="Shape_2">
		<g>
			<path d="M42.645,27.838l-4.643,7.295l-4.447-2.965l-0.247,0.37l-0.14-0.093l-3.104,4.657l-5.482-3.916l-0.248,0.347l-0.152-0.106
				l-7,10l1.639,1.146l6.088-8.696l5.512,3.937l0.259-0.362l0.154,0.104l3.138-4.706l4.476,2.983l0.257-0.385l0.142,0.09
				l5.484-8.619C43.646,28.762,43.062,28.371,42.645,27.838z"/>
		</g>
	</g>
</g>
<g>
</g>
<g>
</g>
<g>
</g>
<g>
</g>
<g>
</g>
<g>
</g>
<g>
</g>
<g>
</g>
<g>
</g>
<g>
</g>
<g>
</g>
<g>
</g>
<g>
</g>
<g>
</g>
<g>
</g>
</svg>
