<?xml version="1.0" encoding="iso-8859-1"?>
<!-- Generator: Adobe Illustrator 16.0.4, SVG Export Plug-In . SVG Version: 6.00 Build 0)  -->
<!DOCTYPE svg PUBLIC "-//W3C//DTD SVG 1.1//EN" "http://www.w3.org/Graphics/SVG/1.1/DTD/svg11.dtd">
<svg version="1.1" id="Capa_1" xmlns="http://www.w3.org/2000/svg" xmlns:xlink="http://www.w3.org/1999/xlink" x="0px" y="0px"
	 width="64px" height="64px" viewBox="0 0 64 64" style="enable-background:new 0 0 64 64;" xml:space="preserve">
<g>
	<g id="circle_15_">
		<g>
			<path d="M32,0C14.327,0,0,14.327,0,32c0,17.674,14.327,32,32,32s32-14.326,32-32C64,14.327,49.673,0,32,0z M32,62
				C15.432,62,2,48.569,2,32C2,15.432,15.432,2,32,2s30,13.432,30,30C62,48.569,48.568,62,32,62z"/>
		</g>
	</g>
	<g id="mouse_copy">
		<g>
			<path d="M44,19H20c-2.209,0-4,1.791-4,4v12c0,2.209,1.791,4,4,4h11v4h-5c-0.552,0-1,0.447-1,1s0.448,1,1,1h12
				c0.553,0,1-0.447,1-1s-0.447-1-1-1h-5v-4h11c2.209,0,4-1.791,4-4V23C48,20.791,46.209,19,44,19z M46,35c0,1.104-0.896,2-2,2H20
				c-1.104,0-2-0.896-2-2V23c0-1.104,0.896-2,2-2h24c1.104,0,2,0.896,2,2V35z"/>
		</g>
	</g>
</g>
<g>
</g>
<g>
</g>
<g>
</g>
<g>
</g>
<g>
</g>
<g>
</g>
<g>
</g>
<g>
</g>
<g>
</g>
<g>
</g>
<g>
</g>
<g>
</g>
<g>
</g>
<g>
</g>
<g>
</g>
</svg>
