<?xml version="1.0" encoding="iso-8859-1"?>
<!-- Generator: Adobe Illustrator 16.0.4, SVG Export Plug-In . SVG Version: 6.00 Build 0)  -->
<!DOCTYPE svg PUBLIC "-//W3C//DTD SVG 1.1//EN" "http://www.w3.org/Graphics/SVG/1.1/DTD/svg11.dtd">
<svg version="1.1" id="Capa_1" xmlns="http://www.w3.org/2000/svg" xmlns:xlink="http://www.w3.org/1999/xlink" x="0px" y="0px"
	 width="64px" height="64px" viewBox="0 0 64 64" style="enable-background:new 0 0 64 64;" xml:space="preserve">
<g>
	<g id="circle_43_">
		<g>
			<path d="M32,0C14.328,0,0,14.327,0,32s14.328,32,32,32c17.673,0,32-14.327,32-32S49.673,0,32,0z M32,62C15.432,62,2,48.569,2,32
				C2,15.432,15.432,2,32,2c16.568,0,30,13.432,30,30C62,48.569,48.568,62,32,62z"/>
		</g>
	</g>
	<g id="Rounded_Rectangle_20">
		<g>
			<path d="M44,21H20c-1.104,0-2,0.896-2,2v16c0,1.104,0.896,2,2,2h24c1.104,0,2-0.896,2-2V23C46,21.896,45.105,21,44,21z M44,39H20
				V23h24V39z"/>
		</g>
	</g>
	<g id="Rounded_Rectangle_21">
		<g>
			<path d="M15,39v2c0,1.104,0.896,2,2,2h30c1.104,0,2-0.896,2-2v-2H15z"/>
		</g>
	</g>
</g>
<g>
</g>
<g>
</g>
<g>
</g>
<g>
</g>
<g>
</g>
<g>
</g>
<g>
</g>
<g>
</g>
<g>
</g>
<g>
</g>
<g>
</g>
<g>
</g>
<g>
</g>
<g>
</g>
<g>
</g>
</svg>
