<?xml version="1.0" encoding="iso-8859-1"?>
<!-- Generator: Adobe Illustrator 16.0.4, SVG Export Plug-In . SVG Version: 6.00 Build 0)  -->
<!DOCTYPE svg PUBLIC "-//W3C//DTD SVG 1.1//EN" "http://www.w3.org/Graphics/SVG/1.1/DTD/svg11.dtd">
<svg version="1.1" id="Capa_1" xmlns="http://www.w3.org/2000/svg" xmlns:xlink="http://www.w3.org/1999/xlink" x="0px" y="0px"
	 width="64px" height="64px" viewBox="0 0 64 64" style="enable-background:new 0 0 64 64;" xml:space="preserve">
<g>
	<g id="circle_6_">
		<g>
			<path d="M32,0C14.327,0,0,14.327,0,32c0,17.674,14.327,32,32,32s32-14.326,32-32C64,14.327,49.673,0,32,0z M32,62
				C15.432,62,2,48.569,2,32.001C2,15.432,15.432,2,32,2s30,13.432,30,30.001C62,48.569,48.568,62,32,62z"/>
		</g>
	</g>
	<g id="Rounded_Rectangle_6">
		<g>
			<path d="M38,16H26c-2.209,0-4,1.791-4,4v24c0,2.209,1.791,4,4,4h12c2.209,0,4-1.791,4-4V20C42,17.791,40.209,16,38,16z M40,44
				c0,1.104-0.896,2-2,2H26c-1.104,0-2-0.896-2-2V20c0-1.104,0.896-2,2-2h12c1.104,0,2,0.896,2,2V44z"/>
		</g>
	</g>
	<g id="Rounded_Rectangle_1_copy">
		<g>
			<path d="M32,38c-1.657,0-3,1.343-3,3s1.343,3,3,3s3-1.343,3-3S33.657,38,32,38z M32,42c-0.553,0-1-0.447-1-1s0.447-1,1-1
				s1,0.447,1,1S32.553,42,32,42z"/>
		</g>
	</g>
	<g id="Rounded_Rectangle_7">
		<g>
			<path d="M35,20h-6c-0.553,0-1,0.447-1,1s0.447,1,1,1h6c0.553,0,1-0.447,1-1S35.553,20,35,20z"/>
		</g>
	</g>
</g>
<g>
</g>
<g>
</g>
<g>
</g>
<g>
</g>
<g>
</g>
<g>
</g>
<g>
</g>
<g>
</g>
<g>
</g>
<g>
</g>
<g>
</g>
<g>
</g>
<g>
</g>
<g>
</g>
<g>
</g>
</svg>
