<?xml version="1.0" encoding="iso-8859-1"?>
<!-- Generator: Adobe Illustrator 16.0.4, SVG Export Plug-In . SVG Version: 6.00 Build 0)  -->
<!DOCTYPE svg PUBLIC "-//W3C//DTD SVG 1.1//EN" "http://www.w3.org/Graphics/SVG/1.1/DTD/svg11.dtd">
<svg version="1.1" id="Capa_1" xmlns="http://www.w3.org/2000/svg" xmlns:xlink="http://www.w3.org/1999/xlink" x="0px" y="0px"
	 width="64px" height="64px" viewBox="0 0 64 64" style="enable-background:new 0 0 64 64;" xml:space="preserve">
<g>
	<g id="circle_30_">
		<g>
			<path d="M32,0C14.327,0,0,14.327,0,32s14.327,32,32,32s32-14.327,32-32S49.673,0,32,0z M32,62C15.432,62,2,48.569,2,32
				C2,15.432,15.432,2,32,2s30,13.432,30,30C62,48.569,48.568,62,32,62z"/>
		</g>
	</g>
	<g id="Radio">
		<g>
			<path d="M26,28c-3.313,0-6,2.687-6,6s2.687,6,6,6s6-2.687,6-6S29.313,28,26,28z M26,38c-2.209,0-4-1.791-4-4s1.791-4,4-4
				s4,1.791,4,4S28.209,38,26,38z M43,28c-0.552,0-1,0.448-1,1c0,0.553,0.448,1,1,1c0.553,0,1-0.447,1-1C44,28.448,43.553,28,43,28z
				 M44,24H20c-2.209,0-4,1.791-4,4v12c0,2.209,1.791,4,4,4h24c2.209,0,4-1.791,4-4V28C48,25.791,46.209,24,44,24z M46,40
				c0,1.104-0.896,2-2,2H20c-1.104,0-2-0.896-2-2V28c0-1.104,0.896-2,2-2h24c1.104,0,2,0.896,2,2V40z"/>
		</g>
	</g>
	<g id="antenna">
		<g>
			<path d="M39,15c-1.657,0-3,1.343-3,3c0,1.305,0.837,2.403,2,2.816V24h2v-3.184c1.163-0.413,2-1.512,2-2.816
				C42,16.343,40.657,15,39,15z M39,19c-0.552,0-1-0.447-1-1c0-0.552,0.448-1,1-1c0.553,0,1,0.448,1,1C40,18.553,39.553,19,39,19z"
				/>
		</g>
	</g>
</g>
<g>
</g>
<g>
</g>
<g>
</g>
<g>
</g>
<g>
</g>
<g>
</g>
<g>
</g>
<g>
</g>
<g>
</g>
<g>
</g>
<g>
</g>
<g>
</g>
<g>
</g>
<g>
</g>
<g>
</g>
</svg>
