<?xml version="1.0" encoding="iso-8859-1"?>
<!-- Generator: Adobe Illustrator 16.0.4, SVG Export Plug-In . SVG Version: 6.00 Build 0)  -->
<!DOCTYPE svg PUBLIC "-//W3C//DTD SVG 1.1//EN" "http://www.w3.org/Graphics/SVG/1.1/DTD/svg11.dtd">
<svg version="1.1" id="Capa_1" xmlns="http://www.w3.org/2000/svg" xmlns:xlink="http://www.w3.org/1999/xlink" x="0px" y="0px"
	 width="64px" height="64px" viewBox="0 0 64 64" style="enable-background:new 0 0 64 64;" xml:space="preserve">
<g>
	<g id="circle_47_">
		<g>
			<path d="M32,0C14.327,0,0,14.327,0,32s14.327,32,32,32s32-14.327,32-32S49.673,0,32,0z M32,62C15.432,62,2,48.569,2,32
				C2,15.432,15.432,2,32,2s30,13.432,30,30C62,48.569,48.568,62,32,62z"/>
		</g>
	</g>
	<g id="Settings_copy">
		<g>
			<path d="M42,34c-0.494,0-0.963,0.102-1.4,0.266l-5.214-8.156C35.769,25.496,36,24.777,36,24c0-2.209-1.791-4-4-4s-4,1.791-4,4
				c0,0.911,0.316,1.74,0.829,2.413l-0.134-0.086l-5.155,7.981C23.065,34.111,22.546,34,22,34c-2.209,0-4,1.791-4,4s1.791,4,4,4
				s4-1.791,4-4c0-0.935-0.334-1.783-0.871-2.465l5.134-7.947C30.79,27.844,31.374,28,32,28c0.687,0,1.323-0.189,1.889-0.494
				l5.067,7.928C38.368,36.13,38,37.018,38,38c0,2.209,1.791,4,4,4s4-1.791,4-4S44.209,34,42,34z M22,40c-1.104,0-2-0.896-2-2
				s0.896-2,2-2c0.144,0,0.283,0.017,0.418,0.045L22.4,36.073l1.262,0.814C23.875,37.206,24,37.588,24,38C24,39.104,23.104,40,22,40
				z M32,26c-1.104,0-2-0.896-2-2s0.896-2,2-2s2,0.896,2,2S33.104,26,32,26z M42,40c-1.104,0-2-0.896-2-2s0.896-2,2-2s2,0.896,2,2
				S43.104,40,42,40z"/>
		</g>
	</g>
</g>
<g>
</g>
<g>
</g>
<g>
</g>
<g>
</g>
<g>
</g>
<g>
</g>
<g>
</g>
<g>
</g>
<g>
</g>
<g>
</g>
<g>
</g>
<g>
</g>
<g>
</g>
<g>
</g>
<g>
</g>
</svg>
