<?xml version="1.0" encoding="iso-8859-1"?>
<!-- Generator: Adobe Illustrator 16.0.4, SVG Export Plug-In . SVG Version: 6.00 Build 0)  -->
<!DOCTYPE svg PUBLIC "-//W3C//DTD SVG 1.1//EN" "http://www.w3.org/Graphics/SVG/1.1/DTD/svg11.dtd">
<svg version="1.1" id="Capa_1" xmlns="http://www.w3.org/2000/svg" xmlns:xlink="http://www.w3.org/1999/xlink" x="0px" y="0px"
	 width="64px" height="64px" viewBox="0 0 64 64" style="enable-background:new 0 0 64 64;" xml:space="preserve">
<g>
	<g id="circle_25_">
		<g>
			<path d="M32,0C14.327,0,0,14.327,0,32s14.327,32,32,32s32-14.327,32-32S49.673,0,32,0z M32,62C15.432,62,2,48.569,2,32
				C2,15.432,15.432,2,32,2s30,13.432,30,30C62,48.569,48.568,62,32,62z"/>
		</g>
	</g>
	<g id="search_1_">
		<g>
			<path d="M25.356,27.084C25.078,27.035,24.794,27,24.5,27c-3.038,0-5.5,2.463-5.5,5.5s2.462,5.5,5.5,5.5
				c0.294,0,0.578-0.035,0.856-0.084c1.712,3.2,4.895,5.485,8.644,5.975V44h2V21.025C35.833,21.018,35.669,21,35.5,21
				C31.107,21,27.293,23.464,25.356,27.084z M24.545,35.997C24.53,35.997,24.515,36,24.5,36c-1.933,0-3.5-1.566-3.5-3.5
				c0-1.933,1.567-3.5,3.5-3.5c0.015,0,0.03,0.003,0.045,0.003C24.193,30.106,24,31.28,24,32.5S24.193,34.894,24.545,35.997z
				 M34,41.87c-4.532-0.721-8-4.635-8-9.37c0-4.734,3.468-8.649,8-9.37V41.87z M38,23.344v2.092c2.911,1.031,5,3.801,5,7.064
				c0,3.265-2.089,6.033-5,7.064v2.092c4.032-1.099,7-4.776,7-9.156S42.032,24.442,38,23.344z M41,32.5c0-2.132-1.226-3.96-3-4.873
				v2.429c0.617,0.631,1,1.492,1,2.444s-0.383,1.813-1,2.444v2.429C39.774,36.46,41,34.632,41,32.5z"/>
		</g>
	</g>
</g>
<g>
</g>
<g>
</g>
<g>
</g>
<g>
</g>
<g>
</g>
<g>
</g>
<g>
</g>
<g>
</g>
<g>
</g>
<g>
</g>
<g>
</g>
<g>
</g>
<g>
</g>
<g>
</g>
<g>
</g>
</svg>
