<?xml version="1.0" encoding="iso-8859-1"?>
<!-- Generator: Adobe Illustrator 16.0.4, SVG Export Plug-In . SVG Version: 6.00 Build 0)  -->
<!DOCTYPE svg PUBLIC "-//W3C//DTD SVG 1.1//EN" "http://www.w3.org/Graphics/SVG/1.1/DTD/svg11.dtd">
<svg version="1.1" id="Capa_1" xmlns="http://www.w3.org/2000/svg" xmlns:xlink="http://www.w3.org/1999/xlink" x="0px" y="0px"
	 width="64px" height="64px" viewBox="0 0 64 64" style="enable-background:new 0 0 64 64;" xml:space="preserve">
<g>
	<g id="circle_44_">
		<g>
			<path d="M32,0C14.328,0,0,14.327,0,32s14.328,32,32,32c17.673,0,32-14.327,32-32S49.673,0,32,0z M32,62C15.432,62,2,48.569,2,32
				C2,15.432,15.432,2,32,2c16.569,0,30,13.432,30,30C62,48.569,48.569,62,32,62z"/>
		</g>
	</g>
	<g id="Rounded_Rectangle_20_1_">
		<g>
			<path d="M42,17H22c-1.104,0-2,0.896-2,2v26c0,1.104,0.896,2,2,2h20c1.104,0,2-0.896,2-2V19C44,17.896,43.105,17,42,17z M42,45H22
				V19h20V45z"/>
		</g>
	</g>
	<g id="Ellipse_16">
		<g>
			<path d="M32,37c-1.657,0-3,1.343-3,3s1.343,3,3,3s3-1.343,3-3S33.657,37,32,37z M32,41c-0.552,0-1-0.447-1-1s0.448-1,1-1
				s1,0.447,1,1S32.553,41,32,41z"/>
		</g>
	</g>
</g>
<g>
</g>
<g>
</g>
<g>
</g>
<g>
</g>
<g>
</g>
<g>
</g>
<g>
</g>
<g>
</g>
<g>
</g>
<g>
</g>
<g>
</g>
<g>
</g>
<g>
</g>
<g>
</g>
<g>
</g>
</svg>
