<?xml version="1.0" encoding="iso-8859-1"?>
<!-- Generator: Adobe Illustrator 16.0.4, SVG Export Plug-In . SVG Version: 6.00 Build 0)  -->
<!DOCTYPE svg PUBLIC "-//W3C//DTD SVG 1.1//EN" "http://www.w3.org/Graphics/SVG/1.1/DTD/svg11.dtd">
<svg version="1.1" id="Capa_1" xmlns="http://www.w3.org/2000/svg" xmlns:xlink="http://www.w3.org/1999/xlink" x="0px" y="0px"
	 width="64px" height="64px" viewBox="0 0 64 64" style="enable-background:new 0 0 64 64;" xml:space="preserve">
<g>
	<g id="circle_34_">
		<g>
			<path d="M32,0C14.327,0,0,14.327,0,32s14.327,32,32,32c17.673,0,32-14.327,32-32S49.673,0,32,0z M32,62C15.432,62,2,48.568,2,32
				S15.432,2,32,2s30,13.432,30,30S48.568,62,32,62z"/>
		</g>
	</g>
	<g id="Rectangle_2_copy">
		<g>
			<path d="M37,24v-2c0-1.104-0.896-2-2-2h-6c-1.104,0-2,0.896-2,2v2h-5v2h2v16c0,1.104,0.896,2,2,2h12c1.104,0,2-0.896,2-2V26h2v-2
				H37z M29,22h6v2h-6V22z M38,42H26V26h12V42z M31,28h-2v12h2V28z M35,28h-2v12h2V28z"/>
		</g>
	</g>
</g>
<g>
</g>
<g>
</g>
<g>
</g>
<g>
</g>
<g>
</g>
<g>
</g>
<g>
</g>
<g>
</g>
<g>
</g>
<g>
</g>
<g>
</g>
<g>
</g>
<g>
</g>
<g>
</g>
<g>
</g>
</svg>
