<?xml version="1.0" encoding="iso-8859-1"?>
<!-- Generator: Adobe Illustrator 16.0.4, SVG Export Plug-In . SVG Version: 6.00 Build 0)  -->
<!DOCTYPE svg PUBLIC "-//W3C//DTD SVG 1.1//EN" "http://www.w3.org/Graphics/SVG/1.1/DTD/svg11.dtd">
<svg version="1.1" id="Capa_1" xmlns="http://www.w3.org/2000/svg" xmlns:xlink="http://www.w3.org/1999/xlink" x="0px" y="0px"
	 width="64px" height="64px" viewBox="0 0 64 64" style="enable-background:new 0 0 64 64;" xml:space="preserve">
<g>
	<g id="circle_42_">
		<g>
			<path d="M32,0C14.327,0,0,14.327,0,32s14.327,32,32,32s32-14.327,32-32S49.673,0,32,0z M32,62C15.432,62,2,48.569,2,32
				C2,15.432,15.432,2,32,2s30,13.432,30,30C62,48.569,48.568,62,32,62z"/>
		</g>
	</g>
	<g id="Rounded_Rectangle_19">
		<g>
			<path d="M48,33l-4-11c0-1.104-0.896-2-2-2H22c-1.104,0-2,0.896-2,2l-4,11c0,0.366,0.105,0.705,0.277,1
				C16.105,34.295,16,34.634,16,35v8c0,1.104,0.896,2,2,2h28c1.104,0,2-0.896,2-2v-8c0-0.366-0.105-0.705-0.277-1
				C47.895,33.705,48,33.366,48,33z M46,43H18v-8h7v2c0,1.104,0.896,2,2,2h10c1.104,0,2-0.896,2-2v-2h7V43z M39,33
				c-1.157,0-2,1.063-2,2c0,1.057,0,2,0,2H27c0,0,0-0.928,0-2c0-0.915-0.957-2-2-2c-2.622,0-7,0-7,0l4-11h20l4,11
				C46,33,41.65,33,39,33z"/>
		</g>
	</g>
</g>
<g>
</g>
<g>
</g>
<g>
</g>
<g>
</g>
<g>
</g>
<g>
</g>
<g>
</g>
<g>
</g>
<g>
</g>
<g>
</g>
<g>
</g>
<g>
</g>
<g>
</g>
<g>
</g>
<g>
</g>
</svg>
