<?xml version="1.0" encoding="iso-8859-1"?>
<!-- Generator: Adobe Illustrator 16.0.4, SVG Export Plug-In . SVG Version: 6.00 Build 0)  -->
<!DOCTYPE svg PUBLIC "-//W3C//DTD SVG 1.1//EN" "http://www.w3.org/Graphics/SVG/1.1/DTD/svg11.dtd">
<svg version="1.1" id="Capa_1" xmlns="http://www.w3.org/2000/svg" xmlns:xlink="http://www.w3.org/1999/xlink" x="0px" y="0px"
	 width="64px" height="64px" viewBox="0 0 64 64" style="enable-background:new 0 0 64 64;" xml:space="preserve">
<g>
	<g id="circle_copy_2">
		<g>
			<path d="M32,0C14.327,0,0,14.327,0,32s14.327,32,32,32s32-14.327,32-32S49.673,0,32,0z M32,62C15.432,62,2,48.569,2,32
				C2,15.432,15.432,2,32,2s30,13.432,30,30C62,48.569,48.568,62,32,62z"/>
		</g>
	</g>
	<g id="back_1_">
		<g>
			<path d="M46.109,36.354l-12-7.978c-0.613-0.409-1.402-0.446-2.053-0.099S31,29.299,31,30.035v1.4L33,32c0-0.603,0-1.531,0-1.531
				s0.907,0.016,1.411,0.351l9.389,5.776c0.457,0.303,0.731,0.813,0.731,1.357c0,0.546-0.274,0.931-0.731,1.233l-9.389,6.183
				C33.907,45.702,33,45.656,33,45.656s0-1.054,0-1.656v-4c-5.848,0-12.639-2.488-12.987-11h-0.971
				C19.012,29.342,19,29.687,19,30.035c0,6.608,5.372,11.966,12,11.966v3.989c0,0.736,0.406,1.412,1.057,1.759
				s1.439,0.308,2.053-0.1l12-7.978C46.666,39.302,47,38.68,47,38.013C47,37.347,46.666,36.724,46.109,36.354z"/>
		</g>
	</g>
	<g id="back_copy_2_1_">
		<g>
			<path d="M31,25c5.512,0,11.862,2.21,12.868,9.589L45,34.965c0-6.608-5.372-11.966-12-11.966V19.01
				c0-0.735-0.405-1.412-1.057-1.758c-0.649-0.347-1.439-0.309-2.053,0.099l-12,7.978C17.334,25.698,17,26.32,17,26.987
				c0,0.666,0.334,1.29,0.891,1.659l12,7.978c0.613,0.409,1.403,0.446,2.053,0.1C32.595,36.375,33,35.701,33,34.965v-5.873
				C32.366,29.037,31.707,29,31,29v4c0,0.603,0,1.531,0,1.531s-0.907-0.016-1.41-0.351l-9.39-5.776
				c-0.456-0.303-0.731-0.812-0.731-1.357c0-0.546,0.275-0.93,0.731-1.233l9.39-6.183c0.503-0.333,1.41-0.287,1.41-0.287
				s0,1.054,0,1.656V25z"/>
		</g>
	</g>
</g>
<g>
</g>
<g>
</g>
<g>
</g>
<g>
</g>
<g>
</g>
<g>
</g>
<g>
</g>
<g>
</g>
<g>
</g>
<g>
</g>
<g>
</g>
<g>
</g>
<g>
</g>
<g>
</g>
<g>
</g>
</svg>
