<?xml version="1.0" encoding="iso-8859-1"?>
<!-- Generator: Adobe Illustrator 16.0.4, SVG Export Plug-In . SVG Version: 6.00 Build 0)  -->
<!DOCTYPE svg PUBLIC "-//W3C//DTD SVG 1.1//EN" "http://www.w3.org/Graphics/SVG/1.1/DTD/svg11.dtd">
<svg version="1.1" id="Capa_1" xmlns="http://www.w3.org/2000/svg" xmlns:xlink="http://www.w3.org/1999/xlink" x="0px" y="0px"
	 width="64px" height="64px" viewBox="0 0 64 64" style="enable-background:new 0 0 64 64;" xml:space="preserve">
<g>
	<g id="circle_17_">
		<g>
			<path d="M32,0C14.327,0,0,14.327,0,32s14.327,32,32,32s32-14.327,32-32S49.673,0,32,0z M32,62C15.432,62,2,48.569,2,32.001
				C2,15.432,15.432,2,32,2s30,13.432,30,30.001C62,48.569,48.568,62,32,62z"/>
		</g>
	</g>
	<g id="user_2">
		<g>
			<path d="M43,33c3.313,0,6-2.687,6-6s-2.687-6-6-6s-6,2.687-6,6S39.687,33,43,33z M43,23c2.209,0,4,1.791,4,4s-1.791,4-4,4
				s-4-1.791-4-4S40.791,23,43,23z M43,35c-3.68,0-6.761,2.492-7.694,5.875C33.213,37.361,29.387,35,25,35
				c-5.055,0-9.368,3.131-11.134,7.556c-0.551,2.035,0.023,3.577,0.426,3.858C18.554,51.586,24.32,55.004,32,55
				c7.896-0.004,14.671-3.982,18.812-10.044L51,41C50.107,37.561,46.72,35,43,35z M35,52.784C34.021,52.925,33.02,53,32,53
				c-6.828,0-12.884-3.267-16.718-8.315C16.328,40.28,20.276,37,25,37c5.186,0,9.447,3.947,9.949,9H35V52.784z M37,52.386V41h0.367
				c0.827-2.325,3.024-4,5.633-4c2.972,0,5.421,2.165,5.899,5H49v2h0.189C46.316,48.114,42.018,51.154,37,52.386z M25,33
				c4.971,0,9-4.029,9-9s-4.029-9-9-9s-9,4.029-9,9S20.029,33,25,33z M25,17c3.866,0,7,3.134,7,7s-3.134,7-7,7s-7-3.134-7-7
				S21.134,17,25,17z"/>
		</g>
	</g>
</g>
<g>
</g>
<g>
</g>
<g>
</g>
<g>
</g>
<g>
</g>
<g>
</g>
<g>
</g>
<g>
</g>
<g>
</g>
<g>
</g>
<g>
</g>
<g>
</g>
<g>
</g>
<g>
</g>
<g>
</g>
</svg>
