<?xml version="1.0" encoding="iso-8859-1"?>
<!-- Generator: Adobe Illustrator 16.0.4, SVG Export Plug-In . SVG Version: 6.00 Build 0)  -->
<!DOCTYPE svg PUBLIC "-//W3C//DTD SVG 1.1//EN" "http://www.w3.org/Graphics/SVG/1.1/DTD/svg11.dtd">
<svg version="1.1" id="Capa_1" xmlns="http://www.w3.org/2000/svg" xmlns:xlink="http://www.w3.org/1999/xlink" x="0px" y="0px"
	 width="40.007px" height="40.007px" viewBox="0 0 40.007 40.007" style="enable-background:new 0 0 40.007 40.007;"
	 xml:space="preserve">
<g id="_x34_95._Up">
	<g>
		<path d="M21.418,12.418c-0.781-0.781-2.048-0.781-2.828,0h-0.001c-0.002,0.002-0.003,0.004-0.004,0.005l-5.652,5.651
			c-0.781,0.781-0.781,2.048,0,2.829v-0.001c0.781,0.781,2.047,0.781,2.828,0l2.243-2.242v8.344c0,1.104,0.896,2,2,2s2-0.896,2-2
			V18.66l2.242,2.242c0.781,0.781,2.048,0.781,2.828,0v0.001c0.781-0.781,0.781-2.048,0-2.829L21.418,12.418z M37.324,10.003
			c-5.522-9.565-17.755-12.843-27.32-7.32C0.438,8.205-2.84,20.438,2.684,30.004c5.522,9.565,17.754,12.843,27.32,7.32
			C39.569,31.801,42.847,19.569,37.324,10.003z M28.004,33.859c-7.653,4.418-17.438,1.797-21.856-5.856
			c-4.419-7.652-1.796-17.438,5.856-21.856c7.652-4.418,17.438-1.796,21.856,5.857C38.278,19.656,35.656,29.441,28.004,33.859z"/>
	</g>
</g>
<g>
</g>
<g>
</g>
<g>
</g>
<g>
</g>
<g>
</g>
<g>
</g>
<g>
</g>
<g>
</g>
<g>
</g>
<g>
</g>
<g>
</g>
<g>
</g>
<g>
</g>
<g>
</g>
<g>
</g>
</svg>
