<?xml version="1.0" encoding="iso-8859-1"?>
<!-- Generator: Adobe Illustrator 16.0.4, SVG Export Plug-In . SVG Version: 6.00 Build 0)  -->
<!DOCTYPE svg PUBLIC "-//W3C//DTD SVG 1.1//EN" "http://www.w3.org/Graphics/SVG/1.1/DTD/svg11.dtd">
<svg version="1.1" id="Capa_1" xmlns="http://www.w3.org/2000/svg" xmlns:xlink="http://www.w3.org/1999/xlink" x="0px" y="0px"
	 width="64px" height="64px" viewBox="0 0 64 64" style="enable-background:new 0 0 64 64;" xml:space="preserve">
<g>
	<g id="circle_45_">
		<g>
			<path d="M32,0C14.328,0,0,14.327,0,32s14.328,32,32,32c17.673,0,32-14.327,32-32S49.673,0,32,0z M32,62C15.432,62,2,48.569,2,32
				C2,15.432,15.432,2,32,2c16.568,0,30,13.432,30,30C62,48.569,48.568,62,32,62z"/>
		</g>
	</g>
	<g id="Rounded_Rectangle_20_2_">
		<g>
			<path d="M43,24H21c-1.104,0-2,0.896-2,2v16c0,1.104,0.896,2,2,2h22c1.104,0,2-0.896,2-2V26C45,24.896,44.105,24,43,24z M43,42H21
				V26h22V42z"/>
		</g>
	</g>
	<g id="Rounded_Rectangle_20_copy">
		<g>
			<path d="M19.118,26h1.981l-0.15-0.671l20.796-4.445L42.889,26h1.981l-1.234-5.521c-0.229-1.021-1.26-1.667-2.304-1.444
				L20.536,23.48c-1.044,0.224-1.706,1.232-1.477,2.253L19.118,26z"/>
		</g>
	</g>
	<g id="Rounded_Rectangle_22">
		<g>
			<path d="M43,36h-5v-4h5v-2h-5c-1.104,0-2,0.896-2,2v4c0,1.104,0.896,2,2,2h5V36z"/>
		</g>
	</g>
</g>
<g>
</g>
<g>
</g>
<g>
</g>
<g>
</g>
<g>
</g>
<g>
</g>
<g>
</g>
<g>
</g>
<g>
</g>
<g>
</g>
<g>
</g>
<g>
</g>
<g>
</g>
<g>
</g>
<g>
</g>
</svg>
